<?xml version="1.0" encoding="utf-8" standalone="no"?>
<!DOCTYPE svg PUBLIC "-//W3C//DTD SVG 1.1//EN"
  "http://www.w3.org/Graphics/SVG/1.1/DTD/svg11.dtd">
<svg xmlns:xlink="http://www.w3.org/1999/xlink" width="1401.214201pt" height="392.273625pt" viewBox="0 0 1401.214201 392.273625" xmlns="http://www.w3.org/2000/svg" version="1.1">
 <metadata>
  <rdf:RDF xmlns:dc="http://purl.org/dc/elements/1.1/" xmlns:cc="http://creativecommons.org/ns#" xmlns:rdf="http://www.w3.org/1999/02/22-rdf-syntax-ns#">
   <cc:Work>
    <dc:type rdf:resource="http://purl.org/dc/dcmitype/StillImage"/>
    <dc:date>2023-03-03T18:35:39.725315</dc:date>
    <dc:format>image/svg+xml</dc:format>
    <dc:creator>
     <cc:Agent>
      <dc:title>Matplotlib v3.5.1, https://matplotlib.org/</dc:title>
     </cc:Agent>
    </dc:creator>
   </cc:Work>
  </rdf:RDF>
 </metadata>
 <defs>
  <style type="text/css">*{stroke-linejoin: round; stroke-linecap: butt}</style>
 </defs>
 <g id="figure_1">
  <g id="patch_1">
   <path d="M 0 392.273625 
L 1401.214201 392.273625 
L 1401.214201 0 
L 0 0 
z
" style="fill: #ffffff"/>
  </g>
  <g id="axes_1">
   <g id="patch_2">
    <path d="M 46.0125 368.3955 
L 1385.2125 368.3955 
L 1385.2125 35.7555 
L 46.0125 35.7555 
z
" style="fill: #ffffff"/>
   </g>
   <g id="matplotlib.axis_1">
    <g id="xtick_1">
     <g id="line2d_1">
      <defs>
       <path id="md7eafb54cd" d="M 0 0 
L 0 3.5 
" style="stroke: #000000; stroke-width: 0.8"/>
      </defs>
      <g>
       <use xlink:href="#md7eafb54cd" x="83.554217" y="368.3955" style="stroke: #000000; stroke-width: 0.8"/>
      </g>
     </g>
     <g id="text_1">
      <!-- 2020-01 -->
      <g transform="translate(62.662811 382.993937)scale(0.1 -0.1)">
       <defs>
        <path id="DejaVuSans-32" d="M 1228 531 
L 3431 531 
L 3431 0 
L 469 0 
L 469 531 
Q 828 903 1448 1529 
Q 2069 2156 2228 2338 
Q 2531 2678 2651 2914 
Q 2772 3150 2772 3378 
Q 2772 3750 2511 3984 
Q 2250 4219 1831 4219 
Q 1534 4219 1204 4116 
Q 875 4013 500 3803 
L 500 4441 
Q 881 4594 1212 4672 
Q 1544 4750 1819 4750 
Q 2544 4750 2975 4387 
Q 3406 4025 3406 3419 
Q 3406 3131 3298 2873 
Q 3191 2616 2906 2266 
Q 2828 2175 2409 1742 
Q 1991 1309 1228 531 
z
" transform="scale(0.015625)"/>
        <path id="DejaVuSans-30" d="M 2034 4250 
Q 1547 4250 1301 3770 
Q 1056 3291 1056 2328 
Q 1056 1369 1301 889 
Q 1547 409 2034 409 
Q 2525 409 2770 889 
Q 3016 1369 3016 2328 
Q 3016 3291 2770 3770 
Q 2525 4250 2034 4250 
z
M 2034 4750 
Q 2819 4750 3233 4129 
Q 3647 3509 3647 2328 
Q 3647 1150 3233 529 
Q 2819 -91 2034 -91 
Q 1250 -91 836 529 
Q 422 1150 422 2328 
Q 422 3509 836 4129 
Q 1250 4750 2034 4750 
z
" transform="scale(0.015625)"/>
        <path id="DejaVuSans-2d" d="M 313 2009 
L 1997 2009 
L 1997 1497 
L 313 1497 
L 313 2009 
z
" transform="scale(0.015625)"/>
        <path id="DejaVuSans-31" d="M 794 531 
L 1825 531 
L 1825 4091 
L 703 3866 
L 703 4441 
L 1819 4666 
L 2450 4666 
L 2450 531 
L 3481 531 
L 3481 0 
L 794 0 
L 794 531 
z
" transform="scale(0.015625)"/>
       </defs>
       <use xlink:href="#DejaVuSans-32"/>
       <use xlink:href="#DejaVuSans-30" x="63.623047"/>
       <use xlink:href="#DejaVuSans-32" x="127.246094"/>
       <use xlink:href="#DejaVuSans-30" x="190.869141"/>
       <use xlink:href="#DejaVuSans-2d" x="254.492188"/>
       <use xlink:href="#DejaVuSans-30" x="290.576172"/>
       <use xlink:href="#DejaVuSans-31" x="354.199219"/>
      </g>
     </g>
    </g>
    <g id="xtick_2">
     <g id="line2d_2">
      <g>
       <use xlink:href="#md7eafb54cd" x="211.874774" y="368.3955" style="stroke: #000000; stroke-width: 0.8"/>
      </g>
     </g>
     <g id="text_2">
      <!-- 2020-05 -->
      <g transform="translate(190.983368 382.993937)scale(0.1 -0.1)">
       <defs>
        <path id="DejaVuSans-35" d="M 691 4666 
L 3169 4666 
L 3169 4134 
L 1269 4134 
L 1269 2991 
Q 1406 3038 1543 3061 
Q 1681 3084 1819 3084 
Q 2600 3084 3056 2656 
Q 3513 2228 3513 1497 
Q 3513 744 3044 326 
Q 2575 -91 1722 -91 
Q 1428 -91 1123 -41 
Q 819 9 494 109 
L 494 744 
Q 775 591 1075 516 
Q 1375 441 1709 441 
Q 2250 441 2565 725 
Q 2881 1009 2881 1497 
Q 2881 1984 2565 2268 
Q 2250 2553 1709 2553 
Q 1456 2553 1204 2497 
Q 953 2441 691 2322 
L 691 4666 
z
" transform="scale(0.015625)"/>
       </defs>
       <use xlink:href="#DejaVuSans-32"/>
       <use xlink:href="#DejaVuSans-30" x="63.623047"/>
       <use xlink:href="#DejaVuSans-32" x="127.246094"/>
       <use xlink:href="#DejaVuSans-30" x="190.869141"/>
       <use xlink:href="#DejaVuSans-2d" x="254.492188"/>
       <use xlink:href="#DejaVuSans-30" x="290.576172"/>
       <use xlink:href="#DejaVuSans-35" x="354.199219"/>
      </g>
     </g>
    </g>
    <g id="xtick_3">
     <g id="line2d_3">
      <g>
       <use xlink:href="#md7eafb54cd" x="342.316333" y="368.3955" style="stroke: #000000; stroke-width: 0.8"/>
      </g>
     </g>
     <g id="text_3">
      <!-- 2020-09 -->
      <g transform="translate(321.424927 382.993937)scale(0.1 -0.1)">
       <defs>
        <path id="DejaVuSans-39" d="M 703 97 
L 703 672 
Q 941 559 1184 500 
Q 1428 441 1663 441 
Q 2288 441 2617 861 
Q 2947 1281 2994 2138 
Q 2813 1869 2534 1725 
Q 2256 1581 1919 1581 
Q 1219 1581 811 2004 
Q 403 2428 403 3163 
Q 403 3881 828 4315 
Q 1253 4750 1959 4750 
Q 2769 4750 3195 4129 
Q 3622 3509 3622 2328 
Q 3622 1225 3098 567 
Q 2575 -91 1691 -91 
Q 1453 -91 1209 -44 
Q 966 3 703 97 
z
M 1959 2075 
Q 2384 2075 2632 2365 
Q 2881 2656 2881 3163 
Q 2881 3666 2632 3958 
Q 2384 4250 1959 4250 
Q 1534 4250 1286 3958 
Q 1038 3666 1038 3163 
Q 1038 2656 1286 2365 
Q 1534 2075 1959 2075 
z
" transform="scale(0.015625)"/>
       </defs>
       <use xlink:href="#DejaVuSans-32"/>
       <use xlink:href="#DejaVuSans-30" x="63.623047"/>
       <use xlink:href="#DejaVuSans-32" x="127.246094"/>
       <use xlink:href="#DejaVuSans-30" x="190.869141"/>
       <use xlink:href="#DejaVuSans-2d" x="254.492188"/>
       <use xlink:href="#DejaVuSans-30" x="290.576172"/>
       <use xlink:href="#DejaVuSans-39" x="354.199219"/>
      </g>
     </g>
    </g>
    <g id="xtick_4">
     <g id="line2d_4">
      <g>
       <use xlink:href="#md7eafb54cd" x="471.697391" y="368.3955" style="stroke: #000000; stroke-width: 0.8"/>
      </g>
     </g>
     <g id="text_4">
      <!-- 2021-01 -->
      <g transform="translate(450.805984 382.993937)scale(0.1 -0.1)">
       <use xlink:href="#DejaVuSans-32"/>
       <use xlink:href="#DejaVuSans-30" x="63.623047"/>
       <use xlink:href="#DejaVuSans-32" x="127.246094"/>
       <use xlink:href="#DejaVuSans-31" x="190.869141"/>
       <use xlink:href="#DejaVuSans-2d" x="254.492188"/>
       <use xlink:href="#DejaVuSans-30" x="290.576172"/>
       <use xlink:href="#DejaVuSans-31" x="354.199219"/>
      </g>
     </g>
    </g>
    <g id="xtick_5">
     <g id="line2d_5">
      <g>
       <use xlink:href="#md7eafb54cd" x="598.957448" y="368.3955" style="stroke: #000000; stroke-width: 0.8"/>
      </g>
     </g>
     <g id="text_5">
      <!-- 2021-05 -->
      <g transform="translate(578.066041 382.993937)scale(0.1 -0.1)">
       <use xlink:href="#DejaVuSans-32"/>
       <use xlink:href="#DejaVuSans-30" x="63.623047"/>
       <use xlink:href="#DejaVuSans-32" x="127.246094"/>
       <use xlink:href="#DejaVuSans-31" x="190.869141"/>
       <use xlink:href="#DejaVuSans-2d" x="254.492188"/>
       <use xlink:href="#DejaVuSans-30" x="290.576172"/>
       <use xlink:href="#DejaVuSans-35" x="354.199219"/>
      </g>
     </g>
    </g>
    <g id="xtick_6">
     <g id="line2d_6">
      <g>
       <use xlink:href="#md7eafb54cd" x="729.399006" y="368.3955" style="stroke: #000000; stroke-width: 0.8"/>
      </g>
     </g>
     <g id="text_6">
      <!-- 2021-09 -->
      <g transform="translate(708.5076 382.993937)scale(0.1 -0.1)">
       <use xlink:href="#DejaVuSans-32"/>
       <use xlink:href="#DejaVuSans-30" x="63.623047"/>
       <use xlink:href="#DejaVuSans-32" x="127.246094"/>
       <use xlink:href="#DejaVuSans-31" x="190.869141"/>
       <use xlink:href="#DejaVuSans-2d" x="254.492188"/>
       <use xlink:href="#DejaVuSans-30" x="290.576172"/>
       <use xlink:href="#DejaVuSans-39" x="354.199219"/>
      </g>
     </g>
    </g>
    <g id="xtick_7">
     <g id="line2d_7">
      <g>
       <use xlink:href="#md7eafb54cd" x="858.780064" y="368.3955" style="stroke: #000000; stroke-width: 0.8"/>
      </g>
     </g>
     <g id="text_7">
      <!-- 2022-01 -->
      <g transform="translate(837.888658 382.993937)scale(0.1 -0.1)">
       <use xlink:href="#DejaVuSans-32"/>
       <use xlink:href="#DejaVuSans-30" x="63.623047"/>
       <use xlink:href="#DejaVuSans-32" x="127.246094"/>
       <use xlink:href="#DejaVuSans-32" x="190.869141"/>
       <use xlink:href="#DejaVuSans-2d" x="254.492188"/>
       <use xlink:href="#DejaVuSans-30" x="290.576172"/>
       <use xlink:href="#DejaVuSans-31" x="354.199219"/>
      </g>
     </g>
    </g>
    <g id="xtick_8">
     <g id="line2d_8">
      <g>
       <use xlink:href="#md7eafb54cd" x="986.040121" y="368.3955" style="stroke: #000000; stroke-width: 0.8"/>
      </g>
     </g>
     <g id="text_8">
      <!-- 2022-05 -->
      <g transform="translate(965.148715 382.993937)scale(0.1 -0.1)">
       <use xlink:href="#DejaVuSans-32"/>
       <use xlink:href="#DejaVuSans-30" x="63.623047"/>
       <use xlink:href="#DejaVuSans-32" x="127.246094"/>
       <use xlink:href="#DejaVuSans-32" x="190.869141"/>
       <use xlink:href="#DejaVuSans-2d" x="254.492188"/>
       <use xlink:href="#DejaVuSans-30" x="290.576172"/>
       <use xlink:href="#DejaVuSans-35" x="354.199219"/>
      </g>
     </g>
    </g>
    <g id="xtick_9">
     <g id="line2d_9">
      <g>
       <use xlink:href="#md7eafb54cd" x="1116.48168" y="368.3955" style="stroke: #000000; stroke-width: 0.8"/>
      </g>
     </g>
     <g id="text_9">
      <!-- 2022-09 -->
      <g transform="translate(1095.590273 382.993937)scale(0.1 -0.1)">
       <use xlink:href="#DejaVuSans-32"/>
       <use xlink:href="#DejaVuSans-30" x="63.623047"/>
       <use xlink:href="#DejaVuSans-32" x="127.246094"/>
       <use xlink:href="#DejaVuSans-32" x="190.869141"/>
       <use xlink:href="#DejaVuSans-2d" x="254.492188"/>
       <use xlink:href="#DejaVuSans-30" x="290.576172"/>
       <use xlink:href="#DejaVuSans-39" x="354.199219"/>
      </g>
     </g>
    </g>
    <g id="xtick_10">
     <g id="line2d_10">
      <g>
       <use xlink:href="#md7eafb54cd" x="1245.862738" y="368.3955" style="stroke: #000000; stroke-width: 0.8"/>
      </g>
     </g>
     <g id="text_10">
      <!-- 2023-01 -->
      <g transform="translate(1224.971331 382.993937)scale(0.1 -0.1)">
       <defs>
        <path id="DejaVuSans-33" d="M 2597 2516 
Q 3050 2419 3304 2112 
Q 3559 1806 3559 1356 
Q 3559 666 3084 287 
Q 2609 -91 1734 -91 
Q 1441 -91 1130 -33 
Q 819 25 488 141 
L 488 750 
Q 750 597 1062 519 
Q 1375 441 1716 441 
Q 2309 441 2620 675 
Q 2931 909 2931 1356 
Q 2931 1769 2642 2001 
Q 2353 2234 1838 2234 
L 1294 2234 
L 1294 2753 
L 1863 2753 
Q 2328 2753 2575 2939 
Q 2822 3125 2822 3475 
Q 2822 3834 2567 4026 
Q 2313 4219 1838 4219 
Q 1578 4219 1281 4162 
Q 984 4106 628 3988 
L 628 4550 
Q 988 4650 1302 4700 
Q 1616 4750 1894 4750 
Q 2613 4750 3031 4423 
Q 3450 4097 3450 3541 
Q 3450 3153 3228 2886 
Q 3006 2619 2597 2516 
z
" transform="scale(0.015625)"/>
       </defs>
       <use xlink:href="#DejaVuSans-32"/>
       <use xlink:href="#DejaVuSans-30" x="63.623047"/>
       <use xlink:href="#DejaVuSans-32" x="127.246094"/>
       <use xlink:href="#DejaVuSans-33" x="190.869141"/>
       <use xlink:href="#DejaVuSans-2d" x="254.492188"/>
       <use xlink:href="#DejaVuSans-30" x="290.576172"/>
       <use xlink:href="#DejaVuSans-31" x="354.199219"/>
      </g>
     </g>
    </g>
    <g id="xtick_11">
     <g id="line2d_11">
      <g>
       <use xlink:href="#md7eafb54cd" x="1373.122795" y="368.3955" style="stroke: #000000; stroke-width: 0.8"/>
      </g>
     </g>
     <g id="text_11">
      <!-- 2023-05 -->
      <g transform="translate(1352.231388 382.993937)scale(0.1 -0.1)">
       <use xlink:href="#DejaVuSans-32"/>
       <use xlink:href="#DejaVuSans-30" x="63.623047"/>
       <use xlink:href="#DejaVuSans-32" x="127.246094"/>
       <use xlink:href="#DejaVuSans-33" x="190.869141"/>
       <use xlink:href="#DejaVuSans-2d" x="254.492188"/>
       <use xlink:href="#DejaVuSans-30" x="290.576172"/>
       <use xlink:href="#DejaVuSans-35" x="354.199219"/>
      </g>
     </g>
    </g>
   </g>
   <g id="matplotlib.axis_2">
    <g id="ytick_1">
     <g id="line2d_12">
      <defs>
       <path id="ma348810353" d="M 0 0 
L -3.5 0 
" style="stroke: #000000; stroke-width: 0.8"/>
      </defs>
      <g>
       <use xlink:href="#ma348810353" x="46.0125" y="353.2755" style="stroke: #000000; stroke-width: 0.8"/>
      </g>
     </g>
     <g id="text_12">
      <!-- 0 -->
      <g transform="translate(32.65 357.074719)scale(0.1 -0.1)">
       <use xlink:href="#DejaVuSans-30"/>
      </g>
     </g>
    </g>
    <g id="ytick_2">
     <g id="line2d_13">
      <g>
       <use xlink:href="#ma348810353" x="46.0125" y="289.237552" style="stroke: #000000; stroke-width: 0.8"/>
      </g>
     </g>
     <g id="text_13">
      <!-- 5000 -->
      <g transform="translate(13.5625 293.03677)scale(0.1 -0.1)">
       <use xlink:href="#DejaVuSans-35"/>
       <use xlink:href="#DejaVuSans-30" x="63.623047"/>
       <use xlink:href="#DejaVuSans-30" x="127.246094"/>
       <use xlink:href="#DejaVuSans-30" x="190.869141"/>
      </g>
     </g>
    </g>
    <g id="ytick_3">
     <g id="line2d_14">
      <g>
       <use xlink:href="#ma348810353" x="46.0125" y="225.199603" style="stroke: #000000; stroke-width: 0.8"/>
      </g>
     </g>
     <g id="text_14">
      <!-- 10000 -->
      <g transform="translate(7.2 228.998822)scale(0.1 -0.1)">
       <use xlink:href="#DejaVuSans-31"/>
       <use xlink:href="#DejaVuSans-30" x="63.623047"/>
       <use xlink:href="#DejaVuSans-30" x="127.246094"/>
       <use xlink:href="#DejaVuSans-30" x="190.869141"/>
       <use xlink:href="#DejaVuSans-30" x="254.492188"/>
      </g>
     </g>
    </g>
    <g id="ytick_4">
     <g id="line2d_15">
      <g>
       <use xlink:href="#ma348810353" x="46.0125" y="161.161655" style="stroke: #000000; stroke-width: 0.8"/>
      </g>
     </g>
     <g id="text_15">
      <!-- 15000 -->
      <g transform="translate(7.2 164.960874)scale(0.1 -0.1)">
       <use xlink:href="#DejaVuSans-31"/>
       <use xlink:href="#DejaVuSans-35" x="63.623047"/>
       <use xlink:href="#DejaVuSans-30" x="127.246094"/>
       <use xlink:href="#DejaVuSans-30" x="190.869141"/>
       <use xlink:href="#DejaVuSans-30" x="254.492188"/>
      </g>
     </g>
    </g>
    <g id="ytick_5">
     <g id="line2d_16">
      <g>
       <use xlink:href="#ma348810353" x="46.0125" y="97.123706" style="stroke: #000000; stroke-width: 0.8"/>
      </g>
     </g>
     <g id="text_16">
      <!-- 20000 -->
      <g transform="translate(7.2 100.922925)scale(0.1 -0.1)">
       <use xlink:href="#DejaVuSans-32"/>
       <use xlink:href="#DejaVuSans-30" x="63.623047"/>
       <use xlink:href="#DejaVuSans-30" x="127.246094"/>
       <use xlink:href="#DejaVuSans-30" x="190.869141"/>
       <use xlink:href="#DejaVuSans-30" x="254.492188"/>
      </g>
     </g>
    </g>
   </g>
   <g id="line2d_17">
    <path d="M 106.885227 353.2755 
L 172.636257 353.237077 
L 174.757258 353.044963 
L 176.878259 353.185847 
L 177.938759 353.070579 
L 180.05976 353.173039 
L 183.241261 353.185847 
L 185.362262 352.942503 
L 186.422763 353.134617 
L 187.483263 353.070579 
L 188.543764 352.58389 
L 189.604264 353.22427 
L 190.664765 353.185847 
L 191.725265 352.95531 
L 192.785766 352.891272 
L 193.846266 352.968118 
L 194.906767 352.724774 
L 195.967267 352.711966 
L 197.027768 352.968118 
L 201.26977 352.840042 
L 202.33027 353.134617 
L 203.390771 352.071587 
L 204.451271 351.943511 
L 205.511771 352.519852 
L 206.572272 352.199662 
L 208.693273 352.776004 
L 209.753773 352.545467 
L 211.874774 352.481429 
L 212.935275 350.188871 
L 213.995775 351.687359 
L 215.056276 352.16124 
L 216.116776 351.725782 
L 217.177277 352.199662 
L 218.237777 350.77802 
L 220.358778 351.085402 
L 221.419279 351.751397 
L 222.479779 349.753413 
L 223.54028 351.572091 
L 224.60078 350.918903 
L 225.66128 350.4066 
L 226.721781 350.649944 
L 227.782281 350.08641 
L 228.842782 349.919912 
L 229.903282 351.034172 
L 230.963783 350.483445 
L 232.024283 347.665776 
L 233.084784 349.843066 
L 234.145284 348.254925 
L 235.205785 348.97215 
L 236.266285 348.818459 
L 237.326786 348.190887 
L 238.387286 347.179087 
L 239.447787 345.181103 
L 240.508287 345.347602 
L 241.568788 348.869689 
L 242.629288 342.248165 
L 243.689789 348.28054 
L 244.750289 346.244133 
L 245.81079 347.384009 
L 246.87129 344.988989 
L 247.93179 345.501293 
L 248.992291 347.089434 
L 250.052791 345.206718 
L 251.113292 349.625337 
L 252.173792 349.356378 
L 253.234293 344.374225 
L 254.294793 345.117065 
L 255.355294 341.953591 
L 256.415794 343.490501 
L 257.476295 341.582171 
L 258.536795 345.373217 
L 259.597296 345.41164 
L 260.657796 342.901352 
L 261.718297 343.003813 
L 262.778797 342.850122 
L 263.839298 340.762485 
L 264.899798 340.006837 
L 265.960299 342.056051 
L 267.020799 339.123113 
L 268.081299 341.7999 
L 269.1418 339.212767 
L 270.2023 340.262989 
L 271.262801 341.492517 
L 272.323301 337.22759 
L 273.383802 342.414664 
L 274.444302 345.578139 
L 275.504803 339.263997 
L 276.565303 340.36545 
L 277.625804 336.612826 
L 278.686304 336.753709 
L 279.746805 337.22759 
L 280.807305 337.573395 
L 281.867806 337.752701 
L 282.928306 340.006837 
L 283.988807 334.845378 
L 285.049307 338.815731 
L 286.109808 334.67888 
L 287.170308 332.335091 
L 288.230809 340.634409 
L 289.291309 339.661032 
L 290.351809 332.565627 
L 291.41231 335.972446 
L 292.47281 328.454391 
L 293.533311 328.35193 
L 294.593811 327.199247 
L 295.654312 334.78134 
L 297.775313 335.780332 
L 298.835813 330.503606 
L 299.896314 338.969422 
L 300.956814 337.855162 
L 302.017315 329.901649 
L 303.077815 338.572387 
L 304.138316 330.836603 
L 305.198816 338.598002 
L 306.259317 337.816739 
L 307.319817 331.502598 
L 308.380318 333.359698 
L 309.440818 327.60909 
L 310.501318 335.857178 
L 311.561819 331.592251 
L 312.622319 333.872002 
L 313.68282 330.47799 
L 314.74332 336.85617 
L 315.803821 334.473958 
L 316.864321 338.367466 
L 317.924822 341.185135 
L 318.985322 332.322283 
L 321.106323 330.951871 
L 322.166824 335.498566 
L 323.227324 334.179384 
L 324.287825 337.957623 
L 325.348325 337.932008 
L 326.408826 342.017629 
L 327.469326 330.273069 
L 328.529827 327.263285 
L 329.590327 340.275796 
L 330.650828 335.729102 
L 331.711328 340.570371 
L 332.771828 344.02842 
L 333.832329 340.480718 
L 334.892829 342.376241 
L 335.95333 339.251189 
L 337.01383 340.019645 
L 338.074331 336.881785 
L 340.195332 345.41164 
L 341.255832 345.206718 
L 342.316333 344.707223 
L 343.376833 344.809683 
L 344.437334 342.350626 
L 345.497834 343.042236 
L 347.618835 346.513093 
L 348.679336 342.581163 
L 349.739836 344.258957 
L 350.800337 339.994029 
L 351.860837 342.260973 
L 352.921338 340.890561 
L 353.981838 342.901352 
L 355.042338 342.91416 
L 356.102839 342.670816 
L 357.163339 344.732838 
L 358.22384 345.770252 
L 359.28434 346.269748 
L 360.344841 345.181103 
L 362.465842 350.637137 
L 363.526342 349.305147 
L 364.586843 347.294356 
L 365.647343 346.397824 
L 366.707844 345.232334 
L 367.768344 345.539716 
L 368.828845 348.536692 
L 369.889345 349.317955 
L 370.949846 349.151456 
L 372.010346 347.921928 
L 373.070847 344.694415 
L 374.131347 348.088426 
L 375.191847 346.833282 
L 376.252348 348.792844 
L 378.373349 350.214486 
L 379.433849 348.65196 
L 380.49435 350.227294 
L 381.55485 349.907104 
L 382.615351 349.983949 
L 383.675851 350.240101 
L 384.736352 351.853858 
L 385.796852 351.725782 
L 386.857353 350.368177 
L 387.917853 350.470638 
L 388.978354 350.995749 
L 390.038854 350.163256 
L 392.159855 352.494237 
L 393.220356 351.751397 
L 394.280856 351.392784 
L 395.341357 350.82925 
L 396.401857 350.496253 
L 397.462357 351.136633 
L 398.522858 351.136633 
L 399.583358 352.327738 
L 400.643859 352.007549 
L 401.704359 351.072595 
L 402.76486 350.752405 
L 403.82536 351.187863 
L 405.946361 351.661744 
L 408.067362 352.840042 
L 409.127863 352.391776 
L 410.188363 351.661744 
L 411.248864 351.495245 
L 412.309364 351.456822 
L 413.369865 352.199662 
L 414.430365 352.660736 
L 415.490866 352.174047 
L 417.611866 351.84105 
L 418.672367 351.828242 
L 419.732867 350.970134 
L 420.793368 351.84105 
L 421.853868 352.443007 
L 422.914369 351.674551 
L 423.974869 351.969126 
L 425.03537 352.045971 
L 426.09587 350.880481 
L 427.156371 352.020356 
L 428.216871 352.404584 
L 429.277372 352.558275 
L 430.337872 352.558275 
L 431.398373 351.828242 
L 432.458873 351.623321 
L 434.579874 351.943511 
L 435.640375 352.020356 
L 436.700875 352.891272 
L 437.761376 352.174047 
L 438.821876 351.969126 
L 439.882376 350.918903 
L 440.942877 350.816443 
L 442.003377 351.495245 
L 443.063878 351.136633 
L 444.124378 352.404584 
L 445.184879 352.033164 
L 446.245379 350.854866 
L 447.30588 350.534676 
L 448.36638 349.113033 
L 449.426881 349.279532 
L 450.487381 349.010573 
L 451.547882 351.738589 
L 452.608382 350.77802 
L 453.668883 348.523884 
L 454.729383 346.89732 
L 455.789884 347.499277 
L 456.850384 347.076627 
L 457.910885 345.321987 
L 458.971385 350.03518 
L 460.031885 348.639153 
L 462.152886 340.403872 
L 463.213387 339.737878 
L 464.273887 347.26874 
L 465.334388 343.554539 
L 466.394888 346.948551 
L 467.455389 343.657 
L 468.515889 336.715287 
L 469.57639 334.256229 
L 470.63689 330.836603 
L 471.697391 342.248165 
L 472.757891 339.571379 
L 473.818392 345.514101 
L 474.878892 340.339834 
L 475.939393 332.821779 
L 476.999893 331.336099 
L 478.060394 328.813004 
L 479.120894 324.291925 
L 480.181395 332.219823 
L 481.241895 339.212767 
L 482.302395 335.447335 
L 483.362896 334.40992 
L 484.423396 326.930288 
L 485.483897 325.124418 
L 486.544397 320.321572 
L 487.604898 326.49483 
L 488.665398 334.025693 
L 489.725899 333.423736 
L 490.786399 323.088011 
L 491.8469 319.271349 
L 492.9074 319.361003 
L 493.967901 329.402153 
L 495.028401 331.092755 
L 496.088902 339.853146 
L 497.149402 330.465183 
L 498.209903 322.665361 
L 499.270403 316.568948 
L 500.330904 319.309772 
L 501.391404 319.130466 
L 502.451904 327.596283 
L 503.512405 334.858186 
L 504.572905 334.525189 
L 505.633406 326.033757 
L 506.693906 327.391361 
L 507.754407 330.388337 
L 508.814907 331.80998 
L 509.875408 337.675856 
L 510.935908 342.529932 
L 511.996409 337.650241 
L 513.056909 333.500582 
L 514.11741 330.593259 
L 515.17791 335.959639 
L 516.238411 337.342858 
L 517.298911 341.261981 
L 518.359412 344.361418 
L 519.419912 347.998773 
L 520.480413 346.077635 
L 522.601414 340.09649 
L 523.661914 338.521157 
L 524.722414 339.251189 
L 525.782915 346.602746 
L 526.843415 341.953591 
L 527.903916 337.855162 
L 528.964416 336.126137 
L 530.024917 339.148729 
L 531.085417 339.584187 
L 532.145918 344.873721 
L 533.206418 347.345586 
L 534.266919 343.580155 
L 535.327419 343.157504 
L 536.38792 342.59397 
L 537.44842 340.864946 
L 538.508921 341.274788 
L 539.569421 344.912144 
L 540.629922 349.138649 
L 541.690422 347.345586 
L 542.750923 341.940783 
L 543.811423 342.504317 
L 544.871924 343.311195 
L 545.932424 339.392073 
L 546.992924 344.566339 
L 548.053425 348.344578 
L 550.174426 341.377249 
L 551.234926 339.596994 
L 552.295427 341.940783 
L 553.355927 342.17132 
L 554.416428 345.552523 
L 555.476928 350.419408 
L 556.537429 345.936751 
L 557.597929 342.017629 
L 558.65843 340.813715 
L 559.71893 343.362426 
L 560.779431 342.030436 
L 562.900432 349.100226 
L 565.021433 339.545764 
L 567.142433 341.543748 
L 568.202934 345.334794 
L 569.263434 346.615553 
L 570.323935 347.294356 
L 571.384435 347.409624 
L 572.444936 334.089731 
L 573.505436 339.494534 
L 574.565937 337.381281 
L 575.626437 334.806956 
L 576.686938 341.47971 
L 577.747438 346.551515 
L 578.807939 340.608794 
L 579.868439 339.199959 
L 580.92894 339.084691 
L 581.98944 342.734854 
L 583.049941 337.317243 
L 584.110441 353.2755 
L 585.170942 331.425752 
L 586.231442 336.676864 
L 587.291943 336.459135 
L 588.352443 335.524181 
L 589.412943 336.241406 
L 590.473444 334.051308 
L 591.533944 336.715287 
L 592.594445 347.204702 
L 593.654945 338.943807 
L 594.715446 334.320267 
L 595.775946 333.129161 
L 596.836447 353.2755 
L 597.896947 328.928272 
L 598.957448 317.478287 
L 600.017948 353.2755 
L 601.078449 321.807252 
L 602.138949 353.2755 
L 603.19945 332.937048 
L 604.25995 306.937641 
L 605.320451 353.2755 
L 606.380951 310.280421 
L 607.441452 353.2755 
L 608.501952 339.661032 
L 609.562452 332.796164 
L 610.622953 322.93432 
L 611.683453 323.94612 
L 612.743954 323.100819 
L 613.804454 321.141257 
L 614.864955 316.978791 
L 615.925455 324.36877 
L 616.985956 353.2755 
L 618.046456 319.758038 
L 619.106957 317.849707 
L 620.167457 316.671409 
L 621.227958 314.788693 
L 622.288458 307.385906 
L 623.348959 353.2755 
L 624.409459 280.323469 
L 625.46996 312.124714 
L 626.53046 314.622194 
L 627.590961 314.980807 
L 628.651461 325.816028 
L 629.711962 330.734142 
L 630.772462 317.350211 
L 631.832962 309.230199 
L 632.893463 310.882378 
L 633.953963 322.165865 
L 635.014464 314.852731 
L 636.074964 324.112618 
L 637.135465 334.986262 
L 638.195965 353.2755 
L 639.256466 278.824981 
L 640.316966 353.2755 
L 641.377467 262.700226 
L 642.437967 353.2755 
L 643.498468 285.395275 
L 644.558968 332.693703 
L 645.619469 325.713567 
L 646.679969 320.347187 
L 647.74047 316.953176 
L 648.80097 318.925544 
L 649.861471 353.2755 
L 650.921971 305.042117 
L 651.982471 339.366458 
L 653.042972 343.490501 
L 654.103472 331.925248 
L 655.163973 324.202271 
L 656.224473 322.153057 
L 657.284974 325.329339 
L 658.345474 332.104554 
L 659.405975 341.466902 
L 660.466475 332.360706 
L 661.526976 326.955903 
L 662.587476 327.647513 
L 663.647977 331.989286 
L 664.708477 332.808972 
L 665.768978 337.829547 
L 666.829478 342.030436 
L 667.889979 335.42172 
L 668.950479 329.568651 
L 670.01098 334.397113 
L 671.07148 333.590235 
L 672.131981 353.2755 
L 673.192481 322.908705 
L 674.252981 345.001797 
L 675.313482 337.97043 
L 676.373982 335.613834 
L 677.434483 353.2755 
L 678.494983 317.875322 
L 679.555484 353.2755 
L 680.615984 325.931296 
L 681.676485 347.640161 
L 682.736985 340.83933 
L 683.797486 353.2755 
L 684.857986 324.765805 
L 685.918487 340.890561 
L 686.978987 340.147721 
L 688.039488 345.181103 
L 689.099988 347.5377 
L 690.160489 353.2755 
L 691.220989 332.770549 
L 692.28149 341.684631 
L 693.34199 340.09649 
L 694.40249 353.2755 
L 695.462991 333.449351 
L 696.523491 348.242117 
L 697.583992 345.09145 
L 698.644492 343.964382 
L 699.704993 342.619585 
L 700.765493 344.335802 
L 701.825994 353.2755 
L 702.886494 347.294356 
L 703.946995 347.717006 
L 705.007495 340.7881 
L 706.067996 353.2755 
L 707.128496 333.321275 
L 708.188997 353.2755 
L 709.249497 335.319259 
L 710.309998 353.2755 
L 711.370498 343.067851 
L 712.430999 353.2755 
L 713.491499 336.587211 
L 714.552 344.118073 
L 715.6125 353.2755 
L 716.673 343.823499 
L 717.733501 337.778316 
L 718.794001 350.08641 
L 719.854502 347.025396 
L 721.975503 344.540724 
L 723.036003 346.487477 
L 724.096504 353.2755 
L 725.157004 342.145705 
L 726.217505 350.022372 
L 727.278005 348.011581 
L 728.338506 347.998773 
L 729.399006 347.371201 
L 730.459507 347.90912 
L 731.520007 353.2755 
L 732.580508 343.669808 
L 733.641008 351.085402 
L 734.701509 353.2755 
L 735.762009 347.704198 
L 736.82251 348.114041 
L 737.88301 348.203694 
L 738.94351 348.421424 
L 741.064511 348.523884 
L 742.125012 353.2755 
L 743.185512 345.885521 
L 744.246013 347.896312 
L 745.306513 353.2755 
L 746.367014 344.72003 
L 747.427514 350.073603 
L 748.488015 351.354362 
L 749.548515 349.612529 
L 750.609016 349.561299 
L 751.669516 349.330762 
L 752.730017 348.831266 
L 753.790517 349.894296 
L 754.851018 350.77802 
L 755.911518 351.930703 
L 756.972019 349.34357 
L 758.032519 347.563315 
L 759.093019 347.614545 
L 760.15352 348.728806 
L 761.21402 348.434231 
L 762.274521 353.2755 
L 763.335021 348.715998 
L 764.395522 347.678583 
L 765.456022 347.755429 
L 766.516523 346.833282 
L 767.577023 353.2755 
L 768.637524 347.230318 
L 769.698024 348.024388 
L 770.758525 349.3948 
L 773.940026 346.15448 
L 775.000527 353.2755 
L 776.061027 340.557563 
L 777.121528 353.2755 
L 778.182028 346.820475 
L 779.242529 347.127857 
L 780.303029 353.2755 
L 781.363529 340.058067 
L 782.42403 346.410632 
L 783.48453 345.923944 
L 784.545031 347.729814 
L 786.666032 353.2755 
L 787.726532 346.218518 
L 788.787033 335.549796 
L 789.847533 353.2755 
L 790.908034 345.514101 
L 791.968534 338.879769 
L 793.029035 353.2755 
L 794.089535 350.380985 
L 795.150036 353.2755 
L 796.210536 342.145705 
L 797.271037 344.387033 
L 798.331537 329.504614 
L 799.392038 353.2755 
L 800.452538 344.655992 
L 801.513038 348.613537 
L 802.573539 345.539716 
L 803.634039 343.042236 
L 804.69454 329.594267 
L 805.75504 340.314219 
L 806.815541 353.2755 
L 807.876041 341.044252 
L 808.936542 343.33681 
L 809.997042 341.415672 
L 811.057543 338.943807 
L 812.118043 339.520149 
L 813.178544 353.2755 
L 814.239044 340.122105 
L 815.299545 344.72003 
L 816.360045 336.702479 
L 817.420546 339.712263 
L 818.481046 353.2755 
L 819.541547 323.459431 
L 820.602047 335.869986 
L 821.662548 353.2755 
L 822.723048 335.895601 
L 823.783548 353.2755 
L 824.844049 339.35365 
L 825.904549 339.340842 
L 826.96505 338.995038 
L 828.02555 339.097498 
L 829.086051 327.788397 
L 830.146551 346.47467 
L 831.207052 336.933016 
L 832.267552 334.204999 
L 833.328053 353.2755 
L 834.388553 331.028717 
L 835.449054 330.913448 
L 836.509554 329.222847 
L 837.570055 332.885817 
L 838.630555 353.2755 
L 839.691056 329.056348 
L 840.751556 330.657297 
L 841.812057 330.221839 
L 842.872557 326.136217 
L 843.933057 312.62421 
L 844.993558 341.889553 
L 846.054058 353.2755 
L 847.114559 299.227472 
L 848.175059 353.2755 
L 849.23556 328.825811 
L 850.29606 297.293525 
L 851.356561 353.2755 
L 852.417061 335.921216 
L 853.477562 337.829547 
L 854.538062 316.364027 
L 855.598563 290.082853 
L 856.659063 274.521631 
L 857.719564 251.070934 
L 858.780064 353.2755 
L 859.840565 208.831504 
L 860.901065 208.793081 
L 861.961566 353.2755 
L 863.022066 234.907756 
L 864.082567 221.831207 
L 865.143067 212.366398 
L 866.203567 109.764797 
L 867.264068 284.959817 
L 868.324568 239.838678 
L 869.385069 209.663997 
L 870.445569 173.162366 
L 871.50607 353.2755 
L 872.56657 171.92003 
L 873.627071 353.2755 
L 874.687571 50.8755 
L 875.748072 285.84354 
L 876.808572 237.27716 
L 877.869073 214.505266 
L 878.929573 86.109179 
L 879.990074 230.450715 
L 881.050574 353.2755 
L 882.111075 353.2755 
L 883.171575 149.557979 
L 884.232076 255.310247 
L 885.292576 264.416443 
L 886.353076 268.911907 
L 887.413577 353.2755 
L 888.474077 283.819941 
L 889.534578 287.956793 
L 890.595078 309.409505 
L 891.655579 304.286469 
L 892.716079 300.188041 
L 893.77658 309.780925 
L 894.83708 353.2755 
L 895.897581 293.361595 
L 896.958081 353.2755 
L 898.018582 312.841939 
L 899.079082 353.2755 
L 900.139583 301.84022 
L 901.200083 353.2755 
L 902.260584 328.057356 
L 903.321084 330.759757 
L 904.381585 343.887537 
L 905.442085 332.50159 
L 906.502586 339.135921 
L 907.563086 340.711255 
L 908.623586 353.2755 
L 909.684087 339.366458 
L 910.744587 342.145705 
L 911.805088 347.294356 
L 912.865588 341.633401 
L 913.926089 344.412648 
L 914.986589 343.810691 
L 916.04709 353.2755 
L 917.10759 344.489493 
L 918.168091 346.730822 
L 919.228591 351.034172 
L 920.289092 351.072595 
L 921.349592 351.777012 
L 923.470593 347.832274 
L 924.531094 353.2755 
L 925.591594 348.780036 
L 926.652095 346.269748 
L 927.712595 353.2755 
L 928.773096 349.100226 
L 929.833596 341.863938 
L 930.894096 347.781044 
L 931.954597 348.741613 
L 933.015097 350.03518 
L 934.075598 351.508053 
L 935.136098 353.2755 
L 936.196599 347.115049 
L 937.257099 346.948551 
L 938.3176 347.16628 
L 939.3781 345.808675 
L 940.438601 353.2755 
L 941.499101 351.059787 
L 942.559602 349.407608 
L 943.620102 353.2755 
L 944.680603 349.932719 
L 945.741103 349.471646 
L 946.801604 349.586914 
L 947.862104 349.907104 
L 948.922605 349.958334 
L 949.983105 350.45783 
L 951.043605 351.162248 
L 952.104106 350.82925 
L 953.164606 353.2755 
L 954.225107 348.498269 
L 955.285607 351.584898 
L 956.346108 352.647928 
L 957.406608 353.2755 
L 958.467109 350.047987 
L 959.527609 353.2755 
L 960.58811 349.266724 
L 961.64861 353.2755 
L 962.709111 350.150448 
L 963.769611 353.2755 
L 964.830112 351.085402 
L 965.890612 351.905088 
L 966.951113 352.084394 
L 968.011613 352.007549 
L 969.072114 353.2755 
L 970.132614 351.84105 
L 971.193115 353.019348 
L 972.253615 353.2755 
L 973.314115 351.725782 
L 974.374616 352.033164 
L 976.495617 352.225278 
L 977.556117 353.2755 
L 978.616618 351.328746 
L 979.677118 352.85285 
L 980.737619 350.995749 
L 981.798119 351.981933 
L 982.85862 353.2755 
L 983.91912 351.674551 
L 984.979621 352.110009 
L 986.040121 351.994741 
L 987.100622 353.2755 
L 990.282123 352.481429 
L 991.342624 351.444015 
L 992.403124 352.340546 
L 993.463624 352.95531 
L 994.524125 353.2755 
L 995.584625 352.289316 
L 996.645126 349.561299 
L 997.705626 353.2755 
L 998.766127 351.046979 
L 999.826627 351.328746 
L 1000.887128 353.2755 
L 1001.947628 350.880481 
L 1003.008129 351.623321 
L 1004.068629 353.2755 
L 1005.12913 349.676567 
L 1006.18963 349.817451 
L 1007.250131 350.573099 
L 1008.310631 353.2755 
L 1009.371132 352.21247 
L 1010.431632 347.384009 
L 1011.492133 353.2755 
L 1012.552633 350.82925 
L 1013.613134 347.832274 
L 1014.673634 351.456822 
L 1015.734134 351.559283 
L 1016.794635 350.675559 
L 1017.855135 353.2755 
L 1018.915636 346.743629 
L 1019.976136 353.2755 
L 1021.036637 346.269748 
L 1022.097137 353.2755 
L 1023.157638 350.521868 
L 1024.218138 348.383001 
L 1025.278639 349.228302 
L 1026.339139 348.715998 
L 1027.39964 347.550507 
L 1028.46014 353.2755 
L 1029.520641 345.117065 
L 1030.581141 350.701174 
L 1031.641642 348.203694 
L 1032.702142 346.961358 
L 1033.762643 346.718014 
L 1034.823143 348.434231 
L 1035.883643 345.911136 
L 1036.944144 353.2755 
L 1038.004644 344.655992 
L 1039.065145 345.693407 
L 1040.125645 353.2755 
L 1041.186146 334.768533 
L 1042.246646 340.288604 
L 1043.307147 338.085699 
L 1045.428148 346.756437 
L 1046.488648 353.2755 
L 1047.549149 340.250181 
L 1048.609649 315.172921 
L 1049.67015 332.50159 
L 1050.73065 331.092755 
L 1051.791151 353.2755 
L 1052.851651 339.263997 
L 1053.912152 322.396401 
L 1054.972652 353.2755 
L 1056.033153 292.477872 
L 1057.093653 316.005414 
L 1058.154153 353.2755 
L 1059.214654 318.759046 
L 1060.275154 327.92928 
L 1061.335655 297.319141 
L 1062.396155 353.2755 
L 1063.456656 251.14778 
L 1065.577657 353.2755 
L 1066.638157 258.076686 
L 1067.698658 334.832571 
L 1068.759158 353.2755 
L 1069.819659 297.524062 
L 1070.880159 204.38727 
L 1071.94066 275.789582 
L 1073.00116 277.262455 
L 1074.061661 307.193792 
L 1075.122161 325.265301 
L 1076.182662 295.398002 
L 1077.243162 272.165035 
L 1078.303662 270.973929 
L 1079.364163 276.250656 
L 1080.424663 284.998239 
L 1083.606165 353.2755 
L 1084.666665 229.067495 
L 1085.727166 353.2755 
L 1086.787666 235.701827 
L 1087.848167 300.687537 
L 1088.908667 323.971735 
L 1089.969168 332.360706 
L 1091.029668 315.710839 
L 1092.090169 312.508942 
L 1093.150669 313.930584 
L 1094.21117 312.009446 
L 1095.27167 353.2755 
L 1096.332171 320.539301 
L 1097.392671 329.773573 
L 1098.453172 317.324596 
L 1099.513672 323.382586 
L 1100.574172 328.377546 
L 1101.634673 353.2755 
L 1102.695173 331.425752 
L 1103.755674 320.961951 
L 1104.816174 344.335802 
L 1105.876675 339.609802 
L 1106.937175 336.138945 
L 1107.997676 353.2755 
L 1109.058176 337.637433 
L 1110.118677 338.124121 
L 1111.179177 331.617866 
L 1112.239678 348.22931 
L 1113.300178 353.2755 
L 1114.360679 333.551812 
L 1115.421179 353.2755 
L 1116.48168 335.908408 
L 1117.54218 346.256941 
L 1118.602681 349.010573 
L 1119.663181 350.547483 
L 1120.723682 353.2755 
L 1121.784182 349.189879 
L 1122.844682 342.837314 
L 1123.905183 353.2755 
L 1124.965683 349.34357 
L 1126.026184 349.830258 
L 1127.086684 349.048995 
L 1128.147185 353.2755 
L 1129.207685 351.008557 
L 1130.268186 350.470638 
L 1131.328686 348.639153 
L 1132.389187 353.2755 
L 1133.449687 351.367169 
L 1134.510188 352.122817 
L 1135.570688 352.481429 
L 1136.631189 350.009565 
L 1137.691689 353.2755 
L 1138.75219 350.291332 
L 1139.81269 353.2755 
L 1140.873191 352.084394 
L 1141.933691 351.661744 
L 1142.994191 352.571083 
L 1144.054692 353.2755 
L 1145.115192 352.097202 
L 1146.175693 351.482437 
L 1147.236193 352.417391 
L 1148.296694 352.58389 
L 1149.357194 352.878465 
L 1150.417695 352.404584 
L 1151.478195 352.545467 
L 1152.538696 353.2755 
L 1153.599196 351.700166 
L 1154.659697 353.2755 
L 1155.720197 352.596698 
L 1156.780698 352.58389 
L 1157.841198 353.2755 
L 1158.901699 352.430199 
L 1159.962199 352.635121 
L 1163.143701 352.699158 
L 1164.204201 353.2755 
L 1165.264701 352.135625 
L 1166.325202 353.2755 
L 1167.385702 352.174047 
L 1168.446203 352.660736 
L 1169.506703 353.2755 
L 1170.567204 353.2755 
L 1171.627704 352.417391 
L 1172.688205 353.2755 
L 1173.748705 352.776004 
L 1174.809206 352.865657 
L 1175.869706 353.2755 
L 1176.930207 352.302123 
L 1177.990707 353.2755 
L 1179.051208 352.481429 
L 1180.111708 353.2755 
L 1181.172209 352.711966 
L 1182.232709 353.2755 
L 1183.29321 353.006541 
L 1184.35371 353.057771 
L 1185.41421 352.609505 
L 1186.474711 353.019348 
L 1187.535211 352.622313 
L 1188.595712 353.2755 
L 1189.656212 352.276508 
L 1190.716713 353.2755 
L 1192.837714 352.519852 
L 1193.898214 353.2755 
L 1194.958715 353.070579 
L 1196.019215 352.622313 
L 1197.079716 351.674551 
L 1198.140216 353.2755 
L 1199.200717 352.635121 
L 1200.261217 353.2755 
L 1201.321718 351.661744 
L 1202.382218 353.2755 
L 1203.442719 352.430199 
L 1204.503219 351.264708 
L 1205.56372 353.2755 
L 1206.62422 352.097202 
L 1207.68472 351.956318 
L 1208.745221 352.084394 
L 1209.805721 352.443007 
L 1210.866222 349.177071 
L 1211.926722 353.2755 
L 1212.987223 349.804643 
L 1214.047723 349.574107 
L 1215.108224 344.784068 
L 1216.168724 350.816443 
L 1217.229225 353.2755 
L 1218.289725 346.922936 
L 1219.350226 328.723351 
L 1220.410726 353.2755 
L 1221.471227 337.86797 
L 1222.531727 353.2755 
L 1223.592228 324.189464 
L 1224.652728 326.07218 
L 1225.713229 324.189464 
L 1226.773729 353.2755 
L 1227.834229 291.786262 
L 1228.89473 353.2755 
L 1229.95523 320.219111 
L 1231.015731 322.665361 
L 1232.076231 321.371794 
L 1233.136732 353.2755 
L 1234.197232 317.452672 
L 1235.257733 276.609268 
L 1236.318233 353.2755 
L 1237.378734 353.2755 
L 1238.439234 293.28475 
L 1239.499735 331.579443 
L 1240.560235 353.2755 
L 1241.620736 277.070341 
L 1242.681236 353.2755 
L 1243.741737 317.529517 
L 1244.802237 326.763789 
L 1245.862738 326.54606 
L 1246.923238 343.913152 
L 1247.983739 333.564619 
L 1249.044239 332.142977 
L 1250.104739 331.681904 
L 1251.16524 353.2755 
L 1252.22574 353.2755 
L 1253.286241 309.806541 
L 1254.346741 353.2755 
L 1255.407242 320.11665 
L 1256.467742 353.2755 
L 1257.528243 334.768533 
L 1258.588743 337.624625 
L 1259.649244 338.687655 
L 1260.709744 344.374225 
L 1261.770245 338.149737 
L 1262.830745 340.7881 
L 1263.891246 353.2755 
L 1264.951746 332.488782 
L 1266.012247 353.2755 
L 1267.072747 343.913152 
L 1268.133248 353.2755 
L 1269.193748 353.2755 
L 1270.254248 341.953591 
L 1271.314749 338.431504 
L 1272.375249 353.2755 
L 1273.43575 336.062099 
L 1274.49625 353.2755 
L 1275.556751 348.28054 
L 1276.617251 350.675559 
L 1278.738252 348.22931 
L 1279.798753 348.677575 
L 1280.859253 348.626345 
L 1281.919754 345.962366 
L 1282.980254 353.2755 
L 1284.040755 351.777012 
L 1285.101255 351.239093 
L 1286.161756 349.266724 
L 1287.222256 350.08641 
L 1288.282757 353.2755 
L 1290.403758 348.28054 
L 1291.464258 352.225278 
L 1292.524758 351.09821 
L 1293.585259 351.354362 
L 1294.645759 350.701174 
L 1295.70626 350.72679 
L 1296.76676 353.2755 
L 1297.827261 353.2755 
L 1298.887761 349.279532 
L 1299.948262 352.737581 
L 1301.008762 352.801619 
L 1302.069263 352.314931 
L 1303.129763 351.277516 
L 1304.190264 350.944519 
L 1305.250764 350.816443 
L 1306.311265 352.699158 
L 1307.371765 352.302123 
L 1308.432266 350.112025 
L 1309.492766 351.20067 
L 1309.492766 351.20067 
" clip-path="url(#p5781472a66)" style="fill: none; stroke: #0000ff; stroke-width: 1.5; stroke-linecap: square"/>
   </g>
   <g id="line2d_18">
    <path d="M 1069.819659 312.478738 
L 1070.880159 311.073415 
L 1071.94066 320.203431 
L 1073.00116 308.28246 
L 1074.061661 300.950933 
L 1075.122161 269.75588 
L 1076.182662 271.222029 
L 1077.243162 283.457653 
L 1078.303662 293.658088 
L 1079.364163 299.904713 
L 1080.424663 295.26994 
L 1081.485164 285.465151 
L 1082.545664 278.940927 
L 1083.606165 280.17858 
L 1084.666665 286.629818 
L 1085.727166 311.140288 
L 1086.787666 296.529644 
L 1087.848167 327.544211 
L 1088.908667 287.327106 
L 1089.969168 299.480959 
L 1091.029668 288.959815 
L 1092.090169 296.736624 
L 1093.150669 307.749241 
L 1094.21117 315.834943 
L 1095.27167 316.601376 
L 1096.332171 311.762527 
L 1097.392671 320.330523 
L 1098.453172 318.040053 
L 1099.513672 329.324359 
L 1100.574172 326.47162 
L 1101.634673 325.934254 
L 1102.695173 322.365172 
L 1103.755674 328.224298 
L 1104.816174 329.852675 
L 1105.876675 332.943301 
L 1106.937175 335.326776 
L 1107.997676 332.455033 
L 1109.058176 334.249428 
L 1110.118677 339.989679 
L 1111.179177 338.984957 
L 1112.239678 342.829991 
L 1113.300178 339.27251 
L 1114.360679 339.491947 
L 1115.421179 340.908906 
L 1116.48168 340.136636 
L 1117.54218 346.874524 
L 1118.602681 341.77035 
L 1119.663181 344.478691 
L 1120.723682 343.339571 
L 1121.784182 344.558288 
L 1122.844682 347.439309 
L 1123.905183 349.198342 
L 1124.965683 348.713698 
L 1126.026184 349.851843 
L 1127.086684 347.990323 
L 1128.147185 349.382669 
L 1129.207685 349.264639 
L 1130.268186 350.112233 
L 1131.328686 350.066261 
L 1132.389187 351.047893 
L 1133.449687 350.493611 
L 1134.510188 350.980431 
L 1135.570688 350.403584 
L 1136.631189 351.267507 
L 1137.691689 351.782622 
L 1138.75219 351.386819 
L 1139.81269 352.148656 
L 1140.873191 351.179297 
L 1141.933691 351.993065 
L 1142.994191 351.709789 
L 1144.054692 351.964806 
L 1148.296694 352.408172 
L 1149.357194 352.344165 
L 1150.417695 352.118997 
L 1152.538696 352.40314 
L 1153.599196 352.502042 
L 1154.659697 352.720296 
L 1155.720197 352.418818 
L 1156.780698 352.792501 
L 1157.841198 352.527735 
L 1159.962199 352.807271 
L 1161.0227 352.684152 
L 1162.0832 352.814443 
L 1164.204201 352.690355 
L 1165.264701 352.644038 
L 1166.325202 352.853057 
L 1167.385702 352.641126 
L 1168.446203 352.960544 
L 1169.506703 352.634355 
L 1170.567204 352.715296 
L 1171.627704 352.682825 
L 1174.809206 353.049519 
L 1175.869706 352.863049 
L 1177.990707 353.01706 
L 1179.051208 352.803188 
L 1180.111708 353.036854 
L 1181.172209 352.735433 
L 1182.232709 352.955328 
L 1183.29321 352.78708 
L 1184.35371 352.977646 
L 1185.41421 352.935316 
L 1186.474711 353.060947 
L 1187.535211 352.969329 
L 1188.595712 353.020552 
L 1189.656212 352.815321 
L 1190.716713 352.985347 
L 1191.777213 352.733301 
L 1192.837714 352.957652 
L 1193.898214 352.820288 
L 1194.958715 352.809916 
L 1196.019215 352.918585 
L 1197.079716 352.874732 
L 1198.140216 352.998203 
L 1199.200717 352.728683 
L 1200.261217 352.81341 
L 1201.321718 352.449379 
L 1202.382218 352.850041 
L 1203.442719 352.554319 
L 1204.503219 352.879675 
L 1206.62422 352.399853 
L 1207.68472 352.633589 
L 1208.745221 352.224114 
L 1209.805721 352.388743 
L 1210.866222 352.288358 
L 1211.926722 352.446902 
L 1212.987223 351.584721 
L 1214.047723 352.252561 
L 1215.108224 351.188117 
L 1216.168724 351.705023 
L 1217.229225 349.88263 
L 1219.350226 349.348623 
L 1220.410726 350.575863 
L 1221.471227 346.459973 
L 1222.531727 348.554702 
L 1223.592228 340.901616 
L 1224.652728 347.071803 
L 1225.713229 342.046792 
L 1226.773729 342.211226 
L 1227.834229 333.238131 
L 1228.89473 337.801151 
L 1229.95523 323.320813 
L 1231.015731 336.683597 
L 1232.076231 324.171598 
L 1233.136732 329.508902 
L 1234.197232 324.926008 
L 1235.257733 330.38624 
L 1236.318233 329.499461 
L 1237.378734 322.102686 
L 1238.439234 325.712983 
L 1239.499735 321.389193 
L 1240.560235 321.201239 
L 1241.620736 330.451377 
L 1242.681236 330.935546 
L 1243.741737 316.618538 
L 1244.802237 333.440623 
L 1245.862738 317.825004 
L 1246.923238 325.708604 
L 1247.983739 324.128334 
L 1249.044239 327.879289 
L 1250.104739 328.768794 
L 1251.16524 333.159448 
L 1252.22574 332.099019 
L 1253.286241 335.015328 
L 1254.346741 340.121512 
L 1255.407242 336.112562 
L 1256.467742 345.602764 
L 1257.528243 331.187685 
L 1258.588743 339.605759 
L 1259.649244 334.919176 
L 1260.709744 339.039878 
L 1261.770245 338.295222 
L 1262.830745 339.18955 
L 1263.891246 338.7732 
L 1264.951746 339.545523 
L 1266.012247 342.877483 
L 1267.072747 339.41553 
L 1268.133248 345.429017 
L 1269.193748 341.885165 
L 1270.254248 345.832507 
L 1271.314749 347.819719 
L 1272.375249 348.616749 
L 1273.43575 347.46593 
L 1274.49625 348.193171 
L 1275.556751 342.544467 
L 1276.617251 346.689923 
L 1277.677752 344.560695 
L 1278.738252 347.30599 
L 1279.798753 348.381558 
L 1280.859253 348.942677 
L 1281.919754 349.119994 
L 1282.980254 349.026661 
L 1284.040755 347.928978 
L 1285.101255 348.9251 
L 1286.161756 348.681187 
L 1287.222256 350.273949 
L 1288.282757 350.675399 
L 1289.343257 350.535536 
L 1290.403758 350.782645 
L 1292.524758 350.75893 
L 1293.585259 351.147526 
L 1294.645759 350.393504 
L 1295.70626 350.93402 
L 1296.76676 351.033182 
L 1297.827261 350.882181 
L 1298.887761 351.17939 
L 1299.948262 351.6652 
L 1301.008762 351.494524 
L 1302.069263 352.163138 
L 1303.129763 351.622871 
L 1304.190264 351.969655 
L 1305.250764 352.172566 
L 1306.311265 352.068512 
L 1307.371765 351.542586 
L 1309.492766 351.609846 
L 1309.492766 351.609846 
" clip-path="url(#p5781472a66)" style="fill: none; stroke: #ffa500; stroke-width: 1.5; stroke-linecap: square"/>
   </g>
   <g id="line2d_19">
    <path d="M 1310.553267 351.58163 
L 1311.613767 351.716354 
L 1312.674268 351.295662 
L 1313.734768 351.294368 
L 1314.795268 351.374635 
L 1315.855769 351.456621 
L 1316.916269 351.409392 
L 1317.97677 351.38164 
L 1319.03727 351.382338 
L 1320.097771 351.401643 
L 1321.158271 351.40243 
L 1322.218772 351.396773 
L 1323.279272 351.393434 
L 1324.339773 351.395818 
" clip-path="url(#p5781472a66)" style="fill: none; stroke: #ff0000; stroke-width: 1.5; stroke-linecap: square"/>
   </g>
   <g id="patch_3">
    <path d="M 46.0125 368.3955 
L 46.0125 35.7555 
" style="fill: none; stroke: #000000; stroke-width: 0.8; stroke-linejoin: miter; stroke-linecap: square"/>
   </g>
   <g id="patch_4">
    <path d="M 1385.2125 368.3955 
L 1385.2125 35.7555 
" style="fill: none; stroke: #000000; stroke-width: 0.8; stroke-linejoin: miter; stroke-linecap: square"/>
   </g>
   <g id="patch_5">
    <path d="M 46.0125 368.3955 
L 1385.2125 368.3955 
" style="fill: none; stroke: #000000; stroke-width: 0.8; stroke-linejoin: miter; stroke-linecap: square"/>
   </g>
   <g id="patch_6">
    <path d="M 46.0125 35.7555 
L 1385.2125 35.7555 
" style="fill: none; stroke: #000000; stroke-width: 0.8; stroke-linejoin: miter; stroke-linecap: square"/>
   </g>
   <g id="text_17">
    <!-- Daily Confirmed Cases Forecasting - Bolivia -->
    <g transform="translate(585.095625 16.318125)scale(0.12 -0.12)">
     <defs>
      <path id="DejaVuSans-44" d="M 1259 4147 
L 1259 519 
L 2022 519 
Q 2988 519 3436 956 
Q 3884 1394 3884 2338 
Q 3884 3275 3436 3711 
Q 2988 4147 2022 4147 
L 1259 4147 
z
M 628 4666 
L 1925 4666 
Q 3281 4666 3915 4102 
Q 4550 3538 4550 2338 
Q 4550 1131 3912 565 
Q 3275 0 1925 0 
L 628 0 
L 628 4666 
z
" transform="scale(0.015625)"/>
      <path id="DejaVuSans-61" d="M 2194 1759 
Q 1497 1759 1228 1600 
Q 959 1441 959 1056 
Q 959 750 1161 570 
Q 1363 391 1709 391 
Q 2188 391 2477 730 
Q 2766 1069 2766 1631 
L 2766 1759 
L 2194 1759 
z
M 3341 1997 
L 3341 0 
L 2766 0 
L 2766 531 
Q 2569 213 2275 61 
Q 1981 -91 1556 -91 
Q 1019 -91 701 211 
Q 384 513 384 1019 
Q 384 1609 779 1909 
Q 1175 2209 1959 2209 
L 2766 2209 
L 2766 2266 
Q 2766 2663 2505 2880 
Q 2244 3097 1772 3097 
Q 1472 3097 1187 3025 
Q 903 2953 641 2809 
L 641 3341 
Q 956 3463 1253 3523 
Q 1550 3584 1831 3584 
Q 2591 3584 2966 3190 
Q 3341 2797 3341 1997 
z
" transform="scale(0.015625)"/>
      <path id="DejaVuSans-69" d="M 603 3500 
L 1178 3500 
L 1178 0 
L 603 0 
L 603 3500 
z
M 603 4863 
L 1178 4863 
L 1178 4134 
L 603 4134 
L 603 4863 
z
" transform="scale(0.015625)"/>
      <path id="DejaVuSans-6c" d="M 603 4863 
L 1178 4863 
L 1178 0 
L 603 0 
L 603 4863 
z
" transform="scale(0.015625)"/>
      <path id="DejaVuSans-79" d="M 2059 -325 
Q 1816 -950 1584 -1140 
Q 1353 -1331 966 -1331 
L 506 -1331 
L 506 -850 
L 844 -850 
Q 1081 -850 1212 -737 
Q 1344 -625 1503 -206 
L 1606 56 
L 191 3500 
L 800 3500 
L 1894 763 
L 2988 3500 
L 3597 3500 
L 2059 -325 
z
" transform="scale(0.015625)"/>
      <path id="DejaVuSans-20" transform="scale(0.015625)"/>
      <path id="DejaVuSans-43" d="M 4122 4306 
L 4122 3641 
Q 3803 3938 3442 4084 
Q 3081 4231 2675 4231 
Q 1875 4231 1450 3742 
Q 1025 3253 1025 2328 
Q 1025 1406 1450 917 
Q 1875 428 2675 428 
Q 3081 428 3442 575 
Q 3803 722 4122 1019 
L 4122 359 
Q 3791 134 3420 21 
Q 3050 -91 2638 -91 
Q 1578 -91 968 557 
Q 359 1206 359 2328 
Q 359 3453 968 4101 
Q 1578 4750 2638 4750 
Q 3056 4750 3426 4639 
Q 3797 4528 4122 4306 
z
" transform="scale(0.015625)"/>
      <path id="DejaVuSans-6f" d="M 1959 3097 
Q 1497 3097 1228 2736 
Q 959 2375 959 1747 
Q 959 1119 1226 758 
Q 1494 397 1959 397 
Q 2419 397 2687 759 
Q 2956 1122 2956 1747 
Q 2956 2369 2687 2733 
Q 2419 3097 1959 3097 
z
M 1959 3584 
Q 2709 3584 3137 3096 
Q 3566 2609 3566 1747 
Q 3566 888 3137 398 
Q 2709 -91 1959 -91 
Q 1206 -91 779 398 
Q 353 888 353 1747 
Q 353 2609 779 3096 
Q 1206 3584 1959 3584 
z
" transform="scale(0.015625)"/>
      <path id="DejaVuSans-6e" d="M 3513 2113 
L 3513 0 
L 2938 0 
L 2938 2094 
Q 2938 2591 2744 2837 
Q 2550 3084 2163 3084 
Q 1697 3084 1428 2787 
Q 1159 2491 1159 1978 
L 1159 0 
L 581 0 
L 581 3500 
L 1159 3500 
L 1159 2956 
Q 1366 3272 1645 3428 
Q 1925 3584 2291 3584 
Q 2894 3584 3203 3211 
Q 3513 2838 3513 2113 
z
" transform="scale(0.015625)"/>
      <path id="DejaVuSans-66" d="M 2375 4863 
L 2375 4384 
L 1825 4384 
Q 1516 4384 1395 4259 
Q 1275 4134 1275 3809 
L 1275 3500 
L 2222 3500 
L 2222 3053 
L 1275 3053 
L 1275 0 
L 697 0 
L 697 3053 
L 147 3053 
L 147 3500 
L 697 3500 
L 697 3744 
Q 697 4328 969 4595 
Q 1241 4863 1831 4863 
L 2375 4863 
z
" transform="scale(0.015625)"/>
      <path id="DejaVuSans-72" d="M 2631 2963 
Q 2534 3019 2420 3045 
Q 2306 3072 2169 3072 
Q 1681 3072 1420 2755 
Q 1159 2438 1159 1844 
L 1159 0 
L 581 0 
L 581 3500 
L 1159 3500 
L 1159 2956 
Q 1341 3275 1631 3429 
Q 1922 3584 2338 3584 
Q 2397 3584 2469 3576 
Q 2541 3569 2628 3553 
L 2631 2963 
z
" transform="scale(0.015625)"/>
      <path id="DejaVuSans-6d" d="M 3328 2828 
Q 3544 3216 3844 3400 
Q 4144 3584 4550 3584 
Q 5097 3584 5394 3201 
Q 5691 2819 5691 2113 
L 5691 0 
L 5113 0 
L 5113 2094 
Q 5113 2597 4934 2840 
Q 4756 3084 4391 3084 
Q 3944 3084 3684 2787 
Q 3425 2491 3425 1978 
L 3425 0 
L 2847 0 
L 2847 2094 
Q 2847 2600 2669 2842 
Q 2491 3084 2119 3084 
Q 1678 3084 1418 2786 
Q 1159 2488 1159 1978 
L 1159 0 
L 581 0 
L 581 3500 
L 1159 3500 
L 1159 2956 
Q 1356 3278 1631 3431 
Q 1906 3584 2284 3584 
Q 2666 3584 2933 3390 
Q 3200 3197 3328 2828 
z
" transform="scale(0.015625)"/>
      <path id="DejaVuSans-65" d="M 3597 1894 
L 3597 1613 
L 953 1613 
Q 991 1019 1311 708 
Q 1631 397 2203 397 
Q 2534 397 2845 478 
Q 3156 559 3463 722 
L 3463 178 
Q 3153 47 2828 -22 
Q 2503 -91 2169 -91 
Q 1331 -91 842 396 
Q 353 884 353 1716 
Q 353 2575 817 3079 
Q 1281 3584 2069 3584 
Q 2775 3584 3186 3129 
Q 3597 2675 3597 1894 
z
M 3022 2063 
Q 3016 2534 2758 2815 
Q 2500 3097 2075 3097 
Q 1594 3097 1305 2825 
Q 1016 2553 972 2059 
L 3022 2063 
z
" transform="scale(0.015625)"/>
      <path id="DejaVuSans-64" d="M 2906 2969 
L 2906 4863 
L 3481 4863 
L 3481 0 
L 2906 0 
L 2906 525 
Q 2725 213 2448 61 
Q 2172 -91 1784 -91 
Q 1150 -91 751 415 
Q 353 922 353 1747 
Q 353 2572 751 3078 
Q 1150 3584 1784 3584 
Q 2172 3584 2448 3432 
Q 2725 3281 2906 2969 
z
M 947 1747 
Q 947 1113 1208 752 
Q 1469 391 1925 391 
Q 2381 391 2643 752 
Q 2906 1113 2906 1747 
Q 2906 2381 2643 2742 
Q 2381 3103 1925 3103 
Q 1469 3103 1208 2742 
Q 947 2381 947 1747 
z
" transform="scale(0.015625)"/>
      <path id="DejaVuSans-73" d="M 2834 3397 
L 2834 2853 
Q 2591 2978 2328 3040 
Q 2066 3103 1784 3103 
Q 1356 3103 1142 2972 
Q 928 2841 928 2578 
Q 928 2378 1081 2264 
Q 1234 2150 1697 2047 
L 1894 2003 
Q 2506 1872 2764 1633 
Q 3022 1394 3022 966 
Q 3022 478 2636 193 
Q 2250 -91 1575 -91 
Q 1294 -91 989 -36 
Q 684 19 347 128 
L 347 722 
Q 666 556 975 473 
Q 1284 391 1588 391 
Q 1994 391 2212 530 
Q 2431 669 2431 922 
Q 2431 1156 2273 1281 
Q 2116 1406 1581 1522 
L 1381 1569 
Q 847 1681 609 1914 
Q 372 2147 372 2553 
Q 372 3047 722 3315 
Q 1072 3584 1716 3584 
Q 2034 3584 2315 3537 
Q 2597 3491 2834 3397 
z
" transform="scale(0.015625)"/>
      <path id="DejaVuSans-46" d="M 628 4666 
L 3309 4666 
L 3309 4134 
L 1259 4134 
L 1259 2759 
L 3109 2759 
L 3109 2228 
L 1259 2228 
L 1259 0 
L 628 0 
L 628 4666 
z
" transform="scale(0.015625)"/>
      <path id="DejaVuSans-63" d="M 3122 3366 
L 3122 2828 
Q 2878 2963 2633 3030 
Q 2388 3097 2138 3097 
Q 1578 3097 1268 2742 
Q 959 2388 959 1747 
Q 959 1106 1268 751 
Q 1578 397 2138 397 
Q 2388 397 2633 464 
Q 2878 531 3122 666 
L 3122 134 
Q 2881 22 2623 -34 
Q 2366 -91 2075 -91 
Q 1284 -91 818 406 
Q 353 903 353 1747 
Q 353 2603 823 3093 
Q 1294 3584 2113 3584 
Q 2378 3584 2631 3529 
Q 2884 3475 3122 3366 
z
" transform="scale(0.015625)"/>
      <path id="DejaVuSans-74" d="M 1172 4494 
L 1172 3500 
L 2356 3500 
L 2356 3053 
L 1172 3053 
L 1172 1153 
Q 1172 725 1289 603 
Q 1406 481 1766 481 
L 2356 481 
L 2356 0 
L 1766 0 
Q 1100 0 847 248 
Q 594 497 594 1153 
L 594 3053 
L 172 3053 
L 172 3500 
L 594 3500 
L 594 4494 
L 1172 4494 
z
" transform="scale(0.015625)"/>
      <path id="DejaVuSans-67" d="M 2906 1791 
Q 2906 2416 2648 2759 
Q 2391 3103 1925 3103 
Q 1463 3103 1205 2759 
Q 947 2416 947 1791 
Q 947 1169 1205 825 
Q 1463 481 1925 481 
Q 2391 481 2648 825 
Q 2906 1169 2906 1791 
z
M 3481 434 
Q 3481 -459 3084 -895 
Q 2688 -1331 1869 -1331 
Q 1566 -1331 1297 -1286 
Q 1028 -1241 775 -1147 
L 775 -588 
Q 1028 -725 1275 -790 
Q 1522 -856 1778 -856 
Q 2344 -856 2625 -561 
Q 2906 -266 2906 331 
L 2906 616 
Q 2728 306 2450 153 
Q 2172 0 1784 0 
Q 1141 0 747 490 
Q 353 981 353 1791 
Q 353 2603 747 3093 
Q 1141 3584 1784 3584 
Q 2172 3584 2450 3431 
Q 2728 3278 2906 2969 
L 2906 3500 
L 3481 3500 
L 3481 434 
z
" transform="scale(0.015625)"/>
      <path id="DejaVuSans-42" d="M 1259 2228 
L 1259 519 
L 2272 519 
Q 2781 519 3026 730 
Q 3272 941 3272 1375 
Q 3272 1813 3026 2020 
Q 2781 2228 2272 2228 
L 1259 2228 
z
M 1259 4147 
L 1259 2741 
L 2194 2741 
Q 2656 2741 2882 2914 
Q 3109 3088 3109 3444 
Q 3109 3797 2882 3972 
Q 2656 4147 2194 4147 
L 1259 4147 
z
M 628 4666 
L 2241 4666 
Q 2963 4666 3353 4366 
Q 3744 4066 3744 3513 
Q 3744 3084 3544 2831 
Q 3344 2578 2956 2516 
Q 3422 2416 3680 2098 
Q 3938 1781 3938 1306 
Q 3938 681 3513 340 
Q 3088 0 2303 0 
L 628 0 
L 628 4666 
z
" transform="scale(0.015625)"/>
      <path id="DejaVuSans-76" d="M 191 3500 
L 800 3500 
L 1894 563 
L 2988 3500 
L 3597 3500 
L 2284 0 
L 1503 0 
L 191 3500 
z
" transform="scale(0.015625)"/>
     </defs>
     <use xlink:href="#DejaVuSans-44"/>
     <use xlink:href="#DejaVuSans-61" x="77.001953"/>
     <use xlink:href="#DejaVuSans-69" x="138.28125"/>
     <use xlink:href="#DejaVuSans-6c" x="166.064453"/>
     <use xlink:href="#DejaVuSans-79" x="193.847656"/>
     <use xlink:href="#DejaVuSans-20" x="253.027344"/>
     <use xlink:href="#DejaVuSans-43" x="284.814453"/>
     <use xlink:href="#DejaVuSans-6f" x="354.638672"/>
     <use xlink:href="#DejaVuSans-6e" x="415.820312"/>
     <use xlink:href="#DejaVuSans-66" x="479.199219"/>
     <use xlink:href="#DejaVuSans-69" x="514.404297"/>
     <use xlink:href="#DejaVuSans-72" x="542.1875"/>
     <use xlink:href="#DejaVuSans-6d" x="581.550781"/>
     <use xlink:href="#DejaVuSans-65" x="678.962891"/>
     <use xlink:href="#DejaVuSans-64" x="740.486328"/>
     <use xlink:href="#DejaVuSans-20" x="803.962891"/>
     <use xlink:href="#DejaVuSans-43" x="835.75"/>
     <use xlink:href="#DejaVuSans-61" x="905.574219"/>
     <use xlink:href="#DejaVuSans-73" x="966.853516"/>
     <use xlink:href="#DejaVuSans-65" x="1018.953125"/>
     <use xlink:href="#DejaVuSans-73" x="1080.476562"/>
     <use xlink:href="#DejaVuSans-20" x="1132.576172"/>
     <use xlink:href="#DejaVuSans-46" x="1164.363281"/>
     <use xlink:href="#DejaVuSans-6f" x="1218.257812"/>
     <use xlink:href="#DejaVuSans-72" x="1279.439453"/>
     <use xlink:href="#DejaVuSans-65" x="1318.302734"/>
     <use xlink:href="#DejaVuSans-63" x="1379.826172"/>
     <use xlink:href="#DejaVuSans-61" x="1434.806641"/>
     <use xlink:href="#DejaVuSans-73" x="1496.085938"/>
     <use xlink:href="#DejaVuSans-74" x="1548.185547"/>
     <use xlink:href="#DejaVuSans-69" x="1587.394531"/>
     <use xlink:href="#DejaVuSans-6e" x="1615.177734"/>
     <use xlink:href="#DejaVuSans-67" x="1678.556641"/>
     <use xlink:href="#DejaVuSans-20" x="1742.033203"/>
     <use xlink:href="#DejaVuSans-2d" x="1773.820312"/>
     <use xlink:href="#DejaVuSans-20" x="1809.904297"/>
     <use xlink:href="#DejaVuSans-42" x="1841.691406"/>
     <use xlink:href="#DejaVuSans-6f" x="1910.294922"/>
     <use xlink:href="#DejaVuSans-6c" x="1971.476562"/>
     <use xlink:href="#DejaVuSans-69" x="1999.259766"/>
     <use xlink:href="#DejaVuSans-76" x="2027.042969"/>
     <use xlink:href="#DejaVuSans-69" x="2086.222656"/>
     <use xlink:href="#DejaVuSans-61" x="2114.005859"/>
    </g>
    <!-- ARIMA (4, 1, 1)x(0, 0, 0, 7) (R2 = 0.471499) -->
    <g transform="translate(583.628438 29.7555)scale(0.12 -0.12)">
     <defs>
      <path id="DejaVuSans-41" d="M 2188 4044 
L 1331 1722 
L 3047 1722 
L 2188 4044 
z
M 1831 4666 
L 2547 4666 
L 4325 0 
L 3669 0 
L 3244 1197 
L 1141 1197 
L 716 0 
L 50 0 
L 1831 4666 
z
" transform="scale(0.015625)"/>
      <path id="DejaVuSans-52" d="M 2841 2188 
Q 3044 2119 3236 1894 
Q 3428 1669 3622 1275 
L 4263 0 
L 3584 0 
L 2988 1197 
Q 2756 1666 2539 1819 
Q 2322 1972 1947 1972 
L 1259 1972 
L 1259 0 
L 628 0 
L 628 4666 
L 2053 4666 
Q 2853 4666 3247 4331 
Q 3641 3997 3641 3322 
Q 3641 2881 3436 2590 
Q 3231 2300 2841 2188 
z
M 1259 4147 
L 1259 2491 
L 2053 2491 
Q 2509 2491 2742 2702 
Q 2975 2913 2975 3322 
Q 2975 3731 2742 3939 
Q 2509 4147 2053 4147 
L 1259 4147 
z
" transform="scale(0.015625)"/>
      <path id="DejaVuSans-49" d="M 628 4666 
L 1259 4666 
L 1259 0 
L 628 0 
L 628 4666 
z
" transform="scale(0.015625)"/>
      <path id="DejaVuSans-4d" d="M 628 4666 
L 1569 4666 
L 2759 1491 
L 3956 4666 
L 4897 4666 
L 4897 0 
L 4281 0 
L 4281 4097 
L 3078 897 
L 2444 897 
L 1241 4097 
L 1241 0 
L 628 0 
L 628 4666 
z
" transform="scale(0.015625)"/>
      <path id="DejaVuSans-28" d="M 1984 4856 
Q 1566 4138 1362 3434 
Q 1159 2731 1159 2009 
Q 1159 1288 1364 580 
Q 1569 -128 1984 -844 
L 1484 -844 
Q 1016 -109 783 600 
Q 550 1309 550 2009 
Q 550 2706 781 3412 
Q 1013 4119 1484 4856 
L 1984 4856 
z
" transform="scale(0.015625)"/>
      <path id="DejaVuSans-34" d="M 2419 4116 
L 825 1625 
L 2419 1625 
L 2419 4116 
z
M 2253 4666 
L 3047 4666 
L 3047 1625 
L 3713 1625 
L 3713 1100 
L 3047 1100 
L 3047 0 
L 2419 0 
L 2419 1100 
L 313 1100 
L 313 1709 
L 2253 4666 
z
" transform="scale(0.015625)"/>
      <path id="DejaVuSans-2c" d="M 750 794 
L 1409 794 
L 1409 256 
L 897 -744 
L 494 -744 
L 750 256 
L 750 794 
z
" transform="scale(0.015625)"/>
      <path id="DejaVuSans-29" d="M 513 4856 
L 1013 4856 
Q 1481 4119 1714 3412 
Q 1947 2706 1947 2009 
Q 1947 1309 1714 600 
Q 1481 -109 1013 -844 
L 513 -844 
Q 928 -128 1133 580 
Q 1338 1288 1338 2009 
Q 1338 2731 1133 3434 
Q 928 4138 513 4856 
z
" transform="scale(0.015625)"/>
      <path id="DejaVuSans-78" d="M 3513 3500 
L 2247 1797 
L 3578 0 
L 2900 0 
L 1881 1375 
L 863 0 
L 184 0 
L 1544 1831 
L 300 3500 
L 978 3500 
L 1906 2253 
L 2834 3500 
L 3513 3500 
z
" transform="scale(0.015625)"/>
      <path id="DejaVuSans-37" d="M 525 4666 
L 3525 4666 
L 3525 4397 
L 1831 0 
L 1172 0 
L 2766 4134 
L 525 4134 
L 525 4666 
z
" transform="scale(0.015625)"/>
      <path id="DejaVuSans-3d" d="M 678 2906 
L 4684 2906 
L 4684 2381 
L 678 2381 
L 678 2906 
z
M 678 1631 
L 4684 1631 
L 4684 1100 
L 678 1100 
L 678 1631 
z
" transform="scale(0.015625)"/>
      <path id="DejaVuSans-2e" d="M 684 794 
L 1344 794 
L 1344 0 
L 684 0 
L 684 794 
z
" transform="scale(0.015625)"/>
     </defs>
     <use xlink:href="#DejaVuSans-41"/>
     <use xlink:href="#DejaVuSans-52" x="68.408203"/>
     <use xlink:href="#DejaVuSans-49" x="137.890625"/>
     <use xlink:href="#DejaVuSans-4d" x="167.382812"/>
     <use xlink:href="#DejaVuSans-41" x="253.662109"/>
     <use xlink:href="#DejaVuSans-20" x="322.070312"/>
     <use xlink:href="#DejaVuSans-28" x="353.857422"/>
     <use xlink:href="#DejaVuSans-34" x="392.871094"/>
     <use xlink:href="#DejaVuSans-2c" x="456.494141"/>
     <use xlink:href="#DejaVuSans-20" x="488.28125"/>
     <use xlink:href="#DejaVuSans-31" x="520.068359"/>
     <use xlink:href="#DejaVuSans-2c" x="583.691406"/>
     <use xlink:href="#DejaVuSans-20" x="615.478516"/>
     <use xlink:href="#DejaVuSans-31" x="647.265625"/>
     <use xlink:href="#DejaVuSans-29" x="710.888672"/>
     <use xlink:href="#DejaVuSans-78" x="749.902344"/>
     <use xlink:href="#DejaVuSans-28" x="809.082031"/>
     <use xlink:href="#DejaVuSans-30" x="848.095703"/>
     <use xlink:href="#DejaVuSans-2c" x="911.71875"/>
     <use xlink:href="#DejaVuSans-20" x="943.505859"/>
     <use xlink:href="#DejaVuSans-30" x="975.292969"/>
     <use xlink:href="#DejaVuSans-2c" x="1038.916016"/>
     <use xlink:href="#DejaVuSans-20" x="1070.703125"/>
     <use xlink:href="#DejaVuSans-30" x="1102.490234"/>
     <use xlink:href="#DejaVuSans-2c" x="1166.113281"/>
     <use xlink:href="#DejaVuSans-20" x="1197.900391"/>
     <use xlink:href="#DejaVuSans-37" x="1229.6875"/>
     <use xlink:href="#DejaVuSans-29" x="1293.310547"/>
     <use xlink:href="#DejaVuSans-20" x="1332.324219"/>
     <use xlink:href="#DejaVuSans-28" x="1364.111328"/>
     <use xlink:href="#DejaVuSans-52" x="1403.125"/>
     <use xlink:href="#DejaVuSans-32" x="1472.607422"/>
     <use xlink:href="#DejaVuSans-20" x="1536.230469"/>
     <use xlink:href="#DejaVuSans-3d" x="1568.017578"/>
     <use xlink:href="#DejaVuSans-20" x="1651.806641"/>
     <use xlink:href="#DejaVuSans-30" x="1683.59375"/>
     <use xlink:href="#DejaVuSans-2e" x="1747.216797"/>
     <use xlink:href="#DejaVuSans-34" x="1779.003906"/>
     <use xlink:href="#DejaVuSans-37" x="1842.626953"/>
     <use xlink:href="#DejaVuSans-31" x="1906.25"/>
     <use xlink:href="#DejaVuSans-34" x="1969.873047"/>
     <use xlink:href="#DejaVuSans-39" x="2033.496094"/>
     <use xlink:href="#DejaVuSans-39" x="2097.119141"/>
     <use xlink:href="#DejaVuSans-29" x="2160.742188"/>
    </g>
   </g>
   <g id="legend_1">
    <g id="patch_7">
     <path d="M 1281.132812 87.789875 
L 1378.2125 87.789875 
Q 1380.2125 87.789875 1380.2125 85.789875 
L 1380.2125 42.7555 
Q 1380.2125 40.7555 1378.2125 40.7555 
L 1281.132812 40.7555 
Q 1279.132812 40.7555 1279.132812 42.7555 
L 1279.132812 85.789875 
Q 1279.132812 87.789875 1281.132812 87.789875 
z
" style="fill: #ffffff; opacity: 0.8; stroke: #cccccc; stroke-linejoin: miter"/>
    </g>
    <g id="line2d_20">
     <path d="M 1283.132812 48.853937 
L 1293.132812 48.853937 
L 1303.132812 48.853937 
" style="fill: none; stroke: #0000ff; stroke-width: 1.5; stroke-linecap: square"/>
    </g>
    <g id="text_18">
     <!-- Actual Value -->
     <g transform="translate(1311.132812 52.353937)scale(0.1 -0.1)">
      <defs>
       <path id="DejaVuSans-75" d="M 544 1381 
L 544 3500 
L 1119 3500 
L 1119 1403 
Q 1119 906 1312 657 
Q 1506 409 1894 409 
Q 2359 409 2629 706 
Q 2900 1003 2900 1516 
L 2900 3500 
L 3475 3500 
L 3475 0 
L 2900 0 
L 2900 538 
Q 2691 219 2414 64 
Q 2138 -91 1772 -91 
Q 1169 -91 856 284 
Q 544 659 544 1381 
z
M 1991 3584 
L 1991 3584 
z
" transform="scale(0.015625)"/>
       <path id="DejaVuSans-56" d="M 1831 0 
L 50 4666 
L 709 4666 
L 2188 738 
L 3669 4666 
L 4325 4666 
L 2547 0 
L 1831 0 
z
" transform="scale(0.015625)"/>
      </defs>
      <use xlink:href="#DejaVuSans-41"/>
      <use xlink:href="#DejaVuSans-63" x="66.658203"/>
      <use xlink:href="#DejaVuSans-74" x="121.638672"/>
      <use xlink:href="#DejaVuSans-75" x="160.847656"/>
      <use xlink:href="#DejaVuSans-61" x="224.226562"/>
      <use xlink:href="#DejaVuSans-6c" x="285.505859"/>
      <use xlink:href="#DejaVuSans-20" x="313.289062"/>
      <use xlink:href="#DejaVuSans-56" x="345.076172"/>
      <use xlink:href="#DejaVuSans-61" x="405.734375"/>
      <use xlink:href="#DejaVuSans-6c" x="467.013672"/>
      <use xlink:href="#DejaVuSans-75" x="494.796875"/>
      <use xlink:href="#DejaVuSans-65" x="558.175781"/>
     </g>
    </g>
    <g id="line2d_21">
     <path d="M 1283.132812 63.532062 
L 1293.132812 63.532062 
L 1303.132812 63.532062 
" style="fill: none; stroke: #ffa500; stroke-width: 1.5; stroke-linecap: square"/>
    </g>
    <g id="text_19">
     <!-- Check Value -->
     <g transform="translate(1311.132812 67.032062)scale(0.1 -0.1)">
      <defs>
       <path id="DejaVuSans-68" d="M 3513 2113 
L 3513 0 
L 2938 0 
L 2938 2094 
Q 2938 2591 2744 2837 
Q 2550 3084 2163 3084 
Q 1697 3084 1428 2787 
Q 1159 2491 1159 1978 
L 1159 0 
L 581 0 
L 581 4863 
L 1159 4863 
L 1159 2956 
Q 1366 3272 1645 3428 
Q 1925 3584 2291 3584 
Q 2894 3584 3203 3211 
Q 3513 2838 3513 2113 
z
" transform="scale(0.015625)"/>
       <path id="DejaVuSans-6b" d="M 581 4863 
L 1159 4863 
L 1159 1991 
L 2875 3500 
L 3609 3500 
L 1753 1863 
L 3688 0 
L 2938 0 
L 1159 1709 
L 1159 0 
L 581 0 
L 581 4863 
z
" transform="scale(0.015625)"/>
      </defs>
      <use xlink:href="#DejaVuSans-43"/>
      <use xlink:href="#DejaVuSans-68" x="69.824219"/>
      <use xlink:href="#DejaVuSans-65" x="133.203125"/>
      <use xlink:href="#DejaVuSans-63" x="194.726562"/>
      <use xlink:href="#DejaVuSans-6b" x="249.707031"/>
      <use xlink:href="#DejaVuSans-20" x="307.617188"/>
      <use xlink:href="#DejaVuSans-56" x="339.404297"/>
      <use xlink:href="#DejaVuSans-61" x="400.0625"/>
      <use xlink:href="#DejaVuSans-6c" x="461.341797"/>
      <use xlink:href="#DejaVuSans-75" x="489.125"/>
      <use xlink:href="#DejaVuSans-65" x="552.503906"/>
     </g>
    </g>
    <g id="line2d_22">
     <path d="M 1283.132812 78.210187 
L 1293.132812 78.210187 
L 1303.132812 78.210187 
" style="fill: none; stroke: #ff0000; stroke-width: 1.5; stroke-linecap: square"/>
    </g>
    <g id="text_20">
     <!-- Predict Value -->
     <g transform="translate(1311.132812 81.710187)scale(0.1 -0.1)">
      <defs>
       <path id="DejaVuSans-50" d="M 1259 4147 
L 1259 2394 
L 2053 2394 
Q 2494 2394 2734 2622 
Q 2975 2850 2975 3272 
Q 2975 3691 2734 3919 
Q 2494 4147 2053 4147 
L 1259 4147 
z
M 628 4666 
L 2053 4666 
Q 2838 4666 3239 4311 
Q 3641 3956 3641 3272 
Q 3641 2581 3239 2228 
Q 2838 1875 2053 1875 
L 1259 1875 
L 1259 0 
L 628 0 
L 628 4666 
z
" transform="scale(0.015625)"/>
      </defs>
      <use xlink:href="#DejaVuSans-50"/>
      <use xlink:href="#DejaVuSans-72" x="58.552734"/>
      <use xlink:href="#DejaVuSans-65" x="97.416016"/>
      <use xlink:href="#DejaVuSans-64" x="158.939453"/>
      <use xlink:href="#DejaVuSans-69" x="222.416016"/>
      <use xlink:href="#DejaVuSans-63" x="250.199219"/>
      <use xlink:href="#DejaVuSans-74" x="305.179688"/>
      <use xlink:href="#DejaVuSans-20" x="344.388672"/>
      <use xlink:href="#DejaVuSans-56" x="376.175781"/>
      <use xlink:href="#DejaVuSans-61" x="436.833984"/>
      <use xlink:href="#DejaVuSans-6c" x="498.113281"/>
      <use xlink:href="#DejaVuSans-75" x="525.896484"/>
      <use xlink:href="#DejaVuSans-65" x="589.275391"/>
     </g>
    </g>
   </g>
  </g>
 </g>
 <defs>
  <clipPath id="p5781472a66">
   <rect x="46.0125" y="35.7555" width="1339.2" height="332.64"/>
  </clipPath>
 </defs>
</svg>
