<?xml version="1.0" encoding="utf-8" standalone="no"?>
<!DOCTYPE svg PUBLIC "-//W3C//DTD SVG 1.1//EN"
  "http://www.w3.org/Graphics/SVG/1.1/DTD/svg11.dtd">
<svg xmlns:xlink="http://www.w3.org/1999/xlink" width="1398.775pt" height="392.273625pt" viewBox="0 0 1398.775 392.273625" xmlns="http://www.w3.org/2000/svg" version="1.1">
 <metadata>
  <rdf:RDF xmlns:dc="http://purl.org/dc/elements/1.1/" xmlns:cc="http://creativecommons.org/ns#" xmlns:rdf="http://www.w3.org/1999/02/22-rdf-syntax-ns#">
   <cc:Work>
    <dc:type rdf:resource="http://purl.org/dc/dcmitype/StillImage"/>
    <dc:date>2023-02-09T18:49:38.605535</dc:date>
    <dc:format>image/svg+xml</dc:format>
    <dc:creator>
     <cc:Agent>
      <dc:title>Matplotlib v3.5.1, https://matplotlib.org/</dc:title>
     </cc:Agent>
    </dc:creator>
   </cc:Work>
  </rdf:RDF>
 </metadata>
 <defs>
  <style type="text/css">*{stroke-linejoin: round; stroke-linecap: butt}</style>
 </defs>
 <g id="figure_1">
  <g id="patch_1">
   <path d="M 0 392.273625 
L 1398.775 392.273625 
L 1398.775 0 
L 0 0 
z
" style="fill: #ffffff"/>
  </g>
  <g id="axes_1">
   <g id="patch_2">
    <path d="M 52.375 368.3955 
L 1391.575 368.3955 
L 1391.575 35.7555 
L 52.375 35.7555 
z
" style="fill: #ffffff"/>
   </g>
   <g id="matplotlib.axis_1">
    <g id="xtick_1">
     <g id="line2d_1">
      <defs>
       <path id="m2b63ea5274" d="M 0 0 
L 0 3.5 
" style="stroke: #000000; stroke-width: 0.8"/>
      </defs>
      <g>
       <use xlink:href="#m2b63ea5274" x="89.460871" y="368.3955" style="stroke: #000000; stroke-width: 0.8"/>
      </g>
     </g>
     <g id="text_1">
      <!-- 2020-01 -->
      <g transform="translate(68.569465 382.993937)scale(0.1 -0.1)">
       <defs>
        <path id="DejaVuSans-32" d="M 1228 531 
L 3431 531 
L 3431 0 
L 469 0 
L 469 531 
Q 828 903 1448 1529 
Q 2069 2156 2228 2338 
Q 2531 2678 2651 2914 
Q 2772 3150 2772 3378 
Q 2772 3750 2511 3984 
Q 2250 4219 1831 4219 
Q 1534 4219 1204 4116 
Q 875 4013 500 3803 
L 500 4441 
Q 881 4594 1212 4672 
Q 1544 4750 1819 4750 
Q 2544 4750 2975 4387 
Q 3406 4025 3406 3419 
Q 3406 3131 3298 2873 
Q 3191 2616 2906 2266 
Q 2828 2175 2409 1742 
Q 1991 1309 1228 531 
z
" transform="scale(0.015625)"/>
        <path id="DejaVuSans-30" d="M 2034 4250 
Q 1547 4250 1301 3770 
Q 1056 3291 1056 2328 
Q 1056 1369 1301 889 
Q 1547 409 2034 409 
Q 2525 409 2770 889 
Q 3016 1369 3016 2328 
Q 3016 3291 2770 3770 
Q 2525 4250 2034 4250 
z
M 2034 4750 
Q 2819 4750 3233 4129 
Q 3647 3509 3647 2328 
Q 3647 1150 3233 529 
Q 2819 -91 2034 -91 
Q 1250 -91 836 529 
Q 422 1150 422 2328 
Q 422 3509 836 4129 
Q 1250 4750 2034 4750 
z
" transform="scale(0.015625)"/>
        <path id="DejaVuSans-2d" d="M 313 2009 
L 1997 2009 
L 1997 1497 
L 313 1497 
L 313 2009 
z
" transform="scale(0.015625)"/>
        <path id="DejaVuSans-31" d="M 794 531 
L 1825 531 
L 1825 4091 
L 703 3866 
L 703 4441 
L 1819 4666 
L 2450 4666 
L 2450 531 
L 3481 531 
L 3481 0 
L 794 0 
L 794 531 
z
" transform="scale(0.015625)"/>
       </defs>
       <use xlink:href="#DejaVuSans-32"/>
       <use xlink:href="#DejaVuSans-30" x="63.623047"/>
       <use xlink:href="#DejaVuSans-32" x="127.246094"/>
       <use xlink:href="#DejaVuSans-30" x="190.869141"/>
       <use xlink:href="#DejaVuSans-2d" x="254.492188"/>
       <use xlink:href="#DejaVuSans-30" x="290.576172"/>
       <use xlink:href="#DejaVuSans-31" x="354.199219"/>
      </g>
     </g>
    </g>
    <g id="xtick_2">
     <g id="line2d_2">
      <g>
       <use xlink:href="#m2b63ea5274" x="220.28858" y="368.3955" style="stroke: #000000; stroke-width: 0.8"/>
      </g>
     </g>
     <g id="text_2">
      <!-- 2020-05 -->
      <g transform="translate(199.397174 382.993937)scale(0.1 -0.1)">
       <defs>
        <path id="DejaVuSans-35" d="M 691 4666 
L 3169 4666 
L 3169 4134 
L 1269 4134 
L 1269 2991 
Q 1406 3038 1543 3061 
Q 1681 3084 1819 3084 
Q 2600 3084 3056 2656 
Q 3513 2228 3513 1497 
Q 3513 744 3044 326 
Q 2575 -91 1722 -91 
Q 1428 -91 1123 -41 
Q 819 9 494 109 
L 494 744 
Q 775 591 1075 516 
Q 1375 441 1709 441 
Q 2250 441 2565 725 
Q 2881 1009 2881 1497 
Q 2881 1984 2565 2268 
Q 2250 2553 1709 2553 
Q 1456 2553 1204 2497 
Q 953 2441 691 2322 
L 691 4666 
z
" transform="scale(0.015625)"/>
       </defs>
       <use xlink:href="#DejaVuSans-32"/>
       <use xlink:href="#DejaVuSans-30" x="63.623047"/>
       <use xlink:href="#DejaVuSans-32" x="127.246094"/>
       <use xlink:href="#DejaVuSans-30" x="190.869141"/>
       <use xlink:href="#DejaVuSans-2d" x="254.492188"/>
       <use xlink:href="#DejaVuSans-30" x="290.576172"/>
       <use xlink:href="#DejaVuSans-35" x="354.199219"/>
      </g>
     </g>
    </g>
    <g id="xtick_3">
     <g id="line2d_3">
      <g>
       <use xlink:href="#m2b63ea5274" x="353.27873" y="368.3955" style="stroke: #000000; stroke-width: 0.8"/>
      </g>
     </g>
     <g id="text_3">
      <!-- 2020-09 -->
      <g transform="translate(332.387324 382.993937)scale(0.1 -0.1)">
       <defs>
        <path id="DejaVuSans-39" d="M 703 97 
L 703 672 
Q 941 559 1184 500 
Q 1428 441 1663 441 
Q 2288 441 2617 861 
Q 2947 1281 2994 2138 
Q 2813 1869 2534 1725 
Q 2256 1581 1919 1581 
Q 1219 1581 811 2004 
Q 403 2428 403 3163 
Q 403 3881 828 4315 
Q 1253 4750 1959 4750 
Q 2769 4750 3195 4129 
Q 3622 3509 3622 2328 
Q 3622 1225 3098 567 
Q 2575 -91 1691 -91 
Q 1453 -91 1209 -44 
Q 966 3 703 97 
z
M 1959 2075 
Q 2384 2075 2632 2365 
Q 2881 2656 2881 3163 
Q 2881 3666 2632 3958 
Q 2384 4250 1959 4250 
Q 1534 4250 1286 3958 
Q 1038 3666 1038 3163 
Q 1038 2656 1286 2365 
Q 1534 2075 1959 2075 
z
" transform="scale(0.015625)"/>
       </defs>
       <use xlink:href="#DejaVuSans-32"/>
       <use xlink:href="#DejaVuSans-30" x="63.623047"/>
       <use xlink:href="#DejaVuSans-32" x="127.246094"/>
       <use xlink:href="#DejaVuSans-30" x="190.869141"/>
       <use xlink:href="#DejaVuSans-2d" x="254.492188"/>
       <use xlink:href="#DejaVuSans-30" x="290.576172"/>
       <use xlink:href="#DejaVuSans-39" x="354.199219"/>
      </g>
     </g>
    </g>
    <g id="xtick_4">
     <g id="line2d_4">
      <g>
       <use xlink:href="#m2b63ea5274" x="485.187659" y="368.3955" style="stroke: #000000; stroke-width: 0.8"/>
      </g>
     </g>
     <g id="text_4">
      <!-- 2021-01 -->
      <g transform="translate(464.296253 382.993937)scale(0.1 -0.1)">
       <use xlink:href="#DejaVuSans-32"/>
       <use xlink:href="#DejaVuSans-30" x="63.623047"/>
       <use xlink:href="#DejaVuSans-32" x="127.246094"/>
       <use xlink:href="#DejaVuSans-31" x="190.869141"/>
       <use xlink:href="#DejaVuSans-2d" x="254.492188"/>
       <use xlink:href="#DejaVuSans-30" x="290.576172"/>
       <use xlink:href="#DejaVuSans-31" x="354.199219"/>
      </g>
     </g>
    </g>
    <g id="xtick_5">
     <g id="line2d_5">
      <g>
       <use xlink:href="#m2b63ea5274" x="614.934147" y="368.3955" style="stroke: #000000; stroke-width: 0.8"/>
      </g>
     </g>
     <g id="text_5">
      <!-- 2021-05 -->
      <g transform="translate(594.042741 382.993937)scale(0.1 -0.1)">
       <use xlink:href="#DejaVuSans-32"/>
       <use xlink:href="#DejaVuSans-30" x="63.623047"/>
       <use xlink:href="#DejaVuSans-32" x="127.246094"/>
       <use xlink:href="#DejaVuSans-31" x="190.869141"/>
       <use xlink:href="#DejaVuSans-2d" x="254.492188"/>
       <use xlink:href="#DejaVuSans-30" x="290.576172"/>
       <use xlink:href="#DejaVuSans-35" x="354.199219"/>
      </g>
     </g>
    </g>
    <g id="xtick_6">
     <g id="line2d_6">
      <g>
       <use xlink:href="#m2b63ea5274" x="747.924298" y="368.3955" style="stroke: #000000; stroke-width: 0.8"/>
      </g>
     </g>
     <g id="text_6">
      <!-- 2021-09 -->
      <g transform="translate(727.032891 382.993937)scale(0.1 -0.1)">
       <use xlink:href="#DejaVuSans-32"/>
       <use xlink:href="#DejaVuSans-30" x="63.623047"/>
       <use xlink:href="#DejaVuSans-32" x="127.246094"/>
       <use xlink:href="#DejaVuSans-31" x="190.869141"/>
       <use xlink:href="#DejaVuSans-2d" x="254.492188"/>
       <use xlink:href="#DejaVuSans-30" x="290.576172"/>
       <use xlink:href="#DejaVuSans-39" x="354.199219"/>
      </g>
     </g>
    </g>
    <g id="xtick_7">
     <g id="line2d_7">
      <g>
       <use xlink:href="#m2b63ea5274" x="879.833227" y="368.3955" style="stroke: #000000; stroke-width: 0.8"/>
      </g>
     </g>
     <g id="text_7">
      <!-- 2022-01 -->
      <g transform="translate(858.941821 382.993937)scale(0.1 -0.1)">
       <use xlink:href="#DejaVuSans-32"/>
       <use xlink:href="#DejaVuSans-30" x="63.623047"/>
       <use xlink:href="#DejaVuSans-32" x="127.246094"/>
       <use xlink:href="#DejaVuSans-32" x="190.869141"/>
       <use xlink:href="#DejaVuSans-2d" x="254.492188"/>
       <use xlink:href="#DejaVuSans-30" x="290.576172"/>
       <use xlink:href="#DejaVuSans-31" x="354.199219"/>
      </g>
     </g>
    </g>
    <g id="xtick_8">
     <g id="line2d_8">
      <g>
       <use xlink:href="#m2b63ea5274" x="1009.579715" y="368.3955" style="stroke: #000000; stroke-width: 0.8"/>
      </g>
     </g>
     <g id="text_8">
      <!-- 2022-05 -->
      <g transform="translate(988.688309 382.993937)scale(0.1 -0.1)">
       <use xlink:href="#DejaVuSans-32"/>
       <use xlink:href="#DejaVuSans-30" x="63.623047"/>
       <use xlink:href="#DejaVuSans-32" x="127.246094"/>
       <use xlink:href="#DejaVuSans-32" x="190.869141"/>
       <use xlink:href="#DejaVuSans-2d" x="254.492188"/>
       <use xlink:href="#DejaVuSans-30" x="290.576172"/>
       <use xlink:href="#DejaVuSans-35" x="354.199219"/>
      </g>
     </g>
    </g>
    <g id="xtick_9">
     <g id="line2d_9">
      <g>
       <use xlink:href="#m2b63ea5274" x="1142.569865" y="368.3955" style="stroke: #000000; stroke-width: 0.8"/>
      </g>
     </g>
     <g id="text_9">
      <!-- 2022-09 -->
      <g transform="translate(1121.678459 382.993937)scale(0.1 -0.1)">
       <use xlink:href="#DejaVuSans-32"/>
       <use xlink:href="#DejaVuSans-30" x="63.623047"/>
       <use xlink:href="#DejaVuSans-32" x="127.246094"/>
       <use xlink:href="#DejaVuSans-32" x="190.869141"/>
       <use xlink:href="#DejaVuSans-2d" x="254.492188"/>
       <use xlink:href="#DejaVuSans-30" x="290.576172"/>
       <use xlink:href="#DejaVuSans-39" x="354.199219"/>
      </g>
     </g>
    </g>
    <g id="xtick_10">
     <g id="line2d_10">
      <g>
       <use xlink:href="#m2b63ea5274" x="1274.478795" y="368.3955" style="stroke: #000000; stroke-width: 0.8"/>
      </g>
     </g>
     <g id="text_10">
      <!-- 2023-01 -->
      <g transform="translate(1253.587388 382.993937)scale(0.1 -0.1)">
       <defs>
        <path id="DejaVuSans-33" d="M 2597 2516 
Q 3050 2419 3304 2112 
Q 3559 1806 3559 1356 
Q 3559 666 3084 287 
Q 2609 -91 1734 -91 
Q 1441 -91 1130 -33 
Q 819 25 488 141 
L 488 750 
Q 750 597 1062 519 
Q 1375 441 1716 441 
Q 2309 441 2620 675 
Q 2931 909 2931 1356 
Q 2931 1769 2642 2001 
Q 2353 2234 1838 2234 
L 1294 2234 
L 1294 2753 
L 1863 2753 
Q 2328 2753 2575 2939 
Q 2822 3125 2822 3475 
Q 2822 3834 2567 4026 
Q 2313 4219 1838 4219 
Q 1578 4219 1281 4162 
Q 984 4106 628 3988 
L 628 4550 
Q 988 4650 1302 4700 
Q 1616 4750 1894 4750 
Q 2613 4750 3031 4423 
Q 3450 4097 3450 3541 
Q 3450 3153 3228 2886 
Q 3006 2619 2597 2516 
z
" transform="scale(0.015625)"/>
       </defs>
       <use xlink:href="#DejaVuSans-32"/>
       <use xlink:href="#DejaVuSans-30" x="63.623047"/>
       <use xlink:href="#DejaVuSans-32" x="127.246094"/>
       <use xlink:href="#DejaVuSans-33" x="190.869141"/>
       <use xlink:href="#DejaVuSans-2d" x="254.492188"/>
       <use xlink:href="#DejaVuSans-30" x="290.576172"/>
       <use xlink:href="#DejaVuSans-31" x="354.199219"/>
      </g>
     </g>
    </g>
   </g>
   <g id="matplotlib.axis_2">
    <g id="ytick_1">
     <g id="line2d_11">
      <defs>
       <path id="mb6452cc120" d="M 0 0 
L -3.5 0 
" style="stroke: #000000; stroke-width: 0.8"/>
      </defs>
      <g>
       <use xlink:href="#mb6452cc120" x="52.375" y="351.85408" style="stroke: #000000; stroke-width: 0.8"/>
      </g>
     </g>
     <g id="text_11">
      <!-- 0 -->
      <g transform="translate(39.0125 355.653299)scale(0.1 -0.1)">
       <use xlink:href="#DejaVuSans-30"/>
      </g>
     </g>
    </g>
    <g id="ytick_2">
     <g id="line2d_12">
      <g>
       <use xlink:href="#mb6452cc120" x="52.375" y="289.999422" style="stroke: #000000; stroke-width: 0.8"/>
      </g>
     </g>
     <g id="text_12">
      <!-- 50000 -->
      <g transform="translate(13.5625 293.798641)scale(0.1 -0.1)">
       <use xlink:href="#DejaVuSans-35"/>
       <use xlink:href="#DejaVuSans-30" x="63.623047"/>
       <use xlink:href="#DejaVuSans-30" x="127.246094"/>
       <use xlink:href="#DejaVuSans-30" x="190.869141"/>
       <use xlink:href="#DejaVuSans-30" x="254.492188"/>
      </g>
     </g>
    </g>
    <g id="ytick_3">
     <g id="line2d_13">
      <g>
       <use xlink:href="#mb6452cc120" x="52.375" y="228.144764" style="stroke: #000000; stroke-width: 0.8"/>
      </g>
     </g>
     <g id="text_13">
      <!-- 100000 -->
      <g transform="translate(7.2 231.943983)scale(0.1 -0.1)">
       <use xlink:href="#DejaVuSans-31"/>
       <use xlink:href="#DejaVuSans-30" x="63.623047"/>
       <use xlink:href="#DejaVuSans-30" x="127.246094"/>
       <use xlink:href="#DejaVuSans-30" x="190.869141"/>
       <use xlink:href="#DejaVuSans-30" x="254.492188"/>
       <use xlink:href="#DejaVuSans-30" x="318.115234"/>
      </g>
     </g>
    </g>
    <g id="ytick_4">
     <g id="line2d_14">
      <g>
       <use xlink:href="#mb6452cc120" x="52.375" y="166.290106" style="stroke: #000000; stroke-width: 0.8"/>
      </g>
     </g>
     <g id="text_14">
      <!-- 150000 -->
      <g transform="translate(7.2 170.089325)scale(0.1 -0.1)">
       <use xlink:href="#DejaVuSans-31"/>
       <use xlink:href="#DejaVuSans-35" x="63.623047"/>
       <use xlink:href="#DejaVuSans-30" x="127.246094"/>
       <use xlink:href="#DejaVuSans-30" x="190.869141"/>
       <use xlink:href="#DejaVuSans-30" x="254.492188"/>
       <use xlink:href="#DejaVuSans-30" x="318.115234"/>
      </g>
     </g>
    </g>
    <g id="ytick_5">
     <g id="line2d_15">
      <g>
       <use xlink:href="#mb6452cc120" x="52.375" y="104.435448" style="stroke: #000000; stroke-width: 0.8"/>
      </g>
     </g>
     <g id="text_15">
      <!-- 200000 -->
      <g transform="translate(7.2 108.234667)scale(0.1 -0.1)">
       <use xlink:href="#DejaVuSans-32"/>
       <use xlink:href="#DejaVuSans-30" x="63.623047"/>
       <use xlink:href="#DejaVuSans-30" x="127.246094"/>
       <use xlink:href="#DejaVuSans-30" x="190.869141"/>
       <use xlink:href="#DejaVuSans-30" x="254.492188"/>
       <use xlink:href="#DejaVuSans-30" x="318.115234"/>
      </g>
     </g>
    </g>
    <g id="ytick_6">
     <g id="line2d_16">
      <g>
       <use xlink:href="#mb6452cc120" x="52.375" y="42.58079" style="stroke: #000000; stroke-width: 0.8"/>
      </g>
     </g>
     <g id="text_16">
      <!-- 250000 -->
      <g transform="translate(7.2 46.380009)scale(0.1 -0.1)">
       <use xlink:href="#DejaVuSans-32"/>
       <use xlink:href="#DejaVuSans-35" x="63.623047"/>
       <use xlink:href="#DejaVuSans-30" x="127.246094"/>
       <use xlink:href="#DejaVuSans-30" x="190.869141"/>
       <use xlink:href="#DejaVuSans-30" x="254.492188"/>
       <use xlink:href="#DejaVuSans-30" x="318.115234"/>
      </g>
     </g>
    </g>
   </g>
   <g id="line2d_17">
    <path d="M 113.247727 351.85408 
L 173.796088 351.835524 
L 174.877309 351.554703 
L 179.202192 351.727896 
L 180.283413 350.472247 
L 181.364633 351.210792 
L 182.445854 351.318419 
L 185.689516 351.178627 
L 186.770737 350.941105 
L 190.014399 351.115535 
L 191.09562 351.324604 
L 192.176841 351.132855 
L 194.339282 351.387696 
L 196.501724 351.429757 
L 198.664165 351.427283 
L 199.745386 351.171205 
L 201.907827 351.36048 
L 204.070269 351.4879 
L 212.720035 351.547281 
L 214.882476 351.751401 
L 217.044918 351.657382 
L 218.126138 351.752638 
L 220.28858 351.710577 
L 222.451021 351.820678 
L 226.775904 351.778617 
L 230.019566 351.818204 
L 238.669332 351.820678 
L 248.400319 351.804596 
L 250.56276 351.714288 
L 251.643981 351.818204 
L 254.887643 351.704392 
L 259.212526 351.757587 
L 261.374968 351.63264 
L 268.943513 351.609136 
L 270.024734 351.482952 
L 272.187175 351.480478 
L 273.268396 351.470581 
L 274.349617 351.657382 
L 275.430837 351.640063 
L 277.593279 351.296151 
L 279.75572 351.21574 
L 282.999382 351.377799 
L 284.080603 350.9176 
L 285.161824 350.881725 
L 287.324265 350.436371 
L 289.486707 350.838426 
L 290.567927 350.826056 
L 292.730369 350.13452 
L 293.81159 350.212457 
L 294.89281 349.967513 
L 295.974031 350.111016 
L 297.055252 350.409155 
L 298.136473 350.322559 
L 299.217693 349.72628 
L 300.298914 349.869783 
L 301.380135 349.532056 
L 302.461356 349.455356 
L 303.542576 349.868545 
L 304.623797 350.062769 
L 305.705018 350.597193 
L 306.786238 349.519685 
L 308.94868 349.325462 
L 310.029901 349.392265 
L 311.111121 349.590199 
L 312.192342 350.478432 
L 313.273563 350.565029 
L 314.354784 349.320513 
L 315.436004 349.225257 
L 317.598446 349.643394 
L 318.679667 350.169159 
L 319.760887 351.080897 
L 320.842108 350.978218 
L 321.923329 349.627312 
L 325.166991 349.779475 
L 326.248212 349.671848 
L 327.329432 350.921312 
L 328.410653 350.711006 
L 329.491874 349.746073 
L 330.573095 349.598859 
L 331.654315 349.847515 
L 332.735536 349.821536 
L 333.816757 350.136995 
L 334.897978 350.9176 
L 335.979198 350.532864 
L 337.060419 349.812876 
L 339.22286 349.825247 
L 340.304081 350.014522 
L 341.385302 350.0071 
L 342.466523 350.974507 
L 343.547743 350.660285 
L 344.628964 349.503603 
L 347.872626 349.29206 
L 348.953847 349.587725 
L 350.035068 350.728325 
L 351.116289 350.49204 
L 352.197509 349.159691 
L 353.27873 349.068146 
L 354.359951 347.904042 
L 355.441171 348.562175 
L 356.522392 348.609185 
L 357.603613 349.992255 
L 358.684834 349.160928 
L 359.766054 347.662808 
L 360.847275 347.537862 
L 361.928496 346.910656 
L 363.009717 346.706535 
L 364.090937 346.936635 
L 365.172158 348.490424 
L 366.253379 347.926309 
L 367.3346 345.909847 
L 368.41582 345.001821 
L 369.497041 346.195616 
L 370.578262 345.192333 
L 371.659482 345.248002 
L 372.740703 347.141992 
L 373.821924 348.663617 
L 374.903145 347.071478 
L 375.984365 343.168449 
L 377.065586 343.039791 
L 378.146807 341.667855 
L 379.228028 341.474868 
L 381.390469 347.630644 
L 382.47169 350.420289 
L 384.634131 340.623748 
L 385.715352 342.290113 
L 386.796573 343.122676 
L 387.877793 348.646297 
L 388.959014 348.220737 
L 390.040235 344.77667 
L 391.121456 346.010052 
L 392.202676 346.701587 
L 393.283897 347.208795 
L 394.365118 348.188573 
L 395.446339 350.720903 
L 396.527559 349.817825 
L 397.60878 347.933732 
L 398.690001 348.96423 
L 399.771222 349.235154 
L 400.852442 349.859886 
L 401.933663 349.99844 
L 403.014884 351.345635 
L 405.177325 349.97741 
L 406.258546 350.378228 
L 407.339767 350.404207 
L 409.502208 350.803788 
L 410.583429 351.549755 
L 412.74587 350.76049 
L 413.827091 350.756778 
L 415.989533 351.057392 
L 417.070753 351.012857 
L 418.151974 351.572023 
L 419.233195 351.040073 
L 421.395636 350.807499 
L 422.476857 350.902755 
L 423.558078 351.148937 
L 424.639298 350.999249 
L 425.720519 351.591816 
L 426.80174 351.193472 
L 427.882961 350.96461 
L 428.964181 351.019042 
L 431.126623 350.81987 
L 432.207844 350.912652 
L 433.289064 351.492849 
L 435.451506 350.774098 
L 439.776389 350.89657 
L 440.857609 351.332027 
L 441.93883 350.907704 
L 443.020051 350.667708 
L 444.101272 350.793891 
L 445.182492 350.519256 
L 447.344934 350.5774 
L 448.426155 351.136566 
L 449.507375 350.586059 
L 450.588596 350.297817 
L 451.669817 350.372042 
L 452.751037 349.90071 
L 453.832258 350.07514 
L 454.913479 350.9943 
L 455.9947 349.720094 
L 457.07592 350.518019 
L 458.157141 349.514737 
L 459.238362 350.013285 
L 460.319583 349.397213 
L 461.400803 349.22402 
L 462.482024 350.775335 
L 463.563245 348.740316 
L 464.644466 350.13452 
L 465.725686 348.971653 
L 466.806907 350.463587 
L 467.888128 346.396025 
L 468.969348 348.225686 
L 470.050569 349.160928 
L 471.13179 348.471867 
L 472.213011 349.535767 
L 473.294231 347.525491 
L 474.375452 346.62365 
L 475.456673 348.718049 
L 476.537894 346.094174 
L 477.619114 346.02366 
L 478.700335 346.567981 
L 479.781556 348.382797 
L 480.862777 344.660383 
L 481.943997 345.528823 
L 483.025218 346.675608 
L 484.106439 343.592772 
L 485.187659 345.361815 
L 486.26888 344.074001 
L 487.350101 343.512361 
L 488.431322 343.650915 
L 489.512542 341.999396 
L 490.593763 342.812166 
L 491.674984 342.452172 
L 492.756205 344.049259 
L 493.837425 341.862079 
L 494.918646 344.573787 
L 495.999867 339.787473 
L 497.081088 340.732612 
L 498.162308 339.48686 
L 499.243529 339.787473 
L 500.32475 345.377897 
L 501.40597 341.400643 
L 502.487191 341.722287 
L 503.568412 343.738749 
L 504.649633 342.724332 
L 505.730853 339.219648 
L 506.812074 343.161026 
L 507.893295 344.234823 
L 508.974516 345.751499 
L 510.055736 347.596005 
L 511.136957 347.318896 
L 512.218178 341.231161 
L 513.299399 337.09061 
L 514.380619 342.817114 
L 515.46184 345.549853 
L 516.543061 345.918507 
L 517.624281 346.106545 
L 518.705502 340.954052 
L 519.786723 342.288876 
L 520.867944 340.848899 
L 521.949164 343.511124 
L 523.030385 345.374186 
L 524.111606 346.006341 
L 525.192827 343.790707 
L 526.274047 346.377469 
L 527.355268 342.958143 
L 528.436489 344.41915 
L 529.51771 345.565935 
L 530.59893 346.987355 
L 531.680151 348.019091 
L 532.761372 348.719286 
L 533.842592 344.539148 
L 534.923813 346.556847 
L 536.005034 346.838904 
L 538.167475 348.663617 
L 539.248696 351.85408 
L 540.329917 345.012955 
L 541.411138 345.724283 
L 543.573579 346.678082 
L 544.6548 346.94282 
L 545.736021 348.075997 
L 546.817241 348.693307 
L 547.898462 348.795986 
L 548.979683 346.718906 
L 550.060903 345.34697 
L 551.142124 346.575403 
L 552.223345 347.002201 
L 553.304566 348.071049 
L 554.385786 347.818682 
L 555.467007 349.567932 
L 556.548228 347.473533 
L 557.629449 347.962185 
L 558.710669 347.858269 
L 559.79189 348.442177 
L 560.873111 349.444222 
L 563.035552 350.396784 
L 564.116773 349.459068 
L 565.197994 349.639683 
L 566.279214 350.029368 
L 567.360435 350.141943 
L 568.441656 350.558843 
L 569.522877 351.098216 
L 570.604097 351.171205 
L 571.685318 350.626884 
L 572.766539 350.709769 
L 573.84776 351.434705 
L 574.92898 350.843375 
L 576.010201 351.188524 
L 577.091422 351.85408 
L 578.172642 351.184813 
L 579.253863 351.605424 
L 580.335084 351.218214 
L 582.497525 351.41986 
L 583.578746 351.54357 
L 584.659967 351.405015 
L 585.741188 351.635114 
L 586.822408 351.413675 
L 593.309733 351.705629 
L 594.390953 351.575734 
L 595.472174 351.636352 
L 597.634616 351.468107 
L 598.715836 351.812019 
L 599.797057 351.919646 
L 600.878278 351.651197 
L 604.12194 351.687072 
L 605.203161 351.464396 
L 606.284382 351.748927 
L 657.101756 351.85408 
L 659.264197 351.825627 
L 664.670301 351.830575 
L 672.238846 351.673464 
L 673.320067 351.583157 
L 676.563729 351.773669 
L 677.64495 351.473055 
L 683.051054 351.511405 
L 684.132274 351.456973 
L 685.213495 351.240482 
L 686.294716 351.325841 
L 688.457157 351.098216 
L 689.538378 351.371614 
L 690.619599 351.319656 
L 692.78204 351.615321 
L 693.863261 350.276786 
L 694.944482 350.963373 
L 696.025702 350.676367 
L 697.106923 350.827293 
L 698.188144 350.785231 
L 699.269365 350.920075 
L 700.350585 350.344826 
L 701.431806 350.009574 
L 702.513027 350.47101 
L 703.594248 350.080088 
L 704.675468 350.628121 
L 705.756689 350.096171 
L 706.83791 350.302765 
L 707.91913 349.299483 
L 710.081572 348.974127 
L 711.162793 349.598859 
L 713.325234 348.544856 
L 714.406455 349.648343 
L 715.487676 347.092508 
L 716.568896 347.959711 
L 717.650117 348.182387 
L 718.731338 346.367572 
L 719.812559 348.261561 
L 720.893779 346.63231 
L 721.975 347.949814 
L 723.056221 344.526777 
L 724.137441 346.702824 
L 725.218662 342.36805 
L 726.299883 343.782047 
L 727.381104 346.272316 
L 728.462324 344.899142 
L 729.543545 346.331696 
L 730.624766 341.093844 
L 731.705987 341.645587 
L 732.787207 344.576261 
L 733.868428 341.446415 
L 734.949649 342.444749 
L 736.03087 342.851753 
L 737.11209 345.625316 
L 739.274532 336.869171 
L 740.355752 343.686791 
L 741.436973 338.931405 
L 742.518194 343.996064 
L 743.599415 338.02709 
L 744.680635 344.667806 
L 745.761856 339.632837 
L 746.843077 345.836859 
L 747.924298 331.282458 
L 749.005518 334.658485 
L 750.086739 341.845996 
L 751.16796 341.965994 
L 752.249181 346.123864 
L 753.330401 351.85408 
L 754.411622 351.85408 
L 755.492843 324.278036 
L 756.574063 344.375852 
L 757.655284 341.519404 
L 758.736505 337.756166 
L 759.817726 343.725141 
L 760.898946 337.256381 
L 761.980167 338.58007 
L 763.061388 342.663715 
L 764.142609 344.195236 
L 765.223829 348.093317 
L 766.30505 340.777148 
L 767.386271 342.288876 
L 768.467492 343.274839 
L 769.548712 342.949483 
L 770.629933 345.209653 
L 771.711154 343.543288 
L 772.792374 349.071857 
L 773.873595 344.004724 
L 774.954816 347.819919 
L 776.036037 346.876017 
L 777.117257 346.701587 
L 778.198478 348.297437 
L 779.279699 345.732943 
L 780.36092 347.707344 
L 781.44214 348.876397 
L 782.523361 349.191855 
L 783.604582 347.686313 
L 785.767023 349.075569 
L 786.848244 348.911035 
L 787.929465 349.616178 
L 790.091906 350.177819 
L 791.173127 349.183196 
L 793.335568 349.927926 
L 794.416789 349.858649 
L 795.49801 350.239673 
L 796.579231 350.488329 
L 797.660451 350.616987 
L 798.741672 350.071429 
L 799.822893 350.316373 
L 800.904114 350.739459 
L 801.985334 350.542761 
L 803.066555 350.701109 
L 804.147776 351.234296 
L 805.228996 351.007908 
L 806.310217 350.665233 
L 807.391438 350.793891 
L 808.472659 351.113061 
L 809.553879 351.019042 
L 812.797542 351.443365 
L 813.878762 350.913889 
L 814.959983 347.673942 
L 816.041204 351.049969 
L 819.284866 351.430994 
L 820.366087 351.379036 
L 821.447307 350.892859 
L 822.528528 351.336975 
L 824.69097 351.210792 
L 826.853411 351.489137 
L 827.934632 351.473055 
L 829.015853 351.122958 
L 830.097073 351.294914 
L 831.178294 351.136566 
L 832.259515 351.303574 
L 833.340736 351.278832 
L 834.421956 351.407489 
L 835.503177 351.41986 
L 836.584398 350.986878 
L 837.665618 353.2755 
L 838.746839 351.242956 
L 839.82806 351.103164 
L 841.990501 351.433468 
L 843.071722 351.447076 
L 844.152943 350.906467 
L 845.234164 351.007908 
L 846.315384 351.306048 
L 847.396605 351.155122 
L 848.477826 351.340686 
L 849.559047 351.409964 
L 850.640267 351.268935 
L 851.721488 350.920075 
L 852.802709 350.859457 
L 853.883929 350.920075 
L 854.96515 351.1477 
L 856.046371 351.13038 
L 857.127592 351.413675 
L 858.208812 351.267698 
L 859.290033 350.864405 
L 860.371254 350.912652 
L 861.452475 351.078423 
L 862.533695 350.767912 
L 863.614916 350.963373 
L 864.696137 350.993063 
L 865.777358 350.871828 
L 866.858578 350.176582 
L 867.939799 350.468536 
L 869.02102 350.369568 
L 870.10224 349.695352 
L 871.183461 350.182767 
L 872.264682 350.054109 
L 873.345903 350.318847 
L 874.427123 348.085894 
L 875.508344 348.148986 
L 876.589565 347.591057 
L 877.670786 344.926358 
L 878.752006 347.046736 
L 879.833227 344.281833 
L 880.914448 345.594389 
L 881.995668 339.726856 
L 883.076889 343.340405 
L 884.15811 330.536491 
L 885.239331 327.832205 
L 886.320551 333.613141 
L 887.401772 324.145667 
L 888.482993 330.216084 
L 889.564214 284.413946 
L 890.645434 312.883171 
L 891.726655 252.239628 
L 892.807876 319.834398 
L 893.889097 322.810844 
L 894.970317 284.25065 
L 896.051538 328.966619 
L 897.132759 351.85408 
L 898.213979 351.85408 
L 899.2952 50.8755 
L 900.376421 267.097116 
L 901.457642 272.592284 
L 902.538862 296.704467 
L 903.620083 351.85408 
L 904.701304 89.300851 
L 905.782525 252.091176 
L 906.863745 235.588354 
L 907.944966 277.293238 
L 909.026187 295.719741 
L 910.107408 285.14012 
L 911.188628 263.859644 
L 912.269849 264.744165 
L 913.35107 270.360568 
L 914.43229 264.402728 
L 915.513511 279.265165 
L 916.594732 332.693981 
L 917.675953 312.872037 
L 918.757173 285.385065 
L 919.838394 288.913254 
L 920.919615 303.788062 
L 922.000836 314.796954 
L 923.082056 312.982139 
L 924.163277 318.394421 
L 925.244498 327.036754 
L 926.325719 313.086055 
L 927.406939 320.394801 
L 928.48816 323.903197 
L 929.569381 329.786812 
L 930.650601 327.223555 
L 931.731822 337.517407 
L 932.813043 337.506274 
L 933.894264 329.83011 
L 936.056705 339.350779 
L 937.137926 336.501754 
L 938.219147 336.302582 
L 939.300367 344.917699 
L 940.381588 342.303721 
L 941.462809 338.847282 
L 942.54403 341.010958 
L 943.62525 341.719813 
L 944.706471 341.302912 
L 945.787692 348.91351 
L 946.868912 341.384561 
L 947.950133 343.135047 
L 949.031354 346.916841 
L 950.112575 342.540006 
L 951.193795 342.620417 
L 952.275016 348.293726 
L 953.356237 335.604861 
L 954.437458 347.69621 
L 955.518678 345.161406 
L 956.599899 343.74246 
L 957.68112 344.468634 
L 958.762341 342.981648 
L 959.843561 345.958094 
L 960.924782 341.888057 
L 962.006003 344.875637 
L 963.087223 342.073621 
L 964.168444 334.778483 
L 965.249665 335.703829 
L 966.330886 332.282029 
L 967.412106 335.770632 
L 968.493327 347.61085 
L 969.574548 330.037942 
L 970.655769 336.611855 
L 971.736989 331.894819 
L 972.81821 337.049786 
L 973.899431 329.562898 
L 974.980652 339.280265 
L 976.061872 334.625084 
L 977.143093 341.231161 
L 978.224314 341.608474 
L 979.305534 338.006059 
L 980.386755 337.993688 
L 981.467976 339.185009 
L 982.549197 343.143707 
L 983.630417 342.266608 
L 984.711638 345.293775 
L 985.792859 344.817494 
L 986.87408 346.483859 
L 987.9553 340.731375 
L 990.117742 347.253331 
L 991.198963 344.712341 
L 992.280183 347.82363 
L 993.361404 347.990638 
L 994.442625 348.528774 
L 995.523845 345.76387 
L 996.605066 346.584063 
L 997.686287 346.843853 
L 998.767508 348.515166 
L 999.848728 351.85408 
L 1000.929949 343.628648 
L 1002.01117 347.61085 
L 1003.092391 346.279738 
L 1004.173611 347.22364 
L 1005.254832 349.793083 
L 1006.336053 347.148178 
L 1007.417274 348.602999 
L 1008.498494 349.38979 
L 1009.579715 349.686693 
L 1010.660936 348.607948 
L 1011.742156 348.793511 
L 1012.823377 348.814542 
L 1013.904598 350.310188 
L 1014.985819 350.346063 
L 1016.067039 348.767533 
L 1017.14826 349.783186 
L 1018.229481 347.675179 
L 1019.310702 348.870211 
L 1020.391922 349.064435 
L 1021.473143 349.464016 
L 1022.554364 349.065672 
L 1023.635585 350.514308 
L 1024.716805 348.103214 
L 1025.798026 349.133712 
L 1026.879247 349.084228 
L 1027.960467 349.221546 
L 1029.041688 349.241339 
L 1031.20413 349.826484 
L 1032.28535 349.753496 
L 1033.366571 348.480527 
L 1034.447792 349.405873 
L 1035.529013 350.647914 
L 1036.610233 348.293726 
L 1037.691454 351.85408 
L 1038.772675 348.353106 
L 1039.853896 350.353486 
L 1040.935116 348.911035 
L 1042.016337 350.342352 
L 1043.097558 345.422433 
L 1045.259999 351.85408 
L 1046.34122 351.85408 
L 1047.422441 344.676465 
L 1048.503661 348.66238 
L 1049.584882 345.630264 
L 1050.666103 345.81088 
L 1051.747324 345.846756 
L 1052.828544 344.043074 
L 1053.909765 346.737463 
L 1054.990986 347.280547 
L 1056.072207 343.970085 
L 1057.153427 341.531775 
L 1058.234648 342.919793 
L 1059.315869 346.722618 
L 1060.397089 338.295539 
L 1061.47831 344.77667 
L 1062.559531 342.558562 
L 1063.640752 338.624606 
L 1064.721972 338.655533 
L 1065.803193 338.55904 
L 1066.884414 339.585827 
L 1067.965635 339.066248 
L 1069.046855 343.256283 
L 1070.128076 341.305387 
L 1071.209297 333.786334 
L 1072.290518 336.357014 
L 1073.371738 339.52521 
L 1074.452959 334.12035 
L 1075.53418 342.345782 
L 1076.6154 342.353205 
L 1077.696621 340.498802 
L 1078.777842 334.909615 
L 1079.859063 335.847332 
L 1080.940283 338.432856 
L 1082.021504 339.161504 
L 1083.102725 338.65677 
L 1084.183946 344.077712 
L 1085.265166 342.736703 
L 1086.346387 336.207326 
L 1087.427608 339.705825 
L 1088.508829 339.519024 
L 1089.590049 342.822063 
L 1090.67127 341.165595 
L 1091.752491 351.85408 
L 1092.833711 338.951198 
L 1093.914932 339.421294 
L 1094.996153 343.274839 
L 1096.077374 344.135856 
L 1097.158594 344.163072 
L 1098.239815 344.447603 
L 1099.321036 347.500749 
L 1100.402257 347.236011 
L 1101.483477 343.643493 
L 1102.564698 344.443892 
L 1103.645919 346.757256 
L 1104.72714 346.864883 
L 1105.80836 346.566744 
L 1106.889581 349.005054 
L 1107.970802 347.447554 
L 1109.052022 347.490852 
L 1110.133243 347.274361 
L 1111.214464 347.791466 
L 1113.376905 348.366714 
L 1114.458126 351.85408 
L 1115.539347 348.727946 
L 1116.620568 348.975364 
L 1117.701788 347.631881 
L 1118.783009 349.25371 
L 1119.86423 349.603808 
L 1120.945451 349.632261 
L 1122.026671 350.813685 
L 1123.107892 350.478432 
L 1124.189113 349.419481 
L 1125.270333 349.931637 
L 1126.351554 349.842566 
L 1127.432775 350.524205 
L 1128.513996 350.094933 
L 1129.595216 351.096979 
L 1130.676437 351.38151 
L 1131.757658 349.675559 
L 1132.838879 350.301528 
L 1133.920099 350.555132 
L 1136.082541 350.656574 
L 1137.163762 351.85408 
L 1138.244982 350.652863 
L 1139.326203 349.934111 
L 1140.407424 351.202132 
L 1141.488644 350.224828 
L 1142.569865 350.833478 
L 1143.651086 350.740696 
L 1144.732307 351.85408 
L 1145.813527 350.431423 
L 1146.894748 350.442557 
L 1149.05719 350.72214 
L 1150.13841 350.766675 
L 1151.219631 351.85408 
L 1152.300852 349.846278 
L 1153.382073 351.004197 
L 1154.463293 350.040501 
L 1155.544514 350.396784 
L 1158.788176 350.412866 
L 1159.869397 351.054918 
L 1160.950618 350.657811 
L 1162.031838 350.020708 
L 1163.113059 350.123387 
L 1164.19428 350.431423 
L 1165.275501 350.569977 
L 1166.356721 351.85408 
L 1167.437942 351.85408 
L 1168.519163 348.883819 
L 1169.600383 351.85408 
L 1170.681604 350.150603 
L 1171.762825 351.212029 
L 1172.844046 350.078851 
L 1173.925266 350.019471 
L 1175.006487 351.85408 
L 1177.168929 349.675559 
L 1178.250149 350.933683 
L 1179.33137 351.674701 
L 1181.493812 351.02399 
L 1182.575032 351.85408 
L 1183.656253 350.166685 
L 1184.737474 351.85408 
L 1185.818694 350.495752 
L 1187.981136 350.95595 
L 1189.062357 350.970795 
L 1191.224798 351.569549 
L 1192.306019 351.012857 
L 1193.38724 351.045021 
L 1194.46846 350.652863 
L 1195.549681 351.375325 
L 1196.630902 350.519256 
L 1197.712123 351.161308 
L 1198.793343 350.780283 
L 1200.955785 350.840901 
L 1203.118226 350.824818 
L 1204.199447 351.197183 
L 1205.280668 350.82853 
L 1206.361888 351.072237 
L 1207.443109 350.31761 
L 1208.52433 350.638017 
L 1209.605551 351.07966 
L 1210.686771 350.527916 
L 1211.767992 351.85408 
L 1212.849213 349.961327 
L 1213.930434 351.247904 
L 1215.011654 351.85408 
L 1216.092875 348.140326 
L 1217.174096 350.626884 
L 1218.255316 351.21574 
L 1219.336537 350.401733 
L 1220.417758 350.595956 
L 1221.498979 351.85408 
L 1222.580199 349.576591 
L 1223.66142 349.966276 
L 1224.742641 350.035553 
L 1225.823862 350.312662 
L 1226.905082 349.289586 
L 1227.986303 350.908941 
L 1229.067524 350.610801 
L 1230.148745 349.556798 
L 1231.229965 349.180722 
L 1232.311186 351.85408 
L 1233.392407 349.306905 
L 1234.473627 349.391027 
L 1235.554848 350.318847 
L 1236.636069 350.376991 
L 1237.71729 349.277215 
L 1238.79851 351.85408 
L 1239.879731 346.848801 
L 1240.960952 350.384413 
L 1242.042173 350.738222 
L 1243.123393 350.002152 
L 1244.204614 350.226065 
L 1245.285835 349.018662 
L 1246.367056 350.755541 
L 1247.448276 348.193521 
L 1248.529497 350.196375 
L 1249.610718 350.242148 
L 1250.691938 351.304811 
L 1251.773159 349.61123 
L 1252.85438 350.548947 
L 1253.935601 349.596385 
L 1255.016821 349.748547 
L 1256.098042 349.089177 
L 1258.260484 350.968321 
L 1259.341704 351.13904 
L 1260.422925 349.04959 
L 1261.504146 350.148128 
L 1262.585367 350.853272 
L 1263.666587 349.628549 
L 1264.747808 350.910178 
L 1265.829029 350.485855 
L 1266.910249 350.826056 
L 1267.99147 349.856175 
L 1269.072691 350.023182 
L 1270.153912 351.263987 
L 1271.235132 349.600096 
L 1272.316353 351.32213 
L 1273.397574 350.733274 
L 1274.478795 350.918838 
L 1275.560015 350.154314 
L 1276.641236 350.641729 
L 1277.722457 350.357197 
L 1278.803678 350.923786 
L 1279.884898 350.70482 
L 1280.966119 351.163782 
L 1282.04734 351.383985 
L 1283.12856 349.762155 
L 1284.209781 351.309759 
L 1285.291002 350.456165 
L 1286.372223 351.010382 
L 1287.453443 350.991826 
L 1289.615885 351.558415 
L 1290.697106 350.341115 
L 1291.778326 351.85408 
L 1292.859547 349.888339 
L 1293.940768 350.809973 
L 1295.021989 351.44955 
L 1297.18443 351.192235 
L 1298.265651 351.338212 
L 1299.346871 350.396784 
L 1300.428092 350.946054 
L 1301.509313 351.231822 
L 1302.590534 351.193472 
L 1303.671754 351.546044 
L 1304.752975 351.67965 
L 1305.834196 351.104402 
L 1306.915417 350.775335 
L 1307.996637 351.273883 
L 1309.077858 350.941105 
L 1310.159079 351.558415 
L 1311.2403 351.301099 
L 1312.32152 351.450788 
L 1313.402741 351.096979 
L 1315.565182 351.386459 
L 1315.565182 351.386459 
" clip-path="url(#p9e8eea860e)" style="fill: none; stroke: #0000ff; stroke-width: 1.5; stroke-linecap: square"/>
   </g>
   <g id="line2d_18">
    <path d="M 1075.53418 338.190598 
L 1076.6154 337.863147 
L 1077.696621 337.36354 
L 1078.777842 337.435588 
L 1079.859063 335.729293 
L 1080.940283 340.336296 
L 1082.021504 338.508597 
L 1083.102725 339.935959 
L 1084.183946 338.42484 
L 1085.265166 338.538534 
L 1086.346387 337.236956 
L 1087.427608 338.926371 
L 1088.508829 339.342179 
L 1089.590049 340.914059 
L 1090.67127 341.590425 
L 1091.752491 340.766769 
L 1092.833711 342.708979 
L 1093.914932 339.17372 
L 1094.996153 343.190457 
L 1096.077374 342.019476 
L 1097.158594 346.7679 
L 1098.239815 341.393967 
L 1099.321036 345.35583 
L 1100.402257 343.214417 
L 1102.564698 344.636895 
L 1103.645919 345.596083 
L 1104.72714 345.794821 
L 1105.80836 347.14395 
L 1106.889581 347.421252 
L 1107.970802 346.458495 
L 1109.052022 346.282329 
L 1110.133243 347.101728 
L 1111.214464 347.582563 
L 1112.295685 348.196401 
L 1113.376905 347.820641 
L 1114.458126 349.206365 
L 1116.620568 348.183043 
L 1117.701788 348.720742 
L 1118.783009 348.96786 
L 1119.86423 350.340716 
L 1120.945451 349.222251 
L 1122.026671 350.430054 
L 1123.107892 348.941569 
L 1124.189113 349.624369 
L 1125.270333 349.4156 
L 1126.351554 350.106115 
L 1127.432775 350.102919 
L 1128.513996 350.523967 
L 1129.595216 350.519838 
L 1130.676437 350.67044 
L 1131.757658 350.202444 
L 1132.838879 350.416638 
L 1133.920099 350.470059 
L 1135.00132 350.753082 
L 1136.082541 350.898289 
L 1137.163762 350.689376 
L 1138.244982 350.957123 
L 1139.326203 350.459993 
L 1142.569865 351.113895 
L 1143.651086 350.721656 
L 1145.813527 351.103211 
L 1146.894748 350.301941 
L 1147.975969 350.997346 
L 1149.05719 350.641001 
L 1150.13841 351.155928 
L 1151.219631 350.61883 
L 1152.300852 351.19853 
L 1153.382073 350.458426 
L 1154.463293 350.849404 
L 1155.544514 350.622734 
L 1156.625735 351.180871 
L 1157.706955 350.129655 
L 1158.788176 350.974143 
L 1159.869397 350.148349 
L 1160.950618 350.528831 
L 1162.031838 350.196523 
L 1163.113059 350.375034 
L 1164.19428 350.251629 
L 1165.275501 350.714104 
L 1166.356721 350.533543 
L 1168.519163 350.485287 
L 1169.600383 350.321779 
L 1170.681604 350.869107 
L 1171.762825 351.030557 
L 1172.844046 351.403525 
L 1173.925266 350.229806 
L 1175.006487 351.538489 
L 1176.087708 350.163831 
L 1177.168929 351.118105 
L 1178.250149 350.177361 
L 1181.493812 350.903131 
L 1182.575032 350.681152 
L 1183.656253 350.985125 
L 1184.737474 351.045613 
L 1185.818694 351.51193 
L 1186.899915 351.322692 
L 1187.981136 351.433967 
L 1189.062357 350.742304 
L 1190.143577 351.746072 
L 1191.224798 350.568109 
L 1192.306019 351.01012 
L 1193.38724 350.762582 
L 1194.46846 351.106817 
L 1195.549681 351.033496 
L 1196.630902 351.468019 
L 1197.712123 351.06926 
L 1198.793343 351.22929 
L 1199.874564 350.826125 
L 1200.955785 351.089912 
L 1202.037005 350.6296 
L 1203.118226 351.004272 
L 1204.199447 350.624547 
L 1205.280668 350.945343 
L 1206.361888 350.791663 
L 1207.443109 350.934605 
L 1208.52433 350.733966 
L 1209.605551 351.029635 
L 1210.686771 350.799569 
L 1211.767992 350.913538 
L 1212.849213 350.700919 
L 1213.930434 350.644442 
L 1215.011654 350.931923 
L 1216.092875 350.706488 
L 1217.174096 351.072184 
L 1218.255316 350.533005 
L 1219.336537 351.004925 
L 1220.417758 350.847724 
L 1221.498979 349.735746 
L 1222.580199 350.729977 
L 1223.66142 350.043772 
L 1224.742641 350.549305 
L 1225.823862 350.648598 
L 1226.905082 350.98663 
L 1227.986303 349.751831 
L 1229.067524 350.774891 
L 1230.148745 349.777351 
L 1231.229965 349.831903 
L 1232.311186 349.567797 
L 1233.392407 350.552012 
L 1234.473627 349.701704 
L 1235.554848 350.211183 
L 1236.636069 349.91831 
L 1237.71729 350.590159 
L 1238.79851 349.382244 
L 1239.879731 350.440481 
L 1240.960952 349.39143 
L 1242.042173 350.118176 
L 1243.123393 349.602825 
L 1244.204614 350.890975 
L 1245.285835 348.265614 
L 1246.367056 350.417543 
L 1247.448276 349.734127 
L 1248.529497 349.890521 
L 1249.610718 350.173235 
L 1250.691938 349.522728 
L 1251.773159 350.206359 
L 1252.85438 349.150626 
L 1253.935601 350.531045 
L 1255.016821 349.395995 
L 1256.098042 350.84871 
L 1257.179263 349.869253 
L 1258.260484 350.74912 
L 1259.341704 349.581187 
L 1260.422925 350.242379 
L 1261.504146 349.450679 
L 1262.585367 349.901884 
L 1263.666587 350.123442 
L 1264.747808 350.622696 
L 1265.829029 350.183641 
L 1266.910249 350.43033 
L 1267.99147 350.47894 
L 1269.072691 350.193262 
L 1270.153912 350.767887 
L 1271.235132 350.196769 
L 1272.316353 350.554083 
L 1273.397574 350.564493 
L 1274.478795 350.43163 
L 1275.560015 350.673549 
L 1276.641236 350.204686 
L 1277.722457 351.148193 
L 1278.803678 350.35318 
L 1279.884898 351.033956 
L 1280.966119 350.538506 
L 1282.04734 350.917359 
L 1283.12856 350.348024 
L 1284.209781 350.892692 
L 1285.291002 350.793663 
L 1286.372223 350.868205 
L 1287.453443 351.153381 
L 1288.534664 350.586937 
L 1289.615885 351.259892 
L 1290.697106 350.505071 
L 1291.778326 351.102249 
L 1293.940768 351.026191 
L 1295.021989 351.313895 
L 1296.103209 350.970989 
L 1297.18443 351.478285 
L 1298.265651 350.391623 
L 1299.346871 351.216105 
L 1300.428092 350.824083 
L 1301.509313 351.220399 
L 1302.590534 351.128184 
L 1303.671754 351.381111 
L 1304.752975 350.819813 
L 1305.834196 351.220498 
L 1307.996637 351.115006 
L 1309.077858 351.401961 
L 1311.2403 351.354406 
L 1312.32152 351.201963 
L 1313.402741 351.298946 
L 1314.483962 350.969028 
L 1315.565182 351.391718 
L 1315.565182 351.391718 
" clip-path="url(#p9e8eea860e)" style="fill: none; stroke: #ffa500; stroke-width: 1.5; stroke-linecap: square"/>
   </g>
   <g id="line2d_19">
    <path d="M 1316.646403 351.179826 
L 1317.727624 351.397957 
L 1318.808845 351.282646 
L 1319.890065 351.435106 
L 1320.971286 351.322081 
L 1322.052507 351.272611 
L 1323.133728 351.344593 
L 1324.214948 351.258494 
L 1325.296169 351.388824 
L 1326.37739 351.362288 
L 1327.458611 351.378471 
L 1328.539831 351.323871 
L 1329.621052 351.311664 
L 1330.702273 351.356847 
" clip-path="url(#p9e8eea860e)" style="fill: none; stroke: #ff0000; stroke-width: 1.5; stroke-linecap: square"/>
   </g>
   <g id="patch_3">
    <path d="M 52.375 368.3955 
L 52.375 35.7555 
" style="fill: none; stroke: #000000; stroke-width: 0.8; stroke-linejoin: miter; stroke-linecap: square"/>
   </g>
   <g id="patch_4">
    <path d="M 1391.575 368.3955 
L 1391.575 35.7555 
" style="fill: none; stroke: #000000; stroke-width: 0.8; stroke-linejoin: miter; stroke-linecap: square"/>
   </g>
   <g id="patch_5">
    <path d="M 52.375 368.3955 
L 1391.575 368.3955 
" style="fill: none; stroke: #000000; stroke-width: 0.8; stroke-linejoin: miter; stroke-linecap: square"/>
   </g>
   <g id="patch_6">
    <path d="M 52.375 35.7555 
L 1391.575 35.7555 
" style="fill: none; stroke: #000000; stroke-width: 0.8; stroke-linejoin: miter; stroke-linecap: square"/>
   </g>
   <g id="text_17">
    <!-- Daily Confirmed Cases Forecasting - Israel -->
    <g transform="translate(595.076875 16.318125)scale(0.12 -0.12)">
     <defs>
      <path id="DejaVuSans-44" d="M 1259 4147 
L 1259 519 
L 2022 519 
Q 2988 519 3436 956 
Q 3884 1394 3884 2338 
Q 3884 3275 3436 3711 
Q 2988 4147 2022 4147 
L 1259 4147 
z
M 628 4666 
L 1925 4666 
Q 3281 4666 3915 4102 
Q 4550 3538 4550 2338 
Q 4550 1131 3912 565 
Q 3275 0 1925 0 
L 628 0 
L 628 4666 
z
" transform="scale(0.015625)"/>
      <path id="DejaVuSans-61" d="M 2194 1759 
Q 1497 1759 1228 1600 
Q 959 1441 959 1056 
Q 959 750 1161 570 
Q 1363 391 1709 391 
Q 2188 391 2477 730 
Q 2766 1069 2766 1631 
L 2766 1759 
L 2194 1759 
z
M 3341 1997 
L 3341 0 
L 2766 0 
L 2766 531 
Q 2569 213 2275 61 
Q 1981 -91 1556 -91 
Q 1019 -91 701 211 
Q 384 513 384 1019 
Q 384 1609 779 1909 
Q 1175 2209 1959 2209 
L 2766 2209 
L 2766 2266 
Q 2766 2663 2505 2880 
Q 2244 3097 1772 3097 
Q 1472 3097 1187 3025 
Q 903 2953 641 2809 
L 641 3341 
Q 956 3463 1253 3523 
Q 1550 3584 1831 3584 
Q 2591 3584 2966 3190 
Q 3341 2797 3341 1997 
z
" transform="scale(0.015625)"/>
      <path id="DejaVuSans-69" d="M 603 3500 
L 1178 3500 
L 1178 0 
L 603 0 
L 603 3500 
z
M 603 4863 
L 1178 4863 
L 1178 4134 
L 603 4134 
L 603 4863 
z
" transform="scale(0.015625)"/>
      <path id="DejaVuSans-6c" d="M 603 4863 
L 1178 4863 
L 1178 0 
L 603 0 
L 603 4863 
z
" transform="scale(0.015625)"/>
      <path id="DejaVuSans-79" d="M 2059 -325 
Q 1816 -950 1584 -1140 
Q 1353 -1331 966 -1331 
L 506 -1331 
L 506 -850 
L 844 -850 
Q 1081 -850 1212 -737 
Q 1344 -625 1503 -206 
L 1606 56 
L 191 3500 
L 800 3500 
L 1894 763 
L 2988 3500 
L 3597 3500 
L 2059 -325 
z
" transform="scale(0.015625)"/>
      <path id="DejaVuSans-20" transform="scale(0.015625)"/>
      <path id="DejaVuSans-43" d="M 4122 4306 
L 4122 3641 
Q 3803 3938 3442 4084 
Q 3081 4231 2675 4231 
Q 1875 4231 1450 3742 
Q 1025 3253 1025 2328 
Q 1025 1406 1450 917 
Q 1875 428 2675 428 
Q 3081 428 3442 575 
Q 3803 722 4122 1019 
L 4122 359 
Q 3791 134 3420 21 
Q 3050 -91 2638 -91 
Q 1578 -91 968 557 
Q 359 1206 359 2328 
Q 359 3453 968 4101 
Q 1578 4750 2638 4750 
Q 3056 4750 3426 4639 
Q 3797 4528 4122 4306 
z
" transform="scale(0.015625)"/>
      <path id="DejaVuSans-6f" d="M 1959 3097 
Q 1497 3097 1228 2736 
Q 959 2375 959 1747 
Q 959 1119 1226 758 
Q 1494 397 1959 397 
Q 2419 397 2687 759 
Q 2956 1122 2956 1747 
Q 2956 2369 2687 2733 
Q 2419 3097 1959 3097 
z
M 1959 3584 
Q 2709 3584 3137 3096 
Q 3566 2609 3566 1747 
Q 3566 888 3137 398 
Q 2709 -91 1959 -91 
Q 1206 -91 779 398 
Q 353 888 353 1747 
Q 353 2609 779 3096 
Q 1206 3584 1959 3584 
z
" transform="scale(0.015625)"/>
      <path id="DejaVuSans-6e" d="M 3513 2113 
L 3513 0 
L 2938 0 
L 2938 2094 
Q 2938 2591 2744 2837 
Q 2550 3084 2163 3084 
Q 1697 3084 1428 2787 
Q 1159 2491 1159 1978 
L 1159 0 
L 581 0 
L 581 3500 
L 1159 3500 
L 1159 2956 
Q 1366 3272 1645 3428 
Q 1925 3584 2291 3584 
Q 2894 3584 3203 3211 
Q 3513 2838 3513 2113 
z
" transform="scale(0.015625)"/>
      <path id="DejaVuSans-66" d="M 2375 4863 
L 2375 4384 
L 1825 4384 
Q 1516 4384 1395 4259 
Q 1275 4134 1275 3809 
L 1275 3500 
L 2222 3500 
L 2222 3053 
L 1275 3053 
L 1275 0 
L 697 0 
L 697 3053 
L 147 3053 
L 147 3500 
L 697 3500 
L 697 3744 
Q 697 4328 969 4595 
Q 1241 4863 1831 4863 
L 2375 4863 
z
" transform="scale(0.015625)"/>
      <path id="DejaVuSans-72" d="M 2631 2963 
Q 2534 3019 2420 3045 
Q 2306 3072 2169 3072 
Q 1681 3072 1420 2755 
Q 1159 2438 1159 1844 
L 1159 0 
L 581 0 
L 581 3500 
L 1159 3500 
L 1159 2956 
Q 1341 3275 1631 3429 
Q 1922 3584 2338 3584 
Q 2397 3584 2469 3576 
Q 2541 3569 2628 3553 
L 2631 2963 
z
" transform="scale(0.015625)"/>
      <path id="DejaVuSans-6d" d="M 3328 2828 
Q 3544 3216 3844 3400 
Q 4144 3584 4550 3584 
Q 5097 3584 5394 3201 
Q 5691 2819 5691 2113 
L 5691 0 
L 5113 0 
L 5113 2094 
Q 5113 2597 4934 2840 
Q 4756 3084 4391 3084 
Q 3944 3084 3684 2787 
Q 3425 2491 3425 1978 
L 3425 0 
L 2847 0 
L 2847 2094 
Q 2847 2600 2669 2842 
Q 2491 3084 2119 3084 
Q 1678 3084 1418 2786 
Q 1159 2488 1159 1978 
L 1159 0 
L 581 0 
L 581 3500 
L 1159 3500 
L 1159 2956 
Q 1356 3278 1631 3431 
Q 1906 3584 2284 3584 
Q 2666 3584 2933 3390 
Q 3200 3197 3328 2828 
z
" transform="scale(0.015625)"/>
      <path id="DejaVuSans-65" d="M 3597 1894 
L 3597 1613 
L 953 1613 
Q 991 1019 1311 708 
Q 1631 397 2203 397 
Q 2534 397 2845 478 
Q 3156 559 3463 722 
L 3463 178 
Q 3153 47 2828 -22 
Q 2503 -91 2169 -91 
Q 1331 -91 842 396 
Q 353 884 353 1716 
Q 353 2575 817 3079 
Q 1281 3584 2069 3584 
Q 2775 3584 3186 3129 
Q 3597 2675 3597 1894 
z
M 3022 2063 
Q 3016 2534 2758 2815 
Q 2500 3097 2075 3097 
Q 1594 3097 1305 2825 
Q 1016 2553 972 2059 
L 3022 2063 
z
" transform="scale(0.015625)"/>
      <path id="DejaVuSans-64" d="M 2906 2969 
L 2906 4863 
L 3481 4863 
L 3481 0 
L 2906 0 
L 2906 525 
Q 2725 213 2448 61 
Q 2172 -91 1784 -91 
Q 1150 -91 751 415 
Q 353 922 353 1747 
Q 353 2572 751 3078 
Q 1150 3584 1784 3584 
Q 2172 3584 2448 3432 
Q 2725 3281 2906 2969 
z
M 947 1747 
Q 947 1113 1208 752 
Q 1469 391 1925 391 
Q 2381 391 2643 752 
Q 2906 1113 2906 1747 
Q 2906 2381 2643 2742 
Q 2381 3103 1925 3103 
Q 1469 3103 1208 2742 
Q 947 2381 947 1747 
z
" transform="scale(0.015625)"/>
      <path id="DejaVuSans-73" d="M 2834 3397 
L 2834 2853 
Q 2591 2978 2328 3040 
Q 2066 3103 1784 3103 
Q 1356 3103 1142 2972 
Q 928 2841 928 2578 
Q 928 2378 1081 2264 
Q 1234 2150 1697 2047 
L 1894 2003 
Q 2506 1872 2764 1633 
Q 3022 1394 3022 966 
Q 3022 478 2636 193 
Q 2250 -91 1575 -91 
Q 1294 -91 989 -36 
Q 684 19 347 128 
L 347 722 
Q 666 556 975 473 
Q 1284 391 1588 391 
Q 1994 391 2212 530 
Q 2431 669 2431 922 
Q 2431 1156 2273 1281 
Q 2116 1406 1581 1522 
L 1381 1569 
Q 847 1681 609 1914 
Q 372 2147 372 2553 
Q 372 3047 722 3315 
Q 1072 3584 1716 3584 
Q 2034 3584 2315 3537 
Q 2597 3491 2834 3397 
z
" transform="scale(0.015625)"/>
      <path id="DejaVuSans-46" d="M 628 4666 
L 3309 4666 
L 3309 4134 
L 1259 4134 
L 1259 2759 
L 3109 2759 
L 3109 2228 
L 1259 2228 
L 1259 0 
L 628 0 
L 628 4666 
z
" transform="scale(0.015625)"/>
      <path id="DejaVuSans-63" d="M 3122 3366 
L 3122 2828 
Q 2878 2963 2633 3030 
Q 2388 3097 2138 3097 
Q 1578 3097 1268 2742 
Q 959 2388 959 1747 
Q 959 1106 1268 751 
Q 1578 397 2138 397 
Q 2388 397 2633 464 
Q 2878 531 3122 666 
L 3122 134 
Q 2881 22 2623 -34 
Q 2366 -91 2075 -91 
Q 1284 -91 818 406 
Q 353 903 353 1747 
Q 353 2603 823 3093 
Q 1294 3584 2113 3584 
Q 2378 3584 2631 3529 
Q 2884 3475 3122 3366 
z
" transform="scale(0.015625)"/>
      <path id="DejaVuSans-74" d="M 1172 4494 
L 1172 3500 
L 2356 3500 
L 2356 3053 
L 1172 3053 
L 1172 1153 
Q 1172 725 1289 603 
Q 1406 481 1766 481 
L 2356 481 
L 2356 0 
L 1766 0 
Q 1100 0 847 248 
Q 594 497 594 1153 
L 594 3053 
L 172 3053 
L 172 3500 
L 594 3500 
L 594 4494 
L 1172 4494 
z
" transform="scale(0.015625)"/>
      <path id="DejaVuSans-67" d="M 2906 1791 
Q 2906 2416 2648 2759 
Q 2391 3103 1925 3103 
Q 1463 3103 1205 2759 
Q 947 2416 947 1791 
Q 947 1169 1205 825 
Q 1463 481 1925 481 
Q 2391 481 2648 825 
Q 2906 1169 2906 1791 
z
M 3481 434 
Q 3481 -459 3084 -895 
Q 2688 -1331 1869 -1331 
Q 1566 -1331 1297 -1286 
Q 1028 -1241 775 -1147 
L 775 -588 
Q 1028 -725 1275 -790 
Q 1522 -856 1778 -856 
Q 2344 -856 2625 -561 
Q 2906 -266 2906 331 
L 2906 616 
Q 2728 306 2450 153 
Q 2172 0 1784 0 
Q 1141 0 747 490 
Q 353 981 353 1791 
Q 353 2603 747 3093 
Q 1141 3584 1784 3584 
Q 2172 3584 2450 3431 
Q 2728 3278 2906 2969 
L 2906 3500 
L 3481 3500 
L 3481 434 
z
" transform="scale(0.015625)"/>
      <path id="DejaVuSans-49" d="M 628 4666 
L 1259 4666 
L 1259 0 
L 628 0 
L 628 4666 
z
" transform="scale(0.015625)"/>
     </defs>
     <use xlink:href="#DejaVuSans-44"/>
     <use xlink:href="#DejaVuSans-61" x="77.001953"/>
     <use xlink:href="#DejaVuSans-69" x="138.28125"/>
     <use xlink:href="#DejaVuSans-6c" x="166.064453"/>
     <use xlink:href="#DejaVuSans-79" x="193.847656"/>
     <use xlink:href="#DejaVuSans-20" x="253.027344"/>
     <use xlink:href="#DejaVuSans-43" x="284.814453"/>
     <use xlink:href="#DejaVuSans-6f" x="354.638672"/>
     <use xlink:href="#DejaVuSans-6e" x="415.820312"/>
     <use xlink:href="#DejaVuSans-66" x="479.199219"/>
     <use xlink:href="#DejaVuSans-69" x="514.404297"/>
     <use xlink:href="#DejaVuSans-72" x="542.1875"/>
     <use xlink:href="#DejaVuSans-6d" x="581.550781"/>
     <use xlink:href="#DejaVuSans-65" x="678.962891"/>
     <use xlink:href="#DejaVuSans-64" x="740.486328"/>
     <use xlink:href="#DejaVuSans-20" x="803.962891"/>
     <use xlink:href="#DejaVuSans-43" x="835.75"/>
     <use xlink:href="#DejaVuSans-61" x="905.574219"/>
     <use xlink:href="#DejaVuSans-73" x="966.853516"/>
     <use xlink:href="#DejaVuSans-65" x="1018.953125"/>
     <use xlink:href="#DejaVuSans-73" x="1080.476562"/>
     <use xlink:href="#DejaVuSans-20" x="1132.576172"/>
     <use xlink:href="#DejaVuSans-46" x="1164.363281"/>
     <use xlink:href="#DejaVuSans-6f" x="1218.257812"/>
     <use xlink:href="#DejaVuSans-72" x="1279.439453"/>
     <use xlink:href="#DejaVuSans-65" x="1318.302734"/>
     <use xlink:href="#DejaVuSans-63" x="1379.826172"/>
     <use xlink:href="#DejaVuSans-61" x="1434.806641"/>
     <use xlink:href="#DejaVuSans-73" x="1496.085938"/>
     <use xlink:href="#DejaVuSans-74" x="1548.185547"/>
     <use xlink:href="#DejaVuSans-69" x="1587.394531"/>
     <use xlink:href="#DejaVuSans-6e" x="1615.177734"/>
     <use xlink:href="#DejaVuSans-67" x="1678.556641"/>
     <use xlink:href="#DejaVuSans-20" x="1742.033203"/>
     <use xlink:href="#DejaVuSans-2d" x="1773.820312"/>
     <use xlink:href="#DejaVuSans-20" x="1809.904297"/>
     <use xlink:href="#DejaVuSans-49" x="1841.691406"/>
     <use xlink:href="#DejaVuSans-73" x="1871.183594"/>
     <use xlink:href="#DejaVuSans-72" x="1923.283203"/>
     <use xlink:href="#DejaVuSans-61" x="1964.396484"/>
     <use xlink:href="#DejaVuSans-65" x="2025.675781"/>
     <use xlink:href="#DejaVuSans-6c" x="2087.199219"/>
    </g>
    <!-- ARIMA (4, 1, 1)x(1, 0, 1, 7) (R2 = 0.812987) -->
    <g transform="translate(589.990937 29.7555)scale(0.12 -0.12)">
     <defs>
      <path id="DejaVuSans-41" d="M 2188 4044 
L 1331 1722 
L 3047 1722 
L 2188 4044 
z
M 1831 4666 
L 2547 4666 
L 4325 0 
L 3669 0 
L 3244 1197 
L 1141 1197 
L 716 0 
L 50 0 
L 1831 4666 
z
" transform="scale(0.015625)"/>
      <path id="DejaVuSans-52" d="M 2841 2188 
Q 3044 2119 3236 1894 
Q 3428 1669 3622 1275 
L 4263 0 
L 3584 0 
L 2988 1197 
Q 2756 1666 2539 1819 
Q 2322 1972 1947 1972 
L 1259 1972 
L 1259 0 
L 628 0 
L 628 4666 
L 2053 4666 
Q 2853 4666 3247 4331 
Q 3641 3997 3641 3322 
Q 3641 2881 3436 2590 
Q 3231 2300 2841 2188 
z
M 1259 4147 
L 1259 2491 
L 2053 2491 
Q 2509 2491 2742 2702 
Q 2975 2913 2975 3322 
Q 2975 3731 2742 3939 
Q 2509 4147 2053 4147 
L 1259 4147 
z
" transform="scale(0.015625)"/>
      <path id="DejaVuSans-4d" d="M 628 4666 
L 1569 4666 
L 2759 1491 
L 3956 4666 
L 4897 4666 
L 4897 0 
L 4281 0 
L 4281 4097 
L 3078 897 
L 2444 897 
L 1241 4097 
L 1241 0 
L 628 0 
L 628 4666 
z
" transform="scale(0.015625)"/>
      <path id="DejaVuSans-28" d="M 1984 4856 
Q 1566 4138 1362 3434 
Q 1159 2731 1159 2009 
Q 1159 1288 1364 580 
Q 1569 -128 1984 -844 
L 1484 -844 
Q 1016 -109 783 600 
Q 550 1309 550 2009 
Q 550 2706 781 3412 
Q 1013 4119 1484 4856 
L 1984 4856 
z
" transform="scale(0.015625)"/>
      <path id="DejaVuSans-34" d="M 2419 4116 
L 825 1625 
L 2419 1625 
L 2419 4116 
z
M 2253 4666 
L 3047 4666 
L 3047 1625 
L 3713 1625 
L 3713 1100 
L 3047 1100 
L 3047 0 
L 2419 0 
L 2419 1100 
L 313 1100 
L 313 1709 
L 2253 4666 
z
" transform="scale(0.015625)"/>
      <path id="DejaVuSans-2c" d="M 750 794 
L 1409 794 
L 1409 256 
L 897 -744 
L 494 -744 
L 750 256 
L 750 794 
z
" transform="scale(0.015625)"/>
      <path id="DejaVuSans-29" d="M 513 4856 
L 1013 4856 
Q 1481 4119 1714 3412 
Q 1947 2706 1947 2009 
Q 1947 1309 1714 600 
Q 1481 -109 1013 -844 
L 513 -844 
Q 928 -128 1133 580 
Q 1338 1288 1338 2009 
Q 1338 2731 1133 3434 
Q 928 4138 513 4856 
z
" transform="scale(0.015625)"/>
      <path id="DejaVuSans-78" d="M 3513 3500 
L 2247 1797 
L 3578 0 
L 2900 0 
L 1881 1375 
L 863 0 
L 184 0 
L 1544 1831 
L 300 3500 
L 978 3500 
L 1906 2253 
L 2834 3500 
L 3513 3500 
z
" transform="scale(0.015625)"/>
      <path id="DejaVuSans-37" d="M 525 4666 
L 3525 4666 
L 3525 4397 
L 1831 0 
L 1172 0 
L 2766 4134 
L 525 4134 
L 525 4666 
z
" transform="scale(0.015625)"/>
      <path id="DejaVuSans-3d" d="M 678 2906 
L 4684 2906 
L 4684 2381 
L 678 2381 
L 678 2906 
z
M 678 1631 
L 4684 1631 
L 4684 1100 
L 678 1100 
L 678 1631 
z
" transform="scale(0.015625)"/>
      <path id="DejaVuSans-2e" d="M 684 794 
L 1344 794 
L 1344 0 
L 684 0 
L 684 794 
z
" transform="scale(0.015625)"/>
      <path id="DejaVuSans-38" d="M 2034 2216 
Q 1584 2216 1326 1975 
Q 1069 1734 1069 1313 
Q 1069 891 1326 650 
Q 1584 409 2034 409 
Q 2484 409 2743 651 
Q 3003 894 3003 1313 
Q 3003 1734 2745 1975 
Q 2488 2216 2034 2216 
z
M 1403 2484 
Q 997 2584 770 2862 
Q 544 3141 544 3541 
Q 544 4100 942 4425 
Q 1341 4750 2034 4750 
Q 2731 4750 3128 4425 
Q 3525 4100 3525 3541 
Q 3525 3141 3298 2862 
Q 3072 2584 2669 2484 
Q 3125 2378 3379 2068 
Q 3634 1759 3634 1313 
Q 3634 634 3220 271 
Q 2806 -91 2034 -91 
Q 1263 -91 848 271 
Q 434 634 434 1313 
Q 434 1759 690 2068 
Q 947 2378 1403 2484 
z
M 1172 3481 
Q 1172 3119 1398 2916 
Q 1625 2713 2034 2713 
Q 2441 2713 2670 2916 
Q 2900 3119 2900 3481 
Q 2900 3844 2670 4047 
Q 2441 4250 2034 4250 
Q 1625 4250 1398 4047 
Q 1172 3844 1172 3481 
z
" transform="scale(0.015625)"/>
     </defs>
     <use xlink:href="#DejaVuSans-41"/>
     <use xlink:href="#DejaVuSans-52" x="68.408203"/>
     <use xlink:href="#DejaVuSans-49" x="137.890625"/>
     <use xlink:href="#DejaVuSans-4d" x="167.382812"/>
     <use xlink:href="#DejaVuSans-41" x="253.662109"/>
     <use xlink:href="#DejaVuSans-20" x="322.070312"/>
     <use xlink:href="#DejaVuSans-28" x="353.857422"/>
     <use xlink:href="#DejaVuSans-34" x="392.871094"/>
     <use xlink:href="#DejaVuSans-2c" x="456.494141"/>
     <use xlink:href="#DejaVuSans-20" x="488.28125"/>
     <use xlink:href="#DejaVuSans-31" x="520.068359"/>
     <use xlink:href="#DejaVuSans-2c" x="583.691406"/>
     <use xlink:href="#DejaVuSans-20" x="615.478516"/>
     <use xlink:href="#DejaVuSans-31" x="647.265625"/>
     <use xlink:href="#DejaVuSans-29" x="710.888672"/>
     <use xlink:href="#DejaVuSans-78" x="749.902344"/>
     <use xlink:href="#DejaVuSans-28" x="809.082031"/>
     <use xlink:href="#DejaVuSans-31" x="848.095703"/>
     <use xlink:href="#DejaVuSans-2c" x="911.71875"/>
     <use xlink:href="#DejaVuSans-20" x="943.505859"/>
     <use xlink:href="#DejaVuSans-30" x="975.292969"/>
     <use xlink:href="#DejaVuSans-2c" x="1038.916016"/>
     <use xlink:href="#DejaVuSans-20" x="1070.703125"/>
     <use xlink:href="#DejaVuSans-31" x="1102.490234"/>
     <use xlink:href="#DejaVuSans-2c" x="1166.113281"/>
     <use xlink:href="#DejaVuSans-20" x="1197.900391"/>
     <use xlink:href="#DejaVuSans-37" x="1229.6875"/>
     <use xlink:href="#DejaVuSans-29" x="1293.310547"/>
     <use xlink:href="#DejaVuSans-20" x="1332.324219"/>
     <use xlink:href="#DejaVuSans-28" x="1364.111328"/>
     <use xlink:href="#DejaVuSans-52" x="1403.125"/>
     <use xlink:href="#DejaVuSans-32" x="1472.607422"/>
     <use xlink:href="#DejaVuSans-20" x="1536.230469"/>
     <use xlink:href="#DejaVuSans-3d" x="1568.017578"/>
     <use xlink:href="#DejaVuSans-20" x="1651.806641"/>
     <use xlink:href="#DejaVuSans-30" x="1683.59375"/>
     <use xlink:href="#DejaVuSans-2e" x="1747.216797"/>
     <use xlink:href="#DejaVuSans-38" x="1779.003906"/>
     <use xlink:href="#DejaVuSans-31" x="1842.626953"/>
     <use xlink:href="#DejaVuSans-32" x="1906.25"/>
     <use xlink:href="#DejaVuSans-39" x="1969.873047"/>
     <use xlink:href="#DejaVuSans-38" x="2033.496094"/>
     <use xlink:href="#DejaVuSans-37" x="2097.119141"/>
     <use xlink:href="#DejaVuSans-29" x="2160.742188"/>
    </g>
   </g>
   <g id="legend_1">
    <g id="patch_7">
     <path d="M 1287.495312 87.789875 
L 1384.575 87.789875 
Q 1386.575 87.789875 1386.575 85.789875 
L 1386.575 42.7555 
Q 1386.575 40.7555 1384.575 40.7555 
L 1287.495312 40.7555 
Q 1285.495312 40.7555 1285.495312 42.7555 
L 1285.495312 85.789875 
Q 1285.495312 87.789875 1287.495312 87.789875 
z
" style="fill: #ffffff; opacity: 0.8; stroke: #cccccc; stroke-linejoin: miter"/>
    </g>
    <g id="line2d_20">
     <path d="M 1289.495312 48.853937 
L 1299.495312 48.853937 
L 1309.495312 48.853937 
" style="fill: none; stroke: #0000ff; stroke-width: 1.5; stroke-linecap: square"/>
    </g>
    <g id="text_18">
     <!-- Actual Value -->
     <g transform="translate(1317.495312 52.353937)scale(0.1 -0.1)">
      <defs>
       <path id="DejaVuSans-75" d="M 544 1381 
L 544 3500 
L 1119 3500 
L 1119 1403 
Q 1119 906 1312 657 
Q 1506 409 1894 409 
Q 2359 409 2629 706 
Q 2900 1003 2900 1516 
L 2900 3500 
L 3475 3500 
L 3475 0 
L 2900 0 
L 2900 538 
Q 2691 219 2414 64 
Q 2138 -91 1772 -91 
Q 1169 -91 856 284 
Q 544 659 544 1381 
z
M 1991 3584 
L 1991 3584 
z
" transform="scale(0.015625)"/>
       <path id="DejaVuSans-56" d="M 1831 0 
L 50 4666 
L 709 4666 
L 2188 738 
L 3669 4666 
L 4325 4666 
L 2547 0 
L 1831 0 
z
" transform="scale(0.015625)"/>
      </defs>
      <use xlink:href="#DejaVuSans-41"/>
      <use xlink:href="#DejaVuSans-63" x="66.658203"/>
      <use xlink:href="#DejaVuSans-74" x="121.638672"/>
      <use xlink:href="#DejaVuSans-75" x="160.847656"/>
      <use xlink:href="#DejaVuSans-61" x="224.226562"/>
      <use xlink:href="#DejaVuSans-6c" x="285.505859"/>
      <use xlink:href="#DejaVuSans-20" x="313.289062"/>
      <use xlink:href="#DejaVuSans-56" x="345.076172"/>
      <use xlink:href="#DejaVuSans-61" x="405.734375"/>
      <use xlink:href="#DejaVuSans-6c" x="467.013672"/>
      <use xlink:href="#DejaVuSans-75" x="494.796875"/>
      <use xlink:href="#DejaVuSans-65" x="558.175781"/>
     </g>
    </g>
    <g id="line2d_21">
     <path d="M 1289.495312 63.532062 
L 1299.495312 63.532062 
L 1309.495312 63.532062 
" style="fill: none; stroke: #ffa500; stroke-width: 1.5; stroke-linecap: square"/>
    </g>
    <g id="text_19">
     <!-- Check Value -->
     <g transform="translate(1317.495312 67.032062)scale(0.1 -0.1)">
      <defs>
       <path id="DejaVuSans-68" d="M 3513 2113 
L 3513 0 
L 2938 0 
L 2938 2094 
Q 2938 2591 2744 2837 
Q 2550 3084 2163 3084 
Q 1697 3084 1428 2787 
Q 1159 2491 1159 1978 
L 1159 0 
L 581 0 
L 581 4863 
L 1159 4863 
L 1159 2956 
Q 1366 3272 1645 3428 
Q 1925 3584 2291 3584 
Q 2894 3584 3203 3211 
Q 3513 2838 3513 2113 
z
" transform="scale(0.015625)"/>
       <path id="DejaVuSans-6b" d="M 581 4863 
L 1159 4863 
L 1159 1991 
L 2875 3500 
L 3609 3500 
L 1753 1863 
L 3688 0 
L 2938 0 
L 1159 1709 
L 1159 0 
L 581 0 
L 581 4863 
z
" transform="scale(0.015625)"/>
      </defs>
      <use xlink:href="#DejaVuSans-43"/>
      <use xlink:href="#DejaVuSans-68" x="69.824219"/>
      <use xlink:href="#DejaVuSans-65" x="133.203125"/>
      <use xlink:href="#DejaVuSans-63" x="194.726562"/>
      <use xlink:href="#DejaVuSans-6b" x="249.707031"/>
      <use xlink:href="#DejaVuSans-20" x="307.617188"/>
      <use xlink:href="#DejaVuSans-56" x="339.404297"/>
      <use xlink:href="#DejaVuSans-61" x="400.0625"/>
      <use xlink:href="#DejaVuSans-6c" x="461.341797"/>
      <use xlink:href="#DejaVuSans-75" x="489.125"/>
      <use xlink:href="#DejaVuSans-65" x="552.503906"/>
     </g>
    </g>
    <g id="line2d_22">
     <path d="M 1289.495312 78.210187 
L 1299.495312 78.210187 
L 1309.495312 78.210187 
" style="fill: none; stroke: #ff0000; stroke-width: 1.5; stroke-linecap: square"/>
    </g>
    <g id="text_20">
     <!-- Predict Value -->
     <g transform="translate(1317.495312 81.710187)scale(0.1 -0.1)">
      <defs>
       <path id="DejaVuSans-50" d="M 1259 4147 
L 1259 2394 
L 2053 2394 
Q 2494 2394 2734 2622 
Q 2975 2850 2975 3272 
Q 2975 3691 2734 3919 
Q 2494 4147 2053 4147 
L 1259 4147 
z
M 628 4666 
L 2053 4666 
Q 2838 4666 3239 4311 
Q 3641 3956 3641 3272 
Q 3641 2581 3239 2228 
Q 2838 1875 2053 1875 
L 1259 1875 
L 1259 0 
L 628 0 
L 628 4666 
z
" transform="scale(0.015625)"/>
      </defs>
      <use xlink:href="#DejaVuSans-50"/>
      <use xlink:href="#DejaVuSans-72" x="58.552734"/>
      <use xlink:href="#DejaVuSans-65" x="97.416016"/>
      <use xlink:href="#DejaVuSans-64" x="158.939453"/>
      <use xlink:href="#DejaVuSans-69" x="222.416016"/>
      <use xlink:href="#DejaVuSans-63" x="250.199219"/>
      <use xlink:href="#DejaVuSans-74" x="305.179688"/>
      <use xlink:href="#DejaVuSans-20" x="344.388672"/>
      <use xlink:href="#DejaVuSans-56" x="376.175781"/>
      <use xlink:href="#DejaVuSans-61" x="436.833984"/>
      <use xlink:href="#DejaVuSans-6c" x="498.113281"/>
      <use xlink:href="#DejaVuSans-75" x="525.896484"/>
      <use xlink:href="#DejaVuSans-65" x="589.275391"/>
     </g>
    </g>
   </g>
  </g>
 </g>
 <defs>
  <clipPath id="p9e8eea860e">
   <rect x="52.375" y="35.7555" width="1339.2" height="332.64"/>
  </clipPath>
 </defs>
</svg>
