<?xml version="1.0" encoding="utf-8" standalone="no"?>
<!DOCTYPE svg PUBLIC "-//W3C//DTD SVG 1.1//EN"
  "http://www.w3.org/Graphics/SVG/1.1/DTD/svg11.dtd">
<svg xmlns:xlink="http://www.w3.org/1999/xlink" width="1392.4125pt" height="392.273625pt" viewBox="0 0 1392.4125 392.273625" xmlns="http://www.w3.org/2000/svg" version="1.1">
 <metadata>
  <rdf:RDF xmlns:dc="http://purl.org/dc/elements/1.1/" xmlns:cc="http://creativecommons.org/ns#" xmlns:rdf="http://www.w3.org/1999/02/22-rdf-syntax-ns#">
   <cc:Work>
    <dc:type rdf:resource="http://purl.org/dc/dcmitype/StillImage"/>
    <dc:date>2023-02-01T19:06:09.442847</dc:date>
    <dc:format>image/svg+xml</dc:format>
    <dc:creator>
     <cc:Agent>
      <dc:title>Matplotlib v3.5.1, https://matplotlib.org/</dc:title>
     </cc:Agent>
    </dc:creator>
   </cc:Work>
  </rdf:RDF>
 </metadata>
 <defs>
  <style type="text/css">*{stroke-linejoin: round; stroke-linecap: butt}</style>
 </defs>
 <g id="figure_1">
  <g id="patch_1">
   <path d="M 0 392.273625 
L 1392.4125 392.273625 
L 1392.4125 0 
L 0 0 
z
" style="fill: #ffffff"/>
  </g>
  <g id="axes_1">
   <g id="patch_2">
    <path d="M 46.0125 368.3955 
L 1385.2125 368.3955 
L 1385.2125 35.7555 
L 46.0125 35.7555 
z
" style="fill: #ffffff"/>
   </g>
   <g id="matplotlib.axis_1">
    <g id="xtick_1">
     <g id="line2d_1">
      <defs>
       <path id="m8c73657616" d="M 0 0 
L 0 3.5 
" style="stroke: #000000; stroke-width: 0.8"/>
      </defs>
      <g>
       <use xlink:href="#m8c73657616" x="82.928161" y="368.3955" style="stroke: #000000; stroke-width: 0.8"/>
      </g>
     </g>
     <g id="text_1">
      <!-- 2020-01 -->
      <g transform="translate(62.036755 382.993937)scale(0.1 -0.1)">
       <defs>
        <path id="DejaVuSans-32" d="M 1228 531 
L 3431 531 
L 3431 0 
L 469 0 
L 469 531 
Q 828 903 1448 1529 
Q 2069 2156 2228 2338 
Q 2531 2678 2651 2914 
Q 2772 3150 2772 3378 
Q 2772 3750 2511 3984 
Q 2250 4219 1831 4219 
Q 1534 4219 1204 4116 
Q 875 4013 500 3803 
L 500 4441 
Q 881 4594 1212 4672 
Q 1544 4750 1819 4750 
Q 2544 4750 2975 4387 
Q 3406 4025 3406 3419 
Q 3406 3131 3298 2873 
Q 3191 2616 2906 2266 
Q 2828 2175 2409 1742 
Q 1991 1309 1228 531 
z
" transform="scale(0.015625)"/>
        <path id="DejaVuSans-30" d="M 2034 4250 
Q 1547 4250 1301 3770 
Q 1056 3291 1056 2328 
Q 1056 1369 1301 889 
Q 1547 409 2034 409 
Q 2525 409 2770 889 
Q 3016 1369 3016 2328 
Q 3016 3291 2770 3770 
Q 2525 4250 2034 4250 
z
M 2034 4750 
Q 2819 4750 3233 4129 
Q 3647 3509 3647 2328 
Q 3647 1150 3233 529 
Q 2819 -91 2034 -91 
Q 1250 -91 836 529 
Q 422 1150 422 2328 
Q 422 3509 836 4129 
Q 1250 4750 2034 4750 
z
" transform="scale(0.015625)"/>
        <path id="DejaVuSans-2d" d="M 313 2009 
L 1997 2009 
L 1997 1497 
L 313 1497 
L 313 2009 
z
" transform="scale(0.015625)"/>
        <path id="DejaVuSans-31" d="M 794 531 
L 1825 531 
L 1825 4091 
L 703 3866 
L 703 4441 
L 1819 4666 
L 2450 4666 
L 2450 531 
L 3481 531 
L 3481 0 
L 794 0 
L 794 531 
z
" transform="scale(0.015625)"/>
       </defs>
       <use xlink:href="#DejaVuSans-32"/>
       <use xlink:href="#DejaVuSans-30" x="63.623047"/>
       <use xlink:href="#DejaVuSans-32" x="127.246094"/>
       <use xlink:href="#DejaVuSans-30" x="190.869141"/>
       <use xlink:href="#DejaVuSans-2d" x="254.492188"/>
       <use xlink:href="#DejaVuSans-30" x="290.576172"/>
       <use xlink:href="#DejaVuSans-31" x="354.199219"/>
      </g>
     </g>
    </g>
    <g id="xtick_2">
     <g id="line2d_2">
      <g>
       <use xlink:href="#m8c73657616" x="214.692025" y="368.3955" style="stroke: #000000; stroke-width: 0.8"/>
      </g>
     </g>
     <g id="text_2">
      <!-- 2020-05 -->
      <g transform="translate(193.800619 382.993937)scale(0.1 -0.1)">
       <defs>
        <path id="DejaVuSans-35" d="M 691 4666 
L 3169 4666 
L 3169 4134 
L 1269 4134 
L 1269 2991 
Q 1406 3038 1543 3061 
Q 1681 3084 1819 3084 
Q 2600 3084 3056 2656 
Q 3513 2228 3513 1497 
Q 3513 744 3044 326 
Q 2575 -91 1722 -91 
Q 1428 -91 1123 -41 
Q 819 9 494 109 
L 494 744 
Q 775 591 1075 516 
Q 1375 441 1709 441 
Q 2250 441 2565 725 
Q 2881 1009 2881 1497 
Q 2881 1984 2565 2268 
Q 2250 2553 1709 2553 
Q 1456 2553 1204 2497 
Q 953 2441 691 2322 
L 691 4666 
z
" transform="scale(0.015625)"/>
       </defs>
       <use xlink:href="#DejaVuSans-32"/>
       <use xlink:href="#DejaVuSans-30" x="63.623047"/>
       <use xlink:href="#DejaVuSans-32" x="127.246094"/>
       <use xlink:href="#DejaVuSans-30" x="190.869141"/>
       <use xlink:href="#DejaVuSans-2d" x="254.492188"/>
       <use xlink:href="#DejaVuSans-30" x="290.576172"/>
       <use xlink:href="#DejaVuSans-35" x="354.199219"/>
      </g>
     </g>
    </g>
    <g id="xtick_3">
     <g id="line2d_3">
      <g>
       <use xlink:href="#m8c73657616" x="348.633804" y="368.3955" style="stroke: #000000; stroke-width: 0.8"/>
      </g>
     </g>
     <g id="text_3">
      <!-- 2020-09 -->
      <g transform="translate(327.742398 382.993937)scale(0.1 -0.1)">
       <defs>
        <path id="DejaVuSans-39" d="M 703 97 
L 703 672 
Q 941 559 1184 500 
Q 1428 441 1663 441 
Q 2288 441 2617 861 
Q 2947 1281 2994 2138 
Q 2813 1869 2534 1725 
Q 2256 1581 1919 1581 
Q 1219 1581 811 2004 
Q 403 2428 403 3163 
Q 403 3881 828 4315 
Q 1253 4750 1959 4750 
Q 2769 4750 3195 4129 
Q 3622 3509 3622 2328 
Q 3622 1225 3098 567 
Q 2575 -91 1691 -91 
Q 1453 -91 1209 -44 
Q 966 3 703 97 
z
M 1959 2075 
Q 2384 2075 2632 2365 
Q 2881 2656 2881 3163 
Q 2881 3666 2632 3958 
Q 2384 4250 1959 4250 
Q 1534 4250 1286 3958 
Q 1038 3666 1038 3163 
Q 1038 2656 1286 2365 
Q 1534 2075 1959 2075 
z
" transform="scale(0.015625)"/>
       </defs>
       <use xlink:href="#DejaVuSans-32"/>
       <use xlink:href="#DejaVuSans-30" x="63.623047"/>
       <use xlink:href="#DejaVuSans-32" x="127.246094"/>
       <use xlink:href="#DejaVuSans-30" x="190.869141"/>
       <use xlink:href="#DejaVuSans-2d" x="254.492188"/>
       <use xlink:href="#DejaVuSans-30" x="290.576172"/>
       <use xlink:href="#DejaVuSans-39" x="354.199219"/>
      </g>
     </g>
    </g>
    <g id="xtick_4">
     <g id="line2d_4">
      <g>
       <use xlink:href="#m8c73657616" x="481.486626" y="368.3955" style="stroke: #000000; stroke-width: 0.8"/>
      </g>
     </g>
     <g id="text_4">
      <!-- 2021-01 -->
      <g transform="translate(460.59522 382.993937)scale(0.1 -0.1)">
       <use xlink:href="#DejaVuSans-32"/>
       <use xlink:href="#DejaVuSans-30" x="63.623047"/>
       <use xlink:href="#DejaVuSans-32" x="127.246094"/>
       <use xlink:href="#DejaVuSans-31" x="190.869141"/>
       <use xlink:href="#DejaVuSans-2d" x="254.492188"/>
       <use xlink:href="#DejaVuSans-30" x="290.576172"/>
       <use xlink:href="#DejaVuSans-31" x="354.199219"/>
      </g>
     </g>
    </g>
    <g id="xtick_5">
     <g id="line2d_5">
      <g>
       <use xlink:href="#m8c73657616" x="612.161532" y="368.3955" style="stroke: #000000; stroke-width: 0.8"/>
      </g>
     </g>
     <g id="text_5">
      <!-- 2021-05 -->
      <g transform="translate(591.270126 382.993937)scale(0.1 -0.1)">
       <use xlink:href="#DejaVuSans-32"/>
       <use xlink:href="#DejaVuSans-30" x="63.623047"/>
       <use xlink:href="#DejaVuSans-32" x="127.246094"/>
       <use xlink:href="#DejaVuSans-31" x="190.869141"/>
       <use xlink:href="#DejaVuSans-2d" x="254.492188"/>
       <use xlink:href="#DejaVuSans-30" x="290.576172"/>
       <use xlink:href="#DejaVuSans-35" x="354.199219"/>
      </g>
     </g>
    </g>
    <g id="xtick_6">
     <g id="line2d_6">
      <g>
       <use xlink:href="#m8c73657616" x="746.103312" y="368.3955" style="stroke: #000000; stroke-width: 0.8"/>
      </g>
     </g>
     <g id="text_6">
      <!-- 2021-09 -->
      <g transform="translate(725.211905 382.993937)scale(0.1 -0.1)">
       <use xlink:href="#DejaVuSans-32"/>
       <use xlink:href="#DejaVuSans-30" x="63.623047"/>
       <use xlink:href="#DejaVuSans-32" x="127.246094"/>
       <use xlink:href="#DejaVuSans-31" x="190.869141"/>
       <use xlink:href="#DejaVuSans-2d" x="254.492188"/>
       <use xlink:href="#DejaVuSans-30" x="290.576172"/>
       <use xlink:href="#DejaVuSans-39" x="354.199219"/>
      </g>
     </g>
    </g>
    <g id="xtick_7">
     <g id="line2d_7">
      <g>
       <use xlink:href="#m8c73657616" x="878.956133" y="368.3955" style="stroke: #000000; stroke-width: 0.8"/>
      </g>
     </g>
     <g id="text_7">
      <!-- 2022-01 -->
      <g transform="translate(858.064727 382.993937)scale(0.1 -0.1)">
       <use xlink:href="#DejaVuSans-32"/>
       <use xlink:href="#DejaVuSans-30" x="63.623047"/>
       <use xlink:href="#DejaVuSans-32" x="127.246094"/>
       <use xlink:href="#DejaVuSans-32" x="190.869141"/>
       <use xlink:href="#DejaVuSans-2d" x="254.492188"/>
       <use xlink:href="#DejaVuSans-30" x="290.576172"/>
       <use xlink:href="#DejaVuSans-31" x="354.199219"/>
      </g>
     </g>
    </g>
    <g id="xtick_8">
     <g id="line2d_8">
      <g>
       <use xlink:href="#m8c73657616" x="1009.63104" y="368.3955" style="stroke: #000000; stroke-width: 0.8"/>
      </g>
     </g>
     <g id="text_8">
      <!-- 2022-05 -->
      <g transform="translate(988.739633 382.993937)scale(0.1 -0.1)">
       <use xlink:href="#DejaVuSans-32"/>
       <use xlink:href="#DejaVuSans-30" x="63.623047"/>
       <use xlink:href="#DejaVuSans-32" x="127.246094"/>
       <use xlink:href="#DejaVuSans-32" x="190.869141"/>
       <use xlink:href="#DejaVuSans-2d" x="254.492188"/>
       <use xlink:href="#DejaVuSans-30" x="290.576172"/>
       <use xlink:href="#DejaVuSans-35" x="354.199219"/>
      </g>
     </g>
    </g>
    <g id="xtick_9">
     <g id="line2d_9">
      <g>
       <use xlink:href="#m8c73657616" x="1143.572819" y="368.3955" style="stroke: #000000; stroke-width: 0.8"/>
      </g>
     </g>
     <g id="text_9">
      <!-- 2022-09 -->
      <g transform="translate(1122.681413 382.993937)scale(0.1 -0.1)">
       <use xlink:href="#DejaVuSans-32"/>
       <use xlink:href="#DejaVuSans-30" x="63.623047"/>
       <use xlink:href="#DejaVuSans-32" x="127.246094"/>
       <use xlink:href="#DejaVuSans-32" x="190.869141"/>
       <use xlink:href="#DejaVuSans-2d" x="254.492188"/>
       <use xlink:href="#DejaVuSans-30" x="290.576172"/>
       <use xlink:href="#DejaVuSans-39" x="354.199219"/>
      </g>
     </g>
    </g>
    <g id="xtick_10">
     <g id="line2d_10">
      <g>
       <use xlink:href="#m8c73657616" x="1276.42564" y="368.3955" style="stroke: #000000; stroke-width: 0.8"/>
      </g>
     </g>
     <g id="text_10">
      <!-- 2023-01 -->
      <g transform="translate(1255.534234 382.993937)scale(0.1 -0.1)">
       <defs>
        <path id="DejaVuSans-33" d="M 2597 2516 
Q 3050 2419 3304 2112 
Q 3559 1806 3559 1356 
Q 3559 666 3084 287 
Q 2609 -91 1734 -91 
Q 1441 -91 1130 -33 
Q 819 25 488 141 
L 488 750 
Q 750 597 1062 519 
Q 1375 441 1716 441 
Q 2309 441 2620 675 
Q 2931 909 2931 1356 
Q 2931 1769 2642 2001 
Q 2353 2234 1838 2234 
L 1294 2234 
L 1294 2753 
L 1863 2753 
Q 2328 2753 2575 2939 
Q 2822 3125 2822 3475 
Q 2822 3834 2567 4026 
Q 2313 4219 1838 4219 
Q 1578 4219 1281 4162 
Q 984 4106 628 3988 
L 628 4550 
Q 988 4650 1302 4700 
Q 1616 4750 1894 4750 
Q 2613 4750 3031 4423 
Q 3450 4097 3450 3541 
Q 3450 3153 3228 2886 
Q 3006 2619 2597 2516 
z
" transform="scale(0.015625)"/>
       </defs>
       <use xlink:href="#DejaVuSans-32"/>
       <use xlink:href="#DejaVuSans-30" x="63.623047"/>
       <use xlink:href="#DejaVuSans-32" x="127.246094"/>
       <use xlink:href="#DejaVuSans-33" x="190.869141"/>
       <use xlink:href="#DejaVuSans-2d" x="254.492188"/>
       <use xlink:href="#DejaVuSans-30" x="290.576172"/>
       <use xlink:href="#DejaVuSans-31" x="354.199219"/>
      </g>
     </g>
    </g>
   </g>
   <g id="matplotlib.axis_2">
    <g id="ytick_1">
     <g id="line2d_11">
      <defs>
       <path id="m9eba8af4d6" d="M 0 0 
L -3.5 0 
" style="stroke: #000000; stroke-width: 0.8"/>
      </defs>
      <g>
       <use xlink:href="#m9eba8af4d6" x="46.0125" y="352.007132" style="stroke: #000000; stroke-width: 0.8"/>
      </g>
     </g>
     <g id="text_11">
      <!-- 0 -->
      <g transform="translate(32.65 355.806351)scale(0.1 -0.1)">
       <use xlink:href="#DejaVuSans-30"/>
      </g>
     </g>
    </g>
    <g id="ytick_2">
     <g id="line2d_12">
      <g>
       <use xlink:href="#m9eba8af4d6" x="46.0125" y="287.475237" style="stroke: #000000; stroke-width: 0.8"/>
      </g>
     </g>
     <g id="text_12">
      <!-- 5000 -->
      <g transform="translate(13.5625 291.274456)scale(0.1 -0.1)">
       <use xlink:href="#DejaVuSans-35"/>
       <use xlink:href="#DejaVuSans-30" x="63.623047"/>
       <use xlink:href="#DejaVuSans-30" x="127.246094"/>
       <use xlink:href="#DejaVuSans-30" x="190.869141"/>
      </g>
     </g>
    </g>
    <g id="ytick_3">
     <g id="line2d_13">
      <g>
       <use xlink:href="#m9eba8af4d6" x="46.0125" y="222.943343" style="stroke: #000000; stroke-width: 0.8"/>
      </g>
     </g>
     <g id="text_13">
      <!-- 10000 -->
      <g transform="translate(7.2 226.742562)scale(0.1 -0.1)">
       <use xlink:href="#DejaVuSans-31"/>
       <use xlink:href="#DejaVuSans-30" x="63.623047"/>
       <use xlink:href="#DejaVuSans-30" x="127.246094"/>
       <use xlink:href="#DejaVuSans-30" x="190.869141"/>
       <use xlink:href="#DejaVuSans-30" x="254.492188"/>
      </g>
     </g>
    </g>
    <g id="ytick_4">
     <g id="line2d_14">
      <g>
       <use xlink:href="#m9eba8af4d6" x="46.0125" y="158.411449" style="stroke: #000000; stroke-width: 0.8"/>
      </g>
     </g>
     <g id="text_14">
      <!-- 15000 -->
      <g transform="translate(7.2 162.210667)scale(0.1 -0.1)">
       <use xlink:href="#DejaVuSans-31"/>
       <use xlink:href="#DejaVuSans-35" x="63.623047"/>
       <use xlink:href="#DejaVuSans-30" x="127.246094"/>
       <use xlink:href="#DejaVuSans-30" x="190.869141"/>
       <use xlink:href="#DejaVuSans-30" x="254.492188"/>
      </g>
     </g>
    </g>
    <g id="ytick_5">
     <g id="line2d_15">
      <g>
       <use xlink:href="#m9eba8af4d6" x="46.0125" y="93.879554" style="stroke: #000000; stroke-width: 0.8"/>
      </g>
     </g>
     <g id="text_15">
      <!-- 20000 -->
      <g transform="translate(7.2 97.678773)scale(0.1 -0.1)">
       <use xlink:href="#DejaVuSans-32"/>
       <use xlink:href="#DejaVuSans-30" x="63.623047"/>
       <use xlink:href="#DejaVuSans-30" x="127.246094"/>
       <use xlink:href="#DejaVuSans-30" x="190.869141"/>
       <use xlink:href="#DejaVuSans-30" x="254.492188"/>
      </g>
     </g>
    </g>
   </g>
   <g id="line2d_16">
    <path d="M 106.885227 352.007132 
L 154.79936 352.007132 
L 155.888317 351.890974 
L 156.977275 352.007132 
L 159.15519 351.671566 
L 160.244147 351.594128 
L 161.333105 351.336 
L 162.422063 351.490877 
L 164.599978 351.568315 
L 165.688935 351.723191 
L 166.777893 352.007132 
L 167.86685 351.865162 
L 168.955808 351.297281 
L 171.133723 351.607034 
L 172.222681 351.645753 
L 174.400596 351.387626 
L 175.489553 351.568315 
L 176.578511 351.103685 
L 177.667468 351.336 
L 178.756426 351.413438 
L 179.845383 351.671566 
L 180.934341 351.413438 
L 182.023299 351.503783 
L 183.112256 351.284375 
L 184.201214 351.529596 
L 185.290171 351.452157 
L 186.379129 351.749004 
L 187.468086 351.697379 
L 188.557044 351.516689 
L 190.734959 351.581221 
L 191.823916 351.542502 
L 196.179747 351.903881 
L 197.268704 351.645753 
L 198.357662 351.749004 
L 199.446619 351.542502 
L 200.535577 351.839349 
L 215.780983 351.9426 
L 217.958898 352.007132 
L 219.047855 351.929694 
L 222.314728 351.994225 
L 225.581601 351.968413 
L 231.026388 352.007132 
L 240.827006 351.994225 
L 248.449709 352.007132 
L 253.894497 351.9426 
L 257.16137 351.994225 
L 266.961988 351.903881 
L 268.050945 351.981319 
L 269.139903 351.929694 
L 271.317818 351.994225 
L 272.406775 351.839349 
L 274.584691 351.929694 
L 276.762606 351.826442 
L 278.940521 351.955506 
L 280.029478 351.813536 
L 281.118436 351.839349 
L 282.207393 351.736098 
L 283.296351 351.80063 
L 284.385309 351.632847 
L 286.563224 351.80063 
L 288.741139 351.697379 
L 289.830096 351.839349 
L 290.919054 351.787723 
L 292.008011 351.568315 
L 293.096969 351.826442 
L 295.274884 351.878068 
L 296.363842 351.761911 
L 299.630714 351.697379 
L 300.719672 351.929694 
L 301.808629 351.916787 
L 302.897587 351.697379 
L 305.075502 351.65866 
L 307.253417 351.826442 
L 308.342375 351.80063 
L 309.431332 351.9426 
L 310.52029 351.826442 
L 311.609247 351.826442 
L 312.698205 351.697379 
L 317.054035 351.994225 
L 319.23195 351.774817 
L 324.676738 351.929694 
L 326.854653 351.607034 
L 327.943611 351.632847 
L 329.032568 351.529596 
L 330.121526 351.594128 
L 331.210483 351.813536 
L 332.299441 351.839349 
L 334.477356 351.529596 
L 335.566314 351.452157 
L 336.655271 351.516689 
L 337.744229 351.452157 
L 338.833186 351.568315 
L 339.922144 351.826442 
L 344.277974 351.465064 
L 346.455889 351.607034 
L 347.544847 351.774817 
L 348.633804 351.47797 
L 349.722762 351.297281 
L 354.078592 351.452157 
L 355.16755 351.684472 
L 356.256507 351.465064 
L 357.345465 350.974621 
L 358.434422 351.013341 
L 359.52338 350.613243 
L 361.701295 350.7294 
L 362.790252 351.400532 
L 364.968168 350.419647 
L 366.057125 350.664868 
L 367.146083 350.238958 
L 368.23504 350.535805 
L 369.323998 350.574524 
L 370.412955 351.361813 
L 371.501913 350.87137 
L 372.59087 350.251864 
L 373.679828 350.432554 
L 374.768786 349.542013 
L 375.857743 349.632358 
L 376.946701 349.955018 
L 378.035658 351.516689 
L 379.124616 350.7294 
L 380.213573 349.387137 
L 381.302531 349.748515 
L 382.391488 348.935414 
L 383.480446 349.077384 
L 384.569404 349.83886 
L 385.658361 349.748515 
L 386.747319 350.832651 
L 387.836276 347.412461 
L 388.925234 347.012363 
L 390.014191 347.296303 
L 391.103149 347.102708 
L 392.192106 346.70261 
L 393.281064 349.825954 
L 394.370022 346.857487 
L 395.458979 342.882322 
L 396.547937 342.39188 
L 397.636894 341.243212 
L 398.725852 340.404297 
L 400.903767 345.076406 
L 401.992724 341.759467 
L 403.081682 332.531406 
L 404.17064 330.530917 
L 405.259597 330.569636 
L 406.348555 326.620285 
L 407.437512 330.376041 
L 408.52647 337.422924 
L 409.615427 332.350717 
L 410.704385 318.29567 
L 411.793342 319.870248 
L 412.8823 328.801463 
L 413.971258 328.724024 
L 415.060215 334.686771 
L 416.149173 344.818279 
L 417.23813 336.82923 
L 418.327088 325.858808 
L 419.416045 330.246977 
L 420.505003 331.821555 
L 421.59396 331.202049 
L 422.682918 340.507548 
L 423.771876 346.018572 
L 424.860833 337.913366 
L 425.949791 323.329158 
L 427.038748 327.084914 
L 428.127706 332.453968 
L 429.216663 329.588752 
L 430.305621 340.133263 
L 431.394578 345.52813 
L 432.483536 334.028546 
L 433.572493 325.845902 
L 434.661451 325.290928 
L 435.750409 332.05387 
L 436.839366 330.014662 
L 437.928324 338.791 
L 439.017281 345.941134 
L 440.106239 335.203026 
L 441.195196 323.277532 
L 442.284154 329.20156 
L 443.373111 331.344019 
L 444.462069 331.576334 
L 445.551027 337.500362 
L 446.639984 346.41867 
L 447.728942 334.957805 
L 448.817899 320.631725 
L 449.906857 328.995058 
L 450.995814 328.982152 
L 452.084772 330.814858 
L 453.173729 338.713562 
L 454.262687 345.773351 
L 455.351645 330.737419 
L 456.440602 324.400387 
L 457.52956 328.16905 
L 458.618517 328.582054 
L 459.707475 329.498407 
L 460.796432 341.256118 
L 461.88539 346.444482 
L 462.974347 332.182934 
L 464.063305 324.645609 
L 465.152263 330.814858 
L 466.24122 332.492687 
L 467.330178 333.189631 
L 468.419135 340.57208 
L 469.508093 346.909112 
L 470.59705 332.505593 
L 471.686008 324.529451 
L 472.774965 325.071519 
L 473.863923 328.853088 
L 474.952881 347.244678 
L 476.041838 343.979364 
L 477.130796 345.282908 
L 478.219753 326.478314 
L 479.308711 320.580099 
L 480.397668 320.876946 
L 481.486626 328.801463 
L 482.575583 346.934925 
L 483.664541 342.417692 
L 484.753499 342.043407 
L 485.842456 319.586308 
L 486.931414 308.719137 
L 488.020371 315.598237 
L 489.109329 325.110238 
L 490.198286 327.626982 
L 491.287244 342.159565 
L 492.376201 346.431576 
L 493.465159 327.820578 
L 494.554117 325.006987 
L 495.643074 328.865994 
L 496.732032 332.079683 
L 497.820989 332.131308 
L 498.909947 344.663402 
L 499.998904 348.148125 
L 501.087862 329.898505 
L 502.176819 329.885598 
L 503.265777 333.228351 
L 504.354735 333.344508 
L 505.443692 332.118402 
L 506.53265 345.076406 
L 507.621607 348.122312 
L 508.710565 330.311509 
L 509.799522 328.130331 
L 511.977437 335.306278 
L 513.066395 334.480269 
L 514.155352 344.443994 
L 515.24431 347.322116 
L 516.333268 330.711607 
L 517.422225 331.16333 
L 518.511183 336.016128 
L 519.60014 339.629914 
L 520.689098 340.365578 
L 521.778055 345.541036 
L 522.867013 348.161031 
L 523.95597 347.30921 
L 525.044928 333.538104 
L 526.133886 334.648052 
L 527.222843 339.191098 
L 528.311801 338.907157 
L 529.400758 347.760933 
L 530.489716 348.096499 
L 531.578673 342.456411 
L 532.667631 337.990804 
L 533.756588 340.675331 
L 534.845546 340.236514 
L 535.934504 339.668634 
L 537.023461 346.650985 
L 538.112419 348.819256 
L 539.201376 340.365578 
L 540.290334 337.952085 
L 541.379291 342.237003 
L 542.468249 340.210701 
L 543.557206 339.733165 
L 544.646164 346.147636 
L 545.735122 348.870882 
L 547.913037 336.390413 
L 549.001994 338.855532 
L 550.090952 340.649518 
L 551.179909 340.120357 
L 552.268867 347.076895 
L 553.357824 349.296792 
L 554.446782 342.417692 
L 555.53574 339.707353 
L 557.713655 342.06922 
L 558.802612 341.03671 
L 560.980527 349.361324 
L 562.069485 340.159076 
L 563.158442 338.119868 
L 564.2474 339.475038 
L 565.336358 339.900948 
L 566.425315 338.752281 
L 567.514273 345.334534 
L 568.60323 348.251376 
L 569.692188 339.345974 
L 570.781145 335.357903 
L 572.95906 338.687749 
L 574.048018 335.809626 
L 575.136976 343.772862 
L 576.225933 348.290095 
L 577.314891 338.081149 
L 578.403848 331.9119 
L 579.492806 334.751303 
L 580.581763 336.842137 
L 581.670721 335.151401 
L 582.759678 342.701633 
L 583.848636 348.34172 
L 584.937594 348.48369 
L 586.026551 336.622728 
L 587.115509 332.311998 
L 588.204466 335.448248 
L 589.293424 335.861252 
L 590.382381 344.92153 
L 591.471339 348.303001 
L 592.560296 338.455434 
L 593.649254 336.003222 
L 594.738211 340.507548 
L 595.827169 340.920552 
L 596.916127 342.107939 
L 598.005084 345.837883 
L 599.094042 348.909601 
L 600.182999 342.714539 
L 601.271957 338.636123 
L 602.360914 342.404786 
L 603.449872 340.391391 
L 604.538829 340.365578 
L 605.627787 346.650985 
L 606.716745 349.542013 
L 607.805702 341.630403 
L 608.89466 346.870393 
L 609.983617 340.159076 
L 611.072575 339.707353 
L 612.161532 338.881344 
L 613.25049 347.322116 
L 614.339447 349.283886 
L 615.428405 340.468829 
L 616.517363 339.849323 
L 617.60632 341.204493 
L 618.695278 344.224585 
L 619.784235 343.824488 
L 620.873193 348.277188 
L 621.96215 350.084081 
L 623.051108 345.631381 
L 624.140065 342.662913 
L 626.317981 345.889508 
L 627.406938 345.631381 
L 629.584853 350.535805 
L 630.673811 345.592661 
L 631.762768 345.140938 
L 632.851726 347.386648 
L 633.940683 347.657682 
L 635.029641 347.063989 
L 636.118599 349.955018 
L 637.207556 350.935902 
L 638.296514 347.812559 
L 639.385471 346.999457 
L 640.474429 347.335023 
L 641.563386 348.238469 
L 642.652344 347.45118 
L 643.741301 350.226051 
L 644.830259 350.832651 
L 645.919217 347.838371 
L 647.008174 347.180146 
L 648.097132 348.48369 
L 649.186089 348.380439 
L 650.275047 348.845069 
L 652.452962 351.271468 
L 653.541919 349.167728 
L 654.630877 348.716005 
L 655.719835 349.477482 
L 656.808792 350.44546 
L 657.89775 350.355115 
L 658.986707 350.832651 
L 660.075665 351.697379 
L 661.164622 350.535805 
L 662.25358 350.458366 
L 663.342537 350.935902 
L 665.520453 350.91009 
L 666.60941 351.671566 
L 667.698368 351.761911 
L 668.787325 351.168217 
L 669.876283 351.361813 
L 672.054198 351.413438 
L 673.143155 351.865162 
L 674.232113 351.761911 
L 675.32107 351.852255 
L 676.410028 351.555409 
L 677.498986 351.387626 
L 678.587943 351.710285 
L 680.765858 351.61994 
L 681.854816 351.903881 
L 682.943773 351.903881 
L 684.032731 351.387626 
L 685.121688 351.064966 
L 686.210646 351.116592 
L 687.299604 350.922996 
L 688.388561 350.264771 
L 689.477519 351.684472 
L 690.566476 351.852255 
L 691.655434 350.922996 
L 692.744391 351.61994 
L 693.833349 351.284375 
L 694.922306 351.19403 
L 696.011264 351.219843 
L 697.100222 351.736098 
L 698.189179 351.890974 
L 699.278137 350.87137 
L 700.367094 350.58743 
L 701.456052 351.090779 
L 702.545009 351.271468 
L 703.633967 350.793932 
L 704.722924 351.594128 
L 705.811882 351.710285 
L 706.90084 350.639056 
L 707.989797 350.922996 
L 711.25667 350.251864 
L 712.345627 351.258562 
L 713.434585 351.607034 
L 714.523542 349.658171 
L 715.6125 350.213145 
L 718.879373 350.30349 
L 719.96833 351.129498 
L 721.057288 351.400532 
L 722.146245 349.219354 
L 723.235203 348.819256 
L 724.32416 348.80635 
L 725.413118 349.41295 
L 726.502076 348.586941 
L 727.591033 350.781026 
L 728.679991 351.284375 
L 729.768948 347.877091 
L 730.857906 347.038176 
L 731.946863 347.076895 
L 733.035821 347.709308 
L 734.124778 346.857487 
L 735.213736 348.857975 
L 736.302694 350.497085 
L 737.391651 345.850789 
L 738.480609 345.450691 
L 739.569566 345.424879 
L 740.658524 344.986062 
L 741.747481 345.0635 
L 742.836439 348.48369 
L 743.925396 350.16152 
L 745.014354 345.024781 
L 746.103312 342.146658 
L 747.192269 343.308232 
L 748.281227 344.108428 
L 749.370184 342.430599 
L 750.459142 347.91581 
L 751.548099 348.987039 
L 752.637057 340.688238 
L 753.726014 337.887553 
L 754.814972 338.881344 
L 755.90393 339.113659 
L 756.992887 337.977898 
L 758.081845 344.792466 
L 759.170802 348.354627 
L 760.25976 333.989827 
L 762.437675 334.880367 
L 763.526632 337.255141 
L 764.61559 335.899971 
L 765.704547 344.986062 
L 766.793505 348.251376 
L 767.882463 335.112682 
L 768.97142 336.674354 
L 770.060378 338.958783 
L 771.149335 339.862229 
L 772.238293 339.023315 
L 773.32725 346.263793 
L 774.416208 348.328814 
L 775.505165 338.597404 
L 776.594123 334.72549 
L 777.683081 338.700655 
L 778.772038 339.475038 
L 779.860996 339.191098 
L 780.949953 345.166751 
L 782.038911 349.103197 
L 783.127868 339.371787 
L 784.216826 336.364601 
L 785.305783 339.500851 
L 786.394741 341.152867 
L 787.483699 340.584986 
L 788.572656 345.695913 
L 789.661614 349.606545 
L 790.750571 338.971689 
L 791.839529 336.158099 
L 792.928486 338.055336 
L 794.017444 337.797209 
L 795.106401 333.434853 
L 796.195359 343.837394 
L 797.284317 347.296303 
L 798.373274 330.466385 
L 799.462232 324.310043 
L 800.551189 328.181956 
L 801.640147 326.504127 
L 802.729104 322.658026 
L 804.907019 342.882322 
L 805.995977 322.399899 
L 807.084935 311.106817 
L 808.173892 317.856853 
L 809.26285 320.038031 
L 810.351807 313.52031 
L 811.440765 330.55673 
L 812.529722 335.770907 
L 813.61868 337.319673 
L 814.707637 307.441406 
L 815.796595 293.657393 
L 816.885553 303.272645 
L 817.97451 304.71816 
L 819.063468 322.077239 
L 820.152425 335.448248 
L 821.241383 308.74495 
L 822.33034 294.173648 
L 823.419298 305.879734 
L 824.508255 307.609188 
L 825.597213 304.692347 
L 826.686171 321.457733 
L 827.775128 328.491709 
L 828.864086 303.350083 
L 829.953043 296.806549 
L 831.042001 304.692347 
L 832.130958 306.49924 
L 833.219916 310.24209 
L 834.308873 323.019405 
L 835.397831 333.964014 
L 836.486789 308.202882 
L 837.575746 311.403664 
L 838.664704 317.443849 
L 839.753661 321.509359 
L 840.842619 323.174281 
L 841.931576 332.931504 
L 843.020534 338.623217 
L 844.109491 319.93478 
L 845.198449 322.78709 
L 846.287406 324.56817 
L 847.376364 329.459688 
L 848.465322 327.355948 
L 849.554279 337.564894 
L 850.643237 342.004688 
L 851.732194 326.788067 
L 852.821152 327.665701 
L 853.910109 330.234071 
L 854.999067 334.931993 
L 856.088024 332.905691 
L 857.176982 341.901437 
L 858.26594 343.217888 
L 859.354897 329.885598 
L 861.532812 334.518988 
L 862.62177 335.51278 
L 863.710727 335.383716 
L 864.799685 342.095033 
L 865.888642 344.431087 
L 866.9776 331.950619 
L 868.066558 335.706375 
L 869.155515 337.461643 
L 870.244473 336.454945 
L 871.33343 337.964992 
L 872.422388 343.346952 
L 873.511345 342.998479 
L 874.600303 328.607867 
L 875.68926 327.910922 
L 876.778218 329.846879 
L 877.867176 327.536637 
L 878.956133 330.543824 
L 880.045091 341.127054 
L 881.134048 338.958783 
L 882.223006 308.189976 
L 883.311963 299.516889 
L 884.400921 302.536982 
L 885.489878 299.516889 
L 886.578836 293.799363 
L 887.667794 308.809482 
L 888.756751 319.676653 
L 889.845709 284.674553 
L 890.934666 256.203081 
L 892.023624 263.417747 
L 893.112581 262.682084 
L 894.201539 253.957372 
L 895.290496 274.272012 
L 896.379454 287.591395 
L 898.557369 193.271578 
L 899.646327 218.968178 
L 900.735284 224.750236 
L 901.824242 223.227283 
L 902.913199 172.827874 
L 904.002157 240.031389 
L 905.091114 186.366665 
L 906.180072 126.261659 
L 907.26903 168.38808 
L 908.357987 137.954838 
L 910.535902 173.060189 
L 911.62486 240.754146 
L 912.713817 199.363389 
L 913.802775 50.8755 
L 914.891732 134.405584 
L 915.98069 200.434618 
L 917.069648 192.316506 
L 918.158605 255.38998 
L 919.247563 280.131508 
L 920.33652 207.946131 
L 921.425478 285.86194 
L 922.514435 194.433152 
L 923.603393 254.17678 
L 924.69235 256.409583 
L 925.781308 296.742017 
L 926.870265 305.040819 
L 927.959223 258.384259 
L 929.048181 290.172671 
L 930.137138 291.592372 
L 931.226096 302.846735 
L 932.315053 303.014518 
L 933.404011 322.464431 
L 934.492968 325.716838 
L 935.581926 322.438618 
L 936.670883 320.180001 
L 937.759841 321.109261 
L 938.848799 326.478314 
L 939.937756 328.272301 
L 941.026714 340.275233 
L 942.115671 343.359858 
L 943.204629 319.04424 
L 944.293586 327.923829 
L 945.382544 327.394667 
L 946.471501 327.355948 
L 947.560459 327.652795 
L 948.649417 339.849323 
L 949.738374 342.030501 
L 950.827332 311.081004 
L 951.916289 323.187188 
L 953.005247 321.935269 
L 954.094204 323.174281 
L 955.183162 322.516056 
L 956.272119 337.706864 
L 957.361077 339.849323 
L 958.450035 297.167928 
L 959.538992 314.217254 
L 960.62795 312.332923 
L 962.805865 310.474405 
L 963.894822 332.983129 
L 964.98378 337.952085 
L 966.072737 287.242923 
L 967.161695 308.306133 
L 968.250653 309.416082 
L 969.33961 315.365922 
L 970.428568 313.365433 
L 971.517525 335.628937 
L 972.606483 339.384693 
L 973.69544 294.199461 
L 974.784398 312.048983 
L 975.873355 315.688582 
L 976.962313 320.618818 
L 978.051271 321.57389 
L 979.140228 339.3976 
L 980.229186 341.449714 
L 981.318143 307.609188 
L 982.407101 322.103052 
L 983.496058 321.89655 
L 984.585016 325.49743 
L 985.673973 327.730233 
L 986.762931 341.578778 
L 987.851889 345.050594 
L 988.940846 316.875969 
L 990.029804 329.95013 
L 991.118761 330.492198 
L 992.207719 334.570614 
L 993.296676 335.009431 
L 994.385634 344.74084 
L 995.474591 347.218865 
L 996.563549 345.799164 
L 997.652507 323.806694 
L 998.741464 335.47406 
L 999.830422 336.584009 
L 1000.919379 338.300557 
L 1002.008337 345.605568 
L 1003.097294 347.722214 
L 1004.186252 331.62796 
L 1005.275209 337.022826 
L 1006.364167 348.354627 
L 1007.453124 335.693469 
L 1008.542082 339.449225 
L 1009.63104 345.592661 
L 1010.719997 349.038665 
L 1011.808955 345.966946 
L 1012.897912 330.55673 
L 1013.98687 338.842625 
L 1015.075827 342.146658 
L 1016.164785 342.237003 
L 1017.253742 347.838371 
L 1018.3427 349.387137 
L 1019.431658 338.958783 
L 1020.520615 343.192075 
L 1021.609573 343.979364 
L 1022.69853 344.237492 
L 1023.787488 344.676309 
L 1024.876445 352.007132 
L 1027.05436 342.378973 
L 1028.143318 344.831185 
L 1029.232276 346.663891 
L 1030.321233 346.650985 
L 1031.410191 352.007132 
L 1032.499148 344.92153 
L 1033.588106 350.897183 
L 1034.677063 344.379462 
L 1035.766021 346.883299 
L 1036.854978 347.696401 
L 1039.032894 348.612754 
L 1040.121851 352.007132 
L 1041.210809 349.929205 
L 1042.299766 347.012363 
L 1044.477681 348.277188 
L 1045.566639 348.690192 
L 1046.655596 352.007132 
L 1047.744554 347.115614 
L 1048.833512 350.974621 
L 1049.922469 346.044385 
L 1051.011427 352.007132 
L 1052.100384 343.10173 
L 1053.189342 348.173937 
L 1054.278299 352.007132 
L 1055.367257 352.007132 
L 1056.456214 344.844092 
L 1057.545172 344.689215 
L 1058.63413 345.915321 
L 1060.812045 345.979853 
L 1061.901002 352.007132 
L 1062.98996 352.007132 
L 1064.078917 340.881833 
L 1065.167875 340.959271 
L 1066.256832 343.28242 
L 1067.34579 341.991782 
L 1068.434748 343.643798 
L 1069.523705 352.007132 
L 1070.612663 352.007132 
L 1071.70162 335.899971 
L 1072.790578 336.093567 
L 1073.879535 338.313464 
L 1074.968493 339.07494 
L 1076.05745 340.184889 
L 1077.146408 352.007132 
L 1078.235366 352.007132 
L 1079.324323 328.853088 
L 1080.413281 328.233582 
L 1081.502238 332.686283 
L 1082.591196 330.582543 
L 1083.680153 334.712584 
L 1084.769111 333.292882 
L 1085.858068 345.618474 
L 1086.947026 346.005666 
L 1088.035983 321.044729 
L 1089.124941 327.910922 
L 1090.213899 329.291905 
L 1091.302856 331.150424 
L 1092.391814 327.936735 
L 1093.480771 344.702121 
L 1094.569729 344.77956 
L 1095.658686 315.804739 
L 1096.747644 328.001267 
L 1097.836601 328.207769 
L 1098.925559 330.776139 
L 1100.014517 327.330135 
L 1101.103474 342.985573 
L 1102.192432 344.147147 
L 1103.281389 313.107306 
L 1104.370347 326.284719 
L 1105.459304 326.155655 
L 1106.548262 332.415249 
L 1107.637219 329.007965 
L 1108.726177 344.585964 
L 1109.815135 344.340743 
L 1110.904092 317.469662 
L 1111.99305 327.898016 
L 1113.082007 329.859786 
L 1114.170965 332.66047 
L 1115.259922 331.318206 
L 1116.34888 344.766653 
L 1117.437837 345.295815 
L 1118.526795 321.00601 
L 1119.615753 328.504616 
L 1121.793668 333.731699 
L 1122.882625 331.782836 
L 1123.971583 345.153845 
L 1125.06054 345.592661 
L 1126.149498 344.482713 
L 1127.238455 317.779415 
L 1128.327413 335.79672 
L 1129.416371 328.762743 
L 1130.505328 330.311509 
L 1131.594286 344.973155 
L 1132.683243 345.966946 
L 1133.772201 321.844924 
L 1134.861158 330.969734 
L 1135.950116 331.034266 
L 1137.039073 327.459199 
L 1138.128031 332.363623 
L 1139.216989 345.166751 
L 1140.305946 345.992759 
L 1141.394904 323.8196 
L 1142.483861 331.744117 
L 1143.572819 331.950619 
L 1144.661776 335.461154 
L 1145.750734 335.164307 
L 1146.839691 345.734632 
L 1147.928649 346.780048 
L 1149.017607 317.843947 
L 1150.106564 328.233582 
L 1151.195522 324.774672 
L 1152.284479 330.827764 
L 1153.373437 325.484523 
L 1154.462394 343.901926 
L 1155.551352 344.715028 
L 1156.640309 305.970078 
L 1157.729267 318.940989 
L 1158.818225 320.902759 
L 1159.907182 323.742162 
L 1160.99614 321.767486 
L 1162.085097 342.146658 
L 1163.174055 343.8503 
L 1164.263012 307.157465 
L 1165.35197 320.347784 
L 1166.440927 320.605912 
L 1167.529885 326.555753 
L 1168.618842 324.051915 
L 1169.7078 342.53385 
L 1170.796758 342.21119 
L 1171.885715 301.052748 
L 1172.974673 316.23065 
L 1174.06363 317.701977 
L 1175.152588 322.077239 
L 1176.241545 319.405619 
L 1177.330503 340.507548 
L 1178.41946 341.901437 
L 1179.508418 300.626838 
L 1180.597376 313.442872 
L 1182.775291 323.213001 
L 1183.864248 321.212512 
L 1184.953206 341.92725 
L 1186.042163 341.720748 
L 1187.131121 304.305155 
L 1188.220078 322.516056 
L 1189.309036 323.96157 
L 1190.397994 328.698212 
L 1191.486951 327.988361 
L 1192.575909 344.856998 
L 1193.664866 344.831185 
L 1194.753824 315.62405 
L 1195.842781 328.853088 
L 1196.931739 330.479292 
L 1198.020696 334.312486 
L 1199.109654 334.931993 
L 1200.198612 346.728423 
L 1201.287569 346.212168 
L 1202.376527 324.800485 
L 1203.465484 332.725002 
L 1204.554442 335.758001 
L 1205.643399 339.720259 
L 1206.732357 339.849323 
L 1207.821314 348.251376 
L 1208.910272 347.786746 
L 1209.99923 346.999457 
L 1211.088187 347.45118 
L 1212.177145 332.221653 
L 1213.266102 338.700655 
L 1214.35506 341.204493 
L 1215.444017 348.651473 
L 1216.532975 348.044873 
L 1217.621932 336.622728 
L 1218.71089 341.540059 
L 1219.799848 343.011386 
L 1220.888805 344.727934 
L 1221.977763 343.295326 
L 1223.06672 349.632358 
L 1224.155678 348.66438 
L 1225.244635 336.454945 
L 1226.333593 339.836417 
L 1227.42255 340.326859 
L 1228.511508 341.501339 
L 1229.600466 339.978387 
L 1230.689423 348.238469 
L 1231.778381 347.941622 
L 1232.867338 331.44727 
L 1233.956296 337.048639 
L 1235.045253 337.345485 
L 1236.134211 338.661936 
L 1237.223168 337.939179 
L 1238.312126 346.934925 
L 1239.401084 346.534827 
L 1240.490041 326.116936 
L 1241.578999 330.943921 
L 1242.667956 331.034266 
L 1243.756914 333.705887 
L 1244.845871 332.557219 
L 1245.934829 345.6701 
L 1247.023786 345.386159 
L 1248.112744 316.501684 
L 1249.201701 322.232116 
L 1250.290659 323.729256 
L 1251.379617 328.543335 
L 1252.468574 327.717327 
L 1253.557532 344.727934 
L 1254.646489 343.785768 
L 1255.735447 311.390757 
L 1256.824404 320.928571 
L 1257.913362 322.412805 
L 1259.002319 327.201072 
L 1260.091277 327.988361 
L 1261.180235 344.805372 
L 1262.269192 344.831185 
L 1263.35815 316.643654 
L 1264.447107 324.903736 
L 1265.536065 321.922363 
L 1266.625022 329.704909 
L 1267.71398 329.937224 
L 1268.802937 344.766653 
L 1269.891895 348.070686 
L 1270.980853 343.876113 
L 1272.06981 320.86404 
L 1273.158768 330.401854 
L 1274.247725 336.300069 
L 1275.336683 337.319673 
L 1276.42564 347.799652 
L 1277.514598 349.477482 
L 1278.603555 345.476504 
L 1279.692513 326.852599 
L 1280.781471 334.351205 
L 1281.870428 340.662425 
L 1282.959386 341.230305 
L 1284.048343 349.438762 
L 1285.137301 349.37423 
L 1286.226258 336.558196 
L 1287.315216 341.656216 
L 1288.404173 345.102219 
L 1290.582089 346.431576 
L 1291.671046 350.471273 
L 1292.760004 350.277677 
L 1293.848961 345.153845 
L 1297.115834 348.548222 
L 1298.204791 348.548222 
L 1299.293749 351.142404 
L 1300.382707 350.91009 
L 1301.471664 347.16724 
L 1302.560622 347.980342 
L 1303.649579 348.083593 
L 1304.738537 349.051571 
L 1305.827494 348.961226 
L 1306.916452 351.181124 
L 1308.005409 351.064966 
L 1309.094367 347.373742 
L 1309.094367 347.373742 
" clip-path="url(#pbbf589a8c3)" style="fill: none; stroke: #0000ff; stroke-width: 1.5; stroke-linecap: square"/>
   </g>
   <g id="line2d_17">
    <path d="M 1069.523705 346.545969 
L 1070.612663 348.397311 
L 1071.70162 342.822179 
L 1072.790578 340.353419 
L 1073.879535 340.923964 
L 1074.968493 338.948113 
L 1076.05745 340.636888 
L 1077.146408 344.47751 
L 1078.235366 347.32588 
L 1079.324323 338.328358 
L 1080.413281 335.601302 
L 1082.591196 334.373411 
L 1083.680153 334.397651 
L 1084.769111 340.778667 
L 1085.858068 337.338748 
L 1086.947026 327.04071 
L 1088.035983 331.583878 
L 1089.124941 331.214825 
L 1090.213899 329.839096 
L 1091.302856 330.681822 
L 1092.391814 335.580834 
L 1093.480771 336.030432 
L 1094.569729 336.678522 
L 1095.658686 325.478071 
L 1096.747644 326.916089 
L 1100.014517 330.229799 
L 1101.103474 337.001049 
L 1102.192432 339.792488 
L 1103.281389 322.097726 
L 1104.370347 326.829444 
L 1106.548262 327.90915 
L 1107.637219 328.83965 
L 1108.726177 337.33575 
L 1109.815135 341.643652 
L 1110.904092 320.880308 
L 1111.99305 329.517233 
L 1113.082007 328.833119 
L 1114.170965 333.117538 
L 1115.259922 330.866185 
L 1116.34888 341.205028 
L 1117.437837 342.430953 
L 1118.526795 324.422632 
L 1119.615753 330.747608 
L 1120.70471 331.360286 
L 1121.793668 333.580828 
L 1122.882625 332.656486 
L 1123.971583 341.471824 
L 1125.06054 343.060291 
L 1126.149498 326.36054 
L 1127.238455 339.116562 
L 1128.327413 331.341906 
L 1129.416371 339.056935 
L 1130.505328 329.387048 
L 1131.594286 345.289624 
L 1132.683243 339.189647 
L 1133.772201 339.642856 
L 1134.861158 319.037067 
L 1135.950116 335.021834 
L 1137.039073 327.862121 
L 1138.128031 331.902987 
L 1139.216989 337.37872 
L 1140.305946 344.105484 
L 1141.394904 329.555058 
L 1142.483861 329.211358 
L 1143.572819 333.532784 
L 1144.661776 329.597609 
L 1145.750734 335.643143 
L 1146.839691 342.549774 
L 1147.928649 345.913096 
L 1149.017607 330.087021 
L 1150.106564 331.386386 
L 1151.195522 331.462486 
L 1152.284479 329.034415 
L 1154.462394 334.426886 
L 1155.551352 340.40244 
L 1156.640309 320.882763 
L 1157.729267 323.836219 
L 1158.818225 320.367185 
L 1159.907182 323.664011 
L 1160.99614 322.394522 
L 1162.085097 331.09862 
L 1163.174055 336.244449 
L 1164.263012 313.779979 
L 1165.35197 320.233225 
L 1166.440927 321.424992 
L 1167.529885 323.400539 
L 1168.618842 324.115096 
L 1169.7078 335.573467 
L 1170.796758 340.146312 
L 1171.885715 314.685507 
L 1172.974673 319.71354 
L 1174.06363 319.394365 
L 1175.152588 321.686557 
L 1176.241545 321.266382 
L 1177.330503 331.182238 
L 1178.41946 335.532031 
L 1179.508418 309.331949 
L 1180.597376 316.985689 
L 1181.686333 316.997404 
L 1182.775291 320.657589 
L 1183.864248 320.656444 
L 1184.953206 333.439997 
L 1186.042163 337.493543 
L 1187.131121 310.424802 
L 1188.220078 318.143407 
L 1189.309036 322.870192 
L 1190.397994 326.11322 
L 1191.486951 326.748247 
L 1192.575909 339.642468 
L 1193.664866 342.96905 
L 1194.753824 316.536637 
L 1195.842781 328.439648 
L 1196.931739 330.182322 
L 1198.020696 333.6334 
L 1199.109654 333.38753 
L 1200.198612 345.880795 
L 1201.287569 346.295929 
L 1202.376527 324.558694 
L 1203.465484 334.47902 
L 1204.554442 335.196702 
L 1205.643399 338.347635 
L 1206.732357 338.645727 
L 1207.821314 348.497027 
L 1208.910272 347.836548 
L 1209.99923 331.517024 
L 1211.088187 343.829278 
L 1212.177145 345.903854 
L 1213.266102 345.138186 
L 1214.35506 342.712545 
L 1215.444017 349.817339 
L 1216.532975 349.450913 
L 1217.621932 342.263587 
L 1218.71089 342.366245 
L 1219.799848 335.121099 
L 1220.888805 341.514643 
L 1221.977763 344.01254 
L 1223.06672 348.931918 
L 1224.155678 348.663012 
L 1225.244635 342.690968 
L 1226.333593 343.408153 
L 1227.42255 341.022768 
L 1228.511508 342.401661 
L 1229.600466 341.784267 
L 1230.689423 345.248211 
L 1231.778381 345.713617 
L 1232.867338 338.234788 
L 1233.956296 338.468437 
L 1235.045253 338.256724 
L 1236.134211 338.630563 
L 1237.223168 338.497336 
L 1238.312126 342.488618 
L 1239.401084 344.217349 
L 1240.490041 334.091499 
L 1241.578999 335.03051 
L 1242.667956 334.22712 
L 1243.756914 333.711533 
L 1244.845871 333.815991 
L 1245.934829 337.938716 
L 1247.023786 340.820633 
L 1248.112744 328.363456 
L 1249.201701 328.195041 
L 1250.290659 326.738864 
L 1251.379617 326.97435 
L 1252.468574 327.851732 
L 1253.557532 333.881698 
L 1254.646489 338.083278 
L 1255.735447 320.898626 
L 1256.824404 322.364885 
L 1257.913362 323.090837 
L 1259.002319 325.609542 
L 1260.091277 326.720406 
L 1261.180235 335.950533 
L 1262.269192 339.37939 
L 1263.35815 319.330595 
L 1264.447107 324.869512 
L 1265.536065 326.218871 
L 1267.71398 329.867335 
L 1268.802937 339.833707 
L 1269.891895 342.407339 
L 1270.980853 323.274293 
L 1272.06981 337.222204 
L 1273.158768 328.672384 
L 1274.247725 337.749915 
L 1275.336683 333.985335 
L 1276.42564 350.543242 
L 1277.514598 346.70711 
L 1278.603555 342.300675 
L 1279.692513 332.52473 
L 1280.781471 335.147535 
L 1281.870428 339.922212 
L 1282.959386 339.849272 
L 1284.048343 349.352718 
L 1285.137301 349.632196 
L 1286.226258 346.020279 
L 1287.315216 330.401651 
L 1288.404173 340.23762 
L 1289.493131 344.534045 
L 1290.582089 347.212875 
L 1291.671046 350.990984 
L 1292.760004 353.2755 
L 1293.848961 344.628447 
L 1294.937919 344.039737 
L 1296.026876 347.826286 
L 1297.115834 348.864962 
L 1298.204791 349.18691 
L 1299.293749 352.716776 
L 1300.382707 352.411735 
L 1301.471664 347.125445 
L 1302.560622 347.6445 
L 1303.649579 348.99054 
L 1304.738537 349.528192 
L 1305.827494 349.484293 
L 1306.916452 351.525165 
L 1308.005409 351.390644 
L 1309.094367 348.043217 
L 1309.094367 348.043217 
" clip-path="url(#pbbf589a8c3)" style="fill: none; stroke: #ffa500; stroke-width: 1.5; stroke-linecap: square"/>
   </g>
   <g id="line2d_18">
    <path d="M 1310.183325 348.375464 
L 1311.272282 348.752324 
L 1312.36124 349.413289 
L 1313.450197 349.46037 
L 1314.539155 351.059387 
L 1315.628112 351.011971 
L 1316.71707 348.347423 
L 1317.806027 348.989277 
L 1318.894985 349.291112 
L 1319.983943 349.802995 
L 1321.0729 349.823965 
L 1322.161858 351.082478 
L 1323.250815 351.029688 
L 1324.339773 348.982788 
" clip-path="url(#pbbf589a8c3)" style="fill: none; stroke: #ff0000; stroke-width: 1.5; stroke-linecap: square"/>
   </g>
   <g id="patch_3">
    <path d="M 46.0125 368.3955 
L 46.0125 35.7555 
" style="fill: none; stroke: #000000; stroke-width: 0.8; stroke-linejoin: miter; stroke-linecap: square"/>
   </g>
   <g id="patch_4">
    <path d="M 1385.2125 368.3955 
L 1385.2125 35.7555 
" style="fill: none; stroke: #000000; stroke-width: 0.8; stroke-linejoin: miter; stroke-linecap: square"/>
   </g>
   <g id="patch_5">
    <path d="M 46.0125 368.3955 
L 1385.2125 368.3955 
" style="fill: none; stroke: #000000; stroke-width: 0.8; stroke-linejoin: miter; stroke-linecap: square"/>
   </g>
   <g id="patch_6">
    <path d="M 46.0125 35.7555 
L 1385.2125 35.7555 
" style="fill: none; stroke: #000000; stroke-width: 0.8; stroke-linejoin: miter; stroke-linecap: square"/>
   </g>
   <g id="text_16">
    <!-- Daily Confirmed Cases Forecasting - Slovenia -->
    <g transform="translate(579.575625 16.318125)scale(0.12 -0.12)">
     <defs>
      <path id="DejaVuSans-44" d="M 1259 4147 
L 1259 519 
L 2022 519 
Q 2988 519 3436 956 
Q 3884 1394 3884 2338 
Q 3884 3275 3436 3711 
Q 2988 4147 2022 4147 
L 1259 4147 
z
M 628 4666 
L 1925 4666 
Q 3281 4666 3915 4102 
Q 4550 3538 4550 2338 
Q 4550 1131 3912 565 
Q 3275 0 1925 0 
L 628 0 
L 628 4666 
z
" transform="scale(0.015625)"/>
      <path id="DejaVuSans-61" d="M 2194 1759 
Q 1497 1759 1228 1600 
Q 959 1441 959 1056 
Q 959 750 1161 570 
Q 1363 391 1709 391 
Q 2188 391 2477 730 
Q 2766 1069 2766 1631 
L 2766 1759 
L 2194 1759 
z
M 3341 1997 
L 3341 0 
L 2766 0 
L 2766 531 
Q 2569 213 2275 61 
Q 1981 -91 1556 -91 
Q 1019 -91 701 211 
Q 384 513 384 1019 
Q 384 1609 779 1909 
Q 1175 2209 1959 2209 
L 2766 2209 
L 2766 2266 
Q 2766 2663 2505 2880 
Q 2244 3097 1772 3097 
Q 1472 3097 1187 3025 
Q 903 2953 641 2809 
L 641 3341 
Q 956 3463 1253 3523 
Q 1550 3584 1831 3584 
Q 2591 3584 2966 3190 
Q 3341 2797 3341 1997 
z
" transform="scale(0.015625)"/>
      <path id="DejaVuSans-69" d="M 603 3500 
L 1178 3500 
L 1178 0 
L 603 0 
L 603 3500 
z
M 603 4863 
L 1178 4863 
L 1178 4134 
L 603 4134 
L 603 4863 
z
" transform="scale(0.015625)"/>
      <path id="DejaVuSans-6c" d="M 603 4863 
L 1178 4863 
L 1178 0 
L 603 0 
L 603 4863 
z
" transform="scale(0.015625)"/>
      <path id="DejaVuSans-79" d="M 2059 -325 
Q 1816 -950 1584 -1140 
Q 1353 -1331 966 -1331 
L 506 -1331 
L 506 -850 
L 844 -850 
Q 1081 -850 1212 -737 
Q 1344 -625 1503 -206 
L 1606 56 
L 191 3500 
L 800 3500 
L 1894 763 
L 2988 3500 
L 3597 3500 
L 2059 -325 
z
" transform="scale(0.015625)"/>
      <path id="DejaVuSans-20" transform="scale(0.015625)"/>
      <path id="DejaVuSans-43" d="M 4122 4306 
L 4122 3641 
Q 3803 3938 3442 4084 
Q 3081 4231 2675 4231 
Q 1875 4231 1450 3742 
Q 1025 3253 1025 2328 
Q 1025 1406 1450 917 
Q 1875 428 2675 428 
Q 3081 428 3442 575 
Q 3803 722 4122 1019 
L 4122 359 
Q 3791 134 3420 21 
Q 3050 -91 2638 -91 
Q 1578 -91 968 557 
Q 359 1206 359 2328 
Q 359 3453 968 4101 
Q 1578 4750 2638 4750 
Q 3056 4750 3426 4639 
Q 3797 4528 4122 4306 
z
" transform="scale(0.015625)"/>
      <path id="DejaVuSans-6f" d="M 1959 3097 
Q 1497 3097 1228 2736 
Q 959 2375 959 1747 
Q 959 1119 1226 758 
Q 1494 397 1959 397 
Q 2419 397 2687 759 
Q 2956 1122 2956 1747 
Q 2956 2369 2687 2733 
Q 2419 3097 1959 3097 
z
M 1959 3584 
Q 2709 3584 3137 3096 
Q 3566 2609 3566 1747 
Q 3566 888 3137 398 
Q 2709 -91 1959 -91 
Q 1206 -91 779 398 
Q 353 888 353 1747 
Q 353 2609 779 3096 
Q 1206 3584 1959 3584 
z
" transform="scale(0.015625)"/>
      <path id="DejaVuSans-6e" d="M 3513 2113 
L 3513 0 
L 2938 0 
L 2938 2094 
Q 2938 2591 2744 2837 
Q 2550 3084 2163 3084 
Q 1697 3084 1428 2787 
Q 1159 2491 1159 1978 
L 1159 0 
L 581 0 
L 581 3500 
L 1159 3500 
L 1159 2956 
Q 1366 3272 1645 3428 
Q 1925 3584 2291 3584 
Q 2894 3584 3203 3211 
Q 3513 2838 3513 2113 
z
" transform="scale(0.015625)"/>
      <path id="DejaVuSans-66" d="M 2375 4863 
L 2375 4384 
L 1825 4384 
Q 1516 4384 1395 4259 
Q 1275 4134 1275 3809 
L 1275 3500 
L 2222 3500 
L 2222 3053 
L 1275 3053 
L 1275 0 
L 697 0 
L 697 3053 
L 147 3053 
L 147 3500 
L 697 3500 
L 697 3744 
Q 697 4328 969 4595 
Q 1241 4863 1831 4863 
L 2375 4863 
z
" transform="scale(0.015625)"/>
      <path id="DejaVuSans-72" d="M 2631 2963 
Q 2534 3019 2420 3045 
Q 2306 3072 2169 3072 
Q 1681 3072 1420 2755 
Q 1159 2438 1159 1844 
L 1159 0 
L 581 0 
L 581 3500 
L 1159 3500 
L 1159 2956 
Q 1341 3275 1631 3429 
Q 1922 3584 2338 3584 
Q 2397 3584 2469 3576 
Q 2541 3569 2628 3553 
L 2631 2963 
z
" transform="scale(0.015625)"/>
      <path id="DejaVuSans-6d" d="M 3328 2828 
Q 3544 3216 3844 3400 
Q 4144 3584 4550 3584 
Q 5097 3584 5394 3201 
Q 5691 2819 5691 2113 
L 5691 0 
L 5113 0 
L 5113 2094 
Q 5113 2597 4934 2840 
Q 4756 3084 4391 3084 
Q 3944 3084 3684 2787 
Q 3425 2491 3425 1978 
L 3425 0 
L 2847 0 
L 2847 2094 
Q 2847 2600 2669 2842 
Q 2491 3084 2119 3084 
Q 1678 3084 1418 2786 
Q 1159 2488 1159 1978 
L 1159 0 
L 581 0 
L 581 3500 
L 1159 3500 
L 1159 2956 
Q 1356 3278 1631 3431 
Q 1906 3584 2284 3584 
Q 2666 3584 2933 3390 
Q 3200 3197 3328 2828 
z
" transform="scale(0.015625)"/>
      <path id="DejaVuSans-65" d="M 3597 1894 
L 3597 1613 
L 953 1613 
Q 991 1019 1311 708 
Q 1631 397 2203 397 
Q 2534 397 2845 478 
Q 3156 559 3463 722 
L 3463 178 
Q 3153 47 2828 -22 
Q 2503 -91 2169 -91 
Q 1331 -91 842 396 
Q 353 884 353 1716 
Q 353 2575 817 3079 
Q 1281 3584 2069 3584 
Q 2775 3584 3186 3129 
Q 3597 2675 3597 1894 
z
M 3022 2063 
Q 3016 2534 2758 2815 
Q 2500 3097 2075 3097 
Q 1594 3097 1305 2825 
Q 1016 2553 972 2059 
L 3022 2063 
z
" transform="scale(0.015625)"/>
      <path id="DejaVuSans-64" d="M 2906 2969 
L 2906 4863 
L 3481 4863 
L 3481 0 
L 2906 0 
L 2906 525 
Q 2725 213 2448 61 
Q 2172 -91 1784 -91 
Q 1150 -91 751 415 
Q 353 922 353 1747 
Q 353 2572 751 3078 
Q 1150 3584 1784 3584 
Q 2172 3584 2448 3432 
Q 2725 3281 2906 2969 
z
M 947 1747 
Q 947 1113 1208 752 
Q 1469 391 1925 391 
Q 2381 391 2643 752 
Q 2906 1113 2906 1747 
Q 2906 2381 2643 2742 
Q 2381 3103 1925 3103 
Q 1469 3103 1208 2742 
Q 947 2381 947 1747 
z
" transform="scale(0.015625)"/>
      <path id="DejaVuSans-73" d="M 2834 3397 
L 2834 2853 
Q 2591 2978 2328 3040 
Q 2066 3103 1784 3103 
Q 1356 3103 1142 2972 
Q 928 2841 928 2578 
Q 928 2378 1081 2264 
Q 1234 2150 1697 2047 
L 1894 2003 
Q 2506 1872 2764 1633 
Q 3022 1394 3022 966 
Q 3022 478 2636 193 
Q 2250 -91 1575 -91 
Q 1294 -91 989 -36 
Q 684 19 347 128 
L 347 722 
Q 666 556 975 473 
Q 1284 391 1588 391 
Q 1994 391 2212 530 
Q 2431 669 2431 922 
Q 2431 1156 2273 1281 
Q 2116 1406 1581 1522 
L 1381 1569 
Q 847 1681 609 1914 
Q 372 2147 372 2553 
Q 372 3047 722 3315 
Q 1072 3584 1716 3584 
Q 2034 3584 2315 3537 
Q 2597 3491 2834 3397 
z
" transform="scale(0.015625)"/>
      <path id="DejaVuSans-46" d="M 628 4666 
L 3309 4666 
L 3309 4134 
L 1259 4134 
L 1259 2759 
L 3109 2759 
L 3109 2228 
L 1259 2228 
L 1259 0 
L 628 0 
L 628 4666 
z
" transform="scale(0.015625)"/>
      <path id="DejaVuSans-63" d="M 3122 3366 
L 3122 2828 
Q 2878 2963 2633 3030 
Q 2388 3097 2138 3097 
Q 1578 3097 1268 2742 
Q 959 2388 959 1747 
Q 959 1106 1268 751 
Q 1578 397 2138 397 
Q 2388 397 2633 464 
Q 2878 531 3122 666 
L 3122 134 
Q 2881 22 2623 -34 
Q 2366 -91 2075 -91 
Q 1284 -91 818 406 
Q 353 903 353 1747 
Q 353 2603 823 3093 
Q 1294 3584 2113 3584 
Q 2378 3584 2631 3529 
Q 2884 3475 3122 3366 
z
" transform="scale(0.015625)"/>
      <path id="DejaVuSans-74" d="M 1172 4494 
L 1172 3500 
L 2356 3500 
L 2356 3053 
L 1172 3053 
L 1172 1153 
Q 1172 725 1289 603 
Q 1406 481 1766 481 
L 2356 481 
L 2356 0 
L 1766 0 
Q 1100 0 847 248 
Q 594 497 594 1153 
L 594 3053 
L 172 3053 
L 172 3500 
L 594 3500 
L 594 4494 
L 1172 4494 
z
" transform="scale(0.015625)"/>
      <path id="DejaVuSans-67" d="M 2906 1791 
Q 2906 2416 2648 2759 
Q 2391 3103 1925 3103 
Q 1463 3103 1205 2759 
Q 947 2416 947 1791 
Q 947 1169 1205 825 
Q 1463 481 1925 481 
Q 2391 481 2648 825 
Q 2906 1169 2906 1791 
z
M 3481 434 
Q 3481 -459 3084 -895 
Q 2688 -1331 1869 -1331 
Q 1566 -1331 1297 -1286 
Q 1028 -1241 775 -1147 
L 775 -588 
Q 1028 -725 1275 -790 
Q 1522 -856 1778 -856 
Q 2344 -856 2625 -561 
Q 2906 -266 2906 331 
L 2906 616 
Q 2728 306 2450 153 
Q 2172 0 1784 0 
Q 1141 0 747 490 
Q 353 981 353 1791 
Q 353 2603 747 3093 
Q 1141 3584 1784 3584 
Q 2172 3584 2450 3431 
Q 2728 3278 2906 2969 
L 2906 3500 
L 3481 3500 
L 3481 434 
z
" transform="scale(0.015625)"/>
      <path id="DejaVuSans-53" d="M 3425 4513 
L 3425 3897 
Q 3066 4069 2747 4153 
Q 2428 4238 2131 4238 
Q 1616 4238 1336 4038 
Q 1056 3838 1056 3469 
Q 1056 3159 1242 3001 
Q 1428 2844 1947 2747 
L 2328 2669 
Q 3034 2534 3370 2195 
Q 3706 1856 3706 1288 
Q 3706 609 3251 259 
Q 2797 -91 1919 -91 
Q 1588 -91 1214 -16 
Q 841 59 441 206 
L 441 856 
Q 825 641 1194 531 
Q 1563 422 1919 422 
Q 2459 422 2753 634 
Q 3047 847 3047 1241 
Q 3047 1584 2836 1778 
Q 2625 1972 2144 2069 
L 1759 2144 
Q 1053 2284 737 2584 
Q 422 2884 422 3419 
Q 422 4038 858 4394 
Q 1294 4750 2059 4750 
Q 2388 4750 2728 4690 
Q 3069 4631 3425 4513 
z
" transform="scale(0.015625)"/>
      <path id="DejaVuSans-76" d="M 191 3500 
L 800 3500 
L 1894 563 
L 2988 3500 
L 3597 3500 
L 2284 0 
L 1503 0 
L 191 3500 
z
" transform="scale(0.015625)"/>
     </defs>
     <use xlink:href="#DejaVuSans-44"/>
     <use xlink:href="#DejaVuSans-61" x="77.001953"/>
     <use xlink:href="#DejaVuSans-69" x="138.28125"/>
     <use xlink:href="#DejaVuSans-6c" x="166.064453"/>
     <use xlink:href="#DejaVuSans-79" x="193.847656"/>
     <use xlink:href="#DejaVuSans-20" x="253.027344"/>
     <use xlink:href="#DejaVuSans-43" x="284.814453"/>
     <use xlink:href="#DejaVuSans-6f" x="354.638672"/>
     <use xlink:href="#DejaVuSans-6e" x="415.820312"/>
     <use xlink:href="#DejaVuSans-66" x="479.199219"/>
     <use xlink:href="#DejaVuSans-69" x="514.404297"/>
     <use xlink:href="#DejaVuSans-72" x="542.1875"/>
     <use xlink:href="#DejaVuSans-6d" x="581.550781"/>
     <use xlink:href="#DejaVuSans-65" x="678.962891"/>
     <use xlink:href="#DejaVuSans-64" x="740.486328"/>
     <use xlink:href="#DejaVuSans-20" x="803.962891"/>
     <use xlink:href="#DejaVuSans-43" x="835.75"/>
     <use xlink:href="#DejaVuSans-61" x="905.574219"/>
     <use xlink:href="#DejaVuSans-73" x="966.853516"/>
     <use xlink:href="#DejaVuSans-65" x="1018.953125"/>
     <use xlink:href="#DejaVuSans-73" x="1080.476562"/>
     <use xlink:href="#DejaVuSans-20" x="1132.576172"/>
     <use xlink:href="#DejaVuSans-46" x="1164.363281"/>
     <use xlink:href="#DejaVuSans-6f" x="1218.257812"/>
     <use xlink:href="#DejaVuSans-72" x="1279.439453"/>
     <use xlink:href="#DejaVuSans-65" x="1318.302734"/>
     <use xlink:href="#DejaVuSans-63" x="1379.826172"/>
     <use xlink:href="#DejaVuSans-61" x="1434.806641"/>
     <use xlink:href="#DejaVuSans-73" x="1496.085938"/>
     <use xlink:href="#DejaVuSans-74" x="1548.185547"/>
     <use xlink:href="#DejaVuSans-69" x="1587.394531"/>
     <use xlink:href="#DejaVuSans-6e" x="1615.177734"/>
     <use xlink:href="#DejaVuSans-67" x="1678.556641"/>
     <use xlink:href="#DejaVuSans-20" x="1742.033203"/>
     <use xlink:href="#DejaVuSans-2d" x="1773.820312"/>
     <use xlink:href="#DejaVuSans-20" x="1809.904297"/>
     <use xlink:href="#DejaVuSans-53" x="1841.691406"/>
     <use xlink:href="#DejaVuSans-6c" x="1905.167969"/>
     <use xlink:href="#DejaVuSans-6f" x="1932.951172"/>
     <use xlink:href="#DejaVuSans-76" x="1994.132812"/>
     <use xlink:href="#DejaVuSans-65" x="2053.3125"/>
     <use xlink:href="#DejaVuSans-6e" x="2114.835938"/>
     <use xlink:href="#DejaVuSans-69" x="2178.214844"/>
     <use xlink:href="#DejaVuSans-61" x="2205.998047"/>
    </g>
    <!-- ARIMA (4, 1, 0)x(1, 0, 1, 7) (R2 = 0.742815) -->
    <g transform="translate(583.628438 29.7555)scale(0.12 -0.12)">
     <defs>
      <path id="DejaVuSans-41" d="M 2188 4044 
L 1331 1722 
L 3047 1722 
L 2188 4044 
z
M 1831 4666 
L 2547 4666 
L 4325 0 
L 3669 0 
L 3244 1197 
L 1141 1197 
L 716 0 
L 50 0 
L 1831 4666 
z
" transform="scale(0.015625)"/>
      <path id="DejaVuSans-52" d="M 2841 2188 
Q 3044 2119 3236 1894 
Q 3428 1669 3622 1275 
L 4263 0 
L 3584 0 
L 2988 1197 
Q 2756 1666 2539 1819 
Q 2322 1972 1947 1972 
L 1259 1972 
L 1259 0 
L 628 0 
L 628 4666 
L 2053 4666 
Q 2853 4666 3247 4331 
Q 3641 3997 3641 3322 
Q 3641 2881 3436 2590 
Q 3231 2300 2841 2188 
z
M 1259 4147 
L 1259 2491 
L 2053 2491 
Q 2509 2491 2742 2702 
Q 2975 2913 2975 3322 
Q 2975 3731 2742 3939 
Q 2509 4147 2053 4147 
L 1259 4147 
z
" transform="scale(0.015625)"/>
      <path id="DejaVuSans-49" d="M 628 4666 
L 1259 4666 
L 1259 0 
L 628 0 
L 628 4666 
z
" transform="scale(0.015625)"/>
      <path id="DejaVuSans-4d" d="M 628 4666 
L 1569 4666 
L 2759 1491 
L 3956 4666 
L 4897 4666 
L 4897 0 
L 4281 0 
L 4281 4097 
L 3078 897 
L 2444 897 
L 1241 4097 
L 1241 0 
L 628 0 
L 628 4666 
z
" transform="scale(0.015625)"/>
      <path id="DejaVuSans-28" d="M 1984 4856 
Q 1566 4138 1362 3434 
Q 1159 2731 1159 2009 
Q 1159 1288 1364 580 
Q 1569 -128 1984 -844 
L 1484 -844 
Q 1016 -109 783 600 
Q 550 1309 550 2009 
Q 550 2706 781 3412 
Q 1013 4119 1484 4856 
L 1984 4856 
z
" transform="scale(0.015625)"/>
      <path id="DejaVuSans-34" d="M 2419 4116 
L 825 1625 
L 2419 1625 
L 2419 4116 
z
M 2253 4666 
L 3047 4666 
L 3047 1625 
L 3713 1625 
L 3713 1100 
L 3047 1100 
L 3047 0 
L 2419 0 
L 2419 1100 
L 313 1100 
L 313 1709 
L 2253 4666 
z
" transform="scale(0.015625)"/>
      <path id="DejaVuSans-2c" d="M 750 794 
L 1409 794 
L 1409 256 
L 897 -744 
L 494 -744 
L 750 256 
L 750 794 
z
" transform="scale(0.015625)"/>
      <path id="DejaVuSans-29" d="M 513 4856 
L 1013 4856 
Q 1481 4119 1714 3412 
Q 1947 2706 1947 2009 
Q 1947 1309 1714 600 
Q 1481 -109 1013 -844 
L 513 -844 
Q 928 -128 1133 580 
Q 1338 1288 1338 2009 
Q 1338 2731 1133 3434 
Q 928 4138 513 4856 
z
" transform="scale(0.015625)"/>
      <path id="DejaVuSans-78" d="M 3513 3500 
L 2247 1797 
L 3578 0 
L 2900 0 
L 1881 1375 
L 863 0 
L 184 0 
L 1544 1831 
L 300 3500 
L 978 3500 
L 1906 2253 
L 2834 3500 
L 3513 3500 
z
" transform="scale(0.015625)"/>
      <path id="DejaVuSans-37" d="M 525 4666 
L 3525 4666 
L 3525 4397 
L 1831 0 
L 1172 0 
L 2766 4134 
L 525 4134 
L 525 4666 
z
" transform="scale(0.015625)"/>
      <path id="DejaVuSans-3d" d="M 678 2906 
L 4684 2906 
L 4684 2381 
L 678 2381 
L 678 2906 
z
M 678 1631 
L 4684 1631 
L 4684 1100 
L 678 1100 
L 678 1631 
z
" transform="scale(0.015625)"/>
      <path id="DejaVuSans-2e" d="M 684 794 
L 1344 794 
L 1344 0 
L 684 0 
L 684 794 
z
" transform="scale(0.015625)"/>
      <path id="DejaVuSans-38" d="M 2034 2216 
Q 1584 2216 1326 1975 
Q 1069 1734 1069 1313 
Q 1069 891 1326 650 
Q 1584 409 2034 409 
Q 2484 409 2743 651 
Q 3003 894 3003 1313 
Q 3003 1734 2745 1975 
Q 2488 2216 2034 2216 
z
M 1403 2484 
Q 997 2584 770 2862 
Q 544 3141 544 3541 
Q 544 4100 942 4425 
Q 1341 4750 2034 4750 
Q 2731 4750 3128 4425 
Q 3525 4100 3525 3541 
Q 3525 3141 3298 2862 
Q 3072 2584 2669 2484 
Q 3125 2378 3379 2068 
Q 3634 1759 3634 1313 
Q 3634 634 3220 271 
Q 2806 -91 2034 -91 
Q 1263 -91 848 271 
Q 434 634 434 1313 
Q 434 1759 690 2068 
Q 947 2378 1403 2484 
z
M 1172 3481 
Q 1172 3119 1398 2916 
Q 1625 2713 2034 2713 
Q 2441 2713 2670 2916 
Q 2900 3119 2900 3481 
Q 2900 3844 2670 4047 
Q 2441 4250 2034 4250 
Q 1625 4250 1398 4047 
Q 1172 3844 1172 3481 
z
" transform="scale(0.015625)"/>
     </defs>
     <use xlink:href="#DejaVuSans-41"/>
     <use xlink:href="#DejaVuSans-52" x="68.408203"/>
     <use xlink:href="#DejaVuSans-49" x="137.890625"/>
     <use xlink:href="#DejaVuSans-4d" x="167.382812"/>
     <use xlink:href="#DejaVuSans-41" x="253.662109"/>
     <use xlink:href="#DejaVuSans-20" x="322.070312"/>
     <use xlink:href="#DejaVuSans-28" x="353.857422"/>
     <use xlink:href="#DejaVuSans-34" x="392.871094"/>
     <use xlink:href="#DejaVuSans-2c" x="456.494141"/>
     <use xlink:href="#DejaVuSans-20" x="488.28125"/>
     <use xlink:href="#DejaVuSans-31" x="520.068359"/>
     <use xlink:href="#DejaVuSans-2c" x="583.691406"/>
     <use xlink:href="#DejaVuSans-20" x="615.478516"/>
     <use xlink:href="#DejaVuSans-30" x="647.265625"/>
     <use xlink:href="#DejaVuSans-29" x="710.888672"/>
     <use xlink:href="#DejaVuSans-78" x="749.902344"/>
     <use xlink:href="#DejaVuSans-28" x="809.082031"/>
     <use xlink:href="#DejaVuSans-31" x="848.095703"/>
     <use xlink:href="#DejaVuSans-2c" x="911.71875"/>
     <use xlink:href="#DejaVuSans-20" x="943.505859"/>
     <use xlink:href="#DejaVuSans-30" x="975.292969"/>
     <use xlink:href="#DejaVuSans-2c" x="1038.916016"/>
     <use xlink:href="#DejaVuSans-20" x="1070.703125"/>
     <use xlink:href="#DejaVuSans-31" x="1102.490234"/>
     <use xlink:href="#DejaVuSans-2c" x="1166.113281"/>
     <use xlink:href="#DejaVuSans-20" x="1197.900391"/>
     <use xlink:href="#DejaVuSans-37" x="1229.6875"/>
     <use xlink:href="#DejaVuSans-29" x="1293.310547"/>
     <use xlink:href="#DejaVuSans-20" x="1332.324219"/>
     <use xlink:href="#DejaVuSans-28" x="1364.111328"/>
     <use xlink:href="#DejaVuSans-52" x="1403.125"/>
     <use xlink:href="#DejaVuSans-32" x="1472.607422"/>
     <use xlink:href="#DejaVuSans-20" x="1536.230469"/>
     <use xlink:href="#DejaVuSans-3d" x="1568.017578"/>
     <use xlink:href="#DejaVuSans-20" x="1651.806641"/>
     <use xlink:href="#DejaVuSans-30" x="1683.59375"/>
     <use xlink:href="#DejaVuSans-2e" x="1747.216797"/>
     <use xlink:href="#DejaVuSans-37" x="1779.003906"/>
     <use xlink:href="#DejaVuSans-34" x="1842.626953"/>
     <use xlink:href="#DejaVuSans-32" x="1906.25"/>
     <use xlink:href="#DejaVuSans-38" x="1969.873047"/>
     <use xlink:href="#DejaVuSans-31" x="2033.496094"/>
     <use xlink:href="#DejaVuSans-35" x="2097.119141"/>
     <use xlink:href="#DejaVuSans-29" x="2160.742188"/>
    </g>
   </g>
   <g id="legend_1">
    <g id="patch_7">
     <path d="M 1281.132812 87.789875 
L 1378.2125 87.789875 
Q 1380.2125 87.789875 1380.2125 85.789875 
L 1380.2125 42.7555 
Q 1380.2125 40.7555 1378.2125 40.7555 
L 1281.132812 40.7555 
Q 1279.132812 40.7555 1279.132812 42.7555 
L 1279.132812 85.789875 
Q 1279.132812 87.789875 1281.132812 87.789875 
z
" style="fill: #ffffff; opacity: 0.8; stroke: #cccccc; stroke-linejoin: miter"/>
    </g>
    <g id="line2d_19">
     <path d="M 1283.132812 48.853937 
L 1293.132812 48.853937 
L 1303.132812 48.853937 
" style="fill: none; stroke: #0000ff; stroke-width: 1.5; stroke-linecap: square"/>
    </g>
    <g id="text_17">
     <!-- Actual Value -->
     <g transform="translate(1311.132812 52.353937)scale(0.1 -0.1)">
      <defs>
       <path id="DejaVuSans-75" d="M 544 1381 
L 544 3500 
L 1119 3500 
L 1119 1403 
Q 1119 906 1312 657 
Q 1506 409 1894 409 
Q 2359 409 2629 706 
Q 2900 1003 2900 1516 
L 2900 3500 
L 3475 3500 
L 3475 0 
L 2900 0 
L 2900 538 
Q 2691 219 2414 64 
Q 2138 -91 1772 -91 
Q 1169 -91 856 284 
Q 544 659 544 1381 
z
M 1991 3584 
L 1991 3584 
z
" transform="scale(0.015625)"/>
       <path id="DejaVuSans-56" d="M 1831 0 
L 50 4666 
L 709 4666 
L 2188 738 
L 3669 4666 
L 4325 4666 
L 2547 0 
L 1831 0 
z
" transform="scale(0.015625)"/>
      </defs>
      <use xlink:href="#DejaVuSans-41"/>
      <use xlink:href="#DejaVuSans-63" x="66.658203"/>
      <use xlink:href="#DejaVuSans-74" x="121.638672"/>
      <use xlink:href="#DejaVuSans-75" x="160.847656"/>
      <use xlink:href="#DejaVuSans-61" x="224.226562"/>
      <use xlink:href="#DejaVuSans-6c" x="285.505859"/>
      <use xlink:href="#DejaVuSans-20" x="313.289062"/>
      <use xlink:href="#DejaVuSans-56" x="345.076172"/>
      <use xlink:href="#DejaVuSans-61" x="405.734375"/>
      <use xlink:href="#DejaVuSans-6c" x="467.013672"/>
      <use xlink:href="#DejaVuSans-75" x="494.796875"/>
      <use xlink:href="#DejaVuSans-65" x="558.175781"/>
     </g>
    </g>
    <g id="line2d_20">
     <path d="M 1283.132812 63.532062 
L 1293.132812 63.532062 
L 1303.132812 63.532062 
" style="fill: none; stroke: #ffa500; stroke-width: 1.5; stroke-linecap: square"/>
    </g>
    <g id="text_18">
     <!-- Check Value -->
     <g transform="translate(1311.132812 67.032062)scale(0.1 -0.1)">
      <defs>
       <path id="DejaVuSans-68" d="M 3513 2113 
L 3513 0 
L 2938 0 
L 2938 2094 
Q 2938 2591 2744 2837 
Q 2550 3084 2163 3084 
Q 1697 3084 1428 2787 
Q 1159 2491 1159 1978 
L 1159 0 
L 581 0 
L 581 4863 
L 1159 4863 
L 1159 2956 
Q 1366 3272 1645 3428 
Q 1925 3584 2291 3584 
Q 2894 3584 3203 3211 
Q 3513 2838 3513 2113 
z
" transform="scale(0.015625)"/>
       <path id="DejaVuSans-6b" d="M 581 4863 
L 1159 4863 
L 1159 1991 
L 2875 3500 
L 3609 3500 
L 1753 1863 
L 3688 0 
L 2938 0 
L 1159 1709 
L 1159 0 
L 581 0 
L 581 4863 
z
" transform="scale(0.015625)"/>
      </defs>
      <use xlink:href="#DejaVuSans-43"/>
      <use xlink:href="#DejaVuSans-68" x="69.824219"/>
      <use xlink:href="#DejaVuSans-65" x="133.203125"/>
      <use xlink:href="#DejaVuSans-63" x="194.726562"/>
      <use xlink:href="#DejaVuSans-6b" x="249.707031"/>
      <use xlink:href="#DejaVuSans-20" x="307.617188"/>
      <use xlink:href="#DejaVuSans-56" x="339.404297"/>
      <use xlink:href="#DejaVuSans-61" x="400.0625"/>
      <use xlink:href="#DejaVuSans-6c" x="461.341797"/>
      <use xlink:href="#DejaVuSans-75" x="489.125"/>
      <use xlink:href="#DejaVuSans-65" x="552.503906"/>
     </g>
    </g>
    <g id="line2d_21">
     <path d="M 1283.132812 78.210187 
L 1293.132812 78.210187 
L 1303.132812 78.210187 
" style="fill: none; stroke: #ff0000; stroke-width: 1.5; stroke-linecap: square"/>
    </g>
    <g id="text_19">
     <!-- Predict Value -->
     <g transform="translate(1311.132812 81.710187)scale(0.1 -0.1)">
      <defs>
       <path id="DejaVuSans-50" d="M 1259 4147 
L 1259 2394 
L 2053 2394 
Q 2494 2394 2734 2622 
Q 2975 2850 2975 3272 
Q 2975 3691 2734 3919 
Q 2494 4147 2053 4147 
L 1259 4147 
z
M 628 4666 
L 2053 4666 
Q 2838 4666 3239 4311 
Q 3641 3956 3641 3272 
Q 3641 2581 3239 2228 
Q 2838 1875 2053 1875 
L 1259 1875 
L 1259 0 
L 628 0 
L 628 4666 
z
" transform="scale(0.015625)"/>
      </defs>
      <use xlink:href="#DejaVuSans-50"/>
      <use xlink:href="#DejaVuSans-72" x="58.552734"/>
      <use xlink:href="#DejaVuSans-65" x="97.416016"/>
      <use xlink:href="#DejaVuSans-64" x="158.939453"/>
      <use xlink:href="#DejaVuSans-69" x="222.416016"/>
      <use xlink:href="#DejaVuSans-63" x="250.199219"/>
      <use xlink:href="#DejaVuSans-74" x="305.179688"/>
      <use xlink:href="#DejaVuSans-20" x="344.388672"/>
      <use xlink:href="#DejaVuSans-56" x="376.175781"/>
      <use xlink:href="#DejaVuSans-61" x="436.833984"/>
      <use xlink:href="#DejaVuSans-6c" x="498.113281"/>
      <use xlink:href="#DejaVuSans-75" x="525.896484"/>
      <use xlink:href="#DejaVuSans-65" x="589.275391"/>
     </g>
    </g>
   </g>
  </g>
 </g>
 <defs>
  <clipPath id="pbbf589a8c3">
   <rect x="46.0125" y="35.7555" width="1339.2" height="332.64"/>
  </clipPath>
 </defs>
</svg>
