<?xml version="1.0" encoding="utf-8" standalone="no"?>
<!DOCTYPE svg PUBLIC "-//W3C//DTD SVG 1.1//EN"
  "http://www.w3.org/Graphics/SVG/1.1/DTD/svg11.dtd">
<svg xmlns:xlink="http://www.w3.org/1999/xlink" width="1400.792188pt" height="392.273625pt" viewBox="0 0 1400.792188 392.273625" xmlns="http://www.w3.org/2000/svg" version="1.1">
 <metadata>
  <rdf:RDF xmlns:dc="http://purl.org/dc/elements/1.1/" xmlns:cc="http://creativecommons.org/ns#" xmlns:rdf="http://www.w3.org/1999/02/22-rdf-syntax-ns#">
   <cc:Work>
    <dc:type rdf:resource="http://purl.org/dc/dcmitype/StillImage"/>
    <dc:date>2022-12-10T18:27:42.534477</dc:date>
    <dc:format>image/svg+xml</dc:format>
    <dc:creator>
     <cc:Agent>
      <dc:title>Matplotlib v3.5.1, https://matplotlib.org/</dc:title>
     </cc:Agent>
    </dc:creator>
   </cc:Work>
  </rdf:RDF>
 </metadata>
 <defs>
  <style type="text/css">*{stroke-linejoin: round; stroke-linecap: butt}</style>
 </defs>
 <g id="figure_1">
  <g id="patch_1">
   <path d="M 0 392.273625 
L 1400.792188 392.273625 
L 1400.792188 0 
L 0 0 
z
" style="fill: #ffffff"/>
  </g>
  <g id="axes_1">
   <g id="patch_2">
    <path d="M 54.392188 368.3955 
L 1393.592188 368.3955 
L 1393.592188 35.7555 
L 54.392188 35.7555 
z
" style="fill: #ffffff"/>
   </g>
   <g id="matplotlib.axis_1">
    <g id="xtick_1">
     <g id="line2d_1">
      <defs>
       <path id="m083fa4ea24" d="M 0 0 
L 0 3.5 
" style="stroke: #000000; stroke-width: 0.8"/>
      </defs>
      <g>
       <use xlink:href="#m083fa4ea24" x="90.115619" y="368.3955" style="stroke: #000000; stroke-width: 0.8"/>
      </g>
     </g>
     <g id="text_1">
      <!-- 2020-01 -->
      <g transform="translate(69.224213 382.993937)scale(0.1 -0.1)">
       <defs>
        <path id="DejaVuSans-32" d="M 1228 531 
L 3431 531 
L 3431 0 
L 469 0 
L 469 531 
Q 828 903 1448 1529 
Q 2069 2156 2228 2338 
Q 2531 2678 2651 2914 
Q 2772 3150 2772 3378 
Q 2772 3750 2511 3984 
Q 2250 4219 1831 4219 
Q 1534 4219 1204 4116 
Q 875 4013 500 3803 
L 500 4441 
Q 881 4594 1212 4672 
Q 1544 4750 1819 4750 
Q 2544 4750 2975 4387 
Q 3406 4025 3406 3419 
Q 3406 3131 3298 2873 
Q 3191 2616 2906 2266 
Q 2828 2175 2409 1742 
Q 1991 1309 1228 531 
z
" transform="scale(0.015625)"/>
        <path id="DejaVuSans-30" d="M 2034 4250 
Q 1547 4250 1301 3770 
Q 1056 3291 1056 2328 
Q 1056 1369 1301 889 
Q 1547 409 2034 409 
Q 2525 409 2770 889 
Q 3016 1369 3016 2328 
Q 3016 3291 2770 3770 
Q 2525 4250 2034 4250 
z
M 2034 4750 
Q 2819 4750 3233 4129 
Q 3647 3509 3647 2328 
Q 3647 1150 3233 529 
Q 2819 -91 2034 -91 
Q 1250 -91 836 529 
Q 422 1150 422 2328 
Q 422 3509 836 4129 
Q 1250 4750 2034 4750 
z
" transform="scale(0.015625)"/>
        <path id="DejaVuSans-2d" d="M 313 2009 
L 1997 2009 
L 1997 1497 
L 313 1497 
L 313 2009 
z
" transform="scale(0.015625)"/>
        <path id="DejaVuSans-31" d="M 794 531 
L 1825 531 
L 1825 4091 
L 703 3866 
L 703 4441 
L 1819 4666 
L 2450 4666 
L 2450 531 
L 3481 531 
L 3481 0 
L 794 0 
L 794 531 
z
" transform="scale(0.015625)"/>
       </defs>
       <use xlink:href="#DejaVuSans-32"/>
       <use xlink:href="#DejaVuSans-30" x="63.623047"/>
       <use xlink:href="#DejaVuSans-32" x="127.246094"/>
       <use xlink:href="#DejaVuSans-30" x="190.869141"/>
       <use xlink:href="#DejaVuSans-2d" x="254.492188"/>
       <use xlink:href="#DejaVuSans-30" x="290.576172"/>
       <use xlink:href="#DejaVuSans-31" x="354.199219"/>
      </g>
     </g>
    </g>
    <g id="xtick_2">
     <g id="line2d_2">
      <g>
       <use xlink:href="#m083fa4ea24" x="228.436746" y="368.3955" style="stroke: #000000; stroke-width: 0.8"/>
      </g>
     </g>
     <g id="text_2">
      <!-- 2020-05 -->
      <g transform="translate(207.54534 382.993937)scale(0.1 -0.1)">
       <defs>
        <path id="DejaVuSans-35" d="M 691 4666 
L 3169 4666 
L 3169 4134 
L 1269 4134 
L 1269 2991 
Q 1406 3038 1543 3061 
Q 1681 3084 1819 3084 
Q 2600 3084 3056 2656 
Q 3513 2228 3513 1497 
Q 3513 744 3044 326 
Q 2575 -91 1722 -91 
Q 1428 -91 1123 -41 
Q 819 9 494 109 
L 494 744 
Q 775 591 1075 516 
Q 1375 441 1709 441 
Q 2250 441 2565 725 
Q 2881 1009 2881 1497 
Q 2881 1984 2565 2268 
Q 2250 2553 1709 2553 
Q 1456 2553 1204 2497 
Q 953 2441 691 2322 
L 691 4666 
z
" transform="scale(0.015625)"/>
       </defs>
       <use xlink:href="#DejaVuSans-32"/>
       <use xlink:href="#DejaVuSans-30" x="63.623047"/>
       <use xlink:href="#DejaVuSans-32" x="127.246094"/>
       <use xlink:href="#DejaVuSans-30" x="190.869141"/>
       <use xlink:href="#DejaVuSans-2d" x="254.492188"/>
       <use xlink:href="#DejaVuSans-30" x="290.576172"/>
       <use xlink:href="#DejaVuSans-35" x="354.199219"/>
      </g>
     </g>
    </g>
    <g id="xtick_3">
     <g id="line2d_3">
      <g>
       <use xlink:href="#m083fa4ea24" x="369.044172" y="368.3955" style="stroke: #000000; stroke-width: 0.8"/>
      </g>
     </g>
     <g id="text_3">
      <!-- 2020-09 -->
      <g transform="translate(348.152766 382.993937)scale(0.1 -0.1)">
       <defs>
        <path id="DejaVuSans-39" d="M 703 97 
L 703 672 
Q 941 559 1184 500 
Q 1428 441 1663 441 
Q 2288 441 2617 861 
Q 2947 1281 2994 2138 
Q 2813 1869 2534 1725 
Q 2256 1581 1919 1581 
Q 1219 1581 811 2004 
Q 403 2428 403 3163 
Q 403 3881 828 4315 
Q 1253 4750 1959 4750 
Q 2769 4750 3195 4129 
Q 3622 3509 3622 2328 
Q 3622 1225 3098 567 
Q 2575 -91 1691 -91 
Q 1453 -91 1209 -44 
Q 966 3 703 97 
z
M 1959 2075 
Q 2384 2075 2632 2365 
Q 2881 2656 2881 3163 
Q 2881 3666 2632 3958 
Q 2384 4250 1959 4250 
Q 1534 4250 1286 3958 
Q 1038 3666 1038 3163 
Q 1038 2656 1286 2365 
Q 1534 2075 1959 2075 
z
" transform="scale(0.015625)"/>
       </defs>
       <use xlink:href="#DejaVuSans-32"/>
       <use xlink:href="#DejaVuSans-30" x="63.623047"/>
       <use xlink:href="#DejaVuSans-32" x="127.246094"/>
       <use xlink:href="#DejaVuSans-30" x="190.869141"/>
       <use xlink:href="#DejaVuSans-2d" x="254.492188"/>
       <use xlink:href="#DejaVuSans-30" x="290.576172"/>
       <use xlink:href="#DejaVuSans-39" x="354.199219"/>
      </g>
     </g>
    </g>
    <g id="xtick_4">
     <g id="line2d_4">
      <g>
       <use xlink:href="#m083fa4ea24" x="508.508449" y="368.3955" style="stroke: #000000; stroke-width: 0.8"/>
      </g>
     </g>
     <g id="text_4">
      <!-- 2021-01 -->
      <g transform="translate(487.617042 382.993937)scale(0.1 -0.1)">
       <use xlink:href="#DejaVuSans-32"/>
       <use xlink:href="#DejaVuSans-30" x="63.623047"/>
       <use xlink:href="#DejaVuSans-32" x="127.246094"/>
       <use xlink:href="#DejaVuSans-31" x="190.869141"/>
       <use xlink:href="#DejaVuSans-2d" x="254.492188"/>
       <use xlink:href="#DejaVuSans-30" x="290.576172"/>
       <use xlink:href="#DejaVuSans-31" x="354.199219"/>
      </g>
     </g>
    </g>
    <g id="xtick_5">
     <g id="line2d_5">
      <g>
       <use xlink:href="#m083fa4ea24" x="645.686426" y="368.3955" style="stroke: #000000; stroke-width: 0.8"/>
      </g>
     </g>
     <g id="text_5">
      <!-- 2021-05 -->
      <g transform="translate(624.795019 382.993937)scale(0.1 -0.1)">
       <use xlink:href="#DejaVuSans-32"/>
       <use xlink:href="#DejaVuSans-30" x="63.623047"/>
       <use xlink:href="#DejaVuSans-32" x="127.246094"/>
       <use xlink:href="#DejaVuSans-31" x="190.869141"/>
       <use xlink:href="#DejaVuSans-2d" x="254.492188"/>
       <use xlink:href="#DejaVuSans-30" x="290.576172"/>
       <use xlink:href="#DejaVuSans-35" x="354.199219"/>
      </g>
     </g>
    </g>
    <g id="xtick_6">
     <g id="line2d_6">
      <g>
       <use xlink:href="#m083fa4ea24" x="786.293852" y="368.3955" style="stroke: #000000; stroke-width: 0.8"/>
      </g>
     </g>
     <g id="text_6">
      <!-- 2021-09 -->
      <g transform="translate(765.402446 382.993937)scale(0.1 -0.1)">
       <use xlink:href="#DejaVuSans-32"/>
       <use xlink:href="#DejaVuSans-30" x="63.623047"/>
       <use xlink:href="#DejaVuSans-32" x="127.246094"/>
       <use xlink:href="#DejaVuSans-31" x="190.869141"/>
       <use xlink:href="#DejaVuSans-2d" x="254.492188"/>
       <use xlink:href="#DejaVuSans-30" x="290.576172"/>
       <use xlink:href="#DejaVuSans-39" x="354.199219"/>
      </g>
     </g>
    </g>
    <g id="xtick_7">
     <g id="line2d_7">
      <g>
       <use xlink:href="#m083fa4ea24" x="925.758129" y="368.3955" style="stroke: #000000; stroke-width: 0.8"/>
      </g>
     </g>
     <g id="text_7">
      <!-- 2022-01 -->
      <g transform="translate(904.866722 382.993937)scale(0.1 -0.1)">
       <use xlink:href="#DejaVuSans-32"/>
       <use xlink:href="#DejaVuSans-30" x="63.623047"/>
       <use xlink:href="#DejaVuSans-32" x="127.246094"/>
       <use xlink:href="#DejaVuSans-32" x="190.869141"/>
       <use xlink:href="#DejaVuSans-2d" x="254.492188"/>
       <use xlink:href="#DejaVuSans-30" x="290.576172"/>
       <use xlink:href="#DejaVuSans-31" x="354.199219"/>
      </g>
     </g>
    </g>
    <g id="xtick_8">
     <g id="line2d_8">
      <g>
       <use xlink:href="#m083fa4ea24" x="1062.936106" y="368.3955" style="stroke: #000000; stroke-width: 0.8"/>
      </g>
     </g>
     <g id="text_8">
      <!-- 2022-05 -->
      <g transform="translate(1042.044699 382.993937)scale(0.1 -0.1)">
       <use xlink:href="#DejaVuSans-32"/>
       <use xlink:href="#DejaVuSans-30" x="63.623047"/>
       <use xlink:href="#DejaVuSans-32" x="127.246094"/>
       <use xlink:href="#DejaVuSans-32" x="190.869141"/>
       <use xlink:href="#DejaVuSans-2d" x="254.492188"/>
       <use xlink:href="#DejaVuSans-30" x="290.576172"/>
       <use xlink:href="#DejaVuSans-35" x="354.199219"/>
      </g>
     </g>
    </g>
    <g id="xtick_9">
     <g id="line2d_9">
      <g>
       <use xlink:href="#m083fa4ea24" x="1203.543532" y="368.3955" style="stroke: #000000; stroke-width: 0.8"/>
      </g>
     </g>
     <g id="text_9">
      <!-- 2022-09 -->
      <g transform="translate(1182.652126 382.993937)scale(0.1 -0.1)">
       <use xlink:href="#DejaVuSans-32"/>
       <use xlink:href="#DejaVuSans-30" x="63.623047"/>
       <use xlink:href="#DejaVuSans-32" x="127.246094"/>
       <use xlink:href="#DejaVuSans-32" x="190.869141"/>
       <use xlink:href="#DejaVuSans-2d" x="254.492188"/>
       <use xlink:href="#DejaVuSans-30" x="290.576172"/>
       <use xlink:href="#DejaVuSans-39" x="354.199219"/>
      </g>
     </g>
    </g>
    <g id="xtick_10">
     <g id="line2d_10">
      <g>
       <use xlink:href="#m083fa4ea24" x="1343.007808" y="368.3955" style="stroke: #000000; stroke-width: 0.8"/>
      </g>
     </g>
     <g id="text_10">
      <!-- 2023-01 -->
      <g transform="translate(1322.116402 382.993937)scale(0.1 -0.1)">
       <defs>
        <path id="DejaVuSans-33" d="M 2597 2516 
Q 3050 2419 3304 2112 
Q 3559 1806 3559 1356 
Q 3559 666 3084 287 
Q 2609 -91 1734 -91 
Q 1441 -91 1130 -33 
Q 819 25 488 141 
L 488 750 
Q 750 597 1062 519 
Q 1375 441 1716 441 
Q 2309 441 2620 675 
Q 2931 909 2931 1356 
Q 2931 1769 2642 2001 
Q 2353 2234 1838 2234 
L 1294 2234 
L 1294 2753 
L 1863 2753 
Q 2328 2753 2575 2939 
Q 2822 3125 2822 3475 
Q 2822 3834 2567 4026 
Q 2313 4219 1838 4219 
Q 1578 4219 1281 4162 
Q 984 4106 628 3988 
L 628 4550 
Q 988 4650 1302 4700 
Q 1616 4750 1894 4750 
Q 2613 4750 3031 4423 
Q 3450 4097 3450 3541 
Q 3450 3153 3228 2886 
Q 3006 2619 2597 2516 
z
" transform="scale(0.015625)"/>
       </defs>
       <use xlink:href="#DejaVuSans-32"/>
       <use xlink:href="#DejaVuSans-30" x="63.623047"/>
       <use xlink:href="#DejaVuSans-32" x="127.246094"/>
       <use xlink:href="#DejaVuSans-33" x="190.869141"/>
       <use xlink:href="#DejaVuSans-2d" x="254.492188"/>
       <use xlink:href="#DejaVuSans-30" x="290.576172"/>
       <use xlink:href="#DejaVuSans-31" x="354.199219"/>
      </g>
     </g>
    </g>
   </g>
   <g id="matplotlib.axis_2">
    <g id="ytick_1">
     <g id="line2d_11">
      <defs>
       <path id="m8ea09a674e" d="M 0 0 
L -3.5 0 
" style="stroke: #000000; stroke-width: 0.8"/>
      </defs>
      <g>
       <use xlink:href="#m8ea09a674e" x="54.392188" y="341.74869" style="stroke: #000000; stroke-width: 0.8"/>
      </g>
     </g>
     <g id="text_11">
      <!-- −10000 -->
      <g transform="translate(7.2 345.547909)scale(0.1 -0.1)">
       <defs>
        <path id="DejaVuSans-2212" d="M 678 2272 
L 4684 2272 
L 4684 1741 
L 678 1741 
L 678 2272 
z
" transform="scale(0.015625)"/>
       </defs>
       <use xlink:href="#DejaVuSans-2212"/>
       <use xlink:href="#DejaVuSans-31" x="83.789062"/>
       <use xlink:href="#DejaVuSans-30" x="147.412109"/>
       <use xlink:href="#DejaVuSans-30" x="211.035156"/>
       <use xlink:href="#DejaVuSans-30" x="274.658203"/>
       <use xlink:href="#DejaVuSans-30" x="338.28125"/>
      </g>
     </g>
    </g>
    <g id="ytick_2">
     <g id="line2d_12">
      <g>
       <use xlink:href="#m8ea09a674e" x="54.392188" y="302.461677" style="stroke: #000000; stroke-width: 0.8"/>
      </g>
     </g>
     <g id="text_12">
      <!-- 0 -->
      <g transform="translate(41.029688 306.260896)scale(0.1 -0.1)">
       <use xlink:href="#DejaVuSans-30"/>
      </g>
     </g>
    </g>
    <g id="ytick_3">
     <g id="line2d_13">
      <g>
       <use xlink:href="#m8ea09a674e" x="54.392188" y="263.174663" style="stroke: #000000; stroke-width: 0.8"/>
      </g>
     </g>
     <g id="text_13">
      <!-- 10000 -->
      <g transform="translate(15.579688 266.973882)scale(0.1 -0.1)">
       <use xlink:href="#DejaVuSans-31"/>
       <use xlink:href="#DejaVuSans-30" x="63.623047"/>
       <use xlink:href="#DejaVuSans-30" x="127.246094"/>
       <use xlink:href="#DejaVuSans-30" x="190.869141"/>
       <use xlink:href="#DejaVuSans-30" x="254.492188"/>
      </g>
     </g>
    </g>
    <g id="ytick_4">
     <g id="line2d_14">
      <g>
       <use xlink:href="#m8ea09a674e" x="54.392188" y="223.88765" style="stroke: #000000; stroke-width: 0.8"/>
      </g>
     </g>
     <g id="text_14">
      <!-- 20000 -->
      <g transform="translate(15.579688 227.686869)scale(0.1 -0.1)">
       <use xlink:href="#DejaVuSans-32"/>
       <use xlink:href="#DejaVuSans-30" x="63.623047"/>
       <use xlink:href="#DejaVuSans-30" x="127.246094"/>
       <use xlink:href="#DejaVuSans-30" x="190.869141"/>
       <use xlink:href="#DejaVuSans-30" x="254.492188"/>
      </g>
     </g>
    </g>
    <g id="ytick_5">
     <g id="line2d_15">
      <g>
       <use xlink:href="#m8ea09a674e" x="54.392188" y="184.600636" style="stroke: #000000; stroke-width: 0.8"/>
      </g>
     </g>
     <g id="text_15">
      <!-- 30000 -->
      <g transform="translate(15.579688 188.399855)scale(0.1 -0.1)">
       <use xlink:href="#DejaVuSans-33"/>
       <use xlink:href="#DejaVuSans-30" x="63.623047"/>
       <use xlink:href="#DejaVuSans-30" x="127.246094"/>
       <use xlink:href="#DejaVuSans-30" x="190.869141"/>
       <use xlink:href="#DejaVuSans-30" x="254.492188"/>
      </g>
     </g>
    </g>
    <g id="ytick_6">
     <g id="line2d_16">
      <g>
       <use xlink:href="#m8ea09a674e" x="54.392188" y="145.313623" style="stroke: #000000; stroke-width: 0.8"/>
      </g>
     </g>
     <g id="text_16">
      <!-- 40000 -->
      <g transform="translate(15.579688 149.112842)scale(0.1 -0.1)">
       <defs>
        <path id="DejaVuSans-34" d="M 2419 4116 
L 825 1625 
L 2419 1625 
L 2419 4116 
z
M 2253 4666 
L 3047 4666 
L 3047 1625 
L 3713 1625 
L 3713 1100 
L 3047 1100 
L 3047 0 
L 2419 0 
L 2419 1100 
L 313 1100 
L 313 1709 
L 2253 4666 
z
" transform="scale(0.015625)"/>
       </defs>
       <use xlink:href="#DejaVuSans-34"/>
       <use xlink:href="#DejaVuSans-30" x="63.623047"/>
       <use xlink:href="#DejaVuSans-30" x="127.246094"/>
       <use xlink:href="#DejaVuSans-30" x="190.869141"/>
       <use xlink:href="#DejaVuSans-30" x="254.492188"/>
      </g>
     </g>
    </g>
    <g id="ytick_7">
     <g id="line2d_17">
      <g>
       <use xlink:href="#m8ea09a674e" x="54.392188" y="106.026609" style="stroke: #000000; stroke-width: 0.8"/>
      </g>
     </g>
     <g id="text_17">
      <!-- 50000 -->
      <g transform="translate(15.579688 109.825828)scale(0.1 -0.1)">
       <use xlink:href="#DejaVuSans-35"/>
       <use xlink:href="#DejaVuSans-30" x="63.623047"/>
       <use xlink:href="#DejaVuSans-30" x="127.246094"/>
       <use xlink:href="#DejaVuSans-30" x="190.869141"/>
       <use xlink:href="#DejaVuSans-30" x="254.492188"/>
      </g>
     </g>
    </g>
    <g id="ytick_8">
     <g id="line2d_18">
      <g>
       <use xlink:href="#m8ea09a674e" x="54.392188" y="66.739596" style="stroke: #000000; stroke-width: 0.8"/>
      </g>
     </g>
     <g id="text_18">
      <!-- 60000 -->
      <g transform="translate(15.579688 70.538815)scale(0.1 -0.1)">
       <defs>
        <path id="DejaVuSans-36" d="M 2113 2584 
Q 1688 2584 1439 2293 
Q 1191 2003 1191 1497 
Q 1191 994 1439 701 
Q 1688 409 2113 409 
Q 2538 409 2786 701 
Q 3034 994 3034 1497 
Q 3034 2003 2786 2293 
Q 2538 2584 2113 2584 
z
M 3366 4563 
L 3366 3988 
Q 3128 4100 2886 4159 
Q 2644 4219 2406 4219 
Q 1781 4219 1451 3797 
Q 1122 3375 1075 2522 
Q 1259 2794 1537 2939 
Q 1816 3084 2150 3084 
Q 2853 3084 3261 2657 
Q 3669 2231 3669 1497 
Q 3669 778 3244 343 
Q 2819 -91 2113 -91 
Q 1303 -91 875 529 
Q 447 1150 447 2328 
Q 447 3434 972 4092 
Q 1497 4750 2381 4750 
Q 2619 4750 2861 4703 
Q 3103 4656 3366 4563 
z
" transform="scale(0.015625)"/>
       </defs>
       <use xlink:href="#DejaVuSans-36"/>
       <use xlink:href="#DejaVuSans-30" x="63.623047"/>
       <use xlink:href="#DejaVuSans-30" x="127.246094"/>
       <use xlink:href="#DejaVuSans-30" x="190.869141"/>
       <use xlink:href="#DejaVuSans-30" x="254.492188"/>
      </g>
     </g>
    </g>
   </g>
   <g id="line2d_19">
    <path d="M 115.264915 302.461677 
L 165.563506 302.426318 
L 167.849806 302.371317 
L 171.279255 302.245598 
L 172.422405 302.033448 
L 173.565555 302.080593 
L 174.708705 301.746653 
L 175.851855 301.63665 
L 176.995004 301.683794 
L 178.138154 301.57379 
L 179.281304 301.102346 
L 180.424454 301.0002 
L 182.710753 300.45411 
L 183.853903 300.316606 
L 186.140203 299.762659 
L 188.426502 299.499436 
L 189.569652 298.312968 
L 190.712802 299.291215 
L 191.855952 300.037668 
L 192.999102 300.312677 
L 194.142252 299.817661 
L 195.285401 300.30482 
L 196.428551 300.30482 
L 197.571701 300.740906 
L 198.714851 300.846981 
L 199.858001 301.467715 
L 201.00115 301.742724 
L 202.1443 301.259494 
L 205.57375 301.377355 
L 206.716899 301.05913 
L 207.860049 301.66415 
L 209.003199 302.025591 
L 210.146349 302.11988 
L 211.289499 301.872372 
L 217.005248 302.277028 
L 219.291547 302.186668 
L 223.864147 302.218097 
L 225.007296 302.324172 
L 226.150446 302.186668 
L 227.293596 302.26917 
L 229.579896 302.249527 
L 233.009345 302.414532 
L 236.438794 302.280957 
L 241.011394 302.402746 
L 242.154543 302.202383 
L 243.297693 302.312386 
L 246.727143 302.143452 
L 247.870292 302.402746 
L 251.299742 302.222026 
L 252.442892 302.343816 
L 263.87439 302.335958 
L 265.01754 302.442033 
L 268.446989 302.253456 
L 269.590139 302.394889 
L 270.733289 302.198454 
L 271.876438 302.339887 
L 277.592188 302.375245 
L 278.735337 302.316315 
L 281.021637 302.39096 
L 282.164787 302.253456 
L 283.307937 302.387031 
L 286.737386 302.257384 
L 289.023686 302.347744 
L 293.596285 302.288814 
L 294.739435 302.170953 
L 295.882584 302.284885 
L 297.025734 302.218097 
L 298.168884 302.26917 
L 299.312034 302.064878 
L 301.598333 302.147381 
L 302.741483 301.935231 
L 306.170933 302.194525 
L 308.457232 301.99809 
L 309.600382 302.17881 
L 310.743532 302.049163 
L 313.029832 302.257384 
L 315.316131 301.982375 
L 318.745581 301.974518 
L 319.88873 302.143452 
L 322.17503 302.108094 
L 324.46133 301.825227 
L 325.604479 302.002019 
L 326.747629 301.860585 
L 327.890779 302.021662 
L 330.177079 302.084521 
L 331.320228 301.860585 
L 332.463378 302.060949 
L 333.606528 301.715224 
L 335.892828 302.218097 
L 339.322277 302.135595 
L 340.465427 301.837013 
L 342.751727 302.108094 
L 343.894876 302.053092 
L 345.038026 302.17881 
L 346.181176 301.840942 
L 349.610625 301.475573 
L 350.753775 301.09056 
L 351.896925 301.848799 
L 353.040075 301.797726 
L 354.183225 301.444143 
L 355.326374 301.471644 
L 356.469524 301.098417 
L 358.755824 301.275209 
L 359.898974 301.562004 
L 361.042123 301.703437 
L 364.471573 301.208421 
L 365.614723 301.57379 
L 366.757873 300.913768 
L 367.901022 301.530575 
L 370.187322 301.593434 
L 371.330472 301.338068 
L 372.473622 300.776264 
L 373.616771 301.023772 
L 374.759921 300.96877 
L 375.903071 301.609149 
L 377.046221 301.019843 
L 378.189371 300.905911 
L 380.47567 299.746944 
L 381.61882 300.112313 
L 382.76197 298.807985 
L 383.90512 300.831266 
L 385.048269 300.835194 
L 386.191419 299.240142 
L 387.334569 299.621226 
L 388.477719 299.106566 
L 389.620869 299.295144 
L 390.764018 299.027992 
L 393.050318 300.611258 
L 396.479768 299.303001 
L 397.622917 299.88052 
L 398.766067 299.464078 
L 399.909217 300.139814 
L 401.052367 300.320535 
L 402.195517 299.558366 
L 403.338666 299.479792 
L 404.481816 299.106566 
L 405.624966 299.358003 
L 406.768116 298.477974 
L 407.911266 299.640869 
L 409.054415 299.566224 
L 410.197565 298.819771 
L 411.340715 298.226537 
L 412.483865 297.456511 
L 413.627015 298.100818 
L 414.770164 297.511513 
L 415.913314 298.477974 
L 417.056464 299.200855 
L 418.199614 297.971171 
L 419.342764 297.271862 
L 421.629063 296.482193 
L 422.772213 295.409658 
L 425.058513 297.751164 
L 426.201663 295.995034 
L 427.344812 294.690706 
L 428.487962 292.034903 
L 429.631112 289.768043 
L 430.774262 289.312313 
L 431.917412 290.793434 
L 433.060561 292.74207 
L 434.203711 291.53203 
L 435.346861 285.281466 
L 436.490011 284.90431 
L 437.633161 282.633521 
L 438.77631 280.009149 
L 439.91946 283.643197 
L 441.06261 284.865023 
L 442.20576 282.063859 
L 443.34891 277.467279 
L 444.492059 274.524682 
L 445.635209 275.145416 
L 446.778359 270.678483 
L 447.921509 281.541342 
L 449.064659 279.895216 
L 450.207808 277.919079 
L 451.350958 273.251782 
L 452.494108 266.407985 
L 453.637258 270.02239 
L 454.780408 274.890051 
L 455.923558 282.433157 
L 457.066707 284.342506 
L 459.353007 272.909985 
L 460.496157 277.184412 
L 461.639307 276.504747 
L 462.782456 277.062623 
L 463.925606 282.21315 
L 465.068756 292.89136 
L 466.211906 284.358221 
L 467.355056 279.899145 
L 469.641355 282.747453 
L 470.784505 285.81184 
L 471.927655 287.78012 
L 473.070805 293.068152 
L 474.213954 289.20231 
L 475.357104 286.99438 
L 476.500254 288.44407 
L 477.643404 288.098345 
L 478.786554 288.35371 
L 481.072853 294.341051 
L 482.216003 292.592779 
L 483.359153 292.121335 
L 484.502303 292.718497 
L 485.645453 290.32199 
L 486.788602 291.323808 
L 487.931752 292.10562 
L 489.074902 292.616351 
L 490.218052 291.685249 
L 491.361202 291.626318 
L 492.504351 293.076009 
L 493.647501 294.800709 
L 494.790651 294.01104 
L 495.933801 296.548981 
L 497.076951 297.146144 
L 498.2201 294.183903 
L 499.36325 292.412059 
L 500.5064 291.245234 
L 501.64955 295.366442 
L 502.7927 297.405438 
L 503.935849 297.892597 
L 505.078999 295.794671 
L 506.222149 294.113186 
L 507.365299 290.77379 
L 508.508449 291.810967 
L 509.651599 294.592488 
L 510.794748 296.211113 
L 511.937898 296.03825 
L 513.081048 295.016788 
L 514.224198 293.457093 
L 515.367348 290.828792 
L 516.510497 294.266406 
L 517.653647 294.596417 
L 518.796797 293.433521 
L 519.939947 296.387905 
L 521.083097 297.012568 
L 522.226246 295.759312 
L 523.369396 293.971753 
L 524.512546 295.955747 
L 525.655696 296.427192 
L 526.798846 296.344689 
L 527.941995 297.275791 
L 529.085145 298.493688 
L 530.228295 296.053965 
L 531.371445 295.951819 
L 532.514595 295.617879 
L 533.657744 295.437159 
L 534.800894 296.753274 
L 535.944044 297.503656 
L 537.087194 298.741197 
L 538.230344 296.863277 
L 539.373494 296.234685 
L 540.516643 296.678628 
L 541.659793 296.878992 
L 542.802943 296.619698 
L 543.946093 298.144034 
L 545.089243 298.006529 
L 546.232392 297.676519 
L 547.375542 296.00682 
L 548.518692 296.490051 
L 549.661842 297.472226 
L 550.804992 297.098999 
L 551.948141 297.959385 
L 553.091291 298.536904 
L 556.520741 295.908603 
L 557.66389 296.321117 
L 558.80704 297.480083 
L 559.95019 297.861168 
L 561.09334 297.872954 
L 562.23649 296.568625 
L 563.379639 295.951819 
L 564.522789 294.997144 
L 565.665939 295.751455 
L 566.809089 294.238905 
L 569.095389 297.649018 
L 570.238538 295.036431 
L 571.381688 294.733921 
L 572.524838 292.856002 
L 573.667988 295.04036 
L 574.811138 292.655638 
L 575.954287 293.724245 
L 577.097437 296.957566 
L 578.240587 293.849963 
L 579.383737 292.828501 
L 581.670036 293.229229 
L 582.813186 291.606675 
L 583.956336 293.641742 
L 585.099486 294.808567 
L 586.242636 292.553492 
L 587.385785 292.989578 
L 588.528935 291.182375 
L 589.672085 290.459494 
L 590.815235 290.541997 
L 591.958385 292.541706 
L 593.101534 294.965715 
L 594.244684 291.62239 
L 595.387834 291.178447 
L 596.530984 288.628719 
L 597.674134 289.80733 
L 598.817284 288.121917 
L 599.960433 291.89347 
L 601.103583 292.879574 
L 602.246733 290.585213 
L 603.389883 288.558003 
L 604.533033 288.919443 
L 605.676182 289.826973 
L 606.819332 289.481248 
L 607.962482 292.066333 
L 609.105632 289.764114 
L 610.248782 291.473099 
L 611.391931 290.141269 
L 612.535081 289.131593 
L 613.678231 290.302346 
L 614.821381 289.465533 
L 617.10768 293.296017 
L 618.25083 294.568916 
L 619.39398 291.264878 
L 620.53713 291.182375 
L 621.68028 292.604565 
L 622.823429 288.872299 
L 623.966579 294.733921 
L 625.109729 294.380338 
L 626.252879 293.653528 
L 627.396029 289.972335 
L 628.539179 291.708821 
L 629.682328 293.205656 
L 630.825478 293.166369 
L 631.968628 294.474627 
L 633.111778 294.545344 
L 634.254928 294.242834 
L 635.398077 292.518134 
L 636.541227 292.176337 
L 637.684377 292.702783 
L 638.827527 294.714278 
L 639.970677 295.005002 
L 641.113826 296.207184 
L 643.400126 293.535667 
L 644.543276 293.987468 
L 645.686426 294.136759 
L 646.829575 295.912532 
L 647.972725 296.411477 
L 649.115875 298.104747 
L 650.259025 296.772917 
L 651.402175 295.680738 
L 652.545325 296.981138 
L 653.688474 297.020425 
L 654.831624 297.920098 
L 655.974774 298.297253 
L 657.117924 299.534794 
L 658.261074 298.815842 
L 659.404223 297.912241 
L 661.690523 299.114423 
L 662.833673 299.959094 
L 663.976823 299.778374 
L 665.119972 300.414823 
L 666.263122 299.951237 
L 667.406272 299.141924 
L 668.549422 300.065169 
L 669.692572 299.864805 
L 670.835721 300.226246 
L 671.978871 300.461968 
L 673.122021 301.09056 
L 675.408321 300.556257 
L 676.55147 300.076955 
L 677.69462 300.351964 
L 678.83777 300.795907 
L 681.12407 301.173063 
L 682.26722 301.047344 
L 683.410369 300.540542 
L 684.553519 301.263423 
L 685.696669 301.082703 
L 686.839819 301.345926 
L 687.982969 301.18092 
L 690.269268 301.255565 
L 691.412418 301.063059 
L 693.698718 301.569862 
L 694.841867 301.683794 
L 695.985017 301.648436 
L 697.128167 302.057021 
L 699.414467 301.754511 
L 700.557616 301.789869 
L 701.700766 301.947017 
L 702.843916 301.8763 
L 703.987066 302.037377 
L 707.416515 302.005947 
L 709.702815 302.037377 
L 710.845965 302.002019 
L 711.989115 302.202383 
L 718.848013 302.053092 
L 719.991163 302.194525 
L 722.277463 302.057021 
L 726.850062 301.762368 
L 727.993212 301.856657 
L 729.136362 301.738796 
L 730.279511 301.499145 
L 733.708961 301.078774 
L 734.852111 300.768407 
L 737.13841 301.420571 
L 738.28156 301.141633 
L 739.42471 301.035558 
L 740.56786 300.815551 
L 741.71101 300.807694 
L 742.854159 301.118061 
L 745.140459 301.220207 
L 746.283609 301.027701 
L 747.426759 300.312677 
L 748.569908 300.473754 
L 750.856208 300.324463 
L 751.999358 300.811622 
L 753.142508 301.102346 
L 754.285657 300.882339 
L 755.428807 300.124099 
L 756.571957 300.509112 
L 757.715107 300.100527 
L 760.001406 300.249818 
L 761.144556 300.748763 
L 762.287706 300.033739 
L 763.430856 299.027992 
L 764.574006 299.086922 
L 765.717155 298.658694 
L 766.860305 298.725482 
L 768.003455 299.189069 
L 769.146605 299.330502 
L 770.289755 299.024063 
L 771.432905 297.692233 
L 772.576054 297.389723 
L 773.719204 297.303292 
L 774.862354 297.409367 
L 776.005504 298.116533 
L 777.148654 298.599763 
L 778.291803 297.924027 
L 779.434953 296.105038 
L 780.578103 296.753274 
L 782.864403 297.059712 
L 784.007552 297.173645 
L 785.150702 298.206893 
L 786.293852 297.432939 
L 787.437002 295.185722 
L 788.580152 296.344689 
L 789.723301 295.814314 
L 790.866451 294.871426 
L 792.009601 296.270043 
L 793.152751 296.996853 
L 794.295901 295.386086 
L 795.43905 293.425664 
L 796.5822 293.940324 
L 797.72535 293.272444 
L 798.8685 293.637814 
L 801.1548 297.000782 
L 802.297949 295.201437 
L 803.441099 292.247053 
L 804.584249 293.354947 
L 805.727399 293.771389 
L 806.870549 294.49427 
L 808.013698 296.847563 
L 809.156848 297.201146 
L 810.299998 297.047926 
L 811.443148 294.176046 
L 812.586298 295.236795 
L 813.729447 295.323226 
L 814.872597 295.276082 
L 816.015747 297.016497 
L 817.158897 297.020425 
L 818.302047 296.21897 
L 819.445196 292.192051 
L 820.588346 294.898927 
L 821.731496 295.629665 
L 822.874646 295.358585 
L 824.017796 296.34076 
L 825.160946 297.071499 
L 826.304095 296.73363 
L 827.447245 291.932757 
L 828.590395 294.454983 
L 829.733545 295.177864 
L 830.876695 295.087504 
L 833.162994 297.358294 
L 834.306144 296.191469 
L 835.449294 291.77168 
L 836.592444 294.152473 
L 837.735593 293.056366 
L 838.878743 293.10351 
L 840.021893 294.018898 
L 841.165043 294.619989 
L 842.308193 291.748108 
L 843.451342 286.817588 
L 844.594492 288.247635 
L 845.737642 288.766224 
L 846.880792 287.890123 
L 848.023942 288.581575 
L 849.167091 291.473099 
L 850.310241 288.923372 
L 851.453391 284.833594 
L 852.596541 285.528974 
L 853.739691 279.133048 
L 854.882841 278.968043 
L 856.02599 280.327373 
L 857.16914 283.611768 
L 858.31229 281.686704 
L 859.45544 276.606893 
L 860.59859 267.217297 
L 861.741739 264.015405 
L 862.884889 264.321844 
L 864.028039 270.564551 
L 865.171189 270.937777 
L 866.314339 271.978883 
L 867.457488 255.415478 
L 868.600638 250.504601 
L 869.743788 260.852801 
L 870.886938 252.74789 
L 872.030088 257.517333 
L 874.316387 259.304893 
L 875.459537 237.752037 
L 876.602687 243.436868 
L 877.745837 243.998672 
L 878.888986 247.188778 
L 880.032136 247.070917 
L 881.175286 256.751237 
L 882.318436 255.407621 
L 883.461586 245.436577 
L 884.604736 245.660513 
L 885.747885 254.806529 
L 886.891035 255.128683 
L 888.034185 264.663641 
L 889.177335 271.083139 
L 890.320485 270.599909 
L 891.463634 259.399181 
L 892.606784 267.991251 
L 893.749934 273.982521 
L 897.179383 285.686122 
L 898.322533 285.120389 
L 899.465683 278.622317 
L 900.608833 285.513259 
L 901.751983 290.215915 
L 902.895132 283.521408 
L 904.038282 289.650182 
L 905.181432 289.646253 
L 906.324582 290.934867 
L 907.467732 286.243998 
L 908.610881 290.954511 
L 909.754031 291.862041 
L 912.040331 294.667133 
L 913.183481 295.052146 
L 914.326631 294.79678 
L 915.46978 291.406311 
L 916.61293 293.967824 
L 917.75608 293.55924 
L 918.89923 294.148545 
L 920.04238 296.065751 
L 921.185529 295.641451 
L 922.328679 292.243125 
L 923.471829 289.331957 
L 924.614979 289.964478 
L 925.758129 287.465824 
L 926.901278 287.929411 
L 928.044428 290.671644 
L 929.187578 288.77801 
L 930.330728 278.865897 
L 931.473878 262.85251 
L 932.617027 267.920535 
L 933.760177 267.531593 
L 934.903327 274.764332 
L 936.046477 260.361713 
L 937.189627 259.536686 
L 938.332776 252.633958 
L 939.475926 237.453456 
L 940.619076 236.337704 
L 942.905376 235.449818 
L 944.048526 244.09689 
L 945.191675 239.170298 
L 946.334825 230.432866 
L 947.477975 192.088741 
L 948.621125 203.733412 
L 949.764275 186.062113 
L 950.907424 197.691069 
L 952.050574 210.718643 
L 953.193724 203.721626 
L 954.336874 197.577137 
L 955.480024 152.617079 
L 956.623173 161.967388 
L 957.766323 153.842834 
L 960.052623 188.717915 
L 961.195773 199.902928 
L 962.338922 193.518788 
L 963.482072 129.685249 
L 964.625222 170.292306 
L 965.768372 157.69689 
L 966.911522 172.028792 
L 968.054671 184.67921 
L 969.197821 200.602237 
L 970.340971 188.30933 
L 971.484121 143.667497 
L 972.627271 163.578156 
L 973.770421 171.321626 
L 974.91357 185.060294 
L 976.05672 204.094852 
L 977.19987 207.827119 
L 978.34302 198.248945 
L 979.48617 149.866988 
L 980.629319 180.946944 
L 981.772469 182.129483 
L 982.915619 200.991178 
L 984.058769 216.674554 
L 985.201919 218.285322 
L 986.345068 209.068588 
L 987.488218 163.448508 
L 988.631368 189.971171 
L 989.774518 184.914933 
L 990.917668 203.458403 
L 992.060817 215.358439 
L 993.203967 218.709621 
L 994.347117 194.607039 
L 995.490267 141.019552 
L 996.633417 177.367897 
L 997.776567 176.448581 
L 998.919716 178.008276 
L 1000.062866 193.491288 
L 1001.206016 197.714642 
L 1002.349166 167.954729 
L 1003.492316 100.73072 
L 1004.635465 105.048363 
L 1005.778615 107.472372 
L 1008.064915 154.612859 
L 1009.208065 166.807548 
L 1010.351214 144.347162 
L 1011.494364 50.8755 
L 1012.637514 98.361713 
L 1013.780664 102.160767 
L 1014.923814 136.191178 
L 1016.066963 154.314278 
L 1017.210113 179.320462 
L 1018.353263 156.7265 
L 1019.496413 86.779902 
L 1020.639563 140.280957 
L 1022.925862 172.028792 
L 1024.069012 201.655129 
L 1025.212162 219.683939 
L 1026.355312 199.77721 
L 1027.498462 168.13152 
L 1028.641611 199.576846 
L 1029.784761 214.87128 
L 1030.927911 227.847781 
L 1032.071061 247.420571 
L 1033.214211 257.085176 
L 1034.35736 242.152182 
L 1035.50051 219.7743 
L 1036.64366 238.066333 
L 1037.78681 247.734867 
L 1038.92996 251.282484 
L 1040.073109 260.542433 
L 1041.216259 273.625009 
L 1042.359409 265.044725 
L 1043.502559 252.857894 
L 1044.645709 261.410676 
L 1045.788858 263.265023 
L 1046.932008 267.861604 
L 1048.075158 273.019989 
L 1049.218308 280.347017 
L 1050.361458 279.777355 
L 1051.504607 268.670917 
L 1052.647757 259.238105 
L 1053.790907 270.482048 
L 1054.934057 276.634394 
L 1057.220357 284.900382 
L 1058.363506 277.911222 
L 1059.506656 269.802383 
L 1060.649806 276.524391 
L 1061.792956 278.390524 
L 1064.079255 284.731448 
L 1065.222405 286.864732 
L 1066.365555 280.150582 
L 1067.508705 274.116097 
L 1068.651855 278.810895 
L 1069.795004 278.304092 
L 1070.938154 282.173863 
L 1072.081304 288.628719 
L 1073.224454 286.915806 
L 1074.367604 283.654983 
L 1075.510753 282.169934 
L 1076.653903 281.82028 
L 1077.797053 282.963532 
L 1078.940203 287.300818 
L 1080.083353 288.907657 
L 1081.226502 293.991397 
L 1082.369652 291.315951 
L 1083.512802 285.073245 
L 1084.655952 289.489105 
L 1085.799102 302.461677 
L 1086.942252 302.461677 
L 1088.085401 273.287141 
L 1089.228551 301.648436 
L 1090.371701 293.665314 
L 1091.514851 292.168479 
L 1092.658001 292.125264 
L 1093.80115 302.461677 
L 1094.9443 302.461677 
L 1096.08745 281.63956 
L 1097.2306 297.480083 
L 1098.37375 295.25251 
L 1099.516899 290.522353 
L 1100.660049 291.496671 
L 1101.803199 302.461677 
L 1102.946349 302.461677 
L 1104.089499 269.036286 
L 1105.232648 293.885322 
L 1106.375798 296.28183 
L 1107.518948 290.541997 
L 1108.662098 281.564914 
L 1109.805248 302.461677 
L 1110.948397 302.461677 
L 1112.091547 257.654838 
L 1113.234697 291.355238 
L 1114.377847 285.411113 
L 1115.520997 273.766442 
L 1116.664147 272.583903 
L 1117.807296 302.461677 
L 1118.950446 302.461677 
L 1120.093596 234.59729 
L 1121.236746 281.902783 
L 1122.379896 273.566078 
L 1123.523045 257.784485 
L 1124.666195 265.469025 
L 1125.809345 302.461677 
L 1126.952495 302.461677 
L 1128.095645 203.179465 
L 1129.238794 274.626828 
L 1130.381944 246.06124 
L 1131.525094 253.396126 
L 1132.668244 257.733412 
L 1133.811394 302.461677 
L 1134.954543 302.461677 
L 1136.097693 190.815842 
L 1137.240843 273.353929 
L 1138.383993 263.080374 
L 1139.527143 251.639996 
L 1140.670292 254.967606 
L 1141.813442 302.461677 
L 1142.956592 302.461677 
L 1144.099742 179.921553 
L 1145.242892 278.241233 
L 1146.386042 256.790524 
L 1147.529191 243.205074 
L 1148.672341 252.327519 
L 1149.815491 302.461677 
L 1150.958641 302.461677 
L 1152.101791 157.791178 
L 1153.24494 270.843488 
L 1154.38809 256.0755 
L 1155.53124 237.968115 
L 1156.67439 252.692888 
L 1157.81754 302.461677 
L 1158.960689 302.461677 
L 1160.103839 187.001073 
L 1161.246989 264.687213 
L 1162.390139 265.249018 
L 1163.533289 256.063714 
L 1164.676438 266.549418 
L 1165.819588 302.461677 
L 1168.105888 302.461677 
L 1169.249038 203.132321 
L 1170.392188 271.507439 
L 1171.535337 269.543088 
L 1172.678487 278.186231 
L 1173.821637 302.461677 
L 1174.964787 302.461677 
L 1176.107937 235.206238 
L 1177.251086 286.900091 
L 1178.394236 279.30984 
L 1179.537386 275.895798 
L 1180.680536 277.105838 
L 1181.823686 302.461677 
L 1182.966835 302.461677 
L 1184.109985 238.969934 
L 1185.253135 290.510567 
L 1186.396285 287.155456 
L 1187.539435 277.919079 
L 1188.682584 272.383539 
L 1189.825734 302.461677 
L 1190.968884 302.461677 
L 1192.112034 239.131011 
L 1193.255184 290.031266 
L 1194.398333 282.001 
L 1195.541483 280.115224 
L 1196.684633 280.853819 
L 1197.827783 302.461677 
L 1200.114083 302.461677 
L 1201.257232 235.571608 
L 1202.400382 285.371826 
L 1203.543532 281.466697 
L 1204.686682 284.173572 
L 1205.829832 302.461677 
L 1206.972981 302.461677 
L 1208.116131 255.992997 
L 1209.259281 291.496671 
L 1210.402431 286.035776 
L 1211.545581 302.461677 
L 1214.97503 302.461677 
L 1216.11818 215.700236 
L 1217.26133 292.215624 
L 1218.404479 353.2755 
L 1219.547629 277.777646 
L 1220.690779 280.205584 
L 1221.833929 281.30562 
L 1222.977079 262.33785 
L 1224.120228 288.216206 
L 1226.406528 269.028428 
L 1227.549678 271.32279 
L 1228.692828 271.197071 
L 1229.835978 268.678774 
L 1230.979127 275.290778 
L 1232.122277 278.913041 
L 1233.265427 260.605293 
L 1234.408577 244.128319 
L 1235.551727 250.170662 
L 1236.694876 251.329629 
L 1237.838026 253.003256 
L 1238.981176 261.874263 
L 1240.124326 269.118788 
L 1241.267476 248.037377 
L 1242.410625 229.305329 
L 1243.553775 244.014387 
L 1244.696925 239.86175 
L 1245.840075 248.779902 
L 1246.983225 254.629738 
L 1248.126374 268.26626 
L 1249.269524 251.789287 
L 1250.412674 229.918206 
L 1251.555824 246.489469 
L 1253.842123 255.906566 
L 1256.128423 277.353346 
L 1257.271573 266.18012 
L 1258.414723 248.595253 
L 1259.557873 263.767897 
L 1260.701022 270.654911 
L 1261.844172 302.461677 
L 1262.987322 302.461677 
L 1264.130472 246.155529 
L 1265.273622 276.98012 
L 1266.416771 270.175609 
L 1267.559921 285.018243 
L 1269.846221 279.855929 
L 1270.989371 284.550727 
L 1272.13252 291.280593 
L 1273.27567 285.505402 
L 1275.56197 284.142142 
L 1276.70512 280.594525 
L 1277.848269 285.54076 
L 1278.991419 289.343743 
L 1280.134569 291.787395 
L 1282.420869 284.079283 
L 1283.564018 287.045453 
L 1284.707168 289.579465 
L 1285.850318 287.442252 
L 1286.993468 291.162732 
L 1288.136618 293.751746 
L 1290.422917 282.657093 
L 1291.566067 284.739305 
L 1292.709217 285.8747 
L 1293.852367 287.603328 
L 1294.995517 289.921262 
L 1296.138666 293.005293 
L 1297.281816 285.242179 
L 1298.424966 279.781284 
L 1299.568116 283.592124 
L 1300.711266 285.293252 
L 1301.854415 284.849309 
L 1302.997565 288.829083 
L 1304.140715 290.703074 
L 1305.283865 285.175391 
L 1306.427015 276.304383 
L 1307.570164 281.584558 
L 1308.713314 281.474554 
L 1309.856464 285.132175 
L 1310.999614 302.48132 
L 1312.142764 273.845016 
L 1313.285913 284.825736 
L 1314.429063 275.675791 
L 1315.572213 281.710276 
L 1316.715363 286.577937 
L 1316.715363 286.577937 
" clip-path="url(#p86324780f7)" style="fill: none; stroke: #0000ff; stroke-width: 1.5; stroke-linecap: square"/>
   </g>
   <g id="line2d_20">
    <path d="M 1076.653903 282.38889 
L 1077.797053 282.972517 
L 1078.940203 285.894616 
L 1080.083353 290.909655 
L 1081.226502 290.156654 
L 1082.369652 287.51142 
L 1083.512802 286.401835 
L 1084.655952 287.247363 
L 1085.799102 288.492571 
L 1086.942252 295.101737 
L 1088.085401 298.7654 
L 1089.228551 297.803317 
L 1090.371701 297.291272 
L 1091.514851 290.403575 
L 1092.658001 293.314284 
L 1093.80115 298.048109 
L 1094.9443 303.423471 
L 1096.08745 284.110988 
L 1097.2306 302.540249 
L 1098.37375 295.646848 
L 1099.516899 293.721288 
L 1100.660049 292.936173 
L 1101.803199 300.400191 
L 1102.946349 300.432629 
L 1104.089499 284.676961 
L 1105.232648 294.847244 
L 1106.375798 292.341015 
L 1107.518948 288.33278 
L 1108.662098 289.397532 
L 1109.805248 295.112941 
L 1110.948397 298.490105 
L 1112.091547 274.622034 
L 1113.234697 289.632485 
L 1114.377847 290.362391 
L 1115.520997 284.767267 
L 1116.664147 276.915137 
L 1117.807296 287.930989 
L 1118.950446 291.889559 
L 1120.093596 260.158654 
L 1121.236746 280.715326 
L 1122.379896 279.033123 
L 1123.523045 268.15183 
L 1124.666195 263.79197 
L 1125.809345 281.478321 
L 1126.952495 288.143846 
L 1128.095645 241.978115 
L 1129.238794 270.106907 
L 1130.381944 267.383347 
L 1131.525094 248.273258 
L 1132.668244 253.51654 
L 1133.811394 274.465044 
L 1134.954543 286.394655 
L 1136.097693 216.100566 
L 1137.240843 267.693126 
L 1138.383993 250.726937 
L 1140.670292 257.4175 
L 1141.813442 287.603557 
L 1142.956592 294.7182 
L 1144.099742 212.722235 
L 1145.242892 267.248383 
L 1146.386042 260.206773 
L 1147.529191 250.699833 
L 1148.672341 252.780287 
L 1149.815491 284.492525 
L 1150.958641 292.252762 
L 1152.101791 199.83851 
L 1153.24494 266.080725 
L 1155.53124 240.339421 
L 1156.67439 246.293329 
L 1157.81754 281.23623 
L 1158.960689 291.082533 
L 1160.103839 185.271077 
L 1161.246989 271.567237 
L 1163.533289 248.940552 
L 1164.676438 259.483466 
L 1165.819588 299.345015 
L 1166.962738 300.464318 
L 1168.105888 210.188142 
L 1169.249038 294.137471 
L 1170.392188 274.701808 
L 1171.535337 274.791815 
L 1172.678487 271.369124 
L 1173.821637 311.343452 
L 1174.964787 290.237364 
L 1176.107937 287.426791 
L 1177.251086 226.276249 
L 1178.394236 280.355914 
L 1179.537386 271.591795 
L 1181.823686 300.904168 
L 1182.966835 313.001867 
L 1184.109985 256.25219 
L 1185.253135 275.962379 
L 1186.396285 281.276582 
L 1187.539435 278.687962 
L 1188.682584 282.385527 
L 1189.825734 299.072606 
L 1190.968884 302.816533 
L 1192.112034 251.684 
L 1193.255184 285.537216 
L 1194.398333 284.421097 
L 1195.541483 277.592873 
L 1196.684633 275.284583 
L 1197.827783 297.27159 
L 1198.970933 300.598272 
L 1200.114083 251.776931 
L 1201.257232 302.035984 
L 1202.400382 284.312877 
L 1203.543532 286.701837 
L 1204.686682 277.597849 
L 1205.829832 301.806779 
L 1206.972981 289.737339 
L 1208.116131 292.414333 
L 1209.259281 249.957451 
L 1210.402431 288.924552 
L 1211.545581 281.771029 
L 1212.68873 292.536086 
L 1213.83188 305.650975 
L 1214.97503 315.4924 
L 1216.11818 277.3363 
L 1217.26133 281.894756 
L 1218.404479 283.800355 
L 1219.547629 299.251135 
L 1220.690779 298.361176 
L 1221.833929 300.183306 
L 1222.977079 300.973632 
L 1224.120228 234.404833 
L 1225.263378 282.636228 
L 1226.406528 319.814113 
L 1227.549678 271.490921 
L 1228.692828 269.740189 
L 1229.835978 274.199244 
L 1230.979127 252.719935 
L 1232.122277 258.803913 
L 1233.265427 273.752801 
L 1234.408577 273.859899 
L 1235.551727 261.417739 
L 1236.694876 259.27697 
L 1237.838026 252.018006 
L 1238.981176 250.686957 
L 1240.124326 254.72722 
L 1241.267476 249.379129 
L 1242.410625 240.232807 
L 1243.553775 242.027208 
L 1244.696925 243.317406 
L 1245.840075 242.233276 
L 1246.983225 248.566417 
L 1248.126374 254.220518 
L 1249.269524 244.247985 
L 1250.412674 232.094008 
L 1251.555824 243.758527 
L 1252.698974 242.342956 
L 1253.842123 250.23287 
L 1254.985273 256.196036 
L 1256.128423 267.985204 
L 1257.271573 258.342581 
L 1258.414723 245.323657 
L 1259.557873 258.860991 
L 1260.701022 263.52385 
L 1261.844172 269.48342 
L 1264.130472 297.752766 
L 1265.273622 281.960532 
L 1266.416771 268.302982 
L 1267.559921 276.765122 
L 1268.703071 281.155715 
L 1269.846221 296.437106 
L 1270.989371 301.906113 
L 1272.13252 264.620978 
L 1273.27567 284.714173 
L 1274.41882 275.54991 
L 1275.56197 290.281673 
L 1276.70512 289.719092 
L 1277.848269 295.131754 
L 1278.991419 291.611974 
L 1280.134569 288.700848 
L 1282.420869 285.446115 
L 1283.564018 287.880893 
L 1284.707168 285.368802 
L 1285.850318 289.918999 
L 1286.993468 291.874442 
L 1288.136618 293.213496 
L 1289.279768 290.759756 
L 1290.422917 287.843669 
L 1291.566067 288.262392 
L 1292.709217 288.521839 
L 1293.852367 286.890643 
L 1294.995517 289.167793 
L 1296.138666 290.769112 
L 1297.281816 287.406719 
L 1298.424966 283.230729 
L 1299.568116 284.693714 
L 1300.711266 284.943306 
L 1301.854415 285.67262 
L 1302.997565 287.039635 
L 1304.140715 289.713361 
L 1305.283865 284.508772 
L 1306.427015 280.705837 
L 1307.570164 282.442474 
L 1308.713314 283.752975 
L 1309.856464 282.580774 
L 1310.999614 285.875926 
L 1312.142764 290.218673 
L 1313.285913 283.289549 
L 1314.429063 278.750273 
L 1315.572213 280.350724 
L 1316.715363 282.235341 
L 1316.715363 282.235341 
" clip-path="url(#p86324780f7)" style="fill: none; stroke: #ffa500; stroke-width: 1.5; stroke-linecap: square"/>
   </g>
   <g id="line2d_21">
    <path d="M 1317.858513 281.63551 
L 1319.001663 295.731867 
L 1320.144812 278.16045 
L 1321.287962 284.18963 
L 1322.431112 277.644264 
L 1323.574262 281.267901 
L 1324.717412 284.813722 
L 1325.860561 282.183856 
L 1327.003711 293.143338 
L 1328.146861 278.780905 
L 1329.290011 283.623939 
L 1330.433161 278.266254 
L 1331.57631 281.401755 
L 1332.71946 284.19771 
" clip-path="url(#p86324780f7)" style="fill: none; stroke: #ff0000; stroke-width: 1.5; stroke-linecap: square"/>
   </g>
   <g id="patch_3">
    <path d="M 54.392188 368.3955 
L 54.392188 35.7555 
" style="fill: none; stroke: #000000; stroke-width: 0.8; stroke-linejoin: miter; stroke-linecap: square"/>
   </g>
   <g id="patch_4">
    <path d="M 1393.592188 368.3955 
L 1393.592188 35.7555 
" style="fill: none; stroke: #000000; stroke-width: 0.8; stroke-linejoin: miter; stroke-linecap: square"/>
   </g>
   <g id="patch_5">
    <path d="M 54.392188 368.3955 
L 1393.592188 368.3955 
" style="fill: none; stroke: #000000; stroke-width: 0.8; stroke-linejoin: miter; stroke-linecap: square"/>
   </g>
   <g id="patch_6">
    <path d="M 54.392188 35.7555 
L 1393.592188 35.7555 
" style="fill: none; stroke: #000000; stroke-width: 0.8; stroke-linejoin: miter; stroke-linecap: square"/>
   </g>
   <g id="text_19">
    <!-- Daily Confirmed Cases Forecasting - Austria -->
    <g transform="translate(592.296875 16.318125)scale(0.12 -0.12)">
     <defs>
      <path id="DejaVuSans-44" d="M 1259 4147 
L 1259 519 
L 2022 519 
Q 2988 519 3436 956 
Q 3884 1394 3884 2338 
Q 3884 3275 3436 3711 
Q 2988 4147 2022 4147 
L 1259 4147 
z
M 628 4666 
L 1925 4666 
Q 3281 4666 3915 4102 
Q 4550 3538 4550 2338 
Q 4550 1131 3912 565 
Q 3275 0 1925 0 
L 628 0 
L 628 4666 
z
" transform="scale(0.015625)"/>
      <path id="DejaVuSans-61" d="M 2194 1759 
Q 1497 1759 1228 1600 
Q 959 1441 959 1056 
Q 959 750 1161 570 
Q 1363 391 1709 391 
Q 2188 391 2477 730 
Q 2766 1069 2766 1631 
L 2766 1759 
L 2194 1759 
z
M 3341 1997 
L 3341 0 
L 2766 0 
L 2766 531 
Q 2569 213 2275 61 
Q 1981 -91 1556 -91 
Q 1019 -91 701 211 
Q 384 513 384 1019 
Q 384 1609 779 1909 
Q 1175 2209 1959 2209 
L 2766 2209 
L 2766 2266 
Q 2766 2663 2505 2880 
Q 2244 3097 1772 3097 
Q 1472 3097 1187 3025 
Q 903 2953 641 2809 
L 641 3341 
Q 956 3463 1253 3523 
Q 1550 3584 1831 3584 
Q 2591 3584 2966 3190 
Q 3341 2797 3341 1997 
z
" transform="scale(0.015625)"/>
      <path id="DejaVuSans-69" d="M 603 3500 
L 1178 3500 
L 1178 0 
L 603 0 
L 603 3500 
z
M 603 4863 
L 1178 4863 
L 1178 4134 
L 603 4134 
L 603 4863 
z
" transform="scale(0.015625)"/>
      <path id="DejaVuSans-6c" d="M 603 4863 
L 1178 4863 
L 1178 0 
L 603 0 
L 603 4863 
z
" transform="scale(0.015625)"/>
      <path id="DejaVuSans-79" d="M 2059 -325 
Q 1816 -950 1584 -1140 
Q 1353 -1331 966 -1331 
L 506 -1331 
L 506 -850 
L 844 -850 
Q 1081 -850 1212 -737 
Q 1344 -625 1503 -206 
L 1606 56 
L 191 3500 
L 800 3500 
L 1894 763 
L 2988 3500 
L 3597 3500 
L 2059 -325 
z
" transform="scale(0.015625)"/>
      <path id="DejaVuSans-20" transform="scale(0.015625)"/>
      <path id="DejaVuSans-43" d="M 4122 4306 
L 4122 3641 
Q 3803 3938 3442 4084 
Q 3081 4231 2675 4231 
Q 1875 4231 1450 3742 
Q 1025 3253 1025 2328 
Q 1025 1406 1450 917 
Q 1875 428 2675 428 
Q 3081 428 3442 575 
Q 3803 722 4122 1019 
L 4122 359 
Q 3791 134 3420 21 
Q 3050 -91 2638 -91 
Q 1578 -91 968 557 
Q 359 1206 359 2328 
Q 359 3453 968 4101 
Q 1578 4750 2638 4750 
Q 3056 4750 3426 4639 
Q 3797 4528 4122 4306 
z
" transform="scale(0.015625)"/>
      <path id="DejaVuSans-6f" d="M 1959 3097 
Q 1497 3097 1228 2736 
Q 959 2375 959 1747 
Q 959 1119 1226 758 
Q 1494 397 1959 397 
Q 2419 397 2687 759 
Q 2956 1122 2956 1747 
Q 2956 2369 2687 2733 
Q 2419 3097 1959 3097 
z
M 1959 3584 
Q 2709 3584 3137 3096 
Q 3566 2609 3566 1747 
Q 3566 888 3137 398 
Q 2709 -91 1959 -91 
Q 1206 -91 779 398 
Q 353 888 353 1747 
Q 353 2609 779 3096 
Q 1206 3584 1959 3584 
z
" transform="scale(0.015625)"/>
      <path id="DejaVuSans-6e" d="M 3513 2113 
L 3513 0 
L 2938 0 
L 2938 2094 
Q 2938 2591 2744 2837 
Q 2550 3084 2163 3084 
Q 1697 3084 1428 2787 
Q 1159 2491 1159 1978 
L 1159 0 
L 581 0 
L 581 3500 
L 1159 3500 
L 1159 2956 
Q 1366 3272 1645 3428 
Q 1925 3584 2291 3584 
Q 2894 3584 3203 3211 
Q 3513 2838 3513 2113 
z
" transform="scale(0.015625)"/>
      <path id="DejaVuSans-66" d="M 2375 4863 
L 2375 4384 
L 1825 4384 
Q 1516 4384 1395 4259 
Q 1275 4134 1275 3809 
L 1275 3500 
L 2222 3500 
L 2222 3053 
L 1275 3053 
L 1275 0 
L 697 0 
L 697 3053 
L 147 3053 
L 147 3500 
L 697 3500 
L 697 3744 
Q 697 4328 969 4595 
Q 1241 4863 1831 4863 
L 2375 4863 
z
" transform="scale(0.015625)"/>
      <path id="DejaVuSans-72" d="M 2631 2963 
Q 2534 3019 2420 3045 
Q 2306 3072 2169 3072 
Q 1681 3072 1420 2755 
Q 1159 2438 1159 1844 
L 1159 0 
L 581 0 
L 581 3500 
L 1159 3500 
L 1159 2956 
Q 1341 3275 1631 3429 
Q 1922 3584 2338 3584 
Q 2397 3584 2469 3576 
Q 2541 3569 2628 3553 
L 2631 2963 
z
" transform="scale(0.015625)"/>
      <path id="DejaVuSans-6d" d="M 3328 2828 
Q 3544 3216 3844 3400 
Q 4144 3584 4550 3584 
Q 5097 3584 5394 3201 
Q 5691 2819 5691 2113 
L 5691 0 
L 5113 0 
L 5113 2094 
Q 5113 2597 4934 2840 
Q 4756 3084 4391 3084 
Q 3944 3084 3684 2787 
Q 3425 2491 3425 1978 
L 3425 0 
L 2847 0 
L 2847 2094 
Q 2847 2600 2669 2842 
Q 2491 3084 2119 3084 
Q 1678 3084 1418 2786 
Q 1159 2488 1159 1978 
L 1159 0 
L 581 0 
L 581 3500 
L 1159 3500 
L 1159 2956 
Q 1356 3278 1631 3431 
Q 1906 3584 2284 3584 
Q 2666 3584 2933 3390 
Q 3200 3197 3328 2828 
z
" transform="scale(0.015625)"/>
      <path id="DejaVuSans-65" d="M 3597 1894 
L 3597 1613 
L 953 1613 
Q 991 1019 1311 708 
Q 1631 397 2203 397 
Q 2534 397 2845 478 
Q 3156 559 3463 722 
L 3463 178 
Q 3153 47 2828 -22 
Q 2503 -91 2169 -91 
Q 1331 -91 842 396 
Q 353 884 353 1716 
Q 353 2575 817 3079 
Q 1281 3584 2069 3584 
Q 2775 3584 3186 3129 
Q 3597 2675 3597 1894 
z
M 3022 2063 
Q 3016 2534 2758 2815 
Q 2500 3097 2075 3097 
Q 1594 3097 1305 2825 
Q 1016 2553 972 2059 
L 3022 2063 
z
" transform="scale(0.015625)"/>
      <path id="DejaVuSans-64" d="M 2906 2969 
L 2906 4863 
L 3481 4863 
L 3481 0 
L 2906 0 
L 2906 525 
Q 2725 213 2448 61 
Q 2172 -91 1784 -91 
Q 1150 -91 751 415 
Q 353 922 353 1747 
Q 353 2572 751 3078 
Q 1150 3584 1784 3584 
Q 2172 3584 2448 3432 
Q 2725 3281 2906 2969 
z
M 947 1747 
Q 947 1113 1208 752 
Q 1469 391 1925 391 
Q 2381 391 2643 752 
Q 2906 1113 2906 1747 
Q 2906 2381 2643 2742 
Q 2381 3103 1925 3103 
Q 1469 3103 1208 2742 
Q 947 2381 947 1747 
z
" transform="scale(0.015625)"/>
      <path id="DejaVuSans-73" d="M 2834 3397 
L 2834 2853 
Q 2591 2978 2328 3040 
Q 2066 3103 1784 3103 
Q 1356 3103 1142 2972 
Q 928 2841 928 2578 
Q 928 2378 1081 2264 
Q 1234 2150 1697 2047 
L 1894 2003 
Q 2506 1872 2764 1633 
Q 3022 1394 3022 966 
Q 3022 478 2636 193 
Q 2250 -91 1575 -91 
Q 1294 -91 989 -36 
Q 684 19 347 128 
L 347 722 
Q 666 556 975 473 
Q 1284 391 1588 391 
Q 1994 391 2212 530 
Q 2431 669 2431 922 
Q 2431 1156 2273 1281 
Q 2116 1406 1581 1522 
L 1381 1569 
Q 847 1681 609 1914 
Q 372 2147 372 2553 
Q 372 3047 722 3315 
Q 1072 3584 1716 3584 
Q 2034 3584 2315 3537 
Q 2597 3491 2834 3397 
z
" transform="scale(0.015625)"/>
      <path id="DejaVuSans-46" d="M 628 4666 
L 3309 4666 
L 3309 4134 
L 1259 4134 
L 1259 2759 
L 3109 2759 
L 3109 2228 
L 1259 2228 
L 1259 0 
L 628 0 
L 628 4666 
z
" transform="scale(0.015625)"/>
      <path id="DejaVuSans-63" d="M 3122 3366 
L 3122 2828 
Q 2878 2963 2633 3030 
Q 2388 3097 2138 3097 
Q 1578 3097 1268 2742 
Q 959 2388 959 1747 
Q 959 1106 1268 751 
Q 1578 397 2138 397 
Q 2388 397 2633 464 
Q 2878 531 3122 666 
L 3122 134 
Q 2881 22 2623 -34 
Q 2366 -91 2075 -91 
Q 1284 -91 818 406 
Q 353 903 353 1747 
Q 353 2603 823 3093 
Q 1294 3584 2113 3584 
Q 2378 3584 2631 3529 
Q 2884 3475 3122 3366 
z
" transform="scale(0.015625)"/>
      <path id="DejaVuSans-74" d="M 1172 4494 
L 1172 3500 
L 2356 3500 
L 2356 3053 
L 1172 3053 
L 1172 1153 
Q 1172 725 1289 603 
Q 1406 481 1766 481 
L 2356 481 
L 2356 0 
L 1766 0 
Q 1100 0 847 248 
Q 594 497 594 1153 
L 594 3053 
L 172 3053 
L 172 3500 
L 594 3500 
L 594 4494 
L 1172 4494 
z
" transform="scale(0.015625)"/>
      <path id="DejaVuSans-67" d="M 2906 1791 
Q 2906 2416 2648 2759 
Q 2391 3103 1925 3103 
Q 1463 3103 1205 2759 
Q 947 2416 947 1791 
Q 947 1169 1205 825 
Q 1463 481 1925 481 
Q 2391 481 2648 825 
Q 2906 1169 2906 1791 
z
M 3481 434 
Q 3481 -459 3084 -895 
Q 2688 -1331 1869 -1331 
Q 1566 -1331 1297 -1286 
Q 1028 -1241 775 -1147 
L 775 -588 
Q 1028 -725 1275 -790 
Q 1522 -856 1778 -856 
Q 2344 -856 2625 -561 
Q 2906 -266 2906 331 
L 2906 616 
Q 2728 306 2450 153 
Q 2172 0 1784 0 
Q 1141 0 747 490 
Q 353 981 353 1791 
Q 353 2603 747 3093 
Q 1141 3584 1784 3584 
Q 2172 3584 2450 3431 
Q 2728 3278 2906 2969 
L 2906 3500 
L 3481 3500 
L 3481 434 
z
" transform="scale(0.015625)"/>
      <path id="DejaVuSans-41" d="M 2188 4044 
L 1331 1722 
L 3047 1722 
L 2188 4044 
z
M 1831 4666 
L 2547 4666 
L 4325 0 
L 3669 0 
L 3244 1197 
L 1141 1197 
L 716 0 
L 50 0 
L 1831 4666 
z
" transform="scale(0.015625)"/>
      <path id="DejaVuSans-75" d="M 544 1381 
L 544 3500 
L 1119 3500 
L 1119 1403 
Q 1119 906 1312 657 
Q 1506 409 1894 409 
Q 2359 409 2629 706 
Q 2900 1003 2900 1516 
L 2900 3500 
L 3475 3500 
L 3475 0 
L 2900 0 
L 2900 538 
Q 2691 219 2414 64 
Q 2138 -91 1772 -91 
Q 1169 -91 856 284 
Q 544 659 544 1381 
z
M 1991 3584 
L 1991 3584 
z
" transform="scale(0.015625)"/>
     </defs>
     <use xlink:href="#DejaVuSans-44"/>
     <use xlink:href="#DejaVuSans-61" x="77.001953"/>
     <use xlink:href="#DejaVuSans-69" x="138.28125"/>
     <use xlink:href="#DejaVuSans-6c" x="166.064453"/>
     <use xlink:href="#DejaVuSans-79" x="193.847656"/>
     <use xlink:href="#DejaVuSans-20" x="253.027344"/>
     <use xlink:href="#DejaVuSans-43" x="284.814453"/>
     <use xlink:href="#DejaVuSans-6f" x="354.638672"/>
     <use xlink:href="#DejaVuSans-6e" x="415.820312"/>
     <use xlink:href="#DejaVuSans-66" x="479.199219"/>
     <use xlink:href="#DejaVuSans-69" x="514.404297"/>
     <use xlink:href="#DejaVuSans-72" x="542.1875"/>
     <use xlink:href="#DejaVuSans-6d" x="581.550781"/>
     <use xlink:href="#DejaVuSans-65" x="678.962891"/>
     <use xlink:href="#DejaVuSans-64" x="740.486328"/>
     <use xlink:href="#DejaVuSans-20" x="803.962891"/>
     <use xlink:href="#DejaVuSans-43" x="835.75"/>
     <use xlink:href="#DejaVuSans-61" x="905.574219"/>
     <use xlink:href="#DejaVuSans-73" x="966.853516"/>
     <use xlink:href="#DejaVuSans-65" x="1018.953125"/>
     <use xlink:href="#DejaVuSans-73" x="1080.476562"/>
     <use xlink:href="#DejaVuSans-20" x="1132.576172"/>
     <use xlink:href="#DejaVuSans-46" x="1164.363281"/>
     <use xlink:href="#DejaVuSans-6f" x="1218.257812"/>
     <use xlink:href="#DejaVuSans-72" x="1279.439453"/>
     <use xlink:href="#DejaVuSans-65" x="1318.302734"/>
     <use xlink:href="#DejaVuSans-63" x="1379.826172"/>
     <use xlink:href="#DejaVuSans-61" x="1434.806641"/>
     <use xlink:href="#DejaVuSans-73" x="1496.085938"/>
     <use xlink:href="#DejaVuSans-74" x="1548.185547"/>
     <use xlink:href="#DejaVuSans-69" x="1587.394531"/>
     <use xlink:href="#DejaVuSans-6e" x="1615.177734"/>
     <use xlink:href="#DejaVuSans-67" x="1678.556641"/>
     <use xlink:href="#DejaVuSans-20" x="1742.033203"/>
     <use xlink:href="#DejaVuSans-2d" x="1773.820312"/>
     <use xlink:href="#DejaVuSans-20" x="1809.904297"/>
     <use xlink:href="#DejaVuSans-41" x="1841.691406"/>
     <use xlink:href="#DejaVuSans-75" x="1910.099609"/>
     <use xlink:href="#DejaVuSans-73" x="1973.478516"/>
     <use xlink:href="#DejaVuSans-74" x="2025.578125"/>
     <use xlink:href="#DejaVuSans-72" x="2064.787109"/>
     <use xlink:href="#DejaVuSans-69" x="2105.900391"/>
     <use xlink:href="#DejaVuSans-61" x="2133.683594"/>
    </g>
    <!-- ARIMA (4, 1, 0)x(1, 0, 1, 7) (R2 = 0.438109) -->
    <g transform="translate(592.008125 29.7555)scale(0.12 -0.12)">
     <defs>
      <path id="DejaVuSans-52" d="M 2841 2188 
Q 3044 2119 3236 1894 
Q 3428 1669 3622 1275 
L 4263 0 
L 3584 0 
L 2988 1197 
Q 2756 1666 2539 1819 
Q 2322 1972 1947 1972 
L 1259 1972 
L 1259 0 
L 628 0 
L 628 4666 
L 2053 4666 
Q 2853 4666 3247 4331 
Q 3641 3997 3641 3322 
Q 3641 2881 3436 2590 
Q 3231 2300 2841 2188 
z
M 1259 4147 
L 1259 2491 
L 2053 2491 
Q 2509 2491 2742 2702 
Q 2975 2913 2975 3322 
Q 2975 3731 2742 3939 
Q 2509 4147 2053 4147 
L 1259 4147 
z
" transform="scale(0.015625)"/>
      <path id="DejaVuSans-49" d="M 628 4666 
L 1259 4666 
L 1259 0 
L 628 0 
L 628 4666 
z
" transform="scale(0.015625)"/>
      <path id="DejaVuSans-4d" d="M 628 4666 
L 1569 4666 
L 2759 1491 
L 3956 4666 
L 4897 4666 
L 4897 0 
L 4281 0 
L 4281 4097 
L 3078 897 
L 2444 897 
L 1241 4097 
L 1241 0 
L 628 0 
L 628 4666 
z
" transform="scale(0.015625)"/>
      <path id="DejaVuSans-28" d="M 1984 4856 
Q 1566 4138 1362 3434 
Q 1159 2731 1159 2009 
Q 1159 1288 1364 580 
Q 1569 -128 1984 -844 
L 1484 -844 
Q 1016 -109 783 600 
Q 550 1309 550 2009 
Q 550 2706 781 3412 
Q 1013 4119 1484 4856 
L 1984 4856 
z
" transform="scale(0.015625)"/>
      <path id="DejaVuSans-2c" d="M 750 794 
L 1409 794 
L 1409 256 
L 897 -744 
L 494 -744 
L 750 256 
L 750 794 
z
" transform="scale(0.015625)"/>
      <path id="DejaVuSans-29" d="M 513 4856 
L 1013 4856 
Q 1481 4119 1714 3412 
Q 1947 2706 1947 2009 
Q 1947 1309 1714 600 
Q 1481 -109 1013 -844 
L 513 -844 
Q 928 -128 1133 580 
Q 1338 1288 1338 2009 
Q 1338 2731 1133 3434 
Q 928 4138 513 4856 
z
" transform="scale(0.015625)"/>
      <path id="DejaVuSans-78" d="M 3513 3500 
L 2247 1797 
L 3578 0 
L 2900 0 
L 1881 1375 
L 863 0 
L 184 0 
L 1544 1831 
L 300 3500 
L 978 3500 
L 1906 2253 
L 2834 3500 
L 3513 3500 
z
" transform="scale(0.015625)"/>
      <path id="DejaVuSans-37" d="M 525 4666 
L 3525 4666 
L 3525 4397 
L 1831 0 
L 1172 0 
L 2766 4134 
L 525 4134 
L 525 4666 
z
" transform="scale(0.015625)"/>
      <path id="DejaVuSans-3d" d="M 678 2906 
L 4684 2906 
L 4684 2381 
L 678 2381 
L 678 2906 
z
M 678 1631 
L 4684 1631 
L 4684 1100 
L 678 1100 
L 678 1631 
z
" transform="scale(0.015625)"/>
      <path id="DejaVuSans-2e" d="M 684 794 
L 1344 794 
L 1344 0 
L 684 0 
L 684 794 
z
" transform="scale(0.015625)"/>
      <path id="DejaVuSans-38" d="M 2034 2216 
Q 1584 2216 1326 1975 
Q 1069 1734 1069 1313 
Q 1069 891 1326 650 
Q 1584 409 2034 409 
Q 2484 409 2743 651 
Q 3003 894 3003 1313 
Q 3003 1734 2745 1975 
Q 2488 2216 2034 2216 
z
M 1403 2484 
Q 997 2584 770 2862 
Q 544 3141 544 3541 
Q 544 4100 942 4425 
Q 1341 4750 2034 4750 
Q 2731 4750 3128 4425 
Q 3525 4100 3525 3541 
Q 3525 3141 3298 2862 
Q 3072 2584 2669 2484 
Q 3125 2378 3379 2068 
Q 3634 1759 3634 1313 
Q 3634 634 3220 271 
Q 2806 -91 2034 -91 
Q 1263 -91 848 271 
Q 434 634 434 1313 
Q 434 1759 690 2068 
Q 947 2378 1403 2484 
z
M 1172 3481 
Q 1172 3119 1398 2916 
Q 1625 2713 2034 2713 
Q 2441 2713 2670 2916 
Q 2900 3119 2900 3481 
Q 2900 3844 2670 4047 
Q 2441 4250 2034 4250 
Q 1625 4250 1398 4047 
Q 1172 3844 1172 3481 
z
" transform="scale(0.015625)"/>
     </defs>
     <use xlink:href="#DejaVuSans-41"/>
     <use xlink:href="#DejaVuSans-52" x="68.408203"/>
     <use xlink:href="#DejaVuSans-49" x="137.890625"/>
     <use xlink:href="#DejaVuSans-4d" x="167.382812"/>
     <use xlink:href="#DejaVuSans-41" x="253.662109"/>
     <use xlink:href="#DejaVuSans-20" x="322.070312"/>
     <use xlink:href="#DejaVuSans-28" x="353.857422"/>
     <use xlink:href="#DejaVuSans-34" x="392.871094"/>
     <use xlink:href="#DejaVuSans-2c" x="456.494141"/>
     <use xlink:href="#DejaVuSans-20" x="488.28125"/>
     <use xlink:href="#DejaVuSans-31" x="520.068359"/>
     <use xlink:href="#DejaVuSans-2c" x="583.691406"/>
     <use xlink:href="#DejaVuSans-20" x="615.478516"/>
     <use xlink:href="#DejaVuSans-30" x="647.265625"/>
     <use xlink:href="#DejaVuSans-29" x="710.888672"/>
     <use xlink:href="#DejaVuSans-78" x="749.902344"/>
     <use xlink:href="#DejaVuSans-28" x="809.082031"/>
     <use xlink:href="#DejaVuSans-31" x="848.095703"/>
     <use xlink:href="#DejaVuSans-2c" x="911.71875"/>
     <use xlink:href="#DejaVuSans-20" x="943.505859"/>
     <use xlink:href="#DejaVuSans-30" x="975.292969"/>
     <use xlink:href="#DejaVuSans-2c" x="1038.916016"/>
     <use xlink:href="#DejaVuSans-20" x="1070.703125"/>
     <use xlink:href="#DejaVuSans-31" x="1102.490234"/>
     <use xlink:href="#DejaVuSans-2c" x="1166.113281"/>
     <use xlink:href="#DejaVuSans-20" x="1197.900391"/>
     <use xlink:href="#DejaVuSans-37" x="1229.6875"/>
     <use xlink:href="#DejaVuSans-29" x="1293.310547"/>
     <use xlink:href="#DejaVuSans-20" x="1332.324219"/>
     <use xlink:href="#DejaVuSans-28" x="1364.111328"/>
     <use xlink:href="#DejaVuSans-52" x="1403.125"/>
     <use xlink:href="#DejaVuSans-32" x="1472.607422"/>
     <use xlink:href="#DejaVuSans-20" x="1536.230469"/>
     <use xlink:href="#DejaVuSans-3d" x="1568.017578"/>
     <use xlink:href="#DejaVuSans-20" x="1651.806641"/>
     <use xlink:href="#DejaVuSans-30" x="1683.59375"/>
     <use xlink:href="#DejaVuSans-2e" x="1747.216797"/>
     <use xlink:href="#DejaVuSans-34" x="1779.003906"/>
     <use xlink:href="#DejaVuSans-33" x="1842.626953"/>
     <use xlink:href="#DejaVuSans-38" x="1906.25"/>
     <use xlink:href="#DejaVuSans-31" x="1969.873047"/>
     <use xlink:href="#DejaVuSans-30" x="2033.496094"/>
     <use xlink:href="#DejaVuSans-39" x="2097.119141"/>
     <use xlink:href="#DejaVuSans-29" x="2160.742188"/>
    </g>
   </g>
   <g id="legend_1">
    <g id="patch_7">
     <path d="M 1289.5125 87.789875 
L 1386.592188 87.789875 
Q 1388.592188 87.789875 1388.592188 85.789875 
L 1388.592188 42.7555 
Q 1388.592188 40.7555 1386.592188 40.7555 
L 1289.5125 40.7555 
Q 1287.5125 40.7555 1287.5125 42.7555 
L 1287.5125 85.789875 
Q 1287.5125 87.789875 1289.5125 87.789875 
z
" style="fill: #ffffff; opacity: 0.8; stroke: #cccccc; stroke-linejoin: miter"/>
    </g>
    <g id="line2d_22">
     <path d="M 1291.5125 48.853937 
L 1301.5125 48.853937 
L 1311.5125 48.853937 
" style="fill: none; stroke: #0000ff; stroke-width: 1.5; stroke-linecap: square"/>
    </g>
    <g id="text_20">
     <!-- Actual Value -->
     <g transform="translate(1319.5125 52.353937)scale(0.1 -0.1)">
      <defs>
       <path id="DejaVuSans-56" d="M 1831 0 
L 50 4666 
L 709 4666 
L 2188 738 
L 3669 4666 
L 4325 4666 
L 2547 0 
L 1831 0 
z
" transform="scale(0.015625)"/>
      </defs>
      <use xlink:href="#DejaVuSans-41"/>
      <use xlink:href="#DejaVuSans-63" x="66.658203"/>
      <use xlink:href="#DejaVuSans-74" x="121.638672"/>
      <use xlink:href="#DejaVuSans-75" x="160.847656"/>
      <use xlink:href="#DejaVuSans-61" x="224.226562"/>
      <use xlink:href="#DejaVuSans-6c" x="285.505859"/>
      <use xlink:href="#DejaVuSans-20" x="313.289062"/>
      <use xlink:href="#DejaVuSans-56" x="345.076172"/>
      <use xlink:href="#DejaVuSans-61" x="405.734375"/>
      <use xlink:href="#DejaVuSans-6c" x="467.013672"/>
      <use xlink:href="#DejaVuSans-75" x="494.796875"/>
      <use xlink:href="#DejaVuSans-65" x="558.175781"/>
     </g>
    </g>
    <g id="line2d_23">
     <path d="M 1291.5125 63.532062 
L 1301.5125 63.532062 
L 1311.5125 63.532062 
" style="fill: none; stroke: #ffa500; stroke-width: 1.5; stroke-linecap: square"/>
    </g>
    <g id="text_21">
     <!-- Check Value -->
     <g transform="translate(1319.5125 67.032062)scale(0.1 -0.1)">
      <defs>
       <path id="DejaVuSans-68" d="M 3513 2113 
L 3513 0 
L 2938 0 
L 2938 2094 
Q 2938 2591 2744 2837 
Q 2550 3084 2163 3084 
Q 1697 3084 1428 2787 
Q 1159 2491 1159 1978 
L 1159 0 
L 581 0 
L 581 4863 
L 1159 4863 
L 1159 2956 
Q 1366 3272 1645 3428 
Q 1925 3584 2291 3584 
Q 2894 3584 3203 3211 
Q 3513 2838 3513 2113 
z
" transform="scale(0.015625)"/>
       <path id="DejaVuSans-6b" d="M 581 4863 
L 1159 4863 
L 1159 1991 
L 2875 3500 
L 3609 3500 
L 1753 1863 
L 3688 0 
L 2938 0 
L 1159 1709 
L 1159 0 
L 581 0 
L 581 4863 
z
" transform="scale(0.015625)"/>
      </defs>
      <use xlink:href="#DejaVuSans-43"/>
      <use xlink:href="#DejaVuSans-68" x="69.824219"/>
      <use xlink:href="#DejaVuSans-65" x="133.203125"/>
      <use xlink:href="#DejaVuSans-63" x="194.726562"/>
      <use xlink:href="#DejaVuSans-6b" x="249.707031"/>
      <use xlink:href="#DejaVuSans-20" x="307.617188"/>
      <use xlink:href="#DejaVuSans-56" x="339.404297"/>
      <use xlink:href="#DejaVuSans-61" x="400.0625"/>
      <use xlink:href="#DejaVuSans-6c" x="461.341797"/>
      <use xlink:href="#DejaVuSans-75" x="489.125"/>
      <use xlink:href="#DejaVuSans-65" x="552.503906"/>
     </g>
    </g>
    <g id="line2d_24">
     <path d="M 1291.5125 78.210187 
L 1301.5125 78.210187 
L 1311.5125 78.210187 
" style="fill: none; stroke: #ff0000; stroke-width: 1.5; stroke-linecap: square"/>
    </g>
    <g id="text_22">
     <!-- Predict Value -->
     <g transform="translate(1319.5125 81.710187)scale(0.1 -0.1)">
      <defs>
       <path id="DejaVuSans-50" d="M 1259 4147 
L 1259 2394 
L 2053 2394 
Q 2494 2394 2734 2622 
Q 2975 2850 2975 3272 
Q 2975 3691 2734 3919 
Q 2494 4147 2053 4147 
L 1259 4147 
z
M 628 4666 
L 2053 4666 
Q 2838 4666 3239 4311 
Q 3641 3956 3641 3272 
Q 3641 2581 3239 2228 
Q 2838 1875 2053 1875 
L 1259 1875 
L 1259 0 
L 628 0 
L 628 4666 
z
" transform="scale(0.015625)"/>
      </defs>
      <use xlink:href="#DejaVuSans-50"/>
      <use xlink:href="#DejaVuSans-72" x="58.552734"/>
      <use xlink:href="#DejaVuSans-65" x="97.416016"/>
      <use xlink:href="#DejaVuSans-64" x="158.939453"/>
      <use xlink:href="#DejaVuSans-69" x="222.416016"/>
      <use xlink:href="#DejaVuSans-63" x="250.199219"/>
      <use xlink:href="#DejaVuSans-74" x="305.179688"/>
      <use xlink:href="#DejaVuSans-20" x="344.388672"/>
      <use xlink:href="#DejaVuSans-56" x="376.175781"/>
      <use xlink:href="#DejaVuSans-61" x="436.833984"/>
      <use xlink:href="#DejaVuSans-6c" x="498.113281"/>
      <use xlink:href="#DejaVuSans-75" x="525.896484"/>
      <use xlink:href="#DejaVuSans-65" x="589.275391"/>
     </g>
    </g>
   </g>
  </g>
 </g>
 <defs>
  <clipPath id="p86324780f7">
   <rect x="54.392188" y="35.7555" width="1339.2" height="332.64"/>
  </clipPath>
 </defs>
</svg>
