<?xml version="1.0" encoding="utf-8" standalone="no"?>
<!DOCTYPE svg PUBLIC "-//W3C//DTD SVG 1.1//EN"
  "http://www.w3.org/Graphics/SVG/1.1/DTD/svg11.dtd">
<svg xmlns:xlink="http://www.w3.org/1999/xlink" width="1392.4125pt" height="392.273625pt" viewBox="0 0 1392.4125 392.273625" xmlns="http://www.w3.org/2000/svg" version="1.1">
 <metadata>
  <rdf:RDF xmlns:dc="http://purl.org/dc/elements/1.1/" xmlns:cc="http://creativecommons.org/ns#" xmlns:rdf="http://www.w3.org/1999/02/22-rdf-syntax-ns#">
   <cc:Work>
    <dc:type rdf:resource="http://purl.org/dc/dcmitype/StillImage"/>
    <dc:date>2022-08-14T18:58:17.366463</dc:date>
    <dc:format>image/svg+xml</dc:format>
    <dc:creator>
     <cc:Agent>
      <dc:title>Matplotlib v3.5.1, https://matplotlib.org/</dc:title>
     </cc:Agent>
    </dc:creator>
   </cc:Work>
  </rdf:RDF>
 </metadata>
 <defs>
  <style type="text/css">*{stroke-linejoin: round; stroke-linecap: butt}</style>
 </defs>
 <g id="figure_1">
  <g id="patch_1">
   <path d="M 0 392.273625 
L 1392.4125 392.273625 
L 1392.4125 0 
L 0 0 
z
" style="fill: #ffffff"/>
  </g>
  <g id="axes_1">
   <g id="patch_2">
    <path d="M 46.0125 368.3955 
L 1385.2125 368.3955 
L 1385.2125 35.7555 
L 46.0125 35.7555 
z
" style="fill: #ffffff"/>
   </g>
   <g id="matplotlib.axis_1">
    <g id="xtick_1">
     <g id="line2d_1">
      <defs>
       <path id="mee12a62460" d="M 0 0 
L 0 3.5 
" style="stroke: #000000; stroke-width: 0.8"/>
      </defs>
      <g>
       <use xlink:href="#mee12a62460" x="78.602228" y="368.3955" style="stroke: #000000; stroke-width: 0.8"/>
      </g>
     </g>
     <g id="text_1">
      <!-- 2020-01 -->
      <g transform="translate(57.710822 382.993937)scale(0.1 -0.1)">
       <defs>
        <path id="DejaVuSans-32" d="M 1228 531 
L 3431 531 
L 3431 0 
L 469 0 
L 469 531 
Q 828 903 1448 1529 
Q 2069 2156 2228 2338 
Q 2531 2678 2651 2914 
Q 2772 3150 2772 3378 
Q 2772 3750 2511 3984 
Q 2250 4219 1831 4219 
Q 1534 4219 1204 4116 
Q 875 4013 500 3803 
L 500 4441 
Q 881 4594 1212 4672 
Q 1544 4750 1819 4750 
Q 2544 4750 2975 4387 
Q 3406 4025 3406 3419 
Q 3406 3131 3298 2873 
Q 3191 2616 2906 2266 
Q 2828 2175 2409 1742 
Q 1991 1309 1228 531 
z
" transform="scale(0.015625)"/>
        <path id="DejaVuSans-30" d="M 2034 4250 
Q 1547 4250 1301 3770 
Q 1056 3291 1056 2328 
Q 1056 1369 1301 889 
Q 1547 409 2034 409 
Q 2525 409 2770 889 
Q 3016 1369 3016 2328 
Q 3016 3291 2770 3770 
Q 2525 4250 2034 4250 
z
M 2034 4750 
Q 2819 4750 3233 4129 
Q 3647 3509 3647 2328 
Q 3647 1150 3233 529 
Q 2819 -91 2034 -91 
Q 1250 -91 836 529 
Q 422 1150 422 2328 
Q 422 3509 836 4129 
Q 1250 4750 2034 4750 
z
" transform="scale(0.015625)"/>
        <path id="DejaVuSans-2d" d="M 313 2009 
L 1997 2009 
L 1997 1497 
L 313 1497 
L 313 2009 
z
" transform="scale(0.015625)"/>
        <path id="DejaVuSans-31" d="M 794 531 
L 1825 531 
L 1825 4091 
L 703 3866 
L 703 4441 
L 1819 4666 
L 2450 4666 
L 2450 531 
L 3481 531 
L 3481 0 
L 794 0 
L 794 531 
z
" transform="scale(0.015625)"/>
       </defs>
       <use xlink:href="#DejaVuSans-32"/>
       <use xlink:href="#DejaVuSans-30" x="63.623047"/>
       <use xlink:href="#DejaVuSans-32" x="127.246094"/>
       <use xlink:href="#DejaVuSans-30" x="190.869141"/>
       <use xlink:href="#DejaVuSans-2d" x="254.492188"/>
       <use xlink:href="#DejaVuSans-30" x="290.576172"/>
       <use xlink:href="#DejaVuSans-31" x="354.199219"/>
      </g>
     </g>
    </g>
    <g id="xtick_2">
     <g id="line2d_2">
      <g>
       <use xlink:href="#mee12a62460" x="234.158723" y="368.3955" style="stroke: #000000; stroke-width: 0.8"/>
      </g>
     </g>
     <g id="text_2">
      <!-- 2020-05 -->
      <g transform="translate(213.267316 382.993937)scale(0.1 -0.1)">
       <defs>
        <path id="DejaVuSans-35" d="M 691 4666 
L 3169 4666 
L 3169 4134 
L 1269 4134 
L 1269 2991 
Q 1406 3038 1543 3061 
Q 1681 3084 1819 3084 
Q 2600 3084 3056 2656 
Q 3513 2228 3513 1497 
Q 3513 744 3044 326 
Q 2575 -91 1722 -91 
Q 1428 -91 1123 -41 
Q 819 9 494 109 
L 494 744 
Q 775 591 1075 516 
Q 1375 441 1709 441 
Q 2250 441 2565 725 
Q 2881 1009 2881 1497 
Q 2881 1984 2565 2268 
Q 2250 2553 1709 2553 
Q 1456 2553 1204 2497 
Q 953 2441 691 2322 
L 691 4666 
z
" transform="scale(0.015625)"/>
       </defs>
       <use xlink:href="#DejaVuSans-32"/>
       <use xlink:href="#DejaVuSans-30" x="63.623047"/>
       <use xlink:href="#DejaVuSans-32" x="127.246094"/>
       <use xlink:href="#DejaVuSans-30" x="190.869141"/>
       <use xlink:href="#DejaVuSans-2d" x="254.492188"/>
       <use xlink:href="#DejaVuSans-30" x="290.576172"/>
       <use xlink:href="#DejaVuSans-35" x="354.199219"/>
      </g>
     </g>
    </g>
    <g id="xtick_3">
     <g id="line2d_3">
      <g>
       <use xlink:href="#mee12a62460" x="392.286398" y="368.3955" style="stroke: #000000; stroke-width: 0.8"/>
      </g>
     </g>
     <g id="text_3">
      <!-- 2020-09 -->
      <g transform="translate(371.394992 382.993937)scale(0.1 -0.1)">
       <defs>
        <path id="DejaVuSans-39" d="M 703 97 
L 703 672 
Q 941 559 1184 500 
Q 1428 441 1663 441 
Q 2288 441 2617 861 
Q 2947 1281 2994 2138 
Q 2813 1869 2534 1725 
Q 2256 1581 1919 1581 
Q 1219 1581 811 2004 
Q 403 2428 403 3163 
Q 403 3881 828 4315 
Q 1253 4750 1959 4750 
Q 2769 4750 3195 4129 
Q 3622 3509 3622 2328 
Q 3622 1225 3098 567 
Q 2575 -91 1691 -91 
Q 1453 -91 1209 -44 
Q 966 3 703 97 
z
M 1959 2075 
Q 2384 2075 2632 2365 
Q 2881 2656 2881 3163 
Q 2881 3666 2632 3958 
Q 2384 4250 1959 4250 
Q 1534 4250 1286 3958 
Q 1038 3666 1038 3163 
Q 1038 2656 1286 2365 
Q 1534 2075 1959 2075 
z
" transform="scale(0.015625)"/>
       </defs>
       <use xlink:href="#DejaVuSans-32"/>
       <use xlink:href="#DejaVuSans-30" x="63.623047"/>
       <use xlink:href="#DejaVuSans-32" x="127.246094"/>
       <use xlink:href="#DejaVuSans-30" x="190.869141"/>
       <use xlink:href="#DejaVuSans-2d" x="254.492188"/>
       <use xlink:href="#DejaVuSans-30" x="290.576172"/>
       <use xlink:href="#DejaVuSans-39" x="354.199219"/>
      </g>
     </g>
    </g>
    <g id="xtick_4">
     <g id="line2d_4">
      <g>
       <use xlink:href="#mee12a62460" x="549.128483" y="368.3955" style="stroke: #000000; stroke-width: 0.8"/>
      </g>
     </g>
     <g id="text_4">
      <!-- 2021-01 -->
      <g transform="translate(528.237077 382.993937)scale(0.1 -0.1)">
       <use xlink:href="#DejaVuSans-32"/>
       <use xlink:href="#DejaVuSans-30" x="63.623047"/>
       <use xlink:href="#DejaVuSans-32" x="127.246094"/>
       <use xlink:href="#DejaVuSans-31" x="190.869141"/>
       <use xlink:href="#DejaVuSans-2d" x="254.492188"/>
       <use xlink:href="#DejaVuSans-30" x="290.576172"/>
       <use xlink:href="#DejaVuSans-31" x="354.199219"/>
      </g>
     </g>
    </g>
    <g id="xtick_5">
     <g id="line2d_5">
      <g>
       <use xlink:href="#mee12a62460" x="703.399387" y="368.3955" style="stroke: #000000; stroke-width: 0.8"/>
      </g>
     </g>
     <g id="text_5">
      <!-- 2021-05 -->
      <g transform="translate(682.507981 382.993937)scale(0.1 -0.1)">
       <use xlink:href="#DejaVuSans-32"/>
       <use xlink:href="#DejaVuSans-30" x="63.623047"/>
       <use xlink:href="#DejaVuSans-32" x="127.246094"/>
       <use xlink:href="#DejaVuSans-31" x="190.869141"/>
       <use xlink:href="#DejaVuSans-2d" x="254.492188"/>
       <use xlink:href="#DejaVuSans-30" x="290.576172"/>
       <use xlink:href="#DejaVuSans-35" x="354.199219"/>
      </g>
     </g>
    </g>
    <g id="xtick_6">
     <g id="line2d_6">
      <g>
       <use xlink:href="#mee12a62460" x="861.527063" y="368.3955" style="stroke: #000000; stroke-width: 0.8"/>
      </g>
     </g>
     <g id="text_6">
      <!-- 2021-09 -->
      <g transform="translate(840.635656 382.993937)scale(0.1 -0.1)">
       <use xlink:href="#DejaVuSans-32"/>
       <use xlink:href="#DejaVuSans-30" x="63.623047"/>
       <use xlink:href="#DejaVuSans-32" x="127.246094"/>
       <use xlink:href="#DejaVuSans-31" x="190.869141"/>
       <use xlink:href="#DejaVuSans-2d" x="254.492188"/>
       <use xlink:href="#DejaVuSans-30" x="290.576172"/>
       <use xlink:href="#DejaVuSans-39" x="354.199219"/>
      </g>
     </g>
    </g>
    <g id="xtick_7">
     <g id="line2d_7">
      <g>
       <use xlink:href="#mee12a62460" x="1018.369148" y="368.3955" style="stroke: #000000; stroke-width: 0.8"/>
      </g>
     </g>
     <g id="text_7">
      <!-- 2022-01 -->
      <g transform="translate(997.477742 382.993937)scale(0.1 -0.1)">
       <use xlink:href="#DejaVuSans-32"/>
       <use xlink:href="#DejaVuSans-30" x="63.623047"/>
       <use xlink:href="#DejaVuSans-32" x="127.246094"/>
       <use xlink:href="#DejaVuSans-32" x="190.869141"/>
       <use xlink:href="#DejaVuSans-2d" x="254.492188"/>
       <use xlink:href="#DejaVuSans-30" x="290.576172"/>
       <use xlink:href="#DejaVuSans-31" x="354.199219"/>
      </g>
     </g>
    </g>
    <g id="xtick_8">
     <g id="line2d_8">
      <g>
       <use xlink:href="#mee12a62460" x="1172.640051" y="368.3955" style="stroke: #000000; stroke-width: 0.8"/>
      </g>
     </g>
     <g id="text_8">
      <!-- 2022-05 -->
      <g transform="translate(1151.748645 382.993937)scale(0.1 -0.1)">
       <use xlink:href="#DejaVuSans-32"/>
       <use xlink:href="#DejaVuSans-30" x="63.623047"/>
       <use xlink:href="#DejaVuSans-32" x="127.246094"/>
       <use xlink:href="#DejaVuSans-32" x="190.869141"/>
       <use xlink:href="#DejaVuSans-2d" x="254.492188"/>
       <use xlink:href="#DejaVuSans-30" x="290.576172"/>
       <use xlink:href="#DejaVuSans-35" x="354.199219"/>
      </g>
     </g>
    </g>
    <g id="xtick_9">
     <g id="line2d_9">
      <g>
       <use xlink:href="#mee12a62460" x="1330.767727" y="368.3955" style="stroke: #000000; stroke-width: 0.8"/>
      </g>
     </g>
     <g id="text_9">
      <!-- 2022-09 -->
      <g transform="translate(1309.876321 382.993937)scale(0.1 -0.1)">
       <use xlink:href="#DejaVuSans-32"/>
       <use xlink:href="#DejaVuSans-30" x="63.623047"/>
       <use xlink:href="#DejaVuSans-32" x="127.246094"/>
       <use xlink:href="#DejaVuSans-32" x="190.869141"/>
       <use xlink:href="#DejaVuSans-2d" x="254.492188"/>
       <use xlink:href="#DejaVuSans-30" x="290.576172"/>
       <use xlink:href="#DejaVuSans-39" x="354.199219"/>
      </g>
     </g>
    </g>
   </g>
   <g id="matplotlib.axis_2">
    <g id="ytick_1">
     <g id="line2d_10">
      <defs>
       <path id="ma36e3833db" d="M 0 0 
L -3.5 0 
" style="stroke: #000000; stroke-width: 0.8"/>
      </defs>
      <g>
       <use xlink:href="#ma36e3833db" x="46.0125" y="350.53109" style="stroke: #000000; stroke-width: 0.8"/>
      </g>
     </g>
     <g id="text_10">
      <!-- 0 -->
      <g transform="translate(32.65 354.330309)scale(0.1 -0.1)">
       <use xlink:href="#DejaVuSans-30"/>
      </g>
     </g>
    </g>
    <g id="ytick_2">
     <g id="line2d_11">
      <g>
       <use xlink:href="#ma36e3833db" x="46.0125" y="293.145593" style="stroke: #000000; stroke-width: 0.8"/>
      </g>
     </g>
     <g id="text_11">
      <!-- 5000 -->
      <g transform="translate(13.5625 296.944812)scale(0.1 -0.1)">
       <use xlink:href="#DejaVuSans-35"/>
       <use xlink:href="#DejaVuSans-30" x="63.623047"/>
       <use xlink:href="#DejaVuSans-30" x="127.246094"/>
       <use xlink:href="#DejaVuSans-30" x="190.869141"/>
      </g>
     </g>
    </g>
    <g id="ytick_3">
     <g id="line2d_12">
      <g>
       <use xlink:href="#ma36e3833db" x="46.0125" y="235.760096" style="stroke: #000000; stroke-width: 0.8"/>
      </g>
     </g>
     <g id="text_12">
      <!-- 10000 -->
      <g transform="translate(7.2 239.559314)scale(0.1 -0.1)">
       <use xlink:href="#DejaVuSans-31"/>
       <use xlink:href="#DejaVuSans-30" x="63.623047"/>
       <use xlink:href="#DejaVuSans-30" x="127.246094"/>
       <use xlink:href="#DejaVuSans-30" x="190.869141"/>
       <use xlink:href="#DejaVuSans-30" x="254.492188"/>
      </g>
     </g>
    </g>
    <g id="ytick_4">
     <g id="line2d_13">
      <g>
       <use xlink:href="#ma36e3833db" x="46.0125" y="178.374598" style="stroke: #000000; stroke-width: 0.8"/>
      </g>
     </g>
     <g id="text_13">
      <!-- 15000 -->
      <g transform="translate(7.2 182.173817)scale(0.1 -0.1)">
       <use xlink:href="#DejaVuSans-31"/>
       <use xlink:href="#DejaVuSans-35" x="63.623047"/>
       <use xlink:href="#DejaVuSans-30" x="127.246094"/>
       <use xlink:href="#DejaVuSans-30" x="190.869141"/>
       <use xlink:href="#DejaVuSans-30" x="254.492188"/>
      </g>
     </g>
    </g>
    <g id="ytick_5">
     <g id="line2d_14">
      <g>
       <use xlink:href="#ma36e3833db" x="46.0125" y="120.989101" style="stroke: #000000; stroke-width: 0.8"/>
      </g>
     </g>
     <g id="text_14">
      <!-- 20000 -->
      <g transform="translate(7.2 124.788319)scale(0.1 -0.1)">
       <use xlink:href="#DejaVuSans-32"/>
       <use xlink:href="#DejaVuSans-30" x="63.623047"/>
       <use xlink:href="#DejaVuSans-30" x="127.246094"/>
       <use xlink:href="#DejaVuSans-30" x="190.869141"/>
       <use xlink:href="#DejaVuSans-30" x="254.492188"/>
      </g>
     </g>
    </g>
    <g id="ytick_6">
     <g id="line2d_15">
      <g>
       <use xlink:href="#ma36e3833db" x="46.0125" y="63.603603" style="stroke: #000000; stroke-width: 0.8"/>
      </g>
     </g>
     <g id="text_15">
      <!-- 25000 -->
      <g transform="translate(7.2 67.402822)scale(0.1 -0.1)">
       <use xlink:href="#DejaVuSans-32"/>
       <use xlink:href="#DejaVuSans-35" x="63.623047"/>
       <use xlink:href="#DejaVuSans-30" x="127.246094"/>
       <use xlink:href="#DejaVuSans-30" x="190.869141"/>
       <use xlink:href="#DejaVuSans-30" x="254.492188"/>
      </g>
     </g>
    </g>
   </g>
   <g id="line2d_16">
    <path d="M 106.885227 350.53109 
L 158.308862 350.450751 
L 159.594453 350.25564 
L 160.880043 350.1753 
L 162.165634 350.290071 
L 163.451225 350.083484 
L 164.736816 350.198255 
L 166.022407 350.198255 
L 167.307998 348.293056 
L 168.593589 348.258625 
L 169.879179 349.337472 
L 171.16477 347.156823 
L 172.450361 349.452243 
L 173.735952 349.02759 
L 175.021543 349.245655 
L 176.307134 349.039067 
L 177.592725 349.532583 
L 178.878315 348.281579 
L 180.163906 348.602938 
L 181.449497 348.189762 
L 182.735088 347.466705 
L 184.020679 347.822495 
L 185.30627 347.753632 
L 186.591861 347.994651 
L 187.877452 347.260117 
L 189.163042 346.10093 
L 190.448633 347.547045 
L 191.734224 347.443751 
L 193.019815 348.683277 
L 195.590997 347.983174 
L 196.876588 347.271594 
L 198.162178 347.971697 
L 200.73336 348.958728 
L 203.304542 347.994651 
L 204.590133 350.53109 
L 205.875724 349.096453 
L 207.161314 349.348949 
L 208.446905 349.440766 
L 209.732496 349.199747 
L 211.018087 349.635877 
L 212.303678 350.301548 
L 213.589269 349.18827 
L 214.87486 348.740663 
L 216.16045 350.060529 
L 217.446041 349.394858 
L 218.731632 350.049052 
L 220.017223 349.635877 
L 221.302814 350.129392 
L 222.588405 348.843957 
L 223.873996 349.808033 
L 225.159586 349.81951 
L 226.445177 350.117915 
L 227.730768 350.209732 
L 229.016359 349.704739 
L 231.587541 349.957235 
L 232.873132 350.209732 
L 234.158723 350.014621 
L 235.444313 350.232686 
L 238.015495 349.876896 
L 244.443449 350.198255 
L 245.72904 350.462228 
L 247.014631 350.221209 
L 258.584949 350.370411 
L 259.87054 350.209732 
L 265.012903 350.393365 
L 267.584085 350.324503 
L 270.155267 350.404842 
L 271.440857 350.358934 
L 272.726448 350.496659 
L 275.29763 350.427797 
L 277.868812 350.221209 
L 280.439994 350.427797 
L 283.011175 350.370411 
L 288.153539 350.393365 
L 290.72472 350.496659 
L 292.010311 350.347457 
L 293.295902 350.381888 
L 294.581493 350.163823 
L 295.867084 350.347457 
L 298.438266 350.347457 
L 299.723856 350.496659 
L 301.009447 350.462228 
L 302.295038 350.290071 
L 303.580629 350.347457 
L 304.86622 350.53109 
L 306.151811 350.026098 
L 307.437402 350.370411 
L 310.008583 350.450751 
L 311.294174 350.33598 
L 312.579765 350.33598 
L 313.865356 350.462228 
L 315.150947 350.313026 
L 316.436538 350.473705 
L 321.578901 350.496659 
L 322.864492 350.358934 
L 326.721265 350.485182 
L 328.006855 350.496659 
L 329.292446 350.33598 
L 331.863628 350.485182 
L 333.149219 350.416319 
L 335.720401 350.53109 
L 338.291582 350.313026 
L 339.577173 350.462228 
L 340.862764 350.232686 
L 342.148355 350.450751 
L 343.433946 350.313026 
L 344.719537 350.462228 
L 347.290718 350.324503 
L 348.576309 350.278594 
L 349.8619 350.117915 
L 351.147491 350.163823 
L 352.433082 350.381888 
L 353.718673 350.358934 
L 355.004263 349.773602 
L 356.289854 350.209732 
L 360.146627 349.578491 
L 361.432218 349.98019 
L 362.717809 350.083484 
L 364.003399 350.003144 
L 365.28899 349.762125 
L 366.574581 350.163823 
L 367.860172 349.750648 
L 369.145763 349.876896 
L 370.431354 349.876896 
L 371.716945 350.072006 
L 373.002536 349.89985 
L 376.859308 350.129392 
L 378.144899 349.635877 
L 379.43049 350.25564 
L 380.716081 350.25564 
L 382.001672 349.704739 
L 385.858444 350.094961 
L 387.144035 350.072006 
L 388.429626 350.198255 
L 389.715217 350.163823 
L 391.000808 348.935774 
L 392.286398 349.509629 
L 393.571989 348.660323 
L 394.85758 349.54406 
L 396.143171 349.257132 
L 397.428762 349.785079 
L 398.714353 349.475197 
L 399.999944 349.004636 
L 401.285534 349.360426 
L 402.571125 349.119407 
L 403.856716 349.142361 
L 405.142307 348.970205 
L 406.427898 349.658831 
L 407.713489 349.670308 
L 408.99908 349.130884 
L 411.570261 349.325995 
L 412.855852 348.855434 
L 414.141443 349.096453 
L 415.427034 349.509629 
L 416.712625 350.083484 
L 417.998216 349.291564 
L 419.283807 348.83248 
L 420.569397 349.10793 
L 423.140579 348.935774 
L 424.42617 349.589968 
L 425.711761 349.716216 
L 426.997352 349.498151 
L 428.282943 349.073499 
L 429.568533 349.245655 
L 432.139715 348.981682 
L 433.425306 349.635877 
L 434.710897 349.440766 
L 435.996488 348.83248 
L 437.282079 348.47669 
L 438.567669 347.902835 
L 439.85326 348.143854 
L 441.138851 348.614415 
L 442.424442 349.635877 
L 443.710033 349.865419 
L 444.995624 349.211224 
L 446.281215 348.763617 
L 447.566805 348.694755 
L 448.852396 348.419304 
L 450.137987 348.981682 
L 451.423578 349.417812 
L 452.709169 349.521106 
L 453.99476 348.855434 
L 456.565941 348.327487 
L 457.851532 347.432274 
L 459.137123 347.110915 
L 460.422714 348.04056 
L 461.708305 348.694755 
L 462.993896 345.561506 
L 464.279487 346.81251 
L 465.565078 345.905819 
L 466.850668 344.849926 
L 468.136259 344.815495 
L 469.42185 347.443751 
L 470.707441 347.042052 
L 471.993032 342.451212 
L 473.278623 343.44972 
L 474.564214 343.392335 
L 475.849804 343.059499 
L 477.135395 343.575968 
L 478.420986 345.848434 
L 479.706577 344.918789 
L 480.992168 343.72517 
L 482.277759 344.080961 
L 483.56335 343.36938 
L 484.84894 342.30201 
L 486.134531 342.634846 
L 487.420122 344.585953 
L 488.705713 350.53109 
L 489.991304 350.53109 
L 491.276895 331.249563 
L 492.562486 343.002113 
L 493.848076 342.829957 
L 495.133667 343.954712 
L 496.419258 346.651831 
L 497.704849 345.791048 
L 498.99044 345.733663 
L 500.276031 344.402319 
L 501.561622 344.207209 
L 502.847212 345.022083 
L 504.132803 345.423781 
L 505.418394 346.479674 
L 506.703985 347.294548 
L 507.989576 346.835464 
L 509.275167 345.46969 
L 510.560758 346.192747 
L 513.131939 345.595938 
L 514.41753 347.409319 
L 515.703121 347.661816 
L 516.988712 346.169793 
L 518.274303 345.251625 
L 519.559894 346.37638 
L 520.845485 344.815495 
L 522.131075 345.756617 
L 523.416666 346.353426 
L 524.702257 348.235671 
L 525.987848 346.73217 
L 527.273439 344.585953 
L 528.55903 345.251625 
L 529.844621 345.205716 
L 531.130211 345.584461 
L 533.701393 346.823987 
L 534.986984 345.584461 
L 536.272575 343.690739 
L 537.558166 344.528567 
L 538.843757 345.067991 
L 540.129347 346.89285 
L 541.414938 345.595938 
L 542.700529 346.158316 
L 543.98612 344.494136 
L 545.271711 342.57746 
L 546.557302 342.129854 
L 547.842893 344.138346 
L 549.128483 347.822495 
L 550.414074 345.217193 
L 551.699665 345.366396 
L 552.985256 344.459705 
L 554.270847 339.800002 
L 555.556438 341.498613 
L 556.842029 341.062483 
L 558.12762 342.680754 
L 559.41321 345.446735 
L 560.698801 344.1613 
L 561.984392 345.607415 
L 563.269983 342.359396 
L 564.555574 342.875865 
L 565.841165 345.320487 
L 567.126756 345.182762 
L 568.412346 347.742155 
L 569.697937 348.166808 
L 570.983528 346.135361 
L 572.269119 345.687754 
L 573.55471 345.584461 
L 576.125892 347.019098 
L 577.411482 347.799541 
L 578.697073 347.32898 
L 579.982664 347.856926 
L 581.268255 347.32898 
L 582.553846 346.318995 
L 583.839437 346.915804 
L 585.125028 347.099438 
L 586.410618 348.029083 
L 587.696209 348.545552 
L 588.9818 347.133869 
L 591.552982 347.24864 
L 592.838573 346.250132 
L 595.409754 348.579984 
L 596.695345 349.165316 
L 597.980936 346.560014 
L 599.266527 348.006129 
L 600.552118 348.132377 
L 601.837709 347.501136 
L 603.1233 345.653323 
L 604.408891 348.740663 
L 605.694481 349.280087 
L 606.980072 346.479674 
L 608.265663 347.24864 
L 609.551254 346.422289 
L 610.836845 346.789556 
L 612.122436 347.283071 
L 613.408027 348.143854 
L 615.979208 347.937266 
L 617.264799 346.055022 
L 618.55039 346.617399 
L 619.835981 344.207209 
L 621.121572 344.51709 
L 622.407163 347.52409 
L 623.692753 348.465213 
L 624.978344 342.164285 
L 626.263935 344.804018 
L 627.549526 342.623369 
L 628.835117 343.989144 
L 630.120708 342.611892 
L 631.406299 346.364903 
L 632.691889 345.986159 
L 633.97748 341.028052 
L 635.263071 342.336441 
L 636.548662 342.669277 
L 637.834253 340.52306 
L 639.119844 340.144315 
L 640.405435 340.729647 
L 641.691025 343.185747 
L 642.976616 340.603399 
L 644.262207 337.332426 
L 645.547798 338.319457 
L 646.833389 338.66377 
L 648.11898 339.180239 
L 649.404571 341.119869 
L 650.690162 343.908804 
L 651.975752 337.952189 
L 653.261343 338.078437 
L 654.546934 339.237625 
L 655.832525 340.993621 
L 657.118116 338.22764 
L 658.403707 345.22867 
L 659.689298 342.715186 
L 660.974888 339.180239 
L 662.260479 338.262071 
L 664.831661 342.600415 
L 666.117252 343.185747 
L 667.402843 342.588938 
L 668.688434 343.943235 
L 669.974024 343.954712 
L 671.259615 340.201701 
L 672.545206 339.822957 
L 673.830797 340.454197 
L 675.116388 341.819972 
L 676.401979 347.60443 
L 677.68757 343.105407 
L 678.97316 343.09393 
L 680.258751 342.049514 
L 681.544342 343.656308 
L 682.829933 343.44972 
L 684.115524 344.758109 
L 685.401115 345.74514 
L 686.686706 346.330472 
L 687.972296 344.585953 
L 689.257887 346.927281 
L 690.543478 341.406796 
L 691.829069 345.435258 
L 693.11466 345.022083 
L 694.400251 346.755125 
L 695.685842 347.983174 
L 696.971433 344.218686 
L 698.257023 344.51709 
L 699.542614 345.136854 
L 700.828205 346.112407 
L 702.113796 345.607415 
L 703.399387 347.214209 
L 704.684978 348.1209 
L 705.970569 344.987651 
L 707.256159 344.976174 
L 708.54175 345.148331 
L 709.827341 344.723678 
L 712.398523 346.904327 
L 713.684114 347.87988 
L 714.969705 342.990636 
L 716.255295 345.102422 
L 717.540886 344.792541 
L 718.826477 346.858419 
L 720.112068 345.653323 
L 721.397659 346.950235 
L 722.68325 347.696247 
L 723.968841 348.224193 
L 725.254431 346.927281 
L 726.540022 345.045037 
L 727.825613 344.735155 
L 729.111204 342.336441 
L 730.396795 345.343441 
L 731.682386 345.354919 
L 732.967977 347.799541 
L 734.253567 344.666293 
L 735.539158 344.804018 
L 736.824749 345.836957 
L 738.11034 346.640354 
L 739.395931 347.719201 
L 740.681522 348.591461 
L 741.967113 347.179777 
L 743.252704 345.251625 
L 744.538294 346.479674 
L 745.823885 347.214209 
L 747.109476 347.053529 
L 748.395067 348.602938 
L 749.680658 349.062022 
L 750.966249 347.673293 
L 752.25184 348.373396 
L 753.53743 348.097945 
L 754.823021 348.1209 
L 756.108612 348.258625 
L 757.394203 349.245655 
L 758.679794 349.842464 
L 759.965385 347.87988 
L 761.250976 347.983174 
L 762.536566 348.465213 
L 763.822157 348.017606 
L 765.107748 348.270102 
L 766.393339 349.039067 
L 767.67893 349.291564 
L 768.964521 348.097945 
L 770.250112 347.994651 
L 771.535702 348.488167 
L 772.821293 346.789556 
L 774.106884 349.704739 
L 775.392475 348.821003 
L 776.678066 349.417812 
L 777.963657 348.740663 
L 779.249248 347.1683 
L 780.534838 347.32898 
L 781.820429 348.31601 
L 783.10602 347.776587 
L 784.391611 349.245655 
L 785.677202 349.521106 
L 786.962793 348.384873 
L 788.248384 347.925789 
L 789.533975 348.109422 
L 790.819565 349.394858 
L 792.105156 347.1683 
L 793.390747 348.993159 
L 794.676338 349.417812 
L 795.961929 348.579984 
L 797.24752 348.442258 
L 799.818701 348.740663 
L 801.104292 348.052037 
L 802.389883 348.947251 
L 803.675474 349.280087 
L 804.961065 348.293056 
L 806.246656 347.707724 
L 807.532247 348.361919 
L 808.817837 347.478182 
L 810.103428 347.914312 
L 811.389019 348.602938 
L 812.67461 348.970205 
L 813.960201 346.743648 
L 815.245792 347.397842 
L 816.531383 348.568506 
L 817.816973 343.80551 
L 819.102564 346.582968 
L 820.388155 348.740663 
L 821.673746 347.937266 
L 822.959337 345.802525 
L 824.244928 345.079468 
L 825.530519 345.045037 
L 826.816109 344.103915 
L 828.1017 345.641846 
L 829.387291 347.52409 
L 830.672882 346.284564 
L 831.958473 344.826972 
L 833.244064 342.887342 
L 834.529655 346.835464 
L 835.815246 343.943235 
L 837.100836 340.52306 
L 838.386427 347.455228 
L 839.672018 345.377873 
L 840.957609 344.448228 
L 842.2432 341.957697 
L 843.528791 343.507106 
L 844.814382 342.669277 
L 846.099972 342.267579 
L 847.385563 347.351934 
L 848.671154 344.184254 
L 849.956745 337.630831 
L 851.242336 337.986621 
L 852.527927 335.679724 
L 853.813518 334.290995 
L 855.099108 332.718632 
L 856.384699 338.514567 
L 857.67029 340.121361 
L 860.241472 330.044468 
L 861.527063 331.708647 
L 862.812654 332.741586 
L 864.098244 331.169224 
L 865.383835 337.343903 
L 866.669426 338.307979 
L 867.955017 336.712663 
L 869.240608 330.974113 
L 870.526199 332.787495 
L 871.81179 331.834895 
L 873.09738 335.599384 
L 874.382971 340.890327 
L 875.668562 343.036544 
L 876.954153 337.676739 
L 878.239744 336.540506 
L 879.525335 339.409781 
L 880.810926 339.260579 
L 882.096517 341.774064 
L 883.382107 343.989144 
L 884.667698 345.090945 
L 885.953289 342.73814 
L 887.23888 344.976174 
L 888.524471 336.678231 
L 889.810062 342.256102 
L 891.095653 342.439735 
L 892.381243 344.574476 
L 893.666834 346.158316 
L 894.952425 342.979159 
L 896.238016 342.474167 
L 897.523607 344.1613 
L 898.809198 343.862896 
L 900.094789 344.976174 
L 901.380379 346.984667 
L 902.66597 346.984667 
L 903.951561 344.976174 
L 905.237152 343.851419 
L 906.522743 345.022083 
L 907.808334 344.700724 
L 909.093925 345.171285 
L 910.379515 347.994651 
L 911.665106 347.237163 
L 912.950697 348.557029 
L 914.236288 340.247609 
L 915.521879 345.951728 
L 916.80747 346.445243 
L 918.093061 345.676277 
L 919.378651 346.697739 
L 920.664242 348.132377 
L 921.949833 344.276071 
L 923.235424 343.553014 
L 924.521015 342.990636 
L 925.806606 341.94622 
L 929.663378 345.6648 
L 930.948969 340.282041 
L 932.23456 337.401289 
L 933.520151 336.988113 
L 934.805742 339.099899 
L 936.091333 337.619353 
L 937.376924 341.372365 
L 938.662514 343.334949 
L 939.948105 335.209163 
L 941.233696 331.869327 
L 942.519287 333.154762 
L 943.804878 332.92522 
L 945.090469 333.246579 
L 946.37606 338.342411 
L 947.66165 339.076945 
L 948.947241 332.948174 
L 950.232832 326.130777 
L 951.518423 330.067422 
L 952.804014 327.508029 
L 954.089605 330.308441 
L 955.375196 335.541998 
L 956.660786 337.263563 
L 957.946377 341.544522 
L 959.231968 310.016929 
L 960.517559 322.125269 
L 961.80315 322.699124 
L 963.088741 323.399227 
L 964.374332 335.174731 
L 965.659922 333.659754 
L 966.945513 323.089346 
L 968.231104 333.085899 
L 969.516695 298.02336 
L 970.802286 316.444105 
L 972.087877 316.765464 
L 973.373468 328.827895 
L 974.659059 330.779002 
L 977.23024 304.106223 
L 978.515831 307.147654 
L 979.801422 303.015899 
L 981.087013 302.430566 
L 982.372604 316.512968 
L 983.658195 332.971128 
L 984.943785 319.829849 
L 986.229376 262.949344 
L 987.514967 290.173024 
L 988.800558 289.071223 
L 990.086149 288.405551 
L 991.37174 310.625216 
L 992.657331 308.961036 
L 993.942921 350.53109 
L 995.228512 225.80945 
L 996.514103 284.641062 
L 997.799694 298.654601 
L 999.085285 296.714971 
L 1000.370876 308.008437 
L 1001.656467 315.847296 
L 1002.942057 304.152131 
L 1004.227648 295.45249 
L 1005.513239 301.294334 
L 1006.79883 301.041837 
L 1008.084421 324.501029 
L 1009.370012 327.70314 
L 1010.655603 325.120792 
L 1011.941193 307.491967 
L 1013.226784 296.565769 
L 1014.512375 299.951513 
L 1015.797966 304.416105 
L 1018.369148 325.786464 
L 1019.654739 317.213071 
L 1020.94033 290.471429 
L 1022.22592 259.620985 
L 1023.511511 254.295611 
L 1024.797102 260.103024 
L 1026.082693 279.832158 
L 1027.368284 289.840188 
L 1028.653875 302.510906 
L 1029.939466 275.47086 
L 1031.225056 240.098439 
L 1032.510647 214.814389 
L 1033.796238 217.431168 
L 1035.081829 208.674141 
L 1036.36742 253.239718 
L 1037.653011 263.259226 
L 1038.938602 223.927206 
L 1040.224192 174.162503 
L 1041.509783 167.046701 
L 1042.795374 156.832082 
L 1044.080965 64.085642 
L 1045.366556 197.461015 
L 1046.652147 205.39169 
L 1049.223328 70.157027 
L 1050.508919 67.310706 
L 1051.79451 71.775298 
L 1053.080101 103.555387 
L 1054.365692 178.718911 
L 1055.651283 189.392614 
L 1056.936874 167.035224 
L 1058.222464 83.83773 
L 1059.508055 83.12615 
L 1060.793646 100.284413 
L 1062.079237 111.164704 
L 1063.364828 199.687572 
L 1064.650419 233.786034 
L 1065.93601 147.93733 
L 1067.221601 50.8755 
L 1068.507191 62.616573 
L 1069.792782 69.938962 
L 1071.078373 85.742928 
L 1072.363964 184.652572 
L 1073.649555 219.990561 
L 1074.935146 189.186026 
L 1076.220737 133.900838 
L 1077.506327 144.769651 
L 1078.791918 151.495231 
L 1080.077509 175.528277 
L 1081.3631 240.821496 
L 1082.648691 262.777188 
L 1083.934282 179.763327 
L 1085.219873 146.824052 
L 1086.505463 151.001716 
L 1087.791054 171.545724 
L 1089.076645 175.057716 
L 1090.362236 252.287119 
L 1091.647827 282.816203 
L 1094.219009 179.304243 
L 1095.504599 97.001963 
L 1096.79019 227.553969 
L 1098.075781 239.604924 
L 1099.361372 287.900559 
L 1100.646963 312.243487 
L 1101.932554 266.174409 
L 1103.218145 233.269565 
L 1104.503735 260.045638 
L 1105.789326 265.944867 
L 1107.074917 286.098654 
L 1108.360508 313.873235 
L 1109.646099 328.586876 
L 1110.93169 288.589185 
L 1112.217281 280.222379 
L 1113.502872 295.911574 
L 1114.788462 302.6142 
L 1116.074053 305.78188 
L 1117.359644 327.588369 
L 1118.645235 336.425735 
L 1119.930826 307.377196 
L 1121.216417 306.837773 
L 1122.502008 316.088315 
L 1123.787598 315.801387 
L 1125.073189 321.895727 
L 1126.35878 334.979621 
L 1127.644371 342.187239 
L 1128.929962 326.704632 
L 1130.215553 321.780956 
L 1131.501144 327.714617 
L 1132.786734 330.411735 
L 1134.072325 333.751571 
L 1135.357916 340.947712 
L 1136.643507 345.354919 
L 1137.929098 335.117346 
L 1139.214689 333.326918 
L 1140.50028 334.245086 
L 1141.78587 339.191716 
L 1143.071461 338.640815 
L 1144.357052 343.461197 
L 1145.642643 346.869896 
L 1146.928234 341.533044 
L 1148.213825 339.983636 
L 1149.499416 341.349411 
L 1150.785006 346.135361 
L 1152.070597 347.294548 
L 1153.356188 345.814003 
L 1154.641779 347.983174 
L 1155.92737 347.042052 
L 1157.212961 342.30201 
L 1158.498552 339.73114 
L 1159.784143 340.293518 
L 1161.069733 343.220178 
L 1162.355324 347.214209 
L 1163.640915 349.153838 
L 1164.926506 344.207209 
L 1166.212097 344.884357 
L 1167.497688 345.859911 
L 1168.783279 346.112407 
L 1170.068869 346.571491 
L 1171.35446 348.189762 
L 1172.640051 349.211224 
L 1173.925642 346.364903 
L 1175.211233 347.007621 
L 1176.496824 346.514106 
L 1177.782415 346.663308 
L 1179.068005 347.030575 
L 1180.353596 348.625892 
L 1181.639187 349.911327 
L 1182.924778 346.801033 
L 1184.210369 346.353426 
L 1185.49596 346.341949 
L 1186.781551 347.214209 
L 1188.067141 347.351934 
L 1189.352732 349.532583 
L 1190.638323 349.911327 
L 1191.923914 346.479674 
L 1193.209505 349.968713 
L 1194.495096 346.422289 
L 1195.780687 346.938758 
L 1197.066277 347.294548 
L 1198.351868 349.303041 
L 1199.637459 349.865419 
L 1200.92305 345.871388 
L 1202.208641 347.156823 
L 1203.494232 346.582968 
L 1204.779823 349.291564 
L 1206.065414 347.730678 
L 1207.351004 348.878388 
L 1208.636595 349.876896 
L 1209.922186 346.238655 
L 1211.207777 346.18127 
L 1212.493368 346.571491 
L 1213.778959 347.237163 
L 1215.06455 346.169793 
L 1216.35014 349.417812 
L 1217.635731 349.968713 
L 1218.921322 349.417812 
L 1220.206913 346.066499 
L 1221.492504 347.925789 
L 1222.778095 343.575968 
L 1224.063686 345.022083 
L 1225.349276 348.683277 
L 1226.634867 349.429289 
L 1227.920458 344.930266 
L 1229.206049 345.6648 
L 1230.49164 345.056514 
L 1231.777231 344.000621 
L 1233.062822 343.702216 
L 1234.348412 347.68477 
L 1235.634003 349.440766 
L 1236.919594 341.739632 
L 1238.205185 343.105407 
L 1239.490776 340.121361 
L 1240.776367 341.119869 
L 1242.061958 341.969174 
L 1243.347548 345.871388 
L 1244.633139 348.809525 
L 1245.91873 340.87885 
L 1248.489912 342.038037 
L 1249.775503 342.428258 
L 1251.061094 343.472674 
L 1252.346685 347.87988 
L 1253.632275 349.245655 
L 1254.917866 345.354919 
L 1256.203457 344.471182 
L 1257.489048 345.572983 
L 1258.774639 345.113899 
L 1260.06023 346.169793 
L 1261.345821 348.889865 
L 1262.631411 349.429289 
L 1263.917002 346.238655 
L 1265.202593 345.814003 
L 1266.488184 346.640354 
L 1267.773775 346.835464 
L 1269.059366 346.571491 
L 1270.344957 348.843957 
L 1271.630547 349.532583 
L 1272.916138 346.904327 
L 1274.201729 346.410812 
L 1275.48732 347.271594 
L 1276.772911 347.420796 
L 1278.058502 347.306025 
L 1279.344093 349.394858 
L 1280.629683 349.865419 
L 1281.915274 347.638861 
L 1283.200865 347.592953 
L 1284.486456 347.87988 
L 1285.772047 347.638861 
L 1287.057638 348.304533 
L 1289.628819 349.796556 
L 1290.91441 347.753632 
L 1293.485592 347.948743 
L 1294.771183 348.47669 
L 1296.056774 348.47669 
L 1297.342365 349.716216 
L 1298.627956 350.094961 
L 1299.913546 347.925789 
L 1301.199137 348.258625 
L 1303.770319 348.178285 
L 1305.05591 348.281579 
L 1306.341501 349.739171 
L 1306.341501 349.739171 
" clip-path="url(#p14e1375cae)" style="fill: none; stroke: #0000ff; stroke-width: 1.5; stroke-linecap: square"/>
   </g>
   <g id="line2d_17">
    <path d="M 1067.221601 99.072799 
L 1068.507191 70.295334 
L 1069.792782 81.347613 
L 1071.078373 88.789946 
L 1072.363964 156.919297 
L 1073.649555 187.734011 
L 1074.935146 151.074767 
L 1076.220737 98.720608 
L 1077.506327 114.809417 
L 1078.791918 132.922844 
L 1080.077509 147.687127 
L 1081.3631 233.361856 
L 1082.648691 258.599735 
L 1083.934282 225.355591 
L 1085.219873 145.721072 
L 1086.505463 159.532757 
L 1087.791054 163.508471 
L 1089.076645 186.734812 
L 1090.362236 235.676704 
L 1091.647827 264.77592 
L 1092.933418 220.393058 
L 1094.219009 187.865304 
L 1095.504599 184.320881 
L 1096.79019 147.086254 
L 1098.075781 211.407509 
L 1099.361372 284.511146 
L 1100.646963 306.486066 
L 1101.932554 250.412509 
L 1103.218145 220.994962 
L 1104.503735 194.387479 
L 1105.789326 293.956626 
L 1107.074917 279.366822 
L 1108.360508 329.147474 
L 1109.646099 337.576381 
L 1112.217281 264.170694 
L 1113.502872 273.564025 
L 1114.788462 313.577175 
L 1116.074053 315.646858 
L 1117.359644 339.891697 
L 1118.645235 349.151797 
L 1119.930826 312.519668 
L 1121.216417 295.778514 
L 1122.502008 309.22469 
L 1123.787598 326.7465 
L 1125.073189 324.519688 
L 1126.35878 345.630823 
L 1127.644371 351.221726 
L 1128.929962 321.817891 
L 1130.215553 318.740676 
L 1131.501144 327.324037 
L 1132.786734 332.684445 
L 1134.072325 335.25216 
L 1135.357916 350.228027 
L 1136.643507 353.2755 
L 1137.929098 331.955164 
L 1139.214689 329.974929 
L 1140.50028 337.766195 
L 1141.78587 338.761093 
L 1143.071461 341.921099 
L 1144.357052 349.780435 
L 1145.642643 352.331359 
L 1146.928234 337.769763 
L 1148.213825 338.143457 
L 1149.499416 341.889696 
L 1150.785006 344.730137 
L 1152.070597 345.982679 
L 1153.356188 352.850471 
L 1154.641779 352.675429 
L 1155.92737 343.22316 
L 1157.212961 344.421394 
L 1158.498552 345.365806 
L 1159.784143 345.744825 
L 1161.069733 343.690327 
L 1162.355324 346.567825 
L 1163.640915 350.125851 
L 1166.212097 341.62997 
L 1167.497688 342.999132 
L 1168.783279 346.249764 
L 1170.068869 347.577553 
L 1172.640051 350.700987 
L 1173.925642 346.584067 
L 1175.211233 345.897447 
L 1176.496824 346.90271 
L 1177.782415 347.407046 
L 1179.068005 347.742372 
L 1181.639187 350.354101 
L 1182.924778 347.440502 
L 1185.49596 346.61021 
L 1186.781551 346.959355 
L 1188.067141 347.724182 
L 1190.638323 350.388711 
L 1191.923914 347.441602 
L 1193.209505 346.719047 
L 1194.495096 348.580164 
L 1195.780687 347.699953 
L 1197.066277 347.679461 
L 1199.637459 350.236937 
L 1200.92305 347.35337 
L 1202.208641 347.93589 
L 1203.494232 345.994853 
L 1204.779823 346.971448 
L 1206.065414 348.638416 
L 1207.351004 349.35857 
L 1208.636595 349.448726 
L 1209.922186 346.755598 
L 1211.207777 347.8834 
L 1212.493368 346.076472 
L 1213.778959 347.924076 
L 1215.06455 347.032715 
L 1216.35014 347.823958 
L 1217.635731 349.349543 
L 1218.921322 346.765786 
L 1220.206913 348.591564 
L 1221.492504 346.440778 
L 1222.778095 348.378864 
L 1224.063686 344.826351 
L 1225.349276 347.74956 
L 1226.634867 348.836166 
L 1227.920458 347.974866 
L 1229.206049 344.468651 
L 1230.49164 345.989435 
L 1231.777231 343.953727 
L 1233.062822 344.653792 
L 1234.348412 346.396377 
L 1235.634003 347.869026 
L 1236.919594 345.9601 
L 1238.205185 343.15162 
L 1239.490776 343.417434 
L 1240.776367 340.627288 
L 1242.061958 341.738199 
L 1243.347548 344.552309 
L 1244.633139 346.381386 
L 1245.91873 342.710082 
L 1247.204321 341.765109 
L 1248.489912 340.319894 
L 1249.775503 341.364138 
L 1251.061094 342.561895 
L 1252.346685 345.750191 
L 1253.632275 348.33581 
L 1254.917866 343.096256 
L 1256.203457 344.657505 
L 1257.489048 343.932284 
L 1258.774639 345.060698 
L 1260.06023 345.506569 
L 1261.345821 349.188032 
L 1262.631411 350.203756 
L 1263.917002 345.818559 
L 1265.202593 345.948597 
L 1266.488184 346.292385 
L 1267.773775 346.38977 
L 1269.059366 347.241748 
L 1270.344957 349.375362 
L 1271.630547 349.902949 
L 1272.916138 346.663467 
L 1274.201729 346.699279 
L 1275.48732 347.053841 
L 1278.058502 347.434273 
L 1279.344093 349.438829 
L 1280.629683 350.041019 
L 1281.915274 347.468813 
L 1283.200865 347.289294 
L 1284.486456 348.056039 
L 1285.772047 347.998119 
L 1287.057638 347.79653 
L 1288.343229 349.932737 
L 1289.628819 349.953834 
L 1290.91441 347.908701 
L 1292.200001 347.661 
L 1293.485592 348.28183 
L 1294.771183 347.957894 
L 1296.056774 348.565795 
L 1297.342365 349.56693 
L 1298.627956 350.176502 
L 1299.913546 348.298638 
L 1301.199137 348.125673 
L 1302.484728 348.430728 
L 1303.770319 348.533124 
L 1305.05591 348.504297 
L 1306.341501 349.413654 
L 1306.341501 349.413654 
" clip-path="url(#p14e1375cae)" style="fill: none; stroke: #ffa500; stroke-width: 1.5; stroke-linecap: square"/>
   </g>
   <g id="line2d_18">
    <path d="M 1307.627092 350.039518 
L 1308.912682 348.306313 
L 1310.198273 348.420366 
L 1311.483864 348.433951 
L 1312.769455 348.521433 
L 1314.055046 348.633029 
L 1315.340637 349.724783 
L 1316.626228 350.023584 
L 1317.911818 348.521175 
L 1319.197409 348.631524 
L 1320.483 348.661245 
L 1321.768591 348.730569 
L 1323.054182 348.823906 
L 1324.339773 349.769255 
" clip-path="url(#p14e1375cae)" style="fill: none; stroke: #ff0000; stroke-width: 1.5; stroke-linecap: square"/>
   </g>
   <g id="patch_3">
    <path d="M 46.0125 368.3955 
L 46.0125 35.7555 
" style="fill: none; stroke: #000000; stroke-width: 0.8; stroke-linejoin: miter; stroke-linecap: square"/>
   </g>
   <g id="patch_4">
    <path d="M 1385.2125 368.3955 
L 1385.2125 35.7555 
" style="fill: none; stroke: #000000; stroke-width: 0.8; stroke-linejoin: miter; stroke-linecap: square"/>
   </g>
   <g id="patch_5">
    <path d="M 46.0125 368.3955 
L 1385.2125 368.3955 
" style="fill: none; stroke: #000000; stroke-width: 0.8; stroke-linejoin: miter; stroke-linecap: square"/>
   </g>
   <g id="patch_6">
    <path d="M 46.0125 35.7555 
L 1385.2125 35.7555 
" style="fill: none; stroke: #000000; stroke-width: 0.8; stroke-linejoin: miter; stroke-linecap: square"/>
   </g>
   <g id="text_16">
    <!-- Daily Confirmed Cases Forecasting - Norway -->
    <g transform="translate(582.350625 16.318125)scale(0.12 -0.12)">
     <defs>
      <path id="DejaVuSans-44" d="M 1259 4147 
L 1259 519 
L 2022 519 
Q 2988 519 3436 956 
Q 3884 1394 3884 2338 
Q 3884 3275 3436 3711 
Q 2988 4147 2022 4147 
L 1259 4147 
z
M 628 4666 
L 1925 4666 
Q 3281 4666 3915 4102 
Q 4550 3538 4550 2338 
Q 4550 1131 3912 565 
Q 3275 0 1925 0 
L 628 0 
L 628 4666 
z
" transform="scale(0.015625)"/>
      <path id="DejaVuSans-61" d="M 2194 1759 
Q 1497 1759 1228 1600 
Q 959 1441 959 1056 
Q 959 750 1161 570 
Q 1363 391 1709 391 
Q 2188 391 2477 730 
Q 2766 1069 2766 1631 
L 2766 1759 
L 2194 1759 
z
M 3341 1997 
L 3341 0 
L 2766 0 
L 2766 531 
Q 2569 213 2275 61 
Q 1981 -91 1556 -91 
Q 1019 -91 701 211 
Q 384 513 384 1019 
Q 384 1609 779 1909 
Q 1175 2209 1959 2209 
L 2766 2209 
L 2766 2266 
Q 2766 2663 2505 2880 
Q 2244 3097 1772 3097 
Q 1472 3097 1187 3025 
Q 903 2953 641 2809 
L 641 3341 
Q 956 3463 1253 3523 
Q 1550 3584 1831 3584 
Q 2591 3584 2966 3190 
Q 3341 2797 3341 1997 
z
" transform="scale(0.015625)"/>
      <path id="DejaVuSans-69" d="M 603 3500 
L 1178 3500 
L 1178 0 
L 603 0 
L 603 3500 
z
M 603 4863 
L 1178 4863 
L 1178 4134 
L 603 4134 
L 603 4863 
z
" transform="scale(0.015625)"/>
      <path id="DejaVuSans-6c" d="M 603 4863 
L 1178 4863 
L 1178 0 
L 603 0 
L 603 4863 
z
" transform="scale(0.015625)"/>
      <path id="DejaVuSans-79" d="M 2059 -325 
Q 1816 -950 1584 -1140 
Q 1353 -1331 966 -1331 
L 506 -1331 
L 506 -850 
L 844 -850 
Q 1081 -850 1212 -737 
Q 1344 -625 1503 -206 
L 1606 56 
L 191 3500 
L 800 3500 
L 1894 763 
L 2988 3500 
L 3597 3500 
L 2059 -325 
z
" transform="scale(0.015625)"/>
      <path id="DejaVuSans-20" transform="scale(0.015625)"/>
      <path id="DejaVuSans-43" d="M 4122 4306 
L 4122 3641 
Q 3803 3938 3442 4084 
Q 3081 4231 2675 4231 
Q 1875 4231 1450 3742 
Q 1025 3253 1025 2328 
Q 1025 1406 1450 917 
Q 1875 428 2675 428 
Q 3081 428 3442 575 
Q 3803 722 4122 1019 
L 4122 359 
Q 3791 134 3420 21 
Q 3050 -91 2638 -91 
Q 1578 -91 968 557 
Q 359 1206 359 2328 
Q 359 3453 968 4101 
Q 1578 4750 2638 4750 
Q 3056 4750 3426 4639 
Q 3797 4528 4122 4306 
z
" transform="scale(0.015625)"/>
      <path id="DejaVuSans-6f" d="M 1959 3097 
Q 1497 3097 1228 2736 
Q 959 2375 959 1747 
Q 959 1119 1226 758 
Q 1494 397 1959 397 
Q 2419 397 2687 759 
Q 2956 1122 2956 1747 
Q 2956 2369 2687 2733 
Q 2419 3097 1959 3097 
z
M 1959 3584 
Q 2709 3584 3137 3096 
Q 3566 2609 3566 1747 
Q 3566 888 3137 398 
Q 2709 -91 1959 -91 
Q 1206 -91 779 398 
Q 353 888 353 1747 
Q 353 2609 779 3096 
Q 1206 3584 1959 3584 
z
" transform="scale(0.015625)"/>
      <path id="DejaVuSans-6e" d="M 3513 2113 
L 3513 0 
L 2938 0 
L 2938 2094 
Q 2938 2591 2744 2837 
Q 2550 3084 2163 3084 
Q 1697 3084 1428 2787 
Q 1159 2491 1159 1978 
L 1159 0 
L 581 0 
L 581 3500 
L 1159 3500 
L 1159 2956 
Q 1366 3272 1645 3428 
Q 1925 3584 2291 3584 
Q 2894 3584 3203 3211 
Q 3513 2838 3513 2113 
z
" transform="scale(0.015625)"/>
      <path id="DejaVuSans-66" d="M 2375 4863 
L 2375 4384 
L 1825 4384 
Q 1516 4384 1395 4259 
Q 1275 4134 1275 3809 
L 1275 3500 
L 2222 3500 
L 2222 3053 
L 1275 3053 
L 1275 0 
L 697 0 
L 697 3053 
L 147 3053 
L 147 3500 
L 697 3500 
L 697 3744 
Q 697 4328 969 4595 
Q 1241 4863 1831 4863 
L 2375 4863 
z
" transform="scale(0.015625)"/>
      <path id="DejaVuSans-72" d="M 2631 2963 
Q 2534 3019 2420 3045 
Q 2306 3072 2169 3072 
Q 1681 3072 1420 2755 
Q 1159 2438 1159 1844 
L 1159 0 
L 581 0 
L 581 3500 
L 1159 3500 
L 1159 2956 
Q 1341 3275 1631 3429 
Q 1922 3584 2338 3584 
Q 2397 3584 2469 3576 
Q 2541 3569 2628 3553 
L 2631 2963 
z
" transform="scale(0.015625)"/>
      <path id="DejaVuSans-6d" d="M 3328 2828 
Q 3544 3216 3844 3400 
Q 4144 3584 4550 3584 
Q 5097 3584 5394 3201 
Q 5691 2819 5691 2113 
L 5691 0 
L 5113 0 
L 5113 2094 
Q 5113 2597 4934 2840 
Q 4756 3084 4391 3084 
Q 3944 3084 3684 2787 
Q 3425 2491 3425 1978 
L 3425 0 
L 2847 0 
L 2847 2094 
Q 2847 2600 2669 2842 
Q 2491 3084 2119 3084 
Q 1678 3084 1418 2786 
Q 1159 2488 1159 1978 
L 1159 0 
L 581 0 
L 581 3500 
L 1159 3500 
L 1159 2956 
Q 1356 3278 1631 3431 
Q 1906 3584 2284 3584 
Q 2666 3584 2933 3390 
Q 3200 3197 3328 2828 
z
" transform="scale(0.015625)"/>
      <path id="DejaVuSans-65" d="M 3597 1894 
L 3597 1613 
L 953 1613 
Q 991 1019 1311 708 
Q 1631 397 2203 397 
Q 2534 397 2845 478 
Q 3156 559 3463 722 
L 3463 178 
Q 3153 47 2828 -22 
Q 2503 -91 2169 -91 
Q 1331 -91 842 396 
Q 353 884 353 1716 
Q 353 2575 817 3079 
Q 1281 3584 2069 3584 
Q 2775 3584 3186 3129 
Q 3597 2675 3597 1894 
z
M 3022 2063 
Q 3016 2534 2758 2815 
Q 2500 3097 2075 3097 
Q 1594 3097 1305 2825 
Q 1016 2553 972 2059 
L 3022 2063 
z
" transform="scale(0.015625)"/>
      <path id="DejaVuSans-64" d="M 2906 2969 
L 2906 4863 
L 3481 4863 
L 3481 0 
L 2906 0 
L 2906 525 
Q 2725 213 2448 61 
Q 2172 -91 1784 -91 
Q 1150 -91 751 415 
Q 353 922 353 1747 
Q 353 2572 751 3078 
Q 1150 3584 1784 3584 
Q 2172 3584 2448 3432 
Q 2725 3281 2906 2969 
z
M 947 1747 
Q 947 1113 1208 752 
Q 1469 391 1925 391 
Q 2381 391 2643 752 
Q 2906 1113 2906 1747 
Q 2906 2381 2643 2742 
Q 2381 3103 1925 3103 
Q 1469 3103 1208 2742 
Q 947 2381 947 1747 
z
" transform="scale(0.015625)"/>
      <path id="DejaVuSans-73" d="M 2834 3397 
L 2834 2853 
Q 2591 2978 2328 3040 
Q 2066 3103 1784 3103 
Q 1356 3103 1142 2972 
Q 928 2841 928 2578 
Q 928 2378 1081 2264 
Q 1234 2150 1697 2047 
L 1894 2003 
Q 2506 1872 2764 1633 
Q 3022 1394 3022 966 
Q 3022 478 2636 193 
Q 2250 -91 1575 -91 
Q 1294 -91 989 -36 
Q 684 19 347 128 
L 347 722 
Q 666 556 975 473 
Q 1284 391 1588 391 
Q 1994 391 2212 530 
Q 2431 669 2431 922 
Q 2431 1156 2273 1281 
Q 2116 1406 1581 1522 
L 1381 1569 
Q 847 1681 609 1914 
Q 372 2147 372 2553 
Q 372 3047 722 3315 
Q 1072 3584 1716 3584 
Q 2034 3584 2315 3537 
Q 2597 3491 2834 3397 
z
" transform="scale(0.015625)"/>
      <path id="DejaVuSans-46" d="M 628 4666 
L 3309 4666 
L 3309 4134 
L 1259 4134 
L 1259 2759 
L 3109 2759 
L 3109 2228 
L 1259 2228 
L 1259 0 
L 628 0 
L 628 4666 
z
" transform="scale(0.015625)"/>
      <path id="DejaVuSans-63" d="M 3122 3366 
L 3122 2828 
Q 2878 2963 2633 3030 
Q 2388 3097 2138 3097 
Q 1578 3097 1268 2742 
Q 959 2388 959 1747 
Q 959 1106 1268 751 
Q 1578 397 2138 397 
Q 2388 397 2633 464 
Q 2878 531 3122 666 
L 3122 134 
Q 2881 22 2623 -34 
Q 2366 -91 2075 -91 
Q 1284 -91 818 406 
Q 353 903 353 1747 
Q 353 2603 823 3093 
Q 1294 3584 2113 3584 
Q 2378 3584 2631 3529 
Q 2884 3475 3122 3366 
z
" transform="scale(0.015625)"/>
      <path id="DejaVuSans-74" d="M 1172 4494 
L 1172 3500 
L 2356 3500 
L 2356 3053 
L 1172 3053 
L 1172 1153 
Q 1172 725 1289 603 
Q 1406 481 1766 481 
L 2356 481 
L 2356 0 
L 1766 0 
Q 1100 0 847 248 
Q 594 497 594 1153 
L 594 3053 
L 172 3053 
L 172 3500 
L 594 3500 
L 594 4494 
L 1172 4494 
z
" transform="scale(0.015625)"/>
      <path id="DejaVuSans-67" d="M 2906 1791 
Q 2906 2416 2648 2759 
Q 2391 3103 1925 3103 
Q 1463 3103 1205 2759 
Q 947 2416 947 1791 
Q 947 1169 1205 825 
Q 1463 481 1925 481 
Q 2391 481 2648 825 
Q 2906 1169 2906 1791 
z
M 3481 434 
Q 3481 -459 3084 -895 
Q 2688 -1331 1869 -1331 
Q 1566 -1331 1297 -1286 
Q 1028 -1241 775 -1147 
L 775 -588 
Q 1028 -725 1275 -790 
Q 1522 -856 1778 -856 
Q 2344 -856 2625 -561 
Q 2906 -266 2906 331 
L 2906 616 
Q 2728 306 2450 153 
Q 2172 0 1784 0 
Q 1141 0 747 490 
Q 353 981 353 1791 
Q 353 2603 747 3093 
Q 1141 3584 1784 3584 
Q 2172 3584 2450 3431 
Q 2728 3278 2906 2969 
L 2906 3500 
L 3481 3500 
L 3481 434 
z
" transform="scale(0.015625)"/>
      <path id="DejaVuSans-4e" d="M 628 4666 
L 1478 4666 
L 3547 763 
L 3547 4666 
L 4159 4666 
L 4159 0 
L 3309 0 
L 1241 3903 
L 1241 0 
L 628 0 
L 628 4666 
z
" transform="scale(0.015625)"/>
      <path id="DejaVuSans-77" d="M 269 3500 
L 844 3500 
L 1563 769 
L 2278 3500 
L 2956 3500 
L 3675 769 
L 4391 3500 
L 4966 3500 
L 4050 0 
L 3372 0 
L 2619 2869 
L 1863 0 
L 1184 0 
L 269 3500 
z
" transform="scale(0.015625)"/>
     </defs>
     <use xlink:href="#DejaVuSans-44"/>
     <use xlink:href="#DejaVuSans-61" x="77.001953"/>
     <use xlink:href="#DejaVuSans-69" x="138.28125"/>
     <use xlink:href="#DejaVuSans-6c" x="166.064453"/>
     <use xlink:href="#DejaVuSans-79" x="193.847656"/>
     <use xlink:href="#DejaVuSans-20" x="253.027344"/>
     <use xlink:href="#DejaVuSans-43" x="284.814453"/>
     <use xlink:href="#DejaVuSans-6f" x="354.638672"/>
     <use xlink:href="#DejaVuSans-6e" x="415.820312"/>
     <use xlink:href="#DejaVuSans-66" x="479.199219"/>
     <use xlink:href="#DejaVuSans-69" x="514.404297"/>
     <use xlink:href="#DejaVuSans-72" x="542.1875"/>
     <use xlink:href="#DejaVuSans-6d" x="581.550781"/>
     <use xlink:href="#DejaVuSans-65" x="678.962891"/>
     <use xlink:href="#DejaVuSans-64" x="740.486328"/>
     <use xlink:href="#DejaVuSans-20" x="803.962891"/>
     <use xlink:href="#DejaVuSans-43" x="835.75"/>
     <use xlink:href="#DejaVuSans-61" x="905.574219"/>
     <use xlink:href="#DejaVuSans-73" x="966.853516"/>
     <use xlink:href="#DejaVuSans-65" x="1018.953125"/>
     <use xlink:href="#DejaVuSans-73" x="1080.476562"/>
     <use xlink:href="#DejaVuSans-20" x="1132.576172"/>
     <use xlink:href="#DejaVuSans-46" x="1164.363281"/>
     <use xlink:href="#DejaVuSans-6f" x="1218.257812"/>
     <use xlink:href="#DejaVuSans-72" x="1279.439453"/>
     <use xlink:href="#DejaVuSans-65" x="1318.302734"/>
     <use xlink:href="#DejaVuSans-63" x="1379.826172"/>
     <use xlink:href="#DejaVuSans-61" x="1434.806641"/>
     <use xlink:href="#DejaVuSans-73" x="1496.085938"/>
     <use xlink:href="#DejaVuSans-74" x="1548.185547"/>
     <use xlink:href="#DejaVuSans-69" x="1587.394531"/>
     <use xlink:href="#DejaVuSans-6e" x="1615.177734"/>
     <use xlink:href="#DejaVuSans-67" x="1678.556641"/>
     <use xlink:href="#DejaVuSans-20" x="1742.033203"/>
     <use xlink:href="#DejaVuSans-2d" x="1773.820312"/>
     <use xlink:href="#DejaVuSans-20" x="1809.904297"/>
     <use xlink:href="#DejaVuSans-4e" x="1841.691406"/>
     <use xlink:href="#DejaVuSans-6f" x="1916.496094"/>
     <use xlink:href="#DejaVuSans-72" x="1977.677734"/>
     <use xlink:href="#DejaVuSans-77" x="2018.791016"/>
     <use xlink:href="#DejaVuSans-61" x="2100.578125"/>
     <use xlink:href="#DejaVuSans-79" x="2161.857422"/>
    </g>
    <!-- ARIMA (4, 1, 1)x(1, 0, 1, 7) (R2 = 0.953152) -->
    <g transform="translate(583.628438 29.7555)scale(0.12 -0.12)">
     <defs>
      <path id="DejaVuSans-41" d="M 2188 4044 
L 1331 1722 
L 3047 1722 
L 2188 4044 
z
M 1831 4666 
L 2547 4666 
L 4325 0 
L 3669 0 
L 3244 1197 
L 1141 1197 
L 716 0 
L 50 0 
L 1831 4666 
z
" transform="scale(0.015625)"/>
      <path id="DejaVuSans-52" d="M 2841 2188 
Q 3044 2119 3236 1894 
Q 3428 1669 3622 1275 
L 4263 0 
L 3584 0 
L 2988 1197 
Q 2756 1666 2539 1819 
Q 2322 1972 1947 1972 
L 1259 1972 
L 1259 0 
L 628 0 
L 628 4666 
L 2053 4666 
Q 2853 4666 3247 4331 
Q 3641 3997 3641 3322 
Q 3641 2881 3436 2590 
Q 3231 2300 2841 2188 
z
M 1259 4147 
L 1259 2491 
L 2053 2491 
Q 2509 2491 2742 2702 
Q 2975 2913 2975 3322 
Q 2975 3731 2742 3939 
Q 2509 4147 2053 4147 
L 1259 4147 
z
" transform="scale(0.015625)"/>
      <path id="DejaVuSans-49" d="M 628 4666 
L 1259 4666 
L 1259 0 
L 628 0 
L 628 4666 
z
" transform="scale(0.015625)"/>
      <path id="DejaVuSans-4d" d="M 628 4666 
L 1569 4666 
L 2759 1491 
L 3956 4666 
L 4897 4666 
L 4897 0 
L 4281 0 
L 4281 4097 
L 3078 897 
L 2444 897 
L 1241 4097 
L 1241 0 
L 628 0 
L 628 4666 
z
" transform="scale(0.015625)"/>
      <path id="DejaVuSans-28" d="M 1984 4856 
Q 1566 4138 1362 3434 
Q 1159 2731 1159 2009 
Q 1159 1288 1364 580 
Q 1569 -128 1984 -844 
L 1484 -844 
Q 1016 -109 783 600 
Q 550 1309 550 2009 
Q 550 2706 781 3412 
Q 1013 4119 1484 4856 
L 1984 4856 
z
" transform="scale(0.015625)"/>
      <path id="DejaVuSans-34" d="M 2419 4116 
L 825 1625 
L 2419 1625 
L 2419 4116 
z
M 2253 4666 
L 3047 4666 
L 3047 1625 
L 3713 1625 
L 3713 1100 
L 3047 1100 
L 3047 0 
L 2419 0 
L 2419 1100 
L 313 1100 
L 313 1709 
L 2253 4666 
z
" transform="scale(0.015625)"/>
      <path id="DejaVuSans-2c" d="M 750 794 
L 1409 794 
L 1409 256 
L 897 -744 
L 494 -744 
L 750 256 
L 750 794 
z
" transform="scale(0.015625)"/>
      <path id="DejaVuSans-29" d="M 513 4856 
L 1013 4856 
Q 1481 4119 1714 3412 
Q 1947 2706 1947 2009 
Q 1947 1309 1714 600 
Q 1481 -109 1013 -844 
L 513 -844 
Q 928 -128 1133 580 
Q 1338 1288 1338 2009 
Q 1338 2731 1133 3434 
Q 928 4138 513 4856 
z
" transform="scale(0.015625)"/>
      <path id="DejaVuSans-78" d="M 3513 3500 
L 2247 1797 
L 3578 0 
L 2900 0 
L 1881 1375 
L 863 0 
L 184 0 
L 1544 1831 
L 300 3500 
L 978 3500 
L 1906 2253 
L 2834 3500 
L 3513 3500 
z
" transform="scale(0.015625)"/>
      <path id="DejaVuSans-37" d="M 525 4666 
L 3525 4666 
L 3525 4397 
L 1831 0 
L 1172 0 
L 2766 4134 
L 525 4134 
L 525 4666 
z
" transform="scale(0.015625)"/>
      <path id="DejaVuSans-3d" d="M 678 2906 
L 4684 2906 
L 4684 2381 
L 678 2381 
L 678 2906 
z
M 678 1631 
L 4684 1631 
L 4684 1100 
L 678 1100 
L 678 1631 
z
" transform="scale(0.015625)"/>
      <path id="DejaVuSans-2e" d="M 684 794 
L 1344 794 
L 1344 0 
L 684 0 
L 684 794 
z
" transform="scale(0.015625)"/>
      <path id="DejaVuSans-33" d="M 2597 2516 
Q 3050 2419 3304 2112 
Q 3559 1806 3559 1356 
Q 3559 666 3084 287 
Q 2609 -91 1734 -91 
Q 1441 -91 1130 -33 
Q 819 25 488 141 
L 488 750 
Q 750 597 1062 519 
Q 1375 441 1716 441 
Q 2309 441 2620 675 
Q 2931 909 2931 1356 
Q 2931 1769 2642 2001 
Q 2353 2234 1838 2234 
L 1294 2234 
L 1294 2753 
L 1863 2753 
Q 2328 2753 2575 2939 
Q 2822 3125 2822 3475 
Q 2822 3834 2567 4026 
Q 2313 4219 1838 4219 
Q 1578 4219 1281 4162 
Q 984 4106 628 3988 
L 628 4550 
Q 988 4650 1302 4700 
Q 1616 4750 1894 4750 
Q 2613 4750 3031 4423 
Q 3450 4097 3450 3541 
Q 3450 3153 3228 2886 
Q 3006 2619 2597 2516 
z
" transform="scale(0.015625)"/>
     </defs>
     <use xlink:href="#DejaVuSans-41"/>
     <use xlink:href="#DejaVuSans-52" x="68.408203"/>
     <use xlink:href="#DejaVuSans-49" x="137.890625"/>
     <use xlink:href="#DejaVuSans-4d" x="167.382812"/>
     <use xlink:href="#DejaVuSans-41" x="253.662109"/>
     <use xlink:href="#DejaVuSans-20" x="322.070312"/>
     <use xlink:href="#DejaVuSans-28" x="353.857422"/>
     <use xlink:href="#DejaVuSans-34" x="392.871094"/>
     <use xlink:href="#DejaVuSans-2c" x="456.494141"/>
     <use xlink:href="#DejaVuSans-20" x="488.28125"/>
     <use xlink:href="#DejaVuSans-31" x="520.068359"/>
     <use xlink:href="#DejaVuSans-2c" x="583.691406"/>
     <use xlink:href="#DejaVuSans-20" x="615.478516"/>
     <use xlink:href="#DejaVuSans-31" x="647.265625"/>
     <use xlink:href="#DejaVuSans-29" x="710.888672"/>
     <use xlink:href="#DejaVuSans-78" x="749.902344"/>
     <use xlink:href="#DejaVuSans-28" x="809.082031"/>
     <use xlink:href="#DejaVuSans-31" x="848.095703"/>
     <use xlink:href="#DejaVuSans-2c" x="911.71875"/>
     <use xlink:href="#DejaVuSans-20" x="943.505859"/>
     <use xlink:href="#DejaVuSans-30" x="975.292969"/>
     <use xlink:href="#DejaVuSans-2c" x="1038.916016"/>
     <use xlink:href="#DejaVuSans-20" x="1070.703125"/>
     <use xlink:href="#DejaVuSans-31" x="1102.490234"/>
     <use xlink:href="#DejaVuSans-2c" x="1166.113281"/>
     <use xlink:href="#DejaVuSans-20" x="1197.900391"/>
     <use xlink:href="#DejaVuSans-37" x="1229.6875"/>
     <use xlink:href="#DejaVuSans-29" x="1293.310547"/>
     <use xlink:href="#DejaVuSans-20" x="1332.324219"/>
     <use xlink:href="#DejaVuSans-28" x="1364.111328"/>
     <use xlink:href="#DejaVuSans-52" x="1403.125"/>
     <use xlink:href="#DejaVuSans-32" x="1472.607422"/>
     <use xlink:href="#DejaVuSans-20" x="1536.230469"/>
     <use xlink:href="#DejaVuSans-3d" x="1568.017578"/>
     <use xlink:href="#DejaVuSans-20" x="1651.806641"/>
     <use xlink:href="#DejaVuSans-30" x="1683.59375"/>
     <use xlink:href="#DejaVuSans-2e" x="1747.216797"/>
     <use xlink:href="#DejaVuSans-39" x="1779.003906"/>
     <use xlink:href="#DejaVuSans-35" x="1842.626953"/>
     <use xlink:href="#DejaVuSans-33" x="1906.25"/>
     <use xlink:href="#DejaVuSans-31" x="1969.873047"/>
     <use xlink:href="#DejaVuSans-35" x="2033.496094"/>
     <use xlink:href="#DejaVuSans-32" x="2097.119141"/>
     <use xlink:href="#DejaVuSans-29" x="2160.742188"/>
    </g>
   </g>
   <g id="legend_1">
    <g id="patch_7">
     <path d="M 1281.132812 87.789875 
L 1378.2125 87.789875 
Q 1380.2125 87.789875 1380.2125 85.789875 
L 1380.2125 42.7555 
Q 1380.2125 40.7555 1378.2125 40.7555 
L 1281.132812 40.7555 
Q 1279.132812 40.7555 1279.132812 42.7555 
L 1279.132812 85.789875 
Q 1279.132812 87.789875 1281.132812 87.789875 
z
" style="fill: #ffffff; opacity: 0.8; stroke: #cccccc; stroke-linejoin: miter"/>
    </g>
    <g id="line2d_19">
     <path d="M 1283.132812 48.853937 
L 1293.132812 48.853937 
L 1303.132812 48.853937 
" style="fill: none; stroke: #0000ff; stroke-width: 1.5; stroke-linecap: square"/>
    </g>
    <g id="text_17">
     <!-- Actual Value -->
     <g transform="translate(1311.132812 52.353937)scale(0.1 -0.1)">
      <defs>
       <path id="DejaVuSans-75" d="M 544 1381 
L 544 3500 
L 1119 3500 
L 1119 1403 
Q 1119 906 1312 657 
Q 1506 409 1894 409 
Q 2359 409 2629 706 
Q 2900 1003 2900 1516 
L 2900 3500 
L 3475 3500 
L 3475 0 
L 2900 0 
L 2900 538 
Q 2691 219 2414 64 
Q 2138 -91 1772 -91 
Q 1169 -91 856 284 
Q 544 659 544 1381 
z
M 1991 3584 
L 1991 3584 
z
" transform="scale(0.015625)"/>
       <path id="DejaVuSans-56" d="M 1831 0 
L 50 4666 
L 709 4666 
L 2188 738 
L 3669 4666 
L 4325 4666 
L 2547 0 
L 1831 0 
z
" transform="scale(0.015625)"/>
      </defs>
      <use xlink:href="#DejaVuSans-41"/>
      <use xlink:href="#DejaVuSans-63" x="66.658203"/>
      <use xlink:href="#DejaVuSans-74" x="121.638672"/>
      <use xlink:href="#DejaVuSans-75" x="160.847656"/>
      <use xlink:href="#DejaVuSans-61" x="224.226562"/>
      <use xlink:href="#DejaVuSans-6c" x="285.505859"/>
      <use xlink:href="#DejaVuSans-20" x="313.289062"/>
      <use xlink:href="#DejaVuSans-56" x="345.076172"/>
      <use xlink:href="#DejaVuSans-61" x="405.734375"/>
      <use xlink:href="#DejaVuSans-6c" x="467.013672"/>
      <use xlink:href="#DejaVuSans-75" x="494.796875"/>
      <use xlink:href="#DejaVuSans-65" x="558.175781"/>
     </g>
    </g>
    <g id="line2d_20">
     <path d="M 1283.132812 63.532062 
L 1293.132812 63.532062 
L 1303.132812 63.532062 
" style="fill: none; stroke: #ffa500; stroke-width: 1.5; stroke-linecap: square"/>
    </g>
    <g id="text_18">
     <!-- Check Value -->
     <g transform="translate(1311.132812 67.032062)scale(0.1 -0.1)">
      <defs>
       <path id="DejaVuSans-68" d="M 3513 2113 
L 3513 0 
L 2938 0 
L 2938 2094 
Q 2938 2591 2744 2837 
Q 2550 3084 2163 3084 
Q 1697 3084 1428 2787 
Q 1159 2491 1159 1978 
L 1159 0 
L 581 0 
L 581 4863 
L 1159 4863 
L 1159 2956 
Q 1366 3272 1645 3428 
Q 1925 3584 2291 3584 
Q 2894 3584 3203 3211 
Q 3513 2838 3513 2113 
z
" transform="scale(0.015625)"/>
       <path id="DejaVuSans-6b" d="M 581 4863 
L 1159 4863 
L 1159 1991 
L 2875 3500 
L 3609 3500 
L 1753 1863 
L 3688 0 
L 2938 0 
L 1159 1709 
L 1159 0 
L 581 0 
L 581 4863 
z
" transform="scale(0.015625)"/>
      </defs>
      <use xlink:href="#DejaVuSans-43"/>
      <use xlink:href="#DejaVuSans-68" x="69.824219"/>
      <use xlink:href="#DejaVuSans-65" x="133.203125"/>
      <use xlink:href="#DejaVuSans-63" x="194.726562"/>
      <use xlink:href="#DejaVuSans-6b" x="249.707031"/>
      <use xlink:href="#DejaVuSans-20" x="307.617188"/>
      <use xlink:href="#DejaVuSans-56" x="339.404297"/>
      <use xlink:href="#DejaVuSans-61" x="400.0625"/>
      <use xlink:href="#DejaVuSans-6c" x="461.341797"/>
      <use xlink:href="#DejaVuSans-75" x="489.125"/>
      <use xlink:href="#DejaVuSans-65" x="552.503906"/>
     </g>
    </g>
    <g id="line2d_21">
     <path d="M 1283.132812 78.210187 
L 1293.132812 78.210187 
L 1303.132812 78.210187 
" style="fill: none; stroke: #ff0000; stroke-width: 1.5; stroke-linecap: square"/>
    </g>
    <g id="text_19">
     <!-- Predict Value -->
     <g transform="translate(1311.132812 81.710187)scale(0.1 -0.1)">
      <defs>
       <path id="DejaVuSans-50" d="M 1259 4147 
L 1259 2394 
L 2053 2394 
Q 2494 2394 2734 2622 
Q 2975 2850 2975 3272 
Q 2975 3691 2734 3919 
Q 2494 4147 2053 4147 
L 1259 4147 
z
M 628 4666 
L 2053 4666 
Q 2838 4666 3239 4311 
Q 3641 3956 3641 3272 
Q 3641 2581 3239 2228 
Q 2838 1875 2053 1875 
L 1259 1875 
L 1259 0 
L 628 0 
L 628 4666 
z
" transform="scale(0.015625)"/>
      </defs>
      <use xlink:href="#DejaVuSans-50"/>
      <use xlink:href="#DejaVuSans-72" x="58.552734"/>
      <use xlink:href="#DejaVuSans-65" x="97.416016"/>
      <use xlink:href="#DejaVuSans-64" x="158.939453"/>
      <use xlink:href="#DejaVuSans-69" x="222.416016"/>
      <use xlink:href="#DejaVuSans-63" x="250.199219"/>
      <use xlink:href="#DejaVuSans-74" x="305.179688"/>
      <use xlink:href="#DejaVuSans-20" x="344.388672"/>
      <use xlink:href="#DejaVuSans-56" x="376.175781"/>
      <use xlink:href="#DejaVuSans-61" x="436.833984"/>
      <use xlink:href="#DejaVuSans-6c" x="498.113281"/>
      <use xlink:href="#DejaVuSans-75" x="525.896484"/>
      <use xlink:href="#DejaVuSans-65" x="589.275391"/>
     </g>
    </g>
   </g>
  </g>
 </g>
 <defs>
  <clipPath id="p14e1375cae">
   <rect x="46.0125" y="35.7555" width="1339.2" height="332.64"/>
  </clipPath>
 </defs>
</svg>
