<?xml version="1.0" encoding="utf-8" standalone="no"?>
<!DOCTYPE svg PUBLIC "-//W3C//DTD SVG 1.1//EN"
  "http://www.w3.org/Graphics/SVG/1.1/DTD/svg11.dtd">
<svg xmlns:xlink="http://www.w3.org/1999/xlink" width="1398.775pt" height="392.273625pt" viewBox="0 0 1398.775 392.273625" xmlns="http://www.w3.org/2000/svg" version="1.1">
 <metadata>
  <rdf:RDF xmlns:dc="http://purl.org/dc/elements/1.1/" xmlns:cc="http://creativecommons.org/ns#" xmlns:rdf="http://www.w3.org/1999/02/22-rdf-syntax-ns#">
   <cc:Work>
    <dc:type rdf:resource="http://purl.org/dc/dcmitype/StillImage"/>
    <dc:date>2022-10-22T18:50:11.388187</dc:date>
    <dc:format>image/svg+xml</dc:format>
    <dc:creator>
     <cc:Agent>
      <dc:title>Matplotlib v3.5.1, https://matplotlib.org/</dc:title>
     </cc:Agent>
    </dc:creator>
   </cc:Work>
  </rdf:RDF>
 </metadata>
 <defs>
  <style type="text/css">*{stroke-linejoin: round; stroke-linecap: butt}</style>
 </defs>
 <g id="figure_1">
  <g id="patch_1">
   <path d="M 0 392.273625 
L 1398.775 392.273625 
L 1398.775 0 
L 0 0 
z
" style="fill: #ffffff"/>
  </g>
  <g id="axes_1">
   <g id="patch_2">
    <path d="M 52.375 368.3955 
L 1391.575 368.3955 
L 1391.575 35.7555 
L 52.375 35.7555 
z
" style="fill: #ffffff"/>
   </g>
   <g id="matplotlib.axis_1">
    <g id="xtick_1">
     <g id="line2d_1">
      <defs>
       <path id="mab232fe78a" d="M 0 0 
L 0 3.5 
" style="stroke: #000000; stroke-width: 0.8"/>
      </defs>
      <g>
       <use xlink:href="#mab232fe78a" x="86.885523" y="368.3955" style="stroke: #000000; stroke-width: 0.8"/>
      </g>
     </g>
     <g id="text_1">
      <!-- 2020-01 -->
      <g transform="translate(65.994116 382.993937)scale(0.1 -0.1)">
       <defs>
        <path id="DejaVuSans-32" d="M 1228 531 
L 3431 531 
L 3431 0 
L 469 0 
L 469 531 
Q 828 903 1448 1529 
Q 2069 2156 2228 2338 
Q 2531 2678 2651 2914 
Q 2772 3150 2772 3378 
Q 2772 3750 2511 3984 
Q 2250 4219 1831 4219 
Q 1534 4219 1204 4116 
Q 875 4013 500 3803 
L 500 4441 
Q 881 4594 1212 4672 
Q 1544 4750 1819 4750 
Q 2544 4750 2975 4387 
Q 3406 4025 3406 3419 
Q 3406 3131 3298 2873 
Q 3191 2616 2906 2266 
Q 2828 2175 2409 1742 
Q 1991 1309 1228 531 
z
" transform="scale(0.015625)"/>
        <path id="DejaVuSans-30" d="M 2034 4250 
Q 1547 4250 1301 3770 
Q 1056 3291 1056 2328 
Q 1056 1369 1301 889 
Q 1547 409 2034 409 
Q 2525 409 2770 889 
Q 3016 1369 3016 2328 
Q 3016 3291 2770 3770 
Q 2525 4250 2034 4250 
z
M 2034 4750 
Q 2819 4750 3233 4129 
Q 3647 3509 3647 2328 
Q 3647 1150 3233 529 
Q 2819 -91 2034 -91 
Q 1250 -91 836 529 
Q 422 1150 422 2328 
Q 422 3509 836 4129 
Q 1250 4750 2034 4750 
z
" transform="scale(0.015625)"/>
        <path id="DejaVuSans-2d" d="M 313 2009 
L 1997 2009 
L 1997 1497 
L 313 1497 
L 313 2009 
z
" transform="scale(0.015625)"/>
        <path id="DejaVuSans-31" d="M 794 531 
L 1825 531 
L 1825 4091 
L 703 3866 
L 703 4441 
L 1819 4666 
L 2450 4666 
L 2450 531 
L 3481 531 
L 3481 0 
L 794 0 
L 794 531 
z
" transform="scale(0.015625)"/>
       </defs>
       <use xlink:href="#DejaVuSans-32"/>
       <use xlink:href="#DejaVuSans-30" x="63.623047"/>
       <use xlink:href="#DejaVuSans-32" x="127.246094"/>
       <use xlink:href="#DejaVuSans-30" x="190.869141"/>
       <use xlink:href="#DejaVuSans-2d" x="254.492188"/>
       <use xlink:href="#DejaVuSans-30" x="290.576172"/>
       <use xlink:href="#DejaVuSans-31" x="354.199219"/>
      </g>
     </g>
    </g>
    <g id="xtick_2">
     <g id="line2d_2">
      <g>
       <use xlink:href="#mab232fe78a" x="231.877649" y="368.3955" style="stroke: #000000; stroke-width: 0.8"/>
      </g>
     </g>
     <g id="text_2">
      <!-- 2020-05 -->
      <g transform="translate(210.986242 382.993937)scale(0.1 -0.1)">
       <defs>
        <path id="DejaVuSans-35" d="M 691 4666 
L 3169 4666 
L 3169 4134 
L 1269 4134 
L 1269 2991 
Q 1406 3038 1543 3061 
Q 1681 3084 1819 3084 
Q 2600 3084 3056 2656 
Q 3513 2228 3513 1497 
Q 3513 744 3044 326 
Q 2575 -91 1722 -91 
Q 1428 -91 1123 -41 
Q 819 9 494 109 
L 494 744 
Q 775 591 1075 516 
Q 1375 441 1709 441 
Q 2250 441 2565 725 
Q 2881 1009 2881 1497 
Q 2881 1984 2565 2268 
Q 2250 2553 1709 2553 
Q 1456 2553 1204 2497 
Q 953 2441 691 2322 
L 691 4666 
z
" transform="scale(0.015625)"/>
       </defs>
       <use xlink:href="#DejaVuSans-32"/>
       <use xlink:href="#DejaVuSans-30" x="63.623047"/>
       <use xlink:href="#DejaVuSans-32" x="127.246094"/>
       <use xlink:href="#DejaVuSans-30" x="190.869141"/>
       <use xlink:href="#DejaVuSans-2d" x="254.492188"/>
       <use xlink:href="#DejaVuSans-30" x="290.576172"/>
       <use xlink:href="#DejaVuSans-35" x="354.199219"/>
      </g>
     </g>
    </g>
    <g id="xtick_3">
     <g id="line2d_3">
      <g>
       <use xlink:href="#mab232fe78a" x="379.266339" y="368.3955" style="stroke: #000000; stroke-width: 0.8"/>
      </g>
     </g>
     <g id="text_3">
      <!-- 2020-09 -->
      <g transform="translate(358.374932 382.993937)scale(0.1 -0.1)">
       <defs>
        <path id="DejaVuSans-39" d="M 703 97 
L 703 672 
Q 941 559 1184 500 
Q 1428 441 1663 441 
Q 2288 441 2617 861 
Q 2947 1281 2994 2138 
Q 2813 1869 2534 1725 
Q 2256 1581 1919 1581 
Q 1219 1581 811 2004 
Q 403 2428 403 3163 
Q 403 3881 828 4315 
Q 1253 4750 1959 4750 
Q 2769 4750 3195 4129 
Q 3622 3509 3622 2328 
Q 3622 1225 3098 567 
Q 2575 -91 1691 -91 
Q 1453 -91 1209 -44 
Q 966 3 703 97 
z
M 1959 2075 
Q 2384 2075 2632 2365 
Q 2881 2656 2881 3163 
Q 2881 3666 2632 3958 
Q 2384 4250 1959 4250 
Q 1534 4250 1286 3958 
Q 1038 3666 1038 3163 
Q 1038 2656 1286 2365 
Q 1534 2075 1959 2075 
z
" transform="scale(0.015625)"/>
       </defs>
       <use xlink:href="#DejaVuSans-32"/>
       <use xlink:href="#DejaVuSans-30" x="63.623047"/>
       <use xlink:href="#DejaVuSans-32" x="127.246094"/>
       <use xlink:href="#DejaVuSans-30" x="190.869141"/>
       <use xlink:href="#DejaVuSans-2d" x="254.492188"/>
       <use xlink:href="#DejaVuSans-30" x="290.576172"/>
       <use xlink:href="#DejaVuSans-39" x="354.199219"/>
      </g>
     </g>
    </g>
    <g id="xtick_4">
     <g id="line2d_4">
      <g>
       <use xlink:href="#mab232fe78a" x="525.456747" y="368.3955" style="stroke: #000000; stroke-width: 0.8"/>
      </g>
     </g>
     <g id="text_4">
      <!-- 2021-01 -->
      <g transform="translate(504.56534 382.993937)scale(0.1 -0.1)">
       <use xlink:href="#DejaVuSans-32"/>
       <use xlink:href="#DejaVuSans-30" x="63.623047"/>
       <use xlink:href="#DejaVuSans-32" x="127.246094"/>
       <use xlink:href="#DejaVuSans-31" x="190.869141"/>
       <use xlink:href="#DejaVuSans-2d" x="254.492188"/>
       <use xlink:href="#DejaVuSans-30" x="290.576172"/>
       <use xlink:href="#DejaVuSans-31" x="354.199219"/>
      </g>
     </g>
    </g>
    <g id="xtick_5">
     <g id="line2d_5">
      <g>
       <use xlink:href="#mab232fe78a" x="669.250591" y="368.3955" style="stroke: #000000; stroke-width: 0.8"/>
      </g>
     </g>
     <g id="text_5">
      <!-- 2021-05 -->
      <g transform="translate(648.359184 382.993937)scale(0.1 -0.1)">
       <use xlink:href="#DejaVuSans-32"/>
       <use xlink:href="#DejaVuSans-30" x="63.623047"/>
       <use xlink:href="#DejaVuSans-32" x="127.246094"/>
       <use xlink:href="#DejaVuSans-31" x="190.869141"/>
       <use xlink:href="#DejaVuSans-2d" x="254.492188"/>
       <use xlink:href="#DejaVuSans-30" x="290.576172"/>
       <use xlink:href="#DejaVuSans-35" x="354.199219"/>
      </g>
     </g>
    </g>
    <g id="xtick_6">
     <g id="line2d_6">
      <g>
       <use xlink:href="#mab232fe78a" x="816.639281" y="368.3955" style="stroke: #000000; stroke-width: 0.8"/>
      </g>
     </g>
     <g id="text_6">
      <!-- 2021-09 -->
      <g transform="translate(795.747874 382.993937)scale(0.1 -0.1)">
       <use xlink:href="#DejaVuSans-32"/>
       <use xlink:href="#DejaVuSans-30" x="63.623047"/>
       <use xlink:href="#DejaVuSans-32" x="127.246094"/>
       <use xlink:href="#DejaVuSans-31" x="190.869141"/>
       <use xlink:href="#DejaVuSans-2d" x="254.492188"/>
       <use xlink:href="#DejaVuSans-30" x="290.576172"/>
       <use xlink:href="#DejaVuSans-39" x="354.199219"/>
      </g>
     </g>
    </g>
    <g id="xtick_7">
     <g id="line2d_7">
      <g>
       <use xlink:href="#mab232fe78a" x="962.829689" y="368.3955" style="stroke: #000000; stroke-width: 0.8"/>
      </g>
     </g>
     <g id="text_7">
      <!-- 2022-01 -->
      <g transform="translate(941.938282 382.993937)scale(0.1 -0.1)">
       <use xlink:href="#DejaVuSans-32"/>
       <use xlink:href="#DejaVuSans-30" x="63.623047"/>
       <use xlink:href="#DejaVuSans-32" x="127.246094"/>
       <use xlink:href="#DejaVuSans-32" x="190.869141"/>
       <use xlink:href="#DejaVuSans-2d" x="254.492188"/>
       <use xlink:href="#DejaVuSans-30" x="290.576172"/>
       <use xlink:href="#DejaVuSans-31" x="354.199219"/>
      </g>
     </g>
    </g>
    <g id="xtick_8">
     <g id="line2d_8">
      <g>
       <use xlink:href="#mab232fe78a" x="1106.623533" y="368.3955" style="stroke: #000000; stroke-width: 0.8"/>
      </g>
     </g>
     <g id="text_8">
      <!-- 2022-05 -->
      <g transform="translate(1085.732126 382.993937)scale(0.1 -0.1)">
       <use xlink:href="#DejaVuSans-32"/>
       <use xlink:href="#DejaVuSans-30" x="63.623047"/>
       <use xlink:href="#DejaVuSans-32" x="127.246094"/>
       <use xlink:href="#DejaVuSans-32" x="190.869141"/>
       <use xlink:href="#DejaVuSans-2d" x="254.492188"/>
       <use xlink:href="#DejaVuSans-30" x="290.576172"/>
       <use xlink:href="#DejaVuSans-35" x="354.199219"/>
      </g>
     </g>
    </g>
    <g id="xtick_9">
     <g id="line2d_9">
      <g>
       <use xlink:href="#mab232fe78a" x="1254.012223" y="368.3955" style="stroke: #000000; stroke-width: 0.8"/>
      </g>
     </g>
     <g id="text_9">
      <!-- 2022-09 -->
      <g transform="translate(1233.120816 382.993937)scale(0.1 -0.1)">
       <use xlink:href="#DejaVuSans-32"/>
       <use xlink:href="#DejaVuSans-30" x="63.623047"/>
       <use xlink:href="#DejaVuSans-32" x="127.246094"/>
       <use xlink:href="#DejaVuSans-32" x="190.869141"/>
       <use xlink:href="#DejaVuSans-2d" x="254.492188"/>
       <use xlink:href="#DejaVuSans-30" x="290.576172"/>
       <use xlink:href="#DejaVuSans-39" x="354.199219"/>
      </g>
     </g>
    </g>
   </g>
   <g id="matplotlib.axis_2">
    <g id="ytick_1">
     <g id="line2d_10">
      <defs>
       <path id="m76b86b8c57" d="M 0 0 
L -3.5 0 
" style="stroke: #000000; stroke-width: 0.8"/>
      </defs>
      <g>
       <use xlink:href="#m76b86b8c57" x="52.375" y="353.260762" style="stroke: #000000; stroke-width: 0.8"/>
      </g>
     </g>
     <g id="text_10">
      <!-- 0 -->
      <g transform="translate(39.0125 357.059981)scale(0.1 -0.1)">
       <use xlink:href="#DejaVuSans-30"/>
      </g>
     </g>
    </g>
    <g id="ytick_2">
     <g id="line2d_11">
      <g>
       <use xlink:href="#m76b86b8c57" x="52.375" y="312.134346" style="stroke: #000000; stroke-width: 0.8"/>
      </g>
     </g>
     <g id="text_11">
      <!-- 50000 -->
      <g transform="translate(13.5625 315.933565)scale(0.1 -0.1)">
       <use xlink:href="#DejaVuSans-35"/>
       <use xlink:href="#DejaVuSans-30" x="63.623047"/>
       <use xlink:href="#DejaVuSans-30" x="127.246094"/>
       <use xlink:href="#DejaVuSans-30" x="190.869141"/>
       <use xlink:href="#DejaVuSans-30" x="254.492188"/>
      </g>
     </g>
    </g>
    <g id="ytick_3">
     <g id="line2d_12">
      <g>
       <use xlink:href="#m76b86b8c57" x="52.375" y="271.00793" style="stroke: #000000; stroke-width: 0.8"/>
      </g>
     </g>
     <g id="text_12">
      <!-- 100000 -->
      <g transform="translate(7.2 274.807149)scale(0.1 -0.1)">
       <use xlink:href="#DejaVuSans-31"/>
       <use xlink:href="#DejaVuSans-30" x="63.623047"/>
       <use xlink:href="#DejaVuSans-30" x="127.246094"/>
       <use xlink:href="#DejaVuSans-30" x="190.869141"/>
       <use xlink:href="#DejaVuSans-30" x="254.492188"/>
       <use xlink:href="#DejaVuSans-30" x="318.115234"/>
      </g>
     </g>
    </g>
    <g id="ytick_4">
     <g id="line2d_13">
      <g>
       <use xlink:href="#m76b86b8c57" x="52.375" y="229.881515" style="stroke: #000000; stroke-width: 0.8"/>
      </g>
     </g>
     <g id="text_13">
      <!-- 150000 -->
      <g transform="translate(7.2 233.680733)scale(0.1 -0.1)">
       <use xlink:href="#DejaVuSans-31"/>
       <use xlink:href="#DejaVuSans-35" x="63.623047"/>
       <use xlink:href="#DejaVuSans-30" x="127.246094"/>
       <use xlink:href="#DejaVuSans-30" x="190.869141"/>
       <use xlink:href="#DejaVuSans-30" x="254.492188"/>
       <use xlink:href="#DejaVuSans-30" x="318.115234"/>
      </g>
     </g>
    </g>
    <g id="ytick_5">
     <g id="line2d_14">
      <g>
       <use xlink:href="#m76b86b8c57" x="52.375" y="188.755099" style="stroke: #000000; stroke-width: 0.8"/>
      </g>
     </g>
     <g id="text_14">
      <!-- 200000 -->
      <g transform="translate(7.2 192.554318)scale(0.1 -0.1)">
       <use xlink:href="#DejaVuSans-32"/>
       <use xlink:href="#DejaVuSans-30" x="63.623047"/>
       <use xlink:href="#DejaVuSans-30" x="127.246094"/>
       <use xlink:href="#DejaVuSans-30" x="190.869141"/>
       <use xlink:href="#DejaVuSans-30" x="254.492188"/>
       <use xlink:href="#DejaVuSans-30" x="318.115234"/>
      </g>
     </g>
    </g>
    <g id="ytick_6">
     <g id="line2d_15">
      <g>
       <use xlink:href="#m76b86b8c57" x="52.375" y="147.628683" style="stroke: #000000; stroke-width: 0.8"/>
      </g>
     </g>
     <g id="text_15">
      <!-- 250000 -->
      <g transform="translate(7.2 151.427902)scale(0.1 -0.1)">
       <use xlink:href="#DejaVuSans-32"/>
       <use xlink:href="#DejaVuSans-35" x="63.623047"/>
       <use xlink:href="#DejaVuSans-30" x="127.246094"/>
       <use xlink:href="#DejaVuSans-30" x="190.869141"/>
       <use xlink:href="#DejaVuSans-30" x="254.492188"/>
       <use xlink:href="#DejaVuSans-30" x="318.115234"/>
      </g>
     </g>
    </g>
    <g id="ytick_7">
     <g id="line2d_16">
      <g>
       <use xlink:href="#m76b86b8c57" x="52.375" y="106.502267" style="stroke: #000000; stroke-width: 0.8"/>
      </g>
     </g>
     <g id="text_16">
      <!-- 300000 -->
      <g transform="translate(7.2 110.301486)scale(0.1 -0.1)">
       <defs>
        <path id="DejaVuSans-33" d="M 2597 2516 
Q 3050 2419 3304 2112 
Q 3559 1806 3559 1356 
Q 3559 666 3084 287 
Q 2609 -91 1734 -91 
Q 1441 -91 1130 -33 
Q 819 25 488 141 
L 488 750 
Q 750 597 1062 519 
Q 1375 441 1716 441 
Q 2309 441 2620 675 
Q 2931 909 2931 1356 
Q 2931 1769 2642 2001 
Q 2353 2234 1838 2234 
L 1294 2234 
L 1294 2753 
L 1863 2753 
Q 2328 2753 2575 2939 
Q 2822 3125 2822 3475 
Q 2822 3834 2567 4026 
Q 2313 4219 1838 4219 
Q 1578 4219 1281 4162 
Q 984 4106 628 3988 
L 628 4550 
Q 988 4650 1302 4700 
Q 1616 4750 1894 4750 
Q 2613 4750 3031 4423 
Q 3450 4097 3450 3541 
Q 3450 3153 3228 2886 
Q 3006 2619 2597 2516 
z
" transform="scale(0.015625)"/>
       </defs>
       <use xlink:href="#DejaVuSans-33"/>
       <use xlink:href="#DejaVuSans-30" x="63.623047"/>
       <use xlink:href="#DejaVuSans-30" x="127.246094"/>
       <use xlink:href="#DejaVuSans-30" x="190.869141"/>
       <use xlink:href="#DejaVuSans-30" x="254.492188"/>
       <use xlink:href="#DejaVuSans-30" x="318.115234"/>
      </g>
     </g>
    </g>
    <g id="ytick_8">
     <g id="line2d_17">
      <g>
       <use xlink:href="#m76b86b8c57" x="52.375" y="65.375852" style="stroke: #000000; stroke-width: 0.8"/>
      </g>
     </g>
     <g id="text_17">
      <!-- 350000 -->
      <g transform="translate(7.2 69.17507)scale(0.1 -0.1)">
       <use xlink:href="#DejaVuSans-33"/>
       <use xlink:href="#DejaVuSans-35" x="63.623047"/>
       <use xlink:href="#DejaVuSans-30" x="127.246094"/>
       <use xlink:href="#DejaVuSans-30" x="190.869141"/>
       <use xlink:href="#DejaVuSans-30" x="254.492188"/>
       <use xlink:href="#DejaVuSans-30" x="318.115234"/>
      </g>
     </g>
    </g>
   </g>
   <g id="line2d_18">
    <path d="M 113.247727 353.260762 
L 191.136059 353.260762 
L 192.334341 352.99673 
L 193.532623 353.260762 
L 197.12747 353.260762 
L 198.325752 352.884866 
L 199.524034 353.21141 
L 251.050161 353.248424 
L 264.231263 353.258294 
L 346.912724 353.163703 
L 351.705852 353.094611 
L 352.904134 353.157123 
L 356.49898 353.092966 
L 360.093826 353.082273 
L 361.292108 353.13985 
L 362.49039 353.05513 
L 366.085236 353.092966 
L 368.4818 353.027986 
L 369.680082 353.13327 
L 370.878364 353.122577 
L 372.076646 353.260762 
L 373.274928 352.813306 
L 374.47321 353.039502 
L 376.869775 353.131625 
L 384.059467 353.107772 
L 387.654313 353.121755 
L 391.249159 353.028809 
L 393.645723 353.092966 
L 394.844005 353.112707 
L 397.240569 353.004956 
L 399.637133 352.982747 
L 402.033697 353.125867 
L 403.231979 352.888157 
L 404.430261 352.98686 
L 409.223389 353.001665 
L 410.421671 353.083096 
L 416.413082 352.882399 
L 417.611364 353.041147 
L 420.007928 353.014003 
L 422.404492 352.926815 
L 424.801056 352.939153 
L 427.19762 353.030454 
L 431.990748 352.888979 
L 434.387312 352.864303 
L 436.783876 352.90543 
L 439.18044 352.549275 
L 442.775286 352.491698 
L 445.17185 352.673477 
L 446.370132 352.227666 
L 447.568414 351.988311 
L 448.766696 352.26468 
L 451.163261 351.570466 
L 452.361543 351.880559 
L 453.559825 352.314032 
L 454.758107 351.479166 
L 455.956389 351.084352 
L 457.154671 350.863092 
L 458.352953 351.248035 
L 459.551235 351.159202 
L 460.749517 351.707006 
L 461.947799 352.036017 
L 463.146081 351.300677 
L 464.344363 350.997986 
L 465.542645 350.533258 
L 467.939209 350.928894 
L 469.137491 351.866576 
L 470.335773 351.452845 
L 471.534055 351.268598 
L 472.732337 350.621268 
L 473.930619 350.606463 
L 475.128901 351.162492 
L 476.327183 351.361544 
L 477.525465 352.028614 
L 478.723747 352.119915 
L 479.922029 351.507954 
L 481.120311 351.491503 
L 484.715157 351.823805 
L 485.91344 352.279486 
L 487.111722 352.402042 
L 488.310004 351.452022 
L 489.508286 351.463537 
L 494.301414 352.518019 
L 495.499696 352.232601 
L 496.697978 352.171734 
L 497.89626 351.883027 
L 501.491106 352.278663 
L 502.689388 352.691572 
L 503.88767 352.735166 
L 505.085952 352.27455 
L 507.482516 352.312387 
L 508.680798 352.541872 
L 509.87908 352.519664 
L 511.077362 352.777938 
L 512.275644 352.828934 
L 513.473926 352.575596 
L 514.672208 352.491698 
L 515.87049 352.545162 
L 518.267054 353.045259 
L 520.663618 352.870061 
L 521.861901 352.40122 
L 524.258465 352.494165 
L 526.655029 353.045259 
L 529.051593 352.909542 
L 530.249875 352.498278 
L 531.448157 352.591224 
L 532.646439 352.841272 
L 535.043003 352.603562 
L 536.241285 352.894737 
L 537.439567 352.898027 
L 538.637849 352.569016 
L 541.034413 352.771357 
L 543.430977 352.841272 
L 544.629259 353.065823 
L 545.827541 352.999198 
L 547.025823 352.819064 
L 550.620669 352.798501 
L 551.818951 352.763132 
L 553.017233 352.986037 
L 554.215515 352.90543 
L 555.413797 352.591224 
L 556.612079 352.555855 
L 557.810361 352.674299 
L 559.008644 352.535292 
L 560.206926 352.606852 
L 561.405208 352.862658 
L 562.60349 352.818242 
L 563.801772 352.256455 
L 566.198336 352.381479 
L 567.396618 352.296759 
L 568.5949 352.351046 
L 569.793182 352.657849 
L 570.991464 352.743392 
L 572.189746 352.03355 
L 573.388028 352.041775 
L 574.58631 352.172557 
L 575.784592 352.132253 
L 576.982874 352.255632 
L 578.181156 352.716248 
L 579.379438 352.688282 
L 580.57772 352.371609 
L 581.776002 352.640575 
L 582.974284 352.109222 
L 585.370848 352.089482 
L 586.56913 352.533647 
L 587.767412 352.545162 
L 588.965694 351.524405 
L 591.362258 351.794194 
L 593.758822 351.920041 
L 594.957105 352.216973 
L 596.155387 352.298404 
L 597.353669 351.359076 
L 598.551951 351.042403 
L 599.750233 351.437217 
L 600.948515 351.466828 
L 602.146797 351.368124 
L 603.345079 352.321434 
L 604.543361 352.305806 
L 605.741643 350.644299 
L 606.939925 351.098335 
L 608.138207 351.146864 
L 609.336489 351.322063 
L 610.534771 351.201973 
L 611.733053 351.923331 
L 612.931335 352.328015 
L 614.129617 352.020389 
L 615.327899 350.416459 
L 617.724463 350.988939 
L 618.922745 351.17812 
L 620.121027 352.015454 
L 621.319309 351.858351 
L 622.517591 350.36793 
L 624.914155 351.132881 
L 626.112437 352.054935 
L 627.310719 350.684603 
L 628.509001 352.075499 
L 629.707283 351.842723 
L 630.905565 349.705794 
L 632.103848 350.28979 
L 633.30213 350.395896 
L 634.500412 350.74547 
L 635.698694 350.604818 
L 636.896976 351.652719 
L 638.095258 351.728392 
L 639.29354 349.729648 
L 640.491822 350.427152 
L 641.690104 350.616333 
L 642.888386 351.011969 
L 644.086668 350.958505 
L 645.28495 351.848481 
L 646.483232 351.939781 
L 647.681514 349.956666 
L 648.879796 350.726552 
L 650.078078 350.117059 
L 651.27636 350.770969 
L 653.672924 351.756358 
L 654.871206 351.939781 
L 656.069488 350.176281 
L 657.26777 350.784952 
L 658.466052 350.993874 
L 660.862616 351.125478 
L 662.060898 352.110045 
L 663.25918 352.185717 
L 664.457462 350.557111 
L 665.655744 350.982358 
L 668.052309 351.512889 
L 669.250591 352.11827 
L 670.448873 353.260762 
L 671.647155 351.495616 
L 672.845437 352.135543 
L 674.043719 351.540855 
L 675.242001 350.44936 
L 676.440283 351.063789 
L 677.638565 351.23652 
L 678.836847 352.087014 
L 680.035129 351.697958 
L 681.233411 350.651702 
L 682.431693 351.222537 
L 683.629975 351.501374 
L 684.828257 351.46107 
L 686.026539 351.656832 
L 687.224821 352.225199 
L 688.423103 352.113335 
L 689.621385 350.973311 
L 692.017949 351.709473 
L 693.216231 351.630511 
L 694.414513 352.024502 
L 695.612795 352.54105 
L 696.811077 352.12814 
L 698.009359 351.285049 
L 699.207641 352.017922 
L 700.405923 351.717699 
L 701.604205 351.674927 
L 702.802487 352.029437 
L 704.00077 352.515551 
L 705.199052 352.434121 
L 706.397334 351.733327 
L 707.595616 352.126495 
L 712.388744 352.784518 
L 713.587026 352.604384 
L 714.785308 352.135543 
L 715.98359 352.532002 
L 717.181872 352.643866 
L 718.380154 352.6159 
L 719.578436 352.699798 
L 720.776718 353.016471 
L 721.975 352.875819 
L 723.173282 352.607674 
L 724.371564 352.811661 
L 727.96641 352.940798 
L 730.362974 353.091321 
L 732.759538 352.839627 
L 737.552666 353.067468 
L 743.544077 352.454684 
L 744.742359 352.288533 
L 745.940641 352.753262 
L 747.138923 352.439056 
L 748.337205 351.466828 
L 749.535487 351.76705 
L 750.733769 351.565531 
L 751.932051 351.618173 
L 753.130333 351.346738 
L 754.328615 352.05658 
L 755.526897 351.563886 
L 756.725179 350.043854 
L 757.923461 350.846641 
L 761.518307 351.160025 
L 762.716589 351.979263 
L 763.914871 351.752245 
L 765.113153 349.701682 
L 766.311435 350.819498 
L 767.509717 351.121366 
L 768.707999 350.914911 
L 769.906281 351.227472 
L 771.104563 351.983375 
L 772.302845 351.569644 
L 773.501127 349.830819 
L 774.699409 350.900106 
L 775.897691 351.044871 
L 777.095974 350.922314 
L 778.294256 350.997164 
L 779.492538 351.942249 
L 780.69082 351.489036 
L 781.889102 349.996147 
L 783.087384 350.912443 
L 784.285666 350.968375 
L 785.483948 350.855689 
L 786.68223 351.002099 
L 787.880512 351.739084 
L 789.078794 351.127946 
L 790.277076 349.465616 
L 791.475358 350.404944 
L 792.67364 350.297192 
L 795.070204 350.571094 
L 796.268486 351.707828 
L 797.466768 351.441329 
L 798.66505 349.631767 
L 799.863332 350.433732 
L 801.061614 350.568627 
L 802.259896 350.30295 
L 803.458178 350.641832 
L 804.65646 351.659299 
L 805.854742 351.100802 
L 807.053024 349.14812 
L 808.251306 350.575207 
L 809.449588 350.358882 
L 810.64787 350.738067 
L 811.846152 350.74218 
L 813.044435 351.960345 
L 814.242717 351.333578 
L 815.440999 349.718955 
L 816.639281 350.901751 
L 819.035845 351.027597 
L 820.234127 351.382107 
L 821.432409 352.204635 
L 822.630691 351.808999 
L 823.828973 350.429619 
L 825.027255 351.452845 
L 828.622101 351.459425 
L 829.820383 352.175847 
L 831.018665 351.938136 
L 832.216947 350.307885 
L 833.415229 351.281759 
L 837.010075 351.46436 
L 838.208357 352.20299 
L 839.406639 351.513712 
L 840.604921 350.227277 
L 841.803203 351.348383 
L 843.001485 351.53263 
L 844.199767 351.588562 
L 845.398049 351.768695 
L 846.596331 352.355981 
L 848.992895 350.557111 
L 850.191178 351.486568 
L 851.38946 351.424879 
L 852.587742 351.121366 
L 854.984306 352.321434 
L 857.38087 350.724085 
L 858.579152 351.373882 
L 862.173998 351.482456 
L 863.37228 352.175024 
L 865.768844 350.598238 
L 866.967126 351.359076 
L 868.165408 351.145219 
L 869.36369 351.107383 
L 870.561972 351.368124 
L 871.760254 351.871512 
L 872.958536 350.672265 
L 874.156818 350.031516 
L 875.3551 350.5859 
L 877.751664 350.348189 
L 878.949946 350.665685 
L 880.148228 351.554016 
L 881.34651 350.022468 
L 882.544792 349.743631 
L 884.941356 350.828546 
L 886.139639 350.290612 
L 887.337921 349.419555 
L 888.536203 351.02184 
L 889.734485 348.798546 
L 890.932767 347.621508 
L 892.131049 348.209615 
L 893.329331 347.68073 
L 894.527613 347.594364 
L 895.725895 348.032772 
L 896.924177 349.737873 
L 898.122459 347.227517 
L 899.320741 345.883505 
L 900.519023 347.429859 
L 901.717305 347.691423 
L 902.915587 347.641248 
L 904.113869 348.217018 
L 905.312151 350.100608 
L 906.510433 347.54419 
L 907.708715 346.381135 
L 908.906997 347.788481 
L 910.105279 347.276046 
L 911.303561 346.885345 
L 913.700125 349.881816 
L 914.898407 347.266998 
L 916.096689 346.394295 
L 917.294971 347.415876 
L 918.493253 347.864154 
L 919.691535 347.83043 
L 920.889817 348.441568 
L 922.088099 350.116236 
L 923.286382 347.76874 
L 924.484664 346.910843 
L 925.682946 348.167667 
L 928.07951 348.160264 
L 929.277792 349.030499 
L 930.476074 350.360527 
L 931.674356 349.208165 
L 932.872638 347.294141 
L 934.07092 348.408667 
L 937.665766 349.35293 
L 938.864048 350.608108 
L 940.06233 350.111301 
L 941.260612 348.364251 
L 942.458894 349.324141 
L 943.657176 349.398169 
L 944.855458 349.344705 
L 946.05374 349.693457 
L 947.252022 350.932184 
L 948.450304 350.226455 
L 949.648586 347.879782 
L 950.846868 348.625815 
L 953.243432 346.960195 
L 954.441714 347.8403 
L 955.639996 349.941038 
L 956.838278 345.624409 
L 958.03656 335.385576 
L 960.433125 323.995204 
L 961.631407 319.899013 
L 962.829689 328.57751 
L 964.027971 338.75712 
L 965.226253 323.447401 
L 966.424535 311.984646 
L 967.622817 317.574548 
L 968.821099 325.53251 
L 970.019381 329.132716 
L 971.217663 322.27612 
L 972.415945 337.968315 
L 973.614227 330.422441 
L 974.812509 326.25469 
L 976.010791 333.318563 
L 977.209073 336.473781 
L 978.407355 336.997732 
L 979.605637 338.91011 
L 980.803919 344.391439 
L 982.002201 337.769264 
L 983.200483 333.774244 
L 984.398765 336.727943 
L 985.597047 337.74212 
L 986.795329 336.393174 
L 987.993611 338.18135 
L 989.191893 343.301589 
L 990.390175 337.572679 
L 991.588457 338.554778 
L 992.786739 338.488153 
L 993.985021 337.047084 
L 995.183304 334.868206 
L 996.381586 337.152367 
L 997.579868 344.120827 
L 998.77815 337.031456 
L 999.976432 332.700844 
L 1001.174714 337.776666 
L 1002.372996 338.733267 
L 1003.571278 337.928834 
L 1004.76956 340.081391 
L 1005.967842 344.229401 
L 1007.166124 337.758571 
L 1008.364406 333.777534 
L 1009.562688 337.126046 
L 1010.76097 337.506054 
L 1011.959252 338.74725 
L 1013.157534 339.736751 
L 1014.355816 344.333862 
L 1015.554098 336.514085 
L 1016.75238 335.199685 
L 1017.950662 337.214057 
L 1019.148944 337.220637 
L 1020.347226 337.958445 
L 1021.545508 340.671966 
L 1022.74379 345.36778 
L 1023.942072 338.38287 
L 1025.140354 337.138384 
L 1026.338636 339.309037 
L 1027.536918 340.249186 
L 1028.7352 340.175981 
L 1031.131764 346.504514 
L 1032.330047 339.883984 
L 1033.528329 339.106695 
L 1034.726611 340.464689 
L 1037.123175 340.059182 
L 1038.321457 342.570361 
L 1039.519739 345.682808 
L 1040.718021 346.15494 
L 1041.916303 335.940783 
L 1043.114585 334.067064 
L 1044.312867 335.277825 
L 1045.511149 335.77381 
L 1046.709431 337.631079 
L 1047.907713 343.401937 
L 1049.105995 334.604175 
L 1050.304277 331.365058 
L 1051.502559 333.771776 
L 1052.700841 333.309515 
L 1053.899123 333.831821 
L 1055.097405 337.052841 
L 1056.295687 343.010414 
L 1057.493969 333.908316 
L 1058.692251 331.291853 
L 1059.890533 334.258713 
L 1061.088815 335.077128 
L 1062.287097 339.907837 
L 1063.485379 339.641338 
L 1064.683661 342.215029 
L 1065.881943 330.650281 
L 1067.080225 329.348219 
L 1068.278508 334.794179 
L 1069.47679 335.908705 
L 1070.675072 335.903769 
L 1073.071636 344.741836 
L 1074.269918 338.1065 
L 1075.4682 338.080179 
L 1076.666482 343.172452 
L 1077.864764 344.329749 
L 1079.063046 341.117776 
L 1080.261328 342.964352 
L 1081.45961 346.15823 
L 1082.657892 347.563931 
L 1083.856174 340.65058 
L 1085.054456 344.162776 
L 1086.252738 345.604668 
L 1087.45102 346.497111 
L 1088.649302 346.666552 
L 1089.847584 348.594559 
L 1091.045866 350.079222 
L 1092.244148 344.861925 
L 1093.44243 347.202841 
L 1094.640712 347.704583 
L 1095.838994 347.491548 
L 1097.037276 349.826706 
L 1098.235558 353.260762 
L 1099.43384 346.340831 
L 1100.632122 349.20981 
L 1101.830404 343.812379 
L 1103.028686 347.025997 
L 1104.226969 347.122233 
L 1105.425251 347.916795 
L 1106.623533 349.394056 
L 1107.821815 351.068724 
L 1109.020097 349.755146 
L 1110.218379 346.668197 
L 1111.416661 348.991017 
L 1112.614943 349.041192 
L 1113.813225 349.396524 
L 1115.011507 350.632784 
L 1116.209789 350.942055 
L 1117.408071 347.952987 
L 1118.606353 349.344705 
L 1119.804635 349.327431 
L 1121.002917 349.651508 
L 1122.201199 349.704149 
L 1123.399481 350.571917 
L 1124.597763 350.73889 
L 1125.796045 348.090349 
L 1126.994327 349.455746 
L 1128.192609 350.029871 
L 1130.589173 350.444425 
L 1131.787455 351.299032 
L 1132.985737 351.422411 
L 1134.184019 348.634863 
L 1135.382301 349.854672 
L 1136.580583 349.931167 
L 1137.778865 350.195199 
L 1140.175429 351.142751 
L 1141.373712 351.286694 
L 1142.571994 348.908765 
L 1143.770276 349.94844 
L 1147.365122 350.535726 
L 1148.563404 351.072014 
L 1149.761686 351.203619 
L 1150.959968 348.623347 
L 1152.15825 349.562675 
L 1155.753096 349.527306 
L 1156.951378 350.232213 
L 1158.14966 353.260762 
L 1159.347942 346.581009 
L 1160.546224 345.621119 
L 1161.744506 347.373104 
L 1164.14107 347.368992 
L 1165.339352 348.581398 
L 1166.537634 349.286305 
L 1167.735916 342.913356 
L 1168.934198 344.601184 
L 1170.13248 344.6456 
L 1171.330762 343.413453 
L 1172.529044 343.322975 
L 1173.727326 345.616184 
L 1174.925608 346.942099 
L 1176.12389 336.536294 
L 1177.322173 340.005718 
L 1178.520455 340.513218 
L 1179.718737 340.20806 
L 1180.917019 340.232736 
L 1182.115301 343.69558 
L 1183.313583 345.561897 
L 1184.511865 331.977842 
L 1185.710147 337.383498 
L 1186.908429 338.210961 
L 1188.106711 337.675495 
L 1189.304993 338.279231 
L 1190.503275 342.3162 
L 1191.701557 353.260762 
L 1200.089531 353.260762 
L 1201.287813 50.8755 
L 1202.486095 353.260762 
L 1209.675787 353.260762 
L 1210.874069 239.215566 
L 1212.072351 353.260762 
L 1216.86548 353.260762 
L 1218.063762 250.285975 
L 1219.262044 353.260762 
L 1225.253454 353.260762 
L 1226.451736 268.491816 
L 1227.650018 353.260762 
L 1233.641428 353.260762 
L 1234.83971 289.875085 
L 1236.037992 353.260762 
L 1242.029402 353.260762 
L 1243.227684 306.13976 
L 1244.425966 353.260762 
L 1250.417377 353.260762 
L 1251.615659 311.474678 
L 1252.813941 353.260762 
L 1258.805351 353.260762 
L 1260.003633 318.587081 
L 1261.201915 353.260762 
L 1267.193325 353.260762 
L 1268.391607 325.435451 
L 1269.589889 353.260762 
L 1275.581299 353.260762 
L 1276.779581 323.317441 
L 1277.977863 353.260762 
L 1283.969273 353.260762 
L 1285.167555 316.265906 
L 1286.365838 353.260762 
L 1292.357248 353.260762 
L 1293.55553 308.124521 
L 1294.753812 353.260762 
L 1300.745222 353.260762 
L 1301.943504 310.960598 
L 1303.141786 353.260762 
L 1309.133196 353.260762 
L 1310.331478 307.621133 
L 1311.52976 353.260762 
L 1313.926324 353.260762 
L 1313.926324 353.260762 
" clip-path="url(#pa563baa6c2)" style="fill: none; stroke: #0000ff; stroke-width: 1.5; stroke-linecap: square"/>
   </g>
   <g id="line2d_19">
    <path d="M 1074.269918 333.872304 
L 1075.4682 332.061872 
L 1076.666482 334.330893 
L 1077.864764 335.34322 
L 1079.063046 336.650757 
L 1080.261328 338.523474 
L 1081.45961 341.734592 
L 1082.657892 336.805472 
L 1083.856174 336.042233 
L 1085.054456 338.607372 
L 1086.252738 339.456177 
L 1087.45102 339.778522 
L 1088.649302 341.72698 
L 1089.847584 344.762076 
L 1091.045866 341.407701 
L 1092.244148 339.641564 
L 1093.44243 342.271155 
L 1094.640712 343.191401 
L 1095.838994 343.559259 
L 1097.037276 344.914537 
L 1098.235558 347.562836 
L 1099.43384 345.560764 
L 1100.632122 342.861562 
L 1101.830404 345.382235 
L 1103.028686 345.712192 
L 1104.226969 345.758869 
L 1105.425251 347.024668 
L 1106.623533 349.343939 
L 1107.821815 346.281043 
L 1109.020097 345.112951 
L 1111.416661 346.90473 
L 1112.614943 347.016016 
L 1113.813225 348.140709 
L 1115.011507 350.128689 
L 1116.209789 348.185312 
L 1117.408071 347.003553 
L 1118.606353 346.859645 
L 1119.804635 348.088869 
L 1121.002917 348.128233 
L 1122.201199 348.993 
L 1123.399481 350.630572 
L 1125.796045 347.725842 
L 1126.994327 347.814611 
L 1128.192609 348.672262 
L 1129.390891 348.766049 
L 1130.589173 349.408411 
L 1131.787455 350.779444 
L 1132.985737 349.770344 
L 1134.184019 348.228665 
L 1135.382301 348.520801 
L 1136.580583 349.235712 
L 1137.778865 349.285023 
L 1138.977147 349.758822 
L 1140.175429 350.900418 
L 1141.373712 350.141525 
L 1142.571994 348.475911 
L 1144.968558 349.408151 
L 1146.16684 349.482338 
L 1147.365122 349.890382 
L 1148.563404 350.791774 
L 1149.761686 350.239463 
L 1150.959968 348.571076 
L 1153.356532 349.385041 
L 1154.554814 349.400413 
L 1155.753096 349.688072 
L 1156.951378 350.368469 
L 1158.14966 349.930902 
L 1159.347942 348.420525 
L 1160.546224 348.737821 
L 1164.14107 348.644713 
L 1165.339352 349.151802 
L 1166.537634 349.306796 
L 1167.735916 346.77946 
L 1168.934198 346.615283 
L 1170.13248 346.898692 
L 1172.529044 346.512537 
L 1173.727326 346.897083 
L 1174.925608 347.041207 
L 1176.12389 344.00847 
L 1177.322173 343.797843 
L 1178.520455 343.804317 
L 1179.718737 343.257385 
L 1180.917019 343.04733 
L 1182.115301 343.675092 
L 1183.313583 344.065551 
L 1184.511865 340.069667 
L 1185.710147 340.30314 
L 1186.908429 340.360065 
L 1188.106711 339.896405 
L 1189.304993 339.719781 
L 1190.503275 340.82184 
L 1191.701557 341.530675 
L 1192.899839 336.969848 
L 1194.098121 339.826893 
L 1195.296403 341.212139 
L 1196.494685 341.817614 
L 1197.692967 342.794478 
L 1198.891249 345.203698 
L 1200.089531 348.201005 
L 1201.287813 344.540451 
L 1202.486095 322.608115 
L 1203.684377 325.229959 
L 1206.080941 329.232338 
L 1207.279223 332.257939 
L 1208.477505 335.617285 
L 1209.675787 279.894603 
L 1210.874069 340.557263 
L 1212.072351 332.72753 
L 1214.468916 335.604516 
L 1215.667198 337.799796 
L 1216.86548 340.242657 
L 1218.063762 299.258426 
L 1219.262044 315.336708 
L 1220.460326 338.784927 
L 1222.85689 340.75225 
L 1224.055172 342.300767 
L 1225.253454 344.036389 
L 1226.451736 295.432588 
L 1227.650018 326.356639 
L 1228.8483 343.487992 
L 1231.244864 344.748854 
L 1233.641428 347.005619 
L 1234.83971 296.043808 
L 1236.037992 334.982907 
L 1237.236274 347.429647 
L 1239.632838 348.098085 
L 1242.029402 349.537568 
L 1243.227684 300.640531 
L 1244.425966 341.36291 
L 1245.624248 350.363078 
L 1248.020812 350.590605 
L 1250.417377 351.424713 
L 1251.615659 306.953158 
L 1252.813941 345.326204 
L 1254.012223 351.849967 
L 1256.408787 351.854409 
L 1258.805351 352.329295 
L 1260.003633 312.103089 
L 1261.201915 348.005366 
L 1262.400197 352.727196 
L 1264.796761 352.60021 
L 1267.193325 352.838689 
L 1268.391607 317.017729 
L 1269.589889 349.869983 
L 1270.788171 353.2755 
L 1273.184735 353.066472 
L 1275.581299 353.143542 
L 1276.779581 321.791379 
L 1277.977863 350.523591 
L 1279.176145 353.017844 
L 1281.572709 352.848213 
L 1283.969273 352.891295 
L 1285.167555 324.482485 
L 1286.365838 350.197806 
L 1287.56412 352.085538 
L 1291.158966 352.102243 
L 1292.357248 352.170268 
L 1293.55553 324.705549 
L 1294.753812 349.37031 
L 1295.952094 350.858393 
L 1300.745222 351.249621 
L 1301.943504 323.053044 
L 1303.141786 349.237488 
L 1304.340068 350.394461 
L 1309.133196 350.888738 
L 1310.331478 322.636769 
L 1311.52976 348.942193 
L 1312.728042 349.871303 
L 1313.926324 350.027737 
L 1313.926324 350.027737 
" clip-path="url(#pa563baa6c2)" style="fill: none; stroke: #ffa500; stroke-width: 1.5; stroke-linecap: square"/>
   </g>
   <g id="line2d_20">
    <path d="M 1315.124606 350.177519 
L 1316.322888 350.093676 
L 1317.52117 350.020284 
L 1318.719452 320.923036 
L 1319.917734 349.262872 
L 1321.116016 349.66827 
L 1322.314298 349.559339 
L 1323.512581 348.902951 
L 1324.710863 348.798075 
L 1325.909145 348.702751 
L 1327.107427 322.080565 
L 1328.305709 347.954007 
L 1329.503991 348.296282 
L 1330.702273 348.168476 
" clip-path="url(#pa563baa6c2)" style="fill: none; stroke: #ff0000; stroke-width: 1.5; stroke-linecap: square"/>
   </g>
   <g id="patch_3">
    <path d="M 52.375 368.3955 
L 52.375 35.7555 
" style="fill: none; stroke: #000000; stroke-width: 0.8; stroke-linejoin: miter; stroke-linecap: square"/>
   </g>
   <g id="patch_4">
    <path d="M 1391.575 368.3955 
L 1391.575 35.7555 
" style="fill: none; stroke: #000000; stroke-width: 0.8; stroke-linejoin: miter; stroke-linecap: square"/>
   </g>
   <g id="patch_5">
    <path d="M 52.375 368.3955 
L 1391.575 368.3955 
" style="fill: none; stroke: #000000; stroke-width: 0.8; stroke-linejoin: miter; stroke-linecap: square"/>
   </g>
   <g id="patch_6">
    <path d="M 52.375 35.7555 
L 1391.575 35.7555 
" style="fill: none; stroke: #000000; stroke-width: 0.8; stroke-linejoin: miter; stroke-linecap: square"/>
   </g>
   <g id="text_18">
    <!-- Daily Confirmed Cases Forecasting - Greece -->
    <g transform="translate(590.119375 16.318125)scale(0.12 -0.12)">
     <defs>
      <path id="DejaVuSans-44" d="M 1259 4147 
L 1259 519 
L 2022 519 
Q 2988 519 3436 956 
Q 3884 1394 3884 2338 
Q 3884 3275 3436 3711 
Q 2988 4147 2022 4147 
L 1259 4147 
z
M 628 4666 
L 1925 4666 
Q 3281 4666 3915 4102 
Q 4550 3538 4550 2338 
Q 4550 1131 3912 565 
Q 3275 0 1925 0 
L 628 0 
L 628 4666 
z
" transform="scale(0.015625)"/>
      <path id="DejaVuSans-61" d="M 2194 1759 
Q 1497 1759 1228 1600 
Q 959 1441 959 1056 
Q 959 750 1161 570 
Q 1363 391 1709 391 
Q 2188 391 2477 730 
Q 2766 1069 2766 1631 
L 2766 1759 
L 2194 1759 
z
M 3341 1997 
L 3341 0 
L 2766 0 
L 2766 531 
Q 2569 213 2275 61 
Q 1981 -91 1556 -91 
Q 1019 -91 701 211 
Q 384 513 384 1019 
Q 384 1609 779 1909 
Q 1175 2209 1959 2209 
L 2766 2209 
L 2766 2266 
Q 2766 2663 2505 2880 
Q 2244 3097 1772 3097 
Q 1472 3097 1187 3025 
Q 903 2953 641 2809 
L 641 3341 
Q 956 3463 1253 3523 
Q 1550 3584 1831 3584 
Q 2591 3584 2966 3190 
Q 3341 2797 3341 1997 
z
" transform="scale(0.015625)"/>
      <path id="DejaVuSans-69" d="M 603 3500 
L 1178 3500 
L 1178 0 
L 603 0 
L 603 3500 
z
M 603 4863 
L 1178 4863 
L 1178 4134 
L 603 4134 
L 603 4863 
z
" transform="scale(0.015625)"/>
      <path id="DejaVuSans-6c" d="M 603 4863 
L 1178 4863 
L 1178 0 
L 603 0 
L 603 4863 
z
" transform="scale(0.015625)"/>
      <path id="DejaVuSans-79" d="M 2059 -325 
Q 1816 -950 1584 -1140 
Q 1353 -1331 966 -1331 
L 506 -1331 
L 506 -850 
L 844 -850 
Q 1081 -850 1212 -737 
Q 1344 -625 1503 -206 
L 1606 56 
L 191 3500 
L 800 3500 
L 1894 763 
L 2988 3500 
L 3597 3500 
L 2059 -325 
z
" transform="scale(0.015625)"/>
      <path id="DejaVuSans-20" transform="scale(0.015625)"/>
      <path id="DejaVuSans-43" d="M 4122 4306 
L 4122 3641 
Q 3803 3938 3442 4084 
Q 3081 4231 2675 4231 
Q 1875 4231 1450 3742 
Q 1025 3253 1025 2328 
Q 1025 1406 1450 917 
Q 1875 428 2675 428 
Q 3081 428 3442 575 
Q 3803 722 4122 1019 
L 4122 359 
Q 3791 134 3420 21 
Q 3050 -91 2638 -91 
Q 1578 -91 968 557 
Q 359 1206 359 2328 
Q 359 3453 968 4101 
Q 1578 4750 2638 4750 
Q 3056 4750 3426 4639 
Q 3797 4528 4122 4306 
z
" transform="scale(0.015625)"/>
      <path id="DejaVuSans-6f" d="M 1959 3097 
Q 1497 3097 1228 2736 
Q 959 2375 959 1747 
Q 959 1119 1226 758 
Q 1494 397 1959 397 
Q 2419 397 2687 759 
Q 2956 1122 2956 1747 
Q 2956 2369 2687 2733 
Q 2419 3097 1959 3097 
z
M 1959 3584 
Q 2709 3584 3137 3096 
Q 3566 2609 3566 1747 
Q 3566 888 3137 398 
Q 2709 -91 1959 -91 
Q 1206 -91 779 398 
Q 353 888 353 1747 
Q 353 2609 779 3096 
Q 1206 3584 1959 3584 
z
" transform="scale(0.015625)"/>
      <path id="DejaVuSans-6e" d="M 3513 2113 
L 3513 0 
L 2938 0 
L 2938 2094 
Q 2938 2591 2744 2837 
Q 2550 3084 2163 3084 
Q 1697 3084 1428 2787 
Q 1159 2491 1159 1978 
L 1159 0 
L 581 0 
L 581 3500 
L 1159 3500 
L 1159 2956 
Q 1366 3272 1645 3428 
Q 1925 3584 2291 3584 
Q 2894 3584 3203 3211 
Q 3513 2838 3513 2113 
z
" transform="scale(0.015625)"/>
      <path id="DejaVuSans-66" d="M 2375 4863 
L 2375 4384 
L 1825 4384 
Q 1516 4384 1395 4259 
Q 1275 4134 1275 3809 
L 1275 3500 
L 2222 3500 
L 2222 3053 
L 1275 3053 
L 1275 0 
L 697 0 
L 697 3053 
L 147 3053 
L 147 3500 
L 697 3500 
L 697 3744 
Q 697 4328 969 4595 
Q 1241 4863 1831 4863 
L 2375 4863 
z
" transform="scale(0.015625)"/>
      <path id="DejaVuSans-72" d="M 2631 2963 
Q 2534 3019 2420 3045 
Q 2306 3072 2169 3072 
Q 1681 3072 1420 2755 
Q 1159 2438 1159 1844 
L 1159 0 
L 581 0 
L 581 3500 
L 1159 3500 
L 1159 2956 
Q 1341 3275 1631 3429 
Q 1922 3584 2338 3584 
Q 2397 3584 2469 3576 
Q 2541 3569 2628 3553 
L 2631 2963 
z
" transform="scale(0.015625)"/>
      <path id="DejaVuSans-6d" d="M 3328 2828 
Q 3544 3216 3844 3400 
Q 4144 3584 4550 3584 
Q 5097 3584 5394 3201 
Q 5691 2819 5691 2113 
L 5691 0 
L 5113 0 
L 5113 2094 
Q 5113 2597 4934 2840 
Q 4756 3084 4391 3084 
Q 3944 3084 3684 2787 
Q 3425 2491 3425 1978 
L 3425 0 
L 2847 0 
L 2847 2094 
Q 2847 2600 2669 2842 
Q 2491 3084 2119 3084 
Q 1678 3084 1418 2786 
Q 1159 2488 1159 1978 
L 1159 0 
L 581 0 
L 581 3500 
L 1159 3500 
L 1159 2956 
Q 1356 3278 1631 3431 
Q 1906 3584 2284 3584 
Q 2666 3584 2933 3390 
Q 3200 3197 3328 2828 
z
" transform="scale(0.015625)"/>
      <path id="DejaVuSans-65" d="M 3597 1894 
L 3597 1613 
L 953 1613 
Q 991 1019 1311 708 
Q 1631 397 2203 397 
Q 2534 397 2845 478 
Q 3156 559 3463 722 
L 3463 178 
Q 3153 47 2828 -22 
Q 2503 -91 2169 -91 
Q 1331 -91 842 396 
Q 353 884 353 1716 
Q 353 2575 817 3079 
Q 1281 3584 2069 3584 
Q 2775 3584 3186 3129 
Q 3597 2675 3597 1894 
z
M 3022 2063 
Q 3016 2534 2758 2815 
Q 2500 3097 2075 3097 
Q 1594 3097 1305 2825 
Q 1016 2553 972 2059 
L 3022 2063 
z
" transform="scale(0.015625)"/>
      <path id="DejaVuSans-64" d="M 2906 2969 
L 2906 4863 
L 3481 4863 
L 3481 0 
L 2906 0 
L 2906 525 
Q 2725 213 2448 61 
Q 2172 -91 1784 -91 
Q 1150 -91 751 415 
Q 353 922 353 1747 
Q 353 2572 751 3078 
Q 1150 3584 1784 3584 
Q 2172 3584 2448 3432 
Q 2725 3281 2906 2969 
z
M 947 1747 
Q 947 1113 1208 752 
Q 1469 391 1925 391 
Q 2381 391 2643 752 
Q 2906 1113 2906 1747 
Q 2906 2381 2643 2742 
Q 2381 3103 1925 3103 
Q 1469 3103 1208 2742 
Q 947 2381 947 1747 
z
" transform="scale(0.015625)"/>
      <path id="DejaVuSans-73" d="M 2834 3397 
L 2834 2853 
Q 2591 2978 2328 3040 
Q 2066 3103 1784 3103 
Q 1356 3103 1142 2972 
Q 928 2841 928 2578 
Q 928 2378 1081 2264 
Q 1234 2150 1697 2047 
L 1894 2003 
Q 2506 1872 2764 1633 
Q 3022 1394 3022 966 
Q 3022 478 2636 193 
Q 2250 -91 1575 -91 
Q 1294 -91 989 -36 
Q 684 19 347 128 
L 347 722 
Q 666 556 975 473 
Q 1284 391 1588 391 
Q 1994 391 2212 530 
Q 2431 669 2431 922 
Q 2431 1156 2273 1281 
Q 2116 1406 1581 1522 
L 1381 1569 
Q 847 1681 609 1914 
Q 372 2147 372 2553 
Q 372 3047 722 3315 
Q 1072 3584 1716 3584 
Q 2034 3584 2315 3537 
Q 2597 3491 2834 3397 
z
" transform="scale(0.015625)"/>
      <path id="DejaVuSans-46" d="M 628 4666 
L 3309 4666 
L 3309 4134 
L 1259 4134 
L 1259 2759 
L 3109 2759 
L 3109 2228 
L 1259 2228 
L 1259 0 
L 628 0 
L 628 4666 
z
" transform="scale(0.015625)"/>
      <path id="DejaVuSans-63" d="M 3122 3366 
L 3122 2828 
Q 2878 2963 2633 3030 
Q 2388 3097 2138 3097 
Q 1578 3097 1268 2742 
Q 959 2388 959 1747 
Q 959 1106 1268 751 
Q 1578 397 2138 397 
Q 2388 397 2633 464 
Q 2878 531 3122 666 
L 3122 134 
Q 2881 22 2623 -34 
Q 2366 -91 2075 -91 
Q 1284 -91 818 406 
Q 353 903 353 1747 
Q 353 2603 823 3093 
Q 1294 3584 2113 3584 
Q 2378 3584 2631 3529 
Q 2884 3475 3122 3366 
z
" transform="scale(0.015625)"/>
      <path id="DejaVuSans-74" d="M 1172 4494 
L 1172 3500 
L 2356 3500 
L 2356 3053 
L 1172 3053 
L 1172 1153 
Q 1172 725 1289 603 
Q 1406 481 1766 481 
L 2356 481 
L 2356 0 
L 1766 0 
Q 1100 0 847 248 
Q 594 497 594 1153 
L 594 3053 
L 172 3053 
L 172 3500 
L 594 3500 
L 594 4494 
L 1172 4494 
z
" transform="scale(0.015625)"/>
      <path id="DejaVuSans-67" d="M 2906 1791 
Q 2906 2416 2648 2759 
Q 2391 3103 1925 3103 
Q 1463 3103 1205 2759 
Q 947 2416 947 1791 
Q 947 1169 1205 825 
Q 1463 481 1925 481 
Q 2391 481 2648 825 
Q 2906 1169 2906 1791 
z
M 3481 434 
Q 3481 -459 3084 -895 
Q 2688 -1331 1869 -1331 
Q 1566 -1331 1297 -1286 
Q 1028 -1241 775 -1147 
L 775 -588 
Q 1028 -725 1275 -790 
Q 1522 -856 1778 -856 
Q 2344 -856 2625 -561 
Q 2906 -266 2906 331 
L 2906 616 
Q 2728 306 2450 153 
Q 2172 0 1784 0 
Q 1141 0 747 490 
Q 353 981 353 1791 
Q 353 2603 747 3093 
Q 1141 3584 1784 3584 
Q 2172 3584 2450 3431 
Q 2728 3278 2906 2969 
L 2906 3500 
L 3481 3500 
L 3481 434 
z
" transform="scale(0.015625)"/>
      <path id="DejaVuSans-47" d="M 3809 666 
L 3809 1919 
L 2778 1919 
L 2778 2438 
L 4434 2438 
L 4434 434 
Q 4069 175 3628 42 
Q 3188 -91 2688 -91 
Q 1594 -91 976 548 
Q 359 1188 359 2328 
Q 359 3472 976 4111 
Q 1594 4750 2688 4750 
Q 3144 4750 3555 4637 
Q 3966 4525 4313 4306 
L 4313 3634 
Q 3963 3931 3569 4081 
Q 3175 4231 2741 4231 
Q 1884 4231 1454 3753 
Q 1025 3275 1025 2328 
Q 1025 1384 1454 906 
Q 1884 428 2741 428 
Q 3075 428 3337 486 
Q 3600 544 3809 666 
z
" transform="scale(0.015625)"/>
     </defs>
     <use xlink:href="#DejaVuSans-44"/>
     <use xlink:href="#DejaVuSans-61" x="77.001953"/>
     <use xlink:href="#DejaVuSans-69" x="138.28125"/>
     <use xlink:href="#DejaVuSans-6c" x="166.064453"/>
     <use xlink:href="#DejaVuSans-79" x="193.847656"/>
     <use xlink:href="#DejaVuSans-20" x="253.027344"/>
     <use xlink:href="#DejaVuSans-43" x="284.814453"/>
     <use xlink:href="#DejaVuSans-6f" x="354.638672"/>
     <use xlink:href="#DejaVuSans-6e" x="415.820312"/>
     <use xlink:href="#DejaVuSans-66" x="479.199219"/>
     <use xlink:href="#DejaVuSans-69" x="514.404297"/>
     <use xlink:href="#DejaVuSans-72" x="542.1875"/>
     <use xlink:href="#DejaVuSans-6d" x="581.550781"/>
     <use xlink:href="#DejaVuSans-65" x="678.962891"/>
     <use xlink:href="#DejaVuSans-64" x="740.486328"/>
     <use xlink:href="#DejaVuSans-20" x="803.962891"/>
     <use xlink:href="#DejaVuSans-43" x="835.75"/>
     <use xlink:href="#DejaVuSans-61" x="905.574219"/>
     <use xlink:href="#DejaVuSans-73" x="966.853516"/>
     <use xlink:href="#DejaVuSans-65" x="1018.953125"/>
     <use xlink:href="#DejaVuSans-73" x="1080.476562"/>
     <use xlink:href="#DejaVuSans-20" x="1132.576172"/>
     <use xlink:href="#DejaVuSans-46" x="1164.363281"/>
     <use xlink:href="#DejaVuSans-6f" x="1218.257812"/>
     <use xlink:href="#DejaVuSans-72" x="1279.439453"/>
     <use xlink:href="#DejaVuSans-65" x="1318.302734"/>
     <use xlink:href="#DejaVuSans-63" x="1379.826172"/>
     <use xlink:href="#DejaVuSans-61" x="1434.806641"/>
     <use xlink:href="#DejaVuSans-73" x="1496.085938"/>
     <use xlink:href="#DejaVuSans-74" x="1548.185547"/>
     <use xlink:href="#DejaVuSans-69" x="1587.394531"/>
     <use xlink:href="#DejaVuSans-6e" x="1615.177734"/>
     <use xlink:href="#DejaVuSans-67" x="1678.556641"/>
     <use xlink:href="#DejaVuSans-20" x="1742.033203"/>
     <use xlink:href="#DejaVuSans-2d" x="1773.820312"/>
     <use xlink:href="#DejaVuSans-20" x="1809.904297"/>
     <use xlink:href="#DejaVuSans-47" x="1841.691406"/>
     <use xlink:href="#DejaVuSans-72" x="1919.181641"/>
     <use xlink:href="#DejaVuSans-65" x="1958.044922"/>
     <use xlink:href="#DejaVuSans-65" x="2019.568359"/>
     <use xlink:href="#DejaVuSans-63" x="2081.091797"/>
     <use xlink:href="#DejaVuSans-65" x="2136.072266"/>
    </g>
    <!-- ARIMA (0, 1, 1)x(1, 0, 1, 7) (R2 = 0.113458) -->
    <g transform="translate(589.990937 29.7555)scale(0.12 -0.12)">
     <defs>
      <path id="DejaVuSans-41" d="M 2188 4044 
L 1331 1722 
L 3047 1722 
L 2188 4044 
z
M 1831 4666 
L 2547 4666 
L 4325 0 
L 3669 0 
L 3244 1197 
L 1141 1197 
L 716 0 
L 50 0 
L 1831 4666 
z
" transform="scale(0.015625)"/>
      <path id="DejaVuSans-52" d="M 2841 2188 
Q 3044 2119 3236 1894 
Q 3428 1669 3622 1275 
L 4263 0 
L 3584 0 
L 2988 1197 
Q 2756 1666 2539 1819 
Q 2322 1972 1947 1972 
L 1259 1972 
L 1259 0 
L 628 0 
L 628 4666 
L 2053 4666 
Q 2853 4666 3247 4331 
Q 3641 3997 3641 3322 
Q 3641 2881 3436 2590 
Q 3231 2300 2841 2188 
z
M 1259 4147 
L 1259 2491 
L 2053 2491 
Q 2509 2491 2742 2702 
Q 2975 2913 2975 3322 
Q 2975 3731 2742 3939 
Q 2509 4147 2053 4147 
L 1259 4147 
z
" transform="scale(0.015625)"/>
      <path id="DejaVuSans-49" d="M 628 4666 
L 1259 4666 
L 1259 0 
L 628 0 
L 628 4666 
z
" transform="scale(0.015625)"/>
      <path id="DejaVuSans-4d" d="M 628 4666 
L 1569 4666 
L 2759 1491 
L 3956 4666 
L 4897 4666 
L 4897 0 
L 4281 0 
L 4281 4097 
L 3078 897 
L 2444 897 
L 1241 4097 
L 1241 0 
L 628 0 
L 628 4666 
z
" transform="scale(0.015625)"/>
      <path id="DejaVuSans-28" d="M 1984 4856 
Q 1566 4138 1362 3434 
Q 1159 2731 1159 2009 
Q 1159 1288 1364 580 
Q 1569 -128 1984 -844 
L 1484 -844 
Q 1016 -109 783 600 
Q 550 1309 550 2009 
Q 550 2706 781 3412 
Q 1013 4119 1484 4856 
L 1984 4856 
z
" transform="scale(0.015625)"/>
      <path id="DejaVuSans-2c" d="M 750 794 
L 1409 794 
L 1409 256 
L 897 -744 
L 494 -744 
L 750 256 
L 750 794 
z
" transform="scale(0.015625)"/>
      <path id="DejaVuSans-29" d="M 513 4856 
L 1013 4856 
Q 1481 4119 1714 3412 
Q 1947 2706 1947 2009 
Q 1947 1309 1714 600 
Q 1481 -109 1013 -844 
L 513 -844 
Q 928 -128 1133 580 
Q 1338 1288 1338 2009 
Q 1338 2731 1133 3434 
Q 928 4138 513 4856 
z
" transform="scale(0.015625)"/>
      <path id="DejaVuSans-78" d="M 3513 3500 
L 2247 1797 
L 3578 0 
L 2900 0 
L 1881 1375 
L 863 0 
L 184 0 
L 1544 1831 
L 300 3500 
L 978 3500 
L 1906 2253 
L 2834 3500 
L 3513 3500 
z
" transform="scale(0.015625)"/>
      <path id="DejaVuSans-37" d="M 525 4666 
L 3525 4666 
L 3525 4397 
L 1831 0 
L 1172 0 
L 2766 4134 
L 525 4134 
L 525 4666 
z
" transform="scale(0.015625)"/>
      <path id="DejaVuSans-3d" d="M 678 2906 
L 4684 2906 
L 4684 2381 
L 678 2381 
L 678 2906 
z
M 678 1631 
L 4684 1631 
L 4684 1100 
L 678 1100 
L 678 1631 
z
" transform="scale(0.015625)"/>
      <path id="DejaVuSans-2e" d="M 684 794 
L 1344 794 
L 1344 0 
L 684 0 
L 684 794 
z
" transform="scale(0.015625)"/>
      <path id="DejaVuSans-34" d="M 2419 4116 
L 825 1625 
L 2419 1625 
L 2419 4116 
z
M 2253 4666 
L 3047 4666 
L 3047 1625 
L 3713 1625 
L 3713 1100 
L 3047 1100 
L 3047 0 
L 2419 0 
L 2419 1100 
L 313 1100 
L 313 1709 
L 2253 4666 
z
" transform="scale(0.015625)"/>
      <path id="DejaVuSans-38" d="M 2034 2216 
Q 1584 2216 1326 1975 
Q 1069 1734 1069 1313 
Q 1069 891 1326 650 
Q 1584 409 2034 409 
Q 2484 409 2743 651 
Q 3003 894 3003 1313 
Q 3003 1734 2745 1975 
Q 2488 2216 2034 2216 
z
M 1403 2484 
Q 997 2584 770 2862 
Q 544 3141 544 3541 
Q 544 4100 942 4425 
Q 1341 4750 2034 4750 
Q 2731 4750 3128 4425 
Q 3525 4100 3525 3541 
Q 3525 3141 3298 2862 
Q 3072 2584 2669 2484 
Q 3125 2378 3379 2068 
Q 3634 1759 3634 1313 
Q 3634 634 3220 271 
Q 2806 -91 2034 -91 
Q 1263 -91 848 271 
Q 434 634 434 1313 
Q 434 1759 690 2068 
Q 947 2378 1403 2484 
z
M 1172 3481 
Q 1172 3119 1398 2916 
Q 1625 2713 2034 2713 
Q 2441 2713 2670 2916 
Q 2900 3119 2900 3481 
Q 2900 3844 2670 4047 
Q 2441 4250 2034 4250 
Q 1625 4250 1398 4047 
Q 1172 3844 1172 3481 
z
" transform="scale(0.015625)"/>
     </defs>
     <use xlink:href="#DejaVuSans-41"/>
     <use xlink:href="#DejaVuSans-52" x="68.408203"/>
     <use xlink:href="#DejaVuSans-49" x="137.890625"/>
     <use xlink:href="#DejaVuSans-4d" x="167.382812"/>
     <use xlink:href="#DejaVuSans-41" x="253.662109"/>
     <use xlink:href="#DejaVuSans-20" x="322.070312"/>
     <use xlink:href="#DejaVuSans-28" x="353.857422"/>
     <use xlink:href="#DejaVuSans-30" x="392.871094"/>
     <use xlink:href="#DejaVuSans-2c" x="456.494141"/>
     <use xlink:href="#DejaVuSans-20" x="488.28125"/>
     <use xlink:href="#DejaVuSans-31" x="520.068359"/>
     <use xlink:href="#DejaVuSans-2c" x="583.691406"/>
     <use xlink:href="#DejaVuSans-20" x="615.478516"/>
     <use xlink:href="#DejaVuSans-31" x="647.265625"/>
     <use xlink:href="#DejaVuSans-29" x="710.888672"/>
     <use xlink:href="#DejaVuSans-78" x="749.902344"/>
     <use xlink:href="#DejaVuSans-28" x="809.082031"/>
     <use xlink:href="#DejaVuSans-31" x="848.095703"/>
     <use xlink:href="#DejaVuSans-2c" x="911.71875"/>
     <use xlink:href="#DejaVuSans-20" x="943.505859"/>
     <use xlink:href="#DejaVuSans-30" x="975.292969"/>
     <use xlink:href="#DejaVuSans-2c" x="1038.916016"/>
     <use xlink:href="#DejaVuSans-20" x="1070.703125"/>
     <use xlink:href="#DejaVuSans-31" x="1102.490234"/>
     <use xlink:href="#DejaVuSans-2c" x="1166.113281"/>
     <use xlink:href="#DejaVuSans-20" x="1197.900391"/>
     <use xlink:href="#DejaVuSans-37" x="1229.6875"/>
     <use xlink:href="#DejaVuSans-29" x="1293.310547"/>
     <use xlink:href="#DejaVuSans-20" x="1332.324219"/>
     <use xlink:href="#DejaVuSans-28" x="1364.111328"/>
     <use xlink:href="#DejaVuSans-52" x="1403.125"/>
     <use xlink:href="#DejaVuSans-32" x="1472.607422"/>
     <use xlink:href="#DejaVuSans-20" x="1536.230469"/>
     <use xlink:href="#DejaVuSans-3d" x="1568.017578"/>
     <use xlink:href="#DejaVuSans-20" x="1651.806641"/>
     <use xlink:href="#DejaVuSans-30" x="1683.59375"/>
     <use xlink:href="#DejaVuSans-2e" x="1747.216797"/>
     <use xlink:href="#DejaVuSans-31" x="1779.003906"/>
     <use xlink:href="#DejaVuSans-31" x="1842.626953"/>
     <use xlink:href="#DejaVuSans-33" x="1906.25"/>
     <use xlink:href="#DejaVuSans-34" x="1969.873047"/>
     <use xlink:href="#DejaVuSans-35" x="2033.496094"/>
     <use xlink:href="#DejaVuSans-38" x="2097.119141"/>
     <use xlink:href="#DejaVuSans-29" x="2160.742188"/>
    </g>
   </g>
   <g id="legend_1">
    <g id="patch_7">
     <path d="M 1287.495312 87.789875 
L 1384.575 87.789875 
Q 1386.575 87.789875 1386.575 85.789875 
L 1386.575 42.7555 
Q 1386.575 40.7555 1384.575 40.7555 
L 1287.495312 40.7555 
Q 1285.495312 40.7555 1285.495312 42.7555 
L 1285.495312 85.789875 
Q 1285.495312 87.789875 1287.495312 87.789875 
z
" style="fill: #ffffff; opacity: 0.8; stroke: #cccccc; stroke-linejoin: miter"/>
    </g>
    <g id="line2d_21">
     <path d="M 1289.495312 48.853937 
L 1299.495312 48.853937 
L 1309.495312 48.853937 
" style="fill: none; stroke: #0000ff; stroke-width: 1.5; stroke-linecap: square"/>
    </g>
    <g id="text_19">
     <!-- Actual Value -->
     <g transform="translate(1317.495312 52.353937)scale(0.1 -0.1)">
      <defs>
       <path id="DejaVuSans-75" d="M 544 1381 
L 544 3500 
L 1119 3500 
L 1119 1403 
Q 1119 906 1312 657 
Q 1506 409 1894 409 
Q 2359 409 2629 706 
Q 2900 1003 2900 1516 
L 2900 3500 
L 3475 3500 
L 3475 0 
L 2900 0 
L 2900 538 
Q 2691 219 2414 64 
Q 2138 -91 1772 -91 
Q 1169 -91 856 284 
Q 544 659 544 1381 
z
M 1991 3584 
L 1991 3584 
z
" transform="scale(0.015625)"/>
       <path id="DejaVuSans-56" d="M 1831 0 
L 50 4666 
L 709 4666 
L 2188 738 
L 3669 4666 
L 4325 4666 
L 2547 0 
L 1831 0 
z
" transform="scale(0.015625)"/>
      </defs>
      <use xlink:href="#DejaVuSans-41"/>
      <use xlink:href="#DejaVuSans-63" x="66.658203"/>
      <use xlink:href="#DejaVuSans-74" x="121.638672"/>
      <use xlink:href="#DejaVuSans-75" x="160.847656"/>
      <use xlink:href="#DejaVuSans-61" x="224.226562"/>
      <use xlink:href="#DejaVuSans-6c" x="285.505859"/>
      <use xlink:href="#DejaVuSans-20" x="313.289062"/>
      <use xlink:href="#DejaVuSans-56" x="345.076172"/>
      <use xlink:href="#DejaVuSans-61" x="405.734375"/>
      <use xlink:href="#DejaVuSans-6c" x="467.013672"/>
      <use xlink:href="#DejaVuSans-75" x="494.796875"/>
      <use xlink:href="#DejaVuSans-65" x="558.175781"/>
     </g>
    </g>
    <g id="line2d_22">
     <path d="M 1289.495312 63.532062 
L 1299.495312 63.532062 
L 1309.495312 63.532062 
" style="fill: none; stroke: #ffa500; stroke-width: 1.5; stroke-linecap: square"/>
    </g>
    <g id="text_20">
     <!-- Check Value -->
     <g transform="translate(1317.495312 67.032062)scale(0.1 -0.1)">
      <defs>
       <path id="DejaVuSans-68" d="M 3513 2113 
L 3513 0 
L 2938 0 
L 2938 2094 
Q 2938 2591 2744 2837 
Q 2550 3084 2163 3084 
Q 1697 3084 1428 2787 
Q 1159 2491 1159 1978 
L 1159 0 
L 581 0 
L 581 4863 
L 1159 4863 
L 1159 2956 
Q 1366 3272 1645 3428 
Q 1925 3584 2291 3584 
Q 2894 3584 3203 3211 
Q 3513 2838 3513 2113 
z
" transform="scale(0.015625)"/>
       <path id="DejaVuSans-6b" d="M 581 4863 
L 1159 4863 
L 1159 1991 
L 2875 3500 
L 3609 3500 
L 1753 1863 
L 3688 0 
L 2938 0 
L 1159 1709 
L 1159 0 
L 581 0 
L 581 4863 
z
" transform="scale(0.015625)"/>
      </defs>
      <use xlink:href="#DejaVuSans-43"/>
      <use xlink:href="#DejaVuSans-68" x="69.824219"/>
      <use xlink:href="#DejaVuSans-65" x="133.203125"/>
      <use xlink:href="#DejaVuSans-63" x="194.726562"/>
      <use xlink:href="#DejaVuSans-6b" x="249.707031"/>
      <use xlink:href="#DejaVuSans-20" x="307.617188"/>
      <use xlink:href="#DejaVuSans-56" x="339.404297"/>
      <use xlink:href="#DejaVuSans-61" x="400.0625"/>
      <use xlink:href="#DejaVuSans-6c" x="461.341797"/>
      <use xlink:href="#DejaVuSans-75" x="489.125"/>
      <use xlink:href="#DejaVuSans-65" x="552.503906"/>
     </g>
    </g>
    <g id="line2d_23">
     <path d="M 1289.495312 78.210187 
L 1299.495312 78.210187 
L 1309.495312 78.210187 
" style="fill: none; stroke: #ff0000; stroke-width: 1.5; stroke-linecap: square"/>
    </g>
    <g id="text_21">
     <!-- Predict Value -->
     <g transform="translate(1317.495312 81.710187)scale(0.1 -0.1)">
      <defs>
       <path id="DejaVuSans-50" d="M 1259 4147 
L 1259 2394 
L 2053 2394 
Q 2494 2394 2734 2622 
Q 2975 2850 2975 3272 
Q 2975 3691 2734 3919 
Q 2494 4147 2053 4147 
L 1259 4147 
z
M 628 4666 
L 2053 4666 
Q 2838 4666 3239 4311 
Q 3641 3956 3641 3272 
Q 3641 2581 3239 2228 
Q 2838 1875 2053 1875 
L 1259 1875 
L 1259 0 
L 628 0 
L 628 4666 
z
" transform="scale(0.015625)"/>
      </defs>
      <use xlink:href="#DejaVuSans-50"/>
      <use xlink:href="#DejaVuSans-72" x="58.552734"/>
      <use xlink:href="#DejaVuSans-65" x="97.416016"/>
      <use xlink:href="#DejaVuSans-64" x="158.939453"/>
      <use xlink:href="#DejaVuSans-69" x="222.416016"/>
      <use xlink:href="#DejaVuSans-63" x="250.199219"/>
      <use xlink:href="#DejaVuSans-74" x="305.179688"/>
      <use xlink:href="#DejaVuSans-20" x="344.388672"/>
      <use xlink:href="#DejaVuSans-56" x="376.175781"/>
      <use xlink:href="#DejaVuSans-61" x="436.833984"/>
      <use xlink:href="#DejaVuSans-6c" x="498.113281"/>
      <use xlink:href="#DejaVuSans-75" x="525.896484"/>
      <use xlink:href="#DejaVuSans-65" x="589.275391"/>
     </g>
    </g>
   </g>
  </g>
 </g>
 <defs>
  <clipPath id="pa563baa6c2">
   <rect x="52.375" y="35.7555" width="1339.2" height="332.64"/>
  </clipPath>
 </defs>
</svg>
