<?xml version="1.0" encoding="utf-8" standalone="no"?>
<!DOCTYPE svg PUBLIC "-//W3C//DTD SVG 1.1//EN"
  "http://www.w3.org/Graphics/SVG/1.1/DTD/svg11.dtd">
<svg xmlns:xlink="http://www.w3.org/1999/xlink" width="1394.429688pt" height="392.273625pt" viewBox="0 0 1394.429688 392.273625" xmlns="http://www.w3.org/2000/svg" version="1.1">
 <metadata>
  <rdf:RDF xmlns:dc="http://purl.org/dc/elements/1.1/" xmlns:cc="http://creativecommons.org/ns#" xmlns:rdf="http://www.w3.org/1999/02/22-rdf-syntax-ns#">
   <cc:Work>
    <dc:type rdf:resource="http://purl.org/dc/dcmitype/StillImage"/>
    <dc:date>2022-12-22T18:54:49.914666</dc:date>
    <dc:format>image/svg+xml</dc:format>
    <dc:creator>
     <cc:Agent>
      <dc:title>Matplotlib v3.5.1, https://matplotlib.org/</dc:title>
     </cc:Agent>
    </dc:creator>
   </cc:Work>
  </rdf:RDF>
 </metadata>
 <defs>
  <style type="text/css">*{stroke-linejoin: round; stroke-linecap: butt}</style>
 </defs>
 <g id="figure_1">
  <g id="patch_1">
   <path d="M 0 392.273625 
L 1394.429688 392.273625 
L 1394.429688 0 
L 0 0 
z
" style="fill: #ffffff"/>
  </g>
  <g id="axes_1">
   <g id="patch_2">
    <path d="M 48.029688 368.3955 
L 1387.229688 368.3955 
L 1387.229688 35.7555 
L 48.029688 35.7555 
z
" style="fill: #ffffff"/>
   </g>
   <g id="matplotlib.axis_1">
    <g id="xtick_1">
     <g id="line2d_1">
      <defs>
       <path id="m0728831252" d="M 0 0 
L 0 3.5 
" style="stroke: #000000; stroke-width: 0.8"/>
      </defs>
      <g>
       <use xlink:href="#m0728831252" x="84.033334" y="368.3955" style="stroke: #000000; stroke-width: 0.8"/>
      </g>
     </g>
     <g id="text_1">
      <!-- 2020-01 -->
      <g transform="translate(63.141928 382.993937)scale(0.1 -0.1)">
       <defs>
        <path id="DejaVuSans-32" d="M 1228 531 
L 3431 531 
L 3431 0 
L 469 0 
L 469 531 
Q 828 903 1448 1529 
Q 2069 2156 2228 2338 
Q 2531 2678 2651 2914 
Q 2772 3150 2772 3378 
Q 2772 3750 2511 3984 
Q 2250 4219 1831 4219 
Q 1534 4219 1204 4116 
Q 875 4013 500 3803 
L 500 4441 
Q 881 4594 1212 4672 
Q 1544 4750 1819 4750 
Q 2544 4750 2975 4387 
Q 3406 4025 3406 3419 
Q 3406 3131 3298 2873 
Q 3191 2616 2906 2266 
Q 2828 2175 2409 1742 
Q 1991 1309 1228 531 
z
" transform="scale(0.015625)"/>
        <path id="DejaVuSans-30" d="M 2034 4250 
Q 1547 4250 1301 3770 
Q 1056 3291 1056 2328 
Q 1056 1369 1301 889 
Q 1547 409 2034 409 
Q 2525 409 2770 889 
Q 3016 1369 3016 2328 
Q 3016 3291 2770 3770 
Q 2525 4250 2034 4250 
z
M 2034 4750 
Q 2819 4750 3233 4129 
Q 3647 3509 3647 2328 
Q 3647 1150 3233 529 
Q 2819 -91 2034 -91 
Q 1250 -91 836 529 
Q 422 1150 422 2328 
Q 422 3509 836 4129 
Q 1250 4750 2034 4750 
z
" transform="scale(0.015625)"/>
        <path id="DejaVuSans-2d" d="M 313 2009 
L 1997 2009 
L 1997 1497 
L 313 1497 
L 313 2009 
z
" transform="scale(0.015625)"/>
        <path id="DejaVuSans-31" d="M 794 531 
L 1825 531 
L 1825 4091 
L 703 3866 
L 703 4441 
L 1819 4666 
L 2450 4666 
L 2450 531 
L 3481 531 
L 3481 0 
L 794 0 
L 794 531 
z
" transform="scale(0.015625)"/>
       </defs>
       <use xlink:href="#DejaVuSans-32"/>
       <use xlink:href="#DejaVuSans-30" x="63.623047"/>
       <use xlink:href="#DejaVuSans-32" x="127.246094"/>
       <use xlink:href="#DejaVuSans-30" x="190.869141"/>
       <use xlink:href="#DejaVuSans-2d" x="254.492188"/>
       <use xlink:href="#DejaVuSans-30" x="290.576172"/>
       <use xlink:href="#DejaVuSans-31" x="354.199219"/>
      </g>
     </g>
    </g>
    <g id="xtick_2">
     <g id="line2d_2">
      <g>
       <use xlink:href="#m0728831252" x="220.813278" y="368.3955" style="stroke: #000000; stroke-width: 0.8"/>
      </g>
     </g>
     <g id="text_2">
      <!-- 2020-05 -->
      <g transform="translate(199.921872 382.993937)scale(0.1 -0.1)">
       <defs>
        <path id="DejaVuSans-35" d="M 691 4666 
L 3169 4666 
L 3169 4134 
L 1269 4134 
L 1269 2991 
Q 1406 3038 1543 3061 
Q 1681 3084 1819 3084 
Q 2600 3084 3056 2656 
Q 3513 2228 3513 1497 
Q 3513 744 3044 326 
Q 2575 -91 1722 -91 
Q 1428 -91 1123 -41 
Q 819 9 494 109 
L 494 744 
Q 775 591 1075 516 
Q 1375 441 1709 441 
Q 2250 441 2565 725 
Q 2881 1009 2881 1497 
Q 2881 1984 2565 2268 
Q 2250 2553 1709 2553 
Q 1456 2553 1204 2497 
Q 953 2441 691 2322 
L 691 4666 
z
" transform="scale(0.015625)"/>
       </defs>
       <use xlink:href="#DejaVuSans-32"/>
       <use xlink:href="#DejaVuSans-30" x="63.623047"/>
       <use xlink:href="#DejaVuSans-32" x="127.246094"/>
       <use xlink:href="#DejaVuSans-30" x="190.869141"/>
       <use xlink:href="#DejaVuSans-2d" x="254.492188"/>
       <use xlink:href="#DejaVuSans-30" x="290.576172"/>
       <use xlink:href="#DejaVuSans-35" x="354.199219"/>
      </g>
     </g>
    </g>
    <g id="xtick_3">
     <g id="line2d_3">
      <g>
       <use xlink:href="#m0728831252" x="359.854048" y="368.3955" style="stroke: #000000; stroke-width: 0.8"/>
      </g>
     </g>
     <g id="text_3">
      <!-- 2020-09 -->
      <g transform="translate(338.962642 382.993937)scale(0.1 -0.1)">
       <defs>
        <path id="DejaVuSans-39" d="M 703 97 
L 703 672 
Q 941 559 1184 500 
Q 1428 441 1663 441 
Q 2288 441 2617 861 
Q 2947 1281 2994 2138 
Q 2813 1869 2534 1725 
Q 2256 1581 1919 1581 
Q 1219 1581 811 2004 
Q 403 2428 403 3163 
Q 403 3881 828 4315 
Q 1253 4750 1959 4750 
Q 2769 4750 3195 4129 
Q 3622 3509 3622 2328 
Q 3622 1225 3098 567 
Q 2575 -91 1691 -91 
Q 1453 -91 1209 -44 
Q 966 3 703 97 
z
M 1959 2075 
Q 2384 2075 2632 2365 
Q 2881 2656 2881 3163 
Q 2881 3666 2632 3958 
Q 2384 4250 1959 4250 
Q 1534 4250 1286 3958 
Q 1038 3666 1038 3163 
Q 1038 2656 1286 2365 
Q 1534 2075 1959 2075 
z
" transform="scale(0.015625)"/>
       </defs>
       <use xlink:href="#DejaVuSans-32"/>
       <use xlink:href="#DejaVuSans-30" x="63.623047"/>
       <use xlink:href="#DejaVuSans-32" x="127.246094"/>
       <use xlink:href="#DejaVuSans-30" x="190.869141"/>
       <use xlink:href="#DejaVuSans-2d" x="254.492188"/>
       <use xlink:href="#DejaVuSans-30" x="290.576172"/>
       <use xlink:href="#DejaVuSans-39" x="354.199219"/>
      </g>
     </g>
    </g>
    <g id="xtick_4">
     <g id="line2d_4">
      <g>
       <use xlink:href="#m0728831252" x="497.764405" y="368.3955" style="stroke: #000000; stroke-width: 0.8"/>
      </g>
     </g>
     <g id="text_4">
      <!-- 2021-01 -->
      <g transform="translate(476.872999 382.993937)scale(0.1 -0.1)">
       <use xlink:href="#DejaVuSans-32"/>
       <use xlink:href="#DejaVuSans-30" x="63.623047"/>
       <use xlink:href="#DejaVuSans-32" x="127.246094"/>
       <use xlink:href="#DejaVuSans-31" x="190.869141"/>
       <use xlink:href="#DejaVuSans-2d" x="254.492188"/>
       <use xlink:href="#DejaVuSans-30" x="290.576172"/>
       <use xlink:href="#DejaVuSans-31" x="354.199219"/>
      </g>
     </g>
    </g>
    <g id="xtick_5">
     <g id="line2d_5">
      <g>
       <use xlink:href="#m0728831252" x="633.413937" y="368.3955" style="stroke: #000000; stroke-width: 0.8"/>
      </g>
     </g>
     <g id="text_5">
      <!-- 2021-05 -->
      <g transform="translate(612.52253 382.993937)scale(0.1 -0.1)">
       <use xlink:href="#DejaVuSans-32"/>
       <use xlink:href="#DejaVuSans-30" x="63.623047"/>
       <use xlink:href="#DejaVuSans-32" x="127.246094"/>
       <use xlink:href="#DejaVuSans-31" x="190.869141"/>
       <use xlink:href="#DejaVuSans-2d" x="254.492188"/>
       <use xlink:href="#DejaVuSans-30" x="290.576172"/>
       <use xlink:href="#DejaVuSans-35" x="354.199219"/>
      </g>
     </g>
    </g>
    <g id="xtick_6">
     <g id="line2d_6">
      <g>
       <use xlink:href="#m0728831252" x="772.454706" y="368.3955" style="stroke: #000000; stroke-width: 0.8"/>
      </g>
     </g>
     <g id="text_6">
      <!-- 2021-09 -->
      <g transform="translate(751.5633 382.993937)scale(0.1 -0.1)">
       <use xlink:href="#DejaVuSans-32"/>
       <use xlink:href="#DejaVuSans-30" x="63.623047"/>
       <use xlink:href="#DejaVuSans-32" x="127.246094"/>
       <use xlink:href="#DejaVuSans-31" x="190.869141"/>
       <use xlink:href="#DejaVuSans-2d" x="254.492188"/>
       <use xlink:href="#DejaVuSans-30" x="290.576172"/>
       <use xlink:href="#DejaVuSans-39" x="354.199219"/>
      </g>
     </g>
    </g>
    <g id="xtick_7">
     <g id="line2d_7">
      <g>
       <use xlink:href="#m0728831252" x="910.365064" y="368.3955" style="stroke: #000000; stroke-width: 0.8"/>
      </g>
     </g>
     <g id="text_7">
      <!-- 2022-01 -->
      <g transform="translate(889.473657 382.993937)scale(0.1 -0.1)">
       <use xlink:href="#DejaVuSans-32"/>
       <use xlink:href="#DejaVuSans-30" x="63.623047"/>
       <use xlink:href="#DejaVuSans-32" x="127.246094"/>
       <use xlink:href="#DejaVuSans-32" x="190.869141"/>
       <use xlink:href="#DejaVuSans-2d" x="254.492188"/>
       <use xlink:href="#DejaVuSans-30" x="290.576172"/>
       <use xlink:href="#DejaVuSans-31" x="354.199219"/>
      </g>
     </g>
    </g>
    <g id="xtick_8">
     <g id="line2d_8">
      <g>
       <use xlink:href="#m0728831252" x="1046.014595" y="368.3955" style="stroke: #000000; stroke-width: 0.8"/>
      </g>
     </g>
     <g id="text_8">
      <!-- 2022-05 -->
      <g transform="translate(1025.123189 382.993937)scale(0.1 -0.1)">
       <use xlink:href="#DejaVuSans-32"/>
       <use xlink:href="#DejaVuSans-30" x="63.623047"/>
       <use xlink:href="#DejaVuSans-32" x="127.246094"/>
       <use xlink:href="#DejaVuSans-32" x="190.869141"/>
       <use xlink:href="#DejaVuSans-2d" x="254.492188"/>
       <use xlink:href="#DejaVuSans-30" x="290.576172"/>
       <use xlink:href="#DejaVuSans-35" x="354.199219"/>
      </g>
     </g>
    </g>
    <g id="xtick_9">
     <g id="line2d_9">
      <g>
       <use xlink:href="#m0728831252" x="1185.055365" y="368.3955" style="stroke: #000000; stroke-width: 0.8"/>
      </g>
     </g>
     <g id="text_9">
      <!-- 2022-09 -->
      <g transform="translate(1164.163959 382.993937)scale(0.1 -0.1)">
       <use xlink:href="#DejaVuSans-32"/>
       <use xlink:href="#DejaVuSans-30" x="63.623047"/>
       <use xlink:href="#DejaVuSans-32" x="127.246094"/>
       <use xlink:href="#DejaVuSans-32" x="190.869141"/>
       <use xlink:href="#DejaVuSans-2d" x="254.492188"/>
       <use xlink:href="#DejaVuSans-30" x="290.576172"/>
       <use xlink:href="#DejaVuSans-39" x="354.199219"/>
      </g>
     </g>
    </g>
    <g id="xtick_10">
     <g id="line2d_10">
      <g>
       <use xlink:href="#m0728831252" x="1322.965722" y="368.3955" style="stroke: #000000; stroke-width: 0.8"/>
      </g>
     </g>
     <g id="text_10">
      <!-- 2023-01 -->
      <g transform="translate(1302.074316 382.993937)scale(0.1 -0.1)">
       <defs>
        <path id="DejaVuSans-33" d="M 2597 2516 
Q 3050 2419 3304 2112 
Q 3559 1806 3559 1356 
Q 3559 666 3084 287 
Q 2609 -91 1734 -91 
Q 1441 -91 1130 -33 
Q 819 25 488 141 
L 488 750 
Q 750 597 1062 519 
Q 1375 441 1716 441 
Q 2309 441 2620 675 
Q 2931 909 2931 1356 
Q 2931 1769 2642 2001 
Q 2353 2234 1838 2234 
L 1294 2234 
L 1294 2753 
L 1863 2753 
Q 2328 2753 2575 2939 
Q 2822 3125 2822 3475 
Q 2822 3834 2567 4026 
Q 2313 4219 1838 4219 
Q 1578 4219 1281 4162 
Q 984 4106 628 3988 
L 628 4550 
Q 988 4650 1302 4700 
Q 1616 4750 1894 4750 
Q 2613 4750 3031 4423 
Q 3450 4097 3450 3541 
Q 3450 3153 3228 2886 
Q 3006 2619 2597 2516 
z
" transform="scale(0.015625)"/>
       </defs>
       <use xlink:href="#DejaVuSans-32"/>
       <use xlink:href="#DejaVuSans-30" x="63.623047"/>
       <use xlink:href="#DejaVuSans-32" x="127.246094"/>
       <use xlink:href="#DejaVuSans-33" x="190.869141"/>
       <use xlink:href="#DejaVuSans-2d" x="254.492188"/>
       <use xlink:href="#DejaVuSans-30" x="290.576172"/>
       <use xlink:href="#DejaVuSans-31" x="354.199219"/>
      </g>
     </g>
    </g>
   </g>
   <g id="matplotlib.axis_2">
    <g id="ytick_1">
     <g id="line2d_11">
      <defs>
       <path id="m14cb12f178" d="M 0 0 
L -3.5 0 
" style="stroke: #000000; stroke-width: 0.8"/>
      </defs>
      <g>
       <use xlink:href="#m14cb12f178" x="48.029688" y="337.901475" style="stroke: #000000; stroke-width: 0.8"/>
      </g>
     </g>
     <g id="text_11">
      <!-- −1000 -->
      <g transform="translate(7.2 341.700694)scale(0.1 -0.1)">
       <defs>
        <path id="DejaVuSans-2212" d="M 678 2272 
L 4684 2272 
L 4684 1741 
L 678 1741 
L 678 2272 
z
" transform="scale(0.015625)"/>
       </defs>
       <use xlink:href="#DejaVuSans-2212"/>
       <use xlink:href="#DejaVuSans-31" x="83.789062"/>
       <use xlink:href="#DejaVuSans-30" x="147.412109"/>
       <use xlink:href="#DejaVuSans-30" x="211.035156"/>
       <use xlink:href="#DejaVuSans-30" x="274.658203"/>
      </g>
     </g>
    </g>
    <g id="ytick_2">
     <g id="line2d_12">
      <g>
       <use xlink:href="#m14cb12f178" x="48.029688" y="293.723243" style="stroke: #000000; stroke-width: 0.8"/>
      </g>
     </g>
     <g id="text_12">
      <!-- 0 -->
      <g transform="translate(34.667188 297.522462)scale(0.1 -0.1)">
       <use xlink:href="#DejaVuSans-30"/>
      </g>
     </g>
    </g>
    <g id="ytick_3">
     <g id="line2d_13">
      <g>
       <use xlink:href="#m14cb12f178" x="48.029688" y="249.545011" style="stroke: #000000; stroke-width: 0.8"/>
      </g>
     </g>
     <g id="text_13">
      <!-- 1000 -->
      <g transform="translate(15.579688 253.344229)scale(0.1 -0.1)">
       <use xlink:href="#DejaVuSans-31"/>
       <use xlink:href="#DejaVuSans-30" x="63.623047"/>
       <use xlink:href="#DejaVuSans-30" x="127.246094"/>
       <use xlink:href="#DejaVuSans-30" x="190.869141"/>
      </g>
     </g>
    </g>
    <g id="ytick_4">
     <g id="line2d_14">
      <g>
       <use xlink:href="#m14cb12f178" x="48.029688" y="205.366778" style="stroke: #000000; stroke-width: 0.8"/>
      </g>
     </g>
     <g id="text_14">
      <!-- 2000 -->
      <g transform="translate(15.579688 209.165997)scale(0.1 -0.1)">
       <use xlink:href="#DejaVuSans-32"/>
       <use xlink:href="#DejaVuSans-30" x="63.623047"/>
       <use xlink:href="#DejaVuSans-30" x="127.246094"/>
       <use xlink:href="#DejaVuSans-30" x="190.869141"/>
      </g>
     </g>
    </g>
    <g id="ytick_5">
     <g id="line2d_15">
      <g>
       <use xlink:href="#m14cb12f178" x="48.029688" y="161.188546" style="stroke: #000000; stroke-width: 0.8"/>
      </g>
     </g>
     <g id="text_15">
      <!-- 3000 -->
      <g transform="translate(15.579688 164.987765)scale(0.1 -0.1)">
       <use xlink:href="#DejaVuSans-33"/>
       <use xlink:href="#DejaVuSans-30" x="63.623047"/>
       <use xlink:href="#DejaVuSans-30" x="127.246094"/>
       <use xlink:href="#DejaVuSans-30" x="190.869141"/>
      </g>
     </g>
    </g>
    <g id="ytick_6">
     <g id="line2d_16">
      <g>
       <use xlink:href="#m14cb12f178" x="48.029688" y="117.010314" style="stroke: #000000; stroke-width: 0.8"/>
      </g>
     </g>
     <g id="text_16">
      <!-- 4000 -->
      <g transform="translate(15.579688 120.809532)scale(0.1 -0.1)">
       <defs>
        <path id="DejaVuSans-34" d="M 2419 4116 
L 825 1625 
L 2419 1625 
L 2419 4116 
z
M 2253 4666 
L 3047 4666 
L 3047 1625 
L 3713 1625 
L 3713 1100 
L 3047 1100 
L 3047 0 
L 2419 0 
L 2419 1100 
L 313 1100 
L 313 1709 
L 2253 4666 
z
" transform="scale(0.015625)"/>
       </defs>
       <use xlink:href="#DejaVuSans-34"/>
       <use xlink:href="#DejaVuSans-30" x="63.623047"/>
       <use xlink:href="#DejaVuSans-30" x="127.246094"/>
       <use xlink:href="#DejaVuSans-30" x="190.869141"/>
      </g>
     </g>
    </g>
    <g id="ytick_7">
     <g id="line2d_17">
      <g>
       <use xlink:href="#m14cb12f178" x="48.029688" y="72.832081" style="stroke: #000000; stroke-width: 0.8"/>
      </g>
     </g>
     <g id="text_17">
      <!-- 5000 -->
      <g transform="translate(15.579688 76.6313)scale(0.1 -0.1)">
       <use xlink:href="#DejaVuSans-35"/>
       <use xlink:href="#DejaVuSans-30" x="63.623047"/>
       <use xlink:href="#DejaVuSans-30" x="127.246094"/>
       <use xlink:href="#DejaVuSans-30" x="190.869141"/>
      </g>
     </g>
    </g>
   </g>
   <g id="line2d_18">
    <path d="M 108.902415 293.723243 
L 163.162227 293.634886 
L 164.29264 293.193104 
L 166.553466 292.972213 
L 167.683878 293.369817 
L 168.814291 292.928035 
L 169.944704 290.940014 
L 171.075117 290.940014 
L 172.205529 287.891716 
L 173.335942 287.140686 
L 174.466355 285.506092 
L 175.596768 288.068429 
L 176.727181 290.321519 
L 177.857593 283.827319 
L 178.988006 283.385537 
L 180.118419 288.421855 
L 181.248832 287.008152 
L 182.379244 283.738962 
L 183.509657 288.466033 
L 184.64007 292.04447 
L 185.770483 285.329379 
L 186.900895 287.494112 
L 188.031308 286.3013 
L 189.161721 288.200964 
L 190.292134 288.55439 
L 191.422546 290.409875 
L 192.552959 292.000292 
L 193.683372 288.112607 
L 194.813785 290.895836 
L 195.944198 290.144806 
L 197.07461 288.951994 
L 198.205023 291.646866 
L 199.335436 293.237282 
L 200.465849 293.237282 
L 201.596261 293.060569 
L 202.726674 290.80748 
L 203.857087 290.586588 
L 204.9875 292.132827 
L 206.117912 291.205084 
L 207.248325 293.148926 
L 208.378738 293.369817 
L 209.509151 291.072549 
L 211.769976 293.237282 
L 212.900389 292.397896 
L 214.030802 293.016391 
L 216.291627 293.458173 
L 217.42204 293.193104 
L 218.552453 292.486252 
L 219.682866 293.060569 
L 220.813278 292.928035 
L 221.943691 293.281461 
L 223.074104 293.193104 
L 224.204517 293.54653 
L 225.334929 293.193104 
L 227.595755 293.369817 
L 228.726168 293.193104 
L 229.85658 293.458173 
L 230.986993 293.325639 
L 232.117406 293.634886 
L 234.378231 293.281461 
L 235.508644 293.237282 
L 237.76947 293.413995 
L 238.899882 293.060569 
L 240.030295 293.634886 
L 241.160708 293.237282 
L 242.291121 293.148926 
L 243.421534 293.325639 
L 244.551946 293.679065 
L 245.682359 293.325639 
L 246.812772 293.634886 
L 249.073597 293.634886 
L 250.20401 293.458173 
L 251.334423 293.413995 
L 252.464836 293.54653 
L 254.725661 293.634886 
L 256.986487 293.679065 
L 258.116899 293.54653 
L 259.247312 293.590708 
L 260.377725 293.502352 
L 261.508138 293.590708 
L 262.638551 293.54653 
L 263.768963 293.679065 
L 264.899376 293.458173 
L 266.029789 293.590708 
L 268.290614 293.590708 
L 269.421027 293.369817 
L 270.55144 293.413995 
L 271.681853 293.634886 
L 272.812265 293.590708 
L 273.942678 293.281461 
L 275.073091 293.458173 
L 276.203504 293.369817 
L 277.333916 293.458173 
L 278.464329 293.060569 
L 279.594742 293.679065 
L 280.725155 293.193104 
L 281.855567 293.413995 
L 282.98598 293.237282 
L 284.116393 292.751322 
L 285.246806 291.779401 
L 286.377219 292.618787 
L 287.507631 293.104748 
L 288.638044 291.823579 
L 292.029282 291.425975 
L 293.159695 292.442074 
L 294.290108 291.691044 
L 295.420521 292.839678 
L 296.550933 291.028371 
L 297.681346 291.646866 
L 298.811759 290.674945 
L 299.942172 291.160905 
L 301.072584 290.851658 
L 302.202997 290.05645 
L 303.33341 292.353718 
L 304.463823 289.30542 
L 305.594235 290.80748 
L 306.724648 286.522191 
L 307.855061 288.245142 
L 308.985474 290.454054 
L 310.115887 288.333499 
L 311.246299 292.221183 
L 312.376712 289.923915 
L 313.507125 288.024251 
L 314.637538 289.393776 
L 315.76795 289.128707 
L 316.898363 287.847538 
L 318.028776 290.05645 
L 319.159189 291.558509 
L 320.289601 291.337618 
L 321.420014 286.743082 
L 322.550427 290.05645 
L 323.68084 290.233163 
L 324.811252 289.393776 
L 325.941665 290.984192 
L 327.072078 293.325639 
L 328.202491 291.381797 
L 329.332904 289.747202 
L 331.593729 291.956114 
L 332.724142 291.249262 
L 333.854555 292.132827 
L 334.984967 293.237282 
L 336.11538 292.574609 
L 337.245793 291.160905 
L 338.376206 290.719123 
L 339.506618 292.088648 
L 340.637031 292.221183 
L 341.767444 292.883856 
L 342.897857 293.237282 
L 344.028269 292.397896 
L 345.158682 290.763301 
L 346.289095 290.586588 
L 347.419508 290.763301 
L 348.54992 291.160905 
L 349.680333 293.148926 
L 350.810746 292.883856 
L 351.941159 291.779401 
L 353.071572 289.747202 
L 354.201984 293.723243 
L 355.332397 353.2755 
L 356.46281 291.735222 
L 357.593223 293.723243 
L 359.854048 293.723243 
L 360.984461 288.421855 
L 362.114874 290.80748 
L 363.245286 291.823579 
L 364.375699 291.867757 
L 365.506112 291.337618 
L 366.636525 293.281461 
L 367.766937 293.104748 
L 368.89735 291.558509 
L 370.027763 290.851658 
L 371.158176 293.723243 
L 372.288588 290.586588 
L 373.419001 293.723243 
L 374.549414 289.968093 
L 375.679827 291.956114 
L 376.81024 288.863637 
L 377.940652 287.229043 
L 379.071065 285.903696 
L 380.201478 293.723243 
L 381.331891 293.723243 
L 382.462303 284.975953 
L 383.592716 289.30542 
L 384.723129 290.454054 
L 385.853542 290.719123 
L 386.983954 290.409875 
L 388.114367 293.723243 
L 389.24478 293.723243 
L 390.375193 287.405756 
L 391.505605 291.29344 
L 392.636018 290.277341 
L 393.766431 289.923915 
L 394.896844 288.686924 
L 396.027257 293.723243 
L 397.157669 293.723243 
L 398.288082 284.180745 
L 399.418495 291.337618 
L 400.548908 287.53829 
L 401.67932 289.30542 
L 402.809733 287.494112 
L 403.940146 286.919795 
L 405.070559 284.534171 
L 406.200971 293.325639 
L 407.331384 288.907816 
L 408.461797 285.329379 
L 409.59221 284.269101 
L 410.722622 283.694784 
L 411.853035 293.723243 
L 412.983448 275.30092 
L 414.113861 288.333499 
L 415.244273 283.518071 
L 416.374686 274.726603 
L 417.505099 264.477253 
L 418.635512 270.838919 
L 419.765925 293.723243 
L 420.896337 293.723243 
L 422.02675 225.335339 
L 423.157163 272.2968 
L 424.287576 259.485113 
L 425.417988 262.931015 
L 426.548401 259.352578 
L 427.678814 293.723243 
L 428.809227 293.723243 
L 429.939639 206.82466 
L 431.070052 270.176245 
L 432.200465 262.356698 
L 433.330878 258.248122 
L 434.46129 264.609788 
L 435.591703 293.723243 
L 436.722116 293.723243 
L 437.852529 230.945975 
L 438.982941 272.385157 
L 440.113354 293.723243 
L 441.243767 227.102469 
L 442.37418 262.224163 
L 443.504593 293.723243 
L 444.635005 293.723243 
L 445.765418 235.187085 
L 446.895831 274.947494 
L 448.026244 254.31626 
L 449.156656 264.123827 
L 450.287069 270.79474 
L 451.417482 293.723243 
L 452.547895 293.723243 
L 453.678307 234.126808 
L 454.80872 277.244762 
L 455.939133 266.509452 
L 457.069546 259.573469 
L 458.199958 270.04371 
L 459.330371 293.723243 
L 460.460784 293.723243 
L 461.591197 237.661066 
L 462.72161 273.79886 
L 463.852022 263.991293 
L 464.982435 266.023491 
L 466.112848 267.746442 
L 467.243261 293.723243 
L 468.373673 293.723243 
L 469.504086 229.267202 
L 470.634499 293.723243 
L 471.764912 293.723243 
L 472.895324 224.761022 
L 474.025737 262.003272 
L 475.15615 293.723243 
L 476.286563 293.723243 
L 477.416975 243.139167 
L 478.547388 278.260862 
L 479.677801 267.437195 
L 480.808214 274.54989 
L 481.938626 273.887217 
L 483.069039 293.723243 
L 484.199452 293.723243 
L 485.329865 255.995033 
L 486.460278 283.694784 
L 487.59069 276.05195 
L 488.721103 293.723243 
L 492.112341 293.723243 
L 493.242754 265.449174 
L 494.373167 283.164645 
L 495.50358 279.276961 
L 496.633992 293.723243 
L 500.025231 293.723243 
L 501.155643 268.497472 
L 502.286056 286.522191 
L 503.416469 281.30916 
L 504.546882 286.566369 
L 505.677294 287.008152 
L 506.807707 293.723243 
L 507.93812 293.723243 
L 509.068533 281.220803 
L 510.198946 286.919795 
L 511.329358 285.285201 
L 512.459771 288.686924 
L 513.590184 287.361577 
L 514.720597 293.723243 
L 515.851009 293.723243 
L 516.981422 282.236902 
L 518.111835 289.968093 
L 519.242248 283.606428 
L 520.37266 288.642746 
L 521.503073 288.466033 
L 522.633486 293.723243 
L 523.763899 293.723243 
L 524.894311 280.690664 
L 526.024724 288.466033 
L 527.155137 283.253002 
L 528.28555 287.582469 
L 529.415963 286.654726 
L 530.546375 293.723243 
L 531.676788 293.723243 
L 532.807201 278.481753 
L 533.937614 285.329379 
L 535.068026 284.666705 
L 536.198439 284.79924 
L 537.328852 285.682805 
L 538.459265 293.723243 
L 539.589677 293.723243 
L 540.72009 277.509832 
L 541.850503 287.405756 
L 542.980916 283.783141 
L 544.111328 287.317399 
L 545.241741 287.229043 
L 546.372154 293.723243 
L 547.502567 293.723243 
L 548.632979 276.758802 
L 549.763392 287.582469 
L 550.893805 281.927655 
L 552.024218 283.429715 
L 553.154631 284.004032 
L 554.285043 293.723243 
L 555.415456 293.723243 
L 556.545869 276.493732 
L 557.676282 285.682805 
L 558.806694 279.409496 
L 559.937107 285.196844 
L 561.06752 283.164645 
L 562.197933 293.723243 
L 563.328345 293.723243 
L 564.458758 277.377297 
L 565.589171 287.008152 
L 566.719584 281.79512 
L 567.849996 284.534171 
L 568.980409 285.506092 
L 570.110822 293.723243 
L 571.241235 293.723243 
L 572.371647 276.891336 
L 573.50206 287.317399 
L 574.632473 283.385537 
L 575.762886 282.016011 
L 576.893299 285.682805 
L 578.023711 293.723243 
L 579.154124 293.723243 
L 580.284537 275.035851 
L 581.41495 285.55027 
L 582.545362 280.602308 
L 583.675775 281.971833 
L 584.806188 281.30916 
L 585.936601 293.723243 
L 587.067013 293.723243 
L 588.197426 269.778641 
L 589.327839 286.433835 
L 590.458252 282.899576 
L 591.588664 280.55813 
L 592.719077 282.236902 
L 593.84949 293.723243 
L 594.979903 293.723243 
L 596.110316 266.862878 
L 597.240728 285.682805 
L 598.371141 276.626267 
L 599.501554 283.164645 
L 600.631967 283.827319 
L 601.762379 293.723243 
L 604.023205 293.723243 
L 605.153618 270.750562 
L 606.28403 286.3013 
L 607.414443 276.626267 
L 608.544856 281.04409 
L 609.675269 293.723243 
L 610.805681 293.723243 
L 611.936094 275.477633 
L 613.066507 285.682805 
L 614.19692 281.706764 
L 615.327332 284.224923 
L 616.457745 285.020131 
L 617.588158 293.723243 
L 618.718571 293.723243 
L 619.848984 276.140306 
L 620.979396 285.992052 
L 622.109809 281.132447 
L 623.240222 284.489992 
L 624.370635 285.152666 
L 625.501047 293.723243 
L 626.63146 293.723243 
L 627.761873 277.509832 
L 628.892286 284.004032 
L 630.022698 283.473893 
L 631.153111 284.04821 
L 632.283524 286.654726 
L 633.413937 293.723243 
L 634.544349 293.723243 
L 635.674762 280.911556 
L 636.805175 287.229043 
L 637.935588 284.534171 
L 640.196413 287.847538 
L 641.326826 293.723243 
L 642.457239 293.723243 
L 643.587652 281.441694 
L 644.718064 288.377677 
L 645.848477 285.064309 
L 646.97889 293.723243 
L 648.109303 286.03623 
L 649.239715 293.723243 
L 650.370128 293.723243 
L 651.500541 281.883477 
L 652.630954 291.558509 
L 653.761366 286.698904 
L 654.891779 290.763301 
L 656.022192 290.188984 
L 657.152605 293.723243 
L 659.41343 293.723243 
L 660.543843 292.221183 
L 661.674256 289.747202 
L 662.804669 290.188984 
L 663.935081 290.144806 
L 665.065494 293.723243 
L 666.195907 293.723243 
L 667.32632 289.217063 
L 668.456732 291.470153 
L 669.587145 291.779401 
L 670.717558 291.028371 
L 671.847971 289.570489 
L 672.978383 293.723243 
L 674.108796 293.723243 
L 675.239209 290.454054 
L 676.369622 292.177005 
L 677.500034 291.425975 
L 678.630447 291.956114 
L 679.76086 292.707144 
L 680.891273 293.723243 
L 682.021685 293.723243 
L 683.152098 292.000292 
L 684.282511 292.7955 
L 687.673749 293.148926 
L 688.804162 293.723243 
L 689.934575 293.723243 
L 691.064988 292.883856 
L 692.1954 293.193104 
L 693.325813 293.723243 
L 694.456226 292.000292 
L 695.586639 293.104748 
L 696.717051 293.723243 
L 697.847464 293.723243 
L 698.977877 291.867757 
L 700.10829 291.381797 
L 701.238702 289.658846 
L 702.369115 288.951994 
L 703.499528 287.715003 
L 704.629941 293.723243 
L 705.760353 293.723243 
L 706.890766 276.140306 
L 708.021179 288.510211 
L 709.151592 284.843418 
L 710.282005 287.935894 
L 711.412417 287.935894 
L 712.54283 293.723243 
L 713.673243 293.723243 
L 714.803656 282.81122 
L 715.934068 287.80336 
L 717.064481 288.510211 
L 719.325307 288.112607 
L 720.455719 293.723243 
L 721.586132 293.723243 
L 722.716545 283.738962 
L 723.846958 289.79138 
L 724.97737 287.494112 
L 726.107783 289.570489 
L 727.238196 289.172885 
L 728.368609 293.723243 
L 729.499022 293.723243 
L 730.629434 287.582469 
L 731.759847 289.923915 
L 732.89026 288.996172 
L 734.020673 290.54241 
L 735.151085 291.337618 
L 736.281498 293.723243 
L 737.411911 293.723243 
L 738.542324 288.421855 
L 739.672736 291.425975 
L 740.803149 289.217063 
L 741.933562 290.719123 
L 743.063975 291.514331 
L 744.194387 293.723243 
L 745.3248 293.723243 
L 746.455213 287.847538 
L 747.585626 291.867757 
L 748.716038 291.028371 
L 749.846451 291.646866 
L 750.976864 291.514331 
L 752.107277 293.723243 
L 753.23769 293.723243 
L 754.368102 289.526311 
L 755.498515 289.79138 
L 757.759341 290.940014 
L 758.889753 290.763301 
L 760.020166 293.723243 
L 761.150579 293.723243 
L 762.280992 287.317399 
L 763.411404 289.923915 
L 764.541817 289.482133 
L 765.67223 287.980073 
L 766.802643 290.409875 
L 767.933055 293.723243 
L 769.063468 293.723243 
L 770.193881 286.875617 
L 771.324294 289.835558 
L 772.454706 287.361577 
L 773.585119 290.321519 
L 774.715532 288.377677 
L 775.845945 293.723243 
L 776.976358 293.723243 
L 778.10677 287.405756 
L 779.237183 288.731103 
L 780.367596 289.437954 
L 781.498009 289.968093 
L 782.628421 289.658846 
L 783.758834 293.723243 
L 784.889247 293.723243 
L 786.01966 286.389656 
L 787.150072 289.482133 
L 788.280485 289.217063 
L 789.410898 289.217063 
L 790.541311 289.703024 
L 791.671723 293.723243 
L 792.802136 293.723243 
L 793.932549 287.05233 
L 795.062962 289.261241 
L 796.193375 288.819459 
L 797.323787 287.715003 
L 798.4542 290.454054 
L 799.584613 293.723243 
L 800.715026 293.723243 
L 801.845438 286.3013 
L 802.975851 290.719123 
L 804.106264 287.891716 
L 805.236677 289.79138 
L 806.367089 288.996172 
L 807.497502 293.723243 
L 808.627915 293.723243 
L 809.758328 285.108488 
L 810.88874 289.349598 
L 812.019153 286.610547 
L 813.149566 286.654726 
L 815.410391 293.723243 
L 816.540804 293.723243 
L 817.671217 285.859518 
L 818.80163 289.128707 
L 819.932043 286.522191 
L 821.062455 286.433835 
L 822.192868 289.658846 
L 823.323281 293.723243 
L 824.453694 293.723243 
L 825.584106 282.148546 
L 826.714519 289.172885 
L 827.844932 282.855398 
L 828.975345 287.935894 
L 830.105757 287.494112 
L 831.23617 293.723243 
L 833.496996 293.723243 
L 834.627408 270.706384 
L 835.757821 283.164645 
L 836.888234 287.626647 
L 838.018647 285.682805 
L 839.149059 293.723243 
L 841.409885 293.723243 
L 842.540298 275.654346 
L 843.670711 289.393776 
L 844.801123 274.594068 
L 847.061949 293.723243 
L 848.192362 293.723243 
L 849.322774 273.754682 
L 850.453187 285.55027 
L 851.5836 278.393396 
L 852.714013 282.987932 
L 853.844425 285.815339 
L 854.974838 293.723243 
L 856.105251 293.723243 
L 857.235664 272.075909 
L 858.366076 288.068429 
L 859.496489 271.855018 
L 860.626902 280.513951 
L 861.757315 280.469773 
L 862.887728 293.723243 
L 864.01814 293.723243 
L 865.148553 263.81458 
L 866.278966 286.698904 
L 867.409379 269.160146 
L 868.539791 275.124207 
L 869.670204 278.923535 
L 870.800617 293.723243 
L 871.93103 293.723243 
L 873.061442 253.874477 
L 874.191855 286.168765 
L 875.322268 267.878977 
L 876.452681 268.54165 
L 877.583093 274.373177 
L 878.713506 293.723243 
L 879.843919 293.723243 
L 880.974332 252.416596 
L 882.104744 284.931775 
L 883.235157 264.30054 
L 884.36557 272.252622 
L 885.495983 277.421475 
L 886.626396 293.723243 
L 887.756808 293.723243 
L 888.887221 255.244003 
L 890.017634 284.401636 
L 891.148047 262.31252 
L 893.408872 278.30504 
L 894.539285 293.723243 
L 895.669698 293.723243 
L 896.80011 253.035091 
L 897.930523 283.606428 
L 899.060936 267.216304 
L 900.191349 268.011512 
L 901.321761 269.734463 
L 902.452174 293.723243 
L 903.582587 293.723243 
L 904.713 261.29642 
L 905.843412 272.252622 
L 906.973825 247.203564 
L 908.104238 239.384017 
L 909.234651 237.175106 
L 910.365064 293.723243 
L 911.495476 293.723243 
L 912.625889 223.391497 
L 913.756302 254.978933 
L 914.886715 199.57943 
L 916.017127 208.370898 
L 917.14754 209.56371 
L 918.277953 293.723243 
L 919.408366 293.723243 
L 920.538778 124.255544 
L 921.669191 251.223783 
L 922.799604 208.724324 
L 923.930017 191.58317 
L 925.060429 200.81642 
L 926.190842 293.723243 
L 927.321255 293.723243 
L 928.451668 98.234565 
L 929.582081 235.098729 
L 930.712493 180.980394 
L 931.842906 158.09607 
L 932.973319 167.550211 
L 934.103732 293.723243 
L 935.234144 293.723243 
L 936.364557 50.8755 
L 937.49497 218.001753 
L 938.625383 157.963535 
L 939.755795 159.907377 
L 940.886208 180.980394 
L 942.016621 293.723243 
L 943.147034 293.723243 
L 944.277446 92.712286 
L 945.407859 229.532271 
L 946.538272 181.157107 
L 947.668685 205.631848 
L 948.799097 206.338699 
L 949.92951 293.723243 
L 951.059923 293.723243 
L 952.190336 159.863199 
L 953.320749 244.597049 
L 954.451161 233.994273 
L 955.581574 247.336099 
L 956.711987 253.211804 
L 957.8424 293.723243 
L 958.972812 293.723243 
L 960.103225 230.239123 
L 961.233638 269.336859 
L 962.364051 259.750182 
L 963.494463 269.027611 
L 964.624876 265.625887 
L 965.755289 293.723243 
L 966.885702 293.723243 
L 968.016114 243.580949 
L 969.146527 258.469014 
L 970.27694 246.408356 
L 971.407353 257.541271 
L 972.537765 262.445054 
L 973.668178 293.723243 
L 974.798591 293.723243 
L 975.929004 237.440175 
L 977.059417 266.111848 
L 978.189829 246.894317 
L 979.320242 256.392637 
L 980.450655 264.874857 
L 981.581068 293.723243 
L 982.71148 293.723243 
L 983.841893 222.552111 
L 984.972306 259.396756 
L 986.102719 245.922396 
L 987.233131 241.769642 
L 988.363544 251.400496 
L 989.493957 293.723243 
L 990.62437 293.723243 
L 991.754782 206.471234 
L 992.885195 253.653586 
L 994.015608 229.664806 
L 995.146021 231.652827 
L 996.276434 227.411716 
L 997.406846 293.723243 
L 998.537259 293.723243 
L 999.667672 182.57081 
L 1000.798085 255.774141 
L 1001.928497 236.998393 
L 1003.05891 197.282162 
L 1004.189323 197.458875 
L 1005.319736 293.723243 
L 1006.450148 293.723243 
L 1007.580561 158.670387 
L 1008.710974 244.685405 
L 1009.841387 218.222644 
L 1010.971799 217.206545 
L 1012.102212 243.006632 
L 1013.232625 293.723243 
L 1014.363038 293.723243 
L 1015.49345 187.209525 
L 1016.623863 265.272461 
L 1017.754276 226.528152 
L 1018.884689 238.544631 
L 1020.015102 255.641607 
L 1021.145514 293.723243 
L 1022.275927 293.723243 
L 1023.40634 209.961314 
L 1024.536753 259.396756 
L 1025.667165 241.195325 
L 1026.797578 293.369817 
L 1027.927991 215.306881 
L 1029.058404 293.723243 
L 1031.319229 293.723243 
L 1032.449642 219.503813 
L 1033.580055 263.770401 
L 1034.710467 228.869598 
L 1035.84088 257.099488 
L 1036.971293 293.723243 
L 1038.101706 293.723243 
L 1039.232118 235.849759 
L 1040.362531 267.746442 
L 1041.492944 257.408736 
L 1042.623357 268.895076 
L 1043.75377 266.862878 
L 1044.884182 293.723243 
L 1046.014595 293.723243 
L 1047.145008 246.850138 
L 1048.275421 275.256742 
L 1049.405833 258.513192 
L 1050.536246 269.734463 
L 1051.666659 272.2968 
L 1052.797072 293.723243 
L 1053.927484 270.485493 
L 1055.057897 272.56187 
L 1056.18831 293.148926 
L 1057.318723 293.016391 
L 1058.449135 271.369057 
L 1059.579548 255.332359 
L 1060.709961 266.641986 
L 1062.970787 282.855398 
L 1064.101199 293.016391 
L 1065.231612 274.461534 
L 1066.362025 274.638247 
L 1067.492438 279.100248 
L 1068.62285 282.192724 
L 1069.753263 283.253002 
L 1070.883676 286.257122 
L 1072.014089 293.148926 
L 1073.144501 282.192724 
L 1074.274914 283.341358 
L 1075.405327 282.899576 
L 1076.53574 292.088648 
L 1077.666152 283.959854 
L 1078.796565 286.654726 
L 1079.926978 293.060569 
L 1081.057391 278.525931 
L 1082.187803 275.035851 
L 1083.318216 281.79512 
L 1084.448629 293.723243 
L 1085.579042 293.723243 
L 1086.709455 278.393396 
L 1087.839867 293.723243 
L 1088.97028 266.332739 
L 1090.100693 208.282542 
L 1091.231106 293.723243 
L 1094.622344 293.723243 
L 1095.752757 257.497092 
L 1096.883169 266.111848 
L 1098.013582 255.950854 
L 1099.143995 263.151906 
L 1100.274408 293.723243 
L 1101.40482 293.723243 
L 1103.665646 240.31176 
L 1104.796059 257.276201 
L 1105.926471 251.135427 
L 1107.056884 293.723243 
L 1110.448123 293.723243 
L 1111.578535 174.618729 
L 1112.708948 205.190065 
L 1113.839361 284.004032 
L 1114.969774 241.416216 
L 1116.100186 293.723243 
L 1117.230599 293.723243 
L 1118.361012 260.501212 
L 1119.491425 223.877458 
L 1120.621837 258.248122 
L 1121.75225 232.801461 
L 1122.882663 247.601168 
L 1124.013076 293.723243 
L 1125.143488 293.723243 
L 1126.273901 253.123447 
L 1127.404314 228.737063 
L 1128.534727 254.80222 
L 1129.66514 237.351818 
L 1130.795552 256.834419 
L 1131.925965 293.723243 
L 1133.056378 293.723243 
L 1135.317203 240.002512 
L 1136.447616 269.955354 
L 1137.578029 245.701504 
L 1139.838854 293.723243 
L 1140.969267 293.723243 
L 1142.09968 268.497472 
L 1143.230093 256.56935 
L 1144.360505 278.614287 
L 1145.490918 268.630007 
L 1146.621331 275.477633 
L 1147.751744 293.723243 
L 1150.012569 293.723243 
L 1151.142982 263.81458 
L 1152.273395 281.132447 
L 1153.403808 280.779021 
L 1154.53422 284.269101 
L 1155.664633 293.723243 
L 1156.795046 240.267582 
L 1157.925459 293.723243 
L 1166.968761 293.723243 
L 1168.099173 284.269101 
L 1169.229586 284.887596 
L 1170.359999 284.578349 
L 1171.490412 293.723243 
L 1172.620824 293.723243 
L 1173.751237 287.670825 
L 1174.88165 285.152666 
L 1176.012063 286.566369 
L 1177.142476 287.405756 
L 1178.272888 289.261241 
L 1179.403301 293.723243 
L 1181.664127 293.723243 
L 1182.794539 277.333119 
L 1183.924952 286.345478 
L 1185.055365 287.494112 
L 1186.185778 287.891716 
L 1187.31619 224.893557 
L 1188.446603 293.723243 
L 1200.881144 293.723243 
L 1202.011556 290.940014 
L 1203.141969 293.723243 
L 1204.272382 293.723243 
L 1206.533207 280.513951 
L 1207.66362 283.915675 
L 1208.794033 282.81122 
L 1209.924446 284.975953 
L 1211.054858 293.723243 
L 1212.185271 293.723243 
L 1213.315684 282.987932 
L 1214.446097 276.493732 
L 1215.576509 272.473513 
L 1216.706922 274.505712 
L 1217.837335 277.023871 
L 1218.967748 293.723243 
L 1221.228573 293.723243 
L 1222.358986 248.219664 
L 1223.489399 275.477633 
L 1224.619812 225.158626 
L 1225.750224 293.723243 
L 1228.01105 293.723243 
L 1229.141463 285.859518 
L 1230.271875 255.685785 
L 1231.402288 275.919415 
L 1232.532701 260.766282 
L 1233.663114 257.673805 
L 1234.793526 293.723243 
L 1235.923939 293.723243 
L 1237.054352 290.277341 
L 1238.184765 257.850518 
L 1239.315177 277.156406 
L 1240.44559 263.107728 
L 1241.576003 276.758802 
L 1242.706416 293.723243 
L 1243.836829 293.723243 
L 1244.967241 278.835179 
L 1246.097654 267.437195 
L 1247.228067 279.497852 
L 1248.35848 275.698524 
L 1249.488892 281.79512 
L 1250.619305 293.723243 
L 1251.749718 293.723243 
L 1252.880131 285.329379 
L 1254.010543 293.723243 
L 1255.140956 293.723243 
L 1256.271369 265.139927 
L 1257.401782 286.78726 
L 1258.532194 293.723243 
L 1259.662607 293.723243 
L 1260.79302 285.373557 
L 1261.923433 282.678685 
L 1263.053846 288.996172 
L 1264.184258 293.723243 
L 1267.575497 293.723243 
L 1268.705909 268.099868 
L 1269.836322 283.738962 
L 1270.966735 285.815339 
L 1272.097148 284.269101 
L 1273.22756 285.241022 
L 1274.357973 293.723243 
L 1275.488386 293.723243 
L 1276.618799 284.843418 
L 1277.749211 281.750942 
L 1278.879624 282.236902 
L 1281.14045 284.445814 
L 1282.270862 293.723243 
L 1283.401275 293.723243 
L 1284.531688 284.710883 
L 1285.662101 282.413615 
L 1286.792514 282.943754 
L 1287.922926 282.855398 
L 1289.053339 284.843418 
L 1290.183752 293.723243 
L 1291.314165 293.723243 
L 1292.444577 283.429715 
L 1293.57499 280.911556 
L 1294.705403 282.767041 
L 1295.835816 284.313279 
L 1296.966228 280.55813 
L 1298.096641 293.723243 
L 1299.227054 293.723243 
L 1301.487879 273.710504 
L 1302.618292 285.815339 
L 1303.748705 276.670445 
L 1304.879118 282.767041 
L 1306.00953 293.723243 
L 1307.139943 293.723243 
L 1308.270356 282.678685 
L 1309.400769 276.007772 
L 1310.531182 279.674565 
L 1310.531182 279.674565 
" clip-path="url(#pfd2ea15e4d)" style="fill: none; stroke: #0000ff; stroke-width: 1.5; stroke-linecap: square"/>
   </g>
   <g id="line2d_19">
    <path d="M 1070.883676 283.089898 
L 1072.014089 294.755322 
L 1073.144501 282.732379 
L 1074.274914 280.767807 
L 1075.405327 281.882567 
L 1076.53574 285.653829 
L 1077.666152 287.267249 
L 1078.796565 290.426449 
L 1079.926978 296.784828 
L 1081.057391 287.21232 
L 1082.187803 286.49564 
L 1083.318216 285.190234 
L 1084.448629 290.705333 
L 1085.579042 284.385885 
L 1086.709455 286.459445 
L 1087.839867 292.127817 
L 1088.97028 281.692224 
L 1090.100693 278.820482 
L 1091.231106 279.165362 
L 1092.361518 285.429951 
L 1093.491931 279.797336 
L 1094.622344 268.068395 
L 1095.752757 284.081147 
L 1096.883169 265.65277 
L 1098.013582 228.036375 
L 1099.143995 285.448537 
L 1100.274408 284.778999 
L 1101.40482 286.650916 
L 1102.535233 286.111513 
L 1103.665646 262.087048 
L 1104.796059 264.021438 
L 1105.926471 248.801058 
L 1107.056884 260.361022 
L 1108.187297 280.859896 
L 1109.31771 283.100869 
L 1110.448123 268.875709 
L 1111.578535 251.626327 
L 1112.708948 261.480624 
L 1113.839361 251.739226 
L 1114.969774 277.601896 
L 1116.100186 271.72865 
L 1117.230599 271.962158 
L 1118.361012 272.405143 
L 1119.491425 189.339868 
L 1120.621837 215.552876 
L 1121.75225 269.623345 
L 1122.882663 247.691392 
L 1124.013076 286.51975 
L 1125.143488 286.182742 
L 1126.273901 260.632848 
L 1127.404314 223.396888 
L 1128.534727 251.311499 
L 1129.66514 243.392751 
L 1130.795552 248.617144 
L 1131.925965 285.860078 
L 1133.056378 286.268791 
L 1134.186791 256.271985 
L 1135.317203 235.431057 
L 1136.447616 258.543892 
L 1137.578029 247.096069 
L 1138.708442 261.939971 
L 1139.838854 293.536991 
L 1140.969267 294.23918 
L 1142.09968 270.972377 
L 1143.230093 250.099613 
L 1144.360505 273.573692 
L 1145.490918 255.537119 
L 1146.621331 274.81908 
L 1147.751744 297.175429 
L 1148.882156 298.095854 
L 1150.012569 277.766629 
L 1151.142982 266.164173 
L 1152.273395 284.594816 
L 1153.403808 275.601422 
L 1154.53422 284.324922 
L 1155.664633 299.382596 
L 1156.795046 299.168094 
L 1157.925459 293.490024 
L 1159.055871 269.235497 
L 1160.186284 280.470131 
L 1161.316697 276.600128 
L 1162.44711 284.69369 
L 1163.577522 297.53398 
L 1164.707935 263.579647 
L 1165.838348 300.198396 
L 1166.968761 297.060164 
L 1168.099173 300.723306 
L 1169.229586 301.082472 
L 1170.359999 299.114705 
L 1171.490412 298.038272 
L 1172.620824 289.4082 
L 1173.751237 293.964559 
L 1174.88165 292.634903 
L 1176.012063 286.814704 
L 1177.142476 286.903265 
L 1178.272888 285.790128 
L 1179.403301 291.862944 
L 1180.533714 291.321537 
L 1181.664127 288.860036 
L 1182.794539 287.662742 
L 1183.924952 287.505373 
L 1186.185778 288.764693 
L 1187.31619 291.8914 
L 1189.577016 286.422694 
L 1190.707429 271.216248 
L 1191.837841 274.595616 
L 1192.968254 279.608058 
L 1194.098667 283.839931 
L 1195.22908 246.125138 
L 1196.359493 295.032989 
L 1197.489905 297.420594 
L 1198.620318 298.663209 
L 1199.750731 301.83171 
L 1200.881144 299.842241 
L 1202.011556 298.431212 
L 1203.141969 290.282323 
L 1204.272382 297.334386 
L 1205.402795 296.667338 
L 1206.533207 295.810606 
L 1207.66362 295.22345 
L 1208.794033 293.352444 
L 1209.924446 289.140008 
L 1211.054858 287.824573 
L 1212.185271 288.359708 
L 1214.446097 280.154737 
L 1215.576509 283.107494 
L 1216.706922 281.905964 
L 1217.837335 281.796179 
L 1218.967748 286.2682 
L 1220.098161 285.629521 
L 1221.228573 277.988682 
L 1222.358986 274.348602 
L 1223.489399 272.752866 
L 1224.619812 274.491321 
L 1225.750224 273.316582 
L 1226.880637 282.514764 
L 1228.01105 281.167194 
L 1229.141463 279.389532 
L 1230.271875 252.469445 
L 1231.402288 271.817716 
L 1232.532701 239.688949 
L 1233.663114 286.322927 
L 1234.793526 288.249068 
L 1235.923939 289.049449 
L 1237.054352 283.254636 
L 1238.184765 256.544821 
L 1239.315177 274.430956 
L 1240.44559 259.879208 
L 1241.576003 266.211683 
L 1242.706416 290.843742 
L 1243.836829 291.633339 
L 1244.967241 289.482685 
L 1246.097654 264.151625 
L 1247.228067 279.447922 
L 1248.35848 266.85203 
L 1249.488892 276.729771 
L 1250.619305 293.088413 
L 1251.749718 293.923183 
L 1252.880131 284.381466 
L 1254.010543 272.568228 
L 1255.140956 283.891686 
L 1256.271369 280.505159 
L 1257.401782 287.490321 
L 1258.532194 299.333861 
L 1259.662607 298.057714 
L 1260.79302 288.91383 
L 1261.923433 292.053193 
L 1263.053846 292.992776 
L 1264.184258 272.504033 
L 1265.314671 287.750266 
L 1266.445084 294.413085 
L 1267.575497 296.061467 
L 1268.705909 291.044797 
L 1269.836322 288.612643 
L 1270.966735 291.465859 
L 1272.097148 289.122643 
L 1274.357973 290.494657 
L 1275.488386 290.131843 
L 1276.618799 271.865417 
L 1277.749211 282.692219 
L 1278.879624 285.845142 
L 1280.010037 285.643178 
L 1281.14045 287.079611 
L 1282.270862 291.985658 
L 1283.401275 291.504484 
L 1284.531688 282.530348 
L 1285.662101 282.482609 
L 1286.792514 283.577026 
L 1289.053339 285.203377 
L 1290.183752 292.122491 
L 1291.314165 292.028932 
L 1292.444577 284.590814 
L 1293.57499 283.171635 
L 1294.705403 283.737081 
L 1295.835816 283.630524 
L 1296.966228 284.803536 
L 1298.096641 291.551053 
L 1299.227054 291.555416 
L 1300.357467 283.453192 
L 1301.487879 281.480569 
L 1302.618292 282.851816 
L 1303.748705 283.846672 
L 1304.879118 280.840286 
L 1306.00953 290.258002 
L 1307.139943 290.379258 
L 1308.270356 282.313429 
L 1309.400769 276.053258 
L 1310.531182 284.711237 
L 1310.531182 284.711237 
" clip-path="url(#pfd2ea15e4d)" style="fill: none; stroke: #ffa500; stroke-width: 1.5; stroke-linecap: square"/>
   </g>
   <g id="line2d_20">
    <path d="M 1311.661594 278.755786 
L 1312.792007 282.098528 
L 1313.92242 290.65275 
L 1315.052833 290.367185 
L 1316.183245 281.848171 
L 1317.313658 276.312628 
L 1318.444071 280.126887 
L 1319.574484 278.501024 
L 1320.704896 281.332838 
L 1321.835309 288.510265 
L 1322.965722 288.322159 
L 1324.096135 281.215283 
L 1325.226547 276.605824 
L 1326.35696 279.77813 
" clip-path="url(#pfd2ea15e4d)" style="fill: none; stroke: #ff0000; stroke-width: 1.5; stroke-linecap: square"/>
   </g>
   <g id="patch_3">
    <path d="M 48.029688 368.3955 
L 48.029688 35.7555 
" style="fill: none; stroke: #000000; stroke-width: 0.8; stroke-linejoin: miter; stroke-linecap: square"/>
   </g>
   <g id="patch_4">
    <path d="M 1387.229688 368.3955 
L 1387.229688 35.7555 
" style="fill: none; stroke: #000000; stroke-width: 0.8; stroke-linejoin: miter; stroke-linecap: square"/>
   </g>
   <g id="patch_5">
    <path d="M 48.029687 368.3955 
L 1387.229687 368.3955 
" style="fill: none; stroke: #000000; stroke-width: 0.8; stroke-linejoin: miter; stroke-linecap: square"/>
   </g>
   <g id="patch_6">
    <path d="M 48.029687 35.7555 
L 1387.229687 35.7555 
" style="fill: none; stroke: #000000; stroke-width: 0.8; stroke-linejoin: miter; stroke-linecap: square"/>
   </g>
   <g id="text_18">
    <!-- Daily Confirmed Cases Forecasting - Luxembourg -->
    <g transform="translate(569.735313 16.318125)scale(0.12 -0.12)">
     <defs>
      <path id="DejaVuSans-44" d="M 1259 4147 
L 1259 519 
L 2022 519 
Q 2988 519 3436 956 
Q 3884 1394 3884 2338 
Q 3884 3275 3436 3711 
Q 2988 4147 2022 4147 
L 1259 4147 
z
M 628 4666 
L 1925 4666 
Q 3281 4666 3915 4102 
Q 4550 3538 4550 2338 
Q 4550 1131 3912 565 
Q 3275 0 1925 0 
L 628 0 
L 628 4666 
z
" transform="scale(0.015625)"/>
      <path id="DejaVuSans-61" d="M 2194 1759 
Q 1497 1759 1228 1600 
Q 959 1441 959 1056 
Q 959 750 1161 570 
Q 1363 391 1709 391 
Q 2188 391 2477 730 
Q 2766 1069 2766 1631 
L 2766 1759 
L 2194 1759 
z
M 3341 1997 
L 3341 0 
L 2766 0 
L 2766 531 
Q 2569 213 2275 61 
Q 1981 -91 1556 -91 
Q 1019 -91 701 211 
Q 384 513 384 1019 
Q 384 1609 779 1909 
Q 1175 2209 1959 2209 
L 2766 2209 
L 2766 2266 
Q 2766 2663 2505 2880 
Q 2244 3097 1772 3097 
Q 1472 3097 1187 3025 
Q 903 2953 641 2809 
L 641 3341 
Q 956 3463 1253 3523 
Q 1550 3584 1831 3584 
Q 2591 3584 2966 3190 
Q 3341 2797 3341 1997 
z
" transform="scale(0.015625)"/>
      <path id="DejaVuSans-69" d="M 603 3500 
L 1178 3500 
L 1178 0 
L 603 0 
L 603 3500 
z
M 603 4863 
L 1178 4863 
L 1178 4134 
L 603 4134 
L 603 4863 
z
" transform="scale(0.015625)"/>
      <path id="DejaVuSans-6c" d="M 603 4863 
L 1178 4863 
L 1178 0 
L 603 0 
L 603 4863 
z
" transform="scale(0.015625)"/>
      <path id="DejaVuSans-79" d="M 2059 -325 
Q 1816 -950 1584 -1140 
Q 1353 -1331 966 -1331 
L 506 -1331 
L 506 -850 
L 844 -850 
Q 1081 -850 1212 -737 
Q 1344 -625 1503 -206 
L 1606 56 
L 191 3500 
L 800 3500 
L 1894 763 
L 2988 3500 
L 3597 3500 
L 2059 -325 
z
" transform="scale(0.015625)"/>
      <path id="DejaVuSans-20" transform="scale(0.015625)"/>
      <path id="DejaVuSans-43" d="M 4122 4306 
L 4122 3641 
Q 3803 3938 3442 4084 
Q 3081 4231 2675 4231 
Q 1875 4231 1450 3742 
Q 1025 3253 1025 2328 
Q 1025 1406 1450 917 
Q 1875 428 2675 428 
Q 3081 428 3442 575 
Q 3803 722 4122 1019 
L 4122 359 
Q 3791 134 3420 21 
Q 3050 -91 2638 -91 
Q 1578 -91 968 557 
Q 359 1206 359 2328 
Q 359 3453 968 4101 
Q 1578 4750 2638 4750 
Q 3056 4750 3426 4639 
Q 3797 4528 4122 4306 
z
" transform="scale(0.015625)"/>
      <path id="DejaVuSans-6f" d="M 1959 3097 
Q 1497 3097 1228 2736 
Q 959 2375 959 1747 
Q 959 1119 1226 758 
Q 1494 397 1959 397 
Q 2419 397 2687 759 
Q 2956 1122 2956 1747 
Q 2956 2369 2687 2733 
Q 2419 3097 1959 3097 
z
M 1959 3584 
Q 2709 3584 3137 3096 
Q 3566 2609 3566 1747 
Q 3566 888 3137 398 
Q 2709 -91 1959 -91 
Q 1206 -91 779 398 
Q 353 888 353 1747 
Q 353 2609 779 3096 
Q 1206 3584 1959 3584 
z
" transform="scale(0.015625)"/>
      <path id="DejaVuSans-6e" d="M 3513 2113 
L 3513 0 
L 2938 0 
L 2938 2094 
Q 2938 2591 2744 2837 
Q 2550 3084 2163 3084 
Q 1697 3084 1428 2787 
Q 1159 2491 1159 1978 
L 1159 0 
L 581 0 
L 581 3500 
L 1159 3500 
L 1159 2956 
Q 1366 3272 1645 3428 
Q 1925 3584 2291 3584 
Q 2894 3584 3203 3211 
Q 3513 2838 3513 2113 
z
" transform="scale(0.015625)"/>
      <path id="DejaVuSans-66" d="M 2375 4863 
L 2375 4384 
L 1825 4384 
Q 1516 4384 1395 4259 
Q 1275 4134 1275 3809 
L 1275 3500 
L 2222 3500 
L 2222 3053 
L 1275 3053 
L 1275 0 
L 697 0 
L 697 3053 
L 147 3053 
L 147 3500 
L 697 3500 
L 697 3744 
Q 697 4328 969 4595 
Q 1241 4863 1831 4863 
L 2375 4863 
z
" transform="scale(0.015625)"/>
      <path id="DejaVuSans-72" d="M 2631 2963 
Q 2534 3019 2420 3045 
Q 2306 3072 2169 3072 
Q 1681 3072 1420 2755 
Q 1159 2438 1159 1844 
L 1159 0 
L 581 0 
L 581 3500 
L 1159 3500 
L 1159 2956 
Q 1341 3275 1631 3429 
Q 1922 3584 2338 3584 
Q 2397 3584 2469 3576 
Q 2541 3569 2628 3553 
L 2631 2963 
z
" transform="scale(0.015625)"/>
      <path id="DejaVuSans-6d" d="M 3328 2828 
Q 3544 3216 3844 3400 
Q 4144 3584 4550 3584 
Q 5097 3584 5394 3201 
Q 5691 2819 5691 2113 
L 5691 0 
L 5113 0 
L 5113 2094 
Q 5113 2597 4934 2840 
Q 4756 3084 4391 3084 
Q 3944 3084 3684 2787 
Q 3425 2491 3425 1978 
L 3425 0 
L 2847 0 
L 2847 2094 
Q 2847 2600 2669 2842 
Q 2491 3084 2119 3084 
Q 1678 3084 1418 2786 
Q 1159 2488 1159 1978 
L 1159 0 
L 581 0 
L 581 3500 
L 1159 3500 
L 1159 2956 
Q 1356 3278 1631 3431 
Q 1906 3584 2284 3584 
Q 2666 3584 2933 3390 
Q 3200 3197 3328 2828 
z
" transform="scale(0.015625)"/>
      <path id="DejaVuSans-65" d="M 3597 1894 
L 3597 1613 
L 953 1613 
Q 991 1019 1311 708 
Q 1631 397 2203 397 
Q 2534 397 2845 478 
Q 3156 559 3463 722 
L 3463 178 
Q 3153 47 2828 -22 
Q 2503 -91 2169 -91 
Q 1331 -91 842 396 
Q 353 884 353 1716 
Q 353 2575 817 3079 
Q 1281 3584 2069 3584 
Q 2775 3584 3186 3129 
Q 3597 2675 3597 1894 
z
M 3022 2063 
Q 3016 2534 2758 2815 
Q 2500 3097 2075 3097 
Q 1594 3097 1305 2825 
Q 1016 2553 972 2059 
L 3022 2063 
z
" transform="scale(0.015625)"/>
      <path id="DejaVuSans-64" d="M 2906 2969 
L 2906 4863 
L 3481 4863 
L 3481 0 
L 2906 0 
L 2906 525 
Q 2725 213 2448 61 
Q 2172 -91 1784 -91 
Q 1150 -91 751 415 
Q 353 922 353 1747 
Q 353 2572 751 3078 
Q 1150 3584 1784 3584 
Q 2172 3584 2448 3432 
Q 2725 3281 2906 2969 
z
M 947 1747 
Q 947 1113 1208 752 
Q 1469 391 1925 391 
Q 2381 391 2643 752 
Q 2906 1113 2906 1747 
Q 2906 2381 2643 2742 
Q 2381 3103 1925 3103 
Q 1469 3103 1208 2742 
Q 947 2381 947 1747 
z
" transform="scale(0.015625)"/>
      <path id="DejaVuSans-73" d="M 2834 3397 
L 2834 2853 
Q 2591 2978 2328 3040 
Q 2066 3103 1784 3103 
Q 1356 3103 1142 2972 
Q 928 2841 928 2578 
Q 928 2378 1081 2264 
Q 1234 2150 1697 2047 
L 1894 2003 
Q 2506 1872 2764 1633 
Q 3022 1394 3022 966 
Q 3022 478 2636 193 
Q 2250 -91 1575 -91 
Q 1294 -91 989 -36 
Q 684 19 347 128 
L 347 722 
Q 666 556 975 473 
Q 1284 391 1588 391 
Q 1994 391 2212 530 
Q 2431 669 2431 922 
Q 2431 1156 2273 1281 
Q 2116 1406 1581 1522 
L 1381 1569 
Q 847 1681 609 1914 
Q 372 2147 372 2553 
Q 372 3047 722 3315 
Q 1072 3584 1716 3584 
Q 2034 3584 2315 3537 
Q 2597 3491 2834 3397 
z
" transform="scale(0.015625)"/>
      <path id="DejaVuSans-46" d="M 628 4666 
L 3309 4666 
L 3309 4134 
L 1259 4134 
L 1259 2759 
L 3109 2759 
L 3109 2228 
L 1259 2228 
L 1259 0 
L 628 0 
L 628 4666 
z
" transform="scale(0.015625)"/>
      <path id="DejaVuSans-63" d="M 3122 3366 
L 3122 2828 
Q 2878 2963 2633 3030 
Q 2388 3097 2138 3097 
Q 1578 3097 1268 2742 
Q 959 2388 959 1747 
Q 959 1106 1268 751 
Q 1578 397 2138 397 
Q 2388 397 2633 464 
Q 2878 531 3122 666 
L 3122 134 
Q 2881 22 2623 -34 
Q 2366 -91 2075 -91 
Q 1284 -91 818 406 
Q 353 903 353 1747 
Q 353 2603 823 3093 
Q 1294 3584 2113 3584 
Q 2378 3584 2631 3529 
Q 2884 3475 3122 3366 
z
" transform="scale(0.015625)"/>
      <path id="DejaVuSans-74" d="M 1172 4494 
L 1172 3500 
L 2356 3500 
L 2356 3053 
L 1172 3053 
L 1172 1153 
Q 1172 725 1289 603 
Q 1406 481 1766 481 
L 2356 481 
L 2356 0 
L 1766 0 
Q 1100 0 847 248 
Q 594 497 594 1153 
L 594 3053 
L 172 3053 
L 172 3500 
L 594 3500 
L 594 4494 
L 1172 4494 
z
" transform="scale(0.015625)"/>
      <path id="DejaVuSans-67" d="M 2906 1791 
Q 2906 2416 2648 2759 
Q 2391 3103 1925 3103 
Q 1463 3103 1205 2759 
Q 947 2416 947 1791 
Q 947 1169 1205 825 
Q 1463 481 1925 481 
Q 2391 481 2648 825 
Q 2906 1169 2906 1791 
z
M 3481 434 
Q 3481 -459 3084 -895 
Q 2688 -1331 1869 -1331 
Q 1566 -1331 1297 -1286 
Q 1028 -1241 775 -1147 
L 775 -588 
Q 1028 -725 1275 -790 
Q 1522 -856 1778 -856 
Q 2344 -856 2625 -561 
Q 2906 -266 2906 331 
L 2906 616 
Q 2728 306 2450 153 
Q 2172 0 1784 0 
Q 1141 0 747 490 
Q 353 981 353 1791 
Q 353 2603 747 3093 
Q 1141 3584 1784 3584 
Q 2172 3584 2450 3431 
Q 2728 3278 2906 2969 
L 2906 3500 
L 3481 3500 
L 3481 434 
z
" transform="scale(0.015625)"/>
      <path id="DejaVuSans-4c" d="M 628 4666 
L 1259 4666 
L 1259 531 
L 3531 531 
L 3531 0 
L 628 0 
L 628 4666 
z
" transform="scale(0.015625)"/>
      <path id="DejaVuSans-75" d="M 544 1381 
L 544 3500 
L 1119 3500 
L 1119 1403 
Q 1119 906 1312 657 
Q 1506 409 1894 409 
Q 2359 409 2629 706 
Q 2900 1003 2900 1516 
L 2900 3500 
L 3475 3500 
L 3475 0 
L 2900 0 
L 2900 538 
Q 2691 219 2414 64 
Q 2138 -91 1772 -91 
Q 1169 -91 856 284 
Q 544 659 544 1381 
z
M 1991 3584 
L 1991 3584 
z
" transform="scale(0.015625)"/>
      <path id="DejaVuSans-78" d="M 3513 3500 
L 2247 1797 
L 3578 0 
L 2900 0 
L 1881 1375 
L 863 0 
L 184 0 
L 1544 1831 
L 300 3500 
L 978 3500 
L 1906 2253 
L 2834 3500 
L 3513 3500 
z
" transform="scale(0.015625)"/>
      <path id="DejaVuSans-62" d="M 3116 1747 
Q 3116 2381 2855 2742 
Q 2594 3103 2138 3103 
Q 1681 3103 1420 2742 
Q 1159 2381 1159 1747 
Q 1159 1113 1420 752 
Q 1681 391 2138 391 
Q 2594 391 2855 752 
Q 3116 1113 3116 1747 
z
M 1159 2969 
Q 1341 3281 1617 3432 
Q 1894 3584 2278 3584 
Q 2916 3584 3314 3078 
Q 3713 2572 3713 1747 
Q 3713 922 3314 415 
Q 2916 -91 2278 -91 
Q 1894 -91 1617 61 
Q 1341 213 1159 525 
L 1159 0 
L 581 0 
L 581 4863 
L 1159 4863 
L 1159 2969 
z
" transform="scale(0.015625)"/>
     </defs>
     <use xlink:href="#DejaVuSans-44"/>
     <use xlink:href="#DejaVuSans-61" x="77.001953"/>
     <use xlink:href="#DejaVuSans-69" x="138.28125"/>
     <use xlink:href="#DejaVuSans-6c" x="166.064453"/>
     <use xlink:href="#DejaVuSans-79" x="193.847656"/>
     <use xlink:href="#DejaVuSans-20" x="253.027344"/>
     <use xlink:href="#DejaVuSans-43" x="284.814453"/>
     <use xlink:href="#DejaVuSans-6f" x="354.638672"/>
     <use xlink:href="#DejaVuSans-6e" x="415.820312"/>
     <use xlink:href="#DejaVuSans-66" x="479.199219"/>
     <use xlink:href="#DejaVuSans-69" x="514.404297"/>
     <use xlink:href="#DejaVuSans-72" x="542.1875"/>
     <use xlink:href="#DejaVuSans-6d" x="581.550781"/>
     <use xlink:href="#DejaVuSans-65" x="678.962891"/>
     <use xlink:href="#DejaVuSans-64" x="740.486328"/>
     <use xlink:href="#DejaVuSans-20" x="803.962891"/>
     <use xlink:href="#DejaVuSans-43" x="835.75"/>
     <use xlink:href="#DejaVuSans-61" x="905.574219"/>
     <use xlink:href="#DejaVuSans-73" x="966.853516"/>
     <use xlink:href="#DejaVuSans-65" x="1018.953125"/>
     <use xlink:href="#DejaVuSans-73" x="1080.476562"/>
     <use xlink:href="#DejaVuSans-20" x="1132.576172"/>
     <use xlink:href="#DejaVuSans-46" x="1164.363281"/>
     <use xlink:href="#DejaVuSans-6f" x="1218.257812"/>
     <use xlink:href="#DejaVuSans-72" x="1279.439453"/>
     <use xlink:href="#DejaVuSans-65" x="1318.302734"/>
     <use xlink:href="#DejaVuSans-63" x="1379.826172"/>
     <use xlink:href="#DejaVuSans-61" x="1434.806641"/>
     <use xlink:href="#DejaVuSans-73" x="1496.085938"/>
     <use xlink:href="#DejaVuSans-74" x="1548.185547"/>
     <use xlink:href="#DejaVuSans-69" x="1587.394531"/>
     <use xlink:href="#DejaVuSans-6e" x="1615.177734"/>
     <use xlink:href="#DejaVuSans-67" x="1678.556641"/>
     <use xlink:href="#DejaVuSans-20" x="1742.033203"/>
     <use xlink:href="#DejaVuSans-2d" x="1773.820312"/>
     <use xlink:href="#DejaVuSans-20" x="1809.904297"/>
     <use xlink:href="#DejaVuSans-4c" x="1841.691406"/>
     <use xlink:href="#DejaVuSans-75" x="1895.654297"/>
     <use xlink:href="#DejaVuSans-78" x="1959.033203"/>
     <use xlink:href="#DejaVuSans-65" x="2015.087891"/>
     <use xlink:href="#DejaVuSans-6d" x="2076.611328"/>
     <use xlink:href="#DejaVuSans-62" x="2174.023438"/>
     <use xlink:href="#DejaVuSans-6f" x="2237.5"/>
     <use xlink:href="#DejaVuSans-75" x="2298.681641"/>
     <use xlink:href="#DejaVuSans-72" x="2362.060547"/>
     <use xlink:href="#DejaVuSans-67" x="2401.423828"/>
    </g>
    <!-- ARIMA (3, 1, 1)x(1, 0, 1, 7) (R2 = 0.282994) -->
    <g transform="translate(585.645625 29.7555)scale(0.12 -0.12)">
     <defs>
      <path id="DejaVuSans-41" d="M 2188 4044 
L 1331 1722 
L 3047 1722 
L 2188 4044 
z
M 1831 4666 
L 2547 4666 
L 4325 0 
L 3669 0 
L 3244 1197 
L 1141 1197 
L 716 0 
L 50 0 
L 1831 4666 
z
" transform="scale(0.015625)"/>
      <path id="DejaVuSans-52" d="M 2841 2188 
Q 3044 2119 3236 1894 
Q 3428 1669 3622 1275 
L 4263 0 
L 3584 0 
L 2988 1197 
Q 2756 1666 2539 1819 
Q 2322 1972 1947 1972 
L 1259 1972 
L 1259 0 
L 628 0 
L 628 4666 
L 2053 4666 
Q 2853 4666 3247 4331 
Q 3641 3997 3641 3322 
Q 3641 2881 3436 2590 
Q 3231 2300 2841 2188 
z
M 1259 4147 
L 1259 2491 
L 2053 2491 
Q 2509 2491 2742 2702 
Q 2975 2913 2975 3322 
Q 2975 3731 2742 3939 
Q 2509 4147 2053 4147 
L 1259 4147 
z
" transform="scale(0.015625)"/>
      <path id="DejaVuSans-49" d="M 628 4666 
L 1259 4666 
L 1259 0 
L 628 0 
L 628 4666 
z
" transform="scale(0.015625)"/>
      <path id="DejaVuSans-4d" d="M 628 4666 
L 1569 4666 
L 2759 1491 
L 3956 4666 
L 4897 4666 
L 4897 0 
L 4281 0 
L 4281 4097 
L 3078 897 
L 2444 897 
L 1241 4097 
L 1241 0 
L 628 0 
L 628 4666 
z
" transform="scale(0.015625)"/>
      <path id="DejaVuSans-28" d="M 1984 4856 
Q 1566 4138 1362 3434 
Q 1159 2731 1159 2009 
Q 1159 1288 1364 580 
Q 1569 -128 1984 -844 
L 1484 -844 
Q 1016 -109 783 600 
Q 550 1309 550 2009 
Q 550 2706 781 3412 
Q 1013 4119 1484 4856 
L 1984 4856 
z
" transform="scale(0.015625)"/>
      <path id="DejaVuSans-2c" d="M 750 794 
L 1409 794 
L 1409 256 
L 897 -744 
L 494 -744 
L 750 256 
L 750 794 
z
" transform="scale(0.015625)"/>
      <path id="DejaVuSans-29" d="M 513 4856 
L 1013 4856 
Q 1481 4119 1714 3412 
Q 1947 2706 1947 2009 
Q 1947 1309 1714 600 
Q 1481 -109 1013 -844 
L 513 -844 
Q 928 -128 1133 580 
Q 1338 1288 1338 2009 
Q 1338 2731 1133 3434 
Q 928 4138 513 4856 
z
" transform="scale(0.015625)"/>
      <path id="DejaVuSans-37" d="M 525 4666 
L 3525 4666 
L 3525 4397 
L 1831 0 
L 1172 0 
L 2766 4134 
L 525 4134 
L 525 4666 
z
" transform="scale(0.015625)"/>
      <path id="DejaVuSans-3d" d="M 678 2906 
L 4684 2906 
L 4684 2381 
L 678 2381 
L 678 2906 
z
M 678 1631 
L 4684 1631 
L 4684 1100 
L 678 1100 
L 678 1631 
z
" transform="scale(0.015625)"/>
      <path id="DejaVuSans-2e" d="M 684 794 
L 1344 794 
L 1344 0 
L 684 0 
L 684 794 
z
" transform="scale(0.015625)"/>
      <path id="DejaVuSans-38" d="M 2034 2216 
Q 1584 2216 1326 1975 
Q 1069 1734 1069 1313 
Q 1069 891 1326 650 
Q 1584 409 2034 409 
Q 2484 409 2743 651 
Q 3003 894 3003 1313 
Q 3003 1734 2745 1975 
Q 2488 2216 2034 2216 
z
M 1403 2484 
Q 997 2584 770 2862 
Q 544 3141 544 3541 
Q 544 4100 942 4425 
Q 1341 4750 2034 4750 
Q 2731 4750 3128 4425 
Q 3525 4100 3525 3541 
Q 3525 3141 3298 2862 
Q 3072 2584 2669 2484 
Q 3125 2378 3379 2068 
Q 3634 1759 3634 1313 
Q 3634 634 3220 271 
Q 2806 -91 2034 -91 
Q 1263 -91 848 271 
Q 434 634 434 1313 
Q 434 1759 690 2068 
Q 947 2378 1403 2484 
z
M 1172 3481 
Q 1172 3119 1398 2916 
Q 1625 2713 2034 2713 
Q 2441 2713 2670 2916 
Q 2900 3119 2900 3481 
Q 2900 3844 2670 4047 
Q 2441 4250 2034 4250 
Q 1625 4250 1398 4047 
Q 1172 3844 1172 3481 
z
" transform="scale(0.015625)"/>
     </defs>
     <use xlink:href="#DejaVuSans-41"/>
     <use xlink:href="#DejaVuSans-52" x="68.408203"/>
     <use xlink:href="#DejaVuSans-49" x="137.890625"/>
     <use xlink:href="#DejaVuSans-4d" x="167.382812"/>
     <use xlink:href="#DejaVuSans-41" x="253.662109"/>
     <use xlink:href="#DejaVuSans-20" x="322.070312"/>
     <use xlink:href="#DejaVuSans-28" x="353.857422"/>
     <use xlink:href="#DejaVuSans-33" x="392.871094"/>
     <use xlink:href="#DejaVuSans-2c" x="456.494141"/>
     <use xlink:href="#DejaVuSans-20" x="488.28125"/>
     <use xlink:href="#DejaVuSans-31" x="520.068359"/>
     <use xlink:href="#DejaVuSans-2c" x="583.691406"/>
     <use xlink:href="#DejaVuSans-20" x="615.478516"/>
     <use xlink:href="#DejaVuSans-31" x="647.265625"/>
     <use xlink:href="#DejaVuSans-29" x="710.888672"/>
     <use xlink:href="#DejaVuSans-78" x="749.902344"/>
     <use xlink:href="#DejaVuSans-28" x="809.082031"/>
     <use xlink:href="#DejaVuSans-31" x="848.095703"/>
     <use xlink:href="#DejaVuSans-2c" x="911.71875"/>
     <use xlink:href="#DejaVuSans-20" x="943.505859"/>
     <use xlink:href="#DejaVuSans-30" x="975.292969"/>
     <use xlink:href="#DejaVuSans-2c" x="1038.916016"/>
     <use xlink:href="#DejaVuSans-20" x="1070.703125"/>
     <use xlink:href="#DejaVuSans-31" x="1102.490234"/>
     <use xlink:href="#DejaVuSans-2c" x="1166.113281"/>
     <use xlink:href="#DejaVuSans-20" x="1197.900391"/>
     <use xlink:href="#DejaVuSans-37" x="1229.6875"/>
     <use xlink:href="#DejaVuSans-29" x="1293.310547"/>
     <use xlink:href="#DejaVuSans-20" x="1332.324219"/>
     <use xlink:href="#DejaVuSans-28" x="1364.111328"/>
     <use xlink:href="#DejaVuSans-52" x="1403.125"/>
     <use xlink:href="#DejaVuSans-32" x="1472.607422"/>
     <use xlink:href="#DejaVuSans-20" x="1536.230469"/>
     <use xlink:href="#DejaVuSans-3d" x="1568.017578"/>
     <use xlink:href="#DejaVuSans-20" x="1651.806641"/>
     <use xlink:href="#DejaVuSans-30" x="1683.59375"/>
     <use xlink:href="#DejaVuSans-2e" x="1747.216797"/>
     <use xlink:href="#DejaVuSans-32" x="1779.003906"/>
     <use xlink:href="#DejaVuSans-38" x="1842.626953"/>
     <use xlink:href="#DejaVuSans-32" x="1906.25"/>
     <use xlink:href="#DejaVuSans-39" x="1969.873047"/>
     <use xlink:href="#DejaVuSans-39" x="2033.496094"/>
     <use xlink:href="#DejaVuSans-34" x="2097.119141"/>
     <use xlink:href="#DejaVuSans-29" x="2160.742188"/>
    </g>
   </g>
   <g id="legend_1">
    <g id="patch_7">
     <path d="M 1283.15 87.789875 
L 1380.229688 87.789875 
Q 1382.229688 87.789875 1382.229688 85.789875 
L 1382.229688 42.7555 
Q 1382.229688 40.7555 1380.229688 40.7555 
L 1283.15 40.7555 
Q 1281.15 40.7555 1281.15 42.7555 
L 1281.15 85.789875 
Q 1281.15 87.789875 1283.15 87.789875 
z
" style="fill: #ffffff; opacity: 0.8; stroke: #cccccc; stroke-linejoin: miter"/>
    </g>
    <g id="line2d_21">
     <path d="M 1285.15 48.853937 
L 1295.15 48.853937 
L 1305.15 48.853937 
" style="fill: none; stroke: #0000ff; stroke-width: 1.5; stroke-linecap: square"/>
    </g>
    <g id="text_19">
     <!-- Actual Value -->
     <g transform="translate(1313.15 52.353937)scale(0.1 -0.1)">
      <defs>
       <path id="DejaVuSans-56" d="M 1831 0 
L 50 4666 
L 709 4666 
L 2188 738 
L 3669 4666 
L 4325 4666 
L 2547 0 
L 1831 0 
z
" transform="scale(0.015625)"/>
      </defs>
      <use xlink:href="#DejaVuSans-41"/>
      <use xlink:href="#DejaVuSans-63" x="66.658203"/>
      <use xlink:href="#DejaVuSans-74" x="121.638672"/>
      <use xlink:href="#DejaVuSans-75" x="160.847656"/>
      <use xlink:href="#DejaVuSans-61" x="224.226562"/>
      <use xlink:href="#DejaVuSans-6c" x="285.505859"/>
      <use xlink:href="#DejaVuSans-20" x="313.289062"/>
      <use xlink:href="#DejaVuSans-56" x="345.076172"/>
      <use xlink:href="#DejaVuSans-61" x="405.734375"/>
      <use xlink:href="#DejaVuSans-6c" x="467.013672"/>
      <use xlink:href="#DejaVuSans-75" x="494.796875"/>
      <use xlink:href="#DejaVuSans-65" x="558.175781"/>
     </g>
    </g>
    <g id="line2d_22">
     <path d="M 1285.15 63.532062 
L 1295.15 63.532062 
L 1305.15 63.532062 
" style="fill: none; stroke: #ffa500; stroke-width: 1.5; stroke-linecap: square"/>
    </g>
    <g id="text_20">
     <!-- Check Value -->
     <g transform="translate(1313.15 67.032062)scale(0.1 -0.1)">
      <defs>
       <path id="DejaVuSans-68" d="M 3513 2113 
L 3513 0 
L 2938 0 
L 2938 2094 
Q 2938 2591 2744 2837 
Q 2550 3084 2163 3084 
Q 1697 3084 1428 2787 
Q 1159 2491 1159 1978 
L 1159 0 
L 581 0 
L 581 4863 
L 1159 4863 
L 1159 2956 
Q 1366 3272 1645 3428 
Q 1925 3584 2291 3584 
Q 2894 3584 3203 3211 
Q 3513 2838 3513 2113 
z
" transform="scale(0.015625)"/>
       <path id="DejaVuSans-6b" d="M 581 4863 
L 1159 4863 
L 1159 1991 
L 2875 3500 
L 3609 3500 
L 1753 1863 
L 3688 0 
L 2938 0 
L 1159 1709 
L 1159 0 
L 581 0 
L 581 4863 
z
" transform="scale(0.015625)"/>
      </defs>
      <use xlink:href="#DejaVuSans-43"/>
      <use xlink:href="#DejaVuSans-68" x="69.824219"/>
      <use xlink:href="#DejaVuSans-65" x="133.203125"/>
      <use xlink:href="#DejaVuSans-63" x="194.726562"/>
      <use xlink:href="#DejaVuSans-6b" x="249.707031"/>
      <use xlink:href="#DejaVuSans-20" x="307.617188"/>
      <use xlink:href="#DejaVuSans-56" x="339.404297"/>
      <use xlink:href="#DejaVuSans-61" x="400.0625"/>
      <use xlink:href="#DejaVuSans-6c" x="461.341797"/>
      <use xlink:href="#DejaVuSans-75" x="489.125"/>
      <use xlink:href="#DejaVuSans-65" x="552.503906"/>
     </g>
    </g>
    <g id="line2d_23">
     <path d="M 1285.15 78.210187 
L 1295.15 78.210187 
L 1305.15 78.210187 
" style="fill: none; stroke: #ff0000; stroke-width: 1.5; stroke-linecap: square"/>
    </g>
    <g id="text_21">
     <!-- Predict Value -->
     <g transform="translate(1313.15 81.710187)scale(0.1 -0.1)">
      <defs>
       <path id="DejaVuSans-50" d="M 1259 4147 
L 1259 2394 
L 2053 2394 
Q 2494 2394 2734 2622 
Q 2975 2850 2975 3272 
Q 2975 3691 2734 3919 
Q 2494 4147 2053 4147 
L 1259 4147 
z
M 628 4666 
L 2053 4666 
Q 2838 4666 3239 4311 
Q 3641 3956 3641 3272 
Q 3641 2581 3239 2228 
Q 2838 1875 2053 1875 
L 1259 1875 
L 1259 0 
L 628 0 
L 628 4666 
z
" transform="scale(0.015625)"/>
      </defs>
      <use xlink:href="#DejaVuSans-50"/>
      <use xlink:href="#DejaVuSans-72" x="58.552734"/>
      <use xlink:href="#DejaVuSans-65" x="97.416016"/>
      <use xlink:href="#DejaVuSans-64" x="158.939453"/>
      <use xlink:href="#DejaVuSans-69" x="222.416016"/>
      <use xlink:href="#DejaVuSans-63" x="250.199219"/>
      <use xlink:href="#DejaVuSans-74" x="305.179688"/>
      <use xlink:href="#DejaVuSans-20" x="344.388672"/>
      <use xlink:href="#DejaVuSans-56" x="376.175781"/>
      <use xlink:href="#DejaVuSans-61" x="436.833984"/>
      <use xlink:href="#DejaVuSans-6c" x="498.113281"/>
      <use xlink:href="#DejaVuSans-75" x="525.896484"/>
      <use xlink:href="#DejaVuSans-65" x="589.275391"/>
     </g>
    </g>
   </g>
  </g>
 </g>
 <defs>
  <clipPath id="pfd2ea15e4d">
   <rect x="48.029688" y="35.7555" width="1339.2" height="332.64"/>
  </clipPath>
 </defs>
</svg>
