<?xml version="1.0" encoding="utf-8" standalone="no"?>
<!DOCTYPE svg PUBLIC "-//W3C//DTD SVG 1.1//EN"
  "http://www.w3.org/Graphics/SVG/1.1/DTD/svg11.dtd">
<svg xmlns:xlink="http://www.w3.org/1999/xlink" width="1381.704688pt" height="392.273625pt" viewBox="0 0 1381.704688 392.273625" xmlns="http://www.w3.org/2000/svg" version="1.1">
 <metadata>
  <rdf:RDF xmlns:dc="http://purl.org/dc/elements/1.1/" xmlns:cc="http://creativecommons.org/ns#" xmlns:rdf="http://www.w3.org/1999/02/22-rdf-syntax-ns#">
   <cc:Work>
    <dc:type rdf:resource="http://purl.org/dc/dcmitype/StillImage"/>
    <dc:date>2023-01-03T18:42:04.089202</dc:date>
    <dc:format>image/svg+xml</dc:format>
    <dc:creator>
     <cc:Agent>
      <dc:title>Matplotlib v3.5.1, https://matplotlib.org/</dc:title>
     </cc:Agent>
    </dc:creator>
   </cc:Work>
  </rdf:RDF>
 </metadata>
 <defs>
  <style type="text/css">*{stroke-linejoin: round; stroke-linecap: butt}</style>
 </defs>
 <g id="figure_1">
  <g id="patch_1">
   <path d="M 0 392.273625 
L 1381.704688 392.273625 
L 1381.704688 0 
L 0 0 
z
" style="fill: #ffffff"/>
  </g>
  <g id="axes_1">
   <g id="patch_2">
    <path d="M 35.304688 368.3955 
L 1374.504688 368.3955 
L 1374.504688 35.7555 
L 35.304688 35.7555 
z
" style="fill: #ffffff"/>
   </g>
   <g id="matplotlib.axis_1">
    <g id="xtick_1">
     <g id="line2d_1">
      <defs>
       <path id="mdc958381cd" d="M 0 0 
L 0 3.5 
" style="stroke: #000000; stroke-width: 0.8"/>
      </defs>
      <g>
       <use xlink:href="#mdc958381cd" x="71.582373" y="368.3955" style="stroke: #000000; stroke-width: 0.8"/>
      </g>
     </g>
     <g id="text_1">
      <!-- 2020-01 -->
      <g transform="translate(50.690967 382.993937)scale(0.1 -0.1)">
       <defs>
        <path id="DejaVuSans-32" d="M 1228 531 
L 3431 531 
L 3431 0 
L 469 0 
L 469 531 
Q 828 903 1448 1529 
Q 2069 2156 2228 2338 
Q 2531 2678 2651 2914 
Q 2772 3150 2772 3378 
Q 2772 3750 2511 3984 
Q 2250 4219 1831 4219 
Q 1534 4219 1204 4116 
Q 875 4013 500 3803 
L 500 4441 
Q 881 4594 1212 4672 
Q 1544 4750 1819 4750 
Q 2544 4750 2975 4387 
Q 3406 4025 3406 3419 
Q 3406 3131 3298 2873 
Q 3191 2616 2906 2266 
Q 2828 2175 2409 1742 
Q 1991 1309 1228 531 
z
" transform="scale(0.015625)"/>
        <path id="DejaVuSans-30" d="M 2034 4250 
Q 1547 4250 1301 3770 
Q 1056 3291 1056 2328 
Q 1056 1369 1301 889 
Q 1547 409 2034 409 
Q 2525 409 2770 889 
Q 3016 1369 3016 2328 
Q 3016 3291 2770 3770 
Q 2525 4250 2034 4250 
z
M 2034 4750 
Q 2819 4750 3233 4129 
Q 3647 3509 3647 2328 
Q 3647 1150 3233 529 
Q 2819 -91 2034 -91 
Q 1250 -91 836 529 
Q 422 1150 422 2328 
Q 422 3509 836 4129 
Q 1250 4750 2034 4750 
z
" transform="scale(0.015625)"/>
        <path id="DejaVuSans-2d" d="M 313 2009 
L 1997 2009 
L 1997 1497 
L 313 1497 
L 313 2009 
z
" transform="scale(0.015625)"/>
        <path id="DejaVuSans-31" d="M 794 531 
L 1825 531 
L 1825 4091 
L 703 3866 
L 703 4441 
L 1819 4666 
L 2450 4666 
L 2450 531 
L 3481 531 
L 3481 0 
L 794 0 
L 794 531 
z
" transform="scale(0.015625)"/>
       </defs>
       <use xlink:href="#DejaVuSans-32"/>
       <use xlink:href="#DejaVuSans-30" x="63.623047"/>
       <use xlink:href="#DejaVuSans-32" x="127.246094"/>
       <use xlink:href="#DejaVuSans-30" x="190.869141"/>
       <use xlink:href="#DejaVuSans-2d" x="254.492188"/>
       <use xlink:href="#DejaVuSans-30" x="290.576172"/>
       <use xlink:href="#DejaVuSans-31" x="354.199219"/>
      </g>
     </g>
    </g>
    <g id="xtick_2">
     <g id="line2d_2">
      <g>
       <use xlink:href="#mdc958381cd" x="206.855101" y="368.3955" style="stroke: #000000; stroke-width: 0.8"/>
      </g>
     </g>
     <g id="text_2">
      <!-- 2020-05 -->
      <g transform="translate(185.963694 382.993937)scale(0.1 -0.1)">
       <defs>
        <path id="DejaVuSans-35" d="M 691 4666 
L 3169 4666 
L 3169 4134 
L 1269 4134 
L 1269 2991 
Q 1406 3038 1543 3061 
Q 1681 3084 1819 3084 
Q 2600 3084 3056 2656 
Q 3513 2228 3513 1497 
Q 3513 744 3044 326 
Q 2575 -91 1722 -91 
Q 1428 -91 1123 -41 
Q 819 9 494 109 
L 494 744 
Q 775 591 1075 516 
Q 1375 441 1709 441 
Q 2250 441 2565 725 
Q 2881 1009 2881 1497 
Q 2881 1984 2565 2268 
Q 2250 2553 1709 2553 
Q 1456 2553 1204 2497 
Q 953 2441 691 2322 
L 691 4666 
z
" transform="scale(0.015625)"/>
       </defs>
       <use xlink:href="#DejaVuSans-32"/>
       <use xlink:href="#DejaVuSans-30" x="63.623047"/>
       <use xlink:href="#DejaVuSans-32" x="127.246094"/>
       <use xlink:href="#DejaVuSans-30" x="190.869141"/>
       <use xlink:href="#DejaVuSans-2d" x="254.492188"/>
       <use xlink:href="#DejaVuSans-30" x="290.576172"/>
       <use xlink:href="#DejaVuSans-35" x="354.199219"/>
      </g>
     </g>
    </g>
    <g id="xtick_3">
     <g id="line2d_3">
      <g>
       <use xlink:href="#mdc958381cd" x="344.363741" y="368.3955" style="stroke: #000000; stroke-width: 0.8"/>
      </g>
     </g>
     <g id="text_3">
      <!-- 2020-09 -->
      <g transform="translate(323.472335 382.993937)scale(0.1 -0.1)">
       <defs>
        <path id="DejaVuSans-39" d="M 703 97 
L 703 672 
Q 941 559 1184 500 
Q 1428 441 1663 441 
Q 2288 441 2617 861 
Q 2947 1281 2994 2138 
Q 2813 1869 2534 1725 
Q 2256 1581 1919 1581 
Q 1219 1581 811 2004 
Q 403 2428 403 3163 
Q 403 3881 828 4315 
Q 1253 4750 1959 4750 
Q 2769 4750 3195 4129 
Q 3622 3509 3622 2328 
Q 3622 1225 3098 567 
Q 2575 -91 1691 -91 
Q 1453 -91 1209 -44 
Q 966 3 703 97 
z
M 1959 2075 
Q 2384 2075 2632 2365 
Q 2881 2656 2881 3163 
Q 2881 3666 2632 3958 
Q 2384 4250 1959 4250 
Q 1534 4250 1286 3958 
Q 1038 3666 1038 3163 
Q 1038 2656 1286 2365 
Q 1534 2075 1959 2075 
z
" transform="scale(0.015625)"/>
       </defs>
       <use xlink:href="#DejaVuSans-32"/>
       <use xlink:href="#DejaVuSans-30" x="63.623047"/>
       <use xlink:href="#DejaVuSans-32" x="127.246094"/>
       <use xlink:href="#DejaVuSans-30" x="190.869141"/>
       <use xlink:href="#DejaVuSans-2d" x="254.492188"/>
       <use xlink:href="#DejaVuSans-30" x="290.576172"/>
       <use xlink:href="#DejaVuSans-39" x="354.199219"/>
      </g>
     </g>
    </g>
    <g id="xtick_4">
     <g id="line2d_4">
      <g>
       <use xlink:href="#mdc958381cd" x="480.754425" y="368.3955" style="stroke: #000000; stroke-width: 0.8"/>
      </g>
     </g>
     <g id="text_4">
      <!-- 2021-01 -->
      <g transform="translate(459.863018 382.993937)scale(0.1 -0.1)">
       <use xlink:href="#DejaVuSans-32"/>
       <use xlink:href="#DejaVuSans-30" x="63.623047"/>
       <use xlink:href="#DejaVuSans-32" x="127.246094"/>
       <use xlink:href="#DejaVuSans-31" x="190.869141"/>
       <use xlink:href="#DejaVuSans-2d" x="254.492188"/>
       <use xlink:href="#DejaVuSans-30" x="290.576172"/>
       <use xlink:href="#DejaVuSans-31" x="354.199219"/>
      </g>
     </g>
    </g>
    <g id="xtick_5">
     <g id="line2d_5">
      <g>
       <use xlink:href="#mdc958381cd" x="614.909195" y="368.3955" style="stroke: #000000; stroke-width: 0.8"/>
      </g>
     </g>
     <g id="text_5">
      <!-- 2021-05 -->
      <g transform="translate(594.017789 382.993937)scale(0.1 -0.1)">
       <use xlink:href="#DejaVuSans-32"/>
       <use xlink:href="#DejaVuSans-30" x="63.623047"/>
       <use xlink:href="#DejaVuSans-32" x="127.246094"/>
       <use xlink:href="#DejaVuSans-31" x="190.869141"/>
       <use xlink:href="#DejaVuSans-2d" x="254.492188"/>
       <use xlink:href="#DejaVuSans-30" x="290.576172"/>
       <use xlink:href="#DejaVuSans-35" x="354.199219"/>
      </g>
     </g>
    </g>
    <g id="xtick_6">
     <g id="line2d_6">
      <g>
       <use xlink:href="#mdc958381cd" x="752.417836" y="368.3955" style="stroke: #000000; stroke-width: 0.8"/>
      </g>
     </g>
     <g id="text_6">
      <!-- 2021-09 -->
      <g transform="translate(731.526429 382.993937)scale(0.1 -0.1)">
       <use xlink:href="#DejaVuSans-32"/>
       <use xlink:href="#DejaVuSans-30" x="63.623047"/>
       <use xlink:href="#DejaVuSans-32" x="127.246094"/>
       <use xlink:href="#DejaVuSans-31" x="190.869141"/>
       <use xlink:href="#DejaVuSans-2d" x="254.492188"/>
       <use xlink:href="#DejaVuSans-30" x="290.576172"/>
       <use xlink:href="#DejaVuSans-39" x="354.199219"/>
      </g>
     </g>
    </g>
    <g id="xtick_7">
     <g id="line2d_7">
      <g>
       <use xlink:href="#mdc958381cd" x="888.808519" y="368.3955" style="stroke: #000000; stroke-width: 0.8"/>
      </g>
     </g>
     <g id="text_7">
      <!-- 2022-01 -->
      <g transform="translate(867.917113 382.993937)scale(0.1 -0.1)">
       <use xlink:href="#DejaVuSans-32"/>
       <use xlink:href="#DejaVuSans-30" x="63.623047"/>
       <use xlink:href="#DejaVuSans-32" x="127.246094"/>
       <use xlink:href="#DejaVuSans-32" x="190.869141"/>
       <use xlink:href="#DejaVuSans-2d" x="254.492188"/>
       <use xlink:href="#DejaVuSans-30" x="290.576172"/>
       <use xlink:href="#DejaVuSans-31" x="354.199219"/>
      </g>
     </g>
    </g>
    <g id="xtick_8">
     <g id="line2d_8">
      <g>
       <use xlink:href="#mdc958381cd" x="1022.96329" y="368.3955" style="stroke: #000000; stroke-width: 0.8"/>
      </g>
     </g>
     <g id="text_8">
      <!-- 2022-05 -->
      <g transform="translate(1002.071884 382.993937)scale(0.1 -0.1)">
       <use xlink:href="#DejaVuSans-32"/>
       <use xlink:href="#DejaVuSans-30" x="63.623047"/>
       <use xlink:href="#DejaVuSans-32" x="127.246094"/>
       <use xlink:href="#DejaVuSans-32" x="190.869141"/>
       <use xlink:href="#DejaVuSans-2d" x="254.492188"/>
       <use xlink:href="#DejaVuSans-30" x="290.576172"/>
       <use xlink:href="#DejaVuSans-35" x="354.199219"/>
      </g>
     </g>
    </g>
    <g id="xtick_9">
     <g id="line2d_9">
      <g>
       <use xlink:href="#mdc958381cd" x="1160.47193" y="368.3955" style="stroke: #000000; stroke-width: 0.8"/>
      </g>
     </g>
     <g id="text_9">
      <!-- 2022-09 -->
      <g transform="translate(1139.580524 382.993937)scale(0.1 -0.1)">
       <use xlink:href="#DejaVuSans-32"/>
       <use xlink:href="#DejaVuSans-30" x="63.623047"/>
       <use xlink:href="#DejaVuSans-32" x="127.246094"/>
       <use xlink:href="#DejaVuSans-32" x="190.869141"/>
       <use xlink:href="#DejaVuSans-2d" x="254.492188"/>
       <use xlink:href="#DejaVuSans-30" x="290.576172"/>
       <use xlink:href="#DejaVuSans-39" x="354.199219"/>
      </g>
     </g>
    </g>
    <g id="xtick_10">
     <g id="line2d_10">
      <g>
       <use xlink:href="#mdc958381cd" x="1296.862614" y="368.3955" style="stroke: #000000; stroke-width: 0.8"/>
      </g>
     </g>
     <g id="text_10">
      <!-- 2023-01 -->
      <g transform="translate(1275.971208 382.993937)scale(0.1 -0.1)">
       <defs>
        <path id="DejaVuSans-33" d="M 2597 2516 
Q 3050 2419 3304 2112 
Q 3559 1806 3559 1356 
Q 3559 666 3084 287 
Q 2609 -91 1734 -91 
Q 1441 -91 1130 -33 
Q 819 25 488 141 
L 488 750 
Q 750 597 1062 519 
Q 1375 441 1716 441 
Q 2309 441 2620 675 
Q 2931 909 2931 1356 
Q 2931 1769 2642 2001 
Q 2353 2234 1838 2234 
L 1294 2234 
L 1294 2753 
L 1863 2753 
Q 2328 2753 2575 2939 
Q 2822 3125 2822 3475 
Q 2822 3834 2567 4026 
Q 2313 4219 1838 4219 
Q 1578 4219 1281 4162 
Q 984 4106 628 3988 
L 628 4550 
Q 988 4650 1302 4700 
Q 1616 4750 1894 4750 
Q 2613 4750 3031 4423 
Q 3450 4097 3450 3541 
Q 3450 3153 3228 2886 
Q 3006 2619 2597 2516 
z
" transform="scale(0.015625)"/>
       </defs>
       <use xlink:href="#DejaVuSans-32"/>
       <use xlink:href="#DejaVuSans-30" x="63.623047"/>
       <use xlink:href="#DejaVuSans-32" x="127.246094"/>
       <use xlink:href="#DejaVuSans-33" x="190.869141"/>
       <use xlink:href="#DejaVuSans-2d" x="254.492188"/>
       <use xlink:href="#DejaVuSans-30" x="290.576172"/>
       <use xlink:href="#DejaVuSans-31" x="354.199219"/>
      </g>
     </g>
    </g>
   </g>
   <g id="matplotlib.axis_2">
    <g id="ytick_1">
     <g id="line2d_11">
      <defs>
       <path id="mb7c213c11a" d="M 0 0 
L -3.5 0 
" style="stroke: #000000; stroke-width: 0.8"/>
      </defs>
      <g>
       <use xlink:href="#mb7c213c11a" x="35.304688" y="367.494936" style="stroke: #000000; stroke-width: 0.8"/>
      </g>
     </g>
     <g id="text_11">
      <!-- −50 -->
      <g transform="translate(7.2 371.294154)scale(0.1 -0.1)">
       <defs>
        <path id="DejaVuSans-2212" d="M 678 2272 
L 4684 2272 
L 4684 1741 
L 678 1741 
L 678 2272 
z
" transform="scale(0.015625)"/>
       </defs>
       <use xlink:href="#DejaVuSans-2212"/>
       <use xlink:href="#DejaVuSans-35" x="83.789062"/>
       <use xlink:href="#DejaVuSans-30" x="147.412109"/>
      </g>
     </g>
    </g>
    <g id="ytick_2">
     <g id="line2d_12">
      <g>
       <use xlink:href="#mb7c213c11a" x="35.304688" y="320.096817" style="stroke: #000000; stroke-width: 0.8"/>
      </g>
     </g>
     <g id="text_12">
      <!-- 0 -->
      <g transform="translate(21.942187 323.896035)scale(0.1 -0.1)">
       <use xlink:href="#DejaVuSans-30"/>
      </g>
     </g>
    </g>
    <g id="ytick_3">
     <g id="line2d_13">
      <g>
       <use xlink:href="#mb7c213c11a" x="35.304688" y="272.698697" style="stroke: #000000; stroke-width: 0.8"/>
      </g>
     </g>
     <g id="text_13">
      <!-- 50 -->
      <g transform="translate(15.579687 276.497916)scale(0.1 -0.1)">
       <use xlink:href="#DejaVuSans-35"/>
       <use xlink:href="#DejaVuSans-30" x="63.623047"/>
      </g>
     </g>
    </g>
    <g id="ytick_4">
     <g id="line2d_14">
      <g>
       <use xlink:href="#mb7c213c11a" x="35.304688" y="225.300578" style="stroke: #000000; stroke-width: 0.8"/>
      </g>
     </g>
     <g id="text_14">
      <!-- 100 -->
      <g transform="translate(9.217187 229.099797)scale(0.1 -0.1)">
       <use xlink:href="#DejaVuSans-31"/>
       <use xlink:href="#DejaVuSans-30" x="63.623047"/>
       <use xlink:href="#DejaVuSans-30" x="127.246094"/>
      </g>
     </g>
    </g>
    <g id="ytick_5">
     <g id="line2d_15">
      <g>
       <use xlink:href="#mb7c213c11a" x="35.304688" y="177.902459" style="stroke: #000000; stroke-width: 0.8"/>
      </g>
     </g>
     <g id="text_15">
      <!-- 150 -->
      <g transform="translate(9.217187 181.701678)scale(0.1 -0.1)">
       <use xlink:href="#DejaVuSans-31"/>
       <use xlink:href="#DejaVuSans-35" x="63.623047"/>
       <use xlink:href="#DejaVuSans-30" x="127.246094"/>
      </g>
     </g>
    </g>
    <g id="ytick_6">
     <g id="line2d_16">
      <g>
       <use xlink:href="#mb7c213c11a" x="35.304688" y="130.50434" style="stroke: #000000; stroke-width: 0.8"/>
      </g>
     </g>
     <g id="text_16">
      <!-- 200 -->
      <g transform="translate(9.217187 134.303559)scale(0.1 -0.1)">
       <use xlink:href="#DejaVuSans-32"/>
       <use xlink:href="#DejaVuSans-30" x="63.623047"/>
       <use xlink:href="#DejaVuSans-30" x="127.246094"/>
      </g>
     </g>
    </g>
    <g id="ytick_7">
     <g id="line2d_17">
      <g>
       <use xlink:href="#mb7c213c11a" x="35.304688" y="83.106221" style="stroke: #000000; stroke-width: 0.8"/>
      </g>
     </g>
     <g id="text_17">
      <!-- 250 -->
      <g transform="translate(9.217187 86.90544)scale(0.1 -0.1)">
       <use xlink:href="#DejaVuSans-32"/>
       <use xlink:href="#DejaVuSans-35" x="63.623047"/>
       <use xlink:href="#DejaVuSans-30" x="127.246094"/>
      </g>
     </g>
    </g>
   </g>
   <g id="line2d_18">
    <path d="M 96.177415 320.096817 
L 158.782975 320.096817 
L 159.900931 318.200892 
L 161.018887 320.096817 
L 163.2548 320.096817 
L 164.372757 317.252929 
L 165.490713 318.200892 
L 166.608669 320.096817 
L 167.726626 319.148854 
L 168.844582 320.096817 
L 169.962539 320.096817 
L 171.080495 313.46108 
L 172.198452 320.096817 
L 173.316408 320.096817 
L 174.434364 319.148854 
L 175.552321 320.096817 
L 176.670277 318.200892 
L 177.788234 320.096817 
L 178.90619 317.252929 
L 180.024147 317.252929 
L 181.142103 319.148854 
L 183.378016 317.252929 
L 184.495972 320.096817 
L 185.613929 319.148854 
L 186.731885 320.096817 
L 187.849842 311.565155 
L 188.967798 320.096817 
L 190.085754 319.148854 
L 191.203711 320.096817 
L 192.321667 318.200892 
L 194.55758 320.096817 
L 195.675536 317.252929 
L 196.793493 310.617193 
L 197.911449 319.148854 
L 199.029406 316.304967 
L 200.147362 310.617193 
L 201.265319 320.096817 
L 202.383275 320.096817 
L 203.501231 318.200892 
L 204.619188 318.200892 
L 205.737144 320.096817 
L 206.855101 320.096817 
L 207.973057 315.357005 
L 209.091014 316.304967 
L 210.20897 320.096817 
L 211.326926 317.252929 
L 212.444883 308.721268 
L 213.562839 319.148854 
L 214.680796 313.46108 
L 215.798752 300.189607 
L 216.916709 303.981456 
L 218.034665 315.357005 
L 220.270578 285.022208 
L 221.388534 310.617193 
L 222.506491 305.877381 
L 223.624447 283.126284 
L 224.742404 285.022208 
L 225.86036 274.594622 
L 226.978316 227.196503 
L 228.096273 247.103713 
L 229.214229 260.375187 
L 231.450142 252.791487 
L 232.568098 246.155751 
L 233.686055 269.85481 
L 234.804011 231.936315 
L 235.921968 220.560766 
L 237.039924 214.872992 
L 238.157881 181.694309 
L 239.275837 203.497444 
L 240.393793 186.434121 
L 241.51175 53.719387 
L 242.629706 74.57456 
L 243.747663 223.404654 
L 244.865619 53.719387 
L 245.983576 228.144466 
L 247.101532 285.970171 
L 248.219488 50.8755 
L 249.337445 179.798384 
L 250.455401 71.730672 
L 251.573358 126.712491 
L 252.691314 202.549481 
L 254.927227 182.642271 
L 256.045183 320.096817 
L 257.16314 107.753243 
L 258.281096 183.590234 
L 259.399053 194.965782 
L 260.517009 219.612804 
L 261.634965 186.434121 
L 262.752922 103.961393 
L 263.870878 259.427224 
L 264.988835 228.144466 
L 266.106791 193.069857 
L 267.224748 315.357005 
L 268.342704 217.716879 
L 269.46066 220.560766 
L 270.578617 212.029105 
L 271.696573 150.41155 
L 272.81453 320.096817 
L 273.932486 201.601519 
L 275.050443 238.572052 
L 276.168399 280.282397 
L 277.286355 258.479262 
L 278.404312 262.271111 
L 279.522268 197.809669 
L 280.640225 259.427224 
L 281.758181 283.126284 
L 282.876138 284.074246 
L 283.994094 262.271111 
L 285.11205 268.906848 
L 286.230007 229.092428 
L 287.347963 286.918133 
L 288.46592 250.895563 
L 290.701833 320.096817 
L 291.819789 221.508729 
L 292.937745 252.791487 
L 294.055702 276.490547 
L 295.173658 294.501832 
L 296.291615 246.155751 
L 297.409571 310.617193 
L 298.527527 285.022208 
L 299.645484 276.490547 
L 300.76344 300.189607 
L 301.881397 291.657945 
L 302.999353 260.375187 
L 304.11731 285.022208 
L 305.235266 303.033494 
L 306.353222 296.397757 
L 307.471179 290.709983 
L 308.589135 313.46108 
L 309.707092 287.866096 
L 310.825048 308.721268 
L 311.943005 278.386472 
L 313.060961 312.513118 
L 314.178917 286.918133 
L 315.296874 300.189607 
L 316.41483 308.721268 
L 317.532787 284.074246 
L 318.650743 303.981456 
L 319.7687 308.721268 
L 320.886656 298.293682 
L 322.004612 305.877381 
L 323.122569 230.988353 
L 324.240525 284.074246 
L 325.358482 292.605908 
L 326.476438 300.189607 
L 327.594394 274.594622 
L 328.712351 303.033494 
L 329.830307 297.345719 
L 330.948264 293.55387 
L 332.06622 274.594622 
L 333.184177 302.085531 
L 334.302133 287.866096 
L 335.420089 289.76202 
L 336.538046 293.55387 
L 337.656002 318.200892 
L 338.773959 310.617193 
L 339.891915 292.605908 
L 341.009872 310.617193 
L 342.127828 307.773306 
L 343.245784 286.918133 
L 344.363741 305.877381 
L 345.481697 320.096817 
L 346.599654 287.866096 
L 347.71761 320.096817 
L 348.835567 255.635375 
L 349.953523 320.096817 
L 351.071479 287.866096 
L 352.189436 320.096817 
L 353.307392 318.200892 
L 354.425349 306.825343 
L 355.543305 269.85481 
L 356.661262 293.55387 
L 357.779218 320.096817 
L 358.897174 300.189607 
L 360.015131 305.877381 
L 361.133087 314.409042 
L 362.251044 290.709983 
L 363.369 295.449795 
L 364.486956 320.096817 
L 365.604913 278.386472 
L 366.722869 320.096817 
L 367.840826 297.345719 
L 368.958782 320.096817 
L 370.076739 299.241644 
L 371.194695 320.096817 
L 372.312651 284.074246 
L 373.430608 320.096817 
L 374.548564 283.126284 
L 375.666521 303.981456 
L 376.784477 320.096817 
L 377.902434 295.449795 
L 379.02039 320.096817 
L 380.138346 295.449795 
L 381.256303 320.096817 
L 382.374259 294.501832 
L 383.492216 320.096817 
L 384.610172 320.096817 
L 385.728129 302.085531 
L 386.846085 304.929418 
L 387.964041 320.096817 
L 389.081998 314.409042 
L 390.199954 299.241644 
L 391.317911 320.096817 
L 392.435867 315.357005 
L 393.553823 300.189607 
L 394.67178 320.096817 
L 395.789736 303.981456 
L 396.907693 320.096817 
L 399.143606 320.096817 
L 400.261562 271.750735 
L 401.379518 317.252929 
L 402.497475 320.096817 
L 403.615431 301.137569 
L 404.733388 304.929418 
L 405.851344 309.66923 
L 406.969301 320.096817 
L 408.087257 320.096817 
L 409.205213 301.137569 
L 410.32317 312.513118 
L 411.441126 320.096817 
L 415.912952 320.096817 
L 417.030908 276.490547 
L 418.148865 311.565155 
L 419.266821 320.096817 
L 420.384778 303.033494 
L 421.502734 320.096817 
L 422.620691 320.096817 
L 423.738647 310.617193 
L 424.856603 305.877381 
L 425.97456 320.096817 
L 427.092516 304.929418 
L 428.210473 320.096817 
L 429.328429 309.66923 
L 430.446385 311.565155 
L 431.564342 317.252929 
L 432.682298 320.096817 
L 433.800255 303.981456 
L 434.918211 317.252929 
L 436.036168 317.252929 
L 437.154124 320.096817 
L 438.27208 310.617193 
L 439.390037 315.357005 
L 440.507993 302.085531 
L 441.62595 312.513118 
L 442.743906 312.513118 
L 443.861863 320.096817 
L 444.979819 312.513118 
L 446.097775 299.241644 
L 447.215732 318.200892 
L 448.333688 313.46108 
L 449.451645 310.617193 
L 450.569601 287.866096 
L 451.687558 298.293682 
L 452.805514 320.096817 
L 453.92347 292.605908 
L 455.041427 320.096817 
L 456.159383 286.918133 
L 457.27734 320.096817 
L 458.395296 290.709983 
L 459.513252 295.449795 
L 460.631209 303.033494 
L 461.749165 267.010923 
L 462.867122 289.76202 
L 463.985078 320.096817 
L 465.103035 291.657945 
L 466.220991 300.189607 
L 467.338947 295.449795 
L 468.456904 320.096817 
L 469.57486 235.728165 
L 470.692817 312.513118 
L 471.810773 287.866096 
L 472.92873 281.230359 
L 474.046686 320.096817 
L 475.164642 320.096817 
L 476.282599 213.92503 
L 477.400555 320.096817 
L 478.518512 281.230359 
L 479.636468 320.096817 
L 480.754425 304.929418 
L 481.872381 320.096817 
L 482.990337 261.323149 
L 484.108294 272.698697 
L 485.22625 320.096817 
L 487.462163 320.096817 
L 488.58012 248.051676 
L 490.816032 320.096817 
L 491.933989 290.709983 
L 493.051945 320.096817 
L 494.169902 212.029105 
L 495.287858 292.605908 
L 496.405814 174.11061 
L 497.523771 257.531299 
L 498.641727 181.694309 
L 499.759684 320.096817 
L 500.87764 252.791487 
L 501.995597 267.958886 
L 503.113553 267.010923 
L 504.231509 320.096817 
L 505.349466 251.843525 
L 506.467422 259.427224 
L 507.585379 242.363901 
L 508.703335 220.560766 
L 509.821292 320.096817 
L 510.939248 320.096817 
L 512.057204 210.13318 
L 513.175161 141.879889 
L 514.293117 242.363901 
L 515.411074 301.137569 
L 516.52903 307.773306 
L 517.646987 269.85481 
L 518.764943 274.594622 
L 519.882899 268.906848 
L 521.000856 274.594622 
L 522.118812 262.271111 
L 523.236769 299.241644 
L 524.354725 296.397757 
L 525.472681 300.189607 
L 526.590638 247.103713 
L 527.708594 292.605908 
L 528.826551 273.64666 
L 529.944507 306.825343 
L 531.062464 320.096817 
L 532.18042 291.657945 
L 533.298376 303.033494 
L 534.416333 301.137569 
L 535.534289 286.918133 
L 536.652246 304.929418 
L 537.770202 294.501832 
L 538.888159 318.200892 
L 540.006115 285.970171 
L 541.124071 282.178321 
L 542.242028 303.033494 
L 543.359984 295.449795 
L 544.477941 302.085531 
L 545.595897 284.074246 
L 546.713854 315.357005 
L 547.83181 303.033494 
L 548.949766 315.357005 
L 550.067723 303.033494 
L 551.185679 303.981456 
L 552.303636 301.137569 
L 553.421592 303.033494 
L 554.539549 305.877381 
L 555.657505 304.929418 
L 556.775461 319.148854 
L 557.893418 315.357005 
L 559.011374 303.981456 
L 560.129331 318.200892 
L 561.247287 310.617193 
L 562.365243 318.200892 
L 563.4832 306.825343 
L 564.601156 312.513118 
L 565.719113 312.513118 
L 566.837069 318.200892 
L 567.955026 316.304967 
L 569.072982 299.241644 
L 570.190938 318.200892 
L 571.308895 318.200892 
L 572.426851 303.981456 
L 573.544808 311.565155 
L 574.662764 316.304967 
L 576.898677 314.409042 
L 578.016633 320.096817 
L 579.13459 316.304967 
L 580.252546 311.565155 
L 581.370503 297.345719 
L 582.488459 308.721268 
L 583.606416 317.252929 
L 584.724372 318.200892 
L 585.842328 320.096817 
L 586.960285 314.409042 
L 588.078241 307.773306 
L 589.196198 311.565155 
L 590.314154 300.189607 
L 591.43211 308.721268 
L 592.550067 318.200892 
L 593.668023 303.981456 
L 594.78598 319.148854 
L 595.903936 314.409042 
L 597.021893 306.825343 
L 598.139849 302.085531 
L 599.257805 299.241644 
L 600.375762 314.409042 
L 601.493718 319.148854 
L 602.611675 309.66923 
L 603.729631 306.825343 
L 605.965544 308.721268 
L 607.0835 299.241644 
L 608.201457 304.929418 
L 609.319413 318.200892 
L 610.43737 315.357005 
L 611.555326 303.033494 
L 613.791239 306.825343 
L 614.909195 305.877381 
L 616.027152 314.409042 
L 617.145108 311.565155 
L 618.263065 306.825343 
L 619.381021 303.981456 
L 620.498978 303.981456 
L 621.616934 303.033494 
L 622.73489 310.617193 
L 623.852847 308.721268 
L 624.970803 319.148854 
L 626.08876 285.022208 
L 627.206716 274.594622 
L 628.324672 282.178321 
L 629.442629 256.583337 
L 630.560585 263.219074 
L 631.678542 246.155751 
L 632.796498 295.449795 
L 633.914455 278.386472 
L 635.032411 256.583337 
L 636.150367 217.716879 
L 637.268324 260.375187 
L 638.38628 195.913745 
L 639.504237 233.83224 
L 640.622193 196.861707 
L 641.74015 231.936315 
L 642.858106 223.404654 
L 643.976062 213.92503 
L 645.094019 181.694309 
L 646.211975 111.545092 
L 647.329932 212.029105 
L 648.447888 246.155751 
L 649.565845 169.370798 
L 650.683801 175.058572 
L 651.801757 159.891174 
L 652.919714 177.902459 
L 654.03767 186.434121 
L 655.155627 219.612804 
L 656.273583 246.155751 
L 657.391539 199.705594 
L 658.509496 177.902459 
L 659.627452 125.764528 
L 660.745409 224.352616 
L 661.863365 212.977067 
L 662.981322 240.467976 
L 664.099278 218.664842 
L 665.217234 242.363901 
L 666.335191 139.036002 
L 667.453147 194.965782 
L 668.571104 100.169544 
L 669.68906 218.664842 
L 670.807017 138.088039 
L 671.924973 262.271111 
L 673.042929 215.820955 
L 674.160886 188.330045 
L 676.396799 207.289293 
L 677.514755 223.404654 
L 678.632712 229.092428 
L 679.750668 313.46108 
L 680.868624 251.843525 
L 681.986581 218.664842 
L 683.104537 217.716879 
L 684.222494 224.352616 
L 685.34045 268.906848 
L 686.458407 258.479262 
L 687.576363 274.594622 
L 688.694319 248.999638 
L 689.812276 245.207788 
L 690.930232 269.85481 
L 692.048189 291.657945 
L 693.166145 267.958886 
L 695.402058 304.929418 
L 696.520014 259.427224 
L 697.637971 267.958886 
L 698.755927 282.178321 
L 699.873884 282.178321 
L 700.99184 300.189607 
L 702.109796 293.55387 
L 703.227753 314.409042 
L 704.345709 264.167036 
L 705.463666 280.282397 
L 706.581622 242.363901 
L 707.699579 255.635375 
L 708.817535 311.565155 
L 709.935491 283.126284 
L 711.053448 311.565155 
L 712.171404 289.76202 
L 713.289361 276.490547 
L 714.407317 280.282397 
L 715.525274 261.323149 
L 716.64323 302.085531 
L 717.761186 302.085531 
L 718.879143 303.033494 
L 719.997099 295.449795 
L 721.115056 278.386472 
L 722.233012 278.386472 
L 723.350968 291.657945 
L 724.468925 287.866096 
L 725.586881 305.877381 
L 726.704838 314.409042 
L 727.822794 298.293682 
L 728.940751 285.022208 
L 730.058707 285.970171 
L 731.176663 290.709983 
L 732.29462 304.929418 
L 733.412576 306.825343 
L 734.530533 307.773306 
L 735.648489 306.825343 
L 736.766446 299.241644 
L 737.884402 286.918133 
L 739.002358 320.096817 
L 740.120315 280.282397 
L 741.238271 315.357005 
L 742.356228 301.137569 
L 743.474184 295.449795 
L 744.592141 301.137569 
L 746.828053 310.617193 
L 747.94601 300.189607 
L 749.063966 305.877381 
L 750.181923 282.178321 
L 751.299879 291.657945 
L 752.417836 299.241644 
L 753.535792 296.397757 
L 754.653748 291.657945 
L 755.771705 305.877381 
L 756.889661 298.293682 
L 758.007618 304.929418 
L 759.125574 306.825343 
L 760.24353 294.501832 
L 761.361487 296.397757 
L 762.479443 294.501832 
L 763.5974 293.55387 
L 764.715356 302.085531 
L 765.833313 308.721268 
L 766.951269 320.096817 
L 770.305138 320.096817 
L 771.423095 172.214685 
L 772.541051 299.241644 
L 774.776964 279.334434 
L 775.89492 259.427224 
L 777.012877 269.85481 
L 778.130833 262.271111 
L 779.24879 213.92503 
L 780.366746 279.334434 
L 782.602659 254.687412 
L 783.720615 240.467976 
L 784.838572 274.594622 
L 785.956528 225.300578 
L 787.074485 243.311864 
L 788.192441 293.55387 
L 789.310397 258.479262 
L 790.428354 245.207788 
L 791.54631 236.676127 
L 792.664267 262.271111 
L 793.782223 267.010923 
L 794.90018 229.092428 
L 796.018136 240.467976 
L 797.136092 299.241644 
L 798.254049 216.768917 
L 799.372005 208.237255 
L 800.489962 243.311864 
L 801.607918 241.415939 
L 802.725875 242.363901 
L 803.843831 282.178321 
L 804.961787 278.386472 
L 806.079744 245.207788 
L 807.1977 272.698697 
L 808.315657 218.664842 
L 809.433613 275.542585 
L 810.55157 234.780202 
L 811.669526 276.490547 
L 812.787482 303.033494 
L 813.905439 288.814058 
L 815.023395 300.189607 
L 816.141352 298.293682 
L 817.259308 293.55387 
L 818.377265 281.230359 
L 819.495221 303.033494 
L 820.613177 307.773306 
L 821.731134 314.409042 
L 822.84909 303.033494 
L 823.967047 220.560766 
L 825.085003 269.85481 
L 826.202959 250.895563 
L 827.320916 297.345719 
L 828.438872 223.404654 
L 829.556829 265.114998 
L 830.674785 267.010923 
L 831.792742 285.970171 
L 832.910698 264.167036 
L 834.028654 304.929418 
L 835.146611 265.114998 
L 836.264567 271.750735 
L 837.382524 259.427224 
L 838.50048 269.85481 
L 839.618437 306.825343 
L 840.736393 297.345719 
L 841.854349 320.096817 
L 842.972306 280.282397 
L 844.090262 309.66923 
L 845.208219 308.721268 
L 846.326175 298.293682 
L 847.444132 240.467976 
L 848.562088 292.605908 
L 849.680044 294.501832 
L 850.798001 260.375187 
L 851.915957 290.709983 
L 853.033914 267.958886 
L 854.15187 213.92503 
L 855.269826 320.096817 
L 856.387783 211.081143 
L 857.505739 263.219074 
L 858.623696 285.970171 
L 859.741652 303.981456 
L 860.859609 306.825343 
L 861.977565 283.126284 
L 863.095521 306.825343 
L 865.331434 264.167036 
L 866.449391 308.721268 
L 867.567347 306.825343 
L 869.80326 306.825343 
L 870.921216 310.617193 
L 872.039173 317.252929 
L 873.157129 317.252929 
L 874.275086 309.66923 
L 875.393042 313.46108 
L 876.510999 316.304967 
L 877.628955 320.096817 
L 878.746911 320.096817 
L 879.864868 294.501832 
L 880.982824 318.200892 
L 882.100781 320.096817 
L 883.218737 309.66923 
L 884.336694 309.66923 
L 885.45465 293.55387 
L 886.572606 289.76202 
L 887.690563 212.977067 
L 888.808519 278.386472 
L 889.926476 280.282397 
L 891.044432 316.304967 
L 892.162388 320.096817 
L 893.280345 277.438509 
L 894.398301 223.404654 
L 895.516258 222.456691 
L 896.634214 182.642271 
L 897.752171 175.058572 
L 898.870127 137.140077 
L 899.988083 242.363901 
L 901.10604 96.377694 
L 902.223996 157.047287 
L 903.341953 197.809669 
L 904.459909 130.50434 
L 905.577866 174.11061 
L 906.695822 266.062961 
L 907.813778 237.624089 
L 908.931735 194.01782 
L 910.049691 223.404654 
L 911.167648 207.289293 
L 912.285604 234.780202 
L 913.403561 179.798384 
L 914.521517 287.866096 
L 915.639473 194.965782 
L 916.75743 151.359513 
L 917.875386 253.73945 
L 918.993343 230.988353 
L 920.111299 219.612804 
L 921.229255 205.393368 
L 922.347212 288.814058 
L 923.465168 251.843525 
L 924.583125 320.096817 
L 925.701081 162.735061 
L 926.819038 259.427224 
L 927.936994 269.85481 
L 929.05495 304.929418 
L 930.172907 290.709983 
L 931.290863 311.565155 
L 932.40882 302.085531 
L 933.526776 320.096817 
L 934.644733 320.096817 
L 935.762689 179.798384 
L 936.880645 320.096817 
L 937.998602 275.542585 
L 939.116558 302.085531 
L 940.234515 281.230359 
L 941.352471 276.490547 
L 942.470428 303.033494 
L 943.588384 287.866096 
L 944.70634 307.773306 
L 945.824297 306.825343 
L 946.942253 308.721268 
L 948.06021 305.877381 
L 949.178166 299.241644 
L 950.296123 316.304967 
L 952.532035 320.096817 
L 953.649992 312.513118 
L 954.767948 317.252929 
L 955.885905 299.241644 
L 957.003861 313.46108 
L 958.121817 317.252929 
L 959.239774 305.877381 
L 960.35773 291.657945 
L 961.475687 320.096817 
L 962.593643 318.200892 
L 963.7116 319.148854 
L 964.829556 315.357005 
L 965.947512 312.513118 
L 967.065469 305.877381 
L 968.183425 308.721268 
L 969.301382 320.096817 
L 970.419338 315.357005 
L 971.537295 311.565155 
L 972.655251 319.148854 
L 973.773207 314.409042 
L 974.891164 318.200892 
L 976.00912 307.773306 
L 977.127077 318.200892 
L 978.245033 320.096817 
L 979.36299 316.304967 
L 980.480946 313.46108 
L 981.598902 314.409042 
L 982.716859 320.096817 
L 983.834815 320.096817 
L 984.952772 303.981456 
L 986.070728 320.096817 
L 987.188684 320.096817 
L 988.306641 303.033494 
L 989.424597 316.304967 
L 991.66051 316.304967 
L 992.778467 320.096817 
L 995.014379 318.200892 
L 996.132336 320.096817 
L 997.250292 313.46108 
L 998.368249 319.148854 
L 999.486205 320.096817 
L 1000.604162 319.148854 
L 1001.722118 313.46108 
L 1002.840074 304.929418 
L 1003.958031 318.200892 
L 1005.075987 317.252929 
L 1006.193944 312.513118 
L 1007.3119 303.981456 
L 1008.429857 317.252929 
L 1009.547813 315.357005 
L 1010.665769 319.148854 
L 1011.783726 319.148854 
L 1012.901682 315.357005 
L 1014.019639 316.304967 
L 1015.137595 320.096817 
L 1016.255552 290.709983 
L 1017.373508 320.096817 
L 1018.491464 313.46108 
L 1019.609421 318.200892 
L 1020.727377 317.252929 
L 1021.845334 319.148854 
L 1024.081246 319.148854 
L 1025.199203 318.200892 
L 1026.317159 320.096817 
L 1028.553072 320.096817 
L 1029.671029 315.357005 
L 1030.788985 319.148854 
L 1031.906941 320.096817 
L 1033.024898 320.096817 
L 1034.142854 308.721268 
L 1035.260811 315.357005 
L 1036.378767 316.304967 
L 1037.496724 314.409042 
L 1038.61468 314.409042 
L 1039.732636 312.513118 
L 1040.850593 314.409042 
L 1041.968549 309.66923 
L 1043.086506 310.617193 
L 1044.204462 320.096817 
L 1045.322419 312.513118 
L 1046.440375 353.2755 
L 1047.558331 273.64666 
L 1048.676288 318.200892 
L 1049.794244 307.773306 
L 1050.912201 320.096817 
L 1055.384026 320.096817 
L 1056.501983 249.9476 
L 1057.619939 307.773306 
L 1058.737896 302.085531 
L 1059.855852 304.929418 
L 1060.973808 308.721268 
L 1062.091765 309.66923 
L 1063.209721 313.46108 
L 1064.327678 305.877381 
L 1065.445634 302.085531 
L 1066.563591 300.189607 
L 1067.681547 311.565155 
L 1068.799503 301.137569 
L 1069.91746 300.189607 
L 1071.035416 303.981456 
L 1072.153373 298.293682 
L 1073.271329 303.033494 
L 1074.389286 291.657945 
L 1075.507242 289.76202 
L 1076.625198 315.357005 
L 1077.743155 295.449795 
L 1079.979068 314.409042 
L 1081.097024 269.85481 
L 1083.332937 267.958886 
L 1084.450893 263.219074 
L 1085.56885 320.096817 
L 1086.686806 244.259826 
L 1087.804763 269.85481 
L 1088.922719 269.85481 
L 1090.040675 300.189607 
L 1091.158632 295.449795 
L 1092.276588 259.427224 
L 1093.394545 293.55387 
L 1094.512501 274.594622 
L 1095.630458 281.230359 
L 1096.748414 297.345719 
L 1097.86637 298.293682 
L 1098.984327 273.64666 
L 1100.102283 320.096817 
L 1102.338196 320.096817 
L 1103.456153 203.497444 
L 1104.574109 320.096817 
L 1105.692065 293.55387 
L 1106.810022 306.825343 
L 1107.927978 310.617193 
L 1109.045935 298.293682 
L 1110.163891 302.085531 
L 1111.281848 295.449795 
L 1112.399804 320.096817 
L 1115.753673 320.096817 
L 1116.87163 282.178321 
L 1117.989586 320.096817 
L 1119.107542 311.565155 
L 1120.225499 307.773306 
L 1121.343455 309.66923 
L 1122.461412 303.033494 
L 1123.579368 275.542585 
L 1124.697325 278.386472 
L 1125.815281 264.167036 
L 1126.933237 270.802773 
L 1128.051194 320.096817 
L 1131.405063 320.096817 
L 1132.52302 142.827851 
L 1133.640976 308.721268 
L 1134.758932 298.293682 
L 1135.876889 269.85481 
L 1136.994845 303.033494 
L 1138.112802 287.866096 
L 1139.230758 291.657945 
L 1140.348715 254.687412 
L 1141.466671 302.085531 
L 1142.584627 288.814058 
L 1143.702584 298.293682 
L 1144.82054 295.449795 
L 1145.938497 294.501832 
L 1147.056453 260.375187 
L 1148.17441 267.010923 
L 1149.292366 272.698697 
L 1150.410322 267.010923 
L 1151.528279 285.970171 
L 1152.646235 292.605908 
L 1153.764192 300.189607 
L 1154.882148 302.085531 
L 1156.000104 280.282397 
L 1157.118061 295.449795 
L 1158.236017 270.802773 
L 1159.353974 290.709983 
L 1160.47193 320.096817 
L 1168.297625 320.096817 
L 1169.415582 218.664842 
L 1170.533538 320.096817 
L 1171.651494 320.096817 
L 1172.769451 278.386472 
L 1173.887407 320.096817 
L 1175.005364 320.096817 
L 1176.12332 302.085531 
L 1177.241277 320.096817 
L 1182.831059 320.096817 
L 1183.949015 308.721268 
L 1185.066971 320.096817 
L 1192.892666 320.096817 
L 1194.010623 298.293682 
L 1195.128579 320.096817 
L 1205.190187 320.096817 
L 1206.308144 315.357005 
L 1207.4261 317.252929 
L 1208.544056 320.096817 
L 1220.841577 320.096817 
L 1221.959533 275.542585 
L 1223.07749 320.096817 
L 1229.785228 320.096817 
L 1230.903185 303.981456 
L 1232.021141 320.096817 
L 1240.964793 320.096817 
L 1242.082749 316.304967 
L 1243.200706 320.096817 
L 1245.436618 320.096817 
L 1246.554575 315.357005 
L 1247.672531 320.096817 
L 1253.262313 320.096817 
L 1254.38027 311.565155 
L 1255.498226 320.096817 
L 1261.088008 320.096817 
L 1262.205965 304.929418 
L 1263.323921 320.096817 
L 1270.03166 320.096817 
L 1271.149616 308.721268 
L 1272.267573 320.096817 
L 1276.739398 320.096817 
L 1277.857355 318.200892 
L 1278.975311 320.096817 
L 1284.565093 320.096817 
L 1285.68305 303.981456 
L 1286.801006 320.096817 
L 1295.744657 320.096817 
L 1296.862614 309.66923 
L 1297.98057 320.096817 
L 1297.98057 320.096817 
" clip-path="url(#p8814de5889)" style="fill: none; stroke: #0000ff; stroke-width: 1.5; stroke-linecap: square"/>
   </g>
   <g id="line2d_19">
    <path d="M 1057.619939 308.866928 
L 1058.737896 301.210571 
L 1059.855852 302.483969 
L 1060.973808 302.751608 
L 1062.091765 303.867855 
L 1063.209721 305.35479 
L 1064.327678 299.615814 
L 1065.445634 307.534711 
L 1066.563591 306.862823 
L 1067.681547 305.484174 
L 1068.799503 305.964661 
L 1069.91746 306.303638 
L 1071.035416 305.146789 
L 1072.153373 303.516328 
L 1073.271329 302.366721 
L 1074.389286 301.596527 
L 1075.507242 301.661201 
L 1076.625198 297.673797 
L 1077.743155 298.606406 
L 1078.861111 301.034707 
L 1079.979068 300.188402 
L 1081.097024 303.196668 
L 1082.214981 299.262101 
L 1083.332937 290.513234 
L 1084.450893 287.020321 
L 1085.56885 279.329126 
L 1086.686806 283.096271 
L 1087.804763 284.508052 
L 1088.922719 272.053371 
L 1090.040675 270.640707 
L 1091.158632 274.351039 
L 1092.276588 280.443344 
L 1093.394545 285.814986 
L 1094.512501 275.799498 
L 1095.630458 279.783183 
L 1096.748414 279.613464 
L 1097.86637 285.43965 
L 1098.984327 288.873528 
L 1100.102283 284.324831 
L 1102.338196 297.380282 
L 1103.456153 304.157209 
L 1105.692065 285.175186 
L 1106.810022 288.819677 
L 1107.927978 296.467985 
L 1109.045935 300.602335 
L 1110.163891 301.765911 
L 1111.281848 288.908343 
L 1112.399804 302.286542 
L 1113.51776 302.657608 
L 1114.635717 308.541929 
L 1115.753673 312.391094 
L 1116.87163 313.300825 
L 1117.989586 310.358665 
L 1119.107542 306.871034 
L 1120.225499 311.955878 
L 1121.343455 311.725403 
L 1122.461412 310.87045 
L 1123.579368 309.64863 
L 1124.697325 300.098188 
L 1125.815281 297.031414 
L 1128.051194 282.815174 
L 1129.16915 286.165176 
L 1130.287107 295.001256 
L 1131.405063 299.011128 
L 1132.52302 304.794767 
L 1133.640976 283.972837 
L 1134.758932 267.018132 
L 1135.876889 282.659004 
L 1136.994845 284.018027 
L 1138.112802 284.473335 
L 1139.230758 287.652973 
L 1140.348715 269.381633 
L 1141.466671 285.555105 
L 1142.584627 284.706606 
L 1143.702584 284.623246 
L 1144.82054 290.144015 
L 1145.938497 290.955494 
L 1147.056453 292.254992 
L 1148.17441 284.463545 
L 1149.292366 283.055637 
L 1150.410322 278.64649 
L 1151.528279 277.020676 
L 1152.646235 276.589442 
L 1153.764192 279.95898 
L 1154.882148 280.874517 
L 1156.000104 286.714035 
L 1157.118061 288.822736 
L 1158.236017 287.936234 
L 1159.353974 288.680732 
L 1160.47193 287.325679 
L 1161.589887 293.103538 
L 1162.707843 300.990071 
L 1163.825799 304.058778 
L 1164.943756 309.825796 
L 1166.061712 310.322719 
L 1168.297625 319.713329 
L 1169.415582 320.279652 
L 1170.533538 306.699038 
L 1171.651494 295.550957 
L 1172.769451 302.431568 
L 1173.887407 301.819954 
L 1175.005364 300.814637 
L 1176.12332 306.219751 
L 1177.241277 296.929006 
L 1178.359233 309.971493 
L 1179.477189 314.393478 
L 1180.595146 311.560017 
L 1181.713102 317.733988 
L 1182.831059 319.047564 
L 1183.949015 317.427782 
L 1185.066971 318.291334 
L 1186.184928 317.407214 
L 1187.302884 318.161154 
L 1188.420841 318.703752 
L 1190.656754 319.375287 
L 1191.77471 318.368762 
L 1192.892666 319.884336 
L 1194.010623 320.121508 
L 1195.128579 317.206406 
L 1196.246536 314.813037 
L 1197.364492 316.294168 
L 1198.482449 317.360113 
L 1199.600405 318.127256 
L 1200.718361 318.679357 
L 1201.836318 316.759862 
L 1202.954274 319.671679 
L 1204.072231 320.131271 
L 1206.308144 320.114662 
L 1207.4261 319.477447 
L 1208.544056 318.575304 
L 1209.662013 318.583948 
L 1210.779969 319.00803 
L 1213.015882 319.532886 
L 1214.133839 319.187306 
L 1216.369751 320.049268 
L 1218.605664 320.104145 
L 1221.959533 320.099548 
L 1223.07749 314.155979 
L 1224.195446 309.274809 
L 1225.313403 312.308397 
L 1226.431359 314.49162 
L 1227.549316 316.062849 
L 1228.667272 317.193637 
L 1229.785228 313.27305 
L 1230.903185 319.224622 
L 1232.021141 318.015227 
L 1233.139098 316.230853 
L 1234.257054 317.314547 
L 1235.375011 318.094463 
L 1236.492967 318.655756 
L 1237.610923 319.059709 
L 1238.72888 317.637986 
L 1239.846836 319.788064 
L 1240.964793 320.126227 
L 1242.082749 320.117983 
L 1244.318662 319.186637 
L 1246.554575 319.625394 
L 1248.790488 318.701218 
L 1249.908444 318.6895 
L 1251.0264 319.427718 
L 1252.144357 319.674481 
L 1253.262313 319.792869 
L 1255.498226 318.868585 
L 1256.616183 318.0333 
L 1257.734139 318.611738 
L 1259.970052 319.327629 
L 1261.088008 319.543245 
L 1263.323921 317.907939 
L 1264.441878 316.426134 
L 1265.559834 317.455087 
L 1266.67779 318.195608 
L 1267.795747 318.728548 
L 1268.913703 319.112096 
L 1270.03166 317.776421 
L 1271.149616 319.801762 
L 1273.385529 317.350998 
L 1274.503485 318.120697 
L 1275.621442 318.674636 
L 1277.857355 319.360206 
L 1278.975311 318.105023 
L 1280.093268 319.415954 
L 1281.211224 319.784421 
L 1284.565093 319.980369 
L 1285.68305 319.811548 
L 1287.918962 316.187496 
L 1289.036919 317.283343 
L 1290.154875 318.072007 
L 1291.272832 318.639594 
L 1292.390788 319.048078 
L 1293.508745 317.629616 
L 1294.626701 319.78204 
L 1295.744657 320.121891 
L 1296.862614 320.114862 
L 1297.98057 318.718935 
L 1297.98057 318.718935 
" clip-path="url(#p8814de5889)" style="fill: none; stroke: #ffa500; stroke-width: 1.5; stroke-linecap: square"/>
   </g>
   <g id="line2d_20">
    <path d="M 1299.098527 317.573022 
L 1300.216483 317.94385 
L 1301.33444 317.889363 
L 1302.452396 317.897369 
L 1303.570352 317.896193 
L 1304.688309 316.788316 
L 1305.806265 317.896341 
L 1306.924222 317.628162 
L 1308.042178 317.667566 
L 1309.160135 317.661777 
L 1310.278091 317.662627 
L 1311.396047 317.662502 
L 1312.514004 317.544778 
L 1313.63196 317.662518 
" clip-path="url(#p8814de5889)" style="fill: none; stroke: #ff0000; stroke-width: 1.5; stroke-linecap: square"/>
   </g>
   <g id="patch_3">
    <path d="M 35.304688 368.3955 
L 35.304688 35.7555 
" style="fill: none; stroke: #000000; stroke-width: 0.8; stroke-linejoin: miter; stroke-linecap: square"/>
   </g>
   <g id="patch_4">
    <path d="M 1374.504688 368.3955 
L 1374.504688 35.7555 
" style="fill: none; stroke: #000000; stroke-width: 0.8; stroke-linejoin: miter; stroke-linecap: square"/>
   </g>
   <g id="patch_5">
    <path d="M 35.304688 368.3955 
L 1374.504688 368.3955 
" style="fill: none; stroke: #000000; stroke-width: 0.8; stroke-linejoin: miter; stroke-linecap: square"/>
   </g>
   <g id="patch_6">
    <path d="M 35.304688 35.7555 
L 1374.504688 35.7555 
" style="fill: none; stroke: #000000; stroke-width: 0.8; stroke-linejoin: miter; stroke-linecap: square"/>
   </g>
   <g id="text_18">
    <!-- Daily Confirmed Cases Forecasting - Haiti -->
    <g transform="translate(580.529375 16.318125)scale(0.12 -0.12)">
     <defs>
      <path id="DejaVuSans-44" d="M 1259 4147 
L 1259 519 
L 2022 519 
Q 2988 519 3436 956 
Q 3884 1394 3884 2338 
Q 3884 3275 3436 3711 
Q 2988 4147 2022 4147 
L 1259 4147 
z
M 628 4666 
L 1925 4666 
Q 3281 4666 3915 4102 
Q 4550 3538 4550 2338 
Q 4550 1131 3912 565 
Q 3275 0 1925 0 
L 628 0 
L 628 4666 
z
" transform="scale(0.015625)"/>
      <path id="DejaVuSans-61" d="M 2194 1759 
Q 1497 1759 1228 1600 
Q 959 1441 959 1056 
Q 959 750 1161 570 
Q 1363 391 1709 391 
Q 2188 391 2477 730 
Q 2766 1069 2766 1631 
L 2766 1759 
L 2194 1759 
z
M 3341 1997 
L 3341 0 
L 2766 0 
L 2766 531 
Q 2569 213 2275 61 
Q 1981 -91 1556 -91 
Q 1019 -91 701 211 
Q 384 513 384 1019 
Q 384 1609 779 1909 
Q 1175 2209 1959 2209 
L 2766 2209 
L 2766 2266 
Q 2766 2663 2505 2880 
Q 2244 3097 1772 3097 
Q 1472 3097 1187 3025 
Q 903 2953 641 2809 
L 641 3341 
Q 956 3463 1253 3523 
Q 1550 3584 1831 3584 
Q 2591 3584 2966 3190 
Q 3341 2797 3341 1997 
z
" transform="scale(0.015625)"/>
      <path id="DejaVuSans-69" d="M 603 3500 
L 1178 3500 
L 1178 0 
L 603 0 
L 603 3500 
z
M 603 4863 
L 1178 4863 
L 1178 4134 
L 603 4134 
L 603 4863 
z
" transform="scale(0.015625)"/>
      <path id="DejaVuSans-6c" d="M 603 4863 
L 1178 4863 
L 1178 0 
L 603 0 
L 603 4863 
z
" transform="scale(0.015625)"/>
      <path id="DejaVuSans-79" d="M 2059 -325 
Q 1816 -950 1584 -1140 
Q 1353 -1331 966 -1331 
L 506 -1331 
L 506 -850 
L 844 -850 
Q 1081 -850 1212 -737 
Q 1344 -625 1503 -206 
L 1606 56 
L 191 3500 
L 800 3500 
L 1894 763 
L 2988 3500 
L 3597 3500 
L 2059 -325 
z
" transform="scale(0.015625)"/>
      <path id="DejaVuSans-20" transform="scale(0.015625)"/>
      <path id="DejaVuSans-43" d="M 4122 4306 
L 4122 3641 
Q 3803 3938 3442 4084 
Q 3081 4231 2675 4231 
Q 1875 4231 1450 3742 
Q 1025 3253 1025 2328 
Q 1025 1406 1450 917 
Q 1875 428 2675 428 
Q 3081 428 3442 575 
Q 3803 722 4122 1019 
L 4122 359 
Q 3791 134 3420 21 
Q 3050 -91 2638 -91 
Q 1578 -91 968 557 
Q 359 1206 359 2328 
Q 359 3453 968 4101 
Q 1578 4750 2638 4750 
Q 3056 4750 3426 4639 
Q 3797 4528 4122 4306 
z
" transform="scale(0.015625)"/>
      <path id="DejaVuSans-6f" d="M 1959 3097 
Q 1497 3097 1228 2736 
Q 959 2375 959 1747 
Q 959 1119 1226 758 
Q 1494 397 1959 397 
Q 2419 397 2687 759 
Q 2956 1122 2956 1747 
Q 2956 2369 2687 2733 
Q 2419 3097 1959 3097 
z
M 1959 3584 
Q 2709 3584 3137 3096 
Q 3566 2609 3566 1747 
Q 3566 888 3137 398 
Q 2709 -91 1959 -91 
Q 1206 -91 779 398 
Q 353 888 353 1747 
Q 353 2609 779 3096 
Q 1206 3584 1959 3584 
z
" transform="scale(0.015625)"/>
      <path id="DejaVuSans-6e" d="M 3513 2113 
L 3513 0 
L 2938 0 
L 2938 2094 
Q 2938 2591 2744 2837 
Q 2550 3084 2163 3084 
Q 1697 3084 1428 2787 
Q 1159 2491 1159 1978 
L 1159 0 
L 581 0 
L 581 3500 
L 1159 3500 
L 1159 2956 
Q 1366 3272 1645 3428 
Q 1925 3584 2291 3584 
Q 2894 3584 3203 3211 
Q 3513 2838 3513 2113 
z
" transform="scale(0.015625)"/>
      <path id="DejaVuSans-66" d="M 2375 4863 
L 2375 4384 
L 1825 4384 
Q 1516 4384 1395 4259 
Q 1275 4134 1275 3809 
L 1275 3500 
L 2222 3500 
L 2222 3053 
L 1275 3053 
L 1275 0 
L 697 0 
L 697 3053 
L 147 3053 
L 147 3500 
L 697 3500 
L 697 3744 
Q 697 4328 969 4595 
Q 1241 4863 1831 4863 
L 2375 4863 
z
" transform="scale(0.015625)"/>
      <path id="DejaVuSans-72" d="M 2631 2963 
Q 2534 3019 2420 3045 
Q 2306 3072 2169 3072 
Q 1681 3072 1420 2755 
Q 1159 2438 1159 1844 
L 1159 0 
L 581 0 
L 581 3500 
L 1159 3500 
L 1159 2956 
Q 1341 3275 1631 3429 
Q 1922 3584 2338 3584 
Q 2397 3584 2469 3576 
Q 2541 3569 2628 3553 
L 2631 2963 
z
" transform="scale(0.015625)"/>
      <path id="DejaVuSans-6d" d="M 3328 2828 
Q 3544 3216 3844 3400 
Q 4144 3584 4550 3584 
Q 5097 3584 5394 3201 
Q 5691 2819 5691 2113 
L 5691 0 
L 5113 0 
L 5113 2094 
Q 5113 2597 4934 2840 
Q 4756 3084 4391 3084 
Q 3944 3084 3684 2787 
Q 3425 2491 3425 1978 
L 3425 0 
L 2847 0 
L 2847 2094 
Q 2847 2600 2669 2842 
Q 2491 3084 2119 3084 
Q 1678 3084 1418 2786 
Q 1159 2488 1159 1978 
L 1159 0 
L 581 0 
L 581 3500 
L 1159 3500 
L 1159 2956 
Q 1356 3278 1631 3431 
Q 1906 3584 2284 3584 
Q 2666 3584 2933 3390 
Q 3200 3197 3328 2828 
z
" transform="scale(0.015625)"/>
      <path id="DejaVuSans-65" d="M 3597 1894 
L 3597 1613 
L 953 1613 
Q 991 1019 1311 708 
Q 1631 397 2203 397 
Q 2534 397 2845 478 
Q 3156 559 3463 722 
L 3463 178 
Q 3153 47 2828 -22 
Q 2503 -91 2169 -91 
Q 1331 -91 842 396 
Q 353 884 353 1716 
Q 353 2575 817 3079 
Q 1281 3584 2069 3584 
Q 2775 3584 3186 3129 
Q 3597 2675 3597 1894 
z
M 3022 2063 
Q 3016 2534 2758 2815 
Q 2500 3097 2075 3097 
Q 1594 3097 1305 2825 
Q 1016 2553 972 2059 
L 3022 2063 
z
" transform="scale(0.015625)"/>
      <path id="DejaVuSans-64" d="M 2906 2969 
L 2906 4863 
L 3481 4863 
L 3481 0 
L 2906 0 
L 2906 525 
Q 2725 213 2448 61 
Q 2172 -91 1784 -91 
Q 1150 -91 751 415 
Q 353 922 353 1747 
Q 353 2572 751 3078 
Q 1150 3584 1784 3584 
Q 2172 3584 2448 3432 
Q 2725 3281 2906 2969 
z
M 947 1747 
Q 947 1113 1208 752 
Q 1469 391 1925 391 
Q 2381 391 2643 752 
Q 2906 1113 2906 1747 
Q 2906 2381 2643 2742 
Q 2381 3103 1925 3103 
Q 1469 3103 1208 2742 
Q 947 2381 947 1747 
z
" transform="scale(0.015625)"/>
      <path id="DejaVuSans-73" d="M 2834 3397 
L 2834 2853 
Q 2591 2978 2328 3040 
Q 2066 3103 1784 3103 
Q 1356 3103 1142 2972 
Q 928 2841 928 2578 
Q 928 2378 1081 2264 
Q 1234 2150 1697 2047 
L 1894 2003 
Q 2506 1872 2764 1633 
Q 3022 1394 3022 966 
Q 3022 478 2636 193 
Q 2250 -91 1575 -91 
Q 1294 -91 989 -36 
Q 684 19 347 128 
L 347 722 
Q 666 556 975 473 
Q 1284 391 1588 391 
Q 1994 391 2212 530 
Q 2431 669 2431 922 
Q 2431 1156 2273 1281 
Q 2116 1406 1581 1522 
L 1381 1569 
Q 847 1681 609 1914 
Q 372 2147 372 2553 
Q 372 3047 722 3315 
Q 1072 3584 1716 3584 
Q 2034 3584 2315 3537 
Q 2597 3491 2834 3397 
z
" transform="scale(0.015625)"/>
      <path id="DejaVuSans-46" d="M 628 4666 
L 3309 4666 
L 3309 4134 
L 1259 4134 
L 1259 2759 
L 3109 2759 
L 3109 2228 
L 1259 2228 
L 1259 0 
L 628 0 
L 628 4666 
z
" transform="scale(0.015625)"/>
      <path id="DejaVuSans-63" d="M 3122 3366 
L 3122 2828 
Q 2878 2963 2633 3030 
Q 2388 3097 2138 3097 
Q 1578 3097 1268 2742 
Q 959 2388 959 1747 
Q 959 1106 1268 751 
Q 1578 397 2138 397 
Q 2388 397 2633 464 
Q 2878 531 3122 666 
L 3122 134 
Q 2881 22 2623 -34 
Q 2366 -91 2075 -91 
Q 1284 -91 818 406 
Q 353 903 353 1747 
Q 353 2603 823 3093 
Q 1294 3584 2113 3584 
Q 2378 3584 2631 3529 
Q 2884 3475 3122 3366 
z
" transform="scale(0.015625)"/>
      <path id="DejaVuSans-74" d="M 1172 4494 
L 1172 3500 
L 2356 3500 
L 2356 3053 
L 1172 3053 
L 1172 1153 
Q 1172 725 1289 603 
Q 1406 481 1766 481 
L 2356 481 
L 2356 0 
L 1766 0 
Q 1100 0 847 248 
Q 594 497 594 1153 
L 594 3053 
L 172 3053 
L 172 3500 
L 594 3500 
L 594 4494 
L 1172 4494 
z
" transform="scale(0.015625)"/>
      <path id="DejaVuSans-67" d="M 2906 1791 
Q 2906 2416 2648 2759 
Q 2391 3103 1925 3103 
Q 1463 3103 1205 2759 
Q 947 2416 947 1791 
Q 947 1169 1205 825 
Q 1463 481 1925 481 
Q 2391 481 2648 825 
Q 2906 1169 2906 1791 
z
M 3481 434 
Q 3481 -459 3084 -895 
Q 2688 -1331 1869 -1331 
Q 1566 -1331 1297 -1286 
Q 1028 -1241 775 -1147 
L 775 -588 
Q 1028 -725 1275 -790 
Q 1522 -856 1778 -856 
Q 2344 -856 2625 -561 
Q 2906 -266 2906 331 
L 2906 616 
Q 2728 306 2450 153 
Q 2172 0 1784 0 
Q 1141 0 747 490 
Q 353 981 353 1791 
Q 353 2603 747 3093 
Q 1141 3584 1784 3584 
Q 2172 3584 2450 3431 
Q 2728 3278 2906 2969 
L 2906 3500 
L 3481 3500 
L 3481 434 
z
" transform="scale(0.015625)"/>
      <path id="DejaVuSans-48" d="M 628 4666 
L 1259 4666 
L 1259 2753 
L 3553 2753 
L 3553 4666 
L 4184 4666 
L 4184 0 
L 3553 0 
L 3553 2222 
L 1259 2222 
L 1259 0 
L 628 0 
L 628 4666 
z
" transform="scale(0.015625)"/>
     </defs>
     <use xlink:href="#DejaVuSans-44"/>
     <use xlink:href="#DejaVuSans-61" x="77.001953"/>
     <use xlink:href="#DejaVuSans-69" x="138.28125"/>
     <use xlink:href="#DejaVuSans-6c" x="166.064453"/>
     <use xlink:href="#DejaVuSans-79" x="193.847656"/>
     <use xlink:href="#DejaVuSans-20" x="253.027344"/>
     <use xlink:href="#DejaVuSans-43" x="284.814453"/>
     <use xlink:href="#DejaVuSans-6f" x="354.638672"/>
     <use xlink:href="#DejaVuSans-6e" x="415.820312"/>
     <use xlink:href="#DejaVuSans-66" x="479.199219"/>
     <use xlink:href="#DejaVuSans-69" x="514.404297"/>
     <use xlink:href="#DejaVuSans-72" x="542.1875"/>
     <use xlink:href="#DejaVuSans-6d" x="581.550781"/>
     <use xlink:href="#DejaVuSans-65" x="678.962891"/>
     <use xlink:href="#DejaVuSans-64" x="740.486328"/>
     <use xlink:href="#DejaVuSans-20" x="803.962891"/>
     <use xlink:href="#DejaVuSans-43" x="835.75"/>
     <use xlink:href="#DejaVuSans-61" x="905.574219"/>
     <use xlink:href="#DejaVuSans-73" x="966.853516"/>
     <use xlink:href="#DejaVuSans-65" x="1018.953125"/>
     <use xlink:href="#DejaVuSans-73" x="1080.476562"/>
     <use xlink:href="#DejaVuSans-20" x="1132.576172"/>
     <use xlink:href="#DejaVuSans-46" x="1164.363281"/>
     <use xlink:href="#DejaVuSans-6f" x="1218.257812"/>
     <use xlink:href="#DejaVuSans-72" x="1279.439453"/>
     <use xlink:href="#DejaVuSans-65" x="1318.302734"/>
     <use xlink:href="#DejaVuSans-63" x="1379.826172"/>
     <use xlink:href="#DejaVuSans-61" x="1434.806641"/>
     <use xlink:href="#DejaVuSans-73" x="1496.085938"/>
     <use xlink:href="#DejaVuSans-74" x="1548.185547"/>
     <use xlink:href="#DejaVuSans-69" x="1587.394531"/>
     <use xlink:href="#DejaVuSans-6e" x="1615.177734"/>
     <use xlink:href="#DejaVuSans-67" x="1678.556641"/>
     <use xlink:href="#DejaVuSans-20" x="1742.033203"/>
     <use xlink:href="#DejaVuSans-2d" x="1773.820312"/>
     <use xlink:href="#DejaVuSans-20" x="1809.904297"/>
     <use xlink:href="#DejaVuSans-48" x="1841.691406"/>
     <use xlink:href="#DejaVuSans-61" x="1916.886719"/>
     <use xlink:href="#DejaVuSans-69" x="1978.166016"/>
     <use xlink:href="#DejaVuSans-74" x="2005.949219"/>
     <use xlink:href="#DejaVuSans-69" x="2045.158203"/>
    </g>
    <!-- ARIMA (1, 1, 1)x(1, 0, 0, 7) (R2 = 0.223361) -->
    <g transform="translate(572.920625 29.7555)scale(0.12 -0.12)">
     <defs>
      <path id="DejaVuSans-41" d="M 2188 4044 
L 1331 1722 
L 3047 1722 
L 2188 4044 
z
M 1831 4666 
L 2547 4666 
L 4325 0 
L 3669 0 
L 3244 1197 
L 1141 1197 
L 716 0 
L 50 0 
L 1831 4666 
z
" transform="scale(0.015625)"/>
      <path id="DejaVuSans-52" d="M 2841 2188 
Q 3044 2119 3236 1894 
Q 3428 1669 3622 1275 
L 4263 0 
L 3584 0 
L 2988 1197 
Q 2756 1666 2539 1819 
Q 2322 1972 1947 1972 
L 1259 1972 
L 1259 0 
L 628 0 
L 628 4666 
L 2053 4666 
Q 2853 4666 3247 4331 
Q 3641 3997 3641 3322 
Q 3641 2881 3436 2590 
Q 3231 2300 2841 2188 
z
M 1259 4147 
L 1259 2491 
L 2053 2491 
Q 2509 2491 2742 2702 
Q 2975 2913 2975 3322 
Q 2975 3731 2742 3939 
Q 2509 4147 2053 4147 
L 1259 4147 
z
" transform="scale(0.015625)"/>
      <path id="DejaVuSans-49" d="M 628 4666 
L 1259 4666 
L 1259 0 
L 628 0 
L 628 4666 
z
" transform="scale(0.015625)"/>
      <path id="DejaVuSans-4d" d="M 628 4666 
L 1569 4666 
L 2759 1491 
L 3956 4666 
L 4897 4666 
L 4897 0 
L 4281 0 
L 4281 4097 
L 3078 897 
L 2444 897 
L 1241 4097 
L 1241 0 
L 628 0 
L 628 4666 
z
" transform="scale(0.015625)"/>
      <path id="DejaVuSans-28" d="M 1984 4856 
Q 1566 4138 1362 3434 
Q 1159 2731 1159 2009 
Q 1159 1288 1364 580 
Q 1569 -128 1984 -844 
L 1484 -844 
Q 1016 -109 783 600 
Q 550 1309 550 2009 
Q 550 2706 781 3412 
Q 1013 4119 1484 4856 
L 1984 4856 
z
" transform="scale(0.015625)"/>
      <path id="DejaVuSans-2c" d="M 750 794 
L 1409 794 
L 1409 256 
L 897 -744 
L 494 -744 
L 750 256 
L 750 794 
z
" transform="scale(0.015625)"/>
      <path id="DejaVuSans-29" d="M 513 4856 
L 1013 4856 
Q 1481 4119 1714 3412 
Q 1947 2706 1947 2009 
Q 1947 1309 1714 600 
Q 1481 -109 1013 -844 
L 513 -844 
Q 928 -128 1133 580 
Q 1338 1288 1338 2009 
Q 1338 2731 1133 3434 
Q 928 4138 513 4856 
z
" transform="scale(0.015625)"/>
      <path id="DejaVuSans-78" d="M 3513 3500 
L 2247 1797 
L 3578 0 
L 2900 0 
L 1881 1375 
L 863 0 
L 184 0 
L 1544 1831 
L 300 3500 
L 978 3500 
L 1906 2253 
L 2834 3500 
L 3513 3500 
z
" transform="scale(0.015625)"/>
      <path id="DejaVuSans-37" d="M 525 4666 
L 3525 4666 
L 3525 4397 
L 1831 0 
L 1172 0 
L 2766 4134 
L 525 4134 
L 525 4666 
z
" transform="scale(0.015625)"/>
      <path id="DejaVuSans-3d" d="M 678 2906 
L 4684 2906 
L 4684 2381 
L 678 2381 
L 678 2906 
z
M 678 1631 
L 4684 1631 
L 4684 1100 
L 678 1100 
L 678 1631 
z
" transform="scale(0.015625)"/>
      <path id="DejaVuSans-2e" d="M 684 794 
L 1344 794 
L 1344 0 
L 684 0 
L 684 794 
z
" transform="scale(0.015625)"/>
      <path id="DejaVuSans-36" d="M 2113 2584 
Q 1688 2584 1439 2293 
Q 1191 2003 1191 1497 
Q 1191 994 1439 701 
Q 1688 409 2113 409 
Q 2538 409 2786 701 
Q 3034 994 3034 1497 
Q 3034 2003 2786 2293 
Q 2538 2584 2113 2584 
z
M 3366 4563 
L 3366 3988 
Q 3128 4100 2886 4159 
Q 2644 4219 2406 4219 
Q 1781 4219 1451 3797 
Q 1122 3375 1075 2522 
Q 1259 2794 1537 2939 
Q 1816 3084 2150 3084 
Q 2853 3084 3261 2657 
Q 3669 2231 3669 1497 
Q 3669 778 3244 343 
Q 2819 -91 2113 -91 
Q 1303 -91 875 529 
Q 447 1150 447 2328 
Q 447 3434 972 4092 
Q 1497 4750 2381 4750 
Q 2619 4750 2861 4703 
Q 3103 4656 3366 4563 
z
" transform="scale(0.015625)"/>
     </defs>
     <use xlink:href="#DejaVuSans-41"/>
     <use xlink:href="#DejaVuSans-52" x="68.408203"/>
     <use xlink:href="#DejaVuSans-49" x="137.890625"/>
     <use xlink:href="#DejaVuSans-4d" x="167.382812"/>
     <use xlink:href="#DejaVuSans-41" x="253.662109"/>
     <use xlink:href="#DejaVuSans-20" x="322.070312"/>
     <use xlink:href="#DejaVuSans-28" x="353.857422"/>
     <use xlink:href="#DejaVuSans-31" x="392.871094"/>
     <use xlink:href="#DejaVuSans-2c" x="456.494141"/>
     <use xlink:href="#DejaVuSans-20" x="488.28125"/>
     <use xlink:href="#DejaVuSans-31" x="520.068359"/>
     <use xlink:href="#DejaVuSans-2c" x="583.691406"/>
     <use xlink:href="#DejaVuSans-20" x="615.478516"/>
     <use xlink:href="#DejaVuSans-31" x="647.265625"/>
     <use xlink:href="#DejaVuSans-29" x="710.888672"/>
     <use xlink:href="#DejaVuSans-78" x="749.902344"/>
     <use xlink:href="#DejaVuSans-28" x="809.082031"/>
     <use xlink:href="#DejaVuSans-31" x="848.095703"/>
     <use xlink:href="#DejaVuSans-2c" x="911.71875"/>
     <use xlink:href="#DejaVuSans-20" x="943.505859"/>
     <use xlink:href="#DejaVuSans-30" x="975.292969"/>
     <use xlink:href="#DejaVuSans-2c" x="1038.916016"/>
     <use xlink:href="#DejaVuSans-20" x="1070.703125"/>
     <use xlink:href="#DejaVuSans-30" x="1102.490234"/>
     <use xlink:href="#DejaVuSans-2c" x="1166.113281"/>
     <use xlink:href="#DejaVuSans-20" x="1197.900391"/>
     <use xlink:href="#DejaVuSans-37" x="1229.6875"/>
     <use xlink:href="#DejaVuSans-29" x="1293.310547"/>
     <use xlink:href="#DejaVuSans-20" x="1332.324219"/>
     <use xlink:href="#DejaVuSans-28" x="1364.111328"/>
     <use xlink:href="#DejaVuSans-52" x="1403.125"/>
     <use xlink:href="#DejaVuSans-32" x="1472.607422"/>
     <use xlink:href="#DejaVuSans-20" x="1536.230469"/>
     <use xlink:href="#DejaVuSans-3d" x="1568.017578"/>
     <use xlink:href="#DejaVuSans-20" x="1651.806641"/>
     <use xlink:href="#DejaVuSans-30" x="1683.59375"/>
     <use xlink:href="#DejaVuSans-2e" x="1747.216797"/>
     <use xlink:href="#DejaVuSans-32" x="1779.003906"/>
     <use xlink:href="#DejaVuSans-32" x="1842.626953"/>
     <use xlink:href="#DejaVuSans-33" x="1906.25"/>
     <use xlink:href="#DejaVuSans-33" x="1969.873047"/>
     <use xlink:href="#DejaVuSans-36" x="2033.496094"/>
     <use xlink:href="#DejaVuSans-31" x="2097.119141"/>
     <use xlink:href="#DejaVuSans-29" x="2160.742188"/>
    </g>
   </g>
   <g id="legend_1">
    <g id="patch_7">
     <path d="M 1270.425 87.789875 
L 1367.504688 87.789875 
Q 1369.504688 87.789875 1369.504688 85.789875 
L 1369.504688 42.7555 
Q 1369.504688 40.7555 1367.504688 40.7555 
L 1270.425 40.7555 
Q 1268.425 40.7555 1268.425 42.7555 
L 1268.425 85.789875 
Q 1268.425 87.789875 1270.425 87.789875 
z
" style="fill: #ffffff; opacity: 0.8; stroke: #cccccc; stroke-linejoin: miter"/>
    </g>
    <g id="line2d_21">
     <path d="M 1272.425 48.853937 
L 1282.425 48.853937 
L 1292.425 48.853937 
" style="fill: none; stroke: #0000ff; stroke-width: 1.5; stroke-linecap: square"/>
    </g>
    <g id="text_19">
     <!-- Actual Value -->
     <g transform="translate(1300.425 52.353937)scale(0.1 -0.1)">
      <defs>
       <path id="DejaVuSans-75" d="M 544 1381 
L 544 3500 
L 1119 3500 
L 1119 1403 
Q 1119 906 1312 657 
Q 1506 409 1894 409 
Q 2359 409 2629 706 
Q 2900 1003 2900 1516 
L 2900 3500 
L 3475 3500 
L 3475 0 
L 2900 0 
L 2900 538 
Q 2691 219 2414 64 
Q 2138 -91 1772 -91 
Q 1169 -91 856 284 
Q 544 659 544 1381 
z
M 1991 3584 
L 1991 3584 
z
" transform="scale(0.015625)"/>
       <path id="DejaVuSans-56" d="M 1831 0 
L 50 4666 
L 709 4666 
L 2188 738 
L 3669 4666 
L 4325 4666 
L 2547 0 
L 1831 0 
z
" transform="scale(0.015625)"/>
      </defs>
      <use xlink:href="#DejaVuSans-41"/>
      <use xlink:href="#DejaVuSans-63" x="66.658203"/>
      <use xlink:href="#DejaVuSans-74" x="121.638672"/>
      <use xlink:href="#DejaVuSans-75" x="160.847656"/>
      <use xlink:href="#DejaVuSans-61" x="224.226562"/>
      <use xlink:href="#DejaVuSans-6c" x="285.505859"/>
      <use xlink:href="#DejaVuSans-20" x="313.289062"/>
      <use xlink:href="#DejaVuSans-56" x="345.076172"/>
      <use xlink:href="#DejaVuSans-61" x="405.734375"/>
      <use xlink:href="#DejaVuSans-6c" x="467.013672"/>
      <use xlink:href="#DejaVuSans-75" x="494.796875"/>
      <use xlink:href="#DejaVuSans-65" x="558.175781"/>
     </g>
    </g>
    <g id="line2d_22">
     <path d="M 1272.425 63.532062 
L 1282.425 63.532062 
L 1292.425 63.532062 
" style="fill: none; stroke: #ffa500; stroke-width: 1.5; stroke-linecap: square"/>
    </g>
    <g id="text_20">
     <!-- Check Value -->
     <g transform="translate(1300.425 67.032062)scale(0.1 -0.1)">
      <defs>
       <path id="DejaVuSans-68" d="M 3513 2113 
L 3513 0 
L 2938 0 
L 2938 2094 
Q 2938 2591 2744 2837 
Q 2550 3084 2163 3084 
Q 1697 3084 1428 2787 
Q 1159 2491 1159 1978 
L 1159 0 
L 581 0 
L 581 4863 
L 1159 4863 
L 1159 2956 
Q 1366 3272 1645 3428 
Q 1925 3584 2291 3584 
Q 2894 3584 3203 3211 
Q 3513 2838 3513 2113 
z
" transform="scale(0.015625)"/>
       <path id="DejaVuSans-6b" d="M 581 4863 
L 1159 4863 
L 1159 1991 
L 2875 3500 
L 3609 3500 
L 1753 1863 
L 3688 0 
L 2938 0 
L 1159 1709 
L 1159 0 
L 581 0 
L 581 4863 
z
" transform="scale(0.015625)"/>
      </defs>
      <use xlink:href="#DejaVuSans-43"/>
      <use xlink:href="#DejaVuSans-68" x="69.824219"/>
      <use xlink:href="#DejaVuSans-65" x="133.203125"/>
      <use xlink:href="#DejaVuSans-63" x="194.726562"/>
      <use xlink:href="#DejaVuSans-6b" x="249.707031"/>
      <use xlink:href="#DejaVuSans-20" x="307.617188"/>
      <use xlink:href="#DejaVuSans-56" x="339.404297"/>
      <use xlink:href="#DejaVuSans-61" x="400.0625"/>
      <use xlink:href="#DejaVuSans-6c" x="461.341797"/>
      <use xlink:href="#DejaVuSans-75" x="489.125"/>
      <use xlink:href="#DejaVuSans-65" x="552.503906"/>
     </g>
    </g>
    <g id="line2d_23">
     <path d="M 1272.425 78.210187 
L 1282.425 78.210187 
L 1292.425 78.210187 
" style="fill: none; stroke: #ff0000; stroke-width: 1.5; stroke-linecap: square"/>
    </g>
    <g id="text_21">
     <!-- Predict Value -->
     <g transform="translate(1300.425 81.710187)scale(0.1 -0.1)">
      <defs>
       <path id="DejaVuSans-50" d="M 1259 4147 
L 1259 2394 
L 2053 2394 
Q 2494 2394 2734 2622 
Q 2975 2850 2975 3272 
Q 2975 3691 2734 3919 
Q 2494 4147 2053 4147 
L 1259 4147 
z
M 628 4666 
L 2053 4666 
Q 2838 4666 3239 4311 
Q 3641 3956 3641 3272 
Q 3641 2581 3239 2228 
Q 2838 1875 2053 1875 
L 1259 1875 
L 1259 0 
L 628 0 
L 628 4666 
z
" transform="scale(0.015625)"/>
      </defs>
      <use xlink:href="#DejaVuSans-50"/>
      <use xlink:href="#DejaVuSans-72" x="58.552734"/>
      <use xlink:href="#DejaVuSans-65" x="97.416016"/>
      <use xlink:href="#DejaVuSans-64" x="158.939453"/>
      <use xlink:href="#DejaVuSans-69" x="222.416016"/>
      <use xlink:href="#DejaVuSans-63" x="250.199219"/>
      <use xlink:href="#DejaVuSans-74" x="305.179688"/>
      <use xlink:href="#DejaVuSans-20" x="344.388672"/>
      <use xlink:href="#DejaVuSans-56" x="376.175781"/>
      <use xlink:href="#DejaVuSans-61" x="436.833984"/>
      <use xlink:href="#DejaVuSans-6c" x="498.113281"/>
      <use xlink:href="#DejaVuSans-75" x="525.896484"/>
      <use xlink:href="#DejaVuSans-65" x="589.275391"/>
     </g>
    </g>
   </g>
  </g>
 </g>
 <defs>
  <clipPath id="p8814de5889">
   <rect x="35.304688" y="35.7555" width="1339.2" height="332.64"/>
  </clipPath>
 </defs>
</svg>
