<?xml version="1.0" encoding="utf-8" standalone="no"?>
<!DOCTYPE svg PUBLIC "-//W3C//DTD SVG 1.1//EN"
  "http://www.w3.org/Graphics/SVG/1.1/DTD/svg11.dtd">
<svg xmlns:xlink="http://www.w3.org/1999/xlink" width="1386.05pt" height="392.273625pt" viewBox="0 0 1386.05 392.273625" xmlns="http://www.w3.org/2000/svg" version="1.1">
 <metadata>
  <rdf:RDF xmlns:dc="http://purl.org/dc/elements/1.1/" xmlns:cc="http://creativecommons.org/ns#" xmlns:rdf="http://www.w3.org/1999/02/22-rdf-syntax-ns#">
   <cc:Work>
    <dc:type rdf:resource="http://purl.org/dc/dcmitype/StillImage"/>
    <dc:date>2022-12-01T19:28:02.931866</dc:date>
    <dc:format>image/svg+xml</dc:format>
    <dc:creator>
     <cc:Agent>
      <dc:title>Matplotlib v3.5.1, https://matplotlib.org/</dc:title>
     </cc:Agent>
    </dc:creator>
   </cc:Work>
  </rdf:RDF>
 </metadata>
 <defs>
  <style type="text/css">*{stroke-linejoin: round; stroke-linecap: butt}</style>
 </defs>
 <g id="figure_1">
  <g id="patch_1">
   <path d="M 0 392.273625 
L 1386.05 392.273625 
L 1386.05 0 
L 0 0 
z
" style="fill: #ffffff"/>
  </g>
  <g id="axes_1">
   <g id="patch_2">
    <path d="M 39.65 368.3955 
L 1378.85 368.3955 
L 1378.85 35.7555 
L 39.65 35.7555 
z
" style="fill: #ffffff"/>
   </g>
   <g id="matplotlib.axis_1">
    <g id="xtick_1">
     <g id="line2d_1">
      <defs>
       <path id="m3380ce6904" d="M 0 0 
L 0 3.5 
" style="stroke: #000000; stroke-width: 0.8"/>
      </defs>
      <g>
       <use xlink:href="#m3380ce6904" x="75.159091" y="368.3955" style="stroke: #000000; stroke-width: 0.8"/>
      </g>
     </g>
     <g id="text_1">
      <!-- 2020-01 -->
      <g transform="translate(54.267685 382.993937)scale(0.1 -0.1)">
       <defs>
        <path id="DejaVuSans-32" d="M 1228 531 
L 3431 531 
L 3431 0 
L 469 0 
L 469 531 
Q 828 903 1448 1529 
Q 2069 2156 2228 2338 
Q 2531 2678 2651 2914 
Q 2772 3150 2772 3378 
Q 2772 3750 2511 3984 
Q 2250 4219 1831 4219 
Q 1534 4219 1204 4116 
Q 875 4013 500 3803 
L 500 4441 
Q 881 4594 1212 4672 
Q 1544 4750 1819 4750 
Q 2544 4750 2975 4387 
Q 3406 4025 3406 3419 
Q 3406 3131 3298 2873 
Q 3191 2616 2906 2266 
Q 2828 2175 2409 1742 
Q 1991 1309 1228 531 
z
" transform="scale(0.015625)"/>
        <path id="DejaVuSans-30" d="M 2034 4250 
Q 1547 4250 1301 3770 
Q 1056 3291 1056 2328 
Q 1056 1369 1301 889 
Q 1547 409 2034 409 
Q 2525 409 2770 889 
Q 3016 1369 3016 2328 
Q 3016 3291 2770 3770 
Q 2525 4250 2034 4250 
z
M 2034 4750 
Q 2819 4750 3233 4129 
Q 3647 3509 3647 2328 
Q 3647 1150 3233 529 
Q 2819 -91 2034 -91 
Q 1250 -91 836 529 
Q 422 1150 422 2328 
Q 422 3509 836 4129 
Q 1250 4750 2034 4750 
z
" transform="scale(0.015625)"/>
        <path id="DejaVuSans-2d" d="M 313 2009 
L 1997 2009 
L 1997 1497 
L 313 1497 
L 313 2009 
z
" transform="scale(0.015625)"/>
        <path id="DejaVuSans-31" d="M 794 531 
L 1825 531 
L 1825 4091 
L 703 3866 
L 703 4441 
L 1819 4666 
L 2450 4666 
L 2450 531 
L 3481 531 
L 3481 0 
L 794 0 
L 794 531 
z
" transform="scale(0.015625)"/>
       </defs>
       <use xlink:href="#DejaVuSans-32"/>
       <use xlink:href="#DejaVuSans-30" x="63.623047"/>
       <use xlink:href="#DejaVuSans-32" x="127.246094"/>
       <use xlink:href="#DejaVuSans-30" x="190.869141"/>
       <use xlink:href="#DejaVuSans-2d" x="254.492188"/>
       <use xlink:href="#DejaVuSans-30" x="290.576172"/>
       <use xlink:href="#DejaVuSans-31" x="354.199219"/>
      </g>
     </g>
    </g>
    <g id="xtick_2">
     <g id="line2d_2">
      <g>
       <use xlink:href="#m3380ce6904" x="214.659091" y="368.3955" style="stroke: #000000; stroke-width: 0.8"/>
      </g>
     </g>
     <g id="text_2">
      <!-- 2020-05 -->
      <g transform="translate(193.767685 382.993937)scale(0.1 -0.1)">
       <defs>
        <path id="DejaVuSans-35" d="M 691 4666 
L 3169 4666 
L 3169 4134 
L 1269 4134 
L 1269 2991 
Q 1406 3038 1543 3061 
Q 1681 3084 1819 3084 
Q 2600 3084 3056 2656 
Q 3513 2228 3513 1497 
Q 3513 744 3044 326 
Q 2575 -91 1722 -91 
Q 1428 -91 1123 -41 
Q 819 9 494 109 
L 494 744 
Q 775 591 1075 516 
Q 1375 441 1709 441 
Q 2250 441 2565 725 
Q 2881 1009 2881 1497 
Q 2881 1984 2565 2268 
Q 2250 2553 1709 2553 
Q 1456 2553 1204 2497 
Q 953 2441 691 2322 
L 691 4666 
z
" transform="scale(0.015625)"/>
       </defs>
       <use xlink:href="#DejaVuSans-32"/>
       <use xlink:href="#DejaVuSans-30" x="63.623047"/>
       <use xlink:href="#DejaVuSans-32" x="127.246094"/>
       <use xlink:href="#DejaVuSans-30" x="190.869141"/>
       <use xlink:href="#DejaVuSans-2d" x="254.492188"/>
       <use xlink:href="#DejaVuSans-30" x="290.576172"/>
       <use xlink:href="#DejaVuSans-35" x="354.199219"/>
      </g>
     </g>
    </g>
    <g id="xtick_3">
     <g id="line2d_3">
      <g>
       <use xlink:href="#m3380ce6904" x="356.464876" y="368.3955" style="stroke: #000000; stroke-width: 0.8"/>
      </g>
     </g>
     <g id="text_3">
      <!-- 2020-09 -->
      <g transform="translate(335.57347 382.993937)scale(0.1 -0.1)">
       <defs>
        <path id="DejaVuSans-39" d="M 703 97 
L 703 672 
Q 941 559 1184 500 
Q 1428 441 1663 441 
Q 2288 441 2617 861 
Q 2947 1281 2994 2138 
Q 2813 1869 2534 1725 
Q 2256 1581 1919 1581 
Q 1219 1581 811 2004 
Q 403 2428 403 3163 
Q 403 3881 828 4315 
Q 1253 4750 1959 4750 
Q 2769 4750 3195 4129 
Q 3622 3509 3622 2328 
Q 3622 1225 3098 567 
Q 2575 -91 1691 -91 
Q 1453 -91 1209 -44 
Q 966 3 703 97 
z
M 1959 2075 
Q 2384 2075 2632 2365 
Q 2881 2656 2881 3163 
Q 2881 3666 2632 3958 
Q 2384 4250 1959 4250 
Q 1534 4250 1286 3958 
Q 1038 3666 1038 3163 
Q 1038 2656 1286 2365 
Q 1534 2075 1959 2075 
z
" transform="scale(0.015625)"/>
       </defs>
       <use xlink:href="#DejaVuSans-32"/>
       <use xlink:href="#DejaVuSans-30" x="63.623047"/>
       <use xlink:href="#DejaVuSans-32" x="127.246094"/>
       <use xlink:href="#DejaVuSans-30" x="190.869141"/>
       <use xlink:href="#DejaVuSans-2d" x="254.492188"/>
       <use xlink:href="#DejaVuSans-30" x="290.576172"/>
       <use xlink:href="#DejaVuSans-39" x="354.199219"/>
      </g>
     </g>
    </g>
    <g id="xtick_4">
     <g id="line2d_4">
      <g>
       <use xlink:href="#m3380ce6904" x="497.117769" y="368.3955" style="stroke: #000000; stroke-width: 0.8"/>
      </g>
     </g>
     <g id="text_4">
      <!-- 2021-01 -->
      <g transform="translate(476.226362 382.993937)scale(0.1 -0.1)">
       <use xlink:href="#DejaVuSans-32"/>
       <use xlink:href="#DejaVuSans-30" x="63.623047"/>
       <use xlink:href="#DejaVuSans-32" x="127.246094"/>
       <use xlink:href="#DejaVuSans-31" x="190.869141"/>
       <use xlink:href="#DejaVuSans-2d" x="254.492188"/>
       <use xlink:href="#DejaVuSans-30" x="290.576172"/>
       <use xlink:href="#DejaVuSans-31" x="354.199219"/>
      </g>
     </g>
    </g>
    <g id="xtick_5">
     <g id="line2d_5">
      <g>
       <use xlink:href="#m3380ce6904" x="635.464876" y="368.3955" style="stroke: #000000; stroke-width: 0.8"/>
      </g>
     </g>
     <g id="text_5">
      <!-- 2021-05 -->
      <g transform="translate(614.57347 382.993937)scale(0.1 -0.1)">
       <use xlink:href="#DejaVuSans-32"/>
       <use xlink:href="#DejaVuSans-30" x="63.623047"/>
       <use xlink:href="#DejaVuSans-32" x="127.246094"/>
       <use xlink:href="#DejaVuSans-31" x="190.869141"/>
       <use xlink:href="#DejaVuSans-2d" x="254.492188"/>
       <use xlink:href="#DejaVuSans-30" x="290.576172"/>
       <use xlink:href="#DejaVuSans-35" x="354.199219"/>
      </g>
     </g>
    </g>
    <g id="xtick_6">
     <g id="line2d_6">
      <g>
       <use xlink:href="#m3380ce6904" x="777.270661" y="368.3955" style="stroke: #000000; stroke-width: 0.8"/>
      </g>
     </g>
     <g id="text_6">
      <!-- 2021-09 -->
      <g transform="translate(756.379255 382.993937)scale(0.1 -0.1)">
       <use xlink:href="#DejaVuSans-32"/>
       <use xlink:href="#DejaVuSans-30" x="63.623047"/>
       <use xlink:href="#DejaVuSans-32" x="127.246094"/>
       <use xlink:href="#DejaVuSans-31" x="190.869141"/>
       <use xlink:href="#DejaVuSans-2d" x="254.492188"/>
       <use xlink:href="#DejaVuSans-30" x="290.576172"/>
       <use xlink:href="#DejaVuSans-39" x="354.199219"/>
      </g>
     </g>
    </g>
    <g id="xtick_7">
     <g id="line2d_7">
      <g>
       <use xlink:href="#m3380ce6904" x="917.923554" y="368.3955" style="stroke: #000000; stroke-width: 0.8"/>
      </g>
     </g>
     <g id="text_7">
      <!-- 2022-01 -->
      <g transform="translate(897.032147 382.993937)scale(0.1 -0.1)">
       <use xlink:href="#DejaVuSans-32"/>
       <use xlink:href="#DejaVuSans-30" x="63.623047"/>
       <use xlink:href="#DejaVuSans-32" x="127.246094"/>
       <use xlink:href="#DejaVuSans-32" x="190.869141"/>
       <use xlink:href="#DejaVuSans-2d" x="254.492188"/>
       <use xlink:href="#DejaVuSans-30" x="290.576172"/>
       <use xlink:href="#DejaVuSans-31" x="354.199219"/>
      </g>
     </g>
    </g>
    <g id="xtick_8">
     <g id="line2d_8">
      <g>
       <use xlink:href="#m3380ce6904" x="1056.270661" y="368.3955" style="stroke: #000000; stroke-width: 0.8"/>
      </g>
     </g>
     <g id="text_8">
      <!-- 2022-05 -->
      <g transform="translate(1035.379255 382.993937)scale(0.1 -0.1)">
       <use xlink:href="#DejaVuSans-32"/>
       <use xlink:href="#DejaVuSans-30" x="63.623047"/>
       <use xlink:href="#DejaVuSans-32" x="127.246094"/>
       <use xlink:href="#DejaVuSans-32" x="190.869141"/>
       <use xlink:href="#DejaVuSans-2d" x="254.492188"/>
       <use xlink:href="#DejaVuSans-30" x="290.576172"/>
       <use xlink:href="#DejaVuSans-35" x="354.199219"/>
      </g>
     </g>
    </g>
    <g id="xtick_9">
     <g id="line2d_9">
      <g>
       <use xlink:href="#m3380ce6904" x="1198.076446" y="368.3955" style="stroke: #000000; stroke-width: 0.8"/>
      </g>
     </g>
     <g id="text_9">
      <!-- 2022-09 -->
      <g transform="translate(1177.18504 382.993937)scale(0.1 -0.1)">
       <use xlink:href="#DejaVuSans-32"/>
       <use xlink:href="#DejaVuSans-30" x="63.623047"/>
       <use xlink:href="#DejaVuSans-32" x="127.246094"/>
       <use xlink:href="#DejaVuSans-32" x="190.869141"/>
       <use xlink:href="#DejaVuSans-2d" x="254.492188"/>
       <use xlink:href="#DejaVuSans-30" x="290.576172"/>
       <use xlink:href="#DejaVuSans-39" x="354.199219"/>
      </g>
     </g>
    </g>
    <g id="xtick_10">
     <g id="line2d_10">
      <g>
       <use xlink:href="#m3380ce6904" x="1338.729339" y="368.3955" style="stroke: #000000; stroke-width: 0.8"/>
      </g>
     </g>
     <g id="text_10">
      <!-- 2023-01 -->
      <g transform="translate(1317.837933 382.993937)scale(0.1 -0.1)">
       <defs>
        <path id="DejaVuSans-33" d="M 2597 2516 
Q 3050 2419 3304 2112 
Q 3559 1806 3559 1356 
Q 3559 666 3084 287 
Q 2609 -91 1734 -91 
Q 1441 -91 1130 -33 
Q 819 25 488 141 
L 488 750 
Q 750 597 1062 519 
Q 1375 441 1716 441 
Q 2309 441 2620 675 
Q 2931 909 2931 1356 
Q 2931 1769 2642 2001 
Q 2353 2234 1838 2234 
L 1294 2234 
L 1294 2753 
L 1863 2753 
Q 2328 2753 2575 2939 
Q 2822 3125 2822 3475 
Q 2822 3834 2567 4026 
Q 2313 4219 1838 4219 
Q 1578 4219 1281 4162 
Q 984 4106 628 3988 
L 628 4550 
Q 988 4650 1302 4700 
Q 1616 4750 1894 4750 
Q 2613 4750 3031 4423 
Q 3450 4097 3450 3541 
Q 3450 3153 3228 2886 
Q 3006 2619 2597 2516 
z
" transform="scale(0.015625)"/>
       </defs>
       <use xlink:href="#DejaVuSans-32"/>
       <use xlink:href="#DejaVuSans-30" x="63.623047"/>
       <use xlink:href="#DejaVuSans-32" x="127.246094"/>
       <use xlink:href="#DejaVuSans-33" x="190.869141"/>
       <use xlink:href="#DejaVuSans-2d" x="254.492188"/>
       <use xlink:href="#DejaVuSans-30" x="290.576172"/>
       <use xlink:href="#DejaVuSans-31" x="354.199219"/>
      </g>
     </g>
    </g>
   </g>
   <g id="matplotlib.axis_2">
    <g id="ytick_1">
     <g id="line2d_11">
      <defs>
       <path id="m6c43711aa6" d="M 0 0 
L -3.5 0 
" style="stroke: #000000; stroke-width: 0.8"/>
      </defs>
      <g>
       <use xlink:href="#m6c43711aa6" x="39.65" y="353.078089" style="stroke: #000000; stroke-width: 0.8"/>
      </g>
     </g>
     <g id="text_11">
      <!-- 0 -->
      <g transform="translate(26.2875 356.877308)scale(0.1 -0.1)">
       <use xlink:href="#DejaVuSans-30"/>
      </g>
     </g>
    </g>
    <g id="ytick_2">
     <g id="line2d_12">
      <g>
       <use xlink:href="#m6c43711aa6" x="39.65" y="287.274586" style="stroke: #000000; stroke-width: 0.8"/>
      </g>
     </g>
     <g id="text_12">
      <!-- 2000 -->
      <g transform="translate(7.2 291.073805)scale(0.1 -0.1)">
       <use xlink:href="#DejaVuSans-32"/>
       <use xlink:href="#DejaVuSans-30" x="63.623047"/>
       <use xlink:href="#DejaVuSans-30" x="127.246094"/>
       <use xlink:href="#DejaVuSans-30" x="190.869141"/>
      </g>
     </g>
    </g>
    <g id="ytick_3">
     <g id="line2d_13">
      <g>
       <use xlink:href="#m6c43711aa6" x="39.65" y="221.471083" style="stroke: #000000; stroke-width: 0.8"/>
      </g>
     </g>
     <g id="text_13">
      <!-- 4000 -->
      <g transform="translate(7.2 225.270301)scale(0.1 -0.1)">
       <defs>
        <path id="DejaVuSans-34" d="M 2419 4116 
L 825 1625 
L 2419 1625 
L 2419 4116 
z
M 2253 4666 
L 3047 4666 
L 3047 1625 
L 3713 1625 
L 3713 1100 
L 3047 1100 
L 3047 0 
L 2419 0 
L 2419 1100 
L 313 1100 
L 313 1709 
L 2253 4666 
z
" transform="scale(0.015625)"/>
       </defs>
       <use xlink:href="#DejaVuSans-34"/>
       <use xlink:href="#DejaVuSans-30" x="63.623047"/>
       <use xlink:href="#DejaVuSans-30" x="127.246094"/>
       <use xlink:href="#DejaVuSans-30" x="190.869141"/>
      </g>
     </g>
    </g>
    <g id="ytick_4">
     <g id="line2d_14">
      <g>
       <use xlink:href="#m6c43711aa6" x="39.65" y="155.667579" style="stroke: #000000; stroke-width: 0.8"/>
      </g>
     </g>
     <g id="text_14">
      <!-- 6000 -->
      <g transform="translate(7.2 159.466798)scale(0.1 -0.1)">
       <defs>
        <path id="DejaVuSans-36" d="M 2113 2584 
Q 1688 2584 1439 2293 
Q 1191 2003 1191 1497 
Q 1191 994 1439 701 
Q 1688 409 2113 409 
Q 2538 409 2786 701 
Q 3034 994 3034 1497 
Q 3034 2003 2786 2293 
Q 2538 2584 2113 2584 
z
M 3366 4563 
L 3366 3988 
Q 3128 4100 2886 4159 
Q 2644 4219 2406 4219 
Q 1781 4219 1451 3797 
Q 1122 3375 1075 2522 
Q 1259 2794 1537 2939 
Q 1816 3084 2150 3084 
Q 2853 3084 3261 2657 
Q 3669 2231 3669 1497 
Q 3669 778 3244 343 
Q 2819 -91 2113 -91 
Q 1303 -91 875 529 
Q 447 1150 447 2328 
Q 447 3434 972 4092 
Q 1497 4750 2381 4750 
Q 2619 4750 2861 4703 
Q 3103 4656 3366 4563 
z
" transform="scale(0.015625)"/>
       </defs>
       <use xlink:href="#DejaVuSans-36"/>
       <use xlink:href="#DejaVuSans-30" x="63.623047"/>
       <use xlink:href="#DejaVuSans-30" x="127.246094"/>
       <use xlink:href="#DejaVuSans-30" x="190.869141"/>
      </g>
     </g>
    </g>
    <g id="ytick_5">
     <g id="line2d_15">
      <g>
       <use xlink:href="#m6c43711aa6" x="39.65" y="89.864076" style="stroke: #000000; stroke-width: 0.8"/>
      </g>
     </g>
     <g id="text_15">
      <!-- 8000 -->
      <g transform="translate(7.2 93.663295)scale(0.1 -0.1)">
       <defs>
        <path id="DejaVuSans-38" d="M 2034 2216 
Q 1584 2216 1326 1975 
Q 1069 1734 1069 1313 
Q 1069 891 1326 650 
Q 1584 409 2034 409 
Q 2484 409 2743 651 
Q 3003 894 3003 1313 
Q 3003 1734 2745 1975 
Q 2488 2216 2034 2216 
z
M 1403 2484 
Q 997 2584 770 2862 
Q 544 3141 544 3541 
Q 544 4100 942 4425 
Q 1341 4750 2034 4750 
Q 2731 4750 3128 4425 
Q 3525 4100 3525 3541 
Q 3525 3141 3298 2862 
Q 3072 2584 2669 2484 
Q 3125 2378 3379 2068 
Q 3634 1759 3634 1313 
Q 3634 634 3220 271 
Q 2806 -91 2034 -91 
Q 1263 -91 848 271 
Q 434 634 434 1313 
Q 434 1759 690 2068 
Q 947 2378 1403 2484 
z
M 1172 3481 
Q 1172 3119 1398 2916 
Q 1625 2713 2034 2713 
Q 2441 2713 2670 2916 
Q 2900 3119 2900 3481 
Q 2900 3844 2670 4047 
Q 2441 4250 2034 4250 
Q 1625 4250 1398 4047 
Q 1172 3844 1172 3481 
z
" transform="scale(0.015625)"/>
       </defs>
       <use xlink:href="#DejaVuSans-38"/>
       <use xlink:href="#DejaVuSans-30" x="63.623047"/>
       <use xlink:href="#DejaVuSans-30" x="127.246094"/>
       <use xlink:href="#DejaVuSans-30" x="190.869141"/>
      </g>
     </g>
    </g>
   </g>
   <g id="line2d_16">
    <path d="M 100.522727 353.078089 
L 195.059917 353.078089 
L 196.21281 352.880679 
L 197.365702 353.078089 
L 200.82438 353.078089 
L 212.353306 353.078089 
L 213.506198 352.814875 
L 215.811983 353.2755 
L 216.964876 353.078089 
L 229.646694 353.078089 
L 230.799587 352.913581 
L 231.952479 353.078089 
L 234.258264 353.012286 
L 235.411157 353.078089 
L 237.716942 352.979384 
L 238.869835 353.078089 
L 240.022727 352.913581 
L 241.17562 353.078089 
L 243.481405 353.078089 
L 244.634298 350.577556 
L 245.78719 352.51876 
L 246.940083 353.078089 
L 248.092975 352.255546 
L 249.245868 352.946482 
L 250.39876 352.255546 
L 251.551653 352.979384 
L 252.704545 352.551661 
L 253.857438 352.584563 
L 255.010331 352.15684 
L 257.316116 352.979384 
L 258.469008 352.913581 
L 259.621901 352.189742 
L 260.774793 352.880679 
L 261.927686 352.683268 
L 264.233471 352.650367 
L 265.386364 352.189742 
L 266.539256 352.946482 
L 267.692149 352.946482 
L 268.845041 352.749072 
L 269.997934 351.038181 
L 271.150826 352.551661 
L 272.303719 353.078089 
L 274.609504 352.321349 
L 276.915289 352.913581 
L 278.068182 352.387153 
L 279.221074 352.749072 
L 281.52686 353.078089 
L 283.832645 352.51876 
L 287.291322 352.814875 
L 288.444215 350.676262 
L 289.597107 352.485858 
L 290.75 352.485858 
L 291.902893 351.334297 
L 293.055785 349.853718 
L 294.208678 353.078089 
L 295.36157 351.20269 
L 296.514463 351.762019 
L 297.667355 352.979384 
L 298.820248 351.465904 
L 299.97314 352.091037 
L 301.126033 352.255546 
L 302.278926 344.095911 
L 303.431818 351.169788 
L 304.584711 351.169788 
L 305.737603 348.702157 
L 306.890496 349.722111 
L 308.043388 349.557602 
L 309.196281 346.037115 
L 310.349174 350.116932 
L 311.502066 347.418988 
L 312.654959 348.537648 
L 313.807851 350.511753 
L 314.960744 346.760953 
L 316.113636 349.360192 
L 317.266529 351.038181 
L 318.419421 346.070016 
L 319.572314 350.544655 
L 320.725207 336.956231 
L 321.878099 344.457831 
L 323.030992 348.01122 
L 324.183884 348.274434 
L 325.336777 353.078089 
L 326.489669 349.195683 
L 327.642562 349.393093 
L 328.795455 348.998272 
L 329.948347 350.64336 
L 331.10124 349.820816 
L 332.254132 350.774967 
L 333.407025 350.610458 
L 334.559917 349.88662 
L 335.71281 350.380146 
L 336.865702 349.656307 
L 338.018595 350.281441 
L 339.171488 351.531707 
L 340.32438 350.774967 
L 341.477273 344.359125 
L 342.630165 349.722111 
L 343.783058 350.774967 
L 344.93595 350.511753 
L 346.088843 351.860725 
L 347.241736 348.471844 
L 348.394628 348.932469 
L 349.547521 351.268493 
L 350.700413 351.729118 
L 351.853306 349.919521 
L 353.006198 352.485858 
L 354.159091 352.880679 
L 355.311983 350.281441 
L 356.464876 351.038181 
L 357.617769 350.478851 
L 358.770661 351.762019 
L 359.923554 347.846711 
L 361.076446 353.078089 
L 362.229339 353.078089 
L 363.382231 337.910382 
L 364.535124 350.116932 
L 365.688017 351.729118 
L 366.840909 352.288447 
L 369.146694 352.123939 
L 371.452479 352.913581 
L 372.605372 351.597511 
L 373.758264 352.354251 
L 374.911157 351.926528 
L 376.06405 352.617465 
L 377.216942 352.255546 
L 379.522727 353.078089 
L 380.67562 352.15684 
L 381.828512 352.617465 
L 382.981405 352.189742 
L 384.134298 351.926528 
L 385.28719 352.551661 
L 387.592975 352.946482 
L 388.745868 352.387153 
L 389.89876 353.045188 
L 391.051653 352.683268 
L 392.204545 352.814875 
L 393.357438 352.189742 
L 394.510331 352.979384 
L 396.816116 352.51876 
L 397.969008 352.946482 
L 399.121901 352.025233 
L 400.274793 351.663314 
L 401.427686 352.551661 
L 402.580579 353.045188 
L 403.733471 352.749072 
L 406.039256 352.452956 
L 408.345041 352.288447 
L 409.497934 352.71617 
L 410.650826 351.860725 
L 411.803719 352.683268 
L 412.956612 352.15684 
L 415.262397 352.189742 
L 416.415289 352.584563 
L 418.721074 352.847777 
L 419.873967 352.189742 
L 421.02686 352.683268 
L 422.179752 352.913581 
L 423.332645 352.123939 
L 424.485537 352.650367 
L 425.63843 352.913581 
L 426.791322 352.847777 
L 429.097107 352.387153 
L 430.25 352.51876 
L 431.402893 352.51876 
L 432.555785 352.189742 
L 433.708678 352.189742 
L 434.86157 351.992332 
L 436.014463 352.091037 
L 437.167355 351.465904 
L 438.320248 351.20269 
L 439.47314 352.123939 
L 440.626033 350.807869 
L 441.778926 352.387153 
L 444.084711 350.84077 
L 445.237603 351.498805 
L 446.390496 351.893626 
L 447.543388 350.939476 
L 448.696281 350.64336 
L 449.849174 351.367198 
L 451.002066 351.498805 
L 452.154959 350.182735 
L 453.307851 350.116932 
L 454.460744 349.458897 
L 455.613636 349.294388 
L 456.766529 350.08403 
L 457.919421 349.5247 
L 459.072314 353.078089 
L 460.225207 348.866665 
L 461.378099 347.188676 
L 462.530992 353.078089 
L 463.683884 343.372073 
L 464.836777 349.031174 
L 465.989669 350.774967 
L 467.142562 349.755013 
L 468.295455 349.096978 
L 469.448347 350.676262 
L 470.60124 349.952423 
L 471.754132 350.64336 
L 472.907025 350.413048 
L 474.059917 351.20269 
L 475.21281 352.189742 
L 476.365702 349.393093 
L 477.518595 347.682202 
L 478.671488 345.609392 
L 479.82438 349.228585 
L 480.977273 347.122872 
L 482.130165 349.656307 
L 483.283058 347.353185 
L 484.43595 349.88662 
L 485.588843 349.064076 
L 486.741736 349.393093 
L 487.894628 348.800862 
L 489.047521 349.985325 
L 490.200413 350.347244 
L 491.353306 349.32729 
L 492.506198 350.742065 
L 493.659091 347.254479 
L 494.811983 343.207564 
L 495.964876 345.115866 
L 497.117769 345.938409 
L 498.270661 339.687077 
L 499.423554 327.612134 
L 500.576446 334.521502 
L 501.729339 308.167198 
L 502.882231 333.008021 
L 504.035124 324.420664 
L 505.188017 320.669864 
L 506.340909 325.47352 
L 507.493802 320.900176 
L 508.646694 326.098653 
L 509.799587 322.084639 
L 510.952479 319.617008 
L 512.105372 316.491342 
L 513.258264 328.697891 
L 514.411157 327.677937 
L 515.56405 342.483725 
L 516.716942 330.408783 
L 517.869835 327.316018 
L 519.022727 328.961105 
L 520.17562 332.05387 
L 521.328512 337.416856 
L 522.481405 337.153642 
L 523.634298 342.779841 
L 524.78719 342.352118 
L 525.940083 341.299262 
L 527.092975 343.207564 
L 528.245868 341.82569 
L 529.39876 343.010153 
L 530.551653 342.516627 
L 531.704545 349.294388 
L 532.857438 347.813809 
L 534.010331 344.326224 
L 535.163223 348.142827 
L 536.316116 346.267427 
L 537.469008 347.813809 
L 538.621901 347.945416 
L 539.774793 350.939476 
L 540.927686 349.590504 
L 542.080579 349.031174 
L 543.233471 350.347244 
L 544.386364 353.078089 
L 545.539256 347.122872 
L 546.692149 351.136886 
L 547.845041 350.84077 
L 548.997934 351.433002 
L 550.150826 350.018227 
L 552.456612 349.129879 
L 553.609504 347.583497 
L 554.762397 351.169788 
L 555.915289 352.15684 
L 557.068182 350.906574 
L 558.221074 351.498805 
L 559.373967 351.433002 
L 560.52686 351.95943 
L 561.679752 351.433002 
L 562.832645 352.617465 
L 563.985537 352.058135 
L 565.13843 352.222644 
L 566.291322 351.992332 
L 567.444215 352.058135 
L 568.597107 351.630412 
L 569.75 352.255546 
L 570.902893 352.683268 
L 572.055785 352.71617 
L 573.208678 352.485858 
L 574.36157 352.025233 
L 575.514463 352.420054 
L 576.667355 351.893626 
L 577.820248 351.564609 
L 578.97314 351.498805 
L 580.126033 352.650367 
L 581.278926 352.420054 
L 582.431818 352.058135 
L 583.584711 352.51876 
L 584.737603 351.136886 
L 585.890496 351.729118 
L 587.043388 352.749072 
L 588.196281 352.979384 
L 590.502066 351.992332 
L 593.960744 352.189742 
L 595.113636 352.650367 
L 596.266529 352.946482 
L 597.419421 352.51876 
L 598.572314 353.078089 
L 599.725207 351.663314 
L 600.878099 352.617465 
L 602.030992 352.847777 
L 605.489669 352.71617 
L 606.642562 352.025233 
L 607.795455 352.485858 
L 608.948347 350.84077 
L 611.254132 348.932469 
L 612.407025 352.584563 
L 614.71281 352.321349 
L 617.018595 351.334297 
L 619.32438 347.6493 
L 620.477273 351.367198 
L 621.630165 349.5247 
L 622.783058 352.551661 
L 623.93595 349.623406 
L 625.088843 351.827823 
L 627.394628 352.452956 
L 628.547521 352.354251 
L 629.700413 352.551661 
L 630.853306 351.038181 
L 632.006198 352.189742 
L 633.159091 351.630412 
L 635.464876 352.979384 
L 636.617769 352.387153 
L 637.770661 352.683268 
L 638.923554 351.95943 
L 640.076446 352.091037 
L 641.229339 351.729118 
L 642.382231 352.913581 
L 643.535124 352.71617 
L 644.688017 352.913581 
L 645.840909 352.617465 
L 648.146694 352.485858 
L 649.299587 352.255546 
L 650.452479 351.630412 
L 651.605372 352.452956 
L 652.758264 352.880679 
L 653.911157 352.683268 
L 655.06405 352.321349 
L 656.216942 352.51876 
L 658.522727 352.123939 
L 660.828512 352.979384 
L 661.981405 352.617465 
L 663.134298 352.749072 
L 664.28719 349.360192 
L 665.440083 351.926528 
L 666.592975 350.972377 
L 667.745868 352.584563 
L 668.89876 352.71617 
L 670.051653 352.51876 
L 671.204545 351.860725 
L 672.357438 351.992332 
L 673.510331 351.071083 
L 674.663223 351.367198 
L 675.816116 352.288447 
L 676.969008 352.387153 
L 678.121901 351.465904 
L 679.274793 350.347244 
L 680.427686 349.425995 
L 681.580579 350.972377 
L 682.733471 346.760953 
L 683.886364 347.682202 
L 685.039256 349.557602 
L 686.192149 349.195683 
L 687.345041 345.148767 
L 688.497934 345.247473 
L 689.650826 340.87154 
L 690.803719 339.654175 
L 691.956612 343.437876 
L 693.109504 348.109925 
L 694.262397 339.390961 
L 695.415289 336.00208 
L 696.568182 327.875348 
L 697.721074 325.901243 
L 698.873967 323.104594 
L 700.02686 326.723786 
L 701.179752 339.127747 
L 703.485537 311.983802 
L 704.63843 309.285858 
L 705.791322 308.430412 
L 706.944215 305.633764 
L 708.097107 320.110534 
L 709.25 326.460572 
L 710.402893 302.409392 
L 711.555785 288.952575 
L 712.708678 278.588524 
L 713.86157 282.141913 
L 715.014463 264.80269 
L 717.320248 323.071692 
L 718.47314 265.526528 
L 719.626033 259.472606 
L 720.778926 250.753642 
L 721.931818 271.119826 
L 723.084711 277.535668 
L 724.237603 305.535058 
L 725.390496 319.978927 
L 726.543388 283.556688 
L 727.696281 264.80269 
L 728.849174 264.078851 
L 730.002066 277.371159 
L 731.154959 278.555622 
L 732.307851 300.731403 
L 733.460744 332.777709 
L 734.613636 285.629498 
L 735.766529 294.940694 
L 736.919421 292.012438 
L 738.072314 284.34633 
L 739.225207 292.736277 
L 740.378099 308.00269 
L 741.530992 330.507488 
L 742.683884 310.009696 
L 743.836777 301.093322 
L 744.989669 317.182278 
L 746.142562 321.393703 
L 747.295455 321.624015 
L 748.448347 338.43681 
L 749.60124 338.700024 
L 750.754132 335.771768 
L 751.907025 339.75288 
L 753.059917 330.17847 
L 754.21281 326.756688 
L 755.365702 328.270169 
L 756.518595 341.726985 
L 757.671488 345.346178 
L 758.82438 353.078089 
L 759.977273 321.558211 
L 761.130165 338.206498 
L 762.283058 339.785782 
L 763.43595 353.078089 
L 764.588843 333.830565 
L 765.741736 347.6493 
L 766.894628 341.595378 
L 768.047521 342.582431 
L 769.200413 340.213505 
L 770.353306 344.030108 
L 771.506198 344.852652 
L 772.659091 348.76796 
L 773.811983 350.774967 
L 774.964876 348.340237 
L 776.117769 346.760953 
L 777.270661 346.925462 
L 778.423554 347.879613 
L 779.576446 346.070016 
L 780.729339 349.985325 
L 781.882231 348.965371 
L 783.035124 349.096978 
L 784.188017 348.965371 
L 785.340909 348.636353 
L 786.493802 348.965371 
L 787.646694 349.557602 
L 788.799587 351.20269 
L 789.952479 351.465904 
L 791.105372 348.800862 
L 792.258264 339.325157 
L 793.411157 344.326224 
L 794.56405 343.70109 
L 795.716942 344.392027 
L 796.869835 349.557602 
L 798.022727 346.530641 
L 799.17562 344.918455 
L 800.328512 353.078089 
L 801.481405 332.744807 
L 802.634298 342.220511 
L 803.78719 353.078089 
L 804.940083 340.87154 
L 806.092975 349.129879 
L 807.245868 343.404974 
L 808.39876 341.463771 
L 809.551653 346.070016 
L 810.704545 342.056003 
L 811.857438 346.234525 
L 813.010331 350.906574 
L 815.316116 353.078089 
L 816.469008 350.577556 
L 817.621901 345.543588 
L 818.774793 350.149834 
L 819.927686 347.089971 
L 821.080579 351.20269 
L 822.233471 351.95943 
L 823.386364 350.478851 
L 824.539256 348.438942 
L 825.692149 350.051128 
L 826.845041 348.373139 
L 827.997934 351.95943 
L 829.150826 351.498805 
L 830.303719 351.926528 
L 831.456612 353.078089 
L 832.609504 351.860725 
L 833.762397 352.025233 
L 834.915289 349.689209 
L 836.068182 351.498805 
L 837.221074 353.078089 
L 838.373967 351.005279 
L 839.52686 351.860725 
L 840.679752 351.893626 
L 841.832645 350.314342 
L 842.985537 350.709163 
L 844.13843 351.564609 
L 845.291322 353.078089 
L 846.444215 351.4001 
L 847.597107 352.091037 
L 848.75 351.762019 
L 849.902893 351.630412 
L 852.208678 353.078089 
L 853.36157 351.235591 
L 854.514463 352.452956 
L 855.667355 352.485858 
L 856.820248 351.860725 
L 857.97314 351.103984 
L 859.126033 352.189742 
L 860.278926 353.078089 
L 861.431818 350.972377 
L 863.737603 352.749072 
L 864.890496 350.873672 
L 867.196281 351.893626 
L 868.349174 353.078089 
L 869.502066 352.354251 
L 870.654959 352.025233 
L 871.807851 352.189742 
L 872.960744 353.078089 
L 874.113636 350.676262 
L 875.266529 352.189742 
L 876.419421 351.038181 
L 877.572314 353.078089 
L 878.725207 349.294388 
L 879.878099 344.030108 
L 881.030992 339.950291 
L 883.336777 318.794464 
L 885.642562 317.478394 
L 887.948347 353.078089 
L 889.10124 269.014114 
L 890.254132 56.073977 
L 891.407025 182.3509 
L 892.559917 353.078089 
L 893.71281 50.8755 
L 894.865702 282.734144 
L 896.018595 353.078089 
L 897.171488 192.780755 
L 898.32438 166.261943 
L 899.477273 209.39614 
L 900.630165 105.985934 
L 901.783058 353.078089 
L 902.93595 283.787 
L 904.088843 241.014723 
L 905.241736 264.605279 
L 906.394628 299.250824 
L 907.547521 289.248691 
L 908.700413 307.278851 
L 911.006198 333.17253 
L 912.159091 316.951966 
L 913.311983 284.017313 
L 914.464876 353.078089 
L 915.617769 215.548767 
L 916.770661 302.738409 
L 917.923554 321.624015 
L 919.076446 353.078089 
L 920.229339 291.453109 
L 921.382231 300.731403 
L 922.535124 307.706574 
L 923.688017 316.195226 
L 924.840909 316.754556 
L 925.993802 332.152575 
L 927.146694 353.078089 
L 928.299587 317.478394 
L 929.452479 353.078089 
L 930.605372 305.929879 
L 931.758264 331.659049 
L 932.911157 334.883421 
L 934.06405 353.078089 
L 935.216942 338.568417 
L 936.369835 340.50962 
L 937.522727 353.078089 
L 938.67562 339.029042 
L 939.828512 331.198425 
L 940.981405 339.621273 
L 942.134298 345.905508 
L 943.28719 350.610458 
L 944.440083 343.635287 
L 945.592975 345.346178 
L 946.745868 347.583497 
L 947.89876 348.044121 
L 949.051653 345.280374 
L 950.204545 350.380146 
L 951.357438 351.597511 
L 952.510331 346.300329 
L 954.816116 347.780907 
L 955.969008 347.879613 
L 957.121901 353.078089 
L 958.274793 345.444883 
L 959.427686 353.078089 
L 960.580579 353.078089 
L 961.733471 346.464837 
L 962.886364 348.57055 
L 964.039256 343.207564 
L 965.192149 347.353185 
L 966.345041 350.281441 
L 967.497934 350.380146 
L 968.650826 345.773901 
L 969.803719 353.078089 
L 970.956612 333.008021 
L 972.109504 340.410915 
L 973.262397 338.864533 
L 974.415289 346.69515 
L 975.568182 348.866665 
L 976.721074 345.872606 
L 979.02686 333.040923 
L 980.179752 340.641227 
L 981.332645 336.627214 
L 982.485537 342.023101 
L 983.63843 353.078089 
L 984.791322 334.093779 
L 985.944215 336.923329 
L 987.097107 332.284182 
L 988.25 353.078089 
L 989.402893 312.411524 
L 990.555785 343.865599 
L 991.708678 346.826757 
L 992.86157 336.594312 
L 994.014463 332.251281 
L 995.167355 353.078089 
L 996.320248 313.431479 
L 997.47314 353.078089 
L 998.626033 335.936277 
L 999.778926 338.403908 
L 1000.931818 340.114799 
L 1002.084711 353.078089 
L 1003.237603 328.697891 
L 1004.390496 353.078089 
L 1005.543388 341.167655 
L 1006.696281 338.601319 
L 1007.849174 353.078089 
L 1009.002066 345.411981 
L 1010.154959 353.078089 
L 1011.307851 344.095911 
L 1012.460744 345.313276 
L 1013.613636 338.239399 
L 1014.766529 353.078089 
L 1015.919421 347.320283 
L 1017.072314 349.557602 
L 1018.225207 349.294388 
L 1019.378099 348.471844 
L 1020.530992 349.656307 
L 1021.683884 348.866665 
L 1022.836777 350.873672 
L 1023.989669 351.630412 
L 1026.295455 348.735058 
L 1027.448347 351.136886 
L 1028.60124 350.873672 
L 1029.754132 351.268493 
L 1030.907025 353.078089 
L 1032.059917 351.992332 
L 1033.21281 351.367198 
L 1034.365702 350.314342 
L 1037.82438 352.123939 
L 1038.977273 353.078089 
L 1040.130165 351.729118 
L 1042.43595 353.078089 
L 1043.588843 351.794921 
L 1044.741736 351.531707 
L 1045.894628 349.623406 
L 1047.047521 351.893626 
L 1048.200413 353.078089 
L 1049.353306 350.64336 
L 1051.659091 351.038181 
L 1052.811983 351.268493 
L 1053.964876 351.169788 
L 1055.117769 351.992332 
L 1056.270661 351.893626 
L 1057.423554 352.288447 
L 1058.576446 351.268493 
L 1059.729339 351.103984 
L 1060.882231 353.078089 
L 1062.035124 347.682202 
L 1063.188017 353.078089 
L 1064.340909 348.537648 
L 1065.493802 347.024167 
L 1066.646694 349.590504 
L 1067.799587 353.078089 
L 1068.952479 343.174662 
L 1071.258264 350.610458 
L 1072.411157 353.078089 
L 1073.56405 345.675195 
L 1074.716942 342.648234 
L 1077.022727 346.530641 
L 1078.17562 344.424929 
L 1079.328512 353.078089 
L 1080.481405 347.386086 
L 1081.634298 351.103984 
L 1082.78719 345.609392 
L 1083.940083 343.240466 
L 1085.092975 339.325157 
L 1086.245868 342.779841 
L 1087.39876 353.078089 
L 1088.551653 348.702157 
L 1089.704545 353.078089 
L 1090.857438 343.010153 
L 1092.010331 337.416856 
L 1093.163223 347.254479 
L 1094.316116 346.991265 
L 1095.469008 353.078089 
L 1096.621901 349.722111 
L 1097.774793 347.484792 
L 1098.927686 348.833764 
L 1100.080579 348.406041 
L 1101.233471 353.078089 
L 1102.386364 344.786848 
L 1103.539256 353.078089 
L 1104.692149 350.873672 
L 1105.845041 351.20269 
L 1106.997934 353.078089 
L 1108.150826 345.444883 
L 1109.303719 349.294388 
L 1110.456612 344.81975 
L 1111.609504 353.078089 
L 1112.762397 351.498805 
L 1113.915289 352.091037 
L 1115.068182 350.182735 
L 1116.221074 348.800862 
L 1117.373967 350.215637 
L 1118.52686 347.386086 
L 1119.679752 353.078089 
L 1120.832645 351.564609 
L 1121.985537 352.15684 
L 1123.13843 353.078089 
L 1124.291322 348.57055 
L 1126.597107 353.078089 
L 1128.902893 353.078089 
L 1130.055785 348.471844 
L 1131.208678 352.123939 
L 1132.36157 351.433002 
L 1133.514463 353.078089 
L 1134.667355 350.248539 
L 1135.820248 351.992332 
L 1136.97314 352.584563 
L 1138.126033 352.617465 
L 1139.278926 352.15684 
L 1140.431818 353.078089 
L 1141.584711 350.906574 
L 1142.737603 351.893626 
L 1143.890496 353.078089 
L 1146.196281 353.078089 
L 1147.349174 349.656307 
L 1148.502066 353.078089 
L 1149.654959 352.091037 
L 1150.807851 353.078089 
L 1151.960744 352.123939 
L 1153.113636 352.814875 
L 1154.266529 352.551661 
L 1155.419421 352.617465 
L 1156.572314 352.058135 
L 1157.725207 352.387153 
L 1158.878099 351.762019 
L 1160.030992 353.078089 
L 1162.336777 352.946482 
L 1163.489669 352.387153 
L 1165.795455 352.387153 
L 1166.948347 353.078089 
L 1169.254132 352.979384 
L 1170.407025 351.762019 
L 1171.559917 352.979384 
L 1172.71281 353.012286 
L 1173.865702 352.387153 
L 1176.171488 353.078089 
L 1177.32438 352.51876 
L 1178.477273 352.913581 
L 1179.630165 352.51876 
L 1180.783058 352.946482 
L 1181.93595 352.617465 
L 1184.241736 352.420054 
L 1185.394628 352.814875 
L 1187.700413 353.078089 
L 1188.853306 353.078089 
L 1190.006198 351.531707 
L 1191.159091 352.847777 
L 1192.311983 353.078089 
L 1193.464876 352.51876 
L 1194.617769 352.913581 
L 1195.770661 352.946482 
L 1196.923554 352.485858 
L 1199.229339 352.880679 
L 1200.382231 352.71617 
L 1202.688017 352.880679 
L 1203.840909 352.650367 
L 1204.993802 351.663314 
L 1206.146694 352.781974 
L 1207.299587 352.255546 
L 1209.605372 353.078089 
L 1210.758264 352.485858 
L 1211.911157 352.551661 
L 1213.06405 351.926528 
L 1214.216942 353.078089 
L 1215.369835 353.078089 
L 1216.522727 351.465904 
L 1217.67562 352.814875 
L 1218.828512 349.985325 
L 1219.981405 350.906574 
L 1221.134298 353.078089 
L 1222.28719 349.689209 
L 1223.440083 352.091037 
L 1224.592975 352.123939 
L 1225.745868 352.354251 
L 1226.89876 353.012286 
L 1228.051653 351.95943 
L 1229.204545 351.992332 
L 1230.357438 353.078089 
L 1231.510331 351.235591 
L 1232.663223 353.078089 
L 1233.816116 351.367198 
L 1234.969008 352.387153 
L 1236.121901 352.091037 
L 1237.274793 353.078089 
L 1238.427686 350.215637 
L 1239.580579 353.078089 
L 1241.886364 353.078089 
L 1243.039256 349.985325 
L 1244.192149 353.078089 
L 1245.345041 351.465904 
L 1246.497934 352.123939 
L 1247.650826 353.078089 
L 1248.803719 353.078089 
L 1249.956612 350.906574 
L 1251.109504 353.078089 
L 1300.683884 353.078089 
L 1301.836777 311.259963 
L 1301.836777 311.259963 
" clip-path="url(#peec51318a3)" style="fill: none; stroke: #0000ff; stroke-width: 1.5; stroke-linecap: square"/>
   </g>
   <g id="line2d_17">
    <path d="M 1062.035124 351.902914 
L 1063.188017 350.806703 
L 1064.340909 351.396632 
L 1065.493802 350.654091 
L 1066.646694 349.711321 
L 1067.799587 349.679942 
L 1068.952479 350.562515 
L 1070.105372 348.643729 
L 1071.258264 348.188912 
L 1072.411157 348.81784 
L 1073.56405 349.92432 
L 1074.716942 348.82073 
L 1075.869835 347.217598 
L 1077.022727 346.526462 
L 1078.17562 346.527548 
L 1079.328512 345.981452 
L 1080.481405 347.824603 
L 1081.634298 347.710711 
L 1082.78719 348.592018 
L 1083.940083 347.817365 
L 1085.092975 346.628645 
L 1086.245868 344.73177 
L 1087.39876 344.224811 
L 1088.551653 346.524201 
L 1089.704545 347.089863 
L 1090.857438 348.645136 
L 1092.010331 347.181608 
L 1093.163223 344.645489 
L 1094.316116 345.323101 
L 1095.469008 345.75636 
L 1096.621901 347.657972 
L 1097.774793 348.194074 
L 1098.927686 348.009858 
L 1100.080579 348.223844 
L 1101.233471 348.271165 
L 1102.386364 349.519628 
L 1103.539256 348.290422 
L 1104.692149 349.533883 
L 1106.997934 350.224905 
L 1108.150826 350.965939 
L 1109.303719 349.532001 
L 1110.456612 349.470287 
L 1111.609504 348.262442 
L 1112.762397 349.51317 
L 1115.068182 350.564469 
L 1116.221074 350.465325 
L 1117.373967 350.033027 
L 1118.52686 350.080455 
L 1119.679752 349.380669 
L 1120.832645 350.34097 
L 1123.13843 351.047855 
L 1124.291322 351.575151 
L 1125.444215 350.794791 
L 1126.597107 350.823823 
L 1127.75 351.409305 
L 1130.055785 352.163576 
L 1131.208678 351.204753 
L 1132.36157 351.443485 
L 1133.514463 351.440763 
L 1134.667355 351.866012 
L 1135.820248 351.445919 
L 1136.97314 351.587834 
L 1139.278926 352.046889 
L 1140.431818 352.075446 
L 1141.584711 352.335854 
L 1142.737603 351.964639 
L 1143.890496 351.946196 
L 1146.196281 352.457798 
L 1147.349174 352.618901 
L 1148.502066 351.849451 
L 1149.654959 352.168555 
L 1150.807851 352.148422 
L 1151.960744 352.389877 
L 1153.113636 352.320807 
L 1155.419421 352.475758 
L 1156.572314 352.512562 
L 1157.725207 352.394538 
L 1158.878099 352.39262 
L 1160.030992 352.228839 
L 1162.336777 352.5956 
L 1163.489669 352.686731 
L 1166.948347 352.515012 
L 1169.254132 352.769516 
L 1170.407025 352.824024 
L 1171.559917 352.548198 
L 1173.865702 352.751634 
L 1175.018595 352.656971 
L 1179.630165 352.770153 
L 1180.783058 352.704861 
L 1183.088843 352.728618 
L 1186.547521 352.661825 
L 1190.006198 352.890487 
L 1191.159091 352.537582 
L 1194.617769 352.680765 
L 1196.923554 352.79454 
L 1199.229339 352.706291 
L 1203.840909 352.792241 
L 1204.993802 352.755393 
L 1206.146694 352.471756 
L 1207.299587 352.552327 
L 1208.452479 352.475246 
L 1211.911157 352.6282 
L 1213.06405 352.608321 
L 1214.216942 352.431245 
L 1216.522727 352.723611 
L 1217.67562 352.396957 
L 1218.828512 352.505499 
L 1219.981405 351.850955 
L 1221.134298 351.605679 
L 1222.28719 351.988096 
L 1223.440083 351.391025 
L 1228.051653 352.17537 
L 1230.357438 352.086313 
L 1231.510331 352.343899 
L 1232.663223 352.056047 
L 1233.816116 352.321494 
L 1234.969008 352.073643 
L 1238.427686 352.382486 
L 1239.580579 351.819708 
L 1241.886364 352.388482 
L 1243.039256 352.567588 
L 1244.192149 351.896918 
L 1245.345041 352.203694 
L 1246.497934 352.012074 
L 1247.650826 352.041127 
L 1249.956612 352.509822 
L 1251.109504 352.093424 
L 1253.415289 352.538481 
L 1256.873967 352.85918 
L 1261.485537 353.012347 
L 1273.014463 353.07484 
L 1301.836777 353.078088 
L 1301.836777 353.078088 
" clip-path="url(#peec51318a3)" style="fill: none; stroke: #ffa500; stroke-width: 1.5; stroke-linecap: square"/>
   </g>
   <g id="line2d_18">
    <path d="M 1302.989669 342.21701 
L 1304.142562 342.21701 
L 1305.295455 342.21701 
L 1306.448347 342.21701 
L 1307.60124 342.21701 
L 1308.754132 342.21701 
L 1309.907025 342.21701 
L 1311.059917 342.21701 
L 1312.21281 342.21701 
L 1313.365702 342.21701 
L 1314.518595 342.21701 
L 1315.671488 342.21701 
L 1316.82438 342.21701 
L 1317.977273 342.21701 
" clip-path="url(#peec51318a3)" style="fill: none; stroke: #ff0000; stroke-width: 1.5; stroke-linecap: square"/>
   </g>
   <g id="patch_3">
    <path d="M 39.65 368.3955 
L 39.65 35.7555 
" style="fill: none; stroke: #000000; stroke-width: 0.8; stroke-linejoin: miter; stroke-linecap: square"/>
   </g>
   <g id="patch_4">
    <path d="M 1378.85 368.3955 
L 1378.85 35.7555 
" style="fill: none; stroke: #000000; stroke-width: 0.8; stroke-linejoin: miter; stroke-linecap: square"/>
   </g>
   <g id="patch_5">
    <path d="M 39.65 368.3955 
L 1378.85 368.3955 
" style="fill: none; stroke: #000000; stroke-width: 0.8; stroke-linejoin: miter; stroke-linecap: square"/>
   </g>
   <g id="patch_6">
    <path d="M 39.65 35.7555 
L 1378.85 35.7555 
" style="fill: none; stroke: #000000; stroke-width: 0.8; stroke-linejoin: miter; stroke-linecap: square"/>
   </g>
   <g id="text_16">
    <!-- Daily Confirmed Cases Forecasting - Zimbabwe -->
    <g transform="translate(567.234688 16.318125)scale(0.12 -0.12)">
     <defs>
      <path id="DejaVuSans-44" d="M 1259 4147 
L 1259 519 
L 2022 519 
Q 2988 519 3436 956 
Q 3884 1394 3884 2338 
Q 3884 3275 3436 3711 
Q 2988 4147 2022 4147 
L 1259 4147 
z
M 628 4666 
L 1925 4666 
Q 3281 4666 3915 4102 
Q 4550 3538 4550 2338 
Q 4550 1131 3912 565 
Q 3275 0 1925 0 
L 628 0 
L 628 4666 
z
" transform="scale(0.015625)"/>
      <path id="DejaVuSans-61" d="M 2194 1759 
Q 1497 1759 1228 1600 
Q 959 1441 959 1056 
Q 959 750 1161 570 
Q 1363 391 1709 391 
Q 2188 391 2477 730 
Q 2766 1069 2766 1631 
L 2766 1759 
L 2194 1759 
z
M 3341 1997 
L 3341 0 
L 2766 0 
L 2766 531 
Q 2569 213 2275 61 
Q 1981 -91 1556 -91 
Q 1019 -91 701 211 
Q 384 513 384 1019 
Q 384 1609 779 1909 
Q 1175 2209 1959 2209 
L 2766 2209 
L 2766 2266 
Q 2766 2663 2505 2880 
Q 2244 3097 1772 3097 
Q 1472 3097 1187 3025 
Q 903 2953 641 2809 
L 641 3341 
Q 956 3463 1253 3523 
Q 1550 3584 1831 3584 
Q 2591 3584 2966 3190 
Q 3341 2797 3341 1997 
z
" transform="scale(0.015625)"/>
      <path id="DejaVuSans-69" d="M 603 3500 
L 1178 3500 
L 1178 0 
L 603 0 
L 603 3500 
z
M 603 4863 
L 1178 4863 
L 1178 4134 
L 603 4134 
L 603 4863 
z
" transform="scale(0.015625)"/>
      <path id="DejaVuSans-6c" d="M 603 4863 
L 1178 4863 
L 1178 0 
L 603 0 
L 603 4863 
z
" transform="scale(0.015625)"/>
      <path id="DejaVuSans-79" d="M 2059 -325 
Q 1816 -950 1584 -1140 
Q 1353 -1331 966 -1331 
L 506 -1331 
L 506 -850 
L 844 -850 
Q 1081 -850 1212 -737 
Q 1344 -625 1503 -206 
L 1606 56 
L 191 3500 
L 800 3500 
L 1894 763 
L 2988 3500 
L 3597 3500 
L 2059 -325 
z
" transform="scale(0.015625)"/>
      <path id="DejaVuSans-20" transform="scale(0.015625)"/>
      <path id="DejaVuSans-43" d="M 4122 4306 
L 4122 3641 
Q 3803 3938 3442 4084 
Q 3081 4231 2675 4231 
Q 1875 4231 1450 3742 
Q 1025 3253 1025 2328 
Q 1025 1406 1450 917 
Q 1875 428 2675 428 
Q 3081 428 3442 575 
Q 3803 722 4122 1019 
L 4122 359 
Q 3791 134 3420 21 
Q 3050 -91 2638 -91 
Q 1578 -91 968 557 
Q 359 1206 359 2328 
Q 359 3453 968 4101 
Q 1578 4750 2638 4750 
Q 3056 4750 3426 4639 
Q 3797 4528 4122 4306 
z
" transform="scale(0.015625)"/>
      <path id="DejaVuSans-6f" d="M 1959 3097 
Q 1497 3097 1228 2736 
Q 959 2375 959 1747 
Q 959 1119 1226 758 
Q 1494 397 1959 397 
Q 2419 397 2687 759 
Q 2956 1122 2956 1747 
Q 2956 2369 2687 2733 
Q 2419 3097 1959 3097 
z
M 1959 3584 
Q 2709 3584 3137 3096 
Q 3566 2609 3566 1747 
Q 3566 888 3137 398 
Q 2709 -91 1959 -91 
Q 1206 -91 779 398 
Q 353 888 353 1747 
Q 353 2609 779 3096 
Q 1206 3584 1959 3584 
z
" transform="scale(0.015625)"/>
      <path id="DejaVuSans-6e" d="M 3513 2113 
L 3513 0 
L 2938 0 
L 2938 2094 
Q 2938 2591 2744 2837 
Q 2550 3084 2163 3084 
Q 1697 3084 1428 2787 
Q 1159 2491 1159 1978 
L 1159 0 
L 581 0 
L 581 3500 
L 1159 3500 
L 1159 2956 
Q 1366 3272 1645 3428 
Q 1925 3584 2291 3584 
Q 2894 3584 3203 3211 
Q 3513 2838 3513 2113 
z
" transform="scale(0.015625)"/>
      <path id="DejaVuSans-66" d="M 2375 4863 
L 2375 4384 
L 1825 4384 
Q 1516 4384 1395 4259 
Q 1275 4134 1275 3809 
L 1275 3500 
L 2222 3500 
L 2222 3053 
L 1275 3053 
L 1275 0 
L 697 0 
L 697 3053 
L 147 3053 
L 147 3500 
L 697 3500 
L 697 3744 
Q 697 4328 969 4595 
Q 1241 4863 1831 4863 
L 2375 4863 
z
" transform="scale(0.015625)"/>
      <path id="DejaVuSans-72" d="M 2631 2963 
Q 2534 3019 2420 3045 
Q 2306 3072 2169 3072 
Q 1681 3072 1420 2755 
Q 1159 2438 1159 1844 
L 1159 0 
L 581 0 
L 581 3500 
L 1159 3500 
L 1159 2956 
Q 1341 3275 1631 3429 
Q 1922 3584 2338 3584 
Q 2397 3584 2469 3576 
Q 2541 3569 2628 3553 
L 2631 2963 
z
" transform="scale(0.015625)"/>
      <path id="DejaVuSans-6d" d="M 3328 2828 
Q 3544 3216 3844 3400 
Q 4144 3584 4550 3584 
Q 5097 3584 5394 3201 
Q 5691 2819 5691 2113 
L 5691 0 
L 5113 0 
L 5113 2094 
Q 5113 2597 4934 2840 
Q 4756 3084 4391 3084 
Q 3944 3084 3684 2787 
Q 3425 2491 3425 1978 
L 3425 0 
L 2847 0 
L 2847 2094 
Q 2847 2600 2669 2842 
Q 2491 3084 2119 3084 
Q 1678 3084 1418 2786 
Q 1159 2488 1159 1978 
L 1159 0 
L 581 0 
L 581 3500 
L 1159 3500 
L 1159 2956 
Q 1356 3278 1631 3431 
Q 1906 3584 2284 3584 
Q 2666 3584 2933 3390 
Q 3200 3197 3328 2828 
z
" transform="scale(0.015625)"/>
      <path id="DejaVuSans-65" d="M 3597 1894 
L 3597 1613 
L 953 1613 
Q 991 1019 1311 708 
Q 1631 397 2203 397 
Q 2534 397 2845 478 
Q 3156 559 3463 722 
L 3463 178 
Q 3153 47 2828 -22 
Q 2503 -91 2169 -91 
Q 1331 -91 842 396 
Q 353 884 353 1716 
Q 353 2575 817 3079 
Q 1281 3584 2069 3584 
Q 2775 3584 3186 3129 
Q 3597 2675 3597 1894 
z
M 3022 2063 
Q 3016 2534 2758 2815 
Q 2500 3097 2075 3097 
Q 1594 3097 1305 2825 
Q 1016 2553 972 2059 
L 3022 2063 
z
" transform="scale(0.015625)"/>
      <path id="DejaVuSans-64" d="M 2906 2969 
L 2906 4863 
L 3481 4863 
L 3481 0 
L 2906 0 
L 2906 525 
Q 2725 213 2448 61 
Q 2172 -91 1784 -91 
Q 1150 -91 751 415 
Q 353 922 353 1747 
Q 353 2572 751 3078 
Q 1150 3584 1784 3584 
Q 2172 3584 2448 3432 
Q 2725 3281 2906 2969 
z
M 947 1747 
Q 947 1113 1208 752 
Q 1469 391 1925 391 
Q 2381 391 2643 752 
Q 2906 1113 2906 1747 
Q 2906 2381 2643 2742 
Q 2381 3103 1925 3103 
Q 1469 3103 1208 2742 
Q 947 2381 947 1747 
z
" transform="scale(0.015625)"/>
      <path id="DejaVuSans-73" d="M 2834 3397 
L 2834 2853 
Q 2591 2978 2328 3040 
Q 2066 3103 1784 3103 
Q 1356 3103 1142 2972 
Q 928 2841 928 2578 
Q 928 2378 1081 2264 
Q 1234 2150 1697 2047 
L 1894 2003 
Q 2506 1872 2764 1633 
Q 3022 1394 3022 966 
Q 3022 478 2636 193 
Q 2250 -91 1575 -91 
Q 1294 -91 989 -36 
Q 684 19 347 128 
L 347 722 
Q 666 556 975 473 
Q 1284 391 1588 391 
Q 1994 391 2212 530 
Q 2431 669 2431 922 
Q 2431 1156 2273 1281 
Q 2116 1406 1581 1522 
L 1381 1569 
Q 847 1681 609 1914 
Q 372 2147 372 2553 
Q 372 3047 722 3315 
Q 1072 3584 1716 3584 
Q 2034 3584 2315 3537 
Q 2597 3491 2834 3397 
z
" transform="scale(0.015625)"/>
      <path id="DejaVuSans-46" d="M 628 4666 
L 3309 4666 
L 3309 4134 
L 1259 4134 
L 1259 2759 
L 3109 2759 
L 3109 2228 
L 1259 2228 
L 1259 0 
L 628 0 
L 628 4666 
z
" transform="scale(0.015625)"/>
      <path id="DejaVuSans-63" d="M 3122 3366 
L 3122 2828 
Q 2878 2963 2633 3030 
Q 2388 3097 2138 3097 
Q 1578 3097 1268 2742 
Q 959 2388 959 1747 
Q 959 1106 1268 751 
Q 1578 397 2138 397 
Q 2388 397 2633 464 
Q 2878 531 3122 666 
L 3122 134 
Q 2881 22 2623 -34 
Q 2366 -91 2075 -91 
Q 1284 -91 818 406 
Q 353 903 353 1747 
Q 353 2603 823 3093 
Q 1294 3584 2113 3584 
Q 2378 3584 2631 3529 
Q 2884 3475 3122 3366 
z
" transform="scale(0.015625)"/>
      <path id="DejaVuSans-74" d="M 1172 4494 
L 1172 3500 
L 2356 3500 
L 2356 3053 
L 1172 3053 
L 1172 1153 
Q 1172 725 1289 603 
Q 1406 481 1766 481 
L 2356 481 
L 2356 0 
L 1766 0 
Q 1100 0 847 248 
Q 594 497 594 1153 
L 594 3053 
L 172 3053 
L 172 3500 
L 594 3500 
L 594 4494 
L 1172 4494 
z
" transform="scale(0.015625)"/>
      <path id="DejaVuSans-67" d="M 2906 1791 
Q 2906 2416 2648 2759 
Q 2391 3103 1925 3103 
Q 1463 3103 1205 2759 
Q 947 2416 947 1791 
Q 947 1169 1205 825 
Q 1463 481 1925 481 
Q 2391 481 2648 825 
Q 2906 1169 2906 1791 
z
M 3481 434 
Q 3481 -459 3084 -895 
Q 2688 -1331 1869 -1331 
Q 1566 -1331 1297 -1286 
Q 1028 -1241 775 -1147 
L 775 -588 
Q 1028 -725 1275 -790 
Q 1522 -856 1778 -856 
Q 2344 -856 2625 -561 
Q 2906 -266 2906 331 
L 2906 616 
Q 2728 306 2450 153 
Q 2172 0 1784 0 
Q 1141 0 747 490 
Q 353 981 353 1791 
Q 353 2603 747 3093 
Q 1141 3584 1784 3584 
Q 2172 3584 2450 3431 
Q 2728 3278 2906 2969 
L 2906 3500 
L 3481 3500 
L 3481 434 
z
" transform="scale(0.015625)"/>
      <path id="DejaVuSans-5a" d="M 359 4666 
L 4025 4666 
L 4025 4184 
L 1075 531 
L 4097 531 
L 4097 0 
L 288 0 
L 288 481 
L 3238 4134 
L 359 4134 
L 359 4666 
z
" transform="scale(0.015625)"/>
      <path id="DejaVuSans-62" d="M 3116 1747 
Q 3116 2381 2855 2742 
Q 2594 3103 2138 3103 
Q 1681 3103 1420 2742 
Q 1159 2381 1159 1747 
Q 1159 1113 1420 752 
Q 1681 391 2138 391 
Q 2594 391 2855 752 
Q 3116 1113 3116 1747 
z
M 1159 2969 
Q 1341 3281 1617 3432 
Q 1894 3584 2278 3584 
Q 2916 3584 3314 3078 
Q 3713 2572 3713 1747 
Q 3713 922 3314 415 
Q 2916 -91 2278 -91 
Q 1894 -91 1617 61 
Q 1341 213 1159 525 
L 1159 0 
L 581 0 
L 581 4863 
L 1159 4863 
L 1159 2969 
z
" transform="scale(0.015625)"/>
      <path id="DejaVuSans-77" d="M 269 3500 
L 844 3500 
L 1563 769 
L 2278 3500 
L 2956 3500 
L 3675 769 
L 4391 3500 
L 4966 3500 
L 4050 0 
L 3372 0 
L 2619 2869 
L 1863 0 
L 1184 0 
L 269 3500 
z
" transform="scale(0.015625)"/>
     </defs>
     <use xlink:href="#DejaVuSans-44"/>
     <use xlink:href="#DejaVuSans-61" x="77.001953"/>
     <use xlink:href="#DejaVuSans-69" x="138.28125"/>
     <use xlink:href="#DejaVuSans-6c" x="166.064453"/>
     <use xlink:href="#DejaVuSans-79" x="193.847656"/>
     <use xlink:href="#DejaVuSans-20" x="253.027344"/>
     <use xlink:href="#DejaVuSans-43" x="284.814453"/>
     <use xlink:href="#DejaVuSans-6f" x="354.638672"/>
     <use xlink:href="#DejaVuSans-6e" x="415.820312"/>
     <use xlink:href="#DejaVuSans-66" x="479.199219"/>
     <use xlink:href="#DejaVuSans-69" x="514.404297"/>
     <use xlink:href="#DejaVuSans-72" x="542.1875"/>
     <use xlink:href="#DejaVuSans-6d" x="581.550781"/>
     <use xlink:href="#DejaVuSans-65" x="678.962891"/>
     <use xlink:href="#DejaVuSans-64" x="740.486328"/>
     <use xlink:href="#DejaVuSans-20" x="803.962891"/>
     <use xlink:href="#DejaVuSans-43" x="835.75"/>
     <use xlink:href="#DejaVuSans-61" x="905.574219"/>
     <use xlink:href="#DejaVuSans-73" x="966.853516"/>
     <use xlink:href="#DejaVuSans-65" x="1018.953125"/>
     <use xlink:href="#DejaVuSans-73" x="1080.476562"/>
     <use xlink:href="#DejaVuSans-20" x="1132.576172"/>
     <use xlink:href="#DejaVuSans-46" x="1164.363281"/>
     <use xlink:href="#DejaVuSans-6f" x="1218.257812"/>
     <use xlink:href="#DejaVuSans-72" x="1279.439453"/>
     <use xlink:href="#DejaVuSans-65" x="1318.302734"/>
     <use xlink:href="#DejaVuSans-63" x="1379.826172"/>
     <use xlink:href="#DejaVuSans-61" x="1434.806641"/>
     <use xlink:href="#DejaVuSans-73" x="1496.085938"/>
     <use xlink:href="#DejaVuSans-74" x="1548.185547"/>
     <use xlink:href="#DejaVuSans-69" x="1587.394531"/>
     <use xlink:href="#DejaVuSans-6e" x="1615.177734"/>
     <use xlink:href="#DejaVuSans-67" x="1678.556641"/>
     <use xlink:href="#DejaVuSans-20" x="1742.033203"/>
     <use xlink:href="#DejaVuSans-2d" x="1773.820312"/>
     <use xlink:href="#DejaVuSans-20" x="1809.904297"/>
     <use xlink:href="#DejaVuSans-5a" x="1841.691406"/>
     <use xlink:href="#DejaVuSans-69" x="1910.197266"/>
     <use xlink:href="#DejaVuSans-6d" x="1937.980469"/>
     <use xlink:href="#DejaVuSans-62" x="2035.392578"/>
     <use xlink:href="#DejaVuSans-61" x="2098.869141"/>
     <use xlink:href="#DejaVuSans-62" x="2160.148438"/>
     <use xlink:href="#DejaVuSans-77" x="2223.625"/>
     <use xlink:href="#DejaVuSans-65" x="2305.412109"/>
    </g>
    <!-- ARIMA (0, 1, 1)x(0, 0, 0, 7) (R2 = 0.138014) -->
    <g transform="translate(577.265938 29.7555)scale(0.12 -0.12)">
     <defs>
      <path id="DejaVuSans-41" d="M 2188 4044 
L 1331 1722 
L 3047 1722 
L 2188 4044 
z
M 1831 4666 
L 2547 4666 
L 4325 0 
L 3669 0 
L 3244 1197 
L 1141 1197 
L 716 0 
L 50 0 
L 1831 4666 
z
" transform="scale(0.015625)"/>
      <path id="DejaVuSans-52" d="M 2841 2188 
Q 3044 2119 3236 1894 
Q 3428 1669 3622 1275 
L 4263 0 
L 3584 0 
L 2988 1197 
Q 2756 1666 2539 1819 
Q 2322 1972 1947 1972 
L 1259 1972 
L 1259 0 
L 628 0 
L 628 4666 
L 2053 4666 
Q 2853 4666 3247 4331 
Q 3641 3997 3641 3322 
Q 3641 2881 3436 2590 
Q 3231 2300 2841 2188 
z
M 1259 4147 
L 1259 2491 
L 2053 2491 
Q 2509 2491 2742 2702 
Q 2975 2913 2975 3322 
Q 2975 3731 2742 3939 
Q 2509 4147 2053 4147 
L 1259 4147 
z
" transform="scale(0.015625)"/>
      <path id="DejaVuSans-49" d="M 628 4666 
L 1259 4666 
L 1259 0 
L 628 0 
L 628 4666 
z
" transform="scale(0.015625)"/>
      <path id="DejaVuSans-4d" d="M 628 4666 
L 1569 4666 
L 2759 1491 
L 3956 4666 
L 4897 4666 
L 4897 0 
L 4281 0 
L 4281 4097 
L 3078 897 
L 2444 897 
L 1241 4097 
L 1241 0 
L 628 0 
L 628 4666 
z
" transform="scale(0.015625)"/>
      <path id="DejaVuSans-28" d="M 1984 4856 
Q 1566 4138 1362 3434 
Q 1159 2731 1159 2009 
Q 1159 1288 1364 580 
Q 1569 -128 1984 -844 
L 1484 -844 
Q 1016 -109 783 600 
Q 550 1309 550 2009 
Q 550 2706 781 3412 
Q 1013 4119 1484 4856 
L 1984 4856 
z
" transform="scale(0.015625)"/>
      <path id="DejaVuSans-2c" d="M 750 794 
L 1409 794 
L 1409 256 
L 897 -744 
L 494 -744 
L 750 256 
L 750 794 
z
" transform="scale(0.015625)"/>
      <path id="DejaVuSans-29" d="M 513 4856 
L 1013 4856 
Q 1481 4119 1714 3412 
Q 1947 2706 1947 2009 
Q 1947 1309 1714 600 
Q 1481 -109 1013 -844 
L 513 -844 
Q 928 -128 1133 580 
Q 1338 1288 1338 2009 
Q 1338 2731 1133 3434 
Q 928 4138 513 4856 
z
" transform="scale(0.015625)"/>
      <path id="DejaVuSans-78" d="M 3513 3500 
L 2247 1797 
L 3578 0 
L 2900 0 
L 1881 1375 
L 863 0 
L 184 0 
L 1544 1831 
L 300 3500 
L 978 3500 
L 1906 2253 
L 2834 3500 
L 3513 3500 
z
" transform="scale(0.015625)"/>
      <path id="DejaVuSans-37" d="M 525 4666 
L 3525 4666 
L 3525 4397 
L 1831 0 
L 1172 0 
L 2766 4134 
L 525 4134 
L 525 4666 
z
" transform="scale(0.015625)"/>
      <path id="DejaVuSans-3d" d="M 678 2906 
L 4684 2906 
L 4684 2381 
L 678 2381 
L 678 2906 
z
M 678 1631 
L 4684 1631 
L 4684 1100 
L 678 1100 
L 678 1631 
z
" transform="scale(0.015625)"/>
      <path id="DejaVuSans-2e" d="M 684 794 
L 1344 794 
L 1344 0 
L 684 0 
L 684 794 
z
" transform="scale(0.015625)"/>
     </defs>
     <use xlink:href="#DejaVuSans-41"/>
     <use xlink:href="#DejaVuSans-52" x="68.408203"/>
     <use xlink:href="#DejaVuSans-49" x="137.890625"/>
     <use xlink:href="#DejaVuSans-4d" x="167.382812"/>
     <use xlink:href="#DejaVuSans-41" x="253.662109"/>
     <use xlink:href="#DejaVuSans-20" x="322.070312"/>
     <use xlink:href="#DejaVuSans-28" x="353.857422"/>
     <use xlink:href="#DejaVuSans-30" x="392.871094"/>
     <use xlink:href="#DejaVuSans-2c" x="456.494141"/>
     <use xlink:href="#DejaVuSans-20" x="488.28125"/>
     <use xlink:href="#DejaVuSans-31" x="520.068359"/>
     <use xlink:href="#DejaVuSans-2c" x="583.691406"/>
     <use xlink:href="#DejaVuSans-20" x="615.478516"/>
     <use xlink:href="#DejaVuSans-31" x="647.265625"/>
     <use xlink:href="#DejaVuSans-29" x="710.888672"/>
     <use xlink:href="#DejaVuSans-78" x="749.902344"/>
     <use xlink:href="#DejaVuSans-28" x="809.082031"/>
     <use xlink:href="#DejaVuSans-30" x="848.095703"/>
     <use xlink:href="#DejaVuSans-2c" x="911.71875"/>
     <use xlink:href="#DejaVuSans-20" x="943.505859"/>
     <use xlink:href="#DejaVuSans-30" x="975.292969"/>
     <use xlink:href="#DejaVuSans-2c" x="1038.916016"/>
     <use xlink:href="#DejaVuSans-20" x="1070.703125"/>
     <use xlink:href="#DejaVuSans-30" x="1102.490234"/>
     <use xlink:href="#DejaVuSans-2c" x="1166.113281"/>
     <use xlink:href="#DejaVuSans-20" x="1197.900391"/>
     <use xlink:href="#DejaVuSans-37" x="1229.6875"/>
     <use xlink:href="#DejaVuSans-29" x="1293.310547"/>
     <use xlink:href="#DejaVuSans-20" x="1332.324219"/>
     <use xlink:href="#DejaVuSans-28" x="1364.111328"/>
     <use xlink:href="#DejaVuSans-52" x="1403.125"/>
     <use xlink:href="#DejaVuSans-32" x="1472.607422"/>
     <use xlink:href="#DejaVuSans-20" x="1536.230469"/>
     <use xlink:href="#DejaVuSans-3d" x="1568.017578"/>
     <use xlink:href="#DejaVuSans-20" x="1651.806641"/>
     <use xlink:href="#DejaVuSans-30" x="1683.59375"/>
     <use xlink:href="#DejaVuSans-2e" x="1747.216797"/>
     <use xlink:href="#DejaVuSans-31" x="1779.003906"/>
     <use xlink:href="#DejaVuSans-33" x="1842.626953"/>
     <use xlink:href="#DejaVuSans-38" x="1906.25"/>
     <use xlink:href="#DejaVuSans-30" x="1969.873047"/>
     <use xlink:href="#DejaVuSans-31" x="2033.496094"/>
     <use xlink:href="#DejaVuSans-34" x="2097.119141"/>
     <use xlink:href="#DejaVuSans-29" x="2160.742188"/>
    </g>
   </g>
   <g id="legend_1">
    <g id="patch_7">
     <path d="M 1274.770313 87.789875 
L 1371.85 87.789875 
Q 1373.85 87.789875 1373.85 85.789875 
L 1373.85 42.7555 
Q 1373.85 40.7555 1371.85 40.7555 
L 1274.770313 40.7555 
Q 1272.770313 40.7555 1272.770313 42.7555 
L 1272.770313 85.789875 
Q 1272.770313 87.789875 1274.770313 87.789875 
z
" style="fill: #ffffff; opacity: 0.8; stroke: #cccccc; stroke-linejoin: miter"/>
    </g>
    <g id="line2d_19">
     <path d="M 1276.770313 48.853937 
L 1286.770313 48.853937 
L 1296.770313 48.853937 
" style="fill: none; stroke: #0000ff; stroke-width: 1.5; stroke-linecap: square"/>
    </g>
    <g id="text_17">
     <!-- Actual Value -->
     <g transform="translate(1304.770313 52.353937)scale(0.1 -0.1)">
      <defs>
       <path id="DejaVuSans-75" d="M 544 1381 
L 544 3500 
L 1119 3500 
L 1119 1403 
Q 1119 906 1312 657 
Q 1506 409 1894 409 
Q 2359 409 2629 706 
Q 2900 1003 2900 1516 
L 2900 3500 
L 3475 3500 
L 3475 0 
L 2900 0 
L 2900 538 
Q 2691 219 2414 64 
Q 2138 -91 1772 -91 
Q 1169 -91 856 284 
Q 544 659 544 1381 
z
M 1991 3584 
L 1991 3584 
z
" transform="scale(0.015625)"/>
       <path id="DejaVuSans-56" d="M 1831 0 
L 50 4666 
L 709 4666 
L 2188 738 
L 3669 4666 
L 4325 4666 
L 2547 0 
L 1831 0 
z
" transform="scale(0.015625)"/>
      </defs>
      <use xlink:href="#DejaVuSans-41"/>
      <use xlink:href="#DejaVuSans-63" x="66.658203"/>
      <use xlink:href="#DejaVuSans-74" x="121.638672"/>
      <use xlink:href="#DejaVuSans-75" x="160.847656"/>
      <use xlink:href="#DejaVuSans-61" x="224.226562"/>
      <use xlink:href="#DejaVuSans-6c" x="285.505859"/>
      <use xlink:href="#DejaVuSans-20" x="313.289062"/>
      <use xlink:href="#DejaVuSans-56" x="345.076172"/>
      <use xlink:href="#DejaVuSans-61" x="405.734375"/>
      <use xlink:href="#DejaVuSans-6c" x="467.013672"/>
      <use xlink:href="#DejaVuSans-75" x="494.796875"/>
      <use xlink:href="#DejaVuSans-65" x="558.175781"/>
     </g>
    </g>
    <g id="line2d_20">
     <path d="M 1276.770313 63.532062 
L 1286.770313 63.532062 
L 1296.770313 63.532062 
" style="fill: none; stroke: #ffa500; stroke-width: 1.5; stroke-linecap: square"/>
    </g>
    <g id="text_18">
     <!-- Check Value -->
     <g transform="translate(1304.770313 67.032062)scale(0.1 -0.1)">
      <defs>
       <path id="DejaVuSans-68" d="M 3513 2113 
L 3513 0 
L 2938 0 
L 2938 2094 
Q 2938 2591 2744 2837 
Q 2550 3084 2163 3084 
Q 1697 3084 1428 2787 
Q 1159 2491 1159 1978 
L 1159 0 
L 581 0 
L 581 4863 
L 1159 4863 
L 1159 2956 
Q 1366 3272 1645 3428 
Q 1925 3584 2291 3584 
Q 2894 3584 3203 3211 
Q 3513 2838 3513 2113 
z
" transform="scale(0.015625)"/>
       <path id="DejaVuSans-6b" d="M 581 4863 
L 1159 4863 
L 1159 1991 
L 2875 3500 
L 3609 3500 
L 1753 1863 
L 3688 0 
L 2938 0 
L 1159 1709 
L 1159 0 
L 581 0 
L 581 4863 
z
" transform="scale(0.015625)"/>
      </defs>
      <use xlink:href="#DejaVuSans-43"/>
      <use xlink:href="#DejaVuSans-68" x="69.824219"/>
      <use xlink:href="#DejaVuSans-65" x="133.203125"/>
      <use xlink:href="#DejaVuSans-63" x="194.726562"/>
      <use xlink:href="#DejaVuSans-6b" x="249.707031"/>
      <use xlink:href="#DejaVuSans-20" x="307.617188"/>
      <use xlink:href="#DejaVuSans-56" x="339.404297"/>
      <use xlink:href="#DejaVuSans-61" x="400.0625"/>
      <use xlink:href="#DejaVuSans-6c" x="461.341797"/>
      <use xlink:href="#DejaVuSans-75" x="489.125"/>
      <use xlink:href="#DejaVuSans-65" x="552.503906"/>
     </g>
    </g>
    <g id="line2d_21">
     <path d="M 1276.770313 78.210187 
L 1286.770313 78.210187 
L 1296.770313 78.210187 
" style="fill: none; stroke: #ff0000; stroke-width: 1.5; stroke-linecap: square"/>
    </g>
    <g id="text_19">
     <!-- Predict Value -->
     <g transform="translate(1304.770313 81.710187)scale(0.1 -0.1)">
      <defs>
       <path id="DejaVuSans-50" d="M 1259 4147 
L 1259 2394 
L 2053 2394 
Q 2494 2394 2734 2622 
Q 2975 2850 2975 3272 
Q 2975 3691 2734 3919 
Q 2494 4147 2053 4147 
L 1259 4147 
z
M 628 4666 
L 2053 4666 
Q 2838 4666 3239 4311 
Q 3641 3956 3641 3272 
Q 3641 2581 3239 2228 
Q 2838 1875 2053 1875 
L 1259 1875 
L 1259 0 
L 628 0 
L 628 4666 
z
" transform="scale(0.015625)"/>
      </defs>
      <use xlink:href="#DejaVuSans-50"/>
      <use xlink:href="#DejaVuSans-72" x="58.552734"/>
      <use xlink:href="#DejaVuSans-65" x="97.416016"/>
      <use xlink:href="#DejaVuSans-64" x="158.939453"/>
      <use xlink:href="#DejaVuSans-69" x="222.416016"/>
      <use xlink:href="#DejaVuSans-63" x="250.199219"/>
      <use xlink:href="#DejaVuSans-74" x="305.179688"/>
      <use xlink:href="#DejaVuSans-20" x="344.388672"/>
      <use xlink:href="#DejaVuSans-56" x="376.175781"/>
      <use xlink:href="#DejaVuSans-61" x="436.833984"/>
      <use xlink:href="#DejaVuSans-6c" x="498.113281"/>
      <use xlink:href="#DejaVuSans-75" x="525.896484"/>
      <use xlink:href="#DejaVuSans-65" x="589.275391"/>
     </g>
    </g>
   </g>
  </g>
 </g>
 <defs>
  <clipPath id="peec51318a3">
   <rect x="39.65" y="35.7555" width="1339.2" height="332.64"/>
  </clipPath>
 </defs>
</svg>
