<?xml version="1.0" encoding="utf-8" standalone="no"?>
<!DOCTYPE svg PUBLIC "-//W3C//DTD SVG 1.1//EN"
  "http://www.w3.org/Graphics/SVG/1.1/DTD/svg11.dtd">
<svg xmlns:xlink="http://www.w3.org/1999/xlink" width="1392.4125pt" height="392.273625pt" viewBox="0 0 1392.4125 392.273625" xmlns="http://www.w3.org/2000/svg" version="1.1">
 <metadata>
  <rdf:RDF xmlns:dc="http://purl.org/dc/elements/1.1/" xmlns:cc="http://creativecommons.org/ns#" xmlns:rdf="http://www.w3.org/1999/02/22-rdf-syntax-ns#">
   <cc:Work>
    <dc:type rdf:resource="http://purl.org/dc/dcmitype/StillImage"/>
    <dc:date>2022-06-01T18:41:51.835714</dc:date>
    <dc:format>image/svg+xml</dc:format>
    <dc:creator>
     <cc:Agent>
      <dc:title>Matplotlib v3.5.1, https://matplotlib.org/</dc:title>
     </cc:Agent>
    </dc:creator>
   </cc:Work>
  </rdf:RDF>
 </metadata>
 <defs>
  <style type="text/css">*{stroke-linejoin: round; stroke-linecap: butt}</style>
 </defs>
 <g id="figure_1">
  <g id="patch_1">
   <path d="M 0 392.273625 
L 1392.4125 392.273625 
L 1392.4125 0 
L 0 0 
z
" style="fill: #ffffff"/>
  </g>
  <g id="axes_1">
   <g id="patch_2">
    <path d="M 46.0125 368.3955 
L 1385.2125 368.3955 
L 1385.2125 35.7555 
L 46.0125 35.7555 
z
" style="fill: #ffffff"/>
   </g>
   <g id="matplotlib.axis_1">
    <g id="xtick_1">
     <g id="line2d_1">
      <defs>
       <path id="m7aa6fff70c" d="M 0 0 
L 0 3.5 
" style="stroke: #000000; stroke-width: 0.8"/>
      </defs>
      <g>
       <use xlink:href="#m7aa6fff70c" x="76.204815" y="368.3955" style="stroke: #000000; stroke-width: 0.8"/>
      </g>
     </g>
     <g id="text_1">
      <!-- 2020-01 -->
      <g transform="translate(55.313409 382.993937)scale(0.1 -0.1)">
       <defs>
        <path id="DejaVuSans-32" d="M 1228 531 
L 3431 531 
L 3431 0 
L 469 0 
L 469 531 
Q 828 903 1448 1529 
Q 2069 2156 2228 2338 
Q 2531 2678 2651 2914 
Q 2772 3150 2772 3378 
Q 2772 3750 2511 3984 
Q 2250 4219 1831 4219 
Q 1534 4219 1204 4116 
Q 875 4013 500 3803 
L 500 4441 
Q 881 4594 1212 4672 
Q 1544 4750 1819 4750 
Q 2544 4750 2975 4387 
Q 3406 4025 3406 3419 
Q 3406 3131 3298 2873 
Q 3191 2616 2906 2266 
Q 2828 2175 2409 1742 
Q 1991 1309 1228 531 
z
" transform="scale(0.015625)"/>
        <path id="DejaVuSans-30" d="M 2034 4250 
Q 1547 4250 1301 3770 
Q 1056 3291 1056 2328 
Q 1056 1369 1301 889 
Q 1547 409 2034 409 
Q 2525 409 2770 889 
Q 3016 1369 3016 2328 
Q 3016 3291 2770 3770 
Q 2525 4250 2034 4250 
z
M 2034 4750 
Q 2819 4750 3233 4129 
Q 3647 3509 3647 2328 
Q 3647 1150 3233 529 
Q 2819 -91 2034 -91 
Q 1250 -91 836 529 
Q 422 1150 422 2328 
Q 422 3509 836 4129 
Q 1250 4750 2034 4750 
z
" transform="scale(0.015625)"/>
        <path id="DejaVuSans-2d" d="M 313 2009 
L 1997 2009 
L 1997 1497 
L 313 1497 
L 313 2009 
z
" transform="scale(0.015625)"/>
        <path id="DejaVuSans-31" d="M 794 531 
L 1825 531 
L 1825 4091 
L 703 3866 
L 703 4441 
L 1819 4666 
L 2450 4666 
L 2450 531 
L 3481 531 
L 3481 0 
L 794 0 
L 794 531 
z
" transform="scale(0.015625)"/>
       </defs>
       <use xlink:href="#DejaVuSans-32"/>
       <use xlink:href="#DejaVuSans-30" x="63.623047"/>
       <use xlink:href="#DejaVuSans-32" x="127.246094"/>
       <use xlink:href="#DejaVuSans-30" x="190.869141"/>
       <use xlink:href="#DejaVuSans-2d" x="254.492188"/>
       <use xlink:href="#DejaVuSans-30" x="290.576172"/>
       <use xlink:href="#DejaVuSans-31" x="354.199219"/>
      </g>
     </g>
    </g>
    <g id="xtick_2">
     <g id="line2d_2">
      <g>
       <use xlink:href="#m7aa6fff70c" x="203.110157" y="368.3955" style="stroke: #000000; stroke-width: 0.8"/>
      </g>
     </g>
     <g id="text_2">
      <!-- 2020-04 -->
      <g transform="translate(182.218751 382.993937)scale(0.1 -0.1)">
       <defs>
        <path id="DejaVuSans-34" d="M 2419 4116 
L 825 1625 
L 2419 1625 
L 2419 4116 
z
M 2253 4666 
L 3047 4666 
L 3047 1625 
L 3713 1625 
L 3713 1100 
L 3047 1100 
L 3047 0 
L 2419 0 
L 2419 1100 
L 313 1100 
L 313 1709 
L 2253 4666 
z
" transform="scale(0.015625)"/>
       </defs>
       <use xlink:href="#DejaVuSans-32"/>
       <use xlink:href="#DejaVuSans-30" x="63.623047"/>
       <use xlink:href="#DejaVuSans-32" x="127.246094"/>
       <use xlink:href="#DejaVuSans-30" x="190.869141"/>
       <use xlink:href="#DejaVuSans-2d" x="254.492188"/>
       <use xlink:href="#DejaVuSans-30" x="290.576172"/>
       <use xlink:href="#DejaVuSans-34" x="354.199219"/>
      </g>
     </g>
    </g>
    <g id="xtick_3">
     <g id="line2d_3">
      <g>
       <use xlink:href="#m7aa6fff70c" x="330.015499" y="368.3955" style="stroke: #000000; stroke-width: 0.8"/>
      </g>
     </g>
     <g id="text_3">
      <!-- 2020-07 -->
      <g transform="translate(309.124093 382.993937)scale(0.1 -0.1)">
       <defs>
        <path id="DejaVuSans-37" d="M 525 4666 
L 3525 4666 
L 3525 4397 
L 1831 0 
L 1172 0 
L 2766 4134 
L 525 4134 
L 525 4666 
z
" transform="scale(0.015625)"/>
       </defs>
       <use xlink:href="#DejaVuSans-32"/>
       <use xlink:href="#DejaVuSans-30" x="63.623047"/>
       <use xlink:href="#DejaVuSans-32" x="127.246094"/>
       <use xlink:href="#DejaVuSans-30" x="190.869141"/>
       <use xlink:href="#DejaVuSans-2d" x="254.492188"/>
       <use xlink:href="#DejaVuSans-30" x="290.576172"/>
       <use xlink:href="#DejaVuSans-37" x="354.199219"/>
      </g>
     </g>
    </g>
    <g id="xtick_4">
     <g id="line2d_4">
      <g>
       <use xlink:href="#m7aa6fff70c" x="458.315405" y="368.3955" style="stroke: #000000; stroke-width: 0.8"/>
      </g>
     </g>
     <g id="text_4">
      <!-- 2020-10 -->
      <g transform="translate(437.423999 382.993937)scale(0.1 -0.1)">
       <use xlink:href="#DejaVuSans-32"/>
       <use xlink:href="#DejaVuSans-30" x="63.623047"/>
       <use xlink:href="#DejaVuSans-32" x="127.246094"/>
       <use xlink:href="#DejaVuSans-30" x="190.869141"/>
       <use xlink:href="#DejaVuSans-2d" x="254.492188"/>
       <use xlink:href="#DejaVuSans-31" x="290.576172"/>
       <use xlink:href="#DejaVuSans-30" x="354.199219"/>
      </g>
     </g>
    </g>
    <g id="xtick_5">
     <g id="line2d_5">
      <g>
       <use xlink:href="#m7aa6fff70c" x="586.615312" y="368.3955" style="stroke: #000000; stroke-width: 0.8"/>
      </g>
     </g>
     <g id="text_5">
      <!-- 2021-01 -->
      <g transform="translate(565.723905 382.993937)scale(0.1 -0.1)">
       <use xlink:href="#DejaVuSans-32"/>
       <use xlink:href="#DejaVuSans-30" x="63.623047"/>
       <use xlink:href="#DejaVuSans-32" x="127.246094"/>
       <use xlink:href="#DejaVuSans-31" x="190.869141"/>
       <use xlink:href="#DejaVuSans-2d" x="254.492188"/>
       <use xlink:href="#DejaVuSans-30" x="290.576172"/>
       <use xlink:href="#DejaVuSans-31" x="354.199219"/>
      </g>
     </g>
    </g>
    <g id="xtick_6">
     <g id="line2d_6">
      <g>
       <use xlink:href="#m7aa6fff70c" x="712.12609" y="368.3955" style="stroke: #000000; stroke-width: 0.8"/>
      </g>
     </g>
     <g id="text_6">
      <!-- 2021-04 -->
      <g transform="translate(691.234683 382.993937)scale(0.1 -0.1)">
       <use xlink:href="#DejaVuSans-32"/>
       <use xlink:href="#DejaVuSans-30" x="63.623047"/>
       <use xlink:href="#DejaVuSans-32" x="127.246094"/>
       <use xlink:href="#DejaVuSans-31" x="190.869141"/>
       <use xlink:href="#DejaVuSans-2d" x="254.492188"/>
       <use xlink:href="#DejaVuSans-30" x="290.576172"/>
       <use xlink:href="#DejaVuSans-34" x="354.199219"/>
      </g>
     </g>
    </g>
    <g id="xtick_7">
     <g id="line2d_7">
      <g>
       <use xlink:href="#m7aa6fff70c" x="839.031432" y="368.3955" style="stroke: #000000; stroke-width: 0.8"/>
      </g>
     </g>
     <g id="text_7">
      <!-- 2021-07 -->
      <g transform="translate(818.140025 382.993937)scale(0.1 -0.1)">
       <use xlink:href="#DejaVuSans-32"/>
       <use xlink:href="#DejaVuSans-30" x="63.623047"/>
       <use xlink:href="#DejaVuSans-32" x="127.246094"/>
       <use xlink:href="#DejaVuSans-31" x="190.869141"/>
       <use xlink:href="#DejaVuSans-2d" x="254.492188"/>
       <use xlink:href="#DejaVuSans-30" x="290.576172"/>
       <use xlink:href="#DejaVuSans-37" x="354.199219"/>
      </g>
     </g>
    </g>
    <g id="xtick_8">
     <g id="line2d_8">
      <g>
       <use xlink:href="#m7aa6fff70c" x="967.331338" y="368.3955" style="stroke: #000000; stroke-width: 0.8"/>
      </g>
     </g>
     <g id="text_8">
      <!-- 2021-10 -->
      <g transform="translate(946.439932 382.993937)scale(0.1 -0.1)">
       <use xlink:href="#DejaVuSans-32"/>
       <use xlink:href="#DejaVuSans-30" x="63.623047"/>
       <use xlink:href="#DejaVuSans-32" x="127.246094"/>
       <use xlink:href="#DejaVuSans-31" x="190.869141"/>
       <use xlink:href="#DejaVuSans-2d" x="254.492188"/>
       <use xlink:href="#DejaVuSans-31" x="290.576172"/>
       <use xlink:href="#DejaVuSans-30" x="354.199219"/>
      </g>
     </g>
    </g>
    <g id="xtick_9">
     <g id="line2d_9">
      <g>
       <use xlink:href="#m7aa6fff70c" x="1095.631244" y="368.3955" style="stroke: #000000; stroke-width: 0.8"/>
      </g>
     </g>
     <g id="text_9">
      <!-- 2022-01 -->
      <g transform="translate(1074.739838 382.993937)scale(0.1 -0.1)">
       <use xlink:href="#DejaVuSans-32"/>
       <use xlink:href="#DejaVuSans-30" x="63.623047"/>
       <use xlink:href="#DejaVuSans-32" x="127.246094"/>
       <use xlink:href="#DejaVuSans-32" x="190.869141"/>
       <use xlink:href="#DejaVuSans-2d" x="254.492188"/>
       <use xlink:href="#DejaVuSans-30" x="290.576172"/>
       <use xlink:href="#DejaVuSans-31" x="354.199219"/>
      </g>
     </g>
    </g>
    <g id="xtick_10">
     <g id="line2d_10">
      <g>
       <use xlink:href="#m7aa6fff70c" x="1221.142022" y="368.3955" style="stroke: #000000; stroke-width: 0.8"/>
      </g>
     </g>
     <g id="text_10">
      <!-- 2022-04 -->
      <g transform="translate(1200.250616 382.993937)scale(0.1 -0.1)">
       <use xlink:href="#DejaVuSans-32"/>
       <use xlink:href="#DejaVuSans-30" x="63.623047"/>
       <use xlink:href="#DejaVuSans-32" x="127.246094"/>
       <use xlink:href="#DejaVuSans-32" x="190.869141"/>
       <use xlink:href="#DejaVuSans-2d" x="254.492188"/>
       <use xlink:href="#DejaVuSans-30" x="290.576172"/>
       <use xlink:href="#DejaVuSans-34" x="354.199219"/>
      </g>
     </g>
    </g>
    <g id="xtick_11">
     <g id="line2d_11">
      <g>
       <use xlink:href="#m7aa6fff70c" x="1348.047364" y="368.3955" style="stroke: #000000; stroke-width: 0.8"/>
      </g>
     </g>
     <g id="text_11">
      <!-- 2022-07 -->
      <g transform="translate(1327.155958 382.993937)scale(0.1 -0.1)">
       <use xlink:href="#DejaVuSans-32"/>
       <use xlink:href="#DejaVuSans-30" x="63.623047"/>
       <use xlink:href="#DejaVuSans-32" x="127.246094"/>
       <use xlink:href="#DejaVuSans-32" x="190.869141"/>
       <use xlink:href="#DejaVuSans-2d" x="254.492188"/>
       <use xlink:href="#DejaVuSans-30" x="290.576172"/>
       <use xlink:href="#DejaVuSans-37" x="354.199219"/>
      </g>
     </g>
    </g>
   </g>
   <g id="matplotlib.axis_2">
    <g id="ytick_1">
     <g id="line2d_12">
      <defs>
       <path id="m41239d8ed0" d="M 0 0 
L -3.5 0 
" style="stroke: #000000; stroke-width: 0.8"/>
      </defs>
      <g>
       <use xlink:href="#m41239d8ed0" x="46.0125" y="353.2755" style="stroke: #000000; stroke-width: 0.8"/>
      </g>
     </g>
     <g id="text_12">
      <!-- 0 -->
      <g transform="translate(32.65 357.074719)scale(0.1 -0.1)">
       <use xlink:href="#DejaVuSans-30"/>
      </g>
     </g>
    </g>
    <g id="ytick_2">
     <g id="line2d_13">
      <g>
       <use xlink:href="#m41239d8ed0" x="46.0125" y="292.227756" style="stroke: #000000; stroke-width: 0.8"/>
      </g>
     </g>
     <g id="text_13">
      <!-- 2000 -->
      <g transform="translate(13.5625 296.026975)scale(0.1 -0.1)">
       <use xlink:href="#DejaVuSans-32"/>
       <use xlink:href="#DejaVuSans-30" x="63.623047"/>
       <use xlink:href="#DejaVuSans-30" x="127.246094"/>
       <use xlink:href="#DejaVuSans-30" x="190.869141"/>
      </g>
     </g>
    </g>
    <g id="ytick_3">
     <g id="line2d_14">
      <g>
       <use xlink:href="#m41239d8ed0" x="46.0125" y="231.180012" style="stroke: #000000; stroke-width: 0.8"/>
      </g>
     </g>
     <g id="text_14">
      <!-- 4000 -->
      <g transform="translate(13.5625 234.979231)scale(0.1 -0.1)">
       <use xlink:href="#DejaVuSans-34"/>
       <use xlink:href="#DejaVuSans-30" x="63.623047"/>
       <use xlink:href="#DejaVuSans-30" x="127.246094"/>
       <use xlink:href="#DejaVuSans-30" x="190.869141"/>
      </g>
     </g>
    </g>
    <g id="ytick_4">
     <g id="line2d_15">
      <g>
       <use xlink:href="#m41239d8ed0" x="46.0125" y="170.132268" style="stroke: #000000; stroke-width: 0.8"/>
      </g>
     </g>
     <g id="text_15">
      <!-- 6000 -->
      <g transform="translate(13.5625 173.931487)scale(0.1 -0.1)">
       <defs>
        <path id="DejaVuSans-36" d="M 2113 2584 
Q 1688 2584 1439 2293 
Q 1191 2003 1191 1497 
Q 1191 994 1439 701 
Q 1688 409 2113 409 
Q 2538 409 2786 701 
Q 3034 994 3034 1497 
Q 3034 2003 2786 2293 
Q 2538 2584 2113 2584 
z
M 3366 4563 
L 3366 3988 
Q 3128 4100 2886 4159 
Q 2644 4219 2406 4219 
Q 1781 4219 1451 3797 
Q 1122 3375 1075 2522 
Q 1259 2794 1537 2939 
Q 1816 3084 2150 3084 
Q 2853 3084 3261 2657 
Q 3669 2231 3669 1497 
Q 3669 778 3244 343 
Q 2819 -91 2113 -91 
Q 1303 -91 875 529 
Q 447 1150 447 2328 
Q 447 3434 972 4092 
Q 1497 4750 2381 4750 
Q 2619 4750 2861 4703 
Q 3103 4656 3366 4563 
z
" transform="scale(0.015625)"/>
       </defs>
       <use xlink:href="#DejaVuSans-36"/>
       <use xlink:href="#DejaVuSans-30" x="63.623047"/>
       <use xlink:href="#DejaVuSans-30" x="127.246094"/>
       <use xlink:href="#DejaVuSans-30" x="190.869141"/>
      </g>
     </g>
    </g>
    <g id="ytick_5">
     <g id="line2d_16">
      <g>
       <use xlink:href="#m41239d8ed0" x="46.0125" y="109.084524" style="stroke: #000000; stroke-width: 0.8"/>
      </g>
     </g>
     <g id="text_16">
      <!-- 8000 -->
      <g transform="translate(13.5625 112.883743)scale(0.1 -0.1)">
       <defs>
        <path id="DejaVuSans-38" d="M 2034 2216 
Q 1584 2216 1326 1975 
Q 1069 1734 1069 1313 
Q 1069 891 1326 650 
Q 1584 409 2034 409 
Q 2484 409 2743 651 
Q 3003 894 3003 1313 
Q 3003 1734 2745 1975 
Q 2488 2216 2034 2216 
z
M 1403 2484 
Q 997 2584 770 2862 
Q 544 3141 544 3541 
Q 544 4100 942 4425 
Q 1341 4750 2034 4750 
Q 2731 4750 3128 4425 
Q 3525 4100 3525 3541 
Q 3525 3141 3298 2862 
Q 3072 2584 2669 2484 
Q 3125 2378 3379 2068 
Q 3634 1759 3634 1313 
Q 3634 634 3220 271 
Q 2806 -91 2034 -91 
Q 1263 -91 848 271 
Q 434 634 434 1313 
Q 434 1759 690 2068 
Q 947 2378 1403 2484 
z
M 1172 3481 
Q 1172 3119 1398 2916 
Q 1625 2713 2034 2713 
Q 2441 2713 2670 2916 
Q 2900 3119 2900 3481 
Q 2900 3844 2670 4047 
Q 2441 4250 2034 4250 
Q 1625 4250 1398 4047 
Q 1172 3844 1172 3481 
z
" transform="scale(0.015625)"/>
       </defs>
       <use xlink:href="#DejaVuSans-38"/>
       <use xlink:href="#DejaVuSans-30" x="63.623047"/>
       <use xlink:href="#DejaVuSans-30" x="127.246094"/>
       <use xlink:href="#DejaVuSans-30" x="190.869141"/>
      </g>
     </g>
    </g>
    <g id="ytick_6">
     <g id="line2d_17">
      <g>
       <use xlink:href="#m41239d8ed0" x="46.0125" y="48.03678" style="stroke: #000000; stroke-width: 0.8"/>
      </g>
     </g>
     <g id="text_17">
      <!-- 10000 -->
      <g transform="translate(7.2 51.835999)scale(0.1 -0.1)">
       <use xlink:href="#DejaVuSans-31"/>
       <use xlink:href="#DejaVuSans-30" x="63.623047"/>
       <use xlink:href="#DejaVuSans-30" x="127.246094"/>
       <use xlink:href="#DejaVuSans-30" x="190.869141"/>
       <use xlink:href="#DejaVuSans-30" x="254.492188"/>
      </g>
     </g>
    </g>
   </g>
   <g id="line2d_18">
    <path d="M 106.885227 353.2755 
L 183.586258 353.214452 
L 187.769951 353.122881 
L 189.164515 352.848166 
L 190.559079 353.122881 
L 193.348208 353.000785 
L 196.137336 352.87869 
L 197.5319 352.085069 
L 198.926464 352.665023 
L 200.321029 352.32926 
L 201.715593 352.787118 
L 203.110157 352.481879 
L 204.504721 352.634499 
L 205.899285 352.176641 
L 207.29385 352.695546 
L 208.688414 352.298736 
L 210.082978 352.359784 
L 212.872106 351.413544 
L 214.266671 351.505115 
L 215.661235 351.77983 
L 217.055799 351.566163 
L 218.450363 351.77983 
L 219.844927 351.535639 
L 221.239492 352.054545 
L 222.634056 351.810354 
L 224.02862 351.810354 
L 225.423184 351.413544 
L 226.817748 351.352496 
L 228.212313 351.77983 
L 229.606877 351.688259 
L 231.001441 351.749306 
L 232.396005 351.688259 
L 233.790569 351.871402 
L 236.579698 351.688259 
L 237.974262 352.298736 
L 239.368826 352.665023 
L 240.76339 351.810354 
L 242.157955 352.359784 
L 244.947083 352.176641 
L 246.341647 351.016733 
L 247.736211 352.115593 
L 249.130776 352.695546 
L 251.919904 352.72607 
L 253.314468 352.481879 
L 254.709032 352.909214 
L 258.892725 352.756594 
L 260.287289 352.634499 
L 261.681853 353.092357 
L 263.076418 352.665023 
L 264.470982 352.970261 
L 265.865546 352.603975 
L 267.26011 352.970261 
L 270.049239 353.092357 
L 271.443803 352.87869 
L 272.838367 353.031309 
L 274.232931 353.031309 
L 275.627495 352.817642 
L 278.416624 353.092357 
L 279.811188 352.787118 
L 282.600316 353.000785 
L 283.994881 352.603975 
L 286.784009 352.665023 
L 288.178573 352.115593 
L 289.573137 353.000785 
L 290.967701 352.817642 
L 292.362266 352.909214 
L 293.75683 352.848166 
L 295.151394 352.054545 
L 296.545958 352.72607 
L 297.940522 353.000785 
L 299.335087 353.122881 
L 302.124215 353.031309 
L 303.518779 352.848166 
L 304.913343 353.122881 
L 307.702472 352.848166 
L 310.4916 353.061833 
L 311.886164 352.817642 
L 316.069857 353.183928 
L 325.831806 353.214452 
L 327.226371 353.031309 
L 328.620935 353.244976 
L 330.015499 353.061833 
L 331.410063 353.122881 
L 334.199192 353.031309 
L 335.593756 353.183928 
L 338.382884 352.817642 
L 339.777448 353.153405 
L 341.172013 353.153405 
L 342.566577 352.970261 
L 346.750269 353.214452 
L 349.539398 353.092357 
L 350.933962 353.214452 
L 352.328526 353.153405 
L 355.117655 353.244976 
L 356.512219 353.2755 
L 357.906783 353.183928 
L 359.301347 352.87869 
L 360.695911 353.153405 
L 362.090476 353.183928 
L 364.879604 352.756594 
L 366.274168 352.146117 
L 367.668732 352.573451 
L 369.063297 352.268212 
L 370.457861 353.000785 
L 371.852425 352.939737 
L 373.246989 352.512403 
L 374.641553 352.87869 
L 376.036118 352.542927 
L 377.430682 352.32926 
L 378.825246 352.512403 
L 380.21981 351.77983 
L 384.403503 351.291448 
L 385.798067 350.43678 
L 387.192631 351.840878 
L 388.587195 352.207164 
L 391.376324 351.596687 
L 392.770888 351.352496 
L 394.165452 352.542927 
L 395.560016 351.810354 
L 396.954581 351.93245 
L 398.349145 351.016733 
L 399.743709 350.742019 
L 401.138273 352.756594 
L 402.532837 352.207164 
L 403.927402 351.291448 
L 405.321966 352.207164 
L 406.71653 352.451355 
L 408.111094 352.817642 
L 409.505658 351.840878 
L 410.900223 351.444068 
L 412.294787 351.474592 
L 413.689351 351.810354 
L 415.083915 351.474592 
L 416.478479 352.268212 
L 419.267608 350.589399 
L 420.662172 351.688259 
L 423.4513 352.939737 
L 424.845865 351.962974 
L 426.240429 352.512403 
L 427.634993 350.772542 
L 429.029557 350.467304 
L 430.424121 351.993497 
L 431.818686 351.444068 
L 433.21325 352.32926 
L 434.607814 351.993497 
L 436.002378 350.925162 
L 437.396942 351.047257 
L 438.791507 351.535639 
L 440.186071 351.108305 
L 441.580635 351.718783 
L 442.975199 352.176641 
L 444.369763 351.749306 
L 445.764328 350.803066 
L 447.158892 351.810354 
L 448.553456 352.054545 
L 449.94802 352.054545 
L 451.342584 351.38302 
L 454.131713 352.481879 
L 456.920841 351.260924 
L 458.315405 351.047257 
L 459.70997 351.810354 
L 461.104534 351.38302 
L 462.499098 352.390308 
L 463.893662 352.176641 
L 465.288226 352.115593 
L 466.682791 352.817642 
L 469.471919 352.481879 
L 470.866483 353.122881 
L 472.261047 352.359784 
L 475.050176 352.756594 
L 476.44474 352.72607 
L 477.839304 352.451355 
L 479.233868 351.566163 
L 482.022997 351.749306 
L 483.417561 352.115593 
L 484.812125 351.840878 
L 486.206689 351.352496 
L 487.601254 351.657735 
L 488.995818 351.505115 
L 490.390382 351.596687 
L 491.784946 352.298736 
L 493.17951 352.390308 
L 494.574075 350.742019 
L 495.968639 351.77983 
L 497.363203 352.085069 
L 498.757767 352.207164 
L 500.152331 350.650447 
L 501.546896 351.810354 
L 502.94146 352.207164 
L 504.336024 351.291448 
L 505.730588 349.948398 
L 507.125152 352.054545 
L 508.519716 351.93245 
L 509.914281 352.085069 
L 511.308845 352.359784 
L 512.703409 351.688259 
L 515.492537 352.146117 
L 516.887102 351.505115 
L 518.281666 351.627211 
L 519.67623 352.451355 
L 521.070794 352.603975 
L 522.465358 351.77983 
L 523.859923 352.420832 
L 525.254487 352.146117 
L 526.649051 352.634499 
L 528.043615 352.115593 
L 529.438179 352.207164 
L 530.832744 351.810354 
L 532.227308 352.268212 
L 533.621872 351.108305 
L 535.016436 350.955686 
L 536.411 351.77983 
L 537.805565 352.207164 
L 539.200129 351.352496 
L 540.594693 351.444068 
L 541.989257 351.718783 
L 543.383821 350.314684 
L 544.778386 350.98621 
L 546.17295 350.98621 
L 547.567514 350.864114 
L 548.962078 350.101017 
L 550.356642 351.199877 
L 551.751207 349.49054 
L 553.145771 350.955686 
L 554.540335 349.49054 
L 555.934899 350.98621 
L 557.329463 350.650447 
L 558.724028 350.619923 
L 560.118592 351.169353 
L 561.513156 351.169353 
L 562.90772 350.345208 
L 564.302284 350.742019 
L 565.696849 350.223113 
L 567.091413 349.551588 
L 568.485977 349.276873 
L 569.880541 350.131541 
L 571.275105 349.765255 
L 572.66967 348.94111 
L 574.064234 349.734731 
L 575.458798 346.65182 
L 576.853362 347.689631 
L 578.247926 349.063206 
L 579.642491 348.178013 
L 581.037055 346.285533 
L 582.431619 348.178013 
L 583.826183 350.650447 
L 585.220747 347.903299 
L 586.615312 347.384393 
L 588.009876 348.116966 
L 589.40444 347.201249 
L 590.799004 343.629956 
L 592.193568 346.438153 
L 593.588133 347.140202 
L 594.982697 343.691004 
L 596.377261 342.775288 
L 599.166389 341.432238 
L 600.560954 340.119711 
L 601.955518 338.410374 
L 603.350082 336.48737 
L 604.744646 337.860945 
L 606.13921 336.578942 
L 607.533775 340.913332 
L 608.928339 333.434983 
L 610.322903 344.362529 
L 611.717467 343.202622 
L 613.112031 342.622669 
L 614.506596 340.82176 
L 615.90116 337.097848 
L 617.295724 335.968465 
L 618.690288 333.923365 
L 620.084852 335.968465 
L 621.479417 329.283737 
L 622.873981 328.093306 
L 624.268545 332.946601 
L 625.663109 333.160268 
L 627.057673 325.498776 
L 628.452238 322.385342 
L 629.846802 325.620872 
L 631.241366 321.408578 
L 632.63593 326.017682 
L 634.030494 328.36802 
L 635.425059 327.482828 
L 636.819623 328.215401 
L 638.214187 328.245925 
L 639.608751 333.343412 
L 641.003315 335.571654 
L 642.39788 327.086018 
L 643.792444 327.330209 
L 645.187008 328.154353 
L 646.581572 326.170302 
L 647.976136 328.673259 
L 649.370701 331.450932 
L 650.765265 324.674632 
L 652.159829 328.123829 
L 653.554393 325.101966 
L 654.948957 327.055494 
L 656.343522 324.674632 
L 657.738086 321.561197 
L 659.13265 327.696495 
L 660.527214 327.757543 
L 661.921778 331.939313 
L 663.316343 332.824506 
L 664.710907 326.567112 
L 666.105471 331.298312 
L 667.500035 334.411747 
L 670.289164 322.8432 
L 671.683728 325.376681 
L 673.078292 328.642735 
L 675.86742 330.382596 
L 677.261985 327.086018 
L 678.656549 326.62816 
L 680.051113 321.500149 
L 681.445677 329.711071 
L 682.840241 329.527928 
L 684.234806 330.01631 
L 685.62937 333.770746 
L 687.023934 325.376681 
L 688.418498 330.870978 
L 689.813062 329.100593 
L 691.207627 331.084645 
L 692.602191 332.244552 
L 693.996755 330.840454 
L 695.391319 328.459592 
L 696.785883 328.978498 
L 698.180448 331.35936 
L 699.575012 329.650023 
L 700.969576 330.80993 
L 702.36414 328.36802 
L 703.758704 327.879638 
L 705.153269 324.277822 
L 706.547833 325.224062 
L 707.942397 331.878266 
L 709.336961 322.507437 
L 710.731525 321.194911 
L 712.12609 322.354818 
L 713.520654 320.40129 
L 714.915218 321.866436 
L 716.309782 317.806761 
L 717.704346 320.737052 
L 719.09891 321.835912 
L 720.493475 323.942059 
L 721.888039 325.376681 
L 723.282603 322.232722 
L 724.677167 321.530673 
L 726.071731 324.003107 
L 727.466296 327.208113 
L 728.86086 320.920196 
L 730.255424 324.003107 
L 731.649988 322.629533 
L 733.044552 321.530673 
L 734.439117 321.958007 
L 735.833681 321.622245 
L 737.228245 320.920196 
L 738.622809 317.165759 
L 740.017373 322.568485 
L 741.411938 316.433186 
L 742.806502 315.395375 
L 744.201066 319.394002 
L 745.59563 317.104712 
L 746.990194 324.644108 
L 748.384759 320.218147 
L 749.779323 323.117914 
L 751.173887 318.203571 
L 752.568451 321.34753 
L 753.963015 325.346157 
L 755.35758 320.584433 
L 756.752144 324.827251 
L 758.146708 322.171674 
L 759.541272 322.446389 
L 760.935836 320.920196 
L 762.330401 317.806761 
L 763.724965 321.652769 
L 765.119529 320.645481 
L 766.514093 319.210859 
L 767.908657 320.584433 
L 769.303222 316.433186 
L 770.697786 317.074188 
L 772.09235 314.296515 
L 773.486914 311.060985 
L 774.881478 315.639566 
L 776.276043 321.011767 
L 777.670607 315.303803 
L 779.065171 312.404035 
L 780.459735 315.059612 
L 781.854299 316.738425 
L 783.248864 313.930229 
L 786.037992 318.020428 
L 787.432556 313.869181 
L 788.82712 318.814049 
L 790.221685 319.638193 
L 791.616249 317.593094 
L 793.010813 317.01314 
L 794.405377 320.340242 
L 795.799941 319.699241 
L 797.194506 321.011767 
L 798.58907 316.921568 
L 799.983634 321.133863 
L 801.378198 318.814049 
L 802.772762 318.630905 
L 804.167327 320.096051 
L 805.561891 317.104712 
L 806.956455 317.989904 
L 808.351019 317.837285 
L 809.745583 317.928856 
L 811.140148 313.960753 
L 812.534712 311.396748 
L 813.929276 308.405408 
L 815.32384 312.098797 
L 816.718404 306.360309 
L 818.112969 310.450508 
L 819.507533 309.992649 
L 820.902097 308.069646 
L 822.296661 308.34436 
L 823.691225 309.44322 
L 825.08579 305.627736 
L 826.480354 307.825455 
L 827.874918 290.548943 
L 829.269482 295.890621 
L 830.664046 278.064679 
L 832.058611 279.926636 
L 833.453175 270.922093 
L 834.847739 274.249195 
L 836.242303 259.261974 
L 837.636867 262.6196 
L 839.031432 263.16903 
L 840.425996 252.302531 
L 841.82056 247.205045 
L 843.215124 245.861994 
L 844.609688 259.414594 
L 846.004253 243.664276 
L 847.398817 241.436033 
L 848.793381 236.704833 
L 850.187945 157.251194 
L 851.582509 147.239364 
L 852.977074 141.958734 
L 854.371638 157.22067 
L 855.766202 181.945006 
L 857.160766 167.690358 
L 858.55533 155.511333 
L 859.949895 156.091287 
L 861.344459 168.239788 
L 864.133587 154.717713 
L 865.528151 168.392407 
L 866.922716 157.7701 
L 868.31728 116.868111 
L 869.711844 115.67768 
L 871.106408 117.264922 
L 872.500972 83.047661 
L 873.895537 103.468131 
L 875.290101 112.04534 
L 876.684665 68.701441 
L 878.079229 90.556534 
L 880.868358 82.376136 
L 882.262922 55.75932 
L 883.657486 70.044492 
L 885.05205 59.361136 
L 886.446614 67.480486 
L 887.841179 96.905499 
L 889.235743 82.040373 
L 890.630307 81.826706 
L 892.024871 65.526959 
L 893.419435 110.610718 
L 894.814 80.51418 
L 896.208564 90.617581 
L 897.603128 103.162893 
L 898.997692 99.561076 
L 900.392256 84.177044 
L 901.786821 89.671341 
L 903.181385 73.402118 
L 904.575949 54.996223 
L 905.970513 88.755625 
L 907.365077 79.41532 
L 908.759642 55.240414 
L 910.154206 55.972987 
L 911.54877 61.83357 
L 912.943334 68.793013 
L 914.337898 50.8755 
L 915.732463 89.640817 
L 917.127027 93.547873 
L 918.521591 120.103642 
L 919.916155 144.186977 
L 921.310719 161.677155 
L 922.705284 167.842978 
L 925.494412 151.54323 
L 926.888976 163.783303 
L 928.28354 141.836639 
L 929.678104 113.541009 
L 931.072669 71.814876 
L 932.467233 132.587905 
L 935.256361 99.408456 
L 936.650925 116.807064 
L 938.04549 97.058118 
L 939.440054 108.016188 
L 940.834618 108.046712 
L 942.229182 98.64536 
L 943.623746 123.858078 
L 945.018311 126.269464 
L 946.412875 120.439404 
L 947.807439 100.202077 
L 949.202003 93.303682 
L 950.596567 95.837163 
L 951.991132 92.479538 
L 953.385696 100.263125 
L 954.78026 134.999291 
L 956.174824 141.592448 
L 957.569388 118.394305 
L 958.963953 123.94965 
L 960.358517 149.589702 
L 961.753081 150.841181 
L 963.147645 169.857553 
L 964.542209 181.822911 
L 965.936774 200.564568 
L 967.331338 199.16047 
L 968.725902 204.532672 
L 970.120466 228.219196 
L 971.51503 222.877519 
L 972.909595 206.974581 
L 974.304159 243.511656 
L 975.698723 236.277499 
L 977.093287 249.616431 
L 978.487851 248.212333 
L 979.882416 243.267465 
L 981.27698 263.382697 
L 984.066108 281.422305 
L 985.460672 281.117067 
L 986.855237 288.015462 
L 988.249801 293.876045 
L 989.644365 286.214553 
L 991.038929 296.98948 
L 992.433493 299.309294 
L 993.828058 305.963498 
L 995.222622 309.473744 
L 996.617186 308.222265 
L 998.01175 310.755746 
L 999.406314 313.014513 
L 1000.800879 316.341615 
L 1002.195443 323.514725 
L 1003.590007 325.437729 
L 1004.984571 325.804015 
L 1006.379135 326.841827 
L 1007.7737 331.542503 
L 1009.168264 332.641363 
L 1010.562828 333.953889 
L 1011.957392 336.517894 
L 1013.351956 335.968465 
L 1014.746521 335.205368 
L 1016.141085 334.778034 
L 1017.535649 336.48737 
L 1018.930213 338.53247 
L 1020.324777 338.898756 
L 1021.719342 339.020852 
L 1023.113906 340.669141 
L 1024.50847 340.97438 
L 1025.903034 342.225858 
L 1027.297598 344.332006 
L 1028.692163 342.653193 
L 1030.086727 343.324718 
L 1031.481291 345.858199 
L 1032.875855 345.766627 
L 1034.270419 343.629956 
L 1035.664984 343.629956 
L 1037.059548 344.515149 
L 1038.454112 343.202622 
L 1039.848676 345.949771 
L 1041.24324 346.132914 
L 1042.637805 347.720155 
L 1044.032369 345.949771 
L 1045.426933 347.59806 
L 1046.821497 347.689631 
L 1048.216061 348.605348 
L 1049.610626 349.307397 
L 1053.794318 348.696919 
L 1055.188882 349.795779 
L 1056.583447 349.917874 
L 1057.978011 350.589399 
L 1059.372575 350.101017 
L 1060.767139 350.98621 
L 1063.556268 350.803066 
L 1064.950832 351.291448 
L 1066.345396 351.047257 
L 1067.73996 351.38302 
L 1069.134524 351.291448 
L 1070.529089 351.505115 
L 1071.923653 351.38302 
L 1073.318217 351.077781 
L 1076.107345 350.925162 
L 1077.50191 351.38302 
L 1078.896474 350.864114 
L 1080.291038 351.413544 
L 1081.685602 350.83359 
L 1083.080166 350.558875 
L 1084.474731 350.955686 
L 1085.869295 349.460016 
L 1087.263859 349.551588 
L 1088.658423 349.368444 
L 1090.052987 348.849539 
L 1091.447552 345.919247 
L 1092.842116 343.26367 
L 1094.23668 340.058663 
L 1095.631244 338.959804 
L 1097.025808 338.959804 
L 1098.420373 336.304227 
L 1099.814937 332.732934 
L 1101.209501 323.758916 
L 1102.604065 309.656887 
L 1103.998629 293.876045 
L 1105.393194 286.916602 
L 1106.787758 270.158997 
L 1108.182322 276.385866 
L 1109.576886 271.318904 
L 1110.97145 268.174945 
L 1112.366015 249.891146 
L 1113.760579 251.447863 
L 1115.155143 246.258805 
L 1116.549707 244.549468 
L 1117.944271 252.363579 
L 1119.338836 257.125303 
L 1120.7334 262.711172 
L 1122.127964 255.751729 
L 1123.522528 249.738526 
L 1124.917092 249.463811 
L 1126.311657 246.197757 
L 1127.706221 252.333055 
L 1129.100785 268.907518 
L 1130.495349 262.100694 
L 1131.889913 267.381324 
L 1133.284478 267.839182 
L 1134.679042 259.902976 
L 1136.073606 266.923466 
L 1137.46817 288.595415 
L 1138.862734 304.132066 
L 1140.257299 308.710647 
L 1141.651863 306.085594 
L 1143.046427 309.504268 
L 1144.440991 311.152557 
L 1145.835555 312.373512 
L 1147.230119 312.098797 
L 1148.624684 322.202198 
L 1150.019248 325.224062 
L 1151.413812 324.247298 
L 1152.808376 318.203571 
L 1154.20294 326.170302 
L 1155.597505 325.865063 
L 1156.992069 329.100593 
L 1158.386633 334.045461 
L 1159.781197 335.14432 
L 1161.175761 330.901502 
L 1162.570326 333.526555 
L 1163.96489 334.075985 
L 1165.359454 334.106508 
L 1166.754018 336.121084 
L 1168.148582 339.020852 
L 1169.543147 337.616754 
L 1170.937711 335.113796 
L 1172.332275 334.167556 
L 1173.726839 334.686462 
L 1175.121403 334.045461 
L 1176.515968 338.776661 
L 1177.910532 341.188047 
L 1179.305096 338.868232 
L 1180.69966 335.083272 
L 1182.094224 333.80127 
L 1183.488789 337.708325 
L 1184.883353 338.562994 
L 1186.277917 336.548418 
L 1187.672481 339.631329 
L 1189.067045 337.464134 
L 1190.46161 336.151608 
L 1193.250738 334.564366 
L 1194.645302 336.304227 
L 1196.039866 334.350699 
L 1197.434431 336.151608 
L 1198.828995 336.212656 
L 1200.223559 335.388511 
L 1201.618123 330.626787 
L 1203.012687 327.849115 
L 1204.407252 329.283737 
L 1205.801816 331.023597 
L 1207.19638 332.549791 
L 1208.590944 328.52064 
L 1209.985508 326.506064 
L 1211.380073 327.757543 
L 1212.774637 324.064154 
L 1214.169201 328.184877 
L 1215.563765 327.818591 
L 1216.958329 334.320175 
L 1218.352894 328.429068 
L 1219.747458 327.849115 
L 1221.142022 329.527928 
L 1222.536586 329.192165 
L 1223.93115 332.061409 
L 1225.325715 334.381223 
L 1226.720279 337.708325 
L 1228.114843 332.641363 
L 1229.509407 333.312888 
L 1230.903971 334.381223 
L 1232.298536 334.686462 
L 1233.6931 334.869605 
L 1235.087664 338.135659 
L 1236.482228 342.836336 
L 1237.876792 339.87552 
L 1239.271357 339.570281 
L 1240.665921 338.654565 
L 1242.060485 341.004903 
L 1243.455049 344.362529 
L 1244.849613 342.988955 
L 1246.244178 345.980295 
L 1247.638742 344.20991 
L 1249.033306 343.233146 
L 1250.42787 344.667768 
L 1251.822434 345.15615 
L 1253.216999 345.797151 
L 1254.611563 346.041342 
L 1256.006127 347.292821 
L 1257.400691 347.44544 
L 1258.795255 347.04863 
L 1260.18982 347.44544 
L 1262.978948 347.475964 
L 1264.373512 348.5443 
L 1265.768076 349.948398 
L 1267.162641 350.43678 
L 1269.951769 348.788491 
L 1271.346333 349.521064 
L 1272.740897 350.101017 
L 1275.530026 351.657735 
L 1276.92459 350.345208 
L 1278.319154 349.917874 
L 1279.713718 350.925162 
L 1281.108283 350.131541 
L 1282.502847 350.43678 
L 1283.897411 351.077781 
L 1285.291975 351.871402 
L 1286.686539 351.38302 
L 1289.475668 351.413544 
L 1290.870232 351.93245 
L 1292.264796 351.93245 
L 1295.053925 352.32926 
L 1296.448489 351.93245 
L 1300.632181 351.871402 
L 1302.026746 352.32926 
L 1303.42131 352.298736 
L 1304.815874 352.390308 
L 1304.815874 352.390308 
" clip-path="url(#p640cfaa4a2)" style="fill: none; stroke: #0000ff; stroke-width: 1.5; stroke-linecap: square"/>
   </g>
   <g id="line2d_19">
    <path d="M 1066.345396 351.545159 
L 1067.73996 351.247674 
L 1069.134524 352.427744 
L 1070.529089 351.885988 
L 1071.923653 352.626239 
L 1073.318217 351.403951 
L 1074.712781 351.144408 
L 1076.107345 351.247881 
L 1077.50191 351.083001 
L 1078.896474 352.057591 
L 1080.291038 351.381433 
L 1081.685602 352.269874 
L 1083.080166 350.801611 
L 1084.474731 350.664943 
L 1085.869295 350.982641 
L 1087.263859 349.766608 
L 1088.658423 350.201524 
L 1090.052987 349.592166 
L 1091.447552 349.429469 
L 1092.842116 346.277462 
L 1094.23668 343.689374 
L 1095.631244 340.058984 
L 1097.025808 338.783151 
L 1098.420373 338.676953 
L 1099.814937 336.573166 
L 1101.209501 333.43515 
L 1102.604065 324.375268 
L 1103.998629 310.911138 
L 1105.393194 294.85066 
L 1106.787758 285.829244 
L 1108.182322 269.295312 
L 1109.576886 274.007076 
L 1110.97145 267.525561 
L 1112.366015 267.004848 
L 1113.760579 250.059944 
L 1115.155143 250.336127 
L 1116.549707 242.099568 
L 1117.944271 244.913219 
L 1119.338836 250.195858 
L 1122.127964 259.579679 
L 1123.522528 256.103297 
L 1124.917092 250.944081 
L 1126.311657 247.951987 
L 1127.706221 246.64695 
L 1129.100785 251.575452 
L 1130.495349 265.949637 
L 1131.889913 259.734301 
L 1133.284478 268.125735 
L 1134.679042 266.207442 
L 1136.073606 260.347754 
L 1137.46817 268.64191 
L 1138.862734 286.023963 
L 1140.257299 301.363776 
L 1141.651863 309.357343 
L 1143.046427 308.437583 
L 1144.440991 309.244627 
L 1145.835555 310.338721 
L 1147.230119 316.205043 
L 1148.624684 316.272511 
L 1150.019248 321.710514 
L 1151.413812 322.165831 
L 1152.808376 324.422608 
L 1154.20294 318.961682 
L 1155.597505 325.379657 
L 1156.992069 327.194528 
L 1158.386633 333.456106 
L 1159.781197 334.534194 
L 1161.175761 333.599471 
L 1162.570326 330.531914 
L 1163.96489 333.488677 
L 1165.359454 333.244652 
L 1166.754018 336.865279 
L 1168.148582 339.506702 
L 1169.543147 339.374297 
L 1170.937711 336.27195 
L 1172.332275 334.757409 
L 1173.726839 334.085869 
L 1175.121403 334.255298 
L 1176.515968 335.992842 
L 1177.910532 341.095587 
L 1179.305096 341.071686 
L 1182.094224 335.164399 
L 1183.488789 333.740684 
L 1184.883353 336.510612 
L 1186.277917 339.994687 
L 1189.067045 339.945745 
L 1190.46161 335.575631 
L 1193.250738 335.633823 
L 1194.645302 334.627281 
L 1196.039866 337.466252 
L 1197.434431 336.539017 
L 1198.828995 336.194398 
L 1200.223559 334.431413 
L 1201.618123 334.561032 
L 1204.407252 328.749844 
L 1205.801816 329.415081 
L 1207.19638 331.799323 
L 1208.590944 332.272249 
L 1209.985508 328.213742 
L 1211.380073 325.984373 
L 1212.774637 326.805916 
L 1214.169201 324.318554 
L 1215.563765 328.967925 
L 1216.958329 328.828305 
L 1218.352894 333.478513 
L 1219.747458 327.923018 
L 1221.142022 328.290191 
L 1222.536586 328.211881 
L 1223.93115 329.426283 
L 1226.720279 336.027797 
L 1228.114843 336.71429 
L 1229.509407 332.702552 
L 1230.903971 333.432526 
L 1232.298536 333.187118 
L 1233.6931 335.303747 
L 1235.087664 335.945742 
L 1236.482228 339.764886 
L 1237.876792 340.884152 
L 1239.271357 339.758421 
L 1240.665921 340.210599 
L 1242.060485 338.434479 
L 1243.455049 341.247678 
L 1244.849613 344.605154 
L 1246.244178 345.381948 
L 1247.638742 345.222286 
L 1249.033306 343.522626 
L 1250.42787 343.221883 
L 1253.216999 345.723615 
L 1254.611563 346.571758 
L 1256.006127 347.986434 
L 1257.400691 346.149898 
L 1258.795255 346.74496 
L 1260.18982 346.902543 
L 1261.584384 347.686056 
L 1262.978948 348.239312 
L 1264.373512 348.075948 
L 1265.768076 349.949007 
L 1267.162641 348.879992 
L 1268.557205 349.90315 
L 1269.951769 349.751478 
L 1271.346333 349.246073 
L 1272.740897 350.048065 
L 1274.135462 350.321593 
L 1275.530026 352.181183 
L 1278.319154 350.13943 
L 1279.713718 349.85027 
L 1281.108283 350.765534 
L 1282.502847 350.631333 
L 1283.897411 351.109996 
L 1285.291975 352.01349 
L 1286.686539 351.162614 
L 1288.081104 351.055757 
L 1289.475668 351.397367 
L 1290.870232 351.432648 
L 1292.264796 352.337174 
L 1293.65936 352.369077 
L 1295.053925 353.157462 
L 1296.448489 351.855844 
L 1297.843053 351.628767 
L 1300.632181 351.94414 
L 1303.42131 352.644423 
L 1304.815874 353.020494 
L 1304.815874 353.020494 
" clip-path="url(#p640cfaa4a2)" style="fill: none; stroke: #ffa500; stroke-width: 1.5; stroke-linecap: square"/>
   </g>
   <g id="line2d_20">
    <path d="M 1306.210438 352.05178 
L 1307.605002 351.810499 
L 1308.999567 351.724877 
L 1310.394131 351.773654 
L 1311.788695 352.063528 
L 1313.183259 352.285552 
L 1314.577823 352.828778 
L 1315.972388 352.443242 
L 1317.366952 352.257179 
L 1318.761516 352.279081 
L 1320.15608 352.322212 
L 1321.550644 352.568328 
L 1322.945209 352.780969 
L 1324.339773 353.258978 
" clip-path="url(#p640cfaa4a2)" style="fill: none; stroke: #ff0000; stroke-width: 1.5; stroke-linecap: square"/>
   </g>
   <g id="patch_3">
    <path d="M 46.0125 368.3955 
L 46.0125 35.7555 
" style="fill: none; stroke: #000000; stroke-width: 0.8; stroke-linejoin: miter; stroke-linecap: square"/>
   </g>
   <g id="patch_4">
    <path d="M 1385.2125 368.3955 
L 1385.2125 35.7555 
" style="fill: none; stroke: #000000; stroke-width: 0.8; stroke-linejoin: miter; stroke-linecap: square"/>
   </g>
   <g id="patch_5">
    <path d="M 46.0125 368.3955 
L 1385.2125 368.3955 
" style="fill: none; stroke: #000000; stroke-width: 0.8; stroke-linejoin: miter; stroke-linecap: square"/>
   </g>
   <g id="patch_6">
    <path d="M 46.0125 35.7555 
L 1385.2125 35.7555 
" style="fill: none; stroke: #000000; stroke-width: 0.8; stroke-linejoin: miter; stroke-linecap: square"/>
   </g>
   <g id="text_18">
    <!-- Daily Confirmed Cases Forecasting - Cuba -->
    <g transform="translate(589.634063 16.318125)scale(0.12 -0.12)">
     <defs>
      <path id="DejaVuSans-44" d="M 1259 4147 
L 1259 519 
L 2022 519 
Q 2988 519 3436 956 
Q 3884 1394 3884 2338 
Q 3884 3275 3436 3711 
Q 2988 4147 2022 4147 
L 1259 4147 
z
M 628 4666 
L 1925 4666 
Q 3281 4666 3915 4102 
Q 4550 3538 4550 2338 
Q 4550 1131 3912 565 
Q 3275 0 1925 0 
L 628 0 
L 628 4666 
z
" transform="scale(0.015625)"/>
      <path id="DejaVuSans-61" d="M 2194 1759 
Q 1497 1759 1228 1600 
Q 959 1441 959 1056 
Q 959 750 1161 570 
Q 1363 391 1709 391 
Q 2188 391 2477 730 
Q 2766 1069 2766 1631 
L 2766 1759 
L 2194 1759 
z
M 3341 1997 
L 3341 0 
L 2766 0 
L 2766 531 
Q 2569 213 2275 61 
Q 1981 -91 1556 -91 
Q 1019 -91 701 211 
Q 384 513 384 1019 
Q 384 1609 779 1909 
Q 1175 2209 1959 2209 
L 2766 2209 
L 2766 2266 
Q 2766 2663 2505 2880 
Q 2244 3097 1772 3097 
Q 1472 3097 1187 3025 
Q 903 2953 641 2809 
L 641 3341 
Q 956 3463 1253 3523 
Q 1550 3584 1831 3584 
Q 2591 3584 2966 3190 
Q 3341 2797 3341 1997 
z
" transform="scale(0.015625)"/>
      <path id="DejaVuSans-69" d="M 603 3500 
L 1178 3500 
L 1178 0 
L 603 0 
L 603 3500 
z
M 603 4863 
L 1178 4863 
L 1178 4134 
L 603 4134 
L 603 4863 
z
" transform="scale(0.015625)"/>
      <path id="DejaVuSans-6c" d="M 603 4863 
L 1178 4863 
L 1178 0 
L 603 0 
L 603 4863 
z
" transform="scale(0.015625)"/>
      <path id="DejaVuSans-79" d="M 2059 -325 
Q 1816 -950 1584 -1140 
Q 1353 -1331 966 -1331 
L 506 -1331 
L 506 -850 
L 844 -850 
Q 1081 -850 1212 -737 
Q 1344 -625 1503 -206 
L 1606 56 
L 191 3500 
L 800 3500 
L 1894 763 
L 2988 3500 
L 3597 3500 
L 2059 -325 
z
" transform="scale(0.015625)"/>
      <path id="DejaVuSans-20" transform="scale(0.015625)"/>
      <path id="DejaVuSans-43" d="M 4122 4306 
L 4122 3641 
Q 3803 3938 3442 4084 
Q 3081 4231 2675 4231 
Q 1875 4231 1450 3742 
Q 1025 3253 1025 2328 
Q 1025 1406 1450 917 
Q 1875 428 2675 428 
Q 3081 428 3442 575 
Q 3803 722 4122 1019 
L 4122 359 
Q 3791 134 3420 21 
Q 3050 -91 2638 -91 
Q 1578 -91 968 557 
Q 359 1206 359 2328 
Q 359 3453 968 4101 
Q 1578 4750 2638 4750 
Q 3056 4750 3426 4639 
Q 3797 4528 4122 4306 
z
" transform="scale(0.015625)"/>
      <path id="DejaVuSans-6f" d="M 1959 3097 
Q 1497 3097 1228 2736 
Q 959 2375 959 1747 
Q 959 1119 1226 758 
Q 1494 397 1959 397 
Q 2419 397 2687 759 
Q 2956 1122 2956 1747 
Q 2956 2369 2687 2733 
Q 2419 3097 1959 3097 
z
M 1959 3584 
Q 2709 3584 3137 3096 
Q 3566 2609 3566 1747 
Q 3566 888 3137 398 
Q 2709 -91 1959 -91 
Q 1206 -91 779 398 
Q 353 888 353 1747 
Q 353 2609 779 3096 
Q 1206 3584 1959 3584 
z
" transform="scale(0.015625)"/>
      <path id="DejaVuSans-6e" d="M 3513 2113 
L 3513 0 
L 2938 0 
L 2938 2094 
Q 2938 2591 2744 2837 
Q 2550 3084 2163 3084 
Q 1697 3084 1428 2787 
Q 1159 2491 1159 1978 
L 1159 0 
L 581 0 
L 581 3500 
L 1159 3500 
L 1159 2956 
Q 1366 3272 1645 3428 
Q 1925 3584 2291 3584 
Q 2894 3584 3203 3211 
Q 3513 2838 3513 2113 
z
" transform="scale(0.015625)"/>
      <path id="DejaVuSans-66" d="M 2375 4863 
L 2375 4384 
L 1825 4384 
Q 1516 4384 1395 4259 
Q 1275 4134 1275 3809 
L 1275 3500 
L 2222 3500 
L 2222 3053 
L 1275 3053 
L 1275 0 
L 697 0 
L 697 3053 
L 147 3053 
L 147 3500 
L 697 3500 
L 697 3744 
Q 697 4328 969 4595 
Q 1241 4863 1831 4863 
L 2375 4863 
z
" transform="scale(0.015625)"/>
      <path id="DejaVuSans-72" d="M 2631 2963 
Q 2534 3019 2420 3045 
Q 2306 3072 2169 3072 
Q 1681 3072 1420 2755 
Q 1159 2438 1159 1844 
L 1159 0 
L 581 0 
L 581 3500 
L 1159 3500 
L 1159 2956 
Q 1341 3275 1631 3429 
Q 1922 3584 2338 3584 
Q 2397 3584 2469 3576 
Q 2541 3569 2628 3553 
L 2631 2963 
z
" transform="scale(0.015625)"/>
      <path id="DejaVuSans-6d" d="M 3328 2828 
Q 3544 3216 3844 3400 
Q 4144 3584 4550 3584 
Q 5097 3584 5394 3201 
Q 5691 2819 5691 2113 
L 5691 0 
L 5113 0 
L 5113 2094 
Q 5113 2597 4934 2840 
Q 4756 3084 4391 3084 
Q 3944 3084 3684 2787 
Q 3425 2491 3425 1978 
L 3425 0 
L 2847 0 
L 2847 2094 
Q 2847 2600 2669 2842 
Q 2491 3084 2119 3084 
Q 1678 3084 1418 2786 
Q 1159 2488 1159 1978 
L 1159 0 
L 581 0 
L 581 3500 
L 1159 3500 
L 1159 2956 
Q 1356 3278 1631 3431 
Q 1906 3584 2284 3584 
Q 2666 3584 2933 3390 
Q 3200 3197 3328 2828 
z
" transform="scale(0.015625)"/>
      <path id="DejaVuSans-65" d="M 3597 1894 
L 3597 1613 
L 953 1613 
Q 991 1019 1311 708 
Q 1631 397 2203 397 
Q 2534 397 2845 478 
Q 3156 559 3463 722 
L 3463 178 
Q 3153 47 2828 -22 
Q 2503 -91 2169 -91 
Q 1331 -91 842 396 
Q 353 884 353 1716 
Q 353 2575 817 3079 
Q 1281 3584 2069 3584 
Q 2775 3584 3186 3129 
Q 3597 2675 3597 1894 
z
M 3022 2063 
Q 3016 2534 2758 2815 
Q 2500 3097 2075 3097 
Q 1594 3097 1305 2825 
Q 1016 2553 972 2059 
L 3022 2063 
z
" transform="scale(0.015625)"/>
      <path id="DejaVuSans-64" d="M 2906 2969 
L 2906 4863 
L 3481 4863 
L 3481 0 
L 2906 0 
L 2906 525 
Q 2725 213 2448 61 
Q 2172 -91 1784 -91 
Q 1150 -91 751 415 
Q 353 922 353 1747 
Q 353 2572 751 3078 
Q 1150 3584 1784 3584 
Q 2172 3584 2448 3432 
Q 2725 3281 2906 2969 
z
M 947 1747 
Q 947 1113 1208 752 
Q 1469 391 1925 391 
Q 2381 391 2643 752 
Q 2906 1113 2906 1747 
Q 2906 2381 2643 2742 
Q 2381 3103 1925 3103 
Q 1469 3103 1208 2742 
Q 947 2381 947 1747 
z
" transform="scale(0.015625)"/>
      <path id="DejaVuSans-73" d="M 2834 3397 
L 2834 2853 
Q 2591 2978 2328 3040 
Q 2066 3103 1784 3103 
Q 1356 3103 1142 2972 
Q 928 2841 928 2578 
Q 928 2378 1081 2264 
Q 1234 2150 1697 2047 
L 1894 2003 
Q 2506 1872 2764 1633 
Q 3022 1394 3022 966 
Q 3022 478 2636 193 
Q 2250 -91 1575 -91 
Q 1294 -91 989 -36 
Q 684 19 347 128 
L 347 722 
Q 666 556 975 473 
Q 1284 391 1588 391 
Q 1994 391 2212 530 
Q 2431 669 2431 922 
Q 2431 1156 2273 1281 
Q 2116 1406 1581 1522 
L 1381 1569 
Q 847 1681 609 1914 
Q 372 2147 372 2553 
Q 372 3047 722 3315 
Q 1072 3584 1716 3584 
Q 2034 3584 2315 3537 
Q 2597 3491 2834 3397 
z
" transform="scale(0.015625)"/>
      <path id="DejaVuSans-46" d="M 628 4666 
L 3309 4666 
L 3309 4134 
L 1259 4134 
L 1259 2759 
L 3109 2759 
L 3109 2228 
L 1259 2228 
L 1259 0 
L 628 0 
L 628 4666 
z
" transform="scale(0.015625)"/>
      <path id="DejaVuSans-63" d="M 3122 3366 
L 3122 2828 
Q 2878 2963 2633 3030 
Q 2388 3097 2138 3097 
Q 1578 3097 1268 2742 
Q 959 2388 959 1747 
Q 959 1106 1268 751 
Q 1578 397 2138 397 
Q 2388 397 2633 464 
Q 2878 531 3122 666 
L 3122 134 
Q 2881 22 2623 -34 
Q 2366 -91 2075 -91 
Q 1284 -91 818 406 
Q 353 903 353 1747 
Q 353 2603 823 3093 
Q 1294 3584 2113 3584 
Q 2378 3584 2631 3529 
Q 2884 3475 3122 3366 
z
" transform="scale(0.015625)"/>
      <path id="DejaVuSans-74" d="M 1172 4494 
L 1172 3500 
L 2356 3500 
L 2356 3053 
L 1172 3053 
L 1172 1153 
Q 1172 725 1289 603 
Q 1406 481 1766 481 
L 2356 481 
L 2356 0 
L 1766 0 
Q 1100 0 847 248 
Q 594 497 594 1153 
L 594 3053 
L 172 3053 
L 172 3500 
L 594 3500 
L 594 4494 
L 1172 4494 
z
" transform="scale(0.015625)"/>
      <path id="DejaVuSans-67" d="M 2906 1791 
Q 2906 2416 2648 2759 
Q 2391 3103 1925 3103 
Q 1463 3103 1205 2759 
Q 947 2416 947 1791 
Q 947 1169 1205 825 
Q 1463 481 1925 481 
Q 2391 481 2648 825 
Q 2906 1169 2906 1791 
z
M 3481 434 
Q 3481 -459 3084 -895 
Q 2688 -1331 1869 -1331 
Q 1566 -1331 1297 -1286 
Q 1028 -1241 775 -1147 
L 775 -588 
Q 1028 -725 1275 -790 
Q 1522 -856 1778 -856 
Q 2344 -856 2625 -561 
Q 2906 -266 2906 331 
L 2906 616 
Q 2728 306 2450 153 
Q 2172 0 1784 0 
Q 1141 0 747 490 
Q 353 981 353 1791 
Q 353 2603 747 3093 
Q 1141 3584 1784 3584 
Q 2172 3584 2450 3431 
Q 2728 3278 2906 2969 
L 2906 3500 
L 3481 3500 
L 3481 434 
z
" transform="scale(0.015625)"/>
      <path id="DejaVuSans-75" d="M 544 1381 
L 544 3500 
L 1119 3500 
L 1119 1403 
Q 1119 906 1312 657 
Q 1506 409 1894 409 
Q 2359 409 2629 706 
Q 2900 1003 2900 1516 
L 2900 3500 
L 3475 3500 
L 3475 0 
L 2900 0 
L 2900 538 
Q 2691 219 2414 64 
Q 2138 -91 1772 -91 
Q 1169 -91 856 284 
Q 544 659 544 1381 
z
M 1991 3584 
L 1991 3584 
z
" transform="scale(0.015625)"/>
      <path id="DejaVuSans-62" d="M 3116 1747 
Q 3116 2381 2855 2742 
Q 2594 3103 2138 3103 
Q 1681 3103 1420 2742 
Q 1159 2381 1159 1747 
Q 1159 1113 1420 752 
Q 1681 391 2138 391 
Q 2594 391 2855 752 
Q 3116 1113 3116 1747 
z
M 1159 2969 
Q 1341 3281 1617 3432 
Q 1894 3584 2278 3584 
Q 2916 3584 3314 3078 
Q 3713 2572 3713 1747 
Q 3713 922 3314 415 
Q 2916 -91 2278 -91 
Q 1894 -91 1617 61 
Q 1341 213 1159 525 
L 1159 0 
L 581 0 
L 581 4863 
L 1159 4863 
L 1159 2969 
z
" transform="scale(0.015625)"/>
     </defs>
     <use xlink:href="#DejaVuSans-44"/>
     <use xlink:href="#DejaVuSans-61" x="77.001953"/>
     <use xlink:href="#DejaVuSans-69" x="138.28125"/>
     <use xlink:href="#DejaVuSans-6c" x="166.064453"/>
     <use xlink:href="#DejaVuSans-79" x="193.847656"/>
     <use xlink:href="#DejaVuSans-20" x="253.027344"/>
     <use xlink:href="#DejaVuSans-43" x="284.814453"/>
     <use xlink:href="#DejaVuSans-6f" x="354.638672"/>
     <use xlink:href="#DejaVuSans-6e" x="415.820312"/>
     <use xlink:href="#DejaVuSans-66" x="479.199219"/>
     <use xlink:href="#DejaVuSans-69" x="514.404297"/>
     <use xlink:href="#DejaVuSans-72" x="542.1875"/>
     <use xlink:href="#DejaVuSans-6d" x="581.550781"/>
     <use xlink:href="#DejaVuSans-65" x="678.962891"/>
     <use xlink:href="#DejaVuSans-64" x="740.486328"/>
     <use xlink:href="#DejaVuSans-20" x="803.962891"/>
     <use xlink:href="#DejaVuSans-43" x="835.75"/>
     <use xlink:href="#DejaVuSans-61" x="905.574219"/>
     <use xlink:href="#DejaVuSans-73" x="966.853516"/>
     <use xlink:href="#DejaVuSans-65" x="1018.953125"/>
     <use xlink:href="#DejaVuSans-73" x="1080.476562"/>
     <use xlink:href="#DejaVuSans-20" x="1132.576172"/>
     <use xlink:href="#DejaVuSans-46" x="1164.363281"/>
     <use xlink:href="#DejaVuSans-6f" x="1218.257812"/>
     <use xlink:href="#DejaVuSans-72" x="1279.439453"/>
     <use xlink:href="#DejaVuSans-65" x="1318.302734"/>
     <use xlink:href="#DejaVuSans-63" x="1379.826172"/>
     <use xlink:href="#DejaVuSans-61" x="1434.806641"/>
     <use xlink:href="#DejaVuSans-73" x="1496.085938"/>
     <use xlink:href="#DejaVuSans-74" x="1548.185547"/>
     <use xlink:href="#DejaVuSans-69" x="1587.394531"/>
     <use xlink:href="#DejaVuSans-6e" x="1615.177734"/>
     <use xlink:href="#DejaVuSans-67" x="1678.556641"/>
     <use xlink:href="#DejaVuSans-20" x="1742.033203"/>
     <use xlink:href="#DejaVuSans-2d" x="1773.820312"/>
     <use xlink:href="#DejaVuSans-20" x="1809.904297"/>
     <use xlink:href="#DejaVuSans-43" x="1841.691406"/>
     <use xlink:href="#DejaVuSans-75" x="1911.515625"/>
     <use xlink:href="#DejaVuSans-62" x="1974.894531"/>
     <use xlink:href="#DejaVuSans-61" x="2038.371094"/>
    </g>
    <!-- ARIMA (4, 1, 0)x(1, 0, 1, 7) (R2 = 0.977474) -->
    <g transform="translate(583.628438 29.7555)scale(0.12 -0.12)">
     <defs>
      <path id="DejaVuSans-41" d="M 2188 4044 
L 1331 1722 
L 3047 1722 
L 2188 4044 
z
M 1831 4666 
L 2547 4666 
L 4325 0 
L 3669 0 
L 3244 1197 
L 1141 1197 
L 716 0 
L 50 0 
L 1831 4666 
z
" transform="scale(0.015625)"/>
      <path id="DejaVuSans-52" d="M 2841 2188 
Q 3044 2119 3236 1894 
Q 3428 1669 3622 1275 
L 4263 0 
L 3584 0 
L 2988 1197 
Q 2756 1666 2539 1819 
Q 2322 1972 1947 1972 
L 1259 1972 
L 1259 0 
L 628 0 
L 628 4666 
L 2053 4666 
Q 2853 4666 3247 4331 
Q 3641 3997 3641 3322 
Q 3641 2881 3436 2590 
Q 3231 2300 2841 2188 
z
M 1259 4147 
L 1259 2491 
L 2053 2491 
Q 2509 2491 2742 2702 
Q 2975 2913 2975 3322 
Q 2975 3731 2742 3939 
Q 2509 4147 2053 4147 
L 1259 4147 
z
" transform="scale(0.015625)"/>
      <path id="DejaVuSans-49" d="M 628 4666 
L 1259 4666 
L 1259 0 
L 628 0 
L 628 4666 
z
" transform="scale(0.015625)"/>
      <path id="DejaVuSans-4d" d="M 628 4666 
L 1569 4666 
L 2759 1491 
L 3956 4666 
L 4897 4666 
L 4897 0 
L 4281 0 
L 4281 4097 
L 3078 897 
L 2444 897 
L 1241 4097 
L 1241 0 
L 628 0 
L 628 4666 
z
" transform="scale(0.015625)"/>
      <path id="DejaVuSans-28" d="M 1984 4856 
Q 1566 4138 1362 3434 
Q 1159 2731 1159 2009 
Q 1159 1288 1364 580 
Q 1569 -128 1984 -844 
L 1484 -844 
Q 1016 -109 783 600 
Q 550 1309 550 2009 
Q 550 2706 781 3412 
Q 1013 4119 1484 4856 
L 1984 4856 
z
" transform="scale(0.015625)"/>
      <path id="DejaVuSans-2c" d="M 750 794 
L 1409 794 
L 1409 256 
L 897 -744 
L 494 -744 
L 750 256 
L 750 794 
z
" transform="scale(0.015625)"/>
      <path id="DejaVuSans-29" d="M 513 4856 
L 1013 4856 
Q 1481 4119 1714 3412 
Q 1947 2706 1947 2009 
Q 1947 1309 1714 600 
Q 1481 -109 1013 -844 
L 513 -844 
Q 928 -128 1133 580 
Q 1338 1288 1338 2009 
Q 1338 2731 1133 3434 
Q 928 4138 513 4856 
z
" transform="scale(0.015625)"/>
      <path id="DejaVuSans-78" d="M 3513 3500 
L 2247 1797 
L 3578 0 
L 2900 0 
L 1881 1375 
L 863 0 
L 184 0 
L 1544 1831 
L 300 3500 
L 978 3500 
L 1906 2253 
L 2834 3500 
L 3513 3500 
z
" transform="scale(0.015625)"/>
      <path id="DejaVuSans-3d" d="M 678 2906 
L 4684 2906 
L 4684 2381 
L 678 2381 
L 678 2906 
z
M 678 1631 
L 4684 1631 
L 4684 1100 
L 678 1100 
L 678 1631 
z
" transform="scale(0.015625)"/>
      <path id="DejaVuSans-2e" d="M 684 794 
L 1344 794 
L 1344 0 
L 684 0 
L 684 794 
z
" transform="scale(0.015625)"/>
      <path id="DejaVuSans-39" d="M 703 97 
L 703 672 
Q 941 559 1184 500 
Q 1428 441 1663 441 
Q 2288 441 2617 861 
Q 2947 1281 2994 2138 
Q 2813 1869 2534 1725 
Q 2256 1581 1919 1581 
Q 1219 1581 811 2004 
Q 403 2428 403 3163 
Q 403 3881 828 4315 
Q 1253 4750 1959 4750 
Q 2769 4750 3195 4129 
Q 3622 3509 3622 2328 
Q 3622 1225 3098 567 
Q 2575 -91 1691 -91 
Q 1453 -91 1209 -44 
Q 966 3 703 97 
z
M 1959 2075 
Q 2384 2075 2632 2365 
Q 2881 2656 2881 3163 
Q 2881 3666 2632 3958 
Q 2384 4250 1959 4250 
Q 1534 4250 1286 3958 
Q 1038 3666 1038 3163 
Q 1038 2656 1286 2365 
Q 1534 2075 1959 2075 
z
" transform="scale(0.015625)"/>
     </defs>
     <use xlink:href="#DejaVuSans-41"/>
     <use xlink:href="#DejaVuSans-52" x="68.408203"/>
     <use xlink:href="#DejaVuSans-49" x="137.890625"/>
     <use xlink:href="#DejaVuSans-4d" x="167.382812"/>
     <use xlink:href="#DejaVuSans-41" x="253.662109"/>
     <use xlink:href="#DejaVuSans-20" x="322.070312"/>
     <use xlink:href="#DejaVuSans-28" x="353.857422"/>
     <use xlink:href="#DejaVuSans-34" x="392.871094"/>
     <use xlink:href="#DejaVuSans-2c" x="456.494141"/>
     <use xlink:href="#DejaVuSans-20" x="488.28125"/>
     <use xlink:href="#DejaVuSans-31" x="520.068359"/>
     <use xlink:href="#DejaVuSans-2c" x="583.691406"/>
     <use xlink:href="#DejaVuSans-20" x="615.478516"/>
     <use xlink:href="#DejaVuSans-30" x="647.265625"/>
     <use xlink:href="#DejaVuSans-29" x="710.888672"/>
     <use xlink:href="#DejaVuSans-78" x="749.902344"/>
     <use xlink:href="#DejaVuSans-28" x="809.082031"/>
     <use xlink:href="#DejaVuSans-31" x="848.095703"/>
     <use xlink:href="#DejaVuSans-2c" x="911.71875"/>
     <use xlink:href="#DejaVuSans-20" x="943.505859"/>
     <use xlink:href="#DejaVuSans-30" x="975.292969"/>
     <use xlink:href="#DejaVuSans-2c" x="1038.916016"/>
     <use xlink:href="#DejaVuSans-20" x="1070.703125"/>
     <use xlink:href="#DejaVuSans-31" x="1102.490234"/>
     <use xlink:href="#DejaVuSans-2c" x="1166.113281"/>
     <use xlink:href="#DejaVuSans-20" x="1197.900391"/>
     <use xlink:href="#DejaVuSans-37" x="1229.6875"/>
     <use xlink:href="#DejaVuSans-29" x="1293.310547"/>
     <use xlink:href="#DejaVuSans-20" x="1332.324219"/>
     <use xlink:href="#DejaVuSans-28" x="1364.111328"/>
     <use xlink:href="#DejaVuSans-52" x="1403.125"/>
     <use xlink:href="#DejaVuSans-32" x="1472.607422"/>
     <use xlink:href="#DejaVuSans-20" x="1536.230469"/>
     <use xlink:href="#DejaVuSans-3d" x="1568.017578"/>
     <use xlink:href="#DejaVuSans-20" x="1651.806641"/>
     <use xlink:href="#DejaVuSans-30" x="1683.59375"/>
     <use xlink:href="#DejaVuSans-2e" x="1747.216797"/>
     <use xlink:href="#DejaVuSans-39" x="1779.003906"/>
     <use xlink:href="#DejaVuSans-37" x="1842.626953"/>
     <use xlink:href="#DejaVuSans-37" x="1906.25"/>
     <use xlink:href="#DejaVuSans-34" x="1969.873047"/>
     <use xlink:href="#DejaVuSans-37" x="2033.496094"/>
     <use xlink:href="#DejaVuSans-34" x="2097.119141"/>
     <use xlink:href="#DejaVuSans-29" x="2160.742188"/>
    </g>
   </g>
   <g id="legend_1">
    <g id="patch_7">
     <path d="M 1281.132812 87.789875 
L 1378.2125 87.789875 
Q 1380.2125 87.789875 1380.2125 85.789875 
L 1380.2125 42.7555 
Q 1380.2125 40.7555 1378.2125 40.7555 
L 1281.132812 40.7555 
Q 1279.132812 40.7555 1279.132812 42.7555 
L 1279.132812 85.789875 
Q 1279.132812 87.789875 1281.132812 87.789875 
z
" style="fill: #ffffff; opacity: 0.8; stroke: #cccccc; stroke-linejoin: miter"/>
    </g>
    <g id="line2d_21">
     <path d="M 1283.132812 48.853937 
L 1293.132812 48.853937 
L 1303.132812 48.853937 
" style="fill: none; stroke: #0000ff; stroke-width: 1.5; stroke-linecap: square"/>
    </g>
    <g id="text_19">
     <!-- Actual Value -->
     <g transform="translate(1311.132812 52.353937)scale(0.1 -0.1)">
      <defs>
       <path id="DejaVuSans-56" d="M 1831 0 
L 50 4666 
L 709 4666 
L 2188 738 
L 3669 4666 
L 4325 4666 
L 2547 0 
L 1831 0 
z
" transform="scale(0.015625)"/>
      </defs>
      <use xlink:href="#DejaVuSans-41"/>
      <use xlink:href="#DejaVuSans-63" x="66.658203"/>
      <use xlink:href="#DejaVuSans-74" x="121.638672"/>
      <use xlink:href="#DejaVuSans-75" x="160.847656"/>
      <use xlink:href="#DejaVuSans-61" x="224.226562"/>
      <use xlink:href="#DejaVuSans-6c" x="285.505859"/>
      <use xlink:href="#DejaVuSans-20" x="313.289062"/>
      <use xlink:href="#DejaVuSans-56" x="345.076172"/>
      <use xlink:href="#DejaVuSans-61" x="405.734375"/>
      <use xlink:href="#DejaVuSans-6c" x="467.013672"/>
      <use xlink:href="#DejaVuSans-75" x="494.796875"/>
      <use xlink:href="#DejaVuSans-65" x="558.175781"/>
     </g>
    </g>
    <g id="line2d_22">
     <path d="M 1283.132812 63.532062 
L 1293.132812 63.532062 
L 1303.132812 63.532062 
" style="fill: none; stroke: #ffa500; stroke-width: 1.5; stroke-linecap: square"/>
    </g>
    <g id="text_20">
     <!-- Check Value -->
     <g transform="translate(1311.132812 67.032062)scale(0.1 -0.1)">
      <defs>
       <path id="DejaVuSans-68" d="M 3513 2113 
L 3513 0 
L 2938 0 
L 2938 2094 
Q 2938 2591 2744 2837 
Q 2550 3084 2163 3084 
Q 1697 3084 1428 2787 
Q 1159 2491 1159 1978 
L 1159 0 
L 581 0 
L 581 4863 
L 1159 4863 
L 1159 2956 
Q 1366 3272 1645 3428 
Q 1925 3584 2291 3584 
Q 2894 3584 3203 3211 
Q 3513 2838 3513 2113 
z
" transform="scale(0.015625)"/>
       <path id="DejaVuSans-6b" d="M 581 4863 
L 1159 4863 
L 1159 1991 
L 2875 3500 
L 3609 3500 
L 1753 1863 
L 3688 0 
L 2938 0 
L 1159 1709 
L 1159 0 
L 581 0 
L 581 4863 
z
" transform="scale(0.015625)"/>
      </defs>
      <use xlink:href="#DejaVuSans-43"/>
      <use xlink:href="#DejaVuSans-68" x="69.824219"/>
      <use xlink:href="#DejaVuSans-65" x="133.203125"/>
      <use xlink:href="#DejaVuSans-63" x="194.726562"/>
      <use xlink:href="#DejaVuSans-6b" x="249.707031"/>
      <use xlink:href="#DejaVuSans-20" x="307.617188"/>
      <use xlink:href="#DejaVuSans-56" x="339.404297"/>
      <use xlink:href="#DejaVuSans-61" x="400.0625"/>
      <use xlink:href="#DejaVuSans-6c" x="461.341797"/>
      <use xlink:href="#DejaVuSans-75" x="489.125"/>
      <use xlink:href="#DejaVuSans-65" x="552.503906"/>
     </g>
    </g>
    <g id="line2d_23">
     <path d="M 1283.132812 78.210187 
L 1293.132812 78.210187 
L 1303.132812 78.210187 
" style="fill: none; stroke: #ff0000; stroke-width: 1.5; stroke-linecap: square"/>
    </g>
    <g id="text_21">
     <!-- Predict Value -->
     <g transform="translate(1311.132812 81.710187)scale(0.1 -0.1)">
      <defs>
       <path id="DejaVuSans-50" d="M 1259 4147 
L 1259 2394 
L 2053 2394 
Q 2494 2394 2734 2622 
Q 2975 2850 2975 3272 
Q 2975 3691 2734 3919 
Q 2494 4147 2053 4147 
L 1259 4147 
z
M 628 4666 
L 2053 4666 
Q 2838 4666 3239 4311 
Q 3641 3956 3641 3272 
Q 3641 2581 3239 2228 
Q 2838 1875 2053 1875 
L 1259 1875 
L 1259 0 
L 628 0 
L 628 4666 
z
" transform="scale(0.015625)"/>
      </defs>
      <use xlink:href="#DejaVuSans-50"/>
      <use xlink:href="#DejaVuSans-72" x="58.552734"/>
      <use xlink:href="#DejaVuSans-65" x="97.416016"/>
      <use xlink:href="#DejaVuSans-64" x="158.939453"/>
      <use xlink:href="#DejaVuSans-69" x="222.416016"/>
      <use xlink:href="#DejaVuSans-63" x="250.199219"/>
      <use xlink:href="#DejaVuSans-74" x="305.179688"/>
      <use xlink:href="#DejaVuSans-20" x="344.388672"/>
      <use xlink:href="#DejaVuSans-56" x="376.175781"/>
      <use xlink:href="#DejaVuSans-61" x="436.833984"/>
      <use xlink:href="#DejaVuSans-6c" x="498.113281"/>
      <use xlink:href="#DejaVuSans-75" x="525.896484"/>
      <use xlink:href="#DejaVuSans-65" x="589.275391"/>
     </g>
    </g>
   </g>
  </g>
 </g>
 <defs>
  <clipPath id="p640cfaa4a2">
   <rect x="46.0125" y="35.7555" width="1339.2" height="332.64"/>
  </clipPath>
 </defs>
</svg>
