<?xml version="1.0" encoding="utf-8" standalone="no"?>
<!DOCTYPE svg PUBLIC "-//W3C//DTD SVG 1.1//EN"
  "http://www.w3.org/Graphics/SVG/1.1/DTD/svg11.dtd">
<svg xmlns:xlink="http://www.w3.org/1999/xlink" width="1379.6875pt" height="392.273625pt" viewBox="0 0 1379.6875 392.273625" xmlns="http://www.w3.org/2000/svg" version="1.1">
 <metadata>
  <rdf:RDF xmlns:dc="http://purl.org/dc/elements/1.1/" xmlns:cc="http://creativecommons.org/ns#" xmlns:rdf="http://www.w3.org/1999/02/22-rdf-syntax-ns#">
   <cc:Work>
    <dc:type rdf:resource="http://purl.org/dc/dcmitype/StillImage"/>
    <dc:date>2022-06-09T18:39:52.047127</dc:date>
    <dc:format>image/svg+xml</dc:format>
    <dc:creator>
     <cc:Agent>
      <dc:title>Matplotlib v3.5.1, https://matplotlib.org/</dc:title>
     </cc:Agent>
    </dc:creator>
   </cc:Work>
  </rdf:RDF>
 </metadata>
 <defs>
  <style type="text/css">*{stroke-linejoin: round; stroke-linecap: butt}</style>
 </defs>
 <g id="figure_1">
  <g id="patch_1">
   <path d="M 0 392.273625 
L 1379.6875 392.273625 
L 1379.6875 0 
L 0 0 
z
" style="fill: #ffffff"/>
  </g>
  <g id="axes_1">
   <g id="patch_2">
    <path d="M 33.2875 368.3955 
L 1372.4875 368.3955 
L 1372.4875 35.7555 
L 33.2875 35.7555 
z
" style="fill: #ffffff"/>
   </g>
   <g id="matplotlib.axis_1">
    <g id="xtick_1">
     <g id="line2d_1">
      <defs>
       <path id="mac6a487b44" d="M 0 0 
L 0 3.5 
" style="stroke: #000000; stroke-width: 0.8"/>
      </defs>
      <g>
       <use xlink:href="#mac6a487b44" x="63.758411" y="368.3955" style="stroke: #000000; stroke-width: 0.8"/>
      </g>
     </g>
     <g id="text_1">
      <!-- 2020-01 -->
      <g transform="translate(42.867005 382.993937)scale(0.1 -0.1)">
       <defs>
        <path id="DejaVuSans-32" d="M 1228 531 
L 3431 531 
L 3431 0 
L 469 0 
L 469 531 
Q 828 903 1448 1529 
Q 2069 2156 2228 2338 
Q 2531 2678 2651 2914 
Q 2772 3150 2772 3378 
Q 2772 3750 2511 3984 
Q 2250 4219 1831 4219 
Q 1534 4219 1204 4116 
Q 875 4013 500 3803 
L 500 4441 
Q 881 4594 1212 4672 
Q 1544 4750 1819 4750 
Q 2544 4750 2975 4387 
Q 3406 4025 3406 3419 
Q 3406 3131 3298 2873 
Q 3191 2616 2906 2266 
Q 2828 2175 2409 1742 
Q 1991 1309 1228 531 
z
" transform="scale(0.015625)"/>
        <path id="DejaVuSans-30" d="M 2034 4250 
Q 1547 4250 1301 3770 
Q 1056 3291 1056 2328 
Q 1056 1369 1301 889 
Q 1547 409 2034 409 
Q 2525 409 2770 889 
Q 3016 1369 3016 2328 
Q 3016 3291 2770 3770 
Q 2525 4250 2034 4250 
z
M 2034 4750 
Q 2819 4750 3233 4129 
Q 3647 3509 3647 2328 
Q 3647 1150 3233 529 
Q 2819 -91 2034 -91 
Q 1250 -91 836 529 
Q 422 1150 422 2328 
Q 422 3509 836 4129 
Q 1250 4750 2034 4750 
z
" transform="scale(0.015625)"/>
        <path id="DejaVuSans-2d" d="M 313 2009 
L 1997 2009 
L 1997 1497 
L 313 1497 
L 313 2009 
z
" transform="scale(0.015625)"/>
        <path id="DejaVuSans-31" d="M 794 531 
L 1825 531 
L 1825 4091 
L 703 3866 
L 703 4441 
L 1819 4666 
L 2450 4666 
L 2450 531 
L 3481 531 
L 3481 0 
L 794 0 
L 794 531 
z
" transform="scale(0.015625)"/>
       </defs>
       <use xlink:href="#DejaVuSans-32"/>
       <use xlink:href="#DejaVuSans-30" x="63.623047"/>
       <use xlink:href="#DejaVuSans-32" x="127.246094"/>
       <use xlink:href="#DejaVuSans-30" x="190.869141"/>
       <use xlink:href="#DejaVuSans-2d" x="254.492188"/>
       <use xlink:href="#DejaVuSans-30" x="290.576172"/>
       <use xlink:href="#DejaVuSans-31" x="354.199219"/>
      </g>
     </g>
    </g>
    <g id="xtick_2">
     <g id="line2d_2">
      <g>
       <use xlink:href="#mac6a487b44" x="189.511378" y="368.3955" style="stroke: #000000; stroke-width: 0.8"/>
      </g>
     </g>
     <g id="text_2">
      <!-- 2020-04 -->
      <g transform="translate(168.619972 382.993937)scale(0.1 -0.1)">
       <defs>
        <path id="DejaVuSans-34" d="M 2419 4116 
L 825 1625 
L 2419 1625 
L 2419 4116 
z
M 2253 4666 
L 3047 4666 
L 3047 1625 
L 3713 1625 
L 3713 1100 
L 3047 1100 
L 3047 0 
L 2419 0 
L 2419 1100 
L 313 1100 
L 313 1709 
L 2253 4666 
z
" transform="scale(0.015625)"/>
       </defs>
       <use xlink:href="#DejaVuSans-32"/>
       <use xlink:href="#DejaVuSans-30" x="63.623047"/>
       <use xlink:href="#DejaVuSans-32" x="127.246094"/>
       <use xlink:href="#DejaVuSans-30" x="190.869141"/>
       <use xlink:href="#DejaVuSans-2d" x="254.492188"/>
       <use xlink:href="#DejaVuSans-30" x="290.576172"/>
       <use xlink:href="#DejaVuSans-34" x="354.199219"/>
      </g>
     </g>
    </g>
    <g id="xtick_3">
     <g id="line2d_3">
      <g>
       <use xlink:href="#mac6a487b44" x="315.264344" y="368.3955" style="stroke: #000000; stroke-width: 0.8"/>
      </g>
     </g>
     <g id="text_3">
      <!-- 2020-07 -->
      <g transform="translate(294.372938 382.993937)scale(0.1 -0.1)">
       <defs>
        <path id="DejaVuSans-37" d="M 525 4666 
L 3525 4666 
L 3525 4397 
L 1831 0 
L 1172 0 
L 2766 4134 
L 525 4134 
L 525 4666 
z
" transform="scale(0.015625)"/>
       </defs>
       <use xlink:href="#DejaVuSans-32"/>
       <use xlink:href="#DejaVuSans-30" x="63.623047"/>
       <use xlink:href="#DejaVuSans-32" x="127.246094"/>
       <use xlink:href="#DejaVuSans-30" x="190.869141"/>
       <use xlink:href="#DejaVuSans-2d" x="254.492188"/>
       <use xlink:href="#DejaVuSans-30" x="290.576172"/>
       <use xlink:href="#DejaVuSans-37" x="354.199219"/>
      </g>
     </g>
    </g>
    <g id="xtick_4">
     <g id="line2d_4">
      <g>
       <use xlink:href="#mac6a487b44" x="442.399212" y="368.3955" style="stroke: #000000; stroke-width: 0.8"/>
      </g>
     </g>
     <g id="text_4">
      <!-- 2020-10 -->
      <g transform="translate(421.507806 382.993937)scale(0.1 -0.1)">
       <use xlink:href="#DejaVuSans-32"/>
       <use xlink:href="#DejaVuSans-30" x="63.623047"/>
       <use xlink:href="#DejaVuSans-32" x="127.246094"/>
       <use xlink:href="#DejaVuSans-30" x="190.869141"/>
       <use xlink:href="#DejaVuSans-2d" x="254.492188"/>
       <use xlink:href="#DejaVuSans-31" x="290.576172"/>
       <use xlink:href="#DejaVuSans-30" x="354.199219"/>
      </g>
     </g>
    </g>
    <g id="xtick_5">
     <g id="line2d_5">
      <g>
       <use xlink:href="#mac6a487b44" x="569.534079" y="368.3955" style="stroke: #000000; stroke-width: 0.8"/>
      </g>
     </g>
     <g id="text_5">
      <!-- 2021-01 -->
      <g transform="translate(548.642673 382.993937)scale(0.1 -0.1)">
       <use xlink:href="#DejaVuSans-32"/>
       <use xlink:href="#DejaVuSans-30" x="63.623047"/>
       <use xlink:href="#DejaVuSans-32" x="127.246094"/>
       <use xlink:href="#DejaVuSans-31" x="190.869141"/>
       <use xlink:href="#DejaVuSans-2d" x="254.492188"/>
       <use xlink:href="#DejaVuSans-30" x="290.576172"/>
       <use xlink:href="#DejaVuSans-31" x="354.199219"/>
      </g>
     </g>
    </g>
    <g id="xtick_6">
     <g id="line2d_6">
      <g>
       <use xlink:href="#mac6a487b44" x="693.905145" y="368.3955" style="stroke: #000000; stroke-width: 0.8"/>
      </g>
     </g>
     <g id="text_6">
      <!-- 2021-04 -->
      <g transform="translate(673.013739 382.993937)scale(0.1 -0.1)">
       <use xlink:href="#DejaVuSans-32"/>
       <use xlink:href="#DejaVuSans-30" x="63.623047"/>
       <use xlink:href="#DejaVuSans-32" x="127.246094"/>
       <use xlink:href="#DejaVuSans-31" x="190.869141"/>
       <use xlink:href="#DejaVuSans-2d" x="254.492188"/>
       <use xlink:href="#DejaVuSans-30" x="290.576172"/>
       <use xlink:href="#DejaVuSans-34" x="354.199219"/>
      </g>
     </g>
    </g>
    <g id="xtick_7">
     <g id="line2d_7">
      <g>
       <use xlink:href="#mac6a487b44" x="819.658112" y="368.3955" style="stroke: #000000; stroke-width: 0.8"/>
      </g>
     </g>
     <g id="text_7">
      <!-- 2021-07 -->
      <g transform="translate(798.766706 382.993937)scale(0.1 -0.1)">
       <use xlink:href="#DejaVuSans-32"/>
       <use xlink:href="#DejaVuSans-30" x="63.623047"/>
       <use xlink:href="#DejaVuSans-32" x="127.246094"/>
       <use xlink:href="#DejaVuSans-31" x="190.869141"/>
       <use xlink:href="#DejaVuSans-2d" x="254.492188"/>
       <use xlink:href="#DejaVuSans-30" x="290.576172"/>
       <use xlink:href="#DejaVuSans-37" x="354.199219"/>
      </g>
     </g>
    </g>
    <g id="xtick_8">
     <g id="line2d_8">
      <g>
       <use xlink:href="#mac6a487b44" x="946.792979" y="368.3955" style="stroke: #000000; stroke-width: 0.8"/>
      </g>
     </g>
     <g id="text_8">
      <!-- 2021-10 -->
      <g transform="translate(925.901573 382.993937)scale(0.1 -0.1)">
       <use xlink:href="#DejaVuSans-32"/>
       <use xlink:href="#DejaVuSans-30" x="63.623047"/>
       <use xlink:href="#DejaVuSans-32" x="127.246094"/>
       <use xlink:href="#DejaVuSans-31" x="190.869141"/>
       <use xlink:href="#DejaVuSans-2d" x="254.492188"/>
       <use xlink:href="#DejaVuSans-31" x="290.576172"/>
       <use xlink:href="#DejaVuSans-30" x="354.199219"/>
      </g>
     </g>
    </g>
    <g id="xtick_9">
     <g id="line2d_9">
      <g>
       <use xlink:href="#mac6a487b44" x="1073.927847" y="368.3955" style="stroke: #000000; stroke-width: 0.8"/>
      </g>
     </g>
     <g id="text_9">
      <!-- 2022-01 -->
      <g transform="translate(1053.03644 382.993937)scale(0.1 -0.1)">
       <use xlink:href="#DejaVuSans-32"/>
       <use xlink:href="#DejaVuSans-30" x="63.623047"/>
       <use xlink:href="#DejaVuSans-32" x="127.246094"/>
       <use xlink:href="#DejaVuSans-32" x="190.869141"/>
       <use xlink:href="#DejaVuSans-2d" x="254.492188"/>
       <use xlink:href="#DejaVuSans-30" x="290.576172"/>
       <use xlink:href="#DejaVuSans-31" x="354.199219"/>
      </g>
     </g>
    </g>
    <g id="xtick_10">
     <g id="line2d_10">
      <g>
       <use xlink:href="#mac6a487b44" x="1198.298913" y="368.3955" style="stroke: #000000; stroke-width: 0.8"/>
      </g>
     </g>
     <g id="text_10">
      <!-- 2022-04 -->
      <g transform="translate(1177.407506 382.993937)scale(0.1 -0.1)">
       <use xlink:href="#DejaVuSans-32"/>
       <use xlink:href="#DejaVuSans-30" x="63.623047"/>
       <use xlink:href="#DejaVuSans-32" x="127.246094"/>
       <use xlink:href="#DejaVuSans-32" x="190.869141"/>
       <use xlink:href="#DejaVuSans-2d" x="254.492188"/>
       <use xlink:href="#DejaVuSans-30" x="290.576172"/>
       <use xlink:href="#DejaVuSans-34" x="354.199219"/>
      </g>
     </g>
    </g>
    <g id="xtick_11">
     <g id="line2d_11">
      <g>
       <use xlink:href="#mac6a487b44" x="1324.051879" y="368.3955" style="stroke: #000000; stroke-width: 0.8"/>
      </g>
     </g>
     <g id="text_11">
      <!-- 2022-07 -->
      <g transform="translate(1303.160473 382.993937)scale(0.1 -0.1)">
       <use xlink:href="#DejaVuSans-32"/>
       <use xlink:href="#DejaVuSans-30" x="63.623047"/>
       <use xlink:href="#DejaVuSans-32" x="127.246094"/>
       <use xlink:href="#DejaVuSans-32" x="190.869141"/>
       <use xlink:href="#DejaVuSans-2d" x="254.492188"/>
       <use xlink:href="#DejaVuSans-30" x="290.576172"/>
       <use xlink:href="#DejaVuSans-37" x="354.199219"/>
      </g>
     </g>
    </g>
   </g>
   <g id="matplotlib.axis_2">
    <g id="ytick_1">
     <g id="line2d_12">
      <defs>
       <path id="m2007c8771e" d="M 0 0 
L -3.5 0 
" style="stroke: #000000; stroke-width: 0.8"/>
      </defs>
      <g>
       <use xlink:href="#m2007c8771e" x="33.2875" y="337.929828" style="stroke: #000000; stroke-width: 0.8"/>
      </g>
     </g>
     <g id="text_12">
      <!-- 0 -->
      <g transform="translate(19.925 341.729047)scale(0.1 -0.1)">
       <use xlink:href="#DejaVuSans-30"/>
      </g>
     </g>
    </g>
    <g id="ytick_2">
     <g id="line2d_13">
      <g>
       <use xlink:href="#m2007c8771e" x="33.2875" y="292.7955" style="stroke: #000000; stroke-width: 0.8"/>
      </g>
     </g>
     <g id="text_13">
      <!-- 100 -->
      <g transform="translate(7.2 296.594719)scale(0.1 -0.1)">
       <use xlink:href="#DejaVuSans-31"/>
       <use xlink:href="#DejaVuSans-30" x="63.623047"/>
       <use xlink:href="#DejaVuSans-30" x="127.246094"/>
      </g>
     </g>
    </g>
    <g id="ytick_3">
     <g id="line2d_14">
      <g>
       <use xlink:href="#m2007c8771e" x="33.2875" y="247.661172" style="stroke: #000000; stroke-width: 0.8"/>
      </g>
     </g>
     <g id="text_14">
      <!-- 200 -->
      <g transform="translate(7.2 251.46039)scale(0.1 -0.1)">
       <use xlink:href="#DejaVuSans-32"/>
       <use xlink:href="#DejaVuSans-30" x="63.623047"/>
       <use xlink:href="#DejaVuSans-30" x="127.246094"/>
      </g>
     </g>
    </g>
    <g id="ytick_4">
     <g id="line2d_15">
      <g>
       <use xlink:href="#m2007c8771e" x="33.2875" y="202.526843" style="stroke: #000000; stroke-width: 0.8"/>
      </g>
     </g>
     <g id="text_15">
      <!-- 300 -->
      <g transform="translate(7.2 206.326062)scale(0.1 -0.1)">
       <defs>
        <path id="DejaVuSans-33" d="M 2597 2516 
Q 3050 2419 3304 2112 
Q 3559 1806 3559 1356 
Q 3559 666 3084 287 
Q 2609 -91 1734 -91 
Q 1441 -91 1130 -33 
Q 819 25 488 141 
L 488 750 
Q 750 597 1062 519 
Q 1375 441 1716 441 
Q 2309 441 2620 675 
Q 2931 909 2931 1356 
Q 2931 1769 2642 2001 
Q 2353 2234 1838 2234 
L 1294 2234 
L 1294 2753 
L 1863 2753 
Q 2328 2753 2575 2939 
Q 2822 3125 2822 3475 
Q 2822 3834 2567 4026 
Q 2313 4219 1838 4219 
Q 1578 4219 1281 4162 
Q 984 4106 628 3988 
L 628 4550 
Q 988 4650 1302 4700 
Q 1616 4750 1894 4750 
Q 2613 4750 3031 4423 
Q 3450 4097 3450 3541 
Q 3450 3153 3228 2886 
Q 3006 2619 2597 2516 
z
" transform="scale(0.015625)"/>
       </defs>
       <use xlink:href="#DejaVuSans-33"/>
       <use xlink:href="#DejaVuSans-30" x="63.623047"/>
       <use xlink:href="#DejaVuSans-30" x="127.246094"/>
      </g>
     </g>
    </g>
    <g id="ytick_5">
     <g id="line2d_16">
      <g>
       <use xlink:href="#m2007c8771e" x="33.2875" y="157.392515" style="stroke: #000000; stroke-width: 0.8"/>
      </g>
     </g>
     <g id="text_16">
      <!-- 400 -->
      <g transform="translate(7.2 161.191734)scale(0.1 -0.1)">
       <use xlink:href="#DejaVuSans-34"/>
       <use xlink:href="#DejaVuSans-30" x="63.623047"/>
       <use xlink:href="#DejaVuSans-30" x="127.246094"/>
      </g>
     </g>
    </g>
    <g id="ytick_6">
     <g id="line2d_17">
      <g>
       <use xlink:href="#m2007c8771e" x="33.2875" y="112.258187" style="stroke: #000000; stroke-width: 0.8"/>
      </g>
     </g>
     <g id="text_17">
      <!-- 500 -->
      <g transform="translate(7.2 116.057405)scale(0.1 -0.1)">
       <defs>
        <path id="DejaVuSans-35" d="M 691 4666 
L 3169 4666 
L 3169 4134 
L 1269 4134 
L 1269 2991 
Q 1406 3038 1543 3061 
Q 1681 3084 1819 3084 
Q 2600 3084 3056 2656 
Q 3513 2228 3513 1497 
Q 3513 744 3044 326 
Q 2575 -91 1722 -91 
Q 1428 -91 1123 -41 
Q 819 9 494 109 
L 494 744 
Q 775 591 1075 516 
Q 1375 441 1709 441 
Q 2250 441 2565 725 
Q 2881 1009 2881 1497 
Q 2881 1984 2565 2268 
Q 2250 2553 1709 2553 
Q 1456 2553 1204 2497 
Q 953 2441 691 2322 
L 691 4666 
z
" transform="scale(0.015625)"/>
       </defs>
       <use xlink:href="#DejaVuSans-35"/>
       <use xlink:href="#DejaVuSans-30" x="63.623047"/>
       <use xlink:href="#DejaVuSans-30" x="127.246094"/>
      </g>
     </g>
    </g>
    <g id="ytick_7">
     <g id="line2d_18">
      <g>
       <use xlink:href="#m2007c8771e" x="33.2875" y="67.123858" style="stroke: #000000; stroke-width: 0.8"/>
      </g>
     </g>
     <g id="text_18">
      <!-- 600 -->
      <g transform="translate(7.2 70.923077)scale(0.1 -0.1)">
       <defs>
        <path id="DejaVuSans-36" d="M 2113 2584 
Q 1688 2584 1439 2293 
Q 1191 2003 1191 1497 
Q 1191 994 1439 701 
Q 1688 409 2113 409 
Q 2538 409 2786 701 
Q 3034 994 3034 1497 
Q 3034 2003 2786 2293 
Q 2538 2584 2113 2584 
z
M 3366 4563 
L 3366 3988 
Q 3128 4100 2886 4159 
Q 2644 4219 2406 4219 
Q 1781 4219 1451 3797 
Q 1122 3375 1075 2522 
Q 1259 2794 1537 2939 
Q 1816 3084 2150 3084 
Q 2853 3084 3261 2657 
Q 3669 2231 3669 1497 
Q 3669 778 3244 343 
Q 2819 -91 2113 -91 
Q 1303 -91 875 529 
Q 447 1150 447 2328 
Q 447 3434 972 4092 
Q 1497 4750 2381 4750 
Q 2619 4750 2861 4703 
Q 3103 4656 3366 4563 
z
" transform="scale(0.015625)"/>
       </defs>
       <use xlink:href="#DejaVuSans-36"/>
       <use xlink:href="#DejaVuSans-30" x="63.623047"/>
       <use xlink:href="#DejaVuSans-30" x="127.246094"/>
      </g>
     </g>
    </g>
   </g>
   <g id="line2d_19">
    <path d="M 94.160227 337.929828 
L 174.31047 337.929828 
L 175.69237 337.478485 
L 177.074271 337.478485 
L 178.456172 337.929828 
L 179.838073 335.673112 
L 181.219973 336.124455 
L 182.601874 337.929828 
L 186.747576 337.929828 
L 188.129477 337.478485 
L 189.511378 337.929828 
L 192.275179 337.929828 
L 193.65708 337.027142 
L 195.038981 337.929828 
L 196.420881 337.478485 
L 197.802782 337.929828 
L 200.566584 337.929828 
L 201.948484 337.478485 
L 203.330385 337.929828 
L 273.807323 337.929828 
L 275.189223 337.027142 
L 276.571124 337.929828 
L 385.741282 337.929828 
L 387.123183 337.478485 
L 388.505083 337.929828 
L 389.886984 337.478485 
L 391.268885 337.929828 
L 405.087892 337.929828 
L 406.469793 337.027142 
L 407.851694 337.929828 
L 411.997396 337.929828 
L 413.379297 337.027142 
L 414.761197 337.929828 
L 435.489708 337.929828 
L 436.871609 335.221769 
L 438.25351 337.929828 
L 441.017311 337.929828 
L 442.399212 337.478485 
L 443.781113 337.929828 
L 452.072517 337.929828 
L 453.454418 337.478485 
L 454.836318 337.929828 
L 460.363921 337.929828 
L 461.745822 337.478485 
L 463.127723 337.929828 
L 471.419127 337.929828 
L 472.801028 336.124455 
L 474.182929 337.478485 
L 475.564829 337.929828 
L 481.092432 337.929828 
L 483.856234 334.319082 
L 485.238135 337.929828 
L 489.383837 337.929828 
L 490.765738 334.770425 
L 492.147638 337.929828 
L 493.529539 335.221769 
L 494.91144 337.929828 
L 497.675241 337.929828 
L 499.057142 335.673112 
L 500.439043 337.929828 
L 511.494249 337.929828 
L 512.876149 336.124455 
L 514.25805 337.929828 
L 515.639951 335.673112 
L 517.021851 337.929828 
L 519.785653 337.929828 
L 521.167554 336.575799 
L 522.549454 335.673112 
L 523.931355 337.929828 
L 539.132263 337.929828 
L 540.514164 337.027142 
L 541.896065 337.929828 
L 543.277965 337.478485 
L 544.659866 337.929828 
L 575.061682 337.929828 
L 576.443583 330.256993 
L 577.825484 337.929828 
L 579.207384 337.478485 
L 580.589285 337.929828 
L 581.971186 337.929828 
L 583.353087 336.575799 
L 584.734987 337.929828 
L 588.88069 337.929828 
L 590.26259 337.478485 
L 591.644491 337.929828 
L 594.408292 337.929828 
L 595.790193 336.575799 
L 597.172094 337.929828 
L 605.463498 337.929828 
L 606.845399 336.124455 
L 608.2273 337.929828 
L 612.373002 337.929828 
L 613.754903 336.124455 
L 615.136803 337.929828 
L 630.337712 337.929828 
L 631.719612 332.062366 
L 633.101513 337.929828 
L 641.392917 337.929828 
L 642.774818 334.770425 
L 644.156719 337.929828 
L 645.53862 337.478485 
L 646.92052 337.929828 
L 651.066223 337.929828 
L 652.448123 337.027142 
L 653.830024 337.929828 
L 660.739528 337.929828 
L 662.121428 334.770425 
L 663.503329 337.929828 
L 664.88523 337.929828 
L 666.267131 335.673112 
L 667.649031 337.929828 
L 681.468039 337.929828 
L 682.849939 336.124455 
L 684.23184 337.929828 
L 685.613741 337.478485 
L 686.995642 337.929828 
L 692.523245 337.929828 
L 693.905145 336.575799 
L 695.287046 337.478485 
L 696.668947 337.929828 
L 720.161259 337.929828 
L 721.54316 334.770425 
L 722.925061 337.929828 
L 724.306961 337.478485 
L 725.688862 337.929828 
L 731.216465 337.929828 
L 732.598366 337.478485 
L 733.980266 337.929828 
L 743.653572 337.929828 
L 745.035472 337.478485 
L 746.417373 337.929828 
L 750.563075 337.929828 
L 751.944976 336.575799 
L 753.326877 337.929828 
L 757.472579 337.929828 
L 758.85448 335.221769 
L 760.23638 337.929828 
L 771.291586 337.929828 
L 772.673487 336.124455 
L 774.055388 337.929828 
L 790.638197 337.929828 
L 792.020097 337.478485 
L 793.401998 337.929828 
L 798.929601 337.929828 
L 800.311502 337.027142 
L 801.693402 337.929828 
L 808.602906 337.929828 
L 809.984807 337.478485 
L 811.366708 337.929828 
L 812.748608 337.929828 
L 814.130509 337.478485 
L 815.51241 337.929828 
L 819.658112 337.929828 
L 821.040013 337.478485 
L 822.421913 337.929828 
L 826.567616 337.929828 
L 827.949516 336.575799 
L 829.331417 337.929828 
L 833.477119 337.929828 
L 834.85902 337.027142 
L 836.240921 337.929828 
L 840.386623 337.929828 
L 841.768524 334.770425 
L 843.150424 337.929828 
L 847.296127 337.929828 
L 848.678027 336.575799 
L 850.059928 337.929828 
L 855.587531 337.929828 
L 856.969432 337.478485 
L 858.351332 337.929828 
L 861.115134 337.929828 
L 862.497035 334.319082 
L 863.878935 337.929828 
L 870.788439 337.929828 
L 872.17034 270.679679 
L 873.55224 328.451619 
L 874.934141 327.09759 
L 876.316042 337.929828 
L 879.079843 337.929828 
L 880.461744 263.90953 
L 881.843645 172.286843 
L 883.225546 333.416396 
L 884.607446 337.929828 
L 890.135049 337.929828 
L 891.51695 163.711321 
L 892.898851 337.929828 
L 898.426454 337.929828 
L 899.808354 202.978187 
L 901.190255 337.929828 
L 905.335957 337.929828 
L 906.717858 250.369231 
L 908.099759 337.929828 
L 910.86356 337.929828 
L 912.245461 263.006843 
L 913.627362 337.929828 
L 915.009262 258.042067 
L 916.391163 337.929828 
L 917.773064 290.538784 
L 919.154965 337.929828 
L 921.918766 337.929828 
L 923.300667 178.154306 
L 924.682568 309.043858 
L 926.064468 310.849231 
L 927.446369 337.929828 
L 930.210171 337.929828 
L 931.592071 270.228336 
L 932.973972 337.929828 
L 934.355873 235.926246 
L 935.737773 309.495201 
L 937.119674 337.929828 
L 938.501575 337.929828 
L 939.883476 294.600873 
L 941.265376 337.929828 
L 944.029178 337.929828 
L 945.411079 253.077291 
L 946.792979 304.530425 
L 948.17488 316.716694 
L 949.556781 305.884455 
L 950.938682 326.194903 
L 952.320582 298.662963 
L 953.702483 311.751918 
L 955.084384 315.814007 
L 956.466284 313.105948 
L 957.848185 337.929828 
L 959.230086 311.751918 
L 960.611987 331.611022 
L 961.993887 308.141172 
L 963.375788 325.74356 
L 964.757689 319.876097 
L 966.13959 337.929828 
L 970.285292 337.929828 
L 971.667192 241.793709 
L 973.049093 317.168037 
L 974.430994 314.008634 
L 975.812895 318.522067 
L 977.194795 337.929828 
L 978.576696 337.929828 
L 979.958597 308.141172 
L 981.340498 299.565649 
L 982.722398 323.486843 
L 984.104299 314.911321 
L 985.4862 319.424754 
L 986.868101 337.929828 
L 988.250001 319.876097 
L 989.631902 337.929828 
L 992.395703 337.929828 
L 993.777604 275.644455 
L 995.159505 337.929828 
L 997.923306 337.929828 
L 999.305207 288.73341 
L 1000.687108 337.929828 
L 1002.069009 290.08744 
L 1003.450909 311.300575 
L 1004.83281 337.929828 
L 1006.214711 337.929828 
L 1007.596612 292.344157 
L 1008.978512 337.929828 
L 1010.360413 290.538784 
L 1011.742314 337.929828 
L 1013.124214 288.73341 
L 1014.506115 320.32744 
L 1015.888016 337.929828 
L 1017.269917 314.008634 
L 1018.651817 337.929828 
L 1021.415619 337.929828 
L 1022.79752 258.042067 
L 1024.17942 337.929828 
L 1025.561321 337.929828 
L 1026.943222 276.547142 
L 1028.325123 337.929828 
L 1029.707023 304.981769 
L 1031.088924 337.929828 
L 1032.470825 296.406246 
L 1033.852725 337.929828 
L 1036.616527 337.929828 
L 1037.998428 353.2755 
L 1039.380328 337.929828 
L 1040.762229 297.308933 
L 1042.14413 323.486843 
L 1043.526031 326.646246 
L 1044.907931 337.929828 
L 1047.671733 337.929828 
L 1049.053634 327.09759 
L 1050.435534 324.840873 
L 1051.817435 337.929828 
L 1055.963137 337.929828 
L 1057.345038 272.936396 
L 1058.726939 337.929828 
L 1060.108839 297.308933 
L 1061.49074 337.929828 
L 1065.636442 337.929828 
L 1067.018343 320.32744 
L 1068.400244 337.929828 
L 1069.782145 337.929828 
L 1071.164045 222.837291 
L 1072.545946 337.929828 
L 1073.927847 316.265351 
L 1075.309747 337.929828 
L 1076.691648 337.929828 
L 1078.073549 242.696396 
L 1079.45545 337.929828 
L 1080.83735 309.043858 
L 1082.219251 290.990127 
L 1083.601152 311.751918 
L 1084.983053 337.929828 
L 1086.364953 295.052216 
L 1087.746854 262.104157 
L 1089.128755 290.538784 
L 1090.510656 337.929828 
L 1091.892556 267.971619 
L 1093.274457 337.929828 
L 1094.656358 276.998485 
L 1096.038258 337.929828 
L 1098.80206 337.929828 
L 1100.183961 161.003261 
L 1101.565861 305.433112 
L 1102.947762 337.929828 
L 1104.329663 294.600873 
L 1105.711564 337.929828 
L 1107.093464 337.929828 
L 1108.475365 193.048634 
L 1109.857266 337.929828 
L 1111.239166 337.929828 
L 1112.621067 250.369231 
L 1114.002968 337.929828 
L 1115.384869 337.929828 
L 1116.766769 177.702963 
L 1118.14867 337.929828 
L 1119.530571 286.025351 
L 1120.912472 284.219978 
L 1122.294372 292.344157 
L 1123.676273 337.929828 
L 1125.058174 212.456396 
L 1126.440075 304.981769 
L 1127.821975 337.929828 
L 1129.203876 285.122664 
L 1130.585777 283.317291 
L 1131.967677 291.44147 
L 1133.349578 337.929828 
L 1134.731479 286.928037 
L 1136.11338 273.839082 
L 1137.49528 311.300575 
L 1138.877181 327.09759 
L 1140.259082 315.814007 
L 1141.640983 337.929828 
L 1144.404784 337.929828 
L 1145.786685 269.325649 
L 1147.168586 320.778784 
L 1148.550486 326.646246 
L 1149.932387 337.929828 
L 1152.696188 337.929828 
L 1154.078089 296.406246 
L 1155.45999 337.929828 
L 1156.841891 337.929828 
L 1158.223791 319.876097 
L 1159.605692 292.7955 
L 1160.987593 337.929828 
L 1165.133295 337.929828 
L 1166.515196 241.342366 
L 1167.897097 319.876097 
L 1169.278997 337.929828 
L 1172.042799 337.929828 
L 1173.424699 325.74356 
L 1174.8066 337.929828 
L 1176.188501 286.476694 
L 1177.570402 337.929828 
L 1178.952302 323.938187 
L 1180.334203 315.362664 
L 1181.716104 337.929828 
L 1183.098005 328.451619 
L 1184.479905 323.486843 
L 1185.861806 337.929828 
L 1187.243707 333.416396 
L 1188.625608 337.929828 
L 1191.389409 337.929828 
L 1192.77131 329.805649 
L 1194.15321 332.965052 
L 1195.535111 327.548933 
L 1196.917012 328.902963 
L 1198.298913 323.486843 
L 1199.680813 337.929828 
L 1202.444615 337.929828 
L 1203.826516 335.221769 
L 1205.208416 337.929828 
L 1206.590317 312.654604 
L 1207.972218 337.929828 
L 1212.11792 337.929828 
L 1213.499821 325.292216 
L 1214.881721 335.673112 
L 1216.263622 337.027142 
L 1217.645523 337.929828 
L 1224.555027 337.929828 
L 1225.936927 327.548933 
L 1227.318828 337.929828 
L 1232.846431 337.929828 
L 1234.228332 328.000276 
L 1235.610232 337.929828 
L 1238.374034 337.929828 
L 1239.755935 280.157888 
L 1241.137835 337.929828 
L 1245.283538 337.929828 
L 1246.665438 236.37759 
L 1248.047339 337.929828 
L 1249.42924 289.636097 
L 1250.81114 337.929828 
L 1252.193041 337.929828 
L 1253.574942 251.271918 
L 1254.956843 337.929828 
L 1257.720644 337.929828 
L 1259.102545 143.400873 
L 1260.484446 337.929828 
L 1268.77585 337.929828 
L 1270.157751 50.8755 
L 1271.539651 337.929828 
L 1272.921552 142.94953 
L 1274.303453 337.929828 
L 1282.594857 337.929828 
L 1283.976758 287.830724 
L 1285.358659 337.929828 
L 1292.268162 337.929828 
L 1292.268162 337.929828 
" clip-path="url(#p80fc8bd5e1)" style="fill: none; stroke: #0000ff; stroke-width: 1.5; stroke-linecap: square"/>
   </g>
   <g id="line2d_20">
    <path d="M 1053.199336 325.080817 
L 1054.581236 326.636587 
L 1055.963137 327.531891 
L 1057.345038 328.253927 
L 1058.726939 335.222998 
L 1060.108839 323.76036 
L 1061.49074 329.770871 
L 1062.872641 323.330391 
L 1065.636442 325.287571 
L 1067.018343 322.522694 
L 1068.400244 328.465316 
L 1069.782145 324.393508 
L 1071.164045 327.210244 
L 1072.545946 340.580935 
L 1073.927847 320.178419 
L 1075.309747 323.712515 
L 1076.691648 319.907367 
L 1078.073549 321.972119 
L 1079.45545 333.370259 
L 1080.83735 310.506403 
L 1082.219251 320.796786 
L 1083.601152 321.817473 
L 1084.983053 318.472217 
L 1086.364953 315.437968 
L 1087.746854 316.217075 
L 1089.128755 322.647462 
L 1091.892556 306.730045 
L 1093.274457 317.314181 
L 1094.656358 308.127751 
L 1096.038258 314.524536 
L 1097.420159 303.177084 
L 1098.80206 306.859624 
L 1100.183961 311.953294 
L 1101.565861 329.097741 
L 1102.947762 305.314539 
L 1104.329663 299.144346 
L 1105.711564 309.255643 
L 1107.093464 304.235076 
L 1108.475365 306.574849 
L 1109.857266 314.226584 
L 1111.239166 296.774114 
L 1112.621067 302.875418 
L 1114.002968 312.502691 
L 1115.384869 300.888387 
L 1116.766769 303.887173 
L 1118.14867 315.151806 
L 1119.530571 295.280115 
L 1120.912472 305.182078 
L 1122.294372 299.13601 
L 1123.676273 301.282681 
L 1125.058174 296.681512 
L 1126.440075 303.894529 
L 1127.821975 295.118816 
L 1129.203876 290.972055 
L 1130.585777 299.230319 
L 1131.967677 298.880035 
L 1133.349578 299.571298 
L 1134.731479 287.484557 
L 1136.11338 300.355906 
L 1137.49528 303.571604 
L 1138.877181 294.892073 
L 1140.259082 293.732227 
L 1141.640983 297.685359 
L 1143.022883 299.280413 
L 1144.404784 299.56341 
L 1145.786685 300.991808 
L 1147.168586 312.815439 
L 1148.550486 305.583832 
L 1149.932387 305.538783 
L 1151.314288 306.934279 
L 1152.696188 309.304371 
L 1154.078089 311.292131 
L 1155.45999 313.707806 
L 1156.841891 310.303672 
L 1158.223791 313.057509 
L 1159.605692 317.392706 
L 1160.987593 320.553044 
L 1162.369494 313.830899 
L 1163.751394 313.177017 
L 1165.133295 316.814335 
L 1166.515196 318.689443 
L 1167.897097 329.274181 
L 1169.278997 313.129901 
L 1170.660898 313.943555 
L 1172.042799 316.053562 
L 1173.424699 317.572656 
L 1174.8066 320.28082 
L 1176.188501 313.952053 
L 1177.570402 324.533645 
L 1178.952302 318.210178 
L 1180.334203 321.243616 
L 1181.716104 322.341712 
L 1183.098005 318.776741 
L 1184.479905 321.676645 
L 1185.861806 319.910648 
L 1187.243707 321.001933 
L 1188.625608 322.37928 
L 1190.007508 322.047831 
L 1191.389409 324.331093 
L 1192.77131 324.966354 
L 1194.15321 326.35799 
L 1195.535111 327.022389 
L 1196.917012 327.899644 
L 1198.298913 327.939981 
L 1199.680813 328.626649 
L 1201.062714 326.73545 
L 1202.444615 327.057446 
L 1203.826516 327.909515 
L 1205.208416 328.620552 
L 1206.590317 328.813826 
L 1207.972218 331.841618 
L 1209.354119 328.580436 
L 1210.736019 329.371866 
L 1212.11792 329.966133 
L 1213.499821 330.367353 
L 1214.881721 332.360114 
L 1216.263622 329.376582 
L 1217.645523 330.837743 
L 1219.027424 331.420504 
L 1221.791225 332.293135 
L 1223.173126 331.976234 
L 1224.555027 332.847053 
L 1225.936927 333.378104 
L 1227.318828 334.860873 
L 1228.700729 333.259247 
L 1232.846431 334.166226 
L 1234.228332 334.427572 
L 1235.610232 335.143764 
L 1236.992133 334.072513 
L 1238.374034 334.442577 
L 1239.755935 334.684732 
L 1241.137835 341.047229 
L 1242.519736 330.681901 
L 1243.901637 330.628666 
L 1245.283538 331.594427 
L 1246.665438 332.132125 
L 1248.047339 343.322689 
L 1249.42924 321.870415 
L 1250.81114 330.785048 
L 1252.193041 323.366199 
L 1253.574942 324.377501 
L 1254.956843 334.524313 
L 1256.338743 313.845698 
L 1257.720644 320.210032 
L 1259.102545 319.733613 
L 1260.484446 343.89339 
L 1261.866346 309.781681 
L 1263.248247 306.879284 
L 1264.630148 313.039218 
L 1266.012049 315.620865 
L 1267.393949 317.170005 
L 1268.77585 307.708592 
L 1270.157751 318.794806 
L 1271.539651 352.53288 
L 1272.921552 301.091715 
L 1274.303453 324.362666 
L 1275.685354 291.052387 
L 1278.449155 297.33671 
L 1279.831056 284.066654 
L 1281.212957 301.069435 
L 1282.594857 295.527098 
L 1283.976758 307.480052 
L 1285.358659 316.836339 
L 1286.74056 309.500116 
L 1289.504361 313.311363 
L 1292.268162 316.61168 
L 1292.268162 316.61168 
" clip-path="url(#p80fc8bd5e1)" style="fill: none; stroke: #ffa500; stroke-width: 1.5; stroke-linecap: square"/>
   </g>
   <g id="line2d_21">
    <path d="M 1293.650063 315.284058 
L 1295.031964 321.576946 
L 1296.413865 320.964745 
L 1297.795765 321.072291 
L 1299.177666 321.053399 
L 1300.559567 321.056718 
L 1301.941468 321.056134 
L 1303.323368 319.786984 
L 1304.705269 320.139671 
L 1306.08717 320.105361 
L 1307.469071 320.111388 
L 1308.850971 320.11033 
L 1310.232872 320.110516 
L 1311.614773 320.110483 
" clip-path="url(#p80fc8bd5e1)" style="fill: none; stroke: #ff0000; stroke-width: 1.5; stroke-linecap: square"/>
   </g>
   <g id="patch_3">
    <path d="M 33.2875 368.3955 
L 33.2875 35.7555 
" style="fill: none; stroke: #000000; stroke-width: 0.8; stroke-linejoin: miter; stroke-linecap: square"/>
   </g>
   <g id="patch_4">
    <path d="M 1372.4875 368.3955 
L 1372.4875 35.7555 
" style="fill: none; stroke: #000000; stroke-width: 0.8; stroke-linejoin: miter; stroke-linecap: square"/>
   </g>
   <g id="patch_5">
    <path d="M 33.2875 368.3955 
L 1372.4875 368.3955 
" style="fill: none; stroke: #000000; stroke-width: 0.8; stroke-linejoin: miter; stroke-linecap: square"/>
   </g>
   <g id="patch_6">
    <path d="M 33.2875 35.7555 
L 1372.4875 35.7555 
" style="fill: none; stroke: #000000; stroke-width: 0.8; stroke-linejoin: miter; stroke-linecap: square"/>
   </g>
   <g id="text_19">
    <!-- Daily Confirmed Cases Forecasting - Dominica -->
    <g transform="translate(564.139375 16.318125)scale(0.12 -0.12)">
     <defs>
      <path id="DejaVuSans-44" d="M 1259 4147 
L 1259 519 
L 2022 519 
Q 2988 519 3436 956 
Q 3884 1394 3884 2338 
Q 3884 3275 3436 3711 
Q 2988 4147 2022 4147 
L 1259 4147 
z
M 628 4666 
L 1925 4666 
Q 3281 4666 3915 4102 
Q 4550 3538 4550 2338 
Q 4550 1131 3912 565 
Q 3275 0 1925 0 
L 628 0 
L 628 4666 
z
" transform="scale(0.015625)"/>
      <path id="DejaVuSans-61" d="M 2194 1759 
Q 1497 1759 1228 1600 
Q 959 1441 959 1056 
Q 959 750 1161 570 
Q 1363 391 1709 391 
Q 2188 391 2477 730 
Q 2766 1069 2766 1631 
L 2766 1759 
L 2194 1759 
z
M 3341 1997 
L 3341 0 
L 2766 0 
L 2766 531 
Q 2569 213 2275 61 
Q 1981 -91 1556 -91 
Q 1019 -91 701 211 
Q 384 513 384 1019 
Q 384 1609 779 1909 
Q 1175 2209 1959 2209 
L 2766 2209 
L 2766 2266 
Q 2766 2663 2505 2880 
Q 2244 3097 1772 3097 
Q 1472 3097 1187 3025 
Q 903 2953 641 2809 
L 641 3341 
Q 956 3463 1253 3523 
Q 1550 3584 1831 3584 
Q 2591 3584 2966 3190 
Q 3341 2797 3341 1997 
z
" transform="scale(0.015625)"/>
      <path id="DejaVuSans-69" d="M 603 3500 
L 1178 3500 
L 1178 0 
L 603 0 
L 603 3500 
z
M 603 4863 
L 1178 4863 
L 1178 4134 
L 603 4134 
L 603 4863 
z
" transform="scale(0.015625)"/>
      <path id="DejaVuSans-6c" d="M 603 4863 
L 1178 4863 
L 1178 0 
L 603 0 
L 603 4863 
z
" transform="scale(0.015625)"/>
      <path id="DejaVuSans-79" d="M 2059 -325 
Q 1816 -950 1584 -1140 
Q 1353 -1331 966 -1331 
L 506 -1331 
L 506 -850 
L 844 -850 
Q 1081 -850 1212 -737 
Q 1344 -625 1503 -206 
L 1606 56 
L 191 3500 
L 800 3500 
L 1894 763 
L 2988 3500 
L 3597 3500 
L 2059 -325 
z
" transform="scale(0.015625)"/>
      <path id="DejaVuSans-20" transform="scale(0.015625)"/>
      <path id="DejaVuSans-43" d="M 4122 4306 
L 4122 3641 
Q 3803 3938 3442 4084 
Q 3081 4231 2675 4231 
Q 1875 4231 1450 3742 
Q 1025 3253 1025 2328 
Q 1025 1406 1450 917 
Q 1875 428 2675 428 
Q 3081 428 3442 575 
Q 3803 722 4122 1019 
L 4122 359 
Q 3791 134 3420 21 
Q 3050 -91 2638 -91 
Q 1578 -91 968 557 
Q 359 1206 359 2328 
Q 359 3453 968 4101 
Q 1578 4750 2638 4750 
Q 3056 4750 3426 4639 
Q 3797 4528 4122 4306 
z
" transform="scale(0.015625)"/>
      <path id="DejaVuSans-6f" d="M 1959 3097 
Q 1497 3097 1228 2736 
Q 959 2375 959 1747 
Q 959 1119 1226 758 
Q 1494 397 1959 397 
Q 2419 397 2687 759 
Q 2956 1122 2956 1747 
Q 2956 2369 2687 2733 
Q 2419 3097 1959 3097 
z
M 1959 3584 
Q 2709 3584 3137 3096 
Q 3566 2609 3566 1747 
Q 3566 888 3137 398 
Q 2709 -91 1959 -91 
Q 1206 -91 779 398 
Q 353 888 353 1747 
Q 353 2609 779 3096 
Q 1206 3584 1959 3584 
z
" transform="scale(0.015625)"/>
      <path id="DejaVuSans-6e" d="M 3513 2113 
L 3513 0 
L 2938 0 
L 2938 2094 
Q 2938 2591 2744 2837 
Q 2550 3084 2163 3084 
Q 1697 3084 1428 2787 
Q 1159 2491 1159 1978 
L 1159 0 
L 581 0 
L 581 3500 
L 1159 3500 
L 1159 2956 
Q 1366 3272 1645 3428 
Q 1925 3584 2291 3584 
Q 2894 3584 3203 3211 
Q 3513 2838 3513 2113 
z
" transform="scale(0.015625)"/>
      <path id="DejaVuSans-66" d="M 2375 4863 
L 2375 4384 
L 1825 4384 
Q 1516 4384 1395 4259 
Q 1275 4134 1275 3809 
L 1275 3500 
L 2222 3500 
L 2222 3053 
L 1275 3053 
L 1275 0 
L 697 0 
L 697 3053 
L 147 3053 
L 147 3500 
L 697 3500 
L 697 3744 
Q 697 4328 969 4595 
Q 1241 4863 1831 4863 
L 2375 4863 
z
" transform="scale(0.015625)"/>
      <path id="DejaVuSans-72" d="M 2631 2963 
Q 2534 3019 2420 3045 
Q 2306 3072 2169 3072 
Q 1681 3072 1420 2755 
Q 1159 2438 1159 1844 
L 1159 0 
L 581 0 
L 581 3500 
L 1159 3500 
L 1159 2956 
Q 1341 3275 1631 3429 
Q 1922 3584 2338 3584 
Q 2397 3584 2469 3576 
Q 2541 3569 2628 3553 
L 2631 2963 
z
" transform="scale(0.015625)"/>
      <path id="DejaVuSans-6d" d="M 3328 2828 
Q 3544 3216 3844 3400 
Q 4144 3584 4550 3584 
Q 5097 3584 5394 3201 
Q 5691 2819 5691 2113 
L 5691 0 
L 5113 0 
L 5113 2094 
Q 5113 2597 4934 2840 
Q 4756 3084 4391 3084 
Q 3944 3084 3684 2787 
Q 3425 2491 3425 1978 
L 3425 0 
L 2847 0 
L 2847 2094 
Q 2847 2600 2669 2842 
Q 2491 3084 2119 3084 
Q 1678 3084 1418 2786 
Q 1159 2488 1159 1978 
L 1159 0 
L 581 0 
L 581 3500 
L 1159 3500 
L 1159 2956 
Q 1356 3278 1631 3431 
Q 1906 3584 2284 3584 
Q 2666 3584 2933 3390 
Q 3200 3197 3328 2828 
z
" transform="scale(0.015625)"/>
      <path id="DejaVuSans-65" d="M 3597 1894 
L 3597 1613 
L 953 1613 
Q 991 1019 1311 708 
Q 1631 397 2203 397 
Q 2534 397 2845 478 
Q 3156 559 3463 722 
L 3463 178 
Q 3153 47 2828 -22 
Q 2503 -91 2169 -91 
Q 1331 -91 842 396 
Q 353 884 353 1716 
Q 353 2575 817 3079 
Q 1281 3584 2069 3584 
Q 2775 3584 3186 3129 
Q 3597 2675 3597 1894 
z
M 3022 2063 
Q 3016 2534 2758 2815 
Q 2500 3097 2075 3097 
Q 1594 3097 1305 2825 
Q 1016 2553 972 2059 
L 3022 2063 
z
" transform="scale(0.015625)"/>
      <path id="DejaVuSans-64" d="M 2906 2969 
L 2906 4863 
L 3481 4863 
L 3481 0 
L 2906 0 
L 2906 525 
Q 2725 213 2448 61 
Q 2172 -91 1784 -91 
Q 1150 -91 751 415 
Q 353 922 353 1747 
Q 353 2572 751 3078 
Q 1150 3584 1784 3584 
Q 2172 3584 2448 3432 
Q 2725 3281 2906 2969 
z
M 947 1747 
Q 947 1113 1208 752 
Q 1469 391 1925 391 
Q 2381 391 2643 752 
Q 2906 1113 2906 1747 
Q 2906 2381 2643 2742 
Q 2381 3103 1925 3103 
Q 1469 3103 1208 2742 
Q 947 2381 947 1747 
z
" transform="scale(0.015625)"/>
      <path id="DejaVuSans-73" d="M 2834 3397 
L 2834 2853 
Q 2591 2978 2328 3040 
Q 2066 3103 1784 3103 
Q 1356 3103 1142 2972 
Q 928 2841 928 2578 
Q 928 2378 1081 2264 
Q 1234 2150 1697 2047 
L 1894 2003 
Q 2506 1872 2764 1633 
Q 3022 1394 3022 966 
Q 3022 478 2636 193 
Q 2250 -91 1575 -91 
Q 1294 -91 989 -36 
Q 684 19 347 128 
L 347 722 
Q 666 556 975 473 
Q 1284 391 1588 391 
Q 1994 391 2212 530 
Q 2431 669 2431 922 
Q 2431 1156 2273 1281 
Q 2116 1406 1581 1522 
L 1381 1569 
Q 847 1681 609 1914 
Q 372 2147 372 2553 
Q 372 3047 722 3315 
Q 1072 3584 1716 3584 
Q 2034 3584 2315 3537 
Q 2597 3491 2834 3397 
z
" transform="scale(0.015625)"/>
      <path id="DejaVuSans-46" d="M 628 4666 
L 3309 4666 
L 3309 4134 
L 1259 4134 
L 1259 2759 
L 3109 2759 
L 3109 2228 
L 1259 2228 
L 1259 0 
L 628 0 
L 628 4666 
z
" transform="scale(0.015625)"/>
      <path id="DejaVuSans-63" d="M 3122 3366 
L 3122 2828 
Q 2878 2963 2633 3030 
Q 2388 3097 2138 3097 
Q 1578 3097 1268 2742 
Q 959 2388 959 1747 
Q 959 1106 1268 751 
Q 1578 397 2138 397 
Q 2388 397 2633 464 
Q 2878 531 3122 666 
L 3122 134 
Q 2881 22 2623 -34 
Q 2366 -91 2075 -91 
Q 1284 -91 818 406 
Q 353 903 353 1747 
Q 353 2603 823 3093 
Q 1294 3584 2113 3584 
Q 2378 3584 2631 3529 
Q 2884 3475 3122 3366 
z
" transform="scale(0.015625)"/>
      <path id="DejaVuSans-74" d="M 1172 4494 
L 1172 3500 
L 2356 3500 
L 2356 3053 
L 1172 3053 
L 1172 1153 
Q 1172 725 1289 603 
Q 1406 481 1766 481 
L 2356 481 
L 2356 0 
L 1766 0 
Q 1100 0 847 248 
Q 594 497 594 1153 
L 594 3053 
L 172 3053 
L 172 3500 
L 594 3500 
L 594 4494 
L 1172 4494 
z
" transform="scale(0.015625)"/>
      <path id="DejaVuSans-67" d="M 2906 1791 
Q 2906 2416 2648 2759 
Q 2391 3103 1925 3103 
Q 1463 3103 1205 2759 
Q 947 2416 947 1791 
Q 947 1169 1205 825 
Q 1463 481 1925 481 
Q 2391 481 2648 825 
Q 2906 1169 2906 1791 
z
M 3481 434 
Q 3481 -459 3084 -895 
Q 2688 -1331 1869 -1331 
Q 1566 -1331 1297 -1286 
Q 1028 -1241 775 -1147 
L 775 -588 
Q 1028 -725 1275 -790 
Q 1522 -856 1778 -856 
Q 2344 -856 2625 -561 
Q 2906 -266 2906 331 
L 2906 616 
Q 2728 306 2450 153 
Q 2172 0 1784 0 
Q 1141 0 747 490 
Q 353 981 353 1791 
Q 353 2603 747 3093 
Q 1141 3584 1784 3584 
Q 2172 3584 2450 3431 
Q 2728 3278 2906 2969 
L 2906 3500 
L 3481 3500 
L 3481 434 
z
" transform="scale(0.015625)"/>
     </defs>
     <use xlink:href="#DejaVuSans-44"/>
     <use xlink:href="#DejaVuSans-61" x="77.001953"/>
     <use xlink:href="#DejaVuSans-69" x="138.28125"/>
     <use xlink:href="#DejaVuSans-6c" x="166.064453"/>
     <use xlink:href="#DejaVuSans-79" x="193.847656"/>
     <use xlink:href="#DejaVuSans-20" x="253.027344"/>
     <use xlink:href="#DejaVuSans-43" x="284.814453"/>
     <use xlink:href="#DejaVuSans-6f" x="354.638672"/>
     <use xlink:href="#DejaVuSans-6e" x="415.820312"/>
     <use xlink:href="#DejaVuSans-66" x="479.199219"/>
     <use xlink:href="#DejaVuSans-69" x="514.404297"/>
     <use xlink:href="#DejaVuSans-72" x="542.1875"/>
     <use xlink:href="#DejaVuSans-6d" x="581.550781"/>
     <use xlink:href="#DejaVuSans-65" x="678.962891"/>
     <use xlink:href="#DejaVuSans-64" x="740.486328"/>
     <use xlink:href="#DejaVuSans-20" x="803.962891"/>
     <use xlink:href="#DejaVuSans-43" x="835.75"/>
     <use xlink:href="#DejaVuSans-61" x="905.574219"/>
     <use xlink:href="#DejaVuSans-73" x="966.853516"/>
     <use xlink:href="#DejaVuSans-65" x="1018.953125"/>
     <use xlink:href="#DejaVuSans-73" x="1080.476562"/>
     <use xlink:href="#DejaVuSans-20" x="1132.576172"/>
     <use xlink:href="#DejaVuSans-46" x="1164.363281"/>
     <use xlink:href="#DejaVuSans-6f" x="1218.257812"/>
     <use xlink:href="#DejaVuSans-72" x="1279.439453"/>
     <use xlink:href="#DejaVuSans-65" x="1318.302734"/>
     <use xlink:href="#DejaVuSans-63" x="1379.826172"/>
     <use xlink:href="#DejaVuSans-61" x="1434.806641"/>
     <use xlink:href="#DejaVuSans-73" x="1496.085938"/>
     <use xlink:href="#DejaVuSans-74" x="1548.185547"/>
     <use xlink:href="#DejaVuSans-69" x="1587.394531"/>
     <use xlink:href="#DejaVuSans-6e" x="1615.177734"/>
     <use xlink:href="#DejaVuSans-67" x="1678.556641"/>
     <use xlink:href="#DejaVuSans-20" x="1742.033203"/>
     <use xlink:href="#DejaVuSans-2d" x="1773.820312"/>
     <use xlink:href="#DejaVuSans-20" x="1809.904297"/>
     <use xlink:href="#DejaVuSans-44" x="1841.691406"/>
     <use xlink:href="#DejaVuSans-6f" x="1918.693359"/>
     <use xlink:href="#DejaVuSans-6d" x="1979.875"/>
     <use xlink:href="#DejaVuSans-69" x="2077.287109"/>
     <use xlink:href="#DejaVuSans-6e" x="2105.070312"/>
     <use xlink:href="#DejaVuSans-69" x="2168.449219"/>
     <use xlink:href="#DejaVuSans-63" x="2196.232422"/>
     <use xlink:href="#DejaVuSans-61" x="2251.212891"/>
    </g>
    <!-- ARIMA (1, 1, 1)x(1, 0, 0, 7) (R2 = 0.024413) -->
    <g transform="translate(570.903438 29.7555)scale(0.12 -0.12)">
     <defs>
      <path id="DejaVuSans-41" d="M 2188 4044 
L 1331 1722 
L 3047 1722 
L 2188 4044 
z
M 1831 4666 
L 2547 4666 
L 4325 0 
L 3669 0 
L 3244 1197 
L 1141 1197 
L 716 0 
L 50 0 
L 1831 4666 
z
" transform="scale(0.015625)"/>
      <path id="DejaVuSans-52" d="M 2841 2188 
Q 3044 2119 3236 1894 
Q 3428 1669 3622 1275 
L 4263 0 
L 3584 0 
L 2988 1197 
Q 2756 1666 2539 1819 
Q 2322 1972 1947 1972 
L 1259 1972 
L 1259 0 
L 628 0 
L 628 4666 
L 2053 4666 
Q 2853 4666 3247 4331 
Q 3641 3997 3641 3322 
Q 3641 2881 3436 2590 
Q 3231 2300 2841 2188 
z
M 1259 4147 
L 1259 2491 
L 2053 2491 
Q 2509 2491 2742 2702 
Q 2975 2913 2975 3322 
Q 2975 3731 2742 3939 
Q 2509 4147 2053 4147 
L 1259 4147 
z
" transform="scale(0.015625)"/>
      <path id="DejaVuSans-49" d="M 628 4666 
L 1259 4666 
L 1259 0 
L 628 0 
L 628 4666 
z
" transform="scale(0.015625)"/>
      <path id="DejaVuSans-4d" d="M 628 4666 
L 1569 4666 
L 2759 1491 
L 3956 4666 
L 4897 4666 
L 4897 0 
L 4281 0 
L 4281 4097 
L 3078 897 
L 2444 897 
L 1241 4097 
L 1241 0 
L 628 0 
L 628 4666 
z
" transform="scale(0.015625)"/>
      <path id="DejaVuSans-28" d="M 1984 4856 
Q 1566 4138 1362 3434 
Q 1159 2731 1159 2009 
Q 1159 1288 1364 580 
Q 1569 -128 1984 -844 
L 1484 -844 
Q 1016 -109 783 600 
Q 550 1309 550 2009 
Q 550 2706 781 3412 
Q 1013 4119 1484 4856 
L 1984 4856 
z
" transform="scale(0.015625)"/>
      <path id="DejaVuSans-2c" d="M 750 794 
L 1409 794 
L 1409 256 
L 897 -744 
L 494 -744 
L 750 256 
L 750 794 
z
" transform="scale(0.015625)"/>
      <path id="DejaVuSans-29" d="M 513 4856 
L 1013 4856 
Q 1481 4119 1714 3412 
Q 1947 2706 1947 2009 
Q 1947 1309 1714 600 
Q 1481 -109 1013 -844 
L 513 -844 
Q 928 -128 1133 580 
Q 1338 1288 1338 2009 
Q 1338 2731 1133 3434 
Q 928 4138 513 4856 
z
" transform="scale(0.015625)"/>
      <path id="DejaVuSans-78" d="M 3513 3500 
L 2247 1797 
L 3578 0 
L 2900 0 
L 1881 1375 
L 863 0 
L 184 0 
L 1544 1831 
L 300 3500 
L 978 3500 
L 1906 2253 
L 2834 3500 
L 3513 3500 
z
" transform="scale(0.015625)"/>
      <path id="DejaVuSans-3d" d="M 678 2906 
L 4684 2906 
L 4684 2381 
L 678 2381 
L 678 2906 
z
M 678 1631 
L 4684 1631 
L 4684 1100 
L 678 1100 
L 678 1631 
z
" transform="scale(0.015625)"/>
      <path id="DejaVuSans-2e" d="M 684 794 
L 1344 794 
L 1344 0 
L 684 0 
L 684 794 
z
" transform="scale(0.015625)"/>
     </defs>
     <use xlink:href="#DejaVuSans-41"/>
     <use xlink:href="#DejaVuSans-52" x="68.408203"/>
     <use xlink:href="#DejaVuSans-49" x="137.890625"/>
     <use xlink:href="#DejaVuSans-4d" x="167.382812"/>
     <use xlink:href="#DejaVuSans-41" x="253.662109"/>
     <use xlink:href="#DejaVuSans-20" x="322.070312"/>
     <use xlink:href="#DejaVuSans-28" x="353.857422"/>
     <use xlink:href="#DejaVuSans-31" x="392.871094"/>
     <use xlink:href="#DejaVuSans-2c" x="456.494141"/>
     <use xlink:href="#DejaVuSans-20" x="488.28125"/>
     <use xlink:href="#DejaVuSans-31" x="520.068359"/>
     <use xlink:href="#DejaVuSans-2c" x="583.691406"/>
     <use xlink:href="#DejaVuSans-20" x="615.478516"/>
     <use xlink:href="#DejaVuSans-31" x="647.265625"/>
     <use xlink:href="#DejaVuSans-29" x="710.888672"/>
     <use xlink:href="#DejaVuSans-78" x="749.902344"/>
     <use xlink:href="#DejaVuSans-28" x="809.082031"/>
     <use xlink:href="#DejaVuSans-31" x="848.095703"/>
     <use xlink:href="#DejaVuSans-2c" x="911.71875"/>
     <use xlink:href="#DejaVuSans-20" x="943.505859"/>
     <use xlink:href="#DejaVuSans-30" x="975.292969"/>
     <use xlink:href="#DejaVuSans-2c" x="1038.916016"/>
     <use xlink:href="#DejaVuSans-20" x="1070.703125"/>
     <use xlink:href="#DejaVuSans-30" x="1102.490234"/>
     <use xlink:href="#DejaVuSans-2c" x="1166.113281"/>
     <use xlink:href="#DejaVuSans-20" x="1197.900391"/>
     <use xlink:href="#DejaVuSans-37" x="1229.6875"/>
     <use xlink:href="#DejaVuSans-29" x="1293.310547"/>
     <use xlink:href="#DejaVuSans-20" x="1332.324219"/>
     <use xlink:href="#DejaVuSans-28" x="1364.111328"/>
     <use xlink:href="#DejaVuSans-52" x="1403.125"/>
     <use xlink:href="#DejaVuSans-32" x="1472.607422"/>
     <use xlink:href="#DejaVuSans-20" x="1536.230469"/>
     <use xlink:href="#DejaVuSans-3d" x="1568.017578"/>
     <use xlink:href="#DejaVuSans-20" x="1651.806641"/>
     <use xlink:href="#DejaVuSans-30" x="1683.59375"/>
     <use xlink:href="#DejaVuSans-2e" x="1747.216797"/>
     <use xlink:href="#DejaVuSans-30" x="1779.003906"/>
     <use xlink:href="#DejaVuSans-32" x="1842.626953"/>
     <use xlink:href="#DejaVuSans-34" x="1906.25"/>
     <use xlink:href="#DejaVuSans-34" x="1969.873047"/>
     <use xlink:href="#DejaVuSans-31" x="2033.496094"/>
     <use xlink:href="#DejaVuSans-33" x="2097.119141"/>
     <use xlink:href="#DejaVuSans-29" x="2160.742188"/>
    </g>
   </g>
   <g id="legend_1">
    <g id="patch_7">
     <path d="M 40.2875 87.789875 
L 137.367188 87.789875 
Q 139.367188 87.789875 139.367188 85.789875 
L 139.367188 42.7555 
Q 139.367188 40.7555 137.367188 40.7555 
L 40.2875 40.7555 
Q 38.2875 40.7555 38.2875 42.7555 
L 38.2875 85.789875 
Q 38.2875 87.789875 40.2875 87.789875 
z
" style="fill: #ffffff; opacity: 0.8; stroke: #cccccc; stroke-linejoin: miter"/>
    </g>
    <g id="line2d_22">
     <path d="M 42.2875 48.853937 
L 52.2875 48.853937 
L 62.2875 48.853937 
" style="fill: none; stroke: #0000ff; stroke-width: 1.5; stroke-linecap: square"/>
    </g>
    <g id="text_20">
     <!-- Actual Value -->
     <g transform="translate(70.2875 52.353937)scale(0.1 -0.1)">
      <defs>
       <path id="DejaVuSans-75" d="M 544 1381 
L 544 3500 
L 1119 3500 
L 1119 1403 
Q 1119 906 1312 657 
Q 1506 409 1894 409 
Q 2359 409 2629 706 
Q 2900 1003 2900 1516 
L 2900 3500 
L 3475 3500 
L 3475 0 
L 2900 0 
L 2900 538 
Q 2691 219 2414 64 
Q 2138 -91 1772 -91 
Q 1169 -91 856 284 
Q 544 659 544 1381 
z
M 1991 3584 
L 1991 3584 
z
" transform="scale(0.015625)"/>
       <path id="DejaVuSans-56" d="M 1831 0 
L 50 4666 
L 709 4666 
L 2188 738 
L 3669 4666 
L 4325 4666 
L 2547 0 
L 1831 0 
z
" transform="scale(0.015625)"/>
      </defs>
      <use xlink:href="#DejaVuSans-41"/>
      <use xlink:href="#DejaVuSans-63" x="66.658203"/>
      <use xlink:href="#DejaVuSans-74" x="121.638672"/>
      <use xlink:href="#DejaVuSans-75" x="160.847656"/>
      <use xlink:href="#DejaVuSans-61" x="224.226562"/>
      <use xlink:href="#DejaVuSans-6c" x="285.505859"/>
      <use xlink:href="#DejaVuSans-20" x="313.289062"/>
      <use xlink:href="#DejaVuSans-56" x="345.076172"/>
      <use xlink:href="#DejaVuSans-61" x="405.734375"/>
      <use xlink:href="#DejaVuSans-6c" x="467.013672"/>
      <use xlink:href="#DejaVuSans-75" x="494.796875"/>
      <use xlink:href="#DejaVuSans-65" x="558.175781"/>
     </g>
    </g>
    <g id="line2d_23">
     <path d="M 42.2875 63.532062 
L 52.2875 63.532062 
L 62.2875 63.532062 
" style="fill: none; stroke: #ffa500; stroke-width: 1.5; stroke-linecap: square"/>
    </g>
    <g id="text_21">
     <!-- Check Value -->
     <g transform="translate(70.2875 67.032062)scale(0.1 -0.1)">
      <defs>
       <path id="DejaVuSans-68" d="M 3513 2113 
L 3513 0 
L 2938 0 
L 2938 2094 
Q 2938 2591 2744 2837 
Q 2550 3084 2163 3084 
Q 1697 3084 1428 2787 
Q 1159 2491 1159 1978 
L 1159 0 
L 581 0 
L 581 4863 
L 1159 4863 
L 1159 2956 
Q 1366 3272 1645 3428 
Q 1925 3584 2291 3584 
Q 2894 3584 3203 3211 
Q 3513 2838 3513 2113 
z
" transform="scale(0.015625)"/>
       <path id="DejaVuSans-6b" d="M 581 4863 
L 1159 4863 
L 1159 1991 
L 2875 3500 
L 3609 3500 
L 1753 1863 
L 3688 0 
L 2938 0 
L 1159 1709 
L 1159 0 
L 581 0 
L 581 4863 
z
" transform="scale(0.015625)"/>
      </defs>
      <use xlink:href="#DejaVuSans-43"/>
      <use xlink:href="#DejaVuSans-68" x="69.824219"/>
      <use xlink:href="#DejaVuSans-65" x="133.203125"/>
      <use xlink:href="#DejaVuSans-63" x="194.726562"/>
      <use xlink:href="#DejaVuSans-6b" x="249.707031"/>
      <use xlink:href="#DejaVuSans-20" x="307.617188"/>
      <use xlink:href="#DejaVuSans-56" x="339.404297"/>
      <use xlink:href="#DejaVuSans-61" x="400.0625"/>
      <use xlink:href="#DejaVuSans-6c" x="461.341797"/>
      <use xlink:href="#DejaVuSans-75" x="489.125"/>
      <use xlink:href="#DejaVuSans-65" x="552.503906"/>
     </g>
    </g>
    <g id="line2d_24">
     <path d="M 42.2875 78.210187 
L 52.2875 78.210187 
L 62.2875 78.210187 
" style="fill: none; stroke: #ff0000; stroke-width: 1.5; stroke-linecap: square"/>
    </g>
    <g id="text_22">
     <!-- Predict Value -->
     <g transform="translate(70.2875 81.710187)scale(0.1 -0.1)">
      <defs>
       <path id="DejaVuSans-50" d="M 1259 4147 
L 1259 2394 
L 2053 2394 
Q 2494 2394 2734 2622 
Q 2975 2850 2975 3272 
Q 2975 3691 2734 3919 
Q 2494 4147 2053 4147 
L 1259 4147 
z
M 628 4666 
L 2053 4666 
Q 2838 4666 3239 4311 
Q 3641 3956 3641 3272 
Q 3641 2581 3239 2228 
Q 2838 1875 2053 1875 
L 1259 1875 
L 1259 0 
L 628 0 
L 628 4666 
z
" transform="scale(0.015625)"/>
      </defs>
      <use xlink:href="#DejaVuSans-50"/>
      <use xlink:href="#DejaVuSans-72" x="58.552734"/>
      <use xlink:href="#DejaVuSans-65" x="97.416016"/>
      <use xlink:href="#DejaVuSans-64" x="158.939453"/>
      <use xlink:href="#DejaVuSans-69" x="222.416016"/>
      <use xlink:href="#DejaVuSans-63" x="250.199219"/>
      <use xlink:href="#DejaVuSans-74" x="305.179688"/>
      <use xlink:href="#DejaVuSans-20" x="344.388672"/>
      <use xlink:href="#DejaVuSans-56" x="376.175781"/>
      <use xlink:href="#DejaVuSans-61" x="436.833984"/>
      <use xlink:href="#DejaVuSans-6c" x="498.113281"/>
      <use xlink:href="#DejaVuSans-75" x="525.896484"/>
      <use xlink:href="#DejaVuSans-65" x="589.275391"/>
     </g>
    </g>
   </g>
  </g>
 </g>
 <defs>
  <clipPath id="p80fc8bd5e1">
   <rect x="33.2875" y="35.7555" width="1339.2" height="332.64"/>
  </clipPath>
 </defs>
</svg>
