<?xml version="1.0" encoding="utf-8" standalone="no"?>
<!DOCTYPE svg PUBLIC "-//W3C//DTD SVG 1.1//EN"
  "http://www.w3.org/Graphics/SVG/1.1/DTD/svg11.dtd">
<svg xmlns:xlink="http://www.w3.org/1999/xlink" width="1392.4125pt" height="392.273625pt" viewBox="0 0 1392.4125 392.273625" xmlns="http://www.w3.org/2000/svg" version="1.1">
 <metadata>
  <rdf:RDF xmlns:dc="http://purl.org/dc/elements/1.1/" xmlns:cc="http://creativecommons.org/ns#" xmlns:rdf="http://www.w3.org/1999/02/22-rdf-syntax-ns#">
   <cc:Work>
    <dc:type rdf:resource="http://purl.org/dc/dcmitype/StillImage"/>
    <dc:date>2022-11-18T19:04:13.972443</dc:date>
    <dc:format>image/svg+xml</dc:format>
    <dc:creator>
     <cc:Agent>
      <dc:title>Matplotlib v3.5.1, https://matplotlib.org/</dc:title>
     </cc:Agent>
    </dc:creator>
   </cc:Work>
  </rdf:RDF>
 </metadata>
 <defs>
  <style type="text/css">*{stroke-linejoin: round; stroke-linecap: butt}</style>
 </defs>
 <g id="figure_1">
  <g id="patch_1">
   <path d="M 0 392.273625 
L 1392.4125 392.273625 
L 1392.4125 0 
L 0 0 
z
" style="fill: #ffffff"/>
  </g>
  <g id="axes_1">
   <g id="patch_2">
    <path d="M 46.0125 368.3955 
L 1385.2125 368.3955 
L 1385.2125 35.7555 
L 46.0125 35.7555 
z
" style="fill: #ffffff"/>
   </g>
   <g id="matplotlib.axis_1">
    <g id="xtick_1">
     <g id="line2d_1">
      <defs>
       <path id="m96e6c04b3e" d="M 0 0 
L 0 3.5 
" style="stroke: #000000; stroke-width: 0.8"/>
      </defs>
      <g>
       <use xlink:href="#m96e6c04b3e" x="81.205457" y="368.3955" style="stroke: #000000; stroke-width: 0.8"/>
      </g>
     </g>
     <g id="text_1">
      <!-- 2020-01 -->
      <g transform="translate(60.314051 382.993937)scale(0.1 -0.1)">
       <defs>
        <path id="DejaVuSans-32" d="M 1228 531 
L 3431 531 
L 3431 0 
L 469 0 
L 469 531 
Q 828 903 1448 1529 
Q 2069 2156 2228 2338 
Q 2531 2678 2651 2914 
Q 2772 3150 2772 3378 
Q 2772 3750 2511 3984 
Q 2250 4219 1831 4219 
Q 1534 4219 1204 4116 
Q 875 4013 500 3803 
L 500 4441 
Q 881 4594 1212 4672 
Q 1544 4750 1819 4750 
Q 2544 4750 2975 4387 
Q 3406 4025 3406 3419 
Q 3406 3131 3298 2873 
Q 3191 2616 2906 2266 
Q 2828 2175 2409 1742 
Q 1991 1309 1228 531 
z
" transform="scale(0.015625)"/>
        <path id="DejaVuSans-30" d="M 2034 4250 
Q 1547 4250 1301 3770 
Q 1056 3291 1056 2328 
Q 1056 1369 1301 889 
Q 1547 409 2034 409 
Q 2525 409 2770 889 
Q 3016 1369 3016 2328 
Q 3016 3291 2770 3770 
Q 2525 4250 2034 4250 
z
M 2034 4750 
Q 2819 4750 3233 4129 
Q 3647 3509 3647 2328 
Q 3647 1150 3233 529 
Q 2819 -91 2034 -91 
Q 1250 -91 836 529 
Q 422 1150 422 2328 
Q 422 3509 836 4129 
Q 1250 4750 2034 4750 
z
" transform="scale(0.015625)"/>
        <path id="DejaVuSans-2d" d="M 313 2009 
L 1997 2009 
L 1997 1497 
L 313 1497 
L 313 2009 
z
" transform="scale(0.015625)"/>
        <path id="DejaVuSans-31" d="M 794 531 
L 1825 531 
L 1825 4091 
L 703 3866 
L 703 4441 
L 1819 4666 
L 2450 4666 
L 2450 531 
L 3481 531 
L 3481 0 
L 794 0 
L 794 531 
z
" transform="scale(0.015625)"/>
       </defs>
       <use xlink:href="#DejaVuSans-32"/>
       <use xlink:href="#DejaVuSans-30" x="63.623047"/>
       <use xlink:href="#DejaVuSans-32" x="127.246094"/>
       <use xlink:href="#DejaVuSans-30" x="190.869141"/>
       <use xlink:href="#DejaVuSans-2d" x="254.492188"/>
       <use xlink:href="#DejaVuSans-30" x="290.576172"/>
       <use xlink:href="#DejaVuSans-31" x="354.199219"/>
      </g>
     </g>
    </g>
    <g id="xtick_2">
     <g id="line2d_2">
      <g>
       <use xlink:href="#m96e6c04b3e" x="222.444192" y="368.3955" style="stroke: #000000; stroke-width: 0.8"/>
      </g>
     </g>
     <g id="text_2">
      <!-- 2020-05 -->
      <g transform="translate(201.552786 382.993937)scale(0.1 -0.1)">
       <defs>
        <path id="DejaVuSans-35" d="M 691 4666 
L 3169 4666 
L 3169 4134 
L 1269 4134 
L 1269 2991 
Q 1406 3038 1543 3061 
Q 1681 3084 1819 3084 
Q 2600 3084 3056 2656 
Q 3513 2228 3513 1497 
Q 3513 744 3044 326 
Q 2575 -91 1722 -91 
Q 1428 -91 1123 -41 
Q 819 9 494 109 
L 494 744 
Q 775 591 1075 516 
Q 1375 441 1709 441 
Q 2250 441 2565 725 
Q 2881 1009 2881 1497 
Q 2881 1984 2565 2268 
Q 2250 2553 1709 2553 
Q 1456 2553 1204 2497 
Q 953 2441 691 2322 
L 691 4666 
z
" transform="scale(0.015625)"/>
       </defs>
       <use xlink:href="#DejaVuSans-32"/>
       <use xlink:href="#DejaVuSans-30" x="63.623047"/>
       <use xlink:href="#DejaVuSans-32" x="127.246094"/>
       <use xlink:href="#DejaVuSans-30" x="190.869141"/>
       <use xlink:href="#DejaVuSans-2d" x="254.492188"/>
       <use xlink:href="#DejaVuSans-30" x="290.576172"/>
       <use xlink:href="#DejaVuSans-35" x="354.199219"/>
      </g>
     </g>
    </g>
    <g id="xtick_3">
     <g id="line2d_3">
      <g>
       <use xlink:href="#m96e6c04b3e" x="366.017451" y="368.3955" style="stroke: #000000; stroke-width: 0.8"/>
      </g>
     </g>
     <g id="text_3">
      <!-- 2020-09 -->
      <g transform="translate(345.126045 382.993937)scale(0.1 -0.1)">
       <defs>
        <path id="DejaVuSans-39" d="M 703 97 
L 703 672 
Q 941 559 1184 500 
Q 1428 441 1663 441 
Q 2288 441 2617 861 
Q 2947 1281 2994 2138 
Q 2813 1869 2534 1725 
Q 2256 1581 1919 1581 
Q 1219 1581 811 2004 
Q 403 2428 403 3163 
Q 403 3881 828 4315 
Q 1253 4750 1959 4750 
Q 2769 4750 3195 4129 
Q 3622 3509 3622 2328 
Q 3622 1225 3098 567 
Q 2575 -91 1691 -91 
Q 1453 -91 1209 -44 
Q 966 3 703 97 
z
M 1959 2075 
Q 2384 2075 2632 2365 
Q 2881 2656 2881 3163 
Q 2881 3666 2632 3958 
Q 2384 4250 1959 4250 
Q 1534 4250 1286 3958 
Q 1038 3666 1038 3163 
Q 1038 2656 1286 2365 
Q 1534 2075 1959 2075 
z
" transform="scale(0.015625)"/>
       </defs>
       <use xlink:href="#DejaVuSans-32"/>
       <use xlink:href="#DejaVuSans-30" x="63.623047"/>
       <use xlink:href="#DejaVuSans-32" x="127.246094"/>
       <use xlink:href="#DejaVuSans-30" x="190.869141"/>
       <use xlink:href="#DejaVuSans-2d" x="254.492188"/>
       <use xlink:href="#DejaVuSans-30" x="290.576172"/>
       <use xlink:href="#DejaVuSans-39" x="354.199219"/>
      </g>
     </g>
    </g>
    <g id="xtick_4">
     <g id="line2d_4">
      <g>
       <use xlink:href="#m96e6c04b3e" x="508.423447" y="368.3955" style="stroke: #000000; stroke-width: 0.8"/>
      </g>
     </g>
     <g id="text_4">
      <!-- 2021-01 -->
      <g transform="translate(487.532041 382.993937)scale(0.1 -0.1)">
       <use xlink:href="#DejaVuSans-32"/>
       <use xlink:href="#DejaVuSans-30" x="63.623047"/>
       <use xlink:href="#DejaVuSans-32" x="127.246094"/>
       <use xlink:href="#DejaVuSans-31" x="190.869141"/>
       <use xlink:href="#DejaVuSans-2d" x="254.492188"/>
       <use xlink:href="#DejaVuSans-30" x="290.576172"/>
       <use xlink:href="#DejaVuSans-31" x="354.199219"/>
      </g>
     </g>
    </g>
    <g id="xtick_5">
     <g id="line2d_5">
      <g>
       <use xlink:href="#m96e6c04b3e" x="648.49492" y="368.3955" style="stroke: #000000; stroke-width: 0.8"/>
      </g>
     </g>
     <g id="text_5">
      <!-- 2021-05 -->
      <g transform="translate(627.603513 382.993937)scale(0.1 -0.1)">
       <use xlink:href="#DejaVuSans-32"/>
       <use xlink:href="#DejaVuSans-30" x="63.623047"/>
       <use xlink:href="#DejaVuSans-32" x="127.246094"/>
       <use xlink:href="#DejaVuSans-31" x="190.869141"/>
       <use xlink:href="#DejaVuSans-2d" x="254.492188"/>
       <use xlink:href="#DejaVuSans-30" x="290.576172"/>
       <use xlink:href="#DejaVuSans-35" x="354.199219"/>
      </g>
     </g>
    </g>
    <g id="xtick_6">
     <g id="line2d_6">
      <g>
       <use xlink:href="#m96e6c04b3e" x="792.068179" y="368.3955" style="stroke: #000000; stroke-width: 0.8"/>
      </g>
     </g>
     <g id="text_6">
      <!-- 2021-09 -->
      <g transform="translate(771.176772 382.993937)scale(0.1 -0.1)">
       <use xlink:href="#DejaVuSans-32"/>
       <use xlink:href="#DejaVuSans-30" x="63.623047"/>
       <use xlink:href="#DejaVuSans-32" x="127.246094"/>
       <use xlink:href="#DejaVuSans-31" x="190.869141"/>
       <use xlink:href="#DejaVuSans-2d" x="254.492188"/>
       <use xlink:href="#DejaVuSans-30" x="290.576172"/>
       <use xlink:href="#DejaVuSans-39" x="354.199219"/>
      </g>
     </g>
    </g>
    <g id="xtick_7">
     <g id="line2d_7">
      <g>
       <use xlink:href="#m96e6c04b3e" x="934.474175" y="368.3955" style="stroke: #000000; stroke-width: 0.8"/>
      </g>
     </g>
     <g id="text_7">
      <!-- 2022-01 -->
      <g transform="translate(913.582769 382.993937)scale(0.1 -0.1)">
       <use xlink:href="#DejaVuSans-32"/>
       <use xlink:href="#DejaVuSans-30" x="63.623047"/>
       <use xlink:href="#DejaVuSans-32" x="127.246094"/>
       <use xlink:href="#DejaVuSans-32" x="190.869141"/>
       <use xlink:href="#DejaVuSans-2d" x="254.492188"/>
       <use xlink:href="#DejaVuSans-30" x="290.576172"/>
       <use xlink:href="#DejaVuSans-31" x="354.199219"/>
      </g>
     </g>
    </g>
    <g id="xtick_8">
     <g id="line2d_8">
      <g>
       <use xlink:href="#m96e6c04b3e" x="1074.545647" y="368.3955" style="stroke: #000000; stroke-width: 0.8"/>
      </g>
     </g>
     <g id="text_8">
      <!-- 2022-05 -->
      <g transform="translate(1053.654241 382.993937)scale(0.1 -0.1)">
       <use xlink:href="#DejaVuSans-32"/>
       <use xlink:href="#DejaVuSans-30" x="63.623047"/>
       <use xlink:href="#DejaVuSans-32" x="127.246094"/>
       <use xlink:href="#DejaVuSans-32" x="190.869141"/>
       <use xlink:href="#DejaVuSans-2d" x="254.492188"/>
       <use xlink:href="#DejaVuSans-30" x="290.576172"/>
       <use xlink:href="#DejaVuSans-35" x="354.199219"/>
      </g>
     </g>
    </g>
    <g id="xtick_9">
     <g id="line2d_9">
      <g>
       <use xlink:href="#m96e6c04b3e" x="1218.118906" y="368.3955" style="stroke: #000000; stroke-width: 0.8"/>
      </g>
     </g>
     <g id="text_9">
      <!-- 2022-09 -->
      <g transform="translate(1197.2275 382.993937)scale(0.1 -0.1)">
       <use xlink:href="#DejaVuSans-32"/>
       <use xlink:href="#DejaVuSans-30" x="63.623047"/>
       <use xlink:href="#DejaVuSans-32" x="127.246094"/>
       <use xlink:href="#DejaVuSans-32" x="190.869141"/>
       <use xlink:href="#DejaVuSans-2d" x="254.492188"/>
       <use xlink:href="#DejaVuSans-30" x="290.576172"/>
       <use xlink:href="#DejaVuSans-39" x="354.199219"/>
      </g>
     </g>
    </g>
    <g id="xtick_10">
     <g id="line2d_10">
      <g>
       <use xlink:href="#m96e6c04b3e" x="1360.524903" y="368.3955" style="stroke: #000000; stroke-width: 0.8"/>
      </g>
     </g>
     <g id="text_10">
      <!-- 2023-01 -->
      <g transform="translate(1339.633497 382.993937)scale(0.1 -0.1)">
       <defs>
        <path id="DejaVuSans-33" d="M 2597 2516 
Q 3050 2419 3304 2112 
Q 3559 1806 3559 1356 
Q 3559 666 3084 287 
Q 2609 -91 1734 -91 
Q 1441 -91 1130 -33 
Q 819 25 488 141 
L 488 750 
Q 750 597 1062 519 
Q 1375 441 1716 441 
Q 2309 441 2620 675 
Q 2931 909 2931 1356 
Q 2931 1769 2642 2001 
Q 2353 2234 1838 2234 
L 1294 2234 
L 1294 2753 
L 1863 2753 
Q 2328 2753 2575 2939 
Q 2822 3125 2822 3475 
Q 2822 3834 2567 4026 
Q 2313 4219 1838 4219 
Q 1578 4219 1281 4162 
Q 984 4106 628 3988 
L 628 4550 
Q 988 4650 1302 4700 
Q 1616 4750 1894 4750 
Q 2613 4750 3031 4423 
Q 3450 4097 3450 3541 
Q 3450 3153 3228 2886 
Q 3006 2619 2597 2516 
z
" transform="scale(0.015625)"/>
       </defs>
       <use xlink:href="#DejaVuSans-32"/>
       <use xlink:href="#DejaVuSans-30" x="63.623047"/>
       <use xlink:href="#DejaVuSans-32" x="127.246094"/>
       <use xlink:href="#DejaVuSans-33" x="190.869141"/>
       <use xlink:href="#DejaVuSans-2d" x="254.492188"/>
       <use xlink:href="#DejaVuSans-30" x="290.576172"/>
       <use xlink:href="#DejaVuSans-31" x="354.199219"/>
      </g>
     </g>
    </g>
   </g>
   <g id="matplotlib.axis_2">
    <g id="ytick_1">
     <g id="line2d_11">
      <defs>
       <path id="m702a76ae3a" d="M 0 0 
L -3.5 0 
" style="stroke: #000000; stroke-width: 0.8"/>
      </defs>
      <g>
       <use xlink:href="#m702a76ae3a" x="46.0125" y="352.915301" style="stroke: #000000; stroke-width: 0.8"/>
      </g>
     </g>
     <g id="text_11">
      <!-- 0 -->
      <g transform="translate(32.65 356.71452)scale(0.1 -0.1)">
       <use xlink:href="#DejaVuSans-30"/>
      </g>
     </g>
    </g>
    <g id="ytick_2">
     <g id="line2d_12">
      <g>
       <use xlink:href="#m702a76ae3a" x="46.0125" y="295.073216" style="stroke: #000000; stroke-width: 0.8"/>
      </g>
     </g>
     <g id="text_12">
      <!-- 5000 -->
      <g transform="translate(13.5625 298.872435)scale(0.1 -0.1)">
       <use xlink:href="#DejaVuSans-35"/>
       <use xlink:href="#DejaVuSans-30" x="63.623047"/>
       <use xlink:href="#DejaVuSans-30" x="127.246094"/>
       <use xlink:href="#DejaVuSans-30" x="190.869141"/>
      </g>
     </g>
    </g>
    <g id="ytick_3">
     <g id="line2d_13">
      <g>
       <use xlink:href="#m702a76ae3a" x="46.0125" y="237.23113" style="stroke: #000000; stroke-width: 0.8"/>
      </g>
     </g>
     <g id="text_13">
      <!-- 10000 -->
      <g transform="translate(7.2 241.030349)scale(0.1 -0.1)">
       <use xlink:href="#DejaVuSans-31"/>
       <use xlink:href="#DejaVuSans-30" x="63.623047"/>
       <use xlink:href="#DejaVuSans-30" x="127.246094"/>
       <use xlink:href="#DejaVuSans-30" x="190.869141"/>
       <use xlink:href="#DejaVuSans-30" x="254.492188"/>
      </g>
     </g>
    </g>
    <g id="ytick_4">
     <g id="line2d_14">
      <g>
       <use xlink:href="#m702a76ae3a" x="46.0125" y="179.389045" style="stroke: #000000; stroke-width: 0.8"/>
      </g>
     </g>
     <g id="text_14">
      <!-- 15000 -->
      <g transform="translate(7.2 183.188264)scale(0.1 -0.1)">
       <use xlink:href="#DejaVuSans-31"/>
       <use xlink:href="#DejaVuSans-35" x="63.623047"/>
       <use xlink:href="#DejaVuSans-30" x="127.246094"/>
       <use xlink:href="#DejaVuSans-30" x="190.869141"/>
       <use xlink:href="#DejaVuSans-30" x="254.492188"/>
      </g>
     </g>
    </g>
    <g id="ytick_5">
     <g id="line2d_15">
      <g>
       <use xlink:href="#m702a76ae3a" x="46.0125" y="121.54696" style="stroke: #000000; stroke-width: 0.8"/>
      </g>
     </g>
     <g id="text_15">
      <!-- 20000 -->
      <g transform="translate(7.2 125.346179)scale(0.1 -0.1)">
       <use xlink:href="#DejaVuSans-32"/>
       <use xlink:href="#DejaVuSans-30" x="63.623047"/>
       <use xlink:href="#DejaVuSans-30" x="127.246094"/>
       <use xlink:href="#DejaVuSans-30" x="190.869141"/>
       <use xlink:href="#DejaVuSans-30" x="254.492188"/>
      </g>
     </g>
    </g>
    <g id="ytick_6">
     <g id="line2d_16">
      <g>
       <use xlink:href="#m702a76ae3a" x="46.0125" y="63.704875" style="stroke: #000000; stroke-width: 0.8"/>
      </g>
     </g>
     <g id="text_16">
      <!-- 25000 -->
      <g transform="translate(7.2 67.504093)scale(0.1 -0.1)">
       <use xlink:href="#DejaVuSans-32"/>
       <use xlink:href="#DejaVuSans-35" x="63.623047"/>
       <use xlink:href="#DejaVuSans-30" x="127.246094"/>
       <use xlink:href="#DejaVuSans-30" x="190.869141"/>
       <use xlink:href="#DejaVuSans-30" x="254.492188"/>
      </g>
     </g>
    </g>
   </g>
   <g id="line2d_17">
    <path d="M 106.885227 352.915301 
L 153.575718 352.834322 
L 154.74298 352.637659 
L 155.910243 352.55668 
L 157.077505 352.672364 
L 158.244767 352.464133 
L 159.412029 352.579817 
L 160.579292 352.579817 
L 161.746554 350.65946 
L 162.913816 350.624755 
L 164.081078 351.712186 
L 165.248341 349.514186 
L 166.415603 351.82787 
L 167.582865 351.399838 
L 168.750127 351.619638 
L 169.91739 351.411407 
L 171.084652 351.908849 
L 172.251914 350.647891 
L 173.419177 350.971807 
L 174.586439 350.555344 
L 175.753701 349.826534 
L 176.920963 350.185155 
L 178.088226 350.115744 
L 179.255488 350.358681 
L 180.42275 349.618302 
L 181.590012 348.449892 
L 182.757275 349.907513 
L 183.924537 349.803397 
L 185.091799 351.052786 
L 187.426324 350.347113 
L 188.593586 349.629871 
L 189.760848 350.335544 
L 192.095373 351.330428 
L 194.429897 350.358681 
L 195.59716 352.915301 
L 196.764422 351.469249 
L 197.931684 351.723754 
L 199.098946 351.816301 
L 200.266209 351.573365 
L 201.433471 352.012965 
L 202.600733 352.683933 
L 203.767996 351.561796 
L 204.935258 351.110628 
L 206.10252 352.440996 
L 207.269782 351.770028 
L 208.437045 352.429428 
L 209.604307 352.012965 
L 210.771569 352.510406 
L 211.938831 351.214744 
L 213.106094 352.186491 
L 214.273356 352.198059 
L 215.440618 352.498838 
L 216.60788 352.591385 
L 217.775143 352.082375 
L 220.109667 352.33688 
L 221.27693 352.591385 
L 222.444192 352.394722 
L 223.611454 352.614522 
L 225.945979 352.255901 
L 231.78229 352.579817 
L 232.949552 352.845891 
L 234.116814 352.602954 
L 244.622175 352.753343 
L 245.789437 352.591385 
L 250.458486 352.77648 
L 252.793011 352.70707 
L 255.127535 352.788049 
L 256.294798 352.741775 
L 257.46206 352.880596 
L 259.796584 352.811185 
L 262.131109 352.602954 
L 264.465633 352.811185 
L 266.800158 352.753343 
L 271.469207 352.77648 
L 273.803732 352.880596 
L 274.970994 352.730206 
L 276.138256 352.764912 
L 277.305518 352.545112 
L 278.472781 352.730206 
L 280.807305 352.730206 
L 281.974567 352.880596 
L 283.14183 352.845891 
L 284.309092 352.672364 
L 285.476354 352.730206 
L 286.643617 352.915301 
L 287.810879 352.406291 
L 288.978141 352.753343 
L 291.312666 352.834322 
L 292.479928 352.718638 
L 293.64719 352.718638 
L 294.814452 352.845891 
L 295.981715 352.695501 
L 297.148977 352.857459 
L 301.818026 352.880596 
L 302.985288 352.741775 
L 306.487075 352.869027 
L 307.654337 352.880596 
L 308.8216 352.718638 
L 311.156124 352.869027 
L 312.323386 352.799617 
L 314.657911 352.915301 
L 316.992436 352.695501 
L 318.159698 352.845891 
L 319.32696 352.614522 
L 320.494222 352.834322 
L 321.661485 352.695501 
L 322.828747 352.845891 
L 325.163271 352.70707 
L 326.330534 352.660796 
L 327.497796 352.498838 
L 328.665058 352.545112 
L 329.83232 352.764912 
L 330.999583 352.741775 
L 332.166845 352.151786 
L 333.334107 352.591385 
L 336.835894 351.955122 
L 338.003156 352.360017 
L 339.170419 352.464133 
L 340.337681 352.383154 
L 341.504943 352.140217 
L 342.672205 352.545112 
L 343.839468 352.128649 
L 345.00673 352.255901 
L 346.173992 352.255901 
L 347.341254 352.452564 
L 348.508517 352.279038 
L 352.010304 352.510406 
L 353.177566 352.012965 
L 354.344828 352.637659 
L 355.51209 352.637659 
L 356.679353 352.082375 
L 360.181139 352.475701 
L 361.348402 352.452564 
L 362.515664 352.579817 
L 363.682926 352.545112 
L 364.850188 351.307291 
L 366.017451 351.885712 
L 367.184713 351.029649 
L 368.351975 351.920417 
L 369.519238 351.631207 
L 370.6865 352.163354 
L 371.853762 351.851007 
L 373.021024 351.376702 
L 374.188287 351.735323 
L 375.355549 351.492386 
L 376.522811 351.515523 
L 377.690073 351.341996 
L 378.857336 352.036101 
L 380.024598 352.04767 
L 381.19186 351.503954 
L 383.526385 351.700617 
L 384.693647 351.226312 
L 385.860909 351.469249 
L 387.028172 351.885712 
L 388.195434 352.464133 
L 389.362696 351.665912 
L 390.529958 351.203175 
L 391.697221 351.480817 
L 394.031745 351.307291 
L 395.199007 351.966691 
L 396.36627 352.093943 
L 397.533532 351.874144 
L 398.700794 351.446112 
L 399.868057 351.619638 
L 402.202581 351.353565 
L 403.369843 352.012965 
L 404.537106 351.816301 
L 405.704368 351.203175 
L 406.87163 350.844554 
L 408.038892 350.266134 
L 409.206155 350.50907 
L 410.373417 350.983375 
L 411.540679 352.012965 
L 412.707941 352.244333 
L 413.875204 351.584933 
L 415.042466 351.133765 
L 416.209728 351.064354 
L 417.376991 350.786712 
L 418.544253 351.353565 
L 419.711515 351.793165 
L 420.878777 351.89728 
L 422.04604 351.226312 
L 424.380564 350.694165 
L 425.547826 349.791828 
L 426.715089 349.467913 
L 427.882351 350.404955 
L 429.049613 351.064354 
L 430.216875 347.906177 
L 431.384138 349.167134 
L 432.5514 348.253229 
L 433.718662 347.188935 
L 434.885925 347.154229 
L 436.053187 349.803397 
L 437.220449 349.398502 
L 438.387711 344.771135 
L 439.554974 345.777588 
L 440.722236 345.719746 
L 441.889498 345.384262 
L 443.05676 345.90484 
L 444.224023 348.195387 
L 445.391285 347.258345 
L 446.558547 346.05523 
L 447.72581 346.413851 
L 448.893072 345.696609 
L 450.060334 344.620746 
L 451.227596 344.95623 
L 452.394859 346.922861 
L 453.562121 352.915301 
L 454.729383 352.915301 
L 455.896645 333.48036 
L 457.063908 345.326419 
L 458.23117 345.152893 
L 459.398432 346.286598 
L 460.565694 349.005176 
L 461.732957 348.137545 
L 462.900219 348.079703 
L 464.067481 346.737766 
L 465.234744 346.541103 
L 466.402006 347.362461 
L 467.569268 347.767355 
L 468.73653 348.83165 
L 469.903793 349.653007 
L 471.071055 349.190271 
L 472.238317 347.813629 
L 473.405579 348.542439 
L 475.740104 347.940882 
L 476.907366 349.768692 
L 478.074628 350.023197 
L 479.241891 348.519303 
L 480.409153 347.593829 
L 481.576415 348.727534 
L 482.743678 347.154229 
L 483.91094 348.10284 
L 485.078202 348.704397 
L 486.245464 350.601618 
L 487.412727 349.086155 
L 488.579989 346.922861 
L 489.747251 347.593829 
L 490.914513 347.547556 
L 492.081776 347.929313 
L 494.4163 349.178702 
L 495.583562 347.929313 
L 496.750825 346.020525 
L 497.918087 346.865019 
L 499.085349 347.408735 
L 500.252612 349.248113 
L 501.419874 347.940882 
L 502.587136 348.507734 
L 503.754398 346.830314 
L 504.921661 344.898388 
L 506.088923 344.44722 
L 507.256185 346.471693 
L 508.423447 350.185155 
L 509.59071 347.559124 
L 510.757972 347.709513 
L 511.925234 346.795608 
L 513.092497 342.098831 
L 514.259759 343.810957 
L 515.427021 343.371357 
L 516.594283 345.002504 
L 517.761546 347.790492 
L 518.928808 346.49483 
L 520.09607 347.95245 
L 521.263332 344.678588 
L 522.430595 345.199167 
L 523.597857 347.66324 
L 524.765119 347.524419 
L 525.932381 350.104176 
L 527.099644 350.532207 
L 528.266906 348.484597 
L 529.434168 348.033429 
L 530.601431 347.929313 
L 532.935955 349.375365 
L 534.103217 350.162018 
L 535.27048 349.687713 
L 536.437742 350.21986 
L 537.605004 349.687713 
L 538.772266 348.669692 
L 539.939529 349.27125 
L 541.106791 349.456344 
L 542.274053 350.393386 
L 543.441315 350.913965 
L 544.608578 349.49105 
L 546.943102 349.606734 
L 548.110365 348.600282 
L 550.444889 350.94867 
L 551.612151 351.538659 
L 552.779414 348.912629 
L 553.946676 350.370249 
L 555.113938 350.497502 
L 556.2812 349.861239 
L 557.448463 347.998724 
L 558.615725 351.110628 
L 559.782987 351.654344 
L 560.950249 348.83165 
L 562.117512 349.606734 
L 563.284774 348.773808 
L 564.452036 349.143997 
L 565.619299 349.641439 
L 566.786561 350.50907 
L 569.121085 350.300839 
L 570.288348 348.403618 
L 571.45561 348.970471 
L 572.622872 346.541103 
L 573.790134 346.853451 
L 574.957397 349.884376 
L 576.124659 350.832986 
L 577.291921 344.481925 
L 578.459184 347.142661 
L 579.626446 344.944662 
L 580.793708 346.321303 
L 581.96097 344.933093 
L 583.128233 348.715966 
L 584.295495 348.334208 
L 585.462757 343.336652 
L 586.630019 344.655451 
L 587.797282 344.990935 
L 588.964544 342.827641 
L 590.131806 342.445884 
L 591.299068 343.035873 
L 592.466331 345.511514 
L 593.633593 342.90862 
L 594.800855 339.611621 
L 595.968118 340.606505 
L 597.13538 340.953558 
L 598.302642 341.474137 
L 599.469904 343.429199 
L 600.637167 346.240324 
L 601.804429 340.236316 
L 602.971691 340.363569 
L 604.138953 341.531979 
L 605.306216 343.301947 
L 606.473478 340.513958 
L 607.64074 347.570692 
L 608.808002 345.037209 
L 609.975265 341.474137 
L 611.142527 340.548663 
L 613.477052 344.921525 
L 614.644314 345.511514 
L 615.811576 344.909956 
L 616.978838 346.27503 
L 618.146101 346.286598 
L 619.313363 342.503726 
L 620.480625 342.121968 
L 621.647887 342.758231 
L 622.81515 344.134873 
L 623.982412 349.965355 
L 625.149674 345.430535 
L 626.316937 345.418967 
L 627.484199 344.366241 
L 628.651461 345.985819 
L 629.818723 345.777588 
L 630.985986 347.096387 
L 632.153248 348.091271 
L 633.32051 348.68126 
L 634.487772 346.922861 
L 635.655035 349.282818 
L 636.822297 343.71841 
L 637.989559 347.778924 
L 639.156821 347.362461 
L 640.324084 349.109292 
L 641.491346 350.347113 
L 642.658608 346.552672 
L 643.825871 346.853451 
L 644.993133 347.478145 
L 646.160395 348.461461 
L 647.327657 347.95245 
L 648.49492 349.572029 
L 649.662182 350.485934 
L 650.829444 347.327756 
L 651.996706 347.316187 
L 653.163969 347.489713 
L 654.331231 347.061682 
L 656.665755 349.259681 
L 657.833018 350.242997 
L 659.00028 345.314851 
L 660.167542 347.44344 
L 661.334805 347.131093 
L 662.502067 349.213408 
L 663.669329 347.998724 
L 664.836591 349.305955 
L 666.003854 350.057902 
L 667.171116 350.590049 
L 668.338378 349.282818 
L 669.50564 347.385598 
L 670.672903 347.07325 
L 671.840165 344.655451 
L 673.007427 347.686377 
L 674.174689 347.697945 
L 675.341952 350.162018 
L 676.509214 347.00384 
L 677.676476 347.142661 
L 678.843739 348.183819 
L 680.011001 348.993608 
L 681.178263 350.081039 
L 682.345525 350.960239 
L 683.512788 349.537323 
L 684.68005 347.593829 
L 685.847312 348.83165 
L 687.014574 349.572029 
L 688.181837 349.410071 
L 689.349099 350.971807 
L 690.516361 351.434544 
L 691.683624 350.034765 
L 692.850886 350.740439 
L 694.018148 350.462797 
L 695.18541 350.485934 
L 696.352673 350.624755 
L 697.519935 351.619638 
L 698.687197 352.221196 
L 699.854459 350.242997 
L 701.021722 350.347113 
L 702.188984 350.832986 
L 703.356246 350.381818 
L 704.523508 350.636323 
L 705.690771 351.411407 
L 706.858033 351.665912 
L 708.025295 350.462797 
L 709.192558 350.358681 
L 710.35982 350.856123 
L 711.527082 349.143997 
L 712.694344 352.082375 
L 713.861607 351.191607 
L 715.028869 351.793165 
L 716.196131 351.110628 
L 717.363393 349.525755 
L 718.530656 349.687713 
L 719.697918 350.682597 
L 720.86518 350.138881 
L 722.032442 351.619638 
L 723.199705 351.89728 
L 724.366967 350.752007 
L 725.534229 350.28927 
L 726.701492 350.474365 
L 727.868754 351.770028 
L 729.036016 349.525755 
L 730.203278 351.365133 
L 731.370541 351.793165 
L 732.537803 350.94867 
L 733.705065 350.809849 
L 736.03959 351.110628 
L 737.206852 350.416523 
L 738.374114 351.31886 
L 739.541376 351.654344 
L 740.708639 350.65946 
L 741.875901 350.06947 
L 743.043163 350.72887 
L 744.210426 349.838102 
L 745.377688 350.277702 
L 746.54495 350.971807 
L 747.712212 351.341996 
L 748.879475 349.097723 
L 750.046737 349.757123 
L 751.213999 350.937102 
L 752.381261 346.136209 
L 753.548524 348.935766 
L 754.715786 351.110628 
L 755.883048 350.300839 
L 757.050311 348.149113 
L 758.217573 347.420303 
L 759.384835 347.385598 
L 760.552097 346.436988 
L 761.71936 347.987155 
L 762.886622 349.884376 
L 764.053884 348.634987 
L 765.221146 347.165798 
L 766.388409 345.210735 
L 767.555671 349.190271 
L 768.722933 346.27503 
L 769.890195 342.827641 
L 771.057458 349.814965 
L 772.22472 347.721082 
L 773.391982 346.78404 
L 774.559245 344.273694 
L 775.726507 345.83543 
L 776.893769 344.990935 
L 778.061031 344.586041 
L 779.228294 349.71085 
L 780.395556 346.517966 
L 781.562818 339.9124 
L 782.73008 340.271021 
L 783.897343 337.945769 
L 785.064605 336.545991 
L 786.231867 334.961118 
L 787.399129 340.803168 
L 788.566392 342.422747 
L 790.900916 332.265677 
L 792.068179 333.943097 
L 793.235441 334.984255 
L 794.402703 333.399382 
L 795.569965 339.62319 
L 796.737228 340.594937 
L 797.90449 338.986927 
L 799.071752 333.202718 
L 800.239014 335.030528 
L 801.406277 334.07035 
L 802.573539 337.86479 
L 803.740801 343.197831 
L 804.908063 345.361125 
L 806.075326 339.958674 
L 807.242588 338.813401 
L 808.40985 341.705505 
L 809.577113 341.555116 
L 810.744375 344.088599 
L 811.911637 346.321303 
L 813.078899 347.431871 
L 814.246162 345.060346 
L 815.413424 347.316187 
L 816.580686 338.952222 
L 817.747948 344.574472 
L 818.915211 344.759567 
L 820.082473 346.911293 
L 821.249735 348.507734 
L 822.416998 345.303283 
L 823.58426 344.794272 
L 824.751522 346.49483 
L 825.918784 346.194051 
L 827.086047 347.316187 
L 828.253309 349.34066 
L 829.420571 349.34066 
L 830.587833 347.316187 
L 831.755096 346.182482 
L 832.922358 347.362461 
L 834.08962 347.038545 
L 835.256882 347.51285 
L 836.424145 350.358681 
L 837.591407 349.595165 
L 838.758669 350.925533 
L 839.925932 342.549999 
L 841.093194 348.299503 
L 842.260456 348.796945 
L 843.427718 348.021861 
L 844.594981 349.05145 
L 845.762243 350.497502 
L 846.929505 346.610514 
L 848.096767 345.881704 
L 849.26403 345.314851 
L 850.431292 344.262125 
L 853.933079 348.010292 
L 855.100341 342.584705 
L 856.267603 339.681032 
L 857.434866 339.264569 
L 858.602128 341.393158 
L 859.76939 339.900832 
L 860.936652 343.683704 
L 862.103915 345.661904 
L 863.271177 337.471464 
L 864.438439 334.105055 
L 865.605701 335.400718 
L 866.772964 335.169349 
L 867.940226 335.493265 
L 869.107488 340.629642 
L 870.274751 341.370021 
L 871.442013 335.192486 
L 872.609275 328.320846 
L 873.776537 332.288813 
L 874.9438 329.709056 
L 876.111062 332.53175 
L 877.278324 337.806948 
L 878.445586 339.542211 
L 879.612849 343.857231 
L 880.780111 312.078789 
L 881.947373 324.283469 
L 883.114635 324.86189 
L 884.281898 325.567563 
L 885.44916 337.436759 
L 886.616422 335.909728 
L 887.783685 325.255216 
L 888.950947 335.331307 
L 890.118209 299.989793 
L 891.285471 318.557102 
L 892.452734 318.881018 
L 893.619996 331.039424 
L 894.787258 333.006055 
L 897.121783 306.121054 
L 898.289045 309.186685 
L 899.456307 305.022054 
L 900.623569 304.432065 
L 901.790832 318.626513 
L 902.958094 335.215623 
L 904.125356 321.969785 
L 905.292619 264.63671 
L 906.459881 292.076996 
L 907.627143 290.966428 
L 908.794405 290.29546 
L 909.961668 312.691915 
L 911.12893 311.014494 
L 912.296192 352.915301 
L 913.463454 227.201313 
L 914.630717 286.501019 
L 915.797979 300.626056 
L 916.965241 298.670993 
L 918.132503 310.054316 
L 919.299766 317.955545 
L 920.467028 306.167328 
L 921.63429 297.398468 
L 922.801553 303.286792 
L 923.968815 303.032287 
L 925.136077 326.678131 
L 926.303339 329.90572 
L 927.470602 327.302826 
L 928.637864 309.533737 
L 929.805126 298.520604 
L 930.972388 301.933287 
L 932.139651 306.433401 
L 934.474175 327.973794 
L 935.641438 319.332186 
L 936.8087 292.377775 
L 937.975962 261.28187 
L 939.143224 255.914124 
L 940.310487 261.767743 
L 941.477749 281.653852 
L 942.645011 291.741512 
L 943.812273 304.513044 
L 944.979536 277.257853 
L 946.146798 241.603992 
L 947.31406 216.118769 
L 948.481322 218.756368 
L 949.648585 209.929666 
L 950.815847 254.84983 
L 951.983109 264.949058 
L 953.150372 225.304092 
L 954.317634 175.143436 
L 955.484896 167.971018 
L 956.652158 157.675126 
L 957.819421 64.190748 
L 958.986683 198.627323 
L 960.153945 206.621099 
L 962.48847 70.310441 
L 963.655732 67.441473 
L 964.822994 71.941587 
L 965.990256 103.974534 
L 967.157519 179.736098 
L 968.324781 190.494726 
L 969.492043 167.959449 
L 970.659306 84.099994 
L 971.826568 83.382752 
L 972.99383 100.677535 
L 974.161092 111.644395 
L 975.328355 200.871596 
L 976.495617 235.241363 
L 977.662879 148.709603 
L 978.830141 50.8755 
L 979.997404 62.709991 
L 981.164666 70.090641 
L 982.331928 86.020351 
L 983.49919 185.716969 
L 984.666453 221.336125 
L 985.833715 190.286494 
L 987.000977 134.561429 
L 988.16824 145.51672 
L 989.335502 152.295812 
L 990.502764 176.520078 
L 991.670026 242.332802 
L 992.837289 264.463184 
L 994.004551 180.788824 
L 995.171813 147.587467 
L 996.339075 151.79837 
L 997.506338 172.505837 
L 998.6736 176.045773 
L 999.840862 253.889651 
L 1001.008125 284.66164 
L 1003.342649 180.326087 
L 1004.509911 97.368968 
L 1005.677174 228.959712 
L 1006.844436 241.10655 
L 1008.011698 289.786449 
L 1009.17896 314.323062 
L 1010.346223 267.887436 
L 1011.513485 234.720784 
L 1012.680747 261.709901 
L 1013.848009 267.656067 
L 1015.015272 287.970208 
L 1016.182534 315.965777 
L 1017.349796 330.796488 
L 1018.517059 290.480554 
L 1019.684321 282.047178 
L 1020.851583 297.861204 
L 1022.018845 304.61716 
L 1023.186108 307.810043 
L 1024.35337 329.790035 
L 1025.520632 338.697717 
L 1026.687894 309.418053 
L 1027.855157 308.874337 
L 1029.022419 318.198481 
L 1030.189681 317.909271 
L 1031.356943 324.052101 
L 1032.524206 337.240096 
L 1033.691468 344.505062 
L 1034.85873 328.899267 
L 1036.025993 323.936416 
L 1037.193255 329.917288 
L 1038.360517 332.635866 
L 1039.527779 336.002275 
L 1040.695042 343.255673 
L 1041.862304 347.697945 
L 1043.029566 337.378917 
L 1044.196828 335.574244 
L 1045.364091 336.499717 
L 1046.531353 341.485705 
L 1047.698615 340.930421 
L 1048.865877 345.789156 
L 1050.03314 349.224976 
L 1051.200402 343.845662 
L 1052.367664 342.283926 
L 1053.534927 343.660567 
L 1054.702189 348.484597 
L 1055.869451 349.653007 
L 1057.036713 348.160682 
L 1058.203976 350.347113 
L 1059.371238 349.398502 
L 1060.5385 344.620746 
L 1061.705762 342.029421 
L 1062.873025 342.596273 
L 1064.040287 345.546219 
L 1065.207549 349.572029 
L 1066.374812 351.527091 
L 1067.542074 346.541103 
L 1068.709336 347.22364 
L 1069.876598 348.206955 
L 1071.043861 348.461461 
L 1072.211123 348.924197 
L 1073.378385 350.555344 
L 1074.545647 351.584933 
L 1075.71291 348.715966 
L 1076.880172 349.363797 
L 1078.047434 348.866355 
L 1079.214696 349.016745 
L 1080.381959 349.386934 
L 1081.549221 350.994944 
L 1082.716483 352.290607 
L 1083.883746 349.155566 
L 1085.051008 348.704397 
L 1086.21827 348.692829 
L 1087.385532 349.572029 
L 1088.552795 349.71085 
L 1089.720057 351.908849 
L 1090.887319 352.290607 
L 1092.054581 348.83165 
L 1093.221844 352.348449 
L 1094.389106 348.773808 
L 1095.556368 349.294387 
L 1096.72363 349.653007 
L 1097.890893 351.67748 
L 1099.058155 352.244333 
L 1100.225417 348.218524 
L 1101.39268 349.514186 
L 1102.559942 348.935766 
L 1103.727204 351.665912 
L 1104.894466 350.092607 
L 1107.228991 352.255901 
L 1108.396253 348.588713 
L 1109.563515 348.530871 
L 1110.730778 348.924197 
L 1111.89804 349.595165 
L 1113.065302 348.519303 
L 1114.232564 351.793165 
L 1115.399827 352.348449 
L 1116.567089 351.793165 
L 1117.734351 348.415187 
L 1118.901614 350.28927 
L 1120.068876 345.90484 
L 1121.236138 347.362461 
L 1122.4034 351.052786 
L 1123.570663 351.804733 
L 1124.737925 347.269914 
L 1125.905187 348.010292 
L 1127.072449 347.397166 
L 1128.239712 346.332872 
L 1129.406974 346.032093 
L 1130.574236 350.046334 
L 1131.741499 351.816301 
L 1132.908761 344.053894 
L 1134.076023 345.430535 
L 1135.243285 342.422747 
L 1136.410548 343.429199 
L 1137.57781 344.285262 
L 1138.745072 348.218524 
L 1139.912334 351.180039 
L 1141.079597 343.186262 
L 1143.414121 344.354672 
L 1144.581383 344.747999 
L 1145.748646 345.800725 
L 1146.915908 350.242997 
L 1148.08317 351.619638 
L 1149.250433 347.697945 
L 1150.417695 346.807177 
L 1151.584957 347.917745 
L 1152.752219 347.455008 
L 1153.919482 348.519303 
L 1155.086744 351.261017 
L 1156.254006 351.804733 
L 1157.421268 348.588713 
L 1158.588531 348.160682 
L 1159.755793 348.993608 
L 1160.923055 349.190271 
L 1162.090317 348.924197 
L 1163.25758 351.214744 
L 1164.424842 351.908849 
L 1165.592104 349.259681 
L 1166.759367 348.762239 
L 1167.926629 349.629871 
L 1169.093891 349.78026 
L 1170.261153 349.664576 
L 1171.428416 351.770028 
L 1172.595678 352.244333 
L 1173.76294 350.00006 
L 1174.930202 349.953786 
L 1176.097465 350.242997 
L 1177.264727 350.00006 
L 1178.431989 350.671028 
L 1180.766514 352.174922 
L 1181.933776 350.115744 
L 1184.268301 350.312407 
L 1185.435563 350.844554 
L 1186.602825 350.844554 
L 1187.770087 352.093943 
L 1188.93735 352.475701 
L 1190.104612 350.28927 
L 1191.271874 350.624755 
L 1193.606399 350.543776 
L 1194.773661 350.647891 
L 1195.940923 352.11708 
L 1197.108186 352.510406 
L 1198.275448 350.613186 
L 1200.609972 351.261017 
L 1202.944497 351.237881 
L 1204.111759 352.26747 
L 1205.279021 352.510406 
L 1206.446284 351.272586 
L 1208.780808 351.145333 
L 1209.94807 351.758459 
L 1211.115333 351.353565 
L 1212.282595 352.417859 
L 1213.449857 352.695501 
L 1214.61712 351.237881 
L 1215.784382 351.261017 
L 1216.951644 351.573365 
L 1219.286169 351.527091 
L 1220.453431 352.464133 
L 1221.620693 352.614522 
L 1222.787955 351.492386 
L 1223.955218 351.700617 
L 1225.12248 351.758459 
L 1226.289742 352.140217 
L 1227.457004 351.712186 
L 1228.624267 352.452564 
L 1229.791529 352.626091 
L 1230.958791 351.480817 
L 1232.126054 351.908849 
L 1234.460578 351.851007 
L 1235.62784 352.070807 
L 1236.795103 352.602954 
L 1237.962365 352.626091 
L 1239.129627 351.989828 
L 1242.631414 352.151786 
L 1243.798676 352.059238 
L 1244.965939 352.579817 
L 1246.133201 352.545112 
L 1247.300463 351.700617 
L 1248.467725 351.596502 
L 1249.634988 352.059238 
L 1251.969512 351.874144 
L 1253.136774 352.579817 
L 1254.304037 352.695501 
L 1255.471299 351.712186 
L 1256.638561 351.908849 
L 1257.805823 351.862575 
L 1258.973086 352.001396 
L 1260.140348 351.862575 
L 1261.30761 352.48727 
L 1262.474873 352.614522 
L 1263.642135 351.503954 
L 1264.809397 352.024533 
L 1265.976659 351.966691 
L 1267.143922 352.082375 
L 1268.311184 352.070807 
L 1269.478446 352.440996 
L 1270.645708 352.614522 
L 1271.812971 351.67748 
L 1274.147495 351.955122 
L 1276.48202 351.89728 
L 1277.649282 352.55668 
L 1278.816544 352.452564 
L 1279.983807 351.457681 
L 1281.151069 351.619638 
L 1282.318331 351.237881 
L 1284.652856 351.399838 
L 1285.820118 352.174922 
L 1286.98738 352.48727 
L 1288.154642 350.671028 
L 1289.321905 351.110628 
L 1290.489167 351.341996 
L 1291.656429 351.064354 
L 1292.823691 351.469249 
L 1293.990954 352.209628 
L 1295.158216 352.371585 
L 1296.325478 350.682597 
L 1297.492741 350.971807 
L 1298.660003 350.925533 
L 1299.827265 351.191607 
L 1300.994527 351.145333 
L 1302.16179 352.255901 
L 1303.329052 352.394722 
L 1304.496314 351.09906 
L 1306.830839 351.67748 
L 1307.998101 350.624755 
L 1307.998101 350.624755 
" clip-path="url(#p65f2ccfdbb)" style="fill: none; stroke: #0000ff; stroke-width: 1.5; stroke-linecap: square"/>
   </g>
   <g id="line2d_18">
    <path d="M 1068.709336 344.298189 
L 1069.876598 345.63101 
L 1071.043861 348.659334 
L 1072.211123 349.946389 
L 1073.378385 351.89914 
L 1074.545647 353.2755 
L 1075.71291 348.92255 
L 1076.880172 348.255253 
L 1078.047434 349.263019 
L 1080.381959 350.285937 
L 1081.549221 351.734244 
L 1082.716483 352.757084 
L 1083.883746 349.849287 
L 1085.051008 349.554718 
L 1086.21827 349.071313 
L 1087.385532 349.418778 
L 1088.552795 350.173693 
L 1089.720057 351.423164 
L 1090.887319 352.879234 
L 1092.054581 349.962508 
L 1093.221844 349.184794 
L 1094.389106 351.106008 
L 1095.556368 350.133124 
L 1096.72363 350.057691 
L 1097.890893 351.756885 
L 1099.058155 352.466532 
L 1100.225417 349.731803 
L 1101.39268 350.527768 
L 1102.559942 348.454478 
L 1103.727204 349.439553 
L 1104.894466 351.001128 
L 1106.061729 351.848579 
L 1107.228991 352.042909 
L 1108.396253 349.38548 
L 1109.563515 350.252145 
L 1110.730778 348.4532 
L 1111.89804 350.481923 
L 1113.065302 349.429922 
L 1114.232564 350.197619 
L 1115.399827 351.960196 
L 1116.567089 349.171948 
L 1117.734351 351.002109 
L 1118.901614 349.111758 
L 1120.068876 350.880376 
L 1121.236138 347.437218 
L 1122.4034 349.948039 
L 1123.570663 351.437423 
L 1124.737925 350.100613 
L 1125.905187 346.994993 
L 1127.072449 348.716564 
L 1128.239712 346.356865 
L 1129.406974 346.850964 
L 1130.574236 349.064315 
L 1131.741499 350.305162 
L 1132.908761 348.413232 
L 1134.076023 345.576737 
L 1135.243285 345.976583 
L 1136.410548 343.132179 
L 1137.57781 343.72552 
L 1138.745072 347.139673 
L 1139.912334 348.719939 
L 1141.079597 345.200262 
L 1142.246859 344.360219 
L 1143.414121 342.767662 
L 1144.581383 343.9373 
L 1145.748646 344.712944 
L 1146.915908 348.200942 
L 1148.08317 351.064097 
L 1149.250433 345.473135 
L 1150.417695 347.12618 
L 1151.584957 346.474336 
L 1152.752219 347.462765 
L 1153.919482 348.069258 
L 1155.086744 351.614585 
L 1156.254006 352.81601 
L 1157.421268 348.216185 
L 1158.588531 348.391208 
L 1159.755793 348.743419 
L 1160.923055 348.778719 
L 1162.090317 349.806339 
L 1163.25758 351.907528 
L 1164.424842 352.447806 
L 1165.592104 349.178455 
L 1166.759367 349.073773 
L 1167.926629 349.51674 
L 1169.093891 349.68001 
L 1170.261153 349.960082 
L 1171.428416 351.940745 
L 1172.595678 352.567781 
L 1173.76294 349.970459 
L 1174.930202 349.727858 
L 1176.097465 350.548936 
L 1177.264727 350.480192 
L 1178.431989 350.293283 
L 1179.599252 352.463914 
L 1180.766514 352.427541 
L 1181.933776 350.360929 
L 1183.101038 350.194757 
L 1184.268301 350.696251 
L 1185.435563 350.446282 
L 1186.602825 351.074384 
L 1187.770087 352.080132 
L 1188.93735 352.655876 
L 1190.104612 350.827749 
L 1191.271874 350.59731 
L 1192.439136 350.911987 
L 1193.606399 351.020481 
L 1194.773661 350.958596 
L 1195.940923 351.932807 
L 1197.108186 352.527472 
L 1198.275448 350.809544 
L 1200.609972 351.049642 
L 1201.777235 351.292218 
L 1202.944497 351.363538 
L 1204.111759 352.446566 
L 1205.279021 352.756895 
L 1206.446284 351.104705 
L 1207.613546 351.512911 
L 1208.780808 351.569315 
L 1209.94807 351.396478 
L 1211.115333 351.765503 
L 1212.282595 352.492002 
L 1213.449857 352.768324 
L 1214.61712 351.591617 
L 1216.951644 351.484218 
L 1218.118906 351.922655 
L 1219.286169 351.586648 
L 1220.453431 352.505698 
L 1221.620693 352.788175 
L 1222.787955 351.570201 
L 1223.955218 351.63648 
L 1225.12248 351.892531 
L 1227.457004 352.046712 
L 1228.624267 352.686044 
L 1229.791529 352.793057 
L 1230.958791 351.798347 
L 1232.126054 351.814678 
L 1234.460578 352.221662 
L 1235.62784 351.838646 
L 1236.795103 352.730397 
L 1237.962365 352.848228 
L 1239.129627 351.831046 
L 1240.296889 352.249833 
L 1242.631414 352.238986 
L 1243.798676 352.283205 
L 1244.965939 352.740439 
L 1246.133201 352.795431 
L 1247.300463 352.059336 
L 1248.467725 352.072008 
L 1249.634988 351.895639 
L 1250.80225 352.194873 
L 1251.969512 352.092352 
L 1253.136774 352.474461 
L 1254.304037 352.625827 
L 1255.471299 352.045164 
L 1256.638561 351.893496 
L 1257.805823 352.200229 
L 1260.140348 352.049408 
L 1261.30761 352.533619 
L 1262.474873 352.636505 
L 1263.642135 351.954384 
L 1264.809397 351.847288 
L 1265.976659 352.108113 
L 1267.143922 352.150193 
L 1268.311184 352.068084 
L 1269.478446 352.632827 
L 1270.645708 352.660716 
L 1271.812971 351.887292 
L 1272.980233 352.119615 
L 1274.147495 352.00721 
L 1275.314757 352.154907 
L 1276.48202 352.038279 
L 1278.816544 352.682305 
L 1279.983807 351.821907 
L 1282.318331 351.898869 
L 1283.485593 351.626849 
L 1284.652856 351.56104 
L 1285.820118 352.047166 
L 1286.98738 352.188662 
L 1288.154642 351.61351 
L 1289.321905 351.231397 
L 1290.489167 351.148147 
L 1291.656429 351.411852 
L 1292.823691 351.281948 
L 1293.990954 352.006439 
L 1295.158216 352.313348 
L 1296.325478 351.188716 
L 1298.660003 351.229437 
L 1299.827265 351.047657 
L 1303.329052 352.291769 
L 1304.496314 351.106085 
L 1305.663576 351.358911 
L 1306.830839 351.433665 
L 1307.998101 351.698121 
L 1307.998101 351.698121 
" clip-path="url(#p65f2ccfdbb)" style="fill: none; stroke: #ffa500; stroke-width: 1.5; stroke-linecap: square"/>
   </g>
   <g id="line2d_19">
    <path d="M 1309.165363 351.179101 
L 1310.332626 352.08808 
L 1311.499888 352.320487 
L 1312.66715 351.24373 
L 1313.834412 351.529178 
L 1315.001675 351.70044 
L 1316.168937 351.280244 
L 1317.336199 351.61794 
L 1318.503461 352.39762 
L 1319.670724 352.605068 
L 1320.837986 351.702345 
L 1322.005248 351.984208 
L 1323.17251 352.165042 
L 1324.339773 351.829531 
" clip-path="url(#p65f2ccfdbb)" style="fill: none; stroke: #ff0000; stroke-width: 1.5; stroke-linecap: square"/>
   </g>
   <g id="patch_3">
    <path d="M 46.0125 368.3955 
L 46.0125 35.7555 
" style="fill: none; stroke: #000000; stroke-width: 0.8; stroke-linejoin: miter; stroke-linecap: square"/>
   </g>
   <g id="patch_4">
    <path d="M 1385.2125 368.3955 
L 1385.2125 35.7555 
" style="fill: none; stroke: #000000; stroke-width: 0.8; stroke-linejoin: miter; stroke-linecap: square"/>
   </g>
   <g id="patch_5">
    <path d="M 46.0125 368.3955 
L 1385.2125 368.3955 
" style="fill: none; stroke: #000000; stroke-width: 0.8; stroke-linejoin: miter; stroke-linecap: square"/>
   </g>
   <g id="patch_6">
    <path d="M 46.0125 35.7555 
L 1385.2125 35.7555 
" style="fill: none; stroke: #000000; stroke-width: 0.8; stroke-linejoin: miter; stroke-linecap: square"/>
   </g>
   <g id="text_17">
    <!-- Daily Confirmed Cases Forecasting - Norway -->
    <g transform="translate(582.350625 16.318125)scale(0.12 -0.12)">
     <defs>
      <path id="DejaVuSans-44" d="M 1259 4147 
L 1259 519 
L 2022 519 
Q 2988 519 3436 956 
Q 3884 1394 3884 2338 
Q 3884 3275 3436 3711 
Q 2988 4147 2022 4147 
L 1259 4147 
z
M 628 4666 
L 1925 4666 
Q 3281 4666 3915 4102 
Q 4550 3538 4550 2338 
Q 4550 1131 3912 565 
Q 3275 0 1925 0 
L 628 0 
L 628 4666 
z
" transform="scale(0.015625)"/>
      <path id="DejaVuSans-61" d="M 2194 1759 
Q 1497 1759 1228 1600 
Q 959 1441 959 1056 
Q 959 750 1161 570 
Q 1363 391 1709 391 
Q 2188 391 2477 730 
Q 2766 1069 2766 1631 
L 2766 1759 
L 2194 1759 
z
M 3341 1997 
L 3341 0 
L 2766 0 
L 2766 531 
Q 2569 213 2275 61 
Q 1981 -91 1556 -91 
Q 1019 -91 701 211 
Q 384 513 384 1019 
Q 384 1609 779 1909 
Q 1175 2209 1959 2209 
L 2766 2209 
L 2766 2266 
Q 2766 2663 2505 2880 
Q 2244 3097 1772 3097 
Q 1472 3097 1187 3025 
Q 903 2953 641 2809 
L 641 3341 
Q 956 3463 1253 3523 
Q 1550 3584 1831 3584 
Q 2591 3584 2966 3190 
Q 3341 2797 3341 1997 
z
" transform="scale(0.015625)"/>
      <path id="DejaVuSans-69" d="M 603 3500 
L 1178 3500 
L 1178 0 
L 603 0 
L 603 3500 
z
M 603 4863 
L 1178 4863 
L 1178 4134 
L 603 4134 
L 603 4863 
z
" transform="scale(0.015625)"/>
      <path id="DejaVuSans-6c" d="M 603 4863 
L 1178 4863 
L 1178 0 
L 603 0 
L 603 4863 
z
" transform="scale(0.015625)"/>
      <path id="DejaVuSans-79" d="M 2059 -325 
Q 1816 -950 1584 -1140 
Q 1353 -1331 966 -1331 
L 506 -1331 
L 506 -850 
L 844 -850 
Q 1081 -850 1212 -737 
Q 1344 -625 1503 -206 
L 1606 56 
L 191 3500 
L 800 3500 
L 1894 763 
L 2988 3500 
L 3597 3500 
L 2059 -325 
z
" transform="scale(0.015625)"/>
      <path id="DejaVuSans-20" transform="scale(0.015625)"/>
      <path id="DejaVuSans-43" d="M 4122 4306 
L 4122 3641 
Q 3803 3938 3442 4084 
Q 3081 4231 2675 4231 
Q 1875 4231 1450 3742 
Q 1025 3253 1025 2328 
Q 1025 1406 1450 917 
Q 1875 428 2675 428 
Q 3081 428 3442 575 
Q 3803 722 4122 1019 
L 4122 359 
Q 3791 134 3420 21 
Q 3050 -91 2638 -91 
Q 1578 -91 968 557 
Q 359 1206 359 2328 
Q 359 3453 968 4101 
Q 1578 4750 2638 4750 
Q 3056 4750 3426 4639 
Q 3797 4528 4122 4306 
z
" transform="scale(0.015625)"/>
      <path id="DejaVuSans-6f" d="M 1959 3097 
Q 1497 3097 1228 2736 
Q 959 2375 959 1747 
Q 959 1119 1226 758 
Q 1494 397 1959 397 
Q 2419 397 2687 759 
Q 2956 1122 2956 1747 
Q 2956 2369 2687 2733 
Q 2419 3097 1959 3097 
z
M 1959 3584 
Q 2709 3584 3137 3096 
Q 3566 2609 3566 1747 
Q 3566 888 3137 398 
Q 2709 -91 1959 -91 
Q 1206 -91 779 398 
Q 353 888 353 1747 
Q 353 2609 779 3096 
Q 1206 3584 1959 3584 
z
" transform="scale(0.015625)"/>
      <path id="DejaVuSans-6e" d="M 3513 2113 
L 3513 0 
L 2938 0 
L 2938 2094 
Q 2938 2591 2744 2837 
Q 2550 3084 2163 3084 
Q 1697 3084 1428 2787 
Q 1159 2491 1159 1978 
L 1159 0 
L 581 0 
L 581 3500 
L 1159 3500 
L 1159 2956 
Q 1366 3272 1645 3428 
Q 1925 3584 2291 3584 
Q 2894 3584 3203 3211 
Q 3513 2838 3513 2113 
z
" transform="scale(0.015625)"/>
      <path id="DejaVuSans-66" d="M 2375 4863 
L 2375 4384 
L 1825 4384 
Q 1516 4384 1395 4259 
Q 1275 4134 1275 3809 
L 1275 3500 
L 2222 3500 
L 2222 3053 
L 1275 3053 
L 1275 0 
L 697 0 
L 697 3053 
L 147 3053 
L 147 3500 
L 697 3500 
L 697 3744 
Q 697 4328 969 4595 
Q 1241 4863 1831 4863 
L 2375 4863 
z
" transform="scale(0.015625)"/>
      <path id="DejaVuSans-72" d="M 2631 2963 
Q 2534 3019 2420 3045 
Q 2306 3072 2169 3072 
Q 1681 3072 1420 2755 
Q 1159 2438 1159 1844 
L 1159 0 
L 581 0 
L 581 3500 
L 1159 3500 
L 1159 2956 
Q 1341 3275 1631 3429 
Q 1922 3584 2338 3584 
Q 2397 3584 2469 3576 
Q 2541 3569 2628 3553 
L 2631 2963 
z
" transform="scale(0.015625)"/>
      <path id="DejaVuSans-6d" d="M 3328 2828 
Q 3544 3216 3844 3400 
Q 4144 3584 4550 3584 
Q 5097 3584 5394 3201 
Q 5691 2819 5691 2113 
L 5691 0 
L 5113 0 
L 5113 2094 
Q 5113 2597 4934 2840 
Q 4756 3084 4391 3084 
Q 3944 3084 3684 2787 
Q 3425 2491 3425 1978 
L 3425 0 
L 2847 0 
L 2847 2094 
Q 2847 2600 2669 2842 
Q 2491 3084 2119 3084 
Q 1678 3084 1418 2786 
Q 1159 2488 1159 1978 
L 1159 0 
L 581 0 
L 581 3500 
L 1159 3500 
L 1159 2956 
Q 1356 3278 1631 3431 
Q 1906 3584 2284 3584 
Q 2666 3584 2933 3390 
Q 3200 3197 3328 2828 
z
" transform="scale(0.015625)"/>
      <path id="DejaVuSans-65" d="M 3597 1894 
L 3597 1613 
L 953 1613 
Q 991 1019 1311 708 
Q 1631 397 2203 397 
Q 2534 397 2845 478 
Q 3156 559 3463 722 
L 3463 178 
Q 3153 47 2828 -22 
Q 2503 -91 2169 -91 
Q 1331 -91 842 396 
Q 353 884 353 1716 
Q 353 2575 817 3079 
Q 1281 3584 2069 3584 
Q 2775 3584 3186 3129 
Q 3597 2675 3597 1894 
z
M 3022 2063 
Q 3016 2534 2758 2815 
Q 2500 3097 2075 3097 
Q 1594 3097 1305 2825 
Q 1016 2553 972 2059 
L 3022 2063 
z
" transform="scale(0.015625)"/>
      <path id="DejaVuSans-64" d="M 2906 2969 
L 2906 4863 
L 3481 4863 
L 3481 0 
L 2906 0 
L 2906 525 
Q 2725 213 2448 61 
Q 2172 -91 1784 -91 
Q 1150 -91 751 415 
Q 353 922 353 1747 
Q 353 2572 751 3078 
Q 1150 3584 1784 3584 
Q 2172 3584 2448 3432 
Q 2725 3281 2906 2969 
z
M 947 1747 
Q 947 1113 1208 752 
Q 1469 391 1925 391 
Q 2381 391 2643 752 
Q 2906 1113 2906 1747 
Q 2906 2381 2643 2742 
Q 2381 3103 1925 3103 
Q 1469 3103 1208 2742 
Q 947 2381 947 1747 
z
" transform="scale(0.015625)"/>
      <path id="DejaVuSans-73" d="M 2834 3397 
L 2834 2853 
Q 2591 2978 2328 3040 
Q 2066 3103 1784 3103 
Q 1356 3103 1142 2972 
Q 928 2841 928 2578 
Q 928 2378 1081 2264 
Q 1234 2150 1697 2047 
L 1894 2003 
Q 2506 1872 2764 1633 
Q 3022 1394 3022 966 
Q 3022 478 2636 193 
Q 2250 -91 1575 -91 
Q 1294 -91 989 -36 
Q 684 19 347 128 
L 347 722 
Q 666 556 975 473 
Q 1284 391 1588 391 
Q 1994 391 2212 530 
Q 2431 669 2431 922 
Q 2431 1156 2273 1281 
Q 2116 1406 1581 1522 
L 1381 1569 
Q 847 1681 609 1914 
Q 372 2147 372 2553 
Q 372 3047 722 3315 
Q 1072 3584 1716 3584 
Q 2034 3584 2315 3537 
Q 2597 3491 2834 3397 
z
" transform="scale(0.015625)"/>
      <path id="DejaVuSans-46" d="M 628 4666 
L 3309 4666 
L 3309 4134 
L 1259 4134 
L 1259 2759 
L 3109 2759 
L 3109 2228 
L 1259 2228 
L 1259 0 
L 628 0 
L 628 4666 
z
" transform="scale(0.015625)"/>
      <path id="DejaVuSans-63" d="M 3122 3366 
L 3122 2828 
Q 2878 2963 2633 3030 
Q 2388 3097 2138 3097 
Q 1578 3097 1268 2742 
Q 959 2388 959 1747 
Q 959 1106 1268 751 
Q 1578 397 2138 397 
Q 2388 397 2633 464 
Q 2878 531 3122 666 
L 3122 134 
Q 2881 22 2623 -34 
Q 2366 -91 2075 -91 
Q 1284 -91 818 406 
Q 353 903 353 1747 
Q 353 2603 823 3093 
Q 1294 3584 2113 3584 
Q 2378 3584 2631 3529 
Q 2884 3475 3122 3366 
z
" transform="scale(0.015625)"/>
      <path id="DejaVuSans-74" d="M 1172 4494 
L 1172 3500 
L 2356 3500 
L 2356 3053 
L 1172 3053 
L 1172 1153 
Q 1172 725 1289 603 
Q 1406 481 1766 481 
L 2356 481 
L 2356 0 
L 1766 0 
Q 1100 0 847 248 
Q 594 497 594 1153 
L 594 3053 
L 172 3053 
L 172 3500 
L 594 3500 
L 594 4494 
L 1172 4494 
z
" transform="scale(0.015625)"/>
      <path id="DejaVuSans-67" d="M 2906 1791 
Q 2906 2416 2648 2759 
Q 2391 3103 1925 3103 
Q 1463 3103 1205 2759 
Q 947 2416 947 1791 
Q 947 1169 1205 825 
Q 1463 481 1925 481 
Q 2391 481 2648 825 
Q 2906 1169 2906 1791 
z
M 3481 434 
Q 3481 -459 3084 -895 
Q 2688 -1331 1869 -1331 
Q 1566 -1331 1297 -1286 
Q 1028 -1241 775 -1147 
L 775 -588 
Q 1028 -725 1275 -790 
Q 1522 -856 1778 -856 
Q 2344 -856 2625 -561 
Q 2906 -266 2906 331 
L 2906 616 
Q 2728 306 2450 153 
Q 2172 0 1784 0 
Q 1141 0 747 490 
Q 353 981 353 1791 
Q 353 2603 747 3093 
Q 1141 3584 1784 3584 
Q 2172 3584 2450 3431 
Q 2728 3278 2906 2969 
L 2906 3500 
L 3481 3500 
L 3481 434 
z
" transform="scale(0.015625)"/>
      <path id="DejaVuSans-4e" d="M 628 4666 
L 1478 4666 
L 3547 763 
L 3547 4666 
L 4159 4666 
L 4159 0 
L 3309 0 
L 1241 3903 
L 1241 0 
L 628 0 
L 628 4666 
z
" transform="scale(0.015625)"/>
      <path id="DejaVuSans-77" d="M 269 3500 
L 844 3500 
L 1563 769 
L 2278 3500 
L 2956 3500 
L 3675 769 
L 4391 3500 
L 4966 3500 
L 4050 0 
L 3372 0 
L 2619 2869 
L 1863 0 
L 1184 0 
L 269 3500 
z
" transform="scale(0.015625)"/>
     </defs>
     <use xlink:href="#DejaVuSans-44"/>
     <use xlink:href="#DejaVuSans-61" x="77.001953"/>
     <use xlink:href="#DejaVuSans-69" x="138.28125"/>
     <use xlink:href="#DejaVuSans-6c" x="166.064453"/>
     <use xlink:href="#DejaVuSans-79" x="193.847656"/>
     <use xlink:href="#DejaVuSans-20" x="253.027344"/>
     <use xlink:href="#DejaVuSans-43" x="284.814453"/>
     <use xlink:href="#DejaVuSans-6f" x="354.638672"/>
     <use xlink:href="#DejaVuSans-6e" x="415.820312"/>
     <use xlink:href="#DejaVuSans-66" x="479.199219"/>
     <use xlink:href="#DejaVuSans-69" x="514.404297"/>
     <use xlink:href="#DejaVuSans-72" x="542.1875"/>
     <use xlink:href="#DejaVuSans-6d" x="581.550781"/>
     <use xlink:href="#DejaVuSans-65" x="678.962891"/>
     <use xlink:href="#DejaVuSans-64" x="740.486328"/>
     <use xlink:href="#DejaVuSans-20" x="803.962891"/>
     <use xlink:href="#DejaVuSans-43" x="835.75"/>
     <use xlink:href="#DejaVuSans-61" x="905.574219"/>
     <use xlink:href="#DejaVuSans-73" x="966.853516"/>
     <use xlink:href="#DejaVuSans-65" x="1018.953125"/>
     <use xlink:href="#DejaVuSans-73" x="1080.476562"/>
     <use xlink:href="#DejaVuSans-20" x="1132.576172"/>
     <use xlink:href="#DejaVuSans-46" x="1164.363281"/>
     <use xlink:href="#DejaVuSans-6f" x="1218.257812"/>
     <use xlink:href="#DejaVuSans-72" x="1279.439453"/>
     <use xlink:href="#DejaVuSans-65" x="1318.302734"/>
     <use xlink:href="#DejaVuSans-63" x="1379.826172"/>
     <use xlink:href="#DejaVuSans-61" x="1434.806641"/>
     <use xlink:href="#DejaVuSans-73" x="1496.085938"/>
     <use xlink:href="#DejaVuSans-74" x="1548.185547"/>
     <use xlink:href="#DejaVuSans-69" x="1587.394531"/>
     <use xlink:href="#DejaVuSans-6e" x="1615.177734"/>
     <use xlink:href="#DejaVuSans-67" x="1678.556641"/>
     <use xlink:href="#DejaVuSans-20" x="1742.033203"/>
     <use xlink:href="#DejaVuSans-2d" x="1773.820312"/>
     <use xlink:href="#DejaVuSans-20" x="1809.904297"/>
     <use xlink:href="#DejaVuSans-4e" x="1841.691406"/>
     <use xlink:href="#DejaVuSans-6f" x="1916.496094"/>
     <use xlink:href="#DejaVuSans-72" x="1977.677734"/>
     <use xlink:href="#DejaVuSans-77" x="2018.791016"/>
     <use xlink:href="#DejaVuSans-61" x="2100.578125"/>
     <use xlink:href="#DejaVuSans-79" x="2161.857422"/>
    </g>
    <!-- ARIMA (3, 1, 1)x(1, 0, 1, 7) (R2 = 0.789619) -->
    <g transform="translate(583.628438 29.7555)scale(0.12 -0.12)">
     <defs>
      <path id="DejaVuSans-41" d="M 2188 4044 
L 1331 1722 
L 3047 1722 
L 2188 4044 
z
M 1831 4666 
L 2547 4666 
L 4325 0 
L 3669 0 
L 3244 1197 
L 1141 1197 
L 716 0 
L 50 0 
L 1831 4666 
z
" transform="scale(0.015625)"/>
      <path id="DejaVuSans-52" d="M 2841 2188 
Q 3044 2119 3236 1894 
Q 3428 1669 3622 1275 
L 4263 0 
L 3584 0 
L 2988 1197 
Q 2756 1666 2539 1819 
Q 2322 1972 1947 1972 
L 1259 1972 
L 1259 0 
L 628 0 
L 628 4666 
L 2053 4666 
Q 2853 4666 3247 4331 
Q 3641 3997 3641 3322 
Q 3641 2881 3436 2590 
Q 3231 2300 2841 2188 
z
M 1259 4147 
L 1259 2491 
L 2053 2491 
Q 2509 2491 2742 2702 
Q 2975 2913 2975 3322 
Q 2975 3731 2742 3939 
Q 2509 4147 2053 4147 
L 1259 4147 
z
" transform="scale(0.015625)"/>
      <path id="DejaVuSans-49" d="M 628 4666 
L 1259 4666 
L 1259 0 
L 628 0 
L 628 4666 
z
" transform="scale(0.015625)"/>
      <path id="DejaVuSans-4d" d="M 628 4666 
L 1569 4666 
L 2759 1491 
L 3956 4666 
L 4897 4666 
L 4897 0 
L 4281 0 
L 4281 4097 
L 3078 897 
L 2444 897 
L 1241 4097 
L 1241 0 
L 628 0 
L 628 4666 
z
" transform="scale(0.015625)"/>
      <path id="DejaVuSans-28" d="M 1984 4856 
Q 1566 4138 1362 3434 
Q 1159 2731 1159 2009 
Q 1159 1288 1364 580 
Q 1569 -128 1984 -844 
L 1484 -844 
Q 1016 -109 783 600 
Q 550 1309 550 2009 
Q 550 2706 781 3412 
Q 1013 4119 1484 4856 
L 1984 4856 
z
" transform="scale(0.015625)"/>
      <path id="DejaVuSans-2c" d="M 750 794 
L 1409 794 
L 1409 256 
L 897 -744 
L 494 -744 
L 750 256 
L 750 794 
z
" transform="scale(0.015625)"/>
      <path id="DejaVuSans-29" d="M 513 4856 
L 1013 4856 
Q 1481 4119 1714 3412 
Q 1947 2706 1947 2009 
Q 1947 1309 1714 600 
Q 1481 -109 1013 -844 
L 513 -844 
Q 928 -128 1133 580 
Q 1338 1288 1338 2009 
Q 1338 2731 1133 3434 
Q 928 4138 513 4856 
z
" transform="scale(0.015625)"/>
      <path id="DejaVuSans-78" d="M 3513 3500 
L 2247 1797 
L 3578 0 
L 2900 0 
L 1881 1375 
L 863 0 
L 184 0 
L 1544 1831 
L 300 3500 
L 978 3500 
L 1906 2253 
L 2834 3500 
L 3513 3500 
z
" transform="scale(0.015625)"/>
      <path id="DejaVuSans-37" d="M 525 4666 
L 3525 4666 
L 3525 4397 
L 1831 0 
L 1172 0 
L 2766 4134 
L 525 4134 
L 525 4666 
z
" transform="scale(0.015625)"/>
      <path id="DejaVuSans-3d" d="M 678 2906 
L 4684 2906 
L 4684 2381 
L 678 2381 
L 678 2906 
z
M 678 1631 
L 4684 1631 
L 4684 1100 
L 678 1100 
L 678 1631 
z
" transform="scale(0.015625)"/>
      <path id="DejaVuSans-2e" d="M 684 794 
L 1344 794 
L 1344 0 
L 684 0 
L 684 794 
z
" transform="scale(0.015625)"/>
      <path id="DejaVuSans-38" d="M 2034 2216 
Q 1584 2216 1326 1975 
Q 1069 1734 1069 1313 
Q 1069 891 1326 650 
Q 1584 409 2034 409 
Q 2484 409 2743 651 
Q 3003 894 3003 1313 
Q 3003 1734 2745 1975 
Q 2488 2216 2034 2216 
z
M 1403 2484 
Q 997 2584 770 2862 
Q 544 3141 544 3541 
Q 544 4100 942 4425 
Q 1341 4750 2034 4750 
Q 2731 4750 3128 4425 
Q 3525 4100 3525 3541 
Q 3525 3141 3298 2862 
Q 3072 2584 2669 2484 
Q 3125 2378 3379 2068 
Q 3634 1759 3634 1313 
Q 3634 634 3220 271 
Q 2806 -91 2034 -91 
Q 1263 -91 848 271 
Q 434 634 434 1313 
Q 434 1759 690 2068 
Q 947 2378 1403 2484 
z
M 1172 3481 
Q 1172 3119 1398 2916 
Q 1625 2713 2034 2713 
Q 2441 2713 2670 2916 
Q 2900 3119 2900 3481 
Q 2900 3844 2670 4047 
Q 2441 4250 2034 4250 
Q 1625 4250 1398 4047 
Q 1172 3844 1172 3481 
z
" transform="scale(0.015625)"/>
      <path id="DejaVuSans-36" d="M 2113 2584 
Q 1688 2584 1439 2293 
Q 1191 2003 1191 1497 
Q 1191 994 1439 701 
Q 1688 409 2113 409 
Q 2538 409 2786 701 
Q 3034 994 3034 1497 
Q 3034 2003 2786 2293 
Q 2538 2584 2113 2584 
z
M 3366 4563 
L 3366 3988 
Q 3128 4100 2886 4159 
Q 2644 4219 2406 4219 
Q 1781 4219 1451 3797 
Q 1122 3375 1075 2522 
Q 1259 2794 1537 2939 
Q 1816 3084 2150 3084 
Q 2853 3084 3261 2657 
Q 3669 2231 3669 1497 
Q 3669 778 3244 343 
Q 2819 -91 2113 -91 
Q 1303 -91 875 529 
Q 447 1150 447 2328 
Q 447 3434 972 4092 
Q 1497 4750 2381 4750 
Q 2619 4750 2861 4703 
Q 3103 4656 3366 4563 
z
" transform="scale(0.015625)"/>
     </defs>
     <use xlink:href="#DejaVuSans-41"/>
     <use xlink:href="#DejaVuSans-52" x="68.408203"/>
     <use xlink:href="#DejaVuSans-49" x="137.890625"/>
     <use xlink:href="#DejaVuSans-4d" x="167.382812"/>
     <use xlink:href="#DejaVuSans-41" x="253.662109"/>
     <use xlink:href="#DejaVuSans-20" x="322.070312"/>
     <use xlink:href="#DejaVuSans-28" x="353.857422"/>
     <use xlink:href="#DejaVuSans-33" x="392.871094"/>
     <use xlink:href="#DejaVuSans-2c" x="456.494141"/>
     <use xlink:href="#DejaVuSans-20" x="488.28125"/>
     <use xlink:href="#DejaVuSans-31" x="520.068359"/>
     <use xlink:href="#DejaVuSans-2c" x="583.691406"/>
     <use xlink:href="#DejaVuSans-20" x="615.478516"/>
     <use xlink:href="#DejaVuSans-31" x="647.265625"/>
     <use xlink:href="#DejaVuSans-29" x="710.888672"/>
     <use xlink:href="#DejaVuSans-78" x="749.902344"/>
     <use xlink:href="#DejaVuSans-28" x="809.082031"/>
     <use xlink:href="#DejaVuSans-31" x="848.095703"/>
     <use xlink:href="#DejaVuSans-2c" x="911.71875"/>
     <use xlink:href="#DejaVuSans-20" x="943.505859"/>
     <use xlink:href="#DejaVuSans-30" x="975.292969"/>
     <use xlink:href="#DejaVuSans-2c" x="1038.916016"/>
     <use xlink:href="#DejaVuSans-20" x="1070.703125"/>
     <use xlink:href="#DejaVuSans-31" x="1102.490234"/>
     <use xlink:href="#DejaVuSans-2c" x="1166.113281"/>
     <use xlink:href="#DejaVuSans-20" x="1197.900391"/>
     <use xlink:href="#DejaVuSans-37" x="1229.6875"/>
     <use xlink:href="#DejaVuSans-29" x="1293.310547"/>
     <use xlink:href="#DejaVuSans-20" x="1332.324219"/>
     <use xlink:href="#DejaVuSans-28" x="1364.111328"/>
     <use xlink:href="#DejaVuSans-52" x="1403.125"/>
     <use xlink:href="#DejaVuSans-32" x="1472.607422"/>
     <use xlink:href="#DejaVuSans-20" x="1536.230469"/>
     <use xlink:href="#DejaVuSans-3d" x="1568.017578"/>
     <use xlink:href="#DejaVuSans-20" x="1651.806641"/>
     <use xlink:href="#DejaVuSans-30" x="1683.59375"/>
     <use xlink:href="#DejaVuSans-2e" x="1747.216797"/>
     <use xlink:href="#DejaVuSans-37" x="1779.003906"/>
     <use xlink:href="#DejaVuSans-38" x="1842.626953"/>
     <use xlink:href="#DejaVuSans-39" x="1906.25"/>
     <use xlink:href="#DejaVuSans-36" x="1969.873047"/>
     <use xlink:href="#DejaVuSans-31" x="2033.496094"/>
     <use xlink:href="#DejaVuSans-39" x="2097.119141"/>
     <use xlink:href="#DejaVuSans-29" x="2160.742188"/>
    </g>
   </g>
   <g id="legend_1">
    <g id="patch_7">
     <path d="M 1281.132812 87.789875 
L 1378.2125 87.789875 
Q 1380.2125 87.789875 1380.2125 85.789875 
L 1380.2125 42.7555 
Q 1380.2125 40.7555 1378.2125 40.7555 
L 1281.132812 40.7555 
Q 1279.132812 40.7555 1279.132812 42.7555 
L 1279.132812 85.789875 
Q 1279.132812 87.789875 1281.132812 87.789875 
z
" style="fill: #ffffff; opacity: 0.8; stroke: #cccccc; stroke-linejoin: miter"/>
    </g>
    <g id="line2d_20">
     <path d="M 1283.132812 48.853937 
L 1293.132812 48.853937 
L 1303.132812 48.853937 
" style="fill: none; stroke: #0000ff; stroke-width: 1.5; stroke-linecap: square"/>
    </g>
    <g id="text_18">
     <!-- Actual Value -->
     <g transform="translate(1311.132812 52.353937)scale(0.1 -0.1)">
      <defs>
       <path id="DejaVuSans-75" d="M 544 1381 
L 544 3500 
L 1119 3500 
L 1119 1403 
Q 1119 906 1312 657 
Q 1506 409 1894 409 
Q 2359 409 2629 706 
Q 2900 1003 2900 1516 
L 2900 3500 
L 3475 3500 
L 3475 0 
L 2900 0 
L 2900 538 
Q 2691 219 2414 64 
Q 2138 -91 1772 -91 
Q 1169 -91 856 284 
Q 544 659 544 1381 
z
M 1991 3584 
L 1991 3584 
z
" transform="scale(0.015625)"/>
       <path id="DejaVuSans-56" d="M 1831 0 
L 50 4666 
L 709 4666 
L 2188 738 
L 3669 4666 
L 4325 4666 
L 2547 0 
L 1831 0 
z
" transform="scale(0.015625)"/>
      </defs>
      <use xlink:href="#DejaVuSans-41"/>
      <use xlink:href="#DejaVuSans-63" x="66.658203"/>
      <use xlink:href="#DejaVuSans-74" x="121.638672"/>
      <use xlink:href="#DejaVuSans-75" x="160.847656"/>
      <use xlink:href="#DejaVuSans-61" x="224.226562"/>
      <use xlink:href="#DejaVuSans-6c" x="285.505859"/>
      <use xlink:href="#DejaVuSans-20" x="313.289062"/>
      <use xlink:href="#DejaVuSans-56" x="345.076172"/>
      <use xlink:href="#DejaVuSans-61" x="405.734375"/>
      <use xlink:href="#DejaVuSans-6c" x="467.013672"/>
      <use xlink:href="#DejaVuSans-75" x="494.796875"/>
      <use xlink:href="#DejaVuSans-65" x="558.175781"/>
     </g>
    </g>
    <g id="line2d_21">
     <path d="M 1283.132812 63.532062 
L 1293.132812 63.532062 
L 1303.132812 63.532062 
" style="fill: none; stroke: #ffa500; stroke-width: 1.5; stroke-linecap: square"/>
    </g>
    <g id="text_19">
     <!-- Check Value -->
     <g transform="translate(1311.132812 67.032062)scale(0.1 -0.1)">
      <defs>
       <path id="DejaVuSans-68" d="M 3513 2113 
L 3513 0 
L 2938 0 
L 2938 2094 
Q 2938 2591 2744 2837 
Q 2550 3084 2163 3084 
Q 1697 3084 1428 2787 
Q 1159 2491 1159 1978 
L 1159 0 
L 581 0 
L 581 4863 
L 1159 4863 
L 1159 2956 
Q 1366 3272 1645 3428 
Q 1925 3584 2291 3584 
Q 2894 3584 3203 3211 
Q 3513 2838 3513 2113 
z
" transform="scale(0.015625)"/>
       <path id="DejaVuSans-6b" d="M 581 4863 
L 1159 4863 
L 1159 1991 
L 2875 3500 
L 3609 3500 
L 1753 1863 
L 3688 0 
L 2938 0 
L 1159 1709 
L 1159 0 
L 581 0 
L 581 4863 
z
" transform="scale(0.015625)"/>
      </defs>
      <use xlink:href="#DejaVuSans-43"/>
      <use xlink:href="#DejaVuSans-68" x="69.824219"/>
      <use xlink:href="#DejaVuSans-65" x="133.203125"/>
      <use xlink:href="#DejaVuSans-63" x="194.726562"/>
      <use xlink:href="#DejaVuSans-6b" x="249.707031"/>
      <use xlink:href="#DejaVuSans-20" x="307.617188"/>
      <use xlink:href="#DejaVuSans-56" x="339.404297"/>
      <use xlink:href="#DejaVuSans-61" x="400.0625"/>
      <use xlink:href="#DejaVuSans-6c" x="461.341797"/>
      <use xlink:href="#DejaVuSans-75" x="489.125"/>
      <use xlink:href="#DejaVuSans-65" x="552.503906"/>
     </g>
    </g>
    <g id="line2d_22">
     <path d="M 1283.132812 78.210187 
L 1293.132812 78.210187 
L 1303.132812 78.210187 
" style="fill: none; stroke: #ff0000; stroke-width: 1.5; stroke-linecap: square"/>
    </g>
    <g id="text_20">
     <!-- Predict Value -->
     <g transform="translate(1311.132812 81.710187)scale(0.1 -0.1)">
      <defs>
       <path id="DejaVuSans-50" d="M 1259 4147 
L 1259 2394 
L 2053 2394 
Q 2494 2394 2734 2622 
Q 2975 2850 2975 3272 
Q 2975 3691 2734 3919 
Q 2494 4147 2053 4147 
L 1259 4147 
z
M 628 4666 
L 2053 4666 
Q 2838 4666 3239 4311 
Q 3641 3956 3641 3272 
Q 3641 2581 3239 2228 
Q 2838 1875 2053 1875 
L 1259 1875 
L 1259 0 
L 628 0 
L 628 4666 
z
" transform="scale(0.015625)"/>
      </defs>
      <use xlink:href="#DejaVuSans-50"/>
      <use xlink:href="#DejaVuSans-72" x="58.552734"/>
      <use xlink:href="#DejaVuSans-65" x="97.416016"/>
      <use xlink:href="#DejaVuSans-64" x="158.939453"/>
      <use xlink:href="#DejaVuSans-69" x="222.416016"/>
      <use xlink:href="#DejaVuSans-63" x="250.199219"/>
      <use xlink:href="#DejaVuSans-74" x="305.179688"/>
      <use xlink:href="#DejaVuSans-20" x="344.388672"/>
      <use xlink:href="#DejaVuSans-56" x="376.175781"/>
      <use xlink:href="#DejaVuSans-61" x="436.833984"/>
      <use xlink:href="#DejaVuSans-6c" x="498.113281"/>
      <use xlink:href="#DejaVuSans-75" x="525.896484"/>
      <use xlink:href="#DejaVuSans-65" x="589.275391"/>
     </g>
    </g>
   </g>
  </g>
 </g>
 <defs>
  <clipPath id="p65f2ccfdbb">
   <rect x="46.0125" y="35.7555" width="1339.2" height="332.64"/>
  </clipPath>
 </defs>
</svg>
