<?xml version="1.0" encoding="utf-8" standalone="no"?>
<!DOCTYPE svg PUBLIC "-//W3C//DTD SVG 1.1//EN"
  "http://www.w3.org/Graphics/SVG/1.1/DTD/svg11.dtd">
<svg xmlns:xlink="http://www.w3.org/1999/xlink" width="1392.4125pt" height="392.273625pt" viewBox="0 0 1392.4125 392.273625" xmlns="http://www.w3.org/2000/svg" version="1.1">
 <metadata>
  <rdf:RDF xmlns:dc="http://purl.org/dc/elements/1.1/" xmlns:cc="http://creativecommons.org/ns#" xmlns:rdf="http://www.w3.org/1999/02/22-rdf-syntax-ns#">
   <cc:Work>
    <dc:type rdf:resource="http://purl.org/dc/dcmitype/StillImage"/>
    <dc:date>2022-10-27T19:12:16.003536</dc:date>
    <dc:format>image/svg+xml</dc:format>
    <dc:creator>
     <cc:Agent>
      <dc:title>Matplotlib v3.5.1, https://matplotlib.org/</dc:title>
     </cc:Agent>
    </dc:creator>
   </cc:Work>
  </rdf:RDF>
 </metadata>
 <defs>
  <style type="text/css">*{stroke-linejoin: round; stroke-linecap: butt}</style>
 </defs>
 <g id="figure_1">
  <g id="patch_1">
   <path d="M 0 392.273625 
L 1392.4125 392.273625 
L 1392.4125 0 
L 0 0 
z
" style="fill: #ffffff"/>
  </g>
  <g id="axes_1">
   <g id="patch_2">
    <path d="M 46.0125 368.3955 
L 1385.2125 368.3955 
L 1385.2125 35.7555 
L 46.0125 35.7555 
z
" style="fill: #ffffff"/>
   </g>
   <g id="matplotlib.axis_1">
    <g id="xtick_1">
     <g id="line2d_1">
      <defs>
       <path id="mbdbc3b3473" d="M 0 0 
L 0 3.5 
" style="stroke: #000000; stroke-width: 0.8"/>
      </defs>
      <g>
       <use xlink:href="#mbdbc3b3473" x="80.652122" y="368.3955" style="stroke: #000000; stroke-width: 0.8"/>
      </g>
     </g>
     <g id="text_1">
      <!-- 2020-01 -->
      <g transform="translate(59.760716 382.993937)scale(0.1 -0.1)">
       <defs>
        <path id="DejaVuSans-32" d="M 1228 531 
L 3431 531 
L 3431 0 
L 469 0 
L 469 531 
Q 828 903 1448 1529 
Q 2069 2156 2228 2338 
Q 2531 2678 2651 2914 
Q 2772 3150 2772 3378 
Q 2772 3750 2511 3984 
Q 2250 4219 1831 4219 
Q 1534 4219 1204 4116 
Q 875 4013 500 3803 
L 500 4441 
Q 881 4594 1212 4672 
Q 1544 4750 1819 4750 
Q 2544 4750 2975 4387 
Q 3406 4025 3406 3419 
Q 3406 3131 3298 2873 
Q 3191 2616 2906 2266 
Q 2828 2175 2409 1742 
Q 1991 1309 1228 531 
z
" transform="scale(0.015625)"/>
        <path id="DejaVuSans-30" d="M 2034 4250 
Q 1547 4250 1301 3770 
Q 1056 3291 1056 2328 
Q 1056 1369 1301 889 
Q 1547 409 2034 409 
Q 2525 409 2770 889 
Q 3016 1369 3016 2328 
Q 3016 3291 2770 3770 
Q 2525 4250 2034 4250 
z
M 2034 4750 
Q 2819 4750 3233 4129 
Q 3647 3509 3647 2328 
Q 3647 1150 3233 529 
Q 2819 -91 2034 -91 
Q 1250 -91 836 529 
Q 422 1150 422 2328 
Q 422 3509 836 4129 
Q 1250 4750 2034 4750 
z
" transform="scale(0.015625)"/>
        <path id="DejaVuSans-2d" d="M 313 2009 
L 1997 2009 
L 1997 1497 
L 313 1497 
L 313 2009 
z
" transform="scale(0.015625)"/>
        <path id="DejaVuSans-31" d="M 794 531 
L 1825 531 
L 1825 4091 
L 703 3866 
L 703 4441 
L 1819 4666 
L 2450 4666 
L 2450 531 
L 3481 531 
L 3481 0 
L 794 0 
L 794 531 
z
" transform="scale(0.015625)"/>
       </defs>
       <use xlink:href="#DejaVuSans-32"/>
       <use xlink:href="#DejaVuSans-30" x="63.623047"/>
       <use xlink:href="#DejaVuSans-32" x="127.246094"/>
       <use xlink:href="#DejaVuSans-30" x="190.869141"/>
       <use xlink:href="#DejaVuSans-2d" x="254.492188"/>
       <use xlink:href="#DejaVuSans-30" x="290.576172"/>
       <use xlink:href="#DejaVuSans-31" x="354.199219"/>
      </g>
     </g>
    </g>
    <g id="xtick_2">
     <g id="line2d_2">
      <g>
       <use xlink:href="#mbdbc3b3473" x="224.934199" y="368.3955" style="stroke: #000000; stroke-width: 0.8"/>
      </g>
     </g>
     <g id="text_2">
      <!-- 2020-05 -->
      <g transform="translate(204.042793 382.993937)scale(0.1 -0.1)">
       <defs>
        <path id="DejaVuSans-35" d="M 691 4666 
L 3169 4666 
L 3169 4134 
L 1269 4134 
L 1269 2991 
Q 1406 3038 1543 3061 
Q 1681 3084 1819 3084 
Q 2600 3084 3056 2656 
Q 3513 2228 3513 1497 
Q 3513 744 3044 326 
Q 2575 -91 1722 -91 
Q 1428 -91 1123 -41 
Q 819 9 494 109 
L 494 744 
Q 775 591 1075 516 
Q 1375 441 1709 441 
Q 2250 441 2565 725 
Q 2881 1009 2881 1497 
Q 2881 1984 2565 2268 
Q 2250 2553 1709 2553 
Q 1456 2553 1204 2497 
Q 953 2441 691 2322 
L 691 4666 
z
" transform="scale(0.015625)"/>
       </defs>
       <use xlink:href="#DejaVuSans-32"/>
       <use xlink:href="#DejaVuSans-30" x="63.623047"/>
       <use xlink:href="#DejaVuSans-32" x="127.246094"/>
       <use xlink:href="#DejaVuSans-30" x="190.869141"/>
       <use xlink:href="#DejaVuSans-2d" x="254.492188"/>
       <use xlink:href="#DejaVuSans-30" x="290.576172"/>
       <use xlink:href="#DejaVuSans-35" x="354.199219"/>
      </g>
     </g>
    </g>
    <g id="xtick_3">
     <g id="line2d_3">
      <g>
       <use xlink:href="#mbdbc3b3473" x="371.601103" y="368.3955" style="stroke: #000000; stroke-width: 0.8"/>
      </g>
     </g>
     <g id="text_3">
      <!-- 2020-09 -->
      <g transform="translate(350.709697 382.993937)scale(0.1 -0.1)">
       <defs>
        <path id="DejaVuSans-39" d="M 703 97 
L 703 672 
Q 941 559 1184 500 
Q 1428 441 1663 441 
Q 2288 441 2617 861 
Q 2947 1281 2994 2138 
Q 2813 1869 2534 1725 
Q 2256 1581 1919 1581 
Q 1219 1581 811 2004 
Q 403 2428 403 3163 
Q 403 3881 828 4315 
Q 1253 4750 1959 4750 
Q 2769 4750 3195 4129 
Q 3622 3509 3622 2328 
Q 3622 1225 3098 567 
Q 2575 -91 1691 -91 
Q 1453 -91 1209 -44 
Q 966 3 703 97 
z
M 1959 2075 
Q 2384 2075 2632 2365 
Q 2881 2656 2881 3163 
Q 2881 3666 2632 3958 
Q 2384 4250 1959 4250 
Q 1534 4250 1286 3958 
Q 1038 3666 1038 3163 
Q 1038 2656 1286 2365 
Q 1534 2075 1959 2075 
z
" transform="scale(0.015625)"/>
       </defs>
       <use xlink:href="#DejaVuSans-32"/>
       <use xlink:href="#DejaVuSans-30" x="63.623047"/>
       <use xlink:href="#DejaVuSans-32" x="127.246094"/>
       <use xlink:href="#DejaVuSans-30" x="190.869141"/>
       <use xlink:href="#DejaVuSans-2d" x="254.492188"/>
       <use xlink:href="#DejaVuSans-30" x="290.576172"/>
       <use xlink:href="#DejaVuSans-39" x="354.199219"/>
      </g>
     </g>
    </g>
    <g id="xtick_4">
     <g id="line2d_4">
      <g>
       <use xlink:href="#mbdbc3b3473" x="517.075593" y="368.3955" style="stroke: #000000; stroke-width: 0.8"/>
      </g>
     </g>
     <g id="text_4">
      <!-- 2021-01 -->
      <g transform="translate(496.184187 382.993937)scale(0.1 -0.1)">
       <use xlink:href="#DejaVuSans-32"/>
       <use xlink:href="#DejaVuSans-30" x="63.623047"/>
       <use xlink:href="#DejaVuSans-32" x="127.246094"/>
       <use xlink:href="#DejaVuSans-31" x="190.869141"/>
       <use xlink:href="#DejaVuSans-2d" x="254.492188"/>
       <use xlink:href="#DejaVuSans-30" x="290.576172"/>
       <use xlink:href="#DejaVuSans-31" x="354.199219"/>
      </g>
     </g>
    </g>
    <g id="xtick_5">
     <g id="line2d_5">
      <g>
       <use xlink:href="#mbdbc3b3473" x="660.165256" y="368.3955" style="stroke: #000000; stroke-width: 0.8"/>
      </g>
     </g>
     <g id="text_5">
      <!-- 2021-05 -->
      <g transform="translate(639.27385 382.993937)scale(0.1 -0.1)">
       <use xlink:href="#DejaVuSans-32"/>
       <use xlink:href="#DejaVuSans-30" x="63.623047"/>
       <use xlink:href="#DejaVuSans-32" x="127.246094"/>
       <use xlink:href="#DejaVuSans-31" x="190.869141"/>
       <use xlink:href="#DejaVuSans-2d" x="254.492188"/>
       <use xlink:href="#DejaVuSans-30" x="290.576172"/>
       <use xlink:href="#DejaVuSans-35" x="354.199219"/>
      </g>
     </g>
    </g>
    <g id="xtick_6">
     <g id="line2d_6">
      <g>
       <use xlink:href="#mbdbc3b3473" x="806.83216" y="368.3955" style="stroke: #000000; stroke-width: 0.8"/>
      </g>
     </g>
     <g id="text_6">
      <!-- 2021-09 -->
      <g transform="translate(785.940754 382.993937)scale(0.1 -0.1)">
       <use xlink:href="#DejaVuSans-32"/>
       <use xlink:href="#DejaVuSans-30" x="63.623047"/>
       <use xlink:href="#DejaVuSans-32" x="127.246094"/>
       <use xlink:href="#DejaVuSans-31" x="190.869141"/>
       <use xlink:href="#DejaVuSans-2d" x="254.492188"/>
       <use xlink:href="#DejaVuSans-30" x="290.576172"/>
       <use xlink:href="#DejaVuSans-39" x="354.199219"/>
      </g>
     </g>
    </g>
    <g id="xtick_7">
     <g id="line2d_7">
      <g>
       <use xlink:href="#mbdbc3b3473" x="952.30665" y="368.3955" style="stroke: #000000; stroke-width: 0.8"/>
      </g>
     </g>
     <g id="text_7">
      <!-- 2022-01 -->
      <g transform="translate(931.415244 382.993937)scale(0.1 -0.1)">
       <use xlink:href="#DejaVuSans-32"/>
       <use xlink:href="#DejaVuSans-30" x="63.623047"/>
       <use xlink:href="#DejaVuSans-32" x="127.246094"/>
       <use xlink:href="#DejaVuSans-32" x="190.869141"/>
       <use xlink:href="#DejaVuSans-2d" x="254.492188"/>
       <use xlink:href="#DejaVuSans-30" x="290.576172"/>
       <use xlink:href="#DejaVuSans-31" x="354.199219"/>
      </g>
     </g>
    </g>
    <g id="xtick_8">
     <g id="line2d_8">
      <g>
       <use xlink:href="#mbdbc3b3473" x="1095.396313" y="368.3955" style="stroke: #000000; stroke-width: 0.8"/>
      </g>
     </g>
     <g id="text_8">
      <!-- 2022-05 -->
      <g transform="translate(1074.504906 382.993937)scale(0.1 -0.1)">
       <use xlink:href="#DejaVuSans-32"/>
       <use xlink:href="#DejaVuSans-30" x="63.623047"/>
       <use xlink:href="#DejaVuSans-32" x="127.246094"/>
       <use xlink:href="#DejaVuSans-32" x="190.869141"/>
       <use xlink:href="#DejaVuSans-2d" x="254.492188"/>
       <use xlink:href="#DejaVuSans-30" x="290.576172"/>
       <use xlink:href="#DejaVuSans-35" x="354.199219"/>
      </g>
     </g>
    </g>
    <g id="xtick_9">
     <g id="line2d_9">
      <g>
       <use xlink:href="#mbdbc3b3473" x="1242.063217" y="368.3955" style="stroke: #000000; stroke-width: 0.8"/>
      </g>
     </g>
     <g id="text_9">
      <!-- 2022-09 -->
      <g transform="translate(1221.171811 382.993937)scale(0.1 -0.1)">
       <use xlink:href="#DejaVuSans-32"/>
       <use xlink:href="#DejaVuSans-30" x="63.623047"/>
       <use xlink:href="#DejaVuSans-32" x="127.246094"/>
       <use xlink:href="#DejaVuSans-32" x="190.869141"/>
       <use xlink:href="#DejaVuSans-2d" x="254.492188"/>
       <use xlink:href="#DejaVuSans-30" x="290.576172"/>
       <use xlink:href="#DejaVuSans-39" x="354.199219"/>
      </g>
     </g>
    </g>
   </g>
   <g id="matplotlib.axis_2">
    <g id="ytick_1">
     <g id="line2d_10">
      <defs>
       <path id="mcb2240053d" d="M 0 0 
L -3.5 0 
" style="stroke: #000000; stroke-width: 0.8"/>
      </defs>
      <g>
       <use xlink:href="#mcb2240053d" x="46.0125" y="350.92956" style="stroke: #000000; stroke-width: 0.8"/>
      </g>
     </g>
     <g id="text_10">
      <!-- 0 -->
      <g transform="translate(32.65 354.728779)scale(0.1 -0.1)">
       <use xlink:href="#DejaVuSans-30"/>
      </g>
     </g>
    </g>
    <g id="ytick_2">
     <g id="line2d_11">
      <g>
       <use xlink:href="#mcb2240053d" x="46.0125" y="291.22919" style="stroke: #000000; stroke-width: 0.8"/>
      </g>
     </g>
     <g id="text_11">
      <!-- 2000 -->
      <g transform="translate(13.5625 295.028409)scale(0.1 -0.1)">
       <use xlink:href="#DejaVuSans-32"/>
       <use xlink:href="#DejaVuSans-30" x="63.623047"/>
       <use xlink:href="#DejaVuSans-30" x="127.246094"/>
       <use xlink:href="#DejaVuSans-30" x="190.869141"/>
      </g>
     </g>
    </g>
    <g id="ytick_3">
     <g id="line2d_12">
      <g>
       <use xlink:href="#mcb2240053d" x="46.0125" y="231.52882" style="stroke: #000000; stroke-width: 0.8"/>
      </g>
     </g>
     <g id="text_12">
      <!-- 4000 -->
      <g transform="translate(13.5625 235.328039)scale(0.1 -0.1)">
       <defs>
        <path id="DejaVuSans-34" d="M 2419 4116 
L 825 1625 
L 2419 1625 
L 2419 4116 
z
M 2253 4666 
L 3047 4666 
L 3047 1625 
L 3713 1625 
L 3713 1100 
L 3047 1100 
L 3047 0 
L 2419 0 
L 2419 1100 
L 313 1100 
L 313 1709 
L 2253 4666 
z
" transform="scale(0.015625)"/>
       </defs>
       <use xlink:href="#DejaVuSans-34"/>
       <use xlink:href="#DejaVuSans-30" x="63.623047"/>
       <use xlink:href="#DejaVuSans-30" x="127.246094"/>
       <use xlink:href="#DejaVuSans-30" x="190.869141"/>
      </g>
     </g>
    </g>
    <g id="ytick_4">
     <g id="line2d_13">
      <g>
       <use xlink:href="#mcb2240053d" x="46.0125" y="171.82845" style="stroke: #000000; stroke-width: 0.8"/>
      </g>
     </g>
     <g id="text_13">
      <!-- 6000 -->
      <g transform="translate(13.5625 175.627669)scale(0.1 -0.1)">
       <defs>
        <path id="DejaVuSans-36" d="M 2113 2584 
Q 1688 2584 1439 2293 
Q 1191 2003 1191 1497 
Q 1191 994 1439 701 
Q 1688 409 2113 409 
Q 2538 409 2786 701 
Q 3034 994 3034 1497 
Q 3034 2003 2786 2293 
Q 2538 2584 2113 2584 
z
M 3366 4563 
L 3366 3988 
Q 3128 4100 2886 4159 
Q 2644 4219 2406 4219 
Q 1781 4219 1451 3797 
Q 1122 3375 1075 2522 
Q 1259 2794 1537 2939 
Q 1816 3084 2150 3084 
Q 2853 3084 3261 2657 
Q 3669 2231 3669 1497 
Q 3669 778 3244 343 
Q 2819 -91 2113 -91 
Q 1303 -91 875 529 
Q 447 1150 447 2328 
Q 447 3434 972 4092 
Q 1497 4750 2381 4750 
Q 2619 4750 2861 4703 
Q 3103 4656 3366 4563 
z
" transform="scale(0.015625)"/>
       </defs>
       <use xlink:href="#DejaVuSans-36"/>
       <use xlink:href="#DejaVuSans-30" x="63.623047"/>
       <use xlink:href="#DejaVuSans-30" x="127.246094"/>
       <use xlink:href="#DejaVuSans-30" x="190.869141"/>
      </g>
     </g>
    </g>
    <g id="ytick_5">
     <g id="line2d_14">
      <g>
       <use xlink:href="#mcb2240053d" x="46.0125" y="112.12808" style="stroke: #000000; stroke-width: 0.8"/>
      </g>
     </g>
     <g id="text_14">
      <!-- 8000 -->
      <g transform="translate(13.5625 115.927298)scale(0.1 -0.1)">
       <defs>
        <path id="DejaVuSans-38" d="M 2034 2216 
Q 1584 2216 1326 1975 
Q 1069 1734 1069 1313 
Q 1069 891 1326 650 
Q 1584 409 2034 409 
Q 2484 409 2743 651 
Q 3003 894 3003 1313 
Q 3003 1734 2745 1975 
Q 2488 2216 2034 2216 
z
M 1403 2484 
Q 997 2584 770 2862 
Q 544 3141 544 3541 
Q 544 4100 942 4425 
Q 1341 4750 2034 4750 
Q 2731 4750 3128 4425 
Q 3525 4100 3525 3541 
Q 3525 3141 3298 2862 
Q 3072 2584 2669 2484 
Q 3125 2378 3379 2068 
Q 3634 1759 3634 1313 
Q 3634 634 3220 271 
Q 2806 -91 2034 -91 
Q 1263 -91 848 271 
Q 434 634 434 1313 
Q 434 1759 690 2068 
Q 947 2378 1403 2484 
z
M 1172 3481 
Q 1172 3119 1398 2916 
Q 1625 2713 2034 2713 
Q 2441 2713 2670 2916 
Q 2900 3119 2900 3481 
Q 2900 3844 2670 4047 
Q 2441 4250 2034 4250 
Q 1625 4250 1398 4047 
Q 1172 3844 1172 3481 
z
" transform="scale(0.015625)"/>
       </defs>
       <use xlink:href="#DejaVuSans-38"/>
       <use xlink:href="#DejaVuSans-30" x="63.623047"/>
       <use xlink:href="#DejaVuSans-30" x="127.246094"/>
       <use xlink:href="#DejaVuSans-30" x="190.869141"/>
      </g>
     </g>
    </g>
    <g id="ytick_6">
     <g id="line2d_15">
      <g>
       <use xlink:href="#mcb2240053d" x="46.0125" y="52.42771" style="stroke: #000000; stroke-width: 0.8"/>
      </g>
     </g>
     <g id="text_15">
      <!-- 10000 -->
      <g transform="translate(7.2 56.226928)scale(0.1 -0.1)">
       <use xlink:href="#DejaVuSans-31"/>
       <use xlink:href="#DejaVuSans-30" x="63.623047"/>
       <use xlink:href="#DejaVuSans-30" x="127.246094"/>
       <use xlink:href="#DejaVuSans-30" x="190.869141"/>
       <use xlink:href="#DejaVuSans-30" x="254.492188"/>
      </g>
     </g>
    </g>
   </g>
   <g id="line2d_16">
    <path d="M 106.885227 350.92956 
L 207.047991 350.92956 
L 208.240405 350.511657 
L 209.432819 350.89971 
L 211.817646 350.92956 
L 213.01006 350.571358 
L 214.202474 350.86986 
L 216.587302 350.89971 
L 217.779716 350.92956 
L 218.97213 350.840009 
L 220.164543 350.92956 
L 222.549371 350.840009 
L 223.741785 350.92956 
L 224.934199 350.86986 
L 226.126613 350.92956 
L 227.319027 350.451957 
L 228.51144 350.92956 
L 230.896268 350.422107 
L 232.088682 350.86986 
L 233.281096 350.89971 
L 234.47351 350.690758 
L 235.665924 350.92956 
L 236.858337 350.213156 
L 238.050751 348.451995 
L 239.243165 349.944504 
L 240.435579 350.95941 
L 241.627993 350.392257 
L 242.820407 350.213156 
L 244.012821 350.810159 
L 245.205234 348.541545 
L 246.397648 350.123605 
L 247.590062 350.183305 
L 248.782476 350.034054 
L 249.97489 349.168399 
L 251.167304 348.899747 
L 252.359718 350.362406 
L 253.552131 348.571395 
L 254.744545 348.243043 
L 255.936959 347.526639 
L 257.129373 346.272931 
L 258.321787 345.855029 
L 259.514201 345.287875 
L 260.706615 345.825178 
L 261.899028 343.795366 
L 263.091442 342.332707 
L 264.283856 344.929673 
L 265.47627 340.959598 
L 266.668684 342.631209 
L 267.861098 341.28795 
L 269.053511 344.571471 
L 270.245925 341.556602 
L 271.438339 341.2581 
L 272.630753 342.631209 
L 273.823167 343.467014 
L 275.015581 337.556677 
L 276.207995 342.780459 
L 277.400408 338.243231 
L 278.592822 337.467127 
L 279.785236 339.58649 
L 280.97765 333.437352 
L 282.170064 330.900086 
L 283.362478 338.213381 
L 284.554892 341.049149 
L 285.747305 338.362632 
L 286.939719 334.959711 
L 288.132133 334.87016 
L 289.324547 332.153794 
L 290.516961 337.97458 
L 291.709375 333.2284 
L 292.901789 334.392557 
L 294.094202 337.108924 
L 295.286616 336.720872 
L 296.47903 341.496901 
L 297.671444 336.541771 
L 298.863858 336.810422 
L 300.056272 328.840423 
L 301.248686 344.004317 
L 302.441099 342.183456 
L 303.633513 345.556527 
L 304.825927 344.840122 
L 306.018341 343.317763 
L 307.210755 347.70574 
L 308.403169 347.407238 
L 309.595583 348.840047 
L 310.787996 348.481845 
L 311.98041 346.631133 
L 313.172824 347.466939 
L 314.365238 347.466939 
L 315.557652 345.944579 
L 316.750066 347.914691 
L 317.94248 349.228099 
L 319.134893 346.272931 
L 320.327307 345.377426 
L 321.519721 346.452032 
L 322.712135 347.944541 
L 323.904549 346.541583 
L 325.096963 346.959485 
L 326.289377 347.67589 
L 327.48179 347.049036 
L 328.674204 346.780384 
L 329.866618 341.646152 
L 331.059032 344.661021 
L 332.251446 342.750609 
L 333.44386 344.243119 
L 334.636273 341.526752 
L 335.828687 343.586414 
L 337.021101 338.452183 
L 338.213515 343.198362 
L 339.405929 339.556639 
L 340.598343 340.183493 
L 341.790757 337.079074 
L 342.98317 339.64619 
L 344.175584 339.58649 
L 345.367998 340.840197 
L 346.560412 331.885142 
L 347.752826 336.48207 
L 348.94524 335.258213 
L 350.137654 333.19855 
L 351.330067 336.959673 
L 352.522481 331.795591 
L 353.714895 333.586602 
L 354.907309 320.601772 
L 356.099723 330.601584 
L 357.292137 329.825479 
L 358.484551 325.915105 
L 359.676964 332.004543 
L 360.869378 326.512109 
L 362.061792 328.750872 
L 363.254206 325.407652 
L 364.44662 324.512146 
L 365.639034 317.766004 
L 366.831448 323.258438 
L 368.023861 324.541996 
L 369.216275 314.482484 
L 370.408689 324.094244 
L 371.601103 319.019712 
L 372.793517 317.497353 
L 373.985931 314.273533 
L 375.178345 310.363159 
L 376.370758 319.855517 
L 377.563172 321.676379 
L 378.755586 321.706229 
L 379.948 324.004693 
L 383.525242 307.527391 
L 384.717655 315.079488 
L 385.910069 319.915218 
L 387.102483 316.004843 
L 388.294897 307.37814 
L 389.487311 304.990125 
L 390.679725 313.736229 
L 391.872139 290.632186 
L 393.064552 314.989937 
L 394.256966 311.378065 
L 395.44938 316.482446 
L 396.641794 310.452709 
L 397.834208 315.945143 
L 399.026622 306.243833 
L 400.219035 311.736267 
L 401.411449 314.900387 
L 402.603863 303.975219 
L 403.796277 310.60196 
L 404.988691 305.76623 
L 406.181105 304.393122 
L 407.373519 293.885856 
L 408.565932 269.677356 
L 409.758346 287.647168 
L 410.95076 283.677093 
L 412.143174 278.095108 
L 413.335588 304.631923 
L 414.528002 248.274774 
L 415.720416 220.663352 
L 416.912829 289.468029 
L 418.105243 201.439833 
L 419.297657 289.109827 
L 420.490071 230.125861 
L 421.682485 244.782302 
L 422.874899 272.184772 
L 424.067313 239.021216 
L 425.259726 219.827547 
L 426.45214 256.394024 
L 427.644554 263.110316 
L 428.836968 237.797359 
L 430.029382 258.602938 
L 431.221796 179.499947 
L 432.41421 242.364437 
L 433.606623 216.633577 
L 434.799037 284.512898 
L 435.991451 265.677432 
L 438.376279 333.914955 
L 439.568693 292.602298 
L 440.761107 280.363723 
L 441.95352 245.946459 
L 443.145934 276.065296 
L 444.338348 266.632637 
L 445.530762 263.378967 
L 447.91559 252.155298 
L 449.108004 259.856645 
L 450.300417 264.095372 
L 451.492831 268.752001 
L 452.685245 266.841589 
L 453.877659 274.184734 
L 455.070073 269.259454 
L 456.262487 274.244435 
L 457.4549 293.826156 
L 458.647314 287.915819 
L 459.839728 292.8411 
L 461.032142 306.840837 
L 462.224556 315.198888 
L 463.41697 335.944767 
L 464.609384 307.885593 
L 465.801797 288.154621 
L 466.994211 292.87095 
L 468.186625 300.96035 
L 469.379039 301.109601 
L 470.571453 291.826194 
L 471.763867 297.497729 
L 472.956281 292.7814 
L 474.148694 302.751361 
L 475.341108 300.094695 
L 476.533522 309.736305 
L 477.725936 313.467578 
L 478.91835 306.930387 
L 480.110764 350.92956 
L 481.303178 267.528143 
L 482.495591 310.840761 
L 483.688005 312.960125 
L 484.880419 320.36297 
L 486.072833 318.213757 
L 487.265247 320.661472 
L 488.457661 309.676604 
L 489.650075 319.407765 
L 490.842488 314.601885 
L 492.034902 319.765967 
L 493.227316 324.094244 
L 494.41973 326.153906 
L 495.612144 326.422558 
L 496.804558 322.989787 
L 497.996972 328.959824 
L 499.189385 327.765816 
L 500.381799 327.586715 
L 501.574213 329.735929 
L 502.766627 333.377651 
L 503.959041 328.780723 
L 505.151455 329.377726 
L 506.343869 328.750872 
L 507.536282 332.631397 
L 508.728696 332.780647 
L 509.92111 336.004467 
L 511.113524 336.571621 
L 512.305938 331.258288 
L 513.498352 329.795629 
L 514.690766 335.676115 
L 515.883179 334.989561 
L 517.075593 338.213381 
L 518.268007 338.422332 
L 519.460421 338.362632 
L 520.652835 338.899935 
L 521.845249 335.347763 
L 523.037662 338.720834 
L 524.230076 338.631284 
L 525.42249 334.392557 
L 526.614904 340.123793 
L 527.807318 343.198362 
L 528.999732 336.36267 
L 530.192146 338.09398 
L 531.384559 337.646228 
L 532.576973 338.899935 
L 533.769387 342.87001 
L 534.961801 343.765516 
L 536.154215 342.989411 
L 537.346629 341.3178 
L 538.539043 340.541696 
L 539.731456 341.437201 
L 540.92387 340.899898 
L 542.116284 341.914804 
L 543.308698 344.004317 
L 544.501112 342.87001 
L 545.693526 340.810347 
L 546.88594 341.884954 
L 548.078353 342.481958 
L 549.270767 344.571471 
L 550.463181 346.243081 
L 551.655595 347.67589 
L 552.848009 347.795291 
L 554.040423 346.183381 
L 555.232837 345.825178 
L 556.42525 346.690834 
L 557.617664 345.825178 
L 558.810078 347.795291 
L 560.002492 347.974392 
L 561.194906 347.377388 
L 562.38732 347.049036 
L 563.579734 346.15353 
L 564.772147 346.929635 
L 565.964561 348.511695 
L 567.156975 347.138586 
L 568.349389 349.228099 
L 569.541803 347.825141 
L 570.734217 347.287837 
L 571.926631 347.795291 
L 573.119044 347.198287 
L 574.311458 348.063942 
L 575.503872 348.034092 
L 577.8887 348.541545 
L 579.081114 347.198287 
L 581.465941 348.123643 
L 582.658355 347.586339 
L 583.850769 347.586339 
L 585.043183 348.511695 
L 587.428011 348.750496 
L 588.620424 348.601246 
L 589.812838 348.332594 
L 591.005252 347.73559 
L 592.197666 347.347538 
L 593.39008 349.526601 
L 595.774908 348.272894 
L 596.967321 349.168399 
L 598.159735 347.825141 
L 599.352149 348.034092 
L 600.544563 349.496751 
L 601.736977 349.138549 
L 602.929391 349.3475 
L 604.121805 348.571395 
L 605.314218 347.526639 
L 606.506632 348.123643 
L 607.699046 347.73559 
L 608.89146 347.198287 
L 610.083874 348.571395 
L 611.276288 348.631096 
L 612.468702 346.452032 
L 613.661115 345.317725 
L 614.853529 346.601283 
L 616.045943 347.347538 
L 617.238357 346.272931 
L 618.430771 348.392294 
L 619.623185 348.272894 
L 620.815599 346.720684 
L 622.008012 345.944579 
L 623.200426 346.09383 
L 624.39284 346.392332 
L 625.585254 345.586377 
L 626.777668 347.108736 
L 627.970082 345.675927 
L 629.162496 342.989411 
L 630.354909 343.168512 
L 632.739737 341.019299 
L 633.932151 342.332707 
L 635.124565 340.870048 
L 636.316979 341.884954 
L 637.509393 336.123868 
L 638.701806 337.198475 
L 639.89422 333.616453 
L 641.086634 336.302969 
L 642.279048 325.974805 
L 643.471462 328.004618 
L 644.663876 320.631622 
L 645.85629 314.303383 
L 647.048703 301.169302 
L 648.241117 284.662149 
L 649.433531 280.333872 
L 650.625945 277.826457 
L 651.818359 276.722 
L 653.010773 260.423799 
L 654.203186 248.185223 
L 655.3956 220.663352 
L 656.588014 208.424777 
L 657.780428 206.723316 
L 658.972842 182.067063 
L 660.165256 180.604404 
L 661.35767 137.888789 
L 662.550083 130.396393 
L 663.742497 124.456206 
L 664.934911 94.068718 
L 666.127325 83.1734 
L 667.319739 81.59134 
L 668.512153 103.561077 
L 669.704567 88.934486 
L 670.89698 78.486921 
L 672.089394 72.815386 
L 673.281808 75.173551 
L 676.85905 110.754971 
L 678.051464 132.545606 
L 679.243877 76.367558 
L 680.436291 108.068455 
L 681.628705 110.217668 
L 682.821119 105.352088 
L 685.205947 94.48662 
L 686.398361 124.127854 
L 687.590774 135.411224 
L 688.783188 100.576058 
L 689.975602 151.619874 
L 691.168016 150.007965 
L 692.36043 146.306542 
L 693.552844 222.245412 
L 694.745258 240.424175 
L 695.937671 226.215487 
L 697.130085 193.171332 
L 698.322499 215.887323 
L 699.514913 177.052232 
L 700.707327 212.902304 
L 701.899741 245.259905 
L 703.092155 260.6626 
L 704.284568 250.334436 
L 705.476982 235.409344 
L 706.669396 247.976272 
L 707.86181 265.140128 
L 709.054224 270.065409 
L 710.246638 279.826419 
L 711.439052 300.363347 
L 712.631465 289.766531 
L 713.823879 300.751399 
L 715.016293 290.811287 
L 716.208707 298.154433 
L 717.401121 292.333647 
L 719.785948 308.512447 
L 720.978362 303.646867 
L 722.170776 240.394325 
L 723.36319 305.82593 
L 724.555604 303.855818 
L 725.748018 299.557392 
L 726.940432 315.885443 
L 728.132845 310.54226 
L 729.325259 305.885631 
L 730.517673 299.34844 
L 731.710087 294.54256 
L 732.902501 295.497766 
L 734.094915 309.407953 
L 735.287329 305.348327 
L 736.479742 319.825667 
L 737.672156 298.840987 
L 738.86457 299.646942 
L 740.056984 288.930726 
L 741.249398 314.572035 
L 742.441812 306.781136 
L 744.826639 314.004881 
L 746.019053 300.482747 
L 747.211467 302.005107 
L 748.403881 290.930688 
L 749.596295 297.73653 
L 750.788709 291.050089 
L 751.981123 311.825818 
L 753.173536 314.422784 
L 754.36595 301.915556 
L 755.558364 285.199453 
L 756.750778 293.676905 
L 757.943192 295.557467 
L 759.135606 291.766493 
L 760.32802 282.005483 
L 761.520433 304.990125 
L 762.712847 279.557768 
L 763.905261 269.557956 
L 765.097675 272.304173 
L 766.290089 281.229378 
L 767.482503 277.289153 
L 768.674917 282.871138 
L 769.86733 291.796343 
L 771.059744 282.900988 
L 772.252158 277.856307 
L 773.444572 262.125259 
L 774.636986 261.170054 
L 775.8294 278.39361 
L 777.021814 284.333797 
L 778.214227 287.139715 
L 779.406641 273.050427 
L 780.599055 255.588069 
L 781.791469 272.841476 
L 782.983883 277.110052 
L 784.176297 268.453499 
L 785.36871 292.81125 
L 786.561124 297.408178 
L 787.753538 274.333985 
L 788.945952 277.617506 
L 790.138366 272.931026 
L 791.33078 281.647281 
L 792.523194 288.871025 
L 793.715607 308.422896 
L 794.908021 300.124545 
L 796.100435 304.721474 
L 797.292849 290.632186 
L 798.485263 295.348515 
L 799.677677 289.67698 
L 800.870091 303.855818 
L 802.062504 305.676679 
L 803.254918 314.691435 
L 804.447332 294.154508 
L 805.639746 305.467728 
L 806.83216 301.736455 
L 808.024574 302.60211 
L 809.216988 310.422859 
L 810.409401 320.36297 
L 811.601815 321.795779 
L 812.794229 306.512485 
L 813.986643 308.452747 
L 815.179057 310.721361 
L 816.371471 319.348064 
L 817.563885 322.243532 
L 818.756298 327.735966 
L 819.948712 325.915105 
L 821.141126 316.631697 
L 822.33354 315.706342 
L 823.525954 311.169114 
L 824.718368 316.154094 
L 825.910782 318.512259 
L 827.103195 326.004655 
L 828.295609 331.347839 
L 829.488023 321.82563 
L 830.680437 320.004768 
L 831.872851 313.586978 
L 833.065265 322.840536 
L 834.257679 318.004806 
L 835.450092 327.347914 
L 836.642506 329.138925 
L 837.83492 321.82563 
L 839.027334 323.944993 
L 840.219748 324.303195 
L 841.412162 324.124094 
L 842.604576 324.124094 
L 843.796989 331.258288 
L 844.989403 333.795554 
L 846.181817 326.69121 
L 847.374231 328.183719 
L 848.566645 325.586753 
L 849.759059 331.019487 
L 850.951472 329.586678 
L 853.3363 334.064205 
L 854.528714 331.138887 
L 855.721128 330.303082 
L 856.913542 341.1984 
L 858.105956 339.049186 
L 859.298369 343.765516 
L 860.490783 346.869935 
L 861.683197 339.437239 
L 862.875611 335.317913 
L 864.068025 322.362933 
L 865.260439 334.959711 
L 866.452853 336.899973 
L 867.645266 333.795554 
L 868.83768 337.855179 
L 870.030094 335.347763 
L 871.222508 330.840385 
L 872.414922 333.944805 
L 873.607336 333.556752 
L 874.79975 335.198512 
L 875.992163 336.302969 
L 877.184577 342.064055 
L 878.376991 339.70589 
L 879.569405 337.765628 
L 880.761819 338.332782 
L 881.954233 339.138737 
L 884.33906 345.735628 
L 885.531474 347.108736 
L 886.723888 346.720684 
L 887.916302 339.855141 
L 889.108716 337.705928 
L 890.30113 339.377538 
L 891.493544 341.944654 
L 892.685957 340.332744 
L 893.878371 343.168512 
L 895.070785 342.243156 
L 896.263199 339.974542 
L 897.455613 340.810347 
L 898.648027 340.093943 
L 899.840441 342.81031 
L 901.032854 342.84016 
L 902.225268 344.690871 
L 903.417682 344.004317 
L 904.610096 339.974542 
L 905.80251 341.586452 
L 906.994924 341.825254 
L 908.187338 342.541658 
L 909.379751 343.705815 
L 911.764579 346.332631 
L 912.956993 343.675965 
L 914.149407 343.616265 
L 915.341821 342.422257 
L 916.534234 342.034205 
L 917.726648 344.272969 
L 918.919062 344.362519 
L 920.111476 344.959523 
L 922.496304 342.81031 
L 923.688718 343.317763 
L 924.881131 345.049074 
L 926.073545 344.004317 
L 927.265959 345.138624 
L 928.458373 343.705815 
L 929.650787 341.586452 
L 930.843201 344.093868 
L 932.035615 343.407313 
L 933.228028 346.15353 
L 934.420442 342.89986 
L 935.612856 346.213231 
L 936.80527 346.959485 
L 937.997684 344.42222 
L 939.190098 343.407313 
L 940.382512 344.45207 
L 941.574925 343.735665 
L 942.767339 343.855066 
L 943.959753 346.243081 
L 945.152167 344.571471 
L 946.344581 343.437164 
L 947.536995 343.735665 
L 948.729409 344.690871 
L 949.921822 343.914766 
L 951.114236 344.243119 
L 952.30665 340.720797 
L 953.499064 344.571471 
L 954.691478 342.243156 
L 955.883892 340.332744 
L 957.076306 339.884992 
L 958.268719 336.661172 
L 959.461133 333.855254 
L 960.653547 330.153831 
L 961.845961 325.825554 
L 963.038375 310.422859 
L 964.230789 291.796343 
L 966.615616 263.707319 
L 967.80803 225.439382 
L 969.000444 240.394325 
L 970.192858 215.588821 
L 971.385272 179.380547 
L 972.577686 90.337445 
L 973.7701 67.293102 
L 974.962513 50.8755 
L 976.154927 87.800179 
L 977.347341 105.79984 
L 978.539755 183.828224 
L 979.732169 110.51617 
L 980.924583 69.382615 
L 982.116996 184.634179 
L 983.30941 177.320884 
L 984.501824 207.439721 
L 985.694238 251.886646 
L 986.886652 259.916346 
L 988.079066 247.289718 
L 989.27148 241.767433 
L 990.463893 285.109902 
L 991.656307 269.080353 
L 992.848721 303.109564 
L 994.041135 318.004806 
L 995.233549 315.616791 
L 996.425963 320.422671 
L 997.618377 315.586941 
L 998.81079 295.676867 
L 1000.003204 320.691323 
L 1001.195618 331.049337 
L 1002.388032 336.273119 
L 1003.580446 338.183531 
L 1004.77286 336.541771 
L 1005.965274 336.064168 
L 1007.157687 337.377576 
L 1009.542515 342.720759 
L 1010.734929 345.019223 
L 1011.927343 344.093868 
L 1013.119757 343.556564 
L 1014.312171 342.004355 
L 1015.504584 343.287913 
L 1016.696998 346.422182 
L 1017.889412 346.213231 
L 1019.081826 347.914691 
L 1020.27424 348.123643 
L 1021.466654 347.377388 
L 1022.659068 348.183343 
L 1023.851481 347.257987 
L 1025.043895 348.840047 
L 1026.236309 347.616189 
L 1027.428723 348.929598 
L 1028.621137 349.31765 
L 1029.813551 348.959448 
L 1031.005965 348.720646 
L 1032.198378 348.899747 
L 1033.390792 348.631096 
L 1034.583206 349.078848 
L 1035.77562 350.034054 
L 1036.968034 349.168399 
L 1038.160448 349.437051 
L 1039.352861 349.228099 
L 1042.930103 350.571358 
L 1044.122517 350.690758 
L 1045.314931 350.093755 
L 1046.507345 349.705702 
L 1047.699758 349.884803 
L 1050.084586 349.974354 
L 1051.277 350.571358 
L 1052.469414 350.690758 
L 1053.661828 350.481807 
L 1054.854242 350.481807 
L 1056.046655 350.034054 
L 1057.239069 350.183305 
L 1058.431483 350.213156 
L 1060.816311 350.631058 
L 1062.008725 350.243006 
L 1063.201139 349.974354 
L 1065.585966 350.631058 
L 1066.77838 350.720609 
L 1069.163208 350.571358 
L 1070.355622 350.840009 
L 1071.548036 350.272856 
L 1072.740449 350.243006 
L 1073.932863 350.481807 
L 1075.125277 350.840009 
L 1076.317691 350.511657 
L 1077.510105 350.750459 
L 1078.702519 350.601208 
L 1081.087346 350.631058 
L 1082.27976 350.660908 
L 1083.472174 350.571358 
L 1084.664588 350.660908 
L 1085.857002 350.392257 
L 1087.049416 350.601208 
L 1088.24183 350.362406 
L 1089.434243 350.690758 
L 1090.626657 350.690758 
L 1091.819071 350.481807 
L 1093.011485 350.541508 
L 1094.203899 350.810159 
L 1095.396313 350.392257 
L 1096.588727 350.690758 
L 1097.78114 350.063905 
L 1098.973554 350.362406 
L 1100.165968 350.481807 
L 1101.358382 350.481807 
L 1102.550796 350.601208 
L 1103.74321 350.422107 
L 1104.935623 350.750459 
L 1107.320451 350.392257 
L 1108.512865 350.810159 
L 1109.705279 350.720609 
L 1110.897693 350.86986 
L 1112.090107 350.720609 
L 1113.28252 350.750459 
L 1114.474934 350.392257 
L 1115.667348 350.750459 
L 1116.859762 350.571358 
L 1121.629417 350.690758 
L 1122.821831 350.601208 
L 1124.014245 350.810159 
L 1125.206659 350.511657 
L 1127.591487 350.780309 
L 1128.783901 350.660908 
L 1129.976314 350.780309 
L 1134.74597 350.362406 
L 1135.938384 350.690758 
L 1138.323211 350.720609 
L 1140.708039 350.631058 
L 1141.900453 350.571358 
L 1143.092867 350.720609 
L 1145.477695 350.601208 
L 1147.862522 350.720609 
L 1149.054936 350.362406 
L 1150.24735 350.571358 
L 1151.439764 350.213156 
L 1152.632178 350.601208 
L 1153.824592 350.392257 
L 1155.017005 350.332556 
L 1156.209419 350.511657 
L 1157.401833 350.093755 
L 1158.594247 349.944504 
L 1159.786661 349.974354 
L 1160.979075 350.243006 
L 1162.171489 350.302706 
L 1163.363902 349.854953 
L 1164.556316 349.795253 
L 1165.74873 349.407201 
L 1166.941144 349.854953 
L 1169.325972 349.944504 
L 1170.518385 349.765403 
L 1171.710799 349.914654 
L 1172.903213 348.750496 
L 1174.095627 348.243043 
L 1175.288041 349.138549 
L 1176.480455 348.451995 
L 1177.672869 348.780347 
L 1178.865282 347.825141 
L 1180.057696 347.078886 
L 1181.25011 346.631133 
L 1183.634938 344.54162 
L 1184.827352 346.12368 
L 1186.019766 346.392332 
L 1187.212179 347.526639 
L 1188.404593 339.407389 
L 1189.597007 342.92971 
L 1190.789421 340.780497 
L 1191.981835 341.467051 
L 1193.174249 339.467089 
L 1194.366663 344.48192 
L 1195.559076 341.884954 
L 1196.75149 337.407426 
L 1197.943904 338.989486 
L 1199.136318 338.452183 
L 1200.328732 335.288063 
L 1201.521146 339.258138 
L 1202.71356 342.213306 
L 1203.905973 336.123868 
L 1205.098387 332.064243 
L 1206.290801 335.735816 
L 1207.483215 333.317951 
L 1208.675629 336.183569 
L 1209.868043 335.138812 
L 1211.060457 341.1984 
L 1212.25287 337.467127 
L 1213.445284 336.064168 
L 1214.637698 334.213456 
L 1215.830112 336.123868 
L 1217.022526 337.049224 
L 1218.21494 338.422332 
L 1219.407354 346.09383 
L 1220.599767 341.825254 
L 1221.792181 338.183531 
L 1222.984595 339.019336 
L 1224.177009 335.079112 
L 1225.369423 344.243119 
L 1226.561837 343.586414 
L 1227.754251 345.556527 
L 1228.946664 344.899823 
L 1230.139078 338.840235 
L 1231.331492 340.690947 
L 1232.523906 343.705815 
L 1233.71632 344.631171 
L 1234.908734 346.06398 
L 1236.101147 348.989298 
L 1237.293561 346.03413 
L 1238.485975 346.601283 
L 1239.678389 346.660984 
L 1240.870803 344.243119 
L 1244.448044 348.183343 
L 1245.640458 347.466939 
L 1246.832872 347.287837 
L 1248.025286 345.646077 
L 1249.2177 347.108736 
L 1250.410114 346.840085 
L 1251.602528 347.64604 
L 1252.794941 347.586339 
L 1253.987355 348.272894 
L 1255.179769 347.138586 
L 1256.372183 348.332594 
L 1257.564597 348.272894 
L 1259.949425 349.138549 
L 1261.141838 349.884803 
L 1262.334252 350.183305 
L 1263.526666 348.690796 
L 1264.71908 349.765403 
L 1265.911494 349.765403 
L 1267.103908 349.168399 
L 1268.296322 349.3475 
L 1269.488735 350.063905 
L 1270.681149 349.735553 
L 1271.873563 349.765403 
L 1273.065977 349.675852 
L 1274.258391 350.004204 
L 1275.450805 350.183305 
L 1276.643219 350.034054 
L 1277.835632 350.422107 
L 1279.028046 350.92956 
L 1280.22046 350.034054 
L 1281.412874 349.735553 
L 1282.605288 350.631058 
L 1284.990116 350.601208 
L 1286.182529 350.750459 
L 1287.374943 350.332556 
L 1288.567357 350.183305 
L 1290.952185 349.586302 
L 1294.529426 349.586302 
L 1295.72184 350.093755 
L 1296.914254 349.735553 
L 1299.299082 349.675852 
L 1300.491496 349.437051 
L 1302.876323 349.646002 
L 1304.068737 349.765403 
L 1305.261151 349.735553 
L 1306.453565 350.511657 
L 1307.645979 350.511657 
L 1307.645979 350.511657 
" clip-path="url(#p6d7e544d53)" style="fill: none; stroke: #0000ff; stroke-width: 1.5; stroke-linecap: square"/>
   </g>
   <g id="line2d_17">
    <path d="M 1067.970794 352.713392 
L 1069.163208 353.2755 
L 1070.355622 352.044437 
L 1071.548036 348.677185 
L 1072.740449 347.179327 
L 1073.932863 350.907835 
L 1075.125277 351.135739 
L 1076.317691 352.31961 
L 1077.510105 352.758077 
L 1078.702519 351.893215 
L 1079.894933 348.897488 
L 1081.087346 347.906426 
L 1082.27976 351.185449 
L 1083.472174 351.354543 
L 1084.664588 351.935072 
L 1085.857002 352.372362 
L 1087.049416 351.453382 
L 1088.24183 349.074997 
L 1089.434243 348.159222 
L 1090.626657 351.016296 
L 1091.819071 351.241284 
L 1093.011485 351.68062 
L 1094.203899 351.937607 
L 1095.396313 351.506646 
L 1096.588727 349.346195 
L 1097.78114 348.763184 
L 1098.973554 350.652677 
L 1100.165968 350.693439 
L 1101.358382 351.277772 
L 1102.550796 351.663597 
L 1103.74321 351.199779 
L 1104.935623 349.521423 
L 1106.128037 349.079261 
L 1107.320451 350.961505 
L 1108.512865 350.877681 
L 1109.705279 351.402552 
L 1110.897693 351.734791 
L 1112.090107 351.357171 
L 1113.28252 350.01879 
L 1114.474934 349.470358 
L 1115.667348 350.765452 
L 1119.24459 351.426211 
L 1120.437004 350.992919 
L 1121.629417 350.048134 
L 1122.821831 349.612933 
L 1124.014245 350.869558 
L 1127.591487 351.314768 
L 1128.783901 351.077026 
L 1129.976314 350.185065 
L 1131.168728 349.830993 
L 1132.361142 350.921024 
L 1133.553556 350.837285 
L 1134.74597 351.011278 
L 1135.938384 351.005881 
L 1137.130798 350.832476 
L 1138.323211 350.218251 
L 1139.515625 349.954618 
L 1140.708039 350.877787 
L 1143.092867 350.928727 
L 1144.285281 351.156126 
L 1145.477695 350.916502 
L 1146.670108 350.287793 
L 1147.862522 350.012501 
L 1149.054936 350.803906 
L 1150.24735 350.628994 
L 1151.439764 350.775106 
L 1153.824592 350.635704 
L 1155.017005 350.154846 
L 1156.209419 349.859845 
L 1157.401833 350.48641 
L 1159.786661 350.199341 
L 1162.171489 350.244256 
L 1163.363902 350.01735 
L 1164.556316 349.633163 
L 1165.74873 349.83025 
L 1166.941144 349.564913 
L 1169.325972 350.146389 
L 1170.518385 350.072869 
L 1171.710799 349.600172 
L 1172.903213 349.512777 
L 1174.095627 349.13434 
L 1175.288041 348.485638 
L 1176.480455 348.809522 
L 1177.672869 348.856638 
L 1178.865282 348.739738 
L 1180.057696 347.907541 
L 1181.25011 346.89363 
L 1182.442524 346.509581 
L 1183.634938 345.946668 
L 1184.827352 344.830393 
L 1186.019766 345.504379 
L 1187.212179 346.02699 
L 1188.404593 346.844185 
L 1189.597007 342.032963 
L 1190.789421 341.316257 
L 1191.981835 340.738437 
L 1193.174249 341.180494 
L 1194.366663 340.136203 
L 1195.559076 342.535961 
L 1196.75149 341.61332 
L 1197.943904 339.048977 
L 1199.136318 337.934853 
L 1200.328732 338.136589 
L 1201.521146 336.232309 
L 1202.71356 338.212991 
L 1203.905973 340.779026 
L 1206.290801 333.533211 
L 1207.483215 333.61068 
L 1208.675629 333.249182 
L 1209.868043 335.288097 
L 1211.060457 336.332345 
L 1212.25287 338.645311 
L 1213.445284 337.199837 
L 1214.637698 337.169781 
L 1215.830112 334.681546 
L 1217.022526 335.287012 
L 1218.21494 336.73337 
L 1219.407354 339.476299 
L 1220.599767 342.971175 
L 1221.792181 342.16137 
L 1222.984595 340.22568 
L 1224.177009 338.822102 
L 1225.369423 336.517102 
L 1227.754251 345.655683 
L 1228.946664 345.034614 
L 1230.139078 343.638751 
L 1231.331492 341.188592 
L 1232.523906 339.707396 
L 1233.71632 343.132514 
L 1234.908734 344.922142 
L 1236.101147 347.774172 
L 1237.293561 347.746449 
L 1238.485975 345.252054 
L 1239.678389 346.514469 
L 1240.870803 346.767792 
L 1242.063217 346.362839 
L 1243.255631 345.826126 
L 1244.448044 348.118137 
L 1245.640458 347.093355 
L 1246.832872 345.894913 
L 1248.025286 347.224319 
L 1249.2177 346.117457 
L 1250.410114 347.508779 
L 1251.602528 347.608672 
L 1252.794941 349.165478 
L 1253.987355 347.057461 
L 1255.179769 346.373929 
L 1257.564597 347.8864 
L 1258.757011 349.089031 
L 1259.949425 349.39784 
L 1261.141838 350.527933 
L 1262.334252 349.313609 
L 1263.526666 348.685427 
L 1265.911494 349.4291 
L 1267.103908 350.428988 
L 1268.296322 350.13255 
L 1269.488735 350.607251 
L 1271.873563 348.4487 
L 1273.065977 349.573362 
L 1274.258391 349.709305 
L 1275.450805 350.420078 
L 1276.643219 350.660136 
L 1277.835632 351.272435 
L 1279.028046 350.077753 
L 1280.22046 349.587985 
L 1281.412874 350.210566 
L 1282.605288 349.932643 
L 1283.797702 350.709419 
L 1284.990116 351.021156 
L 1286.182529 351.643734 
L 1288.567357 349.467672 
L 1289.759771 350.000278 
L 1292.144599 350.060904 
L 1293.337013 349.86044 
L 1294.529426 350.356171 
L 1295.72184 349.402738 
L 1296.914254 348.976775 
L 1298.106668 349.598407 
L 1300.491496 349.992315 
L 1301.683909 349.810247 
L 1302.876323 350.111611 
L 1305.261151 348.952798 
L 1306.453565 349.528909 
L 1307.645979 350.264644 
L 1307.645979 350.264644 
" clip-path="url(#p6d7e544d53)" style="fill: none; stroke: #ffa500; stroke-width: 1.5; stroke-linecap: square"/>
   </g>
   <g id="line2d_18">
    <path d="M 1308.838393 350.801702 
L 1310.030806 351.053757 
L 1311.22322 351.607949 
L 1312.415634 351.461727 
L 1313.608048 351.012714 
L 1314.800462 351.199785 
L 1315.992876 351.233615 
L 1317.18529 351.455715 
L 1318.377703 351.627302 
L 1319.570117 352.109869 
L 1320.762531 351.942342 
L 1321.954945 351.501546 
L 1323.147359 351.653619 
L 1324.339773 351.667238 
" clip-path="url(#p6d7e544d53)" style="fill: none; stroke: #ff0000; stroke-width: 1.5; stroke-linecap: square"/>
   </g>
   <g id="patch_3">
    <path d="M 46.0125 368.3955 
L 46.0125 35.7555 
" style="fill: none; stroke: #000000; stroke-width: 0.8; stroke-linejoin: miter; stroke-linecap: square"/>
   </g>
   <g id="patch_4">
    <path d="M 1385.2125 368.3955 
L 1385.2125 35.7555 
" style="fill: none; stroke: #000000; stroke-width: 0.8; stroke-linejoin: miter; stroke-linecap: square"/>
   </g>
   <g id="patch_5">
    <path d="M 46.0125 368.3955 
L 1385.2125 368.3955 
" style="fill: none; stroke: #000000; stroke-width: 0.8; stroke-linejoin: miter; stroke-linecap: square"/>
   </g>
   <g id="patch_6">
    <path d="M 46.0125 35.7555 
L 1385.2125 35.7555 
" style="fill: none; stroke: #000000; stroke-width: 0.8; stroke-linejoin: miter; stroke-linecap: square"/>
   </g>
   <g id="text_16">
    <!-- Daily Confirmed Cases Forecasting - Nepal -->
    <g transform="translate(587.77875 16.318125)scale(0.12 -0.12)">
     <defs>
      <path id="DejaVuSans-44" d="M 1259 4147 
L 1259 519 
L 2022 519 
Q 2988 519 3436 956 
Q 3884 1394 3884 2338 
Q 3884 3275 3436 3711 
Q 2988 4147 2022 4147 
L 1259 4147 
z
M 628 4666 
L 1925 4666 
Q 3281 4666 3915 4102 
Q 4550 3538 4550 2338 
Q 4550 1131 3912 565 
Q 3275 0 1925 0 
L 628 0 
L 628 4666 
z
" transform="scale(0.015625)"/>
      <path id="DejaVuSans-61" d="M 2194 1759 
Q 1497 1759 1228 1600 
Q 959 1441 959 1056 
Q 959 750 1161 570 
Q 1363 391 1709 391 
Q 2188 391 2477 730 
Q 2766 1069 2766 1631 
L 2766 1759 
L 2194 1759 
z
M 3341 1997 
L 3341 0 
L 2766 0 
L 2766 531 
Q 2569 213 2275 61 
Q 1981 -91 1556 -91 
Q 1019 -91 701 211 
Q 384 513 384 1019 
Q 384 1609 779 1909 
Q 1175 2209 1959 2209 
L 2766 2209 
L 2766 2266 
Q 2766 2663 2505 2880 
Q 2244 3097 1772 3097 
Q 1472 3097 1187 3025 
Q 903 2953 641 2809 
L 641 3341 
Q 956 3463 1253 3523 
Q 1550 3584 1831 3584 
Q 2591 3584 2966 3190 
Q 3341 2797 3341 1997 
z
" transform="scale(0.015625)"/>
      <path id="DejaVuSans-69" d="M 603 3500 
L 1178 3500 
L 1178 0 
L 603 0 
L 603 3500 
z
M 603 4863 
L 1178 4863 
L 1178 4134 
L 603 4134 
L 603 4863 
z
" transform="scale(0.015625)"/>
      <path id="DejaVuSans-6c" d="M 603 4863 
L 1178 4863 
L 1178 0 
L 603 0 
L 603 4863 
z
" transform="scale(0.015625)"/>
      <path id="DejaVuSans-79" d="M 2059 -325 
Q 1816 -950 1584 -1140 
Q 1353 -1331 966 -1331 
L 506 -1331 
L 506 -850 
L 844 -850 
Q 1081 -850 1212 -737 
Q 1344 -625 1503 -206 
L 1606 56 
L 191 3500 
L 800 3500 
L 1894 763 
L 2988 3500 
L 3597 3500 
L 2059 -325 
z
" transform="scale(0.015625)"/>
      <path id="DejaVuSans-20" transform="scale(0.015625)"/>
      <path id="DejaVuSans-43" d="M 4122 4306 
L 4122 3641 
Q 3803 3938 3442 4084 
Q 3081 4231 2675 4231 
Q 1875 4231 1450 3742 
Q 1025 3253 1025 2328 
Q 1025 1406 1450 917 
Q 1875 428 2675 428 
Q 3081 428 3442 575 
Q 3803 722 4122 1019 
L 4122 359 
Q 3791 134 3420 21 
Q 3050 -91 2638 -91 
Q 1578 -91 968 557 
Q 359 1206 359 2328 
Q 359 3453 968 4101 
Q 1578 4750 2638 4750 
Q 3056 4750 3426 4639 
Q 3797 4528 4122 4306 
z
" transform="scale(0.015625)"/>
      <path id="DejaVuSans-6f" d="M 1959 3097 
Q 1497 3097 1228 2736 
Q 959 2375 959 1747 
Q 959 1119 1226 758 
Q 1494 397 1959 397 
Q 2419 397 2687 759 
Q 2956 1122 2956 1747 
Q 2956 2369 2687 2733 
Q 2419 3097 1959 3097 
z
M 1959 3584 
Q 2709 3584 3137 3096 
Q 3566 2609 3566 1747 
Q 3566 888 3137 398 
Q 2709 -91 1959 -91 
Q 1206 -91 779 398 
Q 353 888 353 1747 
Q 353 2609 779 3096 
Q 1206 3584 1959 3584 
z
" transform="scale(0.015625)"/>
      <path id="DejaVuSans-6e" d="M 3513 2113 
L 3513 0 
L 2938 0 
L 2938 2094 
Q 2938 2591 2744 2837 
Q 2550 3084 2163 3084 
Q 1697 3084 1428 2787 
Q 1159 2491 1159 1978 
L 1159 0 
L 581 0 
L 581 3500 
L 1159 3500 
L 1159 2956 
Q 1366 3272 1645 3428 
Q 1925 3584 2291 3584 
Q 2894 3584 3203 3211 
Q 3513 2838 3513 2113 
z
" transform="scale(0.015625)"/>
      <path id="DejaVuSans-66" d="M 2375 4863 
L 2375 4384 
L 1825 4384 
Q 1516 4384 1395 4259 
Q 1275 4134 1275 3809 
L 1275 3500 
L 2222 3500 
L 2222 3053 
L 1275 3053 
L 1275 0 
L 697 0 
L 697 3053 
L 147 3053 
L 147 3500 
L 697 3500 
L 697 3744 
Q 697 4328 969 4595 
Q 1241 4863 1831 4863 
L 2375 4863 
z
" transform="scale(0.015625)"/>
      <path id="DejaVuSans-72" d="M 2631 2963 
Q 2534 3019 2420 3045 
Q 2306 3072 2169 3072 
Q 1681 3072 1420 2755 
Q 1159 2438 1159 1844 
L 1159 0 
L 581 0 
L 581 3500 
L 1159 3500 
L 1159 2956 
Q 1341 3275 1631 3429 
Q 1922 3584 2338 3584 
Q 2397 3584 2469 3576 
Q 2541 3569 2628 3553 
L 2631 2963 
z
" transform="scale(0.015625)"/>
      <path id="DejaVuSans-6d" d="M 3328 2828 
Q 3544 3216 3844 3400 
Q 4144 3584 4550 3584 
Q 5097 3584 5394 3201 
Q 5691 2819 5691 2113 
L 5691 0 
L 5113 0 
L 5113 2094 
Q 5113 2597 4934 2840 
Q 4756 3084 4391 3084 
Q 3944 3084 3684 2787 
Q 3425 2491 3425 1978 
L 3425 0 
L 2847 0 
L 2847 2094 
Q 2847 2600 2669 2842 
Q 2491 3084 2119 3084 
Q 1678 3084 1418 2786 
Q 1159 2488 1159 1978 
L 1159 0 
L 581 0 
L 581 3500 
L 1159 3500 
L 1159 2956 
Q 1356 3278 1631 3431 
Q 1906 3584 2284 3584 
Q 2666 3584 2933 3390 
Q 3200 3197 3328 2828 
z
" transform="scale(0.015625)"/>
      <path id="DejaVuSans-65" d="M 3597 1894 
L 3597 1613 
L 953 1613 
Q 991 1019 1311 708 
Q 1631 397 2203 397 
Q 2534 397 2845 478 
Q 3156 559 3463 722 
L 3463 178 
Q 3153 47 2828 -22 
Q 2503 -91 2169 -91 
Q 1331 -91 842 396 
Q 353 884 353 1716 
Q 353 2575 817 3079 
Q 1281 3584 2069 3584 
Q 2775 3584 3186 3129 
Q 3597 2675 3597 1894 
z
M 3022 2063 
Q 3016 2534 2758 2815 
Q 2500 3097 2075 3097 
Q 1594 3097 1305 2825 
Q 1016 2553 972 2059 
L 3022 2063 
z
" transform="scale(0.015625)"/>
      <path id="DejaVuSans-64" d="M 2906 2969 
L 2906 4863 
L 3481 4863 
L 3481 0 
L 2906 0 
L 2906 525 
Q 2725 213 2448 61 
Q 2172 -91 1784 -91 
Q 1150 -91 751 415 
Q 353 922 353 1747 
Q 353 2572 751 3078 
Q 1150 3584 1784 3584 
Q 2172 3584 2448 3432 
Q 2725 3281 2906 2969 
z
M 947 1747 
Q 947 1113 1208 752 
Q 1469 391 1925 391 
Q 2381 391 2643 752 
Q 2906 1113 2906 1747 
Q 2906 2381 2643 2742 
Q 2381 3103 1925 3103 
Q 1469 3103 1208 2742 
Q 947 2381 947 1747 
z
" transform="scale(0.015625)"/>
      <path id="DejaVuSans-73" d="M 2834 3397 
L 2834 2853 
Q 2591 2978 2328 3040 
Q 2066 3103 1784 3103 
Q 1356 3103 1142 2972 
Q 928 2841 928 2578 
Q 928 2378 1081 2264 
Q 1234 2150 1697 2047 
L 1894 2003 
Q 2506 1872 2764 1633 
Q 3022 1394 3022 966 
Q 3022 478 2636 193 
Q 2250 -91 1575 -91 
Q 1294 -91 989 -36 
Q 684 19 347 128 
L 347 722 
Q 666 556 975 473 
Q 1284 391 1588 391 
Q 1994 391 2212 530 
Q 2431 669 2431 922 
Q 2431 1156 2273 1281 
Q 2116 1406 1581 1522 
L 1381 1569 
Q 847 1681 609 1914 
Q 372 2147 372 2553 
Q 372 3047 722 3315 
Q 1072 3584 1716 3584 
Q 2034 3584 2315 3537 
Q 2597 3491 2834 3397 
z
" transform="scale(0.015625)"/>
      <path id="DejaVuSans-46" d="M 628 4666 
L 3309 4666 
L 3309 4134 
L 1259 4134 
L 1259 2759 
L 3109 2759 
L 3109 2228 
L 1259 2228 
L 1259 0 
L 628 0 
L 628 4666 
z
" transform="scale(0.015625)"/>
      <path id="DejaVuSans-63" d="M 3122 3366 
L 3122 2828 
Q 2878 2963 2633 3030 
Q 2388 3097 2138 3097 
Q 1578 3097 1268 2742 
Q 959 2388 959 1747 
Q 959 1106 1268 751 
Q 1578 397 2138 397 
Q 2388 397 2633 464 
Q 2878 531 3122 666 
L 3122 134 
Q 2881 22 2623 -34 
Q 2366 -91 2075 -91 
Q 1284 -91 818 406 
Q 353 903 353 1747 
Q 353 2603 823 3093 
Q 1294 3584 2113 3584 
Q 2378 3584 2631 3529 
Q 2884 3475 3122 3366 
z
" transform="scale(0.015625)"/>
      <path id="DejaVuSans-74" d="M 1172 4494 
L 1172 3500 
L 2356 3500 
L 2356 3053 
L 1172 3053 
L 1172 1153 
Q 1172 725 1289 603 
Q 1406 481 1766 481 
L 2356 481 
L 2356 0 
L 1766 0 
Q 1100 0 847 248 
Q 594 497 594 1153 
L 594 3053 
L 172 3053 
L 172 3500 
L 594 3500 
L 594 4494 
L 1172 4494 
z
" transform="scale(0.015625)"/>
      <path id="DejaVuSans-67" d="M 2906 1791 
Q 2906 2416 2648 2759 
Q 2391 3103 1925 3103 
Q 1463 3103 1205 2759 
Q 947 2416 947 1791 
Q 947 1169 1205 825 
Q 1463 481 1925 481 
Q 2391 481 2648 825 
Q 2906 1169 2906 1791 
z
M 3481 434 
Q 3481 -459 3084 -895 
Q 2688 -1331 1869 -1331 
Q 1566 -1331 1297 -1286 
Q 1028 -1241 775 -1147 
L 775 -588 
Q 1028 -725 1275 -790 
Q 1522 -856 1778 -856 
Q 2344 -856 2625 -561 
Q 2906 -266 2906 331 
L 2906 616 
Q 2728 306 2450 153 
Q 2172 0 1784 0 
Q 1141 0 747 490 
Q 353 981 353 1791 
Q 353 2603 747 3093 
Q 1141 3584 1784 3584 
Q 2172 3584 2450 3431 
Q 2728 3278 2906 2969 
L 2906 3500 
L 3481 3500 
L 3481 434 
z
" transform="scale(0.015625)"/>
      <path id="DejaVuSans-4e" d="M 628 4666 
L 1478 4666 
L 3547 763 
L 3547 4666 
L 4159 4666 
L 4159 0 
L 3309 0 
L 1241 3903 
L 1241 0 
L 628 0 
L 628 4666 
z
" transform="scale(0.015625)"/>
      <path id="DejaVuSans-70" d="M 1159 525 
L 1159 -1331 
L 581 -1331 
L 581 3500 
L 1159 3500 
L 1159 2969 
Q 1341 3281 1617 3432 
Q 1894 3584 2278 3584 
Q 2916 3584 3314 3078 
Q 3713 2572 3713 1747 
Q 3713 922 3314 415 
Q 2916 -91 2278 -91 
Q 1894 -91 1617 61 
Q 1341 213 1159 525 
z
M 3116 1747 
Q 3116 2381 2855 2742 
Q 2594 3103 2138 3103 
Q 1681 3103 1420 2742 
Q 1159 2381 1159 1747 
Q 1159 1113 1420 752 
Q 1681 391 2138 391 
Q 2594 391 2855 752 
Q 3116 1113 3116 1747 
z
" transform="scale(0.015625)"/>
     </defs>
     <use xlink:href="#DejaVuSans-44"/>
     <use xlink:href="#DejaVuSans-61" x="77.001953"/>
     <use xlink:href="#DejaVuSans-69" x="138.28125"/>
     <use xlink:href="#DejaVuSans-6c" x="166.064453"/>
     <use xlink:href="#DejaVuSans-79" x="193.847656"/>
     <use xlink:href="#DejaVuSans-20" x="253.027344"/>
     <use xlink:href="#DejaVuSans-43" x="284.814453"/>
     <use xlink:href="#DejaVuSans-6f" x="354.638672"/>
     <use xlink:href="#DejaVuSans-6e" x="415.820312"/>
     <use xlink:href="#DejaVuSans-66" x="479.199219"/>
     <use xlink:href="#DejaVuSans-69" x="514.404297"/>
     <use xlink:href="#DejaVuSans-72" x="542.1875"/>
     <use xlink:href="#DejaVuSans-6d" x="581.550781"/>
     <use xlink:href="#DejaVuSans-65" x="678.962891"/>
     <use xlink:href="#DejaVuSans-64" x="740.486328"/>
     <use xlink:href="#DejaVuSans-20" x="803.962891"/>
     <use xlink:href="#DejaVuSans-43" x="835.75"/>
     <use xlink:href="#DejaVuSans-61" x="905.574219"/>
     <use xlink:href="#DejaVuSans-73" x="966.853516"/>
     <use xlink:href="#DejaVuSans-65" x="1018.953125"/>
     <use xlink:href="#DejaVuSans-73" x="1080.476562"/>
     <use xlink:href="#DejaVuSans-20" x="1132.576172"/>
     <use xlink:href="#DejaVuSans-46" x="1164.363281"/>
     <use xlink:href="#DejaVuSans-6f" x="1218.257812"/>
     <use xlink:href="#DejaVuSans-72" x="1279.439453"/>
     <use xlink:href="#DejaVuSans-65" x="1318.302734"/>
     <use xlink:href="#DejaVuSans-63" x="1379.826172"/>
     <use xlink:href="#DejaVuSans-61" x="1434.806641"/>
     <use xlink:href="#DejaVuSans-73" x="1496.085938"/>
     <use xlink:href="#DejaVuSans-74" x="1548.185547"/>
     <use xlink:href="#DejaVuSans-69" x="1587.394531"/>
     <use xlink:href="#DejaVuSans-6e" x="1615.177734"/>
     <use xlink:href="#DejaVuSans-67" x="1678.556641"/>
     <use xlink:href="#DejaVuSans-20" x="1742.033203"/>
     <use xlink:href="#DejaVuSans-2d" x="1773.820312"/>
     <use xlink:href="#DejaVuSans-20" x="1809.904297"/>
     <use xlink:href="#DejaVuSans-4e" x="1841.691406"/>
     <use xlink:href="#DejaVuSans-65" x="1916.496094"/>
     <use xlink:href="#DejaVuSans-70" x="1978.019531"/>
     <use xlink:href="#DejaVuSans-61" x="2041.496094"/>
     <use xlink:href="#DejaVuSans-6c" x="2102.775391"/>
    </g>
    <!-- ARIMA (3, 1, 1)x(1, 0, 1, 7) (R2 = 0.864932) -->
    <g transform="translate(583.628438 29.7555)scale(0.12 -0.12)">
     <defs>
      <path id="DejaVuSans-41" d="M 2188 4044 
L 1331 1722 
L 3047 1722 
L 2188 4044 
z
M 1831 4666 
L 2547 4666 
L 4325 0 
L 3669 0 
L 3244 1197 
L 1141 1197 
L 716 0 
L 50 0 
L 1831 4666 
z
" transform="scale(0.015625)"/>
      <path id="DejaVuSans-52" d="M 2841 2188 
Q 3044 2119 3236 1894 
Q 3428 1669 3622 1275 
L 4263 0 
L 3584 0 
L 2988 1197 
Q 2756 1666 2539 1819 
Q 2322 1972 1947 1972 
L 1259 1972 
L 1259 0 
L 628 0 
L 628 4666 
L 2053 4666 
Q 2853 4666 3247 4331 
Q 3641 3997 3641 3322 
Q 3641 2881 3436 2590 
Q 3231 2300 2841 2188 
z
M 1259 4147 
L 1259 2491 
L 2053 2491 
Q 2509 2491 2742 2702 
Q 2975 2913 2975 3322 
Q 2975 3731 2742 3939 
Q 2509 4147 2053 4147 
L 1259 4147 
z
" transform="scale(0.015625)"/>
      <path id="DejaVuSans-49" d="M 628 4666 
L 1259 4666 
L 1259 0 
L 628 0 
L 628 4666 
z
" transform="scale(0.015625)"/>
      <path id="DejaVuSans-4d" d="M 628 4666 
L 1569 4666 
L 2759 1491 
L 3956 4666 
L 4897 4666 
L 4897 0 
L 4281 0 
L 4281 4097 
L 3078 897 
L 2444 897 
L 1241 4097 
L 1241 0 
L 628 0 
L 628 4666 
z
" transform="scale(0.015625)"/>
      <path id="DejaVuSans-28" d="M 1984 4856 
Q 1566 4138 1362 3434 
Q 1159 2731 1159 2009 
Q 1159 1288 1364 580 
Q 1569 -128 1984 -844 
L 1484 -844 
Q 1016 -109 783 600 
Q 550 1309 550 2009 
Q 550 2706 781 3412 
Q 1013 4119 1484 4856 
L 1984 4856 
z
" transform="scale(0.015625)"/>
      <path id="DejaVuSans-33" d="M 2597 2516 
Q 3050 2419 3304 2112 
Q 3559 1806 3559 1356 
Q 3559 666 3084 287 
Q 2609 -91 1734 -91 
Q 1441 -91 1130 -33 
Q 819 25 488 141 
L 488 750 
Q 750 597 1062 519 
Q 1375 441 1716 441 
Q 2309 441 2620 675 
Q 2931 909 2931 1356 
Q 2931 1769 2642 2001 
Q 2353 2234 1838 2234 
L 1294 2234 
L 1294 2753 
L 1863 2753 
Q 2328 2753 2575 2939 
Q 2822 3125 2822 3475 
Q 2822 3834 2567 4026 
Q 2313 4219 1838 4219 
Q 1578 4219 1281 4162 
Q 984 4106 628 3988 
L 628 4550 
Q 988 4650 1302 4700 
Q 1616 4750 1894 4750 
Q 2613 4750 3031 4423 
Q 3450 4097 3450 3541 
Q 3450 3153 3228 2886 
Q 3006 2619 2597 2516 
z
" transform="scale(0.015625)"/>
      <path id="DejaVuSans-2c" d="M 750 794 
L 1409 794 
L 1409 256 
L 897 -744 
L 494 -744 
L 750 256 
L 750 794 
z
" transform="scale(0.015625)"/>
      <path id="DejaVuSans-29" d="M 513 4856 
L 1013 4856 
Q 1481 4119 1714 3412 
Q 1947 2706 1947 2009 
Q 1947 1309 1714 600 
Q 1481 -109 1013 -844 
L 513 -844 
Q 928 -128 1133 580 
Q 1338 1288 1338 2009 
Q 1338 2731 1133 3434 
Q 928 4138 513 4856 
z
" transform="scale(0.015625)"/>
      <path id="DejaVuSans-78" d="M 3513 3500 
L 2247 1797 
L 3578 0 
L 2900 0 
L 1881 1375 
L 863 0 
L 184 0 
L 1544 1831 
L 300 3500 
L 978 3500 
L 1906 2253 
L 2834 3500 
L 3513 3500 
z
" transform="scale(0.015625)"/>
      <path id="DejaVuSans-37" d="M 525 4666 
L 3525 4666 
L 3525 4397 
L 1831 0 
L 1172 0 
L 2766 4134 
L 525 4134 
L 525 4666 
z
" transform="scale(0.015625)"/>
      <path id="DejaVuSans-3d" d="M 678 2906 
L 4684 2906 
L 4684 2381 
L 678 2381 
L 678 2906 
z
M 678 1631 
L 4684 1631 
L 4684 1100 
L 678 1100 
L 678 1631 
z
" transform="scale(0.015625)"/>
      <path id="DejaVuSans-2e" d="M 684 794 
L 1344 794 
L 1344 0 
L 684 0 
L 684 794 
z
" transform="scale(0.015625)"/>
     </defs>
     <use xlink:href="#DejaVuSans-41"/>
     <use xlink:href="#DejaVuSans-52" x="68.408203"/>
     <use xlink:href="#DejaVuSans-49" x="137.890625"/>
     <use xlink:href="#DejaVuSans-4d" x="167.382812"/>
     <use xlink:href="#DejaVuSans-41" x="253.662109"/>
     <use xlink:href="#DejaVuSans-20" x="322.070312"/>
     <use xlink:href="#DejaVuSans-28" x="353.857422"/>
     <use xlink:href="#DejaVuSans-33" x="392.871094"/>
     <use xlink:href="#DejaVuSans-2c" x="456.494141"/>
     <use xlink:href="#DejaVuSans-20" x="488.28125"/>
     <use xlink:href="#DejaVuSans-31" x="520.068359"/>
     <use xlink:href="#DejaVuSans-2c" x="583.691406"/>
     <use xlink:href="#DejaVuSans-20" x="615.478516"/>
     <use xlink:href="#DejaVuSans-31" x="647.265625"/>
     <use xlink:href="#DejaVuSans-29" x="710.888672"/>
     <use xlink:href="#DejaVuSans-78" x="749.902344"/>
     <use xlink:href="#DejaVuSans-28" x="809.082031"/>
     <use xlink:href="#DejaVuSans-31" x="848.095703"/>
     <use xlink:href="#DejaVuSans-2c" x="911.71875"/>
     <use xlink:href="#DejaVuSans-20" x="943.505859"/>
     <use xlink:href="#DejaVuSans-30" x="975.292969"/>
     <use xlink:href="#DejaVuSans-2c" x="1038.916016"/>
     <use xlink:href="#DejaVuSans-20" x="1070.703125"/>
     <use xlink:href="#DejaVuSans-31" x="1102.490234"/>
     <use xlink:href="#DejaVuSans-2c" x="1166.113281"/>
     <use xlink:href="#DejaVuSans-20" x="1197.900391"/>
     <use xlink:href="#DejaVuSans-37" x="1229.6875"/>
     <use xlink:href="#DejaVuSans-29" x="1293.310547"/>
     <use xlink:href="#DejaVuSans-20" x="1332.324219"/>
     <use xlink:href="#DejaVuSans-28" x="1364.111328"/>
     <use xlink:href="#DejaVuSans-52" x="1403.125"/>
     <use xlink:href="#DejaVuSans-32" x="1472.607422"/>
     <use xlink:href="#DejaVuSans-20" x="1536.230469"/>
     <use xlink:href="#DejaVuSans-3d" x="1568.017578"/>
     <use xlink:href="#DejaVuSans-20" x="1651.806641"/>
     <use xlink:href="#DejaVuSans-30" x="1683.59375"/>
     <use xlink:href="#DejaVuSans-2e" x="1747.216797"/>
     <use xlink:href="#DejaVuSans-38" x="1779.003906"/>
     <use xlink:href="#DejaVuSans-36" x="1842.626953"/>
     <use xlink:href="#DejaVuSans-34" x="1906.25"/>
     <use xlink:href="#DejaVuSans-39" x="1969.873047"/>
     <use xlink:href="#DejaVuSans-33" x="2033.496094"/>
     <use xlink:href="#DejaVuSans-32" x="2097.119141"/>
     <use xlink:href="#DejaVuSans-29" x="2160.742188"/>
    </g>
   </g>
   <g id="legend_1">
    <g id="patch_7">
     <path d="M 1281.132812 87.789875 
L 1378.2125 87.789875 
Q 1380.2125 87.789875 1380.2125 85.789875 
L 1380.2125 42.7555 
Q 1380.2125 40.7555 1378.2125 40.7555 
L 1281.132812 40.7555 
Q 1279.132812 40.7555 1279.132812 42.7555 
L 1279.132812 85.789875 
Q 1279.132812 87.789875 1281.132812 87.789875 
z
" style="fill: #ffffff; opacity: 0.8; stroke: #cccccc; stroke-linejoin: miter"/>
    </g>
    <g id="line2d_19">
     <path d="M 1283.132812 48.853937 
L 1293.132812 48.853937 
L 1303.132812 48.853937 
" style="fill: none; stroke: #0000ff; stroke-width: 1.5; stroke-linecap: square"/>
    </g>
    <g id="text_17">
     <!-- Actual Value -->
     <g transform="translate(1311.132812 52.353937)scale(0.1 -0.1)">
      <defs>
       <path id="DejaVuSans-75" d="M 544 1381 
L 544 3500 
L 1119 3500 
L 1119 1403 
Q 1119 906 1312 657 
Q 1506 409 1894 409 
Q 2359 409 2629 706 
Q 2900 1003 2900 1516 
L 2900 3500 
L 3475 3500 
L 3475 0 
L 2900 0 
L 2900 538 
Q 2691 219 2414 64 
Q 2138 -91 1772 -91 
Q 1169 -91 856 284 
Q 544 659 544 1381 
z
M 1991 3584 
L 1991 3584 
z
" transform="scale(0.015625)"/>
       <path id="DejaVuSans-56" d="M 1831 0 
L 50 4666 
L 709 4666 
L 2188 738 
L 3669 4666 
L 4325 4666 
L 2547 0 
L 1831 0 
z
" transform="scale(0.015625)"/>
      </defs>
      <use xlink:href="#DejaVuSans-41"/>
      <use xlink:href="#DejaVuSans-63" x="66.658203"/>
      <use xlink:href="#DejaVuSans-74" x="121.638672"/>
      <use xlink:href="#DejaVuSans-75" x="160.847656"/>
      <use xlink:href="#DejaVuSans-61" x="224.226562"/>
      <use xlink:href="#DejaVuSans-6c" x="285.505859"/>
      <use xlink:href="#DejaVuSans-20" x="313.289062"/>
      <use xlink:href="#DejaVuSans-56" x="345.076172"/>
      <use xlink:href="#DejaVuSans-61" x="405.734375"/>
      <use xlink:href="#DejaVuSans-6c" x="467.013672"/>
      <use xlink:href="#DejaVuSans-75" x="494.796875"/>
      <use xlink:href="#DejaVuSans-65" x="558.175781"/>
     </g>
    </g>
    <g id="line2d_20">
     <path d="M 1283.132812 63.532062 
L 1293.132812 63.532062 
L 1303.132812 63.532062 
" style="fill: none; stroke: #ffa500; stroke-width: 1.5; stroke-linecap: square"/>
    </g>
    <g id="text_18">
     <!-- Check Value -->
     <g transform="translate(1311.132812 67.032062)scale(0.1 -0.1)">
      <defs>
       <path id="DejaVuSans-68" d="M 3513 2113 
L 3513 0 
L 2938 0 
L 2938 2094 
Q 2938 2591 2744 2837 
Q 2550 3084 2163 3084 
Q 1697 3084 1428 2787 
Q 1159 2491 1159 1978 
L 1159 0 
L 581 0 
L 581 4863 
L 1159 4863 
L 1159 2956 
Q 1366 3272 1645 3428 
Q 1925 3584 2291 3584 
Q 2894 3584 3203 3211 
Q 3513 2838 3513 2113 
z
" transform="scale(0.015625)"/>
       <path id="DejaVuSans-6b" d="M 581 4863 
L 1159 4863 
L 1159 1991 
L 2875 3500 
L 3609 3500 
L 1753 1863 
L 3688 0 
L 2938 0 
L 1159 1709 
L 1159 0 
L 581 0 
L 581 4863 
z
" transform="scale(0.015625)"/>
      </defs>
      <use xlink:href="#DejaVuSans-43"/>
      <use xlink:href="#DejaVuSans-68" x="69.824219"/>
      <use xlink:href="#DejaVuSans-65" x="133.203125"/>
      <use xlink:href="#DejaVuSans-63" x="194.726562"/>
      <use xlink:href="#DejaVuSans-6b" x="249.707031"/>
      <use xlink:href="#DejaVuSans-20" x="307.617188"/>
      <use xlink:href="#DejaVuSans-56" x="339.404297"/>
      <use xlink:href="#DejaVuSans-61" x="400.0625"/>
      <use xlink:href="#DejaVuSans-6c" x="461.341797"/>
      <use xlink:href="#DejaVuSans-75" x="489.125"/>
      <use xlink:href="#DejaVuSans-65" x="552.503906"/>
     </g>
    </g>
    <g id="line2d_21">
     <path d="M 1283.132812 78.210187 
L 1293.132812 78.210187 
L 1303.132812 78.210187 
" style="fill: none; stroke: #ff0000; stroke-width: 1.5; stroke-linecap: square"/>
    </g>
    <g id="text_19">
     <!-- Predict Value -->
     <g transform="translate(1311.132812 81.710187)scale(0.1 -0.1)">
      <defs>
       <path id="DejaVuSans-50" d="M 1259 4147 
L 1259 2394 
L 2053 2394 
Q 2494 2394 2734 2622 
Q 2975 2850 2975 3272 
Q 2975 3691 2734 3919 
Q 2494 4147 2053 4147 
L 1259 4147 
z
M 628 4666 
L 2053 4666 
Q 2838 4666 3239 4311 
Q 3641 3956 3641 3272 
Q 3641 2581 3239 2228 
Q 2838 1875 2053 1875 
L 1259 1875 
L 1259 0 
L 628 0 
L 628 4666 
z
" transform="scale(0.015625)"/>
      </defs>
      <use xlink:href="#DejaVuSans-50"/>
      <use xlink:href="#DejaVuSans-72" x="58.552734"/>
      <use xlink:href="#DejaVuSans-65" x="97.416016"/>
      <use xlink:href="#DejaVuSans-64" x="158.939453"/>
      <use xlink:href="#DejaVuSans-69" x="222.416016"/>
      <use xlink:href="#DejaVuSans-63" x="250.199219"/>
      <use xlink:href="#DejaVuSans-74" x="305.179688"/>
      <use xlink:href="#DejaVuSans-20" x="344.388672"/>
      <use xlink:href="#DejaVuSans-56" x="376.175781"/>
      <use xlink:href="#DejaVuSans-61" x="436.833984"/>
      <use xlink:href="#DejaVuSans-6c" x="498.113281"/>
      <use xlink:href="#DejaVuSans-75" x="525.896484"/>
      <use xlink:href="#DejaVuSans-65" x="589.275391"/>
     </g>
    </g>
   </g>
  </g>
 </g>
 <defs>
  <clipPath id="p6d7e544d53">
   <rect x="46.0125" y="35.7555" width="1339.2" height="332.64"/>
  </clipPath>
 </defs>
</svg>
