<?xml version="1.0" encoding="utf-8" standalone="no"?>
<!DOCTYPE svg PUBLIC "-//W3C//DTD SVG 1.1//EN"
  "http://www.w3.org/Graphics/SVG/1.1/DTD/svg11.dtd">
<svg xmlns:xlink="http://www.w3.org/1999/xlink" width="1386.05pt" height="392.273625pt" viewBox="0 0 1386.05 392.273625" xmlns="http://www.w3.org/2000/svg" version="1.1">
 <metadata>
  <rdf:RDF xmlns:dc="http://purl.org/dc/elements/1.1/" xmlns:cc="http://creativecommons.org/ns#" xmlns:rdf="http://www.w3.org/1999/02/22-rdf-syntax-ns#">
   <cc:Work>
    <dc:type rdf:resource="http://purl.org/dc/dcmitype/StillImage"/>
    <dc:date>2023-01-15T18:37:06.598068</dc:date>
    <dc:format>image/svg+xml</dc:format>
    <dc:creator>
     <cc:Agent>
      <dc:title>Matplotlib v3.5.1, https://matplotlib.org/</dc:title>
     </cc:Agent>
    </dc:creator>
   </cc:Work>
  </rdf:RDF>
 </metadata>
 <defs>
  <style type="text/css">*{stroke-linejoin: round; stroke-linecap: butt}</style>
 </defs>
 <g id="figure_1">
  <g id="patch_1">
   <path d="M 0 392.273625 
L 1386.05 392.273625 
L 1386.05 0 
L 0 0 
z
" style="fill: #ffffff"/>
  </g>
  <g id="axes_1">
   <g id="patch_2">
    <path d="M 39.65 368.3955 
L 1378.85 368.3955 
L 1378.85 35.7555 
L 39.65 35.7555 
z
" style="fill: #ffffff"/>
   </g>
   <g id="matplotlib.axis_1">
    <g id="xtick_1">
     <g id="line2d_1">
      <defs>
       <path id="m20a7a368af" d="M 0 0 
L 0 3.5 
" style="stroke: #000000; stroke-width: 0.8"/>
      </defs>
      <g>
       <use xlink:href="#m20a7a368af" x="76.195752" y="368.3955" style="stroke: #000000; stroke-width: 0.8"/>
      </g>
     </g>
     <g id="text_1">
      <!-- 2020-01 -->
      <g transform="translate(55.304346 382.993937)scale(0.1 -0.1)">
       <defs>
        <path id="DejaVuSans-32" d="M 1228 531 
L 3431 531 
L 3431 0 
L 469 0 
L 469 531 
Q 828 903 1448 1529 
Q 2069 2156 2228 2338 
Q 2531 2678 2651 2914 
Q 2772 3150 2772 3378 
Q 2772 3750 2511 3984 
Q 2250 4219 1831 4219 
Q 1534 4219 1204 4116 
Q 875 4013 500 3803 
L 500 4441 
Q 881 4594 1212 4672 
Q 1544 4750 1819 4750 
Q 2544 4750 2975 4387 
Q 3406 4025 3406 3419 
Q 3406 3131 3298 2873 
Q 3191 2616 2906 2266 
Q 2828 2175 2409 1742 
Q 1991 1309 1228 531 
z
" transform="scale(0.015625)"/>
        <path id="DejaVuSans-30" d="M 2034 4250 
Q 1547 4250 1301 3770 
Q 1056 3291 1056 2328 
Q 1056 1369 1301 889 
Q 1547 409 2034 409 
Q 2525 409 2770 889 
Q 3016 1369 3016 2328 
Q 3016 3291 2770 3770 
Q 2525 4250 2034 4250 
z
M 2034 4750 
Q 2819 4750 3233 4129 
Q 3647 3509 3647 2328 
Q 3647 1150 3233 529 
Q 2819 -91 2034 -91 
Q 1250 -91 836 529 
Q 422 1150 422 2328 
Q 422 3509 836 4129 
Q 1250 4750 2034 4750 
z
" transform="scale(0.015625)"/>
        <path id="DejaVuSans-2d" d="M 313 2009 
L 1997 2009 
L 1997 1497 
L 313 1497 
L 313 2009 
z
" transform="scale(0.015625)"/>
        <path id="DejaVuSans-31" d="M 794 531 
L 1825 531 
L 1825 4091 
L 703 3866 
L 703 4441 
L 1819 4666 
L 2450 4666 
L 2450 531 
L 3481 531 
L 3481 0 
L 794 0 
L 794 531 
z
" transform="scale(0.015625)"/>
       </defs>
       <use xlink:href="#DejaVuSans-32"/>
       <use xlink:href="#DejaVuSans-30" x="63.623047"/>
       <use xlink:href="#DejaVuSans-32" x="127.246094"/>
       <use xlink:href="#DejaVuSans-30" x="190.869141"/>
       <use xlink:href="#DejaVuSans-2d" x="254.492188"/>
       <use xlink:href="#DejaVuSans-30" x="290.576172"/>
       <use xlink:href="#DejaVuSans-31" x="354.199219"/>
      </g>
     </g>
    </g>
    <g id="xtick_2">
     <g id="line2d_2">
      <g>
       <use xlink:href="#m20a7a368af" x="209.994117" y="368.3955" style="stroke: #000000; stroke-width: 0.8"/>
      </g>
     </g>
     <g id="text_2">
      <!-- 2020-05 -->
      <g transform="translate(189.102711 382.993937)scale(0.1 -0.1)">
       <defs>
        <path id="DejaVuSans-35" d="M 691 4666 
L 3169 4666 
L 3169 4134 
L 1269 4134 
L 1269 2991 
Q 1406 3038 1543 3061 
Q 1681 3084 1819 3084 
Q 2600 3084 3056 2656 
Q 3513 2228 3513 1497 
Q 3513 744 3044 326 
Q 2575 -91 1722 -91 
Q 1428 -91 1123 -41 
Q 819 9 494 109 
L 494 744 
Q 775 591 1075 516 
Q 1375 441 1709 441 
Q 2250 441 2565 725 
Q 2881 1009 2881 1497 
Q 2881 1984 2565 2268 
Q 2250 2553 1709 2553 
Q 1456 2553 1204 2497 
Q 953 2441 691 2322 
L 691 4666 
z
" transform="scale(0.015625)"/>
       </defs>
       <use xlink:href="#DejaVuSans-32"/>
       <use xlink:href="#DejaVuSans-30" x="63.623047"/>
       <use xlink:href="#DejaVuSans-32" x="127.246094"/>
       <use xlink:href="#DejaVuSans-30" x="190.869141"/>
       <use xlink:href="#DejaVuSans-2d" x="254.492188"/>
       <use xlink:href="#DejaVuSans-30" x="290.576172"/>
       <use xlink:href="#DejaVuSans-35" x="354.199219"/>
      </g>
     </g>
    </g>
    <g id="xtick_3">
     <g id="line2d_3">
      <g>
       <use xlink:href="#m20a7a368af" x="346.004025" y="368.3955" style="stroke: #000000; stroke-width: 0.8"/>
      </g>
     </g>
     <g id="text_3">
      <!-- 2020-09 -->
      <g transform="translate(325.112619 382.993937)scale(0.1 -0.1)">
       <defs>
        <path id="DejaVuSans-39" d="M 703 97 
L 703 672 
Q 941 559 1184 500 
Q 1428 441 1663 441 
Q 2288 441 2617 861 
Q 2947 1281 2994 2138 
Q 2813 1869 2534 1725 
Q 2256 1581 1919 1581 
Q 1219 1581 811 2004 
Q 403 2428 403 3163 
Q 403 3881 828 4315 
Q 1253 4750 1959 4750 
Q 2769 4750 3195 4129 
Q 3622 3509 3622 2328 
Q 3622 1225 3098 567 
Q 2575 -91 1691 -91 
Q 1453 -91 1209 -44 
Q 966 3 703 97 
z
M 1959 2075 
Q 2384 2075 2632 2365 
Q 2881 2656 2881 3163 
Q 2881 3666 2632 3958 
Q 2384 4250 1959 4250 
Q 1534 4250 1286 3958 
Q 1038 3666 1038 3163 
Q 1038 2656 1286 2365 
Q 1534 2075 1959 2075 
z
" transform="scale(0.015625)"/>
       </defs>
       <use xlink:href="#DejaVuSans-32"/>
       <use xlink:href="#DejaVuSans-30" x="63.623047"/>
       <use xlink:href="#DejaVuSans-32" x="127.246094"/>
       <use xlink:href="#DejaVuSans-30" x="190.869141"/>
       <use xlink:href="#DejaVuSans-2d" x="254.492188"/>
       <use xlink:href="#DejaVuSans-30" x="290.576172"/>
       <use xlink:href="#DejaVuSans-39" x="354.199219"/>
      </g>
     </g>
    </g>
    <g id="xtick_4">
     <g id="line2d_4">
      <g>
       <use xlink:href="#m20a7a368af" x="480.908162" y="368.3955" style="stroke: #000000; stroke-width: 0.8"/>
      </g>
     </g>
     <g id="text_4">
      <!-- 2021-01 -->
      <g transform="translate(460.016756 382.993937)scale(0.1 -0.1)">
       <use xlink:href="#DejaVuSans-32"/>
       <use xlink:href="#DejaVuSans-30" x="63.623047"/>
       <use xlink:href="#DejaVuSans-32" x="127.246094"/>
       <use xlink:href="#DejaVuSans-31" x="190.869141"/>
       <use xlink:href="#DejaVuSans-2d" x="254.492188"/>
       <use xlink:href="#DejaVuSans-30" x="290.576172"/>
       <use xlink:href="#DejaVuSans-31" x="354.199219"/>
      </g>
     </g>
    </g>
    <g id="xtick_5">
     <g id="line2d_5">
      <g>
       <use xlink:href="#m20a7a368af" x="613.600756" y="368.3955" style="stroke: #000000; stroke-width: 0.8"/>
      </g>
     </g>
     <g id="text_5">
      <!-- 2021-05 -->
      <g transform="translate(592.709349 382.993937)scale(0.1 -0.1)">
       <use xlink:href="#DejaVuSans-32"/>
       <use xlink:href="#DejaVuSans-30" x="63.623047"/>
       <use xlink:href="#DejaVuSans-32" x="127.246094"/>
       <use xlink:href="#DejaVuSans-31" x="190.869141"/>
       <use xlink:href="#DejaVuSans-2d" x="254.492188"/>
       <use xlink:href="#DejaVuSans-30" x="290.576172"/>
       <use xlink:href="#DejaVuSans-35" x="354.199219"/>
      </g>
     </g>
    </g>
    <g id="xtick_6">
     <g id="line2d_6">
      <g>
       <use xlink:href="#m20a7a368af" x="749.610664" y="368.3955" style="stroke: #000000; stroke-width: 0.8"/>
      </g>
     </g>
     <g id="text_6">
      <!-- 2021-09 -->
      <g transform="translate(728.719258 382.993937)scale(0.1 -0.1)">
       <use xlink:href="#DejaVuSans-32"/>
       <use xlink:href="#DejaVuSans-30" x="63.623047"/>
       <use xlink:href="#DejaVuSans-32" x="127.246094"/>
       <use xlink:href="#DejaVuSans-31" x="190.869141"/>
       <use xlink:href="#DejaVuSans-2d" x="254.492188"/>
       <use xlink:href="#DejaVuSans-30" x="290.576172"/>
       <use xlink:href="#DejaVuSans-39" x="354.199219"/>
      </g>
     </g>
    </g>
    <g id="xtick_7">
     <g id="line2d_7">
      <g>
       <use xlink:href="#m20a7a368af" x="884.514801" y="368.3955" style="stroke: #000000; stroke-width: 0.8"/>
      </g>
     </g>
     <g id="text_7">
      <!-- 2022-01 -->
      <g transform="translate(863.623394 382.993937)scale(0.1 -0.1)">
       <use xlink:href="#DejaVuSans-32"/>
       <use xlink:href="#DejaVuSans-30" x="63.623047"/>
       <use xlink:href="#DejaVuSans-32" x="127.246094"/>
       <use xlink:href="#DejaVuSans-32" x="190.869141"/>
       <use xlink:href="#DejaVuSans-2d" x="254.492188"/>
       <use xlink:href="#DejaVuSans-30" x="290.576172"/>
       <use xlink:href="#DejaVuSans-31" x="354.199219"/>
      </g>
     </g>
    </g>
    <g id="xtick_8">
     <g id="line2d_8">
      <g>
       <use xlink:href="#m20a7a368af" x="1017.207394" y="368.3955" style="stroke: #000000; stroke-width: 0.8"/>
      </g>
     </g>
     <g id="text_8">
      <!-- 2022-05 -->
      <g transform="translate(996.315988 382.993937)scale(0.1 -0.1)">
       <use xlink:href="#DejaVuSans-32"/>
       <use xlink:href="#DejaVuSans-30" x="63.623047"/>
       <use xlink:href="#DejaVuSans-32" x="127.246094"/>
       <use xlink:href="#DejaVuSans-32" x="190.869141"/>
       <use xlink:href="#DejaVuSans-2d" x="254.492188"/>
       <use xlink:href="#DejaVuSans-30" x="290.576172"/>
       <use xlink:href="#DejaVuSans-35" x="354.199219"/>
      </g>
     </g>
    </g>
    <g id="xtick_9">
     <g id="line2d_9">
      <g>
       <use xlink:href="#m20a7a368af" x="1153.217302" y="368.3955" style="stroke: #000000; stroke-width: 0.8"/>
      </g>
     </g>
     <g id="text_9">
      <!-- 2022-09 -->
      <g transform="translate(1132.325896 382.993937)scale(0.1 -0.1)">
       <use xlink:href="#DejaVuSans-32"/>
       <use xlink:href="#DejaVuSans-30" x="63.623047"/>
       <use xlink:href="#DejaVuSans-32" x="127.246094"/>
       <use xlink:href="#DejaVuSans-32" x="190.869141"/>
       <use xlink:href="#DejaVuSans-2d" x="254.492188"/>
       <use xlink:href="#DejaVuSans-30" x="290.576172"/>
       <use xlink:href="#DejaVuSans-39" x="354.199219"/>
      </g>
     </g>
    </g>
    <g id="xtick_10">
     <g id="line2d_10">
      <g>
       <use xlink:href="#m20a7a368af" x="1288.121439" y="368.3955" style="stroke: #000000; stroke-width: 0.8"/>
      </g>
     </g>
     <g id="text_10">
      <!-- 2023-01 -->
      <g transform="translate(1267.230033 382.993937)scale(0.1 -0.1)">
       <defs>
        <path id="DejaVuSans-33" d="M 2597 2516 
Q 3050 2419 3304 2112 
Q 3559 1806 3559 1356 
Q 3559 666 3084 287 
Q 2609 -91 1734 -91 
Q 1441 -91 1130 -33 
Q 819 25 488 141 
L 488 750 
Q 750 597 1062 519 
Q 1375 441 1716 441 
Q 2309 441 2620 675 
Q 2931 909 2931 1356 
Q 2931 1769 2642 2001 
Q 2353 2234 1838 2234 
L 1294 2234 
L 1294 2753 
L 1863 2753 
Q 2328 2753 2575 2939 
Q 2822 3125 2822 3475 
Q 2822 3834 2567 4026 
Q 2313 4219 1838 4219 
Q 1578 4219 1281 4162 
Q 984 4106 628 3988 
L 628 4550 
Q 988 4650 1302 4700 
Q 1616 4750 1894 4750 
Q 2613 4750 3031 4423 
Q 3450 4097 3450 3541 
Q 3450 3153 3228 2886 
Q 3006 2619 2597 2516 
z
" transform="scale(0.015625)"/>
       </defs>
       <use xlink:href="#DejaVuSans-32"/>
       <use xlink:href="#DejaVuSans-30" x="63.623047"/>
       <use xlink:href="#DejaVuSans-32" x="127.246094"/>
       <use xlink:href="#DejaVuSans-33" x="190.869141"/>
       <use xlink:href="#DejaVuSans-2d" x="254.492188"/>
       <use xlink:href="#DejaVuSans-30" x="290.576172"/>
       <use xlink:href="#DejaVuSans-31" x="354.199219"/>
      </g>
     </g>
    </g>
   </g>
   <g id="matplotlib.axis_2">
    <g id="ytick_1">
     <g id="line2d_11">
      <defs>
       <path id="mb0d8fb43fa" d="M 0 0 
L -3.5 0 
" style="stroke: #000000; stroke-width: 0.8"/>
      </defs>
      <g>
       <use xlink:href="#mb0d8fb43fa" x="39.65" y="337.394179" style="stroke: #000000; stroke-width: 0.8"/>
      </g>
     </g>
     <g id="text_11">
      <!-- 0 -->
      <g transform="translate(26.2875 341.193398)scale(0.1 -0.1)">
       <use xlink:href="#DejaVuSans-30"/>
      </g>
     </g>
    </g>
    <g id="ytick_2">
     <g id="line2d_12">
      <g>
       <use xlink:href="#mb0d8fb43fa" x="39.65" y="296.462939" style="stroke: #000000; stroke-width: 0.8"/>
      </g>
     </g>
     <g id="text_12">
      <!-- 250 -->
      <g transform="translate(13.5625 300.262158)scale(0.1 -0.1)">
       <use xlink:href="#DejaVuSans-32"/>
       <use xlink:href="#DejaVuSans-35" x="63.623047"/>
       <use xlink:href="#DejaVuSans-30" x="127.246094"/>
      </g>
     </g>
    </g>
    <g id="ytick_3">
     <g id="line2d_13">
      <g>
       <use xlink:href="#mb0d8fb43fa" x="39.65" y="255.531699" style="stroke: #000000; stroke-width: 0.8"/>
      </g>
     </g>
     <g id="text_13">
      <!-- 500 -->
      <g transform="translate(13.5625 259.330918)scale(0.1 -0.1)">
       <use xlink:href="#DejaVuSans-35"/>
       <use xlink:href="#DejaVuSans-30" x="63.623047"/>
       <use xlink:href="#DejaVuSans-30" x="127.246094"/>
      </g>
     </g>
    </g>
    <g id="ytick_4">
     <g id="line2d_14">
      <g>
       <use xlink:href="#mb0d8fb43fa" x="39.65" y="214.600459" style="stroke: #000000; stroke-width: 0.8"/>
      </g>
     </g>
     <g id="text_14">
      <!-- 750 -->
      <g transform="translate(13.5625 218.399678)scale(0.1 -0.1)">
       <defs>
        <path id="DejaVuSans-37" d="M 525 4666 
L 3525 4666 
L 3525 4397 
L 1831 0 
L 1172 0 
L 2766 4134 
L 525 4134 
L 525 4666 
z
" transform="scale(0.015625)"/>
       </defs>
       <use xlink:href="#DejaVuSans-37"/>
       <use xlink:href="#DejaVuSans-35" x="63.623047"/>
       <use xlink:href="#DejaVuSans-30" x="127.246094"/>
      </g>
     </g>
    </g>
    <g id="ytick_5">
     <g id="line2d_15">
      <g>
       <use xlink:href="#mb0d8fb43fa" x="39.65" y="173.66922" style="stroke: #000000; stroke-width: 0.8"/>
      </g>
     </g>
     <g id="text_15">
      <!-- 1000 -->
      <g transform="translate(7.2 177.468438)scale(0.1 -0.1)">
       <use xlink:href="#DejaVuSans-31"/>
       <use xlink:href="#DejaVuSans-30" x="63.623047"/>
       <use xlink:href="#DejaVuSans-30" x="127.246094"/>
       <use xlink:href="#DejaVuSans-30" x="190.869141"/>
      </g>
     </g>
    </g>
    <g id="ytick_6">
     <g id="line2d_16">
      <g>
       <use xlink:href="#mb0d8fb43fa" x="39.65" y="132.73798" style="stroke: #000000; stroke-width: 0.8"/>
      </g>
     </g>
     <g id="text_16">
      <!-- 1250 -->
      <g transform="translate(7.2 136.537198)scale(0.1 -0.1)">
       <use xlink:href="#DejaVuSans-31"/>
       <use xlink:href="#DejaVuSans-32" x="63.623047"/>
       <use xlink:href="#DejaVuSans-35" x="127.246094"/>
       <use xlink:href="#DejaVuSans-30" x="190.869141"/>
      </g>
     </g>
    </g>
    <g id="ytick_7">
     <g id="line2d_17">
      <g>
       <use xlink:href="#mb0d8fb43fa" x="39.65" y="91.80674" style="stroke: #000000; stroke-width: 0.8"/>
      </g>
     </g>
     <g id="text_17">
      <!-- 1500 -->
      <g transform="translate(7.2 95.605959)scale(0.1 -0.1)">
       <use xlink:href="#DejaVuSans-31"/>
       <use xlink:href="#DejaVuSans-35" x="63.623047"/>
       <use xlink:href="#DejaVuSans-30" x="127.246094"/>
       <use xlink:href="#DejaVuSans-30" x="190.869141"/>
      </g>
     </g>
    </g>
    <g id="ytick_8">
     <g id="line2d_18">
      <g>
       <use xlink:href="#mb0d8fb43fa" x="39.65" y="50.8755" style="stroke: #000000; stroke-width: 0.8"/>
      </g>
     </g>
     <g id="text_18">
      <!-- 1750 -->
      <g transform="translate(7.2 54.674719)scale(0.1 -0.1)">
       <use xlink:href="#DejaVuSans-31"/>
       <use xlink:href="#DejaVuSans-37" x="63.623047"/>
       <use xlink:href="#DejaVuSans-35" x="127.246094"/>
       <use xlink:href="#DejaVuSans-30" x="190.869141"/>
      </g>
     </g>
    </g>
   </g>
   <g id="line2d_19">
    <path d="M 100.522727 337.394179 
L 156.91708 337.394179 
L 158.022851 337.230454 
L 159.128623 337.394179 
L 160.234394 337.394179 
L 161.340166 336.903004 
L 162.445938 337.066729 
L 163.551709 337.394179 
L 165.763252 337.394179 
L 166.869024 336.903004 
L 167.974796 337.394179 
L 169.080567 337.394179 
L 170.186339 336.903004 
L 171.29211 337.394179 
L 175.715197 337.394179 
L 176.820969 336.903004 
L 177.92674 337.394179 
L 179.032512 337.230454 
L 180.138283 337.394179 
L 183.455598 337.394179 
L 184.56137 337.066729 
L 185.667141 337.394179 
L 187.878685 337.394179 
L 188.984456 336.903004 
L 190.090228 337.394179 
L 191.196 334.11968 
L 193.407543 337.394179 
L 194.513314 332.80988 
L 195.619086 337.394179 
L 197.830629 337.394179 
L 198.936401 336.739279 
L 200.042172 337.230454 
L 201.147944 337.394179 
L 202.253716 316.109934 
L 203.359487 330.190281 
L 204.465259 337.394179 
L 205.57103 337.394179 
L 206.676802 328.061856 
L 207.782574 337.394179 
L 214.417203 337.394179 
L 215.522975 317.092284 
L 216.628747 337.394179 
L 222.157605 337.394179 
L 223.263376 323.805007 
L 224.369148 327.406956 
L 225.474919 335.593204 
L 226.580691 337.394179 
L 227.686463 337.394179 
L 228.792234 316.928559 
L 229.898006 320.039333 
L 231.003778 326.752057 
L 232.109549 335.265754 
L 233.215321 328.061856 
L 234.321092 337.394179 
L 235.426864 337.394179 
L 236.532636 323.805007 
L 237.638407 337.394179 
L 239.84995 337.394179 
L 240.955722 294.334515 
L 242.061494 337.394179 
L 259.753839 337.394179 
L 260.859611 278.780643 
L 261.965383 337.394179 
L 269.705784 337.394179 
L 270.811556 282.218868 
L 271.917327 337.394179 
L 277.446185 337.394179 
L 278.551957 162.208472 
L 279.657729 337.394179 
L 309.513562 337.394179 
L 310.619334 50.8755 
L 311.725105 337.394179 
L 330.523223 337.394179 
L 331.628994 325.769707 
L 332.734766 337.394179 
L 333.840538 331.82753 
L 334.946309 337.394179 
L 338.263624 337.394179 
L 339.369396 337.066729 
L 340.475167 337.394179 
L 341.580939 335.265754 
L 342.68671 337.394179 
L 344.898254 337.394179 
L 346.004025 333.46478 
L 347.109797 337.394179 
L 348.215568 337.394179 
L 349.32134 336.248104 
L 350.427112 337.394179 
L 351.532883 337.394179 
L 352.638655 335.265754 
L 353.744427 337.394179 
L 354.850198 336.575554 
L 355.95597 337.394179 
L 357.061741 336.411829 
L 358.167513 337.394179 
L 359.273285 337.394179 
L 360.379056 336.739279 
L 361.484828 337.394179 
L 362.590599 337.394179 
L 363.696371 337.066729 
L 364.802143 337.394179 
L 368.119458 337.394179 
L 369.225229 334.77458 
L 370.331001 337.394179 
L 372.542544 337.394179 
L 373.648316 335.756929 
L 374.754087 337.394179 
L 375.859859 337.394179 
L 376.96563 337.066729 
L 378.071402 337.394179 
L 379.177174 334.938305 
L 380.282945 337.394179 
L 383.60026 337.394179 
L 384.706032 336.248104 
L 385.811803 337.394179 
L 386.917575 335.756929 
L 388.023347 337.230454 
L 389.129118 337.394179 
L 390.23489 337.394179 
L 391.340661 336.903004 
L 392.446433 337.394179 
L 393.552205 337.066729 
L 394.657976 337.394179 
L 395.763748 337.394179 
L 396.869519 337.066729 
L 397.975291 337.394179 
L 399.081063 337.394179 
L 400.186834 336.739279 
L 401.292606 337.394179 
L 403.504149 337.394179 
L 404.609921 336.575554 
L 405.715692 337.394179 
L 406.821464 337.394179 
L 407.927236 336.739279 
L 409.033007 337.394179 
L 411.24455 337.394179 
L 412.350322 336.575554 
L 413.456094 337.394179 
L 414.561865 337.230454 
L 415.667637 337.394179 
L 416.773408 337.394179 
L 417.87918 336.903004 
L 418.984952 337.394179 
L 422.302267 337.394179 
L 423.408038 335.756929 
L 424.51381 337.394179 
L 425.619581 337.066729 
L 426.725353 337.394179 
L 430.042668 337.394179 
L 431.148439 334.610855 
L 432.254211 337.394179 
L 434.465754 337.394179 
L 435.571526 335.920654 
L 436.677297 337.394179 
L 437.783069 336.248104 
L 438.888841 337.394179 
L 439.994612 337.394179 
L 441.100384 335.920654 
L 442.206156 337.394179 
L 443.311927 336.248104 
L 444.417699 337.394179 
L 445.52347 337.394179 
L 446.629242 336.903004 
L 447.735014 337.394179 
L 448.840785 336.903004 
L 449.946557 337.394179 
L 452.1581 337.394179 
L 453.263872 336.248104 
L 454.369643 337.394179 
L 455.475415 334.610855 
L 456.581187 337.394179 
L 457.686958 337.394179 
L 458.79273 337.066729 
L 459.898501 337.394179 
L 461.004273 337.394179 
L 462.110045 335.756929 
L 463.215816 337.394179 
L 464.321588 334.283405 
L 465.427359 337.394179 
L 467.638903 337.394179 
L 468.744674 334.610855 
L 469.850446 337.394179 
L 470.956217 336.575554 
L 472.061989 337.394179 
L 474.273532 337.394179 
L 475.379304 335.429479 
L 476.485076 337.394179 
L 477.590847 337.394179 
L 478.696619 334.77458 
L 479.80239 335.265754 
L 480.908162 337.394179 
L 483.119705 337.394179 
L 484.225477 337.066729 
L 485.331248 337.394179 
L 486.43702 336.248104 
L 487.542792 337.394179 
L 488.648563 336.903004 
L 489.754335 337.394179 
L 490.860107 337.394179 
L 491.965878 336.248104 
L 493.07165 337.394179 
L 494.177421 334.11968 
L 495.283193 337.394179 
L 496.388965 337.394179 
L 497.494736 330.845181 
L 498.600508 337.394179 
L 499.706279 335.920654 
L 500.812051 337.394179 
L 503.023594 337.394179 
L 504.129366 331.50008 
L 505.235137 337.394179 
L 506.340909 337.394179 
L 507.446681 328.716756 
L 508.552452 337.394179 
L 509.658224 331.17263 
L 510.763996 337.394179 
L 511.869767 333.46478 
L 512.975539 337.394179 
L 514.08131 337.394179 
L 515.187082 334.44713 
L 516.292854 337.394179 
L 518.504397 337.394179 
L 519.610168 330.190281 
L 520.71594 337.394179 
L 521.821712 337.394179 
L 522.927483 331.50008 
L 524.033255 337.394179 
L 525.139027 330.190281 
L 526.244798 336.575554 
L 527.35057 337.394179 
L 528.456341 332.318705 
L 529.562113 337.394179 
L 532.879428 337.394179 
L 533.985199 328.716756 
L 535.090971 337.394179 
L 536.196743 329.044206 
L 537.302514 337.394179 
L 538.408286 337.394179 
L 539.514057 328.553031 
L 540.619829 337.394179 
L 541.725601 337.394179 
L 542.831372 320.203058 
L 543.937144 329.535381 
L 545.042916 337.394179 
L 546.148687 322.658933 
L 547.254459 337.394179 
L 548.36023 318.565809 
L 549.466002 337.394179 
L 550.571774 337.394179 
L 551.677545 317.910909 
L 552.783317 337.394179 
L 553.889088 330.517731 
L 554.99486 337.394179 
L 556.100632 337.394179 
L 557.206403 323.477557 
L 558.312175 337.394179 
L 559.417946 320.039333 
L 560.523718 337.394179 
L 561.62949 337.394179 
L 562.735261 330.681456 
L 563.841033 337.394179 
L 564.946805 327.079506 
L 566.052576 337.394179 
L 567.158348 325.933432 
L 568.264119 337.394179 
L 569.369891 330.190281 
L 570.475663 337.394179 
L 571.581434 325.769707 
L 572.687206 337.394179 
L 573.792977 337.394179 
L 574.898749 329.044206 
L 576.004521 337.394179 
L 577.110292 335.429479 
L 578.216064 337.394179 
L 579.321836 337.394179 
L 580.427607 322.004033 
L 581.533379 337.394179 
L 583.744922 337.394179 
L 584.850694 329.044206 
L 585.956465 337.394179 
L 589.27378 337.394179 
L 590.379552 311.198185 
L 591.485323 337.394179 
L 593.696866 337.394179 
L 594.802638 330.845181 
L 595.90841 337.394179 
L 600.331496 337.394179 
L 601.437268 297.117839 
L 602.543039 337.394179 
L 603.648811 337.394179 
L 604.754583 328.553031 
L 605.860354 337.394179 
L 610.283441 337.394179 
L 611.389212 315.291309 
L 612.494984 337.394179 
L 633.504645 337.394179 
L 634.610416 215.910259 
L 635.716188 337.394179 
L 637.927731 337.394179 
L 639.033503 330.845181 
L 640.139274 337.394179 
L 643.456589 337.394179 
L 644.562361 328.716756 
L 645.668132 337.394179 
L 646.773904 337.394179 
L 647.879676 330.354006 
L 648.985447 337.394179 
L 651.19699 337.394179 
L 652.302762 328.553031 
L 653.408534 337.394179 
L 654.514305 337.394179 
L 655.620077 335.10203 
L 656.725848 337.394179 
L 658.937392 337.394179 
L 660.043163 335.756929 
L 661.148935 337.394179 
L 662.254706 335.429479 
L 663.360478 337.394179 
L 664.46625 337.394179 
L 665.572021 334.44713 
L 666.677793 334.44713 
L 667.783565 337.394179 
L 668.889336 337.394179 
L 669.995108 335.756929 
L 671.100879 337.394179 
L 672.206651 337.394179 
L 673.312423 336.739279 
L 674.418194 337.394179 
L 675.523966 335.593204 
L 676.629737 337.394179 
L 677.735509 337.394179 
L 678.841281 335.593204 
L 679.947052 337.394179 
L 681.052824 336.084379 
L 682.158595 337.394179 
L 683.264367 334.610855 
L 684.370139 337.394179 
L 685.47591 337.394179 
L 686.581682 334.77458 
L 687.687454 337.394179 
L 688.793225 334.938305 
L 689.898997 337.394179 
L 692.11054 337.394179 
L 693.216312 333.301055 
L 694.322083 337.394179 
L 695.427855 335.265754 
L 696.533626 337.394179 
L 700.956713 337.394179 
L 702.062485 334.11968 
L 703.168256 337.394179 
L 704.274028 337.394179 
L 705.379799 334.938305 
L 706.485571 337.394179 
L 708.697114 337.394179 
L 709.802886 334.610855 
L 710.908657 337.394179 
L 715.331744 337.394179 
L 716.437515 332.318705 
L 717.543287 337.394179 
L 718.649059 334.610855 
L 719.75483 337.394179 
L 720.860602 335.429479 
L 721.966374 337.394179 
L 723.072145 335.593204 
L 724.177917 337.394179 
L 728.601003 337.394179 
L 729.706775 333.955955 
L 730.812546 337.394179 
L 733.02409 337.394179 
L 734.129861 331.17263 
L 735.235633 337.394179 
L 736.341405 331.008906 
L 737.447176 337.394179 
L 739.658719 337.394179 
L 740.764491 329.699106 
L 741.870263 324.787357 
L 742.976034 337.394179 
L 745.187577 337.394179 
L 746.293349 312.34426 
L 747.399121 337.394179 
L 748.504892 312.67171 
L 749.610664 337.394179 
L 750.716435 337.394179 
L 751.822207 291.060015 
L 752.927979 337.394179 
L 754.03375 337.394179 
L 755.139522 308.087411 
L 756.245294 337.394179 
L 757.351065 337.394179 
L 758.456837 280.909068 
L 759.562608 337.394179 
L 760.66838 302.357038 
L 761.774152 337.394179 
L 763.985695 337.394179 
L 765.091466 289.259041 
L 766.197238 293.024715 
L 767.30301 337.394179 
L 770.620324 337.394179 
L 771.726096 258.642473 
L 772.831868 337.394179 
L 773.937639 294.49824 
L 775.043411 337.394179 
L 779.466497 337.394179 
L 780.572269 270.594396 
L 781.678041 313.162885 
L 782.783812 337.394179 
L 784.995355 337.394179 
L 786.101127 309.560936 
L 787.206899 337.394179 
L 788.31267 337.394179 
L 789.418442 316.928559 
L 790.524214 337.394179 
L 792.735757 337.394179 
L 793.841528 316.273659 
L 794.9473 337.394179 
L 796.053072 328.553031 
L 797.158843 337.394179 
L 800.476158 337.394179 
L 801.58193 307.923686 
L 802.687701 337.394179 
L 803.793473 324.787357 
L 804.899244 337.394179 
L 806.005016 337.394179 
L 807.110788 326.097157 
L 808.216559 337.394179 
L 809.322331 337.394179 
L 810.428103 325.933432 
L 811.533874 337.394179 
L 812.639646 337.394179 
L 813.745417 326.260882 
L 814.851189 326.915782 
L 815.956961 337.394179 
L 817.062732 337.394179 
L 818.168504 335.920654 
L 819.274275 337.394179 
L 820.380047 332.48243 
L 821.485819 337.394179 
L 823.697362 337.394179 
L 824.803134 328.880481 
L 825.908905 337.394179 
L 827.014677 337.394179 
L 828.120448 333.13733 
L 829.22622 337.394179 
L 832.543535 337.394179 
L 833.649306 331.82753 
L 834.755078 337.394179 
L 835.86085 337.394179 
L 836.966621 336.411829 
L 838.072393 335.265754 
L 839.178164 337.394179 
L 840.283936 337.394179 
L 841.389708 335.920654 
L 842.495479 337.394179 
L 843.601251 337.394179 
L 844.707023 332.15498 
L 845.812794 337.394179 
L 848.024337 337.394179 
L 849.130109 335.265754 
L 850.235881 337.394179 
L 851.341652 336.248104 
L 852.447424 337.394179 
L 859.082054 337.394179 
L 860.187825 335.265754 
L 861.293597 337.394179 
L 864.610912 337.394179 
L 865.716683 336.575554 
L 866.822455 337.394179 
L 867.928226 337.230454 
L 869.033998 337.394179 
L 873.457084 337.394179 
L 874.562856 336.575554 
L 875.668628 337.394179 
L 876.774399 336.248104 
L 877.880171 337.394179 
L 878.985943 337.394179 
L 880.091714 336.248104 
L 881.197486 337.394179 
L 882.303257 325.442257 
L 883.409029 337.394179 
L 887.832115 337.394179 
L 888.937887 310.215836 
L 890.043659 337.394179 
L 891.14943 251.438575 
L 892.255202 337.394179 
L 893.360973 337.394179 
L 894.466745 260.443448 
L 895.572517 337.394179 
L 897.78406 337.394179 
L 898.889832 264.045397 
L 899.995603 337.394179 
L 901.101375 337.394179 
L 902.207146 309.069761 
L 903.312918 337.394179 
L 904.41869 326.588332 
L 905.524461 337.394179 
L 906.630233 337.394179 
L 907.736004 315.782484 
L 908.841776 337.394179 
L 909.947548 330.517731 
L 911.053319 337.394179 
L 912.159091 330.517731 
L 913.264863 337.394179 
L 914.370634 332.80988 
L 915.476406 337.394179 
L 917.687949 337.394179 
L 918.793721 333.13733 
L 919.899492 337.394179 
L 921.005264 337.394179 
L 922.111035 334.610855 
L 923.216807 337.394179 
L 924.322579 337.394179 
L 925.42835 336.575554 
L 926.534122 337.394179 
L 927.639893 337.394179 
L 928.745665 336.903004 
L 929.851437 337.394179 
L 930.957208 336.411829 
L 932.06298 337.394179 
L 933.168752 337.394179 
L 934.274523 335.756929 
L 935.380295 337.394179 
L 936.486066 337.230454 
L 937.591838 337.394179 
L 939.803381 337.394179 
L 940.909153 336.739279 
L 942.014924 337.394179 
L 943.120696 337.394179 
L 944.226468 336.903004 
L 945.332239 337.394179 
L 947.543783 337.394179 
L 948.649554 336.248104 
L 949.755326 337.394179 
L 950.861097 337.230454 
L 951.966869 337.394179 
L 953.072641 337.394179 
L 954.178412 336.739279 
L 955.284184 337.394179 
L 956.389955 336.575554 
L 957.495727 337.394179 
L 960.813042 337.394179 
L 961.918813 337.230454 
L 963.024585 337.394179 
L 964.130357 336.903004 
L 965.236128 337.394179 
L 966.3419 337.394179 
L 967.447672 337.230454 
L 968.553443 337.394179 
L 971.870758 337.394179 
L 972.97653 336.903004 
L 974.082301 321.512858 
L 975.188073 337.394179 
L 978.505388 337.394179 
L 979.611159 337.230454 
L 980.716931 337.394179 
L 988.457332 337.394179 
L 989.563104 337.230454 
L 990.668875 337.394179 
L 993.98619 337.394179 
L 995.091962 353.2755 
L 996.197733 337.394179 
L 997.303505 337.066729 
L 998.409277 337.394179 
L 1002.832363 337.394179 
L 1003.938135 337.230454 
L 1005.043906 337.394179 
L 1018.313166 337.394179 
L 1019.418937 337.230454 
L 1020.524709 337.394179 
L 1021.630481 337.066729 
L 1022.736252 337.394179 
L 1043.745913 337.394179 
L 1044.851684 336.739279 
L 1045.957456 337.230454 
L 1047.063228 337.394179 
L 1048.168999 337.394179 
L 1049.274771 336.411829 
L 1050.380542 337.394179 
L 1051.486314 337.066729 
L 1052.592086 337.394179 
L 1053.697857 337.394179 
L 1054.803629 337.230454 
L 1055.909401 337.394179 
L 1057.015172 337.394179 
L 1058.120944 336.903004 
L 1059.226715 336.739279 
L 1060.332487 337.066729 
L 1061.438259 336.739279 
L 1062.54403 337.394179 
L 1063.649802 337.394179 
L 1064.755573 336.084379 
L 1065.861345 337.394179 
L 1068.072888 337.394179 
L 1069.17866 336.411829 
L 1070.284432 337.394179 
L 1072.495975 337.394179 
L 1073.601746 336.739279 
L 1074.707518 336.248104 
L 1075.81329 337.394179 
L 1076.919061 331.991255 
L 1078.024833 337.394179 
L 1080.236376 337.394179 
L 1081.342148 331.008906 
L 1082.447919 337.394179 
L 1083.553691 337.394179 
L 1084.659462 328.716756 
L 1085.765234 337.394179 
L 1086.871006 337.394179 
L 1087.976777 332.973605 
L 1089.082549 324.787357 
L 1090.188321 337.394179 
L 1091.294092 337.394179 
L 1092.399864 305.958987 
L 1093.505635 337.394179 
L 1094.611407 337.394179 
L 1095.717179 323.641282 
L 1096.82295 331.336355 
L 1097.928722 337.394179 
L 1099.034493 337.394179 
L 1100.140265 324.296182 
L 1101.246037 337.394179 
L 1102.351808 337.394179 
L 1103.45758 331.336355 
L 1104.563351 337.394179 
L 1105.669123 331.991255 
L 1106.774895 337.394179 
L 1110.09221 337.394179 
L 1111.197981 329.207931 
L 1112.303753 337.394179 
L 1113.409524 336.739279 
L 1114.515296 337.394179 
L 1115.621068 334.938305 
L 1116.726839 337.394179 
L 1117.832611 337.394179 
L 1118.938382 334.44713 
L 1120.044154 337.394179 
L 1122.255697 337.394179 
L 1123.361469 332.48243 
L 1124.467241 336.575554 
L 1125.573012 337.394179 
L 1126.678784 335.920654 
L 1127.784555 336.739279 
L 1128.890327 337.394179 
L 1129.996099 336.411829 
L 1131.10187 321.512858 
L 1132.207642 337.394179 
L 1133.313413 337.394179 
L 1134.419185 336.411829 
L 1135.524957 337.394179 
L 1136.630728 334.77458 
L 1137.7365 337.394179 
L 1138.842271 336.903004 
L 1139.948043 337.394179 
L 1141.053815 337.394179 
L 1142.159586 336.903004 
L 1143.265358 334.610855 
L 1144.37113 337.230454 
L 1145.476901 337.394179 
L 1146.582673 336.248104 
L 1147.688444 337.394179 
L 1148.794216 337.394179 
L 1149.899988 337.230454 
L 1151.005759 336.739279 
L 1152.111531 336.411829 
L 1153.217302 337.394179 
L 1154.323074 337.230454 
L 1155.428846 337.394179 
L 1157.640389 337.394179 
L 1158.746161 336.575554 
L 1159.851932 337.066729 
L 1160.957704 337.394179 
L 1162.063475 337.230454 
L 1163.169247 337.394179 
L 1165.38079 337.394179 
L 1166.486562 336.575554 
L 1167.592333 334.11968 
L 1168.698105 337.230454 
L 1169.803877 337.394179 
L 1173.121191 337.394179 
L 1174.226963 336.903004 
L 1175.332735 335.429479 
L 1176.438506 337.394179 
L 1177.544278 336.903004 
L 1178.65005 337.394179 
L 1179.755821 337.394179 
L 1180.861593 337.230454 
L 1181.967364 337.394179 
L 1183.073136 337.394179 
L 1184.178908 337.066729 
L 1185.284679 337.394179 
L 1187.496222 337.394179 
L 1188.601994 336.739279 
L 1189.707766 337.394179 
L 1190.813537 335.920654 
L 1191.919309 337.394179 
L 1193.025081 336.575554 
L 1194.130852 337.394179 
L 1195.236624 337.394179 
L 1196.342395 335.756929 
L 1197.448167 336.411829 
L 1198.553939 337.394179 
L 1199.65971 337.394179 
L 1200.765482 331.663805 
L 1201.871253 337.394179 
L 1202.977025 337.394179 
L 1204.082797 331.50008 
L 1205.188568 337.394179 
L 1206.29434 335.10203 
L 1207.400111 337.066729 
L 1208.505883 337.394179 
L 1211.823198 337.394179 
L 1212.92897 334.11968 
L 1214.034741 335.756929 
L 1215.140513 336.084379 
L 1216.246284 337.394179 
L 1219.563599 337.394179 
L 1220.669371 337.066729 
L 1222.880914 337.394179 
L 1227.304 337.394179 
L 1228.409772 336.739279 
L 1229.515544 337.394179 
L 1230.621315 336.739279 
L 1231.727087 337.394179 
L 1250.525204 337.394179 
L 1251.630976 337.230454 
L 1252.736748 337.394179 
L 1258.265606 337.394179 
L 1259.371377 337.230454 
L 1260.477149 337.394179 
L 1267.111779 337.394179 
L 1268.21755 337.066729 
L 1269.323322 337.394179 
L 1302.49647 337.394179 
L 1302.49647 337.394179 
" clip-path="url(#p86f1dd6658)" style="fill: none; stroke: #0000ff; stroke-width: 1.5; stroke-linecap: square"/>
   </g>
   <g id="line2d_20">
    <path d="M 1062.54403 335.097699 
L 1065.861345 335.058966 
L 1069.17866 335.039599 
L 1071.390203 335.117065 
L 1072.495975 334.962133 
L 1073.601746 335.117065 
L 1075.81329 335.117065 
L 1076.919061 335.000866 
L 1078.024833 335.117065 
L 1081.342148 335.039599 
L 1082.447919 334.9815 
L 1083.553691 335.117065 
L 1084.659462 334.47797 
L 1085.765234 335.117065 
L 1087.976777 335.117065 
L 1089.082549 334.361771 
L 1090.188321 335.117065 
L 1091.294092 335.117065 
L 1092.399864 334.090639 
L 1093.505635 335.117065 
L 1094.611407 335.117065 
L 1095.717179 334.594169 
L 1096.82295 333.625842 
L 1097.928722 335.117065 
L 1099.034493 335.117065 
L 1100.140265 331.398691 
L 1101.246037 335.117065 
L 1102.351808 335.117065 
L 1103.45758 333.490277 
L 1104.563351 334.400504 
L 1105.669123 335.117065 
L 1106.774895 335.117065 
L 1107.880666 333.567743 
L 1108.986438 335.117065 
L 1110.09221 335.117065 
L 1111.197981 334.400504 
L 1112.303753 335.117065 
L 1113.409524 334.47797 
L 1114.515296 335.117065 
L 1117.832611 335.117065 
L 1118.938382 334.148739 
L 1120.044154 335.117065 
L 1121.149926 335.039599 
L 1122.255697 335.117065 
L 1123.361469 334.826567 
L 1124.467241 335.117065 
L 1125.573012 335.117065 
L 1126.678784 334.768468 
L 1127.784555 335.117065 
L 1129.996099 335.117065 
L 1131.10187 334.536069 
L 1132.207642 335.020233 
L 1133.313413 335.117065 
L 1134.419185 334.942767 
L 1136.630728 335.117065 
L 1137.7365 335.000866 
L 1138.842271 333.238512 
L 1139.948043 335.117065 
L 1141.053815 335.117065 
L 1142.159586 335.000866 
L 1143.265358 335.117065 
L 1144.37113 334.807201 
L 1145.476901 335.117065 
L 1146.582673 335.058966 
L 1148.794216 335.117065 
L 1149.899988 335.058966 
L 1151.005759 334.787834 
L 1152.111531 335.097699 
L 1153.217302 335.117065 
L 1154.323074 334.9815 
L 1155.428846 335.117065 
L 1158.746161 335.039599 
L 1159.851932 335.000866 
L 1160.957704 335.117065 
L 1167.592333 335.078332 
L 1170.909648 335.117065 
L 1174.226963 335.020233 
L 1175.332735 334.729735 
L 1176.438506 335.097699 
L 1180.861593 335.117065 
L 1181.967364 335.058966 
L 1183.073136 334.884667 
L 1184.178908 335.117065 
L 1185.284679 335.058966 
L 1187.496222 335.117065 
L 1193.025081 335.117065 
L 1197.448167 335.117065 
L 1198.553939 334.942767 
L 1199.65971 335.117065 
L 1200.765482 335.020233 
L 1202.977025 335.117065 
L 1204.082797 334.9234 
L 1207.400111 335.117065 
L 1208.505883 334.439237 
L 1209.611655 335.117065 
L 1210.717426 335.117065 
L 1211.823198 334.41987 
L 1212.92897 335.117065 
L 1214.034741 334.845934 
L 1215.140513 335.078332 
L 1218.457828 335.117065 
L 1219.563599 335.117065 
L 1220.669371 334.729735 
L 1221.775142 334.9234 
L 1222.880914 334.962133 
L 1223.986686 335.117065 
L 1302.49647 335.117065 
L 1302.49647 335.117065 
" clip-path="url(#p86f1dd6658)" style="fill: none; stroke: #ffa500; stroke-width: 1.5; stroke-linecap: square"/>
   </g>
   <g id="line2d_21">
    <path d="M 1303.602242 335.117065 
L 1304.708013 335.117065 
L 1305.813785 335.117065 
L 1306.919557 335.117065 
L 1308.025328 335.117065 
L 1309.1311 335.117065 
L 1310.236871 335.117065 
L 1311.342643 334.847712 
L 1312.448415 334.847712 
L 1313.554186 334.847712 
L 1314.659958 334.847712 
L 1315.76573 334.847712 
L 1316.871501 334.847712 
L 1317.977273 334.847712 
" clip-path="url(#p86f1dd6658)" style="fill: none; stroke: #ff0000; stroke-width: 1.5; stroke-linecap: square"/>
   </g>
   <g id="patch_3">
    <path d="M 39.65 368.3955 
L 39.65 35.7555 
" style="fill: none; stroke: #000000; stroke-width: 0.8; stroke-linejoin: miter; stroke-linecap: square"/>
   </g>
   <g id="patch_4">
    <path d="M 1378.85 368.3955 
L 1378.85 35.7555 
" style="fill: none; stroke: #000000; stroke-width: 0.8; stroke-linejoin: miter; stroke-linecap: square"/>
   </g>
   <g id="patch_5">
    <path d="M 39.65 368.3955 
L 1378.85 368.3955 
" style="fill: none; stroke: #000000; stroke-width: 0.8; stroke-linejoin: miter; stroke-linecap: square"/>
   </g>
   <g id="patch_6">
    <path d="M 39.65 35.7555 
L 1378.85 35.7555 
" style="fill: none; stroke: #000000; stroke-width: 0.8; stroke-linejoin: miter; stroke-linecap: square"/>
   </g>
   <g id="text_19">
    <!-- Daily Confirmed Cases Forecasting - Equatorial Guinea -->
    <g transform="translate(544.972813 16.318125)scale(0.12 -0.12)">
     <defs>
      <path id="DejaVuSans-44" d="M 1259 4147 
L 1259 519 
L 2022 519 
Q 2988 519 3436 956 
Q 3884 1394 3884 2338 
Q 3884 3275 3436 3711 
Q 2988 4147 2022 4147 
L 1259 4147 
z
M 628 4666 
L 1925 4666 
Q 3281 4666 3915 4102 
Q 4550 3538 4550 2338 
Q 4550 1131 3912 565 
Q 3275 0 1925 0 
L 628 0 
L 628 4666 
z
" transform="scale(0.015625)"/>
      <path id="DejaVuSans-61" d="M 2194 1759 
Q 1497 1759 1228 1600 
Q 959 1441 959 1056 
Q 959 750 1161 570 
Q 1363 391 1709 391 
Q 2188 391 2477 730 
Q 2766 1069 2766 1631 
L 2766 1759 
L 2194 1759 
z
M 3341 1997 
L 3341 0 
L 2766 0 
L 2766 531 
Q 2569 213 2275 61 
Q 1981 -91 1556 -91 
Q 1019 -91 701 211 
Q 384 513 384 1019 
Q 384 1609 779 1909 
Q 1175 2209 1959 2209 
L 2766 2209 
L 2766 2266 
Q 2766 2663 2505 2880 
Q 2244 3097 1772 3097 
Q 1472 3097 1187 3025 
Q 903 2953 641 2809 
L 641 3341 
Q 956 3463 1253 3523 
Q 1550 3584 1831 3584 
Q 2591 3584 2966 3190 
Q 3341 2797 3341 1997 
z
" transform="scale(0.015625)"/>
      <path id="DejaVuSans-69" d="M 603 3500 
L 1178 3500 
L 1178 0 
L 603 0 
L 603 3500 
z
M 603 4863 
L 1178 4863 
L 1178 4134 
L 603 4134 
L 603 4863 
z
" transform="scale(0.015625)"/>
      <path id="DejaVuSans-6c" d="M 603 4863 
L 1178 4863 
L 1178 0 
L 603 0 
L 603 4863 
z
" transform="scale(0.015625)"/>
      <path id="DejaVuSans-79" d="M 2059 -325 
Q 1816 -950 1584 -1140 
Q 1353 -1331 966 -1331 
L 506 -1331 
L 506 -850 
L 844 -850 
Q 1081 -850 1212 -737 
Q 1344 -625 1503 -206 
L 1606 56 
L 191 3500 
L 800 3500 
L 1894 763 
L 2988 3500 
L 3597 3500 
L 2059 -325 
z
" transform="scale(0.015625)"/>
      <path id="DejaVuSans-20" transform="scale(0.015625)"/>
      <path id="DejaVuSans-43" d="M 4122 4306 
L 4122 3641 
Q 3803 3938 3442 4084 
Q 3081 4231 2675 4231 
Q 1875 4231 1450 3742 
Q 1025 3253 1025 2328 
Q 1025 1406 1450 917 
Q 1875 428 2675 428 
Q 3081 428 3442 575 
Q 3803 722 4122 1019 
L 4122 359 
Q 3791 134 3420 21 
Q 3050 -91 2638 -91 
Q 1578 -91 968 557 
Q 359 1206 359 2328 
Q 359 3453 968 4101 
Q 1578 4750 2638 4750 
Q 3056 4750 3426 4639 
Q 3797 4528 4122 4306 
z
" transform="scale(0.015625)"/>
      <path id="DejaVuSans-6f" d="M 1959 3097 
Q 1497 3097 1228 2736 
Q 959 2375 959 1747 
Q 959 1119 1226 758 
Q 1494 397 1959 397 
Q 2419 397 2687 759 
Q 2956 1122 2956 1747 
Q 2956 2369 2687 2733 
Q 2419 3097 1959 3097 
z
M 1959 3584 
Q 2709 3584 3137 3096 
Q 3566 2609 3566 1747 
Q 3566 888 3137 398 
Q 2709 -91 1959 -91 
Q 1206 -91 779 398 
Q 353 888 353 1747 
Q 353 2609 779 3096 
Q 1206 3584 1959 3584 
z
" transform="scale(0.015625)"/>
      <path id="DejaVuSans-6e" d="M 3513 2113 
L 3513 0 
L 2938 0 
L 2938 2094 
Q 2938 2591 2744 2837 
Q 2550 3084 2163 3084 
Q 1697 3084 1428 2787 
Q 1159 2491 1159 1978 
L 1159 0 
L 581 0 
L 581 3500 
L 1159 3500 
L 1159 2956 
Q 1366 3272 1645 3428 
Q 1925 3584 2291 3584 
Q 2894 3584 3203 3211 
Q 3513 2838 3513 2113 
z
" transform="scale(0.015625)"/>
      <path id="DejaVuSans-66" d="M 2375 4863 
L 2375 4384 
L 1825 4384 
Q 1516 4384 1395 4259 
Q 1275 4134 1275 3809 
L 1275 3500 
L 2222 3500 
L 2222 3053 
L 1275 3053 
L 1275 0 
L 697 0 
L 697 3053 
L 147 3053 
L 147 3500 
L 697 3500 
L 697 3744 
Q 697 4328 969 4595 
Q 1241 4863 1831 4863 
L 2375 4863 
z
" transform="scale(0.015625)"/>
      <path id="DejaVuSans-72" d="M 2631 2963 
Q 2534 3019 2420 3045 
Q 2306 3072 2169 3072 
Q 1681 3072 1420 2755 
Q 1159 2438 1159 1844 
L 1159 0 
L 581 0 
L 581 3500 
L 1159 3500 
L 1159 2956 
Q 1341 3275 1631 3429 
Q 1922 3584 2338 3584 
Q 2397 3584 2469 3576 
Q 2541 3569 2628 3553 
L 2631 2963 
z
" transform="scale(0.015625)"/>
      <path id="DejaVuSans-6d" d="M 3328 2828 
Q 3544 3216 3844 3400 
Q 4144 3584 4550 3584 
Q 5097 3584 5394 3201 
Q 5691 2819 5691 2113 
L 5691 0 
L 5113 0 
L 5113 2094 
Q 5113 2597 4934 2840 
Q 4756 3084 4391 3084 
Q 3944 3084 3684 2787 
Q 3425 2491 3425 1978 
L 3425 0 
L 2847 0 
L 2847 2094 
Q 2847 2600 2669 2842 
Q 2491 3084 2119 3084 
Q 1678 3084 1418 2786 
Q 1159 2488 1159 1978 
L 1159 0 
L 581 0 
L 581 3500 
L 1159 3500 
L 1159 2956 
Q 1356 3278 1631 3431 
Q 1906 3584 2284 3584 
Q 2666 3584 2933 3390 
Q 3200 3197 3328 2828 
z
" transform="scale(0.015625)"/>
      <path id="DejaVuSans-65" d="M 3597 1894 
L 3597 1613 
L 953 1613 
Q 991 1019 1311 708 
Q 1631 397 2203 397 
Q 2534 397 2845 478 
Q 3156 559 3463 722 
L 3463 178 
Q 3153 47 2828 -22 
Q 2503 -91 2169 -91 
Q 1331 -91 842 396 
Q 353 884 353 1716 
Q 353 2575 817 3079 
Q 1281 3584 2069 3584 
Q 2775 3584 3186 3129 
Q 3597 2675 3597 1894 
z
M 3022 2063 
Q 3016 2534 2758 2815 
Q 2500 3097 2075 3097 
Q 1594 3097 1305 2825 
Q 1016 2553 972 2059 
L 3022 2063 
z
" transform="scale(0.015625)"/>
      <path id="DejaVuSans-64" d="M 2906 2969 
L 2906 4863 
L 3481 4863 
L 3481 0 
L 2906 0 
L 2906 525 
Q 2725 213 2448 61 
Q 2172 -91 1784 -91 
Q 1150 -91 751 415 
Q 353 922 353 1747 
Q 353 2572 751 3078 
Q 1150 3584 1784 3584 
Q 2172 3584 2448 3432 
Q 2725 3281 2906 2969 
z
M 947 1747 
Q 947 1113 1208 752 
Q 1469 391 1925 391 
Q 2381 391 2643 752 
Q 2906 1113 2906 1747 
Q 2906 2381 2643 2742 
Q 2381 3103 1925 3103 
Q 1469 3103 1208 2742 
Q 947 2381 947 1747 
z
" transform="scale(0.015625)"/>
      <path id="DejaVuSans-73" d="M 2834 3397 
L 2834 2853 
Q 2591 2978 2328 3040 
Q 2066 3103 1784 3103 
Q 1356 3103 1142 2972 
Q 928 2841 928 2578 
Q 928 2378 1081 2264 
Q 1234 2150 1697 2047 
L 1894 2003 
Q 2506 1872 2764 1633 
Q 3022 1394 3022 966 
Q 3022 478 2636 193 
Q 2250 -91 1575 -91 
Q 1294 -91 989 -36 
Q 684 19 347 128 
L 347 722 
Q 666 556 975 473 
Q 1284 391 1588 391 
Q 1994 391 2212 530 
Q 2431 669 2431 922 
Q 2431 1156 2273 1281 
Q 2116 1406 1581 1522 
L 1381 1569 
Q 847 1681 609 1914 
Q 372 2147 372 2553 
Q 372 3047 722 3315 
Q 1072 3584 1716 3584 
Q 2034 3584 2315 3537 
Q 2597 3491 2834 3397 
z
" transform="scale(0.015625)"/>
      <path id="DejaVuSans-46" d="M 628 4666 
L 3309 4666 
L 3309 4134 
L 1259 4134 
L 1259 2759 
L 3109 2759 
L 3109 2228 
L 1259 2228 
L 1259 0 
L 628 0 
L 628 4666 
z
" transform="scale(0.015625)"/>
      <path id="DejaVuSans-63" d="M 3122 3366 
L 3122 2828 
Q 2878 2963 2633 3030 
Q 2388 3097 2138 3097 
Q 1578 3097 1268 2742 
Q 959 2388 959 1747 
Q 959 1106 1268 751 
Q 1578 397 2138 397 
Q 2388 397 2633 464 
Q 2878 531 3122 666 
L 3122 134 
Q 2881 22 2623 -34 
Q 2366 -91 2075 -91 
Q 1284 -91 818 406 
Q 353 903 353 1747 
Q 353 2603 823 3093 
Q 1294 3584 2113 3584 
Q 2378 3584 2631 3529 
Q 2884 3475 3122 3366 
z
" transform="scale(0.015625)"/>
      <path id="DejaVuSans-74" d="M 1172 4494 
L 1172 3500 
L 2356 3500 
L 2356 3053 
L 1172 3053 
L 1172 1153 
Q 1172 725 1289 603 
Q 1406 481 1766 481 
L 2356 481 
L 2356 0 
L 1766 0 
Q 1100 0 847 248 
Q 594 497 594 1153 
L 594 3053 
L 172 3053 
L 172 3500 
L 594 3500 
L 594 4494 
L 1172 4494 
z
" transform="scale(0.015625)"/>
      <path id="DejaVuSans-67" d="M 2906 1791 
Q 2906 2416 2648 2759 
Q 2391 3103 1925 3103 
Q 1463 3103 1205 2759 
Q 947 2416 947 1791 
Q 947 1169 1205 825 
Q 1463 481 1925 481 
Q 2391 481 2648 825 
Q 2906 1169 2906 1791 
z
M 3481 434 
Q 3481 -459 3084 -895 
Q 2688 -1331 1869 -1331 
Q 1566 -1331 1297 -1286 
Q 1028 -1241 775 -1147 
L 775 -588 
Q 1028 -725 1275 -790 
Q 1522 -856 1778 -856 
Q 2344 -856 2625 -561 
Q 2906 -266 2906 331 
L 2906 616 
Q 2728 306 2450 153 
Q 2172 0 1784 0 
Q 1141 0 747 490 
Q 353 981 353 1791 
Q 353 2603 747 3093 
Q 1141 3584 1784 3584 
Q 2172 3584 2450 3431 
Q 2728 3278 2906 2969 
L 2906 3500 
L 3481 3500 
L 3481 434 
z
" transform="scale(0.015625)"/>
      <path id="DejaVuSans-45" d="M 628 4666 
L 3578 4666 
L 3578 4134 
L 1259 4134 
L 1259 2753 
L 3481 2753 
L 3481 2222 
L 1259 2222 
L 1259 531 
L 3634 531 
L 3634 0 
L 628 0 
L 628 4666 
z
" transform="scale(0.015625)"/>
      <path id="DejaVuSans-71" d="M 947 1747 
Q 947 1113 1208 752 
Q 1469 391 1925 391 
Q 2381 391 2643 752 
Q 2906 1113 2906 1747 
Q 2906 2381 2643 2742 
Q 2381 3103 1925 3103 
Q 1469 3103 1208 2742 
Q 947 2381 947 1747 
z
M 2906 525 
Q 2725 213 2448 61 
Q 2172 -91 1784 -91 
Q 1150 -91 751 415 
Q 353 922 353 1747 
Q 353 2572 751 3078 
Q 1150 3584 1784 3584 
Q 2172 3584 2448 3432 
Q 2725 3281 2906 2969 
L 2906 3500 
L 3481 3500 
L 3481 -1331 
L 2906 -1331 
L 2906 525 
z
" transform="scale(0.015625)"/>
      <path id="DejaVuSans-75" d="M 544 1381 
L 544 3500 
L 1119 3500 
L 1119 1403 
Q 1119 906 1312 657 
Q 1506 409 1894 409 
Q 2359 409 2629 706 
Q 2900 1003 2900 1516 
L 2900 3500 
L 3475 3500 
L 3475 0 
L 2900 0 
L 2900 538 
Q 2691 219 2414 64 
Q 2138 -91 1772 -91 
Q 1169 -91 856 284 
Q 544 659 544 1381 
z
M 1991 3584 
L 1991 3584 
z
" transform="scale(0.015625)"/>
      <path id="DejaVuSans-47" d="M 3809 666 
L 3809 1919 
L 2778 1919 
L 2778 2438 
L 4434 2438 
L 4434 434 
Q 4069 175 3628 42 
Q 3188 -91 2688 -91 
Q 1594 -91 976 548 
Q 359 1188 359 2328 
Q 359 3472 976 4111 
Q 1594 4750 2688 4750 
Q 3144 4750 3555 4637 
Q 3966 4525 4313 4306 
L 4313 3634 
Q 3963 3931 3569 4081 
Q 3175 4231 2741 4231 
Q 1884 4231 1454 3753 
Q 1025 3275 1025 2328 
Q 1025 1384 1454 906 
Q 1884 428 2741 428 
Q 3075 428 3337 486 
Q 3600 544 3809 666 
z
" transform="scale(0.015625)"/>
     </defs>
     <use xlink:href="#DejaVuSans-44"/>
     <use xlink:href="#DejaVuSans-61" x="77.001953"/>
     <use xlink:href="#DejaVuSans-69" x="138.28125"/>
     <use xlink:href="#DejaVuSans-6c" x="166.064453"/>
     <use xlink:href="#DejaVuSans-79" x="193.847656"/>
     <use xlink:href="#DejaVuSans-20" x="253.027344"/>
     <use xlink:href="#DejaVuSans-43" x="284.814453"/>
     <use xlink:href="#DejaVuSans-6f" x="354.638672"/>
     <use xlink:href="#DejaVuSans-6e" x="415.820312"/>
     <use xlink:href="#DejaVuSans-66" x="479.199219"/>
     <use xlink:href="#DejaVuSans-69" x="514.404297"/>
     <use xlink:href="#DejaVuSans-72" x="542.1875"/>
     <use xlink:href="#DejaVuSans-6d" x="581.550781"/>
     <use xlink:href="#DejaVuSans-65" x="678.962891"/>
     <use xlink:href="#DejaVuSans-64" x="740.486328"/>
     <use xlink:href="#DejaVuSans-20" x="803.962891"/>
     <use xlink:href="#DejaVuSans-43" x="835.75"/>
     <use xlink:href="#DejaVuSans-61" x="905.574219"/>
     <use xlink:href="#DejaVuSans-73" x="966.853516"/>
     <use xlink:href="#DejaVuSans-65" x="1018.953125"/>
     <use xlink:href="#DejaVuSans-73" x="1080.476562"/>
     <use xlink:href="#DejaVuSans-20" x="1132.576172"/>
     <use xlink:href="#DejaVuSans-46" x="1164.363281"/>
     <use xlink:href="#DejaVuSans-6f" x="1218.257812"/>
     <use xlink:href="#DejaVuSans-72" x="1279.439453"/>
     <use xlink:href="#DejaVuSans-65" x="1318.302734"/>
     <use xlink:href="#DejaVuSans-63" x="1379.826172"/>
     <use xlink:href="#DejaVuSans-61" x="1434.806641"/>
     <use xlink:href="#DejaVuSans-73" x="1496.085938"/>
     <use xlink:href="#DejaVuSans-74" x="1548.185547"/>
     <use xlink:href="#DejaVuSans-69" x="1587.394531"/>
     <use xlink:href="#DejaVuSans-6e" x="1615.177734"/>
     <use xlink:href="#DejaVuSans-67" x="1678.556641"/>
     <use xlink:href="#DejaVuSans-20" x="1742.033203"/>
     <use xlink:href="#DejaVuSans-2d" x="1773.820312"/>
     <use xlink:href="#DejaVuSans-20" x="1809.904297"/>
     <use xlink:href="#DejaVuSans-45" x="1841.691406"/>
     <use xlink:href="#DejaVuSans-71" x="1904.875"/>
     <use xlink:href="#DejaVuSans-75" x="1968.351562"/>
     <use xlink:href="#DejaVuSans-61" x="2031.730469"/>
     <use xlink:href="#DejaVuSans-74" x="2093.009766"/>
     <use xlink:href="#DejaVuSans-6f" x="2132.21875"/>
     <use xlink:href="#DejaVuSans-72" x="2193.400391"/>
     <use xlink:href="#DejaVuSans-69" x="2234.513672"/>
     <use xlink:href="#DejaVuSans-61" x="2262.296875"/>
     <use xlink:href="#DejaVuSans-6c" x="2323.576172"/>
     <use xlink:href="#DejaVuSans-20" x="2351.359375"/>
     <use xlink:href="#DejaVuSans-47" x="2383.146484"/>
     <use xlink:href="#DejaVuSans-75" x="2460.636719"/>
     <use xlink:href="#DejaVuSans-69" x="2524.015625"/>
     <use xlink:href="#DejaVuSans-6e" x="2551.798828"/>
     <use xlink:href="#DejaVuSans-65" x="2615.177734"/>
     <use xlink:href="#DejaVuSans-61" x="2676.701172"/>
    </g>
    <!-- ARIMA (0, 0, 0)x(1, 0, 0, 7) (R2 = -0.113604) -->
    <g transform="translate(575.10125 29.7555)scale(0.12 -0.12)">
     <defs>
      <path id="DejaVuSans-41" d="M 2188 4044 
L 1331 1722 
L 3047 1722 
L 2188 4044 
z
M 1831 4666 
L 2547 4666 
L 4325 0 
L 3669 0 
L 3244 1197 
L 1141 1197 
L 716 0 
L 50 0 
L 1831 4666 
z
" transform="scale(0.015625)"/>
      <path id="DejaVuSans-52" d="M 2841 2188 
Q 3044 2119 3236 1894 
Q 3428 1669 3622 1275 
L 4263 0 
L 3584 0 
L 2988 1197 
Q 2756 1666 2539 1819 
Q 2322 1972 1947 1972 
L 1259 1972 
L 1259 0 
L 628 0 
L 628 4666 
L 2053 4666 
Q 2853 4666 3247 4331 
Q 3641 3997 3641 3322 
Q 3641 2881 3436 2590 
Q 3231 2300 2841 2188 
z
M 1259 4147 
L 1259 2491 
L 2053 2491 
Q 2509 2491 2742 2702 
Q 2975 2913 2975 3322 
Q 2975 3731 2742 3939 
Q 2509 4147 2053 4147 
L 1259 4147 
z
" transform="scale(0.015625)"/>
      <path id="DejaVuSans-49" d="M 628 4666 
L 1259 4666 
L 1259 0 
L 628 0 
L 628 4666 
z
" transform="scale(0.015625)"/>
      <path id="DejaVuSans-4d" d="M 628 4666 
L 1569 4666 
L 2759 1491 
L 3956 4666 
L 4897 4666 
L 4897 0 
L 4281 0 
L 4281 4097 
L 3078 897 
L 2444 897 
L 1241 4097 
L 1241 0 
L 628 0 
L 628 4666 
z
" transform="scale(0.015625)"/>
      <path id="DejaVuSans-28" d="M 1984 4856 
Q 1566 4138 1362 3434 
Q 1159 2731 1159 2009 
Q 1159 1288 1364 580 
Q 1569 -128 1984 -844 
L 1484 -844 
Q 1016 -109 783 600 
Q 550 1309 550 2009 
Q 550 2706 781 3412 
Q 1013 4119 1484 4856 
L 1984 4856 
z
" transform="scale(0.015625)"/>
      <path id="DejaVuSans-2c" d="M 750 794 
L 1409 794 
L 1409 256 
L 897 -744 
L 494 -744 
L 750 256 
L 750 794 
z
" transform="scale(0.015625)"/>
      <path id="DejaVuSans-29" d="M 513 4856 
L 1013 4856 
Q 1481 4119 1714 3412 
Q 1947 2706 1947 2009 
Q 1947 1309 1714 600 
Q 1481 -109 1013 -844 
L 513 -844 
Q 928 -128 1133 580 
Q 1338 1288 1338 2009 
Q 1338 2731 1133 3434 
Q 928 4138 513 4856 
z
" transform="scale(0.015625)"/>
      <path id="DejaVuSans-78" d="M 3513 3500 
L 2247 1797 
L 3578 0 
L 2900 0 
L 1881 1375 
L 863 0 
L 184 0 
L 1544 1831 
L 300 3500 
L 978 3500 
L 1906 2253 
L 2834 3500 
L 3513 3500 
z
" transform="scale(0.015625)"/>
      <path id="DejaVuSans-3d" d="M 678 2906 
L 4684 2906 
L 4684 2381 
L 678 2381 
L 678 2906 
z
M 678 1631 
L 4684 1631 
L 4684 1100 
L 678 1100 
L 678 1631 
z
" transform="scale(0.015625)"/>
      <path id="DejaVuSans-2e" d="M 684 794 
L 1344 794 
L 1344 0 
L 684 0 
L 684 794 
z
" transform="scale(0.015625)"/>
      <path id="DejaVuSans-36" d="M 2113 2584 
Q 1688 2584 1439 2293 
Q 1191 2003 1191 1497 
Q 1191 994 1439 701 
Q 1688 409 2113 409 
Q 2538 409 2786 701 
Q 3034 994 3034 1497 
Q 3034 2003 2786 2293 
Q 2538 2584 2113 2584 
z
M 3366 4563 
L 3366 3988 
Q 3128 4100 2886 4159 
Q 2644 4219 2406 4219 
Q 1781 4219 1451 3797 
Q 1122 3375 1075 2522 
Q 1259 2794 1537 2939 
Q 1816 3084 2150 3084 
Q 2853 3084 3261 2657 
Q 3669 2231 3669 1497 
Q 3669 778 3244 343 
Q 2819 -91 2113 -91 
Q 1303 -91 875 529 
Q 447 1150 447 2328 
Q 447 3434 972 4092 
Q 1497 4750 2381 4750 
Q 2619 4750 2861 4703 
Q 3103 4656 3366 4563 
z
" transform="scale(0.015625)"/>
      <path id="DejaVuSans-34" d="M 2419 4116 
L 825 1625 
L 2419 1625 
L 2419 4116 
z
M 2253 4666 
L 3047 4666 
L 3047 1625 
L 3713 1625 
L 3713 1100 
L 3047 1100 
L 3047 0 
L 2419 0 
L 2419 1100 
L 313 1100 
L 313 1709 
L 2253 4666 
z
" transform="scale(0.015625)"/>
     </defs>
     <use xlink:href="#DejaVuSans-41"/>
     <use xlink:href="#DejaVuSans-52" x="68.408203"/>
     <use xlink:href="#DejaVuSans-49" x="137.890625"/>
     <use xlink:href="#DejaVuSans-4d" x="167.382812"/>
     <use xlink:href="#DejaVuSans-41" x="253.662109"/>
     <use xlink:href="#DejaVuSans-20" x="322.070312"/>
     <use xlink:href="#DejaVuSans-28" x="353.857422"/>
     <use xlink:href="#DejaVuSans-30" x="392.871094"/>
     <use xlink:href="#DejaVuSans-2c" x="456.494141"/>
     <use xlink:href="#DejaVuSans-20" x="488.28125"/>
     <use xlink:href="#DejaVuSans-30" x="520.068359"/>
     <use xlink:href="#DejaVuSans-2c" x="583.691406"/>
     <use xlink:href="#DejaVuSans-20" x="615.478516"/>
     <use xlink:href="#DejaVuSans-30" x="647.265625"/>
     <use xlink:href="#DejaVuSans-29" x="710.888672"/>
     <use xlink:href="#DejaVuSans-78" x="749.902344"/>
     <use xlink:href="#DejaVuSans-28" x="809.082031"/>
     <use xlink:href="#DejaVuSans-31" x="848.095703"/>
     <use xlink:href="#DejaVuSans-2c" x="911.71875"/>
     <use xlink:href="#DejaVuSans-20" x="943.505859"/>
     <use xlink:href="#DejaVuSans-30" x="975.292969"/>
     <use xlink:href="#DejaVuSans-2c" x="1038.916016"/>
     <use xlink:href="#DejaVuSans-20" x="1070.703125"/>
     <use xlink:href="#DejaVuSans-30" x="1102.490234"/>
     <use xlink:href="#DejaVuSans-2c" x="1166.113281"/>
     <use xlink:href="#DejaVuSans-20" x="1197.900391"/>
     <use xlink:href="#DejaVuSans-37" x="1229.6875"/>
     <use xlink:href="#DejaVuSans-29" x="1293.310547"/>
     <use xlink:href="#DejaVuSans-20" x="1332.324219"/>
     <use xlink:href="#DejaVuSans-28" x="1364.111328"/>
     <use xlink:href="#DejaVuSans-52" x="1403.125"/>
     <use xlink:href="#DejaVuSans-32" x="1472.607422"/>
     <use xlink:href="#DejaVuSans-20" x="1536.230469"/>
     <use xlink:href="#DejaVuSans-3d" x="1568.017578"/>
     <use xlink:href="#DejaVuSans-20" x="1651.806641"/>
     <use xlink:href="#DejaVuSans-2d" x="1683.59375"/>
     <use xlink:href="#DejaVuSans-30" x="1719.677734"/>
     <use xlink:href="#DejaVuSans-2e" x="1783.300781"/>
     <use xlink:href="#DejaVuSans-31" x="1815.087891"/>
     <use xlink:href="#DejaVuSans-31" x="1878.710938"/>
     <use xlink:href="#DejaVuSans-33" x="1942.333984"/>
     <use xlink:href="#DejaVuSans-36" x="2005.957031"/>
     <use xlink:href="#DejaVuSans-30" x="2069.580078"/>
     <use xlink:href="#DejaVuSans-34" x="2133.203125"/>
     <use xlink:href="#DejaVuSans-29" x="2196.826172"/>
    </g>
   </g>
   <g id="legend_1">
    <g id="patch_7">
     <path d="M 1274.770313 87.789875 
L 1371.85 87.789875 
Q 1373.85 87.789875 1373.85 85.789875 
L 1373.85 42.7555 
Q 1373.85 40.7555 1371.85 40.7555 
L 1274.770313 40.7555 
Q 1272.770313 40.7555 1272.770313 42.7555 
L 1272.770313 85.789875 
Q 1272.770313 87.789875 1274.770313 87.789875 
z
" style="fill: #ffffff; opacity: 0.8; stroke: #cccccc; stroke-linejoin: miter"/>
    </g>
    <g id="line2d_22">
     <path d="M 1276.770313 48.853937 
L 1286.770313 48.853937 
L 1296.770313 48.853937 
" style="fill: none; stroke: #0000ff; stroke-width: 1.5; stroke-linecap: square"/>
    </g>
    <g id="text_20">
     <!-- Actual Value -->
     <g transform="translate(1304.770313 52.353937)scale(0.1 -0.1)">
      <defs>
       <path id="DejaVuSans-56" d="M 1831 0 
L 50 4666 
L 709 4666 
L 2188 738 
L 3669 4666 
L 4325 4666 
L 2547 0 
L 1831 0 
z
" transform="scale(0.015625)"/>
      </defs>
      <use xlink:href="#DejaVuSans-41"/>
      <use xlink:href="#DejaVuSans-63" x="66.658203"/>
      <use xlink:href="#DejaVuSans-74" x="121.638672"/>
      <use xlink:href="#DejaVuSans-75" x="160.847656"/>
      <use xlink:href="#DejaVuSans-61" x="224.226562"/>
      <use xlink:href="#DejaVuSans-6c" x="285.505859"/>
      <use xlink:href="#DejaVuSans-20" x="313.289062"/>
      <use xlink:href="#DejaVuSans-56" x="345.076172"/>
      <use xlink:href="#DejaVuSans-61" x="405.734375"/>
      <use xlink:href="#DejaVuSans-6c" x="467.013672"/>
      <use xlink:href="#DejaVuSans-75" x="494.796875"/>
      <use xlink:href="#DejaVuSans-65" x="558.175781"/>
     </g>
    </g>
    <g id="line2d_23">
     <path d="M 1276.770313 63.532062 
L 1286.770313 63.532062 
L 1296.770313 63.532062 
" style="fill: none; stroke: #ffa500; stroke-width: 1.5; stroke-linecap: square"/>
    </g>
    <g id="text_21">
     <!-- Check Value -->
     <g transform="translate(1304.770313 67.032062)scale(0.1 -0.1)">
      <defs>
       <path id="DejaVuSans-68" d="M 3513 2113 
L 3513 0 
L 2938 0 
L 2938 2094 
Q 2938 2591 2744 2837 
Q 2550 3084 2163 3084 
Q 1697 3084 1428 2787 
Q 1159 2491 1159 1978 
L 1159 0 
L 581 0 
L 581 4863 
L 1159 4863 
L 1159 2956 
Q 1366 3272 1645 3428 
Q 1925 3584 2291 3584 
Q 2894 3584 3203 3211 
Q 3513 2838 3513 2113 
z
" transform="scale(0.015625)"/>
       <path id="DejaVuSans-6b" d="M 581 4863 
L 1159 4863 
L 1159 1991 
L 2875 3500 
L 3609 3500 
L 1753 1863 
L 3688 0 
L 2938 0 
L 1159 1709 
L 1159 0 
L 581 0 
L 581 4863 
z
" transform="scale(0.015625)"/>
      </defs>
      <use xlink:href="#DejaVuSans-43"/>
      <use xlink:href="#DejaVuSans-68" x="69.824219"/>
      <use xlink:href="#DejaVuSans-65" x="133.203125"/>
      <use xlink:href="#DejaVuSans-63" x="194.726562"/>
      <use xlink:href="#DejaVuSans-6b" x="249.707031"/>
      <use xlink:href="#DejaVuSans-20" x="307.617188"/>
      <use xlink:href="#DejaVuSans-56" x="339.404297"/>
      <use xlink:href="#DejaVuSans-61" x="400.0625"/>
      <use xlink:href="#DejaVuSans-6c" x="461.341797"/>
      <use xlink:href="#DejaVuSans-75" x="489.125"/>
      <use xlink:href="#DejaVuSans-65" x="552.503906"/>
     </g>
    </g>
    <g id="line2d_24">
     <path d="M 1276.770313 78.210187 
L 1286.770313 78.210187 
L 1296.770313 78.210187 
" style="fill: none; stroke: #ff0000; stroke-width: 1.5; stroke-linecap: square"/>
    </g>
    <g id="text_22">
     <!-- Predict Value -->
     <g transform="translate(1304.770313 81.710187)scale(0.1 -0.1)">
      <defs>
       <path id="DejaVuSans-50" d="M 1259 4147 
L 1259 2394 
L 2053 2394 
Q 2494 2394 2734 2622 
Q 2975 2850 2975 3272 
Q 2975 3691 2734 3919 
Q 2494 4147 2053 4147 
L 1259 4147 
z
M 628 4666 
L 2053 4666 
Q 2838 4666 3239 4311 
Q 3641 3956 3641 3272 
Q 3641 2581 3239 2228 
Q 2838 1875 2053 1875 
L 1259 1875 
L 1259 0 
L 628 0 
L 628 4666 
z
" transform="scale(0.015625)"/>
      </defs>
      <use xlink:href="#DejaVuSans-50"/>
      <use xlink:href="#DejaVuSans-72" x="58.552734"/>
      <use xlink:href="#DejaVuSans-65" x="97.416016"/>
      <use xlink:href="#DejaVuSans-64" x="158.939453"/>
      <use xlink:href="#DejaVuSans-69" x="222.416016"/>
      <use xlink:href="#DejaVuSans-63" x="250.199219"/>
      <use xlink:href="#DejaVuSans-74" x="305.179688"/>
      <use xlink:href="#DejaVuSans-20" x="344.388672"/>
      <use xlink:href="#DejaVuSans-56" x="376.175781"/>
      <use xlink:href="#DejaVuSans-61" x="436.833984"/>
      <use xlink:href="#DejaVuSans-6c" x="498.113281"/>
      <use xlink:href="#DejaVuSans-75" x="525.896484"/>
      <use xlink:href="#DejaVuSans-65" x="589.275391"/>
     </g>
    </g>
   </g>
  </g>
 </g>
 <defs>
  <clipPath id="p86f1dd6658">
   <rect x="39.65" y="35.7555" width="1339.2" height="332.64"/>
  </clipPath>
 </defs>
</svg>
