<?xml version="1.0" encoding="utf-8" standalone="no"?>
<!DOCTYPE svg PUBLIC "-//W3C//DTD SVG 1.1//EN"
  "http://www.w3.org/Graphics/SVG/1.1/DTD/svg11.dtd">
<svg xmlns:xlink="http://www.w3.org/1999/xlink" width="1391.524457pt" height="392.273625pt" viewBox="0 0 1391.524457 392.273625" xmlns="http://www.w3.org/2000/svg" version="1.1">
 <metadata>
  <rdf:RDF xmlns:dc="http://purl.org/dc/elements/1.1/" xmlns:cc="http://creativecommons.org/ns#" xmlns:rdf="http://www.w3.org/1999/02/22-rdf-syntax-ns#">
   <cc:Work>
    <dc:type rdf:resource="http://purl.org/dc/dcmitype/StillImage"/>
    <dc:date>2022-11-12T19:01:43.725171</dc:date>
    <dc:format>image/svg+xml</dc:format>
    <dc:creator>
     <cc:Agent>
      <dc:title>Matplotlib v3.5.1, https://matplotlib.org/</dc:title>
     </cc:Agent>
    </dc:creator>
   </cc:Work>
  </rdf:RDF>
 </metadata>
 <defs>
  <style type="text/css">*{stroke-linejoin: round; stroke-linecap: butt}</style>
 </defs>
 <g id="figure_1">
  <g id="patch_1">
   <path d="M 0 392.273625 
L 1391.524457 392.273625 
L 1391.524457 0 
L 0 0 
z
" style="fill: #ffffff"/>
  </g>
  <g id="axes_1">
   <g id="patch_2">
    <path d="M 41.667188 368.3955 
L 1380.867188 368.3955 
L 1380.867188 35.7555 
L 41.667188 35.7555 
z
" style="fill: #ffffff"/>
   </g>
   <g id="matplotlib.axis_1">
    <g id="xtick_1">
     <g id="line2d_1">
      <defs>
       <path id="mc4aef1f722" d="M 0 0 
L 0 3.5 
" style="stroke: #000000; stroke-width: 0.8"/>
      </defs>
      <g>
       <use xlink:href="#mc4aef1f722" x="76.711564" y="368.3955" style="stroke: #000000; stroke-width: 0.8"/>
      </g>
     </g>
     <g id="text_1">
      <!-- 2020-01 -->
      <g transform="translate(55.820158 382.993937)scale(0.1 -0.1)">
       <defs>
        <path id="DejaVuSans-32" d="M 1228 531 
L 3431 531 
L 3431 0 
L 469 0 
L 469 531 
Q 828 903 1448 1529 
Q 2069 2156 2228 2338 
Q 2531 2678 2651 2914 
Q 2772 3150 2772 3378 
Q 2772 3750 2511 3984 
Q 2250 4219 1831 4219 
Q 1534 4219 1204 4116 
Q 875 4013 500 3803 
L 500 4441 
Q 881 4594 1212 4672 
Q 1544 4750 1819 4750 
Q 2544 4750 2975 4387 
Q 3406 4025 3406 3419 
Q 3406 3131 3298 2873 
Q 3191 2616 2906 2266 
Q 2828 2175 2409 1742 
Q 1991 1309 1228 531 
z
" transform="scale(0.015625)"/>
        <path id="DejaVuSans-30" d="M 2034 4250 
Q 1547 4250 1301 3770 
Q 1056 3291 1056 2328 
Q 1056 1369 1301 889 
Q 1547 409 2034 409 
Q 2525 409 2770 889 
Q 3016 1369 3016 2328 
Q 3016 3291 2770 3770 
Q 2525 4250 2034 4250 
z
M 2034 4750 
Q 2819 4750 3233 4129 
Q 3647 3509 3647 2328 
Q 3647 1150 3233 529 
Q 2819 -91 2034 -91 
Q 1250 -91 836 529 
Q 422 1150 422 2328 
Q 422 3509 836 4129 
Q 1250 4750 2034 4750 
z
" transform="scale(0.015625)"/>
        <path id="DejaVuSans-2d" d="M 313 2009 
L 1997 2009 
L 1997 1497 
L 313 1497 
L 313 2009 
z
" transform="scale(0.015625)"/>
        <path id="DejaVuSans-31" d="M 794 531 
L 1825 531 
L 1825 4091 
L 703 3866 
L 703 4441 
L 1819 4666 
L 2450 4666 
L 2450 531 
L 3481 531 
L 3481 0 
L 794 0 
L 794 531 
z
" transform="scale(0.015625)"/>
       </defs>
       <use xlink:href="#DejaVuSans-32"/>
       <use xlink:href="#DejaVuSans-30" x="63.623047"/>
       <use xlink:href="#DejaVuSans-32" x="127.246094"/>
       <use xlink:href="#DejaVuSans-30" x="190.869141"/>
       <use xlink:href="#DejaVuSans-2d" x="254.492188"/>
       <use xlink:href="#DejaVuSans-30" x="290.576172"/>
       <use xlink:href="#DejaVuSans-31" x="354.199219"/>
      </g>
     </g>
    </g>
    <g id="xtick_2">
     <g id="line2d_2">
      <g>
       <use xlink:href="#mc4aef1f722" x="218.767494" y="368.3955" style="stroke: #000000; stroke-width: 0.8"/>
      </g>
     </g>
     <g id="text_2">
      <!-- 2020-05 -->
      <g transform="translate(197.876088 382.993937)scale(0.1 -0.1)">
       <defs>
        <path id="DejaVuSans-35" d="M 691 4666 
L 3169 4666 
L 3169 4134 
L 1269 4134 
L 1269 2991 
Q 1406 3038 1543 3061 
Q 1681 3084 1819 3084 
Q 2600 3084 3056 2656 
Q 3513 2228 3513 1497 
Q 3513 744 3044 326 
Q 2575 -91 1722 -91 
Q 1428 -91 1123 -41 
Q 819 9 494 109 
L 494 744 
Q 775 591 1075 516 
Q 1375 441 1709 441 
Q 2250 441 2565 725 
Q 2881 1009 2881 1497 
Q 2881 1984 2565 2268 
Q 2250 2553 1709 2553 
Q 1456 2553 1204 2497 
Q 953 2441 691 2322 
L 691 4666 
z
" transform="scale(0.015625)"/>
       </defs>
       <use xlink:href="#DejaVuSans-32"/>
       <use xlink:href="#DejaVuSans-30" x="63.623047"/>
       <use xlink:href="#DejaVuSans-32" x="127.246094"/>
       <use xlink:href="#DejaVuSans-30" x="190.869141"/>
       <use xlink:href="#DejaVuSans-2d" x="254.492188"/>
       <use xlink:href="#DejaVuSans-30" x="290.576172"/>
       <use xlink:href="#DejaVuSans-35" x="354.199219"/>
      </g>
     </g>
    </g>
    <g id="xtick_3">
     <g id="line2d_3">
      <g>
       <use xlink:href="#mc4aef1f722" x="363.171457" y="368.3955" style="stroke: #000000; stroke-width: 0.8"/>
      </g>
     </g>
     <g id="text_3">
      <!-- 2020-09 -->
      <g transform="translate(342.280051 382.993937)scale(0.1 -0.1)">
       <defs>
        <path id="DejaVuSans-39" d="M 703 97 
L 703 672 
Q 941 559 1184 500 
Q 1428 441 1663 441 
Q 2288 441 2617 861 
Q 2947 1281 2994 2138 
Q 2813 1869 2534 1725 
Q 2256 1581 1919 1581 
Q 1219 1581 811 2004 
Q 403 2428 403 3163 
Q 403 3881 828 4315 
Q 1253 4750 1959 4750 
Q 2769 4750 3195 4129 
Q 3622 3509 3622 2328 
Q 3622 1225 3098 567 
Q 2575 -91 1691 -91 
Q 1453 -91 1209 -44 
Q 966 3 703 97 
z
M 1959 2075 
Q 2384 2075 2632 2365 
Q 2881 2656 2881 3163 
Q 2881 3666 2632 3958 
Q 2384 4250 1959 4250 
Q 1534 4250 1286 3958 
Q 1038 3666 1038 3163 
Q 1038 2656 1286 2365 
Q 1534 2075 1959 2075 
z
" transform="scale(0.015625)"/>
       </defs>
       <use xlink:href="#DejaVuSans-32"/>
       <use xlink:href="#DejaVuSans-30" x="63.623047"/>
       <use xlink:href="#DejaVuSans-32" x="127.246094"/>
       <use xlink:href="#DejaVuSans-30" x="190.869141"/>
       <use xlink:href="#DejaVuSans-2d" x="254.492188"/>
       <use xlink:href="#DejaVuSans-30" x="290.576172"/>
       <use xlink:href="#DejaVuSans-39" x="354.199219"/>
      </g>
     </g>
    </g>
    <g id="xtick_4">
     <g id="line2d_4">
      <g>
       <use xlink:href="#mc4aef1f722" x="506.401403" y="368.3955" style="stroke: #000000; stroke-width: 0.8"/>
      </g>
     </g>
     <g id="text_4">
      <!-- 2021-01 -->
      <g transform="translate(485.509997 382.993937)scale(0.1 -0.1)">
       <use xlink:href="#DejaVuSans-32"/>
       <use xlink:href="#DejaVuSans-30" x="63.623047"/>
       <use xlink:href="#DejaVuSans-32" x="127.246094"/>
       <use xlink:href="#DejaVuSans-31" x="190.869141"/>
       <use xlink:href="#DejaVuSans-2d" x="254.492188"/>
       <use xlink:href="#DejaVuSans-30" x="290.576172"/>
       <use xlink:href="#DejaVuSans-31" x="354.199219"/>
      </g>
     </g>
    </g>
    <g id="xtick_5">
     <g id="line2d_5">
      <g>
       <use xlink:href="#mc4aef1f722" x="647.283318" y="368.3955" style="stroke: #000000; stroke-width: 0.8"/>
      </g>
     </g>
     <g id="text_5">
      <!-- 2021-05 -->
      <g transform="translate(626.391912 382.993937)scale(0.1 -0.1)">
       <use xlink:href="#DejaVuSans-32"/>
       <use xlink:href="#DejaVuSans-30" x="63.623047"/>
       <use xlink:href="#DejaVuSans-32" x="127.246094"/>
       <use xlink:href="#DejaVuSans-31" x="190.869141"/>
       <use xlink:href="#DejaVuSans-2d" x="254.492188"/>
       <use xlink:href="#DejaVuSans-30" x="290.576172"/>
       <use xlink:href="#DejaVuSans-35" x="354.199219"/>
      </g>
     </g>
    </g>
    <g id="xtick_6">
     <g id="line2d_6">
      <g>
       <use xlink:href="#mc4aef1f722" x="791.68728" y="368.3955" style="stroke: #000000; stroke-width: 0.8"/>
      </g>
     </g>
     <g id="text_6">
      <!-- 2021-09 -->
      <g transform="translate(770.795874 382.993937)scale(0.1 -0.1)">
       <use xlink:href="#DejaVuSans-32"/>
       <use xlink:href="#DejaVuSans-30" x="63.623047"/>
       <use xlink:href="#DejaVuSans-32" x="127.246094"/>
       <use xlink:href="#DejaVuSans-31" x="190.869141"/>
       <use xlink:href="#DejaVuSans-2d" x="254.492188"/>
       <use xlink:href="#DejaVuSans-30" x="290.576172"/>
       <use xlink:href="#DejaVuSans-39" x="354.199219"/>
      </g>
     </g>
    </g>
    <g id="xtick_7">
     <g id="line2d_7">
      <g>
       <use xlink:href="#mc4aef1f722" x="934.917227" y="368.3955" style="stroke: #000000; stroke-width: 0.8"/>
      </g>
     </g>
     <g id="text_7">
      <!-- 2022-01 -->
      <g transform="translate(914.025821 382.993937)scale(0.1 -0.1)">
       <use xlink:href="#DejaVuSans-32"/>
       <use xlink:href="#DejaVuSans-30" x="63.623047"/>
       <use xlink:href="#DejaVuSans-32" x="127.246094"/>
       <use xlink:href="#DejaVuSans-32" x="190.869141"/>
       <use xlink:href="#DejaVuSans-2d" x="254.492188"/>
       <use xlink:href="#DejaVuSans-30" x="290.576172"/>
       <use xlink:href="#DejaVuSans-31" x="354.199219"/>
      </g>
     </g>
    </g>
    <g id="xtick_8">
     <g id="line2d_8">
      <g>
       <use xlink:href="#mc4aef1f722" x="1075.799142" y="368.3955" style="stroke: #000000; stroke-width: 0.8"/>
      </g>
     </g>
     <g id="text_8">
      <!-- 2022-05 -->
      <g transform="translate(1054.907735 382.993937)scale(0.1 -0.1)">
       <use xlink:href="#DejaVuSans-32"/>
       <use xlink:href="#DejaVuSans-30" x="63.623047"/>
       <use xlink:href="#DejaVuSans-32" x="127.246094"/>
       <use xlink:href="#DejaVuSans-32" x="190.869141"/>
       <use xlink:href="#DejaVuSans-2d" x="254.492188"/>
       <use xlink:href="#DejaVuSans-30" x="290.576172"/>
       <use xlink:href="#DejaVuSans-35" x="354.199219"/>
      </g>
     </g>
    </g>
    <g id="xtick_9">
     <g id="line2d_9">
      <g>
       <use xlink:href="#mc4aef1f722" x="1220.203104" y="368.3955" style="stroke: #000000; stroke-width: 0.8"/>
      </g>
     </g>
     <g id="text_9">
      <!-- 2022-09 -->
      <g transform="translate(1199.311698 382.993937)scale(0.1 -0.1)">
       <use xlink:href="#DejaVuSans-32"/>
       <use xlink:href="#DejaVuSans-30" x="63.623047"/>
       <use xlink:href="#DejaVuSans-32" x="127.246094"/>
       <use xlink:href="#DejaVuSans-32" x="190.869141"/>
       <use xlink:href="#DejaVuSans-2d" x="254.492188"/>
       <use xlink:href="#DejaVuSans-30" x="290.576172"/>
       <use xlink:href="#DejaVuSans-39" x="354.199219"/>
      </g>
     </g>
    </g>
    <g id="xtick_10">
     <g id="line2d_10">
      <g>
       <use xlink:href="#mc4aef1f722" x="1363.433051" y="368.3955" style="stroke: #000000; stroke-width: 0.8"/>
      </g>
     </g>
     <g id="text_10">
      <!-- 2023-01 -->
      <g transform="translate(1342.541644 382.993937)scale(0.1 -0.1)">
       <defs>
        <path id="DejaVuSans-33" d="M 2597 2516 
Q 3050 2419 3304 2112 
Q 3559 1806 3559 1356 
Q 3559 666 3084 287 
Q 2609 -91 1734 -91 
Q 1441 -91 1130 -33 
Q 819 25 488 141 
L 488 750 
Q 750 597 1062 519 
Q 1375 441 1716 441 
Q 2309 441 2620 675 
Q 2931 909 2931 1356 
Q 2931 1769 2642 2001 
Q 2353 2234 1838 2234 
L 1294 2234 
L 1294 2753 
L 1863 2753 
Q 2328 2753 2575 2939 
Q 2822 3125 2822 3475 
Q 2822 3834 2567 4026 
Q 2313 4219 1838 4219 
Q 1578 4219 1281 4162 
Q 984 4106 628 3988 
L 628 4550 
Q 988 4650 1302 4700 
Q 1616 4750 1894 4750 
Q 2613 4750 3031 4423 
Q 3450 4097 3450 3541 
Q 3450 3153 3228 2886 
Q 3006 2619 2597 2516 
z
" transform="scale(0.015625)"/>
       </defs>
       <use xlink:href="#DejaVuSans-32"/>
       <use xlink:href="#DejaVuSans-30" x="63.623047"/>
       <use xlink:href="#DejaVuSans-32" x="127.246094"/>
       <use xlink:href="#DejaVuSans-33" x="190.869141"/>
       <use xlink:href="#DejaVuSans-2d" x="254.492188"/>
       <use xlink:href="#DejaVuSans-30" x="290.576172"/>
       <use xlink:href="#DejaVuSans-31" x="354.199219"/>
      </g>
     </g>
    </g>
   </g>
   <g id="matplotlib.axis_2">
    <g id="ytick_1">
     <g id="line2d_11">
      <defs>
       <path id="m62ca188596" d="M 0 0 
L -3.5 0 
" style="stroke: #000000; stroke-width: 0.8"/>
      </defs>
      <g>
       <use xlink:href="#m62ca188596" x="41.667188" y="360.261639" style="stroke: #000000; stroke-width: 0.8"/>
      </g>
     </g>
     <g id="text_11">
      <!-- −100 -->
      <g transform="translate(7.2 364.060857)scale(0.1 -0.1)">
       <defs>
        <path id="DejaVuSans-2212" d="M 678 2272 
L 4684 2272 
L 4684 1741 
L 678 1741 
L 678 2272 
z
" transform="scale(0.015625)"/>
       </defs>
       <use xlink:href="#DejaVuSans-2212"/>
       <use xlink:href="#DejaVuSans-31" x="83.789062"/>
       <use xlink:href="#DejaVuSans-30" x="147.412109"/>
       <use xlink:href="#DejaVuSans-30" x="211.035156"/>
      </g>
     </g>
    </g>
    <g id="ytick_2">
     <g id="line2d_12">
      <g>
       <use xlink:href="#m62ca188596" x="41.667188" y="310.360649" style="stroke: #000000; stroke-width: 0.8"/>
      </g>
     </g>
     <g id="text_12">
      <!-- 0 -->
      <g transform="translate(28.304688 314.159867)scale(0.1 -0.1)">
       <use xlink:href="#DejaVuSans-30"/>
      </g>
     </g>
    </g>
    <g id="ytick_3">
     <g id="line2d_13">
      <g>
       <use xlink:href="#m62ca188596" x="41.667188" y="260.459658" style="stroke: #000000; stroke-width: 0.8"/>
      </g>
     </g>
     <g id="text_13">
      <!-- 100 -->
      <g transform="translate(15.579688 264.258877)scale(0.1 -0.1)">
       <use xlink:href="#DejaVuSans-31"/>
       <use xlink:href="#DejaVuSans-30" x="63.623047"/>
       <use xlink:href="#DejaVuSans-30" x="127.246094"/>
      </g>
     </g>
    </g>
    <g id="ytick_4">
     <g id="line2d_14">
      <g>
       <use xlink:href="#m62ca188596" x="41.667188" y="210.558668" style="stroke: #000000; stroke-width: 0.8"/>
      </g>
     </g>
     <g id="text_14">
      <!-- 200 -->
      <g transform="translate(15.579688 214.357887)scale(0.1 -0.1)">
       <use xlink:href="#DejaVuSans-32"/>
       <use xlink:href="#DejaVuSans-30" x="63.623047"/>
       <use xlink:href="#DejaVuSans-30" x="127.246094"/>
      </g>
     </g>
    </g>
    <g id="ytick_5">
     <g id="line2d_15">
      <g>
       <use xlink:href="#m62ca188596" x="41.667188" y="160.657678" style="stroke: #000000; stroke-width: 0.8"/>
      </g>
     </g>
     <g id="text_15">
      <!-- 300 -->
      <g transform="translate(15.579688 164.456897)scale(0.1 -0.1)">
       <use xlink:href="#DejaVuSans-33"/>
       <use xlink:href="#DejaVuSans-30" x="63.623047"/>
       <use xlink:href="#DejaVuSans-30" x="127.246094"/>
      </g>
     </g>
    </g>
    <g id="ytick_6">
     <g id="line2d_16">
      <g>
       <use xlink:href="#m62ca188596" x="41.667188" y="110.756688" style="stroke: #000000; stroke-width: 0.8"/>
      </g>
     </g>
     <g id="text_16">
      <!-- 400 -->
      <g transform="translate(15.579688 114.555907)scale(0.1 -0.1)">
       <defs>
        <path id="DejaVuSans-34" d="M 2419 4116 
L 825 1625 
L 2419 1625 
L 2419 4116 
z
M 2253 4666 
L 3047 4666 
L 3047 1625 
L 3713 1625 
L 3713 1100 
L 3047 1100 
L 3047 0 
L 2419 0 
L 2419 1100 
L 313 1100 
L 313 1709 
L 2253 4666 
z
" transform="scale(0.015625)"/>
       </defs>
       <use xlink:href="#DejaVuSans-34"/>
       <use xlink:href="#DejaVuSans-30" x="63.623047"/>
       <use xlink:href="#DejaVuSans-30" x="127.246094"/>
      </g>
     </g>
    </g>
    <g id="ytick_7">
     <g id="line2d_17">
      <g>
       <use xlink:href="#m62ca188596" x="41.667188" y="60.855698" style="stroke: #000000; stroke-width: 0.8"/>
      </g>
     </g>
     <g id="text_17">
      <!-- 500 -->
      <g transform="translate(15.579688 64.654917)scale(0.1 -0.1)">
       <use xlink:href="#DejaVuSans-35"/>
       <use xlink:href="#DejaVuSans-30" x="63.623047"/>
       <use xlink:href="#DejaVuSans-30" x="127.246094"/>
      </g>
     </g>
    </g>
   </g>
   <g id="line2d_18">
    <path d="M 102.539915 310.360649 
L 144.804489 310.360649 
L 145.978505 309.861639 
L 147.152521 310.360649 
L 158.892681 310.360649 
L 160.066697 309.861639 
L 161.240713 310.360649 
L 163.588744 310.360649 
L 164.76276 307.865599 
L 165.936776 310.360649 
L 168.284808 310.360649 
L 169.458824 308.364609 
L 170.63284 310.360649 
L 171.806856 304.37253 
L 172.980872 310.360649 
L 174.154888 310.360649 
L 175.328904 306.368569 
L 176.50292 309.362629 
L 177.676936 305.869559 
L 178.850952 310.360649 
L 180.024968 308.364609 
L 181.198984 308.863619 
L 183.547016 308.863619 
L 184.721032 307.865599 
L 185.895048 308.364609 
L 187.069064 309.362629 
L 188.243079 306.867579 
L 189.417095 308.364609 
L 190.591111 309.362629 
L 191.765127 309.362629 
L 192.939143 308.863619 
L 194.113159 307.366589 
L 195.287175 309.362629 
L 197.635207 310.360649 
L 201.157255 310.360649 
L 202.331271 309.861639 
L 203.505287 310.360649 
L 212.897415 310.360649 
L 214.071431 309.861639 
L 215.245446 310.360649 
L 226.985606 310.360649 
L 228.159622 309.861639 
L 229.333638 310.360649 
L 237.55175 310.360649 
L 238.725766 309.861639 
L 239.899782 310.360649 
L 243.421829 310.360649 
L 244.595845 309.861639 
L 245.769861 310.360649 
L 251.639941 310.360649 
L 252.813957 309.861639 
L 253.987973 310.360649 
L 277.468292 310.360649 
L 278.642308 309.861639 
L 279.816324 309.861639 
L 280.99034 310.360649 
L 282.164356 309.861639 
L 283.338372 310.360649 
L 284.512388 310.360649 
L 285.686404 309.861639 
L 286.86042 310.360649 
L 290.382468 310.360649 
L 291.556484 308.863619 
L 292.7305 310.360649 
L 293.904515 310.360649 
L 295.078531 309.362629 
L 296.252547 310.360649 
L 300.948611 310.360649 
L 302.122627 309.861639 
L 303.296643 310.360649 
L 312.688771 310.360649 
L 313.862787 309.362629 
L 315.036803 309.861639 
L 316.210819 309.362629 
L 317.384835 309.362629 
L 318.558851 310.360649 
L 320.906882 310.360649 
L 322.080898 309.861639 
L 323.254914 308.863619 
L 324.42893 310.360649 
L 327.950978 310.360649 
L 330.29901 309.362629 
L 331.473026 309.362629 
L 332.647042 310.360649 
L 333.821058 308.863619 
L 334.995074 308.863619 
L 336.16909 309.362629 
L 337.343106 310.360649 
L 338.517122 307.865599 
L 339.691138 308.863619 
L 340.865154 308.863619 
L 342.03917 309.362629 
L 343.213186 310.360649 
L 344.387202 310.360649 
L 345.561217 309.362629 
L 346.735233 310.360649 
L 347.909249 310.360649 
L 350.257281 308.364609 
L 351.431297 310.360649 
L 363.171457 310.360649 
L 364.345473 316.348767 
L 365.519489 309.861639 
L 366.693505 308.364609 
L 367.867521 310.360649 
L 369.041537 310.360649 
L 370.215553 307.366589 
L 371.389568 308.863619 
L 372.563584 307.865599 
L 374.911616 308.863619 
L 376.085632 309.861639 
L 377.259648 309.362629 
L 378.433664 307.366589 
L 379.60768 309.861639 
L 381.955712 307.865599 
L 383.129728 307.865599 
L 384.303744 309.861639 
L 385.47776 309.861639 
L 386.651776 309.362629 
L 388.999808 309.362629 
L 390.173824 307.366589 
L 391.34784 308.863619 
L 392.521856 309.362629 
L 393.695872 310.360649 
L 394.869888 309.362629 
L 396.043904 309.362629 
L 397.21792 308.364609 
L 398.391935 309.861639 
L 399.565951 309.362629 
L 401.913983 310.360649 
L 403.087999 309.861639 
L 404.262015 309.861639 
L 405.436031 308.863619 
L 406.610047 309.362629 
L 407.784063 308.364609 
L 408.958079 310.360649 
L 411.306111 309.362629 
L 412.480127 307.865599 
L 413.654143 306.867579 
L 414.828159 307.865599 
L 416.002175 309.362629 
L 417.176191 307.865599 
L 418.350207 307.865599 
L 419.524223 308.863619 
L 420.698239 308.863619 
L 421.872255 309.362629 
L 424.220286 303.37451 
L 425.394302 309.861639 
L 426.568318 305.37055 
L 427.742334 308.364609 
L 428.91635 305.37055 
L 430.090366 301.87748 
L 431.264382 305.37055 
L 432.438398 306.368569 
L 433.612414 308.364609 
L 434.78643 306.867579 
L 435.960446 305.869559 
L 437.134462 299.382431 
L 438.308478 302.8755 
L 439.482494 301.37847 
L 440.65651 298.384411 
L 441.830526 295.889361 
L 443.004542 308.863619 
L 444.178558 308.364609 
L 445.352574 299.382431 
L 446.52659 304.37253 
L 447.700606 306.368569 
L 448.874622 306.368569 
L 450.048637 307.865599 
L 451.222653 308.863619 
L 453.570685 307.865599 
L 454.744701 306.368569 
L 455.918717 306.368569 
L 457.092733 308.364609 
L 458.266749 308.364609 
L 459.440765 309.861639 
L 460.614781 309.861639 
L 462.962813 306.867579 
L 464.136829 307.366589 
L 465.310845 308.863619 
L 466.484861 308.364609 
L 467.658877 309.861639 
L 468.832893 309.861639 
L 470.006909 306.368569 
L 471.180925 308.364609 
L 472.354941 305.869559 
L 473.528957 310.360649 
L 474.702973 306.867579 
L 475.876988 309.861639 
L 477.051004 308.863619 
L 478.22502 306.867579 
L 479.399036 306.867579 
L 480.573052 309.362629 
L 481.747068 309.362629 
L 482.921084 305.869559 
L 484.0951 310.360649 
L 485.269116 308.863619 
L 486.443132 306.867579 
L 487.617148 306.867579 
L 488.791164 302.8755 
L 489.96518 302.8755 
L 491.139196 306.368569 
L 492.313212 307.865599 
L 493.487228 303.37451 
L 494.661244 303.37451 
L 495.83526 304.87154 
L 497.009276 302.37649 
L 498.183292 307.366589 
L 499.357308 306.368569 
L 500.531324 310.360649 
L 501.70534 308.364609 
L 502.879355 297.386391 
L 504.053371 297.386391 
L 505.227387 299.382431 
L 506.401403 305.37055 
L 507.575419 302.37649 
L 508.749435 307.366589 
L 509.923451 305.37055 
L 511.097467 295.390351 
L 512.271483 294.891342 
L 513.445499 290.400252 
L 514.619515 298.883421 
L 515.793531 304.37253 
L 516.967547 308.364609 
L 519.315579 299.382431 
L 520.489595 292.396292 
L 521.663611 301.87748 
L 522.837627 298.384411 
L 524.011643 297.885401 
L 525.185659 304.87154 
L 526.359675 306.867579 
L 527.533691 296.388371 
L 528.707706 299.382431 
L 529.881722 297.885401 
L 531.055738 298.384411 
L 532.229754 293.394312 
L 533.40377 304.37253 
L 534.577786 304.87154 
L 535.751802 294.891342 
L 536.925818 303.37451 
L 538.099834 301.87748 
L 539.27385 310.360649 
L 540.447866 287.905203 
L 541.621882 303.37451 
L 542.795898 305.37055 
L 543.969914 288.404213 
L 545.14393 295.889361 
L 546.317946 298.384411 
L 547.491962 295.889361 
L 548.665978 299.382431 
L 549.839994 306.368569 
L 551.01401 305.37055 
L 552.188026 295.390351 
L 553.362042 299.382431 
L 554.536057 301.37847 
L 555.710073 301.87748 
L 556.884089 308.863619 
L 558.058105 307.865599 
L 559.232121 303.37451 
L 560.406137 303.87352 
L 561.580153 295.889361 
L 563.928185 305.869559 
L 565.102201 301.37847 
L 566.276217 306.368569 
L 567.450233 302.8755 
L 568.624249 300.87946 
L 569.798265 304.37253 
L 570.972281 302.37649 
L 572.146297 305.37055 
L 573.320313 304.87154 
L 574.494329 308.863619 
L 575.668345 305.869559 
L 576.842361 310.360649 
L 578.016377 302.37649 
L 579.190393 302.37649 
L 580.364409 304.37253 
L 581.538424 305.37055 
L 582.71244 308.364609 
L 583.886456 307.865599 
L 585.060472 300.38045 
L 586.234488 303.37451 
L 587.408504 303.87352 
L 588.58252 299.382431 
L 589.756536 305.869559 
L 590.930552 309.861639 
L 592.104568 303.87352 
L 593.278584 302.8755 
L 594.4526 307.366589 
L 595.626616 306.368569 
L 596.800632 302.8755 
L 597.974648 305.869559 
L 599.148664 310.360649 
L 600.32268 305.869559 
L 601.496696 301.87748 
L 602.670712 304.87154 
L 603.844728 301.87748 
L 605.018744 299.881441 
L 606.19276 307.366589 
L 607.366775 307.865599 
L 608.540791 307.366589 
L 609.714807 301.87748 
L 610.888823 307.366589 
L 612.062839 301.87748 
L 613.236855 302.8755 
L 614.410871 307.366589 
L 615.584887 308.863619 
L 616.758903 307.865599 
L 617.932919 304.87154 
L 619.106935 306.368569 
L 620.280951 304.87154 
L 621.454967 307.865599 
L 622.628983 307.865599 
L 623.802999 309.861639 
L 624.977015 309.362629 
L 626.151031 309.861639 
L 627.325047 307.366589 
L 628.499063 308.863619 
L 629.673079 308.364609 
L 632.021111 308.364609 
L 633.195126 307.865599 
L 634.369142 305.869559 
L 635.543158 305.869559 
L 636.717174 309.861639 
L 637.89119 308.863619 
L 640.239222 308.863619 
L 641.413238 306.867579 
L 642.587254 308.863619 
L 643.76127 307.865599 
L 644.935286 307.865599 
L 646.109302 309.362629 
L 647.283318 308.863619 
L 648.457334 310.360649 
L 649.63135 306.368569 
L 650.805366 308.863619 
L 651.979382 308.863619 
L 653.153398 308.364609 
L 654.327414 309.362629 
L 655.50143 309.362629 
L 656.675446 310.360649 
L 657.849462 309.362629 
L 659.023477 307.865599 
L 660.197493 309.861639 
L 661.371509 308.863619 
L 662.545525 310.360649 
L 663.719541 308.863619 
L 664.893557 310.360649 
L 666.067573 309.861639 
L 667.241589 309.861639 
L 668.415605 309.362629 
L 669.589621 309.362629 
L 670.763637 309.861639 
L 671.937653 309.861639 
L 673.111669 310.360649 
L 674.285685 310.360649 
L 675.459701 309.861639 
L 676.633717 309.861639 
L 677.807733 310.360649 
L 680.155765 310.360649 
L 681.329781 309.861639 
L 682.503797 310.360649 
L 683.677813 309.362629 
L 684.851829 309.362629 
L 686.025844 310.360649 
L 690.721908 310.360649 
L 691.895924 308.863619 
L 693.06994 308.863619 
L 694.243956 309.362629 
L 695.417972 308.364609 
L 696.591988 308.364609 
L 697.766004 309.861639 
L 698.94002 309.861639 
L 700.114036 307.366589 
L 701.288052 306.867579 
L 702.462068 307.366589 
L 703.636084 309.362629 
L 705.984116 310.360649 
L 707.158132 309.861639 
L 708.332148 307.865599 
L 709.506164 308.863619 
L 710.68018 307.865599 
L 711.854195 306.368569 
L 713.028211 310.360649 
L 714.202227 309.861639 
L 715.376243 308.364609 
L 716.550259 309.861639 
L 717.724275 309.861639 
L 718.898291 308.863619 
L 720.072307 307.366589 
L 721.246323 309.861639 
L 722.420339 310.360649 
L 723.594355 309.362629 
L 724.768371 307.366589 
L 725.942387 308.364609 
L 727.116403 308.364609 
L 728.290419 306.368569 
L 729.464435 304.87154 
L 730.638451 310.360649 
L 731.812467 309.362629 
L 732.986483 302.37649 
L 734.160499 306.368569 
L 735.334515 306.867579 
L 736.508531 306.867579 
L 737.682546 301.37847 
L 738.856562 309.362629 
L 740.030578 304.87154 
L 741.204594 298.384411 
L 742.37861 304.87154 
L 743.552626 302.37649 
L 744.726642 303.87352 
L 745.900658 299.382431 
L 747.074674 307.366589 
L 748.24869 304.87154 
L 749.422706 301.37847 
L 751.770738 300.38045 
L 752.944754 300.38045 
L 754.11877 302.37649 
L 755.292786 309.362629 
L 756.466802 307.366589 
L 757.640818 295.889361 
L 758.814834 303.37451 
L 759.98885 299.881441 
L 761.162866 304.37253 
L 762.336882 310.360649 
L 763.510898 309.861639 
L 764.684913 301.37847 
L 765.858929 295.889361 
L 767.032945 303.37451 
L 768.206961 307.865599 
L 769.380977 302.8755 
L 770.554993 308.863619 
L 771.729009 309.861639 
L 772.903025 302.8755 
L 774.077041 307.366589 
L 775.251057 300.87946 
L 776.425073 307.366589 
L 777.599089 302.37649 
L 778.773105 306.368569 
L 779.947121 308.364609 
L 781.121137 306.368569 
L 782.295153 302.8755 
L 783.469169 306.867579 
L 784.643185 306.867579 
L 785.817201 306.368569 
L 786.991217 307.865599 
L 788.165233 310.360649 
L 789.339249 307.865599 
L 790.513264 303.87352 
L 791.68728 305.37055 
L 792.861296 305.869559 
L 794.035312 308.364609 
L 795.209328 306.368569 
L 796.383344 309.362629 
L 797.55736 307.366589 
L 798.731376 303.87352 
L 799.905392 306.867579 
L 801.079408 307.865599 
L 802.253424 306.368569 
L 803.42744 309.362629 
L 804.601456 309.861639 
L 805.775472 307.865599 
L 808.123504 309.861639 
L 809.29752 308.863619 
L 810.471536 309.362629 
L 811.645552 310.360649 
L 813.993584 310.360649 
L 815.1676 306.867579 
L 816.341615 309.362629 
L 817.515631 309.861639 
L 818.689647 309.362629 
L 821.037679 310.360649 
L 822.211695 310.360649 
L 823.385711 305.869559 
L 824.559727 309.861639 
L 825.733743 309.861639 
L 826.907759 310.360649 
L 829.255791 310.360649 
L 830.429807 308.863619 
L 831.603823 306.867579 
L 832.777839 308.863619 
L 833.951855 310.360649 
L 835.125871 308.364609 
L 836.299887 309.362629 
L 837.473903 309.362629 
L 838.647919 309.861639 
L 839.821935 309.861639 
L 840.995951 310.360649 
L 842.169966 301.87748 
L 843.343982 308.863619 
L 844.517998 309.861639 
L 845.692014 310.360649 
L 846.86603 307.865599 
L 848.040046 302.8755 
L 849.214062 308.364609 
L 850.388078 307.865599 
L 851.562094 309.861639 
L 852.73611 309.861639 
L 853.910126 310.360649 
L 855.084142 307.865599 
L 856.258158 307.865599 
L 857.432174 310.360649 
L 858.60619 306.368569 
L 859.780206 306.867579 
L 860.954222 310.360649 
L 864.47627 310.360649 
L 865.650286 305.37055 
L 866.824302 310.360649 
L 867.998318 305.37055 
L 869.172333 309.362629 
L 870.346349 310.360649 
L 871.520365 308.863619 
L 872.694381 304.37253 
L 873.868397 310.360649 
L 875.042413 302.37649 
L 876.216429 307.366589 
L 877.390445 307.865599 
L 878.564461 310.360649 
L 879.738477 306.368569 
L 880.912493 304.37253 
L 882.086509 301.37847 
L 883.260525 300.38045 
L 884.434541 303.37451 
L 885.608557 309.362629 
L 886.782573 309.362629 
L 887.956589 303.87352 
L 889.130605 287.905203 
L 890.304621 310.360649 
L 891.478637 281.917084 
L 892.652653 292.396292 
L 893.826669 310.360649 
L 895.000684 310.360649 
L 896.1747 293.893322 
L 897.348716 310.360649 
L 898.522732 280.919064 
L 899.696748 298.883421 
L 900.870764 295.390351 
L 902.04478 295.889361 
L 903.218796 307.366589 
L 904.392812 301.87748 
L 905.566828 290.400252 
L 906.740844 310.360649 
L 907.91486 278.424015 
L 909.088876 286.408173 
L 910.262892 290.899262 
L 911.436908 310.360649 
L 912.610924 299.881441 
L 913.78494 310.360649 
L 916.132972 310.360649 
L 917.306988 198.083421 
L 918.481004 286.907183 
L 919.65502 300.38045 
L 920.829035 310.360649 
L 922.003051 270.938866 
L 923.177067 310.360649 
L 924.351083 249.98045 
L 925.525099 278.424015 
L 926.699115 270.439856 
L 927.873131 302.37649 
L 929.047147 288.903223 
L 930.221163 270.439856 
L 931.395179 262.455698 
L 932.569195 310.360649 
L 938.439275 310.360649 
L 939.613291 57.362629 
L 940.787307 259.960649 
L 941.961323 310.360649 
L 944.309355 310.360649 
L 945.483371 63.849757 
L 946.657387 271.437876 
L 947.831402 259.960649 
L 949.005418 262.455698 
L 950.179434 248.982431 
L 951.35345 247.984411 
L 952.527466 237.505203 
L 953.701482 269.940847 
L 954.875498 257.465599 
L 956.049514 261.457678 
L 957.22353 250.97847 
L 958.397546 238.503223 
L 959.571562 237.006193 
L 960.745578 244.491342 
L 961.919594 256.467579 
L 963.09361 260.958668 
L 964.267626 310.360649 
L 965.441642 310.360649 
L 966.615658 114.249757 
L 967.789674 310.360649 
L 973.659753 310.360649 
L 974.833769 50.8755 
L 976.007785 281.418074 
L 977.181801 305.869559 
L 978.355817 310.360649 
L 979.529833 255.469559 
L 980.703849 289.402233 
L 981.877865 293.394312 
L 983.051881 294.392332 
L 984.225897 294.392332 
L 985.399913 310.360649 
L 986.573929 310.360649 
L 987.747945 277.925005 
L 988.921961 297.386391 
L 990.095977 301.87748 
L 991.269993 293.394312 
L 992.444009 298.384411 
L 993.618025 309.362629 
L 994.792041 310.360649 
L 995.966057 270.938866 
L 997.140073 291.398272 
L 998.314089 297.386391 
L 999.488104 296.388371 
L 1000.66212 310.360649 
L 1003.010152 310.360649 
L 1004.184168 267.445797 
L 1005.358184 310.360649 
L 1007.706216 310.360649 
L 1008.880232 264.451738 
L 1010.054248 309.362629 
L 1011.228264 310.360649 
L 1012.40228 277.425995 
L 1013.576296 285.909163 
L 1014.750312 310.360649 
L 1015.924328 269.441837 
L 1018.27236 310.360649 
L 1019.446376 285.410153 
L 1020.620392 273.433916 
L 1022.968424 284.911144 
L 1024.14244 286.408173 
L 1025.316455 279.921045 
L 1026.490471 308.863619 
L 1028.838503 261.956688 
L 1030.012519 261.956688 
L 1031.186535 279.422035 
L 1032.360551 280.919064 
L 1033.534567 290.400252 
L 1034.708583 310.360649 
L 1035.882599 310.360649 
L 1037.056615 240.499262 
L 1038.230631 284.911144 
L 1039.404647 291.897282 
L 1040.578663 294.392332 
L 1041.752679 286.408173 
L 1042.926695 308.364609 
L 1044.100711 295.390351 
L 1045.274727 274.930946 
L 1046.448743 272.435896 
L 1047.622759 284.911144 
L 1048.796775 281.917084 
L 1049.970791 297.885401 
L 1051.144807 310.360649 
L 1052.318822 289.402233 
L 1053.492838 276.926985 
L 1054.666854 291.398272 
L 1055.84087 289.402233 
L 1057.014886 289.901243 
L 1058.188902 300.38045 
L 1059.362918 308.364609 
L 1060.536934 292.396292 
L 1062.884966 290.400252 
L 1064.058982 297.885401 
L 1065.232998 294.392332 
L 1066.407014 296.887381 
L 1067.58103 309.861639 
L 1068.755046 296.887381 
L 1069.929062 287.905203 
L 1071.103078 292.895302 
L 1072.277094 298.384411 
L 1073.45111 297.386391 
L 1074.625126 306.368569 
L 1075.799142 309.861639 
L 1076.973158 295.390351 
L 1078.147173 298.883421 
L 1079.321189 287.905203 
L 1080.495205 295.889361 
L 1081.669221 300.87946 
L 1082.843237 306.368569 
L 1084.017253 310.360649 
L 1085.191269 299.881441 
L 1086.365285 297.386391 
L 1087.539301 303.87352 
L 1088.713317 302.8755 
L 1089.887333 309.362629 
L 1092.235365 309.362629 
L 1093.409381 295.889361 
L 1094.583397 297.885401 
L 1095.757413 304.87154 
L 1096.931429 303.37451 
L 1098.105445 303.37451 
L 1099.279461 305.37055 
L 1100.453477 353.2755 
L 1101.627493 259.960649 
L 1102.801509 303.87352 
L 1103.975524 302.8755 
L 1105.14954 305.37055 
L 1106.323556 310.360649 
L 1107.497572 307.366589 
L 1108.671588 309.362629 
L 1111.01962 295.390351 
L 1112.193636 303.37451 
L 1113.367652 296.388371 
L 1114.541668 297.386391 
L 1116.8897 307.366589 
L 1118.063716 303.87352 
L 1119.237732 289.901243 
L 1120.411748 296.887381 
L 1121.585764 293.893322 
L 1122.75978 294.891342 
L 1123.933796 292.895302 
L 1125.107812 308.863619 
L 1126.281828 297.885401 
L 1127.455844 310.360649 
L 1128.62986 292.396292 
L 1129.803875 294.891342 
L 1130.977891 310.360649 
L 1132.151907 292.895302 
L 1133.325923 310.360649 
L 1134.499939 310.360649 
L 1135.673955 282.416094 
L 1138.021987 294.891342 
L 1139.196003 298.883421 
L 1140.370019 290.899262 
L 1141.544035 310.360649 
L 1142.718051 270.938866 
L 1143.892067 310.360649 
L 1145.066083 281.418074 
L 1146.240099 279.921045 
L 1147.414115 289.901243 
L 1148.588131 283.913124 
L 1149.762147 310.360649 
L 1150.936163 310.360649 
L 1152.110179 261.956688 
L 1153.284195 275.429955 
L 1154.458211 264.950748 
L 1155.632227 282.416094 
L 1156.806242 277.425995 
L 1157.980258 310.360649 
L 1159.154274 310.360649 
L 1160.32829 262.455698 
L 1161.502306 275.928965 
L 1162.676322 284.911144 
L 1163.850338 288.903223 
L 1165.024354 310.360649 
L 1166.19837 310.360649 
L 1167.372386 290.400252 
L 1168.546402 277.425995 
L 1169.720418 289.402233 
L 1170.894434 296.887381 
L 1172.06845 285.410153 
L 1173.242466 310.360649 
L 1175.590498 310.360649 
L 1176.764514 294.891342 
L 1177.93853 300.87946 
L 1179.112546 298.883421 
L 1180.286562 299.382431 
L 1181.460578 310.360649 
L 1182.634593 310.360649 
L 1183.808609 275.429955 
L 1184.982625 310.360649 
L 1186.156641 305.869559 
L 1187.330657 300.87946 
L 1188.504673 301.87748 
L 1189.678689 310.360649 
L 1190.852705 310.360649 
L 1192.026721 298.384411 
L 1193.200737 300.38045 
L 1194.374753 310.360649 
L 1195.548769 286.408173 
L 1196.722785 304.87154 
L 1197.896801 310.360649 
L 1201.418849 310.360649 
L 1202.592865 299.382431 
L 1203.766881 310.360649 
L 1204.940897 305.37055 
L 1206.114913 310.360649 
L 1207.288929 310.360649 
L 1208.462944 303.37451 
L 1209.63696 305.37055 
L 1210.810976 306.368569 
L 1211.984992 302.37649 
L 1213.159008 307.366589 
L 1214.333024 310.360649 
L 1216.681056 310.360649 
L 1217.855072 304.37253 
L 1219.029088 308.364609 
L 1220.203104 307.865599 
L 1221.37712 303.37451 
L 1222.551136 307.366589 
L 1223.725152 310.360649 
L 1224.899168 310.360649 
L 1226.073184 306.368569 
L 1227.2472 307.865599 
L 1228.421216 306.867579 
L 1229.595232 304.37253 
L 1230.769248 310.360649 
L 1233.11728 310.360649 
L 1234.291296 302.8755 
L 1235.465311 310.360649 
L 1236.639327 300.38045 
L 1237.813343 295.390351 
L 1238.987359 310.360649 
L 1241.335391 310.360649 
L 1242.509407 300.38045 
L 1243.683423 307.366589 
L 1244.857439 307.865599 
L 1247.205471 303.87352 
L 1248.379487 310.360649 
L 1249.553503 301.37847 
L 1250.727519 303.37451 
L 1251.901535 299.382431 
L 1253.075551 310.360649 
L 1254.249567 303.37451 
L 1255.423583 310.360649 
L 1257.771615 310.360649 
L 1258.945631 288.404213 
L 1260.119647 304.87154 
L 1261.293662 304.37253 
L 1262.467678 300.87946 
L 1263.641694 305.869559 
L 1264.81571 310.360649 
L 1265.989726 310.360649 
L 1267.163742 286.907183 
L 1268.337758 305.37055 
L 1269.511774 306.368569 
L 1270.68579 310.360649 
L 1271.859806 306.368569 
L 1273.033822 310.360649 
L 1274.207838 301.37847 
L 1275.381854 310.360649 
L 1276.55587 288.404213 
L 1277.729886 299.881441 
L 1278.903902 304.37253 
L 1280.077918 310.360649 
L 1282.42595 310.360649 
L 1283.599966 296.388371 
L 1284.773982 303.87352 
L 1285.947998 305.37055 
L 1287.122013 310.360649 
L 1288.296029 304.37253 
L 1289.470045 310.360649 
L 1290.644061 302.8755 
L 1291.818077 310.360649 
L 1292.992093 310.360649 
L 1294.166109 297.885401 
L 1295.340125 301.87748 
L 1296.514141 310.360649 
L 1298.862173 310.360649 
L 1300.036189 299.382431 
L 1301.210205 295.390351 
L 1302.384221 310.360649 
L 1303.558237 303.37451 
L 1303.558237 303.37451 
" clip-path="url(#p077dc07d84)" style="fill: none; stroke: #0000ff; stroke-width: 1.5; stroke-linecap: square"/>
   </g>
   <g id="line2d_19">
    <path d="M 1064.058982 292.662369 
L 1065.232998 294.146378 
L 1066.407014 295.939084 
L 1067.58103 297.413698 
L 1068.755046 293.657931 
L 1069.929062 293.28417 
L 1071.103078 293.725258 
L 1072.277094 297.592054 
L 1073.45111 298.010596 
L 1074.625126 297.195542 
L 1075.799142 298.502997 
L 1076.973158 294.795565 
L 1078.147173 293.080467 
L 1079.321189 296.163566 
L 1080.495205 299.706545 
L 1081.669221 300.746119 
L 1082.843237 302.168503 
L 1084.017253 301.312561 
L 1085.191269 295.965343 
L 1086.365285 296.601688 
L 1087.539301 295.761632 
L 1088.713317 299.484973 
L 1089.887333 301.007109 
L 1091.061349 301.580051 
L 1092.235365 302.286786 
L 1093.409381 300.755124 
L 1094.583397 301.553698 
L 1095.757413 305.268053 
L 1096.931429 305.976386 
L 1098.105445 306.386424 
L 1099.279461 304.81192 
L 1100.453477 304.553422 
L 1101.627493 300.326264 
L 1102.801509 298.720082 
L 1103.975524 305.038241 
L 1105.14954 309.498708 
L 1106.323556 308.875949 
L 1107.497572 303.180723 
L 1108.671588 313.649462 
L 1109.845604 293.112565 
L 1111.01962 304.43365 
L 1112.193636 304.806298 
L 1113.367652 305.637684 
L 1114.541668 306.891102 
L 1115.715684 306.584886 
L 1116.8897 306.003413 
L 1118.063716 303.090185 
L 1119.237732 299.408167 
L 1120.411748 300.79408 
L 1121.585764 300.802738 
L 1122.75978 301.940142 
L 1123.933796 302.202474 
L 1125.107812 301.793991 
L 1126.281828 300.027048 
L 1127.455844 295.191484 
L 1128.62986 295.763633 
L 1129.803875 294.993098 
L 1130.977891 297.300171 
L 1132.151907 298.146293 
L 1133.325923 301.666307 
L 1134.499939 298.42731 
L 1135.673955 301.442741 
L 1136.847971 298.288287 
L 1138.021987 301.194124 
L 1139.196003 306.815314 
L 1140.370019 300.892765 
L 1141.544035 301.084728 
L 1142.718051 299.864679 
L 1143.892067 293.208769 
L 1145.066083 295.781002 
L 1147.414115 296.467626 
L 1148.588131 294.441988 
L 1149.762147 299.604369 
L 1150.936163 287.318224 
L 1152.110179 292.341768 
L 1153.284195 284.855304 
L 1154.458211 289.668791 
L 1155.632227 297.171165 
L 1156.806242 294.650207 
L 1157.980258 294.105433 
L 1159.154274 289.844401 
L 1160.32829 274.289109 
L 1162.676322 279.024055 
L 1163.850338 287.962617 
L 1165.024354 285.689238 
L 1166.19837 288.758266 
L 1167.372386 286.603243 
L 1168.546402 277.150762 
L 1169.720418 285.377693 
L 1170.894434 292.727695 
L 1172.06845 293.694548 
L 1173.242466 296.117622 
L 1174.416482 295.497171 
L 1175.590498 290.556005 
L 1176.764514 286.788563 
L 1177.93853 289.933863 
L 1179.112546 295.298022 
L 1180.286562 295.818932 
L 1181.460578 303.139561 
L 1182.634593 302.99515 
L 1183.808609 302.52207 
L 1184.982625 299.725435 
L 1186.156641 304.016359 
L 1187.330657 303.152693 
L 1188.504673 300.05252 
L 1189.678689 300.772738 
L 1190.852705 302.847017 
L 1192.026721 295.021701 
L 1193.200737 302.747863 
L 1194.374753 302.961195 
L 1195.548769 303.539519 
L 1196.722785 304.326847 
L 1197.896801 306.81604 
L 1199.070817 306.006598 
L 1200.244833 301.31179 
L 1201.418849 299.76608 
L 1202.592865 302.860683 
L 1203.766881 299.074265 
L 1204.940897 305.314723 
L 1206.114913 307.275678 
L 1208.462944 306.966476 
L 1209.63696 307.939273 
L 1210.810976 306.075445 
L 1211.984992 309.053414 
L 1213.159008 307.44653 
L 1214.333024 307.962898 
L 1215.50704 307.500954 
L 1216.681056 305.185725 
L 1217.855072 305.04985 
L 1219.029088 305.841172 
L 1220.203104 306.012826 
L 1221.37712 307.756338 
L 1222.551136 308.530959 
L 1224.899168 308.744722 
L 1226.073184 306.708543 
L 1228.421216 307.259865 
L 1229.595232 306.857496 
L 1230.769248 308.027323 
L 1231.943264 308.618926 
L 1233.11728 308.139117 
L 1234.291296 306.745195 
L 1235.465311 307.314868 
L 1236.639327 308.058515 
L 1237.813343 307.797219 
L 1238.987359 309.529553 
L 1240.161375 309.623118 
L 1241.335391 308.243241 
L 1242.509407 304.085531 
L 1243.683423 305.197968 
L 1244.857439 304.545212 
L 1246.031455 304.046697 
L 1247.205471 306.84013 
L 1248.379487 306.347442 
L 1249.553503 307.097581 
L 1250.727519 305.332802 
L 1251.901535 307.180038 
L 1253.075551 307.31551 
L 1254.249567 306.710017 
L 1255.423583 304.879794 
L 1256.597599 305.556356 
L 1257.771615 302.978302 
L 1258.945631 303.690206 
L 1260.119647 303.615723 
L 1261.293662 308.568032 
L 1262.467678 307.364218 
L 1263.641694 307.342095 
L 1264.81571 305.543247 
L 1265.989726 305.36409 
L 1267.163742 299.472761 
L 1268.337758 303.238201 
L 1269.511774 305.025907 
L 1270.68579 304.760776 
L 1271.859806 304.13886 
L 1273.033822 303.252071 
L 1274.207838 304.023423 
L 1275.381854 300.027328 
L 1276.55587 305.439771 
L 1277.729886 305.950702 
L 1278.903902 308.163054 
L 1281.251934 306.788917 
L 1282.42595 301.449976 
L 1283.599966 302.775574 
L 1284.773982 298.869086 
L 1285.947998 303.806234 
L 1287.122013 305.615973 
L 1288.296029 306.11936 
L 1289.470045 305.012081 
L 1290.644061 305.909528 
L 1291.818077 303.471318 
L 1292.992093 305.650882 
L 1294.166109 305.392018 
L 1295.340125 306.552734 
L 1296.514141 306.456246 
L 1297.688157 309.045868 
L 1298.862173 305.97607 
L 1300.036189 305.686947 
L 1301.210205 305.881874 
L 1302.384221 305.263546 
L 1303.558237 307.420526 
L 1303.558237 307.420526 
" clip-path="url(#p077dc07d84)" style="fill: none; stroke: #ffa500; stroke-width: 1.5; stroke-linecap: square"/>
   </g>
   <g id="line2d_20">
    <path d="M 1304.732253 307.814762 
L 1305.906269 305.52625 
L 1307.080285 305.132164 
L 1308.254301 303.699703 
L 1309.428317 302.960729 
L 1310.602333 306.376904 
L 1311.776349 304.541585 
L 1312.950364 305.417088 
L 1314.12438 304.970375 
L 1315.298396 304.961515 
L 1316.472412 304.666404 
L 1317.646428 304.470392 
L 1318.820444 305.20896 
L 1319.99446 304.794721 
" clip-path="url(#p077dc07d84)" style="fill: none; stroke: #ff0000; stroke-width: 1.5; stroke-linecap: square"/>
   </g>
   <g id="patch_3">
    <path d="M 41.667188 368.3955 
L 41.667188 35.7555 
" style="fill: none; stroke: #000000; stroke-width: 0.8; stroke-linejoin: miter; stroke-linecap: square"/>
   </g>
   <g id="patch_4">
    <path d="M 1380.867188 368.3955 
L 1380.867188 35.7555 
" style="fill: none; stroke: #000000; stroke-width: 0.8; stroke-linejoin: miter; stroke-linecap: square"/>
   </g>
   <g id="patch_5">
    <path d="M 41.667187 368.3955 
L 1380.867188 368.3955 
" style="fill: none; stroke: #000000; stroke-width: 0.8; stroke-linejoin: miter; stroke-linecap: square"/>
   </g>
   <g id="patch_6">
    <path d="M 41.667187 35.7555 
L 1380.867188 35.7555 
" style="fill: none; stroke: #000000; stroke-width: 0.8; stroke-linejoin: miter; stroke-linecap: square"/>
   </g>
   <g id="text_18">
    <!-- Daily Confirmed Cases Forecasting - Monaco -->
    <g transform="translate(577.469063 16.318125)scale(0.12 -0.12)">
     <defs>
      <path id="DejaVuSans-44" d="M 1259 4147 
L 1259 519 
L 2022 519 
Q 2988 519 3436 956 
Q 3884 1394 3884 2338 
Q 3884 3275 3436 3711 
Q 2988 4147 2022 4147 
L 1259 4147 
z
M 628 4666 
L 1925 4666 
Q 3281 4666 3915 4102 
Q 4550 3538 4550 2338 
Q 4550 1131 3912 565 
Q 3275 0 1925 0 
L 628 0 
L 628 4666 
z
" transform="scale(0.015625)"/>
      <path id="DejaVuSans-61" d="M 2194 1759 
Q 1497 1759 1228 1600 
Q 959 1441 959 1056 
Q 959 750 1161 570 
Q 1363 391 1709 391 
Q 2188 391 2477 730 
Q 2766 1069 2766 1631 
L 2766 1759 
L 2194 1759 
z
M 3341 1997 
L 3341 0 
L 2766 0 
L 2766 531 
Q 2569 213 2275 61 
Q 1981 -91 1556 -91 
Q 1019 -91 701 211 
Q 384 513 384 1019 
Q 384 1609 779 1909 
Q 1175 2209 1959 2209 
L 2766 2209 
L 2766 2266 
Q 2766 2663 2505 2880 
Q 2244 3097 1772 3097 
Q 1472 3097 1187 3025 
Q 903 2953 641 2809 
L 641 3341 
Q 956 3463 1253 3523 
Q 1550 3584 1831 3584 
Q 2591 3584 2966 3190 
Q 3341 2797 3341 1997 
z
" transform="scale(0.015625)"/>
      <path id="DejaVuSans-69" d="M 603 3500 
L 1178 3500 
L 1178 0 
L 603 0 
L 603 3500 
z
M 603 4863 
L 1178 4863 
L 1178 4134 
L 603 4134 
L 603 4863 
z
" transform="scale(0.015625)"/>
      <path id="DejaVuSans-6c" d="M 603 4863 
L 1178 4863 
L 1178 0 
L 603 0 
L 603 4863 
z
" transform="scale(0.015625)"/>
      <path id="DejaVuSans-79" d="M 2059 -325 
Q 1816 -950 1584 -1140 
Q 1353 -1331 966 -1331 
L 506 -1331 
L 506 -850 
L 844 -850 
Q 1081 -850 1212 -737 
Q 1344 -625 1503 -206 
L 1606 56 
L 191 3500 
L 800 3500 
L 1894 763 
L 2988 3500 
L 3597 3500 
L 2059 -325 
z
" transform="scale(0.015625)"/>
      <path id="DejaVuSans-20" transform="scale(0.015625)"/>
      <path id="DejaVuSans-43" d="M 4122 4306 
L 4122 3641 
Q 3803 3938 3442 4084 
Q 3081 4231 2675 4231 
Q 1875 4231 1450 3742 
Q 1025 3253 1025 2328 
Q 1025 1406 1450 917 
Q 1875 428 2675 428 
Q 3081 428 3442 575 
Q 3803 722 4122 1019 
L 4122 359 
Q 3791 134 3420 21 
Q 3050 -91 2638 -91 
Q 1578 -91 968 557 
Q 359 1206 359 2328 
Q 359 3453 968 4101 
Q 1578 4750 2638 4750 
Q 3056 4750 3426 4639 
Q 3797 4528 4122 4306 
z
" transform="scale(0.015625)"/>
      <path id="DejaVuSans-6f" d="M 1959 3097 
Q 1497 3097 1228 2736 
Q 959 2375 959 1747 
Q 959 1119 1226 758 
Q 1494 397 1959 397 
Q 2419 397 2687 759 
Q 2956 1122 2956 1747 
Q 2956 2369 2687 2733 
Q 2419 3097 1959 3097 
z
M 1959 3584 
Q 2709 3584 3137 3096 
Q 3566 2609 3566 1747 
Q 3566 888 3137 398 
Q 2709 -91 1959 -91 
Q 1206 -91 779 398 
Q 353 888 353 1747 
Q 353 2609 779 3096 
Q 1206 3584 1959 3584 
z
" transform="scale(0.015625)"/>
      <path id="DejaVuSans-6e" d="M 3513 2113 
L 3513 0 
L 2938 0 
L 2938 2094 
Q 2938 2591 2744 2837 
Q 2550 3084 2163 3084 
Q 1697 3084 1428 2787 
Q 1159 2491 1159 1978 
L 1159 0 
L 581 0 
L 581 3500 
L 1159 3500 
L 1159 2956 
Q 1366 3272 1645 3428 
Q 1925 3584 2291 3584 
Q 2894 3584 3203 3211 
Q 3513 2838 3513 2113 
z
" transform="scale(0.015625)"/>
      <path id="DejaVuSans-66" d="M 2375 4863 
L 2375 4384 
L 1825 4384 
Q 1516 4384 1395 4259 
Q 1275 4134 1275 3809 
L 1275 3500 
L 2222 3500 
L 2222 3053 
L 1275 3053 
L 1275 0 
L 697 0 
L 697 3053 
L 147 3053 
L 147 3500 
L 697 3500 
L 697 3744 
Q 697 4328 969 4595 
Q 1241 4863 1831 4863 
L 2375 4863 
z
" transform="scale(0.015625)"/>
      <path id="DejaVuSans-72" d="M 2631 2963 
Q 2534 3019 2420 3045 
Q 2306 3072 2169 3072 
Q 1681 3072 1420 2755 
Q 1159 2438 1159 1844 
L 1159 0 
L 581 0 
L 581 3500 
L 1159 3500 
L 1159 2956 
Q 1341 3275 1631 3429 
Q 1922 3584 2338 3584 
Q 2397 3584 2469 3576 
Q 2541 3569 2628 3553 
L 2631 2963 
z
" transform="scale(0.015625)"/>
      <path id="DejaVuSans-6d" d="M 3328 2828 
Q 3544 3216 3844 3400 
Q 4144 3584 4550 3584 
Q 5097 3584 5394 3201 
Q 5691 2819 5691 2113 
L 5691 0 
L 5113 0 
L 5113 2094 
Q 5113 2597 4934 2840 
Q 4756 3084 4391 3084 
Q 3944 3084 3684 2787 
Q 3425 2491 3425 1978 
L 3425 0 
L 2847 0 
L 2847 2094 
Q 2847 2600 2669 2842 
Q 2491 3084 2119 3084 
Q 1678 3084 1418 2786 
Q 1159 2488 1159 1978 
L 1159 0 
L 581 0 
L 581 3500 
L 1159 3500 
L 1159 2956 
Q 1356 3278 1631 3431 
Q 1906 3584 2284 3584 
Q 2666 3584 2933 3390 
Q 3200 3197 3328 2828 
z
" transform="scale(0.015625)"/>
      <path id="DejaVuSans-65" d="M 3597 1894 
L 3597 1613 
L 953 1613 
Q 991 1019 1311 708 
Q 1631 397 2203 397 
Q 2534 397 2845 478 
Q 3156 559 3463 722 
L 3463 178 
Q 3153 47 2828 -22 
Q 2503 -91 2169 -91 
Q 1331 -91 842 396 
Q 353 884 353 1716 
Q 353 2575 817 3079 
Q 1281 3584 2069 3584 
Q 2775 3584 3186 3129 
Q 3597 2675 3597 1894 
z
M 3022 2063 
Q 3016 2534 2758 2815 
Q 2500 3097 2075 3097 
Q 1594 3097 1305 2825 
Q 1016 2553 972 2059 
L 3022 2063 
z
" transform="scale(0.015625)"/>
      <path id="DejaVuSans-64" d="M 2906 2969 
L 2906 4863 
L 3481 4863 
L 3481 0 
L 2906 0 
L 2906 525 
Q 2725 213 2448 61 
Q 2172 -91 1784 -91 
Q 1150 -91 751 415 
Q 353 922 353 1747 
Q 353 2572 751 3078 
Q 1150 3584 1784 3584 
Q 2172 3584 2448 3432 
Q 2725 3281 2906 2969 
z
M 947 1747 
Q 947 1113 1208 752 
Q 1469 391 1925 391 
Q 2381 391 2643 752 
Q 2906 1113 2906 1747 
Q 2906 2381 2643 2742 
Q 2381 3103 1925 3103 
Q 1469 3103 1208 2742 
Q 947 2381 947 1747 
z
" transform="scale(0.015625)"/>
      <path id="DejaVuSans-73" d="M 2834 3397 
L 2834 2853 
Q 2591 2978 2328 3040 
Q 2066 3103 1784 3103 
Q 1356 3103 1142 2972 
Q 928 2841 928 2578 
Q 928 2378 1081 2264 
Q 1234 2150 1697 2047 
L 1894 2003 
Q 2506 1872 2764 1633 
Q 3022 1394 3022 966 
Q 3022 478 2636 193 
Q 2250 -91 1575 -91 
Q 1294 -91 989 -36 
Q 684 19 347 128 
L 347 722 
Q 666 556 975 473 
Q 1284 391 1588 391 
Q 1994 391 2212 530 
Q 2431 669 2431 922 
Q 2431 1156 2273 1281 
Q 2116 1406 1581 1522 
L 1381 1569 
Q 847 1681 609 1914 
Q 372 2147 372 2553 
Q 372 3047 722 3315 
Q 1072 3584 1716 3584 
Q 2034 3584 2315 3537 
Q 2597 3491 2834 3397 
z
" transform="scale(0.015625)"/>
      <path id="DejaVuSans-46" d="M 628 4666 
L 3309 4666 
L 3309 4134 
L 1259 4134 
L 1259 2759 
L 3109 2759 
L 3109 2228 
L 1259 2228 
L 1259 0 
L 628 0 
L 628 4666 
z
" transform="scale(0.015625)"/>
      <path id="DejaVuSans-63" d="M 3122 3366 
L 3122 2828 
Q 2878 2963 2633 3030 
Q 2388 3097 2138 3097 
Q 1578 3097 1268 2742 
Q 959 2388 959 1747 
Q 959 1106 1268 751 
Q 1578 397 2138 397 
Q 2388 397 2633 464 
Q 2878 531 3122 666 
L 3122 134 
Q 2881 22 2623 -34 
Q 2366 -91 2075 -91 
Q 1284 -91 818 406 
Q 353 903 353 1747 
Q 353 2603 823 3093 
Q 1294 3584 2113 3584 
Q 2378 3584 2631 3529 
Q 2884 3475 3122 3366 
z
" transform="scale(0.015625)"/>
      <path id="DejaVuSans-74" d="M 1172 4494 
L 1172 3500 
L 2356 3500 
L 2356 3053 
L 1172 3053 
L 1172 1153 
Q 1172 725 1289 603 
Q 1406 481 1766 481 
L 2356 481 
L 2356 0 
L 1766 0 
Q 1100 0 847 248 
Q 594 497 594 1153 
L 594 3053 
L 172 3053 
L 172 3500 
L 594 3500 
L 594 4494 
L 1172 4494 
z
" transform="scale(0.015625)"/>
      <path id="DejaVuSans-67" d="M 2906 1791 
Q 2906 2416 2648 2759 
Q 2391 3103 1925 3103 
Q 1463 3103 1205 2759 
Q 947 2416 947 1791 
Q 947 1169 1205 825 
Q 1463 481 1925 481 
Q 2391 481 2648 825 
Q 2906 1169 2906 1791 
z
M 3481 434 
Q 3481 -459 3084 -895 
Q 2688 -1331 1869 -1331 
Q 1566 -1331 1297 -1286 
Q 1028 -1241 775 -1147 
L 775 -588 
Q 1028 -725 1275 -790 
Q 1522 -856 1778 -856 
Q 2344 -856 2625 -561 
Q 2906 -266 2906 331 
L 2906 616 
Q 2728 306 2450 153 
Q 2172 0 1784 0 
Q 1141 0 747 490 
Q 353 981 353 1791 
Q 353 2603 747 3093 
Q 1141 3584 1784 3584 
Q 2172 3584 2450 3431 
Q 2728 3278 2906 2969 
L 2906 3500 
L 3481 3500 
L 3481 434 
z
" transform="scale(0.015625)"/>
      <path id="DejaVuSans-4d" d="M 628 4666 
L 1569 4666 
L 2759 1491 
L 3956 4666 
L 4897 4666 
L 4897 0 
L 4281 0 
L 4281 4097 
L 3078 897 
L 2444 897 
L 1241 4097 
L 1241 0 
L 628 0 
L 628 4666 
z
" transform="scale(0.015625)"/>
     </defs>
     <use xlink:href="#DejaVuSans-44"/>
     <use xlink:href="#DejaVuSans-61" x="77.001953"/>
     <use xlink:href="#DejaVuSans-69" x="138.28125"/>
     <use xlink:href="#DejaVuSans-6c" x="166.064453"/>
     <use xlink:href="#DejaVuSans-79" x="193.847656"/>
     <use xlink:href="#DejaVuSans-20" x="253.027344"/>
     <use xlink:href="#DejaVuSans-43" x="284.814453"/>
     <use xlink:href="#DejaVuSans-6f" x="354.638672"/>
     <use xlink:href="#DejaVuSans-6e" x="415.820312"/>
     <use xlink:href="#DejaVuSans-66" x="479.199219"/>
     <use xlink:href="#DejaVuSans-69" x="514.404297"/>
     <use xlink:href="#DejaVuSans-72" x="542.1875"/>
     <use xlink:href="#DejaVuSans-6d" x="581.550781"/>
     <use xlink:href="#DejaVuSans-65" x="678.962891"/>
     <use xlink:href="#DejaVuSans-64" x="740.486328"/>
     <use xlink:href="#DejaVuSans-20" x="803.962891"/>
     <use xlink:href="#DejaVuSans-43" x="835.75"/>
     <use xlink:href="#DejaVuSans-61" x="905.574219"/>
     <use xlink:href="#DejaVuSans-73" x="966.853516"/>
     <use xlink:href="#DejaVuSans-65" x="1018.953125"/>
     <use xlink:href="#DejaVuSans-73" x="1080.476562"/>
     <use xlink:href="#DejaVuSans-20" x="1132.576172"/>
     <use xlink:href="#DejaVuSans-46" x="1164.363281"/>
     <use xlink:href="#DejaVuSans-6f" x="1218.257812"/>
     <use xlink:href="#DejaVuSans-72" x="1279.439453"/>
     <use xlink:href="#DejaVuSans-65" x="1318.302734"/>
     <use xlink:href="#DejaVuSans-63" x="1379.826172"/>
     <use xlink:href="#DejaVuSans-61" x="1434.806641"/>
     <use xlink:href="#DejaVuSans-73" x="1496.085938"/>
     <use xlink:href="#DejaVuSans-74" x="1548.185547"/>
     <use xlink:href="#DejaVuSans-69" x="1587.394531"/>
     <use xlink:href="#DejaVuSans-6e" x="1615.177734"/>
     <use xlink:href="#DejaVuSans-67" x="1678.556641"/>
     <use xlink:href="#DejaVuSans-20" x="1742.033203"/>
     <use xlink:href="#DejaVuSans-2d" x="1773.820312"/>
     <use xlink:href="#DejaVuSans-20" x="1809.904297"/>
     <use xlink:href="#DejaVuSans-4d" x="1841.691406"/>
     <use xlink:href="#DejaVuSans-6f" x="1927.970703"/>
     <use xlink:href="#DejaVuSans-6e" x="1989.152344"/>
     <use xlink:href="#DejaVuSans-61" x="2052.53125"/>
     <use xlink:href="#DejaVuSans-63" x="2113.810547"/>
     <use xlink:href="#DejaVuSans-6f" x="2168.791016"/>
    </g>
    <!-- ARIMA (4, 1, 1)x(1, 0, 0, 7) (R2 = 0.233166) -->
    <g transform="translate(579.283125 29.7555)scale(0.12 -0.12)">
     <defs>
      <path id="DejaVuSans-41" d="M 2188 4044 
L 1331 1722 
L 3047 1722 
L 2188 4044 
z
M 1831 4666 
L 2547 4666 
L 4325 0 
L 3669 0 
L 3244 1197 
L 1141 1197 
L 716 0 
L 50 0 
L 1831 4666 
z
" transform="scale(0.015625)"/>
      <path id="DejaVuSans-52" d="M 2841 2188 
Q 3044 2119 3236 1894 
Q 3428 1669 3622 1275 
L 4263 0 
L 3584 0 
L 2988 1197 
Q 2756 1666 2539 1819 
Q 2322 1972 1947 1972 
L 1259 1972 
L 1259 0 
L 628 0 
L 628 4666 
L 2053 4666 
Q 2853 4666 3247 4331 
Q 3641 3997 3641 3322 
Q 3641 2881 3436 2590 
Q 3231 2300 2841 2188 
z
M 1259 4147 
L 1259 2491 
L 2053 2491 
Q 2509 2491 2742 2702 
Q 2975 2913 2975 3322 
Q 2975 3731 2742 3939 
Q 2509 4147 2053 4147 
L 1259 4147 
z
" transform="scale(0.015625)"/>
      <path id="DejaVuSans-49" d="M 628 4666 
L 1259 4666 
L 1259 0 
L 628 0 
L 628 4666 
z
" transform="scale(0.015625)"/>
      <path id="DejaVuSans-28" d="M 1984 4856 
Q 1566 4138 1362 3434 
Q 1159 2731 1159 2009 
Q 1159 1288 1364 580 
Q 1569 -128 1984 -844 
L 1484 -844 
Q 1016 -109 783 600 
Q 550 1309 550 2009 
Q 550 2706 781 3412 
Q 1013 4119 1484 4856 
L 1984 4856 
z
" transform="scale(0.015625)"/>
      <path id="DejaVuSans-2c" d="M 750 794 
L 1409 794 
L 1409 256 
L 897 -744 
L 494 -744 
L 750 256 
L 750 794 
z
" transform="scale(0.015625)"/>
      <path id="DejaVuSans-29" d="M 513 4856 
L 1013 4856 
Q 1481 4119 1714 3412 
Q 1947 2706 1947 2009 
Q 1947 1309 1714 600 
Q 1481 -109 1013 -844 
L 513 -844 
Q 928 -128 1133 580 
Q 1338 1288 1338 2009 
Q 1338 2731 1133 3434 
Q 928 4138 513 4856 
z
" transform="scale(0.015625)"/>
      <path id="DejaVuSans-78" d="M 3513 3500 
L 2247 1797 
L 3578 0 
L 2900 0 
L 1881 1375 
L 863 0 
L 184 0 
L 1544 1831 
L 300 3500 
L 978 3500 
L 1906 2253 
L 2834 3500 
L 3513 3500 
z
" transform="scale(0.015625)"/>
      <path id="DejaVuSans-37" d="M 525 4666 
L 3525 4666 
L 3525 4397 
L 1831 0 
L 1172 0 
L 2766 4134 
L 525 4134 
L 525 4666 
z
" transform="scale(0.015625)"/>
      <path id="DejaVuSans-3d" d="M 678 2906 
L 4684 2906 
L 4684 2381 
L 678 2381 
L 678 2906 
z
M 678 1631 
L 4684 1631 
L 4684 1100 
L 678 1100 
L 678 1631 
z
" transform="scale(0.015625)"/>
      <path id="DejaVuSans-2e" d="M 684 794 
L 1344 794 
L 1344 0 
L 684 0 
L 684 794 
z
" transform="scale(0.015625)"/>
      <path id="DejaVuSans-36" d="M 2113 2584 
Q 1688 2584 1439 2293 
Q 1191 2003 1191 1497 
Q 1191 994 1439 701 
Q 1688 409 2113 409 
Q 2538 409 2786 701 
Q 3034 994 3034 1497 
Q 3034 2003 2786 2293 
Q 2538 2584 2113 2584 
z
M 3366 4563 
L 3366 3988 
Q 3128 4100 2886 4159 
Q 2644 4219 2406 4219 
Q 1781 4219 1451 3797 
Q 1122 3375 1075 2522 
Q 1259 2794 1537 2939 
Q 1816 3084 2150 3084 
Q 2853 3084 3261 2657 
Q 3669 2231 3669 1497 
Q 3669 778 3244 343 
Q 2819 -91 2113 -91 
Q 1303 -91 875 529 
Q 447 1150 447 2328 
Q 447 3434 972 4092 
Q 1497 4750 2381 4750 
Q 2619 4750 2861 4703 
Q 3103 4656 3366 4563 
z
" transform="scale(0.015625)"/>
     </defs>
     <use xlink:href="#DejaVuSans-41"/>
     <use xlink:href="#DejaVuSans-52" x="68.408203"/>
     <use xlink:href="#DejaVuSans-49" x="137.890625"/>
     <use xlink:href="#DejaVuSans-4d" x="167.382812"/>
     <use xlink:href="#DejaVuSans-41" x="253.662109"/>
     <use xlink:href="#DejaVuSans-20" x="322.070312"/>
     <use xlink:href="#DejaVuSans-28" x="353.857422"/>
     <use xlink:href="#DejaVuSans-34" x="392.871094"/>
     <use xlink:href="#DejaVuSans-2c" x="456.494141"/>
     <use xlink:href="#DejaVuSans-20" x="488.28125"/>
     <use xlink:href="#DejaVuSans-31" x="520.068359"/>
     <use xlink:href="#DejaVuSans-2c" x="583.691406"/>
     <use xlink:href="#DejaVuSans-20" x="615.478516"/>
     <use xlink:href="#DejaVuSans-31" x="647.265625"/>
     <use xlink:href="#DejaVuSans-29" x="710.888672"/>
     <use xlink:href="#DejaVuSans-78" x="749.902344"/>
     <use xlink:href="#DejaVuSans-28" x="809.082031"/>
     <use xlink:href="#DejaVuSans-31" x="848.095703"/>
     <use xlink:href="#DejaVuSans-2c" x="911.71875"/>
     <use xlink:href="#DejaVuSans-20" x="943.505859"/>
     <use xlink:href="#DejaVuSans-30" x="975.292969"/>
     <use xlink:href="#DejaVuSans-2c" x="1038.916016"/>
     <use xlink:href="#DejaVuSans-20" x="1070.703125"/>
     <use xlink:href="#DejaVuSans-30" x="1102.490234"/>
     <use xlink:href="#DejaVuSans-2c" x="1166.113281"/>
     <use xlink:href="#DejaVuSans-20" x="1197.900391"/>
     <use xlink:href="#DejaVuSans-37" x="1229.6875"/>
     <use xlink:href="#DejaVuSans-29" x="1293.310547"/>
     <use xlink:href="#DejaVuSans-20" x="1332.324219"/>
     <use xlink:href="#DejaVuSans-28" x="1364.111328"/>
     <use xlink:href="#DejaVuSans-52" x="1403.125"/>
     <use xlink:href="#DejaVuSans-32" x="1472.607422"/>
     <use xlink:href="#DejaVuSans-20" x="1536.230469"/>
     <use xlink:href="#DejaVuSans-3d" x="1568.017578"/>
     <use xlink:href="#DejaVuSans-20" x="1651.806641"/>
     <use xlink:href="#DejaVuSans-30" x="1683.59375"/>
     <use xlink:href="#DejaVuSans-2e" x="1747.216797"/>
     <use xlink:href="#DejaVuSans-32" x="1779.003906"/>
     <use xlink:href="#DejaVuSans-33" x="1842.626953"/>
     <use xlink:href="#DejaVuSans-33" x="1906.25"/>
     <use xlink:href="#DejaVuSans-31" x="1969.873047"/>
     <use xlink:href="#DejaVuSans-36" x="2033.496094"/>
     <use xlink:href="#DejaVuSans-36" x="2097.119141"/>
     <use xlink:href="#DejaVuSans-29" x="2160.742188"/>
    </g>
   </g>
   <g id="legend_1">
    <g id="patch_7">
     <path d="M 1276.7875 87.789875 
L 1373.867188 87.789875 
Q 1375.867188 87.789875 1375.867188 85.789875 
L 1375.867188 42.7555 
Q 1375.867188 40.7555 1373.867188 40.7555 
L 1276.7875 40.7555 
Q 1274.7875 40.7555 1274.7875 42.7555 
L 1274.7875 85.789875 
Q 1274.7875 87.789875 1276.7875 87.789875 
z
" style="fill: #ffffff; opacity: 0.8; stroke: #cccccc; stroke-linejoin: miter"/>
    </g>
    <g id="line2d_21">
     <path d="M 1278.7875 48.853937 
L 1288.7875 48.853937 
L 1298.7875 48.853937 
" style="fill: none; stroke: #0000ff; stroke-width: 1.5; stroke-linecap: square"/>
    </g>
    <g id="text_19">
     <!-- Actual Value -->
     <g transform="translate(1306.7875 52.353937)scale(0.1 -0.1)">
      <defs>
       <path id="DejaVuSans-75" d="M 544 1381 
L 544 3500 
L 1119 3500 
L 1119 1403 
Q 1119 906 1312 657 
Q 1506 409 1894 409 
Q 2359 409 2629 706 
Q 2900 1003 2900 1516 
L 2900 3500 
L 3475 3500 
L 3475 0 
L 2900 0 
L 2900 538 
Q 2691 219 2414 64 
Q 2138 -91 1772 -91 
Q 1169 -91 856 284 
Q 544 659 544 1381 
z
M 1991 3584 
L 1991 3584 
z
" transform="scale(0.015625)"/>
       <path id="DejaVuSans-56" d="M 1831 0 
L 50 4666 
L 709 4666 
L 2188 738 
L 3669 4666 
L 4325 4666 
L 2547 0 
L 1831 0 
z
" transform="scale(0.015625)"/>
      </defs>
      <use xlink:href="#DejaVuSans-41"/>
      <use xlink:href="#DejaVuSans-63" x="66.658203"/>
      <use xlink:href="#DejaVuSans-74" x="121.638672"/>
      <use xlink:href="#DejaVuSans-75" x="160.847656"/>
      <use xlink:href="#DejaVuSans-61" x="224.226562"/>
      <use xlink:href="#DejaVuSans-6c" x="285.505859"/>
      <use xlink:href="#DejaVuSans-20" x="313.289062"/>
      <use xlink:href="#DejaVuSans-56" x="345.076172"/>
      <use xlink:href="#DejaVuSans-61" x="405.734375"/>
      <use xlink:href="#DejaVuSans-6c" x="467.013672"/>
      <use xlink:href="#DejaVuSans-75" x="494.796875"/>
      <use xlink:href="#DejaVuSans-65" x="558.175781"/>
     </g>
    </g>
    <g id="line2d_22">
     <path d="M 1278.7875 63.532062 
L 1288.7875 63.532062 
L 1298.7875 63.532062 
" style="fill: none; stroke: #ffa500; stroke-width: 1.5; stroke-linecap: square"/>
    </g>
    <g id="text_20">
     <!-- Check Value -->
     <g transform="translate(1306.7875 67.032062)scale(0.1 -0.1)">
      <defs>
       <path id="DejaVuSans-68" d="M 3513 2113 
L 3513 0 
L 2938 0 
L 2938 2094 
Q 2938 2591 2744 2837 
Q 2550 3084 2163 3084 
Q 1697 3084 1428 2787 
Q 1159 2491 1159 1978 
L 1159 0 
L 581 0 
L 581 4863 
L 1159 4863 
L 1159 2956 
Q 1366 3272 1645 3428 
Q 1925 3584 2291 3584 
Q 2894 3584 3203 3211 
Q 3513 2838 3513 2113 
z
" transform="scale(0.015625)"/>
       <path id="DejaVuSans-6b" d="M 581 4863 
L 1159 4863 
L 1159 1991 
L 2875 3500 
L 3609 3500 
L 1753 1863 
L 3688 0 
L 2938 0 
L 1159 1709 
L 1159 0 
L 581 0 
L 581 4863 
z
" transform="scale(0.015625)"/>
      </defs>
      <use xlink:href="#DejaVuSans-43"/>
      <use xlink:href="#DejaVuSans-68" x="69.824219"/>
      <use xlink:href="#DejaVuSans-65" x="133.203125"/>
      <use xlink:href="#DejaVuSans-63" x="194.726562"/>
      <use xlink:href="#DejaVuSans-6b" x="249.707031"/>
      <use xlink:href="#DejaVuSans-20" x="307.617188"/>
      <use xlink:href="#DejaVuSans-56" x="339.404297"/>
      <use xlink:href="#DejaVuSans-61" x="400.0625"/>
      <use xlink:href="#DejaVuSans-6c" x="461.341797"/>
      <use xlink:href="#DejaVuSans-75" x="489.125"/>
      <use xlink:href="#DejaVuSans-65" x="552.503906"/>
     </g>
    </g>
    <g id="line2d_23">
     <path d="M 1278.7875 78.210187 
L 1288.7875 78.210187 
L 1298.7875 78.210187 
" style="fill: none; stroke: #ff0000; stroke-width: 1.5; stroke-linecap: square"/>
    </g>
    <g id="text_21">
     <!-- Predict Value -->
     <g transform="translate(1306.7875 81.710187)scale(0.1 -0.1)">
      <defs>
       <path id="DejaVuSans-50" d="M 1259 4147 
L 1259 2394 
L 2053 2394 
Q 2494 2394 2734 2622 
Q 2975 2850 2975 3272 
Q 2975 3691 2734 3919 
Q 2494 4147 2053 4147 
L 1259 4147 
z
M 628 4666 
L 2053 4666 
Q 2838 4666 3239 4311 
Q 3641 3956 3641 3272 
Q 3641 2581 3239 2228 
Q 2838 1875 2053 1875 
L 1259 1875 
L 1259 0 
L 628 0 
L 628 4666 
z
" transform="scale(0.015625)"/>
      </defs>
      <use xlink:href="#DejaVuSans-50"/>
      <use xlink:href="#DejaVuSans-72" x="58.552734"/>
      <use xlink:href="#DejaVuSans-65" x="97.416016"/>
      <use xlink:href="#DejaVuSans-64" x="158.939453"/>
      <use xlink:href="#DejaVuSans-69" x="222.416016"/>
      <use xlink:href="#DejaVuSans-63" x="250.199219"/>
      <use xlink:href="#DejaVuSans-74" x="305.179688"/>
      <use xlink:href="#DejaVuSans-20" x="344.388672"/>
      <use xlink:href="#DejaVuSans-56" x="376.175781"/>
      <use xlink:href="#DejaVuSans-61" x="436.833984"/>
      <use xlink:href="#DejaVuSans-6c" x="498.113281"/>
      <use xlink:href="#DejaVuSans-75" x="525.896484"/>
      <use xlink:href="#DejaVuSans-65" x="589.275391"/>
     </g>
    </g>
   </g>
  </g>
 </g>
 <defs>
  <clipPath id="p077dc07d84">
   <rect x="41.667188" y="35.7555" width="1339.2" height="332.64"/>
  </clipPath>
 </defs>
</svg>
