<?xml version="1.0" encoding="utf-8" standalone="no"?>
<!DOCTYPE svg PUBLIC "-//W3C//DTD SVG 1.1//EN"
  "http://www.w3.org/Graphics/SVG/1.1/DTD/svg11.dtd">
<svg xmlns:xlink="http://www.w3.org/1999/xlink" width="1386.05pt" height="392.273625pt" viewBox="0 0 1386.05 392.273625" xmlns="http://www.w3.org/2000/svg" version="1.1">
 <metadata>
  <rdf:RDF xmlns:dc="http://purl.org/dc/elements/1.1/" xmlns:cc="http://creativecommons.org/ns#" xmlns:rdf="http://www.w3.org/1999/02/22-rdf-syntax-ns#">
   <cc:Work>
    <dc:type rdf:resource="http://purl.org/dc/dcmitype/StillImage"/>
    <dc:date>2022-07-23T19:01:12.501340</dc:date>
    <dc:format>image/svg+xml</dc:format>
    <dc:creator>
     <cc:Agent>
      <dc:title>Matplotlib v3.5.1, https://matplotlib.org/</dc:title>
     </cc:Agent>
    </dc:creator>
   </cc:Work>
  </rdf:RDF>
 </metadata>
 <defs>
  <style type="text/css">*{stroke-linejoin: round; stroke-linecap: butt}</style>
 </defs>
 <g id="figure_1">
  <g id="patch_1">
   <path d="M 0 392.273625 
L 1386.05 392.273625 
L 1386.05 0 
L 0 0 
z
" style="fill: #ffffff"/>
  </g>
  <g id="axes_1">
   <g id="patch_2">
    <path d="M 39.65 368.3955 
L 1378.85 368.3955 
L 1378.85 35.7555 
L 39.65 35.7555 
z
" style="fill: #ffffff"/>
   </g>
   <g id="matplotlib.axis_1">
    <g id="xtick_1">
     <g id="line2d_1">
      <defs>
       <path id="m981d0ab8a7" d="M 0 0 
L 0 3.5 
" style="stroke: #000000; stroke-width: 0.8"/>
      </defs>
      <g>
       <use xlink:href="#m981d0ab8a7" x="71.567052" y="368.3955" style="stroke: #000000; stroke-width: 0.8"/>
      </g>
     </g>
     <g id="text_1">
      <!-- 2020-01 -->
      <g transform="translate(50.675645 382.993937)scale(0.1 -0.1)">
       <defs>
        <path id="DejaVuSans-32" d="M 1228 531 
L 3431 531 
L 3431 0 
L 469 0 
L 469 531 
Q 828 903 1448 1529 
Q 2069 2156 2228 2338 
Q 2531 2678 2651 2914 
Q 2772 3150 2772 3378 
Q 2772 3750 2511 3984 
Q 2250 4219 1831 4219 
Q 1534 4219 1204 4116 
Q 875 4013 500 3803 
L 500 4441 
Q 881 4594 1212 4672 
Q 1544 4750 1819 4750 
Q 2544 4750 2975 4387 
Q 3406 4025 3406 3419 
Q 3406 3131 3298 2873 
Q 3191 2616 2906 2266 
Q 2828 2175 2409 1742 
Q 1991 1309 1228 531 
z
" transform="scale(0.015625)"/>
        <path id="DejaVuSans-30" d="M 2034 4250 
Q 1547 4250 1301 3770 
Q 1056 3291 1056 2328 
Q 1056 1369 1301 889 
Q 1547 409 2034 409 
Q 2525 409 2770 889 
Q 3016 1369 3016 2328 
Q 3016 3291 2770 3770 
Q 2525 4250 2034 4250 
z
M 2034 4750 
Q 2819 4750 3233 4129 
Q 3647 3509 3647 2328 
Q 3647 1150 3233 529 
Q 2819 -91 2034 -91 
Q 1250 -91 836 529 
Q 422 1150 422 2328 
Q 422 3509 836 4129 
Q 1250 4750 2034 4750 
z
" transform="scale(0.015625)"/>
        <path id="DejaVuSans-2d" d="M 313 2009 
L 1997 2009 
L 1997 1497 
L 313 1497 
L 313 2009 
z
" transform="scale(0.015625)"/>
        <path id="DejaVuSans-31" d="M 794 531 
L 1825 531 
L 1825 4091 
L 703 3866 
L 703 4441 
L 1819 4666 
L 2450 4666 
L 2450 531 
L 3481 531 
L 3481 0 
L 794 0 
L 794 531 
z
" transform="scale(0.015625)"/>
       </defs>
       <use xlink:href="#DejaVuSans-32"/>
       <use xlink:href="#DejaVuSans-30" x="63.623047"/>
       <use xlink:href="#DejaVuSans-32" x="127.246094"/>
       <use xlink:href="#DejaVuSans-30" x="190.869141"/>
       <use xlink:href="#DejaVuSans-2d" x="254.492188"/>
       <use xlink:href="#DejaVuSans-30" x="290.576172"/>
       <use xlink:href="#DejaVuSans-31" x="354.199219"/>
      </g>
     </g>
    </g>
    <g id="xtick_2">
     <g id="line2d_2">
      <g>
       <use xlink:href="#m981d0ab8a7" x="191.338256" y="368.3955" style="stroke: #000000; stroke-width: 0.8"/>
      </g>
     </g>
     <g id="text_2">
      <!-- 2020-04 -->
      <g transform="translate(170.446849 382.993937)scale(0.1 -0.1)">
       <defs>
        <path id="DejaVuSans-34" d="M 2419 4116 
L 825 1625 
L 2419 1625 
L 2419 4116 
z
M 2253 4666 
L 3047 4666 
L 3047 1625 
L 3713 1625 
L 3713 1100 
L 3047 1100 
L 3047 0 
L 2419 0 
L 2419 1100 
L 313 1100 
L 313 1709 
L 2253 4666 
z
" transform="scale(0.015625)"/>
       </defs>
       <use xlink:href="#DejaVuSans-32"/>
       <use xlink:href="#DejaVuSans-30" x="63.623047"/>
       <use xlink:href="#DejaVuSans-32" x="127.246094"/>
       <use xlink:href="#DejaVuSans-30" x="190.869141"/>
       <use xlink:href="#DejaVuSans-2d" x="254.492188"/>
       <use xlink:href="#DejaVuSans-30" x="290.576172"/>
       <use xlink:href="#DejaVuSans-34" x="354.199219"/>
      </g>
     </g>
    </g>
    <g id="xtick_3">
     <g id="line2d_3">
      <g>
       <use xlink:href="#m981d0ab8a7" x="311.109459" y="368.3955" style="stroke: #000000; stroke-width: 0.8"/>
      </g>
     </g>
     <g id="text_3">
      <!-- 2020-07 -->
      <g transform="translate(290.218053 382.993937)scale(0.1 -0.1)">
       <defs>
        <path id="DejaVuSans-37" d="M 525 4666 
L 3525 4666 
L 3525 4397 
L 1831 0 
L 1172 0 
L 2766 4134 
L 525 4134 
L 525 4666 
z
" transform="scale(0.015625)"/>
       </defs>
       <use xlink:href="#DejaVuSans-32"/>
       <use xlink:href="#DejaVuSans-30" x="63.623047"/>
       <use xlink:href="#DejaVuSans-32" x="127.246094"/>
       <use xlink:href="#DejaVuSans-30" x="190.869141"/>
       <use xlink:href="#DejaVuSans-2d" x="254.492188"/>
       <use xlink:href="#DejaVuSans-30" x="290.576172"/>
       <use xlink:href="#DejaVuSans-37" x="354.199219"/>
      </g>
     </g>
    </g>
    <g id="xtick_4">
     <g id="line2d_4">
      <g>
       <use xlink:href="#m981d0ab8a7" x="432.19683" y="368.3955" style="stroke: #000000; stroke-width: 0.8"/>
      </g>
     </g>
     <g id="text_4">
      <!-- 2020-10 -->
      <g transform="translate(411.305424 382.993937)scale(0.1 -0.1)">
       <use xlink:href="#DejaVuSans-32"/>
       <use xlink:href="#DejaVuSans-30" x="63.623047"/>
       <use xlink:href="#DejaVuSans-32" x="127.246094"/>
       <use xlink:href="#DejaVuSans-30" x="190.869141"/>
       <use xlink:href="#DejaVuSans-2d" x="254.492188"/>
       <use xlink:href="#DejaVuSans-31" x="290.576172"/>
       <use xlink:href="#DejaVuSans-30" x="354.199219"/>
      </g>
     </g>
    </g>
    <g id="xtick_5">
     <g id="line2d_5">
      <g>
       <use xlink:href="#m981d0ab8a7" x="553.284201" y="368.3955" style="stroke: #000000; stroke-width: 0.8"/>
      </g>
     </g>
     <g id="text_5">
      <!-- 2021-01 -->
      <g transform="translate(532.392795 382.993937)scale(0.1 -0.1)">
       <use xlink:href="#DejaVuSans-32"/>
       <use xlink:href="#DejaVuSans-30" x="63.623047"/>
       <use xlink:href="#DejaVuSans-32" x="127.246094"/>
       <use xlink:href="#DejaVuSans-31" x="190.869141"/>
       <use xlink:href="#DejaVuSans-2d" x="254.492188"/>
       <use xlink:href="#DejaVuSans-30" x="290.576172"/>
       <use xlink:href="#DejaVuSans-31" x="354.199219"/>
      </g>
     </g>
    </g>
    <g id="xtick_6">
     <g id="line2d_6">
      <g>
       <use xlink:href="#m981d0ab8a7" x="671.739238" y="368.3955" style="stroke: #000000; stroke-width: 0.8"/>
      </g>
     </g>
     <g id="text_6">
      <!-- 2021-04 -->
      <g transform="translate(650.847832 382.993937)scale(0.1 -0.1)">
       <use xlink:href="#DejaVuSans-32"/>
       <use xlink:href="#DejaVuSans-30" x="63.623047"/>
       <use xlink:href="#DejaVuSans-32" x="127.246094"/>
       <use xlink:href="#DejaVuSans-31" x="190.869141"/>
       <use xlink:href="#DejaVuSans-2d" x="254.492188"/>
       <use xlink:href="#DejaVuSans-30" x="290.576172"/>
       <use xlink:href="#DejaVuSans-34" x="354.199219"/>
      </g>
     </g>
    </g>
    <g id="xtick_7">
     <g id="line2d_7">
      <g>
       <use xlink:href="#m981d0ab8a7" x="791.510442" y="368.3955" style="stroke: #000000; stroke-width: 0.8"/>
      </g>
     </g>
     <g id="text_7">
      <!-- 2021-07 -->
      <g transform="translate(770.619036 382.993937)scale(0.1 -0.1)">
       <use xlink:href="#DejaVuSans-32"/>
       <use xlink:href="#DejaVuSans-30" x="63.623047"/>
       <use xlink:href="#DejaVuSans-32" x="127.246094"/>
       <use xlink:href="#DejaVuSans-31" x="190.869141"/>
       <use xlink:href="#DejaVuSans-2d" x="254.492188"/>
       <use xlink:href="#DejaVuSans-30" x="290.576172"/>
       <use xlink:href="#DejaVuSans-37" x="354.199219"/>
      </g>
     </g>
    </g>
    <g id="xtick_8">
     <g id="line2d_8">
      <g>
       <use xlink:href="#m981d0ab8a7" x="912.597813" y="368.3955" style="stroke: #000000; stroke-width: 0.8"/>
      </g>
     </g>
     <g id="text_8">
      <!-- 2021-10 -->
      <g transform="translate(891.706407 382.993937)scale(0.1 -0.1)">
       <use xlink:href="#DejaVuSans-32"/>
       <use xlink:href="#DejaVuSans-30" x="63.623047"/>
       <use xlink:href="#DejaVuSans-32" x="127.246094"/>
       <use xlink:href="#DejaVuSans-31" x="190.869141"/>
       <use xlink:href="#DejaVuSans-2d" x="254.492188"/>
       <use xlink:href="#DejaVuSans-31" x="290.576172"/>
       <use xlink:href="#DejaVuSans-30" x="354.199219"/>
      </g>
     </g>
    </g>
    <g id="xtick_9">
     <g id="line2d_9">
      <g>
       <use xlink:href="#m981d0ab8a7" x="1033.685184" y="368.3955" style="stroke: #000000; stroke-width: 0.8"/>
      </g>
     </g>
     <g id="text_9">
      <!-- 2022-01 -->
      <g transform="translate(1012.793778 382.993937)scale(0.1 -0.1)">
       <use xlink:href="#DejaVuSans-32"/>
       <use xlink:href="#DejaVuSans-30" x="63.623047"/>
       <use xlink:href="#DejaVuSans-32" x="127.246094"/>
       <use xlink:href="#DejaVuSans-32" x="190.869141"/>
       <use xlink:href="#DejaVuSans-2d" x="254.492188"/>
       <use xlink:href="#DejaVuSans-30" x="290.576172"/>
       <use xlink:href="#DejaVuSans-31" x="354.199219"/>
      </g>
     </g>
    </g>
    <g id="xtick_10">
     <g id="line2d_10">
      <g>
       <use xlink:href="#m981d0ab8a7" x="1152.140221" y="368.3955" style="stroke: #000000; stroke-width: 0.8"/>
      </g>
     </g>
     <g id="text_10">
      <!-- 2022-04 -->
      <g transform="translate(1131.248815 382.993937)scale(0.1 -0.1)">
       <use xlink:href="#DejaVuSans-32"/>
       <use xlink:href="#DejaVuSans-30" x="63.623047"/>
       <use xlink:href="#DejaVuSans-32" x="127.246094"/>
       <use xlink:href="#DejaVuSans-32" x="190.869141"/>
       <use xlink:href="#DejaVuSans-2d" x="254.492188"/>
       <use xlink:href="#DejaVuSans-30" x="290.576172"/>
       <use xlink:href="#DejaVuSans-34" x="354.199219"/>
      </g>
     </g>
    </g>
    <g id="xtick_11">
     <g id="line2d_11">
      <g>
       <use xlink:href="#m981d0ab8a7" x="1271.911425" y="368.3955" style="stroke: #000000; stroke-width: 0.8"/>
      </g>
     </g>
     <g id="text_11">
      <!-- 2022-07 -->
      <g transform="translate(1251.020019 382.993937)scale(0.1 -0.1)">
       <use xlink:href="#DejaVuSans-32"/>
       <use xlink:href="#DejaVuSans-30" x="63.623047"/>
       <use xlink:href="#DejaVuSans-32" x="127.246094"/>
       <use xlink:href="#DejaVuSans-32" x="190.869141"/>
       <use xlink:href="#DejaVuSans-2d" x="254.492188"/>
       <use xlink:href="#DejaVuSans-30" x="290.576172"/>
       <use xlink:href="#DejaVuSans-37" x="354.199219"/>
      </g>
     </g>
    </g>
   </g>
   <g id="matplotlib.axis_2">
    <g id="ytick_1">
     <g id="line2d_12">
      <defs>
       <path id="m3ef898f0e0" d="M 0 0 
L -3.5 0 
" style="stroke: #000000; stroke-width: 0.8"/>
      </defs>
      <g>
       <use xlink:href="#m3ef898f0e0" x="39.65" y="344.53285" style="stroke: #000000; stroke-width: 0.8"/>
      </g>
     </g>
     <g id="text_12">
      <!-- 0 -->
      <g transform="translate(26.2875 348.332069)scale(0.1 -0.1)">
       <use xlink:href="#DejaVuSans-30"/>
      </g>
     </g>
    </g>
    <g id="ytick_2">
     <g id="line2d_13">
      <g>
       <use xlink:href="#m3ef898f0e0" x="39.65" y="306.469681" style="stroke: #000000; stroke-width: 0.8"/>
      </g>
     </g>
     <g id="text_13">
      <!-- 200 -->
      <g transform="translate(13.5625 310.2689)scale(0.1 -0.1)">
       <use xlink:href="#DejaVuSans-32"/>
       <use xlink:href="#DejaVuSans-30" x="63.623047"/>
       <use xlink:href="#DejaVuSans-30" x="127.246094"/>
      </g>
     </g>
    </g>
    <g id="ytick_3">
     <g id="line2d_14">
      <g>
       <use xlink:href="#m3ef898f0e0" x="39.65" y="268.406512" style="stroke: #000000; stroke-width: 0.8"/>
      </g>
     </g>
     <g id="text_14">
      <!-- 400 -->
      <g transform="translate(13.5625 272.205731)scale(0.1 -0.1)">
       <use xlink:href="#DejaVuSans-34"/>
       <use xlink:href="#DejaVuSans-30" x="63.623047"/>
       <use xlink:href="#DejaVuSans-30" x="127.246094"/>
      </g>
     </g>
    </g>
    <g id="ytick_4">
     <g id="line2d_15">
      <g>
       <use xlink:href="#m3ef898f0e0" x="39.65" y="230.343343" style="stroke: #000000; stroke-width: 0.8"/>
      </g>
     </g>
     <g id="text_15">
      <!-- 600 -->
      <g transform="translate(13.5625 234.142562)scale(0.1 -0.1)">
       <defs>
        <path id="DejaVuSans-36" d="M 2113 2584 
Q 1688 2584 1439 2293 
Q 1191 2003 1191 1497 
Q 1191 994 1439 701 
Q 1688 409 2113 409 
Q 2538 409 2786 701 
Q 3034 994 3034 1497 
Q 3034 2003 2786 2293 
Q 2538 2584 2113 2584 
z
M 3366 4563 
L 3366 3988 
Q 3128 4100 2886 4159 
Q 2644 4219 2406 4219 
Q 1781 4219 1451 3797 
Q 1122 3375 1075 2522 
Q 1259 2794 1537 2939 
Q 1816 3084 2150 3084 
Q 2853 3084 3261 2657 
Q 3669 2231 3669 1497 
Q 3669 778 3244 343 
Q 2819 -91 2113 -91 
Q 1303 -91 875 529 
Q 447 1150 447 2328 
Q 447 3434 972 4092 
Q 1497 4750 2381 4750 
Q 2619 4750 2861 4703 
Q 3103 4656 3366 4563 
z
" transform="scale(0.015625)"/>
       </defs>
       <use xlink:href="#DejaVuSans-36"/>
       <use xlink:href="#DejaVuSans-30" x="63.623047"/>
       <use xlink:href="#DejaVuSans-30" x="127.246094"/>
      </g>
     </g>
    </g>
    <g id="ytick_5">
     <g id="line2d_16">
      <g>
       <use xlink:href="#m3ef898f0e0" x="39.65" y="192.280174" style="stroke: #000000; stroke-width: 0.8"/>
      </g>
     </g>
     <g id="text_16">
      <!-- 800 -->
      <g transform="translate(13.5625 196.079392)scale(0.1 -0.1)">
       <defs>
        <path id="DejaVuSans-38" d="M 2034 2216 
Q 1584 2216 1326 1975 
Q 1069 1734 1069 1313 
Q 1069 891 1326 650 
Q 1584 409 2034 409 
Q 2484 409 2743 651 
Q 3003 894 3003 1313 
Q 3003 1734 2745 1975 
Q 2488 2216 2034 2216 
z
M 1403 2484 
Q 997 2584 770 2862 
Q 544 3141 544 3541 
Q 544 4100 942 4425 
Q 1341 4750 2034 4750 
Q 2731 4750 3128 4425 
Q 3525 4100 3525 3541 
Q 3525 3141 3298 2862 
Q 3072 2584 2669 2484 
Q 3125 2378 3379 2068 
Q 3634 1759 3634 1313 
Q 3634 634 3220 271 
Q 2806 -91 2034 -91 
Q 1263 -91 848 271 
Q 434 634 434 1313 
Q 434 1759 690 2068 
Q 947 2378 1403 2484 
z
M 1172 3481 
Q 1172 3119 1398 2916 
Q 1625 2713 2034 2713 
Q 2441 2713 2670 2916 
Q 2900 3119 2900 3481 
Q 2900 3844 2670 4047 
Q 2441 4250 2034 4250 
Q 1625 4250 1398 4047 
Q 1172 3844 1172 3481 
z
" transform="scale(0.015625)"/>
       </defs>
       <use xlink:href="#DejaVuSans-38"/>
       <use xlink:href="#DejaVuSans-30" x="63.623047"/>
       <use xlink:href="#DejaVuSans-30" x="127.246094"/>
      </g>
     </g>
    </g>
    <g id="ytick_6">
     <g id="line2d_17">
      <g>
       <use xlink:href="#m3ef898f0e0" x="39.65" y="154.217004" style="stroke: #000000; stroke-width: 0.8"/>
      </g>
     </g>
     <g id="text_17">
      <!-- 1000 -->
      <g transform="translate(7.2 158.016223)scale(0.1 -0.1)">
       <use xlink:href="#DejaVuSans-31"/>
       <use xlink:href="#DejaVuSans-30" x="63.623047"/>
       <use xlink:href="#DejaVuSans-30" x="127.246094"/>
       <use xlink:href="#DejaVuSans-30" x="190.869141"/>
      </g>
     </g>
    </g>
    <g id="ytick_7">
     <g id="line2d_18">
      <g>
       <use xlink:href="#m3ef898f0e0" x="39.65" y="116.153835" style="stroke: #000000; stroke-width: 0.8"/>
      </g>
     </g>
     <g id="text_18">
      <!-- 1200 -->
      <g transform="translate(7.2 119.953054)scale(0.1 -0.1)">
       <use xlink:href="#DejaVuSans-31"/>
       <use xlink:href="#DejaVuSans-32" x="63.623047"/>
       <use xlink:href="#DejaVuSans-30" x="127.246094"/>
       <use xlink:href="#DejaVuSans-30" x="190.869141"/>
      </g>
     </g>
    </g>
    <g id="ytick_8">
     <g id="line2d_19">
      <g>
       <use xlink:href="#m3ef898f0e0" x="39.65" y="78.090666" style="stroke: #000000; stroke-width: 0.8"/>
      </g>
     </g>
     <g id="text_19">
      <!-- 1400 -->
      <g transform="translate(7.2 81.889885)scale(0.1 -0.1)">
       <use xlink:href="#DejaVuSans-31"/>
       <use xlink:href="#DejaVuSans-34" x="63.623047"/>
       <use xlink:href="#DejaVuSans-30" x="127.246094"/>
       <use xlink:href="#DejaVuSans-30" x="190.869141"/>
      </g>
     </g>
    </g>
    <g id="ytick_9">
     <g id="line2d_20">
      <g>
       <use xlink:href="#m3ef898f0e0" x="39.65" y="40.027497" style="stroke: #000000; stroke-width: 0.8"/>
      </g>
     </g>
     <g id="text_20">
      <!-- 1600 -->
      <g transform="translate(7.2 43.826716)scale(0.1 -0.1)">
       <use xlink:href="#DejaVuSans-31"/>
       <use xlink:href="#DejaVuSans-36" x="63.623047"/>
       <use xlink:href="#DejaVuSans-30" x="127.246094"/>
       <use xlink:href="#DejaVuSans-30" x="190.869141"/>
      </g>
     </g>
    </g>
   </g>
   <g id="line2d_21">
    <path d="M 100.522727 344.53285 
L 174.228084 344.53285 
L 175.544251 344.342535 
L 176.860418 344.53285 
L 196.602924 344.53285 
L 197.919091 344.342535 
L 199.235258 344.53285 
L 209.764595 344.53285 
L 211.080762 343.581271 
L 212.396929 344.53285 
L 217.661597 344.53285 
L 218.977764 344.342535 
L 220.293931 344.53285 
L 297.947789 344.53285 
L 299.263956 344.342535 
L 300.580123 344.53285 
L 301.89629 344.342535 
L 303.212457 344.53285 
L 304.528624 344.342535 
L 305.844791 344.53285 
L 330.851966 344.53285 
L 332.168133 343.771587 
L 333.4843 344.342535 
L 334.800467 344.53285 
L 336.116634 343.961903 
L 337.432801 343.010324 
L 338.748968 343.961903 
L 340.065135 344.342535 
L 341.381302 344.342535 
L 342.697469 343.200639 
L 344.013636 340.155586 
L 345.329803 344.53285 
L 346.645971 344.342535 
L 347.962138 344.53285 
L 349.278305 344.53285 
L 350.594472 342.820008 
L 351.910639 340.916849 
L 353.226806 340.916849 
L 354.542973 344.342535 
L 355.85914 343.961903 
L 357.175307 337.110532 
L 358.491474 342.629692 
L 359.807641 339.774954 
L 361.123808 344.53285 
L 362.439975 339.584638 
L 363.756143 344.53285 
L 365.07231 344.53285 
L 366.388477 330.639794 
L 367.704644 347.577904 
L 369.020811 344.53285 
L 370.336978 344.53285 
L 371.653145 334.636426 
L 372.969312 342.629692 
L 374.285479 341.868429 
L 375.601646 344.53285 
L 376.917813 341.868429 
L 378.23398 344.53285 
L 379.550147 344.53285 
L 380.866314 336.920217 
L 382.182482 344.53285 
L 383.498649 341.107165 
L 384.814816 344.53285 
L 386.130983 343.581271 
L 387.44715 339.013691 
L 388.763317 344.53285 
L 390.079484 343.390955 
L 391.395651 344.53285 
L 392.711818 344.342535 
L 394.027985 342.439376 
L 395.344152 344.53285 
L 396.660319 343.010324 
L 397.976486 342.820008 
L 399.292654 342.820008 
L 400.608821 344.53285 
L 401.924988 343.390955 
L 403.241155 344.342535 
L 404.557322 343.961903 
L 405.873489 344.342535 
L 407.189656 344.53285 
L 408.505823 344.152219 
L 411.138157 344.53285 
L 412.454324 343.581271 
L 413.770491 344.53285 
L 416.402826 344.53285 
L 417.718993 344.342535 
L 419.03516 344.53285 
L 420.351327 342.629692 
L 421.667494 344.53285 
L 422.983661 343.771587 
L 424.299828 344.342535 
L 425.615995 344.53285 
L 428.248329 344.53285 
L 429.564496 344.152219 
L 430.880663 344.53285 
L 432.19683 343.581271 
L 433.512998 344.53285 
L 434.829165 344.342535 
L 436.145332 344.53285 
L 437.461499 344.53285 
L 438.777666 344.342535 
L 440.093833 344.53285 
L 441.41 343.010324 
L 442.726167 344.53285 
L 444.042334 344.53285 
L 445.358501 343.581271 
L 446.674668 342.439376 
L 447.990835 344.53285 
L 449.307002 342.058744 
L 450.62317 344.53285 
L 451.939337 344.53285 
L 453.255504 343.961903 
L 454.571671 344.53285 
L 458.520172 344.53285 
L 459.836339 344.152219 
L 461.152506 344.53285 
L 463.78484 344.53285 
L 465.101007 343.581271 
L 466.417174 344.53285 
L 467.733342 344.53285 
L 469.049509 344.342535 
L 470.365676 344.53285 
L 472.99801 344.53285 
L 474.314177 344.342535 
L 475.630344 343.200639 
L 476.946511 344.53285 
L 480.895012 344.53285 
L 482.211179 344.152219 
L 483.527346 344.53285 
L 487.475848 344.53285 
L 488.792015 344.342535 
L 490.108182 344.53285 
L 491.424349 344.152219 
L 492.740516 344.53285 
L 494.056683 344.53285 
L 495.37285 344.152219 
L 496.689017 344.53285 
L 500.637518 344.53285 
L 501.953686 339.584638 
L 503.269853 344.53285 
L 504.58602 341.678113 
L 505.902187 344.53285 
L 509.850688 344.53285 
L 511.166855 342.439376 
L 512.483022 342.058744 
L 513.799189 344.53285 
L 515.115356 344.152219 
L 516.431523 344.53285 
L 520.380025 344.53285 
L 521.696192 342.058744 
L 523.012359 344.53285 
L 524.328526 344.53285 
L 525.644693 337.68148 
L 526.96086 344.53285 
L 528.277027 343.581271 
L 529.593194 344.53285 
L 530.909361 343.771587 
L 532.225528 344.53285 
L 533.541695 338.633059 
L 534.857862 344.53285 
L 537.490197 344.53285 
L 538.806364 344.342535 
L 540.122531 344.53285 
L 541.438698 344.53285 
L 542.754865 340.916849 
L 544.071032 344.53285 
L 554.600369 344.53285 
L 555.916536 340.916849 
L 557.232703 344.53285 
L 561.181204 344.53285 
L 562.497371 342.24906 
L 563.813538 344.53285 
L 565.129705 344.53285 
L 566.445872 343.010324 
L 567.762039 343.771587 
L 569.078206 342.629692 
L 570.394373 344.342535 
L 571.710541 344.53285 
L 576.975209 344.53285 
L 578.291376 344.342535 
L 579.607543 344.53285 
L 584.872211 344.53285 
L 586.188378 341.678113 
L 587.504545 344.342535 
L 588.820713 344.53285 
L 592.769214 344.53285 
L 594.085381 341.487797 
L 595.401548 344.53285 
L 598.033882 344.53285 
L 599.350049 339.96527 
L 600.666216 344.53285 
L 601.982383 343.771587 
L 603.29855 343.581271 
L 604.614717 344.53285 
L 605.930885 344.53285 
L 607.247052 341.868429 
L 608.563219 344.53285 
L 612.51172 344.53285 
L 613.827887 336.729901 
L 615.144054 344.53285 
L 617.776388 344.53285 
L 619.092555 341.678113 
L 620.408722 344.53285 
L 621.724889 328.165688 
L 623.041057 334.065479 
L 624.357224 339.204007 
L 625.673391 327.59474 
L 626.989558 344.53285 
L 628.305725 335.588006 
L 629.621892 344.53285 
L 630.938059 327.404424 
L 632.254226 344.53285 
L 634.88656 344.53285 
L 636.202727 320.362738 
L 637.518894 344.53285 
L 638.835061 327.214108 
L 640.151229 327.975372 
L 641.467396 331.020425 
L 642.783563 344.53285 
L 644.09973 329.688214 
L 645.415897 344.53285 
L 646.732064 344.53285 
L 648.048231 277.161041 
L 649.364398 326.262529 
L 650.680565 328.926951 
L 651.996732 344.53285 
L 653.312899 320.172422 
L 654.629066 310.466314 
L 655.945233 263.267984 
L 657.2614 344.53285 
L 658.577568 292.386309 
L 659.893735 268.596828 
L 661.209902 277.731988 
L 662.526069 344.53285 
L 663.842236 239.668819 
L 665.158403 344.53285 
L 666.47457 244.807347 
L 667.790737 313.130736 
L 670.423071 273.925671 
L 671.739238 321.504633 
L 673.055405 275.448198 
L 674.371572 317.127369 
L 675.68774 264.790511 
L 677.003907 274.496619 
L 678.320074 344.53285 
L 679.636241 301.140837 
L 680.952408 305.518102 
L 682.268575 344.53285 
L 683.584742 248.80398 
L 684.900909 325.501266 
L 687.533243 302.85368 
L 688.84941 313.511367 
L 690.165577 305.708418 
L 691.481744 315.033894 
L 692.797912 344.53285 
L 694.114079 269.358091 
L 695.430246 303.805259 
L 696.746413 344.53285 
L 698.06258 344.53285 
L 699.378747 271.070934 
L 700.694914 344.53285 
L 702.011081 294.289467 
L 703.327248 331.591373 
L 704.643415 313.130736 
L 705.959582 344.53285 
L 707.275749 329.307583 
L 708.591916 328.926951 
L 709.908084 344.53285 
L 711.224251 321.314317 
L 712.540418 327.975372 
L 713.856585 333.875163 
L 715.172752 342.439376 
L 716.488919 344.53285 
L 717.805086 276.590093 
L 719.121253 344.53285 
L 721.753587 344.53285 
L 723.069754 257.748825 
L 724.385921 267.074301 
L 725.702088 248.613664 
L 727.018256 297.905468 
L 728.334423 256.035982 
L 729.65059 344.53285 
L 732.282924 344.53285 
L 733.599091 249.565243 
L 734.915258 262.126089 
L 736.231425 292.957256 
L 737.547592 344.53285 
L 740.179926 344.53285 
L 741.496093 291.815361 
L 742.81226 337.871796 
L 744.128428 316.746737 
L 745.444595 335.588006 
L 746.760762 276.590093 
L 748.076929 344.53285 
L 749.393096 330.068846 
L 750.709263 332.733268 
L 752.02543 344.53285 
L 753.341597 344.53285 
L 754.657764 292.195993 
L 755.973931 344.53285 
L 757.290098 330.639794 
L 758.606265 331.401057 
L 761.2386 339.96527 
L 762.554767 309.895366 
L 763.870934 336.729901 
L 765.187101 344.53285 
L 766.503268 336.920217 
L 767.819435 340.536218 
L 769.135602 344.53285 
L 770.451769 344.53285 
L 771.767936 323.788423 
L 773.084103 343.010324 
L 774.40027 344.53285 
L 775.716437 319.030527 
L 777.032604 344.53285 
L 778.348771 329.307583 
L 779.664939 344.53285 
L 780.981106 331.972005 
L 782.297273 344.53285 
L 783.61344 344.53285 
L 784.929607 340.916849 
L 786.245774 344.53285 
L 798.091278 344.53285 
L 799.407445 307.611576 
L 800.723612 344.53285 
L 803.355946 344.53285 
L 804.672113 335.39769 
L 805.98828 344.53285 
L 813.885283 344.53285 
L 815.20145 320.362738 
L 816.517617 335.39769 
L 817.833784 342.820008 
L 819.149951 333.684847 
L 820.466118 344.53285 
L 821.782285 333.875163 
L 823.098452 344.53285 
L 824.414619 344.53285 
L 825.730786 341.107165 
L 827.046953 341.678113 
L 828.36312 343.961903 
L 829.679287 344.53285 
L 830.995455 336.158953 
L 832.311622 344.53285 
L 833.627789 333.684847 
L 834.943956 344.53285 
L 844.157125 344.53285 
L 845.473292 343.390955 
L 846.789459 339.584638 
L 848.105627 344.53285 
L 850.737961 344.53285 
L 852.054128 343.390955 
L 853.370295 344.53285 
L 854.686462 340.726533 
L 856.002629 344.53285 
L 859.95113 344.53285 
L 861.267297 343.390955 
L 862.583464 344.53285 
L 871.796634 344.53285 
L 873.112801 327.785056 
L 874.428968 344.53285 
L 879.693636 344.53285 
L 881.009803 328.165688 
L 882.325971 344.53285 
L 883.642138 282.299569 
L 884.958305 344.53285 
L 886.274472 336.539585 
L 887.590639 344.53285 
L 888.906806 338.633059 
L 890.222973 319.79179 
L 891.53914 344.53285 
L 896.803808 344.53285 
L 898.119975 263.4583 
L 899.436143 325.31095 
L 900.75231 323.02716 
L 902.068477 344.53285 
L 903.384644 326.262529 
L 904.700811 344.53285 
L 906.016978 297.905468 
L 907.333145 344.53285 
L 908.649312 344.53285 
L 909.965479 272.212829 
L 911.281646 284.012411 
L 912.597813 299.998942 
L 913.91398 303.234312 
L 915.230147 344.53285 
L 916.546314 276.019146 
L 917.862482 281.157674 
L 919.178649 292.195993 
L 920.494816 295.811994 
L 921.810983 246.139558 
L 923.12715 344.53285 
L 924.443317 227.869237 
L 925.759484 344.53285 
L 927.075651 280.015779 
L 928.391818 294.289467 
L 929.707985 266.122722 
L 931.024152 344.53285 
L 933.656486 344.53285 
L 934.972654 189.23512 
L 936.288821 249.565243 
L 937.604988 265.932406 
L 938.921155 271.26125 
L 940.237322 234.720607 
L 941.553489 344.53285 
L 942.869656 174.009852 
L 944.185823 293.528204 
L 945.50199 284.773675 
L 946.818157 291.625045 
L 948.134324 280.586726 
L 949.450491 290.292834 
L 950.766658 344.53285 
L 952.082826 229.011132 
L 953.398993 325.881897 
L 954.71516 302.282733 
L 956.031327 158.974901 
L 957.347494 344.53285 
L 958.663661 291.815361 
L 959.979828 344.53285 
L 961.295995 307.992208 
L 962.612162 285.154306 
L 963.928329 325.120634 
L 965.244496 271.070934 
L 966.560663 325.691582 
L 967.87683 297.144205 
L 969.192998 305.898734 
L 970.509165 321.124001 
L 971.825332 338.442743 
L 973.141499 331.401057 
L 974.457666 290.673466 
L 975.773833 344.53285 
L 977.09 214.166496 
L 978.406167 344.53285 
L 979.722334 264.600195 
L 981.038501 338.823375 
L 982.354668 319.220843 
L 983.670835 325.120634 
L 984.987002 318.078948 
L 986.30317 333.1139 
L 987.619337 344.53285 
L 988.935504 321.124001 
L 990.251671 332.923584 
L 991.567838 327.59474 
L 992.884005 333.494531 
L 994.200172 322.265896 
L 995.516339 337.68148 
L 996.832506 344.53285 
L 998.148673 316.366105 
L 999.46484 344.53285 
L 1000.781007 320.933685 
L 1002.097174 336.920217 
L 1003.413342 319.220843 
L 1004.729509 344.53285 
L 1006.045676 344.53285 
L 1007.361843 327.023793 
L 1008.67801 342.629692 
L 1009.994177 339.774954 
L 1011.310344 343.771587 
L 1012.626511 344.53285 
L 1013.942678 337.300848 
L 1015.258845 344.53285 
L 1017.891179 344.53285 
L 1019.207346 344.152219 
L 1020.523514 338.062112 
L 1021.839681 340.916849 
L 1023.155848 334.826742 
L 1024.472015 344.53285 
L 1025.788182 344.53285 
L 1027.104349 340.726533 
L 1028.420516 344.53285 
L 1029.736683 343.200639 
L 1031.05285 340.536218 
L 1032.369017 344.53285 
L 1033.685184 344.53285 
L 1035.001351 338.442743 
L 1036.317518 344.152219 
L 1037.633686 344.342535 
L 1038.949853 343.961903 
L 1040.26602 327.59474 
L 1041.582187 336.729901 
L 1042.898354 344.53285 
L 1044.214521 338.633059 
L 1045.530688 335.778321 
L 1046.846855 342.24906 
L 1048.163022 341.868429 
L 1049.479189 343.961903 
L 1050.795356 343.961903 
L 1052.111523 344.53285 
L 1053.42769 344.53285 
L 1054.743857 342.439376 
L 1056.060025 344.53285 
L 1062.64086 344.53285 
L 1065.273194 331.591373 
L 1066.589361 335.39769 
L 1067.905528 344.53285 
L 1069.221695 293.147572 
L 1070.537862 344.53285 
L 1073.170197 344.53285 
L 1074.486364 267.645249 
L 1075.802531 321.694949 
L 1077.118698 344.53285 
L 1081.067199 344.53285 
L 1082.383366 268.787144 
L 1083.699533 344.53285 
L 1085.0157 307.42126 
L 1086.331867 299.047363 
L 1087.648034 344.53285 
L 1088.964201 295.241046 
L 1090.280369 344.53285 
L 1091.596536 308.37284 
L 1092.912703 344.53285 
L 1094.22887 275.257882 
L 1095.545037 240.810714 
L 1096.861204 344.53285 
L 1098.177371 344.53285 
L 1099.493538 281.918937 
L 1100.809705 270.880618 
L 1102.125872 344.53285 
L 1103.442039 282.6802 
L 1104.758206 320.362738 
L 1106.074373 289.341255 
L 1107.390541 344.53285 
L 1108.706708 344.53285 
L 1110.022875 296.573257 
L 1111.339042 344.53285 
L 1112.655209 335.968637 
L 1113.971376 328.165688 
L 1115.287543 344.53285 
L 1117.919877 344.53285 
L 1119.236044 323.217476 
L 1120.552211 344.53285 
L 1141.610885 344.53285 
L 1142.927052 50.8755 
L 1144.243219 344.53285 
L 1145.559386 344.53285 
L 1146.875553 320.362738 
L 1148.19172 344.53285 
L 1154.772555 344.53285 
L 1156.088722 311.988841 
L 1157.404889 344.53285 
L 1158.721057 335.017058 
L 1160.037224 344.53285 
L 1163.985725 344.53285 
L 1165.301892 325.120634 
L 1166.618059 327.59474 
L 1167.934226 344.53285 
L 1169.250393 340.536218 
L 1170.56656 339.96527 
L 1171.882727 344.53285 
L 1173.198894 344.53285 
L 1174.515061 343.961903 
L 1175.831229 344.53285 
L 1177.147396 343.390955 
L 1178.463563 332.542952 
L 1179.77973 344.53285 
L 1182.412064 344.53285 
L 1183.728231 331.591373 
L 1185.044398 344.53285 
L 1186.360565 343.961903 
L 1187.676732 342.439376 
L 1188.992899 343.961903 
L 1190.309066 344.53285 
L 1191.625233 344.53285 
L 1192.9414 343.771587 
L 1194.257568 344.53285 
L 1195.573735 344.152219 
L 1196.889902 343.961903 
L 1198.206069 344.342535 
L 1199.522236 344.53285 
L 1202.15457 344.53285 
L 1203.470737 342.24906 
L 1204.786904 343.771587 
L 1206.103071 338.252427 
L 1207.419238 344.53285 
L 1210.051572 344.53285 
L 1211.36774 268.406512 
L 1212.683907 322.075581 
L 1214.000074 344.53285 
L 1219.264742 344.53285 
L 1220.580909 342.820008 
L 1221.897076 344.53285 
L 1223.213243 340.345902 
L 1224.52941 344.53285 
L 1228.477912 344.53285 
L 1229.794079 343.200639 
L 1231.110246 335.207374 
L 1232.426413 331.210741 
L 1233.74258 331.020425 
L 1235.058747 342.24906 
L 1236.374914 344.53285 
L 1237.691081 344.53285 
L 1239.007248 343.771587 
L 1240.323415 344.342535 
L 1241.639582 343.771587 
L 1242.955749 344.342535 
L 1244.271916 342.439376 
L 1245.588084 344.53285 
L 1246.904251 344.53285 
L 1248.220418 343.200639 
L 1249.536585 342.058744 
L 1250.852752 344.53285 
L 1252.168919 343.390955 
L 1253.485086 344.53285 
L 1256.11742 344.53285 
L 1257.433587 342.629692 
L 1258.749754 344.53285 
L 1260.065921 344.53285 
L 1261.382088 344.342535 
L 1262.698256 342.629692 
L 1264.014423 344.53285 
L 1265.33059 344.53285 
L 1266.646757 342.820008 
L 1267.962924 344.53285 
L 1269.279091 343.390955 
L 1270.595258 344.53285 
L 1271.911425 343.010324 
L 1273.227592 344.53285 
L 1274.543759 344.53285 
L 1275.859926 343.961903 
L 1277.176093 343.771587 
L 1278.49226 343.200639 
L 1279.808428 344.53285 
L 1281.124595 343.390955 
L 1282.440762 344.53285 
L 1283.756929 344.53285 
L 1285.073096 343.390955 
L 1286.389263 344.342535 
L 1287.70543 344.53285 
L 1289.021597 343.390955 
L 1291.653931 344.53285 
L 1295.602432 344.53285 
L 1296.9186 343.771587 
L 1298.234767 343.961903 
L 1299.550934 343.771587 
L 1299.550934 343.771587 
" clip-path="url(#p8bb56d7bf0)" style="fill: none; stroke: #0000ff; stroke-width: 1.5; stroke-linecap: square"/>
   </g>
   <g id="line2d_22">
    <path d="M 1060.008526 342.95132 
L 1062.64086 343.427432 
L 1063.957027 343.608681 
L 1065.273194 343.968187 
L 1066.589361 343.207774 
L 1067.905528 341.180755 
L 1069.221695 339.938925 
L 1070.537862 342.343731 
L 1071.854029 332.62573 
L 1073.170197 334.578078 
L 1074.486364 336.21031 
L 1075.802531 340.046143 
L 1077.118698 326.437747 
L 1078.434865 324.926066 
L 1079.751032 328.140888 
L 1081.067199 330.828592 
L 1082.383366 333.075608 
L 1083.699533 337.388719 
L 1085.0157 323.705951 
L 1086.331867 328.313625 
L 1087.648034 325.157157 
L 1088.964201 319.414131 
L 1090.280369 325.116994 
L 1091.596536 318.634113 
L 1092.912703 324.042805 
L 1094.22887 320.311271 
L 1095.545037 326.50931 
L 1096.861204 319.213041 
L 1098.177371 303.02411 
L 1099.493538 309.830081 
L 1100.809705 317.532573 
L 1102.125872 312.047972 
L 1103.442039 302.930735 
L 1104.758206 311.74001 
L 1106.074373 305.764078 
L 1107.390541 309.154799 
L 1108.706708 304.132174 
L 1111.339042 317.836059 
L 1112.655209 312.808249 
L 1113.971376 318.285226 
L 1115.287543 321.435475 
L 1116.60371 322.012939 
L 1117.919877 325.705411 
L 1120.552211 332.058412 
L 1121.868378 329.923717 
L 1123.184545 332.3191 
L 1124.500713 334.321725 
L 1125.81688 335.99599 
L 1127.133047 337.395734 
L 1128.449214 338.56597 
L 1129.765381 339.544328 
L 1131.081548 340.36227 
L 1133.713882 341.617802 
L 1136.346216 342.495363 
L 1138.97855 343.108739 
L 1142.927052 343.700669 
L 1144.243219 353.2755 
L 1145.559386 294.254174 
L 1148.19172 310.167169 
L 1149.507887 311.062036 
L 1150.824054 316.55007 
L 1152.140221 321.13826 
L 1153.456388 324.974148 
L 1154.772555 328.181086 
L 1156.088722 330.862199 
L 1157.404889 334.149695 
L 1158.721057 329.470105 
L 1160.037224 332.24571 
L 1161.353391 332.394268 
L 1162.669558 334.384568 
L 1163.985725 336.048529 
L 1165.301892 337.439658 
L 1166.618059 339.226616 
L 1167.934226 336.834212 
L 1169.250393 334.77486 
L 1170.56656 336.503282 
L 1171.882727 337.182892 
L 1173.198894 337.492298 
L 1174.515061 338.646701 
L 1175.831229 339.630172 
L 1179.77973 341.781823 
L 1181.095897 339.881609 
L 1185.044398 342.230843 
L 1186.360565 340.070395 
L 1187.676732 340.820431 
L 1188.992899 341.384457 
L 1190.309066 341.508491 
L 1194.257568 342.711772 
L 1195.573735 342.861076 
L 1196.889902 343.147422 
L 1200.838403 343.558112 
L 1204.786904 344.036664 
L 1206.103071 343.694625 
L 1207.419238 343.884634 
L 1208.735405 342.759293 
L 1211.36774 343.293214 
L 1212.683907 345.943232 
L 1214.000074 331.504975 
L 1215.316241 329.237092 
L 1216.632408 331.745057 
L 1217.948575 333.841805 
L 1219.264742 335.59476 
L 1220.580909 337.060292 
L 1221.897076 338.34058 
L 1223.213243 339.019996 
L 1224.52941 340.058482 
L 1225.845577 339.971037 
L 1228.477912 341.344348 
L 1231.110246 342.347049 
L 1232.426413 342.743918 
L 1233.74258 341.636645 
L 1236.374914 338.11099 
L 1237.691081 338.716085 
L 1240.323415 340.491661 
L 1242.955749 341.575691 
L 1244.271916 341.91739 
L 1245.588084 342.376197 
L 1246.904251 342.31927 
L 1249.536585 343.028476 
L 1250.852752 343.093406 
L 1252.168919 342.844238 
L 1253.485086 343.157813 
L 1254.801253 343.159338 
L 1258.749754 343.791406 
L 1260.065921 343.539757 
L 1264.014423 343.981496 
L 1265.33059 343.698679 
L 1267.962924 344.004854 
L 1269.279091 343.755529 
L 1270.595258 343.919684 
L 1271.911425 343.79629 
L 1273.227592 343.965995 
L 1274.543759 343.760363 
L 1277.176093 344.011267 
L 1279.808428 343.988666 
L 1281.124595 343.816639 
L 1282.440762 343.970774 
L 1283.756929 343.839003 
L 1286.389263 344.084584 
L 1287.70543 343.940268 
L 1290.337764 344.124161 
L 1291.653931 343.985591 
L 1292.970098 343.963356 
L 1298.234767 344.279098 
L 1299.550934 344.189767 
L 1299.550934 344.189767 
" clip-path="url(#p8bb56d7bf0)" style="fill: none; stroke: #ffa500; stroke-width: 1.5; stroke-linecap: square"/>
   </g>
   <g id="line2d_23">
    <path d="M 1300.867101 344.158523 
L 1302.183268 344.082642 
L 1303.499435 344.097523 
L 1304.815602 344.094605 
L 1306.131769 344.095177 
L 1307.447936 344.095065 
L 1308.764103 344.095087 
L 1310.08027 344.095082 
L 1311.396437 344.095083 
L 1312.712604 344.095083 
L 1314.028771 344.095083 
L 1315.344939 344.095083 
L 1316.661106 344.095083 
L 1317.977273 344.095083 
" clip-path="url(#p8bb56d7bf0)" style="fill: none; stroke: #ff0000; stroke-width: 1.5; stroke-linecap: square"/>
   </g>
   <g id="patch_3">
    <path d="M 39.65 368.3955 
L 39.65 35.7555 
" style="fill: none; stroke: #000000; stroke-width: 0.8; stroke-linejoin: miter; stroke-linecap: square"/>
   </g>
   <g id="patch_4">
    <path d="M 1378.85 368.3955 
L 1378.85 35.7555 
" style="fill: none; stroke: #000000; stroke-width: 0.8; stroke-linejoin: miter; stroke-linecap: square"/>
   </g>
   <g id="patch_5">
    <path d="M 39.65 368.3955 
L 1378.85 368.3955 
" style="fill: none; stroke: #000000; stroke-width: 0.8; stroke-linejoin: miter; stroke-linecap: square"/>
   </g>
   <g id="patch_6">
    <path d="M 39.65 35.7555 
L 1378.85 35.7555 
" style="fill: none; stroke: #000000; stroke-width: 0.8; stroke-linejoin: miter; stroke-linecap: square"/>
   </g>
   <g id="text_21">
    <!-- Daily Confirmed Cases Forecasting - Papua New Guinea -->
    <g transform="translate(542.245625 16.318125)scale(0.12 -0.12)">
     <defs>
      <path id="DejaVuSans-44" d="M 1259 4147 
L 1259 519 
L 2022 519 
Q 2988 519 3436 956 
Q 3884 1394 3884 2338 
Q 3884 3275 3436 3711 
Q 2988 4147 2022 4147 
L 1259 4147 
z
M 628 4666 
L 1925 4666 
Q 3281 4666 3915 4102 
Q 4550 3538 4550 2338 
Q 4550 1131 3912 565 
Q 3275 0 1925 0 
L 628 0 
L 628 4666 
z
" transform="scale(0.015625)"/>
      <path id="DejaVuSans-61" d="M 2194 1759 
Q 1497 1759 1228 1600 
Q 959 1441 959 1056 
Q 959 750 1161 570 
Q 1363 391 1709 391 
Q 2188 391 2477 730 
Q 2766 1069 2766 1631 
L 2766 1759 
L 2194 1759 
z
M 3341 1997 
L 3341 0 
L 2766 0 
L 2766 531 
Q 2569 213 2275 61 
Q 1981 -91 1556 -91 
Q 1019 -91 701 211 
Q 384 513 384 1019 
Q 384 1609 779 1909 
Q 1175 2209 1959 2209 
L 2766 2209 
L 2766 2266 
Q 2766 2663 2505 2880 
Q 2244 3097 1772 3097 
Q 1472 3097 1187 3025 
Q 903 2953 641 2809 
L 641 3341 
Q 956 3463 1253 3523 
Q 1550 3584 1831 3584 
Q 2591 3584 2966 3190 
Q 3341 2797 3341 1997 
z
" transform="scale(0.015625)"/>
      <path id="DejaVuSans-69" d="M 603 3500 
L 1178 3500 
L 1178 0 
L 603 0 
L 603 3500 
z
M 603 4863 
L 1178 4863 
L 1178 4134 
L 603 4134 
L 603 4863 
z
" transform="scale(0.015625)"/>
      <path id="DejaVuSans-6c" d="M 603 4863 
L 1178 4863 
L 1178 0 
L 603 0 
L 603 4863 
z
" transform="scale(0.015625)"/>
      <path id="DejaVuSans-79" d="M 2059 -325 
Q 1816 -950 1584 -1140 
Q 1353 -1331 966 -1331 
L 506 -1331 
L 506 -850 
L 844 -850 
Q 1081 -850 1212 -737 
Q 1344 -625 1503 -206 
L 1606 56 
L 191 3500 
L 800 3500 
L 1894 763 
L 2988 3500 
L 3597 3500 
L 2059 -325 
z
" transform="scale(0.015625)"/>
      <path id="DejaVuSans-20" transform="scale(0.015625)"/>
      <path id="DejaVuSans-43" d="M 4122 4306 
L 4122 3641 
Q 3803 3938 3442 4084 
Q 3081 4231 2675 4231 
Q 1875 4231 1450 3742 
Q 1025 3253 1025 2328 
Q 1025 1406 1450 917 
Q 1875 428 2675 428 
Q 3081 428 3442 575 
Q 3803 722 4122 1019 
L 4122 359 
Q 3791 134 3420 21 
Q 3050 -91 2638 -91 
Q 1578 -91 968 557 
Q 359 1206 359 2328 
Q 359 3453 968 4101 
Q 1578 4750 2638 4750 
Q 3056 4750 3426 4639 
Q 3797 4528 4122 4306 
z
" transform="scale(0.015625)"/>
      <path id="DejaVuSans-6f" d="M 1959 3097 
Q 1497 3097 1228 2736 
Q 959 2375 959 1747 
Q 959 1119 1226 758 
Q 1494 397 1959 397 
Q 2419 397 2687 759 
Q 2956 1122 2956 1747 
Q 2956 2369 2687 2733 
Q 2419 3097 1959 3097 
z
M 1959 3584 
Q 2709 3584 3137 3096 
Q 3566 2609 3566 1747 
Q 3566 888 3137 398 
Q 2709 -91 1959 -91 
Q 1206 -91 779 398 
Q 353 888 353 1747 
Q 353 2609 779 3096 
Q 1206 3584 1959 3584 
z
" transform="scale(0.015625)"/>
      <path id="DejaVuSans-6e" d="M 3513 2113 
L 3513 0 
L 2938 0 
L 2938 2094 
Q 2938 2591 2744 2837 
Q 2550 3084 2163 3084 
Q 1697 3084 1428 2787 
Q 1159 2491 1159 1978 
L 1159 0 
L 581 0 
L 581 3500 
L 1159 3500 
L 1159 2956 
Q 1366 3272 1645 3428 
Q 1925 3584 2291 3584 
Q 2894 3584 3203 3211 
Q 3513 2838 3513 2113 
z
" transform="scale(0.015625)"/>
      <path id="DejaVuSans-66" d="M 2375 4863 
L 2375 4384 
L 1825 4384 
Q 1516 4384 1395 4259 
Q 1275 4134 1275 3809 
L 1275 3500 
L 2222 3500 
L 2222 3053 
L 1275 3053 
L 1275 0 
L 697 0 
L 697 3053 
L 147 3053 
L 147 3500 
L 697 3500 
L 697 3744 
Q 697 4328 969 4595 
Q 1241 4863 1831 4863 
L 2375 4863 
z
" transform="scale(0.015625)"/>
      <path id="DejaVuSans-72" d="M 2631 2963 
Q 2534 3019 2420 3045 
Q 2306 3072 2169 3072 
Q 1681 3072 1420 2755 
Q 1159 2438 1159 1844 
L 1159 0 
L 581 0 
L 581 3500 
L 1159 3500 
L 1159 2956 
Q 1341 3275 1631 3429 
Q 1922 3584 2338 3584 
Q 2397 3584 2469 3576 
Q 2541 3569 2628 3553 
L 2631 2963 
z
" transform="scale(0.015625)"/>
      <path id="DejaVuSans-6d" d="M 3328 2828 
Q 3544 3216 3844 3400 
Q 4144 3584 4550 3584 
Q 5097 3584 5394 3201 
Q 5691 2819 5691 2113 
L 5691 0 
L 5113 0 
L 5113 2094 
Q 5113 2597 4934 2840 
Q 4756 3084 4391 3084 
Q 3944 3084 3684 2787 
Q 3425 2491 3425 1978 
L 3425 0 
L 2847 0 
L 2847 2094 
Q 2847 2600 2669 2842 
Q 2491 3084 2119 3084 
Q 1678 3084 1418 2786 
Q 1159 2488 1159 1978 
L 1159 0 
L 581 0 
L 581 3500 
L 1159 3500 
L 1159 2956 
Q 1356 3278 1631 3431 
Q 1906 3584 2284 3584 
Q 2666 3584 2933 3390 
Q 3200 3197 3328 2828 
z
" transform="scale(0.015625)"/>
      <path id="DejaVuSans-65" d="M 3597 1894 
L 3597 1613 
L 953 1613 
Q 991 1019 1311 708 
Q 1631 397 2203 397 
Q 2534 397 2845 478 
Q 3156 559 3463 722 
L 3463 178 
Q 3153 47 2828 -22 
Q 2503 -91 2169 -91 
Q 1331 -91 842 396 
Q 353 884 353 1716 
Q 353 2575 817 3079 
Q 1281 3584 2069 3584 
Q 2775 3584 3186 3129 
Q 3597 2675 3597 1894 
z
M 3022 2063 
Q 3016 2534 2758 2815 
Q 2500 3097 2075 3097 
Q 1594 3097 1305 2825 
Q 1016 2553 972 2059 
L 3022 2063 
z
" transform="scale(0.015625)"/>
      <path id="DejaVuSans-64" d="M 2906 2969 
L 2906 4863 
L 3481 4863 
L 3481 0 
L 2906 0 
L 2906 525 
Q 2725 213 2448 61 
Q 2172 -91 1784 -91 
Q 1150 -91 751 415 
Q 353 922 353 1747 
Q 353 2572 751 3078 
Q 1150 3584 1784 3584 
Q 2172 3584 2448 3432 
Q 2725 3281 2906 2969 
z
M 947 1747 
Q 947 1113 1208 752 
Q 1469 391 1925 391 
Q 2381 391 2643 752 
Q 2906 1113 2906 1747 
Q 2906 2381 2643 2742 
Q 2381 3103 1925 3103 
Q 1469 3103 1208 2742 
Q 947 2381 947 1747 
z
" transform="scale(0.015625)"/>
      <path id="DejaVuSans-73" d="M 2834 3397 
L 2834 2853 
Q 2591 2978 2328 3040 
Q 2066 3103 1784 3103 
Q 1356 3103 1142 2972 
Q 928 2841 928 2578 
Q 928 2378 1081 2264 
Q 1234 2150 1697 2047 
L 1894 2003 
Q 2506 1872 2764 1633 
Q 3022 1394 3022 966 
Q 3022 478 2636 193 
Q 2250 -91 1575 -91 
Q 1294 -91 989 -36 
Q 684 19 347 128 
L 347 722 
Q 666 556 975 473 
Q 1284 391 1588 391 
Q 1994 391 2212 530 
Q 2431 669 2431 922 
Q 2431 1156 2273 1281 
Q 2116 1406 1581 1522 
L 1381 1569 
Q 847 1681 609 1914 
Q 372 2147 372 2553 
Q 372 3047 722 3315 
Q 1072 3584 1716 3584 
Q 2034 3584 2315 3537 
Q 2597 3491 2834 3397 
z
" transform="scale(0.015625)"/>
      <path id="DejaVuSans-46" d="M 628 4666 
L 3309 4666 
L 3309 4134 
L 1259 4134 
L 1259 2759 
L 3109 2759 
L 3109 2228 
L 1259 2228 
L 1259 0 
L 628 0 
L 628 4666 
z
" transform="scale(0.015625)"/>
      <path id="DejaVuSans-63" d="M 3122 3366 
L 3122 2828 
Q 2878 2963 2633 3030 
Q 2388 3097 2138 3097 
Q 1578 3097 1268 2742 
Q 959 2388 959 1747 
Q 959 1106 1268 751 
Q 1578 397 2138 397 
Q 2388 397 2633 464 
Q 2878 531 3122 666 
L 3122 134 
Q 2881 22 2623 -34 
Q 2366 -91 2075 -91 
Q 1284 -91 818 406 
Q 353 903 353 1747 
Q 353 2603 823 3093 
Q 1294 3584 2113 3584 
Q 2378 3584 2631 3529 
Q 2884 3475 3122 3366 
z
" transform="scale(0.015625)"/>
      <path id="DejaVuSans-74" d="M 1172 4494 
L 1172 3500 
L 2356 3500 
L 2356 3053 
L 1172 3053 
L 1172 1153 
Q 1172 725 1289 603 
Q 1406 481 1766 481 
L 2356 481 
L 2356 0 
L 1766 0 
Q 1100 0 847 248 
Q 594 497 594 1153 
L 594 3053 
L 172 3053 
L 172 3500 
L 594 3500 
L 594 4494 
L 1172 4494 
z
" transform="scale(0.015625)"/>
      <path id="DejaVuSans-67" d="M 2906 1791 
Q 2906 2416 2648 2759 
Q 2391 3103 1925 3103 
Q 1463 3103 1205 2759 
Q 947 2416 947 1791 
Q 947 1169 1205 825 
Q 1463 481 1925 481 
Q 2391 481 2648 825 
Q 2906 1169 2906 1791 
z
M 3481 434 
Q 3481 -459 3084 -895 
Q 2688 -1331 1869 -1331 
Q 1566 -1331 1297 -1286 
Q 1028 -1241 775 -1147 
L 775 -588 
Q 1028 -725 1275 -790 
Q 1522 -856 1778 -856 
Q 2344 -856 2625 -561 
Q 2906 -266 2906 331 
L 2906 616 
Q 2728 306 2450 153 
Q 2172 0 1784 0 
Q 1141 0 747 490 
Q 353 981 353 1791 
Q 353 2603 747 3093 
Q 1141 3584 1784 3584 
Q 2172 3584 2450 3431 
Q 2728 3278 2906 2969 
L 2906 3500 
L 3481 3500 
L 3481 434 
z
" transform="scale(0.015625)"/>
      <path id="DejaVuSans-50" d="M 1259 4147 
L 1259 2394 
L 2053 2394 
Q 2494 2394 2734 2622 
Q 2975 2850 2975 3272 
Q 2975 3691 2734 3919 
Q 2494 4147 2053 4147 
L 1259 4147 
z
M 628 4666 
L 2053 4666 
Q 2838 4666 3239 4311 
Q 3641 3956 3641 3272 
Q 3641 2581 3239 2228 
Q 2838 1875 2053 1875 
L 1259 1875 
L 1259 0 
L 628 0 
L 628 4666 
z
" transform="scale(0.015625)"/>
      <path id="DejaVuSans-70" d="M 1159 525 
L 1159 -1331 
L 581 -1331 
L 581 3500 
L 1159 3500 
L 1159 2969 
Q 1341 3281 1617 3432 
Q 1894 3584 2278 3584 
Q 2916 3584 3314 3078 
Q 3713 2572 3713 1747 
Q 3713 922 3314 415 
Q 2916 -91 2278 -91 
Q 1894 -91 1617 61 
Q 1341 213 1159 525 
z
M 3116 1747 
Q 3116 2381 2855 2742 
Q 2594 3103 2138 3103 
Q 1681 3103 1420 2742 
Q 1159 2381 1159 1747 
Q 1159 1113 1420 752 
Q 1681 391 2138 391 
Q 2594 391 2855 752 
Q 3116 1113 3116 1747 
z
" transform="scale(0.015625)"/>
      <path id="DejaVuSans-75" d="M 544 1381 
L 544 3500 
L 1119 3500 
L 1119 1403 
Q 1119 906 1312 657 
Q 1506 409 1894 409 
Q 2359 409 2629 706 
Q 2900 1003 2900 1516 
L 2900 3500 
L 3475 3500 
L 3475 0 
L 2900 0 
L 2900 538 
Q 2691 219 2414 64 
Q 2138 -91 1772 -91 
Q 1169 -91 856 284 
Q 544 659 544 1381 
z
M 1991 3584 
L 1991 3584 
z
" transform="scale(0.015625)"/>
      <path id="DejaVuSans-4e" d="M 628 4666 
L 1478 4666 
L 3547 763 
L 3547 4666 
L 4159 4666 
L 4159 0 
L 3309 0 
L 1241 3903 
L 1241 0 
L 628 0 
L 628 4666 
z
" transform="scale(0.015625)"/>
      <path id="DejaVuSans-77" d="M 269 3500 
L 844 3500 
L 1563 769 
L 2278 3500 
L 2956 3500 
L 3675 769 
L 4391 3500 
L 4966 3500 
L 4050 0 
L 3372 0 
L 2619 2869 
L 1863 0 
L 1184 0 
L 269 3500 
z
" transform="scale(0.015625)"/>
      <path id="DejaVuSans-47" d="M 3809 666 
L 3809 1919 
L 2778 1919 
L 2778 2438 
L 4434 2438 
L 4434 434 
Q 4069 175 3628 42 
Q 3188 -91 2688 -91 
Q 1594 -91 976 548 
Q 359 1188 359 2328 
Q 359 3472 976 4111 
Q 1594 4750 2688 4750 
Q 3144 4750 3555 4637 
Q 3966 4525 4313 4306 
L 4313 3634 
Q 3963 3931 3569 4081 
Q 3175 4231 2741 4231 
Q 1884 4231 1454 3753 
Q 1025 3275 1025 2328 
Q 1025 1384 1454 906 
Q 1884 428 2741 428 
Q 3075 428 3337 486 
Q 3600 544 3809 666 
z
" transform="scale(0.015625)"/>
     </defs>
     <use xlink:href="#DejaVuSans-44"/>
     <use xlink:href="#DejaVuSans-61" x="77.001953"/>
     <use xlink:href="#DejaVuSans-69" x="138.28125"/>
     <use xlink:href="#DejaVuSans-6c" x="166.064453"/>
     <use xlink:href="#DejaVuSans-79" x="193.847656"/>
     <use xlink:href="#DejaVuSans-20" x="253.027344"/>
     <use xlink:href="#DejaVuSans-43" x="284.814453"/>
     <use xlink:href="#DejaVuSans-6f" x="354.638672"/>
     <use xlink:href="#DejaVuSans-6e" x="415.820312"/>
     <use xlink:href="#DejaVuSans-66" x="479.199219"/>
     <use xlink:href="#DejaVuSans-69" x="514.404297"/>
     <use xlink:href="#DejaVuSans-72" x="542.1875"/>
     <use xlink:href="#DejaVuSans-6d" x="581.550781"/>
     <use xlink:href="#DejaVuSans-65" x="678.962891"/>
     <use xlink:href="#DejaVuSans-64" x="740.486328"/>
     <use xlink:href="#DejaVuSans-20" x="803.962891"/>
     <use xlink:href="#DejaVuSans-43" x="835.75"/>
     <use xlink:href="#DejaVuSans-61" x="905.574219"/>
     <use xlink:href="#DejaVuSans-73" x="966.853516"/>
     <use xlink:href="#DejaVuSans-65" x="1018.953125"/>
     <use xlink:href="#DejaVuSans-73" x="1080.476562"/>
     <use xlink:href="#DejaVuSans-20" x="1132.576172"/>
     <use xlink:href="#DejaVuSans-46" x="1164.363281"/>
     <use xlink:href="#DejaVuSans-6f" x="1218.257812"/>
     <use xlink:href="#DejaVuSans-72" x="1279.439453"/>
     <use xlink:href="#DejaVuSans-65" x="1318.302734"/>
     <use xlink:href="#DejaVuSans-63" x="1379.826172"/>
     <use xlink:href="#DejaVuSans-61" x="1434.806641"/>
     <use xlink:href="#DejaVuSans-73" x="1496.085938"/>
     <use xlink:href="#DejaVuSans-74" x="1548.185547"/>
     <use xlink:href="#DejaVuSans-69" x="1587.394531"/>
     <use xlink:href="#DejaVuSans-6e" x="1615.177734"/>
     <use xlink:href="#DejaVuSans-67" x="1678.556641"/>
     <use xlink:href="#DejaVuSans-20" x="1742.033203"/>
     <use xlink:href="#DejaVuSans-2d" x="1773.820312"/>
     <use xlink:href="#DejaVuSans-20" x="1809.904297"/>
     <use xlink:href="#DejaVuSans-50" x="1841.691406"/>
     <use xlink:href="#DejaVuSans-61" x="1897.494141"/>
     <use xlink:href="#DejaVuSans-70" x="1958.773438"/>
     <use xlink:href="#DejaVuSans-75" x="2022.25"/>
     <use xlink:href="#DejaVuSans-61" x="2085.628906"/>
     <use xlink:href="#DejaVuSans-20" x="2146.908203"/>
     <use xlink:href="#DejaVuSans-4e" x="2178.695312"/>
     <use xlink:href="#DejaVuSans-65" x="2253.5"/>
     <use xlink:href="#DejaVuSans-77" x="2315.023438"/>
     <use xlink:href="#DejaVuSans-20" x="2396.810547"/>
     <use xlink:href="#DejaVuSans-47" x="2428.597656"/>
     <use xlink:href="#DejaVuSans-75" x="2506.087891"/>
     <use xlink:href="#DejaVuSans-69" x="2569.466797"/>
     <use xlink:href="#DejaVuSans-6e" x="2597.25"/>
     <use xlink:href="#DejaVuSans-65" x="2660.628906"/>
     <use xlink:href="#DejaVuSans-61" x="2722.152344"/>
    </g>
    <!-- ARIMA (1, 1, 1)x(0, 0, 0, 7) (R2 = -0.012487) -->
    <g transform="translate(575.10125 29.7555)scale(0.12 -0.12)">
     <defs>
      <path id="DejaVuSans-41" d="M 2188 4044 
L 1331 1722 
L 3047 1722 
L 2188 4044 
z
M 1831 4666 
L 2547 4666 
L 4325 0 
L 3669 0 
L 3244 1197 
L 1141 1197 
L 716 0 
L 50 0 
L 1831 4666 
z
" transform="scale(0.015625)"/>
      <path id="DejaVuSans-52" d="M 2841 2188 
Q 3044 2119 3236 1894 
Q 3428 1669 3622 1275 
L 4263 0 
L 3584 0 
L 2988 1197 
Q 2756 1666 2539 1819 
Q 2322 1972 1947 1972 
L 1259 1972 
L 1259 0 
L 628 0 
L 628 4666 
L 2053 4666 
Q 2853 4666 3247 4331 
Q 3641 3997 3641 3322 
Q 3641 2881 3436 2590 
Q 3231 2300 2841 2188 
z
M 1259 4147 
L 1259 2491 
L 2053 2491 
Q 2509 2491 2742 2702 
Q 2975 2913 2975 3322 
Q 2975 3731 2742 3939 
Q 2509 4147 2053 4147 
L 1259 4147 
z
" transform="scale(0.015625)"/>
      <path id="DejaVuSans-49" d="M 628 4666 
L 1259 4666 
L 1259 0 
L 628 0 
L 628 4666 
z
" transform="scale(0.015625)"/>
      <path id="DejaVuSans-4d" d="M 628 4666 
L 1569 4666 
L 2759 1491 
L 3956 4666 
L 4897 4666 
L 4897 0 
L 4281 0 
L 4281 4097 
L 3078 897 
L 2444 897 
L 1241 4097 
L 1241 0 
L 628 0 
L 628 4666 
z
" transform="scale(0.015625)"/>
      <path id="DejaVuSans-28" d="M 1984 4856 
Q 1566 4138 1362 3434 
Q 1159 2731 1159 2009 
Q 1159 1288 1364 580 
Q 1569 -128 1984 -844 
L 1484 -844 
Q 1016 -109 783 600 
Q 550 1309 550 2009 
Q 550 2706 781 3412 
Q 1013 4119 1484 4856 
L 1984 4856 
z
" transform="scale(0.015625)"/>
      <path id="DejaVuSans-2c" d="M 750 794 
L 1409 794 
L 1409 256 
L 897 -744 
L 494 -744 
L 750 256 
L 750 794 
z
" transform="scale(0.015625)"/>
      <path id="DejaVuSans-29" d="M 513 4856 
L 1013 4856 
Q 1481 4119 1714 3412 
Q 1947 2706 1947 2009 
Q 1947 1309 1714 600 
Q 1481 -109 1013 -844 
L 513 -844 
Q 928 -128 1133 580 
Q 1338 1288 1338 2009 
Q 1338 2731 1133 3434 
Q 928 4138 513 4856 
z
" transform="scale(0.015625)"/>
      <path id="DejaVuSans-78" d="M 3513 3500 
L 2247 1797 
L 3578 0 
L 2900 0 
L 1881 1375 
L 863 0 
L 184 0 
L 1544 1831 
L 300 3500 
L 978 3500 
L 1906 2253 
L 2834 3500 
L 3513 3500 
z
" transform="scale(0.015625)"/>
      <path id="DejaVuSans-3d" d="M 678 2906 
L 4684 2906 
L 4684 2381 
L 678 2381 
L 678 2906 
z
M 678 1631 
L 4684 1631 
L 4684 1100 
L 678 1100 
L 678 1631 
z
" transform="scale(0.015625)"/>
      <path id="DejaVuSans-2e" d="M 684 794 
L 1344 794 
L 1344 0 
L 684 0 
L 684 794 
z
" transform="scale(0.015625)"/>
     </defs>
     <use xlink:href="#DejaVuSans-41"/>
     <use xlink:href="#DejaVuSans-52" x="68.408203"/>
     <use xlink:href="#DejaVuSans-49" x="137.890625"/>
     <use xlink:href="#DejaVuSans-4d" x="167.382812"/>
     <use xlink:href="#DejaVuSans-41" x="253.662109"/>
     <use xlink:href="#DejaVuSans-20" x="322.070312"/>
     <use xlink:href="#DejaVuSans-28" x="353.857422"/>
     <use xlink:href="#DejaVuSans-31" x="392.871094"/>
     <use xlink:href="#DejaVuSans-2c" x="456.494141"/>
     <use xlink:href="#DejaVuSans-20" x="488.28125"/>
     <use xlink:href="#DejaVuSans-31" x="520.068359"/>
     <use xlink:href="#DejaVuSans-2c" x="583.691406"/>
     <use xlink:href="#DejaVuSans-20" x="615.478516"/>
     <use xlink:href="#DejaVuSans-31" x="647.265625"/>
     <use xlink:href="#DejaVuSans-29" x="710.888672"/>
     <use xlink:href="#DejaVuSans-78" x="749.902344"/>
     <use xlink:href="#DejaVuSans-28" x="809.082031"/>
     <use xlink:href="#DejaVuSans-30" x="848.095703"/>
     <use xlink:href="#DejaVuSans-2c" x="911.71875"/>
     <use xlink:href="#DejaVuSans-20" x="943.505859"/>
     <use xlink:href="#DejaVuSans-30" x="975.292969"/>
     <use xlink:href="#DejaVuSans-2c" x="1038.916016"/>
     <use xlink:href="#DejaVuSans-20" x="1070.703125"/>
     <use xlink:href="#DejaVuSans-30" x="1102.490234"/>
     <use xlink:href="#DejaVuSans-2c" x="1166.113281"/>
     <use xlink:href="#DejaVuSans-20" x="1197.900391"/>
     <use xlink:href="#DejaVuSans-37" x="1229.6875"/>
     <use xlink:href="#DejaVuSans-29" x="1293.310547"/>
     <use xlink:href="#DejaVuSans-20" x="1332.324219"/>
     <use xlink:href="#DejaVuSans-28" x="1364.111328"/>
     <use xlink:href="#DejaVuSans-52" x="1403.125"/>
     <use xlink:href="#DejaVuSans-32" x="1472.607422"/>
     <use xlink:href="#DejaVuSans-20" x="1536.230469"/>
     <use xlink:href="#DejaVuSans-3d" x="1568.017578"/>
     <use xlink:href="#DejaVuSans-20" x="1651.806641"/>
     <use xlink:href="#DejaVuSans-2d" x="1683.59375"/>
     <use xlink:href="#DejaVuSans-30" x="1719.677734"/>
     <use xlink:href="#DejaVuSans-2e" x="1783.300781"/>
     <use xlink:href="#DejaVuSans-30" x="1815.087891"/>
     <use xlink:href="#DejaVuSans-31" x="1878.710938"/>
     <use xlink:href="#DejaVuSans-32" x="1942.333984"/>
     <use xlink:href="#DejaVuSans-34" x="2005.957031"/>
     <use xlink:href="#DejaVuSans-38" x="2069.580078"/>
     <use xlink:href="#DejaVuSans-37" x="2133.203125"/>
     <use xlink:href="#DejaVuSans-29" x="2196.826172"/>
    </g>
   </g>
   <g id="legend_1">
    <g id="patch_7">
     <path d="M 1274.770313 87.789875 
L 1371.85 87.789875 
Q 1373.85 87.789875 1373.85 85.789875 
L 1373.85 42.7555 
Q 1373.85 40.7555 1371.85 40.7555 
L 1274.770313 40.7555 
Q 1272.770313 40.7555 1272.770313 42.7555 
L 1272.770313 85.789875 
Q 1272.770313 87.789875 1274.770313 87.789875 
z
" style="fill: #ffffff; opacity: 0.8; stroke: #cccccc; stroke-linejoin: miter"/>
    </g>
    <g id="line2d_24">
     <path d="M 1276.770313 48.853937 
L 1286.770313 48.853937 
L 1296.770313 48.853937 
" style="fill: none; stroke: #0000ff; stroke-width: 1.5; stroke-linecap: square"/>
    </g>
    <g id="text_22">
     <!-- Actual Value -->
     <g transform="translate(1304.770313 52.353937)scale(0.1 -0.1)">
      <defs>
       <path id="DejaVuSans-56" d="M 1831 0 
L 50 4666 
L 709 4666 
L 2188 738 
L 3669 4666 
L 4325 4666 
L 2547 0 
L 1831 0 
z
" transform="scale(0.015625)"/>
      </defs>
      <use xlink:href="#DejaVuSans-41"/>
      <use xlink:href="#DejaVuSans-63" x="66.658203"/>
      <use xlink:href="#DejaVuSans-74" x="121.638672"/>
      <use xlink:href="#DejaVuSans-75" x="160.847656"/>
      <use xlink:href="#DejaVuSans-61" x="224.226562"/>
      <use xlink:href="#DejaVuSans-6c" x="285.505859"/>
      <use xlink:href="#DejaVuSans-20" x="313.289062"/>
      <use xlink:href="#DejaVuSans-56" x="345.076172"/>
      <use xlink:href="#DejaVuSans-61" x="405.734375"/>
      <use xlink:href="#DejaVuSans-6c" x="467.013672"/>
      <use xlink:href="#DejaVuSans-75" x="494.796875"/>
      <use xlink:href="#DejaVuSans-65" x="558.175781"/>
     </g>
    </g>
    <g id="line2d_25">
     <path d="M 1276.770313 63.532062 
L 1286.770313 63.532062 
L 1296.770313 63.532062 
" style="fill: none; stroke: #ffa500; stroke-width: 1.5; stroke-linecap: square"/>
    </g>
    <g id="text_23">
     <!-- Check Value -->
     <g transform="translate(1304.770313 67.032062)scale(0.1 -0.1)">
      <defs>
       <path id="DejaVuSans-68" d="M 3513 2113 
L 3513 0 
L 2938 0 
L 2938 2094 
Q 2938 2591 2744 2837 
Q 2550 3084 2163 3084 
Q 1697 3084 1428 2787 
Q 1159 2491 1159 1978 
L 1159 0 
L 581 0 
L 581 4863 
L 1159 4863 
L 1159 2956 
Q 1366 3272 1645 3428 
Q 1925 3584 2291 3584 
Q 2894 3584 3203 3211 
Q 3513 2838 3513 2113 
z
" transform="scale(0.015625)"/>
       <path id="DejaVuSans-6b" d="M 581 4863 
L 1159 4863 
L 1159 1991 
L 2875 3500 
L 3609 3500 
L 1753 1863 
L 3688 0 
L 2938 0 
L 1159 1709 
L 1159 0 
L 581 0 
L 581 4863 
z
" transform="scale(0.015625)"/>
      </defs>
      <use xlink:href="#DejaVuSans-43"/>
      <use xlink:href="#DejaVuSans-68" x="69.824219"/>
      <use xlink:href="#DejaVuSans-65" x="133.203125"/>
      <use xlink:href="#DejaVuSans-63" x="194.726562"/>
      <use xlink:href="#DejaVuSans-6b" x="249.707031"/>
      <use xlink:href="#DejaVuSans-20" x="307.617188"/>
      <use xlink:href="#DejaVuSans-56" x="339.404297"/>
      <use xlink:href="#DejaVuSans-61" x="400.0625"/>
      <use xlink:href="#DejaVuSans-6c" x="461.341797"/>
      <use xlink:href="#DejaVuSans-75" x="489.125"/>
      <use xlink:href="#DejaVuSans-65" x="552.503906"/>
     </g>
    </g>
    <g id="line2d_26">
     <path d="M 1276.770313 78.210187 
L 1286.770313 78.210187 
L 1296.770313 78.210187 
" style="fill: none; stroke: #ff0000; stroke-width: 1.5; stroke-linecap: square"/>
    </g>
    <g id="text_24">
     <!-- Predict Value -->
     <g transform="translate(1304.770313 81.710187)scale(0.1 -0.1)">
      <use xlink:href="#DejaVuSans-50"/>
      <use xlink:href="#DejaVuSans-72" x="58.552734"/>
      <use xlink:href="#DejaVuSans-65" x="97.416016"/>
      <use xlink:href="#DejaVuSans-64" x="158.939453"/>
      <use xlink:href="#DejaVuSans-69" x="222.416016"/>
      <use xlink:href="#DejaVuSans-63" x="250.199219"/>
      <use xlink:href="#DejaVuSans-74" x="305.179688"/>
      <use xlink:href="#DejaVuSans-20" x="344.388672"/>
      <use xlink:href="#DejaVuSans-56" x="376.175781"/>
      <use xlink:href="#DejaVuSans-61" x="436.833984"/>
      <use xlink:href="#DejaVuSans-6c" x="498.113281"/>
      <use xlink:href="#DejaVuSans-75" x="525.896484"/>
      <use xlink:href="#DejaVuSans-65" x="589.275391"/>
     </g>
    </g>
   </g>
  </g>
 </g>
 <defs>
  <clipPath id="p8bb56d7bf0">
   <rect x="39.65" y="35.7555" width="1339.2" height="332.64"/>
  </clipPath>
 </defs>
</svg>
