<?xml version="1.0" encoding="utf-8" standalone="no"?>
<!DOCTYPE svg PUBLIC "-//W3C//DTD SVG 1.1//EN"
  "http://www.w3.org/Graphics/SVG/1.1/DTD/svg11.dtd">
<svg xmlns:xlink="http://www.w3.org/1999/xlink" width="1403.42404pt" height="392.273625pt" viewBox="0 0 1403.42404 392.273625" xmlns="http://www.w3.org/2000/svg" version="1.1">
 <metadata>
  <rdf:RDF xmlns:dc="http://purl.org/dc/elements/1.1/" xmlns:cc="http://creativecommons.org/ns#" xmlns:rdf="http://www.w3.org/1999/02/22-rdf-syntax-ns#">
   <cc:Work>
    <dc:type rdf:resource="http://purl.org/dc/dcmitype/StillImage"/>
    <dc:date>2023-03-01T18:47:14.827898</dc:date>
    <dc:format>image/svg+xml</dc:format>
    <dc:creator>
     <cc:Agent>
      <dc:title>Matplotlib v3.5.1, https://matplotlib.org/</dc:title>
     </cc:Agent>
    </dc:creator>
   </cc:Work>
  </rdf:RDF>
 </metadata>
 <defs>
  <style type="text/css">*{stroke-linejoin: round; stroke-linecap: butt}</style>
 </defs>
 <g id="figure_1">
  <g id="patch_1">
   <path d="M 0 392.273625 
L 1403.42404 392.273625 
L 1403.42404 0 
L 0 0 
z
" style="fill: #ffffff"/>
  </g>
  <g id="axes_1">
   <g id="patch_2">
    <path d="M 46.0125 368.3955 
L 1385.2125 368.3955 
L 1385.2125 35.7555 
L 46.0125 35.7555 
z
" style="fill: #ffffff"/>
   </g>
   <g id="matplotlib.axis_1">
    <g id="xtick_1">
     <g id="line2d_1">
      <defs>
       <path id="me74af76c7e" d="M 0 0 
L 0 3.5 
" style="stroke: #000000; stroke-width: 0.8"/>
      </defs>
      <g>
       <use xlink:href="#me74af76c7e" x="83.5135" y="368.3955" style="stroke: #000000; stroke-width: 0.8"/>
      </g>
     </g>
     <g id="text_1">
      <!-- 2020-01 -->
      <g transform="translate(62.622093 382.993937)scale(0.1 -0.1)">
       <defs>
        <path id="DejaVuSans-32" d="M 1228 531 
L 3431 531 
L 3431 0 
L 469 0 
L 469 531 
Q 828 903 1448 1529 
Q 2069 2156 2228 2338 
Q 2531 2678 2651 2914 
Q 2772 3150 2772 3378 
Q 2772 3750 2511 3984 
Q 2250 4219 1831 4219 
Q 1534 4219 1204 4116 
Q 875 4013 500 3803 
L 500 4441 
Q 881 4594 1212 4672 
Q 1544 4750 1819 4750 
Q 2544 4750 2975 4387 
Q 3406 4025 3406 3419 
Q 3406 3131 3298 2873 
Q 3191 2616 2906 2266 
Q 2828 2175 2409 1742 
Q 1991 1309 1228 531 
z
" transform="scale(0.015625)"/>
        <path id="DejaVuSans-30" d="M 2034 4250 
Q 1547 4250 1301 3770 
Q 1056 3291 1056 2328 
Q 1056 1369 1301 889 
Q 1547 409 2034 409 
Q 2525 409 2770 889 
Q 3016 1369 3016 2328 
Q 3016 3291 2770 3770 
Q 2525 4250 2034 4250 
z
M 2034 4750 
Q 2819 4750 3233 4129 
Q 3647 3509 3647 2328 
Q 3647 1150 3233 529 
Q 2819 -91 2034 -91 
Q 1250 -91 836 529 
Q 422 1150 422 2328 
Q 422 3509 836 4129 
Q 1250 4750 2034 4750 
z
" transform="scale(0.015625)"/>
        <path id="DejaVuSans-2d" d="M 313 2009 
L 1997 2009 
L 1997 1497 
L 313 1497 
L 313 2009 
z
" transform="scale(0.015625)"/>
        <path id="DejaVuSans-31" d="M 794 531 
L 1825 531 
L 1825 4091 
L 703 3866 
L 703 4441 
L 1819 4666 
L 2450 4666 
L 2450 531 
L 3481 531 
L 3481 0 
L 794 0 
L 794 531 
z
" transform="scale(0.015625)"/>
       </defs>
       <use xlink:href="#DejaVuSans-32"/>
       <use xlink:href="#DejaVuSans-30" x="63.623047"/>
       <use xlink:href="#DejaVuSans-32" x="127.246094"/>
       <use xlink:href="#DejaVuSans-30" x="190.869141"/>
       <use xlink:href="#DejaVuSans-2d" x="254.492188"/>
       <use xlink:href="#DejaVuSans-30" x="290.576172"/>
       <use xlink:href="#DejaVuSans-31" x="354.199219"/>
      </g>
     </g>
    </g>
    <g id="xtick_2">
     <g id="line2d_2">
      <g>
       <use xlink:href="#me74af76c7e" x="212.058002" y="368.3955" style="stroke: #000000; stroke-width: 0.8"/>
      </g>
     </g>
     <g id="text_2">
      <!-- 2020-05 -->
      <g transform="translate(191.166596 382.993937)scale(0.1 -0.1)">
       <defs>
        <path id="DejaVuSans-35" d="M 691 4666 
L 3169 4666 
L 3169 4134 
L 1269 4134 
L 1269 2991 
Q 1406 3038 1543 3061 
Q 1681 3084 1819 3084 
Q 2600 3084 3056 2656 
Q 3513 2228 3513 1497 
Q 3513 744 3044 326 
Q 2575 -91 1722 -91 
Q 1428 -91 1123 -41 
Q 819 9 494 109 
L 494 744 
Q 775 591 1075 516 
Q 1375 441 1709 441 
Q 2250 441 2565 725 
Q 2881 1009 2881 1497 
Q 2881 1984 2565 2268 
Q 2250 2553 1709 2553 
Q 1456 2553 1204 2497 
Q 953 2441 691 2322 
L 691 4666 
z
" transform="scale(0.015625)"/>
       </defs>
       <use xlink:href="#DejaVuSans-32"/>
       <use xlink:href="#DejaVuSans-30" x="63.623047"/>
       <use xlink:href="#DejaVuSans-32" x="127.246094"/>
       <use xlink:href="#DejaVuSans-30" x="190.869141"/>
       <use xlink:href="#DejaVuSans-2d" x="254.492188"/>
       <use xlink:href="#DejaVuSans-30" x="290.576172"/>
       <use xlink:href="#DejaVuSans-35" x="354.199219"/>
      </g>
     </g>
    </g>
    <g id="xtick_3">
     <g id="line2d_3">
      <g>
       <use xlink:href="#me74af76c7e" x="342.727207" y="368.3955" style="stroke: #000000; stroke-width: 0.8"/>
      </g>
     </g>
     <g id="text_3">
      <!-- 2020-09 -->
      <g transform="translate(321.835801 382.993937)scale(0.1 -0.1)">
       <defs>
        <path id="DejaVuSans-39" d="M 703 97 
L 703 672 
Q 941 559 1184 500 
Q 1428 441 1663 441 
Q 2288 441 2617 861 
Q 2947 1281 2994 2138 
Q 2813 1869 2534 1725 
Q 2256 1581 1919 1581 
Q 1219 1581 811 2004 
Q 403 2428 403 3163 
Q 403 3881 828 4315 
Q 1253 4750 1959 4750 
Q 2769 4750 3195 4129 
Q 3622 3509 3622 2328 
Q 3622 1225 3098 567 
Q 2575 -91 1691 -91 
Q 1453 -91 1209 -44 
Q 966 3 703 97 
z
M 1959 2075 
Q 2384 2075 2632 2365 
Q 2881 2656 2881 3163 
Q 2881 3666 2632 3958 
Q 2384 4250 1959 4250 
Q 1534 4250 1286 3958 
Q 1038 3666 1038 3163 
Q 1038 2656 1286 2365 
Q 1534 2075 1959 2075 
z
" transform="scale(0.015625)"/>
       </defs>
       <use xlink:href="#DejaVuSans-32"/>
       <use xlink:href="#DejaVuSans-30" x="63.623047"/>
       <use xlink:href="#DejaVuSans-32" x="127.246094"/>
       <use xlink:href="#DejaVuSans-30" x="190.869141"/>
       <use xlink:href="#DejaVuSans-2d" x="254.492188"/>
       <use xlink:href="#DejaVuSans-30" x="290.576172"/>
       <use xlink:href="#DejaVuSans-39" x="354.199219"/>
      </g>
     </g>
    </g>
    <g id="xtick_4">
     <g id="line2d_4">
      <g>
       <use xlink:href="#me74af76c7e" x="472.334061" y="368.3955" style="stroke: #000000; stroke-width: 0.8"/>
      </g>
     </g>
     <g id="text_4">
      <!-- 2021-01 -->
      <g transform="translate(451.442655 382.993937)scale(0.1 -0.1)">
       <use xlink:href="#DejaVuSans-32"/>
       <use xlink:href="#DejaVuSans-30" x="63.623047"/>
       <use xlink:href="#DejaVuSans-32" x="127.246094"/>
       <use xlink:href="#DejaVuSans-31" x="190.869141"/>
       <use xlink:href="#DejaVuSans-2d" x="254.492188"/>
       <use xlink:href="#DejaVuSans-30" x="290.576172"/>
       <use xlink:href="#DejaVuSans-31" x="354.199219"/>
      </g>
     </g>
    </g>
    <g id="xtick_5">
     <g id="line2d_5">
      <g>
       <use xlink:href="#me74af76c7e" x="599.816213" y="368.3955" style="stroke: #000000; stroke-width: 0.8"/>
      </g>
     </g>
     <g id="text_5">
      <!-- 2021-05 -->
      <g transform="translate(578.924806 382.993937)scale(0.1 -0.1)">
       <use xlink:href="#DejaVuSans-32"/>
       <use xlink:href="#DejaVuSans-30" x="63.623047"/>
       <use xlink:href="#DejaVuSans-32" x="127.246094"/>
       <use xlink:href="#DejaVuSans-31" x="190.869141"/>
       <use xlink:href="#DejaVuSans-2d" x="254.492188"/>
       <use xlink:href="#DejaVuSans-30" x="290.576172"/>
       <use xlink:href="#DejaVuSans-35" x="354.199219"/>
      </g>
     </g>
    </g>
    <g id="xtick_6">
     <g id="line2d_6">
      <g>
       <use xlink:href="#me74af76c7e" x="730.485418" y="368.3955" style="stroke: #000000; stroke-width: 0.8"/>
      </g>
     </g>
     <g id="text_6">
      <!-- 2021-09 -->
      <g transform="translate(709.594011 382.993937)scale(0.1 -0.1)">
       <use xlink:href="#DejaVuSans-32"/>
       <use xlink:href="#DejaVuSans-30" x="63.623047"/>
       <use xlink:href="#DejaVuSans-32" x="127.246094"/>
       <use xlink:href="#DejaVuSans-31" x="190.869141"/>
       <use xlink:href="#DejaVuSans-2d" x="254.492188"/>
       <use xlink:href="#DejaVuSans-30" x="290.576172"/>
       <use xlink:href="#DejaVuSans-39" x="354.199219"/>
      </g>
     </g>
    </g>
    <g id="xtick_7">
     <g id="line2d_7">
      <g>
       <use xlink:href="#me74af76c7e" x="860.092272" y="368.3955" style="stroke: #000000; stroke-width: 0.8"/>
      </g>
     </g>
     <g id="text_7">
      <!-- 2022-01 -->
      <g transform="translate(839.200865 382.993937)scale(0.1 -0.1)">
       <use xlink:href="#DejaVuSans-32"/>
       <use xlink:href="#DejaVuSans-30" x="63.623047"/>
       <use xlink:href="#DejaVuSans-32" x="127.246094"/>
       <use xlink:href="#DejaVuSans-32" x="190.869141"/>
       <use xlink:href="#DejaVuSans-2d" x="254.492188"/>
       <use xlink:href="#DejaVuSans-30" x="290.576172"/>
       <use xlink:href="#DejaVuSans-31" x="354.199219"/>
      </g>
     </g>
    </g>
    <g id="xtick_8">
     <g id="line2d_8">
      <g>
       <use xlink:href="#me74af76c7e" x="987.574423" y="368.3955" style="stroke: #000000; stroke-width: 0.8"/>
      </g>
     </g>
     <g id="text_8">
      <!-- 2022-05 -->
      <g transform="translate(966.683017 382.993937)scale(0.1 -0.1)">
       <use xlink:href="#DejaVuSans-32"/>
       <use xlink:href="#DejaVuSans-30" x="63.623047"/>
       <use xlink:href="#DejaVuSans-32" x="127.246094"/>
       <use xlink:href="#DejaVuSans-32" x="190.869141"/>
       <use xlink:href="#DejaVuSans-2d" x="254.492188"/>
       <use xlink:href="#DejaVuSans-30" x="290.576172"/>
       <use xlink:href="#DejaVuSans-35" x="354.199219"/>
      </g>
     </g>
    </g>
    <g id="xtick_9">
     <g id="line2d_9">
      <g>
       <use xlink:href="#me74af76c7e" x="1118.243628" y="368.3955" style="stroke: #000000; stroke-width: 0.8"/>
      </g>
     </g>
     <g id="text_9">
      <!-- 2022-09 -->
      <g transform="translate(1097.352222 382.993937)scale(0.1 -0.1)">
       <use xlink:href="#DejaVuSans-32"/>
       <use xlink:href="#DejaVuSans-30" x="63.623047"/>
       <use xlink:href="#DejaVuSans-32" x="127.246094"/>
       <use xlink:href="#DejaVuSans-32" x="190.869141"/>
       <use xlink:href="#DejaVuSans-2d" x="254.492188"/>
       <use xlink:href="#DejaVuSans-30" x="290.576172"/>
       <use xlink:href="#DejaVuSans-39" x="354.199219"/>
      </g>
     </g>
    </g>
    <g id="xtick_10">
     <g id="line2d_10">
      <g>
       <use xlink:href="#me74af76c7e" x="1247.850482" y="368.3955" style="stroke: #000000; stroke-width: 0.8"/>
      </g>
     </g>
     <g id="text_10">
      <!-- 2023-01 -->
      <g transform="translate(1226.959076 382.993937)scale(0.1 -0.1)">
       <defs>
        <path id="DejaVuSans-33" d="M 2597 2516 
Q 3050 2419 3304 2112 
Q 3559 1806 3559 1356 
Q 3559 666 3084 287 
Q 2609 -91 1734 -91 
Q 1441 -91 1130 -33 
Q 819 25 488 141 
L 488 750 
Q 750 597 1062 519 
Q 1375 441 1716 441 
Q 2309 441 2620 675 
Q 2931 909 2931 1356 
Q 2931 1769 2642 2001 
Q 2353 2234 1838 2234 
L 1294 2234 
L 1294 2753 
L 1863 2753 
Q 2328 2753 2575 2939 
Q 2822 3125 2822 3475 
Q 2822 3834 2567 4026 
Q 2313 4219 1838 4219 
Q 1578 4219 1281 4162 
Q 984 4106 628 3988 
L 628 4550 
Q 988 4650 1302 4700 
Q 1616 4750 1894 4750 
Q 2613 4750 3031 4423 
Q 3450 4097 3450 3541 
Q 3450 3153 3228 2886 
Q 3006 2619 2597 2516 
z
" transform="scale(0.015625)"/>
       </defs>
       <use xlink:href="#DejaVuSans-32"/>
       <use xlink:href="#DejaVuSans-30" x="63.623047"/>
       <use xlink:href="#DejaVuSans-32" x="127.246094"/>
       <use xlink:href="#DejaVuSans-33" x="190.869141"/>
       <use xlink:href="#DejaVuSans-2d" x="254.492188"/>
       <use xlink:href="#DejaVuSans-30" x="290.576172"/>
       <use xlink:href="#DejaVuSans-31" x="354.199219"/>
      </g>
     </g>
    </g>
    <g id="xtick_11">
     <g id="line2d_11">
      <g>
       <use xlink:href="#me74af76c7e" x="1375.332633" y="368.3955" style="stroke: #000000; stroke-width: 0.8"/>
      </g>
     </g>
     <g id="text_11">
      <!-- 2023-05 -->
      <g transform="translate(1354.441227 382.993937)scale(0.1 -0.1)">
       <use xlink:href="#DejaVuSans-32"/>
       <use xlink:href="#DejaVuSans-30" x="63.623047"/>
       <use xlink:href="#DejaVuSans-32" x="127.246094"/>
       <use xlink:href="#DejaVuSans-33" x="190.869141"/>
       <use xlink:href="#DejaVuSans-2d" x="254.492188"/>
       <use xlink:href="#DejaVuSans-30" x="290.576172"/>
       <use xlink:href="#DejaVuSans-35" x="354.199219"/>
      </g>
     </g>
    </g>
   </g>
   <g id="matplotlib.axis_2">
    <g id="ytick_1">
     <g id="line2d_12">
      <defs>
       <path id="m3c0f6be88d" d="M 0 0 
L -3.5 0 
" style="stroke: #000000; stroke-width: 0.8"/>
      </defs>
      <g>
       <use xlink:href="#m3c0f6be88d" x="46.0125" y="353.174377" style="stroke: #000000; stroke-width: 0.8"/>
      </g>
     </g>
     <g id="text_12">
      <!-- 0 -->
      <g transform="translate(32.65 356.973596)scale(0.1 -0.1)">
       <use xlink:href="#DejaVuSans-30"/>
      </g>
     </g>
    </g>
    <g id="ytick_2">
     <g id="line2d_13">
      <g>
       <use xlink:href="#m3c0f6be88d" x="46.0125" y="292.147048" style="stroke: #000000; stroke-width: 0.8"/>
      </g>
     </g>
     <g id="text_13">
      <!-- 2000 -->
      <g transform="translate(13.5625 295.946267)scale(0.1 -0.1)">
       <use xlink:href="#DejaVuSans-32"/>
       <use xlink:href="#DejaVuSans-30" x="63.623047"/>
       <use xlink:href="#DejaVuSans-30" x="127.246094"/>
       <use xlink:href="#DejaVuSans-30" x="190.869141"/>
      </g>
     </g>
    </g>
    <g id="ytick_3">
     <g id="line2d_14">
      <g>
       <use xlink:href="#m3c0f6be88d" x="46.0125" y="231.119718" style="stroke: #000000; stroke-width: 0.8"/>
      </g>
     </g>
     <g id="text_14">
      <!-- 4000 -->
      <g transform="translate(13.5625 234.918937)scale(0.1 -0.1)">
       <defs>
        <path id="DejaVuSans-34" d="M 2419 4116 
L 825 1625 
L 2419 1625 
L 2419 4116 
z
M 2253 4666 
L 3047 4666 
L 3047 1625 
L 3713 1625 
L 3713 1100 
L 3047 1100 
L 3047 0 
L 2419 0 
L 2419 1100 
L 313 1100 
L 313 1709 
L 2253 4666 
z
" transform="scale(0.015625)"/>
       </defs>
       <use xlink:href="#DejaVuSans-34"/>
       <use xlink:href="#DejaVuSans-30" x="63.623047"/>
       <use xlink:href="#DejaVuSans-30" x="127.246094"/>
       <use xlink:href="#DejaVuSans-30" x="190.869141"/>
      </g>
     </g>
    </g>
    <g id="ytick_4">
     <g id="line2d_15">
      <g>
       <use xlink:href="#m3c0f6be88d" x="46.0125" y="170.092388" style="stroke: #000000; stroke-width: 0.8"/>
      </g>
     </g>
     <g id="text_15">
      <!-- 6000 -->
      <g transform="translate(13.5625 173.891607)scale(0.1 -0.1)">
       <defs>
        <path id="DejaVuSans-36" d="M 2113 2584 
Q 1688 2584 1439 2293 
Q 1191 2003 1191 1497 
Q 1191 994 1439 701 
Q 1688 409 2113 409 
Q 2538 409 2786 701 
Q 3034 994 3034 1497 
Q 3034 2003 2786 2293 
Q 2538 2584 2113 2584 
z
M 3366 4563 
L 3366 3988 
Q 3128 4100 2886 4159 
Q 2644 4219 2406 4219 
Q 1781 4219 1451 3797 
Q 1122 3375 1075 2522 
Q 1259 2794 1537 2939 
Q 1816 3084 2150 3084 
Q 2853 3084 3261 2657 
Q 3669 2231 3669 1497 
Q 3669 778 3244 343 
Q 2819 -91 2113 -91 
Q 1303 -91 875 529 
Q 447 1150 447 2328 
Q 447 3434 972 4092 
Q 1497 4750 2381 4750 
Q 2619 4750 2861 4703 
Q 3103 4656 3366 4563 
z
" transform="scale(0.015625)"/>
       </defs>
       <use xlink:href="#DejaVuSans-36"/>
       <use xlink:href="#DejaVuSans-30" x="63.623047"/>
       <use xlink:href="#DejaVuSans-30" x="127.246094"/>
       <use xlink:href="#DejaVuSans-30" x="190.869141"/>
      </g>
     </g>
    </g>
    <g id="ytick_5">
     <g id="line2d_16">
      <g>
       <use xlink:href="#m3c0f6be88d" x="46.0125" y="109.065059" style="stroke: #000000; stroke-width: 0.8"/>
      </g>
     </g>
     <g id="text_16">
      <!-- 8000 -->
      <g transform="translate(13.5625 112.864278)scale(0.1 -0.1)">
       <defs>
        <path id="DejaVuSans-38" d="M 2034 2216 
Q 1584 2216 1326 1975 
Q 1069 1734 1069 1313 
Q 1069 891 1326 650 
Q 1584 409 2034 409 
Q 2484 409 2743 651 
Q 3003 894 3003 1313 
Q 3003 1734 2745 1975 
Q 2488 2216 2034 2216 
z
M 1403 2484 
Q 997 2584 770 2862 
Q 544 3141 544 3541 
Q 544 4100 942 4425 
Q 1341 4750 2034 4750 
Q 2731 4750 3128 4425 
Q 3525 4100 3525 3541 
Q 3525 3141 3298 2862 
Q 3072 2584 2669 2484 
Q 3125 2378 3379 2068 
Q 3634 1759 3634 1313 
Q 3634 634 3220 271 
Q 2806 -91 2034 -91 
Q 1263 -91 848 271 
Q 434 634 434 1313 
Q 434 1759 690 2068 
Q 947 2378 1403 2484 
z
M 1172 3481 
Q 1172 3119 1398 2916 
Q 1625 2713 2034 2713 
Q 2441 2713 2670 2916 
Q 2900 3119 2900 3481 
Q 2900 3844 2670 4047 
Q 2441 4250 2034 4250 
Q 1625 4250 1398 4047 
Q 1172 3844 1172 3481 
z
" transform="scale(0.015625)"/>
       </defs>
       <use xlink:href="#DejaVuSans-38"/>
       <use xlink:href="#DejaVuSans-30" x="63.623047"/>
       <use xlink:href="#DejaVuSans-30" x="127.246094"/>
       <use xlink:href="#DejaVuSans-30" x="190.869141"/>
      </g>
     </g>
    </g>
    <g id="ytick_6">
     <g id="line2d_17">
      <g>
       <use xlink:href="#m3c0f6be88d" x="46.0125" y="48.037729" style="stroke: #000000; stroke-width: 0.8"/>
      </g>
     </g>
     <g id="text_17">
      <!-- 10000 -->
      <g transform="translate(7.2 51.836948)scale(0.1 -0.1)">
       <use xlink:href="#DejaVuSans-31"/>
       <use xlink:href="#DejaVuSans-30" x="63.623047"/>
       <use xlink:href="#DejaVuSans-30" x="127.246094"/>
       <use xlink:href="#DejaVuSans-30" x="190.869141"/>
       <use xlink:href="#DejaVuSans-30" x="254.492188"/>
      </g>
     </g>
    </g>
   </g>
   <g id="line2d_18">
    <path d="M 106.885227 353.174377 
L 165.314547 353.11335 
L 168.5016 353.021809 
L 169.563952 352.747186 
L 170.626303 353.021809 
L 172.751005 352.899754 
L 174.875708 352.7777 
L 175.938059 351.984344 
L 177.000411 352.564104 
L 178.062762 352.228454 
L 179.125113 352.686159 
L 180.187464 352.381022 
L 181.249816 352.53359 
L 182.312167 352.075885 
L 183.374518 352.594618 
L 184.436869 352.19794 
L 185.499221 352.258967 
L 187.623923 351.313044 
L 188.686274 351.404585 
L 189.748626 351.679208 
L 190.810977 351.465612 
L 191.873328 351.679208 
L 192.935679 351.435099 
L 193.998031 351.953831 
L 195.060382 351.709722 
L 196.122733 351.709722 
L 197.185084 351.313044 
L 198.247436 351.252017 
L 199.309787 351.679208 
L 200.372138 351.587667 
L 201.43449 351.648694 
L 202.496841 351.587667 
L 203.559192 351.770749 
L 205.683895 351.587667 
L 206.746246 352.19794 
L 207.808597 352.564104 
L 208.870948 351.709722 
L 209.9333 352.258967 
L 212.058002 352.075885 
L 213.120353 350.916366 
L 214.182705 352.014858 
L 215.245056 352.594618 
L 217.369758 352.625131 
L 218.43211 352.381022 
L 219.494461 352.808213 
L 222.681515 352.655645 
L 223.743866 352.53359 
L 224.806217 352.991295 
L 225.868569 352.564104 
L 226.93092 352.869241 
L 227.993271 352.503077 
L 229.055622 352.869241 
L 231.180325 352.991295 
L 232.242676 352.7777 
L 233.305027 352.930268 
L 234.367379 352.930268 
L 235.42973 352.716672 
L 237.554432 352.991295 
L 238.616784 352.686159 
L 240.741486 352.899754 
L 241.803837 352.503077 
L 243.92854 352.564104 
L 244.990891 352.014858 
L 246.053243 352.899754 
L 247.115594 352.716672 
L 248.177945 352.808213 
L 249.240296 352.747186 
L 250.302648 351.953831 
L 251.364999 352.625131 
L 252.42735 352.899754 
L 253.489701 353.021809 
L 255.614404 352.930268 
L 256.676755 352.747186 
L 257.739106 353.021809 
L 259.863809 352.747186 
L 261.988511 352.960782 
L 263.050863 352.716672 
L 266.237916 353.082836 
L 273.674375 353.11335 
L 274.736727 352.930268 
L 275.799078 353.143864 
L 276.861429 352.960782 
L 277.92378 353.021809 
L 280.048483 352.930268 
L 281.110834 353.082836 
L 283.235537 352.716672 
L 284.297888 353.052323 
L 285.360239 353.052323 
L 286.42259 352.869241 
L 289.609644 353.11335 
L 291.734347 352.991295 
L 292.796698 353.11335 
L 293.859049 353.052323 
L 295.983752 353.143864 
L 297.046103 353.174377 
L 298.108454 353.082836 
L 299.170806 352.7777 
L 300.233157 353.052323 
L 301.295508 353.082836 
L 303.420211 352.655645 
L 304.482562 352.045372 
L 305.544913 352.472563 
L 306.607264 352.167426 
L 307.669616 352.899754 
L 308.731967 352.838727 
L 309.794318 352.411536 
L 310.856669 352.7777 
L 311.919021 352.442049 
L 312.981372 352.228454 
L 314.043723 352.411536 
L 315.106074 351.679208 
L 318.293128 351.190989 
L 319.35548 350.336607 
L 320.417831 351.740235 
L 321.480182 352.106399 
L 323.604885 351.496126 
L 324.667236 351.252017 
L 325.729587 352.442049 
L 326.791938 351.709722 
L 327.85429 351.831776 
L 328.916641 350.916366 
L 329.978992 350.641743 
L 331.041343 352.655645 
L 332.103695 352.106399 
L 333.166046 351.190989 
L 334.228397 352.106399 
L 335.290748 352.350508 
L 336.3531 352.716672 
L 337.415451 351.740235 
L 338.477802 351.343558 
L 339.540153 351.374071 
L 340.602505 351.709722 
L 341.664856 351.374071 
L 342.727207 352.167426 
L 344.85191 350.489175 
L 345.914261 351.587667 
L 348.038964 352.838727 
L 349.101315 351.86229 
L 350.163666 352.411536 
L 351.226017 350.672257 
L 352.288369 350.36712 
L 353.35072 351.892803 
L 354.413071 351.343558 
L 355.475422 352.228454 
L 356.537774 351.892803 
L 357.600125 350.824825 
L 358.662476 350.94688 
L 359.724827 351.435099 
L 360.787179 351.007907 
L 361.84953 351.618181 
L 362.911881 352.075885 
L 363.974233 351.648694 
L 365.036584 350.702771 
L 366.098935 351.709722 
L 367.161286 351.953831 
L 368.223638 351.953831 
L 369.285989 351.28253 
L 371.410691 352.381022 
L 373.535394 351.160476 
L 374.597745 350.94688 
L 375.660096 351.709722 
L 376.722448 351.28253 
L 377.784799 352.289481 
L 378.84715 352.075885 
L 379.909501 352.014858 
L 380.971853 352.716672 
L 383.096555 352.381022 
L 384.158906 353.021809 
L 385.221258 352.258967 
L 387.34596 352.655645 
L 388.408312 352.625131 
L 389.470663 352.350508 
L 390.533014 351.465612 
L 392.657717 351.648694 
L 393.720068 352.014858 
L 394.782419 351.740235 
L 395.84477 351.252017 
L 396.907122 351.557153 
L 397.969473 351.404585 
L 399.031824 351.496126 
L 400.094175 352.19794 
L 401.156527 352.289481 
L 402.218878 350.641743 
L 403.281229 351.679208 
L 404.34358 351.984344 
L 405.405932 352.106399 
L 406.468283 350.550202 
L 407.530634 351.709722 
L 408.592985 352.106399 
L 409.655337 351.190989 
L 410.717688 349.848388 
L 411.780039 351.953831 
L 412.842391 351.831776 
L 413.904742 351.984344 
L 414.967093 352.258967 
L 416.029444 351.587667 
L 418.154147 352.045372 
L 419.216498 351.404585 
L 420.278849 351.52664 
L 421.341201 352.350508 
L 422.403552 352.503077 
L 423.465903 351.679208 
L 424.528254 352.319995 
L 425.590606 352.045372 
L 426.652957 352.53359 
L 427.715308 352.014858 
L 428.777659 352.106399 
L 429.840011 351.709722 
L 430.902362 352.167426 
L 431.964713 351.007907 
L 433.027064 350.855339 
L 434.089416 351.679208 
L 435.151767 352.106399 
L 436.214118 351.252017 
L 437.27647 351.343558 
L 438.338821 351.618181 
L 439.401172 350.214552 
L 440.463523 350.885853 
L 441.525875 350.885853 
L 442.588226 350.763798 
L 443.650577 350.000956 
L 444.712928 351.099448 
L 445.77528 349.390683 
L 446.837631 350.855339 
L 447.899982 349.390683 
L 448.962333 350.885853 
L 450.024685 350.550202 
L 451.087036 350.519689 
L 452.149387 351.068935 
L 453.211738 351.068935 
L 454.27409 350.245066 
L 455.336441 350.641743 
L 456.398792 350.123011 
L 457.461144 349.45171 
L 458.523495 349.177087 
L 459.585846 350.03147 
L 460.648197 349.665306 
L 461.710549 348.841437 
L 462.7729 349.634792 
L 463.835251 346.552912 
L 464.897602 347.590377 
L 465.959954 348.963492 
L 467.022305 348.078595 
L 468.084656 346.186748 
L 469.147007 348.078595 
L 470.209359 350.550202 
L 471.27171 347.803972 
L 472.334061 347.28524 
L 473.396412 348.017568 
L 474.458764 347.102158 
L 475.521115 343.532059 
L 476.583466 346.339316 
L 477.645817 347.041131 
L 478.708169 343.593087 
L 479.77052 342.677677 
L 481.895223 341.335075 
L 482.957574 340.022988 
L 484.019925 338.314223 
L 485.082276 336.391862 
L 486.144628 337.764977 
L 487.206979 336.483403 
L 488.26933 340.816343 
L 489.331681 333.340495 
L 490.394033 344.264387 
L 491.456384 343.104868 
L 492.518735 342.525108 
L 493.581086 340.724802 
L 494.643438 337.002135 
L 495.705789 335.873129 
L 496.76814 333.828714 
L 497.830491 335.873129 
L 498.892843 329.190637 
L 499.955194 328.000604 
L 501.017545 332.852277 
L 502.079896 333.065872 
L 503.142248 325.406942 
L 504.204599 322.294549 
L 505.26695 325.528997 
L 506.329302 321.318111 
L 507.391653 325.925675 
L 508.454004 328.275227 
L 509.516355 327.390331 
L 510.578707 328.122659 
L 511.641058 328.153172 
L 512.703409 333.248954 
L 513.76576 335.476452 
L 514.828112 326.993653 
L 515.890463 327.237762 
L 516.952814 328.061631 
L 518.015165 326.078243 
L 520.139868 331.357107 
L 521.202219 324.583073 
L 522.26457 328.031118 
L 523.326922 325.010265 
L 524.389273 326.963139 
L 525.451624 324.583073 
L 526.513975 321.47068 
L 527.576327 327.603926 
L 528.638678 327.664954 
L 529.701029 331.845326 
L 530.763381 332.730222 
L 531.825732 326.474921 
L 532.888083 331.204539 
L 533.950434 334.316933 
L 536.075137 322.752254 
L 537.137488 325.284888 
L 538.199839 328.54985 
L 540.324542 330.289129 
L 541.386893 326.993653 
L 542.449244 326.535948 
L 543.511596 321.409652 
L 544.573947 329.617828 
L 545.636298 329.434746 
L 546.698649 329.922965 
L 547.761001 333.676146 
L 548.823352 325.284888 
L 549.885703 330.777347 
L 550.948054 329.007555 
L 552.010406 330.990943 
L 553.072757 332.150462 
L 554.135108 330.746834 
L 555.19746 328.366768 
L 556.259811 328.8855 
L 557.322162 331.265566 
L 558.384513 329.556801 
L 559.446865 330.71632 
L 560.509216 328.275227 
L 561.571567 327.787008 
L 562.633918 324.186396 
L 563.69627 325.132319 
L 564.758621 331.784298 
L 565.820972 322.416603 
L 566.883323 321.104516 
L 567.945675 322.264035 
L 569.008026 320.31116 
L 570.070377 321.775816 
L 571.132728 317.717499 
L 572.19508 320.646811 
L 573.257431 321.745303 
L 574.319782 323.850746 
L 575.382134 325.284888 
L 576.444485 322.14198 
L 577.506836 321.440166 
L 578.569187 323.911773 
L 579.631539 327.115708 
L 580.69389 320.829893 
L 581.756241 323.911773 
L 582.818592 322.538658 
L 583.880944 321.440166 
L 584.943295 321.867357 
L 586.005646 321.531707 
L 587.067997 320.829893 
L 588.130349 317.076712 
L 589.1927 322.477631 
L 590.255051 316.344384 
L 591.317402 315.306919 
L 592.379754 319.304209 
L 593.442105 317.015685 
L 594.504456 324.55256 
L 595.566807 320.128078 
L 596.629159 323.026877 
L 597.69151 318.114177 
L 598.753861 321.257084 
L 599.816213 325.254374 
L 600.878564 320.494242 
L 601.940915 324.735642 
L 603.003266 322.080953 
L 604.065618 322.355576 
L 605.127969 320.829893 
L 606.19032 317.717499 
L 607.252671 321.562221 
L 608.315023 320.55527 
L 609.377374 319.121127 
L 610.439725 320.494242 
L 611.502076 316.344384 
L 612.564428 316.985171 
L 613.626779 314.208427 
L 614.68913 310.973979 
L 615.751481 315.551029 
L 616.813833 320.921434 
L 617.876184 315.215378 
L 618.938535 312.31658 
L 620.000886 314.971269 
L 621.063238 316.649521 
L 622.125589 313.842263 
L 624.250292 317.931095 
L 625.312643 313.781236 
L 626.374994 318.72445 
L 627.437345 319.548319 
L 628.499697 317.503903 
L 629.562048 316.924144 
L 630.624399 320.250133 
L 631.68675 319.609346 
L 632.749102 320.921434 
L 633.811453 316.832603 
L 634.873804 321.043488 
L 635.936155 318.72445 
L 636.998507 318.541368 
L 638.060858 320.006024 
L 639.123209 317.015685 
L 640.18556 317.900581 
L 641.247912 317.748013 
L 642.310263 317.839554 
L 643.372614 313.872777 
L 644.434965 311.309629 
L 645.497317 308.31929 
L 646.559668 312.011444 
L 647.622019 306.274875 
L 648.684371 310.363706 
L 649.746722 309.906001 
L 650.809073 307.98364 
L 651.871424 308.258263 
L 652.933776 309.356755 
L 653.996127 305.542547 
L 655.058478 307.73953 
L 656.120829 290.468796 
L 657.183181 295.808688 
L 658.245532 277.988707 
L 659.307883 279.850041 
L 660.370234 270.84851 
L 661.432586 274.174499 
L 662.494937 259.19229 
L 663.557288 262.548793 
L 664.619639 263.098039 
L 665.681991 252.235174 
L 666.744342 247.139392 
L 667.806693 245.796791 
L 668.869045 259.344858 
L 669.931396 243.599807 
L 670.993747 241.372309 
L 672.056098 236.642691 
L 673.11845 157.215622 
L 674.180801 147.20714 
L 675.243152 141.928276 
L 676.305503 157.185108 
L 677.367855 181.901177 
L 678.430206 167.651295 
L 679.492557 155.476343 
L 680.554908 156.056103 
L 681.61726 168.200541 
L 683.741962 154.682988 
L 684.804313 168.35311 
L 685.866665 157.734354 
L 686.929016 116.846043 
L 687.991367 115.65601 
L 689.053718 117.242721 
L 690.11607 83.036903 
L 691.178421 103.450544 
L 692.240772 112.024884 
L 693.303124 68.69548 
L 694.365475 90.543264 
L 696.490177 82.365602 
L 697.552529 55.757686 
L 698.61488 70.038082 
L 699.677231 59.358299 
L 700.739582 67.474934 
L 701.801934 96.890107 
L 702.864285 82.029952 
L 703.926636 81.816356 
L 704.988987 65.522059 
L 706.051339 110.590742 
L 707.11369 80.504269 
L 708.176041 90.604292 
L 709.238392 103.145408 
L 710.300744 99.544795 
L 711.363095 84.165908 
L 712.425446 89.658368 
L 713.487797 73.394585 
L 714.550149 54.994845 
L 715.6125 88.742958 
L 716.674851 79.405777 
L 717.737203 55.238954 
L 718.799554 55.971282 
L 719.861905 61.829906 
L 720.924256 68.787021 
L 721.986608 50.8755 
L 723.048959 89.627854 
L 724.11131 93.533603 
L 726.236013 144.155773 
L 727.298364 161.640103 
L 728.360715 167.803864 
L 730.485418 151.509567 
L 731.547769 163.745546 
L 732.61012 141.806221 
L 733.672471 113.520054 
L 734.734823 71.807874 
L 735.797174 132.560581 
L 737.921876 99.392227 
L 738.984228 116.785016 
L 740.046579 97.042675 
L 741.10893 107.997081 
L 742.171282 108.027594 
L 743.233633 98.629385 
L 744.295984 123.833673 
L 745.358335 126.244252 
L 746.420687 120.416142 
L 747.483038 100.185582 
L 748.545389 93.289494 
L 749.60774 95.822128 
L 750.670092 92.465625 
L 751.732443 100.24661 
L 752.794794 134.97116 
L 753.857145 141.562112 
L 754.919497 118.371727 
L 755.981848 123.925214 
L 757.044199 149.556692 
L 758.10655 150.807752 
L 759.168902 169.817765 
L 760.231253 181.779122 
L 761.293604 200.514512 
L 762.355955 199.110884 
L 763.418307 204.481289 
L 764.480658 228.159893 
L 765.543009 222.820001 
L 766.605361 206.922382 
L 767.667712 243.447239 
L 768.730063 236.2155 
L 769.792414 249.549972 
L 770.854766 248.146343 
L 771.917117 243.203129 
L 772.979468 263.311635 
L 775.104171 281.34521 
L 776.166522 281.040074 
L 777.228873 287.936162 
L 778.291224 293.794786 
L 779.353576 286.135856 
L 780.415927 296.907179 
L 781.478278 299.226218 
L 782.540629 305.878197 
L 783.602981 309.387268 
L 784.665332 308.136208 
L 786.790035 312.926854 
L 787.852386 316.252843 
L 788.914737 323.423554 
L 789.977088 325.345915 
L 791.03944 325.712079 
L 792.101791 326.749544 
L 793.164142 331.448648 
L 794.226493 332.54714 
L 795.288845 333.859228 
L 796.351196 336.422375 
L 797.413547 335.873129 
L 798.475898 335.110288 
L 799.53825 334.683097 
L 800.600601 336.391862 
L 801.662952 338.436277 
L 802.725303 338.802441 
L 803.787655 338.924496 
L 804.850006 340.572234 
L 805.912357 340.87737 
L 806.974708 342.128431 
L 808.03706 344.233874 
L 809.099411 342.555622 
L 810.161762 343.226923 
L 811.224114 345.759557 
L 812.286465 345.668016 
L 813.348816 343.532059 
L 814.411167 343.532059 
L 815.473519 344.416956 
L 816.53587 343.104868 
L 817.598221 345.851098 
L 818.660572 346.03418 
L 819.722924 347.62089 
L 820.785275 345.851098 
L 821.847626 347.498836 
L 822.909977 347.590377 
L 823.972329 348.505787 
L 825.03468 349.207601 
L 828.221734 348.597328 
L 829.284085 349.69582 
L 830.346436 349.817874 
L 831.408787 350.489175 
L 832.471139 350.000956 
L 833.53349 350.885853 
L 835.658193 350.702771 
L 836.720544 351.190989 
L 837.782895 350.94688 
L 838.845246 351.28253 
L 839.907598 351.190989 
L 840.969949 351.404585 
L 842.0323 351.28253 
L 843.094651 350.977394 
L 845.219354 350.824825 
L 846.281705 351.28253 
L 847.344056 350.763798 
L 848.406408 351.313044 
L 849.468759 350.733284 
L 850.53111 350.458661 
L 851.593461 350.855339 
L 852.655813 349.360169 
L 853.718164 349.45171 
L 854.780515 349.268628 
L 855.842866 348.749896 
L 859.02992 339.961961 
L 860.092272 338.863469 
L 861.154623 338.863469 
L 862.216974 336.20878 
L 863.279325 332.638681 
L 864.341677 323.667664 
L 865.404028 309.57035 
L 866.466379 293.794786 
L 867.52873 286.83767 
L 868.591082 270.085668 
L 869.653433 276.310456 
L 870.715784 271.245187 
L 871.778135 268.10228 
L 872.840487 249.824595 
L 873.902838 251.380792 
L 874.965189 246.193469 
L 876.02754 244.484703 
L 877.089892 252.296202 
L 878.152243 257.056333 
L 879.214594 262.640334 
L 880.276946 255.683218 
L 881.339297 249.672026 
L 882.401648 249.397403 
L 883.463999 246.132441 
L 884.526351 252.265688 
L 885.588702 268.834608 
L 886.651053 262.030061 
L 887.713404 267.308925 
L 888.775756 267.76663 
L 889.838107 259.833077 
L 890.900458 266.85122 
L 891.962809 288.515922 
L 893.025161 304.047377 
L 894.087512 308.624427 
L 895.149863 306.000252 
L 896.212214 309.417782 
L 897.274566 311.06552 
L 898.336917 312.286067 
L 899.399268 312.011444 
L 900.461619 322.111467 
L 901.523971 325.132319 
L 902.586322 324.155882 
L 903.648673 318.114177 
L 904.711025 326.078243 
L 905.773376 325.773106 
L 906.835727 329.007555 
L 907.898078 333.950769 
L 908.96043 335.049261 
L 910.022781 330.807861 
L 911.085132 333.432036 
L 912.147483 333.981282 
L 913.209835 334.011796 
L 914.272186 336.025698 
L 915.334537 338.924496 
L 916.396888 337.520867 
L 917.45924 335.018747 
L 918.521591 334.072823 
L 919.583942 334.591556 
L 920.646293 333.950769 
L 921.708645 338.680387 
L 922.770996 341.090966 
L 923.833347 338.771928 
L 924.895698 334.988233 
L 925.95805 333.706659 
L 927.020401 337.612408 
L 928.082752 338.466791 
L 929.145104 336.452889 
L 930.207455 339.534769 
L 931.269806 337.368299 
L 932.332157 336.056211 
L 934.45686 334.469501 
L 935.519211 336.20878 
L 936.581562 334.255905 
L 937.643914 336.056211 
L 938.706265 336.117239 
L 939.768616 335.29337 
L 940.830967 330.533238 
L 941.893319 327.756495 
L 942.95567 329.190637 
L 944.018021 330.929916 
L 945.080372 332.455599 
L 946.142724 328.427795 
L 947.205075 326.413893 
L 948.267426 327.664954 
L 949.329777 323.9728 
L 950.392129 328.092145 
L 951.45448 327.725981 
L 952.516831 334.225392 
L 953.579183 328.336254 
L 954.641534 327.756495 
L 955.703885 329.434746 
L 956.766236 329.099096 
L 957.828588 331.96738 
L 958.890939 334.286419 
L 959.95329 337.612408 
L 961.015641 332.54714 
L 962.077993 333.218441 
L 963.140344 334.286419 
L 964.202695 334.591556 
L 965.265046 334.774638 
L 966.327398 338.0396 
L 967.389749 342.738704 
L 968.4521 339.778879 
L 969.514451 339.473742 
L 970.576803 338.558332 
L 971.639154 340.907884 
L 972.701505 344.264387 
L 973.763856 342.891272 
L 974.826208 345.881612 
L 975.888559 344.111819 
L 976.95091 343.135382 
L 978.013262 344.569524 
L 979.075613 345.057743 
L 980.137964 345.69853 
L 981.200315 345.942639 
L 982.262667 347.193699 
L 983.325018 347.346267 
L 984.387369 346.94959 
L 985.44972 347.346267 
L 987.574423 347.376781 
L 988.636774 348.444759 
L 989.699125 349.848388 
L 990.761477 350.336607 
L 992.886179 348.688869 
L 993.94853 349.421197 
L 995.010882 350.000956 
L 997.135584 351.557153 
L 998.197936 350.245066 
L 999.260287 349.817874 
L 1000.322638 350.824825 
L 1001.384989 350.03147 
L 1002.447341 350.336607 
L 1003.509692 350.977394 
L 1004.572043 351.770749 
L 1005.634394 351.28253 
L 1007.759097 351.313044 
L 1008.821448 351.831776 
L 1009.883799 351.831776 
L 1012.008502 352.228454 
L 1013.070853 351.831776 
L 1016.257907 351.770749 
L 1017.320258 352.228454 
L 1018.382609 352.19794 
L 1019.444961 352.289481 
L 1020.507312 351.923317 
L 1021.569663 352.289481 
L 1022.632015 352.258967 
L 1024.756717 352.625131 
L 1026.88142 352.7777 
L 1027.943771 352.350508 
L 1030.068473 352.228454 
L 1031.130825 352.716672 
L 1032.193176 352.564104 
L 1033.255527 352.594618 
L 1034.317878 352.808213 
L 1035.38023 352.53359 
L 1036.442581 352.655645 
L 1037.504932 352.381022 
L 1038.567283 352.503077 
L 1040.691986 352.411536 
L 1041.754337 352.655645 
L 1044.941391 352.289481 
L 1046.003742 352.53359 
L 1047.066094 352.319995 
L 1048.128445 352.381022 
L 1049.190796 352.319995 
L 1050.253147 352.838727 
L 1051.315499 352.136913 
L 1052.37785 352.503077 
L 1053.440201 351.892803 
L 1054.502552 352.045372 
L 1055.564904 351.86229 
L 1056.627255 352.075885 
L 1057.689606 352.045372 
L 1058.751957 351.86229 
L 1059.814309 351.831776 
L 1060.87666 352.014858 
L 1061.939011 351.435099 
L 1063.001362 352.045372 
L 1064.063714 352.228454 
L 1065.126065 351.252017 
L 1066.188416 351.679208 
L 1067.250767 351.221503 
L 1068.313119 351.221503 
L 1069.37547 351.099448 
L 1070.437821 350.702771 
L 1071.500173 351.618181 
L 1073.624875 350.275579 
L 1074.687226 350.214552 
L 1075.749578 349.69582 
L 1076.811929 350.245066 
L 1077.87428 350.03147 
L 1082.123685 350.489175 
L 1084.248388 349.848388 
L 1085.310739 349.909415 
L 1086.37309 351.343558 
L 1087.435441 350.123011 
L 1088.497793 349.177087 
L 1089.560144 349.238115 
L 1090.622495 350.580716 
L 1091.684847 349.482224 
L 1092.747198 351.099448 
L 1093.809549 350.519689 
L 1094.8719 350.275579 
L 1095.934252 349.634792 
L 1096.996603 351.160476 
L 1098.058954 350.092497 
L 1099.121305 350.94688 
L 1100.183657 350.519689 
L 1101.246008 351.435099 
L 1102.308359 350.977394 
L 1103.37071 350.03147 
L 1104.433062 350.580716 
L 1105.495413 350.916366 
L 1106.557764 350.702771 
L 1107.620115 351.28253 
L 1108.682467 351.709722 
L 1109.744818 351.435099 
L 1112.931872 351.343558 
L 1113.994223 351.038421 
L 1115.056574 351.435099 
L 1116.118926 352.167426 
L 1117.181277 351.892803 
L 1118.243628 351.740235 
L 1119.305979 351.801262 
L 1120.368331 352.045372 
L 1121.430682 351.801262 
L 1123.555384 352.655645 
L 1124.617736 352.228454 
L 1125.680087 352.625131 
L 1126.742438 352.19794 
L 1127.804789 352.625131 
L 1128.867141 352.075885 
L 1130.991843 352.899754 
L 1132.054194 352.53359 
L 1133.116546 352.472563 
L 1134.178897 352.594618 
L 1136.303599 352.564104 
L 1137.365951 352.747186 
L 1138.428302 352.503077 
L 1139.490653 352.7777 
L 1140.553005 352.686159 
L 1141.615356 352.7777 
L 1142.677707 352.594618 
L 1144.80241 352.716672 
L 1145.864761 353.082836 
L 1147.989463 352.899754 
L 1151.176517 352.991295 
L 1152.238868 352.991295 
L 1153.30122 353.143864 
L 1154.363571 352.838727 
L 1155.425922 352.991295 
L 1160.737678 353.174377 
L 1161.80003 353.052323 
L 1162.862381 353.174377 
L 1163.924732 352.991295 
L 1164.987084 353.082836 
L 1166.049435 352.960782 
L 1168.174137 353.174377 
L 1169.236489 353.082836 
L 1173.485894 353.174377 
L 1174.548245 352.991295 
L 1175.610596 353.143864 
L 1176.672947 353.082836 
L 1178.79765 353.143864 
L 1181.984704 353.143864 
L 1191.545865 353.082836 
L 1192.608216 352.930268 
L 1193.670568 353.174377 
L 1194.732919 352.991295 
L 1195.79527 353.052323 
L 1196.857621 352.960782 
L 1197.919973 353.11335 
L 1203.231729 353.143864 
L 1204.29408 352.960782 
L 1205.356431 353.174377 
L 1206.418783 352.899754 
L 1208.543485 353.082836 
L 1210.668188 352.960782 
L 1211.730539 353.052323 
L 1214.917593 352.991295 
L 1215.979944 352.747186 
L 1217.042295 352.899754 
L 1218.104647 352.7777 
L 1219.166998 352.7777 
L 1220.229349 353.021809 
L 1221.2917 352.747186 
L 1222.354052 352.625131 
L 1223.416403 352.136913 
L 1224.478754 352.808213 
L 1225.541105 352.594618 
L 1226.603457 352.716672 
L 1227.665808 353.021809 
L 1228.728159 352.7777 
L 1229.79051 352.808213 
L 1230.852862 352.228454 
L 1231.915213 352.503077 
L 1234.039916 352.350508 
L 1235.102267 352.686159 
L 1237.226969 352.411536 
L 1239.351672 352.014858 
L 1240.414023 352.289481 
L 1241.476374 352.228454 
L 1242.538726 352.838727 
L 1243.601077 352.564104 
L 1245.725779 352.258967 
L 1246.788131 352.53359 
L 1247.850482 352.411536 
L 1248.912833 352.564104 
L 1249.975184 352.869241 
L 1251.037536 352.594618 
L 1252.099887 352.53359 
L 1253.162238 352.625131 
L 1254.224589 352.319995 
L 1255.286941 352.594618 
L 1256.349292 352.442049 
L 1258.473995 352.686159 
L 1259.536346 352.655645 
L 1260.598697 352.503077 
L 1261.661048 352.838727 
L 1262.7234 352.655645 
L 1264.848102 352.991295 
L 1266.972805 352.930268 
L 1268.035156 352.625131 
L 1270.159858 352.899754 
L 1271.22221 352.808213 
L 1272.284561 352.960782 
L 1273.346912 352.808213 
L 1275.471615 352.838727 
L 1278.658668 352.960782 
L 1279.72102 352.899754 
L 1280.783371 353.021809 
L 1281.845722 352.747186 
L 1282.908074 352.7777 
L 1283.970425 353.082836 
L 1285.032776 352.838727 
L 1286.095127 353.021809 
L 1288.21983 352.960782 
L 1289.282181 353.143864 
L 1290.344532 353.174377 
L 1292.469235 352.899754 
L 1294.593937 353.11335 
L 1295.656289 352.960782 
L 1296.71864 353.082836 
L 1297.780991 352.991295 
L 1298.843342 353.11335 
L 1300.968045 353.021809 
L 1302.030396 353.174377 
L 1303.092748 352.930268 
L 1305.21745 353.021809 
L 1308.404504 352.869241 
L 1309.466855 353.021809 
L 1309.466855 353.021809 
" clip-path="url(#pb4e667dddb)" style="fill: none; stroke: #0000ff; stroke-width: 1.5; stroke-linecap: square"/>
   </g>
   <g id="line2d_19">
    <path d="M 1069.37547 351.280545 
L 1070.437821 351.178265 
L 1071.500173 350.914184 
L 1072.562524 351.334646 
L 1073.624875 350.78397 
L 1074.687226 350.442229 
L 1075.749578 350.221255 
L 1076.811929 349.623868 
L 1077.87428 350.19289 
L 1078.936631 350.171122 
L 1079.998983 349.998163 
L 1081.061334 350.047446 
L 1083.186036 350.453513 
L 1084.248388 350.350649 
L 1085.310739 349.971997 
L 1086.37309 350.076833 
L 1087.435441 350.920855 
L 1088.497793 350.131142 
L 1089.560144 349.558454 
L 1090.622495 349.11666 
L 1091.684847 350.157826 
L 1092.747198 349.531144 
L 1093.809549 351.465213 
L 1094.8719 350.216083 
L 1095.934252 350.378001 
L 1096.996603 349.659079 
L 1098.058954 351.009969 
L 1099.121305 349.976623 
L 1100.183657 351.275218 
L 1101.246008 350.621554 
L 1102.308359 351.232055 
L 1104.433062 350.393075 
L 1107.620115 350.822188 
L 1108.682467 351.535728 
L 1110.807169 351.270115 
L 1111.86952 351.596585 
L 1112.931872 351.398578 
L 1113.994223 351.359677 
L 1115.056574 351.191581 
L 1116.118926 351.608335 
L 1117.181277 351.837728 
L 1118.243628 351.719392 
L 1119.305979 351.98134 
L 1120.368331 351.831475 
L 1121.430682 351.966681 
L 1122.493033 351.947246 
L 1123.555384 352.527811 
L 1124.617736 352.425798 
L 1125.680087 352.144334 
L 1126.742438 352.715971 
L 1127.804789 352.236179 
L 1128.867141 352.611897 
L 1129.929492 352.227583 
L 1130.991843 352.693349 
L 1134.178897 352.574419 
L 1135.241248 352.630125 
L 1136.303599 352.433247 
L 1138.428302 352.940128 
L 1139.490653 352.403687 
L 1140.553005 352.681909 
L 1141.615356 352.633686 
L 1142.677707 352.8616 
L 1143.740058 352.572014 
L 1144.80241 352.770648 
L 1150.114166 352.991793 
L 1151.176517 352.874996 
L 1152.238868 353.097691 
L 1153.30122 353.143912 
L 1154.363571 353.073295 
L 1155.425922 352.797489 
L 1156.488273 353.00561 
L 1158.612976 353.033923 
L 1160.737678 353.2755 
L 1161.80003 353.09297 
L 1162.862381 353.03336 
L 1163.924732 353.171382 
L 1164.987084 353.013192 
L 1166.049435 353.077844 
L 1167.111786 353.023003 
L 1168.174137 353.211261 
L 1169.236489 353.074119 
L 1173.485894 353.11702 
L 1174.548245 353.250506 
L 1176.672947 353.077353 
L 1177.735299 353.032185 
L 1179.860001 353.162272 
L 1181.984704 353.129964 
L 1183.047055 353.215626 
L 1184.109406 353.081894 
L 1185.171757 353.144283 
L 1186.234109 353.082418 
L 1188.358811 353.114222 
L 1192.608216 353.078132 
L 1193.670568 352.951998 
L 1194.732919 353.154353 
L 1195.79527 352.955874 
L 1196.857621 353.115166 
L 1197.919973 353.006233 
L 1201.107026 353.178058 
L 1203.231729 353.112083 
L 1204.29408 353.147336 
L 1205.356431 353.038062 
L 1206.418783 353.13701 
L 1207.481134 352.882318 
L 1208.543485 353.026187 
L 1215.979944 353.002409 
L 1217.042295 352.754103 
L 1218.104647 352.885925 
L 1219.166998 352.747901 
L 1221.2917 352.935673 
L 1223.416403 352.683629 
L 1224.478754 352.189543 
L 1225.541105 352.681413 
L 1226.603457 352.500909 
L 1227.665808 352.851939 
L 1228.728159 352.925784 
L 1229.79051 352.789889 
L 1230.852862 352.808193 
L 1231.915213 352.357662 
L 1232.977564 352.457414 
L 1234.039916 352.389799 
L 1237.226969 352.558135 
L 1238.289321 352.371565 
L 1239.351672 352.32107 
L 1240.414023 351.99271 
L 1241.476374 352.2287 
L 1242.538726 352.262833 
L 1243.601077 352.736068 
L 1245.725779 352.450905 
L 1246.788131 352.320578 
L 1247.850482 352.47784 
L 1248.912833 352.389893 
L 1249.975184 352.717312 
L 1251.037536 352.750205 
L 1253.162238 352.491737 
L 1254.224589 352.642643 
L 1255.286941 352.332886 
L 1256.349292 352.614056 
L 1258.473995 352.507382 
L 1259.536346 352.620114 
L 1261.661048 352.568562 
L 1262.7234 352.832974 
L 1263.785751 352.645219 
L 1264.848102 352.988256 
L 1265.910453 352.90558 
L 1266.972805 352.975625 
L 1270.159858 352.795948 
L 1273.346912 352.940229 
L 1275.471615 352.703112 
L 1276.533966 352.859732 
L 1281.845722 352.989777 
L 1282.908074 352.691607 
L 1285.032776 353.019894 
L 1286.095127 352.862735 
L 1287.157479 353.128066 
L 1288.21983 352.970193 
L 1289.282181 352.93718 
L 1291.406884 353.211898 
L 1293.531586 352.974177 
L 1308.404504 353.049324 
L 1309.466855 352.940977 
L 1309.466855 352.940977 
" clip-path="url(#pb4e667dddb)" style="fill: none; stroke: #ffa500; stroke-width: 1.5; stroke-linecap: square"/>
   </g>
   <g id="line2d_20">
    <path d="M 1310.529206 352.970174 
L 1311.591558 352.946387 
L 1312.653909 352.934146 
L 1313.71626 352.969912 
L 1314.778611 352.943446 
L 1315.840963 352.941488 
L 1316.903314 353.00502 
L 1317.965665 352.958044 
L 1319.028016 352.959911 
L 1320.090368 352.942964 
L 1321.152719 352.969009 
L 1322.21507 352.950656 
L 1323.277421 352.948981 
L 1324.339773 353.002966 
" clip-path="url(#pb4e667dddb)" style="fill: none; stroke: #ff0000; stroke-width: 1.5; stroke-linecap: square"/>
   </g>
   <g id="patch_3">
    <path d="M 46.0125 368.3955 
L 46.0125 35.7555 
" style="fill: none; stroke: #000000; stroke-width: 0.8; stroke-linejoin: miter; stroke-linecap: square"/>
   </g>
   <g id="patch_4">
    <path d="M 1385.2125 368.3955 
L 1385.2125 35.7555 
" style="fill: none; stroke: #000000; stroke-width: 0.8; stroke-linejoin: miter; stroke-linecap: square"/>
   </g>
   <g id="patch_5">
    <path d="M 46.0125 368.3955 
L 1385.2125 368.3955 
" style="fill: none; stroke: #000000; stroke-width: 0.8; stroke-linejoin: miter; stroke-linecap: square"/>
   </g>
   <g id="patch_6">
    <path d="M 46.0125 35.7555 
L 1385.2125 35.7555 
" style="fill: none; stroke: #000000; stroke-width: 0.8; stroke-linejoin: miter; stroke-linecap: square"/>
   </g>
   <g id="text_18">
    <!-- Daily Confirmed Cases Forecasting - Cuba -->
    <g transform="translate(589.634063 16.318125)scale(0.12 -0.12)">
     <defs>
      <path id="DejaVuSans-44" d="M 1259 4147 
L 1259 519 
L 2022 519 
Q 2988 519 3436 956 
Q 3884 1394 3884 2338 
Q 3884 3275 3436 3711 
Q 2988 4147 2022 4147 
L 1259 4147 
z
M 628 4666 
L 1925 4666 
Q 3281 4666 3915 4102 
Q 4550 3538 4550 2338 
Q 4550 1131 3912 565 
Q 3275 0 1925 0 
L 628 0 
L 628 4666 
z
" transform="scale(0.015625)"/>
      <path id="DejaVuSans-61" d="M 2194 1759 
Q 1497 1759 1228 1600 
Q 959 1441 959 1056 
Q 959 750 1161 570 
Q 1363 391 1709 391 
Q 2188 391 2477 730 
Q 2766 1069 2766 1631 
L 2766 1759 
L 2194 1759 
z
M 3341 1997 
L 3341 0 
L 2766 0 
L 2766 531 
Q 2569 213 2275 61 
Q 1981 -91 1556 -91 
Q 1019 -91 701 211 
Q 384 513 384 1019 
Q 384 1609 779 1909 
Q 1175 2209 1959 2209 
L 2766 2209 
L 2766 2266 
Q 2766 2663 2505 2880 
Q 2244 3097 1772 3097 
Q 1472 3097 1187 3025 
Q 903 2953 641 2809 
L 641 3341 
Q 956 3463 1253 3523 
Q 1550 3584 1831 3584 
Q 2591 3584 2966 3190 
Q 3341 2797 3341 1997 
z
" transform="scale(0.015625)"/>
      <path id="DejaVuSans-69" d="M 603 3500 
L 1178 3500 
L 1178 0 
L 603 0 
L 603 3500 
z
M 603 4863 
L 1178 4863 
L 1178 4134 
L 603 4134 
L 603 4863 
z
" transform="scale(0.015625)"/>
      <path id="DejaVuSans-6c" d="M 603 4863 
L 1178 4863 
L 1178 0 
L 603 0 
L 603 4863 
z
" transform="scale(0.015625)"/>
      <path id="DejaVuSans-79" d="M 2059 -325 
Q 1816 -950 1584 -1140 
Q 1353 -1331 966 -1331 
L 506 -1331 
L 506 -850 
L 844 -850 
Q 1081 -850 1212 -737 
Q 1344 -625 1503 -206 
L 1606 56 
L 191 3500 
L 800 3500 
L 1894 763 
L 2988 3500 
L 3597 3500 
L 2059 -325 
z
" transform="scale(0.015625)"/>
      <path id="DejaVuSans-20" transform="scale(0.015625)"/>
      <path id="DejaVuSans-43" d="M 4122 4306 
L 4122 3641 
Q 3803 3938 3442 4084 
Q 3081 4231 2675 4231 
Q 1875 4231 1450 3742 
Q 1025 3253 1025 2328 
Q 1025 1406 1450 917 
Q 1875 428 2675 428 
Q 3081 428 3442 575 
Q 3803 722 4122 1019 
L 4122 359 
Q 3791 134 3420 21 
Q 3050 -91 2638 -91 
Q 1578 -91 968 557 
Q 359 1206 359 2328 
Q 359 3453 968 4101 
Q 1578 4750 2638 4750 
Q 3056 4750 3426 4639 
Q 3797 4528 4122 4306 
z
" transform="scale(0.015625)"/>
      <path id="DejaVuSans-6f" d="M 1959 3097 
Q 1497 3097 1228 2736 
Q 959 2375 959 1747 
Q 959 1119 1226 758 
Q 1494 397 1959 397 
Q 2419 397 2687 759 
Q 2956 1122 2956 1747 
Q 2956 2369 2687 2733 
Q 2419 3097 1959 3097 
z
M 1959 3584 
Q 2709 3584 3137 3096 
Q 3566 2609 3566 1747 
Q 3566 888 3137 398 
Q 2709 -91 1959 -91 
Q 1206 -91 779 398 
Q 353 888 353 1747 
Q 353 2609 779 3096 
Q 1206 3584 1959 3584 
z
" transform="scale(0.015625)"/>
      <path id="DejaVuSans-6e" d="M 3513 2113 
L 3513 0 
L 2938 0 
L 2938 2094 
Q 2938 2591 2744 2837 
Q 2550 3084 2163 3084 
Q 1697 3084 1428 2787 
Q 1159 2491 1159 1978 
L 1159 0 
L 581 0 
L 581 3500 
L 1159 3500 
L 1159 2956 
Q 1366 3272 1645 3428 
Q 1925 3584 2291 3584 
Q 2894 3584 3203 3211 
Q 3513 2838 3513 2113 
z
" transform="scale(0.015625)"/>
      <path id="DejaVuSans-66" d="M 2375 4863 
L 2375 4384 
L 1825 4384 
Q 1516 4384 1395 4259 
Q 1275 4134 1275 3809 
L 1275 3500 
L 2222 3500 
L 2222 3053 
L 1275 3053 
L 1275 0 
L 697 0 
L 697 3053 
L 147 3053 
L 147 3500 
L 697 3500 
L 697 3744 
Q 697 4328 969 4595 
Q 1241 4863 1831 4863 
L 2375 4863 
z
" transform="scale(0.015625)"/>
      <path id="DejaVuSans-72" d="M 2631 2963 
Q 2534 3019 2420 3045 
Q 2306 3072 2169 3072 
Q 1681 3072 1420 2755 
Q 1159 2438 1159 1844 
L 1159 0 
L 581 0 
L 581 3500 
L 1159 3500 
L 1159 2956 
Q 1341 3275 1631 3429 
Q 1922 3584 2338 3584 
Q 2397 3584 2469 3576 
Q 2541 3569 2628 3553 
L 2631 2963 
z
" transform="scale(0.015625)"/>
      <path id="DejaVuSans-6d" d="M 3328 2828 
Q 3544 3216 3844 3400 
Q 4144 3584 4550 3584 
Q 5097 3584 5394 3201 
Q 5691 2819 5691 2113 
L 5691 0 
L 5113 0 
L 5113 2094 
Q 5113 2597 4934 2840 
Q 4756 3084 4391 3084 
Q 3944 3084 3684 2787 
Q 3425 2491 3425 1978 
L 3425 0 
L 2847 0 
L 2847 2094 
Q 2847 2600 2669 2842 
Q 2491 3084 2119 3084 
Q 1678 3084 1418 2786 
Q 1159 2488 1159 1978 
L 1159 0 
L 581 0 
L 581 3500 
L 1159 3500 
L 1159 2956 
Q 1356 3278 1631 3431 
Q 1906 3584 2284 3584 
Q 2666 3584 2933 3390 
Q 3200 3197 3328 2828 
z
" transform="scale(0.015625)"/>
      <path id="DejaVuSans-65" d="M 3597 1894 
L 3597 1613 
L 953 1613 
Q 991 1019 1311 708 
Q 1631 397 2203 397 
Q 2534 397 2845 478 
Q 3156 559 3463 722 
L 3463 178 
Q 3153 47 2828 -22 
Q 2503 -91 2169 -91 
Q 1331 -91 842 396 
Q 353 884 353 1716 
Q 353 2575 817 3079 
Q 1281 3584 2069 3584 
Q 2775 3584 3186 3129 
Q 3597 2675 3597 1894 
z
M 3022 2063 
Q 3016 2534 2758 2815 
Q 2500 3097 2075 3097 
Q 1594 3097 1305 2825 
Q 1016 2553 972 2059 
L 3022 2063 
z
" transform="scale(0.015625)"/>
      <path id="DejaVuSans-64" d="M 2906 2969 
L 2906 4863 
L 3481 4863 
L 3481 0 
L 2906 0 
L 2906 525 
Q 2725 213 2448 61 
Q 2172 -91 1784 -91 
Q 1150 -91 751 415 
Q 353 922 353 1747 
Q 353 2572 751 3078 
Q 1150 3584 1784 3584 
Q 2172 3584 2448 3432 
Q 2725 3281 2906 2969 
z
M 947 1747 
Q 947 1113 1208 752 
Q 1469 391 1925 391 
Q 2381 391 2643 752 
Q 2906 1113 2906 1747 
Q 2906 2381 2643 2742 
Q 2381 3103 1925 3103 
Q 1469 3103 1208 2742 
Q 947 2381 947 1747 
z
" transform="scale(0.015625)"/>
      <path id="DejaVuSans-73" d="M 2834 3397 
L 2834 2853 
Q 2591 2978 2328 3040 
Q 2066 3103 1784 3103 
Q 1356 3103 1142 2972 
Q 928 2841 928 2578 
Q 928 2378 1081 2264 
Q 1234 2150 1697 2047 
L 1894 2003 
Q 2506 1872 2764 1633 
Q 3022 1394 3022 966 
Q 3022 478 2636 193 
Q 2250 -91 1575 -91 
Q 1294 -91 989 -36 
Q 684 19 347 128 
L 347 722 
Q 666 556 975 473 
Q 1284 391 1588 391 
Q 1994 391 2212 530 
Q 2431 669 2431 922 
Q 2431 1156 2273 1281 
Q 2116 1406 1581 1522 
L 1381 1569 
Q 847 1681 609 1914 
Q 372 2147 372 2553 
Q 372 3047 722 3315 
Q 1072 3584 1716 3584 
Q 2034 3584 2315 3537 
Q 2597 3491 2834 3397 
z
" transform="scale(0.015625)"/>
      <path id="DejaVuSans-46" d="M 628 4666 
L 3309 4666 
L 3309 4134 
L 1259 4134 
L 1259 2759 
L 3109 2759 
L 3109 2228 
L 1259 2228 
L 1259 0 
L 628 0 
L 628 4666 
z
" transform="scale(0.015625)"/>
      <path id="DejaVuSans-63" d="M 3122 3366 
L 3122 2828 
Q 2878 2963 2633 3030 
Q 2388 3097 2138 3097 
Q 1578 3097 1268 2742 
Q 959 2388 959 1747 
Q 959 1106 1268 751 
Q 1578 397 2138 397 
Q 2388 397 2633 464 
Q 2878 531 3122 666 
L 3122 134 
Q 2881 22 2623 -34 
Q 2366 -91 2075 -91 
Q 1284 -91 818 406 
Q 353 903 353 1747 
Q 353 2603 823 3093 
Q 1294 3584 2113 3584 
Q 2378 3584 2631 3529 
Q 2884 3475 3122 3366 
z
" transform="scale(0.015625)"/>
      <path id="DejaVuSans-74" d="M 1172 4494 
L 1172 3500 
L 2356 3500 
L 2356 3053 
L 1172 3053 
L 1172 1153 
Q 1172 725 1289 603 
Q 1406 481 1766 481 
L 2356 481 
L 2356 0 
L 1766 0 
Q 1100 0 847 248 
Q 594 497 594 1153 
L 594 3053 
L 172 3053 
L 172 3500 
L 594 3500 
L 594 4494 
L 1172 4494 
z
" transform="scale(0.015625)"/>
      <path id="DejaVuSans-67" d="M 2906 1791 
Q 2906 2416 2648 2759 
Q 2391 3103 1925 3103 
Q 1463 3103 1205 2759 
Q 947 2416 947 1791 
Q 947 1169 1205 825 
Q 1463 481 1925 481 
Q 2391 481 2648 825 
Q 2906 1169 2906 1791 
z
M 3481 434 
Q 3481 -459 3084 -895 
Q 2688 -1331 1869 -1331 
Q 1566 -1331 1297 -1286 
Q 1028 -1241 775 -1147 
L 775 -588 
Q 1028 -725 1275 -790 
Q 1522 -856 1778 -856 
Q 2344 -856 2625 -561 
Q 2906 -266 2906 331 
L 2906 616 
Q 2728 306 2450 153 
Q 2172 0 1784 0 
Q 1141 0 747 490 
Q 353 981 353 1791 
Q 353 2603 747 3093 
Q 1141 3584 1784 3584 
Q 2172 3584 2450 3431 
Q 2728 3278 2906 2969 
L 2906 3500 
L 3481 3500 
L 3481 434 
z
" transform="scale(0.015625)"/>
      <path id="DejaVuSans-75" d="M 544 1381 
L 544 3500 
L 1119 3500 
L 1119 1403 
Q 1119 906 1312 657 
Q 1506 409 1894 409 
Q 2359 409 2629 706 
Q 2900 1003 2900 1516 
L 2900 3500 
L 3475 3500 
L 3475 0 
L 2900 0 
L 2900 538 
Q 2691 219 2414 64 
Q 2138 -91 1772 -91 
Q 1169 -91 856 284 
Q 544 659 544 1381 
z
M 1991 3584 
L 1991 3584 
z
" transform="scale(0.015625)"/>
      <path id="DejaVuSans-62" d="M 3116 1747 
Q 3116 2381 2855 2742 
Q 2594 3103 2138 3103 
Q 1681 3103 1420 2742 
Q 1159 2381 1159 1747 
Q 1159 1113 1420 752 
Q 1681 391 2138 391 
Q 2594 391 2855 752 
Q 3116 1113 3116 1747 
z
M 1159 2969 
Q 1341 3281 1617 3432 
Q 1894 3584 2278 3584 
Q 2916 3584 3314 3078 
Q 3713 2572 3713 1747 
Q 3713 922 3314 415 
Q 2916 -91 2278 -91 
Q 1894 -91 1617 61 
Q 1341 213 1159 525 
L 1159 0 
L 581 0 
L 581 4863 
L 1159 4863 
L 1159 2969 
z
" transform="scale(0.015625)"/>
     </defs>
     <use xlink:href="#DejaVuSans-44"/>
     <use xlink:href="#DejaVuSans-61" x="77.001953"/>
     <use xlink:href="#DejaVuSans-69" x="138.28125"/>
     <use xlink:href="#DejaVuSans-6c" x="166.064453"/>
     <use xlink:href="#DejaVuSans-79" x="193.847656"/>
     <use xlink:href="#DejaVuSans-20" x="253.027344"/>
     <use xlink:href="#DejaVuSans-43" x="284.814453"/>
     <use xlink:href="#DejaVuSans-6f" x="354.638672"/>
     <use xlink:href="#DejaVuSans-6e" x="415.820312"/>
     <use xlink:href="#DejaVuSans-66" x="479.199219"/>
     <use xlink:href="#DejaVuSans-69" x="514.404297"/>
     <use xlink:href="#DejaVuSans-72" x="542.1875"/>
     <use xlink:href="#DejaVuSans-6d" x="581.550781"/>
     <use xlink:href="#DejaVuSans-65" x="678.962891"/>
     <use xlink:href="#DejaVuSans-64" x="740.486328"/>
     <use xlink:href="#DejaVuSans-20" x="803.962891"/>
     <use xlink:href="#DejaVuSans-43" x="835.75"/>
     <use xlink:href="#DejaVuSans-61" x="905.574219"/>
     <use xlink:href="#DejaVuSans-73" x="966.853516"/>
     <use xlink:href="#DejaVuSans-65" x="1018.953125"/>
     <use xlink:href="#DejaVuSans-73" x="1080.476562"/>
     <use xlink:href="#DejaVuSans-20" x="1132.576172"/>
     <use xlink:href="#DejaVuSans-46" x="1164.363281"/>
     <use xlink:href="#DejaVuSans-6f" x="1218.257812"/>
     <use xlink:href="#DejaVuSans-72" x="1279.439453"/>
     <use xlink:href="#DejaVuSans-65" x="1318.302734"/>
     <use xlink:href="#DejaVuSans-63" x="1379.826172"/>
     <use xlink:href="#DejaVuSans-61" x="1434.806641"/>
     <use xlink:href="#DejaVuSans-73" x="1496.085938"/>
     <use xlink:href="#DejaVuSans-74" x="1548.185547"/>
     <use xlink:href="#DejaVuSans-69" x="1587.394531"/>
     <use xlink:href="#DejaVuSans-6e" x="1615.177734"/>
     <use xlink:href="#DejaVuSans-67" x="1678.556641"/>
     <use xlink:href="#DejaVuSans-20" x="1742.033203"/>
     <use xlink:href="#DejaVuSans-2d" x="1773.820312"/>
     <use xlink:href="#DejaVuSans-20" x="1809.904297"/>
     <use xlink:href="#DejaVuSans-43" x="1841.691406"/>
     <use xlink:href="#DejaVuSans-75" x="1911.515625"/>
     <use xlink:href="#DejaVuSans-62" x="1974.894531"/>
     <use xlink:href="#DejaVuSans-61" x="2038.371094"/>
    </g>
    <!-- ARIMA (4, 1, 0)x(1, 0, 1, 7) (R2 = 0.884487) -->
    <g transform="translate(583.628438 29.7555)scale(0.12 -0.12)">
     <defs>
      <path id="DejaVuSans-41" d="M 2188 4044 
L 1331 1722 
L 3047 1722 
L 2188 4044 
z
M 1831 4666 
L 2547 4666 
L 4325 0 
L 3669 0 
L 3244 1197 
L 1141 1197 
L 716 0 
L 50 0 
L 1831 4666 
z
" transform="scale(0.015625)"/>
      <path id="DejaVuSans-52" d="M 2841 2188 
Q 3044 2119 3236 1894 
Q 3428 1669 3622 1275 
L 4263 0 
L 3584 0 
L 2988 1197 
Q 2756 1666 2539 1819 
Q 2322 1972 1947 1972 
L 1259 1972 
L 1259 0 
L 628 0 
L 628 4666 
L 2053 4666 
Q 2853 4666 3247 4331 
Q 3641 3997 3641 3322 
Q 3641 2881 3436 2590 
Q 3231 2300 2841 2188 
z
M 1259 4147 
L 1259 2491 
L 2053 2491 
Q 2509 2491 2742 2702 
Q 2975 2913 2975 3322 
Q 2975 3731 2742 3939 
Q 2509 4147 2053 4147 
L 1259 4147 
z
" transform="scale(0.015625)"/>
      <path id="DejaVuSans-49" d="M 628 4666 
L 1259 4666 
L 1259 0 
L 628 0 
L 628 4666 
z
" transform="scale(0.015625)"/>
      <path id="DejaVuSans-4d" d="M 628 4666 
L 1569 4666 
L 2759 1491 
L 3956 4666 
L 4897 4666 
L 4897 0 
L 4281 0 
L 4281 4097 
L 3078 897 
L 2444 897 
L 1241 4097 
L 1241 0 
L 628 0 
L 628 4666 
z
" transform="scale(0.015625)"/>
      <path id="DejaVuSans-28" d="M 1984 4856 
Q 1566 4138 1362 3434 
Q 1159 2731 1159 2009 
Q 1159 1288 1364 580 
Q 1569 -128 1984 -844 
L 1484 -844 
Q 1016 -109 783 600 
Q 550 1309 550 2009 
Q 550 2706 781 3412 
Q 1013 4119 1484 4856 
L 1984 4856 
z
" transform="scale(0.015625)"/>
      <path id="DejaVuSans-2c" d="M 750 794 
L 1409 794 
L 1409 256 
L 897 -744 
L 494 -744 
L 750 256 
L 750 794 
z
" transform="scale(0.015625)"/>
      <path id="DejaVuSans-29" d="M 513 4856 
L 1013 4856 
Q 1481 4119 1714 3412 
Q 1947 2706 1947 2009 
Q 1947 1309 1714 600 
Q 1481 -109 1013 -844 
L 513 -844 
Q 928 -128 1133 580 
Q 1338 1288 1338 2009 
Q 1338 2731 1133 3434 
Q 928 4138 513 4856 
z
" transform="scale(0.015625)"/>
      <path id="DejaVuSans-78" d="M 3513 3500 
L 2247 1797 
L 3578 0 
L 2900 0 
L 1881 1375 
L 863 0 
L 184 0 
L 1544 1831 
L 300 3500 
L 978 3500 
L 1906 2253 
L 2834 3500 
L 3513 3500 
z
" transform="scale(0.015625)"/>
      <path id="DejaVuSans-37" d="M 525 4666 
L 3525 4666 
L 3525 4397 
L 1831 0 
L 1172 0 
L 2766 4134 
L 525 4134 
L 525 4666 
z
" transform="scale(0.015625)"/>
      <path id="DejaVuSans-3d" d="M 678 2906 
L 4684 2906 
L 4684 2381 
L 678 2381 
L 678 2906 
z
M 678 1631 
L 4684 1631 
L 4684 1100 
L 678 1100 
L 678 1631 
z
" transform="scale(0.015625)"/>
      <path id="DejaVuSans-2e" d="M 684 794 
L 1344 794 
L 1344 0 
L 684 0 
L 684 794 
z
" transform="scale(0.015625)"/>
     </defs>
     <use xlink:href="#DejaVuSans-41"/>
     <use xlink:href="#DejaVuSans-52" x="68.408203"/>
     <use xlink:href="#DejaVuSans-49" x="137.890625"/>
     <use xlink:href="#DejaVuSans-4d" x="167.382812"/>
     <use xlink:href="#DejaVuSans-41" x="253.662109"/>
     <use xlink:href="#DejaVuSans-20" x="322.070312"/>
     <use xlink:href="#DejaVuSans-28" x="353.857422"/>
     <use xlink:href="#DejaVuSans-34" x="392.871094"/>
     <use xlink:href="#DejaVuSans-2c" x="456.494141"/>
     <use xlink:href="#DejaVuSans-20" x="488.28125"/>
     <use xlink:href="#DejaVuSans-31" x="520.068359"/>
     <use xlink:href="#DejaVuSans-2c" x="583.691406"/>
     <use xlink:href="#DejaVuSans-20" x="615.478516"/>
     <use xlink:href="#DejaVuSans-30" x="647.265625"/>
     <use xlink:href="#DejaVuSans-29" x="710.888672"/>
     <use xlink:href="#DejaVuSans-78" x="749.902344"/>
     <use xlink:href="#DejaVuSans-28" x="809.082031"/>
     <use xlink:href="#DejaVuSans-31" x="848.095703"/>
     <use xlink:href="#DejaVuSans-2c" x="911.71875"/>
     <use xlink:href="#DejaVuSans-20" x="943.505859"/>
     <use xlink:href="#DejaVuSans-30" x="975.292969"/>
     <use xlink:href="#DejaVuSans-2c" x="1038.916016"/>
     <use xlink:href="#DejaVuSans-20" x="1070.703125"/>
     <use xlink:href="#DejaVuSans-31" x="1102.490234"/>
     <use xlink:href="#DejaVuSans-2c" x="1166.113281"/>
     <use xlink:href="#DejaVuSans-20" x="1197.900391"/>
     <use xlink:href="#DejaVuSans-37" x="1229.6875"/>
     <use xlink:href="#DejaVuSans-29" x="1293.310547"/>
     <use xlink:href="#DejaVuSans-20" x="1332.324219"/>
     <use xlink:href="#DejaVuSans-28" x="1364.111328"/>
     <use xlink:href="#DejaVuSans-52" x="1403.125"/>
     <use xlink:href="#DejaVuSans-32" x="1472.607422"/>
     <use xlink:href="#DejaVuSans-20" x="1536.230469"/>
     <use xlink:href="#DejaVuSans-3d" x="1568.017578"/>
     <use xlink:href="#DejaVuSans-20" x="1651.806641"/>
     <use xlink:href="#DejaVuSans-30" x="1683.59375"/>
     <use xlink:href="#DejaVuSans-2e" x="1747.216797"/>
     <use xlink:href="#DejaVuSans-38" x="1779.003906"/>
     <use xlink:href="#DejaVuSans-38" x="1842.626953"/>
     <use xlink:href="#DejaVuSans-34" x="1906.25"/>
     <use xlink:href="#DejaVuSans-34" x="1969.873047"/>
     <use xlink:href="#DejaVuSans-38" x="2033.496094"/>
     <use xlink:href="#DejaVuSans-37" x="2097.119141"/>
     <use xlink:href="#DejaVuSans-29" x="2160.742188"/>
    </g>
   </g>
   <g id="legend_1">
    <g id="patch_7">
     <path d="M 1281.132812 87.789875 
L 1378.2125 87.789875 
Q 1380.2125 87.789875 1380.2125 85.789875 
L 1380.2125 42.7555 
Q 1380.2125 40.7555 1378.2125 40.7555 
L 1281.132812 40.7555 
Q 1279.132812 40.7555 1279.132812 42.7555 
L 1279.132812 85.789875 
Q 1279.132812 87.789875 1281.132812 87.789875 
z
" style="fill: #ffffff; opacity: 0.8; stroke: #cccccc; stroke-linejoin: miter"/>
    </g>
    <g id="line2d_21">
     <path d="M 1283.132812 48.853937 
L 1293.132812 48.853937 
L 1303.132812 48.853937 
" style="fill: none; stroke: #0000ff; stroke-width: 1.5; stroke-linecap: square"/>
    </g>
    <g id="text_19">
     <!-- Actual Value -->
     <g transform="translate(1311.132812 52.353937)scale(0.1 -0.1)">
      <defs>
       <path id="DejaVuSans-56" d="M 1831 0 
L 50 4666 
L 709 4666 
L 2188 738 
L 3669 4666 
L 4325 4666 
L 2547 0 
L 1831 0 
z
" transform="scale(0.015625)"/>
      </defs>
      <use xlink:href="#DejaVuSans-41"/>
      <use xlink:href="#DejaVuSans-63" x="66.658203"/>
      <use xlink:href="#DejaVuSans-74" x="121.638672"/>
      <use xlink:href="#DejaVuSans-75" x="160.847656"/>
      <use xlink:href="#DejaVuSans-61" x="224.226562"/>
      <use xlink:href="#DejaVuSans-6c" x="285.505859"/>
      <use xlink:href="#DejaVuSans-20" x="313.289062"/>
      <use xlink:href="#DejaVuSans-56" x="345.076172"/>
      <use xlink:href="#DejaVuSans-61" x="405.734375"/>
      <use xlink:href="#DejaVuSans-6c" x="467.013672"/>
      <use xlink:href="#DejaVuSans-75" x="494.796875"/>
      <use xlink:href="#DejaVuSans-65" x="558.175781"/>
     </g>
    </g>
    <g id="line2d_22">
     <path d="M 1283.132812 63.532062 
L 1293.132812 63.532062 
L 1303.132812 63.532062 
" style="fill: none; stroke: #ffa500; stroke-width: 1.5; stroke-linecap: square"/>
    </g>
    <g id="text_20">
     <!-- Check Value -->
     <g transform="translate(1311.132812 67.032062)scale(0.1 -0.1)">
      <defs>
       <path id="DejaVuSans-68" d="M 3513 2113 
L 3513 0 
L 2938 0 
L 2938 2094 
Q 2938 2591 2744 2837 
Q 2550 3084 2163 3084 
Q 1697 3084 1428 2787 
Q 1159 2491 1159 1978 
L 1159 0 
L 581 0 
L 581 4863 
L 1159 4863 
L 1159 2956 
Q 1366 3272 1645 3428 
Q 1925 3584 2291 3584 
Q 2894 3584 3203 3211 
Q 3513 2838 3513 2113 
z
" transform="scale(0.015625)"/>
       <path id="DejaVuSans-6b" d="M 581 4863 
L 1159 4863 
L 1159 1991 
L 2875 3500 
L 3609 3500 
L 1753 1863 
L 3688 0 
L 2938 0 
L 1159 1709 
L 1159 0 
L 581 0 
L 581 4863 
z
" transform="scale(0.015625)"/>
      </defs>
      <use xlink:href="#DejaVuSans-43"/>
      <use xlink:href="#DejaVuSans-68" x="69.824219"/>
      <use xlink:href="#DejaVuSans-65" x="133.203125"/>
      <use xlink:href="#DejaVuSans-63" x="194.726562"/>
      <use xlink:href="#DejaVuSans-6b" x="249.707031"/>
      <use xlink:href="#DejaVuSans-20" x="307.617188"/>
      <use xlink:href="#DejaVuSans-56" x="339.404297"/>
      <use xlink:href="#DejaVuSans-61" x="400.0625"/>
      <use xlink:href="#DejaVuSans-6c" x="461.341797"/>
      <use xlink:href="#DejaVuSans-75" x="489.125"/>
      <use xlink:href="#DejaVuSans-65" x="552.503906"/>
     </g>
    </g>
    <g id="line2d_23">
     <path d="M 1283.132812 78.210187 
L 1293.132812 78.210187 
L 1303.132812 78.210187 
" style="fill: none; stroke: #ff0000; stroke-width: 1.5; stroke-linecap: square"/>
    </g>
    <g id="text_21">
     <!-- Predict Value -->
     <g transform="translate(1311.132812 81.710187)scale(0.1 -0.1)">
      <defs>
       <path id="DejaVuSans-50" d="M 1259 4147 
L 1259 2394 
L 2053 2394 
Q 2494 2394 2734 2622 
Q 2975 2850 2975 3272 
Q 2975 3691 2734 3919 
Q 2494 4147 2053 4147 
L 1259 4147 
z
M 628 4666 
L 2053 4666 
Q 2838 4666 3239 4311 
Q 3641 3956 3641 3272 
Q 3641 2581 3239 2228 
Q 2838 1875 2053 1875 
L 1259 1875 
L 1259 0 
L 628 0 
L 628 4666 
z
" transform="scale(0.015625)"/>
      </defs>
      <use xlink:href="#DejaVuSans-50"/>
      <use xlink:href="#DejaVuSans-72" x="58.552734"/>
      <use xlink:href="#DejaVuSans-65" x="97.416016"/>
      <use xlink:href="#DejaVuSans-64" x="158.939453"/>
      <use xlink:href="#DejaVuSans-69" x="222.416016"/>
      <use xlink:href="#DejaVuSans-63" x="250.199219"/>
      <use xlink:href="#DejaVuSans-74" x="305.179688"/>
      <use xlink:href="#DejaVuSans-20" x="344.388672"/>
      <use xlink:href="#DejaVuSans-56" x="376.175781"/>
      <use xlink:href="#DejaVuSans-61" x="436.833984"/>
      <use xlink:href="#DejaVuSans-6c" x="498.113281"/>
      <use xlink:href="#DejaVuSans-75" x="525.896484"/>
      <use xlink:href="#DejaVuSans-65" x="589.275391"/>
     </g>
    </g>
   </g>
  </g>
 </g>
 <defs>
  <clipPath id="pb4e667dddb">
   <rect x="46.0125" y="35.7555" width="1339.2" height="332.64"/>
  </clipPath>
 </defs>
</svg>
