<?xml version="1.0" encoding="utf-8" standalone="no"?>
<!DOCTYPE svg PUBLIC "-//W3C//DTD SVG 1.1//EN"
  "http://www.w3.org/Graphics/SVG/1.1/DTD/svg11.dtd">
<svg xmlns:xlink="http://www.w3.org/1999/xlink" width="1405.1375pt" height="392.273625pt" viewBox="0 0 1405.1375 392.273625" xmlns="http://www.w3.org/2000/svg" version="1.1">
 <metadata>
  <rdf:RDF xmlns:dc="http://purl.org/dc/elements/1.1/" xmlns:cc="http://creativecommons.org/ns#" xmlns:rdf="http://www.w3.org/1999/02/22-rdf-syntax-ns#">
   <cc:Work>
    <dc:type rdf:resource="http://purl.org/dc/dcmitype/StillImage"/>
    <dc:date>2022-10-09T19:28:04.853467</dc:date>
    <dc:format>image/svg+xml</dc:format>
    <dc:creator>
     <cc:Agent>
      <dc:title>Matplotlib v3.5.1, https://matplotlib.org/</dc:title>
     </cc:Agent>
    </dc:creator>
   </cc:Work>
  </rdf:RDF>
 </metadata>
 <defs>
  <style type="text/css">*{stroke-linejoin: round; stroke-linecap: butt}</style>
 </defs>
 <g id="figure_1">
  <g id="patch_1">
   <path d="M 0 392.273625 
L 1405.1375 392.273625 
L 1405.1375 0 
L 0 0 
z
" style="fill: #ffffff"/>
  </g>
  <g id="axes_1">
   <g id="patch_2">
    <path d="M 58.7375 368.3955 
L 1397.9375 368.3955 
L 1397.9375 35.7555 
L 58.7375 35.7555 
z
" style="fill: #ffffff"/>
   </g>
   <g id="matplotlib.axis_1">
    <g id="xtick_1">
     <g id="line2d_1">
      <defs>
       <path id="m1351f03ac4" d="M 0 0 
L 0 3.5 
" style="stroke: #000000; stroke-width: 0.8"/>
      </defs>
      <g>
       <use xlink:href="#m1351f03ac4" x="92.906339" y="368.3955" style="stroke: #000000; stroke-width: 0.8"/>
      </g>
     </g>
     <g id="text_1">
      <!-- 2020-01 -->
      <g transform="translate(72.014933 382.993937)scale(0.1 -0.1)">
       <defs>
        <path id="DejaVuSans-32" d="M 1228 531 
L 3431 531 
L 3431 0 
L 469 0 
L 469 531 
Q 828 903 1448 1529 
Q 2069 2156 2228 2338 
Q 2531 2678 2651 2914 
Q 2772 3150 2772 3378 
Q 2772 3750 2511 3984 
Q 2250 4219 1831 4219 
Q 1534 4219 1204 4116 
Q 875 4013 500 3803 
L 500 4441 
Q 881 4594 1212 4672 
Q 1544 4750 1819 4750 
Q 2544 4750 2975 4387 
Q 3406 4025 3406 3419 
Q 3406 3131 3298 2873 
Q 3191 2616 2906 2266 
Q 2828 2175 2409 1742 
Q 1991 1309 1228 531 
z
" transform="scale(0.015625)"/>
        <path id="DejaVuSans-30" d="M 2034 4250 
Q 1547 4250 1301 3770 
Q 1056 3291 1056 2328 
Q 1056 1369 1301 889 
Q 1547 409 2034 409 
Q 2525 409 2770 889 
Q 3016 1369 3016 2328 
Q 3016 3291 2770 3770 
Q 2525 4250 2034 4250 
z
M 2034 4750 
Q 2819 4750 3233 4129 
Q 3647 3509 3647 2328 
Q 3647 1150 3233 529 
Q 2819 -91 2034 -91 
Q 1250 -91 836 529 
Q 422 1150 422 2328 
Q 422 3509 836 4129 
Q 1250 4750 2034 4750 
z
" transform="scale(0.015625)"/>
        <path id="DejaVuSans-2d" d="M 313 2009 
L 1997 2009 
L 1997 1497 
L 313 1497 
L 313 2009 
z
" transform="scale(0.015625)"/>
        <path id="DejaVuSans-31" d="M 794 531 
L 1825 531 
L 1825 4091 
L 703 3866 
L 703 4441 
L 1819 4666 
L 2450 4666 
L 2450 531 
L 3481 531 
L 3481 0 
L 794 0 
L 794 531 
z
" transform="scale(0.015625)"/>
       </defs>
       <use xlink:href="#DejaVuSans-32"/>
       <use xlink:href="#DejaVuSans-30" x="63.623047"/>
       <use xlink:href="#DejaVuSans-32" x="127.246094"/>
       <use xlink:href="#DejaVuSans-30" x="190.869141"/>
       <use xlink:href="#DejaVuSans-2d" x="254.492188"/>
       <use xlink:href="#DejaVuSans-30" x="290.576172"/>
       <use xlink:href="#DejaVuSans-31" x="354.199219"/>
      </g>
     </g>
    </g>
    <g id="xtick_2">
     <g id="line2d_2">
      <g>
       <use xlink:href="#m1351f03ac4" x="239.777725" y="368.3955" style="stroke: #000000; stroke-width: 0.8"/>
      </g>
     </g>
     <g id="text_2">
      <!-- 2020-05 -->
      <g transform="translate(218.886319 382.993937)scale(0.1 -0.1)">
       <defs>
        <path id="DejaVuSans-35" d="M 691 4666 
L 3169 4666 
L 3169 4134 
L 1269 4134 
L 1269 2991 
Q 1406 3038 1543 3061 
Q 1681 3084 1819 3084 
Q 2600 3084 3056 2656 
Q 3513 2228 3513 1497 
Q 3513 744 3044 326 
Q 2575 -91 1722 -91 
Q 1428 -91 1123 -41 
Q 819 9 494 109 
L 494 744 
Q 775 591 1075 516 
Q 1375 441 1709 441 
Q 2250 441 2565 725 
Q 2881 1009 2881 1497 
Q 2881 1984 2565 2268 
Q 2250 2553 1709 2553 
Q 1456 2553 1204 2497 
Q 953 2441 691 2322 
L 691 4666 
z
" transform="scale(0.015625)"/>
       </defs>
       <use xlink:href="#DejaVuSans-32"/>
       <use xlink:href="#DejaVuSans-30" x="63.623047"/>
       <use xlink:href="#DejaVuSans-32" x="127.246094"/>
       <use xlink:href="#DejaVuSans-30" x="190.869141"/>
       <use xlink:href="#DejaVuSans-2d" x="254.492188"/>
       <use xlink:href="#DejaVuSans-30" x="290.576172"/>
       <use xlink:href="#DejaVuSans-35" x="354.199219"/>
      </g>
     </g>
    </g>
    <g id="xtick_3">
     <g id="line2d_3">
      <g>
       <use xlink:href="#m1351f03ac4" x="389.076737" y="368.3955" style="stroke: #000000; stroke-width: 0.8"/>
      </g>
     </g>
     <g id="text_3">
      <!-- 2020-09 -->
      <g transform="translate(368.185331 382.993937)scale(0.1 -0.1)">
       <defs>
        <path id="DejaVuSans-39" d="M 703 97 
L 703 672 
Q 941 559 1184 500 
Q 1428 441 1663 441 
Q 2288 441 2617 861 
Q 2947 1281 2994 2138 
Q 2813 1869 2534 1725 
Q 2256 1581 1919 1581 
Q 1219 1581 811 2004 
Q 403 2428 403 3163 
Q 403 3881 828 4315 
Q 1253 4750 1959 4750 
Q 2769 4750 3195 4129 
Q 3622 3509 3622 2328 
Q 3622 1225 3098 567 
Q 2575 -91 1691 -91 
Q 1453 -91 1209 -44 
Q 966 3 703 97 
z
M 1959 2075 
Q 2384 2075 2632 2365 
Q 2881 2656 2881 3163 
Q 2881 3666 2632 3958 
Q 2384 4250 1959 4250 
Q 1534 4250 1286 3958 
Q 1038 3666 1038 3163 
Q 1038 2656 1286 2365 
Q 1534 2075 1959 2075 
z
" transform="scale(0.015625)"/>
       </defs>
       <use xlink:href="#DejaVuSans-32"/>
       <use xlink:href="#DejaVuSans-30" x="63.623047"/>
       <use xlink:href="#DejaVuSans-32" x="127.246094"/>
       <use xlink:href="#DejaVuSans-30" x="190.869141"/>
       <use xlink:href="#DejaVuSans-2d" x="254.492188"/>
       <use xlink:href="#DejaVuSans-30" x="290.576172"/>
       <use xlink:href="#DejaVuSans-39" x="354.199219"/>
      </g>
     </g>
    </g>
    <g id="xtick_4">
     <g id="line2d_4">
      <g>
       <use xlink:href="#m1351f03ac4" x="537.161936" y="368.3955" style="stroke: #000000; stroke-width: 0.8"/>
      </g>
     </g>
     <g id="text_4">
      <!-- 2021-01 -->
      <g transform="translate(516.27053 382.993937)scale(0.1 -0.1)">
       <use xlink:href="#DejaVuSans-32"/>
       <use xlink:href="#DejaVuSans-30" x="63.623047"/>
       <use xlink:href="#DejaVuSans-32" x="127.246094"/>
       <use xlink:href="#DejaVuSans-31" x="190.869141"/>
       <use xlink:href="#DejaVuSans-2d" x="254.492188"/>
       <use xlink:href="#DejaVuSans-30" x="290.576172"/>
       <use xlink:href="#DejaVuSans-31" x="354.199219"/>
      </g>
     </g>
    </g>
    <g id="xtick_5">
     <g id="line2d_5">
      <g>
       <use xlink:href="#m1351f03ac4" x="682.819509" y="368.3955" style="stroke: #000000; stroke-width: 0.8"/>
      </g>
     </g>
     <g id="text_5">
      <!-- 2021-05 -->
      <g transform="translate(661.928102 382.993937)scale(0.1 -0.1)">
       <use xlink:href="#DejaVuSans-32"/>
       <use xlink:href="#DejaVuSans-30" x="63.623047"/>
       <use xlink:href="#DejaVuSans-32" x="127.246094"/>
       <use xlink:href="#DejaVuSans-31" x="190.869141"/>
       <use xlink:href="#DejaVuSans-2d" x="254.492188"/>
       <use xlink:href="#DejaVuSans-30" x="290.576172"/>
       <use xlink:href="#DejaVuSans-35" x="354.199219"/>
      </g>
     </g>
    </g>
    <g id="xtick_6">
     <g id="line2d_6">
      <g>
       <use xlink:href="#m1351f03ac4" x="832.118521" y="368.3955" style="stroke: #000000; stroke-width: 0.8"/>
      </g>
     </g>
     <g id="text_6">
      <!-- 2021-09 -->
      <g transform="translate(811.227114 382.993937)scale(0.1 -0.1)">
       <use xlink:href="#DejaVuSans-32"/>
       <use xlink:href="#DejaVuSans-30" x="63.623047"/>
       <use xlink:href="#DejaVuSans-32" x="127.246094"/>
       <use xlink:href="#DejaVuSans-31" x="190.869141"/>
       <use xlink:href="#DejaVuSans-2d" x="254.492188"/>
       <use xlink:href="#DejaVuSans-30" x="290.576172"/>
       <use xlink:href="#DejaVuSans-39" x="354.199219"/>
      </g>
     </g>
    </g>
    <g id="xtick_7">
     <g id="line2d_7">
      <g>
       <use xlink:href="#m1351f03ac4" x="980.20372" y="368.3955" style="stroke: #000000; stroke-width: 0.8"/>
      </g>
     </g>
     <g id="text_7">
      <!-- 2022-01 -->
      <g transform="translate(959.312313 382.993937)scale(0.1 -0.1)">
       <use xlink:href="#DejaVuSans-32"/>
       <use xlink:href="#DejaVuSans-30" x="63.623047"/>
       <use xlink:href="#DejaVuSans-32" x="127.246094"/>
       <use xlink:href="#DejaVuSans-32" x="190.869141"/>
       <use xlink:href="#DejaVuSans-2d" x="254.492188"/>
       <use xlink:href="#DejaVuSans-30" x="290.576172"/>
       <use xlink:href="#DejaVuSans-31" x="354.199219"/>
      </g>
     </g>
    </g>
    <g id="xtick_8">
     <g id="line2d_8">
      <g>
       <use xlink:href="#m1351f03ac4" x="1125.861292" y="368.3955" style="stroke: #000000; stroke-width: 0.8"/>
      </g>
     </g>
     <g id="text_8">
      <!-- 2022-05 -->
      <g transform="translate(1104.969886 382.993937)scale(0.1 -0.1)">
       <use xlink:href="#DejaVuSans-32"/>
       <use xlink:href="#DejaVuSans-30" x="63.623047"/>
       <use xlink:href="#DejaVuSans-32" x="127.246094"/>
       <use xlink:href="#DejaVuSans-32" x="190.869141"/>
       <use xlink:href="#DejaVuSans-2d" x="254.492188"/>
       <use xlink:href="#DejaVuSans-30" x="290.576172"/>
       <use xlink:href="#DejaVuSans-35" x="354.199219"/>
      </g>
     </g>
    </g>
    <g id="xtick_9">
     <g id="line2d_9">
      <g>
       <use xlink:href="#m1351f03ac4" x="1275.160304" y="368.3955" style="stroke: #000000; stroke-width: 0.8"/>
      </g>
     </g>
     <g id="text_9">
      <!-- 2022-09 -->
      <g transform="translate(1254.268898 382.993937)scale(0.1 -0.1)">
       <use xlink:href="#DejaVuSans-32"/>
       <use xlink:href="#DejaVuSans-30" x="63.623047"/>
       <use xlink:href="#DejaVuSans-32" x="127.246094"/>
       <use xlink:href="#DejaVuSans-32" x="190.869141"/>
       <use xlink:href="#DejaVuSans-2d" x="254.492188"/>
       <use xlink:href="#DejaVuSans-30" x="290.576172"/>
       <use xlink:href="#DejaVuSans-39" x="354.199219"/>
      </g>
     </g>
    </g>
   </g>
   <g id="matplotlib.axis_2">
    <g id="ytick_1">
     <g id="line2d_10">
      <defs>
       <path id="mb651910484" d="M 0 0 
L -3.5 0 
" style="stroke: #000000; stroke-width: 0.8"/>
      </defs>
      <g>
       <use xlink:href="#mb651910484" x="58.7375" y="353.2755" style="stroke: #000000; stroke-width: 0.8"/>
      </g>
     </g>
     <g id="text_10">
      <!-- 0 -->
      <g transform="translate(45.375 357.074719)scale(0.1 -0.1)">
       <use xlink:href="#DejaVuSans-30"/>
      </g>
     </g>
    </g>
    <g id="ytick_2">
     <g id="line2d_11">
      <g>
       <use xlink:href="#mb651910484" x="58.7375" y="308.6529" style="stroke: #000000; stroke-width: 0.8"/>
      </g>
     </g>
     <g id="text_11">
      <!-- 200000 -->
      <g transform="translate(13.5625 312.452118)scale(0.1 -0.1)">
       <use xlink:href="#DejaVuSans-32"/>
       <use xlink:href="#DejaVuSans-30" x="63.623047"/>
       <use xlink:href="#DejaVuSans-30" x="127.246094"/>
       <use xlink:href="#DejaVuSans-30" x="190.869141"/>
       <use xlink:href="#DejaVuSans-30" x="254.492188"/>
       <use xlink:href="#DejaVuSans-30" x="318.115234"/>
      </g>
     </g>
    </g>
    <g id="ytick_3">
     <g id="line2d_12">
      <g>
       <use xlink:href="#mb651910484" x="58.7375" y="264.030299" style="stroke: #000000; stroke-width: 0.8"/>
      </g>
     </g>
     <g id="text_12">
      <!-- 400000 -->
      <g transform="translate(13.5625 267.829518)scale(0.1 -0.1)">
       <defs>
        <path id="DejaVuSans-34" d="M 2419 4116 
L 825 1625 
L 2419 1625 
L 2419 4116 
z
M 2253 4666 
L 3047 4666 
L 3047 1625 
L 3713 1625 
L 3713 1100 
L 3047 1100 
L 3047 0 
L 2419 0 
L 2419 1100 
L 313 1100 
L 313 1709 
L 2253 4666 
z
" transform="scale(0.015625)"/>
       </defs>
       <use xlink:href="#DejaVuSans-34"/>
       <use xlink:href="#DejaVuSans-30" x="63.623047"/>
       <use xlink:href="#DejaVuSans-30" x="127.246094"/>
       <use xlink:href="#DejaVuSans-30" x="190.869141"/>
       <use xlink:href="#DejaVuSans-30" x="254.492188"/>
       <use xlink:href="#DejaVuSans-30" x="318.115234"/>
      </g>
     </g>
    </g>
    <g id="ytick_4">
     <g id="line2d_13">
      <g>
       <use xlink:href="#mb651910484" x="58.7375" y="219.407699" style="stroke: #000000; stroke-width: 0.8"/>
      </g>
     </g>
     <g id="text_13">
      <!-- 600000 -->
      <g transform="translate(13.5625 223.206918)scale(0.1 -0.1)">
       <defs>
        <path id="DejaVuSans-36" d="M 2113 2584 
Q 1688 2584 1439 2293 
Q 1191 2003 1191 1497 
Q 1191 994 1439 701 
Q 1688 409 2113 409 
Q 2538 409 2786 701 
Q 3034 994 3034 1497 
Q 3034 2003 2786 2293 
Q 2538 2584 2113 2584 
z
M 3366 4563 
L 3366 3988 
Q 3128 4100 2886 4159 
Q 2644 4219 2406 4219 
Q 1781 4219 1451 3797 
Q 1122 3375 1075 2522 
Q 1259 2794 1537 2939 
Q 1816 3084 2150 3084 
Q 2853 3084 3261 2657 
Q 3669 2231 3669 1497 
Q 3669 778 3244 343 
Q 2819 -91 2113 -91 
Q 1303 -91 875 529 
Q 447 1150 447 2328 
Q 447 3434 972 4092 
Q 1497 4750 2381 4750 
Q 2619 4750 2861 4703 
Q 3103 4656 3366 4563 
z
" transform="scale(0.015625)"/>
       </defs>
       <use xlink:href="#DejaVuSans-36"/>
       <use xlink:href="#DejaVuSans-30" x="63.623047"/>
       <use xlink:href="#DejaVuSans-30" x="127.246094"/>
       <use xlink:href="#DejaVuSans-30" x="190.869141"/>
       <use xlink:href="#DejaVuSans-30" x="254.492188"/>
       <use xlink:href="#DejaVuSans-30" x="318.115234"/>
      </g>
     </g>
    </g>
    <g id="ytick_5">
     <g id="line2d_14">
      <g>
       <use xlink:href="#mb651910484" x="58.7375" y="174.785099" style="stroke: #000000; stroke-width: 0.8"/>
      </g>
     </g>
     <g id="text_14">
      <!-- 800000 -->
      <g transform="translate(13.5625 178.584317)scale(0.1 -0.1)">
       <defs>
        <path id="DejaVuSans-38" d="M 2034 2216 
Q 1584 2216 1326 1975 
Q 1069 1734 1069 1313 
Q 1069 891 1326 650 
Q 1584 409 2034 409 
Q 2484 409 2743 651 
Q 3003 894 3003 1313 
Q 3003 1734 2745 1975 
Q 2488 2216 2034 2216 
z
M 1403 2484 
Q 997 2584 770 2862 
Q 544 3141 544 3541 
Q 544 4100 942 4425 
Q 1341 4750 2034 4750 
Q 2731 4750 3128 4425 
Q 3525 4100 3525 3541 
Q 3525 3141 3298 2862 
Q 3072 2584 2669 2484 
Q 3125 2378 3379 2068 
Q 3634 1759 3634 1313 
Q 3634 634 3220 271 
Q 2806 -91 2034 -91 
Q 1263 -91 848 271 
Q 434 634 434 1313 
Q 434 1759 690 2068 
Q 947 2378 1403 2484 
z
M 1172 3481 
Q 1172 3119 1398 2916 
Q 1625 2713 2034 2713 
Q 2441 2713 2670 2916 
Q 2900 3119 2900 3481 
Q 2900 3844 2670 4047 
Q 2441 4250 2034 4250 
Q 1625 4250 1398 4047 
Q 1172 3844 1172 3481 
z
" transform="scale(0.015625)"/>
       </defs>
       <use xlink:href="#DejaVuSans-38"/>
       <use xlink:href="#DejaVuSans-30" x="63.623047"/>
       <use xlink:href="#DejaVuSans-30" x="127.246094"/>
       <use xlink:href="#DejaVuSans-30" x="190.869141"/>
       <use xlink:href="#DejaVuSans-30" x="254.492188"/>
       <use xlink:href="#DejaVuSans-30" x="318.115234"/>
      </g>
     </g>
    </g>
    <g id="ytick_6">
     <g id="line2d_15">
      <g>
       <use xlink:href="#mb651910484" x="58.7375" y="130.162498" style="stroke: #000000; stroke-width: 0.8"/>
      </g>
     </g>
     <g id="text_15">
      <!-- 1000000 -->
      <g transform="translate(7.2 133.961717)scale(0.1 -0.1)">
       <use xlink:href="#DejaVuSans-31"/>
       <use xlink:href="#DejaVuSans-30" x="63.623047"/>
       <use xlink:href="#DejaVuSans-30" x="127.246094"/>
       <use xlink:href="#DejaVuSans-30" x="190.869141"/>
       <use xlink:href="#DejaVuSans-30" x="254.492188"/>
       <use xlink:href="#DejaVuSans-30" x="318.115234"/>
       <use xlink:href="#DejaVuSans-30" x="381.738281"/>
      </g>
     </g>
    </g>
    <g id="ytick_7">
     <g id="line2d_16">
      <g>
       <use xlink:href="#mb651910484" x="58.7375" y="85.539898" style="stroke: #000000; stroke-width: 0.8"/>
      </g>
     </g>
     <g id="text_16">
      <!-- 1200000 -->
      <g transform="translate(7.2 89.339117)scale(0.1 -0.1)">
       <use xlink:href="#DejaVuSans-31"/>
       <use xlink:href="#DejaVuSans-32" x="63.623047"/>
       <use xlink:href="#DejaVuSans-30" x="127.246094"/>
       <use xlink:href="#DejaVuSans-30" x="190.869141"/>
       <use xlink:href="#DejaVuSans-30" x="254.492188"/>
       <use xlink:href="#DejaVuSans-30" x="318.115234"/>
       <use xlink:href="#DejaVuSans-30" x="381.738281"/>
      </g>
     </g>
    </g>
    <g id="ytick_8">
     <g id="line2d_17">
      <g>
       <use xlink:href="#mb651910484" x="58.7375" y="40.917297" style="stroke: #000000; stroke-width: 0.8"/>
      </g>
     </g>
     <g id="text_17">
      <!-- 1400000 -->
      <g transform="translate(7.2 44.716516)scale(0.1 -0.1)">
       <use xlink:href="#DejaVuSans-31"/>
       <use xlink:href="#DejaVuSans-34" x="63.623047"/>
       <use xlink:href="#DejaVuSans-30" x="127.246094"/>
       <use xlink:href="#DejaVuSans-30" x="190.869141"/>
       <use xlink:href="#DejaVuSans-30" x="254.492188"/>
       <use xlink:href="#DejaVuSans-30" x="318.115234"/>
       <use xlink:href="#DejaVuSans-30" x="381.738281"/>
      </g>
     </g>
    </g>
   </g>
   <g id="line2d_18">
    <path d="M 119.610227 353.2755 
L 179.087069 353.177553 
L 181.514696 353.106157 
L 182.728509 353.223292 
L 183.942322 352.948193 
L 186.369948 352.682689 
L 188.797574 351.85494 
L 190.011387 351.937938 
L 191.225201 351.285555 
L 192.439014 350.787344 
L 193.652827 350.906486 
L 194.86664 350.569809 
L 196.080453 349.299403 
L 197.294266 349.127606 
L 198.508079 348.330423 
L 199.721892 349.677357 
L 200.935705 348.332655 
L 202.149518 347.389556 
L 203.363332 345.283815 
L 204.577145 346.074305 
L 205.790958 346.036599 
L 207.004771 346.197909 
L 208.218584 346.8552 
L 209.432397 346.137446 
L 210.64621 346.548643 
L 211.860023 346.304334 
L 213.073836 345.236962 
L 214.28765 345.647266 
L 215.501463 346.809462 
L 216.715276 347.506244 
L 219.142902 346.917449 
L 220.356715 347.390671 
L 222.784341 345.879527 
L 223.998154 347.178937 
L 225.211968 347.689866 
L 226.425781 346.436417 
L 227.639594 347.487726 
L 228.853407 346.594158 
L 230.06722 346.124728 
L 232.494846 346.45025 
L 233.708659 347.504682 
L 234.922472 347.755907 
L 236.136285 347.803207 
L 238.563912 346.679387 
L 239.777725 345.500012 
L 240.991538 347.338909 
L 242.205351 348.009141 
L 245.84679 347.833105 
L 247.060603 347.11178 
L 248.274417 347.220882 
L 249.48823 347.888437 
L 250.702043 349.104849 
L 251.915856 348.97879 
L 253.129669 348.035914 
L 254.343482 348.798068 
L 255.557295 347.501559 
L 257.984921 347.946446 
L 259.198734 349.119351 
L 260.412548 348.279554 
L 261.626361 348.690751 
L 264.053987 347.676702 
L 265.2678 347.958271 
L 266.481613 348.838898 
L 267.695426 348.788251 
L 270.123052 349.105072 
L 271.336866 349.080083 
L 272.550679 348.561568 
L 273.764492 347.747875 
L 274.978305 348.206819 
L 276.192118 349.089008 
L 277.405931 349.291148 
L 278.619744 348.799853 
L 279.833557 349.017388 
L 281.04737 347.071397 
L 282.261183 347.399373 
L 283.474997 348.778434 
L 284.68881 349.302527 
L 285.902623 349.501097 
L 287.116436 348.736266 
L 288.330249 348.416545 
L 289.544062 348.298072 
L 290.757875 347.570724 
L 291.971688 347.890221 
L 293.185501 349.047509 
L 294.399315 348.56313 
L 295.613128 347.779111 
L 296.826941 347.233154 
L 298.040754 346.963633 
L 299.254567 346.360782 
L 300.46838 346.168458 
L 301.682193 347.509814 
L 302.896006 346.581664 
L 304.109819 344.599974 
L 305.323633 345.17159 
L 306.537446 344.493549 
L 307.751259 342.322437 
L 308.965072 344.162673 
L 310.178885 343.699713 
L 311.392698 344.00337 
L 312.606511 342.111148 
L 313.820324 342.265766 
L 315.034137 340.97885 
L 316.24795 341.744128 
L 317.461764 343.001592 
L 318.675577 341.22539 
L 319.88939 343.545542 
L 321.103203 340.45208 
L 322.317016 339.780956 
L 323.530829 339.928211 
L 324.744642 337.931796 
L 325.958455 339.780064 
L 328.386082 339.958554 
L 329.599895 338.596226 
L 330.813708 338.462358 
L 332.027521 337.475753 
L 333.241334 338.473291 
L 334.455147 338.930896 
L 335.66896 340.115403 
L 336.882773 339.687918 
L 338.096586 338.03242 
L 339.310399 338.222512 
L 340.524213 338.143976 
L 341.738026 336.535778 
L 342.951839 339.055839 
L 344.165652 340.862831 
L 346.593278 338.874448 
L 347.807091 338.972618 
L 349.020904 337.835634 
L 350.234717 338.885381 
L 351.448531 340.466583 
L 352.662344 342.810162 
L 353.876157 343.913902 
L 355.08997 339.529508 
L 356.303783 341.189915 
L 357.517596 339.873548 
L 358.731409 339.781403 
L 359.945222 339.059409 
L 361.159035 341.199732 
L 362.372848 341.749036 
L 363.586662 340.592418 
L 364.800475 340.950292 
L 366.014288 341.793882 
L 367.228101 337.637733 
L 369.655727 345.554228 
L 370.86954 344.80033 
L 372.083353 343.242108 
L 373.297166 343.028812 
L 374.51098 343.203733 
L 375.724793 342.58571 
L 376.938606 343.171381 
L 378.152419 346.157972 
L 379.366232 345.667347 
L 380.580045 343.777803 
L 381.793858 343.862586 
L 383.007671 342.022573 
L 384.221484 342.941798 
L 385.435298 343.670039 
L 386.649111 345.652844 
L 387.862924 345.793852 
L 389.076737 343.911447 
L 390.29055 344.327107 
L 391.504363 343.187446 
L 392.718176 342.415028 
L 393.931989 343.636126 
L 395.145802 346.79139 
L 396.359615 347.76394 
L 397.573429 347.229584 
L 398.787242 345.725133 
L 401.214868 343.270444 
L 402.428681 343.106679 
L 403.642494 344.286723 
L 404.856307 345.930843 
L 406.07012 344.923265 
L 407.283933 344.720009 
L 408.497747 343.135907 
L 409.71156 342.072104 
L 412.139186 343.9969 
L 413.352999 346.073189 
L 414.566812 344.732726 
L 415.780625 344.077443 
L 416.994438 342.350549 
L 418.208251 342.784504 
L 419.422064 343.583471 
L 420.635878 345.757707 
L 423.063504 343.840944 
L 424.277317 344.598412 
L 426.704943 341.332484 
L 427.918756 342.270451 
L 429.132569 345.836689 
L 430.346382 344.800106 
L 431.560196 343.242778 
L 432.774009 342.222928 
L 433.987822 340.288538 
L 435.201635 340.929319 
L 436.415448 340.962563 
L 437.629261 342.829795 
L 438.843074 343.687888 
L 440.056887 341.98509 
L 441.2707 340.089075 
L 442.484514 339.038213 
L 443.698327 337.589764 
L 444.91214 341.052254 
L 446.125953 341.617623 
L 447.339766 337.930903 
L 448.553579 339.332276 
L 449.767392 339.596219 
L 450.981205 335.388308 
L 452.195018 334.955915 
L 453.408831 335.871124 
L 454.622645 339.812861 
L 455.836458 338.87244 
L 457.050271 335.674785 
L 458.264084 333.55655 
L 459.477897 332.590024 
L 460.69171 330.851305 
L 461.905523 333.930041 
L 463.119336 335.852159 
L 464.333149 334.531107 
L 465.546963 324.977632 
L 466.760776 330.500125 
L 467.974589 324.267463 
L 469.188402 324.466703 
L 470.402215 324.890395 
L 471.616028 326.644063 
L 472.829841 326.594085 
L 474.043654 322.172209 
L 476.47128 317.628289 
L 477.685094 313.343404 
L 478.898907 316.965421 
L 480.11272 322.386174 
L 481.326533 318.440644 
L 482.540346 315.96052 
L 483.754159 314.589713 
L 484.967972 310.472609 
L 486.181785 308.365084 
L 487.395598 313.704178 
L 488.609412 320.871906 
L 489.823225 312.084378 
L 491.037038 314.265977 
L 492.250851 312.824443 
L 493.464664 328.114377 
L 494.678477 305.294156 
L 495.89229 315.974353 
L 497.106103 322.144989 
L 498.319916 317.842924 
L 499.533729 308.942054 
L 500.747543 309.302382 
L 501.961356 304.318706 
L 503.175169 300.800884 
L 504.388982 304.253334 
L 505.602795 313.531042 
L 506.816608 309.418847 
L 508.030421 302.527778 
L 509.244234 305.117897 
L 510.458047 300.684865 
L 511.671861 300.399057 
L 512.885674 303.625048 
L 514.099487 310.735213 
L 515.3133 306.31713 
L 516.527113 302.576194 
L 517.740926 301.011279 
L 518.954739 299.907986 
L 520.168552 298.261412 
L 521.382365 307.570802 
L 522.596179 311.726058 
L 523.809992 309.187701 
L 525.023805 307.362191 
L 526.237618 304.003448 
L 527.451431 306.079737 
L 528.665244 325.308062 
L 529.879057 304.638427 
L 531.09287 322.869883 
L 532.306683 314.26196 
L 533.520496 307.156034 
L 534.73431 304.448335 
L 535.948123 283.237205 
L 537.161936 313.737868 
L 538.375749 292.490371 
L 539.589562 307.932691 
L 540.803375 311.5585 
L 542.017188 301.476916 
L 544.444814 289.677362 
L 545.658628 285.671814 
L 546.872441 294.497941 
L 548.086254 306.459029 
L 549.300067 307.591105 
L 550.51388 303.662085 
L 552.941506 300.836582 
L 554.155319 298.783273 
L 555.369132 304.860871 
L 556.582945 313.974368 
L 557.796759 321.737808 
L 559.010572 318.24252 
L 560.224385 311.401206 
L 561.438198 310.400544 
L 562.652011 310.579704 
L 563.865824 313.727382 
L 565.079637 322.086533 
L 566.29345 324.261216 
L 567.507263 319.514487 
L 568.721077 318.64747 
L 569.93489 316.066722 
L 571.148703 316.838023 
L 572.362516 319.72756 
L 573.576329 328.16257 
L 574.790142 325.186689 
L 576.003955 327.057491 
L 577.217768 325.503955 
L 578.431581 325.457548 
L 579.645394 324.176656 
L 580.859208 327.343299 
L 582.073021 333.382075 
L 583.286834 334.708259 
L 584.500647 331.920239 
L 585.71446 331.920462 
L 586.928273 329.584915 
L 588.142086 331.060362 
L 589.355899 333.122372 
L 590.569712 338.059193 
L 591.783526 340.74235 
L 592.997339 339.92598 
L 594.211152 337.879587 
L 595.424965 337.153354 
L 596.638778 336.568575 
L 597.852591 336.882272 
L 599.066404 340.940698 
L 600.280217 340.7631 
L 601.49403 336.800836 
L 602.707844 336.537786 
L 603.921657 336.077504 
L 605.13547 336.554296 
L 606.349283 337.476645 
L 607.563096 341.75149 
L 608.776909 342.084598 
L 611.204535 338.307072 
L 612.418348 337.996722 
L 613.632161 338.280298 
L 614.845975 339.72317 
L 616.059788 344.007163 
L 617.273601 343.278922 
L 618.487414 340.820217 
L 619.701227 340.398087 
L 620.91504 339.494479 
L 622.128853 339.382253 
L 623.342666 340.720485 
L 624.556479 344.671816 
L 625.770293 341.769562 
L 626.984106 340.987551 
L 628.197919 339.914824 
L 629.411732 339.396979 
L 630.625545 339.684125 
L 631.839358 340.28006 
L 633.053171 345.375515 
L 634.266984 342.469022 
L 635.480797 341.502942 
L 636.69461 333.678369 
L 637.908424 338.239022 
L 639.122237 336.287007 
L 640.33605 339.046022 
L 641.549863 342.929304 
L 642.763676 338.399441 
L 643.977489 339.390509 
L 646.405115 336.129266 
L 647.618928 336.791688 
L 648.832742 338.886719 
L 650.046555 344.82688 
L 651.260368 338.045583 
L 652.474181 339.13259 
L 653.687994 336.371567 
L 656.11562 334.439631 
L 657.329433 337.581731 
L 658.543246 342.717123 
L 659.75706 339.166726 
L 660.970873 335.271396 
L 662.184686 336.567683 
L 663.398499 336.695303 
L 664.612312 334.809776 
L 665.826125 340.924187 
L 667.039938 343.498688 
L 668.253751 339.917501 
L 670.681377 338.838527 
L 671.895191 338.508543 
L 673.109004 339.292116 
L 674.322817 341.163811 
L 675.53663 345.599297 
L 677.964256 341.666707 
L 679.178069 340.810846 
L 680.391882 340.405003 
L 681.605695 340.394517 
L 682.819509 342.529485 
L 684.033322 346.45025 
L 685.247135 343.146616 
L 686.460948 343.742774 
L 687.674761 343.052908 
L 688.888574 343.028143 
L 690.102387 342.523684 
L 692.530013 348.202357 
L 693.743826 345.95427 
L 694.95764 345.403627 
L 696.171453 345.249233 
L 697.385266 344.824203 
L 698.599079 343.995115 
L 699.812892 346.477916 
L 701.026705 349.341572 
L 702.240518 347.575186 
L 703.454331 346.802992 
L 704.668144 346.790274 
L 705.881958 346.582779 
L 707.095771 346.877065 
L 709.523397 350.199887 
L 710.73721 348.327746 
L 711.951023 347.965634 
L 713.164836 347.837567 
L 714.378649 347.355643 
L 715.592462 348.383078 
L 716.806275 350.380832 
L 718.020089 351.668194 
L 719.233902 351.858956 
L 720.447715 348.568262 
L 721.661528 349.574725 
L 722.875341 349.263259 
L 724.089154 349.36299 
L 725.302967 349.893999 
L 726.51678 351.960026 
L 727.730593 350.108857 
L 728.944407 350.420769 
L 730.15822 349.213282 
L 731.372033 350.035899 
L 732.585846 347.806554 
L 733.799659 351.30742 
L 735.013472 352.154134 
L 736.227285 350.619117 
L 737.441098 350.900239 
L 738.654911 350.652584 
L 739.868725 350.706131 
L 741.082538 348.593474 
L 742.296351 351.293364 
L 743.510164 352.176668 
L 744.723977 350.880828 
L 745.93779 350.873242 
L 748.365416 350.108634 
L 749.579229 347.804992 
L 750.793042 351.254319 
L 752.006856 352.236017 
L 753.220669 350.201449 
L 754.434482 351.595905 
L 755.648295 349.865887 
L 756.862108 349.945092 
L 758.075921 346.667785 
L 759.289734 352.100587 
L 760.503547 352.323923 
L 761.71736 351.231562 
L 762.931174 348.2356 
L 764.144987 348.782004 
L 765.3588 348.617124 
L 766.572613 342.789412 
L 767.786426 351.043254 
L 769.000239 350.651691 
L 770.214052 346.651498 
L 771.427865 347.36903 
L 772.641678 346.325084 
L 773.855491 346.145924 
L 775.069305 335.863092 
L 776.283118 350.142547 
L 777.496931 348.730688 
L 778.710744 342.288523 
L 779.924557 344.368383 
L 782.352183 340.678763 
L 783.565996 326.316756 
L 784.779809 346.74052 
L 785.993623 346.88889 
L 787.207436 335.70959 
L 788.421249 338.768916 
L 789.635062 336.858622 
L 790.848875 337.131713 
L 792.062688 310.610716 
L 793.276501 343.330684 
L 794.490314 343.151301 
L 795.704127 329.234851 
L 796.91794 331.438984 
L 798.131754 330.395931 
L 799.345567 328.833024 
L 800.55938 297.069319 
L 801.773193 339.041337 
L 802.987006 345.313266 
L 804.200819 317.882192 
L 805.414632 326.916707 
L 806.628445 318.779553 
L 807.842258 321.190958 
L 809.056072 302.642235 
L 810.269885 336.741711 
L 811.483698 342.596419 
L 812.697511 310.081938 
L 813.911324 319.573389 
L 815.125137 315.938655 
L 816.33895 318.620696 
L 817.552763 299.859793 
L 818.766576 332.413096 
L 819.98039 343.155094 
L 821.194203 307.223415 
L 822.408016 318.696108 
L 823.621829 313.308599 
L 824.835642 312.273131 
L 826.049455 300.088038 
L 827.263268 335.395893 
L 828.477081 341.41102 
L 829.690894 302.364237 
L 830.904707 313.153758 
L 832.118521 310.736998 
L 833.332334 313.327786 
L 834.546147 300.778572 
L 835.75996 333.797735 
L 836.973773 338.843659 
L 838.187586 333.225896 
L 839.401399 306.312667 
L 840.615212 313.660225 
L 841.829025 316.090372 
L 843.042839 299.323429 
L 844.256652 333.094706 
L 845.470465 342.215342 
L 846.684278 306.867103 
L 847.898091 320.833531 
L 849.111904 314.582797 
L 850.325717 317.887547 
L 851.53953 306.260013 
L 852.753343 336.278975 
L 853.967156 343.011633 
L 855.18097 315.462755 
L 856.394783 326.088958 
L 857.608596 323.884155 
L 858.822409 324.486114 
L 860.036222 314.303236 
L 861.250035 339.489348 
L 862.463848 340.864393 
L 863.677661 318.919221 
L 864.891474 328.023347 
L 866.105288 326.053706 
L 867.319101 328.714105 
L 868.532914 318.713511 
L 869.746727 342.180314 
L 870.96054 342.961655 
L 872.174353 321.885062 
L 873.388166 331.96977 
L 874.601979 328.092735 
L 875.815792 330.730377 
L 877.029606 324.130249 
L 878.243419 344.286054 
L 879.457232 344.129206 
L 880.671045 332.54384 
L 881.884858 328.517096 
L 883.098671 329.085588 
L 884.312484 334.061231 
L 885.526297 328.98898 
L 886.74011 344.05357 
L 887.953923 345.874619 
L 889.167737 331.708951 
L 890.38155 334.837442 
L 891.595363 332.679046 
L 892.809176 336.034443 
L 894.022989 331.86156 
L 895.236802 345.630087 
L 896.450615 348.600836 
L 897.664428 328.845742 
L 898.878241 338.186145 
L 900.092055 330.400393 
L 901.305868 336.646665 
L 902.519681 332.117025 
L 903.733494 345.189439 
L 904.947307 345.688319 
L 906.16112 328.762298 
L 907.374933 337.651789 
L 908.588746 333.914869 
L 909.802559 335.146676 
L 911.016372 331.602749 
L 912.230186 344.964764 
L 913.443999 344.580786 
L 914.657812 329.319634 
L 915.871625 335.447432 
L 917.085438 332.026218 
L 918.299251 340.440925 
L 919.513064 321.115099 
L 920.726877 342.979504 
L 921.94069 345.71844 
L 923.154504 324.024493 
L 924.368317 333.645349 
L 925.58213 328.167925 
L 926.795943 329.058369 
L 928.009756 325.103914 
L 929.223569 342.749921 
L 930.437382 344.017426 
L 931.651195 321.816121 
L 932.865008 332.832102 
L 934.078821 328.429413 
L 935.292635 344.942229 
L 936.506448 341.075012 
L 937.720261 346.940206 
L 938.934074 343.217566 
L 940.147887 311.962335 
L 941.3617 327.053252 
L 942.575513 322.71772 
L 943.789326 322.441283 
L 945.003139 318.032793 
L 946.216953 338.12992 
L 947.430766 340.682333 
L 948.644579 314.203059 
L 949.858392 328.215671 
L 951.072205 319.937732 
L 952.286018 325.658573 
L 953.499831 318.133194 
L 954.713644 340.422183 
L 955.927457 341.369075 
L 957.141271 312.352113 
L 958.355084 328.013307 
L 959.568897 320.764143 
L 960.78271 321.589661 
L 961.996523 310.300143 
L 963.210336 335.083758 
L 964.424149 332.994974 
L 965.637962 299.444803 
L 966.851775 312.634128 
L 968.065588 297.944591 
L 969.279402 292.114648 
L 970.493215 297.902869 
L 971.707028 333.584885 
L 972.920841 312.248812 
L 974.134654 240.358233 
L 975.348467 270.173493 
L 976.56228 239.133566 
L 977.776093 219.923759 
L 978.989906 239.073771 
L 980.20372 310.464354 
L 981.417533 287.211071 
L 982.631346 120.389926 
L 983.845159 168.461407 
L 985.058972 202.343347 
L 986.272785 165.051348 
L 987.486598 156.980681 
L 988.700411 262.394658 
L 989.914224 243.29083 
L 991.128037 50.8755 
L 992.341851 177.780167 
L 993.555664 162.624771 
L 994.769477 160.498504 
L 995.98329 156.976665 
L 997.197103 260.521178 
L 998.410916 244.923571 
L 999.624729 206.179106 
L 1000.838542 100.201769 
L 1002.052355 150.093629 
L 1003.266169 190.507426 
L 1004.479982 168.775104 
L 1005.693795 284.578784 
L 1006.907608 270.768535 
L 1008.121421 149.975602 
L 1009.335234 243.41265 
L 1010.549047 202.088775 
L 1011.76286 241.050106 
L 1012.976673 216.472647 
L 1014.190486 312.773127 
L 1015.4043 308.57191 
L 1016.618113 233.544139 
L 1017.831926 280.427097 
L 1019.045739 280.149321 
L 1020.259552 292.29537 
L 1021.473365 274.054097 
L 1022.687178 333.665206 
L 1023.900991 334.368904 
L 1025.114804 276.65738 
L 1026.328618 305.561669 
L 1027.542431 311.448729 
L 1028.756244 315.267977 
L 1029.970057 306.76224 
L 1031.18387 341.538641 
L 1032.397683 340.100231 
L 1033.611496 315.876852 
L 1034.825309 328.621736 
L 1036.039122 327.859806 
L 1037.252936 330.806013 
L 1038.466749 321.152582 
L 1039.680562 346.146593 
L 1040.894375 348.032791 
L 1042.108188 335.447209 
L 1043.322001 333.377613 
L 1044.535814 334.506342 
L 1045.749627 338.446964 
L 1046.96344 336.836088 
L 1048.177253 342.629886 
L 1049.391067 349.145232 
L 1050.60488 331.654065 
L 1051.818693 342.922164 
L 1053.032506 341.435116 
L 1054.246319 342.464336 
L 1055.460132 341.965456 
L 1056.673945 349.883736 
L 1057.887758 350.464499 
L 1059.101571 339.54401 
L 1060.315385 346.703483 
L 1061.529198 345.015187 
L 1062.743011 343.069419 
L 1063.956824 342.376876 
L 1065.170637 350.942407 
L 1066.38445 350.759232 
L 1067.598263 345.569846 
L 1068.812076 348.034799 
L 1070.025889 341.843859 
L 1071.239702 341.6705 
L 1073.667329 350.802515 
L 1074.881142 350.67601 
L 1076.094955 344.022334 
L 1077.308768 348.545951 
L 1078.522581 344.369052 
L 1080.950207 343.360358 
L 1082.16402 351.116659 
L 1083.377834 350.593682 
L 1084.591647 344.862578 
L 1085.80546 348.091693 
L 1087.019273 344.769317 
L 1088.233086 343.349203 
L 1089.446899 346.320845 
L 1090.660712 350.593905 
L 1091.874525 352.162389 
L 1093.088338 344.769763 
L 1094.302152 347.704815 
L 1095.515965 344.368606 
L 1096.729778 342.191915 
L 1097.943591 336.943628 
L 1099.157404 350.364098 
L 1100.371217 351.085869 
L 1101.58503 344.769986 
L 1102.798843 345.419022 
L 1104.012656 340.76667 
L 1105.226469 342.596866 
L 1106.440283 347.944884 
L 1107.654096 348.122705 
L 1108.867909 351.508445 
L 1110.081722 339.984435 
L 1111.295535 344.688773 
L 1112.509348 338.147769 
L 1113.723161 339.785195 
L 1114.936974 333.451464 
L 1116.150787 348.753223 
L 1117.364601 350.158388 
L 1118.578414 338.043352 
L 1119.792227 343.20284 
L 1121.00604 333.23616 
L 1122.219853 336.07148 
L 1123.433666 339.60492 
L 1124.647479 347.778442 
L 1125.861292 349.404489 
L 1127.075105 332.325412 
L 1128.288918 342.137699 
L 1129.502732 328.20987 
L 1130.716545 333.569937 
L 1131.930358 324.471611 
L 1133.144171 346.878181 
L 1134.357984 351.804516 
L 1135.571797 324.447515 
L 1136.78561 337.498064 
L 1137.999423 317.347167 
L 1139.213236 329.744664 
L 1140.42705 333.793496 
L 1141.640863 349.235147 
L 1142.854676 345.887113 
L 1144.068489 313.795431 
L 1145.282302 334.207147 
L 1146.496115 307.788114 
L 1147.709928 323.053282 
L 1148.923741 320.060667 
L 1150.137554 347.008925 
L 1151.351367 350.295603 
L 1152.565181 320.022069 
L 1153.778994 334.567475 
L 1154.992807 306.256666 
L 1156.20662 323.088534 
L 1157.420433 329.156538 
L 1158.634246 350.112204 
L 1159.848059 351.70233 
L 1161.061872 339.343209 
L 1162.275685 315.945348 
L 1163.489499 302.196902 
L 1164.703312 326.031394 
L 1165.917125 318.224671 
L 1167.130938 347.022981 
L 1168.344751 349.647236 
L 1169.558564 317.640338 
L 1170.772377 333.898582 
L 1171.98619 308.901224 
L 1173.200003 323.912044 
L 1174.413817 329.550779 
L 1175.62763 345.417683 
L 1176.841443 349.315914 
L 1178.055256 319.422341 
L 1179.269069 333.159855 
L 1180.482882 311.969921 
L 1181.696695 324.340644 
L 1182.910508 322.253199 
L 1184.124321 349.336217 
L 1185.338134 349.251434 
L 1186.551948 331.854421 
L 1187.765761 328.438114 
L 1188.979574 311.861488 
L 1190.193387 322.411832 
L 1191.4072 327.064408 
L 1192.621013 344.160888 
L 1193.834826 348.313021 
L 1195.048639 317.535921 
L 1196.262452 331.447463 
L 1197.476266 310.840523 
L 1198.690079 315.936424 
L 1199.903892 318.193435 
L 1201.117705 348.754784 
L 1202.331518 351.400458 
L 1204.759144 321.622458 
L 1205.972957 308.504529 
L 1207.18677 322.312993 
L 1208.400583 322.473411 
L 1209.614397 346.82508 
L 1210.82821 347.811463 
L 1212.042023 308.375793 
L 1213.255836 320.221978 
L 1214.469649 307.629034 
L 1215.683462 314.222246 
L 1216.897275 319.001327 
L 1218.111088 344.547989 
L 1219.324901 346.680726 
L 1220.538715 316.416786 
L 1221.752528 327.125318 
L 1222.966341 304.944762 
L 1225.393967 323.837524 
L 1226.60778 347.4257 
L 1227.821593 348.102625 
L 1229.035406 310.90701 
L 1230.249219 323.794687 
L 1231.463032 299.724364 
L 1232.676846 313.792754 
L 1233.890659 317.616911 
L 1235.104472 349.715732 
L 1236.318285 350.386187 
L 1237.532098 315.32264 
L 1238.745911 332.996982 
L 1239.959724 308.515016 
L 1241.173537 311.546006 
L 1242.38735 329.509057 
L 1243.601164 349.947546 
L 1244.814977 350.480117 
L 1246.02879 318.552424 
L 1247.242603 331.021986 
L 1248.456416 309.444058 
L 1249.670229 316.995764 
L 1250.884042 331.60565 
L 1252.097855 334.614998 
L 1253.311668 351.109742 
L 1254.525482 325.80962 
L 1255.739295 332.786141 
L 1256.953108 322.715712 
L 1258.166921 320.041033 
L 1260.594547 350.816348 
L 1261.80836 351.096578 
L 1263.022173 324.457555 
L 1264.235986 331.120156 
L 1265.449799 319.403153 
L 1266.663613 322.154137 
L 1267.877426 326.298238 
L 1269.091239 350.662624 
L 1270.305052 351.400012 
L 1271.518865 329.585808 
L 1272.732678 336.379599 
L 1273.946491 318.815697 
L 1275.160304 324.14609 
L 1276.374117 338.85526 
L 1277.587931 350.743391 
L 1278.801744 351.622679 
L 1280.015557 345.783589 
L 1281.22937 328.136689 
L 1282.443183 325.611273 
L 1283.656996 329.300223 
L 1284.870809 330.735286 
L 1286.084622 351.029421 
L 1287.298435 351.275515 
L 1288.512248 337.767585 
L 1289.726062 335.496071 
L 1290.939875 330.160324 
L 1292.153688 334.693311 
L 1293.367501 340.68568 
L 1294.581314 351.386179 
L 1295.795127 352.075821 
L 1297.00894 340.869748 
L 1298.222753 337.877356 
L 1299.436566 331.36915 
L 1300.65038 335.257786 
L 1301.864193 334.701343 
L 1303.078006 351.147225 
L 1304.291819 351.816341 
L 1305.505632 343.184322 
L 1306.719445 339.72674 
L 1307.933258 333.955476 
L 1309.147071 334.493401 
L 1310.360884 345.803669 
L 1311.574697 351.524955 
L 1312.788511 352.072698 
L 1314.002324 344.332908 
L 1315.216137 341.151093 
L 1316.42995 337.398333 
L 1317.643763 342.719578 
L 1318.857576 336.889189 
L 1320.071389 351.644544 
L 1320.071389 351.644544 
" clip-path="url(#p1904f49937)" style="fill: none; stroke: #0000ff; stroke-width: 1.5; stroke-linecap: square"/>
   </g>
   <g id="line2d_19">
    <path d="M 1080.950207 346.318194 
L 1082.16402 350.378636 
L 1083.377834 350.593814 
L 1084.591647 344.557045 
L 1085.80546 348.398137 
L 1087.019273 344.756274 
L 1088.233086 344.468194 
L 1089.446899 344.573417 
L 1090.660712 350.767804 
L 1091.874525 350.266244 
L 1093.088338 346.100712 
L 1094.302152 348.563103 
L 1095.515965 345.768124 
L 1096.729778 344.258422 
L 1097.943591 345.530219 
L 1099.157404 347.576324 
L 1100.371217 348.756048 
L 1101.58503 342.408346 
L 1102.798843 346.246188 
L 1104.012656 343.435231 
L 1105.226469 341.664404 
L 1106.440283 339.291546 
L 1107.654096 349.633624 
L 1108.867909 350.162624 
L 1110.081722 346.46687 
L 1111.295535 345.543152 
L 1112.509348 342.301512 
L 1113.723161 340.834176 
L 1114.936974 343.033674 
L 1116.150787 343.015396 
L 1117.364601 346.455077 
L 1118.578414 337.769177 
L 1119.792227 342.098077 
L 1121.00604 337.842212 
L 1122.219853 337.868724 
L 1123.433666 334.832207 
L 1124.647479 344.518132 
L 1125.861292 346.609904 
L 1127.075105 338.743859 
L 1128.288918 341.369229 
L 1129.502732 334.897756 
L 1130.716545 334.225667 
L 1131.930358 335.614466 
L 1133.144171 339.433861 
L 1134.357984 342.711602 
L 1135.571797 330.610599 
L 1136.78561 337.496299 
L 1137.999423 328.523407 
L 1139.213236 328.364991 
L 1140.42705 324.342357 
L 1141.640863 339.422146 
L 1142.854676 345.490938 
L 1144.068489 327.739208 
L 1145.282302 335.064572 
L 1146.496115 320.34942 
L 1147.709928 323.479001 
L 1148.923741 324.682011 
L 1150.137554 334.771622 
L 1151.351367 337.176476 
L 1152.565181 315.482512 
L 1153.778994 332.833926 
L 1154.992807 315.48127 
L 1156.20662 324.649394 
L 1157.420433 323.09171 
L 1158.634246 342.038501 
L 1159.848059 345.558968 
L 1161.061872 323.596557 
L 1162.275685 340.587035 
L 1163.489499 313.987052 
L 1164.703312 326.394441 
L 1165.917125 324.857231 
L 1167.130938 340.396808 
L 1168.344751 343.411136 
L 1169.558564 329.409769 
L 1171.98619 308.53857 
L 1173.200003 323.818208 
L 1174.413817 323.275111 
L 1175.62763 345.348388 
L 1176.841443 347.440616 
L 1178.055256 326.548677 
L 1179.269069 330.841681 
L 1180.482882 313.424519 
L 1181.696695 325.560577 
L 1182.910508 328.062198 
L 1184.124321 341.798051 
L 1185.338134 346.186797 
L 1186.551948 322.476128 
L 1187.765761 335.576712 
L 1188.979574 316.559179 
L 1190.193387 328.016825 
L 1191.4072 324.758904 
L 1192.621013 344.8231 
L 1193.834826 344.710738 
L 1195.048639 329.161734 
L 1196.262452 327.347728 
L 1197.476266 314.324644 
L 1198.690079 320.860487 
L 1199.903892 323.39069 
L 1201.117705 337.01615 
L 1202.331518 341.708171 
L 1203.545331 320.877032 
L 1204.759144 334.335775 
L 1205.972957 316.383305 
L 1207.18677 322.409126 
L 1208.400583 321.860206 
L 1209.614397 343.342296 
L 1210.82821 346.529225 
L 1212.042023 331.527809 
L 1213.255836 321.200482 
L 1214.469649 308.873671 
L 1215.683462 314.478467 
L 1216.897275 316.027755 
L 1218.111088 336.581307 
L 1219.324901 339.688559 
L 1220.538715 315.013032 
L 1221.752528 321.215282 
L 1222.966341 312.521694 
L 1224.180154 317.364955 
L 1225.393967 320.440954 
L 1226.60778 340.257786 
L 1227.821593 343.334809 
L 1229.035406 319.833256 
L 1230.249219 326.233105 
L 1231.463032 310.501002 
L 1232.676846 313.730029 
L 1233.890659 320.131587 
L 1235.104472 337.353401 
L 1236.318285 341.48954 
L 1237.532098 314.495145 
L 1238.745911 326.188714 
L 1239.959724 310.240826 
L 1241.173537 319.747932 
L 1242.38735 323.056615 
L 1243.601164 347.802585 
L 1244.814977 347.797916 
L 1246.02879 321.402051 
L 1247.242603 333.481252 
L 1248.456416 314.090771 
L 1249.670229 317.28474 
L 1250.884042 328.272753 
L 1252.097855 347.124418 
L 1253.311668 344.943032 
L 1254.525482 320.347392 
L 1255.739295 330.389453 
L 1256.953108 314.504417 
L 1258.166921 322.40582 
L 1259.380734 333.71084 
L 1260.594547 342.819281 
L 1261.80836 353.227916 
L 1263.022173 331.012373 
L 1264.235986 337.84408 
L 1265.449799 324.574616 
L 1266.663613 322.867744 
L 1267.877426 334.3478 
L 1269.091239 342.560849 
L 1270.305052 347.525687 
L 1271.518865 325.456168 
L 1272.732678 333.911569 
L 1273.946491 324.65849 
L 1275.160304 325.512694 
L 1276.374117 331.560089 
L 1277.587931 349.069117 
L 1278.801744 350.823814 
L 1280.015557 333.273975 
L 1281.22937 341.613685 
L 1282.443183 325.846695 
L 1283.656996 331.174859 
L 1284.870809 338.198846 
L 1286.084622 349.064604 
L 1287.298435 349.947429 
L 1288.512248 340.194741 
L 1289.726062 332.146899 
L 1290.939875 327.573996 
L 1292.153688 330.895037 
L 1293.367501 336.270477 
L 1294.581314 352.393451 
L 1295.795127 353.078141 
L 1297.00894 343.098728 
L 1299.436566 333.683873 
L 1300.65038 336.329547 
L 1301.864193 340.619101 
L 1303.078006 349.510599 
L 1304.291819 350.346101 
L 1305.505632 340.3805 
L 1306.719445 338.693917 
L 1307.933258 333.963672 
L 1309.147071 337.600614 
L 1310.360884 338.029292 
L 1311.574697 352.163696 
L 1312.788511 352.054612 
L 1314.002324 345.682789 
L 1315.216137 342.10343 
L 1316.42995 337.257238 
L 1317.643763 338.346456 
L 1318.857576 345.871831 
L 1320.071389 350.900717 
L 1320.071389 350.900717 
" clip-path="url(#p1904f49937)" style="fill: none; stroke: #ffa500; stroke-width: 1.5; stroke-linecap: square"/>
   </g>
   <g id="line2d_20">
    <path d="M 1321.285202 352.217191 
L 1322.499015 343.973517 
L 1323.712829 341.910094 
L 1324.926642 338.202035 
L 1326.140455 341.599749 
L 1327.354268 340.400289 
L 1328.568081 350.762873 
L 1329.781894 351.229812 
L 1330.995707 344.58179 
L 1332.20952 342.623138 
L 1333.423333 339.466919 
L 1334.637147 342.399487 
L 1335.85096 341.339443 
L 1337.064773 350.311979 
" clip-path="url(#p1904f49937)" style="fill: none; stroke: #ff0000; stroke-width: 1.5; stroke-linecap: square"/>
   </g>
   <g id="patch_3">
    <path d="M 58.7375 368.3955 
L 58.7375 35.7555 
" style="fill: none; stroke: #000000; stroke-width: 0.8; stroke-linejoin: miter; stroke-linecap: square"/>
   </g>
   <g id="patch_4">
    <path d="M 1397.9375 368.3955 
L 1397.9375 35.7555 
" style="fill: none; stroke: #000000; stroke-width: 0.8; stroke-linejoin: miter; stroke-linecap: square"/>
   </g>
   <g id="patch_5">
    <path d="M 58.7375 368.3955 
L 1397.9375 368.3955 
" style="fill: none; stroke: #000000; stroke-width: 0.8; stroke-linejoin: miter; stroke-linecap: square"/>
   </g>
   <g id="patch_6">
    <path d="M 58.7375 35.7555 
L 1397.9375 35.7555 
" style="fill: none; stroke: #000000; stroke-width: 0.8; stroke-linejoin: miter; stroke-linecap: square"/>
   </g>
   <g id="text_18">
    <!-- Daily Confirmed Cases Forecasting - US -->
    <g transform="translate(609.636875 16.318125)scale(0.12 -0.12)">
     <defs>
      <path id="DejaVuSans-44" d="M 1259 4147 
L 1259 519 
L 2022 519 
Q 2988 519 3436 956 
Q 3884 1394 3884 2338 
Q 3884 3275 3436 3711 
Q 2988 4147 2022 4147 
L 1259 4147 
z
M 628 4666 
L 1925 4666 
Q 3281 4666 3915 4102 
Q 4550 3538 4550 2338 
Q 4550 1131 3912 565 
Q 3275 0 1925 0 
L 628 0 
L 628 4666 
z
" transform="scale(0.015625)"/>
      <path id="DejaVuSans-61" d="M 2194 1759 
Q 1497 1759 1228 1600 
Q 959 1441 959 1056 
Q 959 750 1161 570 
Q 1363 391 1709 391 
Q 2188 391 2477 730 
Q 2766 1069 2766 1631 
L 2766 1759 
L 2194 1759 
z
M 3341 1997 
L 3341 0 
L 2766 0 
L 2766 531 
Q 2569 213 2275 61 
Q 1981 -91 1556 -91 
Q 1019 -91 701 211 
Q 384 513 384 1019 
Q 384 1609 779 1909 
Q 1175 2209 1959 2209 
L 2766 2209 
L 2766 2266 
Q 2766 2663 2505 2880 
Q 2244 3097 1772 3097 
Q 1472 3097 1187 3025 
Q 903 2953 641 2809 
L 641 3341 
Q 956 3463 1253 3523 
Q 1550 3584 1831 3584 
Q 2591 3584 2966 3190 
Q 3341 2797 3341 1997 
z
" transform="scale(0.015625)"/>
      <path id="DejaVuSans-69" d="M 603 3500 
L 1178 3500 
L 1178 0 
L 603 0 
L 603 3500 
z
M 603 4863 
L 1178 4863 
L 1178 4134 
L 603 4134 
L 603 4863 
z
" transform="scale(0.015625)"/>
      <path id="DejaVuSans-6c" d="M 603 4863 
L 1178 4863 
L 1178 0 
L 603 0 
L 603 4863 
z
" transform="scale(0.015625)"/>
      <path id="DejaVuSans-79" d="M 2059 -325 
Q 1816 -950 1584 -1140 
Q 1353 -1331 966 -1331 
L 506 -1331 
L 506 -850 
L 844 -850 
Q 1081 -850 1212 -737 
Q 1344 -625 1503 -206 
L 1606 56 
L 191 3500 
L 800 3500 
L 1894 763 
L 2988 3500 
L 3597 3500 
L 2059 -325 
z
" transform="scale(0.015625)"/>
      <path id="DejaVuSans-20" transform="scale(0.015625)"/>
      <path id="DejaVuSans-43" d="M 4122 4306 
L 4122 3641 
Q 3803 3938 3442 4084 
Q 3081 4231 2675 4231 
Q 1875 4231 1450 3742 
Q 1025 3253 1025 2328 
Q 1025 1406 1450 917 
Q 1875 428 2675 428 
Q 3081 428 3442 575 
Q 3803 722 4122 1019 
L 4122 359 
Q 3791 134 3420 21 
Q 3050 -91 2638 -91 
Q 1578 -91 968 557 
Q 359 1206 359 2328 
Q 359 3453 968 4101 
Q 1578 4750 2638 4750 
Q 3056 4750 3426 4639 
Q 3797 4528 4122 4306 
z
" transform="scale(0.015625)"/>
      <path id="DejaVuSans-6f" d="M 1959 3097 
Q 1497 3097 1228 2736 
Q 959 2375 959 1747 
Q 959 1119 1226 758 
Q 1494 397 1959 397 
Q 2419 397 2687 759 
Q 2956 1122 2956 1747 
Q 2956 2369 2687 2733 
Q 2419 3097 1959 3097 
z
M 1959 3584 
Q 2709 3584 3137 3096 
Q 3566 2609 3566 1747 
Q 3566 888 3137 398 
Q 2709 -91 1959 -91 
Q 1206 -91 779 398 
Q 353 888 353 1747 
Q 353 2609 779 3096 
Q 1206 3584 1959 3584 
z
" transform="scale(0.015625)"/>
      <path id="DejaVuSans-6e" d="M 3513 2113 
L 3513 0 
L 2938 0 
L 2938 2094 
Q 2938 2591 2744 2837 
Q 2550 3084 2163 3084 
Q 1697 3084 1428 2787 
Q 1159 2491 1159 1978 
L 1159 0 
L 581 0 
L 581 3500 
L 1159 3500 
L 1159 2956 
Q 1366 3272 1645 3428 
Q 1925 3584 2291 3584 
Q 2894 3584 3203 3211 
Q 3513 2838 3513 2113 
z
" transform="scale(0.015625)"/>
      <path id="DejaVuSans-66" d="M 2375 4863 
L 2375 4384 
L 1825 4384 
Q 1516 4384 1395 4259 
Q 1275 4134 1275 3809 
L 1275 3500 
L 2222 3500 
L 2222 3053 
L 1275 3053 
L 1275 0 
L 697 0 
L 697 3053 
L 147 3053 
L 147 3500 
L 697 3500 
L 697 3744 
Q 697 4328 969 4595 
Q 1241 4863 1831 4863 
L 2375 4863 
z
" transform="scale(0.015625)"/>
      <path id="DejaVuSans-72" d="M 2631 2963 
Q 2534 3019 2420 3045 
Q 2306 3072 2169 3072 
Q 1681 3072 1420 2755 
Q 1159 2438 1159 1844 
L 1159 0 
L 581 0 
L 581 3500 
L 1159 3500 
L 1159 2956 
Q 1341 3275 1631 3429 
Q 1922 3584 2338 3584 
Q 2397 3584 2469 3576 
Q 2541 3569 2628 3553 
L 2631 2963 
z
" transform="scale(0.015625)"/>
      <path id="DejaVuSans-6d" d="M 3328 2828 
Q 3544 3216 3844 3400 
Q 4144 3584 4550 3584 
Q 5097 3584 5394 3201 
Q 5691 2819 5691 2113 
L 5691 0 
L 5113 0 
L 5113 2094 
Q 5113 2597 4934 2840 
Q 4756 3084 4391 3084 
Q 3944 3084 3684 2787 
Q 3425 2491 3425 1978 
L 3425 0 
L 2847 0 
L 2847 2094 
Q 2847 2600 2669 2842 
Q 2491 3084 2119 3084 
Q 1678 3084 1418 2786 
Q 1159 2488 1159 1978 
L 1159 0 
L 581 0 
L 581 3500 
L 1159 3500 
L 1159 2956 
Q 1356 3278 1631 3431 
Q 1906 3584 2284 3584 
Q 2666 3584 2933 3390 
Q 3200 3197 3328 2828 
z
" transform="scale(0.015625)"/>
      <path id="DejaVuSans-65" d="M 3597 1894 
L 3597 1613 
L 953 1613 
Q 991 1019 1311 708 
Q 1631 397 2203 397 
Q 2534 397 2845 478 
Q 3156 559 3463 722 
L 3463 178 
Q 3153 47 2828 -22 
Q 2503 -91 2169 -91 
Q 1331 -91 842 396 
Q 353 884 353 1716 
Q 353 2575 817 3079 
Q 1281 3584 2069 3584 
Q 2775 3584 3186 3129 
Q 3597 2675 3597 1894 
z
M 3022 2063 
Q 3016 2534 2758 2815 
Q 2500 3097 2075 3097 
Q 1594 3097 1305 2825 
Q 1016 2553 972 2059 
L 3022 2063 
z
" transform="scale(0.015625)"/>
      <path id="DejaVuSans-64" d="M 2906 2969 
L 2906 4863 
L 3481 4863 
L 3481 0 
L 2906 0 
L 2906 525 
Q 2725 213 2448 61 
Q 2172 -91 1784 -91 
Q 1150 -91 751 415 
Q 353 922 353 1747 
Q 353 2572 751 3078 
Q 1150 3584 1784 3584 
Q 2172 3584 2448 3432 
Q 2725 3281 2906 2969 
z
M 947 1747 
Q 947 1113 1208 752 
Q 1469 391 1925 391 
Q 2381 391 2643 752 
Q 2906 1113 2906 1747 
Q 2906 2381 2643 2742 
Q 2381 3103 1925 3103 
Q 1469 3103 1208 2742 
Q 947 2381 947 1747 
z
" transform="scale(0.015625)"/>
      <path id="DejaVuSans-73" d="M 2834 3397 
L 2834 2853 
Q 2591 2978 2328 3040 
Q 2066 3103 1784 3103 
Q 1356 3103 1142 2972 
Q 928 2841 928 2578 
Q 928 2378 1081 2264 
Q 1234 2150 1697 2047 
L 1894 2003 
Q 2506 1872 2764 1633 
Q 3022 1394 3022 966 
Q 3022 478 2636 193 
Q 2250 -91 1575 -91 
Q 1294 -91 989 -36 
Q 684 19 347 128 
L 347 722 
Q 666 556 975 473 
Q 1284 391 1588 391 
Q 1994 391 2212 530 
Q 2431 669 2431 922 
Q 2431 1156 2273 1281 
Q 2116 1406 1581 1522 
L 1381 1569 
Q 847 1681 609 1914 
Q 372 2147 372 2553 
Q 372 3047 722 3315 
Q 1072 3584 1716 3584 
Q 2034 3584 2315 3537 
Q 2597 3491 2834 3397 
z
" transform="scale(0.015625)"/>
      <path id="DejaVuSans-46" d="M 628 4666 
L 3309 4666 
L 3309 4134 
L 1259 4134 
L 1259 2759 
L 3109 2759 
L 3109 2228 
L 1259 2228 
L 1259 0 
L 628 0 
L 628 4666 
z
" transform="scale(0.015625)"/>
      <path id="DejaVuSans-63" d="M 3122 3366 
L 3122 2828 
Q 2878 2963 2633 3030 
Q 2388 3097 2138 3097 
Q 1578 3097 1268 2742 
Q 959 2388 959 1747 
Q 959 1106 1268 751 
Q 1578 397 2138 397 
Q 2388 397 2633 464 
Q 2878 531 3122 666 
L 3122 134 
Q 2881 22 2623 -34 
Q 2366 -91 2075 -91 
Q 1284 -91 818 406 
Q 353 903 353 1747 
Q 353 2603 823 3093 
Q 1294 3584 2113 3584 
Q 2378 3584 2631 3529 
Q 2884 3475 3122 3366 
z
" transform="scale(0.015625)"/>
      <path id="DejaVuSans-74" d="M 1172 4494 
L 1172 3500 
L 2356 3500 
L 2356 3053 
L 1172 3053 
L 1172 1153 
Q 1172 725 1289 603 
Q 1406 481 1766 481 
L 2356 481 
L 2356 0 
L 1766 0 
Q 1100 0 847 248 
Q 594 497 594 1153 
L 594 3053 
L 172 3053 
L 172 3500 
L 594 3500 
L 594 4494 
L 1172 4494 
z
" transform="scale(0.015625)"/>
      <path id="DejaVuSans-67" d="M 2906 1791 
Q 2906 2416 2648 2759 
Q 2391 3103 1925 3103 
Q 1463 3103 1205 2759 
Q 947 2416 947 1791 
Q 947 1169 1205 825 
Q 1463 481 1925 481 
Q 2391 481 2648 825 
Q 2906 1169 2906 1791 
z
M 3481 434 
Q 3481 -459 3084 -895 
Q 2688 -1331 1869 -1331 
Q 1566 -1331 1297 -1286 
Q 1028 -1241 775 -1147 
L 775 -588 
Q 1028 -725 1275 -790 
Q 1522 -856 1778 -856 
Q 2344 -856 2625 -561 
Q 2906 -266 2906 331 
L 2906 616 
Q 2728 306 2450 153 
Q 2172 0 1784 0 
Q 1141 0 747 490 
Q 353 981 353 1791 
Q 353 2603 747 3093 
Q 1141 3584 1784 3584 
Q 2172 3584 2450 3431 
Q 2728 3278 2906 2969 
L 2906 3500 
L 3481 3500 
L 3481 434 
z
" transform="scale(0.015625)"/>
      <path id="DejaVuSans-55" d="M 556 4666 
L 1191 4666 
L 1191 1831 
Q 1191 1081 1462 751 
Q 1734 422 2344 422 
Q 2950 422 3222 751 
Q 3494 1081 3494 1831 
L 3494 4666 
L 4128 4666 
L 4128 1753 
Q 4128 841 3676 375 
Q 3225 -91 2344 -91 
Q 1459 -91 1007 375 
Q 556 841 556 1753 
L 556 4666 
z
" transform="scale(0.015625)"/>
      <path id="DejaVuSans-53" d="M 3425 4513 
L 3425 3897 
Q 3066 4069 2747 4153 
Q 2428 4238 2131 4238 
Q 1616 4238 1336 4038 
Q 1056 3838 1056 3469 
Q 1056 3159 1242 3001 
Q 1428 2844 1947 2747 
L 2328 2669 
Q 3034 2534 3370 2195 
Q 3706 1856 3706 1288 
Q 3706 609 3251 259 
Q 2797 -91 1919 -91 
Q 1588 -91 1214 -16 
Q 841 59 441 206 
L 441 856 
Q 825 641 1194 531 
Q 1563 422 1919 422 
Q 2459 422 2753 634 
Q 3047 847 3047 1241 
Q 3047 1584 2836 1778 
Q 2625 1972 2144 2069 
L 1759 2144 
Q 1053 2284 737 2584 
Q 422 2884 422 3419 
Q 422 4038 858 4394 
Q 1294 4750 2059 4750 
Q 2388 4750 2728 4690 
Q 3069 4631 3425 4513 
z
" transform="scale(0.015625)"/>
     </defs>
     <use xlink:href="#DejaVuSans-44"/>
     <use xlink:href="#DejaVuSans-61" x="77.001953"/>
     <use xlink:href="#DejaVuSans-69" x="138.28125"/>
     <use xlink:href="#DejaVuSans-6c" x="166.064453"/>
     <use xlink:href="#DejaVuSans-79" x="193.847656"/>
     <use xlink:href="#DejaVuSans-20" x="253.027344"/>
     <use xlink:href="#DejaVuSans-43" x="284.814453"/>
     <use xlink:href="#DejaVuSans-6f" x="354.638672"/>
     <use xlink:href="#DejaVuSans-6e" x="415.820312"/>
     <use xlink:href="#DejaVuSans-66" x="479.199219"/>
     <use xlink:href="#DejaVuSans-69" x="514.404297"/>
     <use xlink:href="#DejaVuSans-72" x="542.1875"/>
     <use xlink:href="#DejaVuSans-6d" x="581.550781"/>
     <use xlink:href="#DejaVuSans-65" x="678.962891"/>
     <use xlink:href="#DejaVuSans-64" x="740.486328"/>
     <use xlink:href="#DejaVuSans-20" x="803.962891"/>
     <use xlink:href="#DejaVuSans-43" x="835.75"/>
     <use xlink:href="#DejaVuSans-61" x="905.574219"/>
     <use xlink:href="#DejaVuSans-73" x="966.853516"/>
     <use xlink:href="#DejaVuSans-65" x="1018.953125"/>
     <use xlink:href="#DejaVuSans-73" x="1080.476562"/>
     <use xlink:href="#DejaVuSans-20" x="1132.576172"/>
     <use xlink:href="#DejaVuSans-46" x="1164.363281"/>
     <use xlink:href="#DejaVuSans-6f" x="1218.257812"/>
     <use xlink:href="#DejaVuSans-72" x="1279.439453"/>
     <use xlink:href="#DejaVuSans-65" x="1318.302734"/>
     <use xlink:href="#DejaVuSans-63" x="1379.826172"/>
     <use xlink:href="#DejaVuSans-61" x="1434.806641"/>
     <use xlink:href="#DejaVuSans-73" x="1496.085938"/>
     <use xlink:href="#DejaVuSans-74" x="1548.185547"/>
     <use xlink:href="#DejaVuSans-69" x="1587.394531"/>
     <use xlink:href="#DejaVuSans-6e" x="1615.177734"/>
     <use xlink:href="#DejaVuSans-67" x="1678.556641"/>
     <use xlink:href="#DejaVuSans-20" x="1742.033203"/>
     <use xlink:href="#DejaVuSans-2d" x="1773.820312"/>
     <use xlink:href="#DejaVuSans-20" x="1809.904297"/>
     <use xlink:href="#DejaVuSans-55" x="1841.691406"/>
     <use xlink:href="#DejaVuSans-53" x="1914.884766"/>
    </g>
    <!-- ARIMA (4, 1, 1)x(1, 0, 1, 7) (R2 = 0.787604) -->
    <g transform="translate(596.353438 29.7555)scale(0.12 -0.12)">
     <defs>
      <path id="DejaVuSans-41" d="M 2188 4044 
L 1331 1722 
L 3047 1722 
L 2188 4044 
z
M 1831 4666 
L 2547 4666 
L 4325 0 
L 3669 0 
L 3244 1197 
L 1141 1197 
L 716 0 
L 50 0 
L 1831 4666 
z
" transform="scale(0.015625)"/>
      <path id="DejaVuSans-52" d="M 2841 2188 
Q 3044 2119 3236 1894 
Q 3428 1669 3622 1275 
L 4263 0 
L 3584 0 
L 2988 1197 
Q 2756 1666 2539 1819 
Q 2322 1972 1947 1972 
L 1259 1972 
L 1259 0 
L 628 0 
L 628 4666 
L 2053 4666 
Q 2853 4666 3247 4331 
Q 3641 3997 3641 3322 
Q 3641 2881 3436 2590 
Q 3231 2300 2841 2188 
z
M 1259 4147 
L 1259 2491 
L 2053 2491 
Q 2509 2491 2742 2702 
Q 2975 2913 2975 3322 
Q 2975 3731 2742 3939 
Q 2509 4147 2053 4147 
L 1259 4147 
z
" transform="scale(0.015625)"/>
      <path id="DejaVuSans-49" d="M 628 4666 
L 1259 4666 
L 1259 0 
L 628 0 
L 628 4666 
z
" transform="scale(0.015625)"/>
      <path id="DejaVuSans-4d" d="M 628 4666 
L 1569 4666 
L 2759 1491 
L 3956 4666 
L 4897 4666 
L 4897 0 
L 4281 0 
L 4281 4097 
L 3078 897 
L 2444 897 
L 1241 4097 
L 1241 0 
L 628 0 
L 628 4666 
z
" transform="scale(0.015625)"/>
      <path id="DejaVuSans-28" d="M 1984 4856 
Q 1566 4138 1362 3434 
Q 1159 2731 1159 2009 
Q 1159 1288 1364 580 
Q 1569 -128 1984 -844 
L 1484 -844 
Q 1016 -109 783 600 
Q 550 1309 550 2009 
Q 550 2706 781 3412 
Q 1013 4119 1484 4856 
L 1984 4856 
z
" transform="scale(0.015625)"/>
      <path id="DejaVuSans-2c" d="M 750 794 
L 1409 794 
L 1409 256 
L 897 -744 
L 494 -744 
L 750 256 
L 750 794 
z
" transform="scale(0.015625)"/>
      <path id="DejaVuSans-29" d="M 513 4856 
L 1013 4856 
Q 1481 4119 1714 3412 
Q 1947 2706 1947 2009 
Q 1947 1309 1714 600 
Q 1481 -109 1013 -844 
L 513 -844 
Q 928 -128 1133 580 
Q 1338 1288 1338 2009 
Q 1338 2731 1133 3434 
Q 928 4138 513 4856 
z
" transform="scale(0.015625)"/>
      <path id="DejaVuSans-78" d="M 3513 3500 
L 2247 1797 
L 3578 0 
L 2900 0 
L 1881 1375 
L 863 0 
L 184 0 
L 1544 1831 
L 300 3500 
L 978 3500 
L 1906 2253 
L 2834 3500 
L 3513 3500 
z
" transform="scale(0.015625)"/>
      <path id="DejaVuSans-37" d="M 525 4666 
L 3525 4666 
L 3525 4397 
L 1831 0 
L 1172 0 
L 2766 4134 
L 525 4134 
L 525 4666 
z
" transform="scale(0.015625)"/>
      <path id="DejaVuSans-3d" d="M 678 2906 
L 4684 2906 
L 4684 2381 
L 678 2381 
L 678 2906 
z
M 678 1631 
L 4684 1631 
L 4684 1100 
L 678 1100 
L 678 1631 
z
" transform="scale(0.015625)"/>
      <path id="DejaVuSans-2e" d="M 684 794 
L 1344 794 
L 1344 0 
L 684 0 
L 684 794 
z
" transform="scale(0.015625)"/>
     </defs>
     <use xlink:href="#DejaVuSans-41"/>
     <use xlink:href="#DejaVuSans-52" x="68.408203"/>
     <use xlink:href="#DejaVuSans-49" x="137.890625"/>
     <use xlink:href="#DejaVuSans-4d" x="167.382812"/>
     <use xlink:href="#DejaVuSans-41" x="253.662109"/>
     <use xlink:href="#DejaVuSans-20" x="322.070312"/>
     <use xlink:href="#DejaVuSans-28" x="353.857422"/>
     <use xlink:href="#DejaVuSans-34" x="392.871094"/>
     <use xlink:href="#DejaVuSans-2c" x="456.494141"/>
     <use xlink:href="#DejaVuSans-20" x="488.28125"/>
     <use xlink:href="#DejaVuSans-31" x="520.068359"/>
     <use xlink:href="#DejaVuSans-2c" x="583.691406"/>
     <use xlink:href="#DejaVuSans-20" x="615.478516"/>
     <use xlink:href="#DejaVuSans-31" x="647.265625"/>
     <use xlink:href="#DejaVuSans-29" x="710.888672"/>
     <use xlink:href="#DejaVuSans-78" x="749.902344"/>
     <use xlink:href="#DejaVuSans-28" x="809.082031"/>
     <use xlink:href="#DejaVuSans-31" x="848.095703"/>
     <use xlink:href="#DejaVuSans-2c" x="911.71875"/>
     <use xlink:href="#DejaVuSans-20" x="943.505859"/>
     <use xlink:href="#DejaVuSans-30" x="975.292969"/>
     <use xlink:href="#DejaVuSans-2c" x="1038.916016"/>
     <use xlink:href="#DejaVuSans-20" x="1070.703125"/>
     <use xlink:href="#DejaVuSans-31" x="1102.490234"/>
     <use xlink:href="#DejaVuSans-2c" x="1166.113281"/>
     <use xlink:href="#DejaVuSans-20" x="1197.900391"/>
     <use xlink:href="#DejaVuSans-37" x="1229.6875"/>
     <use xlink:href="#DejaVuSans-29" x="1293.310547"/>
     <use xlink:href="#DejaVuSans-20" x="1332.324219"/>
     <use xlink:href="#DejaVuSans-28" x="1364.111328"/>
     <use xlink:href="#DejaVuSans-52" x="1403.125"/>
     <use xlink:href="#DejaVuSans-32" x="1472.607422"/>
     <use xlink:href="#DejaVuSans-20" x="1536.230469"/>
     <use xlink:href="#DejaVuSans-3d" x="1568.017578"/>
     <use xlink:href="#DejaVuSans-20" x="1651.806641"/>
     <use xlink:href="#DejaVuSans-30" x="1683.59375"/>
     <use xlink:href="#DejaVuSans-2e" x="1747.216797"/>
     <use xlink:href="#DejaVuSans-37" x="1779.003906"/>
     <use xlink:href="#DejaVuSans-38" x="1842.626953"/>
     <use xlink:href="#DejaVuSans-37" x="1906.25"/>
     <use xlink:href="#DejaVuSans-36" x="1969.873047"/>
     <use xlink:href="#DejaVuSans-30" x="2033.496094"/>
     <use xlink:href="#DejaVuSans-34" x="2097.119141"/>
     <use xlink:href="#DejaVuSans-29" x="2160.742188"/>
    </g>
   </g>
   <g id="legend_1">
    <g id="patch_7">
     <path d="M 1293.857812 87.789875 
L 1390.9375 87.789875 
Q 1392.9375 87.789875 1392.9375 85.789875 
L 1392.9375 42.7555 
Q 1392.9375 40.7555 1390.9375 40.7555 
L 1293.857812 40.7555 
Q 1291.857812 40.7555 1291.857812 42.7555 
L 1291.857812 85.789875 
Q 1291.857812 87.789875 1293.857812 87.789875 
z
" style="fill: #ffffff; opacity: 0.8; stroke: #cccccc; stroke-linejoin: miter"/>
    </g>
    <g id="line2d_21">
     <path d="M 1295.857812 48.853937 
L 1305.857812 48.853937 
L 1315.857812 48.853937 
" style="fill: none; stroke: #0000ff; stroke-width: 1.5; stroke-linecap: square"/>
    </g>
    <g id="text_19">
     <!-- Actual Value -->
     <g transform="translate(1323.857812 52.353937)scale(0.1 -0.1)">
      <defs>
       <path id="DejaVuSans-75" d="M 544 1381 
L 544 3500 
L 1119 3500 
L 1119 1403 
Q 1119 906 1312 657 
Q 1506 409 1894 409 
Q 2359 409 2629 706 
Q 2900 1003 2900 1516 
L 2900 3500 
L 3475 3500 
L 3475 0 
L 2900 0 
L 2900 538 
Q 2691 219 2414 64 
Q 2138 -91 1772 -91 
Q 1169 -91 856 284 
Q 544 659 544 1381 
z
M 1991 3584 
L 1991 3584 
z
" transform="scale(0.015625)"/>
       <path id="DejaVuSans-56" d="M 1831 0 
L 50 4666 
L 709 4666 
L 2188 738 
L 3669 4666 
L 4325 4666 
L 2547 0 
L 1831 0 
z
" transform="scale(0.015625)"/>
      </defs>
      <use xlink:href="#DejaVuSans-41"/>
      <use xlink:href="#DejaVuSans-63" x="66.658203"/>
      <use xlink:href="#DejaVuSans-74" x="121.638672"/>
      <use xlink:href="#DejaVuSans-75" x="160.847656"/>
      <use xlink:href="#DejaVuSans-61" x="224.226562"/>
      <use xlink:href="#DejaVuSans-6c" x="285.505859"/>
      <use xlink:href="#DejaVuSans-20" x="313.289062"/>
      <use xlink:href="#DejaVuSans-56" x="345.076172"/>
      <use xlink:href="#DejaVuSans-61" x="405.734375"/>
      <use xlink:href="#DejaVuSans-6c" x="467.013672"/>
      <use xlink:href="#DejaVuSans-75" x="494.796875"/>
      <use xlink:href="#DejaVuSans-65" x="558.175781"/>
     </g>
    </g>
    <g id="line2d_22">
     <path d="M 1295.857812 63.532062 
L 1305.857812 63.532062 
L 1315.857812 63.532062 
" style="fill: none; stroke: #ffa500; stroke-width: 1.5; stroke-linecap: square"/>
    </g>
    <g id="text_20">
     <!-- Check Value -->
     <g transform="translate(1323.857812 67.032062)scale(0.1 -0.1)">
      <defs>
       <path id="DejaVuSans-68" d="M 3513 2113 
L 3513 0 
L 2938 0 
L 2938 2094 
Q 2938 2591 2744 2837 
Q 2550 3084 2163 3084 
Q 1697 3084 1428 2787 
Q 1159 2491 1159 1978 
L 1159 0 
L 581 0 
L 581 4863 
L 1159 4863 
L 1159 2956 
Q 1366 3272 1645 3428 
Q 1925 3584 2291 3584 
Q 2894 3584 3203 3211 
Q 3513 2838 3513 2113 
z
" transform="scale(0.015625)"/>
       <path id="DejaVuSans-6b" d="M 581 4863 
L 1159 4863 
L 1159 1991 
L 2875 3500 
L 3609 3500 
L 1753 1863 
L 3688 0 
L 2938 0 
L 1159 1709 
L 1159 0 
L 581 0 
L 581 4863 
z
" transform="scale(0.015625)"/>
      </defs>
      <use xlink:href="#DejaVuSans-43"/>
      <use xlink:href="#DejaVuSans-68" x="69.824219"/>
      <use xlink:href="#DejaVuSans-65" x="133.203125"/>
      <use xlink:href="#DejaVuSans-63" x="194.726562"/>
      <use xlink:href="#DejaVuSans-6b" x="249.707031"/>
      <use xlink:href="#DejaVuSans-20" x="307.617188"/>
      <use xlink:href="#DejaVuSans-56" x="339.404297"/>
      <use xlink:href="#DejaVuSans-61" x="400.0625"/>
      <use xlink:href="#DejaVuSans-6c" x="461.341797"/>
      <use xlink:href="#DejaVuSans-75" x="489.125"/>
      <use xlink:href="#DejaVuSans-65" x="552.503906"/>
     </g>
    </g>
    <g id="line2d_23">
     <path d="M 1295.857812 78.210187 
L 1305.857812 78.210187 
L 1315.857812 78.210187 
" style="fill: none; stroke: #ff0000; stroke-width: 1.5; stroke-linecap: square"/>
    </g>
    <g id="text_21">
     <!-- Predict Value -->
     <g transform="translate(1323.857812 81.710187)scale(0.1 -0.1)">
      <defs>
       <path id="DejaVuSans-50" d="M 1259 4147 
L 1259 2394 
L 2053 2394 
Q 2494 2394 2734 2622 
Q 2975 2850 2975 3272 
Q 2975 3691 2734 3919 
Q 2494 4147 2053 4147 
L 1259 4147 
z
M 628 4666 
L 2053 4666 
Q 2838 4666 3239 4311 
Q 3641 3956 3641 3272 
Q 3641 2581 3239 2228 
Q 2838 1875 2053 1875 
L 1259 1875 
L 1259 0 
L 628 0 
L 628 4666 
z
" transform="scale(0.015625)"/>
      </defs>
      <use xlink:href="#DejaVuSans-50"/>
      <use xlink:href="#DejaVuSans-72" x="58.552734"/>
      <use xlink:href="#DejaVuSans-65" x="97.416016"/>
      <use xlink:href="#DejaVuSans-64" x="158.939453"/>
      <use xlink:href="#DejaVuSans-69" x="222.416016"/>
      <use xlink:href="#DejaVuSans-63" x="250.199219"/>
      <use xlink:href="#DejaVuSans-74" x="305.179688"/>
      <use xlink:href="#DejaVuSans-20" x="344.388672"/>
      <use xlink:href="#DejaVuSans-56" x="376.175781"/>
      <use xlink:href="#DejaVuSans-61" x="436.833984"/>
      <use xlink:href="#DejaVuSans-6c" x="498.113281"/>
      <use xlink:href="#DejaVuSans-75" x="525.896484"/>
      <use xlink:href="#DejaVuSans-65" x="589.275391"/>
     </g>
    </g>
   </g>
  </g>
 </g>
 <defs>
  <clipPath id="p1904f49937">
   <rect x="58.7375" y="35.7555" width="1339.2" height="332.64"/>
  </clipPath>
 </defs>
</svg>
