<?xml version="1.0" encoding="utf-8" standalone="no"?>
<!DOCTYPE svg PUBLIC "-//W3C//DTD SVG 1.1//EN"
  "http://www.w3.org/Graphics/SVG/1.1/DTD/svg11.dtd">
<svg xmlns:xlink="http://www.w3.org/1999/xlink" width="1398.775pt" height="392.273625pt" viewBox="0 0 1398.775 392.273625" xmlns="http://www.w3.org/2000/svg" version="1.1">
 <metadata>
  <rdf:RDF xmlns:dc="http://purl.org/dc/elements/1.1/" xmlns:cc="http://creativecommons.org/ns#" xmlns:rdf="http://www.w3.org/1999/02/22-rdf-syntax-ns#">
   <cc:Work>
    <dc:type rdf:resource="http://purl.org/dc/dcmitype/StillImage"/>
    <dc:date>2022-10-28T19:20:21.011000</dc:date>
    <dc:format>image/svg+xml</dc:format>
    <dc:creator>
     <cc:Agent>
      <dc:title>Matplotlib v3.5.1, https://matplotlib.org/</dc:title>
     </cc:Agent>
    </dc:creator>
   </cc:Work>
  </rdf:RDF>
 </metadata>
 <defs>
  <style type="text/css">*{stroke-linejoin: round; stroke-linecap: butt}</style>
 </defs>
 <g id="figure_1">
  <g id="patch_1">
   <path d="M 0 392.273625 
L 1398.775 392.273625 
L 1398.775 0 
L 0 0 
z
" style="fill: #ffffff"/>
  </g>
  <g id="axes_1">
   <g id="patch_2">
    <path d="M 52.375 368.3955 
L 1391.575 368.3955 
L 1391.575 35.7555 
L 52.375 35.7555 
z
" style="fill: #ffffff"/>
   </g>
   <g id="matplotlib.axis_1">
    <g id="xtick_1">
     <g id="line2d_1">
      <defs>
       <path id="m224b5b1ccd" d="M 0 0 
L 0 3.5 
" style="stroke: #000000; stroke-width: 0.8"/>
      </defs>
      <g>
       <use xlink:href="#m224b5b1ccd" x="87.040291" y="368.3955" style="stroke: #000000; stroke-width: 0.8"/>
      </g>
     </g>
     <g id="text_1">
      <!-- 2020-01 -->
      <g transform="translate(66.148885 382.993937)scale(0.1 -0.1)">
       <defs>
        <path id="DejaVuSans-32" d="M 1228 531 
L 3431 531 
L 3431 0 
L 469 0 
L 469 531 
Q 828 903 1448 1529 
Q 2069 2156 2228 2338 
Q 2531 2678 2651 2914 
Q 2772 3150 2772 3378 
Q 2772 3750 2511 3984 
Q 2250 4219 1831 4219 
Q 1534 4219 1204 4116 
Q 875 4013 500 3803 
L 500 4441 
Q 881 4594 1212 4672 
Q 1544 4750 1819 4750 
Q 2544 4750 2975 4387 
Q 3406 4025 3406 3419 
Q 3406 3131 3298 2873 
Q 3191 2616 2906 2266 
Q 2828 2175 2409 1742 
Q 1991 1309 1228 531 
z
" transform="scale(0.015625)"/>
        <path id="DejaVuSans-30" d="M 2034 4250 
Q 1547 4250 1301 3770 
Q 1056 3291 1056 2328 
Q 1056 1369 1301 889 
Q 1547 409 2034 409 
Q 2525 409 2770 889 
Q 3016 1369 3016 2328 
Q 3016 3291 2770 3770 
Q 2525 4250 2034 4250 
z
M 2034 4750 
Q 2819 4750 3233 4129 
Q 3647 3509 3647 2328 
Q 3647 1150 3233 529 
Q 2819 -91 2034 -91 
Q 1250 -91 836 529 
Q 422 1150 422 2328 
Q 422 3509 836 4129 
Q 1250 4750 2034 4750 
z
" transform="scale(0.015625)"/>
        <path id="DejaVuSans-2d" d="M 313 2009 
L 1997 2009 
L 1997 1497 
L 313 1497 
L 313 2009 
z
" transform="scale(0.015625)"/>
        <path id="DejaVuSans-31" d="M 794 531 
L 1825 531 
L 1825 4091 
L 703 3866 
L 703 4441 
L 1819 4666 
L 2450 4666 
L 2450 531 
L 3481 531 
L 3481 0 
L 794 0 
L 794 531 
z
" transform="scale(0.015625)"/>
       </defs>
       <use xlink:href="#DejaVuSans-32"/>
       <use xlink:href="#DejaVuSans-30" x="63.623047"/>
       <use xlink:href="#DejaVuSans-32" x="127.246094"/>
       <use xlink:href="#DejaVuSans-30" x="190.869141"/>
       <use xlink:href="#DejaVuSans-2d" x="254.492188"/>
       <use xlink:href="#DejaVuSans-30" x="290.576172"/>
       <use xlink:href="#DejaVuSans-31" x="354.199219"/>
      </g>
     </g>
    </g>
    <g id="xtick_2">
     <g id="line2d_2">
      <g>
       <use xlink:href="#m224b5b1ccd" x="231.181191" y="368.3955" style="stroke: #000000; stroke-width: 0.8"/>
      </g>
     </g>
     <g id="text_2">
      <!-- 2020-05 -->
      <g transform="translate(210.289785 382.993937)scale(0.1 -0.1)">
       <defs>
        <path id="DejaVuSans-35" d="M 691 4666 
L 3169 4666 
L 3169 4134 
L 1269 4134 
L 1269 2991 
Q 1406 3038 1543 3061 
Q 1681 3084 1819 3084 
Q 2600 3084 3056 2656 
Q 3513 2228 3513 1497 
Q 3513 744 3044 326 
Q 2575 -91 1722 -91 
Q 1428 -91 1123 -41 
Q 819 9 494 109 
L 494 744 
Q 775 591 1075 516 
Q 1375 441 1709 441 
Q 2250 441 2565 725 
Q 2881 1009 2881 1497 
Q 2881 1984 2565 2268 
Q 2250 2553 1709 2553 
Q 1456 2553 1204 2497 
Q 953 2441 691 2322 
L 691 4666 
z
" transform="scale(0.015625)"/>
       </defs>
       <use xlink:href="#DejaVuSans-32"/>
       <use xlink:href="#DejaVuSans-30" x="63.623047"/>
       <use xlink:href="#DejaVuSans-32" x="127.246094"/>
       <use xlink:href="#DejaVuSans-30" x="190.869141"/>
       <use xlink:href="#DejaVuSans-2d" x="254.492188"/>
       <use xlink:href="#DejaVuSans-30" x="290.576172"/>
       <use xlink:href="#DejaVuSans-35" x="354.199219"/>
      </g>
     </g>
    </g>
    <g id="xtick_3">
     <g id="line2d_3">
      <g>
       <use xlink:href="#m224b5b1ccd" x="377.704585" y="368.3955" style="stroke: #000000; stroke-width: 0.8"/>
      </g>
     </g>
     <g id="text_3">
      <!-- 2020-09 -->
      <g transform="translate(356.813179 382.993937)scale(0.1 -0.1)">
       <defs>
        <path id="DejaVuSans-39" d="M 703 97 
L 703 672 
Q 941 559 1184 500 
Q 1428 441 1663 441 
Q 2288 441 2617 861 
Q 2947 1281 2994 2138 
Q 2813 1869 2534 1725 
Q 2256 1581 1919 1581 
Q 1219 1581 811 2004 
Q 403 2428 403 3163 
Q 403 3881 828 4315 
Q 1253 4750 1959 4750 
Q 2769 4750 3195 4129 
Q 3622 3509 3622 2328 
Q 3622 1225 3098 567 
Q 2575 -91 1691 -91 
Q 1453 -91 1209 -44 
Q 966 3 703 97 
z
M 1959 2075 
Q 2384 2075 2632 2365 
Q 2881 2656 2881 3163 
Q 2881 3666 2632 3958 
Q 2384 4250 1959 4250 
Q 1534 4250 1286 3958 
Q 1038 3666 1038 3163 
Q 1038 2656 1286 2365 
Q 1534 2075 1959 2075 
z
" transform="scale(0.015625)"/>
       </defs>
       <use xlink:href="#DejaVuSans-32"/>
       <use xlink:href="#DejaVuSans-30" x="63.623047"/>
       <use xlink:href="#DejaVuSans-32" x="127.246094"/>
       <use xlink:href="#DejaVuSans-30" x="190.869141"/>
       <use xlink:href="#DejaVuSans-2d" x="254.492188"/>
       <use xlink:href="#DejaVuSans-30" x="290.576172"/>
       <use xlink:href="#DejaVuSans-39" x="354.199219"/>
      </g>
     </g>
    </g>
    <g id="xtick_4">
     <g id="line2d_4">
      <g>
       <use xlink:href="#m224b5b1ccd" x="523.036733" y="368.3955" style="stroke: #000000; stroke-width: 0.8"/>
      </g>
     </g>
     <g id="text_4">
      <!-- 2021-01 -->
      <g transform="translate(502.145327 382.993937)scale(0.1 -0.1)">
       <use xlink:href="#DejaVuSans-32"/>
       <use xlink:href="#DejaVuSans-30" x="63.623047"/>
       <use xlink:href="#DejaVuSans-32" x="127.246094"/>
       <use xlink:href="#DejaVuSans-31" x="190.869141"/>
       <use xlink:href="#DejaVuSans-2d" x="254.492188"/>
       <use xlink:href="#DejaVuSans-30" x="290.576172"/>
       <use xlink:href="#DejaVuSans-31" x="354.199219"/>
      </g>
     </g>
    </g>
    <g id="xtick_5">
     <g id="line2d_5">
      <g>
       <use xlink:href="#m224b5b1ccd" x="665.986386" y="368.3955" style="stroke: #000000; stroke-width: 0.8"/>
      </g>
     </g>
     <g id="text_5">
      <!-- 2021-05 -->
      <g transform="translate(645.09498 382.993937)scale(0.1 -0.1)">
       <use xlink:href="#DejaVuSans-32"/>
       <use xlink:href="#DejaVuSans-30" x="63.623047"/>
       <use xlink:href="#DejaVuSans-32" x="127.246094"/>
       <use xlink:href="#DejaVuSans-31" x="190.869141"/>
       <use xlink:href="#DejaVuSans-2d" x="254.492188"/>
       <use xlink:href="#DejaVuSans-30" x="290.576172"/>
       <use xlink:href="#DejaVuSans-35" x="354.199219"/>
      </g>
     </g>
    </g>
    <g id="xtick_6">
     <g id="line2d_6">
      <g>
       <use xlink:href="#m224b5b1ccd" x="812.50978" y="368.3955" style="stroke: #000000; stroke-width: 0.8"/>
      </g>
     </g>
     <g id="text_6">
      <!-- 2021-09 -->
      <g transform="translate(791.618374 382.993937)scale(0.1 -0.1)">
       <use xlink:href="#DejaVuSans-32"/>
       <use xlink:href="#DejaVuSans-30" x="63.623047"/>
       <use xlink:href="#DejaVuSans-32" x="127.246094"/>
       <use xlink:href="#DejaVuSans-31" x="190.869141"/>
       <use xlink:href="#DejaVuSans-2d" x="254.492188"/>
       <use xlink:href="#DejaVuSans-30" x="290.576172"/>
       <use xlink:href="#DejaVuSans-39" x="354.199219"/>
      </g>
     </g>
    </g>
    <g id="xtick_7">
     <g id="line2d_7">
      <g>
       <use xlink:href="#m224b5b1ccd" x="957.841928" y="368.3955" style="stroke: #000000; stroke-width: 0.8"/>
      </g>
     </g>
     <g id="text_7">
      <!-- 2022-01 -->
      <g transform="translate(936.950521 382.993937)scale(0.1 -0.1)">
       <use xlink:href="#DejaVuSans-32"/>
       <use xlink:href="#DejaVuSans-30" x="63.623047"/>
       <use xlink:href="#DejaVuSans-32" x="127.246094"/>
       <use xlink:href="#DejaVuSans-32" x="190.869141"/>
       <use xlink:href="#DejaVuSans-2d" x="254.492188"/>
       <use xlink:href="#DejaVuSans-30" x="290.576172"/>
       <use xlink:href="#DejaVuSans-31" x="354.199219"/>
      </g>
     </g>
    </g>
    <g id="xtick_8">
     <g id="line2d_8">
      <g>
       <use xlink:href="#m224b5b1ccd" x="1100.791581" y="368.3955" style="stroke: #000000; stroke-width: 0.8"/>
      </g>
     </g>
     <g id="text_8">
      <!-- 2022-05 -->
      <g transform="translate(1079.900174 382.993937)scale(0.1 -0.1)">
       <use xlink:href="#DejaVuSans-32"/>
       <use xlink:href="#DejaVuSans-30" x="63.623047"/>
       <use xlink:href="#DejaVuSans-32" x="127.246094"/>
       <use xlink:href="#DejaVuSans-32" x="190.869141"/>
       <use xlink:href="#DejaVuSans-2d" x="254.492188"/>
       <use xlink:href="#DejaVuSans-30" x="290.576172"/>
       <use xlink:href="#DejaVuSans-35" x="354.199219"/>
      </g>
     </g>
    </g>
    <g id="xtick_9">
     <g id="line2d_9">
      <g>
       <use xlink:href="#m224b5b1ccd" x="1247.314975" y="368.3955" style="stroke: #000000; stroke-width: 0.8"/>
      </g>
     </g>
     <g id="text_9">
      <!-- 2022-09 -->
      <g transform="translate(1226.423569 382.993937)scale(0.1 -0.1)">
       <use xlink:href="#DejaVuSans-32"/>
       <use xlink:href="#DejaVuSans-30" x="63.623047"/>
       <use xlink:href="#DejaVuSans-32" x="127.246094"/>
       <use xlink:href="#DejaVuSans-32" x="190.869141"/>
       <use xlink:href="#DejaVuSans-2d" x="254.492188"/>
       <use xlink:href="#DejaVuSans-30" x="290.576172"/>
       <use xlink:href="#DejaVuSans-39" x="354.199219"/>
      </g>
     </g>
    </g>
   </g>
   <g id="matplotlib.axis_2">
    <g id="ytick_1">
     <g id="line2d_10">
      <defs>
       <path id="m48099c594b" d="M 0 0 
L -3.5 0 
" style="stroke: #000000; stroke-width: 0.8"/>
      </defs>
      <g>
       <use xlink:href="#m48099c594b" x="52.375" y="302.991718" style="stroke: #000000; stroke-width: 0.8"/>
      </g>
     </g>
     <g id="text_10">
      <!-- 0 -->
      <g transform="translate(39.0125 306.790936)scale(0.1 -0.1)">
       <use xlink:href="#DejaVuSans-30"/>
      </g>
     </g>
    </g>
    <g id="ytick_2">
     <g id="line2d_11">
      <g>
       <use xlink:href="#m48099c594b" x="52.375" y="235.357808" style="stroke: #000000; stroke-width: 0.8"/>
      </g>
     </g>
     <g id="text_11">
      <!-- 100000 -->
      <g transform="translate(7.2 239.157027)scale(0.1 -0.1)">
       <use xlink:href="#DejaVuSans-31"/>
       <use xlink:href="#DejaVuSans-30" x="63.623047"/>
       <use xlink:href="#DejaVuSans-30" x="127.246094"/>
       <use xlink:href="#DejaVuSans-30" x="190.869141"/>
       <use xlink:href="#DejaVuSans-30" x="254.492188"/>
       <use xlink:href="#DejaVuSans-30" x="318.115234"/>
      </g>
     </g>
    </g>
    <g id="ytick_3">
     <g id="line2d_12">
      <g>
       <use xlink:href="#m48099c594b" x="52.375" y="167.723899" style="stroke: #000000; stroke-width: 0.8"/>
      </g>
     </g>
     <g id="text_12">
      <!-- 200000 -->
      <g transform="translate(7.2 171.523118)scale(0.1 -0.1)">
       <use xlink:href="#DejaVuSans-32"/>
       <use xlink:href="#DejaVuSans-30" x="63.623047"/>
       <use xlink:href="#DejaVuSans-30" x="127.246094"/>
       <use xlink:href="#DejaVuSans-30" x="190.869141"/>
       <use xlink:href="#DejaVuSans-30" x="254.492188"/>
       <use xlink:href="#DejaVuSans-30" x="318.115234"/>
      </g>
     </g>
    </g>
    <g id="ytick_4">
     <g id="line2d_13">
      <g>
       <use xlink:href="#m48099c594b" x="52.375" y="100.08999" style="stroke: #000000; stroke-width: 0.8"/>
      </g>
     </g>
     <g id="text_13">
      <!-- 300000 -->
      <g transform="translate(7.2 103.889209)scale(0.1 -0.1)">
       <defs>
        <path id="DejaVuSans-33" d="M 2597 2516 
Q 3050 2419 3304 2112 
Q 3559 1806 3559 1356 
Q 3559 666 3084 287 
Q 2609 -91 1734 -91 
Q 1441 -91 1130 -33 
Q 819 25 488 141 
L 488 750 
Q 750 597 1062 519 
Q 1375 441 1716 441 
Q 2309 441 2620 675 
Q 2931 909 2931 1356 
Q 2931 1769 2642 2001 
Q 2353 2234 1838 2234 
L 1294 2234 
L 1294 2753 
L 1863 2753 
Q 2328 2753 2575 2939 
Q 2822 3125 2822 3475 
Q 2822 3834 2567 4026 
Q 2313 4219 1838 4219 
Q 1578 4219 1281 4162 
Q 984 4106 628 3988 
L 628 4550 
Q 988 4650 1302 4700 
Q 1616 4750 1894 4750 
Q 2613 4750 3031 4423 
Q 3450 4097 3450 3541 
Q 3450 3153 3228 2886 
Q 3006 2619 2597 2516 
z
" transform="scale(0.015625)"/>
       </defs>
       <use xlink:href="#DejaVuSans-33"/>
       <use xlink:href="#DejaVuSans-30" x="63.623047"/>
       <use xlink:href="#DejaVuSans-30" x="127.246094"/>
       <use xlink:href="#DejaVuSans-30" x="190.869141"/>
       <use xlink:href="#DejaVuSans-30" x="254.492188"/>
       <use xlink:href="#DejaVuSans-30" x="318.115234"/>
      </g>
     </g>
    </g>
   </g>
   <g id="line2d_14">
    <path d="M 113.247727 302.991718 
L 165.6626 302.924084 
L 168.045094 302.721182 
L 169.236341 302.571035 
L 170.427589 302.598088 
L 171.618836 302.991718 
L 172.810083 300.993136 
L 174.00133 302.207841 
L 175.192577 302.040108 
L 176.383824 301.541647 
L 177.575071 301.770249 
L 178.766318 301.529472 
L 179.957565 300.250515 
L 181.148812 301.336716 
L 182.34006 299.63437 
L 183.531307 300.696223 
L 184.722554 298.68479 
L 185.913801 299.779783 
L 187.105048 296.478572 
L 188.296295 297.397717 
L 190.678789 297.908353 
L 191.870036 298.341886 
L 193.061284 297.685161 
L 195.443778 297.449119 
L 196.635025 297.616851 
L 197.826272 298.166715 
L 199.017519 298.27831 
L 200.208766 299.286732 
L 201.400013 299.590408 
L 202.59126 299.42944 
L 203.782508 298.745661 
L 204.973755 299.608669 
L 206.165002 299.575529 
L 207.356249 299.776402 
L 208.547496 300.418924 
L 209.738743 300.781441 
L 210.92999 301.340098 
L 212.121237 299.540359 
L 213.312484 298.051737 
L 214.503732 299.007404 
L 215.694979 302.391805 
L 216.886226 298.292514 
L 218.077473 301.952861 
L 219.26872 300.308004 
L 220.459967 300.143654 
L 221.651214 299.856886 
L 222.842461 309.778104 
L 224.033708 301.020189 
L 225.224956 301.822327 
L 226.416203 301.753341 
L 227.60745 302.107066 
L 228.798697 301.541647 
L 229.989944 302.641374 
L 231.181191 301.787158 
L 234.754932 302.623113 
L 235.94618 302.100303 
L 237.137427 302.318084 
L 239.519921 302.038079 
L 240.711168 302.504077 
L 241.902415 302.469584 
L 243.093662 300.904535 
L 244.284909 302.589972 
L 247.858651 302.556832 
L 249.049898 302.643403 
L 250.241145 302.991718 
L 251.432392 302.377602 
L 252.623639 302.700215 
L 255.006133 302.665722 
L 256.19738 301.7831 
L 257.388627 302.676544 
L 258.579875 302.665722 
L 259.771122 303.243316 
L 260.962369 302.410742 
L 262.153616 302.991718 
L 263.344863 301.877787 
L 264.53611 302.546686 
L 265.727357 302.542628 
L 266.918604 302.821956 
L 268.109851 302.88418 
L 270.492346 302.72524 
L 276.448581 302.878769 
L 281.21357 302.652195 
L 285.978558 302.843599 
L 288.361052 302.596059 
L 289.552299 302.784081 
L 291.934794 302.76582 
L 294.317288 302.823986 
L 299.082276 302.610262 
L 301.464771 302.85645 
L 306.229759 302.692776 
L 307.421006 302.991718 
L 308.612253 302.991718 
L 309.8035 302.150352 
L 310.994747 302.761086 
L 313.377242 302.624465 
L 314.568489 302.415477 
L 315.759736 302.991718 
L 316.950983 302.991718 
L 318.14223 301.608604 
L 319.333477 302.541276 
L 320.524724 302.399921 
L 321.715971 302.07122 
L 322.907218 302.044843 
L 324.098466 302.991718 
L 325.289713 302.991718 
L 326.48096 299.893408 
L 327.672207 302.073249 
L 328.863454 302.073925 
L 330.054701 301.223091 
L 331.245948 301.466573 
L 332.437195 302.991718 
L 333.628442 302.991718 
L 334.81969 298.689525 
L 336.010937 301.75537 
L 337.202184 301.618073 
L 338.393431 301.105408 
L 339.584678 300.900477 
L 340.775925 302.991718 
L 341.967172 302.991718 
L 343.158419 297.221192 
L 345.540914 300.994488 
L 346.732161 300.226843 
L 347.923408 299.943457 
L 349.114655 302.991718 
L 350.305902 302.991718 
L 351.497149 297.163027 
L 352.688396 300.535254 
L 353.879643 300.84637 
L 355.07089 297.885357 
L 356.262138 299.286056 
L 357.453385 302.991718 
L 358.644632 302.991718 
L 359.835879 291.988357 
L 361.027126 299.532919 
L 362.218373 298.47986 
L 363.40962 298.230967 
L 364.600867 297.480907 
L 365.792114 302.991718 
L 366.983362 302.991718 
L 368.174609 289.882913 
L 369.365856 298.178212 
L 370.557103 298.057148 
L 371.74835 296.459635 
L 372.939597 296.377798 
L 374.130844 302.991718 
L 375.322091 302.991718 
L 376.513338 287.049053 
L 377.704585 297.503226 
L 380.08708 296.932396 
L 381.278327 295.906389 
L 382.469574 302.991718 
L 383.660821 302.991718 
L 384.852068 285.028151 
L 386.043315 296.929014 
L 387.234562 296.995295 
L 388.425809 295.711604 
L 389.617057 294.751878 
L 390.808304 302.991718 
L 391.999551 302.991718 
L 393.190798 284.457321 
L 394.382045 296.609106 
L 395.573292 295.421454 
L 396.764539 295.355173 
L 397.955786 293.259874 
L 399.147033 302.991718 
L 400.338281 302.991718 
L 401.529528 281.735733 
L 402.720775 295.687932 
L 403.912022 295.356526 
L 405.103269 295.786677 
L 406.294516 294.691684 
L 407.485763 302.991718 
L 408.67701 302.991718 
L 409.868257 281.49428 
L 411.059505 302.991718 
L 412.250752 288.841351 
L 413.441999 296.62128 
L 414.633246 295.332177 
L 415.824493 302.991718 
L 417.01574 302.991718 
L 418.206987 287.111276 
L 419.398234 294.877001 
L 420.589481 295.896244 
L 421.780729 294.589557 
L 422.971976 294.342693 
L 424.163223 302.991718 
L 425.35447 302.991718 
L 426.545717 284.151616 
L 427.736964 298.177536 
L 428.928211 294.895939 
L 430.119458 293.984234 
L 431.310705 292.720832 
L 432.501952 302.991718 
L 433.6932 302.991718 
L 434.884447 277.365906 
L 436.075694 293.608865 
L 437.266941 291.512214 
L 438.458188 288.798065 
L 439.649435 289.56571 
L 440.840682 302.991718 
L 442.031929 302.991718 
L 443.223176 267.694933 
L 444.414424 290.534904 
L 445.605671 289.623875 
L 446.796918 287.043642 
L 447.988165 285.680819 
L 449.179412 302.991718 
L 450.370659 302.991718 
L 451.561906 265.780217 
L 452.753153 290.365143 
L 453.9444 286.054834 
L 455.135648 288.174481 
L 456.326895 287.763267 
L 457.518142 302.991718 
L 458.709389 302.991718 
L 459.900636 267.561018 
L 461.091883 302.991718 
L 462.28313 278.311428 
L 463.474377 289.795666 
L 464.665624 288.537675 
L 465.856872 302.991718 
L 467.048119 302.991718 
L 468.239366 277.106192 
L 469.430613 294.091772 
L 470.62186 292.631555 
L 471.813107 292.012705 
L 473.004354 292.741122 
L 474.195601 302.991718 
L 475.386848 302.991718 
L 476.578096 285.484004 
L 477.769343 294.721443 
L 478.96059 296.078179 
L 480.151837 294.680187 
L 481.343084 295.651409 
L 482.534331 302.991718 
L 483.725578 302.991718 
L 484.916825 289.479139 
L 486.108072 297.407186 
L 487.29932 296.680798 
L 488.490567 296.142432 
L 489.681814 297.077132 
L 490.873061 302.991718 
L 492.064308 302.991718 
L 493.255555 291.033366 
L 494.446802 302.991718 
L 495.638049 296.381856 
L 496.829296 297.61144 
L 498.020543 295.877307 
L 499.211791 302.991718 
L 500.403038 302.991718 
L 501.594285 288.579608 
L 502.785532 296.006487 
L 503.976779 295.499233 
L 505.168026 294.787048 
L 506.359273 295.000771 
L 507.55052 302.991718 
L 508.741767 302.991718 
L 509.933015 288.103465 
L 511.124262 295.786001 
L 512.315509 294.614582 
L 513.506756 294.427912 
L 514.698003 302.991718 
L 517.080497 302.991718 
L 518.271744 286.447111 
L 519.462991 293.462776 
L 520.654239 291.686033 
L 521.845486 290.785826 
L 523.036733 302.991718 
L 525.419227 302.991718 
L 526.610474 282.309945 
L 527.801721 286.962481 
L 528.992968 302.991718 
L 530.184215 274.341994 
L 531.375463 285.77483 
L 532.56671 302.991718 
L 533.757957 302.991718 
L 534.949204 261.449618 
L 536.140451 285.787004 
L 537.331698 276.703093 
L 538.522945 278.726024 
L 539.714192 275.804915 
L 540.905439 302.991718 
L 542.096687 302.991718 
L 543.287934 245.985125 
L 544.479181 279.799374 
L 545.670428 274.872244 
L 546.861675 272.991345 
L 548.052922 273.986916 
L 549.244169 302.991718 
L 550.435416 302.991718 
L 551.626663 239.536231 
L 552.817911 278.349303 
L 554.009158 275.745397 
L 555.200405 279.38816 
L 556.391652 277.211024 
L 557.582899 302.991718 
L 558.774146 302.991718 
L 559.965393 249.096961 
L 561.15664 283.334598 
L 562.347887 281.622108 
L 563.539134 282.728598 
L 564.730382 283.672091 
L 565.921629 302.991718 
L 567.112876 302.991718 
L 568.304123 271.139528 
L 569.49537 291.898404 
L 570.686617 290.740511 
L 571.877864 290.917036 
L 573.069111 293.130017 
L 574.260358 302.991718 
L 575.451606 302.991718 
L 576.642853 282.531784 
L 577.8341 296.189775 
L 579.025347 295.667642 
L 580.216594 293.174656 
L 581.407841 295.25778 
L 582.599088 302.991718 
L 583.790335 302.991718 
L 584.981582 288.890724 
L 586.17283 297.945552 
L 587.364077 296.761282 
L 588.555324 296.520505 
L 589.746571 297.350373 
L 590.937818 302.991718 
L 592.129065 302.991718 
L 593.320312 292.185172 
L 594.511559 353.2755 
L 595.702806 298.841025 
L 596.894054 298.908659 
L 598.085301 298.491357 
L 599.276548 302.991718 
L 600.467795 302.991718 
L 601.659042 294.904055 
L 602.850289 300.278245 
L 604.041536 298.17686 
L 606.42403 299.374656 
L 607.615278 302.991718 
L 608.806525 302.991718 
L 609.997772 295.309858 
L 611.189019 299.635723 
L 612.380266 298.87146 
L 613.571513 298.787594 
L 614.76276 302.991718 
L 617.145254 302.991718 
L 618.336502 291.851736 
L 619.527749 299.261031 
L 620.718996 302.991718 
L 621.910243 293.915923 
L 623.10149 297.861009 
L 624.292737 302.991718 
L 625.483984 302.991718 
L 626.675231 292.507785 
L 627.866478 299.61408 
L 629.057725 297.21984 
L 630.248973 298.229614 
L 631.44022 302.991718 
L 632.631467 296.518476 
L 633.822714 302.991718 
L 635.013961 295.984845 
L 636.205208 298.512324 
L 637.396455 297.04805 
L 639.778949 295.63653 
L 640.970197 302.991718 
L 642.161444 302.991718 
L 643.352691 287.609061 
L 644.543938 298.736192 
L 645.735185 295.907742 
L 646.926432 296.456253 
L 648.117679 295.823876 
L 649.308926 302.991718 
L 650.500173 302.991718 
L 651.691421 288.740577 
L 652.882668 302.991718 
L 654.073915 291.008342 
L 655.265162 295.677787 
L 656.456409 295.057584 
L 657.647656 302.991718 
L 658.838903 302.991718 
L 660.03015 289.565034 
L 661.221397 297.807578 
L 662.412645 297.131239 
L 663.603892 296.13161 
L 664.795139 296.81336 
L 665.986386 302.991718 
L 667.177633 302.991718 
L 668.36888 291.931544 
L 669.560127 299.938047 
L 671.942621 297.608058 
L 673.133869 297.455206 
L 674.325116 302.991718 
L 675.516363 302.991718 
L 676.70761 293.533792 
L 677.898857 299.649926 
L 679.090104 298.650973 
L 680.281351 299.135908 
L 681.472598 298.698993 
L 682.663845 302.991718 
L 683.855093 302.991718 
L 685.04634 295.510731 
L 686.237587 300.294477 
L 687.428834 298.879576 
L 688.620081 299.114266 
L 689.811328 299.750701 
L 691.002575 302.991718 
L 692.193822 302.991718 
L 693.385069 295.506673 
L 694.576316 299.367216 
L 695.767564 299.605288 
L 698.150058 299.284027 
L 699.341305 302.991718 
L 700.532552 302.991718 
L 701.723799 296.409586 
L 702.915046 300.023942 
L 704.106293 299.620844 
L 705.29754 299.440937 
L 706.488788 299.630989 
L 707.680035 302.991718 
L 708.871282 302.991718 
L 710.062529 296.53809 
L 711.253776 300.621825 
L 712.445023 299.997564 
L 713.63627 293.520265 
L 714.827517 300.190321 
L 716.018764 302.991718 
L 717.210012 302.991718 
L 718.401259 297.468056 
L 719.592506 300.670522 
L 721.975 300.153122 
L 723.166247 300.141625 
L 724.357494 302.991718 
L 725.548741 302.991718 
L 726.739988 298.115989 
L 727.931236 300.259308 
L 731.504977 299.661424 
L 732.696224 302.991718 
L 733.887471 302.991718 
L 735.078718 296.107262 
L 736.269965 298.195797 
L 737.461212 296.751137 
L 738.65246 294.642312 
L 739.843707 294.49487 
L 741.034954 302.991718 
L 742.226201 302.991718 
L 743.417448 280.938329 
L 744.608695 293.430312 
L 745.799942 291.234239 
L 746.991189 291.279554 
L 748.182436 288.194095 
L 749.373684 302.991718 
L 750.564931 302.991718 
L 751.756178 280.04218 
L 752.947425 273.259851 
L 754.138672 285.143129 
L 755.329919 284.265241 
L 756.521166 281.984625 
L 757.712413 302.991718 
L 758.90366 302.991718 
L 760.094907 261.310292 
L 761.286155 284.537129 
L 762.477402 282.304534 
L 763.668649 283.016043 
L 764.859896 281.909552 
L 766.051143 302.991718 
L 767.24239 302.991718 
L 768.433637 261.312321 
L 769.624884 285.137042 
L 770.816131 284.629788 
L 772.007379 284.940904 
L 773.198626 286.250296 
L 774.389873 302.991718 
L 775.58112 302.991718 
L 776.772367 265.157985 
L 777.963614 289.243773 
L 779.154861 288.197476 
L 780.346108 288.526853 
L 781.537355 288.40917 
L 782.728603 302.991718 
L 783.91985 302.991718 
L 785.111097 276.182989 
L 786.302344 292.386721 
L 787.493591 291.478397 
L 788.684838 291.216654 
L 789.876085 292.402276 
L 791.067332 302.991718 
L 792.258579 302.991718 
L 793.449827 285.592218 
L 794.641074 293.29572 
L 795.832321 294.905407 
L 797.023568 294.574678 
L 798.214815 294.571296 
L 799.406062 302.991718 
L 800.597309 302.991718 
L 801.788556 286.82789 
L 802.979803 296.17963 
L 804.171051 295.700106 
L 805.362298 298.179565 
L 806.553545 296.573936 
L 807.744792 302.991718 
L 808.936039 302.991718 
L 810.127286 292.515901 
L 811.318533 297.738592 
L 812.50978 298.380438 
L 813.701027 296.52524 
L 814.892275 298.723342 
L 816.083522 302.991718 
L 817.274769 302.991718 
L 818.466016 296.663213 
L 819.657263 299.252915 
L 820.84851 299.192045 
L 822.039757 299.770315 
L 823.231004 299.988772 
L 824.422251 302.991718 
L 825.613498 302.991718 
L 826.804746 297.713567 
L 827.995993 300.786176 
L 830.378487 300.235636 
L 831.569734 300.812553 
L 832.760981 302.991718 
L 833.952228 302.991718 
L 835.143475 298.941799 
L 836.334722 301.334687 
L 837.52597 301.070915 
L 838.717217 300.941734 
L 839.908464 301.13449 
L 841.099711 302.991718 
L 842.290958 302.991718 
L 843.482205 299.583645 
L 844.673452 301.442901 
L 845.864699 301.124345 
L 848.247194 301.614015 
L 849.438441 302.991718 
L 850.629688 302.991718 
L 851.820935 300.103073 
L 853.012182 301.773631 
L 854.203429 301.434109 
L 855.394676 301.769573 
L 856.585923 301.430051 
L 857.77717 302.991718 
L 858.968418 302.991718 
L 860.159665 300.402015 
L 861.350912 302.991718 
L 862.542159 301.126374 
L 863.733406 301.68503 
L 864.924653 301.471307 
L 866.1159 302.991718 
L 867.307147 302.991718 
L 868.498394 299.953602 
L 869.689642 301.714113 
L 870.880889 301.281932 
L 872.072136 301.719524 
L 873.263383 301.262995 
L 874.45463 302.991718 
L 875.645877 302.991718 
L 876.837124 299.958337 
L 878.028371 301.689089 
L 879.219618 301.279227 
L 880.410866 301.495656 
L 881.602113 301.462515 
L 882.79336 302.991718 
L 885.175854 302.991718 
L 886.367101 299.055424 
L 887.558348 301.44493 
L 888.749595 300.765886 
L 889.940842 300.899801 
L 891.132089 302.991718 
L 892.323337 302.991718 
L 893.514584 298.65165 
L 894.705831 302.991718 
L 895.897078 298.621891 
L 897.088325 300.092928 
L 898.279572 300.047614 
L 899.470819 302.991718 
L 900.662066 302.991718 
L 901.853313 296.364947 
L 903.044561 300.224814 
L 904.235808 298.482565 
L 905.427055 298.720636 
L 906.618302 298.503531 
L 907.809549 302.991718 
L 909.000796 302.991718 
L 910.192043 292.254835 
L 911.38329 298.408168 
L 912.574537 297.224574 
L 914.957032 296.287845 
L 916.148279 302.991718 
L 917.339526 302.991718 
L 918.530773 287.496113 
L 919.72202 296.051802 
L 920.913267 295.865809 
L 922.104514 293.184801 
L 923.295761 293.700171 
L 924.487009 302.991718 
L 926.869503 302.991718 
L 928.06075 273.362655 
L 929.251997 302.991718 
L 930.443244 285.12825 
L 931.634491 291.429701 
L 932.825738 303.047854 
L 934.016985 302.991718 
L 935.208233 269.308678 
L 936.39948 285.314919 
L 937.590727 284.635875 
L 938.781974 283.445518 
L 939.973221 280.429722 
L 941.164468 302.991718 
L 942.355715 302.991718 
L 943.546962 249.084787 
L 944.738209 269.294475 
L 945.929457 262.383642 
L 947.120704 253.678482 
L 948.311951 302.991718 
L 950.694445 302.991718 
L 951.885692 157.836498 
L 953.076939 235.580324 
L 954.268186 234.843791 
L 955.459433 193.635803 
L 956.65068 302.991718 
L 959.033175 302.991718 
L 960.224422 50.8755 
L 961.415669 223.335881 
L 962.606916 210.211521 
L 963.798163 302.991718 
L 964.98941 139.020068 
L 966.180657 302.991718 
L 967.371904 302.991718 
L 968.563152 105.234225 
L 969.754399 211.725168 
L 970.945646 181.842478 
L 972.136893 195.344912 
L 973.32814 193.081205 
L 974.519387 302.991718 
L 975.710634 302.991718 
L 976.901881 78.807628 
L 978.093128 239.096611 
L 979.284376 196.170045 
L 980.475623 196.504157 
L 981.66687 207.563654 
L 982.858117 302.991718 
L 984.049364 302.991718 
L 985.240611 96.416116 
L 986.431858 225.295912 
L 987.623105 212.664603 
L 988.814352 214.467047 
L 990.0056 222.56012 
L 991.196847 302.991718 
L 992.388094 302.991718 
L 993.579341 179.814813 
L 994.770588 250.323164 
L 995.961835 244.676408 
L 997.153082 252.693732 
L 998.344329 302.991718 
L 1000.726824 302.991718 
L 1001.918071 170.594959 
L 1003.109318 273.347099 
L 1004.300565 260.491245 
L 1005.491812 267.108547 
L 1006.683059 269.848397 
L 1007.874306 302.991718 
L 1009.065553 302.991718 
L 1010.2568 256.523164 
L 1011.448048 279.73918 
L 1012.639295 277.894127 
L 1013.830542 279.852128 
L 1015.021789 282.285596 
L 1016.213036 302.991718 
L 1017.404283 302.991718 
L 1018.59553 270.001249 
L 1019.786777 287.981724 
L 1020.978024 280.055706 
L 1022.169271 278.716555 
L 1023.360519 284.374131 
L 1024.551766 302.991718 
L 1026.93426 302.991718 
L 1028.125507 263.384624 
L 1029.316754 290.274514 
L 1030.508001 287.341231 
L 1031.699248 287.841722 
L 1032.890495 302.991718 
L 1034.081743 302.991718 
L 1035.27299 278.645539 
L 1036.464237 287.335144 
L 1037.655484 288.155543 
L 1038.846731 287.696309 
L 1040.037978 289.567063 
L 1041.229225 302.991718 
L 1043.611719 302.991718 
L 1044.802967 278.598872 
L 1045.994214 302.991718 
L 1047.185461 302.991718 
L 1048.376708 259.302241 
L 1049.567955 302.991718 
L 1051.950449 302.991718 
L 1053.141696 266.369985 
L 1054.332943 302.991718 
L 1055.524191 302.991718 
L 1056.715438 253.692009 
L 1057.906685 302.991718 
L 1060.289179 302.991718 
L 1061.480426 264.688606 
L 1062.671673 302.991718 
L 1063.86292 302.991718 
L 1065.054167 273.729907 
L 1066.245415 302.991718 
L 1068.627909 302.991718 
L 1069.819156 284.677131 
L 1071.010403 302.991718 
L 1072.20165 302.991718 
L 1073.392897 269.963374 
L 1074.584144 302.991718 
L 1076.966638 302.991718 
L 1078.157886 279.50449 
L 1079.349133 302.991718 
L 1085.305368 302.991718 
L 1086.496615 252.483391 
L 1087.687862 302.991718 
L 1088.87911 302.991718 
L 1090.070357 269.754386 
L 1091.261604 302.991718 
L 1093.644098 302.991718 
L 1094.835345 270.919042 
L 1096.026592 302.991718 
L 1097.217839 302.991718 
L 1098.409086 260.588638 
L 1099.600334 302.991718 
L 1101.982828 302.991718 
L 1103.174075 264.217874 
L 1104.365322 302.991718 
L 1105.556569 302.991718 
L 1106.747816 265.402144 
L 1107.939063 302.991718 
L 1109.13031 302.991718 
L 1110.321558 269.290417 
L 1111.512805 302.991718 
L 1113.895299 302.991718 
L 1115.086546 256.842396 
L 1116.277793 302.991718 
L 1118.660287 302.991718 
L 1119.851534 267.746335 
L 1121.042782 302.991718 
L 1123.425276 302.991718 
L 1124.616523 265.406202 
L 1125.80777 302.991718 
L 1126.999017 302.991718 
L 1128.190264 300.782118 
L 1129.381511 302.991718 
L 1130.572758 274.401512 
L 1131.764006 271.934903 
L 1132.955253 302.991718 
L 1136.528994 302.991718 
L 1137.720241 280.001599 
L 1138.911488 302.991718 
L 1140.102735 273.916576 
L 1141.293982 302.991718 
L 1143.676477 302.991718 
L 1144.867724 280.47436 
L 1146.058971 302.991718 
L 1147.250218 302.991718 
L 1148.441465 274.277065 
L 1149.632712 302.991718 
L 1152.015206 302.991718 
L 1153.206453 278.553557 
L 1154.397701 302.991718 
L 1155.588948 302.991718 
L 1156.780195 270.343477 
L 1157.971442 302.991718 
L 1160.353936 302.991718 
L 1161.545183 269.015823 
L 1162.73643 302.991718 
L 1163.927677 302.991718 
L 1165.118925 256.87486 
L 1166.310172 302.991718 
L 1168.692666 302.991718 
L 1169.883913 267.674643 
L 1171.07516 302.991718 
L 1172.266407 302.991718 
L 1173.457654 246.080488 
L 1174.648901 302.991718 
L 1177.031396 302.991718 
L 1178.222643 254.418397 
L 1179.41389 302.991718 
L 1180.605137 302.991718 
L 1181.796384 246.440977 
L 1182.987631 302.991718 
L 1185.370125 302.991718 
L 1186.561373 262.934859 
L 1187.75262 302.991718 
L 1188.943867 302.991718 
L 1190.135114 264.010914 
L 1191.326361 302.991718 
L 1193.708855 302.991718 
L 1194.900102 274.799875 
L 1196.091349 302.991718 
L 1197.282597 302.991718 
L 1198.473844 253.81916 
L 1199.665091 302.991718 
L 1202.047585 302.991718 
L 1203.238832 304.097532 
L 1204.430079 302.991718 
L 1205.621326 302.991718 
L 1206.812573 287.198523 
L 1208.00382 302.991718 
L 1210.386315 302.991718 
L 1211.577562 289.859241 
L 1212.768809 302.991718 
L 1213.960056 302.991718 
L 1215.151303 289.337784 
L 1216.34255 302.991718 
L 1218.725044 302.991718 
L 1219.916292 293.270696 
L 1221.107539 302.991718 
L 1222.298786 302.991718 
L 1223.490033 293.80568 
L 1224.68128 302.991718 
L 1227.063774 302.991718 
L 1228.255021 294.766082 
L 1229.446268 302.991718 
L 1230.637516 302.991718 
L 1231.828763 297.26786 
L 1233.02001 302.991718 
L 1235.402504 302.991718 
L 1236.593751 296.891139 
L 1237.784998 302.991718 
L 1238.976245 302.991718 
L 1240.167492 296.774809 
L 1241.35874 302.991718 
L 1243.741234 302.991718 
L 1244.932481 296.529974 
L 1246.123728 302.991718 
L 1247.314975 302.991718 
L 1248.506222 296.573936 
L 1249.697469 302.991718 
L 1252.079964 302.991718 
L 1253.271211 298.700346 
L 1254.462458 302.749588 
L 1255.653705 302.991718 
L 1256.844952 296.955391 
L 1258.036199 302.991718 
L 1260.418693 302.991718 
L 1261.60994 298.61648 
L 1262.801188 302.991718 
L 1263.992435 302.991718 
L 1265.183682 295.714309 
L 1266.374929 302.991718 
L 1268.757423 302.991718 
L 1269.94867 297.364576 
L 1271.139917 302.991718 
L 1272.331164 302.991718 
L 1273.522411 296.021367 
L 1274.713659 302.991718 
L 1277.096153 302.991718 
L 1278.2874 297.066311 
L 1279.478647 302.991718 
L 1280.669894 302.991718 
L 1281.861141 295.740686 
L 1283.052388 302.991718 
L 1285.434883 302.991718 
L 1286.62613 297.503902 
L 1287.817377 302.991718 
L 1289.008624 302.991718 
L 1290.199871 295.658173 
L 1291.391118 302.991718 
L 1297.347354 302.991718 
L 1298.538601 289.023963 
L 1299.729848 302.991718 
L 1305.686083 302.991718 
L 1306.877331 286.899582 
L 1308.068578 302.991718 
L 1309.259825 302.991718 
L 1310.451072 301.889961 
L 1311.642319 302.991718 
L 1314.024813 302.991718 
L 1314.024813 302.991718 
" clip-path="url(#p5d135e1202)" style="fill: none; stroke: #0000ff; stroke-width: 1.5; stroke-linecap: square"/>
   </g>
   <g id="line2d_15">
    <path d="M 1074.584144 301.819382 
L 1076.966638 302.011788 
L 1078.157886 288.189566 
L 1079.349133 301.351176 
L 1080.54038 301.49183 
L 1081.731627 276.542054 
L 1082.922874 303.888127 
L 1085.305368 303.741006 
L 1086.496615 285.842948 
L 1087.687862 300.816633 
L 1090.070357 301.173613 
L 1091.261604 298.479838 
L 1093.644098 299.220338 
L 1094.835345 261.192786 
L 1096.026592 300.377578 
L 1097.217839 300.601705 
L 1098.409086 275.56956 
L 1099.600334 299.522204 
L 1101.982828 300.091629 
L 1103.174075 275.987538 
L 1104.365322 299.331182 
L 1105.556569 299.645024 
L 1106.747816 267.735364 
L 1107.939063 299.731916 
L 1110.321558 300.266922 
L 1111.512805 268.170183 
L 1112.704052 300.596581 
L 1113.895299 300.801932 
L 1115.086546 272.44797 
L 1116.277793 299.651709 
L 1117.46904 299.93807 
L 1118.660287 274.610532 
L 1119.851534 302.633183 
L 1121.042782 299.642106 
L 1122.234029 299.92929 
L 1123.425276 265.150742 
L 1124.616523 303.436205 
L 1125.80777 300.175645 
L 1126.999017 300.417086 
L 1128.190264 273.87606 
L 1129.381511 302.944657 
L 1130.572758 302.948692 
L 1131.764006 300.501156 
L 1132.955253 269.51336 
L 1134.1465 300.922303 
L 1135.337747 301.099727 
L 1136.528994 299.584194 
L 1137.720241 301.554089 
L 1138.911488 277.997754 
L 1140.102735 278.267757 
L 1141.293982 301.476094 
L 1144.867724 301.833459 
L 1146.058971 282.545842 
L 1147.250218 301.755163 
L 1148.441465 279.78447 
L 1149.632712 301.388995 
L 1152.015206 301.652037 
L 1153.206453 284.669501 
L 1154.397701 301.242537 
L 1155.588948 301.392506 
L 1156.780195 279.726624 
L 1157.971442 300.725138 
L 1160.353936 301.097134 
L 1161.545183 282.703711 
L 1162.73643 300.086018 
L 1163.927677 300.335142 
L 1165.118925 275.773148 
L 1166.310172 298.942634 
L 1168.692666 299.607179 
L 1169.883913 274.099513 
L 1171.07516 299.346512 
L 1172.266407 299.659039 
L 1173.457654 264.928311 
L 1174.648901 298.328825 
L 1177.031396 299.094109 
L 1178.222643 272.612075 
L 1179.41389 297.868414 
L 1180.605137 298.307668 
L 1181.796384 255.496652 
L 1182.987631 297.93286 
L 1185.370125 298.763132 
L 1186.561373 262.244027 
L 1187.75262 299.184905 
L 1188.943867 299.511288 
L 1190.135114 256.870796 
L 1191.326361 300.421857 
L 1193.708855 300.843628 
L 1194.900102 270.612685 
L 1196.091349 301.386793 
L 1197.282597 301.524394 
L 1198.473844 272.052132 
L 1199.665091 300.086965 
L 1202.047585 300.5637 
L 1203.238832 279.365846 
L 1204.430079 302.892278 
L 1205.621326 302.900804 
L 1206.812573 265.57195 
L 1208.00382 304.762785 
L 1210.386315 304.472114 
L 1211.577562 305.184833 
L 1212.768809 303.031227 
L 1213.960056 303.02784 
L 1215.151303 291.032994 
L 1216.34255 302.879401 
L 1218.725044 302.897835 
L 1219.916292 292.934415 
L 1221.107539 302.934716 
L 1222.298786 302.939603 
L 1223.490033 292.57666 
L 1224.68128 303.049443 
L 1227.063774 303.039969 
L 1228.255021 295.654675 
L 1229.446268 302.959647 
L 1230.637516 302.962397 
L 1231.828763 295.989966 
L 1233.02001 303.074473 
L 1235.402504 303.060891 
L 1236.593751 296.809247 
L 1237.784998 303.061981 
L 1238.976245 303.055957 
L 1240.167492 298.704333 
L 1241.35874 302.885019 
L 1243.741234 302.90253 
L 1244.932481 298.278017 
L 1246.123728 302.760306 
L 1247.314975 302.780146 
L 1248.506222 298.077796 
L 1249.697469 302.66935 
L 1252.079964 302.722258 
L 1253.271211 297.838968 
L 1254.462458 302.819212 
L 1255.653705 302.813242 
L 1256.844952 297.955532 
L 1258.036199 302.742796 
L 1260.418693 302.783649 
L 1261.60994 299.543056 
L 1262.801188 302.538198 
L 1263.992435 302.76093 
L 1265.183682 298.197343 
L 1266.374929 302.56783 
L 1268.757423 302.6374 
L 1269.94867 299.345666 
L 1271.139917 302.497926 
L 1272.331164 302.540262 
L 1273.522411 297.053243 
L 1274.713659 302.490499 
L 1277.096153 302.57276 
L 1278.2874 298.336 
L 1279.478647 302.499821 
L 1280.669894 302.541995 
L 1281.861141 297.287976 
L 1283.052388 302.447893 
L 1285.434883 302.537147 
L 1286.62613 298.076968 
L 1287.817377 302.526987 
L 1289.008624 302.566832 
L 1290.199871 297.097563 
L 1291.391118 302.479852 
L 1293.773612 302.56386 
L 1294.964859 298.433653 
L 1296.156107 302.991336 
L 1297.347354 302.991369 
L 1298.538601 297.423049 
L 1299.729848 302.27129 
L 1305.686083 302.531517 
L 1306.877331 291.965278 
L 1308.068578 302.136658 
L 1310.451072 302.276992 
L 1312.833566 302.307933 
L 1314.024813 302.366558 
L 1314.024813 302.366558 
" clip-path="url(#p5d135e1202)" style="fill: none; stroke: #ffa500; stroke-width: 1.5; stroke-linecap: square"/>
   </g>
   <g id="line2d_16">
    <path d="M 1315.21606 290.201422 
L 1316.407307 302.420157 
L 1317.598555 302.420157 
L 1318.789802 301.583595 
L 1319.981049 302.420157 
L 1321.172296 302.420157 
L 1322.363543 302.420157 
L 1323.55479 292.708505 
L 1324.746037 301.986172 
L 1325.937284 301.986172 
L 1327.128531 301.350972 
L 1328.319779 301.986172 
L 1329.511026 301.986172 
L 1330.702273 301.986172 
" clip-path="url(#p5d135e1202)" style="fill: none; stroke: #ff0000; stroke-width: 1.5; stroke-linecap: square"/>
   </g>
   <g id="patch_3">
    <path d="M 52.375 368.3955 
L 52.375 35.7555 
" style="fill: none; stroke: #000000; stroke-width: 0.8; stroke-linejoin: miter; stroke-linecap: square"/>
   </g>
   <g id="patch_4">
    <path d="M 1391.575 368.3955 
L 1391.575 35.7555 
" style="fill: none; stroke: #000000; stroke-width: 0.8; stroke-linejoin: miter; stroke-linecap: square"/>
   </g>
   <g id="patch_5">
    <path d="M 52.375 368.3955 
L 1391.575 368.3955 
" style="fill: none; stroke: #000000; stroke-width: 0.8; stroke-linejoin: miter; stroke-linecap: square"/>
   </g>
   <g id="patch_6">
    <path d="M 52.375 35.7555 
L 1391.575 35.7555 
" style="fill: none; stroke: #000000; stroke-width: 0.8; stroke-linejoin: miter; stroke-linecap: square"/>
   </g>
   <g id="text_14">
    <!-- Daily Confirmed Cases Forecasting - Spain -->
    <g transform="translate(594.710312 16.318125)scale(0.12 -0.12)">
     <defs>
      <path id="DejaVuSans-44" d="M 1259 4147 
L 1259 519 
L 2022 519 
Q 2988 519 3436 956 
Q 3884 1394 3884 2338 
Q 3884 3275 3436 3711 
Q 2988 4147 2022 4147 
L 1259 4147 
z
M 628 4666 
L 1925 4666 
Q 3281 4666 3915 4102 
Q 4550 3538 4550 2338 
Q 4550 1131 3912 565 
Q 3275 0 1925 0 
L 628 0 
L 628 4666 
z
" transform="scale(0.015625)"/>
      <path id="DejaVuSans-61" d="M 2194 1759 
Q 1497 1759 1228 1600 
Q 959 1441 959 1056 
Q 959 750 1161 570 
Q 1363 391 1709 391 
Q 2188 391 2477 730 
Q 2766 1069 2766 1631 
L 2766 1759 
L 2194 1759 
z
M 3341 1997 
L 3341 0 
L 2766 0 
L 2766 531 
Q 2569 213 2275 61 
Q 1981 -91 1556 -91 
Q 1019 -91 701 211 
Q 384 513 384 1019 
Q 384 1609 779 1909 
Q 1175 2209 1959 2209 
L 2766 2209 
L 2766 2266 
Q 2766 2663 2505 2880 
Q 2244 3097 1772 3097 
Q 1472 3097 1187 3025 
Q 903 2953 641 2809 
L 641 3341 
Q 956 3463 1253 3523 
Q 1550 3584 1831 3584 
Q 2591 3584 2966 3190 
Q 3341 2797 3341 1997 
z
" transform="scale(0.015625)"/>
      <path id="DejaVuSans-69" d="M 603 3500 
L 1178 3500 
L 1178 0 
L 603 0 
L 603 3500 
z
M 603 4863 
L 1178 4863 
L 1178 4134 
L 603 4134 
L 603 4863 
z
" transform="scale(0.015625)"/>
      <path id="DejaVuSans-6c" d="M 603 4863 
L 1178 4863 
L 1178 0 
L 603 0 
L 603 4863 
z
" transform="scale(0.015625)"/>
      <path id="DejaVuSans-79" d="M 2059 -325 
Q 1816 -950 1584 -1140 
Q 1353 -1331 966 -1331 
L 506 -1331 
L 506 -850 
L 844 -850 
Q 1081 -850 1212 -737 
Q 1344 -625 1503 -206 
L 1606 56 
L 191 3500 
L 800 3500 
L 1894 763 
L 2988 3500 
L 3597 3500 
L 2059 -325 
z
" transform="scale(0.015625)"/>
      <path id="DejaVuSans-20" transform="scale(0.015625)"/>
      <path id="DejaVuSans-43" d="M 4122 4306 
L 4122 3641 
Q 3803 3938 3442 4084 
Q 3081 4231 2675 4231 
Q 1875 4231 1450 3742 
Q 1025 3253 1025 2328 
Q 1025 1406 1450 917 
Q 1875 428 2675 428 
Q 3081 428 3442 575 
Q 3803 722 4122 1019 
L 4122 359 
Q 3791 134 3420 21 
Q 3050 -91 2638 -91 
Q 1578 -91 968 557 
Q 359 1206 359 2328 
Q 359 3453 968 4101 
Q 1578 4750 2638 4750 
Q 3056 4750 3426 4639 
Q 3797 4528 4122 4306 
z
" transform="scale(0.015625)"/>
      <path id="DejaVuSans-6f" d="M 1959 3097 
Q 1497 3097 1228 2736 
Q 959 2375 959 1747 
Q 959 1119 1226 758 
Q 1494 397 1959 397 
Q 2419 397 2687 759 
Q 2956 1122 2956 1747 
Q 2956 2369 2687 2733 
Q 2419 3097 1959 3097 
z
M 1959 3584 
Q 2709 3584 3137 3096 
Q 3566 2609 3566 1747 
Q 3566 888 3137 398 
Q 2709 -91 1959 -91 
Q 1206 -91 779 398 
Q 353 888 353 1747 
Q 353 2609 779 3096 
Q 1206 3584 1959 3584 
z
" transform="scale(0.015625)"/>
      <path id="DejaVuSans-6e" d="M 3513 2113 
L 3513 0 
L 2938 0 
L 2938 2094 
Q 2938 2591 2744 2837 
Q 2550 3084 2163 3084 
Q 1697 3084 1428 2787 
Q 1159 2491 1159 1978 
L 1159 0 
L 581 0 
L 581 3500 
L 1159 3500 
L 1159 2956 
Q 1366 3272 1645 3428 
Q 1925 3584 2291 3584 
Q 2894 3584 3203 3211 
Q 3513 2838 3513 2113 
z
" transform="scale(0.015625)"/>
      <path id="DejaVuSans-66" d="M 2375 4863 
L 2375 4384 
L 1825 4384 
Q 1516 4384 1395 4259 
Q 1275 4134 1275 3809 
L 1275 3500 
L 2222 3500 
L 2222 3053 
L 1275 3053 
L 1275 0 
L 697 0 
L 697 3053 
L 147 3053 
L 147 3500 
L 697 3500 
L 697 3744 
Q 697 4328 969 4595 
Q 1241 4863 1831 4863 
L 2375 4863 
z
" transform="scale(0.015625)"/>
      <path id="DejaVuSans-72" d="M 2631 2963 
Q 2534 3019 2420 3045 
Q 2306 3072 2169 3072 
Q 1681 3072 1420 2755 
Q 1159 2438 1159 1844 
L 1159 0 
L 581 0 
L 581 3500 
L 1159 3500 
L 1159 2956 
Q 1341 3275 1631 3429 
Q 1922 3584 2338 3584 
Q 2397 3584 2469 3576 
Q 2541 3569 2628 3553 
L 2631 2963 
z
" transform="scale(0.015625)"/>
      <path id="DejaVuSans-6d" d="M 3328 2828 
Q 3544 3216 3844 3400 
Q 4144 3584 4550 3584 
Q 5097 3584 5394 3201 
Q 5691 2819 5691 2113 
L 5691 0 
L 5113 0 
L 5113 2094 
Q 5113 2597 4934 2840 
Q 4756 3084 4391 3084 
Q 3944 3084 3684 2787 
Q 3425 2491 3425 1978 
L 3425 0 
L 2847 0 
L 2847 2094 
Q 2847 2600 2669 2842 
Q 2491 3084 2119 3084 
Q 1678 3084 1418 2786 
Q 1159 2488 1159 1978 
L 1159 0 
L 581 0 
L 581 3500 
L 1159 3500 
L 1159 2956 
Q 1356 3278 1631 3431 
Q 1906 3584 2284 3584 
Q 2666 3584 2933 3390 
Q 3200 3197 3328 2828 
z
" transform="scale(0.015625)"/>
      <path id="DejaVuSans-65" d="M 3597 1894 
L 3597 1613 
L 953 1613 
Q 991 1019 1311 708 
Q 1631 397 2203 397 
Q 2534 397 2845 478 
Q 3156 559 3463 722 
L 3463 178 
Q 3153 47 2828 -22 
Q 2503 -91 2169 -91 
Q 1331 -91 842 396 
Q 353 884 353 1716 
Q 353 2575 817 3079 
Q 1281 3584 2069 3584 
Q 2775 3584 3186 3129 
Q 3597 2675 3597 1894 
z
M 3022 2063 
Q 3016 2534 2758 2815 
Q 2500 3097 2075 3097 
Q 1594 3097 1305 2825 
Q 1016 2553 972 2059 
L 3022 2063 
z
" transform="scale(0.015625)"/>
      <path id="DejaVuSans-64" d="M 2906 2969 
L 2906 4863 
L 3481 4863 
L 3481 0 
L 2906 0 
L 2906 525 
Q 2725 213 2448 61 
Q 2172 -91 1784 -91 
Q 1150 -91 751 415 
Q 353 922 353 1747 
Q 353 2572 751 3078 
Q 1150 3584 1784 3584 
Q 2172 3584 2448 3432 
Q 2725 3281 2906 2969 
z
M 947 1747 
Q 947 1113 1208 752 
Q 1469 391 1925 391 
Q 2381 391 2643 752 
Q 2906 1113 2906 1747 
Q 2906 2381 2643 2742 
Q 2381 3103 1925 3103 
Q 1469 3103 1208 2742 
Q 947 2381 947 1747 
z
" transform="scale(0.015625)"/>
      <path id="DejaVuSans-73" d="M 2834 3397 
L 2834 2853 
Q 2591 2978 2328 3040 
Q 2066 3103 1784 3103 
Q 1356 3103 1142 2972 
Q 928 2841 928 2578 
Q 928 2378 1081 2264 
Q 1234 2150 1697 2047 
L 1894 2003 
Q 2506 1872 2764 1633 
Q 3022 1394 3022 966 
Q 3022 478 2636 193 
Q 2250 -91 1575 -91 
Q 1294 -91 989 -36 
Q 684 19 347 128 
L 347 722 
Q 666 556 975 473 
Q 1284 391 1588 391 
Q 1994 391 2212 530 
Q 2431 669 2431 922 
Q 2431 1156 2273 1281 
Q 2116 1406 1581 1522 
L 1381 1569 
Q 847 1681 609 1914 
Q 372 2147 372 2553 
Q 372 3047 722 3315 
Q 1072 3584 1716 3584 
Q 2034 3584 2315 3537 
Q 2597 3491 2834 3397 
z
" transform="scale(0.015625)"/>
      <path id="DejaVuSans-46" d="M 628 4666 
L 3309 4666 
L 3309 4134 
L 1259 4134 
L 1259 2759 
L 3109 2759 
L 3109 2228 
L 1259 2228 
L 1259 0 
L 628 0 
L 628 4666 
z
" transform="scale(0.015625)"/>
      <path id="DejaVuSans-63" d="M 3122 3366 
L 3122 2828 
Q 2878 2963 2633 3030 
Q 2388 3097 2138 3097 
Q 1578 3097 1268 2742 
Q 959 2388 959 1747 
Q 959 1106 1268 751 
Q 1578 397 2138 397 
Q 2388 397 2633 464 
Q 2878 531 3122 666 
L 3122 134 
Q 2881 22 2623 -34 
Q 2366 -91 2075 -91 
Q 1284 -91 818 406 
Q 353 903 353 1747 
Q 353 2603 823 3093 
Q 1294 3584 2113 3584 
Q 2378 3584 2631 3529 
Q 2884 3475 3122 3366 
z
" transform="scale(0.015625)"/>
      <path id="DejaVuSans-74" d="M 1172 4494 
L 1172 3500 
L 2356 3500 
L 2356 3053 
L 1172 3053 
L 1172 1153 
Q 1172 725 1289 603 
Q 1406 481 1766 481 
L 2356 481 
L 2356 0 
L 1766 0 
Q 1100 0 847 248 
Q 594 497 594 1153 
L 594 3053 
L 172 3053 
L 172 3500 
L 594 3500 
L 594 4494 
L 1172 4494 
z
" transform="scale(0.015625)"/>
      <path id="DejaVuSans-67" d="M 2906 1791 
Q 2906 2416 2648 2759 
Q 2391 3103 1925 3103 
Q 1463 3103 1205 2759 
Q 947 2416 947 1791 
Q 947 1169 1205 825 
Q 1463 481 1925 481 
Q 2391 481 2648 825 
Q 2906 1169 2906 1791 
z
M 3481 434 
Q 3481 -459 3084 -895 
Q 2688 -1331 1869 -1331 
Q 1566 -1331 1297 -1286 
Q 1028 -1241 775 -1147 
L 775 -588 
Q 1028 -725 1275 -790 
Q 1522 -856 1778 -856 
Q 2344 -856 2625 -561 
Q 2906 -266 2906 331 
L 2906 616 
Q 2728 306 2450 153 
Q 2172 0 1784 0 
Q 1141 0 747 490 
Q 353 981 353 1791 
Q 353 2603 747 3093 
Q 1141 3584 1784 3584 
Q 2172 3584 2450 3431 
Q 2728 3278 2906 2969 
L 2906 3500 
L 3481 3500 
L 3481 434 
z
" transform="scale(0.015625)"/>
      <path id="DejaVuSans-53" d="M 3425 4513 
L 3425 3897 
Q 3066 4069 2747 4153 
Q 2428 4238 2131 4238 
Q 1616 4238 1336 4038 
Q 1056 3838 1056 3469 
Q 1056 3159 1242 3001 
Q 1428 2844 1947 2747 
L 2328 2669 
Q 3034 2534 3370 2195 
Q 3706 1856 3706 1288 
Q 3706 609 3251 259 
Q 2797 -91 1919 -91 
Q 1588 -91 1214 -16 
Q 841 59 441 206 
L 441 856 
Q 825 641 1194 531 
Q 1563 422 1919 422 
Q 2459 422 2753 634 
Q 3047 847 3047 1241 
Q 3047 1584 2836 1778 
Q 2625 1972 2144 2069 
L 1759 2144 
Q 1053 2284 737 2584 
Q 422 2884 422 3419 
Q 422 4038 858 4394 
Q 1294 4750 2059 4750 
Q 2388 4750 2728 4690 
Q 3069 4631 3425 4513 
z
" transform="scale(0.015625)"/>
      <path id="DejaVuSans-70" d="M 1159 525 
L 1159 -1331 
L 581 -1331 
L 581 3500 
L 1159 3500 
L 1159 2969 
Q 1341 3281 1617 3432 
Q 1894 3584 2278 3584 
Q 2916 3584 3314 3078 
Q 3713 2572 3713 1747 
Q 3713 922 3314 415 
Q 2916 -91 2278 -91 
Q 1894 -91 1617 61 
Q 1341 213 1159 525 
z
M 3116 1747 
Q 3116 2381 2855 2742 
Q 2594 3103 2138 3103 
Q 1681 3103 1420 2742 
Q 1159 2381 1159 1747 
Q 1159 1113 1420 752 
Q 1681 391 2138 391 
Q 2594 391 2855 752 
Q 3116 1113 3116 1747 
z
" transform="scale(0.015625)"/>
     </defs>
     <use xlink:href="#DejaVuSans-44"/>
     <use xlink:href="#DejaVuSans-61" x="77.001953"/>
     <use xlink:href="#DejaVuSans-69" x="138.28125"/>
     <use xlink:href="#DejaVuSans-6c" x="166.064453"/>
     <use xlink:href="#DejaVuSans-79" x="193.847656"/>
     <use xlink:href="#DejaVuSans-20" x="253.027344"/>
     <use xlink:href="#DejaVuSans-43" x="284.814453"/>
     <use xlink:href="#DejaVuSans-6f" x="354.638672"/>
     <use xlink:href="#DejaVuSans-6e" x="415.820312"/>
     <use xlink:href="#DejaVuSans-66" x="479.199219"/>
     <use xlink:href="#DejaVuSans-69" x="514.404297"/>
     <use xlink:href="#DejaVuSans-72" x="542.1875"/>
     <use xlink:href="#DejaVuSans-6d" x="581.550781"/>
     <use xlink:href="#DejaVuSans-65" x="678.962891"/>
     <use xlink:href="#DejaVuSans-64" x="740.486328"/>
     <use xlink:href="#DejaVuSans-20" x="803.962891"/>
     <use xlink:href="#DejaVuSans-43" x="835.75"/>
     <use xlink:href="#DejaVuSans-61" x="905.574219"/>
     <use xlink:href="#DejaVuSans-73" x="966.853516"/>
     <use xlink:href="#DejaVuSans-65" x="1018.953125"/>
     <use xlink:href="#DejaVuSans-73" x="1080.476562"/>
     <use xlink:href="#DejaVuSans-20" x="1132.576172"/>
     <use xlink:href="#DejaVuSans-46" x="1164.363281"/>
     <use xlink:href="#DejaVuSans-6f" x="1218.257812"/>
     <use xlink:href="#DejaVuSans-72" x="1279.439453"/>
     <use xlink:href="#DejaVuSans-65" x="1318.302734"/>
     <use xlink:href="#DejaVuSans-63" x="1379.826172"/>
     <use xlink:href="#DejaVuSans-61" x="1434.806641"/>
     <use xlink:href="#DejaVuSans-73" x="1496.085938"/>
     <use xlink:href="#DejaVuSans-74" x="1548.185547"/>
     <use xlink:href="#DejaVuSans-69" x="1587.394531"/>
     <use xlink:href="#DejaVuSans-6e" x="1615.177734"/>
     <use xlink:href="#DejaVuSans-67" x="1678.556641"/>
     <use xlink:href="#DejaVuSans-20" x="1742.033203"/>
     <use xlink:href="#DejaVuSans-2d" x="1773.820312"/>
     <use xlink:href="#DejaVuSans-20" x="1809.904297"/>
     <use xlink:href="#DejaVuSans-53" x="1841.691406"/>
     <use xlink:href="#DejaVuSans-70" x="1905.167969"/>
     <use xlink:href="#DejaVuSans-61" x="1968.644531"/>
     <use xlink:href="#DejaVuSans-69" x="2029.923828"/>
     <use xlink:href="#DejaVuSans-6e" x="2057.707031"/>
    </g>
    <!-- ARIMA (0, 1, 1)x(1, 0, 0, 7) (R2 = 0.437349) -->
    <g transform="translate(589.990937 29.7555)scale(0.12 -0.12)">
     <defs>
      <path id="DejaVuSans-41" d="M 2188 4044 
L 1331 1722 
L 3047 1722 
L 2188 4044 
z
M 1831 4666 
L 2547 4666 
L 4325 0 
L 3669 0 
L 3244 1197 
L 1141 1197 
L 716 0 
L 50 0 
L 1831 4666 
z
" transform="scale(0.015625)"/>
      <path id="DejaVuSans-52" d="M 2841 2188 
Q 3044 2119 3236 1894 
Q 3428 1669 3622 1275 
L 4263 0 
L 3584 0 
L 2988 1197 
Q 2756 1666 2539 1819 
Q 2322 1972 1947 1972 
L 1259 1972 
L 1259 0 
L 628 0 
L 628 4666 
L 2053 4666 
Q 2853 4666 3247 4331 
Q 3641 3997 3641 3322 
Q 3641 2881 3436 2590 
Q 3231 2300 2841 2188 
z
M 1259 4147 
L 1259 2491 
L 2053 2491 
Q 2509 2491 2742 2702 
Q 2975 2913 2975 3322 
Q 2975 3731 2742 3939 
Q 2509 4147 2053 4147 
L 1259 4147 
z
" transform="scale(0.015625)"/>
      <path id="DejaVuSans-49" d="M 628 4666 
L 1259 4666 
L 1259 0 
L 628 0 
L 628 4666 
z
" transform="scale(0.015625)"/>
      <path id="DejaVuSans-4d" d="M 628 4666 
L 1569 4666 
L 2759 1491 
L 3956 4666 
L 4897 4666 
L 4897 0 
L 4281 0 
L 4281 4097 
L 3078 897 
L 2444 897 
L 1241 4097 
L 1241 0 
L 628 0 
L 628 4666 
z
" transform="scale(0.015625)"/>
      <path id="DejaVuSans-28" d="M 1984 4856 
Q 1566 4138 1362 3434 
Q 1159 2731 1159 2009 
Q 1159 1288 1364 580 
Q 1569 -128 1984 -844 
L 1484 -844 
Q 1016 -109 783 600 
Q 550 1309 550 2009 
Q 550 2706 781 3412 
Q 1013 4119 1484 4856 
L 1984 4856 
z
" transform="scale(0.015625)"/>
      <path id="DejaVuSans-2c" d="M 750 794 
L 1409 794 
L 1409 256 
L 897 -744 
L 494 -744 
L 750 256 
L 750 794 
z
" transform="scale(0.015625)"/>
      <path id="DejaVuSans-29" d="M 513 4856 
L 1013 4856 
Q 1481 4119 1714 3412 
Q 1947 2706 1947 2009 
Q 1947 1309 1714 600 
Q 1481 -109 1013 -844 
L 513 -844 
Q 928 -128 1133 580 
Q 1338 1288 1338 2009 
Q 1338 2731 1133 3434 
Q 928 4138 513 4856 
z
" transform="scale(0.015625)"/>
      <path id="DejaVuSans-78" d="M 3513 3500 
L 2247 1797 
L 3578 0 
L 2900 0 
L 1881 1375 
L 863 0 
L 184 0 
L 1544 1831 
L 300 3500 
L 978 3500 
L 1906 2253 
L 2834 3500 
L 3513 3500 
z
" transform="scale(0.015625)"/>
      <path id="DejaVuSans-37" d="M 525 4666 
L 3525 4666 
L 3525 4397 
L 1831 0 
L 1172 0 
L 2766 4134 
L 525 4134 
L 525 4666 
z
" transform="scale(0.015625)"/>
      <path id="DejaVuSans-3d" d="M 678 2906 
L 4684 2906 
L 4684 2381 
L 678 2381 
L 678 2906 
z
M 678 1631 
L 4684 1631 
L 4684 1100 
L 678 1100 
L 678 1631 
z
" transform="scale(0.015625)"/>
      <path id="DejaVuSans-2e" d="M 684 794 
L 1344 794 
L 1344 0 
L 684 0 
L 684 794 
z
" transform="scale(0.015625)"/>
      <path id="DejaVuSans-34" d="M 2419 4116 
L 825 1625 
L 2419 1625 
L 2419 4116 
z
M 2253 4666 
L 3047 4666 
L 3047 1625 
L 3713 1625 
L 3713 1100 
L 3047 1100 
L 3047 0 
L 2419 0 
L 2419 1100 
L 313 1100 
L 313 1709 
L 2253 4666 
z
" transform="scale(0.015625)"/>
     </defs>
     <use xlink:href="#DejaVuSans-41"/>
     <use xlink:href="#DejaVuSans-52" x="68.408203"/>
     <use xlink:href="#DejaVuSans-49" x="137.890625"/>
     <use xlink:href="#DejaVuSans-4d" x="167.382812"/>
     <use xlink:href="#DejaVuSans-41" x="253.662109"/>
     <use xlink:href="#DejaVuSans-20" x="322.070312"/>
     <use xlink:href="#DejaVuSans-28" x="353.857422"/>
     <use xlink:href="#DejaVuSans-30" x="392.871094"/>
     <use xlink:href="#DejaVuSans-2c" x="456.494141"/>
     <use xlink:href="#DejaVuSans-20" x="488.28125"/>
     <use xlink:href="#DejaVuSans-31" x="520.068359"/>
     <use xlink:href="#DejaVuSans-2c" x="583.691406"/>
     <use xlink:href="#DejaVuSans-20" x="615.478516"/>
     <use xlink:href="#DejaVuSans-31" x="647.265625"/>
     <use xlink:href="#DejaVuSans-29" x="710.888672"/>
     <use xlink:href="#DejaVuSans-78" x="749.902344"/>
     <use xlink:href="#DejaVuSans-28" x="809.082031"/>
     <use xlink:href="#DejaVuSans-31" x="848.095703"/>
     <use xlink:href="#DejaVuSans-2c" x="911.71875"/>
     <use xlink:href="#DejaVuSans-20" x="943.505859"/>
     <use xlink:href="#DejaVuSans-30" x="975.292969"/>
     <use xlink:href="#DejaVuSans-2c" x="1038.916016"/>
     <use xlink:href="#DejaVuSans-20" x="1070.703125"/>
     <use xlink:href="#DejaVuSans-30" x="1102.490234"/>
     <use xlink:href="#DejaVuSans-2c" x="1166.113281"/>
     <use xlink:href="#DejaVuSans-20" x="1197.900391"/>
     <use xlink:href="#DejaVuSans-37" x="1229.6875"/>
     <use xlink:href="#DejaVuSans-29" x="1293.310547"/>
     <use xlink:href="#DejaVuSans-20" x="1332.324219"/>
     <use xlink:href="#DejaVuSans-28" x="1364.111328"/>
     <use xlink:href="#DejaVuSans-52" x="1403.125"/>
     <use xlink:href="#DejaVuSans-32" x="1472.607422"/>
     <use xlink:href="#DejaVuSans-20" x="1536.230469"/>
     <use xlink:href="#DejaVuSans-3d" x="1568.017578"/>
     <use xlink:href="#DejaVuSans-20" x="1651.806641"/>
     <use xlink:href="#DejaVuSans-30" x="1683.59375"/>
     <use xlink:href="#DejaVuSans-2e" x="1747.216797"/>
     <use xlink:href="#DejaVuSans-34" x="1779.003906"/>
     <use xlink:href="#DejaVuSans-33" x="1842.626953"/>
     <use xlink:href="#DejaVuSans-37" x="1906.25"/>
     <use xlink:href="#DejaVuSans-33" x="1969.873047"/>
     <use xlink:href="#DejaVuSans-34" x="2033.496094"/>
     <use xlink:href="#DejaVuSans-39" x="2097.119141"/>
     <use xlink:href="#DejaVuSans-29" x="2160.742188"/>
    </g>
   </g>
   <g id="legend_1">
    <g id="patch_7">
     <path d="M 1287.495312 87.789875 
L 1384.575 87.789875 
Q 1386.575 87.789875 1386.575 85.789875 
L 1386.575 42.7555 
Q 1386.575 40.7555 1384.575 40.7555 
L 1287.495312 40.7555 
Q 1285.495312 40.7555 1285.495312 42.7555 
L 1285.495312 85.789875 
Q 1285.495312 87.789875 1287.495312 87.789875 
z
" style="fill: #ffffff; opacity: 0.8; stroke: #cccccc; stroke-linejoin: miter"/>
    </g>
    <g id="line2d_17">
     <path d="M 1289.495312 48.853937 
L 1299.495312 48.853937 
L 1309.495312 48.853937 
" style="fill: none; stroke: #0000ff; stroke-width: 1.5; stroke-linecap: square"/>
    </g>
    <g id="text_15">
     <!-- Actual Value -->
     <g transform="translate(1317.495312 52.353937)scale(0.1 -0.1)">
      <defs>
       <path id="DejaVuSans-75" d="M 544 1381 
L 544 3500 
L 1119 3500 
L 1119 1403 
Q 1119 906 1312 657 
Q 1506 409 1894 409 
Q 2359 409 2629 706 
Q 2900 1003 2900 1516 
L 2900 3500 
L 3475 3500 
L 3475 0 
L 2900 0 
L 2900 538 
Q 2691 219 2414 64 
Q 2138 -91 1772 -91 
Q 1169 -91 856 284 
Q 544 659 544 1381 
z
M 1991 3584 
L 1991 3584 
z
" transform="scale(0.015625)"/>
       <path id="DejaVuSans-56" d="M 1831 0 
L 50 4666 
L 709 4666 
L 2188 738 
L 3669 4666 
L 4325 4666 
L 2547 0 
L 1831 0 
z
" transform="scale(0.015625)"/>
      </defs>
      <use xlink:href="#DejaVuSans-41"/>
      <use xlink:href="#DejaVuSans-63" x="66.658203"/>
      <use xlink:href="#DejaVuSans-74" x="121.638672"/>
      <use xlink:href="#DejaVuSans-75" x="160.847656"/>
      <use xlink:href="#DejaVuSans-61" x="224.226562"/>
      <use xlink:href="#DejaVuSans-6c" x="285.505859"/>
      <use xlink:href="#DejaVuSans-20" x="313.289062"/>
      <use xlink:href="#DejaVuSans-56" x="345.076172"/>
      <use xlink:href="#DejaVuSans-61" x="405.734375"/>
      <use xlink:href="#DejaVuSans-6c" x="467.013672"/>
      <use xlink:href="#DejaVuSans-75" x="494.796875"/>
      <use xlink:href="#DejaVuSans-65" x="558.175781"/>
     </g>
    </g>
    <g id="line2d_18">
     <path d="M 1289.495312 63.532062 
L 1299.495312 63.532062 
L 1309.495312 63.532062 
" style="fill: none; stroke: #ffa500; stroke-width: 1.5; stroke-linecap: square"/>
    </g>
    <g id="text_16">
     <!-- Check Value -->
     <g transform="translate(1317.495312 67.032062)scale(0.1 -0.1)">
      <defs>
       <path id="DejaVuSans-68" d="M 3513 2113 
L 3513 0 
L 2938 0 
L 2938 2094 
Q 2938 2591 2744 2837 
Q 2550 3084 2163 3084 
Q 1697 3084 1428 2787 
Q 1159 2491 1159 1978 
L 1159 0 
L 581 0 
L 581 4863 
L 1159 4863 
L 1159 2956 
Q 1366 3272 1645 3428 
Q 1925 3584 2291 3584 
Q 2894 3584 3203 3211 
Q 3513 2838 3513 2113 
z
" transform="scale(0.015625)"/>
       <path id="DejaVuSans-6b" d="M 581 4863 
L 1159 4863 
L 1159 1991 
L 2875 3500 
L 3609 3500 
L 1753 1863 
L 3688 0 
L 2938 0 
L 1159 1709 
L 1159 0 
L 581 0 
L 581 4863 
z
" transform="scale(0.015625)"/>
      </defs>
      <use xlink:href="#DejaVuSans-43"/>
      <use xlink:href="#DejaVuSans-68" x="69.824219"/>
      <use xlink:href="#DejaVuSans-65" x="133.203125"/>
      <use xlink:href="#DejaVuSans-63" x="194.726562"/>
      <use xlink:href="#DejaVuSans-6b" x="249.707031"/>
      <use xlink:href="#DejaVuSans-20" x="307.617188"/>
      <use xlink:href="#DejaVuSans-56" x="339.404297"/>
      <use xlink:href="#DejaVuSans-61" x="400.0625"/>
      <use xlink:href="#DejaVuSans-6c" x="461.341797"/>
      <use xlink:href="#DejaVuSans-75" x="489.125"/>
      <use xlink:href="#DejaVuSans-65" x="552.503906"/>
     </g>
    </g>
    <g id="line2d_19">
     <path d="M 1289.495312 78.210187 
L 1299.495312 78.210187 
L 1309.495312 78.210187 
" style="fill: none; stroke: #ff0000; stroke-width: 1.5; stroke-linecap: square"/>
    </g>
    <g id="text_17">
     <!-- Predict Value -->
     <g transform="translate(1317.495312 81.710187)scale(0.1 -0.1)">
      <defs>
       <path id="DejaVuSans-50" d="M 1259 4147 
L 1259 2394 
L 2053 2394 
Q 2494 2394 2734 2622 
Q 2975 2850 2975 3272 
Q 2975 3691 2734 3919 
Q 2494 4147 2053 4147 
L 1259 4147 
z
M 628 4666 
L 2053 4666 
Q 2838 4666 3239 4311 
Q 3641 3956 3641 3272 
Q 3641 2581 3239 2228 
Q 2838 1875 2053 1875 
L 1259 1875 
L 1259 0 
L 628 0 
L 628 4666 
z
" transform="scale(0.015625)"/>
      </defs>
      <use xlink:href="#DejaVuSans-50"/>
      <use xlink:href="#DejaVuSans-72" x="58.552734"/>
      <use xlink:href="#DejaVuSans-65" x="97.416016"/>
      <use xlink:href="#DejaVuSans-64" x="158.939453"/>
      <use xlink:href="#DejaVuSans-69" x="222.416016"/>
      <use xlink:href="#DejaVuSans-63" x="250.199219"/>
      <use xlink:href="#DejaVuSans-74" x="305.179688"/>
      <use xlink:href="#DejaVuSans-20" x="344.388672"/>
      <use xlink:href="#DejaVuSans-56" x="376.175781"/>
      <use xlink:href="#DejaVuSans-61" x="436.833984"/>
      <use xlink:href="#DejaVuSans-6c" x="498.113281"/>
      <use xlink:href="#DejaVuSans-75" x="525.896484"/>
      <use xlink:href="#DejaVuSans-65" x="589.275391"/>
     </g>
    </g>
   </g>
  </g>
 </g>
 <defs>
  <clipPath id="p5d135e1202">
   <rect x="52.375" y="35.7555" width="1339.2" height="332.64"/>
  </clipPath>
 </defs>
</svg>
