<?xml version="1.0" encoding="utf-8" standalone="no"?>
<!DOCTYPE svg PUBLIC "-//W3C//DTD SVG 1.1//EN"
  "http://www.w3.org/Graphics/SVG/1.1/DTD/svg11.dtd">
<svg xmlns:xlink="http://www.w3.org/1999/xlink" width="1400.546217pt" height="392.273625pt" viewBox="0 0 1400.546217 392.273625" xmlns="http://www.w3.org/2000/svg" version="1.1">
 <metadata>
  <rdf:RDF xmlns:dc="http://purl.org/dc/elements/1.1/" xmlns:cc="http://creativecommons.org/ns#" xmlns:rdf="http://www.w3.org/1999/02/22-rdf-syntax-ns#">
   <cc:Work>
    <dc:type rdf:resource="http://purl.org/dc/dcmitype/StillImage"/>
    <dc:date>2022-11-03T19:20:07.171690</dc:date>
    <dc:format>image/svg+xml</dc:format>
    <dc:creator>
     <cc:Agent>
      <dc:title>Matplotlib v3.5.1, https://matplotlib.org/</dc:title>
     </cc:Agent>
    </dc:creator>
   </cc:Work>
  </rdf:RDF>
 </metadata>
 <defs>
  <style type="text/css">*{stroke-linejoin: round; stroke-linecap: butt}</style>
 </defs>
 <g id="figure_1">
  <g id="patch_1">
   <path d="M 0 392.273625 
L 1400.546217 392.273625 
L 1400.546217 0 
L 0 0 
z
" style="fill: #ffffff"/>
  </g>
  <g id="axes_1">
   <g id="patch_2">
    <path d="M 39.65 368.3955 
L 1378.85 368.3955 
L 1378.85 35.7555 
L 39.65 35.7555 
z
" style="fill: #ffffff"/>
   </g>
   <g id="matplotlib.axis_1">
    <g id="xtick_1">
     <g id="line2d_1">
      <defs>
       <path id="m13af11fcdf" d="M 0 0 
L 0 3.5 
" style="stroke: #000000; stroke-width: 0.8"/>
      </defs>
      <g>
       <use xlink:href="#m13af11fcdf" x="74.468253" y="368.3955" style="stroke: #000000; stroke-width: 0.8"/>
      </g>
     </g>
     <g id="text_1">
      <!-- 2020-01 -->
      <g transform="translate(53.576846 382.993937)scale(0.1 -0.1)">
       <defs>
        <path id="DejaVuSans-32" d="M 1228 531 
L 3431 531 
L 3431 0 
L 469 0 
L 469 531 
Q 828 903 1448 1529 
Q 2069 2156 2228 2338 
Q 2531 2678 2651 2914 
Q 2772 3150 2772 3378 
Q 2772 3750 2511 3984 
Q 2250 4219 1831 4219 
Q 1534 4219 1204 4116 
Q 875 4013 500 3803 
L 500 4441 
Q 881 4594 1212 4672 
Q 1544 4750 1819 4750 
Q 2544 4750 2975 4387 
Q 3406 4025 3406 3419 
Q 3406 3131 3298 2873 
Q 3191 2616 2906 2266 
Q 2828 2175 2409 1742 
Q 1991 1309 1228 531 
z
" transform="scale(0.015625)"/>
        <path id="DejaVuSans-30" d="M 2034 4250 
Q 1547 4250 1301 3770 
Q 1056 3291 1056 2328 
Q 1056 1369 1301 889 
Q 1547 409 2034 409 
Q 2525 409 2770 889 
Q 3016 1369 3016 2328 
Q 3016 3291 2770 3770 
Q 2525 4250 2034 4250 
z
M 2034 4750 
Q 2819 4750 3233 4129 
Q 3647 3509 3647 2328 
Q 3647 1150 3233 529 
Q 2819 -91 2034 -91 
Q 1250 -91 836 529 
Q 422 1150 422 2328 
Q 422 3509 836 4129 
Q 1250 4750 2034 4750 
z
" transform="scale(0.015625)"/>
        <path id="DejaVuSans-2d" d="M 313 2009 
L 1997 2009 
L 1997 1497 
L 313 1497 
L 313 2009 
z
" transform="scale(0.015625)"/>
        <path id="DejaVuSans-31" d="M 794 531 
L 1825 531 
L 1825 4091 
L 703 3866 
L 703 4441 
L 1819 4666 
L 2450 4666 
L 2450 531 
L 3481 531 
L 3481 0 
L 794 0 
L 794 531 
z
" transform="scale(0.015625)"/>
       </defs>
       <use xlink:href="#DejaVuSans-32"/>
       <use xlink:href="#DejaVuSans-30" x="63.623047"/>
       <use xlink:href="#DejaVuSans-32" x="127.246094"/>
       <use xlink:href="#DejaVuSans-30" x="190.869141"/>
       <use xlink:href="#DejaVuSans-2d" x="254.492188"/>
       <use xlink:href="#DejaVuSans-30" x="290.576172"/>
       <use xlink:href="#DejaVuSans-31" x="354.199219"/>
      </g>
     </g>
    </g>
    <g id="xtick_2">
     <g id="line2d_2">
      <g>
       <use xlink:href="#m13af11fcdf" x="217.767863" y="368.3955" style="stroke: #000000; stroke-width: 0.8"/>
      </g>
     </g>
     <g id="text_2">
      <!-- 2020-05 -->
      <g transform="translate(196.876457 382.993937)scale(0.1 -0.1)">
       <defs>
        <path id="DejaVuSans-35" d="M 691 4666 
L 3169 4666 
L 3169 4134 
L 1269 4134 
L 1269 2991 
Q 1406 3038 1543 3061 
Q 1681 3084 1819 3084 
Q 2600 3084 3056 2656 
Q 3513 2228 3513 1497 
Q 3513 744 3044 326 
Q 2575 -91 1722 -91 
Q 1428 -91 1123 -41 
Q 819 9 494 109 
L 494 744 
Q 775 591 1075 516 
Q 1375 441 1709 441 
Q 2250 441 2565 725 
Q 2881 1009 2881 1497 
Q 2881 1984 2565 2268 
Q 2250 2553 1709 2553 
Q 1456 2553 1204 2497 
Q 953 2441 691 2322 
L 691 4666 
z
" transform="scale(0.015625)"/>
       </defs>
       <use xlink:href="#DejaVuSans-32"/>
       <use xlink:href="#DejaVuSans-30" x="63.623047"/>
       <use xlink:href="#DejaVuSans-32" x="127.246094"/>
       <use xlink:href="#DejaVuSans-30" x="190.869141"/>
       <use xlink:href="#DejaVuSans-2d" x="254.492188"/>
       <use xlink:href="#DejaVuSans-30" x="290.576172"/>
       <use xlink:href="#DejaVuSans-35" x="354.199219"/>
      </g>
     </g>
    </g>
    <g id="xtick_3">
     <g id="line2d_3">
      <g>
       <use xlink:href="#m13af11fcdf" x="363.436063" y="368.3955" style="stroke: #000000; stroke-width: 0.8"/>
      </g>
     </g>
     <g id="text_3">
      <!-- 2020-09 -->
      <g transform="translate(342.544657 382.993937)scale(0.1 -0.1)">
       <defs>
        <path id="DejaVuSans-39" d="M 703 97 
L 703 672 
Q 941 559 1184 500 
Q 1428 441 1663 441 
Q 2288 441 2617 861 
Q 2947 1281 2994 2138 
Q 2813 1869 2534 1725 
Q 2256 1581 1919 1581 
Q 1219 1581 811 2004 
Q 403 2428 403 3163 
Q 403 3881 828 4315 
Q 1253 4750 1959 4750 
Q 2769 4750 3195 4129 
Q 3622 3509 3622 2328 
Q 3622 1225 3098 567 
Q 2575 -91 1691 -91 
Q 1453 -91 1209 -44 
Q 966 3 703 97 
z
M 1959 2075 
Q 2384 2075 2632 2365 
Q 2881 2656 2881 3163 
Q 2881 3666 2632 3958 
Q 2384 4250 1959 4250 
Q 1534 4250 1286 3958 
Q 1038 3666 1038 3163 
Q 1038 2656 1286 2365 
Q 1534 2075 1959 2075 
z
" transform="scale(0.015625)"/>
       </defs>
       <use xlink:href="#DejaVuSans-32"/>
       <use xlink:href="#DejaVuSans-30" x="63.623047"/>
       <use xlink:href="#DejaVuSans-32" x="127.246094"/>
       <use xlink:href="#DejaVuSans-30" x="190.869141"/>
       <use xlink:href="#DejaVuSans-2d" x="254.492188"/>
       <use xlink:href="#DejaVuSans-30" x="290.576172"/>
       <use xlink:href="#DejaVuSans-39" x="354.199219"/>
      </g>
     </g>
    </g>
    <g id="xtick_4">
     <g id="line2d_4">
      <g>
       <use xlink:href="#m13af11fcdf" x="507.919968" y="368.3955" style="stroke: #000000; stroke-width: 0.8"/>
      </g>
     </g>
     <g id="text_4">
      <!-- 2021-01 -->
      <g transform="translate(487.028562 382.993937)scale(0.1 -0.1)">
       <use xlink:href="#DejaVuSans-32"/>
       <use xlink:href="#DejaVuSans-30" x="63.623047"/>
       <use xlink:href="#DejaVuSans-32" x="127.246094"/>
       <use xlink:href="#DejaVuSans-31" x="190.869141"/>
       <use xlink:href="#DejaVuSans-2d" x="254.492188"/>
       <use xlink:href="#DejaVuSans-30" x="290.576172"/>
       <use xlink:href="#DejaVuSans-31" x="354.199219"/>
      </g>
     </g>
    </g>
    <g id="xtick_5">
     <g id="line2d_5">
      <g>
       <use xlink:href="#m13af11fcdf" x="650.035285" y="368.3955" style="stroke: #000000; stroke-width: 0.8"/>
      </g>
     </g>
     <g id="text_5">
      <!-- 2021-05 -->
      <g transform="translate(629.143879 382.993937)scale(0.1 -0.1)">
       <use xlink:href="#DejaVuSans-32"/>
       <use xlink:href="#DejaVuSans-30" x="63.623047"/>
       <use xlink:href="#DejaVuSans-32" x="127.246094"/>
       <use xlink:href="#DejaVuSans-31" x="190.869141"/>
       <use xlink:href="#DejaVuSans-2d" x="254.492188"/>
       <use xlink:href="#DejaVuSans-30" x="290.576172"/>
       <use xlink:href="#DejaVuSans-35" x="354.199219"/>
      </g>
     </g>
    </g>
    <g id="xtick_6">
     <g id="line2d_6">
      <g>
       <use xlink:href="#m13af11fcdf" x="795.703484" y="368.3955" style="stroke: #000000; stroke-width: 0.8"/>
      </g>
     </g>
     <g id="text_6">
      <!-- 2021-09 -->
      <g transform="translate(774.812078 382.993937)scale(0.1 -0.1)">
       <use xlink:href="#DejaVuSans-32"/>
       <use xlink:href="#DejaVuSans-30" x="63.623047"/>
       <use xlink:href="#DejaVuSans-32" x="127.246094"/>
       <use xlink:href="#DejaVuSans-31" x="190.869141"/>
       <use xlink:href="#DejaVuSans-2d" x="254.492188"/>
       <use xlink:href="#DejaVuSans-30" x="290.576172"/>
       <use xlink:href="#DejaVuSans-39" x="354.199219"/>
      </g>
     </g>
    </g>
    <g id="xtick_7">
     <g id="line2d_7">
      <g>
       <use xlink:href="#m13af11fcdf" x="940.187389" y="368.3955" style="stroke: #000000; stroke-width: 0.8"/>
      </g>
     </g>
     <g id="text_7">
      <!-- 2022-01 -->
      <g transform="translate(919.295983 382.993937)scale(0.1 -0.1)">
       <use xlink:href="#DejaVuSans-32"/>
       <use xlink:href="#DejaVuSans-30" x="63.623047"/>
       <use xlink:href="#DejaVuSans-32" x="127.246094"/>
       <use xlink:href="#DejaVuSans-32" x="190.869141"/>
       <use xlink:href="#DejaVuSans-2d" x="254.492188"/>
       <use xlink:href="#DejaVuSans-30" x="290.576172"/>
       <use xlink:href="#DejaVuSans-31" x="354.199219"/>
      </g>
     </g>
    </g>
    <g id="xtick_8">
     <g id="line2d_8">
      <g>
       <use xlink:href="#m13af11fcdf" x="1082.302706" y="368.3955" style="stroke: #000000; stroke-width: 0.8"/>
      </g>
     </g>
     <g id="text_8">
      <!-- 2022-05 -->
      <g transform="translate(1061.4113 382.993937)scale(0.1 -0.1)">
       <use xlink:href="#DejaVuSans-32"/>
       <use xlink:href="#DejaVuSans-30" x="63.623047"/>
       <use xlink:href="#DejaVuSans-32" x="127.246094"/>
       <use xlink:href="#DejaVuSans-32" x="190.869141"/>
       <use xlink:href="#DejaVuSans-2d" x="254.492188"/>
       <use xlink:href="#DejaVuSans-30" x="290.576172"/>
       <use xlink:href="#DejaVuSans-35" x="354.199219"/>
      </g>
     </g>
    </g>
    <g id="xtick_9">
     <g id="line2d_9">
      <g>
       <use xlink:href="#m13af11fcdf" x="1227.970906" y="368.3955" style="stroke: #000000; stroke-width: 0.8"/>
      </g>
     </g>
     <g id="text_9">
      <!-- 2022-09 -->
      <g transform="translate(1207.079499 382.993937)scale(0.1 -0.1)">
       <use xlink:href="#DejaVuSans-32"/>
       <use xlink:href="#DejaVuSans-30" x="63.623047"/>
       <use xlink:href="#DejaVuSans-32" x="127.246094"/>
       <use xlink:href="#DejaVuSans-32" x="190.869141"/>
       <use xlink:href="#DejaVuSans-2d" x="254.492188"/>
       <use xlink:href="#DejaVuSans-30" x="290.576172"/>
       <use xlink:href="#DejaVuSans-39" x="354.199219"/>
      </g>
     </g>
    </g>
    <g id="xtick_10">
     <g id="line2d_10">
      <g>
       <use xlink:href="#m13af11fcdf" x="1372.454811" y="368.3955" style="stroke: #000000; stroke-width: 0.8"/>
      </g>
     </g>
     <g id="text_10">
      <!-- 2023-01 -->
      <g transform="translate(1351.563405 382.993937)scale(0.1 -0.1)">
       <defs>
        <path id="DejaVuSans-33" d="M 2597 2516 
Q 3050 2419 3304 2112 
Q 3559 1806 3559 1356 
Q 3559 666 3084 287 
Q 2609 -91 1734 -91 
Q 1441 -91 1130 -33 
Q 819 25 488 141 
L 488 750 
Q 750 597 1062 519 
Q 1375 441 1716 441 
Q 2309 441 2620 675 
Q 2931 909 2931 1356 
Q 2931 1769 2642 2001 
Q 2353 2234 1838 2234 
L 1294 2234 
L 1294 2753 
L 1863 2753 
Q 2328 2753 2575 2939 
Q 2822 3125 2822 3475 
Q 2822 3834 2567 4026 
Q 2313 4219 1838 4219 
Q 1578 4219 1281 4162 
Q 984 4106 628 3988 
L 628 4550 
Q 988 4650 1302 4700 
Q 1616 4750 1894 4750 
Q 2613 4750 3031 4423 
Q 3450 4097 3450 3541 
Q 3450 3153 3228 2886 
Q 3006 2619 2597 2516 
z
" transform="scale(0.015625)"/>
       </defs>
       <use xlink:href="#DejaVuSans-32"/>
       <use xlink:href="#DejaVuSans-30" x="63.623047"/>
       <use xlink:href="#DejaVuSans-32" x="127.246094"/>
       <use xlink:href="#DejaVuSans-33" x="190.869141"/>
       <use xlink:href="#DejaVuSans-2d" x="254.492188"/>
       <use xlink:href="#DejaVuSans-30" x="290.576172"/>
       <use xlink:href="#DejaVuSans-31" x="354.199219"/>
      </g>
     </g>
    </g>
   </g>
   <g id="matplotlib.axis_2">
    <g id="ytick_1">
     <g id="line2d_11">
      <defs>
       <path id="meb92c026ae" d="M 0 0 
L -3.5 0 
" style="stroke: #000000; stroke-width: 0.8"/>
      </defs>
      <g>
       <use xlink:href="#meb92c026ae" x="39.65" y="352.644102" style="stroke: #000000; stroke-width: 0.8"/>
      </g>
     </g>
     <g id="text_11">
      <!-- 0 -->
      <g transform="translate(26.2875 356.44332)scale(0.1 -0.1)">
       <use xlink:href="#DejaVuSans-30"/>
      </g>
     </g>
    </g>
    <g id="ytick_2">
     <g id="line2d_12">
      <g>
       <use xlink:href="#meb92c026ae" x="39.65" y="284.339755" style="stroke: #000000; stroke-width: 0.8"/>
      </g>
     </g>
     <g id="text_12">
      <!-- 1000 -->
      <g transform="translate(7.2 288.138974)scale(0.1 -0.1)">
       <use xlink:href="#DejaVuSans-31"/>
       <use xlink:href="#DejaVuSans-30" x="63.623047"/>
       <use xlink:href="#DejaVuSans-30" x="127.246094"/>
       <use xlink:href="#DejaVuSans-30" x="190.869141"/>
      </g>
     </g>
    </g>
    <g id="ytick_3">
     <g id="line2d_13">
      <g>
       <use xlink:href="#meb92c026ae" x="39.65" y="216.035409" style="stroke: #000000; stroke-width: 0.8"/>
      </g>
     </g>
     <g id="text_13">
      <!-- 2000 -->
      <g transform="translate(7.2 219.834628)scale(0.1 -0.1)">
       <use xlink:href="#DejaVuSans-32"/>
       <use xlink:href="#DejaVuSans-30" x="63.623047"/>
       <use xlink:href="#DejaVuSans-30" x="127.246094"/>
       <use xlink:href="#DejaVuSans-30" x="190.869141"/>
      </g>
     </g>
    </g>
    <g id="ytick_4">
     <g id="line2d_14">
      <g>
       <use xlink:href="#meb92c026ae" x="39.65" y="147.731063" style="stroke: #000000; stroke-width: 0.8"/>
      </g>
     </g>
     <g id="text_14">
      <!-- 3000 -->
      <g transform="translate(7.2 151.530282)scale(0.1 -0.1)">
       <use xlink:href="#DejaVuSans-33"/>
       <use xlink:href="#DejaVuSans-30" x="63.623047"/>
       <use xlink:href="#DejaVuSans-30" x="127.246094"/>
       <use xlink:href="#DejaVuSans-30" x="190.869141"/>
      </g>
     </g>
    </g>
    <g id="ytick_5">
     <g id="line2d_15">
      <g>
       <use xlink:href="#meb92c026ae" x="39.65" y="79.426717" style="stroke: #000000; stroke-width: 0.8"/>
      </g>
     </g>
     <g id="text_15">
      <!-- 4000 -->
      <g transform="translate(7.2 83.225935)scale(0.1 -0.1)">
       <defs>
        <path id="DejaVuSans-34" d="M 2419 4116 
L 825 1625 
L 2419 1625 
L 2419 4116 
z
M 2253 4666 
L 3047 4666 
L 3047 1625 
L 3713 1625 
L 3713 1100 
L 3047 1100 
L 3047 0 
L 2419 0 
L 2419 1100 
L 313 1100 
L 313 1709 
L 2253 4666 
z
" transform="scale(0.015625)"/>
       </defs>
       <use xlink:href="#DejaVuSans-34"/>
       <use xlink:href="#DejaVuSans-30" x="63.623047"/>
       <use xlink:href="#DejaVuSans-30" x="127.246094"/>
       <use xlink:href="#DejaVuSans-30" x="190.869141"/>
      </g>
     </g>
    </g>
   </g>
   <g id="line2d_16">
    <path d="M 100.522727 352.644102 
L 159.737443 352.644102 
L 160.921737 352.507493 
L 162.106031 352.097667 
L 163.290325 352.165971 
L 164.47462 351.551232 
L 165.658914 352.439189 
L 166.843208 352.234275 
L 168.027503 352.644102 
L 169.211797 350.73158 
L 170.396091 352.644102 
L 171.580386 352.165971 
L 173.948974 352.165971 
L 175.133268 351.551232 
L 176.317563 352.644102 
L 177.501857 351.824449 
L 178.686151 352.644102 
L 179.870446 351.551232 
L 181.05474 352.644102 
L 182.239034 352.097667 
L 183.423329 352.439189 
L 184.607623 352.165971 
L 185.791917 352.507493 
L 188.160506 352.234275 
L 189.3448 352.644102 
L 191.713389 352.370884 
L 192.897683 352.644102 
L 194.081977 352.370884 
L 196.450566 352.097667 
L 197.63486 352.644102 
L 198.819155 352.097667 
L 200.003449 352.165971 
L 201.187743 352.644102 
L 202.372037 351.073102 
L 203.556332 350.663276 
L 204.740626 352.644102 
L 205.92492 350.663276 
L 207.109215 352.439189 
L 208.293509 351.073102 
L 209.477803 352.165971 
L 211.846392 352.507493 
L 213.030686 352.370884 
L 214.214981 352.644102 
L 215.399275 352.507493 
L 217.767863 352.507493 
L 218.952158 351.961058 
L 220.136452 351.824449 
L 221.320746 352.644102 
L 222.505041 352.370884 
L 223.689335 351.414623 
L 224.873629 352.507493 
L 226.057924 352.165971 
L 227.242218 351.687841 
L 228.426512 351.824449 
L 229.610807 352.097667 
L 230.795101 352.575797 
L 231.979395 352.644102 
L 233.163689 350.458362 
L 234.347984 352.370884 
L 235.532278 349.570406 
L 236.716572 350.116841 
L 237.900867 347.384667 
L 239.085161 343.696232 
L 240.269455 347.521276 
L 241.45375 348.682449 
L 243.822338 348.136015 
L 245.006632 345.062319 
L 246.190927 348.819058 
L 247.375221 350.321754 
L 248.559515 350.321754 
L 249.74381 347.179754 
L 250.928104 349.570406 
L 252.112398 346.565015 
L 253.296693 349.16058 
L 254.480987 342.261841 
L 255.665281 341.920319 
L 256.849576 343.559624 
L 258.03387 343.423015 
L 259.218164 348.682449 
L 260.402458 340.964058 
L 261.586753 348.477536 
L 262.771047 346.086884 
L 263.955341 341.783711 
L 265.139636 345.403841 
L 266.32393 347.452971 
L 267.508224 348.204319 
L 268.692519 350.936493 
L 269.876813 347.58958 
L 271.061107 346.906536 
L 272.245401 346.633319 
L 273.429696 336.524276 
L 274.61399 346.01858 
L 275.798284 345.267232 
L 276.982579 339.119841 
L 278.166873 343.901145 
L 279.351167 343.696232 
L 280.535462 343.149797 
L 281.719756 340.417624 
L 284.088345 337.890363 
L 285.272639 328.669276 
L 286.456933 341.237276 
L 288.825522 332.016189 
L 290.009816 336.934102 
L 291.19411 338.231885 
L 292.378405 334.611754 
L 293.562699 338.095276 
L 294.746993 324.024581 
L 295.931288 336.11445 
L 297.115582 333.382276 
L 298.299876 331.128233 
L 299.48417 327.78132 
L 300.668465 323.204928 
L 301.852759 327.029972 
L 303.037053 333.040754 
L 304.221348 336.11445 
L 305.405642 331.947885 
L 306.589936 324.092885 
L 307.774231 323.54645 
L 308.958525 329.625537 
L 310.142819 332.699232 
L 311.327114 324.775928 
L 312.511408 322.385276 
L 313.695702 322.590189 
L 314.879996 326.005407 
L 316.064291 321.97545 
L 317.248585 308.246277 
L 318.432879 307.153407 
L 319.617174 316.169581 
L 320.801468 316.78432 
L 321.985762 312.822668 
L 323.170057 312.54945 
L 324.354351 304.762755 
L 325.538645 303.806494 
L 326.72294 293.287625 
L 327.907234 300.527885 
L 329.091528 315.21332 
L 330.275822 305.923929 
L 331.460117 293.834059 
L 332.644411 285.637538 
L 335.013 298.342146 
L 336.197294 294.995233 
L 338.565883 274.913756 
L 339.750177 274.094103 
L 340.934471 265.146234 
L 342.118765 283.520103 
L 343.30306 268.902973 
L 344.487354 274.230712 
L 345.671648 281.129451 
L 346.855943 291.511712 
L 348.040237 272.659712 
L 349.224531 304.899364 
L 350.408826 308.109668 
L 351.59312 302.235494 
L 352.777414 311.183363 
L 353.961709 299.776538 
L 355.146003 296.634538 
L 356.330297 297.522494 
L 357.514591 288.916147 
L 358.698886 285.637538 
L 359.88318 279.763364 
L 361.067474 289.667494 
L 362.251769 293.902364 
L 363.436063 282.427234 
L 364.620357 275.665103 
L 365.804652 284.749581 
L 368.17324 271.225321 
L 370.541829 280.17319 
L 371.726123 269.79093 
L 372.910417 271.498538 
L 374.094712 279.421842 
L 375.279006 295.268451 
L 376.4633 286.593799 
L 377.647595 290.487147 
L 378.831889 282.358929 
L 380.016183 278.465582 
L 381.200478 300.664494 
L 382.384772 293.355929 
L 383.569066 291.853233 
L 384.75336 299.708233 
L 385.937655 304.352929 
L 387.121949 298.888581 
L 388.306243 283.656712 
L 389.490538 285.296016 
L 390.674832 286.593799 
L 391.859126 293.424233 
L 393.043421 307.085103 
L 395.412009 295.473364 
L 396.596304 295.609972 
L 397.780598 300.801103 
L 398.964892 290.69206 
L 400.149186 298.615364 
L 401.333481 296.224712 
L 402.517775 298.820277 
L 403.702069 305.992233 
L 404.886364 306.26545 
L 406.070658 311.115059 
L 407.254952 310.636929 
L 408.439247 306.402059 
L 409.623541 300.937711 
L 410.807835 305.923929 
L 411.992129 310.363711 
L 413.176424 309.270842 
L 414.360718 310.705233 
L 415.545012 320.950885 
L 416.729307 332.904146 
L 417.913601 316.374494 
L 419.097895 328.942493 
L 420.28219 352.644102 
L 421.466484 283.793321 
L 422.650778 325.937102 
L 423.835073 326.620146 
L 425.019367 332.016189 
L 426.203661 323.683059 
L 427.387955 323.751363 
L 428.57225 319.721407 
L 429.756544 328.532667 
L 430.940838 320.131233 
L 432.125133 325.049146 
L 433.309427 331.538059 
L 434.493721 323.683059 
L 435.678016 331.333146 
L 436.86231 326.68845 
L 438.046604 325.663885 
L 439.230898 326.68845 
L 440.415193 322.521885 
L 441.599487 326.415233 
L 442.783781 325.800494 
L 443.968076 340.007798 
L 445.15237 334.475145 
L 446.336664 332.426015 
L 447.520959 331.811276 
L 448.705253 326.005407 
L 449.889547 332.084493 
L 451.073842 319.038363 
L 452.258136 324.024581 
L 453.44243 326.21032 
L 454.626724 331.40145 
L 455.811019 332.152798 
L 456.995313 331.128233 
L 458.179607 328.600972 
L 459.363902 324.092885 
L 460.548196 325.322363 
L 461.73249 331.606363 
L 462.916785 328.396059 
L 464.101079 330.855015 
L 465.285373 325.458972 
L 466.469667 331.538059 
L 467.653962 336.524276 
L 468.838256 333.518885 
L 470.02255 328.464363 
L 471.206845 337.139015 
L 472.391139 322.180363 
L 473.575433 319.789711 
L 474.759728 330.171972 
L 475.944022 332.152798 
L 477.128316 334.54345 
L 478.312611 321.087494 
L 479.496905 319.858015 
L 480.681199 320.677668 
L 481.865493 323.409841 
L 483.049788 322.931711 
L 484.234082 321.087494 
L 485.418376 311.046755 
L 486.602671 329.488928 
L 487.786965 328.396059 
L 488.971259 336.455972 
L 490.155554 327.78132 
L 491.339848 331.196537 
L 492.524142 326.278624 
L 493.708437 332.562624 
L 494.892731 322.726798 
L 497.261319 339.25645 
L 498.445614 337.548841 
L 499.629908 328.191146 
L 500.814202 328.874189 
L 501.998497 327.713015 
L 503.182791 330.786711 
L 504.367085 337.275624 
L 505.55138 334.884972 
L 506.735674 322.795102 
L 507.919968 330.376885 
L 509.104262 339.051537 
L 510.288557 342.603363 
L 511.472851 340.554232 
L 512.657145 335.226493 
L 513.84144 335.841232 
L 515.025734 324.366102 
L 516.210028 329.079102 
L 517.394323 318.150407 
L 519.762911 327.16658 
L 520.947206 331.059928 
L 522.1315 317.672276 
L 523.315794 311.388276 
L 524.500088 322.521885 
L 525.684383 321.907146 
L 526.868677 318.696842 
L 528.052971 308.861016 
L 529.237266 306.675277 
L 530.42156 313.437407 
L 531.605854 313.778929 
L 532.790149 316.101276 
L 533.974443 321.907146 
L 535.158737 320.950885 
L 536.343031 325.11745 
L 537.527326 324.434407 
L 538.71162 323.06832 
L 539.895914 324.912537 
L 541.080209 324.502711 
L 542.264503 315.281624 
L 543.448797 311.388276 
L 544.633092 324.024581 
L 545.817386 324.912537 
L 547.00168 314.188755 
L 548.185975 321.224102 
L 549.370269 321.49732 
L 550.554563 324.502711 
L 551.738857 320.336146 
L 552.923152 319.858015 
L 554.107446 318.491928 
L 555.29174 326.68845 
L 556.476035 328.600972 
L 557.660329 323.204928 
L 558.844623 319.584798 
L 560.028918 320.199537 
L 561.213212 328.122841 
L 562.397506 328.73758 
L 563.5818 325.868798 
L 564.766095 321.087494 
L 565.950389 329.898754 
L 567.134683 319.243276 
L 568.318978 320.882581 
L 569.503272 320.062928 
L 570.687566 322.521885 
L 571.871861 321.292407 
L 573.056155 323.54645 
L 574.240449 323.683059 
L 575.424744 322.316972 
L 576.609038 326.893363 
L 577.793332 323.341537 
L 578.977626 326.073711 
L 580.161921 321.97545 
L 581.346215 313.232494 
L 582.530509 325.59558 
L 583.714804 316.511102 
L 584.899098 321.702233 
L 586.083392 322.863407 
L 587.267687 315.281624 
L 588.451981 352.644102 
L 589.636275 287.345147 
L 590.82057 317.877189 
L 592.004864 312.139624 
L 593.189158 352.644102 
L 594.373452 276.894582 
L 595.557747 315.759755 
L 596.742041 315.145016 
L 597.926335 309.544059 
L 599.11063 288.642929 
L 600.294924 273.342756 
L 601.479218 296.839451 
L 602.663513 299.981451 
L 603.847807 310.705233 
L 605.032101 297.522494 
L 606.216395 294.585407 
L 607.40069 302.098885 
L 608.584984 300.869407 
L 609.769278 284.88619 
L 610.953573 264.668104 
L 612.137867 270.26906 
L 613.322161 260.569843 
L 614.506456 266.990451 
L 615.69075 285.774147 
L 616.875044 242.879017 
L 618.059339 230.652539 
L 619.243633 255.310408 
L 620.427927 248.411669 
L 621.612221 276.484756 
L 622.796516 271.771756 
L 623.98081 278.328973 
L 625.165104 262.140843 
L 626.349399 277.441016 
L 627.533693 289.462581 
L 628.717987 273.41106 
L 629.902282 276.006625 
L 631.086576 265.829278 
L 632.27087 267.673495 
L 633.455164 264.258278 
L 634.639459 264.736408 
L 635.823753 256.676495 
L 637.008047 274.708843 
L 638.192342 283.725016 
L 639.376636 262.618973 
L 640.56093 262.618973 
L 641.745225 274.640538 
L 642.929519 284.681277 
L 644.113813 285.705842 
L 645.298108 269.107886 
L 646.482402 268.083321 
L 647.666696 255.1738 
L 648.85099 264.053365 
L 650.035285 271.908364 
L 651.219579 270.542277 
L 652.403873 293.629146 
L 653.588168 292.809494 
L 654.772462 299.981451 
L 655.956756 251.621974 
L 657.141051 275.870016 
L 658.325345 259.203756 
L 659.509639 262.41406 
L 660.693933 264.394886 
L 661.878228 287.481755 
L 663.062522 295.814886 
L 664.246816 291.853233 
L 665.431111 273.41106 
L 666.615405 352.644102 
L 667.799699 195.339192 
L 668.983994 276.55306 
L 670.168288 271.498538 
L 671.352582 269.927538 
L 672.536877 280.924538 
L 673.721171 272.181582 
L 674.905465 283.656712 
L 676.089759 264.326582 
L 677.274054 251.963495 
L 678.458348 262.687278 
L 679.642642 265.829278 
L 680.826937 255.583626 
L 682.011231 262.550669 
L 683.195525 264.121669 
L 684.37982 259.955104 
L 685.564114 259.408669 
L 686.748408 256.881408 
L 687.932703 271.498538 
L 689.116997 266.717234 
L 690.301291 268.015017 
L 691.485585 252.783147 
L 692.66988 255.378713 
L 693.854174 251.348756 
L 695.038468 237.961104 
L 696.222763 252.646539 
L 697.407057 278.670495 
L 698.591351 286.183973 
L 699.775646 250.93893 
L 700.95994 258.589017 
L 702.144234 270.883799 
L 703.328528 268.424843 
L 704.512823 261.047973 
L 705.697117 256.676495 
L 706.881411 265.351147 
L 708.065706 265.692669 
L 709.25 262.004234 
L 710.434294 263.98506 
L 711.618589 261.526104 
L 712.802883 352.644102 
L 713.987177 197.593236 
L 715.171472 263.165408 
L 716.355766 257.22293 
L 717.54006 264.804712 
L 718.724354 352.644102 
L 721.092943 212.073757 
L 722.277237 263.028799 
L 723.461532 271.976669 
L 724.645826 271.36193 
L 725.83012 267.946712 
L 727.014415 282.290625 
L 728.198709 274.230712 
L 729.383003 272.93293 
L 730.567297 289.325973 
L 731.751592 282.085712 
L 732.935886 297.864016 
L 734.12018 352.644102 
L 735.304475 204.560279 
L 736.488769 278.875408 
L 737.673063 276.894582 
L 738.857358 266.375712 
L 740.041652 273.274451 
L 741.225946 271.225321 
L 742.410241 280.036582 
L 743.594535 278.397277 
L 744.778829 352.644102 
L 745.963123 224.231931 
L 747.147418 276.348147 
L 748.331712 352.644102 
L 749.516006 220.065366 
L 750.700301 283.110277 
L 751.884595 277.714234 
L 753.068889 280.241495 
L 754.253184 283.725016 
L 755.437478 297.385885 
L 757.806067 281.607582 
L 758.990361 290.69206 
L 760.174655 291.375103 
L 761.358949 292.399668 
L 762.543244 300.322972 
L 763.727538 300.527885 
L 764.911832 285.774147 
L 766.096127 273.752582 
L 767.280421 352.644102 
L 768.464715 296.907755 
L 769.64901 246.840669 
L 770.833304 352.644102 
L 772.017598 218.152844 
L 773.201892 292.194755 
L 774.386187 294.517103 
L 775.570481 290.555451 
L 776.754775 293.834059 
L 777.93907 352.644102 
L 779.123364 286.593799 
L 780.307658 227.305626 
L 781.491953 352.644102 
L 782.676247 223.890409 
L 783.860541 352.644102 
L 785.044836 224.231931 
L 786.22913 289.257668 
L 787.413424 277.509321 
L 788.597718 271.635147 
L 789.782013 352.644102 
L 790.966307 186.254714 
L 792.150601 287.55006 
L 793.334896 269.449408 
L 794.51919 352.644102 
L 795.703484 291.853233 
L 796.887779 207.429062 
L 798.072073 352.644102 
L 799.256367 288.369712 
L 800.440661 287.413451 
L 801.624956 288.984451 
L 802.80925 218.699279 
L 803.993544 352.644102 
L 805.177839 205.858062 
L 806.362133 266.375712 
L 807.546427 271.020408 
L 808.730722 352.644102 
L 809.915016 291.716625 
L 811.09931 268.902973 
L 812.283605 294.038973 
L 813.467899 279.968277 
L 814.652193 174.642975 
L 815.836487 352.644102 
L 817.020782 295.405059 
L 818.205076 214.464409 
L 819.38937 352.644102 
L 820.573665 202.37454 
L 821.757959 352.644102 
L 824.126548 188.23554 
L 825.310842 352.644102 
L 826.495136 266.580625 
L 827.67943 157.976715 
L 828.863725 248.684887 
L 830.048019 264.121669 
L 831.232313 352.644102 
L 832.416608 257.018017 
L 833.600902 150.190019 
L 834.785196 352.644102 
L 835.969491 149.165454 
L 837.153785 248.684887 
L 838.338079 248.8898 
L 839.522374 249.914365 
L 840.706668 256.334973 
L 841.890962 276.826277 
L 843.075256 264.394886 
L 844.259551 352.644102 
L 845.443845 264.941321 
L 846.628139 162.006671 
L 847.812434 263.711843 
L 848.996728 352.644102 
L 850.181022 167.061193 
L 851.365317 263.916756 
L 852.549611 273.274451 
L 853.733905 266.990451 
L 854.9182 352.644102 
L 856.102494 291.64832 
L 857.286788 195.749018 
L 858.471082 294.995233 
L 859.655377 301.552451 
L 860.839671 352.644102 
L 862.023965 274.230712 
L 863.20826 290.418842 
L 864.392554 279.626755 
L 865.576848 226.144452 
L 866.761143 290.350538 
L 867.945437 303.806494 
L 869.129731 293.834059 
L 870.314025 286.525494 
L 871.49832 287.55006 
L 873.866908 291.306799 
L 875.051203 307.35832 
L 876.235497 278.533886 
L 877.419791 352.644102 
L 878.604086 218.08454 
L 879.78838 352.644102 
L 880.972674 229.149844 
L 882.156969 291.033581 
L 883.341263 294.926929 
L 884.525557 301.07432 
L 885.709851 352.644102 
L 886.894146 234.545887 
L 888.07844 352.644102 
L 889.262734 256.744799 
L 890.447029 297.45419 
L 891.631323 299.913146 
L 892.815617 297.93232 
L 893.999912 352.644102 
L 895.184206 299.02519 
L 896.3685 239.668713 
L 897.552794 290.69206 
L 898.737089 305.78732 
L 899.921383 308.246277 
L 901.105677 311.661494 
L 902.289972 352.644102 
L 903.474266 269.449408 
L 904.65856 305.240885 
L 905.842855 321.770537 
L 907.027149 320.336146 
L 908.211443 299.02519 
L 909.395738 352.644102 
L 910.580032 315.554842 
L 911.764326 327.78132 
L 912.94862 299.571625 
L 914.132915 317.740581 
L 915.317209 299.776538 
L 916.501503 298.273842 
L 917.685798 352.644102 
L 918.870092 324.912537 
L 920.054386 328.396059 
L 921.238681 319.106668 
L 922.422975 321.019189 
L 923.607269 326.278624 
L 924.791563 299.50332 
L 925.975858 352.644102 
L 927.160152 327.029972 
L 928.344446 336.182754 
L 929.528741 335.363102 
L 930.713035 313.847233 
L 931.897329 352.644102 
L 933.081624 329.898754 
L 934.265918 352.644102 
L 935.450212 308.177972 
L 936.634507 352.644102 
L 937.818801 323.409841 
L 939.003095 337.343928 
L 940.187389 339.461363 
L 941.371684 342.808276 
L 942.555978 345.130623 
L 943.740272 333.040754 
L 944.924567 331.40145 
L 946.108861 352.644102 
L 947.293155 329.010798 
L 948.47745 325.254059 
L 949.661744 293.834059 
L 950.846038 352.644102 
L 952.030333 313.232494 
L 953.214627 225.256496 
L 954.398921 352.644102 
L 955.583215 168.222367 
L 956.76751 352.644102 
L 957.951804 175.530932 
L 959.136098 242.127669 
L 960.320393 352.644102 
L 961.504687 50.8755 
L 962.688981 210.161235 
L 963.873276 194.314627 
L 965.05757 188.645366 
L 966.241864 236.390104 
L 967.426158 352.644102 
L 969.794747 96.776021 
L 970.979041 223.7538 
L 972.163336 216.786757 
L 973.34763 191.172627 
L 974.531924 171.910801 
L 975.716219 219.245713 
L 976.900513 352.644102 
L 978.084807 229.627974 
L 979.269102 131.269715 
L 980.453396 239.122278 
L 981.63769 205.311627 
L 982.821984 253.739408 
L 984.006279 352.644102 
L 985.190573 236.936539 
L 986.374867 246.089321 
L 987.559162 212.688496 
L 988.743456 352.644102 
L 989.92775 244.996452 
L 991.112045 246.294235 
L 992.296339 268.766364 
L 993.480633 282.290625 
L 994.664927 279.899973 
L 995.849222 289.394277 
L 997.033516 285.774147 
L 998.21781 311.251668 
L 999.402105 352.644102 
L 1000.586399 317.125842 
L 1001.770693 304.899364 
L 1002.954988 298.820277 
L 1004.139282 326.21032 
L 1005.323576 319.858015 
L 1006.507871 291.989842 
L 1007.692165 352.644102 
L 1008.876459 297.385885 
L 1010.060753 352.644102 
L 1011.245048 321.360711 
L 1012.429342 327.986233 
L 1013.613636 332.630928 
L 1014.797931 329.284015 
L 1015.982225 336.319363 
L 1017.166519 352.644102 
L 1018.350814 342.466754 
L 1019.535108 339.119841 
L 1020.719402 314.666885 
L 1021.903696 352.644102 
L 1023.087991 333.587189 
L 1024.272285 324.571015 
L 1025.456579 352.644102 
L 1026.640874 349.228884 
L 1027.825168 311.729798 
L 1029.009462 352.644102 
L 1030.193757 339.939493 
L 1031.378051 340.690841 
L 1032.562345 335.568015 
L 1033.74664 348.955667 
L 1034.930934 347.657884 
L 1036.115228 352.644102 
L 1037.299522 347.521276 
L 1038.483817 341.30558 
L 1039.668111 349.980232 
L 1040.852405 350.185145 
L 1042.0367 348.819058 
L 1043.220994 352.644102 
L 1044.405288 338.710015 
L 1045.589583 352.644102 
L 1046.773877 344.174363 
L 1047.958171 338.231885 
L 1050.32676 348.409232 
L 1051.511054 344.106058 
L 1052.695348 347.521276 
L 1053.879643 347.11145 
L 1055.063937 343.149797 
L 1056.248231 349.365493 
L 1057.432526 345.950276 
L 1058.61682 352.644102 
L 1059.801114 347.521276 
L 1060.985409 341.168971 
L 1062.169703 341.30558 
L 1063.353997 348.136015 
L 1064.538291 346.633319 
L 1065.722586 352.097667 
L 1068.091174 352.234275 
L 1069.275469 352.575797 
L 1070.459763 352.644102 
L 1071.644057 350.458362 
L 1072.828352 350.390058 
L 1074.012646 348.887363 
L 1075.19694 348.682449 
L 1076.381235 352.029362 
L 1077.565529 351.278015 
L 1078.749823 352.644102 
L 1079.934117 349.775319 
L 1081.118412 351.278015 
L 1082.302706 345.198928 
L 1083.487 352.644102 
L 1084.671295 347.179754 
L 1087.039883 351.073102 
L 1088.224178 350.048536 
L 1089.408472 349.433797 
L 1090.592766 347.384667 
L 1091.77706 352.644102 
L 1092.961355 352.644102 
L 1094.145649 346.428406 
L 1095.329943 352.644102 
L 1096.514238 347.11145 
L 1097.698532 352.644102 
L 1098.882826 345.881971 
L 1100.067121 349.980232 
L 1101.251415 352.644102 
L 1102.435709 348.545841 
L 1103.620004 348.887363 
L 1104.804298 348.272623 
L 1105.988592 350.73158 
L 1107.172886 347.384667 
L 1108.357181 350.321754 
L 1109.541475 350.321754 
L 1110.725769 352.644102 
L 1111.910064 350.390058 
L 1113.094358 346.086884 
L 1114.278652 349.023971 
L 1116.647241 352.644102 
L 1117.831535 350.185145 
L 1119.01583 348.819058 
L 1120.200124 352.644102 
L 1121.384418 348.614145 
L 1123.753007 347.999406 
L 1124.937301 350.185145 
L 1126.121595 350.458362 
L 1127.30589 352.644102 
L 1128.490184 344.720797 
L 1129.674478 348.06771 
L 1130.858773 352.644102 
L 1132.043067 343.149797 
L 1133.227361 350.594971 
L 1134.411655 352.644102 
L 1135.59595 349.297189 
L 1136.780244 344.584189 
L 1137.964538 336.934102 
L 1139.148833 345.472145 
L 1140.333127 346.633319 
L 1141.517421 348.06771 
L 1142.701716 343.96945 
L 1143.88601 352.644102 
L 1145.070304 336.59258 
L 1146.254599 339.051537 
L 1147.438893 340.554232 
L 1148.623187 348.136015 
L 1149.807481 349.570406 
L 1150.991776 352.644102 
L 1152.17607 339.324754 
L 1153.360364 352.644102 
L 1154.544659 323.136624 
L 1155.728953 336.660885 
L 1156.913247 352.644102 
L 1158.097542 326.278624 
L 1159.281836 352.644102 
L 1160.46613 341.237276 
L 1161.650424 345.403841 
L 1162.834719 322.453581 
L 1164.019013 340.690841 
L 1165.203307 330.240276 
L 1166.387602 343.286406 
L 1167.571896 343.286406 
L 1168.75619 337.68545 
L 1169.940485 338.368493 
L 1171.124779 326.005407 
L 1172.309073 329.010798 
L 1173.493368 306.743581 
L 1174.677662 335.772928 
L 1175.861956 352.644102 
L 1177.04625 322.248668 
L 1178.230545 314.188755 
L 1179.414839 331.742972 
L 1180.599133 352.644102 
L 1181.783428 288.50632 
L 1182.967722 332.630928 
L 1184.152016 352.644102 
L 1185.336311 340.076102 
L 1186.520605 279.421842 
L 1187.704899 321.565624 
L 1188.889193 327.303189 
L 1190.073488 314.461972 
L 1191.257782 335.568015 
L 1192.442076 352.644102 
L 1193.626371 318.491928 
L 1194.810665 312.276233 
L 1195.994959 331.469754 
L 1197.179254 307.016798 
L 1198.363548 333.518885 
L 1199.547842 339.25645 
L 1200.732137 352.644102 
L 1201.916431 313.437407 
L 1203.100725 352.644102 
L 1204.285019 352.644102 
L 1205.469314 291.375103 
L 1206.653608 344.44758 
L 1207.837902 352.644102 
L 1209.022197 321.292407 
L 1210.206491 344.789102 
L 1211.390785 352.644102 
L 1213.759374 329.079102 
L 1214.943668 346.974841 
L 1216.127963 339.324754 
L 1217.312257 345.267232 
L 1218.496551 352.644102 
L 1219.680845 345.881971 
L 1220.86514 336.797493 
L 1222.049434 341.715406 
L 1223.233728 349.023971 
L 1224.418023 350.663276 
L 1225.602317 352.644102 
L 1226.786611 337.139015 
L 1227.970906 352.644102 
L 1229.1552 352.644102 
L 1230.339494 327.644711 
L 1231.523788 352.644102 
L 1232.708083 347.316363 
L 1233.892377 340.964058 
L 1235.076671 347.11145 
L 1236.260966 352.644102 
L 1237.44526 352.644102 
L 1238.629554 314.735189 
L 1239.813849 349.092276 
L 1240.998143 351.20971 
L 1242.182437 352.644102 
L 1243.366732 345.950276 
L 1244.551026 343.96945 
L 1245.73532 350.390058 
L 1246.919614 352.644102 
L 1248.103909 344.44758 
L 1249.288203 350.048536 
L 1250.472497 351.141406 
L 1251.656792 349.911928 
L 1252.841086 352.644102 
L 1254.02538 349.570406 
L 1255.209675 346.155189 
L 1256.393969 352.644102 
L 1257.578263 347.11145 
L 1258.762557 346.565015 
L 1259.946852 348.06771 
L 1261.131146 352.644102 
L 1262.31544 344.720797 
L 1263.499735 348.750754 
L 1264.684029 351.687841 
L 1265.868323 351.961058 
L 1267.052618 352.644102 
L 1268.236912 351.073102 
L 1269.421206 351.687841 
L 1270.605501 352.644102 
L 1271.789795 350.663276 
L 1272.974089 352.644102 
L 1274.158383 351.687841 
L 1275.342678 352.507493 
L 1276.526972 349.433797 
L 1277.711266 342.671667 
L 1278.895561 350.321754 
L 1280.079855 350.048536 
L 1281.264149 346.360102 
L 1282.448444 352.644102 
L 1283.632738 348.955667 
L 1284.817032 346.360102 
L 1286.001326 352.644102 
L 1287.185621 348.955667 
L 1288.369915 352.644102 
L 1289.554209 347.862797 
L 1290.738504 351.073102 
L 1291.922798 352.644102 
L 1293.107092 349.297189 
L 1294.291387 344.994015 
L 1295.475681 352.644102 
L 1296.659975 348.409232 
L 1297.84427 349.980232 
L 1299.028564 351.20971 
L 1300.212858 352.644102 
L 1301.397152 350.799884 
L 1301.397152 350.799884 
" clip-path="url(#pb3409f6c1a)" style="fill: none; stroke: #0000ff; stroke-width: 1.5; stroke-linecap: square"/>
   </g>
   <g id="line2d_17">
    <path d="M 1062.169703 349.170047 
L 1063.353997 347.95222 
L 1064.538291 345.889613 
L 1065.722586 344.920702 
L 1066.90688 345.922905 
L 1068.091174 345.854648 
L 1069.275469 346.450499 
L 1070.459763 347.3738 
L 1071.644057 349.467612 
L 1074.012646 352.136288 
L 1075.19694 352.194813 
L 1076.381235 351.881671 
L 1077.565529 350.673099 
L 1078.749823 350.43012 
L 1079.934117 350.314951 
L 1081.118412 350.890396 
L 1082.302706 350.718755 
L 1083.487 351.270138 
L 1084.671295 350.403456 
L 1085.855589 350.204503 
L 1087.039883 350.594194 
L 1088.224178 349.15525 
L 1089.408472 349.492335 
L 1090.592766 349.04251 
L 1091.77706 350.361918 
L 1092.961355 348.72503 
L 1094.145649 348.81408 
L 1095.329943 350.913573 
L 1096.514238 350.255199 
L 1097.698532 350.200853 
L 1098.882826 349.453559 
L 1100.067121 350.665045 
L 1101.251415 350.571052 
L 1102.435709 348.385012 
L 1103.620004 350.044548 
L 1104.804298 349.852706 
L 1105.988592 350.306191 
L 1107.172886 348.706305 
L 1108.357181 349.553246 
L 1109.541475 349.727999 
L 1110.725769 348.921014 
L 1111.910064 348.852177 
L 1113.094358 349.447091 
L 1114.278652 351.138573 
L 1115.462947 349.977805 
L 1116.647241 349.127476 
L 1117.831535 349.005324 
L 1119.01583 350.371368 
L 1120.200124 350.861252 
L 1121.384418 349.387752 
L 1122.568712 350.072372 
L 1123.753007 350.945985 
L 1124.937301 350.82443 
L 1126.121595 349.635161 
L 1127.30589 348.96444 
L 1128.490184 349.393265 
L 1129.674478 350.467847 
L 1130.858773 350.067814 
L 1132.043067 347.966973 
L 1133.227361 349.822765 
L 1134.411655 349.277257 
L 1135.59595 348.106015 
L 1136.780244 348.277734 
L 1137.964538 350.042065 
L 1139.148833 351.353016 
L 1140.333127 347.026977 
L 1141.517421 345.26276 
L 1142.701716 345.603588 
L 1143.88601 346.38105 
L 1145.070304 344.592124 
L 1146.254599 345.527777 
L 1147.438893 347.032419 
L 1148.623187 344.621954 
L 1149.807481 342.717091 
L 1150.991776 341.778332 
L 1152.17607 344.160791 
L 1153.360364 345.585969 
L 1154.544659 344.685652 
L 1155.728953 347.849682 
L 1156.913247 347.263958 
L 1158.097542 339.966707 
L 1159.281836 344.28279 
L 1160.46613 339.900257 
L 1161.650424 340.324978 
L 1162.834719 338.461677 
L 1164.019013 343.282673 
L 1165.203307 342.527362 
L 1166.387602 336.985292 
L 1167.571896 338.541579 
L 1168.75619 335.93139 
L 1169.940485 339.448748 
L 1171.124779 336.586744 
L 1172.309073 340.122121 
L 1173.493368 337.510439 
L 1174.677662 339.678602 
L 1175.861956 332.295526 
L 1177.04625 324.022842 
L 1178.230545 331.863249 
L 1179.414839 335.197481 
L 1180.599133 328.717819 
L 1181.783428 319.154014 
L 1182.967722 335.463686 
L 1184.152016 334.579247 
L 1185.336311 318.963801 
L 1186.520605 322.684346 
L 1187.704899 339.70856 
L 1188.889193 335.221575 
L 1190.073488 313.83916 
L 1191.257782 321.317437 
L 1192.442076 322.890428 
L 1193.626371 319.926495 
L 1194.810665 320.440242 
L 1195.994959 330.55006 
L 1197.179254 325.814636 
L 1198.363548 326.337195 
L 1199.547842 325.476134 
L 1200.732137 324.319371 
L 1201.916431 321.713091 
L 1203.100725 329.991689 
L 1204.285019 330.116502 
L 1205.469314 324.69144 
L 1206.653608 343.772932 
L 1207.837902 337.688228 
L 1209.022197 329.813612 
L 1210.206491 333.576784 
L 1211.390785 337.86475 
L 1212.57508 334.459797 
L 1213.759374 331.410961 
L 1214.943668 342.259674 
L 1216.127963 341.1412 
L 1217.312257 337.375153 
L 1218.496551 340.614744 
L 1219.680845 341.03266 
L 1220.86514 342.806649 
L 1222.049434 344.234898 
L 1223.233728 345.177973 
L 1224.418023 341.72356 
L 1225.602317 342.805814 
L 1226.786611 345.426141 
L 1227.970906 348.702187 
L 1229.1552 345.383376 
L 1230.339494 343.834909 
L 1231.523788 350.758326 
L 1232.708083 347.52242 
L 1233.892377 344.742078 
L 1235.076671 345.353706 
L 1236.260966 346.175939 
L 1237.44526 344.707143 
L 1238.629554 342.357183 
L 1239.813849 352.626013 
L 1240.998143 346.085525 
L 1242.182437 338.560435 
L 1243.366732 341.563729 
L 1244.551026 346.079355 
L 1245.73532 348.333137 
L 1246.919614 341.262212 
L 1248.103909 344.757179 
L 1249.288203 348.6179 
L 1250.472497 350.005872 
L 1251.656792 347.78864 
L 1252.841086 347.950772 
L 1254.02538 348.966258 
L 1255.209675 350.41745 
L 1256.393969 350.481514 
L 1257.578263 349.599251 
L 1258.762557 349.978907 
L 1259.946852 350.589901 
L 1261.131146 349.812108 
L 1262.31544 348.044065 
L 1264.684029 349.535731 
L 1265.868323 347.481816 
L 1267.052618 347.697533 
L 1268.236912 348.667172 
L 1269.421206 350.533305 
L 1270.605501 350.079142 
L 1271.789795 350.50421 
L 1272.974089 351.55287 
L 1274.158383 351.825193 
L 1275.342678 351.952659 
L 1276.526972 351.794403 
L 1277.711266 352.254435 
L 1278.895561 353.2755 
L 1280.079855 350.689575 
L 1281.264149 349.153774 
L 1282.448444 349.881045 
L 1283.632738 349.013 
L 1284.817032 348.661599 
L 1286.001326 348.754528 
L 1287.185621 348.44297 
L 1288.369915 348.876844 
L 1289.554209 348.874625 
L 1290.738504 350.429471 
L 1291.922798 350.06429 
L 1293.107092 348.998076 
L 1294.291387 350.738044 
L 1295.475681 351.448975 
L 1296.659975 350.158621 
L 1297.84427 349.111927 
L 1299.028564 349.950402 
L 1300.212858 349.708011 
L 1301.397152 349.32952 
L 1301.397152 349.32952 
" clip-path="url(#pb3409f6c1a)" style="fill: none; stroke: #ffa500; stroke-width: 1.5; stroke-linecap: square"/>
   </g>
   <g id="line2d_18">
    <path d="M 1302.581447 349.353038 
L 1303.765741 351.112802 
L 1304.950035 350.409881 
L 1306.13433 350.536 
L 1307.318624 350.778323 
L 1308.502918 350.991389 
L 1309.687213 350.704102 
L 1310.871507 350.494199 
L 1312.055801 350.756666 
L 1313.240096 350.650656 
L 1314.42439 350.669844 
L 1315.608684 350.706035 
L 1316.792978 350.737571 
L 1317.977273 350.69487 
" clip-path="url(#pb3409f6c1a)" style="fill: none; stroke: #ff0000; stroke-width: 1.5; stroke-linecap: square"/>
   </g>
   <g id="patch_3">
    <path d="M 39.65 368.3955 
L 39.65 35.7555 
" style="fill: none; stroke: #000000; stroke-width: 0.8; stroke-linejoin: miter; stroke-linecap: square"/>
   </g>
   <g id="patch_4">
    <path d="M 1378.85 368.3955 
L 1378.85 35.7555 
" style="fill: none; stroke: #000000; stroke-width: 0.8; stroke-linejoin: miter; stroke-linecap: square"/>
   </g>
   <g id="patch_5">
    <path d="M 39.65 368.3955 
L 1378.85 368.3955 
" style="fill: none; stroke: #000000; stroke-width: 0.8; stroke-linejoin: miter; stroke-linecap: square"/>
   </g>
   <g id="patch_6">
    <path d="M 39.65 35.7555 
L 1378.85 35.7555 
" style="fill: none; stroke: #000000; stroke-width: 0.8; stroke-linejoin: miter; stroke-linecap: square"/>
   </g>
   <g id="text_16">
    <!-- Daily Confirmed Cases Forecasting - Venezuela -->
    <g transform="translate(567.936875 16.318125)scale(0.12 -0.12)">
     <defs>
      <path id="DejaVuSans-44" d="M 1259 4147 
L 1259 519 
L 2022 519 
Q 2988 519 3436 956 
Q 3884 1394 3884 2338 
Q 3884 3275 3436 3711 
Q 2988 4147 2022 4147 
L 1259 4147 
z
M 628 4666 
L 1925 4666 
Q 3281 4666 3915 4102 
Q 4550 3538 4550 2338 
Q 4550 1131 3912 565 
Q 3275 0 1925 0 
L 628 0 
L 628 4666 
z
" transform="scale(0.015625)"/>
      <path id="DejaVuSans-61" d="M 2194 1759 
Q 1497 1759 1228 1600 
Q 959 1441 959 1056 
Q 959 750 1161 570 
Q 1363 391 1709 391 
Q 2188 391 2477 730 
Q 2766 1069 2766 1631 
L 2766 1759 
L 2194 1759 
z
M 3341 1997 
L 3341 0 
L 2766 0 
L 2766 531 
Q 2569 213 2275 61 
Q 1981 -91 1556 -91 
Q 1019 -91 701 211 
Q 384 513 384 1019 
Q 384 1609 779 1909 
Q 1175 2209 1959 2209 
L 2766 2209 
L 2766 2266 
Q 2766 2663 2505 2880 
Q 2244 3097 1772 3097 
Q 1472 3097 1187 3025 
Q 903 2953 641 2809 
L 641 3341 
Q 956 3463 1253 3523 
Q 1550 3584 1831 3584 
Q 2591 3584 2966 3190 
Q 3341 2797 3341 1997 
z
" transform="scale(0.015625)"/>
      <path id="DejaVuSans-69" d="M 603 3500 
L 1178 3500 
L 1178 0 
L 603 0 
L 603 3500 
z
M 603 4863 
L 1178 4863 
L 1178 4134 
L 603 4134 
L 603 4863 
z
" transform="scale(0.015625)"/>
      <path id="DejaVuSans-6c" d="M 603 4863 
L 1178 4863 
L 1178 0 
L 603 0 
L 603 4863 
z
" transform="scale(0.015625)"/>
      <path id="DejaVuSans-79" d="M 2059 -325 
Q 1816 -950 1584 -1140 
Q 1353 -1331 966 -1331 
L 506 -1331 
L 506 -850 
L 844 -850 
Q 1081 -850 1212 -737 
Q 1344 -625 1503 -206 
L 1606 56 
L 191 3500 
L 800 3500 
L 1894 763 
L 2988 3500 
L 3597 3500 
L 2059 -325 
z
" transform="scale(0.015625)"/>
      <path id="DejaVuSans-20" transform="scale(0.015625)"/>
      <path id="DejaVuSans-43" d="M 4122 4306 
L 4122 3641 
Q 3803 3938 3442 4084 
Q 3081 4231 2675 4231 
Q 1875 4231 1450 3742 
Q 1025 3253 1025 2328 
Q 1025 1406 1450 917 
Q 1875 428 2675 428 
Q 3081 428 3442 575 
Q 3803 722 4122 1019 
L 4122 359 
Q 3791 134 3420 21 
Q 3050 -91 2638 -91 
Q 1578 -91 968 557 
Q 359 1206 359 2328 
Q 359 3453 968 4101 
Q 1578 4750 2638 4750 
Q 3056 4750 3426 4639 
Q 3797 4528 4122 4306 
z
" transform="scale(0.015625)"/>
      <path id="DejaVuSans-6f" d="M 1959 3097 
Q 1497 3097 1228 2736 
Q 959 2375 959 1747 
Q 959 1119 1226 758 
Q 1494 397 1959 397 
Q 2419 397 2687 759 
Q 2956 1122 2956 1747 
Q 2956 2369 2687 2733 
Q 2419 3097 1959 3097 
z
M 1959 3584 
Q 2709 3584 3137 3096 
Q 3566 2609 3566 1747 
Q 3566 888 3137 398 
Q 2709 -91 1959 -91 
Q 1206 -91 779 398 
Q 353 888 353 1747 
Q 353 2609 779 3096 
Q 1206 3584 1959 3584 
z
" transform="scale(0.015625)"/>
      <path id="DejaVuSans-6e" d="M 3513 2113 
L 3513 0 
L 2938 0 
L 2938 2094 
Q 2938 2591 2744 2837 
Q 2550 3084 2163 3084 
Q 1697 3084 1428 2787 
Q 1159 2491 1159 1978 
L 1159 0 
L 581 0 
L 581 3500 
L 1159 3500 
L 1159 2956 
Q 1366 3272 1645 3428 
Q 1925 3584 2291 3584 
Q 2894 3584 3203 3211 
Q 3513 2838 3513 2113 
z
" transform="scale(0.015625)"/>
      <path id="DejaVuSans-66" d="M 2375 4863 
L 2375 4384 
L 1825 4384 
Q 1516 4384 1395 4259 
Q 1275 4134 1275 3809 
L 1275 3500 
L 2222 3500 
L 2222 3053 
L 1275 3053 
L 1275 0 
L 697 0 
L 697 3053 
L 147 3053 
L 147 3500 
L 697 3500 
L 697 3744 
Q 697 4328 969 4595 
Q 1241 4863 1831 4863 
L 2375 4863 
z
" transform="scale(0.015625)"/>
      <path id="DejaVuSans-72" d="M 2631 2963 
Q 2534 3019 2420 3045 
Q 2306 3072 2169 3072 
Q 1681 3072 1420 2755 
Q 1159 2438 1159 1844 
L 1159 0 
L 581 0 
L 581 3500 
L 1159 3500 
L 1159 2956 
Q 1341 3275 1631 3429 
Q 1922 3584 2338 3584 
Q 2397 3584 2469 3576 
Q 2541 3569 2628 3553 
L 2631 2963 
z
" transform="scale(0.015625)"/>
      <path id="DejaVuSans-6d" d="M 3328 2828 
Q 3544 3216 3844 3400 
Q 4144 3584 4550 3584 
Q 5097 3584 5394 3201 
Q 5691 2819 5691 2113 
L 5691 0 
L 5113 0 
L 5113 2094 
Q 5113 2597 4934 2840 
Q 4756 3084 4391 3084 
Q 3944 3084 3684 2787 
Q 3425 2491 3425 1978 
L 3425 0 
L 2847 0 
L 2847 2094 
Q 2847 2600 2669 2842 
Q 2491 3084 2119 3084 
Q 1678 3084 1418 2786 
Q 1159 2488 1159 1978 
L 1159 0 
L 581 0 
L 581 3500 
L 1159 3500 
L 1159 2956 
Q 1356 3278 1631 3431 
Q 1906 3584 2284 3584 
Q 2666 3584 2933 3390 
Q 3200 3197 3328 2828 
z
" transform="scale(0.015625)"/>
      <path id="DejaVuSans-65" d="M 3597 1894 
L 3597 1613 
L 953 1613 
Q 991 1019 1311 708 
Q 1631 397 2203 397 
Q 2534 397 2845 478 
Q 3156 559 3463 722 
L 3463 178 
Q 3153 47 2828 -22 
Q 2503 -91 2169 -91 
Q 1331 -91 842 396 
Q 353 884 353 1716 
Q 353 2575 817 3079 
Q 1281 3584 2069 3584 
Q 2775 3584 3186 3129 
Q 3597 2675 3597 1894 
z
M 3022 2063 
Q 3016 2534 2758 2815 
Q 2500 3097 2075 3097 
Q 1594 3097 1305 2825 
Q 1016 2553 972 2059 
L 3022 2063 
z
" transform="scale(0.015625)"/>
      <path id="DejaVuSans-64" d="M 2906 2969 
L 2906 4863 
L 3481 4863 
L 3481 0 
L 2906 0 
L 2906 525 
Q 2725 213 2448 61 
Q 2172 -91 1784 -91 
Q 1150 -91 751 415 
Q 353 922 353 1747 
Q 353 2572 751 3078 
Q 1150 3584 1784 3584 
Q 2172 3584 2448 3432 
Q 2725 3281 2906 2969 
z
M 947 1747 
Q 947 1113 1208 752 
Q 1469 391 1925 391 
Q 2381 391 2643 752 
Q 2906 1113 2906 1747 
Q 2906 2381 2643 2742 
Q 2381 3103 1925 3103 
Q 1469 3103 1208 2742 
Q 947 2381 947 1747 
z
" transform="scale(0.015625)"/>
      <path id="DejaVuSans-73" d="M 2834 3397 
L 2834 2853 
Q 2591 2978 2328 3040 
Q 2066 3103 1784 3103 
Q 1356 3103 1142 2972 
Q 928 2841 928 2578 
Q 928 2378 1081 2264 
Q 1234 2150 1697 2047 
L 1894 2003 
Q 2506 1872 2764 1633 
Q 3022 1394 3022 966 
Q 3022 478 2636 193 
Q 2250 -91 1575 -91 
Q 1294 -91 989 -36 
Q 684 19 347 128 
L 347 722 
Q 666 556 975 473 
Q 1284 391 1588 391 
Q 1994 391 2212 530 
Q 2431 669 2431 922 
Q 2431 1156 2273 1281 
Q 2116 1406 1581 1522 
L 1381 1569 
Q 847 1681 609 1914 
Q 372 2147 372 2553 
Q 372 3047 722 3315 
Q 1072 3584 1716 3584 
Q 2034 3584 2315 3537 
Q 2597 3491 2834 3397 
z
" transform="scale(0.015625)"/>
      <path id="DejaVuSans-46" d="M 628 4666 
L 3309 4666 
L 3309 4134 
L 1259 4134 
L 1259 2759 
L 3109 2759 
L 3109 2228 
L 1259 2228 
L 1259 0 
L 628 0 
L 628 4666 
z
" transform="scale(0.015625)"/>
      <path id="DejaVuSans-63" d="M 3122 3366 
L 3122 2828 
Q 2878 2963 2633 3030 
Q 2388 3097 2138 3097 
Q 1578 3097 1268 2742 
Q 959 2388 959 1747 
Q 959 1106 1268 751 
Q 1578 397 2138 397 
Q 2388 397 2633 464 
Q 2878 531 3122 666 
L 3122 134 
Q 2881 22 2623 -34 
Q 2366 -91 2075 -91 
Q 1284 -91 818 406 
Q 353 903 353 1747 
Q 353 2603 823 3093 
Q 1294 3584 2113 3584 
Q 2378 3584 2631 3529 
Q 2884 3475 3122 3366 
z
" transform="scale(0.015625)"/>
      <path id="DejaVuSans-74" d="M 1172 4494 
L 1172 3500 
L 2356 3500 
L 2356 3053 
L 1172 3053 
L 1172 1153 
Q 1172 725 1289 603 
Q 1406 481 1766 481 
L 2356 481 
L 2356 0 
L 1766 0 
Q 1100 0 847 248 
Q 594 497 594 1153 
L 594 3053 
L 172 3053 
L 172 3500 
L 594 3500 
L 594 4494 
L 1172 4494 
z
" transform="scale(0.015625)"/>
      <path id="DejaVuSans-67" d="M 2906 1791 
Q 2906 2416 2648 2759 
Q 2391 3103 1925 3103 
Q 1463 3103 1205 2759 
Q 947 2416 947 1791 
Q 947 1169 1205 825 
Q 1463 481 1925 481 
Q 2391 481 2648 825 
Q 2906 1169 2906 1791 
z
M 3481 434 
Q 3481 -459 3084 -895 
Q 2688 -1331 1869 -1331 
Q 1566 -1331 1297 -1286 
Q 1028 -1241 775 -1147 
L 775 -588 
Q 1028 -725 1275 -790 
Q 1522 -856 1778 -856 
Q 2344 -856 2625 -561 
Q 2906 -266 2906 331 
L 2906 616 
Q 2728 306 2450 153 
Q 2172 0 1784 0 
Q 1141 0 747 490 
Q 353 981 353 1791 
Q 353 2603 747 3093 
Q 1141 3584 1784 3584 
Q 2172 3584 2450 3431 
Q 2728 3278 2906 2969 
L 2906 3500 
L 3481 3500 
L 3481 434 
z
" transform="scale(0.015625)"/>
      <path id="DejaVuSans-56" d="M 1831 0 
L 50 4666 
L 709 4666 
L 2188 738 
L 3669 4666 
L 4325 4666 
L 2547 0 
L 1831 0 
z
" transform="scale(0.015625)"/>
      <path id="DejaVuSans-7a" d="M 353 3500 
L 3084 3500 
L 3084 2975 
L 922 459 
L 3084 459 
L 3084 0 
L 275 0 
L 275 525 
L 2438 3041 
L 353 3041 
L 353 3500 
z
" transform="scale(0.015625)"/>
      <path id="DejaVuSans-75" d="M 544 1381 
L 544 3500 
L 1119 3500 
L 1119 1403 
Q 1119 906 1312 657 
Q 1506 409 1894 409 
Q 2359 409 2629 706 
Q 2900 1003 2900 1516 
L 2900 3500 
L 3475 3500 
L 3475 0 
L 2900 0 
L 2900 538 
Q 2691 219 2414 64 
Q 2138 -91 1772 -91 
Q 1169 -91 856 284 
Q 544 659 544 1381 
z
M 1991 3584 
L 1991 3584 
z
" transform="scale(0.015625)"/>
     </defs>
     <use xlink:href="#DejaVuSans-44"/>
     <use xlink:href="#DejaVuSans-61" x="77.001953"/>
     <use xlink:href="#DejaVuSans-69" x="138.28125"/>
     <use xlink:href="#DejaVuSans-6c" x="166.064453"/>
     <use xlink:href="#DejaVuSans-79" x="193.847656"/>
     <use xlink:href="#DejaVuSans-20" x="253.027344"/>
     <use xlink:href="#DejaVuSans-43" x="284.814453"/>
     <use xlink:href="#DejaVuSans-6f" x="354.638672"/>
     <use xlink:href="#DejaVuSans-6e" x="415.820312"/>
     <use xlink:href="#DejaVuSans-66" x="479.199219"/>
     <use xlink:href="#DejaVuSans-69" x="514.404297"/>
     <use xlink:href="#DejaVuSans-72" x="542.1875"/>
     <use xlink:href="#DejaVuSans-6d" x="581.550781"/>
     <use xlink:href="#DejaVuSans-65" x="678.962891"/>
     <use xlink:href="#DejaVuSans-64" x="740.486328"/>
     <use xlink:href="#DejaVuSans-20" x="803.962891"/>
     <use xlink:href="#DejaVuSans-43" x="835.75"/>
     <use xlink:href="#DejaVuSans-61" x="905.574219"/>
     <use xlink:href="#DejaVuSans-73" x="966.853516"/>
     <use xlink:href="#DejaVuSans-65" x="1018.953125"/>
     <use xlink:href="#DejaVuSans-73" x="1080.476562"/>
     <use xlink:href="#DejaVuSans-20" x="1132.576172"/>
     <use xlink:href="#DejaVuSans-46" x="1164.363281"/>
     <use xlink:href="#DejaVuSans-6f" x="1218.257812"/>
     <use xlink:href="#DejaVuSans-72" x="1279.439453"/>
     <use xlink:href="#DejaVuSans-65" x="1318.302734"/>
     <use xlink:href="#DejaVuSans-63" x="1379.826172"/>
     <use xlink:href="#DejaVuSans-61" x="1434.806641"/>
     <use xlink:href="#DejaVuSans-73" x="1496.085938"/>
     <use xlink:href="#DejaVuSans-74" x="1548.185547"/>
     <use xlink:href="#DejaVuSans-69" x="1587.394531"/>
     <use xlink:href="#DejaVuSans-6e" x="1615.177734"/>
     <use xlink:href="#DejaVuSans-67" x="1678.556641"/>
     <use xlink:href="#DejaVuSans-20" x="1742.033203"/>
     <use xlink:href="#DejaVuSans-2d" x="1773.820312"/>
     <use xlink:href="#DejaVuSans-20" x="1809.904297"/>
     <use xlink:href="#DejaVuSans-56" x="1841.691406"/>
     <use xlink:href="#DejaVuSans-65" x="1902.349609"/>
     <use xlink:href="#DejaVuSans-6e" x="1963.873047"/>
     <use xlink:href="#DejaVuSans-65" x="2027.251953"/>
     <use xlink:href="#DejaVuSans-7a" x="2088.775391"/>
     <use xlink:href="#DejaVuSans-75" x="2141.265625"/>
     <use xlink:href="#DejaVuSans-65" x="2204.644531"/>
     <use xlink:href="#DejaVuSans-6c" x="2266.167969"/>
     <use xlink:href="#DejaVuSans-61" x="2293.951172"/>
    </g>
    <!-- ARIMA (2, 1, 1)x(1, 0, 0, 7) (R2 = 0.426487) -->
    <g transform="translate(577.265938 29.7555)scale(0.12 -0.12)">
     <defs>
      <path id="DejaVuSans-41" d="M 2188 4044 
L 1331 1722 
L 3047 1722 
L 2188 4044 
z
M 1831 4666 
L 2547 4666 
L 4325 0 
L 3669 0 
L 3244 1197 
L 1141 1197 
L 716 0 
L 50 0 
L 1831 4666 
z
" transform="scale(0.015625)"/>
      <path id="DejaVuSans-52" d="M 2841 2188 
Q 3044 2119 3236 1894 
Q 3428 1669 3622 1275 
L 4263 0 
L 3584 0 
L 2988 1197 
Q 2756 1666 2539 1819 
Q 2322 1972 1947 1972 
L 1259 1972 
L 1259 0 
L 628 0 
L 628 4666 
L 2053 4666 
Q 2853 4666 3247 4331 
Q 3641 3997 3641 3322 
Q 3641 2881 3436 2590 
Q 3231 2300 2841 2188 
z
M 1259 4147 
L 1259 2491 
L 2053 2491 
Q 2509 2491 2742 2702 
Q 2975 2913 2975 3322 
Q 2975 3731 2742 3939 
Q 2509 4147 2053 4147 
L 1259 4147 
z
" transform="scale(0.015625)"/>
      <path id="DejaVuSans-49" d="M 628 4666 
L 1259 4666 
L 1259 0 
L 628 0 
L 628 4666 
z
" transform="scale(0.015625)"/>
      <path id="DejaVuSans-4d" d="M 628 4666 
L 1569 4666 
L 2759 1491 
L 3956 4666 
L 4897 4666 
L 4897 0 
L 4281 0 
L 4281 4097 
L 3078 897 
L 2444 897 
L 1241 4097 
L 1241 0 
L 628 0 
L 628 4666 
z
" transform="scale(0.015625)"/>
      <path id="DejaVuSans-28" d="M 1984 4856 
Q 1566 4138 1362 3434 
Q 1159 2731 1159 2009 
Q 1159 1288 1364 580 
Q 1569 -128 1984 -844 
L 1484 -844 
Q 1016 -109 783 600 
Q 550 1309 550 2009 
Q 550 2706 781 3412 
Q 1013 4119 1484 4856 
L 1984 4856 
z
" transform="scale(0.015625)"/>
      <path id="DejaVuSans-2c" d="M 750 794 
L 1409 794 
L 1409 256 
L 897 -744 
L 494 -744 
L 750 256 
L 750 794 
z
" transform="scale(0.015625)"/>
      <path id="DejaVuSans-29" d="M 513 4856 
L 1013 4856 
Q 1481 4119 1714 3412 
Q 1947 2706 1947 2009 
Q 1947 1309 1714 600 
Q 1481 -109 1013 -844 
L 513 -844 
Q 928 -128 1133 580 
Q 1338 1288 1338 2009 
Q 1338 2731 1133 3434 
Q 928 4138 513 4856 
z
" transform="scale(0.015625)"/>
      <path id="DejaVuSans-78" d="M 3513 3500 
L 2247 1797 
L 3578 0 
L 2900 0 
L 1881 1375 
L 863 0 
L 184 0 
L 1544 1831 
L 300 3500 
L 978 3500 
L 1906 2253 
L 2834 3500 
L 3513 3500 
z
" transform="scale(0.015625)"/>
      <path id="DejaVuSans-37" d="M 525 4666 
L 3525 4666 
L 3525 4397 
L 1831 0 
L 1172 0 
L 2766 4134 
L 525 4134 
L 525 4666 
z
" transform="scale(0.015625)"/>
      <path id="DejaVuSans-3d" d="M 678 2906 
L 4684 2906 
L 4684 2381 
L 678 2381 
L 678 2906 
z
M 678 1631 
L 4684 1631 
L 4684 1100 
L 678 1100 
L 678 1631 
z
" transform="scale(0.015625)"/>
      <path id="DejaVuSans-2e" d="M 684 794 
L 1344 794 
L 1344 0 
L 684 0 
L 684 794 
z
" transform="scale(0.015625)"/>
      <path id="DejaVuSans-36" d="M 2113 2584 
Q 1688 2584 1439 2293 
Q 1191 2003 1191 1497 
Q 1191 994 1439 701 
Q 1688 409 2113 409 
Q 2538 409 2786 701 
Q 3034 994 3034 1497 
Q 3034 2003 2786 2293 
Q 2538 2584 2113 2584 
z
M 3366 4563 
L 3366 3988 
Q 3128 4100 2886 4159 
Q 2644 4219 2406 4219 
Q 1781 4219 1451 3797 
Q 1122 3375 1075 2522 
Q 1259 2794 1537 2939 
Q 1816 3084 2150 3084 
Q 2853 3084 3261 2657 
Q 3669 2231 3669 1497 
Q 3669 778 3244 343 
Q 2819 -91 2113 -91 
Q 1303 -91 875 529 
Q 447 1150 447 2328 
Q 447 3434 972 4092 
Q 1497 4750 2381 4750 
Q 2619 4750 2861 4703 
Q 3103 4656 3366 4563 
z
" transform="scale(0.015625)"/>
      <path id="DejaVuSans-38" d="M 2034 2216 
Q 1584 2216 1326 1975 
Q 1069 1734 1069 1313 
Q 1069 891 1326 650 
Q 1584 409 2034 409 
Q 2484 409 2743 651 
Q 3003 894 3003 1313 
Q 3003 1734 2745 1975 
Q 2488 2216 2034 2216 
z
M 1403 2484 
Q 997 2584 770 2862 
Q 544 3141 544 3541 
Q 544 4100 942 4425 
Q 1341 4750 2034 4750 
Q 2731 4750 3128 4425 
Q 3525 4100 3525 3541 
Q 3525 3141 3298 2862 
Q 3072 2584 2669 2484 
Q 3125 2378 3379 2068 
Q 3634 1759 3634 1313 
Q 3634 634 3220 271 
Q 2806 -91 2034 -91 
Q 1263 -91 848 271 
Q 434 634 434 1313 
Q 434 1759 690 2068 
Q 947 2378 1403 2484 
z
M 1172 3481 
Q 1172 3119 1398 2916 
Q 1625 2713 2034 2713 
Q 2441 2713 2670 2916 
Q 2900 3119 2900 3481 
Q 2900 3844 2670 4047 
Q 2441 4250 2034 4250 
Q 1625 4250 1398 4047 
Q 1172 3844 1172 3481 
z
" transform="scale(0.015625)"/>
     </defs>
     <use xlink:href="#DejaVuSans-41"/>
     <use xlink:href="#DejaVuSans-52" x="68.408203"/>
     <use xlink:href="#DejaVuSans-49" x="137.890625"/>
     <use xlink:href="#DejaVuSans-4d" x="167.382812"/>
     <use xlink:href="#DejaVuSans-41" x="253.662109"/>
     <use xlink:href="#DejaVuSans-20" x="322.070312"/>
     <use xlink:href="#DejaVuSans-28" x="353.857422"/>
     <use xlink:href="#DejaVuSans-32" x="392.871094"/>
     <use xlink:href="#DejaVuSans-2c" x="456.494141"/>
     <use xlink:href="#DejaVuSans-20" x="488.28125"/>
     <use xlink:href="#DejaVuSans-31" x="520.068359"/>
     <use xlink:href="#DejaVuSans-2c" x="583.691406"/>
     <use xlink:href="#DejaVuSans-20" x="615.478516"/>
     <use xlink:href="#DejaVuSans-31" x="647.265625"/>
     <use xlink:href="#DejaVuSans-29" x="710.888672"/>
     <use xlink:href="#DejaVuSans-78" x="749.902344"/>
     <use xlink:href="#DejaVuSans-28" x="809.082031"/>
     <use xlink:href="#DejaVuSans-31" x="848.095703"/>
     <use xlink:href="#DejaVuSans-2c" x="911.71875"/>
     <use xlink:href="#DejaVuSans-20" x="943.505859"/>
     <use xlink:href="#DejaVuSans-30" x="975.292969"/>
     <use xlink:href="#DejaVuSans-2c" x="1038.916016"/>
     <use xlink:href="#DejaVuSans-20" x="1070.703125"/>
     <use xlink:href="#DejaVuSans-30" x="1102.490234"/>
     <use xlink:href="#DejaVuSans-2c" x="1166.113281"/>
     <use xlink:href="#DejaVuSans-20" x="1197.900391"/>
     <use xlink:href="#DejaVuSans-37" x="1229.6875"/>
     <use xlink:href="#DejaVuSans-29" x="1293.310547"/>
     <use xlink:href="#DejaVuSans-20" x="1332.324219"/>
     <use xlink:href="#DejaVuSans-28" x="1364.111328"/>
     <use xlink:href="#DejaVuSans-52" x="1403.125"/>
     <use xlink:href="#DejaVuSans-32" x="1472.607422"/>
     <use xlink:href="#DejaVuSans-20" x="1536.230469"/>
     <use xlink:href="#DejaVuSans-3d" x="1568.017578"/>
     <use xlink:href="#DejaVuSans-20" x="1651.806641"/>
     <use xlink:href="#DejaVuSans-30" x="1683.59375"/>
     <use xlink:href="#DejaVuSans-2e" x="1747.216797"/>
     <use xlink:href="#DejaVuSans-34" x="1779.003906"/>
     <use xlink:href="#DejaVuSans-32" x="1842.626953"/>
     <use xlink:href="#DejaVuSans-36" x="1906.25"/>
     <use xlink:href="#DejaVuSans-34" x="1969.873047"/>
     <use xlink:href="#DejaVuSans-38" x="2033.496094"/>
     <use xlink:href="#DejaVuSans-37" x="2097.119141"/>
     <use xlink:href="#DejaVuSans-29" x="2160.742188"/>
    </g>
   </g>
   <g id="legend_1">
    <g id="patch_7">
     <path d="M 1274.770313 87.789875 
L 1371.85 87.789875 
Q 1373.85 87.789875 1373.85 85.789875 
L 1373.85 42.7555 
Q 1373.85 40.7555 1371.85 40.7555 
L 1274.770313 40.7555 
Q 1272.770313 40.7555 1272.770313 42.7555 
L 1272.770313 85.789875 
Q 1272.770313 87.789875 1274.770313 87.789875 
z
" style="fill: #ffffff; opacity: 0.8; stroke: #cccccc; stroke-linejoin: miter"/>
    </g>
    <g id="line2d_19">
     <path d="M 1276.770313 48.853937 
L 1286.770313 48.853937 
L 1296.770313 48.853937 
" style="fill: none; stroke: #0000ff; stroke-width: 1.5; stroke-linecap: square"/>
    </g>
    <g id="text_17">
     <!-- Actual Value -->
     <g transform="translate(1304.770313 52.353937)scale(0.1 -0.1)">
      <use xlink:href="#DejaVuSans-41"/>
      <use xlink:href="#DejaVuSans-63" x="66.658203"/>
      <use xlink:href="#DejaVuSans-74" x="121.638672"/>
      <use xlink:href="#DejaVuSans-75" x="160.847656"/>
      <use xlink:href="#DejaVuSans-61" x="224.226562"/>
      <use xlink:href="#DejaVuSans-6c" x="285.505859"/>
      <use xlink:href="#DejaVuSans-20" x="313.289062"/>
      <use xlink:href="#DejaVuSans-56" x="345.076172"/>
      <use xlink:href="#DejaVuSans-61" x="405.734375"/>
      <use xlink:href="#DejaVuSans-6c" x="467.013672"/>
      <use xlink:href="#DejaVuSans-75" x="494.796875"/>
      <use xlink:href="#DejaVuSans-65" x="558.175781"/>
     </g>
    </g>
    <g id="line2d_20">
     <path d="M 1276.770313 63.532062 
L 1286.770313 63.532062 
L 1296.770313 63.532062 
" style="fill: none; stroke: #ffa500; stroke-width: 1.5; stroke-linecap: square"/>
    </g>
    <g id="text_18">
     <!-- Check Value -->
     <g transform="translate(1304.770313 67.032062)scale(0.1 -0.1)">
      <defs>
       <path id="DejaVuSans-68" d="M 3513 2113 
L 3513 0 
L 2938 0 
L 2938 2094 
Q 2938 2591 2744 2837 
Q 2550 3084 2163 3084 
Q 1697 3084 1428 2787 
Q 1159 2491 1159 1978 
L 1159 0 
L 581 0 
L 581 4863 
L 1159 4863 
L 1159 2956 
Q 1366 3272 1645 3428 
Q 1925 3584 2291 3584 
Q 2894 3584 3203 3211 
Q 3513 2838 3513 2113 
z
" transform="scale(0.015625)"/>
       <path id="DejaVuSans-6b" d="M 581 4863 
L 1159 4863 
L 1159 1991 
L 2875 3500 
L 3609 3500 
L 1753 1863 
L 3688 0 
L 2938 0 
L 1159 1709 
L 1159 0 
L 581 0 
L 581 4863 
z
" transform="scale(0.015625)"/>
      </defs>
      <use xlink:href="#DejaVuSans-43"/>
      <use xlink:href="#DejaVuSans-68" x="69.824219"/>
      <use xlink:href="#DejaVuSans-65" x="133.203125"/>
      <use xlink:href="#DejaVuSans-63" x="194.726562"/>
      <use xlink:href="#DejaVuSans-6b" x="249.707031"/>
      <use xlink:href="#DejaVuSans-20" x="307.617188"/>
      <use xlink:href="#DejaVuSans-56" x="339.404297"/>
      <use xlink:href="#DejaVuSans-61" x="400.0625"/>
      <use xlink:href="#DejaVuSans-6c" x="461.341797"/>
      <use xlink:href="#DejaVuSans-75" x="489.125"/>
      <use xlink:href="#DejaVuSans-65" x="552.503906"/>
     </g>
    </g>
    <g id="line2d_21">
     <path d="M 1276.770313 78.210187 
L 1286.770313 78.210187 
L 1296.770313 78.210187 
" style="fill: none; stroke: #ff0000; stroke-width: 1.5; stroke-linecap: square"/>
    </g>
    <g id="text_19">
     <!-- Predict Value -->
     <g transform="translate(1304.770313 81.710187)scale(0.1 -0.1)">
      <defs>
       <path id="DejaVuSans-50" d="M 1259 4147 
L 1259 2394 
L 2053 2394 
Q 2494 2394 2734 2622 
Q 2975 2850 2975 3272 
Q 2975 3691 2734 3919 
Q 2494 4147 2053 4147 
L 1259 4147 
z
M 628 4666 
L 2053 4666 
Q 2838 4666 3239 4311 
Q 3641 3956 3641 3272 
Q 3641 2581 3239 2228 
Q 2838 1875 2053 1875 
L 1259 1875 
L 1259 0 
L 628 0 
L 628 4666 
z
" transform="scale(0.015625)"/>
      </defs>
      <use xlink:href="#DejaVuSans-50"/>
      <use xlink:href="#DejaVuSans-72" x="58.552734"/>
      <use xlink:href="#DejaVuSans-65" x="97.416016"/>
      <use xlink:href="#DejaVuSans-64" x="158.939453"/>
      <use xlink:href="#DejaVuSans-69" x="222.416016"/>
      <use xlink:href="#DejaVuSans-63" x="250.199219"/>
      <use xlink:href="#DejaVuSans-74" x="305.179688"/>
      <use xlink:href="#DejaVuSans-20" x="344.388672"/>
      <use xlink:href="#DejaVuSans-56" x="376.175781"/>
      <use xlink:href="#DejaVuSans-61" x="436.833984"/>
      <use xlink:href="#DejaVuSans-6c" x="498.113281"/>
      <use xlink:href="#DejaVuSans-75" x="525.896484"/>
      <use xlink:href="#DejaVuSans-65" x="589.275391"/>
     </g>
    </g>
   </g>
  </g>
 </g>
 <defs>
  <clipPath id="pb3409f6c1a">
   <rect x="39.65" y="35.7555" width="1339.2" height="332.64"/>
  </clipPath>
 </defs>
</svg>
