<?xml version="1.0" encoding="utf-8" standalone="no"?>
<!DOCTYPE svg PUBLIC "-//W3C//DTD SVG 1.1//EN"
  "http://www.w3.org/Graphics/SVG/1.1/DTD/svg11.dtd">
<svg xmlns:xlink="http://www.w3.org/1999/xlink" width="1393.540034pt" height="392.273625pt" viewBox="0 0 1393.540034 392.273625" xmlns="http://www.w3.org/2000/svg" version="1.1">
 <metadata>
  <rdf:RDF xmlns:dc="http://purl.org/dc/elements/1.1/" xmlns:cc="http://creativecommons.org/ns#" xmlns:rdf="http://www.w3.org/1999/02/22-rdf-syntax-ns#">
   <cc:Work>
    <dc:type rdf:resource="http://purl.org/dc/dcmitype/StillImage"/>
    <dc:date>2024-01-19T19:01:05.274976</dc:date>
    <dc:format>image/svg+xml</dc:format>
    <dc:creator>
     <cc:Agent>
      <dc:title>Matplotlib v3.5.1, https://matplotlib.org/</dc:title>
     </cc:Agent>
    </dc:creator>
   </cc:Work>
  </rdf:RDF>
 </metadata>
 <defs>
  <style type="text/css">*{stroke-linejoin: round; stroke-linecap: butt}</style>
 </defs>
 <g id="figure_1">
  <g id="patch_1">
   <path d="M 0 392.273625 
L 1393.540034 392.273625 
L 1393.540034 0 
L 0 0 
z
" style="fill: #ffffff"/>
  </g>
  <g id="axes_1">
   <g id="patch_2">
    <path d="M 46.0125 368.3955 
L 1385.2125 368.3955 
L 1385.2125 35.7555 
L 46.0125 35.7555 
z
" style="fill: #ffffff"/>
   </g>
   <g id="matplotlib.axis_1">
    <g id="xtick_1">
     <g id="line2d_1">
      <defs>
       <path id="mf67246c86c" d="M 0 0 
L 0 3.5 
" style="stroke: #000000; stroke-width: 0.8"/>
      </defs>
      <g>
       <use xlink:href="#mf67246c86c" x="83.695617" y="368.3955" style="stroke: #000000; stroke-width: 0.8"/>
      </g>
     </g>
     <g id="text_1">
      <!-- 2020-01 -->
      <g transform="translate(62.804211 382.993937)scale(0.1 -0.1)">
       <defs>
        <path id="DejaVuSans-32" d="M 1228 531 
L 3431 531 
L 3431 0 
L 469 0 
L 469 531 
Q 828 903 1448 1529 
Q 2069 2156 2228 2338 
Q 2531 2678 2651 2914 
Q 2772 3150 2772 3378 
Q 2772 3750 2511 3984 
Q 2250 4219 1831 4219 
Q 1534 4219 1204 4116 
Q 875 4013 500 3803 
L 500 4441 
Q 881 4594 1212 4672 
Q 1544 4750 1819 4750 
Q 2544 4750 2975 4387 
Q 3406 4025 3406 3419 
Q 3406 3131 3298 2873 
Q 3191 2616 2906 2266 
Q 2828 2175 2409 1742 
Q 1991 1309 1228 531 
z
" transform="scale(0.015625)"/>
        <path id="DejaVuSans-30" d="M 2034 4250 
Q 1547 4250 1301 3770 
Q 1056 3291 1056 2328 
Q 1056 1369 1301 889 
Q 1547 409 2034 409 
Q 2525 409 2770 889 
Q 3016 1369 3016 2328 
Q 3016 3291 2770 3770 
Q 2525 4250 2034 4250 
z
M 2034 4750 
Q 2819 4750 3233 4129 
Q 3647 3509 3647 2328 
Q 3647 1150 3233 529 
Q 2819 -91 2034 -91 
Q 1250 -91 836 529 
Q 422 1150 422 2328 
Q 422 3509 836 4129 
Q 1250 4750 2034 4750 
z
" transform="scale(0.015625)"/>
        <path id="DejaVuSans-2d" d="M 313 2009 
L 1997 2009 
L 1997 1497 
L 313 1497 
L 313 2009 
z
" transform="scale(0.015625)"/>
        <path id="DejaVuSans-31" d="M 794 531 
L 1825 531 
L 1825 4091 
L 703 3866 
L 703 4441 
L 1819 4666 
L 2450 4666 
L 2450 531 
L 3481 531 
L 3481 0 
L 794 0 
L 794 531 
z
" transform="scale(0.015625)"/>
       </defs>
       <use xlink:href="#DejaVuSans-32"/>
       <use xlink:href="#DejaVuSans-30" x="63.623047"/>
       <use xlink:href="#DejaVuSans-32" x="127.246094"/>
       <use xlink:href="#DejaVuSans-30" x="190.869141"/>
       <use xlink:href="#DejaVuSans-2d" x="254.492188"/>
       <use xlink:href="#DejaVuSans-30" x="290.576172"/>
       <use xlink:href="#DejaVuSans-31" x="354.199219"/>
      </g>
     </g>
    </g>
    <g id="xtick_2">
     <g id="line2d_2">
      <g>
       <use xlink:href="#mf67246c86c" x="211.238474" y="368.3955" style="stroke: #000000; stroke-width: 0.8"/>
      </g>
     </g>
     <g id="text_2">
      <!-- 2020-05 -->
      <g transform="translate(190.347068 382.993937)scale(0.1 -0.1)">
       <defs>
        <path id="DejaVuSans-35" d="M 691 4666 
L 3169 4666 
L 3169 4134 
L 1269 4134 
L 1269 2991 
Q 1406 3038 1543 3061 
Q 1681 3084 1819 3084 
Q 2600 3084 3056 2656 
Q 3513 2228 3513 1497 
Q 3513 744 3044 326 
Q 2575 -91 1722 -91 
Q 1428 -91 1123 -41 
Q 819 9 494 109 
L 494 744 
Q 775 591 1075 516 
Q 1375 441 1709 441 
Q 2250 441 2565 725 
Q 2881 1009 2881 1497 
Q 2881 1984 2565 2268 
Q 2250 2553 1709 2553 
Q 1456 2553 1204 2497 
Q 953 2441 691 2322 
L 691 4666 
z
" transform="scale(0.015625)"/>
       </defs>
       <use xlink:href="#DejaVuSans-32"/>
       <use xlink:href="#DejaVuSans-30" x="63.623047"/>
       <use xlink:href="#DejaVuSans-32" x="127.246094"/>
       <use xlink:href="#DejaVuSans-30" x="190.869141"/>
       <use xlink:href="#DejaVuSans-2d" x="254.492188"/>
       <use xlink:href="#DejaVuSans-30" x="290.576172"/>
       <use xlink:href="#DejaVuSans-35" x="354.199219"/>
      </g>
     </g>
    </g>
    <g id="xtick_3">
     <g id="line2d_3">
      <g>
       <use xlink:href="#mf67246c86c" x="340.889478" y="368.3955" style="stroke: #000000; stroke-width: 0.8"/>
      </g>
     </g>
     <g id="text_3">
      <!-- 2020-09 -->
      <g transform="translate(319.998071 382.993937)scale(0.1 -0.1)">
       <defs>
        <path id="DejaVuSans-39" d="M 703 97 
L 703 672 
Q 941 559 1184 500 
Q 1428 441 1663 441 
Q 2288 441 2617 861 
Q 2947 1281 2994 2138 
Q 2813 1869 2534 1725 
Q 2256 1581 1919 1581 
Q 1219 1581 811 2004 
Q 403 2428 403 3163 
Q 403 3881 828 4315 
Q 1253 4750 1959 4750 
Q 2769 4750 3195 4129 
Q 3622 3509 3622 2328 
Q 3622 1225 3098 567 
Q 2575 -91 1691 -91 
Q 1453 -91 1209 -44 
Q 966 3 703 97 
z
M 1959 2075 
Q 2384 2075 2632 2365 
Q 2881 2656 2881 3163 
Q 2881 3666 2632 3958 
Q 2384 4250 1959 4250 
Q 1534 4250 1286 3958 
Q 1038 3666 1038 3163 
Q 1038 2656 1286 2365 
Q 1534 2075 1959 2075 
z
" transform="scale(0.015625)"/>
       </defs>
       <use xlink:href="#DejaVuSans-32"/>
       <use xlink:href="#DejaVuSans-30" x="63.623047"/>
       <use xlink:href="#DejaVuSans-32" x="127.246094"/>
       <use xlink:href="#DejaVuSans-30" x="190.869141"/>
       <use xlink:href="#DejaVuSans-2d" x="254.492188"/>
       <use xlink:href="#DejaVuSans-30" x="290.576172"/>
       <use xlink:href="#DejaVuSans-39" x="354.199219"/>
      </g>
     </g>
    </g>
    <g id="xtick_4">
     <g id="line2d_4">
      <g>
       <use xlink:href="#mf67246c86c" x="469.486408" y="368.3955" style="stroke: #000000; stroke-width: 0.8"/>
      </g>
     </g>
     <g id="text_4">
      <!-- 2021-01 -->
      <g transform="translate(448.595002 382.993937)scale(0.1 -0.1)">
       <use xlink:href="#DejaVuSans-32"/>
       <use xlink:href="#DejaVuSans-30" x="63.623047"/>
       <use xlink:href="#DejaVuSans-32" x="127.246094"/>
       <use xlink:href="#DejaVuSans-31" x="190.869141"/>
       <use xlink:href="#DejaVuSans-2d" x="254.492188"/>
       <use xlink:href="#DejaVuSans-30" x="290.576172"/>
       <use xlink:href="#DejaVuSans-31" x="354.199219"/>
      </g>
     </g>
    </g>
    <g id="xtick_5">
     <g id="line2d_5">
      <g>
       <use xlink:href="#mf67246c86c" x="595.975192" y="368.3955" style="stroke: #000000; stroke-width: 0.8"/>
      </g>
     </g>
     <g id="text_5">
      <!-- 2021-05 -->
      <g transform="translate(575.083786 382.993937)scale(0.1 -0.1)">
       <use xlink:href="#DejaVuSans-32"/>
       <use xlink:href="#DejaVuSans-30" x="63.623047"/>
       <use xlink:href="#DejaVuSans-32" x="127.246094"/>
       <use xlink:href="#DejaVuSans-31" x="190.869141"/>
       <use xlink:href="#DejaVuSans-2d" x="254.492188"/>
       <use xlink:href="#DejaVuSans-30" x="290.576172"/>
       <use xlink:href="#DejaVuSans-35" x="354.199219"/>
      </g>
     </g>
    </g>
    <g id="xtick_6">
     <g id="line2d_6">
      <g>
       <use xlink:href="#mf67246c86c" x="725.626195" y="368.3955" style="stroke: #000000; stroke-width: 0.8"/>
      </g>
     </g>
     <g id="text_6">
      <!-- 2021-09 -->
      <g transform="translate(704.734789 382.993937)scale(0.1 -0.1)">
       <use xlink:href="#DejaVuSans-32"/>
       <use xlink:href="#DejaVuSans-30" x="63.623047"/>
       <use xlink:href="#DejaVuSans-32" x="127.246094"/>
       <use xlink:href="#DejaVuSans-31" x="190.869141"/>
       <use xlink:href="#DejaVuSans-2d" x="254.492188"/>
       <use xlink:href="#DejaVuSans-30" x="290.576172"/>
       <use xlink:href="#DejaVuSans-39" x="354.199219"/>
      </g>
     </g>
    </g>
    <g id="xtick_7">
     <g id="line2d_7">
      <g>
       <use xlink:href="#mf67246c86c" x="854.223126" y="368.3955" style="stroke: #000000; stroke-width: 0.8"/>
      </g>
     </g>
     <g id="text_7">
      <!-- 2022-01 -->
      <g transform="translate(833.331719 382.993937)scale(0.1 -0.1)">
       <use xlink:href="#DejaVuSans-32"/>
       <use xlink:href="#DejaVuSans-30" x="63.623047"/>
       <use xlink:href="#DejaVuSans-32" x="127.246094"/>
       <use xlink:href="#DejaVuSans-32" x="190.869141"/>
       <use xlink:href="#DejaVuSans-2d" x="254.492188"/>
       <use xlink:href="#DejaVuSans-30" x="290.576172"/>
       <use xlink:href="#DejaVuSans-31" x="354.199219"/>
      </g>
     </g>
    </g>
    <g id="xtick_8">
     <g id="line2d_8">
      <g>
       <use xlink:href="#mf67246c86c" x="980.71191" y="368.3955" style="stroke: #000000; stroke-width: 0.8"/>
      </g>
     </g>
     <g id="text_8">
      <!-- 2022-05 -->
      <g transform="translate(959.820503 382.993937)scale(0.1 -0.1)">
       <use xlink:href="#DejaVuSans-32"/>
       <use xlink:href="#DejaVuSans-30" x="63.623047"/>
       <use xlink:href="#DejaVuSans-32" x="127.246094"/>
       <use xlink:href="#DejaVuSans-32" x="190.869141"/>
       <use xlink:href="#DejaVuSans-2d" x="254.492188"/>
       <use xlink:href="#DejaVuSans-30" x="290.576172"/>
       <use xlink:href="#DejaVuSans-35" x="354.199219"/>
      </g>
     </g>
    </g>
    <g id="xtick_9">
     <g id="line2d_9">
      <g>
       <use xlink:href="#mf67246c86c" x="1110.362913" y="368.3955" style="stroke: #000000; stroke-width: 0.8"/>
      </g>
     </g>
     <g id="text_9">
      <!-- 2022-09 -->
      <g transform="translate(1089.471507 382.993937)scale(0.1 -0.1)">
       <use xlink:href="#DejaVuSans-32"/>
       <use xlink:href="#DejaVuSans-30" x="63.623047"/>
       <use xlink:href="#DejaVuSans-32" x="127.246094"/>
       <use xlink:href="#DejaVuSans-32" x="190.869141"/>
       <use xlink:href="#DejaVuSans-2d" x="254.492188"/>
       <use xlink:href="#DejaVuSans-30" x="290.576172"/>
       <use xlink:href="#DejaVuSans-39" x="354.199219"/>
      </g>
     </g>
    </g>
    <g id="xtick_10">
     <g id="line2d_10">
      <g>
       <use xlink:href="#mf67246c86c" x="1238.959844" y="368.3955" style="stroke: #000000; stroke-width: 0.8"/>
      </g>
     </g>
     <g id="text_10">
      <!-- 2023-01 -->
      <g transform="translate(1218.068437 382.993937)scale(0.1 -0.1)">
       <defs>
        <path id="DejaVuSans-33" d="M 2597 2516 
Q 3050 2419 3304 2112 
Q 3559 1806 3559 1356 
Q 3559 666 3084 287 
Q 2609 -91 1734 -91 
Q 1441 -91 1130 -33 
Q 819 25 488 141 
L 488 750 
Q 750 597 1062 519 
Q 1375 441 1716 441 
Q 2309 441 2620 675 
Q 2931 909 2931 1356 
Q 2931 1769 2642 2001 
Q 2353 2234 1838 2234 
L 1294 2234 
L 1294 2753 
L 1863 2753 
Q 2328 2753 2575 2939 
Q 2822 3125 2822 3475 
Q 2822 3834 2567 4026 
Q 2313 4219 1838 4219 
Q 1578 4219 1281 4162 
Q 984 4106 628 3988 
L 628 4550 
Q 988 4650 1302 4700 
Q 1616 4750 1894 4750 
Q 2613 4750 3031 4423 
Q 3450 4097 3450 3541 
Q 3450 3153 3228 2886 
Q 3006 2619 2597 2516 
z
" transform="scale(0.015625)"/>
       </defs>
       <use xlink:href="#DejaVuSans-32"/>
       <use xlink:href="#DejaVuSans-30" x="63.623047"/>
       <use xlink:href="#DejaVuSans-32" x="127.246094"/>
       <use xlink:href="#DejaVuSans-33" x="190.869141"/>
       <use xlink:href="#DejaVuSans-2d" x="254.492188"/>
       <use xlink:href="#DejaVuSans-30" x="290.576172"/>
       <use xlink:href="#DejaVuSans-31" x="354.199219"/>
      </g>
     </g>
    </g>
    <g id="xtick_11">
     <g id="line2d_11">
      <g>
       <use xlink:href="#mf67246c86c" x="1365.448628" y="368.3955" style="stroke: #000000; stroke-width: 0.8"/>
      </g>
     </g>
     <g id="text_11">
      <!-- 2023-05 -->
      <g transform="translate(1344.557221 382.993937)scale(0.1 -0.1)">
       <use xlink:href="#DejaVuSans-32"/>
       <use xlink:href="#DejaVuSans-30" x="63.623047"/>
       <use xlink:href="#DejaVuSans-32" x="127.246094"/>
       <use xlink:href="#DejaVuSans-33" x="190.869141"/>
       <use xlink:href="#DejaVuSans-2d" x="254.492188"/>
       <use xlink:href="#DejaVuSans-30" x="290.576172"/>
       <use xlink:href="#DejaVuSans-35" x="354.199219"/>
      </g>
     </g>
    </g>
   </g>
   <g id="matplotlib.axis_2">
    <g id="ytick_1">
     <g id="line2d_12">
      <defs>
       <path id="m949ad8bb84" d="M 0 0 
L -3.5 0 
" style="stroke: #000000; stroke-width: 0.8"/>
      </defs>
      <g>
       <use xlink:href="#m949ad8bb84" x="46.0125" y="353.206126" style="stroke: #000000; stroke-width: 0.8"/>
      </g>
     </g>
     <g id="text_12">
      <!-- 0 -->
      <g transform="translate(32.65 357.005345)scale(0.1 -0.1)">
       <use xlink:href="#DejaVuSans-30"/>
      </g>
     </g>
    </g>
    <g id="ytick_2">
     <g id="line2d_13">
      <g>
       <use xlink:href="#m949ad8bb84" x="46.0125" y="295.308346" style="stroke: #000000; stroke-width: 0.8"/>
      </g>
     </g>
     <g id="text_13">
      <!-- 5000 -->
      <g transform="translate(13.5625 299.107565)scale(0.1 -0.1)">
       <use xlink:href="#DejaVuSans-35"/>
       <use xlink:href="#DejaVuSans-30" x="63.623047"/>
       <use xlink:href="#DejaVuSans-30" x="127.246094"/>
       <use xlink:href="#DejaVuSans-30" x="190.869141"/>
      </g>
     </g>
    </g>
    <g id="ytick_3">
     <g id="line2d_14">
      <g>
       <use xlink:href="#m949ad8bb84" x="46.0125" y="237.410567" style="stroke: #000000; stroke-width: 0.8"/>
      </g>
     </g>
     <g id="text_14">
      <!-- 10000 -->
      <g transform="translate(7.2 241.209785)scale(0.1 -0.1)">
       <use xlink:href="#DejaVuSans-31"/>
       <use xlink:href="#DejaVuSans-30" x="63.623047"/>
       <use xlink:href="#DejaVuSans-30" x="127.246094"/>
       <use xlink:href="#DejaVuSans-30" x="190.869141"/>
       <use xlink:href="#DejaVuSans-30" x="254.492188"/>
      </g>
     </g>
    </g>
    <g id="ytick_4">
     <g id="line2d_15">
      <g>
       <use xlink:href="#m949ad8bb84" x="46.0125" y="179.512787" style="stroke: #000000; stroke-width: 0.8"/>
      </g>
     </g>
     <g id="text_15">
      <!-- 15000 -->
      <g transform="translate(7.2 183.312006)scale(0.1 -0.1)">
       <use xlink:href="#DejaVuSans-31"/>
       <use xlink:href="#DejaVuSans-35" x="63.623047"/>
       <use xlink:href="#DejaVuSans-30" x="127.246094"/>
       <use xlink:href="#DejaVuSans-30" x="190.869141"/>
       <use xlink:href="#DejaVuSans-30" x="254.492188"/>
      </g>
     </g>
    </g>
    <g id="ytick_5">
     <g id="line2d_16">
      <g>
       <use xlink:href="#m949ad8bb84" x="46.0125" y="121.615007" style="stroke: #000000; stroke-width: 0.8"/>
      </g>
     </g>
     <g id="text_16">
      <!-- 20000 -->
      <g transform="translate(7.2 125.414226)scale(0.1 -0.1)">
       <use xlink:href="#DejaVuSans-32"/>
       <use xlink:href="#DejaVuSans-30" x="63.623047"/>
       <use xlink:href="#DejaVuSans-30" x="127.246094"/>
       <use xlink:href="#DejaVuSans-30" x="190.869141"/>
       <use xlink:href="#DejaVuSans-30" x="254.492188"/>
      </g>
     </g>
    </g>
    <g id="ytick_6">
     <g id="line2d_17">
      <g>
       <use xlink:href="#m949ad8bb84" x="46.0125" y="63.717228" style="stroke: #000000; stroke-width: 0.8"/>
      </g>
     </g>
     <g id="text_17">
      <!-- 25000 -->
      <g transform="translate(7.2 67.516446)scale(0.1 -0.1)">
       <use xlink:href="#DejaVuSans-32"/>
       <use xlink:href="#DejaVuSans-35" x="63.623047"/>
       <use xlink:href="#DejaVuSans-30" x="127.246094"/>
       <use xlink:href="#DejaVuSans-30" x="190.869141"/>
       <use xlink:href="#DejaVuSans-30" x="254.492188"/>
      </g>
     </g>
    </g>
   </g>
   <g id="line2d_18">
    <path d="M 106.885227 353.206126 
L 149.048155 353.125069 
L 150.102228 352.928217 
L 151.156302 352.84716 
L 152.210375 352.962955 
L 153.264448 352.754523 
L 154.318521 352.870319 
L 155.372594 352.870319 
L 156.426668 350.948113 
L 157.480741 350.913374 
L 158.534814 352.001852 
L 159.588887 349.801736 
L 160.64296 352.117648 
L 161.697034 351.689204 
L 162.751107 351.909216 
L 163.80518 351.700784 
L 164.859253 352.198705 
L 165.913326 350.936533 
L 166.9674 351.260761 
L 168.021473 350.843897 
L 169.075546 350.114384 
L 170.129619 350.473351 
L 171.183692 350.403873 
L 172.237766 350.647044 
L 173.291839 349.905952 
L 174.345912 348.736417 
L 175.399985 350.195441 
L 176.454058 350.091225 
L 177.508132 351.341817 
L 179.616278 350.635465 
L 180.670351 349.917532 
L 181.724424 350.623885 
L 183.832571 351.619727 
L 185.940717 350.647044 
L 186.99479 353.206126 
L 188.048864 351.758681 
L 189.102937 352.013432 
L 190.15701 352.106068 
L 191.211083 351.862897 
L 192.265156 352.302921 
L 193.31923 352.974535 
L 194.373303 351.851318 
L 195.427376 351.399715 
L 196.481449 352.731364 
L 197.535522 352.05975 
L 198.589596 352.719785 
L 199.643669 352.302921 
L 200.697742 352.800841 
L 201.751815 351.503931 
L 202.805888 352.476614 
L 203.859962 352.488193 
L 204.914035 352.789262 
L 205.968108 352.881898 
L 207.022181 352.372398 
L 209.130328 352.627148 
L 210.184401 352.881898 
L 211.238474 352.685046 
L 212.292547 352.905057 
L 214.400694 352.546091 
L 219.67106 352.870319 
L 220.725133 353.136649 
L 221.779206 352.893478 
L 231.265865 353.044012 
L 232.319938 352.881898 
L 236.536231 353.067171 
L 238.644377 352.997694 
L 240.752524 353.078751 
L 241.806597 353.032433 
L 242.86067 353.171387 
L 244.968816 353.10191 
L 247.076963 352.893478 
L 249.185109 353.10191 
L 251.293256 353.044012 
L 255.509548 353.067171 
L 257.617695 353.171387 
L 258.671768 353.020853 
L 259.725841 353.055592 
L 260.779914 352.83558 
L 261.833988 353.020853 
L 263.942134 353.020853 
L 264.996207 353.171387 
L 266.05028 353.136649 
L 267.104354 352.962955 
L 268.158427 353.020853 
L 269.2125 353.206126 
L 270.266573 352.696625 
L 271.320646 353.044012 
L 273.428793 353.125069 
L 274.482866 353.009273 
L 275.536939 353.009273 
L 276.591012 353.136649 
L 277.645086 352.986114 
L 278.699159 353.148228 
L 282.915452 353.171387 
L 283.969525 353.032433 
L 287.131744 353.159808 
L 288.185818 353.171387 
L 289.239891 353.009273 
L 291.348037 353.159808 
L 292.40211 353.09033 
L 294.510257 353.206126 
L 296.618403 352.986114 
L 297.672476 353.136649 
L 298.72655 352.905057 
L 299.780623 353.125069 
L 300.834696 352.986114 
L 301.888769 353.136649 
L 303.996916 352.997694 
L 305.050989 352.951376 
L 306.105062 352.789262 
L 307.159135 352.83558 
L 308.213208 353.055592 
L 309.267282 353.032433 
L 310.321355 352.441875 
L 311.375428 352.881898 
L 314.537648 352.245023 
L 315.591721 352.650307 
L 316.645794 352.754523 
L 317.699867 352.673466 
L 318.75394 352.430296 
L 319.808014 352.83558 
L 320.862087 352.418716 
L 321.91616 352.546091 
L 322.970233 352.546091 
L 324.024306 352.742944 
L 325.07838 352.56925 
L 328.240599 352.800841 
L 329.294672 352.302921 
L 330.348746 352.928217 
L 331.402819 352.928217 
L 332.456892 352.372398 
L 335.619112 352.766103 
L 336.673185 352.742944 
L 337.727258 352.870319 
L 338.781331 352.83558 
L 339.835404 351.596568 
L 340.889478 352.175545 
L 341.943551 351.318658 
L 342.997624 352.210284 
L 344.051697 351.920795 
L 345.10577 352.453455 
L 346.159844 352.140807 
L 347.213917 351.666045 
L 348.26799 352.025011 
L 349.322063 351.781841 
L 350.376136 351.805 
L 351.43021 351.631306 
L 352.484283 352.32608 
L 353.538356 352.337659 
L 354.592429 351.79342 
L 356.700576 351.990273 
L 357.754649 351.515511 
L 358.808722 351.758681 
L 359.862795 352.175545 
L 360.916868 352.754523 
L 361.970942 351.955534 
L 363.025015 351.492352 
L 364.079088 351.770261 
L 366.187234 351.596568 
L 367.241308 352.256602 
L 368.295381 352.383977 
L 369.349454 352.163966 
L 370.403527 351.735522 
L 371.4576 351.909216 
L 373.565747 351.642886 
L 374.61982 352.302921 
L 375.673893 352.106068 
L 376.727966 351.492352 
L 377.78204 351.133385 
L 378.836113 350.554408 
L 379.890186 350.797578 
L 380.944259 351.27234 
L 381.998332 352.302921 
L 383.052406 352.534512 
L 384.106479 351.874477 
L 385.160552 351.422874 
L 386.214625 351.353397 
L 387.268698 351.075488 
L 388.322772 351.642886 
L 389.376845 352.082909 
L 390.430918 352.187125 
L 391.484991 351.515511 
L 393.593138 350.982851 
L 394.647211 350.079646 
L 395.701284 349.755418 
L 396.755357 350.693362 
L 397.80943 351.353397 
L 398.863504 348.192178 
L 399.917577 349.45435 
L 400.97165 348.539565 
L 402.025723 347.474246 
L 403.079796 347.439507 
L 404.13387 350.091225 
L 405.187943 349.685941 
L 406.242016 345.054119 
L 407.296089 346.06154 
L 408.350162 346.003642 
L 409.404236 345.667835 
L 410.458309 346.188915 
L 411.512382 348.481667 
L 412.566455 347.543723 
L 413.620528 346.339449 
L 414.674602 346.698415 
L 415.728675 345.980483 
L 416.782748 344.903584 
L 417.836821 345.239391 
L 418.890894 347.207916 
L 419.944968 353.206126 
L 420.999041 353.206126 
L 422.053114 333.752472 
L 423.107187 345.609937 
L 424.16126 345.436244 
L 425.215334 346.57104 
L 426.269407 349.292236 
L 427.32348 348.423769 
L 428.377553 348.365872 
L 429.431626 347.022643 
L 430.4857 346.825791 
L 431.539773 347.647939 
L 432.593846 348.053224 
L 433.647919 349.118543 
L 434.701992 349.940691 
L 435.756066 349.477509 
L 436.810139 348.099542 
L 437.864212 348.829054 
L 439.972358 348.226917 
L 441.026432 350.056487 
L 442.080505 350.311237 
L 443.134578 348.805895 
L 444.188651 347.87953 
L 445.242724 349.014327 
L 446.296798 347.439507 
L 447.350871 348.389031 
L 448.404944 348.991168 
L 449.459017 350.890215 
L 450.51309 349.373293 
L 451.567164 347.207916 
L 452.621237 347.87953 
L 453.67531 347.833212 
L 454.729383 348.215337 
L 456.83753 349.465929 
L 457.891603 348.215337 
L 458.945676 346.304711 
L 459.999749 347.150018 
L 461.053822 347.694257 
L 462.107896 349.535407 
L 463.161969 348.226917 
L 464.216042 348.794315 
L 465.270115 347.11528 
L 466.324188 345.181494 
L 467.378262 344.729891 
L 468.432335 346.756313 
L 469.486408 350.473351 
L 470.540481 347.844792 
L 471.594554 347.995326 
L 472.648628 347.080541 
L 473.702701 342.379241 
L 474.756774 344.093015 
L 475.810847 343.652992 
L 476.86492 345.28571 
L 477.918994 348.076383 
L 478.973067 346.779472 
L 480.02714 348.238496 
L 481.081213 344.961482 
L 482.135286 345.482562 
L 483.18936 347.949008 
L 484.243433 347.810053 
L 485.297506 350.392294 
L 486.351579 350.820737 
L 487.405652 348.771156 
L 488.459726 348.319553 
L 489.513799 348.215337 
L 491.621945 349.662782 
L 492.676018 350.450192 
L 493.730091 349.97543 
L 494.784165 350.508089 
L 495.838238 349.97543 
L 496.892311 348.956429 
L 497.946384 349.558566 
L 499.000457 349.743839 
L 500.054531 350.681783 
L 501.108604 351.202863 
L 502.162677 349.778577 
L 504.270823 349.894373 
L 505.324897 348.886952 
L 507.433043 351.237601 
L 508.487116 351.828159 
L 509.541189 349.1996 
L 510.595263 350.658624 
L 511.649336 350.785999 
L 512.703409 350.149123 
L 513.757482 348.284815 
L 514.811555 351.399715 
L 515.865629 351.943954 
L 516.919702 349.118543 
L 517.973775 349.894373 
L 519.027848 349.060645 
L 520.081921 349.431191 
L 521.135995 349.929112 
L 522.190068 350.797578 
L 524.298214 350.589146 
L 525.352287 348.690099 
L 526.406361 349.257497 
L 527.460434 346.825791 
L 528.514507 347.138439 
L 529.56858 350.172282 
L 530.622653 351.121806 
L 531.676727 344.76463 
L 532.7308 347.427928 
L 533.784873 345.227812 
L 534.838946 346.605779 
L 535.893019 345.216232 
L 536.947093 349.002747 
L 538.001166 348.620622 
L 539.055239 343.618254 
L 540.109312 344.938323 
L 541.163385 345.27413 
L 542.217459 343.108753 
L 543.271532 342.726628 
L 544.325605 343.317185 
L 545.379678 345.79521 
L 546.433751 343.18981 
L 547.487825 339.889637 
L 548.541898 340.885478 
L 549.595971 341.232865 
L 550.650044 341.753945 
L 551.704117 343.71089 
L 552.758191 346.524722 
L 553.812264 340.514933 
L 554.866337 340.642308 
L 555.92041 341.811843 
L 556.974483 343.583515 
L 558.028557 340.792842 
L 559.08263 347.856371 
L 560.136703 345.320448 
L 561.190776 341.753945 
L 562.244849 340.827581 
L 564.352996 345.204653 
L 565.407069 345.79521 
L 566.461142 345.193073 
L 567.515215 346.559461 
L 568.569289 346.57104 
L 569.623362 342.784526 
L 570.677435 342.4024 
L 571.731508 343.039276 
L 572.785581 344.417243 
L 573.839655 350.253339 
L 574.893728 345.714153 
L 575.947801 345.702574 
L 577.001874 344.648834 
L 578.055947 346.269972 
L 579.110021 346.06154 
L 580.164094 347.381609 
L 581.218167 348.377451 
L 582.27224 348.968008 
L 583.326313 347.207916 
L 584.380387 349.570145 
L 585.43446 344.000379 
L 586.488533 348.064803 
L 587.542606 347.647939 
L 588.596679 349.396452 
L 589.650753 350.635465 
L 590.704826 346.83737 
L 591.758899 347.138439 
L 592.812972 347.763735 
L 593.867045 348.747997 
L 594.921119 348.238496 
L 595.975192 349.859634 
L 597.029265 350.774419 
L 598.083338 347.6132 
L 599.137411 347.601621 
L 600.191485 347.775314 
L 601.245558 347.346871 
L 603.353704 349.546986 
L 604.407777 350.531249 
L 605.461851 345.598358 
L 606.515924 347.728996 
L 607.569997 347.416348 
L 608.62407 349.500668 
L 609.678143 348.284815 
L 610.732217 349.593304 
L 611.78629 350.345976 
L 612.840363 350.878635 
L 613.894436 349.570145 
L 614.948509 347.671098 
L 616.002583 347.35845 
L 617.056656 344.938323 
L 618.110729 347.972167 
L 619.164802 347.983746 
L 620.218875 350.450192 
L 621.272949 347.288973 
L 622.327022 347.427928 
L 623.381095 348.470088 
L 624.435168 349.280656 
L 625.489241 350.369135 
L 626.543315 351.249181 
L 627.597388 349.824896 
L 628.651461 347.87953 
L 629.705534 349.118543 
L 630.759607 349.859634 
L 631.813681 349.69752 
L 632.867754 351.260761 
L 633.921827 351.723943 
L 634.9759 350.322817 
L 636.029973 351.029169 
L 637.084047 350.75126 
L 638.13812 350.774419 
L 639.192193 350.913374 
L 640.246266 351.909216 
L 641.300339 352.511353 
L 642.354413 350.531249 
L 643.408486 350.635465 
L 644.462559 351.121806 
L 645.516632 350.670203 
L 646.570705 350.924953 
L 647.624779 351.700784 
L 648.678852 351.955534 
L 649.732925 350.75126 
L 650.786998 350.647044 
L 651.841071 351.144965 
L 652.895145 349.431191 
L 653.949218 352.372398 
L 655.003291 351.480772 
L 656.057364 352.082909 
L 657.111437 351.399715 
L 658.165511 349.813316 
L 659.219584 349.97543 
L 660.273657 350.971272 
L 661.32773 350.427033 
L 662.381803 351.909216 
L 663.435877 352.187125 
L 664.48995 351.040749 
L 665.544023 350.577567 
L 666.598096 350.76284 
L 667.652169 352.05975 
L 668.706243 349.813316 
L 669.760316 351.654465 
L 670.814389 352.082909 
L 671.868462 351.237601 
L 672.922535 351.098647 
L 675.030682 351.399715 
L 676.084755 350.704942 
L 677.138828 351.608147 
L 678.192901 351.943954 
L 679.246975 350.948113 
L 680.301048 350.357555 
L 681.355121 351.01759 
L 682.409194 350.125964 
L 683.463267 350.565987 
L 684.517341 351.260761 
L 685.571414 351.631306 
L 686.625487 349.384872 
L 687.67956 350.044907 
L 688.733633 351.226022 
L 689.787707 346.420506 
L 690.84178 349.222759 
L 691.895853 351.399715 
L 692.949926 350.589146 
L 694.003999 348.435349 
L 695.058073 347.705837 
L 696.112146 347.671098 
L 697.166219 346.721575 
L 698.220292 348.273235 
L 699.274365 350.172282 
L 700.328439 348.92169 
L 701.382512 347.451087 
L 702.436585 345.494142 
L 703.490658 349.477509 
L 704.544731 346.559461 
L 705.598805 343.108753 
L 706.652878 350.102805 
L 707.706951 348.006905 
L 708.761024 347.068961 
L 709.815097 344.556198 
L 710.869171 346.119438 
L 711.923244 345.27413 
L 712.977317 344.868846 
L 714.03139 349.998589 
L 715.085463 346.802631 
L 716.139537 340.190705 
L 717.19361 340.549671 
L 718.247683 338.222181 
L 719.301756 336.821054 
L 720.355829 335.234655 
L 721.409903 341.082331 
L 722.463976 342.703469 
L 724.572122 332.536619 
L 725.626195 334.215654 
L 726.680269 335.257814 
L 727.734342 333.671415 
L 728.788415 339.901216 
L 729.842488 340.873899 
L 730.896561 339.264341 
L 731.950635 333.474563 
L 733.004708 335.304132 
L 734.058781 334.343029 
L 735.112854 338.141124 
L 736.166927 343.479299 
L 737.221001 345.644676 
L 738.275074 340.237023 
L 739.329147 339.090647 
L 740.38322 341.985536 
L 741.437293 341.835002 
L 742.491367 344.370925 
L 743.54544 346.605779 
L 744.599513 347.717416 
L 745.653586 345.343607 
L 746.707659 347.601621 
L 747.761733 339.229602 
L 748.815806 344.857266 
L 749.869879 345.042539 
L 750.923952 347.196336 
L 751.978025 348.794315 
L 753.032099 345.586778 
L 754.086172 345.077278 
L 755.140245 346.779472 
L 756.194318 346.478404 
L 757.248391 347.601621 
L 758.302465 349.628043 
L 759.356538 349.628043 
L 760.410611 347.601621 
L 761.464684 346.466824 
L 762.518757 347.647939 
L 763.572831 347.323712 
L 764.626904 347.798473 
L 765.680977 350.647044 
L 766.73505 349.882793 
L 767.789123 351.214442 
L 768.843197 342.830844 
L 769.89727 348.585883 
L 770.951343 349.083804 
L 772.005416 348.307974 
L 773.059489 349.338554 
L 774.113563 350.785999 
L 775.167636 346.895268 
L 776.221709 346.165756 
L 777.275782 345.598358 
L 778.329855 344.544618 
L 781.492075 348.296394 
L 782.546148 342.865582 
L 783.600221 339.959114 
L 784.654295 339.54225 
L 785.708368 341.672888 
L 786.762441 340.179126 
L 787.816514 343.96564 
L 788.870587 345.945744 
L 789.924661 337.747419 
L 790.978734 334.377768 
L 792.032807 335.674678 
L 793.08688 335.443087 
L 794.140953 335.767315 
L 795.195027 340.908638 
L 796.2491 341.649729 
L 797.303173 335.466246 
L 798.357246 328.58799 
L 799.411319 332.559778 
L 800.465393 329.977537 
L 801.519466 332.802948 
L 802.573539 338.083226 
L 803.627612 339.820159 
L 804.681685 344.139334 
L 805.735759 312.330293 
L 806.789832 324.546725 
L 807.843905 325.125703 
L 808.897978 325.832056 
L 809.952051 337.71268 
L 811.006125 336.184179 
L 812.060198 325.519408 
L 813.114271 335.605201 
L 814.168344 300.229658 
L 815.222417 318.814845 
L 816.276491 319.139072 
L 817.330564 331.309186 
L 818.384637 333.27771 
L 820.492783 306.366822 
L 821.546857 309.435404 
L 822.60093 305.266764 
L 823.655003 304.676207 
L 824.709076 318.884322 
L 825.763149 335.489405 
L 826.817223 322.230814 
L 827.871296 264.842535 
L 828.925369 292.309241 
L 829.979442 291.197604 
L 831.033515 290.52599 
L 832.087589 312.94401 
L 833.141662 311.264974 
L 834.195735 353.206126 
L 835.249808 227.371092 
L 836.303881 286.727895 
L 837.357955 300.866533 
L 838.412028 298.909588 
L 839.466101 310.303871 
L 840.520174 318.212708 
L 841.574247 306.41314 
L 842.628321 297.635837 
L 843.682394 303.529831 
L 844.736467 303.275081 
L 845.79054 326.943693 
L 846.844613 330.174389 
L 847.898687 327.568989 
L 848.95276 309.782791 
L 850.006833 298.759054 
L 851.060906 302.175023 
L 852.114979 306.67947 
L 854.223126 328.240603 
L 855.277199 319.590675 
L 856.331272 292.61031 
L 857.385345 261.484463 
L 858.439419 256.111549 
L 859.493492 261.970805 
L 860.547565 281.876061 
L 861.601638 291.973434 
L 862.655711 304.757264 
L 863.709785 277.47583 
L 864.763858 241.787639 
L 865.817931 216.277877 
L 866.872004 218.918016 
L 867.926077 210.082815 
L 868.980151 255.04623 
L 870.034224 265.155183 
L 871.088297 225.472044 
L 872.14237 175.26309 
L 873.196443 168.083765 
L 874.250517 157.77796 
L 875.30459 64.203569 
L 876.358663 198.769588 
L 877.412736 206.771062 
L 879.520883 70.329154 
L 880.574956 67.457424 
L 881.629029 71.961871 
L 882.683102 104.025662 
L 883.737175 179.860174 
L 884.791249 190.629161 
L 885.845322 168.072186 
L 886.899395 84.131985 
L 887.953468 83.414052 
L 889.007541 100.725488 
L 890.061615 111.702907 
L 891.115688 201.016022 
L 892.169761 235.418883 
L 893.223834 148.803805 
L 894.277907 50.8755 
L 895.331981 62.721386 
L 896.386054 70.109142 
L 897.440127 86.054191 
L 898.4942 185.846804 
L 899.548273 221.500257 
L 900.602347 190.420729 
L 901.65642 134.642008 
L 902.710493 145.607847 
L 903.764566 152.393467 
L 904.818639 176.641057 
L 905.872713 242.517151 
L 906.926786 264.668841 
L 907.980859 180.913913 
L 909.034932 147.680588 
L 910.089005 151.895546 
L 911.143079 172.622951 
L 912.197152 176.166295 
L 913.251225 254.085127 
L 914.305298 284.886746 
L 916.413445 180.450731 
L 917.467518 97.413735 
L 918.521591 229.131184 
L 919.575664 241.289718 
L 920.629737 290.016489 
L 921.683811 314.576727 
L 922.737884 268.09639 
L 923.791957 234.897803 
L 924.84603 261.912907 
L 925.900103 267.864799 
L 926.954177 288.198499 
L 928.00825 316.221024 
L 929.062323 331.066015 
L 930.116396 290.711263 
L 931.170469 282.269766 
L 932.224543 298.099019 
L 933.278616 304.86148 
L 934.332689 308.057437 
L 935.386762 330.058594 
L 936.440835 338.974852 
L 937.494909 309.666996 
L 938.548982 309.122756 
L 939.603055 318.455879 
L 940.657128 318.16639 
L 941.711201 324.315134 
L 942.765274 337.515828 
L 943.819348 344.787789 
L 944.873421 329.166968 
L 945.927494 324.199338 
L 946.981567 330.185969 
L 948.03564 332.907164 
L 949.089714 336.276815 
L 950.143787 343.537197 
L 951.19786 347.983746 
L 952.251933 337.654782 
L 953.306006 335.848372 
L 954.36008 336.774736 
L 955.414153 341.765525 
L 956.468226 341.209706 
L 957.522299 346.073119 
L 958.576372 349.512248 
L 959.630446 344.127754 
L 960.684519 342.564514 
L 961.738592 343.942481 
L 962.792665 348.771156 
L 963.846738 349.940691 
L 964.900812 348.446928 
L 965.954885 350.635465 
L 967.008958 349.685941 
L 968.063031 344.903584 
L 969.117104 342.309764 
L 970.171178 342.877162 
L 971.225251 345.829949 
L 972.279324 349.859634 
L 973.333397 351.816579 
L 974.38747 346.825791 
L 975.441544 347.508984 
L 976.495617 348.493247 
L 977.54969 348.747997 
L 978.603763 349.211179 
L 979.657836 350.843897 
L 980.71191 351.874477 
L 981.765983 349.002747 
L 982.820056 349.651202 
L 983.874129 349.153281 
L 984.928202 349.303816 
L 985.982276 349.674361 
L 987.036349 351.28392 
L 988.090422 352.58083 
L 989.144495 349.44277 
L 990.198568 348.991168 
L 991.252642 348.979588 
L 992.306715 349.859634 
L 993.360788 349.998589 
L 994.414861 352.198705 
L 995.468934 352.58083 
L 996.523008 349.118543 
L 997.577081 352.638728 
L 998.631154 349.060645 
L 999.685227 349.581725 
L 1000.7393 349.940691 
L 1001.793374 351.967113 
L 1002.847447 352.534512 
L 1003.90152 348.504826 
L 1004.955593 349.801736 
L 1006.009666 349.222759 
L 1007.06374 351.955534 
L 1008.117813 350.380714 
L 1010.225959 352.546091 
L 1011.280032 348.875372 
L 1012.334106 348.817474 
L 1013.388179 349.211179 
L 1014.442252 349.882793 
L 1015.496325 348.805895 
L 1016.550398 352.082909 
L 1017.604472 352.638728 
L 1018.658545 352.082909 
L 1019.712618 348.701679 
L 1020.766691 350.577567 
L 1021.820764 346.188915 
L 1022.874838 347.647939 
L 1023.928911 351.341817 
L 1024.982984 352.094489 
L 1026.037057 347.555303 
L 1027.09113 348.296394 
L 1028.145204 347.682678 
L 1029.199277 346.617359 
L 1030.25335 346.31629 
L 1031.307423 350.334396 
L 1032.361496 352.106068 
L 1033.41557 344.336186 
L 1034.469643 345.714153 
L 1035.523716 342.703469 
L 1037.631862 344.567777 
L 1038.685936 348.504826 
L 1039.740009 351.469193 
L 1040.794082 343.467719 
L 1042.902228 344.637255 
L 1043.956302 345.030959 
L 1045.010375 346.084699 
L 1046.064448 350.531249 
L 1047.118521 351.909216 
L 1048.172594 347.983746 
L 1049.226668 347.09212 
L 1050.280741 348.203758 
L 1051.334814 347.740576 
L 1052.388887 348.805895 
L 1053.44296 351.550249 
L 1054.497034 352.094489 
L 1055.551107 348.875372 
L 1056.60518 348.446928 
L 1057.659253 349.280656 
L 1058.713326 349.477509 
L 1059.7674 349.211179 
L 1060.821473 351.503931 
L 1061.875546 352.198705 
L 1062.929619 349.546986 
L 1063.983692 349.049065 
L 1065.037766 349.917532 
L 1066.091839 350.068066 
L 1067.145912 349.952271 
L 1068.199985 352.05975 
L 1069.254058 352.534512 
L 1070.308132 350.288078 
L 1071.362205 350.24176 
L 1072.416278 350.531249 
L 1073.470351 350.288078 
L 1074.524424 350.959692 
L 1076.632571 352.465034 
L 1077.686644 350.403873 
L 1079.79479 350.600726 
L 1080.848864 351.133385 
L 1081.902937 351.133385 
L 1082.95701 352.383977 
L 1084.011083 352.766103 
L 1085.065156 350.577567 
L 1086.11923 350.913374 
L 1088.227376 350.832317 
L 1089.281449 350.936533 
L 1090.335522 352.407137 
L 1091.389596 352.800841 
L 1092.443669 350.901794 
L 1094.551815 351.550249 
L 1096.659962 351.52709 
L 1097.714035 352.557671 
L 1098.768108 352.800841 
L 1099.822181 351.561829 
L 1101.930328 351.434454 
L 1102.984401 352.04817 
L 1104.038474 351.642886 
L 1105.092547 352.708205 
L 1106.14662 352.986114 
L 1107.200694 351.52709 
L 1108.254767 351.550249 
L 1109.30884 351.862897 
L 1111.416986 351.816579 
L 1112.47106 352.754523 
L 1113.525133 352.905057 
L 1114.579206 351.781841 
L 1115.633279 351.990273 
L 1116.687352 352.04817 
L 1117.741426 352.430296 
L 1118.795499 352.001852 
L 1119.849572 352.742944 
L 1120.903645 352.916637 
L 1121.957718 351.770261 
L 1123.011792 352.198705 
L 1125.119938 352.140807 
L 1126.174011 352.360818 
L 1127.228084 352.893478 
L 1128.282158 352.916637 
L 1129.336231 352.279761 
L 1132.49845 352.441875 
L 1133.552524 352.349239 
L 1134.606597 352.870319 
L 1135.66067 352.83558 
L 1136.714743 351.990273 
L 1137.768816 351.886057 
L 1138.82289 352.349239 
L 1140.931036 352.163966 
L 1141.985109 352.870319 
L 1143.039182 352.986114 
L 1144.093256 352.001852 
L 1145.147329 352.198705 
L 1146.201402 352.152386 
L 1147.255475 352.291341 
L 1148.309548 352.152386 
L 1149.363622 352.777682 
L 1150.417695 352.905057 
L 1151.471768 351.79342 
L 1152.525841 352.3145 
L 1153.579914 352.256602 
L 1154.633988 352.372398 
L 1155.688061 352.360818 
L 1156.742134 352.731364 
L 1157.796207 352.905057 
L 1158.85028 351.967113 
L 1160.958427 352.245023 
L 1163.066573 352.187125 
L 1164.120646 352.84716 
L 1165.17472 352.742944 
L 1166.228793 351.747102 
L 1167.282866 351.909216 
L 1168.336939 351.52709 
L 1170.445086 351.689204 
L 1171.499159 352.465034 
L 1172.553232 352.777682 
L 1173.607305 350.959692 
L 1174.661378 351.399715 
L 1175.715452 351.631306 
L 1176.769525 351.353397 
L 1177.823598 351.758681 
L 1178.877671 352.499773 
L 1179.931744 352.661887 
L 1180.985818 350.971272 
L 1182.039891 351.260761 
L 1183.093964 351.214442 
L 1184.148037 351.480772 
L 1185.20211 351.434454 
L 1186.256184 352.546091 
L 1187.310257 352.685046 
L 1188.36433 351.388136 
L 1190.472476 351.967113 
L 1191.52655 350.913374 
L 1192.580623 351.260761 
L 1193.634696 352.349239 
L 1194.688769 352.592409 
L 1195.742842 351.27234 
L 1196.796916 351.434454 
L 1199.959135 350.820737 
L 1201.013208 352.302921 
L 1202.067282 352.58083 
L 1203.121355 351.00601 
L 1204.175428 350.739681 
L 1205.229501 351.063908 
L 1206.283574 351.214442 
L 1207.337648 351.052329 
L 1208.391721 352.337659 
L 1209.445794 352.441875 
L 1210.499867 350.681783 
L 1211.55394 350.832317 
L 1213.662087 350.542828 
L 1214.71616 350.670203 
L 1215.770233 352.013432 
L 1216.824306 352.221864 
L 1217.87838 349.801736 
L 1218.932453 350.774419 
L 1219.986526 350.24176 
L 1221.040599 350.473351 
L 1222.094672 350.24176 
L 1223.148746 351.943954 
L 1224.202819 352.025011 
L 1225.256892 349.616464 
L 1226.310965 350.114384 
L 1227.365038 349.396452 
L 1228.419112 349.766998 
L 1229.473185 350.820737 
L 1231.581331 352.407137 
L 1232.635404 351.897636 
L 1233.689478 349.905952 
L 1234.743551 350.867056 
L 1236.851697 350.658624 
L 1237.90577 351.758681 
L 1238.959844 352.383977 
L 1240.013917 350.334396 
L 1241.06799 350.982851 
L 1242.122063 350.913374 
L 1243.176136 351.121806 
L 1244.23021 351.179704 
L 1245.284283 352.453455 
L 1246.338356 352.638728 
L 1247.392429 351.492352 
L 1249.500576 351.747102 
L 1250.554649 352.198705 
L 1251.608722 351.79342 
L 1252.662795 352.731364 
L 1253.716868 352.858739 
L 1254.770942 352.082909 
L 1256.879088 352.3145 
L 1258.987234 352.418716 
L 1260.041308 353.055592 
L 1261.095381 352.905057 
L 1262.149454 352.476614 
L 1263.203527 352.418716 
L 1264.2576 352.592409 
L 1266.365747 352.546091 
L 1268.473893 352.951376 
L 1270.58204 352.372398 
L 1271.636113 352.673466 
L 1272.690186 352.603989 
L 1273.744259 352.650307 
L 1274.798332 352.939796 
L 1275.852406 353.009273 
L 1276.906479 352.592409 
L 1279.014625 352.511353 
L 1280.068698 352.754523 
L 1281.122772 353.206126 
L 1282.176845 352.742944 
L 1283.230918 352.731364 
L 1284.284991 352.430296 
L 1285.339064 352.754523 
L 1286.393138 352.56925 
L 1290.60943 352.916637 
L 1292.717577 352.661887 
L 1295.879796 352.650307 
L 1296.93387 352.939796 
L 1297.987943 352.986114 
L 1299.042016 352.372398 
L 1300.096089 352.592409 
L 1303.258309 352.522932 
L 1304.312382 352.893478 
L 1305.366455 352.928217 
L 1306.420528 352.337659 
L 1307.474602 352.534512 
L 1308.528675 352.499773 
L 1309.582748 352.592409 
L 1309.582748 352.592409 
" clip-path="url(#p7f41c2dfda)" style="fill: none; stroke: #0000ff; stroke-width: 1.5; stroke-linecap: square"/>
   </g>
   <g id="line2d_19">
    <path d="M 1069.254058 352.717291 
L 1070.308132 350.111519 
L 1071.362205 349.933364 
L 1072.416278 350.709236 
L 1073.470351 350.650315 
L 1074.524424 350.446965 
L 1075.578498 352.607749 
L 1076.632571 352.628568 
L 1077.686644 350.556268 
L 1078.740717 350.308682 
L 1079.79479 350.936982 
L 1080.848864 350.609571 
L 1081.902937 351.222686 
L 1082.95701 352.237638 
L 1084.011083 352.852127 
L 1085.065156 350.950284 
L 1086.11923 350.778462 
L 1087.173303 351.087295 
L 1088.227376 351.190249 
L 1089.281449 351.161208 
L 1090.335522 352.082244 
L 1091.389596 352.712756 
L 1092.443669 351.008867 
L 1094.551815 351.18571 
L 1095.605888 351.457097 
L 1096.659962 351.552092 
L 1097.714035 352.599827 
L 1098.768108 352.907489 
L 1099.822181 351.295292 
L 1100.876254 351.689974 
L 1101.930328 351.744407 
L 1102.984401 351.577562 
L 1104.038474 351.911958 
L 1105.092547 352.675081 
L 1106.14662 352.968126 
L 1107.200694 351.710301 
L 1109.30884 351.655247 
L 1110.362913 352.077275 
L 1111.416986 351.782986 
L 1112.47106 352.680699 
L 1113.525133 352.93199 
L 1114.579206 351.764307 
L 1115.633279 351.801653 
L 1116.687352 352.051128 
L 1118.795499 352.21833 
L 1119.849572 352.839695 
L 1120.903645 352.972874 
L 1121.957718 351.951566 
L 1123.011792 352.011237 
L 1125.119938 352.383933 
L 1126.174011 352.024662 
L 1127.228084 352.876363 
L 1128.282158 353.024327 
L 1129.336231 352.028634 
L 1130.390304 352.380666 
L 1133.552524 352.427028 
L 1134.606597 352.924014 
L 1135.66067 352.979189 
L 1136.714743 352.223195 
L 1137.768816 352.248232 
L 1138.82289 352.067204 
L 1139.876963 352.373874 
L 1140.931036 352.273982 
L 1141.985109 352.662613 
L 1143.039182 352.759527 
L 1144.093256 352.222298 
L 1145.147329 352.078865 
L 1146.201402 352.3446 
L 1148.309548 352.2512 
L 1149.363622 352.689811 
L 1150.417695 352.823658 
L 1151.471768 352.124692 
L 1152.525841 352.019277 
L 1153.579914 352.272593 
L 1155.688061 352.273889 
L 1156.742134 352.769122 
L 1157.796207 352.8316 
L 1158.85028 352.069533 
L 1159.904354 352.277076 
L 1160.958427 352.190884 
L 1162.0125 352.32067 
L 1163.066573 352.217377 
L 1164.120646 352.592916 
L 1165.17472 352.836953 
L 1166.228793 352.006157 
L 1168.336939 352.04238 
L 1169.391012 351.812938 
L 1170.445086 351.754202 
L 1171.499159 352.2116 
L 1172.553232 352.393017 
L 1173.607305 351.7865 
L 1174.661378 351.38126 
L 1175.715452 351.296263 
L 1176.769525 351.556244 
L 1177.823598 351.537104 
L 1178.877671 352.157975 
L 1179.931744 352.434395 
L 1180.985818 351.4029 
L 1184.148037 351.227509 
L 1187.310257 352.459165 
L 1188.36433 351.263542 
L 1189.418403 351.545267 
L 1190.472476 351.566796 
L 1191.52655 351.863266 
L 1192.580623 351.36056 
L 1193.634696 352.128332 
L 1194.688769 352.421684 
L 1195.742842 351.488225 
L 1197.850989 351.556188 
L 1198.905062 350.950867 
L 1199.959135 351.235399 
L 1202.067282 352.308774 
L 1203.121355 351.338916 
L 1204.175428 351.287655 
L 1205.229501 350.899534 
L 1206.283574 350.791437 
L 1207.337648 351.094003 
L 1208.391721 352.039099 
L 1209.445794 352.323284 
L 1210.499867 351.167303 
L 1211.55394 350.848804 
L 1212.608014 351.010578 
L 1214.71616 350.678067 
L 1215.770233 351.6841 
L 1216.824306 352.017978 
L 1217.87838 350.808234 
L 1218.932453 350.218878 
L 1219.986526 350.595397 
L 1221.040599 350.31671 
L 1222.094672 350.537856 
L 1223.148746 351.293357 
L 1224.202819 351.869334 
L 1225.256892 350.243873 
L 1226.310965 350.317463 
L 1227.365038 349.967568 
L 1228.419112 349.800883 
L 1229.473185 349.837085 
L 1230.527258 351.593466 
L 1231.581331 351.598903 
L 1232.635404 350.177034 
L 1233.689478 351.379929 
L 1234.743551 349.965668 
L 1235.797624 350.720071 
L 1236.851697 351.0892 
L 1237.90577 351.905443 
L 1238.959844 352.134975 
L 1240.013917 351.372872 
L 1241.06799 350.080609 
L 1242.122063 350.906707 
L 1243.176136 350.854775 
L 1244.23021 351.192564 
L 1246.338356 352.683808 
L 1247.392429 351.268655 
L 1249.500576 351.538294 
L 1251.608722 352.053636 
L 1252.662795 352.776406 
L 1253.716868 353.034876 
L 1254.770942 351.868861 
L 1257.933161 352.50897 
L 1258.987234 352.248027 
L 1260.041308 353.165363 
L 1261.095381 353.2755 
L 1262.149454 352.290597 
L 1263.203527 352.514342 
L 1264.2576 352.550595 
L 1265.311674 352.726408 
L 1266.365747 352.562627 
L 1267.41982 353.20497 
L 1268.473893 352.964279 
L 1269.527966 352.491178 
L 1270.58204 352.620022 
L 1273.744259 352.577634 
L 1274.798332 353.014259 
L 1275.852406 353.036304 
L 1276.906479 352.684064 
L 1277.960552 352.505426 
L 1279.014625 352.754018 
L 1280.068698 352.604454 
L 1281.122772 352.717554 
L 1282.176845 353.258227 
L 1283.230918 352.992306 
L 1284.284991 352.515248 
L 1285.339064 352.444761 
L 1286.393138 352.758635 
L 1287.447211 352.720853 
L 1288.501284 352.873281 
L 1289.555357 352.635888 
L 1290.60943 352.871746 
L 1291.663504 352.604704 
L 1292.717577 352.811751 
L 1293.77165 352.603915 
L 1295.879796 352.755703 
L 1297.987943 352.905103 
L 1301.150162 352.550006 
L 1305.366455 352.849223 
L 1306.420528 352.532258 
L 1309.582748 352.485515 
L 1309.582748 352.485515 
" clip-path="url(#p7f41c2dfda)" style="fill: none; stroke: #ffa500; stroke-width: 1.5; stroke-linecap: square"/>
   </g>
   <g id="line2d_20">
    <path d="M 1310.636821 352.601375 
L 1311.690894 352.812158 
L 1312.744968 352.830141 
L 1313.799041 352.407069 
L 1314.853114 352.544833 
L 1315.907187 352.524089 
L 1316.96126 352.556136 
L 1318.015334 352.57446 
L 1319.069407 352.766617 
L 1320.12348 352.784901 
L 1321.177553 352.421028 
L 1322.231626 352.538187 
L 1323.2857 352.51828 
L 1324.339773 352.545705 
" clip-path="url(#p7f41c2dfda)" style="fill: none; stroke: #ff0000; stroke-width: 1.5; stroke-linecap: square"/>
   </g>
   <g id="patch_3">
    <path d="M 46.0125 368.3955 
L 46.0125 35.7555 
" style="fill: none; stroke: #000000; stroke-width: 0.8; stroke-linejoin: miter; stroke-linecap: square"/>
   </g>
   <g id="patch_4">
    <path d="M 1385.2125 368.3955 
L 1385.2125 35.7555 
" style="fill: none; stroke: #000000; stroke-width: 0.8; stroke-linejoin: miter; stroke-linecap: square"/>
   </g>
   <g id="patch_5">
    <path d="M 46.0125 368.3955 
L 1385.2125 368.3955 
" style="fill: none; stroke: #000000; stroke-width: 0.8; stroke-linejoin: miter; stroke-linecap: square"/>
   </g>
   <g id="patch_6">
    <path d="M 46.0125 35.7555 
L 1385.2125 35.7555 
" style="fill: none; stroke: #000000; stroke-width: 0.8; stroke-linejoin: miter; stroke-linecap: square"/>
   </g>
   <g id="text_18">
    <!-- Daily Confirmed Cases Forecasting - Norway -->
    <g transform="translate(582.350625 16.318125)scale(0.12 -0.12)">
     <defs>
      <path id="DejaVuSans-44" d="M 1259 4147 
L 1259 519 
L 2022 519 
Q 2988 519 3436 956 
Q 3884 1394 3884 2338 
Q 3884 3275 3436 3711 
Q 2988 4147 2022 4147 
L 1259 4147 
z
M 628 4666 
L 1925 4666 
Q 3281 4666 3915 4102 
Q 4550 3538 4550 2338 
Q 4550 1131 3912 565 
Q 3275 0 1925 0 
L 628 0 
L 628 4666 
z
" transform="scale(0.015625)"/>
      <path id="DejaVuSans-61" d="M 2194 1759 
Q 1497 1759 1228 1600 
Q 959 1441 959 1056 
Q 959 750 1161 570 
Q 1363 391 1709 391 
Q 2188 391 2477 730 
Q 2766 1069 2766 1631 
L 2766 1759 
L 2194 1759 
z
M 3341 1997 
L 3341 0 
L 2766 0 
L 2766 531 
Q 2569 213 2275 61 
Q 1981 -91 1556 -91 
Q 1019 -91 701 211 
Q 384 513 384 1019 
Q 384 1609 779 1909 
Q 1175 2209 1959 2209 
L 2766 2209 
L 2766 2266 
Q 2766 2663 2505 2880 
Q 2244 3097 1772 3097 
Q 1472 3097 1187 3025 
Q 903 2953 641 2809 
L 641 3341 
Q 956 3463 1253 3523 
Q 1550 3584 1831 3584 
Q 2591 3584 2966 3190 
Q 3341 2797 3341 1997 
z
" transform="scale(0.015625)"/>
      <path id="DejaVuSans-69" d="M 603 3500 
L 1178 3500 
L 1178 0 
L 603 0 
L 603 3500 
z
M 603 4863 
L 1178 4863 
L 1178 4134 
L 603 4134 
L 603 4863 
z
" transform="scale(0.015625)"/>
      <path id="DejaVuSans-6c" d="M 603 4863 
L 1178 4863 
L 1178 0 
L 603 0 
L 603 4863 
z
" transform="scale(0.015625)"/>
      <path id="DejaVuSans-79" d="M 2059 -325 
Q 1816 -950 1584 -1140 
Q 1353 -1331 966 -1331 
L 506 -1331 
L 506 -850 
L 844 -850 
Q 1081 -850 1212 -737 
Q 1344 -625 1503 -206 
L 1606 56 
L 191 3500 
L 800 3500 
L 1894 763 
L 2988 3500 
L 3597 3500 
L 2059 -325 
z
" transform="scale(0.015625)"/>
      <path id="DejaVuSans-20" transform="scale(0.015625)"/>
      <path id="DejaVuSans-43" d="M 4122 4306 
L 4122 3641 
Q 3803 3938 3442 4084 
Q 3081 4231 2675 4231 
Q 1875 4231 1450 3742 
Q 1025 3253 1025 2328 
Q 1025 1406 1450 917 
Q 1875 428 2675 428 
Q 3081 428 3442 575 
Q 3803 722 4122 1019 
L 4122 359 
Q 3791 134 3420 21 
Q 3050 -91 2638 -91 
Q 1578 -91 968 557 
Q 359 1206 359 2328 
Q 359 3453 968 4101 
Q 1578 4750 2638 4750 
Q 3056 4750 3426 4639 
Q 3797 4528 4122 4306 
z
" transform="scale(0.015625)"/>
      <path id="DejaVuSans-6f" d="M 1959 3097 
Q 1497 3097 1228 2736 
Q 959 2375 959 1747 
Q 959 1119 1226 758 
Q 1494 397 1959 397 
Q 2419 397 2687 759 
Q 2956 1122 2956 1747 
Q 2956 2369 2687 2733 
Q 2419 3097 1959 3097 
z
M 1959 3584 
Q 2709 3584 3137 3096 
Q 3566 2609 3566 1747 
Q 3566 888 3137 398 
Q 2709 -91 1959 -91 
Q 1206 -91 779 398 
Q 353 888 353 1747 
Q 353 2609 779 3096 
Q 1206 3584 1959 3584 
z
" transform="scale(0.015625)"/>
      <path id="DejaVuSans-6e" d="M 3513 2113 
L 3513 0 
L 2938 0 
L 2938 2094 
Q 2938 2591 2744 2837 
Q 2550 3084 2163 3084 
Q 1697 3084 1428 2787 
Q 1159 2491 1159 1978 
L 1159 0 
L 581 0 
L 581 3500 
L 1159 3500 
L 1159 2956 
Q 1366 3272 1645 3428 
Q 1925 3584 2291 3584 
Q 2894 3584 3203 3211 
Q 3513 2838 3513 2113 
z
" transform="scale(0.015625)"/>
      <path id="DejaVuSans-66" d="M 2375 4863 
L 2375 4384 
L 1825 4384 
Q 1516 4384 1395 4259 
Q 1275 4134 1275 3809 
L 1275 3500 
L 2222 3500 
L 2222 3053 
L 1275 3053 
L 1275 0 
L 697 0 
L 697 3053 
L 147 3053 
L 147 3500 
L 697 3500 
L 697 3744 
Q 697 4328 969 4595 
Q 1241 4863 1831 4863 
L 2375 4863 
z
" transform="scale(0.015625)"/>
      <path id="DejaVuSans-72" d="M 2631 2963 
Q 2534 3019 2420 3045 
Q 2306 3072 2169 3072 
Q 1681 3072 1420 2755 
Q 1159 2438 1159 1844 
L 1159 0 
L 581 0 
L 581 3500 
L 1159 3500 
L 1159 2956 
Q 1341 3275 1631 3429 
Q 1922 3584 2338 3584 
Q 2397 3584 2469 3576 
Q 2541 3569 2628 3553 
L 2631 2963 
z
" transform="scale(0.015625)"/>
      <path id="DejaVuSans-6d" d="M 3328 2828 
Q 3544 3216 3844 3400 
Q 4144 3584 4550 3584 
Q 5097 3584 5394 3201 
Q 5691 2819 5691 2113 
L 5691 0 
L 5113 0 
L 5113 2094 
Q 5113 2597 4934 2840 
Q 4756 3084 4391 3084 
Q 3944 3084 3684 2787 
Q 3425 2491 3425 1978 
L 3425 0 
L 2847 0 
L 2847 2094 
Q 2847 2600 2669 2842 
Q 2491 3084 2119 3084 
Q 1678 3084 1418 2786 
Q 1159 2488 1159 1978 
L 1159 0 
L 581 0 
L 581 3500 
L 1159 3500 
L 1159 2956 
Q 1356 3278 1631 3431 
Q 1906 3584 2284 3584 
Q 2666 3584 2933 3390 
Q 3200 3197 3328 2828 
z
" transform="scale(0.015625)"/>
      <path id="DejaVuSans-65" d="M 3597 1894 
L 3597 1613 
L 953 1613 
Q 991 1019 1311 708 
Q 1631 397 2203 397 
Q 2534 397 2845 478 
Q 3156 559 3463 722 
L 3463 178 
Q 3153 47 2828 -22 
Q 2503 -91 2169 -91 
Q 1331 -91 842 396 
Q 353 884 353 1716 
Q 353 2575 817 3079 
Q 1281 3584 2069 3584 
Q 2775 3584 3186 3129 
Q 3597 2675 3597 1894 
z
M 3022 2063 
Q 3016 2534 2758 2815 
Q 2500 3097 2075 3097 
Q 1594 3097 1305 2825 
Q 1016 2553 972 2059 
L 3022 2063 
z
" transform="scale(0.015625)"/>
      <path id="DejaVuSans-64" d="M 2906 2969 
L 2906 4863 
L 3481 4863 
L 3481 0 
L 2906 0 
L 2906 525 
Q 2725 213 2448 61 
Q 2172 -91 1784 -91 
Q 1150 -91 751 415 
Q 353 922 353 1747 
Q 353 2572 751 3078 
Q 1150 3584 1784 3584 
Q 2172 3584 2448 3432 
Q 2725 3281 2906 2969 
z
M 947 1747 
Q 947 1113 1208 752 
Q 1469 391 1925 391 
Q 2381 391 2643 752 
Q 2906 1113 2906 1747 
Q 2906 2381 2643 2742 
Q 2381 3103 1925 3103 
Q 1469 3103 1208 2742 
Q 947 2381 947 1747 
z
" transform="scale(0.015625)"/>
      <path id="DejaVuSans-73" d="M 2834 3397 
L 2834 2853 
Q 2591 2978 2328 3040 
Q 2066 3103 1784 3103 
Q 1356 3103 1142 2972 
Q 928 2841 928 2578 
Q 928 2378 1081 2264 
Q 1234 2150 1697 2047 
L 1894 2003 
Q 2506 1872 2764 1633 
Q 3022 1394 3022 966 
Q 3022 478 2636 193 
Q 2250 -91 1575 -91 
Q 1294 -91 989 -36 
Q 684 19 347 128 
L 347 722 
Q 666 556 975 473 
Q 1284 391 1588 391 
Q 1994 391 2212 530 
Q 2431 669 2431 922 
Q 2431 1156 2273 1281 
Q 2116 1406 1581 1522 
L 1381 1569 
Q 847 1681 609 1914 
Q 372 2147 372 2553 
Q 372 3047 722 3315 
Q 1072 3584 1716 3584 
Q 2034 3584 2315 3537 
Q 2597 3491 2834 3397 
z
" transform="scale(0.015625)"/>
      <path id="DejaVuSans-46" d="M 628 4666 
L 3309 4666 
L 3309 4134 
L 1259 4134 
L 1259 2759 
L 3109 2759 
L 3109 2228 
L 1259 2228 
L 1259 0 
L 628 0 
L 628 4666 
z
" transform="scale(0.015625)"/>
      <path id="DejaVuSans-63" d="M 3122 3366 
L 3122 2828 
Q 2878 2963 2633 3030 
Q 2388 3097 2138 3097 
Q 1578 3097 1268 2742 
Q 959 2388 959 1747 
Q 959 1106 1268 751 
Q 1578 397 2138 397 
Q 2388 397 2633 464 
Q 2878 531 3122 666 
L 3122 134 
Q 2881 22 2623 -34 
Q 2366 -91 2075 -91 
Q 1284 -91 818 406 
Q 353 903 353 1747 
Q 353 2603 823 3093 
Q 1294 3584 2113 3584 
Q 2378 3584 2631 3529 
Q 2884 3475 3122 3366 
z
" transform="scale(0.015625)"/>
      <path id="DejaVuSans-74" d="M 1172 4494 
L 1172 3500 
L 2356 3500 
L 2356 3053 
L 1172 3053 
L 1172 1153 
Q 1172 725 1289 603 
Q 1406 481 1766 481 
L 2356 481 
L 2356 0 
L 1766 0 
Q 1100 0 847 248 
Q 594 497 594 1153 
L 594 3053 
L 172 3053 
L 172 3500 
L 594 3500 
L 594 4494 
L 1172 4494 
z
" transform="scale(0.015625)"/>
      <path id="DejaVuSans-67" d="M 2906 1791 
Q 2906 2416 2648 2759 
Q 2391 3103 1925 3103 
Q 1463 3103 1205 2759 
Q 947 2416 947 1791 
Q 947 1169 1205 825 
Q 1463 481 1925 481 
Q 2391 481 2648 825 
Q 2906 1169 2906 1791 
z
M 3481 434 
Q 3481 -459 3084 -895 
Q 2688 -1331 1869 -1331 
Q 1566 -1331 1297 -1286 
Q 1028 -1241 775 -1147 
L 775 -588 
Q 1028 -725 1275 -790 
Q 1522 -856 1778 -856 
Q 2344 -856 2625 -561 
Q 2906 -266 2906 331 
L 2906 616 
Q 2728 306 2450 153 
Q 2172 0 1784 0 
Q 1141 0 747 490 
Q 353 981 353 1791 
Q 353 2603 747 3093 
Q 1141 3584 1784 3584 
Q 2172 3584 2450 3431 
Q 2728 3278 2906 2969 
L 2906 3500 
L 3481 3500 
L 3481 434 
z
" transform="scale(0.015625)"/>
      <path id="DejaVuSans-4e" d="M 628 4666 
L 1478 4666 
L 3547 763 
L 3547 4666 
L 4159 4666 
L 4159 0 
L 3309 0 
L 1241 3903 
L 1241 0 
L 628 0 
L 628 4666 
z
" transform="scale(0.015625)"/>
      <path id="DejaVuSans-77" d="M 269 3500 
L 844 3500 
L 1563 769 
L 2278 3500 
L 2956 3500 
L 3675 769 
L 4391 3500 
L 4966 3500 
L 4050 0 
L 3372 0 
L 2619 2869 
L 1863 0 
L 1184 0 
L 269 3500 
z
" transform="scale(0.015625)"/>
     </defs>
     <use xlink:href="#DejaVuSans-44"/>
     <use xlink:href="#DejaVuSans-61" x="77.001953"/>
     <use xlink:href="#DejaVuSans-69" x="138.28125"/>
     <use xlink:href="#DejaVuSans-6c" x="166.064453"/>
     <use xlink:href="#DejaVuSans-79" x="193.847656"/>
     <use xlink:href="#DejaVuSans-20" x="253.027344"/>
     <use xlink:href="#DejaVuSans-43" x="284.814453"/>
     <use xlink:href="#DejaVuSans-6f" x="354.638672"/>
     <use xlink:href="#DejaVuSans-6e" x="415.820312"/>
     <use xlink:href="#DejaVuSans-66" x="479.199219"/>
     <use xlink:href="#DejaVuSans-69" x="514.404297"/>
     <use xlink:href="#DejaVuSans-72" x="542.1875"/>
     <use xlink:href="#DejaVuSans-6d" x="581.550781"/>
     <use xlink:href="#DejaVuSans-65" x="678.962891"/>
     <use xlink:href="#DejaVuSans-64" x="740.486328"/>
     <use xlink:href="#DejaVuSans-20" x="803.962891"/>
     <use xlink:href="#DejaVuSans-43" x="835.75"/>
     <use xlink:href="#DejaVuSans-61" x="905.574219"/>
     <use xlink:href="#DejaVuSans-73" x="966.853516"/>
     <use xlink:href="#DejaVuSans-65" x="1018.953125"/>
     <use xlink:href="#DejaVuSans-73" x="1080.476562"/>
     <use xlink:href="#DejaVuSans-20" x="1132.576172"/>
     <use xlink:href="#DejaVuSans-46" x="1164.363281"/>
     <use xlink:href="#DejaVuSans-6f" x="1218.257812"/>
     <use xlink:href="#DejaVuSans-72" x="1279.439453"/>
     <use xlink:href="#DejaVuSans-65" x="1318.302734"/>
     <use xlink:href="#DejaVuSans-63" x="1379.826172"/>
     <use xlink:href="#DejaVuSans-61" x="1434.806641"/>
     <use xlink:href="#DejaVuSans-73" x="1496.085938"/>
     <use xlink:href="#DejaVuSans-74" x="1548.185547"/>
     <use xlink:href="#DejaVuSans-69" x="1587.394531"/>
     <use xlink:href="#DejaVuSans-6e" x="1615.177734"/>
     <use xlink:href="#DejaVuSans-67" x="1678.556641"/>
     <use xlink:href="#DejaVuSans-20" x="1742.033203"/>
     <use xlink:href="#DejaVuSans-2d" x="1773.820312"/>
     <use xlink:href="#DejaVuSans-20" x="1809.904297"/>
     <use xlink:href="#DejaVuSans-4e" x="1841.691406"/>
     <use xlink:href="#DejaVuSans-6f" x="1916.496094"/>
     <use xlink:href="#DejaVuSans-72" x="1977.677734"/>
     <use xlink:href="#DejaVuSans-77" x="2018.791016"/>
     <use xlink:href="#DejaVuSans-61" x="2100.578125"/>
     <use xlink:href="#DejaVuSans-79" x="2161.857422"/>
    </g>
    <!-- ARIMA (4, 1, 1)x(1, 0, 1, 7) (R2 = 0.839799) -->
    <g transform="translate(583.628438 29.7555)scale(0.12 -0.12)">
     <defs>
      <path id="DejaVuSans-41" d="M 2188 4044 
L 1331 1722 
L 3047 1722 
L 2188 4044 
z
M 1831 4666 
L 2547 4666 
L 4325 0 
L 3669 0 
L 3244 1197 
L 1141 1197 
L 716 0 
L 50 0 
L 1831 4666 
z
" transform="scale(0.015625)"/>
      <path id="DejaVuSans-52" d="M 2841 2188 
Q 3044 2119 3236 1894 
Q 3428 1669 3622 1275 
L 4263 0 
L 3584 0 
L 2988 1197 
Q 2756 1666 2539 1819 
Q 2322 1972 1947 1972 
L 1259 1972 
L 1259 0 
L 628 0 
L 628 4666 
L 2053 4666 
Q 2853 4666 3247 4331 
Q 3641 3997 3641 3322 
Q 3641 2881 3436 2590 
Q 3231 2300 2841 2188 
z
M 1259 4147 
L 1259 2491 
L 2053 2491 
Q 2509 2491 2742 2702 
Q 2975 2913 2975 3322 
Q 2975 3731 2742 3939 
Q 2509 4147 2053 4147 
L 1259 4147 
z
" transform="scale(0.015625)"/>
      <path id="DejaVuSans-49" d="M 628 4666 
L 1259 4666 
L 1259 0 
L 628 0 
L 628 4666 
z
" transform="scale(0.015625)"/>
      <path id="DejaVuSans-4d" d="M 628 4666 
L 1569 4666 
L 2759 1491 
L 3956 4666 
L 4897 4666 
L 4897 0 
L 4281 0 
L 4281 4097 
L 3078 897 
L 2444 897 
L 1241 4097 
L 1241 0 
L 628 0 
L 628 4666 
z
" transform="scale(0.015625)"/>
      <path id="DejaVuSans-28" d="M 1984 4856 
Q 1566 4138 1362 3434 
Q 1159 2731 1159 2009 
Q 1159 1288 1364 580 
Q 1569 -128 1984 -844 
L 1484 -844 
Q 1016 -109 783 600 
Q 550 1309 550 2009 
Q 550 2706 781 3412 
Q 1013 4119 1484 4856 
L 1984 4856 
z
" transform="scale(0.015625)"/>
      <path id="DejaVuSans-34" d="M 2419 4116 
L 825 1625 
L 2419 1625 
L 2419 4116 
z
M 2253 4666 
L 3047 4666 
L 3047 1625 
L 3713 1625 
L 3713 1100 
L 3047 1100 
L 3047 0 
L 2419 0 
L 2419 1100 
L 313 1100 
L 313 1709 
L 2253 4666 
z
" transform="scale(0.015625)"/>
      <path id="DejaVuSans-2c" d="M 750 794 
L 1409 794 
L 1409 256 
L 897 -744 
L 494 -744 
L 750 256 
L 750 794 
z
" transform="scale(0.015625)"/>
      <path id="DejaVuSans-29" d="M 513 4856 
L 1013 4856 
Q 1481 4119 1714 3412 
Q 1947 2706 1947 2009 
Q 1947 1309 1714 600 
Q 1481 -109 1013 -844 
L 513 -844 
Q 928 -128 1133 580 
Q 1338 1288 1338 2009 
Q 1338 2731 1133 3434 
Q 928 4138 513 4856 
z
" transform="scale(0.015625)"/>
      <path id="DejaVuSans-78" d="M 3513 3500 
L 2247 1797 
L 3578 0 
L 2900 0 
L 1881 1375 
L 863 0 
L 184 0 
L 1544 1831 
L 300 3500 
L 978 3500 
L 1906 2253 
L 2834 3500 
L 3513 3500 
z
" transform="scale(0.015625)"/>
      <path id="DejaVuSans-37" d="M 525 4666 
L 3525 4666 
L 3525 4397 
L 1831 0 
L 1172 0 
L 2766 4134 
L 525 4134 
L 525 4666 
z
" transform="scale(0.015625)"/>
      <path id="DejaVuSans-3d" d="M 678 2906 
L 4684 2906 
L 4684 2381 
L 678 2381 
L 678 2906 
z
M 678 1631 
L 4684 1631 
L 4684 1100 
L 678 1100 
L 678 1631 
z
" transform="scale(0.015625)"/>
      <path id="DejaVuSans-2e" d="M 684 794 
L 1344 794 
L 1344 0 
L 684 0 
L 684 794 
z
" transform="scale(0.015625)"/>
      <path id="DejaVuSans-38" d="M 2034 2216 
Q 1584 2216 1326 1975 
Q 1069 1734 1069 1313 
Q 1069 891 1326 650 
Q 1584 409 2034 409 
Q 2484 409 2743 651 
Q 3003 894 3003 1313 
Q 3003 1734 2745 1975 
Q 2488 2216 2034 2216 
z
M 1403 2484 
Q 997 2584 770 2862 
Q 544 3141 544 3541 
Q 544 4100 942 4425 
Q 1341 4750 2034 4750 
Q 2731 4750 3128 4425 
Q 3525 4100 3525 3541 
Q 3525 3141 3298 2862 
Q 3072 2584 2669 2484 
Q 3125 2378 3379 2068 
Q 3634 1759 3634 1313 
Q 3634 634 3220 271 
Q 2806 -91 2034 -91 
Q 1263 -91 848 271 
Q 434 634 434 1313 
Q 434 1759 690 2068 
Q 947 2378 1403 2484 
z
M 1172 3481 
Q 1172 3119 1398 2916 
Q 1625 2713 2034 2713 
Q 2441 2713 2670 2916 
Q 2900 3119 2900 3481 
Q 2900 3844 2670 4047 
Q 2441 4250 2034 4250 
Q 1625 4250 1398 4047 
Q 1172 3844 1172 3481 
z
" transform="scale(0.015625)"/>
     </defs>
     <use xlink:href="#DejaVuSans-41"/>
     <use xlink:href="#DejaVuSans-52" x="68.408203"/>
     <use xlink:href="#DejaVuSans-49" x="137.890625"/>
     <use xlink:href="#DejaVuSans-4d" x="167.382812"/>
     <use xlink:href="#DejaVuSans-41" x="253.662109"/>
     <use xlink:href="#DejaVuSans-20" x="322.070312"/>
     <use xlink:href="#DejaVuSans-28" x="353.857422"/>
     <use xlink:href="#DejaVuSans-34" x="392.871094"/>
     <use xlink:href="#DejaVuSans-2c" x="456.494141"/>
     <use xlink:href="#DejaVuSans-20" x="488.28125"/>
     <use xlink:href="#DejaVuSans-31" x="520.068359"/>
     <use xlink:href="#DejaVuSans-2c" x="583.691406"/>
     <use xlink:href="#DejaVuSans-20" x="615.478516"/>
     <use xlink:href="#DejaVuSans-31" x="647.265625"/>
     <use xlink:href="#DejaVuSans-29" x="710.888672"/>
     <use xlink:href="#DejaVuSans-78" x="749.902344"/>
     <use xlink:href="#DejaVuSans-28" x="809.082031"/>
     <use xlink:href="#DejaVuSans-31" x="848.095703"/>
     <use xlink:href="#DejaVuSans-2c" x="911.71875"/>
     <use xlink:href="#DejaVuSans-20" x="943.505859"/>
     <use xlink:href="#DejaVuSans-30" x="975.292969"/>
     <use xlink:href="#DejaVuSans-2c" x="1038.916016"/>
     <use xlink:href="#DejaVuSans-20" x="1070.703125"/>
     <use xlink:href="#DejaVuSans-31" x="1102.490234"/>
     <use xlink:href="#DejaVuSans-2c" x="1166.113281"/>
     <use xlink:href="#DejaVuSans-20" x="1197.900391"/>
     <use xlink:href="#DejaVuSans-37" x="1229.6875"/>
     <use xlink:href="#DejaVuSans-29" x="1293.310547"/>
     <use xlink:href="#DejaVuSans-20" x="1332.324219"/>
     <use xlink:href="#DejaVuSans-28" x="1364.111328"/>
     <use xlink:href="#DejaVuSans-52" x="1403.125"/>
     <use xlink:href="#DejaVuSans-32" x="1472.607422"/>
     <use xlink:href="#DejaVuSans-20" x="1536.230469"/>
     <use xlink:href="#DejaVuSans-3d" x="1568.017578"/>
     <use xlink:href="#DejaVuSans-20" x="1651.806641"/>
     <use xlink:href="#DejaVuSans-30" x="1683.59375"/>
     <use xlink:href="#DejaVuSans-2e" x="1747.216797"/>
     <use xlink:href="#DejaVuSans-38" x="1779.003906"/>
     <use xlink:href="#DejaVuSans-33" x="1842.626953"/>
     <use xlink:href="#DejaVuSans-39" x="1906.25"/>
     <use xlink:href="#DejaVuSans-37" x="1969.873047"/>
     <use xlink:href="#DejaVuSans-39" x="2033.496094"/>
     <use xlink:href="#DejaVuSans-39" x="2097.119141"/>
     <use xlink:href="#DejaVuSans-29" x="2160.742188"/>
    </g>
   </g>
   <g id="legend_1">
    <g id="patch_7">
     <path d="M 1281.132812 87.789875 
L 1378.2125 87.789875 
Q 1380.2125 87.789875 1380.2125 85.789875 
L 1380.2125 42.7555 
Q 1380.2125 40.7555 1378.2125 40.7555 
L 1281.132812 40.7555 
Q 1279.132812 40.7555 1279.132812 42.7555 
L 1279.132812 85.789875 
Q 1279.132812 87.789875 1281.132812 87.789875 
z
" style="fill: #ffffff; opacity: 0.8; stroke: #cccccc; stroke-linejoin: miter"/>
    </g>
    <g id="line2d_21">
     <path d="M 1283.132812 48.853937 
L 1293.132812 48.853937 
L 1303.132812 48.853937 
" style="fill: none; stroke: #0000ff; stroke-width: 1.5; stroke-linecap: square"/>
    </g>
    <g id="text_19">
     <!-- Actual Value -->
     <g transform="translate(1311.132812 52.353937)scale(0.1 -0.1)">
      <defs>
       <path id="DejaVuSans-75" d="M 544 1381 
L 544 3500 
L 1119 3500 
L 1119 1403 
Q 1119 906 1312 657 
Q 1506 409 1894 409 
Q 2359 409 2629 706 
Q 2900 1003 2900 1516 
L 2900 3500 
L 3475 3500 
L 3475 0 
L 2900 0 
L 2900 538 
Q 2691 219 2414 64 
Q 2138 -91 1772 -91 
Q 1169 -91 856 284 
Q 544 659 544 1381 
z
M 1991 3584 
L 1991 3584 
z
" transform="scale(0.015625)"/>
       <path id="DejaVuSans-56" d="M 1831 0 
L 50 4666 
L 709 4666 
L 2188 738 
L 3669 4666 
L 4325 4666 
L 2547 0 
L 1831 0 
z
" transform="scale(0.015625)"/>
      </defs>
      <use xlink:href="#DejaVuSans-41"/>
      <use xlink:href="#DejaVuSans-63" x="66.658203"/>
      <use xlink:href="#DejaVuSans-74" x="121.638672"/>
      <use xlink:href="#DejaVuSans-75" x="160.847656"/>
      <use xlink:href="#DejaVuSans-61" x="224.226562"/>
      <use xlink:href="#DejaVuSans-6c" x="285.505859"/>
      <use xlink:href="#DejaVuSans-20" x="313.289062"/>
      <use xlink:href="#DejaVuSans-56" x="345.076172"/>
      <use xlink:href="#DejaVuSans-61" x="405.734375"/>
      <use xlink:href="#DejaVuSans-6c" x="467.013672"/>
      <use xlink:href="#DejaVuSans-75" x="494.796875"/>
      <use xlink:href="#DejaVuSans-65" x="558.175781"/>
     </g>
    </g>
    <g id="line2d_22">
     <path d="M 1283.132812 63.532062 
L 1293.132812 63.532062 
L 1303.132812 63.532062 
" style="fill: none; stroke: #ffa500; stroke-width: 1.5; stroke-linecap: square"/>
    </g>
    <g id="text_20">
     <!-- Check Value -->
     <g transform="translate(1311.132812 67.032062)scale(0.1 -0.1)">
      <defs>
       <path id="DejaVuSans-68" d="M 3513 2113 
L 3513 0 
L 2938 0 
L 2938 2094 
Q 2938 2591 2744 2837 
Q 2550 3084 2163 3084 
Q 1697 3084 1428 2787 
Q 1159 2491 1159 1978 
L 1159 0 
L 581 0 
L 581 4863 
L 1159 4863 
L 1159 2956 
Q 1366 3272 1645 3428 
Q 1925 3584 2291 3584 
Q 2894 3584 3203 3211 
Q 3513 2838 3513 2113 
z
" transform="scale(0.015625)"/>
       <path id="DejaVuSans-6b" d="M 581 4863 
L 1159 4863 
L 1159 1991 
L 2875 3500 
L 3609 3500 
L 1753 1863 
L 3688 0 
L 2938 0 
L 1159 1709 
L 1159 0 
L 581 0 
L 581 4863 
z
" transform="scale(0.015625)"/>
      </defs>
      <use xlink:href="#DejaVuSans-43"/>
      <use xlink:href="#DejaVuSans-68" x="69.824219"/>
      <use xlink:href="#DejaVuSans-65" x="133.203125"/>
      <use xlink:href="#DejaVuSans-63" x="194.726562"/>
      <use xlink:href="#DejaVuSans-6b" x="249.707031"/>
      <use xlink:href="#DejaVuSans-20" x="307.617188"/>
      <use xlink:href="#DejaVuSans-56" x="339.404297"/>
      <use xlink:href="#DejaVuSans-61" x="400.0625"/>
      <use xlink:href="#DejaVuSans-6c" x="461.341797"/>
      <use xlink:href="#DejaVuSans-75" x="489.125"/>
      <use xlink:href="#DejaVuSans-65" x="552.503906"/>
     </g>
    </g>
    <g id="line2d_23">
     <path d="M 1283.132812 78.210187 
L 1293.132812 78.210187 
L 1303.132812 78.210187 
" style="fill: none; stroke: #ff0000; stroke-width: 1.5; stroke-linecap: square"/>
    </g>
    <g id="text_21">
     <!-- Predict Value -->
     <g transform="translate(1311.132812 81.710187)scale(0.1 -0.1)">
      <defs>
       <path id="DejaVuSans-50" d="M 1259 4147 
L 1259 2394 
L 2053 2394 
Q 2494 2394 2734 2622 
Q 2975 2850 2975 3272 
Q 2975 3691 2734 3919 
Q 2494 4147 2053 4147 
L 1259 4147 
z
M 628 4666 
L 2053 4666 
Q 2838 4666 3239 4311 
Q 3641 3956 3641 3272 
Q 3641 2581 3239 2228 
Q 2838 1875 2053 1875 
L 1259 1875 
L 1259 0 
L 628 0 
L 628 4666 
z
" transform="scale(0.015625)"/>
      </defs>
      <use xlink:href="#DejaVuSans-50"/>
      <use xlink:href="#DejaVuSans-72" x="58.552734"/>
      <use xlink:href="#DejaVuSans-65" x="97.416016"/>
      <use xlink:href="#DejaVuSans-64" x="158.939453"/>
      <use xlink:href="#DejaVuSans-69" x="222.416016"/>
      <use xlink:href="#DejaVuSans-63" x="250.199219"/>
      <use xlink:href="#DejaVuSans-74" x="305.179688"/>
      <use xlink:href="#DejaVuSans-20" x="344.388672"/>
      <use xlink:href="#DejaVuSans-56" x="376.175781"/>
      <use xlink:href="#DejaVuSans-61" x="436.833984"/>
      <use xlink:href="#DejaVuSans-6c" x="498.113281"/>
      <use xlink:href="#DejaVuSans-75" x="525.896484"/>
      <use xlink:href="#DejaVuSans-65" x="589.275391"/>
     </g>
    </g>
   </g>
  </g>
 </g>
 <defs>
  <clipPath id="p7f41c2dfda">
   <rect x="46.0125" y="35.7555" width="1339.2" height="332.64"/>
  </clipPath>
 </defs>
</svg>
