<?xml version="1.0" encoding="utf-8" standalone="no"?>
<!DOCTYPE svg PUBLIC "-//W3C//DTD SVG 1.1//EN"
  "http://www.w3.org/Graphics/SVG/1.1/DTD/svg11.dtd">
<svg xmlns:xlink="http://www.w3.org/1999/xlink" width="1392.4125pt" height="392.273625pt" viewBox="0 0 1392.4125 392.273625" xmlns="http://www.w3.org/2000/svg" version="1.1">
 <metadata>
  <rdf:RDF xmlns:dc="http://purl.org/dc/elements/1.1/" xmlns:cc="http://creativecommons.org/ns#" xmlns:rdf="http://www.w3.org/1999/02/22-rdf-syntax-ns#">
   <cc:Work>
    <dc:type rdf:resource="http://purl.org/dc/dcmitype/StillImage"/>
    <dc:date>2022-12-31T19:02:43.916708</dc:date>
    <dc:format>image/svg+xml</dc:format>
    <dc:creator>
     <cc:Agent>
      <dc:title>Matplotlib v3.5.1, https://matplotlib.org/</dc:title>
     </cc:Agent>
    </dc:creator>
   </cc:Work>
  </rdf:RDF>
 </metadata>
 <defs>
  <style type="text/css">*{stroke-linejoin: round; stroke-linecap: butt}</style>
 </defs>
 <g id="figure_1">
  <g id="patch_1">
   <path d="M 0 392.273625 
L 1392.4125 392.273625 
L 1392.4125 0 
L 0 0 
z
" style="fill: #ffffff"/>
  </g>
  <g id="axes_1">
   <g id="patch_2">
    <path d="M 46.0125 368.3955 
L 1385.2125 368.3955 
L 1385.2125 35.7555 
L 46.0125 35.7555 
z
" style="fill: #ffffff"/>
   </g>
   <g id="matplotlib.axis_1">
    <g id="xtick_1">
     <g id="line2d_1">
      <defs>
       <path id="mc466f0bfd2" d="M 0 0 
L 0 3.5 
" style="stroke: #000000; stroke-width: 0.8"/>
      </defs>
      <g>
       <use xlink:href="#mc466f0bfd2" x="82.222244" y="368.3955" style="stroke: #000000; stroke-width: 0.8"/>
      </g>
     </g>
     <g id="text_1">
      <!-- 2020-01 -->
      <g transform="translate(61.330838 382.993937)scale(0.1 -0.1)">
       <defs>
        <path id="DejaVuSans-32" d="M 1228 531 
L 3431 531 
L 3431 0 
L 469 0 
L 469 531 
Q 828 903 1448 1529 
Q 2069 2156 2228 2338 
Q 2531 2678 2651 2914 
Q 2772 3150 2772 3378 
Q 2772 3750 2511 3984 
Q 2250 4219 1831 4219 
Q 1534 4219 1204 4116 
Q 875 4013 500 3803 
L 500 4441 
Q 881 4594 1212 4672 
Q 1544 4750 1819 4750 
Q 2544 4750 2975 4387 
Q 3406 4025 3406 3419 
Q 3406 3131 3298 2873 
Q 3191 2616 2906 2266 
Q 2828 2175 2409 1742 
Q 1991 1309 1228 531 
z
" transform="scale(0.015625)"/>
        <path id="DejaVuSans-30" d="M 2034 4250 
Q 1547 4250 1301 3770 
Q 1056 3291 1056 2328 
Q 1056 1369 1301 889 
Q 1547 409 2034 409 
Q 2525 409 2770 889 
Q 3016 1369 3016 2328 
Q 3016 3291 2770 3770 
Q 2525 4250 2034 4250 
z
M 2034 4750 
Q 2819 4750 3233 4129 
Q 3647 3509 3647 2328 
Q 3647 1150 3233 529 
Q 2819 -91 2034 -91 
Q 1250 -91 836 529 
Q 422 1150 422 2328 
Q 422 3509 836 4129 
Q 1250 4750 2034 4750 
z
" transform="scale(0.015625)"/>
        <path id="DejaVuSans-2d" d="M 313 2009 
L 1997 2009 
L 1997 1497 
L 313 1497 
L 313 2009 
z
" transform="scale(0.015625)"/>
        <path id="DejaVuSans-31" d="M 794 531 
L 1825 531 
L 1825 4091 
L 703 3866 
L 703 4441 
L 1819 4666 
L 2450 4666 
L 2450 531 
L 3481 531 
L 3481 0 
L 794 0 
L 794 531 
z
" transform="scale(0.015625)"/>
       </defs>
       <use xlink:href="#DejaVuSans-32"/>
       <use xlink:href="#DejaVuSans-30" x="63.623047"/>
       <use xlink:href="#DejaVuSans-32" x="127.246094"/>
       <use xlink:href="#DejaVuSans-30" x="190.869141"/>
       <use xlink:href="#DejaVuSans-2d" x="254.492188"/>
       <use xlink:href="#DejaVuSans-30" x="290.576172"/>
       <use xlink:href="#DejaVuSans-31" x="354.199219"/>
      </g>
     </g>
    </g>
    <g id="xtick_2">
     <g id="line2d_2">
      <g>
       <use xlink:href="#mc466f0bfd2" x="217.868653" y="368.3955" style="stroke: #000000; stroke-width: 0.8"/>
      </g>
     </g>
     <g id="text_2">
      <!-- 2020-05 -->
      <g transform="translate(196.977246 382.993937)scale(0.1 -0.1)">
       <defs>
        <path id="DejaVuSans-35" d="M 691 4666 
L 3169 4666 
L 3169 4134 
L 1269 4134 
L 1269 2991 
Q 1406 3038 1543 3061 
Q 1681 3084 1819 3084 
Q 2600 3084 3056 2656 
Q 3513 2228 3513 1497 
Q 3513 744 3044 326 
Q 2575 -91 1722 -91 
Q 1428 -91 1123 -41 
Q 819 9 494 109 
L 494 744 
Q 775 591 1075 516 
Q 1375 441 1709 441 
Q 2250 441 2565 725 
Q 2881 1009 2881 1497 
Q 2881 1984 2565 2268 
Q 2250 2553 1709 2553 
Q 1456 2553 1204 2497 
Q 953 2441 691 2322 
L 691 4666 
z
" transform="scale(0.015625)"/>
       </defs>
       <use xlink:href="#DejaVuSans-32"/>
       <use xlink:href="#DejaVuSans-30" x="63.623047"/>
       <use xlink:href="#DejaVuSans-32" x="127.246094"/>
       <use xlink:href="#DejaVuSans-30" x="190.869141"/>
       <use xlink:href="#DejaVuSans-2d" x="254.492188"/>
       <use xlink:href="#DejaVuSans-30" x="290.576172"/>
       <use xlink:href="#DejaVuSans-35" x="354.199219"/>
      </g>
     </g>
    </g>
    <g id="xtick_3">
     <g id="line2d_3">
      <g>
       <use xlink:href="#mc466f0bfd2" x="355.757151" y="368.3955" style="stroke: #000000; stroke-width: 0.8"/>
      </g>
     </g>
     <g id="text_3">
      <!-- 2020-09 -->
      <g transform="translate(334.865745 382.993937)scale(0.1 -0.1)">
       <defs>
        <path id="DejaVuSans-39" d="M 703 97 
L 703 672 
Q 941 559 1184 500 
Q 1428 441 1663 441 
Q 2288 441 2617 861 
Q 2947 1281 2994 2138 
Q 2813 1869 2534 1725 
Q 2256 1581 1919 1581 
Q 1219 1581 811 2004 
Q 403 2428 403 3163 
Q 403 3881 828 4315 
Q 1253 4750 1959 4750 
Q 2769 4750 3195 4129 
Q 3622 3509 3622 2328 
Q 3622 1225 3098 567 
Q 2575 -91 1691 -91 
Q 1453 -91 1209 -44 
Q 966 3 703 97 
z
M 1959 2075 
Q 2384 2075 2632 2365 
Q 2881 2656 2881 3163 
Q 2881 3666 2632 3958 
Q 2384 4250 1959 4250 
Q 1534 4250 1286 3958 
Q 1038 3666 1038 3163 
Q 1038 2656 1286 2365 
Q 1534 2075 1959 2075 
z
" transform="scale(0.015625)"/>
       </defs>
       <use xlink:href="#DejaVuSans-32"/>
       <use xlink:href="#DejaVuSans-30" x="63.623047"/>
       <use xlink:href="#DejaVuSans-32" x="127.246094"/>
       <use xlink:href="#DejaVuSans-30" x="190.869141"/>
       <use xlink:href="#DejaVuSans-2d" x="254.492188"/>
       <use xlink:href="#DejaVuSans-30" x="290.576172"/>
       <use xlink:href="#DejaVuSans-39" x="354.199219"/>
      </g>
     </g>
    </g>
    <g id="xtick_4">
     <g id="line2d_4">
      <g>
       <use xlink:href="#mc466f0bfd2" x="492.524604" y="368.3955" style="stroke: #000000; stroke-width: 0.8"/>
      </g>
     </g>
     <g id="text_4">
      <!-- 2021-01 -->
      <g transform="translate(471.633198 382.993937)scale(0.1 -0.1)">
       <use xlink:href="#DejaVuSans-32"/>
       <use xlink:href="#DejaVuSans-30" x="63.623047"/>
       <use xlink:href="#DejaVuSans-32" x="127.246094"/>
       <use xlink:href="#DejaVuSans-31" x="190.869141"/>
       <use xlink:href="#DejaVuSans-2d" x="254.492188"/>
       <use xlink:href="#DejaVuSans-30" x="290.576172"/>
       <use xlink:href="#DejaVuSans-31" x="354.199219"/>
      </g>
     </g>
    </g>
    <g id="xtick_5">
     <g id="line2d_5">
      <g>
       <use xlink:href="#mc466f0bfd2" x="627.049969" y="368.3955" style="stroke: #000000; stroke-width: 0.8"/>
      </g>
     </g>
     <g id="text_5">
      <!-- 2021-05 -->
      <g transform="translate(606.158562 382.993937)scale(0.1 -0.1)">
       <use xlink:href="#DejaVuSans-32"/>
       <use xlink:href="#DejaVuSans-30" x="63.623047"/>
       <use xlink:href="#DejaVuSans-32" x="127.246094"/>
       <use xlink:href="#DejaVuSans-31" x="190.869141"/>
       <use xlink:href="#DejaVuSans-2d" x="254.492188"/>
       <use xlink:href="#DejaVuSans-30" x="290.576172"/>
       <use xlink:href="#DejaVuSans-35" x="354.199219"/>
      </g>
     </g>
    </g>
    <g id="xtick_6">
     <g id="line2d_6">
      <g>
       <use xlink:href="#mc466f0bfd2" x="764.938467" y="368.3955" style="stroke: #000000; stroke-width: 0.8"/>
      </g>
     </g>
     <g id="text_6">
      <!-- 2021-09 -->
      <g transform="translate(744.047061 382.993937)scale(0.1 -0.1)">
       <use xlink:href="#DejaVuSans-32"/>
       <use xlink:href="#DejaVuSans-30" x="63.623047"/>
       <use xlink:href="#DejaVuSans-32" x="127.246094"/>
       <use xlink:href="#DejaVuSans-31" x="190.869141"/>
       <use xlink:href="#DejaVuSans-2d" x="254.492188"/>
       <use xlink:href="#DejaVuSans-30" x="290.576172"/>
       <use xlink:href="#DejaVuSans-39" x="354.199219"/>
      </g>
     </g>
    </g>
    <g id="xtick_7">
     <g id="line2d_7">
      <g>
       <use xlink:href="#mc466f0bfd2" x="901.70592" y="368.3955" style="stroke: #000000; stroke-width: 0.8"/>
      </g>
     </g>
     <g id="text_7">
      <!-- 2022-01 -->
      <g transform="translate(880.814514 382.993937)scale(0.1 -0.1)">
       <use xlink:href="#DejaVuSans-32"/>
       <use xlink:href="#DejaVuSans-30" x="63.623047"/>
       <use xlink:href="#DejaVuSans-32" x="127.246094"/>
       <use xlink:href="#DejaVuSans-32" x="190.869141"/>
       <use xlink:href="#DejaVuSans-2d" x="254.492188"/>
       <use xlink:href="#DejaVuSans-30" x="290.576172"/>
       <use xlink:href="#DejaVuSans-31" x="354.199219"/>
      </g>
     </g>
    </g>
    <g id="xtick_8">
     <g id="line2d_8">
      <g>
       <use xlink:href="#mc466f0bfd2" x="1036.231285" y="368.3955" style="stroke: #000000; stroke-width: 0.8"/>
      </g>
     </g>
     <g id="text_8">
      <!-- 2022-05 -->
      <g transform="translate(1015.339878 382.993937)scale(0.1 -0.1)">
       <use xlink:href="#DejaVuSans-32"/>
       <use xlink:href="#DejaVuSans-30" x="63.623047"/>
       <use xlink:href="#DejaVuSans-32" x="127.246094"/>
       <use xlink:href="#DejaVuSans-32" x="190.869141"/>
       <use xlink:href="#DejaVuSans-2d" x="254.492188"/>
       <use xlink:href="#DejaVuSans-30" x="290.576172"/>
       <use xlink:href="#DejaVuSans-35" x="354.199219"/>
      </g>
     </g>
    </g>
    <g id="xtick_9">
     <g id="line2d_9">
      <g>
       <use xlink:href="#mc466f0bfd2" x="1174.119783" y="368.3955" style="stroke: #000000; stroke-width: 0.8"/>
      </g>
     </g>
     <g id="text_9">
      <!-- 2022-09 -->
      <g transform="translate(1153.228377 382.993937)scale(0.1 -0.1)">
       <use xlink:href="#DejaVuSans-32"/>
       <use xlink:href="#DejaVuSans-30" x="63.623047"/>
       <use xlink:href="#DejaVuSans-32" x="127.246094"/>
       <use xlink:href="#DejaVuSans-32" x="190.869141"/>
       <use xlink:href="#DejaVuSans-2d" x="254.492188"/>
       <use xlink:href="#DejaVuSans-30" x="290.576172"/>
       <use xlink:href="#DejaVuSans-39" x="354.199219"/>
      </g>
     </g>
    </g>
    <g id="xtick_10">
     <g id="line2d_10">
      <g>
       <use xlink:href="#mc466f0bfd2" x="1310.887236" y="368.3955" style="stroke: #000000; stroke-width: 0.8"/>
      </g>
     </g>
     <g id="text_10">
      <!-- 2023-01 -->
      <g transform="translate(1289.99583 382.993937)scale(0.1 -0.1)">
       <defs>
        <path id="DejaVuSans-33" d="M 2597 2516 
Q 3050 2419 3304 2112 
Q 3559 1806 3559 1356 
Q 3559 666 3084 287 
Q 2609 -91 1734 -91 
Q 1441 -91 1130 -33 
Q 819 25 488 141 
L 488 750 
Q 750 597 1062 519 
Q 1375 441 1716 441 
Q 2309 441 2620 675 
Q 2931 909 2931 1356 
Q 2931 1769 2642 2001 
Q 2353 2234 1838 2234 
L 1294 2234 
L 1294 2753 
L 1863 2753 
Q 2328 2753 2575 2939 
Q 2822 3125 2822 3475 
Q 2822 3834 2567 4026 
Q 2313 4219 1838 4219 
Q 1578 4219 1281 4162 
Q 984 4106 628 3988 
L 628 4550 
Q 988 4650 1302 4700 
Q 1616 4750 1894 4750 
Q 2613 4750 3031 4423 
Q 3450 4097 3450 3541 
Q 3450 3153 3228 2886 
Q 3006 2619 2597 2516 
z
" transform="scale(0.015625)"/>
       </defs>
       <use xlink:href="#DejaVuSans-32"/>
       <use xlink:href="#DejaVuSans-30" x="63.623047"/>
       <use xlink:href="#DejaVuSans-32" x="127.246094"/>
       <use xlink:href="#DejaVuSans-33" x="190.869141"/>
       <use xlink:href="#DejaVuSans-2d" x="254.492188"/>
       <use xlink:href="#DejaVuSans-30" x="290.576172"/>
       <use xlink:href="#DejaVuSans-31" x="354.199219"/>
      </g>
     </g>
    </g>
   </g>
   <g id="matplotlib.axis_2">
    <g id="ytick_1">
     <g id="line2d_11">
      <defs>
       <path id="m030545520b" d="M 0 0 
L -3.5 0 
" style="stroke: #000000; stroke-width: 0.8"/>
      </defs>
      <g>
       <use xlink:href="#m030545520b" x="46.0125" y="350.514604" style="stroke: #000000; stroke-width: 0.8"/>
      </g>
     </g>
     <g id="text_11">
      <!-- 0 -->
      <g transform="translate(32.65 354.313823)scale(0.1 -0.1)">
       <use xlink:href="#DejaVuSans-30"/>
      </g>
     </g>
    </g>
    <g id="ytick_2">
     <g id="line2d_12">
      <g>
       <use xlink:href="#m030545520b" x="46.0125" y="310.958287" style="stroke: #000000; stroke-width: 0.8"/>
      </g>
     </g>
     <g id="text_12">
      <!-- 5000 -->
      <g transform="translate(13.5625 314.757506)scale(0.1 -0.1)">
       <use xlink:href="#DejaVuSans-35"/>
       <use xlink:href="#DejaVuSans-30" x="63.623047"/>
       <use xlink:href="#DejaVuSans-30" x="127.246094"/>
       <use xlink:href="#DejaVuSans-30" x="190.869141"/>
      </g>
     </g>
    </g>
    <g id="ytick_3">
     <g id="line2d_13">
      <g>
       <use xlink:href="#m030545520b" x="46.0125" y="271.40197" style="stroke: #000000; stroke-width: 0.8"/>
      </g>
     </g>
     <g id="text_13">
      <!-- 10000 -->
      <g transform="translate(7.2 275.201188)scale(0.1 -0.1)">
       <use xlink:href="#DejaVuSans-31"/>
       <use xlink:href="#DejaVuSans-30" x="63.623047"/>
       <use xlink:href="#DejaVuSans-30" x="127.246094"/>
       <use xlink:href="#DejaVuSans-30" x="190.869141"/>
       <use xlink:href="#DejaVuSans-30" x="254.492188"/>
      </g>
     </g>
    </g>
    <g id="ytick_4">
     <g id="line2d_14">
      <g>
       <use xlink:href="#m030545520b" x="46.0125" y="231.845652" style="stroke: #000000; stroke-width: 0.8"/>
      </g>
     </g>
     <g id="text_14">
      <!-- 15000 -->
      <g transform="translate(7.2 235.644871)scale(0.1 -0.1)">
       <use xlink:href="#DejaVuSans-31"/>
       <use xlink:href="#DejaVuSans-35" x="63.623047"/>
       <use xlink:href="#DejaVuSans-30" x="127.246094"/>
       <use xlink:href="#DejaVuSans-30" x="190.869141"/>
       <use xlink:href="#DejaVuSans-30" x="254.492188"/>
      </g>
     </g>
    </g>
    <g id="ytick_5">
     <g id="line2d_15">
      <g>
       <use xlink:href="#m030545520b" x="46.0125" y="192.289335" style="stroke: #000000; stroke-width: 0.8"/>
      </g>
     </g>
     <g id="text_15">
      <!-- 20000 -->
      <g transform="translate(7.2 196.088553)scale(0.1 -0.1)">
       <use xlink:href="#DejaVuSans-32"/>
       <use xlink:href="#DejaVuSans-30" x="63.623047"/>
       <use xlink:href="#DejaVuSans-30" x="127.246094"/>
       <use xlink:href="#DejaVuSans-30" x="190.869141"/>
       <use xlink:href="#DejaVuSans-30" x="254.492188"/>
      </g>
     </g>
    </g>
    <g id="ytick_6">
     <g id="line2d_16">
      <g>
       <use xlink:href="#m030545520b" x="46.0125" y="152.733017" style="stroke: #000000; stroke-width: 0.8"/>
      </g>
     </g>
     <g id="text_16">
      <!-- 25000 -->
      <g transform="translate(7.2 156.532236)scale(0.1 -0.1)">
       <use xlink:href="#DejaVuSans-32"/>
       <use xlink:href="#DejaVuSans-35" x="63.623047"/>
       <use xlink:href="#DejaVuSans-30" x="127.246094"/>
       <use xlink:href="#DejaVuSans-30" x="190.869141"/>
       <use xlink:href="#DejaVuSans-30" x="254.492188"/>
      </g>
     </g>
    </g>
    <g id="ytick_7">
     <g id="line2d_17">
      <g>
       <use xlink:href="#m030545520b" x="46.0125" y="113.1767" style="stroke: #000000; stroke-width: 0.8"/>
      </g>
     </g>
     <g id="text_17">
      <!-- 30000 -->
      <g transform="translate(7.2 116.975919)scale(0.1 -0.1)">
       <use xlink:href="#DejaVuSans-33"/>
       <use xlink:href="#DejaVuSans-30" x="63.623047"/>
       <use xlink:href="#DejaVuSans-30" x="127.246094"/>
       <use xlink:href="#DejaVuSans-30" x="190.869141"/>
       <use xlink:href="#DejaVuSans-30" x="254.492188"/>
      </g>
     </g>
    </g>
    <g id="ytick_8">
     <g id="line2d_18">
      <g>
       <use xlink:href="#m030545520b" x="46.0125" y="73.620383" style="stroke: #000000; stroke-width: 0.8"/>
      </g>
     </g>
     <g id="text_18">
      <!-- 35000 -->
      <g transform="translate(7.2 77.419601)scale(0.1 -0.1)">
       <use xlink:href="#DejaVuSans-33"/>
       <use xlink:href="#DejaVuSans-35" x="63.623047"/>
       <use xlink:href="#DejaVuSans-30" x="127.246094"/>
       <use xlink:href="#DejaVuSans-30" x="190.869141"/>
       <use xlink:href="#DejaVuSans-30" x="254.492188"/>
      </g>
     </g>
    </g>
   </g>
   <g id="line2d_19">
    <path d="M 106.885227 350.514604 
L 167.421641 350.514604 
L 168.542686 350.087396 
L 169.663731 350.245621 
L 170.784775 350.103219 
L 173.026865 350.245621 
L 174.147909 349.501963 
L 175.268954 349.312092 
L 176.389999 349.288358 
L 177.511043 348.789949 
L 178.632088 348.592167 
L 179.753133 350.380113 
L 180.874178 349.778857 
L 181.995222 350.150686 
L 183.116267 350.301 
L 184.237312 350.301 
L 185.358356 349.865881 
L 186.479401 350.17442 
L 187.600446 349.881703 
L 188.72149 349.960816 
L 189.842535 350.269355 
L 192.084625 349.755123 
L 194.326714 349.968727 
L 195.447759 350.316823 
L 196.568803 349.367471 
L 197.689848 349.731389 
L 198.810893 349.383294 
L 199.931937 349.794679 
L 201.052982 349.731389 
L 203.295072 348.528877 
L 204.416116 349.533608 
L 207.77925 349.16969 
L 208.900295 347.998823 
L 210.02134 348.402297 
L 211.142384 349.399116 
L 212.263429 349.051021 
L 213.384474 348.560522 
L 214.505519 348.908618 
L 215.626563 347.714017 
L 216.747608 348.164959 
L 217.868653 348.10958 
L 218.989697 347.468768 
L 220.110742 346.97827 
L 221.231787 347.057382 
L 222.352831 347.72984 
L 223.473876 348.647546 
L 224.594921 347.160229 
L 225.715966 345.269437 
L 226.83701 346.361191 
L 227.958055 345.807403 
L 229.0791 345.475129 
L 230.200144 344.992542 
L 231.321189 344.78685 
L 232.442234 345.253614 
L 233.563279 344.304262 
L 234.684323 343.940344 
L 235.805368 341.337539 
L 236.926413 343.252064 
L 238.047457 344.446665 
L 239.168502 344.16186 
L 240.289547 341.543232 
L 241.410591 342.698276 
L 242.531636 340.878685 
L 243.652681 340.704638 
L 244.773726 342.35018 
L 245.89477 345.380194 
L 247.015815 337.27906 
L 248.13686 338.916692 
L 249.257904 335.981613 
L 250.378949 336.851852 
L 251.499994 336.938876 
L 252.621038 337.271149 
L 253.742083 339.003716 
L 254.863128 336.96261 
L 255.984173 324.668507 
L 257.105217 329.613046 
L 258.226262 330.427906 
L 259.347307 332.223763 
L 260.468351 329.992787 
L 261.589396 333.806016 
L 262.710441 331.290234 
L 263.831485 325.617858 
L 264.95253 323.94067 
L 267.19462 316.480349 
L 268.315664 322.864738 
L 269.436709 328.355155 
L 270.557754 318.252472 
L 271.678798 322.99923 
L 272.799843 320.254021 
L 273.920888 311.22727 
L 276.162977 316.591106 
L 277.284022 314.771516 
L 278.405067 305.515338 
L 279.526111 298.466402 
L 280.647156 301.346102 
L 281.768201 293.474395 
L 282.889245 300.404661 
L 284.01029 302.018559 
L 285.131335 295.570879 
L 286.252379 286.2435 
L 287.373424 281.465097 
L 288.494469 278.814823 
L 289.615514 264.653662 
L 290.736558 281.10909 
L 291.857603 279.54266 
L 292.978648 270.34186 
L 294.099692 280.816373 
L 295.220737 242.335987 
L 296.341782 252.826323 
L 297.462826 243.736281 
L 298.583871 255.120589 
L 299.704916 259.107866 
L 300.825961 267.477983 
L 301.947005 249.590616 
L 303.06805 246.307442 
L 304.189095 244.717278 
L 305.310139 245.413469 
L 306.431184 244.116022 
L 307.552229 276.939854 
L 308.673273 285.879582 
L 309.794318 246.48149 
L 310.915363 246.845408 
L 312.036408 240.199946 
L 313.157452 253.965545 
L 314.278497 261.647382 
L 315.399542 294.376279 
L 316.520586 293.300347 
L 317.641631 260.626829 
L 318.762676 263.126788 
L 319.88372 263.379948 
L 321.004765 270.555464 
L 322.12581 285.6818 
L 323.246855 307.975741 
L 324.367899 315.262014 
L 325.488944 282.8021 
L 326.609989 284.795739 
L 327.731033 292.825671 
L 328.852078 289.50294 
L 329.973123 297.738566 
L 331.094168 320.93439 
L 332.215212 330.649422 
L 333.336257 328.283954 
L 334.457302 319.296759 
L 335.578346 300.871426 
L 336.699391 314.811072 
L 337.820436 321.30622 
L 338.94148 330.412084 
L 340.062525 332.650971 
L 341.18357 319.534097 
L 342.304615 319.818902 
L 343.425659 323.632131 
L 344.546704 321.187551 
L 346.788793 337.247415 
L 347.909838 338.117654 
L 349.030883 329.280773 
L 350.151927 330.063988 
L 351.272972 335.910412 
L 352.394017 331.377258 
L 353.515062 330.696889 
L 354.636106 334.810746 
L 355.757151 340.878685 
L 356.878196 332.033893 
L 357.99924 331.369347 
L 359.120285 334.193668 
L 360.24133 336.226862 
L 361.362374 337.595511 
L 362.483419 343.829587 
L 363.604464 341.978351 
L 364.725509 334.77119 
L 365.846553 334.636698 
L 366.967598 335.008528 
L 368.088643 336.14775 
L 369.209687 338.022719 
L 370.330732 342.951436 
L 371.451777 344.407109 
L 372.572821 335.301245 
L 373.693866 333.679436 
L 374.814911 334.256958 
L 375.935956 334.462651 
L 377.057 338.21259 
L 378.178045 344.778938 
L 380.420134 335.435736 
L 381.541179 335.791743 
L 382.662224 338.805934 
L 383.783268 342.84859 
L 384.904313 340.483122 
L 386.025358 343.370733 
L 387.146403 343.370733 
L 388.267447 336.535402 
L 389.388492 336.70945 
L 390.509537 336.677804 
L 391.630581 335.617695 
L 392.751626 338.070187 
L 393.872671 343.188774 
L 394.993715 342.389737 
L 396.11476 335.380357 
L 397.235805 336.780651 
L 398.35685 338.956248 
L 399.477894 330.38835 
L 400.598939 338.054364 
L 401.719984 343.489402 
L 402.841028 341.195136 
L 403.962073 335.665163 
L 405.083118 336.511668 
L 406.204162 334.541763 
L 407.325207 335.261688 
L 408.446252 337.366084 
L 409.567297 338.956248 
L 410.688341 342.207778 
L 411.809386 334.256958 
L 412.930431 333.45792 
L 414.051475 335.506937 
L 415.17252 336.005347 
L 416.293565 337.682535 
L 417.414609 343.465669 
L 418.535654 341.875505 
L 419.656699 335.77592 
L 420.777744 334.249047 
L 423.019833 336.511668 
L 424.140878 339.668262 
L 425.261922 344.407109 
L 427.504012 336.970521 
L 428.625057 335.752187 
L 429.746101 336.582869 
L 430.867146 336.820207 
L 431.988191 339.660351 
L 433.109235 340.649259 
L 434.23028 336.83603 
L 435.351325 333.5845 
L 436.472369 332.01807 
L 437.593414 333.006978 
L 438.714459 332.817108 
L 439.835504 335.942057 
L 440.956548 340.665081 
L 442.077593 334.794924 
L 443.198638 327.666875 
L 444.319682 330.625688 
L 445.440727 325.950131 
L 446.561772 329.581401 
L 447.682816 332.556036 
L 448.803861 334.059176 
L 449.924906 330.791824 
L 451.045951 324.802998 
L 452.166995 326.234937 
L 453.28804 323.853646 
L 454.409085 325.214384 
L 455.530129 330.238036 
L 456.651174 332.302876 
L 457.772219 332.358255 
L 458.893263 317.500902 
L 460.014308 315.705045 
L 461.135353 311.496253 
L 462.256398 313.766785 
L 463.377442 317.951844 
L 464.498487 324.304588 
L 465.619532 318.782526 
L 466.740576 297.437938 
L 467.861621 285.911227 
L 468.982666 284.700803 
L 470.10371 288.158026 
L 471.224755 287.232408 
L 472.3458 309.668751 
L 474.587889 271.338679 
L 475.708934 278.316414 
L 476.829979 281.48883 
L 477.951023 263.973293 
L 479.072068 275.792721 
L 480.193113 280.98251 
L 481.314157 275.34969 
L 482.435202 239.392997 
L 483.556247 237.34398 
L 484.677292 233.45955 
L 485.798336 259.123689 
L 488.040426 291.512401 
L 489.16147 274.7247 
L 490.282515 210.406128 
L 491.40356 208.111862 
L 492.524604 218.190811 
L 493.645649 231.82983 
L 494.766694 256.694931 
L 495.887739 250.824773 
L 497.008783 236.513298 
L 498.129828 177.7959 
L 499.250873 184.385982 
L 500.371917 176.625033 
L 501.492962 179.583846 
L 502.614007 212.692483 
L 503.735051 231.481734 
L 504.856096 246.837496 
L 505.977141 203.72111 
L 507.098186 204.132496 
L 508.21923 232.795004 
L 509.340275 239.97052 
L 510.46132 253.467135 
L 511.582364 279.23412 
L 512.703409 273.142447 
L 513.824454 249.962445 
L 514.945498 260.476515 
L 516.066543 257.470235 
L 517.187588 253.43549 
L 518.308633 286.061541 
L 519.429677 314.510444 
L 520.550722 302.722662 
L 521.671767 294.581971 
L 522.792811 293.94907 
L 523.913856 301.931535 
L 526.155946 314.716137 
L 527.27699 330.356705 
L 528.398035 329.557667 
L 529.51908 318.410697 
L 530.640124 320.839455 
L 531.761169 320.855278 
L 532.882214 325.325141 
L 534.003258 331.250678 
L 535.124303 339.628706 
L 536.245348 336.733183 
L 537.366393 325.522923 
L 538.487437 330.831381 
L 539.608482 328.513381 
L 540.729527 331.669975 
L 542.971616 341.796392 
L 544.092661 340.941975 
L 545.213705 332.160473 
L 546.33475 332.105094 
L 547.455795 335.39618 
L 548.57684 337.144569 
L 549.697884 339.209409 
L 550.818929 344.248884 
L 551.939974 342.619163 
L 553.061018 335.783832 
L 554.182063 337.255327 
L 555.303108 337.429375 
L 556.424152 339.067006 
L 557.545197 341.274249 
L 558.666242 346.036829 
L 559.787287 343.742563 
L 560.908331 339.067006 
L 562.029376 339.40719 
L 564.271465 340.807484 
L 565.39251 343.695095 
L 566.513555 345.467218 
L 567.634599 342.674542 
L 568.755644 338.829668 
L 569.876689 338.853402 
L 570.997734 340.823307 
L 572.118778 338.323347 
L 573.239823 342.555873 
L 574.360868 345.665 
L 575.481912 343.133395 
L 576.602957 338.40246 
L 577.724002 338.932515 
L 578.845046 338.948337 
L 579.966091 339.612883 
L 581.087136 342.199866 
L 582.208181 345.775757 
L 583.329225 346.47986 
L 585.571315 338.220501 
L 586.692359 338.521129 
L 587.813404 339.541682 
L 590.055493 346.179232 
L 591.176538 344.533689 
L 592.297583 339.264788 
L 593.418628 340.277429 
L 594.539672 340.443566 
L 595.660717 344.367553 
L 596.781762 346.851689 
L 599.023851 347.057382 
L 600.144896 344.533689 
L 601.26594 339.707818 
L 602.386985 340.491033 
L 603.50803 340.348631 
L 604.629075 343.149218 
L 605.750119 345.332727 
L 606.871164 343.813764 
L 607.992209 337.864494 
L 609.113253 339.660351 
L 610.234298 339.248965 
L 611.355343 340.03218 
L 612.476387 341.899238 
L 613.597432 344.628624 
L 614.718477 343.766297 
L 615.839522 338.101832 
L 616.960566 339.335989 
L 618.081611 337.563866 
L 619.202656 339.557504 
L 620.3237 341.804303 
L 621.444745 343.797942 
L 622.56579 343.552692 
L 623.686835 340.625525 
L 624.807879 341.922972 
L 625.928924 337.271149 
L 627.049969 337.603422 
L 628.171013 340.84704 
L 629.292058 343.418201 
L 630.413103 341.123935 
L 631.534147 334.114555 
L 632.655192 333.513299 
L 633.776237 332.666794 
L 634.897282 350.514604 
L 636.018326 319.1148 
L 637.139371 341.582788 
L 638.260416 338.267968 
L 639.38146 328.687428 
L 640.502505 325.032425 
L 641.62355 325.665326 
L 642.744594 328.75863 
L 643.865639 330.063988 
L 644.986684 336.614514 
L 646.107729 331.883579 
L 647.228773 322.651134 
L 648.349818 321.709694 
L 649.470863 324.154274 
L 650.591907 317.002492 
L 651.712952 327.619408 
L 652.833997 331.662063 
L 653.955041 350.514604 
L 655.076086 289.542497 
L 656.197131 315.530997 
L 657.318176 314.328485 
L 658.43922 314.763605 
L 659.560265 350.514604 
L 660.68131 298.719562 
L 661.802354 321.923298 
L 662.923399 304.771679 
L 664.044444 308.110232 
L 665.165488 305.673563 
L 666.286533 307.398218 
L 667.407578 310.380765 
L 668.528623 324.526104 
L 669.649667 317.216096 
L 670.770712 280.254673 
L 671.891757 278.150277 
L 673.012801 287.066271 
L 674.133846 276.78954 
L 675.254891 289.93806 
L 676.375935 306.622915 
L 677.49698 283.775186 
L 678.618025 245.722008 
L 679.73907 257.422767 
L 680.860114 267.367225 
L 681.981159 243.119203 
L 683.102204 246.441933 
L 684.223248 278.047431 
L 685.344293 262.754959 
L 686.465338 212.122872 
L 687.586382 223.31731 
L 688.707427 202.083479 
L 689.828472 208.459957 
L 692.070561 253.823142 
L 693.191606 244.922971 
L 694.312651 196.197499 
L 695.433695 179.757893 
L 696.55474 158.50824 
L 697.675785 140.984791 
L 698.796829 219.306299 
L 699.917874 251.520964 
L 701.038919 227.89002 
L 702.159964 180.999962 
L 703.281008 169.267558 
L 704.402053 172.977941 
L 705.523098 179.552201 
L 707.765187 262.050856 
L 708.886232 251.346917 
L 710.007276 212.154517 
L 711.128321 220.492989 
L 712.249366 224.416976 
L 713.370411 234.21112 
L 714.491455 261.789784 
L 715.6125 293.482306 
L 716.733545 279.882844 
L 717.854589 222.035685 
L 718.975634 232.969052 
L 720.096679 241.979981 
L 721.217724 255.136412 
L 722.338768 273.632946 
L 723.459813 305.681474 
L 724.580858 289.336804 
L 725.701902 213.633924 
L 726.822947 242.715728 
L 727.943992 248.577974 
L 729.065036 252.272534 
L 730.186081 281.449274 
L 731.307126 306.417222 
L 732.428171 279.408168 
L 733.549215 245.587517 
L 734.67026 242.557503 
L 735.791305 243.530588 
L 736.912349 253.126951 
L 738.033394 271.576017 
L 739.154439 297.066108 
L 740.275483 298.774941 
L 741.396528 291.354176 
L 742.517573 237.612963 
L 743.638618 240.421462 
L 744.759662 247.509954 
L 745.880707 270.302304 
L 747.001752 287.358988 
L 748.122796 265.982754 
L 749.243841 234.005427 
L 750.364886 242.359721 
L 751.48593 237.288601 
L 752.606975 245.603339 
L 753.72802 265.484344 
L 754.849065 290.135841 
L 757.091154 245.682452 
L 758.212199 249.479858 
L 759.333243 255.223436 
L 760.454288 270.033321 
L 761.575333 289.281425 
L 762.696377 305.863433 
L 763.817422 294.471214 
L 764.938467 275.009506 
L 766.059512 277.715158 
L 767.180556 277.738892 
L 768.301601 283.980878 
L 769.422646 303.592901 
L 770.54369 317.936021 
L 771.664735 304.858703 
L 772.78578 295.618347 
L 773.906824 300.918894 
L 775.027869 303.972641 
L 776.148914 308.513706 
L 778.391003 329.628869 
L 780.633093 313.592738 
L 781.754137 317.17654 
L 782.875182 321.654315 
L 783.996227 324.518193 
L 785.117271 332.469012 
L 786.238316 338.616064 
L 787.359361 333.133558 
L 788.480406 327.041886 
L 789.60145 328.497558 
L 790.722495 332.627238 
L 792.964584 342.864413 
L 794.085629 345.941894 
L 795.206674 339.699907 
L 796.327718 350.514604 
L 797.448763 320.578383 
L 798.569808 337.579689 
L 799.690853 340.182494 
L 800.811897 344.114392 
L 801.932942 347.120672 
L 803.053987 344.438754 
L 804.175031 341.424563 
L 805.296076 342.690365 
L 806.417121 343.204597 
L 807.538165 344.059013 
L 808.65921 345.388106 
L 809.780255 348.92444 
L 812.022344 343.062194 
L 813.143389 343.022638 
L 814.264434 344.715648 
L 815.385478 345.617532 
L 817.627568 348.853239 
L 818.748613 346.938713 
L 819.869657 345.839048 
L 820.990702 346.400747 
L 822.111747 346.424481 
L 823.232791 346.962447 
L 825.474881 349.35956 
L 826.595925 347.895976 
L 827.71697 346.780488 
L 828.838015 346.297901 
L 829.95906 346.756754 
L 831.080104 348.164959 
L 832.201149 348.695014 
L 833.322194 349.67601 
L 834.443238 349.177601 
L 835.564283 347.79313 
L 836.685328 347.990911 
L 838.927417 347.682372 
L 840.048462 348.892795 
L 841.169507 349.596898 
L 842.290551 348.576345 
L 844.532641 347.698195 
L 845.653685 347.405478 
L 846.77473 348.093758 
L 847.895775 348.441853 
L 849.016819 349.438672 
L 850.137864 348.354829 
L 851.258909 346.036829 
L 852.379954 345.886515 
L 853.500998 344.272617 
L 854.622043 343.497314 
L 855.743088 345.079566 
L 856.864132 348.04629 
L 857.985177 203.475861 
L 859.106222 340.427743 
L 860.227266 331.01334 
L 862.469356 325.040336 
L 863.590401 327.904213 
L 864.711445 332.532302 
L 865.83249 315.918649 
L 866.953535 282.786278 
L 868.074579 259.25818 
L 869.195624 223.499269 
L 870.316669 221.038866 
L 872.558758 300.032832 
L 874.800848 193.539314 
L 875.921892 173.397238 
L 877.042937 200.066107 
L 878.163982 214.812702 
L 879.285026 50.8755 
L 880.406071 245.389735 
L 881.527116 161.775591 
L 882.64816 141.744272 
L 883.769205 154.433939 
L 884.89025 186.648604 
L 886.011295 223.301488 
L 887.132339 228.166915 
L 888.253384 283.181841 
L 889.374429 228.499188 
L 890.495473 183.602767 
L 891.616518 183.143914 
L 892.737563 201.411021 
L 893.858607 233.206389 
L 894.979652 306.187795 
L 896.100697 320.625851 
L 897.221742 293.426927 
L 898.342786 279.155008 
L 899.463831 247.842227 
L 900.584876 257.525613 
L 901.70592 273.039601 
L 902.826965 316.045229 
L 903.94801 326.179558 
L 905.069054 286.607418 
L 906.190099 262.652112 
L 907.311144 272.525369 
L 908.432189 277.264216 
L 909.553233 289.131111 
L 910.674278 315.056321 
L 911.795323 331.456371 
L 912.916367 305.673563 
L 914.037412 297.034463 
L 915.158457 303.703658 
L 917.400546 314.201905 
L 918.521591 329.478555 
L 919.642636 337.627156 
L 920.76368 321.583114 
L 921.884725 350.514604 
L 923.00577 284.99352 
L 924.126814 322.674868 
L 925.247859 326.393162 
L 926.368904 335.237955 
L 927.489949 339.976801 
L 928.610993 325.222295 
L 929.732038 314.826895 
L 930.853083 318.078424 
L 931.974127 320.538827 
L 933.095172 324.075162 
L 934.216217 332.904132 
L 935.337261 339.707818 
L 936.458306 326.108356 
L 937.579351 314.898096 
L 938.700396 324.676418 
L 939.82144 350.514604 
L 940.942485 301.979003 
L 942.06353 336.654071 
L 943.184574 340.799573 
L 944.305619 343.995723 
L 945.426664 305.990013 
L 946.547708 325.44381 
L 947.668753 327.872568 
L 948.789798 330.823469 
L 949.910843 337.468931 
L 951.031887 341.859682 
L 953.273977 321.250841 
L 954.395021 326.337783 
L 955.516066 328.363067 
L 956.637111 332.57977 
L 957.758155 338.995805 
L 958.8792 341.40874 
L 960.000245 332.049715 
L 961.12129 325.855196 
L 962.242334 331.440548 
L 963.363379 333.813927 
L 964.484424 332.160473 
L 965.605468 340.498945 
L 966.726513 344.304262 
L 967.847558 337.468931 
L 968.968602 334.731634 
L 970.089647 335.855033 
L 971.210692 335.499026 
L 972.331737 336.788562 
L 973.452781 341.440385 
L 974.573826 344.177682 
L 975.694871 339.15403 
L 976.815915 335.744275 
L 977.93696 335.736364 
L 979.058005 337.294883 
L 980.179049 338.093921 
L 981.300094 342.824856 
L 982.421139 345.206147 
L 983.542184 337.476842 
L 984.663228 334.850303 
L 985.784273 337.21577 
L 986.905318 338.188856 
L 988.026362 340.332808 
L 989.147407 343.481491 
L 990.268452 346.036829 
L 991.389496 343.299532 
L 992.510541 339.494214 
L 993.631586 333.742726 
L 994.752631 338.196767 
L 995.873675 338.671443 
L 996.99472 342.690365 
L 998.115765 345.91816 
L 999.236809 338.196767 
L 1000.357854 337.247415 
L 1001.478899 335.593961 
L 1002.599943 350.514604 
L 1003.720988 350.514604 
L 1004.842033 318.861639 
L 1005.963078 350.514604 
L 1007.084122 332.927866 
L 1008.205167 334.446828 
L 1009.326212 338.798023 
L 1010.447256 339.620794 
L 1011.568301 341.171402 
L 1012.689346 343.964078 
L 1013.810391 346.139676 
L 1014.931435 340.301163 
L 1016.05248 337.389818 
L 1017.173525 336.52749 
L 1018.294569 335.910412 
L 1019.415614 340.973621 
L 1020.536659 343.932433 
L 1021.657703 343.576426 
L 1022.778748 338.845491 
L 1023.899793 328.030793 
L 1025.020838 315.657577 
L 1026.141882 313.893366 
L 1027.262927 317.04996 
L 1028.383972 325.024513 
L 1029.505016 335.055995 
L 1030.626061 310.467789 
L 1031.747106 300.111945 
L 1032.86815 317.714506 
L 1035.11024 305.206798 
L 1036.231285 313.822164 
L 1037.352329 329.549756 
L 1038.473374 320.570472 
L 1039.594419 301.702109 
L 1040.715463 273.324407 
L 1041.836508 277.311683 
L 1042.957553 283.078994 
L 1044.078597 307.113413 
L 1045.199642 324.905844 
L 1046.320687 290.998169 
L 1047.441732 271.267478 
L 1048.562776 279.946134 
L 1049.683821 284.463466 
L 1050.804866 287.105828 
L 1051.92591 316.148076 
L 1053.046955 327.160555 
L 1054.168 310.198806 
L 1055.289044 285.80838 
L 1056.410089 350.514604 
L 1057.531134 242.818575 
L 1058.652179 310.807973 
L 1059.773223 325.040336 
L 1060.894268 337.366084 
L 1062.015313 317.073694 
L 1063.136357 308.711488 
L 1064.257402 320.451803 
L 1065.378447 324.613128 
L 1066.499491 318.284117 
L 1067.620536 336.480023 
L 1068.741581 342.571696 
L 1069.862626 328.315599 
L 1070.98367 329.57349 
L 1072.104715 327.018152 
L 1073.22576 334.470562 
L 1074.346804 337.413552 
L 1075.467849 341.59861 
L 1076.588894 350.514604 
L 1077.709938 328.458002 
L 1078.830983 333.95633 
L 1079.952028 334.881948 
L 1081.073073 337.927784 
L 1082.194117 342.801122 
L 1083.315162 342.903969 
L 1084.436207 346.274167 
L 1085.557251 344.897607 
L 1086.678296 335.45947 
L 1087.799341 335.198398 
L 1090.04143 350.514604 
L 1091.162475 335.048084 
L 1092.28352 348.212427 
L 1093.404564 350.514604 
L 1094.525609 333.782282 
L 1095.646654 342.207778 
L 1096.767698 343.030549 
L 1097.888743 343.070105 
L 1099.009788 346.519416 
L 1100.130832 348.837416 
L 1101.251877 347.801041 
L 1102.372922 347.033648 
L 1103.493967 350.514604 
L 1104.615011 347.35801 
L 1105.736056 347.508324 
L 1106.857101 342.065375 
L 1107.978145 350.514604 
L 1109.09919 346.614351 
L 1110.220235 350.514604 
L 1111.34128 341.653989 
L 1112.462324 347.626993 
L 1113.583369 350.514604 
L 1114.704414 350.514604 
L 1115.825458 344.929252 
L 1116.946503 350.514604 
L 1118.067548 346.630174 
L 1119.188592 350.514604 
L 1120.309637 350.514604 
L 1121.430682 340.348631 
L 1122.551727 350.514604 
L 1123.672771 350.514604 
L 1124.793816 341.47203 
L 1125.914861 346.163409 
L 1127.035905 347.571614 
L 1128.15695 348.006734 
L 1129.277995 350.514604 
L 1130.399039 350.514604 
L 1131.520084 343.805853 
L 1132.641129 350.514604 
L 1133.762174 350.514604 
L 1134.883218 340.862863 
L 1136.004263 347.714017 
L 1137.125308 350.514604 
L 1138.246352 346.013095 
L 1139.367397 350.514604 
L 1144.972621 350.514604 
L 1146.093665 336.693627 
L 1147.21471 350.514604 
L 1148.335755 350.158597 
L 1149.456799 350.514604 
L 1150.577844 349.217157 
L 1151.698889 350.514604 
L 1152.819933 343.829587 
L 1153.940978 348.623812 
L 1155.062023 348.307362 
L 1156.183068 348.513055 
L 1157.304112 348.204515 
L 1158.425157 348.497232 
L 1159.546202 348.410208 
L 1160.667246 348.766215 
L 1161.788291 350.514604 
L 1162.909336 348.378563 
L 1164.03038 348.876973 
L 1166.27247 348.149137 
L 1167.393515 348.560522 
L 1168.514559 348.845328 
L 1170.756649 349.929171 
L 1171.877693 348.726659 
L 1172.998738 348.299451 
L 1174.119783 348.125403 
L 1175.240827 348.568433 
L 1176.361872 349.185512 
L 1177.482917 349.256713 
L 1178.603962 349.660188 
L 1179.725006 350.514604 
L 1180.846051 346.35328 
L 1181.967096 348.339007 
L 1183.08814 347.911799 
L 1185.33023 349.501963 
L 1186.451274 349.881703 
L 1187.572319 348.623812 
L 1188.693364 348.441853 
L 1189.814409 347.658638 
L 1190.935453 348.307362 
L 1192.056498 348.505143 
L 1193.177543 350.514604 
L 1194.298587 348.323184 
L 1195.419632 350.514604 
L 1196.540677 348.117491 
L 1197.661721 346.155498 
L 1198.782766 349.312092 
L 1199.903811 350.514604 
L 1201.024856 347.437123 
L 1202.1459 348.647546 
L 1203.266945 348.030468 
L 1204.38799 350.514604 
L 1205.509034 345.237792 
L 1206.630079 348.077935 
L 1207.751124 350.514604 
L 1209.993213 350.514604 
L 1211.114258 344.794761 
L 1212.235303 347.808952 
L 1213.356347 348.244072 
L 1214.477392 347.674461 
L 1215.598437 350.514604 
L 1216.719481 346.843778 
L 1217.840526 349.454495 
L 1218.961571 347.666549 
L 1220.082616 347.658638 
L 1221.20366 346.79631 
L 1222.324705 347.381744 
L 1223.44575 347.468768 
L 1224.566794 350.514604 
L 1225.687839 347.555792 
L 1227.929928 347.160229 
L 1229.050973 347.302631 
L 1230.172018 347.223519 
L 1231.293063 350.514604 
L 1232.414107 350.514604 
L 1233.535152 345.032099 
L 1234.656197 347.595348 
L 1235.777241 347.753573 
L 1236.898286 347.579526 
L 1238.019331 347.270986 
L 1239.140375 349.114311 
L 1240.26142 347.223519 
L 1241.382465 349.343737 
L 1242.50351 347.801041 
L 1243.624554 347.539969 
L 1244.745599 346.804222 
L 1246.987688 350.514604 
L 1248.108733 348.892795 
L 1249.229778 344.834317 
L 1250.350822 347.065293 
L 1251.471867 346.337457 
L 1252.592912 346.677642 
L 1253.713957 345.696645 
L 1254.835001 346.843778 
L 1255.956046 350.514604 
L 1257.077091 341.329627 
L 1258.198135 341.187225 
L 1259.31918 345.427662 
L 1260.440225 346.891246 
L 1261.561269 345.783669 
L 1262.682314 350.514604 
L 1263.803359 350.514604 
L 1264.924404 343.394467 
L 1266.045448 347.508324 
L 1267.166493 343.845409 
L 1268.287538 346.448215 
L 1269.408582 347.10485 
L 1270.529627 350.514604 
L 1271.650672 347.16814 
L 1272.771716 348.394386 
L 1273.892761 346.835867 
L 1275.013806 346.994092 
L 1276.134851 347.998823 
L 1277.255895 348.04629 
L 1278.37694 348.5447 
L 1279.497985 349.383294 
L 1280.619029 349.683922 
L 1281.740074 348.73457 
L 1282.861119 348.133314 
L 1283.982163 343.560604 
L 1285.103208 347.832686 
L 1286.224253 348.070024 
L 1287.345298 348.995642 
L 1288.466342 350.514604 
L 1289.587387 348.853239 
L 1290.708432 350.514604 
L 1291.829476 345.150768 
L 1292.950521 347.207696 
L 1294.071566 350.23771 
L 1295.19261 350.514604 
L 1296.313655 350.514604 
L 1297.4347 347.48459 
L 1298.555745 350.514604 
L 1299.676789 348.244072 
L 1300.797834 347.286809 
L 1301.918879 347.619082 
L 1303.039923 349.312092 
L 1304.160968 349.865881 
L 1305.282013 349.29627 
L 1306.403058 349.367471 
L 1307.524102 350.514604 
L 1308.645147 347.207696 
L 1308.645147 347.207696 
" clip-path="url(#p5327513fbc)" style="fill: none; stroke: #0000ff; stroke-width: 1.5; stroke-linecap: square"/>
   </g>
   <g id="line2d_20">
    <path d="M 1068.741581 344.852596 
L 1069.862626 330.225117 
L 1070.98367 319.70633 
L 1072.104715 338.795389 
L 1073.22576 317.386654 
L 1074.346804 334.43758 
L 1075.467849 348.011899 
L 1076.588894 351.46131 
L 1077.709938 339.485361 
L 1078.830983 330.449281 
L 1079.952028 338.246562 
L 1081.073073 331.495374 
L 1083.315162 348.603258 
L 1084.436207 352.251703 
L 1085.557251 336.378688 
L 1086.678296 339.933211 
L 1087.799341 341.351184 
L 1088.920385 337.181788 
L 1091.162475 350.492139 
L 1092.28352 347.926832 
L 1093.404564 341.145253 
L 1094.525609 341.854616 
L 1095.646654 339.886511 
L 1096.767698 342.827267 
L 1097.888743 347.744836 
L 1099.009788 342.079729 
L 1100.130832 350.59312 
L 1101.251877 347.291498 
L 1102.372922 340.060336 
L 1103.493967 346.763574 
L 1104.615011 349.613461 
L 1105.736056 350.985554 
L 1106.857101 348.918341 
L 1107.978145 349.939613 
L 1109.09919 348.599085 
L 1110.220235 343.864313 
L 1111.34128 349.742021 
L 1112.462324 345.724429 
L 1113.583369 347.739922 
L 1114.704414 346.777833 
L 1115.825458 353.2755 
L 1116.946503 347.525935 
L 1118.067548 348.306831 
L 1119.188592 345.940872 
L 1120.309637 349.760159 
L 1121.430682 351.669159 
L 1122.551727 345.70876 
L 1123.672771 348.208306 
L 1124.793816 350.124776 
L 1125.914861 344.76749 
L 1127.035905 345.933363 
L 1128.15695 347.532049 
L 1129.277995 344.962416 
L 1130.399039 350.405365 
L 1131.520084 350.653201 
L 1132.641129 344.975448 
L 1133.762174 348.237521 
L 1134.883218 349.987162 
L 1136.004263 346.609136 
L 1137.125308 346.618942 
L 1138.246352 349.777421 
L 1139.367397 345.904226 
L 1140.488442 348.931792 
L 1141.609486 350.034058 
L 1142.730531 347.249244 
L 1143.851576 351.333768 
L 1144.972621 351.726552 
L 1146.093665 350.343134 
L 1147.21471 344.904433 
L 1148.335755 347.835793 
L 1149.456799 349.044748 
L 1150.577844 348.234029 
L 1151.698889 349.951529 
L 1152.819933 350.55794 
L 1153.940978 342.409319 
L 1155.062023 350.154253 
L 1156.183068 349.469351 
L 1157.304112 349.275686 
L 1158.425157 347.658001 
L 1159.546202 349.09877 
L 1160.667246 346.646699 
L 1161.788291 346.705893 
L 1162.909336 350.691311 
L 1164.03038 349.815787 
L 1165.151425 349.408033 
L 1166.27247 348.587776 
L 1167.393515 348.888117 
L 1168.514559 347.827961 
L 1169.635604 348.461999 
L 1170.756649 349.232865 
L 1171.877693 349.770562 
L 1172.998738 349.209937 
L 1174.119783 348.448175 
L 1175.240827 348.688856 
L 1176.361872 348.291568 
L 1177.482917 348.949022 
L 1178.603962 349.469921 
L 1179.725006 349.247615 
L 1180.846051 349.596487 
L 1181.967096 347.951128 
L 1183.08814 348.457996 
L 1184.209185 348.268962 
L 1185.33023 348.619375 
L 1186.451274 349.330346 
L 1187.572319 349.719669 
L 1188.693364 347.697476 
L 1189.814409 348.596934 
L 1190.935453 348.204819 
L 1193.177543 348.880507 
L 1194.298587 349.880567 
L 1195.419632 348.839268 
L 1196.540677 348.754389 
L 1197.661721 348.484176 
L 1198.782766 347.706952 
L 1199.903811 348.619594 
L 1201.024856 350.310175 
L 1202.1459 348.441008 
L 1203.266945 349.117058 
L 1204.38799 347.417747 
L 1205.509034 348.081115 
L 1206.630079 348.059702 
L 1207.751124 348.591063 
L 1208.872169 348.773969 
L 1209.993213 349.649642 
L 1211.114258 350.093809 
L 1212.235303 348.065556 
L 1213.356347 345.78694 
L 1214.477392 348.429089 
L 1215.598437 349.20368 
L 1216.719481 349.457121 
L 1217.840526 348.381392 
L 1218.961571 346.888027 
L 1220.082616 348.406931 
L 1221.20366 347.185017 
L 1222.324705 347.580571 
L 1223.44575 349.01686 
L 1224.566794 346.913876 
L 1225.687839 349.41385 
L 1226.808884 347.036837 
L 1227.929928 347.751857 
L 1229.050973 346.760599 
L 1231.293063 348.131706 
L 1232.414107 349.534013 
L 1233.535152 349.382599 
L 1234.656197 346.671335 
L 1235.777241 347.273127 
L 1236.898286 347.175749 
L 1238.019331 347.554203 
L 1239.140375 348.948864 
L 1240.26142 349.198891 
L 1241.382465 346.15291 
L 1242.50351 348.031795 
L 1243.624554 348.08397 
L 1245.866644 347.267821 
L 1246.987688 349.225775 
L 1248.108733 349.212679 
L 1249.229778 348.753178 
L 1250.350822 346.754569 
L 1251.471867 346.872165 
L 1252.592912 346.282912 
L 1254.835001 347.808821 
L 1255.956046 346.5482 
L 1257.077091 346.700473 
L 1258.198135 345.002771 
L 1259.31918 343.085273 
L 1260.440225 344.047303 
L 1262.682314 346.520046 
L 1263.803359 349.124582 
L 1264.924404 345.769276 
L 1266.045448 344.995426 
L 1267.166493 347.436123 
L 1268.287538 346.361518 
L 1269.408582 345.994091 
L 1270.529627 348.628787 
L 1271.650672 349.868676 
L 1272.771716 344.301234 
L 1273.892761 347.634446 
L 1275.013806 346.665501 
L 1276.134851 347.948647 
L 1277.255895 348.003128 
L 1278.37694 350.251264 
L 1279.497985 348.549137 
L 1280.619029 347.211108 
L 1281.740074 348.494762 
L 1282.861119 348.352731 
L 1283.982163 349.159422 
L 1285.103208 346.762346 
L 1286.224253 348.479236 
L 1288.466342 347.786794 
L 1289.587387 348.741707 
L 1291.829476 348.196122 
L 1294.071566 348.559146 
L 1295.19261 349.526082 
L 1296.313655 350.136683 
L 1298.555745 349.108187 
L 1299.676789 347.290587 
L 1300.797834 349.148449 
L 1301.918879 349.729348 
L 1303.039923 349.025558 
L 1304.160968 349.2378 
L 1305.282013 348.121333 
L 1306.403058 349.889671 
L 1307.524102 347.697329 
L 1308.645147 349.285204 
L 1308.645147 349.285204 
" clip-path="url(#p5327513fbc)" style="fill: none; stroke: #ffa500; stroke-width: 1.5; stroke-linecap: square"/>
   </g>
   <g id="line2d_21">
    <path d="M 1309.766192 349.171482 
L 1310.887236 349.863726 
L 1312.008281 350.09916 
L 1313.129326 349.228596 
L 1314.25037 349.862408 
L 1315.371415 349.310719 
L 1316.49246 348.33569 
L 1317.613505 349.400914 
L 1318.734549 349.977022 
L 1319.855594 350.172958 
L 1320.976639 349.448446 
L 1322.097683 349.975925 
L 1323.218728 349.516792 
L 1324.339773 348.705341 
" clip-path="url(#p5327513fbc)" style="fill: none; stroke: #ff0000; stroke-width: 1.5; stroke-linecap: square"/>
   </g>
   <g id="patch_3">
    <path d="M 46.0125 368.3955 
L 46.0125 35.7555 
" style="fill: none; stroke: #000000; stroke-width: 0.8; stroke-linejoin: miter; stroke-linecap: square"/>
   </g>
   <g id="patch_4">
    <path d="M 1385.2125 368.3955 
L 1385.2125 35.7555 
" style="fill: none; stroke: #000000; stroke-width: 0.8; stroke-linejoin: miter; stroke-linecap: square"/>
   </g>
   <g id="patch_5">
    <path d="M 46.0125 368.3955 
L 1385.2125 368.3955 
" style="fill: none; stroke: #000000; stroke-width: 0.8; stroke-linejoin: miter; stroke-linecap: square"/>
   </g>
   <g id="patch_6">
    <path d="M 46.0125 35.7555 
L 1385.2125 35.7555 
" style="fill: none; stroke: #000000; stroke-width: 0.8; stroke-linejoin: miter; stroke-linecap: square"/>
   </g>
   <g id="text_19">
    <!-- Daily Confirmed Cases Forecasting - South Africa -->
    <g transform="translate(568.659375 16.318125)scale(0.12 -0.12)">
     <defs>
      <path id="DejaVuSans-44" d="M 1259 4147 
L 1259 519 
L 2022 519 
Q 2988 519 3436 956 
Q 3884 1394 3884 2338 
Q 3884 3275 3436 3711 
Q 2988 4147 2022 4147 
L 1259 4147 
z
M 628 4666 
L 1925 4666 
Q 3281 4666 3915 4102 
Q 4550 3538 4550 2338 
Q 4550 1131 3912 565 
Q 3275 0 1925 0 
L 628 0 
L 628 4666 
z
" transform="scale(0.015625)"/>
      <path id="DejaVuSans-61" d="M 2194 1759 
Q 1497 1759 1228 1600 
Q 959 1441 959 1056 
Q 959 750 1161 570 
Q 1363 391 1709 391 
Q 2188 391 2477 730 
Q 2766 1069 2766 1631 
L 2766 1759 
L 2194 1759 
z
M 3341 1997 
L 3341 0 
L 2766 0 
L 2766 531 
Q 2569 213 2275 61 
Q 1981 -91 1556 -91 
Q 1019 -91 701 211 
Q 384 513 384 1019 
Q 384 1609 779 1909 
Q 1175 2209 1959 2209 
L 2766 2209 
L 2766 2266 
Q 2766 2663 2505 2880 
Q 2244 3097 1772 3097 
Q 1472 3097 1187 3025 
Q 903 2953 641 2809 
L 641 3341 
Q 956 3463 1253 3523 
Q 1550 3584 1831 3584 
Q 2591 3584 2966 3190 
Q 3341 2797 3341 1997 
z
" transform="scale(0.015625)"/>
      <path id="DejaVuSans-69" d="M 603 3500 
L 1178 3500 
L 1178 0 
L 603 0 
L 603 3500 
z
M 603 4863 
L 1178 4863 
L 1178 4134 
L 603 4134 
L 603 4863 
z
" transform="scale(0.015625)"/>
      <path id="DejaVuSans-6c" d="M 603 4863 
L 1178 4863 
L 1178 0 
L 603 0 
L 603 4863 
z
" transform="scale(0.015625)"/>
      <path id="DejaVuSans-79" d="M 2059 -325 
Q 1816 -950 1584 -1140 
Q 1353 -1331 966 -1331 
L 506 -1331 
L 506 -850 
L 844 -850 
Q 1081 -850 1212 -737 
Q 1344 -625 1503 -206 
L 1606 56 
L 191 3500 
L 800 3500 
L 1894 763 
L 2988 3500 
L 3597 3500 
L 2059 -325 
z
" transform="scale(0.015625)"/>
      <path id="DejaVuSans-20" transform="scale(0.015625)"/>
      <path id="DejaVuSans-43" d="M 4122 4306 
L 4122 3641 
Q 3803 3938 3442 4084 
Q 3081 4231 2675 4231 
Q 1875 4231 1450 3742 
Q 1025 3253 1025 2328 
Q 1025 1406 1450 917 
Q 1875 428 2675 428 
Q 3081 428 3442 575 
Q 3803 722 4122 1019 
L 4122 359 
Q 3791 134 3420 21 
Q 3050 -91 2638 -91 
Q 1578 -91 968 557 
Q 359 1206 359 2328 
Q 359 3453 968 4101 
Q 1578 4750 2638 4750 
Q 3056 4750 3426 4639 
Q 3797 4528 4122 4306 
z
" transform="scale(0.015625)"/>
      <path id="DejaVuSans-6f" d="M 1959 3097 
Q 1497 3097 1228 2736 
Q 959 2375 959 1747 
Q 959 1119 1226 758 
Q 1494 397 1959 397 
Q 2419 397 2687 759 
Q 2956 1122 2956 1747 
Q 2956 2369 2687 2733 
Q 2419 3097 1959 3097 
z
M 1959 3584 
Q 2709 3584 3137 3096 
Q 3566 2609 3566 1747 
Q 3566 888 3137 398 
Q 2709 -91 1959 -91 
Q 1206 -91 779 398 
Q 353 888 353 1747 
Q 353 2609 779 3096 
Q 1206 3584 1959 3584 
z
" transform="scale(0.015625)"/>
      <path id="DejaVuSans-6e" d="M 3513 2113 
L 3513 0 
L 2938 0 
L 2938 2094 
Q 2938 2591 2744 2837 
Q 2550 3084 2163 3084 
Q 1697 3084 1428 2787 
Q 1159 2491 1159 1978 
L 1159 0 
L 581 0 
L 581 3500 
L 1159 3500 
L 1159 2956 
Q 1366 3272 1645 3428 
Q 1925 3584 2291 3584 
Q 2894 3584 3203 3211 
Q 3513 2838 3513 2113 
z
" transform="scale(0.015625)"/>
      <path id="DejaVuSans-66" d="M 2375 4863 
L 2375 4384 
L 1825 4384 
Q 1516 4384 1395 4259 
Q 1275 4134 1275 3809 
L 1275 3500 
L 2222 3500 
L 2222 3053 
L 1275 3053 
L 1275 0 
L 697 0 
L 697 3053 
L 147 3053 
L 147 3500 
L 697 3500 
L 697 3744 
Q 697 4328 969 4595 
Q 1241 4863 1831 4863 
L 2375 4863 
z
" transform="scale(0.015625)"/>
      <path id="DejaVuSans-72" d="M 2631 2963 
Q 2534 3019 2420 3045 
Q 2306 3072 2169 3072 
Q 1681 3072 1420 2755 
Q 1159 2438 1159 1844 
L 1159 0 
L 581 0 
L 581 3500 
L 1159 3500 
L 1159 2956 
Q 1341 3275 1631 3429 
Q 1922 3584 2338 3584 
Q 2397 3584 2469 3576 
Q 2541 3569 2628 3553 
L 2631 2963 
z
" transform="scale(0.015625)"/>
      <path id="DejaVuSans-6d" d="M 3328 2828 
Q 3544 3216 3844 3400 
Q 4144 3584 4550 3584 
Q 5097 3584 5394 3201 
Q 5691 2819 5691 2113 
L 5691 0 
L 5113 0 
L 5113 2094 
Q 5113 2597 4934 2840 
Q 4756 3084 4391 3084 
Q 3944 3084 3684 2787 
Q 3425 2491 3425 1978 
L 3425 0 
L 2847 0 
L 2847 2094 
Q 2847 2600 2669 2842 
Q 2491 3084 2119 3084 
Q 1678 3084 1418 2786 
Q 1159 2488 1159 1978 
L 1159 0 
L 581 0 
L 581 3500 
L 1159 3500 
L 1159 2956 
Q 1356 3278 1631 3431 
Q 1906 3584 2284 3584 
Q 2666 3584 2933 3390 
Q 3200 3197 3328 2828 
z
" transform="scale(0.015625)"/>
      <path id="DejaVuSans-65" d="M 3597 1894 
L 3597 1613 
L 953 1613 
Q 991 1019 1311 708 
Q 1631 397 2203 397 
Q 2534 397 2845 478 
Q 3156 559 3463 722 
L 3463 178 
Q 3153 47 2828 -22 
Q 2503 -91 2169 -91 
Q 1331 -91 842 396 
Q 353 884 353 1716 
Q 353 2575 817 3079 
Q 1281 3584 2069 3584 
Q 2775 3584 3186 3129 
Q 3597 2675 3597 1894 
z
M 3022 2063 
Q 3016 2534 2758 2815 
Q 2500 3097 2075 3097 
Q 1594 3097 1305 2825 
Q 1016 2553 972 2059 
L 3022 2063 
z
" transform="scale(0.015625)"/>
      <path id="DejaVuSans-64" d="M 2906 2969 
L 2906 4863 
L 3481 4863 
L 3481 0 
L 2906 0 
L 2906 525 
Q 2725 213 2448 61 
Q 2172 -91 1784 -91 
Q 1150 -91 751 415 
Q 353 922 353 1747 
Q 353 2572 751 3078 
Q 1150 3584 1784 3584 
Q 2172 3584 2448 3432 
Q 2725 3281 2906 2969 
z
M 947 1747 
Q 947 1113 1208 752 
Q 1469 391 1925 391 
Q 2381 391 2643 752 
Q 2906 1113 2906 1747 
Q 2906 2381 2643 2742 
Q 2381 3103 1925 3103 
Q 1469 3103 1208 2742 
Q 947 2381 947 1747 
z
" transform="scale(0.015625)"/>
      <path id="DejaVuSans-73" d="M 2834 3397 
L 2834 2853 
Q 2591 2978 2328 3040 
Q 2066 3103 1784 3103 
Q 1356 3103 1142 2972 
Q 928 2841 928 2578 
Q 928 2378 1081 2264 
Q 1234 2150 1697 2047 
L 1894 2003 
Q 2506 1872 2764 1633 
Q 3022 1394 3022 966 
Q 3022 478 2636 193 
Q 2250 -91 1575 -91 
Q 1294 -91 989 -36 
Q 684 19 347 128 
L 347 722 
Q 666 556 975 473 
Q 1284 391 1588 391 
Q 1994 391 2212 530 
Q 2431 669 2431 922 
Q 2431 1156 2273 1281 
Q 2116 1406 1581 1522 
L 1381 1569 
Q 847 1681 609 1914 
Q 372 2147 372 2553 
Q 372 3047 722 3315 
Q 1072 3584 1716 3584 
Q 2034 3584 2315 3537 
Q 2597 3491 2834 3397 
z
" transform="scale(0.015625)"/>
      <path id="DejaVuSans-46" d="M 628 4666 
L 3309 4666 
L 3309 4134 
L 1259 4134 
L 1259 2759 
L 3109 2759 
L 3109 2228 
L 1259 2228 
L 1259 0 
L 628 0 
L 628 4666 
z
" transform="scale(0.015625)"/>
      <path id="DejaVuSans-63" d="M 3122 3366 
L 3122 2828 
Q 2878 2963 2633 3030 
Q 2388 3097 2138 3097 
Q 1578 3097 1268 2742 
Q 959 2388 959 1747 
Q 959 1106 1268 751 
Q 1578 397 2138 397 
Q 2388 397 2633 464 
Q 2878 531 3122 666 
L 3122 134 
Q 2881 22 2623 -34 
Q 2366 -91 2075 -91 
Q 1284 -91 818 406 
Q 353 903 353 1747 
Q 353 2603 823 3093 
Q 1294 3584 2113 3584 
Q 2378 3584 2631 3529 
Q 2884 3475 3122 3366 
z
" transform="scale(0.015625)"/>
      <path id="DejaVuSans-74" d="M 1172 4494 
L 1172 3500 
L 2356 3500 
L 2356 3053 
L 1172 3053 
L 1172 1153 
Q 1172 725 1289 603 
Q 1406 481 1766 481 
L 2356 481 
L 2356 0 
L 1766 0 
Q 1100 0 847 248 
Q 594 497 594 1153 
L 594 3053 
L 172 3053 
L 172 3500 
L 594 3500 
L 594 4494 
L 1172 4494 
z
" transform="scale(0.015625)"/>
      <path id="DejaVuSans-67" d="M 2906 1791 
Q 2906 2416 2648 2759 
Q 2391 3103 1925 3103 
Q 1463 3103 1205 2759 
Q 947 2416 947 1791 
Q 947 1169 1205 825 
Q 1463 481 1925 481 
Q 2391 481 2648 825 
Q 2906 1169 2906 1791 
z
M 3481 434 
Q 3481 -459 3084 -895 
Q 2688 -1331 1869 -1331 
Q 1566 -1331 1297 -1286 
Q 1028 -1241 775 -1147 
L 775 -588 
Q 1028 -725 1275 -790 
Q 1522 -856 1778 -856 
Q 2344 -856 2625 -561 
Q 2906 -266 2906 331 
L 2906 616 
Q 2728 306 2450 153 
Q 2172 0 1784 0 
Q 1141 0 747 490 
Q 353 981 353 1791 
Q 353 2603 747 3093 
Q 1141 3584 1784 3584 
Q 2172 3584 2450 3431 
Q 2728 3278 2906 2969 
L 2906 3500 
L 3481 3500 
L 3481 434 
z
" transform="scale(0.015625)"/>
      <path id="DejaVuSans-53" d="M 3425 4513 
L 3425 3897 
Q 3066 4069 2747 4153 
Q 2428 4238 2131 4238 
Q 1616 4238 1336 4038 
Q 1056 3838 1056 3469 
Q 1056 3159 1242 3001 
Q 1428 2844 1947 2747 
L 2328 2669 
Q 3034 2534 3370 2195 
Q 3706 1856 3706 1288 
Q 3706 609 3251 259 
Q 2797 -91 1919 -91 
Q 1588 -91 1214 -16 
Q 841 59 441 206 
L 441 856 
Q 825 641 1194 531 
Q 1563 422 1919 422 
Q 2459 422 2753 634 
Q 3047 847 3047 1241 
Q 3047 1584 2836 1778 
Q 2625 1972 2144 2069 
L 1759 2144 
Q 1053 2284 737 2584 
Q 422 2884 422 3419 
Q 422 4038 858 4394 
Q 1294 4750 2059 4750 
Q 2388 4750 2728 4690 
Q 3069 4631 3425 4513 
z
" transform="scale(0.015625)"/>
      <path id="DejaVuSans-75" d="M 544 1381 
L 544 3500 
L 1119 3500 
L 1119 1403 
Q 1119 906 1312 657 
Q 1506 409 1894 409 
Q 2359 409 2629 706 
Q 2900 1003 2900 1516 
L 2900 3500 
L 3475 3500 
L 3475 0 
L 2900 0 
L 2900 538 
Q 2691 219 2414 64 
Q 2138 -91 1772 -91 
Q 1169 -91 856 284 
Q 544 659 544 1381 
z
M 1991 3584 
L 1991 3584 
z
" transform="scale(0.015625)"/>
      <path id="DejaVuSans-68" d="M 3513 2113 
L 3513 0 
L 2938 0 
L 2938 2094 
Q 2938 2591 2744 2837 
Q 2550 3084 2163 3084 
Q 1697 3084 1428 2787 
Q 1159 2491 1159 1978 
L 1159 0 
L 581 0 
L 581 4863 
L 1159 4863 
L 1159 2956 
Q 1366 3272 1645 3428 
Q 1925 3584 2291 3584 
Q 2894 3584 3203 3211 
Q 3513 2838 3513 2113 
z
" transform="scale(0.015625)"/>
      <path id="DejaVuSans-41" d="M 2188 4044 
L 1331 1722 
L 3047 1722 
L 2188 4044 
z
M 1831 4666 
L 2547 4666 
L 4325 0 
L 3669 0 
L 3244 1197 
L 1141 1197 
L 716 0 
L 50 0 
L 1831 4666 
z
" transform="scale(0.015625)"/>
     </defs>
     <use xlink:href="#DejaVuSans-44"/>
     <use xlink:href="#DejaVuSans-61" x="77.001953"/>
     <use xlink:href="#DejaVuSans-69" x="138.28125"/>
     <use xlink:href="#DejaVuSans-6c" x="166.064453"/>
     <use xlink:href="#DejaVuSans-79" x="193.847656"/>
     <use xlink:href="#DejaVuSans-20" x="253.027344"/>
     <use xlink:href="#DejaVuSans-43" x="284.814453"/>
     <use xlink:href="#DejaVuSans-6f" x="354.638672"/>
     <use xlink:href="#DejaVuSans-6e" x="415.820312"/>
     <use xlink:href="#DejaVuSans-66" x="479.199219"/>
     <use xlink:href="#DejaVuSans-69" x="514.404297"/>
     <use xlink:href="#DejaVuSans-72" x="542.1875"/>
     <use xlink:href="#DejaVuSans-6d" x="581.550781"/>
     <use xlink:href="#DejaVuSans-65" x="678.962891"/>
     <use xlink:href="#DejaVuSans-64" x="740.486328"/>
     <use xlink:href="#DejaVuSans-20" x="803.962891"/>
     <use xlink:href="#DejaVuSans-43" x="835.75"/>
     <use xlink:href="#DejaVuSans-61" x="905.574219"/>
     <use xlink:href="#DejaVuSans-73" x="966.853516"/>
     <use xlink:href="#DejaVuSans-65" x="1018.953125"/>
     <use xlink:href="#DejaVuSans-73" x="1080.476562"/>
     <use xlink:href="#DejaVuSans-20" x="1132.576172"/>
     <use xlink:href="#DejaVuSans-46" x="1164.363281"/>
     <use xlink:href="#DejaVuSans-6f" x="1218.257812"/>
     <use xlink:href="#DejaVuSans-72" x="1279.439453"/>
     <use xlink:href="#DejaVuSans-65" x="1318.302734"/>
     <use xlink:href="#DejaVuSans-63" x="1379.826172"/>
     <use xlink:href="#DejaVuSans-61" x="1434.806641"/>
     <use xlink:href="#DejaVuSans-73" x="1496.085938"/>
     <use xlink:href="#DejaVuSans-74" x="1548.185547"/>
     <use xlink:href="#DejaVuSans-69" x="1587.394531"/>
     <use xlink:href="#DejaVuSans-6e" x="1615.177734"/>
     <use xlink:href="#DejaVuSans-67" x="1678.556641"/>
     <use xlink:href="#DejaVuSans-20" x="1742.033203"/>
     <use xlink:href="#DejaVuSans-2d" x="1773.820312"/>
     <use xlink:href="#DejaVuSans-20" x="1809.904297"/>
     <use xlink:href="#DejaVuSans-53" x="1841.691406"/>
     <use xlink:href="#DejaVuSans-6f" x="1905.167969"/>
     <use xlink:href="#DejaVuSans-75" x="1966.349609"/>
     <use xlink:href="#DejaVuSans-74" x="2029.728516"/>
     <use xlink:href="#DejaVuSans-68" x="2068.9375"/>
     <use xlink:href="#DejaVuSans-20" x="2132.316406"/>
     <use xlink:href="#DejaVuSans-41" x="2164.103516"/>
     <use xlink:href="#DejaVuSans-66" x="2228.886719"/>
     <use xlink:href="#DejaVuSans-72" x="2264.091797"/>
     <use xlink:href="#DejaVuSans-69" x="2305.205078"/>
     <use xlink:href="#DejaVuSans-63" x="2332.988281"/>
     <use xlink:href="#DejaVuSans-61" x="2387.96875"/>
    </g>
    <!-- ARIMA (0, 1, 1)x(1, 0, 1, 7) (R2 = 0.226657) -->
    <g transform="translate(583.628438 29.7555)scale(0.12 -0.12)">
     <defs>
      <path id="DejaVuSans-52" d="M 2841 2188 
Q 3044 2119 3236 1894 
Q 3428 1669 3622 1275 
L 4263 0 
L 3584 0 
L 2988 1197 
Q 2756 1666 2539 1819 
Q 2322 1972 1947 1972 
L 1259 1972 
L 1259 0 
L 628 0 
L 628 4666 
L 2053 4666 
Q 2853 4666 3247 4331 
Q 3641 3997 3641 3322 
Q 3641 2881 3436 2590 
Q 3231 2300 2841 2188 
z
M 1259 4147 
L 1259 2491 
L 2053 2491 
Q 2509 2491 2742 2702 
Q 2975 2913 2975 3322 
Q 2975 3731 2742 3939 
Q 2509 4147 2053 4147 
L 1259 4147 
z
" transform="scale(0.015625)"/>
      <path id="DejaVuSans-49" d="M 628 4666 
L 1259 4666 
L 1259 0 
L 628 0 
L 628 4666 
z
" transform="scale(0.015625)"/>
      <path id="DejaVuSans-4d" d="M 628 4666 
L 1569 4666 
L 2759 1491 
L 3956 4666 
L 4897 4666 
L 4897 0 
L 4281 0 
L 4281 4097 
L 3078 897 
L 2444 897 
L 1241 4097 
L 1241 0 
L 628 0 
L 628 4666 
z
" transform="scale(0.015625)"/>
      <path id="DejaVuSans-28" d="M 1984 4856 
Q 1566 4138 1362 3434 
Q 1159 2731 1159 2009 
Q 1159 1288 1364 580 
Q 1569 -128 1984 -844 
L 1484 -844 
Q 1016 -109 783 600 
Q 550 1309 550 2009 
Q 550 2706 781 3412 
Q 1013 4119 1484 4856 
L 1984 4856 
z
" transform="scale(0.015625)"/>
      <path id="DejaVuSans-2c" d="M 750 794 
L 1409 794 
L 1409 256 
L 897 -744 
L 494 -744 
L 750 256 
L 750 794 
z
" transform="scale(0.015625)"/>
      <path id="DejaVuSans-29" d="M 513 4856 
L 1013 4856 
Q 1481 4119 1714 3412 
Q 1947 2706 1947 2009 
Q 1947 1309 1714 600 
Q 1481 -109 1013 -844 
L 513 -844 
Q 928 -128 1133 580 
Q 1338 1288 1338 2009 
Q 1338 2731 1133 3434 
Q 928 4138 513 4856 
z
" transform="scale(0.015625)"/>
      <path id="DejaVuSans-78" d="M 3513 3500 
L 2247 1797 
L 3578 0 
L 2900 0 
L 1881 1375 
L 863 0 
L 184 0 
L 1544 1831 
L 300 3500 
L 978 3500 
L 1906 2253 
L 2834 3500 
L 3513 3500 
z
" transform="scale(0.015625)"/>
      <path id="DejaVuSans-37" d="M 525 4666 
L 3525 4666 
L 3525 4397 
L 1831 0 
L 1172 0 
L 2766 4134 
L 525 4134 
L 525 4666 
z
" transform="scale(0.015625)"/>
      <path id="DejaVuSans-3d" d="M 678 2906 
L 4684 2906 
L 4684 2381 
L 678 2381 
L 678 2906 
z
M 678 1631 
L 4684 1631 
L 4684 1100 
L 678 1100 
L 678 1631 
z
" transform="scale(0.015625)"/>
      <path id="DejaVuSans-2e" d="M 684 794 
L 1344 794 
L 1344 0 
L 684 0 
L 684 794 
z
" transform="scale(0.015625)"/>
      <path id="DejaVuSans-36" d="M 2113 2584 
Q 1688 2584 1439 2293 
Q 1191 2003 1191 1497 
Q 1191 994 1439 701 
Q 1688 409 2113 409 
Q 2538 409 2786 701 
Q 3034 994 3034 1497 
Q 3034 2003 2786 2293 
Q 2538 2584 2113 2584 
z
M 3366 4563 
L 3366 3988 
Q 3128 4100 2886 4159 
Q 2644 4219 2406 4219 
Q 1781 4219 1451 3797 
Q 1122 3375 1075 2522 
Q 1259 2794 1537 2939 
Q 1816 3084 2150 3084 
Q 2853 3084 3261 2657 
Q 3669 2231 3669 1497 
Q 3669 778 3244 343 
Q 2819 -91 2113 -91 
Q 1303 -91 875 529 
Q 447 1150 447 2328 
Q 447 3434 972 4092 
Q 1497 4750 2381 4750 
Q 2619 4750 2861 4703 
Q 3103 4656 3366 4563 
z
" transform="scale(0.015625)"/>
     </defs>
     <use xlink:href="#DejaVuSans-41"/>
     <use xlink:href="#DejaVuSans-52" x="68.408203"/>
     <use xlink:href="#DejaVuSans-49" x="137.890625"/>
     <use xlink:href="#DejaVuSans-4d" x="167.382812"/>
     <use xlink:href="#DejaVuSans-41" x="253.662109"/>
     <use xlink:href="#DejaVuSans-20" x="322.070312"/>
     <use xlink:href="#DejaVuSans-28" x="353.857422"/>
     <use xlink:href="#DejaVuSans-30" x="392.871094"/>
     <use xlink:href="#DejaVuSans-2c" x="456.494141"/>
     <use xlink:href="#DejaVuSans-20" x="488.28125"/>
     <use xlink:href="#DejaVuSans-31" x="520.068359"/>
     <use xlink:href="#DejaVuSans-2c" x="583.691406"/>
     <use xlink:href="#DejaVuSans-20" x="615.478516"/>
     <use xlink:href="#DejaVuSans-31" x="647.265625"/>
     <use xlink:href="#DejaVuSans-29" x="710.888672"/>
     <use xlink:href="#DejaVuSans-78" x="749.902344"/>
     <use xlink:href="#DejaVuSans-28" x="809.082031"/>
     <use xlink:href="#DejaVuSans-31" x="848.095703"/>
     <use xlink:href="#DejaVuSans-2c" x="911.71875"/>
     <use xlink:href="#DejaVuSans-20" x="943.505859"/>
     <use xlink:href="#DejaVuSans-30" x="975.292969"/>
     <use xlink:href="#DejaVuSans-2c" x="1038.916016"/>
     <use xlink:href="#DejaVuSans-20" x="1070.703125"/>
     <use xlink:href="#DejaVuSans-31" x="1102.490234"/>
     <use xlink:href="#DejaVuSans-2c" x="1166.113281"/>
     <use xlink:href="#DejaVuSans-20" x="1197.900391"/>
     <use xlink:href="#DejaVuSans-37" x="1229.6875"/>
     <use xlink:href="#DejaVuSans-29" x="1293.310547"/>
     <use xlink:href="#DejaVuSans-20" x="1332.324219"/>
     <use xlink:href="#DejaVuSans-28" x="1364.111328"/>
     <use xlink:href="#DejaVuSans-52" x="1403.125"/>
     <use xlink:href="#DejaVuSans-32" x="1472.607422"/>
     <use xlink:href="#DejaVuSans-20" x="1536.230469"/>
     <use xlink:href="#DejaVuSans-3d" x="1568.017578"/>
     <use xlink:href="#DejaVuSans-20" x="1651.806641"/>
     <use xlink:href="#DejaVuSans-30" x="1683.59375"/>
     <use xlink:href="#DejaVuSans-2e" x="1747.216797"/>
     <use xlink:href="#DejaVuSans-32" x="1779.003906"/>
     <use xlink:href="#DejaVuSans-32" x="1842.626953"/>
     <use xlink:href="#DejaVuSans-36" x="1906.25"/>
     <use xlink:href="#DejaVuSans-36" x="1969.873047"/>
     <use xlink:href="#DejaVuSans-35" x="2033.496094"/>
     <use xlink:href="#DejaVuSans-37" x="2097.119141"/>
     <use xlink:href="#DejaVuSans-29" x="2160.742188"/>
    </g>
   </g>
   <g id="legend_1">
    <g id="patch_7">
     <path d="M 1281.132812 87.789875 
L 1378.2125 87.789875 
Q 1380.2125 87.789875 1380.2125 85.789875 
L 1380.2125 42.7555 
Q 1380.2125 40.7555 1378.2125 40.7555 
L 1281.132812 40.7555 
Q 1279.132812 40.7555 1279.132812 42.7555 
L 1279.132812 85.789875 
Q 1279.132812 87.789875 1281.132812 87.789875 
z
" style="fill: #ffffff; opacity: 0.8; stroke: #cccccc; stroke-linejoin: miter"/>
    </g>
    <g id="line2d_22">
     <path d="M 1283.132812 48.853937 
L 1293.132812 48.853937 
L 1303.132812 48.853937 
" style="fill: none; stroke: #0000ff; stroke-width: 1.5; stroke-linecap: square"/>
    </g>
    <g id="text_20">
     <!-- Actual Value -->
     <g transform="translate(1311.132812 52.353937)scale(0.1 -0.1)">
      <defs>
       <path id="DejaVuSans-56" d="M 1831 0 
L 50 4666 
L 709 4666 
L 2188 738 
L 3669 4666 
L 4325 4666 
L 2547 0 
L 1831 0 
z
" transform="scale(0.015625)"/>
      </defs>
      <use xlink:href="#DejaVuSans-41"/>
      <use xlink:href="#DejaVuSans-63" x="66.658203"/>
      <use xlink:href="#DejaVuSans-74" x="121.638672"/>
      <use xlink:href="#DejaVuSans-75" x="160.847656"/>
      <use xlink:href="#DejaVuSans-61" x="224.226562"/>
      <use xlink:href="#DejaVuSans-6c" x="285.505859"/>
      <use xlink:href="#DejaVuSans-20" x="313.289062"/>
      <use xlink:href="#DejaVuSans-56" x="345.076172"/>
      <use xlink:href="#DejaVuSans-61" x="405.734375"/>
      <use xlink:href="#DejaVuSans-6c" x="467.013672"/>
      <use xlink:href="#DejaVuSans-75" x="494.796875"/>
      <use xlink:href="#DejaVuSans-65" x="558.175781"/>
     </g>
    </g>
    <g id="line2d_23">
     <path d="M 1283.132812 63.532062 
L 1293.132812 63.532062 
L 1303.132812 63.532062 
" style="fill: none; stroke: #ffa500; stroke-width: 1.5; stroke-linecap: square"/>
    </g>
    <g id="text_21">
     <!-- Check Value -->
     <g transform="translate(1311.132812 67.032062)scale(0.1 -0.1)">
      <defs>
       <path id="DejaVuSans-6b" d="M 581 4863 
L 1159 4863 
L 1159 1991 
L 2875 3500 
L 3609 3500 
L 1753 1863 
L 3688 0 
L 2938 0 
L 1159 1709 
L 1159 0 
L 581 0 
L 581 4863 
z
" transform="scale(0.015625)"/>
      </defs>
      <use xlink:href="#DejaVuSans-43"/>
      <use xlink:href="#DejaVuSans-68" x="69.824219"/>
      <use xlink:href="#DejaVuSans-65" x="133.203125"/>
      <use xlink:href="#DejaVuSans-63" x="194.726562"/>
      <use xlink:href="#DejaVuSans-6b" x="249.707031"/>
      <use xlink:href="#DejaVuSans-20" x="307.617188"/>
      <use xlink:href="#DejaVuSans-56" x="339.404297"/>
      <use xlink:href="#DejaVuSans-61" x="400.0625"/>
      <use xlink:href="#DejaVuSans-6c" x="461.341797"/>
      <use xlink:href="#DejaVuSans-75" x="489.125"/>
      <use xlink:href="#DejaVuSans-65" x="552.503906"/>
     </g>
    </g>
    <g id="line2d_24">
     <path d="M 1283.132812 78.210187 
L 1293.132812 78.210187 
L 1303.132812 78.210187 
" style="fill: none; stroke: #ff0000; stroke-width: 1.5; stroke-linecap: square"/>
    </g>
    <g id="text_22">
     <!-- Predict Value -->
     <g transform="translate(1311.132812 81.710187)scale(0.1 -0.1)">
      <defs>
       <path id="DejaVuSans-50" d="M 1259 4147 
L 1259 2394 
L 2053 2394 
Q 2494 2394 2734 2622 
Q 2975 2850 2975 3272 
Q 2975 3691 2734 3919 
Q 2494 4147 2053 4147 
L 1259 4147 
z
M 628 4666 
L 2053 4666 
Q 2838 4666 3239 4311 
Q 3641 3956 3641 3272 
Q 3641 2581 3239 2228 
Q 2838 1875 2053 1875 
L 1259 1875 
L 1259 0 
L 628 0 
L 628 4666 
z
" transform="scale(0.015625)"/>
      </defs>
      <use xlink:href="#DejaVuSans-50"/>
      <use xlink:href="#DejaVuSans-72" x="58.552734"/>
      <use xlink:href="#DejaVuSans-65" x="97.416016"/>
      <use xlink:href="#DejaVuSans-64" x="158.939453"/>
      <use xlink:href="#DejaVuSans-69" x="222.416016"/>
      <use xlink:href="#DejaVuSans-63" x="250.199219"/>
      <use xlink:href="#DejaVuSans-74" x="305.179688"/>
      <use xlink:href="#DejaVuSans-20" x="344.388672"/>
      <use xlink:href="#DejaVuSans-56" x="376.175781"/>
      <use xlink:href="#DejaVuSans-61" x="436.833984"/>
      <use xlink:href="#DejaVuSans-6c" x="498.113281"/>
      <use xlink:href="#DejaVuSans-75" x="525.896484"/>
      <use xlink:href="#DejaVuSans-65" x="589.275391"/>
     </g>
    </g>
   </g>
  </g>
 </g>
 <defs>
  <clipPath id="p5327513fbc">
   <rect x="46.0125" y="35.7555" width="1339.2" height="332.64"/>
  </clipPath>
 </defs>
</svg>
