<?xml version="1.0" encoding="utf-8" standalone="no"?>
<!DOCTYPE svg PUBLIC "-//W3C//DTD SVG 1.1//EN"
  "http://www.w3.org/Graphics/SVG/1.1/DTD/svg11.dtd">
<svg xmlns:xlink="http://www.w3.org/1999/xlink" width="1392.4125pt" height="392.273625pt" viewBox="0 0 1392.4125 392.273625" xmlns="http://www.w3.org/2000/svg" version="1.1">
 <metadata>
  <rdf:RDF xmlns:dc="http://purl.org/dc/elements/1.1/" xmlns:cc="http://creativecommons.org/ns#" xmlns:rdf="http://www.w3.org/1999/02/22-rdf-syntax-ns#">
   <cc:Work>
    <dc:type rdf:resource="http://purl.org/dc/dcmitype/StillImage"/>
    <dc:date>2022-12-11T18:59:42.225087</dc:date>
    <dc:format>image/svg+xml</dc:format>
    <dc:creator>
     <cc:Agent>
      <dc:title>Matplotlib v3.5.1, https://matplotlib.org/</dc:title>
     </cc:Agent>
    </dc:creator>
   </cc:Work>
  </rdf:RDF>
 </metadata>
 <defs>
  <style type="text/css">*{stroke-linejoin: round; stroke-linecap: butt}</style>
 </defs>
 <g id="figure_1">
  <g id="patch_1">
   <path d="M 0 392.273625 
L 1392.4125 392.273625 
L 1392.4125 0 
L 0 0 
z
" style="fill: #ffffff"/>
  </g>
  <g id="axes_1">
   <g id="patch_2">
    <path d="M 46.0125 368.3955 
L 1385.2125 368.3955 
L 1385.2125 35.7555 
L 46.0125 35.7555 
z
" style="fill: #ffffff"/>
   </g>
   <g id="matplotlib.axis_1">
    <g id="xtick_1">
     <g id="line2d_1">
      <defs>
       <path id="m94c1c3db83" d="M 0 0 
L 0 3.5 
" style="stroke: #000000; stroke-width: 0.8"/>
      </defs>
      <g>
       <use xlink:href="#m94c1c3db83" x="81.759524" y="368.3955" style="stroke: #000000; stroke-width: 0.8"/>
      </g>
     </g>
     <g id="text_1">
      <!-- 2020-01 -->
      <g transform="translate(60.868117 382.993937)scale(0.1 -0.1)">
       <defs>
        <path id="DejaVuSans-32" d="M 1228 531 
L 3431 531 
L 3431 0 
L 469 0 
L 469 531 
Q 828 903 1448 1529 
Q 2069 2156 2228 2338 
Q 2531 2678 2651 2914 
Q 2772 3150 2772 3378 
Q 2772 3750 2511 3984 
Q 2250 4219 1831 4219 
Q 1534 4219 1204 4116 
Q 875 4013 500 3803 
L 500 4441 
Q 881 4594 1212 4672 
Q 1544 4750 1819 4750 
Q 2544 4750 2975 4387 
Q 3406 4025 3406 3419 
Q 3406 3131 3298 2873 
Q 3191 2616 2906 2266 
Q 2828 2175 2409 1742 
Q 1991 1309 1228 531 
z
" transform="scale(0.015625)"/>
        <path id="DejaVuSans-30" d="M 2034 4250 
Q 1547 4250 1301 3770 
Q 1056 3291 1056 2328 
Q 1056 1369 1301 889 
Q 1547 409 2034 409 
Q 2525 409 2770 889 
Q 3016 1369 3016 2328 
Q 3016 3291 2770 3770 
Q 2525 4250 2034 4250 
z
M 2034 4750 
Q 2819 4750 3233 4129 
Q 3647 3509 3647 2328 
Q 3647 1150 3233 529 
Q 2819 -91 2034 -91 
Q 1250 -91 836 529 
Q 422 1150 422 2328 
Q 422 3509 836 4129 
Q 1250 4750 2034 4750 
z
" transform="scale(0.015625)"/>
        <path id="DejaVuSans-2d" d="M 313 2009 
L 1997 2009 
L 1997 1497 
L 313 1497 
L 313 2009 
z
" transform="scale(0.015625)"/>
        <path id="DejaVuSans-31" d="M 794 531 
L 1825 531 
L 1825 4091 
L 703 3866 
L 703 4441 
L 1819 4666 
L 2450 4666 
L 2450 531 
L 3481 531 
L 3481 0 
L 794 0 
L 794 531 
z
" transform="scale(0.015625)"/>
       </defs>
       <use xlink:href="#DejaVuSans-32"/>
       <use xlink:href="#DejaVuSans-30" x="63.623047"/>
       <use xlink:href="#DejaVuSans-32" x="127.246094"/>
       <use xlink:href="#DejaVuSans-30" x="190.869141"/>
       <use xlink:href="#DejaVuSans-2d" x="254.492188"/>
       <use xlink:href="#DejaVuSans-30" x="290.576172"/>
       <use xlink:href="#DejaVuSans-31" x="354.199219"/>
      </g>
     </g>
    </g>
    <g id="xtick_2">
     <g id="line2d_2">
      <g>
       <use xlink:href="#m94c1c3db83" x="219.950893" y="368.3955" style="stroke: #000000; stroke-width: 0.8"/>
      </g>
     </g>
     <g id="text_2">
      <!-- 2020-05 -->
      <g transform="translate(199.059487 382.993937)scale(0.1 -0.1)">
       <defs>
        <path id="DejaVuSans-35" d="M 691 4666 
L 3169 4666 
L 3169 4134 
L 1269 4134 
L 1269 2991 
Q 1406 3038 1543 3061 
Q 1681 3084 1819 3084 
Q 2600 3084 3056 2656 
Q 3513 2228 3513 1497 
Q 3513 744 3044 326 
Q 2575 -91 1722 -91 
Q 1428 -91 1123 -41 
Q 819 9 494 109 
L 494 744 
Q 775 591 1075 516 
Q 1375 441 1709 441 
Q 2250 441 2565 725 
Q 2881 1009 2881 1497 
Q 2881 1984 2565 2268 
Q 2250 2553 1709 2553 
Q 1456 2553 1204 2497 
Q 953 2441 691 2322 
L 691 4666 
z
" transform="scale(0.015625)"/>
       </defs>
       <use xlink:href="#DejaVuSans-32"/>
       <use xlink:href="#DejaVuSans-30" x="63.623047"/>
       <use xlink:href="#DejaVuSans-32" x="127.246094"/>
       <use xlink:href="#DejaVuSans-30" x="190.869141"/>
       <use xlink:href="#DejaVuSans-2d" x="254.492188"/>
       <use xlink:href="#DejaVuSans-30" x="290.576172"/>
       <use xlink:href="#DejaVuSans-35" x="354.199219"/>
      </g>
     </g>
    </g>
    <g id="xtick_3">
     <g id="line2d_3">
      <g>
       <use xlink:href="#m94c1c3db83" x="360.426418" y="368.3955" style="stroke: #000000; stroke-width: 0.8"/>
      </g>
     </g>
     <g id="text_3">
      <!-- 2020-09 -->
      <g transform="translate(339.535012 382.993937)scale(0.1 -0.1)">
       <defs>
        <path id="DejaVuSans-39" d="M 703 97 
L 703 672 
Q 941 559 1184 500 
Q 1428 441 1663 441 
Q 2288 441 2617 861 
Q 2947 1281 2994 2138 
Q 2813 1869 2534 1725 
Q 2256 1581 1919 1581 
Q 1219 1581 811 2004 
Q 403 2428 403 3163 
Q 403 3881 828 4315 
Q 1253 4750 1959 4750 
Q 2769 4750 3195 4129 
Q 3622 3509 3622 2328 
Q 3622 1225 3098 567 
Q 2575 -91 1691 -91 
Q 1453 -91 1209 -44 
Q 966 3 703 97 
z
M 1959 2075 
Q 2384 2075 2632 2365 
Q 2881 2656 2881 3163 
Q 2881 3666 2632 3958 
Q 2384 4250 1959 4250 
Q 1534 4250 1286 3958 
Q 1038 3666 1038 3163 
Q 1038 2656 1286 2365 
Q 1534 2075 1959 2075 
z
" transform="scale(0.015625)"/>
       </defs>
       <use xlink:href="#DejaVuSans-32"/>
       <use xlink:href="#DejaVuSans-30" x="63.623047"/>
       <use xlink:href="#DejaVuSans-32" x="127.246094"/>
       <use xlink:href="#DejaVuSans-30" x="190.869141"/>
       <use xlink:href="#DejaVuSans-2d" x="254.492188"/>
       <use xlink:href="#DejaVuSans-30" x="290.576172"/>
       <use xlink:href="#DejaVuSans-39" x="354.199219"/>
      </g>
     </g>
    </g>
    <g id="xtick_4">
     <g id="line2d_4">
      <g>
       <use xlink:href="#m94c1c3db83" x="499.759865" y="368.3955" style="stroke: #000000; stroke-width: 0.8"/>
      </g>
     </g>
     <g id="text_4">
      <!-- 2021-01 -->
      <g transform="translate(478.868459 382.993937)scale(0.1 -0.1)">
       <use xlink:href="#DejaVuSans-32"/>
       <use xlink:href="#DejaVuSans-30" x="63.623047"/>
       <use xlink:href="#DejaVuSans-32" x="127.246094"/>
       <use xlink:href="#DejaVuSans-31" x="190.869141"/>
       <use xlink:href="#DejaVuSans-2d" x="254.492188"/>
       <use xlink:href="#DejaVuSans-30" x="290.576172"/>
       <use xlink:href="#DejaVuSans-31" x="354.199219"/>
      </g>
     </g>
    </g>
    <g id="xtick_5">
     <g id="line2d_5">
      <g>
       <use xlink:href="#m94c1c3db83" x="636.809157" y="368.3955" style="stroke: #000000; stroke-width: 0.8"/>
      </g>
     </g>
     <g id="text_5">
      <!-- 2021-05 -->
      <g transform="translate(615.917751 382.993937)scale(0.1 -0.1)">
       <use xlink:href="#DejaVuSans-32"/>
       <use xlink:href="#DejaVuSans-30" x="63.623047"/>
       <use xlink:href="#DejaVuSans-32" x="127.246094"/>
       <use xlink:href="#DejaVuSans-31" x="190.869141"/>
       <use xlink:href="#DejaVuSans-2d" x="254.492188"/>
       <use xlink:href="#DejaVuSans-30" x="290.576172"/>
       <use xlink:href="#DejaVuSans-35" x="354.199219"/>
      </g>
     </g>
    </g>
    <g id="xtick_6">
     <g id="line2d_6">
      <g>
       <use xlink:href="#m94c1c3db83" x="777.284681" y="368.3955" style="stroke: #000000; stroke-width: 0.8"/>
      </g>
     </g>
     <g id="text_6">
      <!-- 2021-09 -->
      <g transform="translate(756.393275 382.993937)scale(0.1 -0.1)">
       <use xlink:href="#DejaVuSans-32"/>
       <use xlink:href="#DejaVuSans-30" x="63.623047"/>
       <use xlink:href="#DejaVuSans-32" x="127.246094"/>
       <use xlink:href="#DejaVuSans-31" x="190.869141"/>
       <use xlink:href="#DejaVuSans-2d" x="254.492188"/>
       <use xlink:href="#DejaVuSans-30" x="290.576172"/>
       <use xlink:href="#DejaVuSans-39" x="354.199219"/>
      </g>
     </g>
    </g>
    <g id="xtick_7">
     <g id="line2d_7">
      <g>
       <use xlink:href="#m94c1c3db83" x="916.618129" y="368.3955" style="stroke: #000000; stroke-width: 0.8"/>
      </g>
     </g>
     <g id="text_7">
      <!-- 2022-01 -->
      <g transform="translate(895.726722 382.993937)scale(0.1 -0.1)">
       <use xlink:href="#DejaVuSans-32"/>
       <use xlink:href="#DejaVuSans-30" x="63.623047"/>
       <use xlink:href="#DejaVuSans-32" x="127.246094"/>
       <use xlink:href="#DejaVuSans-32" x="190.869141"/>
       <use xlink:href="#DejaVuSans-2d" x="254.492188"/>
       <use xlink:href="#DejaVuSans-30" x="290.576172"/>
       <use xlink:href="#DejaVuSans-31" x="354.199219"/>
      </g>
     </g>
    </g>
    <g id="xtick_8">
     <g id="line2d_8">
      <g>
       <use xlink:href="#m94c1c3db83" x="1053.667421" y="368.3955" style="stroke: #000000; stroke-width: 0.8"/>
      </g>
     </g>
     <g id="text_8">
      <!-- 2022-05 -->
      <g transform="translate(1032.776014 382.993937)scale(0.1 -0.1)">
       <use xlink:href="#DejaVuSans-32"/>
       <use xlink:href="#DejaVuSans-30" x="63.623047"/>
       <use xlink:href="#DejaVuSans-32" x="127.246094"/>
       <use xlink:href="#DejaVuSans-32" x="190.869141"/>
       <use xlink:href="#DejaVuSans-2d" x="254.492188"/>
       <use xlink:href="#DejaVuSans-30" x="290.576172"/>
       <use xlink:href="#DejaVuSans-35" x="354.199219"/>
      </g>
     </g>
    </g>
    <g id="xtick_9">
     <g id="line2d_9">
      <g>
       <use xlink:href="#m94c1c3db83" x="1194.142945" y="368.3955" style="stroke: #000000; stroke-width: 0.8"/>
      </g>
     </g>
     <g id="text_9">
      <!-- 2022-09 -->
      <g transform="translate(1173.251539 382.993937)scale(0.1 -0.1)">
       <use xlink:href="#DejaVuSans-32"/>
       <use xlink:href="#DejaVuSans-30" x="63.623047"/>
       <use xlink:href="#DejaVuSans-32" x="127.246094"/>
       <use xlink:href="#DejaVuSans-32" x="190.869141"/>
       <use xlink:href="#DejaVuSans-2d" x="254.492188"/>
       <use xlink:href="#DejaVuSans-30" x="290.576172"/>
       <use xlink:href="#DejaVuSans-39" x="354.199219"/>
      </g>
     </g>
    </g>
    <g id="xtick_10">
     <g id="line2d_10">
      <g>
       <use xlink:href="#m94c1c3db83" x="1333.476392" y="368.3955" style="stroke: #000000; stroke-width: 0.8"/>
      </g>
     </g>
     <g id="text_10">
      <!-- 2023-01 -->
      <g transform="translate(1312.584986 382.993937)scale(0.1 -0.1)">
       <defs>
        <path id="DejaVuSans-33" d="M 2597 2516 
Q 3050 2419 3304 2112 
Q 3559 1806 3559 1356 
Q 3559 666 3084 287 
Q 2609 -91 1734 -91 
Q 1441 -91 1130 -33 
Q 819 25 488 141 
L 488 750 
Q 750 597 1062 519 
Q 1375 441 1716 441 
Q 2309 441 2620 675 
Q 2931 909 2931 1356 
Q 2931 1769 2642 2001 
Q 2353 2234 1838 2234 
L 1294 2234 
L 1294 2753 
L 1863 2753 
Q 2328 2753 2575 2939 
Q 2822 3125 2822 3475 
Q 2822 3834 2567 4026 
Q 2313 4219 1838 4219 
Q 1578 4219 1281 4162 
Q 984 4106 628 3988 
L 628 4550 
Q 988 4650 1302 4700 
Q 1616 4750 1894 4750 
Q 2613 4750 3031 4423 
Q 3450 4097 3450 3541 
Q 3450 3153 3228 2886 
Q 3006 2619 2597 2516 
z
" transform="scale(0.015625)"/>
       </defs>
       <use xlink:href="#DejaVuSans-32"/>
       <use xlink:href="#DejaVuSans-30" x="63.623047"/>
       <use xlink:href="#DejaVuSans-32" x="127.246094"/>
       <use xlink:href="#DejaVuSans-33" x="190.869141"/>
       <use xlink:href="#DejaVuSans-2d" x="254.492188"/>
       <use xlink:href="#DejaVuSans-30" x="290.576172"/>
       <use xlink:href="#DejaVuSans-31" x="354.199219"/>
      </g>
     </g>
    </g>
   </g>
   <g id="matplotlib.axis_2">
    <g id="ytick_1">
     <g id="line2d_11">
      <defs>
       <path id="m4960acf8e7" d="M 0 0 
L -3.5 0 
" style="stroke: #000000; stroke-width: 0.8"/>
      </defs>
      <g>
       <use xlink:href="#m4960acf8e7" x="46.0125" y="345.565108" style="stroke: #000000; stroke-width: 0.8"/>
      </g>
     </g>
     <g id="text_11">
      <!-- 0 -->
      <g transform="translate(32.65 349.364326)scale(0.1 -0.1)">
       <use xlink:href="#DejaVuSans-30"/>
      </g>
     </g>
    </g>
    <g id="ytick_2">
     <g id="line2d_12">
      <g>
       <use xlink:href="#m4960acf8e7" x="46.0125" y="296.012458" style="stroke: #000000; stroke-width: 0.8"/>
      </g>
     </g>
     <g id="text_12">
      <!-- 10000 -->
      <g transform="translate(7.2 299.811677)scale(0.1 -0.1)">
       <use xlink:href="#DejaVuSans-31"/>
       <use xlink:href="#DejaVuSans-30" x="63.623047"/>
       <use xlink:href="#DejaVuSans-30" x="127.246094"/>
       <use xlink:href="#DejaVuSans-30" x="190.869141"/>
       <use xlink:href="#DejaVuSans-30" x="254.492188"/>
      </g>
     </g>
    </g>
    <g id="ytick_3">
     <g id="line2d_13">
      <g>
       <use xlink:href="#m4960acf8e7" x="46.0125" y="246.459808" style="stroke: #000000; stroke-width: 0.8"/>
      </g>
     </g>
     <g id="text_13">
      <!-- 20000 -->
      <g transform="translate(7.2 250.259027)scale(0.1 -0.1)">
       <use xlink:href="#DejaVuSans-32"/>
       <use xlink:href="#DejaVuSans-30" x="63.623047"/>
       <use xlink:href="#DejaVuSans-30" x="127.246094"/>
       <use xlink:href="#DejaVuSans-30" x="190.869141"/>
       <use xlink:href="#DejaVuSans-30" x="254.492188"/>
      </g>
     </g>
    </g>
    <g id="ytick_4">
     <g id="line2d_14">
      <g>
       <use xlink:href="#m4960acf8e7" x="46.0125" y="196.907159" style="stroke: #000000; stroke-width: 0.8"/>
      </g>
     </g>
     <g id="text_14">
      <!-- 30000 -->
      <g transform="translate(7.2 200.706377)scale(0.1 -0.1)">
       <use xlink:href="#DejaVuSans-33"/>
       <use xlink:href="#DejaVuSans-30" x="63.623047"/>
       <use xlink:href="#DejaVuSans-30" x="127.246094"/>
       <use xlink:href="#DejaVuSans-30" x="190.869141"/>
       <use xlink:href="#DejaVuSans-30" x="254.492188"/>
      </g>
     </g>
    </g>
    <g id="ytick_5">
     <g id="line2d_15">
      <g>
       <use xlink:href="#m4960acf8e7" x="46.0125" y="147.354509" style="stroke: #000000; stroke-width: 0.8"/>
      </g>
     </g>
     <g id="text_15">
      <!-- 40000 -->
      <g transform="translate(7.2 151.153728)scale(0.1 -0.1)">
       <defs>
        <path id="DejaVuSans-34" d="M 2419 4116 
L 825 1625 
L 2419 1625 
L 2419 4116 
z
M 2253 4666 
L 3047 4666 
L 3047 1625 
L 3713 1625 
L 3713 1100 
L 3047 1100 
L 3047 0 
L 2419 0 
L 2419 1100 
L 313 1100 
L 313 1709 
L 2253 4666 
z
" transform="scale(0.015625)"/>
       </defs>
       <use xlink:href="#DejaVuSans-34"/>
       <use xlink:href="#DejaVuSans-30" x="63.623047"/>
       <use xlink:href="#DejaVuSans-30" x="127.246094"/>
       <use xlink:href="#DejaVuSans-30" x="190.869141"/>
       <use xlink:href="#DejaVuSans-30" x="254.492188"/>
      </g>
     </g>
    </g>
    <g id="ytick_6">
     <g id="line2d_16">
      <g>
       <use xlink:href="#m4960acf8e7" x="46.0125" y="97.801859" style="stroke: #000000; stroke-width: 0.8"/>
      </g>
     </g>
     <g id="text_16">
      <!-- 50000 -->
      <g transform="translate(7.2 101.601078)scale(0.1 -0.1)">
       <use xlink:href="#DejaVuSans-35"/>
       <use xlink:href="#DejaVuSans-30" x="63.623047"/>
       <use xlink:href="#DejaVuSans-30" x="127.246094"/>
       <use xlink:href="#DejaVuSans-30" x="190.869141"/>
       <use xlink:href="#DejaVuSans-30" x="254.492188"/>
      </g>
     </g>
    </g>
    <g id="ytick_7">
     <g id="line2d_17">
      <g>
       <use xlink:href="#m4960acf8e7" x="46.0125" y="48.24921" style="stroke: #000000; stroke-width: 0.8"/>
      </g>
     </g>
     <g id="text_17">
      <!-- 60000 -->
      <g transform="translate(7.2 52.048428)scale(0.1 -0.1)">
       <defs>
        <path id="DejaVuSans-36" d="M 2113 2584 
Q 1688 2584 1439 2293 
Q 1191 2003 1191 1497 
Q 1191 994 1439 701 
Q 1688 409 2113 409 
Q 2538 409 2786 701 
Q 3034 994 3034 1497 
Q 3034 2003 2786 2293 
Q 2538 2584 2113 2584 
z
M 3366 4563 
L 3366 3988 
Q 3128 4100 2886 4159 
Q 2644 4219 2406 4219 
Q 1781 4219 1451 3797 
Q 1122 3375 1075 2522 
Q 1259 2794 1537 2939 
Q 1816 3084 2150 3084 
Q 2853 3084 3261 2657 
Q 3669 2231 3669 1497 
Q 3669 778 3244 343 
Q 2819 -91 2113 -91 
Q 1303 -91 875 529 
Q 447 1150 447 2328 
Q 447 3434 972 4092 
Q 1497 4750 2381 4750 
Q 2619 4750 2861 4703 
Q 3103 4656 3366 4563 
z
" transform="scale(0.015625)"/>
       </defs>
       <use xlink:href="#DejaVuSans-36"/>
       <use xlink:href="#DejaVuSans-30" x="63.623047"/>
       <use xlink:href="#DejaVuSans-30" x="127.246094"/>
       <use xlink:href="#DejaVuSans-30" x="190.869141"/>
       <use xlink:href="#DejaVuSans-30" x="254.492188"/>
      </g>
     </g>
    </g>
   </g>
   <g id="line2d_18">
    <path d="M 106.885227 345.565108 
L 166.273254 345.540331 
L 167.415331 345.352031 
L 169.699486 345.42636 
L 170.841564 345.124089 
L 171.983641 345.565108 
L 173.125718 345.148865 
L 174.267796 345.342121 
L 176.551951 345.461047 
L 178.836106 345.069581 
L 179.978183 345.292568 
L 181.120261 345.386718 
L 182.262338 344.668205 
L 183.404415 345.079492 
L 184.546493 344.995252 
L 185.68857 344.286649 
L 186.830648 345.114179 
L 187.972725 344.668205 
L 189.114803 344.816863 
L 190.25688 342.914041 
L 191.398957 344.177634 
L 192.541035 343.617689 
L 193.683112 338.6872 
L 194.82519 341.035996 
L 195.967267 342.388783 
L 197.109345 340.852651 
L 198.251422 342.240125 
L 199.393499 334.341433 
L 200.535577 342.993325 
L 201.677654 339.757537 
L 202.819732 340.530558 
L 203.961809 340.619753 
L 205.103887 340.951756 
L 206.245964 339.579148 
L 207.388042 342.111288 
L 208.530119 338.072747 
L 209.672196 338.563318 
L 210.814274 337.319547 
L 211.956351 341.927943 
L 213.098429 327.314867 
L 214.240506 334.732898 
L 215.382584 339.707985 
L 216.524661 333.221543 
L 217.666738 331.982726 
L 218.808816 330.476326 
L 219.950893 328.30592 
L 221.092971 335.282933 
L 222.235048 328.746938 
L 223.377126 338.409705 
L 224.519203 326.650861 
L 225.66128 327.587406 
L 226.803358 327.18603 
L 227.945435 329.108673 
L 229.087513 329.866828 
L 230.22959 334.20764 
L 231.371668 338.057881 
L 232.513745 329.524915 
L 233.655823 324.520097 
L 234.7979 324.267379 
L 235.939977 326.284172 
L 237.082055 325.516106 
L 238.224132 327.072059 
L 239.36621 332.384103 
L 240.508287 323.018652 
L 241.650365 323.083071 
L 242.792442 322.032554 
L 243.934519 331.051137 
L 245.076597 325.466553 
L 246.218674 324.728219 
L 247.360752 325.644943 
L 248.502829 316.963318 
L 249.644907 315.070407 
L 250.786984 316.457881 
L 251.929061 313.326154 
L 253.071139 308.965521 
L 254.213216 301.934 
L 255.355294 317.998969 
L 256.497371 305.298625 
L 257.639449 341.853614 
L 258.781526 324.336753 
L 259.923604 324.743084 
L 261.065681 323.970063 
L 262.207758 321.992912 
L 263.349836 329.80241 
L 264.491913 325.545837 
L 265.633991 320.357675 
L 266.776068 316.006952 
L 267.918146 345.565108 
L 269.060223 316.026773 
L 270.2023 301.032141 
L 271.344378 329.430765 
L 272.486455 324.931384 
L 273.628533 326.972954 
L 274.77061 328.320786 
L 275.912688 328.038336 
L 277.054765 328.652788 
L 278.196842 327.736064 
L 279.33892 333.122437 
L 280.480997 328.900552 
L 281.623075 326.343635 
L 282.765152 326.175156 
L 285.049307 327.602272 
L 286.191385 328.568549 
L 287.333462 330.966897 
L 288.475539 331.452513 
L 289.617617 329.391123 
L 290.759694 328.087888 
L 291.901772 327.75093 
L 293.043849 328.31583 
L 294.185927 327.537854 
L 295.328004 330.773642 
L 296.470081 327.850035 
L 297.612159 327.56263 
L 298.754236 328.038336 
L 299.896314 329.71817 
L 301.038391 330.382176 
L 302.180469 327.64687 
L 303.322546 326.749967 
L 304.464623 327.012596 
L 305.606701 326.318859 
L 306.748778 326.561667 
L 307.890856 325.986856 
L 309.032933 325.927393 
L 310.175011 325.298074 
L 311.317088 325.293119 
L 312.459166 323.73221 
L 313.601243 323.44976 
L 314.74332 323.038473 
L 315.885398 321.457744 
L 317.027475 345.565108 
L 318.169553 345.565108 
L 319.31163 277.400483 
L 320.453708 319.361667 
L 321.595785 317.429113 
L 322.737862 345.565108 
L 323.87994 311.824709 
L 325.022017 345.565108 
L 326.164095 239.730558 
L 327.306172 324.505232 
L 328.44825 311.918859 
L 329.590327 307.241088 
L 330.732404 306.98837 
L 331.874482 303.613834 
L 333.016559 345.565108 
L 334.158637 275.453064 
L 335.300714 320.248659 
L 336.442792 313.122988 
L 337.584869 345.565108 
L 339.869024 257.653752 
L 341.011101 345.565108 
L 342.153179 298.455404 
L 343.295256 295.303855 
L 344.437334 318.078253 
L 345.579411 306.775294 
L 346.721489 300.477152 
L 347.863566 302.756574 
L 349.005643 300.928081 
L 350.147721 300.130283 
L 351.289798 300.521749 
L 352.431876 315.278528 
L 353.573953 311.155748 
L 354.716031 315.853339 
L 355.858108 302.855679 
L 357.000185 306.101377 
L 358.142263 298.618927 
L 359.28434 307.255954 
L 360.426418 321.428012 
L 361.568495 320.332898 
L 362.710573 345.565108 
L 363.85265 281.067379 
L 364.994728 312.349967 
L 366.136805 311.601722 
L 367.278882 314.47082 
L 368.42096 337.646594 
L 369.563037 322.69656 
L 370.705115 312.929733 
L 371.847192 309.436271 
L 372.98927 312.845493 
L 374.131347 315.030765 
L 375.273424 311.933724 
L 376.415502 324.549829 
L 377.557579 324.951205 
L 378.699657 313.950517 
L 379.841734 317.330008 
L 380.983812 314.277565 
L 382.125889 313.588783 
L 383.267966 315.68486 
L 384.410044 345.565108 
L 385.552121 307.652375 
L 386.694199 315.095183 
L 387.836276 286.651962 
L 388.978354 345.565108 
L 390.120431 318.023745 
L 391.262509 319.99594 
L 392.404586 328.657744 
L 393.546663 330.431728 
L 394.688741 330.397042 
L 395.830818 328.380249 
L 396.972896 329.376257 
L 398.114973 345.565108 
L 399.257051 312.835583 
L 400.399128 336.496973 
L 401.541205 331.046181 
L 402.683283 332.022369 
L 403.82536 330.937166 
L 404.967438 308.529457 
L 406.109515 329.296973 
L 407.251593 336.645631 
L 408.39367 331.6755 
L 409.535747 345.565108 
L 410.677825 316.99305 
L 411.819902 345.565108 
L 412.96198 332.299863 
L 414.104057 330.045218 
L 415.246135 330.074949 
L 416.388212 334.65857 
L 417.53029 329.500139 
L 418.672367 317.032692 
L 419.814444 345.565108 
L 420.956522 329.510049 
L 422.098599 317.820579 
L 423.240677 345.565108 
L 424.382754 336.35327 
L 425.524832 336.036133 
L 426.666909 333.518859 
L 427.808986 332.354371 
L 428.951064 332.750792 
L 430.093141 334.054027 
L 431.235219 345.565108 
L 432.377296 345.565108 
L 433.519374 299.560428 
L 434.661451 331.021405 
L 435.803528 345.565108 
L 436.945606 331.784516 
L 438.087683 333.142258 
L 439.229761 334.054027 
L 440.371838 339.648521 
L 442.655993 332.8053 
L 443.798071 334.509912 
L 444.940148 333.608053 
L 447.224303 335.099588 
L 448.36638 339.33634 
L 449.508458 337.324502 
L 450.650535 345.565108 
L 451.792613 325.813422 
L 452.93469 324.931384 
L 454.076767 345.565108 
L 455.218845 337.691192 
L 456.360922 341.169788 
L 457.503 336.239299 
L 458.645077 345.565108 
L 459.787155 326.199932 
L 460.929232 325.639987 
L 462.071309 334.851825 
L 463.213387 345.565108 
L 464.355464 340.238198 
L 465.497542 345.565108 
L 466.639619 328.370338 
L 467.781697 345.565108 
L 468.923774 326.80943 
L 470.065852 336.506883 
L 471.207929 339.499863 
L 472.350006 345.565108 
L 473.492084 332.141295 
L 474.634161 333.226498 
L 475.776239 345.565108 
L 476.918316 336.487062 
L 478.060394 345.565108 
L 479.202471 325.59539 
L 480.344548 339.831866 
L 481.486626 345.565108 
L 482.628703 329.078941 
L 483.770781 345.565108 
L 484.912858 345.565108 
L 486.054936 313.643291 
L 487.197013 337.547489 
L 488.33909 340.817964 
L 489.481168 337.250173 
L 490.623245 345.565108 
L 491.765323 326.591398 
L 492.9074 337.815073 
L 494.049478 345.565108 
L 495.191555 335.104543 
L 496.333633 339.366071 
L 497.47571 337.696147 
L 498.617787 322.567723 
L 499.759865 345.565108 
L 500.901942 345.565108 
L 502.04402 330.887613 
L 503.186097 338.746663 
L 504.328175 345.565108 
L 505.470252 332.963869 
L 506.612329 345.565108 
L 507.754407 324.941295 
L 508.896484 345.565108 
L 510.038562 345.565108 
L 511.180639 300.947902 
L 512.322717 334.832004 
L 513.464794 331.288989 
L 514.606871 345.565108 
L 515.748949 267.311563 
L 516.891026 345.565108 
L 518.033104 323.048384 
L 519.175181 345.565108 
L 520.317259 345.565108 
L 521.459336 282.895872 
L 522.601414 345.565108 
L 523.743491 297.533724 
L 524.885568 345.565108 
L 526.027646 290.90358 
L 527.169723 345.565108 
L 528.311801 279.655128 
L 529.453878 345.565108 
L 530.595956 312.211219 
L 531.738033 317.245768 
L 532.88011 279.476739 
L 534.022188 319.71349 
L 535.164265 345.565108 
L 536.306343 323.380386 
L 537.44842 268.158914 
L 538.590498 345.565108 
L 539.732575 312.290503 
L 540.874652 305.957675 
L 542.01673 277.910875 
L 543.158807 345.565108 
L 544.300885 295.616037 
L 545.442962 345.565108 
L 546.58504 312.245906 
L 547.727117 301.924089 
L 548.869195 303.747627 
L 550.011272 273.466002 
L 551.153349 329.693394 
L 552.295427 345.565108 
L 553.437504 314.703717 
L 554.579582 308.856505 
L 555.721659 297.662561 
L 556.863737 307.315417 
L 558.005814 277.251825 
L 559.147891 345.565108 
L 561.432046 312.166622 
L 562.574124 309.381763 
L 563.716201 268.441364 
L 566.000356 345.565108 
L 567.142433 316.120923 
L 568.284511 303.484998 
L 569.426588 345.565108 
L 570.568666 312.50358 
L 571.710743 321.393325 
L 572.852821 303.707985 
L 573.994898 312.51349 
L 575.136976 314.783002 
L 576.279053 301.725879 
L 577.42113 345.565108 
L 578.563208 308.727668 
L 579.705285 310.313353 
L 580.847363 305.729733 
L 581.98944 319.039574 
L 583.131518 323.548865 
L 584.273595 313.018927 
L 585.415672 263.188783 
L 586.55775 345.565108 
L 587.699827 266.047971 
L 588.841905 345.565108 
L 589.983982 272.816863 
L 591.12606 345.565108 
L 592.268137 271.568136 
L 593.410214 345.565108 
L 594.552292 250.394289 
L 595.694369 286.503305 
L 596.836447 303.004337 
L 597.978524 301.418652 
L 599.120602 329.515004 
L 600.262679 345.565108 
L 601.404757 267.836821 
L 602.546834 281.562905 
L 603.688911 312.751343 
L 604.830989 317.73634 
L 605.973066 303.91115 
L 607.115144 306.70592 
L 608.257221 345.565108 
L 609.399299 304.020166 
L 610.541376 250.072196 
L 611.683453 292.766759 
L 612.825531 289.828287 
L 613.967608 306.284722 
L 615.109686 317.686787 
L 616.251763 313.91583 
L 617.393841 305.77433 
L 618.535918 345.565108 
L 619.677995 279.531247 
L 620.820073 263.491054 
L 621.96215 345.565108 
L 623.104228 295.21466 
L 624.246305 289.565658 
L 625.388383 345.565108 
L 626.53046 268.669306 
L 627.672538 290.814385 
L 628.814615 303.470132 
L 629.956692 308.772265 
L 631.09877 312.805851 
L 632.240847 345.565108 
L 633.382925 270.477978 
L 634.525002 345.565108 
L 635.66708 265.75561 
L 636.809157 345.565108 
L 637.951234 288.316932 
L 639.093312 330.060084 
L 640.235389 322.959189 
L 641.377467 345.565108 
L 642.519544 316.983139 
L 643.661622 345.565108 
L 644.803699 243.491605 
L 645.945776 319.629251 
L 647.087854 345.565108 
L 648.229931 330.302892 
L 649.372009 284.768962 
L 650.514086 345.565108 
L 651.656164 279.115004 
L 652.798241 345.565108 
L 653.940319 295.997592 
L 655.082396 345.565108 
L 656.224473 324.346663 
L 657.366551 294.620029 
L 658.508628 345.565108 
L 659.650706 312.141845 
L 660.792783 293.579423 
L 661.934861 323.573642 
L 663.076938 345.565108 
L 664.219015 311.046732 
L 665.361093 320.838336 
L 666.50317 321.735238 
L 667.645248 345.565108 
L 668.787325 318.306195 
L 669.929403 345.565108 
L 671.07148 306.349141 
L 672.213557 345.565108 
L 673.355635 296.195803 
L 674.497712 345.565108 
L 675.63979 292.375294 
L 676.781867 324.629113 
L 677.923945 345.565108 
L 679.066022 329.81232 
L 680.2081 338.484034 
L 681.350177 331.02636 
L 682.492254 309.272747 
L 683.634332 331.695321 
L 684.776409 345.565108 
L 685.918487 317.969237 
L 687.060564 345.565108 
L 688.202642 326.477427 
L 689.344719 345.565108 
L 690.486796 284.91762 
L 691.628874 328.405025 
L 692.770951 345.565108 
L 693.913029 327.973917 
L 695.055106 326.328769 
L 696.197184 345.565108 
L 697.339261 330.724089 
L 698.481338 331.477289 
L 699.623416 311.804887 
L 700.765493 345.565108 
L 701.907571 331.715142 
L 703.049648 335.367172 
L 704.191726 345.565108 
L 705.333803 325.991811 
L 706.475881 318.365658 
L 707.617958 345.565108 
L 708.760035 345.565108 
L 709.902113 308.10826 
L 711.04419 337.815073 
L 712.186268 333.801309 
L 713.328345 332.750792 
L 714.470423 332.934137 
L 715.6125 345.565108 
L 716.754577 322.627186 
L 717.896655 335.842878 
L 719.038732 341.700001 
L 720.18081 335.605025 
L 721.322887 334.088714 
L 722.464965 334.366209 
L 723.607042 335.496009 
L 724.749119 335.902341 
L 725.891197 337.492981 
L 727.033274 342.14102 
L 728.175352 337.795252 
L 729.317429 336.655541 
L 731.601584 337.552444 
L 732.743662 336.819065 
L 733.885739 338.181763 
L 735.027816 342.537441 
L 736.169894 338.796216 
L 737.311971 338.1223 
L 739.596126 345.565108 
L 740.738204 331.700276 
L 741.880281 336.605989 
L 743.022358 339.400758 
L 744.164436 334.628838 
L 745.306513 333.593188 
L 746.448591 335.689265 
L 747.590668 338.152031 
L 748.732746 337.780386 
L 749.874823 339.53455 
L 751.0169 343.072609 
L 752.158978 339.688163 
L 753.301055 338.221405 
L 754.443133 338.1223 
L 755.58521 339.029113 
L 756.727288 338.147076 
L 757.869365 340.718859 
L 759.011443 345.565108 
L 760.15352 335.580249 
L 761.295597 338.290779 
L 762.437675 338.771439 
L 763.579752 338.647558 
L 764.72183 339.752582 
L 765.863907 341.016174 
L 767.005985 345.565108 
L 768.148062 337.94391 
L 769.290139 338.825947 
L 770.432217 340.025121 
L 771.574294 340.035032 
L 772.716372 345.565108 
L 773.858449 345.565108 
L 775.000527 334.138267 
L 776.142604 345.565108 
L 777.284681 343.508673 
L 778.426759 335.099588 
L 779.568836 340.73868 
L 780.710914 340.411632 
L 781.852991 341.095459 
L 782.995069 343.216312 
L 784.137146 340.892293 
L 785.279224 340.188645 
L 787.563378 341.536477 
L 788.705456 340.505782 
L 789.847533 341.804062 
L 790.989611 344.217276 
L 792.131688 340.92698 
L 793.273766 340.520648 
L 794.415843 340.272885 
L 795.55792 345.565108 
L 796.699998 335.461322 
L 797.842075 342.646457 
L 798.984153 342.373917 
L 800.12623 341.704956 
L 801.268308 340.629664 
L 802.410385 340.37199 
L 803.552462 341.110325 
L 804.69454 341.169788 
L 805.836617 341.734688 
L 806.978695 343.979423 
L 808.120772 341.278804 
L 809.26285 340.18369 
L 810.404927 345.565108 
L 811.547005 335.763594 
L 812.689082 341.283759 
L 813.831159 341.640538 
L 814.973237 345.565108 
L 816.115314 339.569237 
L 817.257392 340.441364 
L 818.399469 340.991398 
L 819.541547 341.224296 
L 820.683624 342.557262 
L 821.825701 342.42347 
L 822.967779 343.320373 
L 826.394011 340.0053 
L 827.536089 340.694082 
L 828.678166 341.531522 
L 829.820243 341.382864 
L 830.962321 343.64742 
L 832.104398 341.724777 
L 833.246476 340.441364 
L 834.388553 345.565108 
L 835.530631 336.016312 
L 836.672708 340.763456 
L 837.814786 341.809017 
L 838.956863 343.583002 
L 840.09894 341.635583 
L 841.241018 340.679216 
L 842.383095 340.619753 
L 843.525173 341.402685 
L 844.66725 340.451274 
L 845.809328 341.164832 
L 846.951405 343.617689 
L 848.093482 345.565108 
L 849.23556 340.010256 
L 850.377637 340.044943 
L 851.519715 340.302616 
L 852.661792 340.262974 
L 853.80387 340.639574 
L 854.945947 343.880318 
L 856.088024 345.565108 
L 857.230102 334.470269 
L 858.372179 339.435445 
L 859.514257 339.876464 
L 860.656334 340.441364 
L 861.798412 340.634619 
L 862.940489 341.452238 
L 864.082567 338.335376 
L 865.224644 338.776395 
L 866.366721 338.553408 
L 867.508799 337.948865 
L 868.650876 337.017276 
L 869.792954 338.305645 
L 870.935031 341.734688 
L 872.077109 337.938955 
L 873.219186 337.854715 
L 874.361263 337.988508 
L 875.503341 338.459258 
L 876.645418 337.765521 
L 877.787496 338.994426 
L 878.929573 341.130146 
L 880.071651 338.721887 
L 882.355805 337.740744 
L 884.63996 337.542534 
L 886.924115 345.565108 
L 888.066193 329.619065 
L 889.20827 345.565108 
L 890.350348 330.511013 
L 891.492425 338.845768 
L 892.634502 336.551481 
L 893.77658 337.998418 
L 894.918657 345.565108 
L 896.060735 340.882382 
L 897.202812 338.241226 
L 898.34489 337.339368 
L 899.486967 337.022231 
L 900.629044 327.92932 
L 901.771122 337.730834 
L 902.913199 345.565108 
L 904.055277 333.697248 
L 905.197354 336.734826 
L 906.339432 335.396904 
L 907.481509 338.944874 
L 908.623586 316.220029 
L 909.765664 343.127117 
L 910.907741 335.342396 
L 912.049819 335.099588 
L 913.191896 325.644943 
L 914.333974 321.978046 
L 915.476051 322.88486 
L 916.618129 324.029526 
L 917.760206 338.127255 
L 918.902283 335.674399 
L 920.044361 319.886925 
L 921.186438 302.518721 
L 922.328516 290.194977 
L 923.470593 281.974192 
L 924.612671 265.611907 
L 925.754748 260.691329 
L 926.896825 283.743222 
L 928.038903 225.211632 
L 929.18098 207.947489 
L 931.465135 151.913353 
L 932.607213 99.065452 
L 933.74929 129.555197 
L 934.891367 218.214798 
L 936.033445 165.203373 
L 937.175522 73.31294 
L 938.3176 63.69477 
L 939.459677 50.8755 
L 940.601755 74.531935 
L 941.743832 88.208466 
L 942.88591 196.367035 
L 944.027987 125.075638 
L 945.170064 99.77901 
L 946.312142 97.583828 
L 947.454219 145.714316 
L 948.596297 168.384653 
L 949.738374 207.22402 
L 950.880452 270.582038 
L 952.022529 345.565108 
L 953.164606 114.585342 
L 954.306684 233.863525 
L 955.448761 233.590985 
L 956.590839 256.330696 
L 957.732916 275.244943 
L 958.874994 298.955885 
L 960.017071 287.831316 
L 961.159148 280.695734 
L 962.301226 278.351894 
L 963.443303 277.712664 
L 964.585381 291.755885 
L 965.727458 296.374192 
L 966.869536 325.585479 
L 968.011613 310.496698 
L 969.153691 298.390985 
L 970.295768 302.672334 
L 971.437845 311.933724 
L 972.579923 299.79828 
L 973.722 320.684722 
L 974.864078 336.214523 
L 976.006155 330.778597 
L 977.148233 330.63985 
L 978.29031 334.747764 
L 979.432387 332.844943 
L 980.574465 326.923401 
L 981.716542 326.437785 
L 982.85862 340.629664 
L 985.142775 336.234344 
L 986.284852 336.24921 
L 987.426929 335.555472 
L 988.569007 338.449347 
L 989.711084 337.592086 
L 990.853162 343.141983 
L 991.995239 341.100414 
L 993.137317 340.287751 
L 994.279394 340.258019 
L 995.421472 327.666691 
L 996.563549 340.416587 
L 997.705626 341.749554 
L 998.847704 343.850586 
L 1001.131859 340.783277 
L 1002.273936 340.872472 
L 1003.416014 342.05678 
L 1004.558091 342.170751 
L 1005.700168 342.572128 
L 1009.126401 342.70592 
L 1010.268478 342.537441 
L 1011.410556 342.849623 
L 1012.552633 342.968549 
L 1013.69471 342.884309 
L 1014.836788 344.450173 
L 1015.978865 343.310462 
L 1017.120943 342.52753 
L 1018.26302 343.439299 
L 1019.405098 343.181625 
L 1021.689253 343.231178 
L 1022.83133 344.782176 
L 1025.115485 343.171715 
L 1026.257562 341.95272 
L 1027.39964 342.834757 
L 1028.541717 343.315417 
L 1029.683795 344.103305 
L 1030.825872 344.276739 
L 1031.967949 342.259946 
L 1034.252104 341.620717 
L 1035.394182 342.279767 
L 1036.536259 343.236133 
L 1037.678337 342.591949 
L 1038.820414 342.368962 
L 1039.962491 341.823883 
L 1041.104569 341.947764 
L 1042.246646 341.878391 
L 1043.388724 341.947764 
L 1046.814956 341.59594 
L 1047.957034 342.477978 
L 1049.099111 341.348177 
L 1050.241188 341.709912 
L 1051.383266 342.448246 
L 1052.525343 342.121199 
L 1053.667421 342.661322 
L 1054.809498 342.175706 
L 1055.951576 342.354096 
L 1057.093653 342.136064 
L 1058.23573 341.457193 
L 1059.377808 343.910049 
L 1060.519885 344.078528 
L 1061.661963 343.305507 
L 1062.80404 344.113215 
L 1063.946118 344.256918 
L 1065.088195 343.275775 
L 1066.230272 343.781212 
L 1067.37235 343.805989 
L 1068.514427 343.568136 
L 1069.656505 343.067654 
L 1070.798582 350.059533 
L 1071.94066 339.043979 
L 1073.082737 331.165108 
L 1074.224815 353.2755 
L 1075.366892 342.126154 
L 1076.508969 343.508673 
L 1077.651047 341.843704 
L 1078.793124 344.242052 
L 1079.935202 343.924915 
L 1081.077279 342.586993 
L 1082.219357 342.264901 
L 1083.361434 343.300552 
L 1084.503511 339.767448 
L 1085.645589 343.003236 
L 1086.787666 344.098349 
L 1087.929744 342.52753 
L 1089.071821 342.770338 
L 1090.213899 340.213422 
L 1091.355976 341.605851 
L 1092.498053 341.338267 
L 1093.640131 339.990435 
L 1094.782208 343.652375 
L 1095.924286 343.211357 
L 1097.066363 341.105369 
L 1098.208441 341.779285 
L 1099.350518 341.645493 
L 1100.492596 340.188645 
L 1101.634673 340.114316 
L 1102.77675 340.93689 
L 1103.918828 340.862561 
L 1105.060905 341.30358 
L 1106.202983 338.865589 
L 1107.34506 338.627737 
L 1108.487138 338.186718 
L 1109.629215 337.463249 
L 1110.771292 338.171852 
L 1111.91337 334.990572 
L 1113.055447 333.241364 
L 1114.197525 330.942121 
L 1115.339602 332.88954 
L 1116.48168 333.964832 
L 1117.623757 328.395115 
L 1118.765834 342.096422 
L 1119.907912 329.847007 
L 1121.049989 324.307021 
L 1122.192067 337.086649 
L 1123.334144 330.729044 
L 1124.476222 320.184241 
L 1125.618299 332.626911 
L 1126.760377 333.018377 
L 1127.902454 325.060221 
L 1129.044531 315.813697 
L 1130.186609 315.30826 
L 1131.328686 313.970338 
L 1132.470764 314.059533 
L 1133.612841 315.293394 
L 1134.754919 305.620717 
L 1135.896996 305.922988 
L 1137.039073 283.435996 
L 1138.181151 345.565108 
L 1139.323228 216.093945 
L 1140.465306 291.146388 
L 1141.607383 345.565108 
L 1142.749461 243.565934 
L 1143.891538 284.674812 
L 1145.033615 275.428287 
L 1146.175693 276.161667 
L 1147.31777 271.677152 
L 1148.459848 281.290366 
L 1150.744003 315.863249 
L 1151.88608 275.269719 
L 1153.028158 274.095321 
L 1154.170235 269.615762 
L 1155.312312 345.565108 
L 1156.45439 313.519409 
L 1157.596467 274.338129 
L 1158.738545 322.592499 
L 1159.880622 299.78837 
L 1161.0227 300.501928 
L 1162.164777 307.687062 
L 1163.306854 290.992775 
L 1164.448932 295.923263 
L 1165.591009 318.881006 
L 1166.733087 328.528907 
L 1167.875164 293.465452 
L 1169.017242 286.70647 
L 1170.159319 294.917344 
L 1171.301396 291.641914 
L 1173.585551 317.825534 
L 1174.727629 328.751894 
L 1175.869706 311.026911 
L 1177.011784 345.565108 
L 1178.153861 258.961942 
L 1179.295939 345.565108 
L 1180.438016 270.596904 
L 1181.580093 328.613146 
L 1182.722171 336.120373 
L 1183.864248 319.644117 
L 1185.006326 318.380524 
L 1186.148403 322.082107 
L 1187.290481 329.282107 
L 1188.432558 331.303855 
L 1189.574635 334.390985 
L 1190.716713 339.926016 
L 1191.85879 337.051962 
L 1193.000868 339.455266 
L 1194.142945 345.565108 
L 1195.285023 310.030903 
L 1196.4271 333.067929 
L 1197.569177 337.884447 
L 1198.711255 341.794151 
L 1199.853332 338.786305 
L 1200.99541 337.904268 
L 1202.137487 334.445493 
L 1203.279565 333.677427 
L 1204.421642 336.779423 
L 1205.56372 341.536477 
L 1206.705797 343.379836 
L 1207.847874 339.866553 
L 1208.989952 340.272885 
L 1210.132029 338.825947 
L 1212.416184 341.308535 
L 1213.558262 342.14102 
L 1214.700339 345.565108 
L 1215.842416 345.565108 
L 1216.984494 322.637097 
L 1218.126571 337.314592 
L 1219.268649 339.866553 
L 1221.552804 343.746525 
L 1222.694881 344.727668 
L 1223.836958 342.126154 
L 1224.979036 345.565108 
L 1226.121113 340.703993 
L 1227.263191 338.96965 
L 1228.405268 342.43338 
L 1229.547346 344.311426 
L 1230.689423 344.831728 
L 1231.831501 342.834757 
L 1232.973578 345.565108 
L 1234.115655 336.536615 
L 1235.257733 343.885273 
L 1236.39981 344.098349 
L 1237.541888 344.920923 
L 1238.683965 345.04976 
L 1239.826043 343.642465 
L 1240.96812 343.776257 
L 1242.110197 343.667241 
L 1243.252275 344.088439 
L 1244.394352 343.469031 
L 1245.53643 344.608742 
L 1246.678507 345.094358 
L 1247.820585 344.514592 
L 1248.962662 343.73166 
L 1250.104739 344.123126 
L 1251.246817 344.009155 
L 1253.530972 344.499726 
L 1254.673049 345.163731 
L 1255.815127 344.455128 
L 1256.957204 341.59594 
L 1258.099282 344.009155 
L 1259.241359 343.498762 
L 1260.383436 340.857606 
L 1261.525514 341.640538 
L 1262.667591 341.372954 
L 1263.809669 342.368962 
L 1264.951746 340.783277 
L 1266.093824 342.601859 
L 1267.235901 345.565108 
L 1268.377978 335.228425 
L 1269.520056 343.587957 
L 1270.662133 344.811907 
L 1271.804211 337.84976 
L 1272.946288 336.34336 
L 1274.088366 335.144185 
L 1275.230443 333.370201 
L 1276.37252 335.22347 
L 1277.514598 342.354096 
L 1278.656675 352.011907 
L 1279.798753 324.762905 
L 1280.94083 333.657606 
L 1282.082908 330.46146 
L 1283.224985 328.930283 
L 1284.367063 345.565108 
L 1285.50914 312.082382 
L 1286.651217 345.565108 
L 1287.793295 315.447007 
L 1288.935372 345.565108 
L 1290.07745 281.74625 
L 1291.219527 310.070545 
L 1292.361605 345.565108 
L 1293.503682 294.139368 
L 1294.645759 336.977634 
L 1295.787837 301.646594 
L 1296.929914 274.501653 
L 1298.071992 276.845493 
L 1299.214069 282.4053 
L 1300.356147 284.238748 
L 1301.498224 299.961804 
L 1302.640301 345.565108 
L 1303.782379 346.903029 
L 1304.924456 195.841777 
L 1306.066534 273.931797 
L 1307.208611 318.132761 
L 1308.350689 327.042327 
L 1308.350689 327.042327 
" clip-path="url(#pe968309f74)" style="fill: none; stroke: #0000ff; stroke-width: 1.5; stroke-linecap: square"/>
   </g>
   <g id="line2d_19">
    <path d="M 1068.514427 344.4622 
L 1069.656505 343.959897 
L 1070.798582 344.031604 
L 1071.94066 344.225504 
L 1073.082737 345.058933 
L 1074.224815 342.397126 
L 1075.366892 341.581917 
L 1076.508969 343.800437 
L 1077.651047 341.387079 
L 1078.793124 346.734516 
L 1079.935202 341.903419 
L 1081.077279 339.413796 
L 1082.219357 346.531201 
L 1083.361434 343.694075 
L 1084.503511 343.203147 
L 1085.645589 342.994736 
L 1086.787666 342.57127 
L 1087.929744 342.458593 
L 1089.071821 340.974936 
L 1090.213899 343.661384 
L 1091.355976 343.132617 
L 1092.498053 341.151308 
L 1093.640131 342.155781 
L 1094.782208 342.287032 
L 1095.924286 341.319125 
L 1097.066363 341.757932 
L 1098.208441 341.714026 
L 1099.350518 342.054113 
L 1100.492596 341.861769 
L 1101.634673 341.318284 
L 1102.77675 342.358381 
L 1103.918828 341.701913 
L 1105.060905 340.561377 
L 1107.34506 340.850326 
L 1108.487138 339.734995 
L 1109.629215 339.457654 
L 1110.771292 339.508959 
L 1111.91337 338.933551 
L 1113.055447 338.483738 
L 1114.197525 336.631226 
L 1115.339602 335.395923 
L 1116.48168 333.635588 
L 1117.623757 333.139075 
L 1118.765834 333.371721 
L 1119.907912 332.175658 
L 1121.049989 334.452167 
L 1122.192067 330.914426 
L 1124.476222 332.982456 
L 1125.618299 328.981475 
L 1126.760377 332.546552 
L 1127.902454 329.91372 
L 1129.044531 326.114695 
L 1130.186609 329.955952 
L 1131.328686 324.944997 
L 1132.470764 318.371167 
L 1133.612841 318.820191 
L 1134.754919 319.466142 
L 1135.896996 314.674297 
L 1137.039073 308.594107 
L 1138.181151 307.361282 
L 1139.323228 302.182588 
L 1140.465306 308.350717 
L 1141.607383 281.441235 
L 1142.749461 297.338974 
L 1143.891538 290.328866 
L 1145.033615 275.182116 
L 1146.175693 306.160476 
L 1147.31777 253.04146 
L 1149.601925 299.642802 
L 1150.744003 266.9106 
L 1151.88608 287.404413 
L 1153.028158 292.553415 
L 1154.170235 291.720794 
L 1155.312312 281.538601 
L 1156.45439 284.87248 
L 1157.596467 316.208378 
L 1158.738545 307.32007 
L 1159.880622 302.470162 
L 1161.0227 302.958009 
L 1162.164777 294.594316 
L 1163.306854 320.479569 
L 1164.448932 313.720687 
L 1165.591009 297.614702 
L 1166.733087 311.173418 
L 1167.875164 304.537194 
L 1169.017242 307.247465 
L 1170.159319 309.071252 
L 1171.301396 305.79795 
L 1172.443474 299.544893 
L 1173.585551 300.774479 
L 1174.727629 312.145192 
L 1175.869706 303.092401 
L 1177.011784 306.69409 
L 1178.153861 314.837788 
L 1179.295939 320.892494 
L 1180.438016 308.914267 
L 1181.580093 329.169242 
L 1182.722171 309.054174 
L 1183.864248 318.142153 
L 1185.006326 321.612875 
L 1186.148403 303.756203 
L 1187.290481 329.620791 
L 1188.432558 313.542956 
L 1189.574635 330.138262 
L 1190.716713 343.255399 
L 1191.85879 331.884341 
L 1193.000868 337.753371 
L 1194.142945 330.125165 
L 1195.285023 341.774319 
L 1196.4271 337.728823 
L 1197.569177 335.339886 
L 1198.711255 342.472583 
L 1199.853332 332.643582 
L 1200.99541 338.405409 
L 1202.137487 338.795536 
L 1203.279565 331.398253 
L 1205.56372 339.893165 
L 1206.705797 341.72961 
L 1207.847874 341.035055 
L 1208.989952 341.29681 
L 1210.132029 339.89409 
L 1211.274107 337.137294 
L 1212.416184 339.401543 
L 1213.558262 342.97612 
L 1214.700339 344.284333 
L 1215.842416 342.920796 
L 1216.984494 343.548713 
L 1218.126571 341.70176 
L 1219.268649 335.965398 
L 1220.410726 338.53932 
L 1221.552804 337.485182 
L 1222.694881 341.930549 
L 1223.836958 343.180432 
L 1224.979036 337.055964 
L 1226.121113 341.450372 
L 1227.263191 344.198509 
L 1228.405268 343.56543 
L 1229.547346 344.841447 
L 1230.689423 344.457935 
L 1231.831501 343.135503 
L 1232.973578 342.29299 
L 1235.257733 342.601305 
L 1236.39981 342.149172 
L 1237.541888 344.625041 
L 1238.683965 343.991849 
L 1239.826043 344.227162 
L 1240.96812 344.649864 
L 1242.110197 341.778802 
L 1243.252275 343.764708 
L 1244.394352 344.74217 
L 1246.678507 345.245089 
L 1247.820585 344.31933 
L 1248.962662 344.344276 
L 1250.104739 343.510639 
L 1251.246817 344.22325 
L 1253.530972 344.686013 
L 1254.673049 345.05535 
L 1255.815127 344.494155 
L 1256.957204 344.417541 
L 1259.241359 343.622995 
L 1260.383436 343.912867 
L 1261.525514 343.500733 
L 1262.667591 343.304069 
L 1263.809669 342.573684 
L 1264.951746 340.980226 
L 1266.093824 341.81552 
L 1268.377978 341.641974 
L 1269.520056 342.381223 
L 1270.662133 340.808108 
L 1271.804211 342.701389 
L 1272.946288 341.045933 
L 1274.088366 341.203617 
L 1275.230443 341.213595 
L 1276.37252 335.433411 
L 1278.656675 337.521377 
L 1279.798753 337.485763 
L 1280.94083 339.850714 
L 1282.082908 335.851015 
L 1283.224985 336.797079 
L 1284.367063 331.268264 
L 1285.50914 335.091604 
L 1286.651217 340.143238 
L 1287.793295 324.888266 
L 1288.935372 333.098733 
L 1290.07745 324.596538 
L 1291.219527 330.152741 
L 1292.361605 318.665211 
L 1293.503682 315.500638 
L 1294.645759 323.518764 
L 1295.787837 309.342288 
L 1296.929914 328.660356 
L 1298.071992 297.457656 
L 1299.214069 297.503935 
L 1300.356147 305.07062 
L 1301.498224 278.486402 
L 1302.640301 295.42311 
L 1303.782379 291.455288 
L 1304.924456 299.720558 
L 1306.066534 302.6673 
L 1307.208611 280.925694 
L 1308.350689 294.926533 
L 1308.350689 294.926533 
" clip-path="url(#pe968309f74)" style="fill: none; stroke: #ffa500; stroke-width: 1.5; stroke-linecap: square"/>
   </g>
   <g id="line2d_20">
    <path d="M 1309.492766 284.808023 
L 1310.634844 319.809947 
L 1311.776921 318.572835 
L 1312.918998 275.961956 
L 1314.061076 292.10121 
L 1315.203153 309.188888 
L 1316.345231 313.77004 
L 1317.487308 302.156312 
L 1318.629386 318.387879 
L 1319.771463 317.470296 
L 1320.91354 290.284397 
L 1322.055618 302.617877 
L 1323.197695 312.773998 
L 1324.339773 316.007534 
" clip-path="url(#pe968309f74)" style="fill: none; stroke: #ff0000; stroke-width: 1.5; stroke-linecap: square"/>
   </g>
   <g id="patch_3">
    <path d="M 46.0125 368.3955 
L 46.0125 35.7555 
" style="fill: none; stroke: #000000; stroke-width: 0.8; stroke-linejoin: miter; stroke-linecap: square"/>
   </g>
   <g id="patch_4">
    <path d="M 1385.2125 368.3955 
L 1385.2125 35.7555 
" style="fill: none; stroke: #000000; stroke-width: 0.8; stroke-linejoin: miter; stroke-linecap: square"/>
   </g>
   <g id="patch_5">
    <path d="M 46.0125 368.3955 
L 1385.2125 368.3955 
" style="fill: none; stroke: #000000; stroke-width: 0.8; stroke-linejoin: miter; stroke-linecap: square"/>
   </g>
   <g id="patch_6">
    <path d="M 46.0125 35.7555 
L 1385.2125 35.7555 
" style="fill: none; stroke: #000000; stroke-width: 0.8; stroke-linejoin: miter; stroke-linecap: square"/>
   </g>
   <g id="text_18">
    <!-- Daily Confirmed Cases Forecasting - Peru -->
    <g transform="translate(591.750938 16.318125)scale(0.12 -0.12)">
     <defs>
      <path id="DejaVuSans-44" d="M 1259 4147 
L 1259 519 
L 2022 519 
Q 2988 519 3436 956 
Q 3884 1394 3884 2338 
Q 3884 3275 3436 3711 
Q 2988 4147 2022 4147 
L 1259 4147 
z
M 628 4666 
L 1925 4666 
Q 3281 4666 3915 4102 
Q 4550 3538 4550 2338 
Q 4550 1131 3912 565 
Q 3275 0 1925 0 
L 628 0 
L 628 4666 
z
" transform="scale(0.015625)"/>
      <path id="DejaVuSans-61" d="M 2194 1759 
Q 1497 1759 1228 1600 
Q 959 1441 959 1056 
Q 959 750 1161 570 
Q 1363 391 1709 391 
Q 2188 391 2477 730 
Q 2766 1069 2766 1631 
L 2766 1759 
L 2194 1759 
z
M 3341 1997 
L 3341 0 
L 2766 0 
L 2766 531 
Q 2569 213 2275 61 
Q 1981 -91 1556 -91 
Q 1019 -91 701 211 
Q 384 513 384 1019 
Q 384 1609 779 1909 
Q 1175 2209 1959 2209 
L 2766 2209 
L 2766 2266 
Q 2766 2663 2505 2880 
Q 2244 3097 1772 3097 
Q 1472 3097 1187 3025 
Q 903 2953 641 2809 
L 641 3341 
Q 956 3463 1253 3523 
Q 1550 3584 1831 3584 
Q 2591 3584 2966 3190 
Q 3341 2797 3341 1997 
z
" transform="scale(0.015625)"/>
      <path id="DejaVuSans-69" d="M 603 3500 
L 1178 3500 
L 1178 0 
L 603 0 
L 603 3500 
z
M 603 4863 
L 1178 4863 
L 1178 4134 
L 603 4134 
L 603 4863 
z
" transform="scale(0.015625)"/>
      <path id="DejaVuSans-6c" d="M 603 4863 
L 1178 4863 
L 1178 0 
L 603 0 
L 603 4863 
z
" transform="scale(0.015625)"/>
      <path id="DejaVuSans-79" d="M 2059 -325 
Q 1816 -950 1584 -1140 
Q 1353 -1331 966 -1331 
L 506 -1331 
L 506 -850 
L 844 -850 
Q 1081 -850 1212 -737 
Q 1344 -625 1503 -206 
L 1606 56 
L 191 3500 
L 800 3500 
L 1894 763 
L 2988 3500 
L 3597 3500 
L 2059 -325 
z
" transform="scale(0.015625)"/>
      <path id="DejaVuSans-20" transform="scale(0.015625)"/>
      <path id="DejaVuSans-43" d="M 4122 4306 
L 4122 3641 
Q 3803 3938 3442 4084 
Q 3081 4231 2675 4231 
Q 1875 4231 1450 3742 
Q 1025 3253 1025 2328 
Q 1025 1406 1450 917 
Q 1875 428 2675 428 
Q 3081 428 3442 575 
Q 3803 722 4122 1019 
L 4122 359 
Q 3791 134 3420 21 
Q 3050 -91 2638 -91 
Q 1578 -91 968 557 
Q 359 1206 359 2328 
Q 359 3453 968 4101 
Q 1578 4750 2638 4750 
Q 3056 4750 3426 4639 
Q 3797 4528 4122 4306 
z
" transform="scale(0.015625)"/>
      <path id="DejaVuSans-6f" d="M 1959 3097 
Q 1497 3097 1228 2736 
Q 959 2375 959 1747 
Q 959 1119 1226 758 
Q 1494 397 1959 397 
Q 2419 397 2687 759 
Q 2956 1122 2956 1747 
Q 2956 2369 2687 2733 
Q 2419 3097 1959 3097 
z
M 1959 3584 
Q 2709 3584 3137 3096 
Q 3566 2609 3566 1747 
Q 3566 888 3137 398 
Q 2709 -91 1959 -91 
Q 1206 -91 779 398 
Q 353 888 353 1747 
Q 353 2609 779 3096 
Q 1206 3584 1959 3584 
z
" transform="scale(0.015625)"/>
      <path id="DejaVuSans-6e" d="M 3513 2113 
L 3513 0 
L 2938 0 
L 2938 2094 
Q 2938 2591 2744 2837 
Q 2550 3084 2163 3084 
Q 1697 3084 1428 2787 
Q 1159 2491 1159 1978 
L 1159 0 
L 581 0 
L 581 3500 
L 1159 3500 
L 1159 2956 
Q 1366 3272 1645 3428 
Q 1925 3584 2291 3584 
Q 2894 3584 3203 3211 
Q 3513 2838 3513 2113 
z
" transform="scale(0.015625)"/>
      <path id="DejaVuSans-66" d="M 2375 4863 
L 2375 4384 
L 1825 4384 
Q 1516 4384 1395 4259 
Q 1275 4134 1275 3809 
L 1275 3500 
L 2222 3500 
L 2222 3053 
L 1275 3053 
L 1275 0 
L 697 0 
L 697 3053 
L 147 3053 
L 147 3500 
L 697 3500 
L 697 3744 
Q 697 4328 969 4595 
Q 1241 4863 1831 4863 
L 2375 4863 
z
" transform="scale(0.015625)"/>
      <path id="DejaVuSans-72" d="M 2631 2963 
Q 2534 3019 2420 3045 
Q 2306 3072 2169 3072 
Q 1681 3072 1420 2755 
Q 1159 2438 1159 1844 
L 1159 0 
L 581 0 
L 581 3500 
L 1159 3500 
L 1159 2956 
Q 1341 3275 1631 3429 
Q 1922 3584 2338 3584 
Q 2397 3584 2469 3576 
Q 2541 3569 2628 3553 
L 2631 2963 
z
" transform="scale(0.015625)"/>
      <path id="DejaVuSans-6d" d="M 3328 2828 
Q 3544 3216 3844 3400 
Q 4144 3584 4550 3584 
Q 5097 3584 5394 3201 
Q 5691 2819 5691 2113 
L 5691 0 
L 5113 0 
L 5113 2094 
Q 5113 2597 4934 2840 
Q 4756 3084 4391 3084 
Q 3944 3084 3684 2787 
Q 3425 2491 3425 1978 
L 3425 0 
L 2847 0 
L 2847 2094 
Q 2847 2600 2669 2842 
Q 2491 3084 2119 3084 
Q 1678 3084 1418 2786 
Q 1159 2488 1159 1978 
L 1159 0 
L 581 0 
L 581 3500 
L 1159 3500 
L 1159 2956 
Q 1356 3278 1631 3431 
Q 1906 3584 2284 3584 
Q 2666 3584 2933 3390 
Q 3200 3197 3328 2828 
z
" transform="scale(0.015625)"/>
      <path id="DejaVuSans-65" d="M 3597 1894 
L 3597 1613 
L 953 1613 
Q 991 1019 1311 708 
Q 1631 397 2203 397 
Q 2534 397 2845 478 
Q 3156 559 3463 722 
L 3463 178 
Q 3153 47 2828 -22 
Q 2503 -91 2169 -91 
Q 1331 -91 842 396 
Q 353 884 353 1716 
Q 353 2575 817 3079 
Q 1281 3584 2069 3584 
Q 2775 3584 3186 3129 
Q 3597 2675 3597 1894 
z
M 3022 2063 
Q 3016 2534 2758 2815 
Q 2500 3097 2075 3097 
Q 1594 3097 1305 2825 
Q 1016 2553 972 2059 
L 3022 2063 
z
" transform="scale(0.015625)"/>
      <path id="DejaVuSans-64" d="M 2906 2969 
L 2906 4863 
L 3481 4863 
L 3481 0 
L 2906 0 
L 2906 525 
Q 2725 213 2448 61 
Q 2172 -91 1784 -91 
Q 1150 -91 751 415 
Q 353 922 353 1747 
Q 353 2572 751 3078 
Q 1150 3584 1784 3584 
Q 2172 3584 2448 3432 
Q 2725 3281 2906 2969 
z
M 947 1747 
Q 947 1113 1208 752 
Q 1469 391 1925 391 
Q 2381 391 2643 752 
Q 2906 1113 2906 1747 
Q 2906 2381 2643 2742 
Q 2381 3103 1925 3103 
Q 1469 3103 1208 2742 
Q 947 2381 947 1747 
z
" transform="scale(0.015625)"/>
      <path id="DejaVuSans-73" d="M 2834 3397 
L 2834 2853 
Q 2591 2978 2328 3040 
Q 2066 3103 1784 3103 
Q 1356 3103 1142 2972 
Q 928 2841 928 2578 
Q 928 2378 1081 2264 
Q 1234 2150 1697 2047 
L 1894 2003 
Q 2506 1872 2764 1633 
Q 3022 1394 3022 966 
Q 3022 478 2636 193 
Q 2250 -91 1575 -91 
Q 1294 -91 989 -36 
Q 684 19 347 128 
L 347 722 
Q 666 556 975 473 
Q 1284 391 1588 391 
Q 1994 391 2212 530 
Q 2431 669 2431 922 
Q 2431 1156 2273 1281 
Q 2116 1406 1581 1522 
L 1381 1569 
Q 847 1681 609 1914 
Q 372 2147 372 2553 
Q 372 3047 722 3315 
Q 1072 3584 1716 3584 
Q 2034 3584 2315 3537 
Q 2597 3491 2834 3397 
z
" transform="scale(0.015625)"/>
      <path id="DejaVuSans-46" d="M 628 4666 
L 3309 4666 
L 3309 4134 
L 1259 4134 
L 1259 2759 
L 3109 2759 
L 3109 2228 
L 1259 2228 
L 1259 0 
L 628 0 
L 628 4666 
z
" transform="scale(0.015625)"/>
      <path id="DejaVuSans-63" d="M 3122 3366 
L 3122 2828 
Q 2878 2963 2633 3030 
Q 2388 3097 2138 3097 
Q 1578 3097 1268 2742 
Q 959 2388 959 1747 
Q 959 1106 1268 751 
Q 1578 397 2138 397 
Q 2388 397 2633 464 
Q 2878 531 3122 666 
L 3122 134 
Q 2881 22 2623 -34 
Q 2366 -91 2075 -91 
Q 1284 -91 818 406 
Q 353 903 353 1747 
Q 353 2603 823 3093 
Q 1294 3584 2113 3584 
Q 2378 3584 2631 3529 
Q 2884 3475 3122 3366 
z
" transform="scale(0.015625)"/>
      <path id="DejaVuSans-74" d="M 1172 4494 
L 1172 3500 
L 2356 3500 
L 2356 3053 
L 1172 3053 
L 1172 1153 
Q 1172 725 1289 603 
Q 1406 481 1766 481 
L 2356 481 
L 2356 0 
L 1766 0 
Q 1100 0 847 248 
Q 594 497 594 1153 
L 594 3053 
L 172 3053 
L 172 3500 
L 594 3500 
L 594 4494 
L 1172 4494 
z
" transform="scale(0.015625)"/>
      <path id="DejaVuSans-67" d="M 2906 1791 
Q 2906 2416 2648 2759 
Q 2391 3103 1925 3103 
Q 1463 3103 1205 2759 
Q 947 2416 947 1791 
Q 947 1169 1205 825 
Q 1463 481 1925 481 
Q 2391 481 2648 825 
Q 2906 1169 2906 1791 
z
M 3481 434 
Q 3481 -459 3084 -895 
Q 2688 -1331 1869 -1331 
Q 1566 -1331 1297 -1286 
Q 1028 -1241 775 -1147 
L 775 -588 
Q 1028 -725 1275 -790 
Q 1522 -856 1778 -856 
Q 2344 -856 2625 -561 
Q 2906 -266 2906 331 
L 2906 616 
Q 2728 306 2450 153 
Q 2172 0 1784 0 
Q 1141 0 747 490 
Q 353 981 353 1791 
Q 353 2603 747 3093 
Q 1141 3584 1784 3584 
Q 2172 3584 2450 3431 
Q 2728 3278 2906 2969 
L 2906 3500 
L 3481 3500 
L 3481 434 
z
" transform="scale(0.015625)"/>
      <path id="DejaVuSans-50" d="M 1259 4147 
L 1259 2394 
L 2053 2394 
Q 2494 2394 2734 2622 
Q 2975 2850 2975 3272 
Q 2975 3691 2734 3919 
Q 2494 4147 2053 4147 
L 1259 4147 
z
M 628 4666 
L 2053 4666 
Q 2838 4666 3239 4311 
Q 3641 3956 3641 3272 
Q 3641 2581 3239 2228 
Q 2838 1875 2053 1875 
L 1259 1875 
L 1259 0 
L 628 0 
L 628 4666 
z
" transform="scale(0.015625)"/>
      <path id="DejaVuSans-75" d="M 544 1381 
L 544 3500 
L 1119 3500 
L 1119 1403 
Q 1119 906 1312 657 
Q 1506 409 1894 409 
Q 2359 409 2629 706 
Q 2900 1003 2900 1516 
L 2900 3500 
L 3475 3500 
L 3475 0 
L 2900 0 
L 2900 538 
Q 2691 219 2414 64 
Q 2138 -91 1772 -91 
Q 1169 -91 856 284 
Q 544 659 544 1381 
z
M 1991 3584 
L 1991 3584 
z
" transform="scale(0.015625)"/>
     </defs>
     <use xlink:href="#DejaVuSans-44"/>
     <use xlink:href="#DejaVuSans-61" x="77.001953"/>
     <use xlink:href="#DejaVuSans-69" x="138.28125"/>
     <use xlink:href="#DejaVuSans-6c" x="166.064453"/>
     <use xlink:href="#DejaVuSans-79" x="193.847656"/>
     <use xlink:href="#DejaVuSans-20" x="253.027344"/>
     <use xlink:href="#DejaVuSans-43" x="284.814453"/>
     <use xlink:href="#DejaVuSans-6f" x="354.638672"/>
     <use xlink:href="#DejaVuSans-6e" x="415.820312"/>
     <use xlink:href="#DejaVuSans-66" x="479.199219"/>
     <use xlink:href="#DejaVuSans-69" x="514.404297"/>
     <use xlink:href="#DejaVuSans-72" x="542.1875"/>
     <use xlink:href="#DejaVuSans-6d" x="581.550781"/>
     <use xlink:href="#DejaVuSans-65" x="678.962891"/>
     <use xlink:href="#DejaVuSans-64" x="740.486328"/>
     <use xlink:href="#DejaVuSans-20" x="803.962891"/>
     <use xlink:href="#DejaVuSans-43" x="835.75"/>
     <use xlink:href="#DejaVuSans-61" x="905.574219"/>
     <use xlink:href="#DejaVuSans-73" x="966.853516"/>
     <use xlink:href="#DejaVuSans-65" x="1018.953125"/>
     <use xlink:href="#DejaVuSans-73" x="1080.476562"/>
     <use xlink:href="#DejaVuSans-20" x="1132.576172"/>
     <use xlink:href="#DejaVuSans-46" x="1164.363281"/>
     <use xlink:href="#DejaVuSans-6f" x="1218.257812"/>
     <use xlink:href="#DejaVuSans-72" x="1279.439453"/>
     <use xlink:href="#DejaVuSans-65" x="1318.302734"/>
     <use xlink:href="#DejaVuSans-63" x="1379.826172"/>
     <use xlink:href="#DejaVuSans-61" x="1434.806641"/>
     <use xlink:href="#DejaVuSans-73" x="1496.085938"/>
     <use xlink:href="#DejaVuSans-74" x="1548.185547"/>
     <use xlink:href="#DejaVuSans-69" x="1587.394531"/>
     <use xlink:href="#DejaVuSans-6e" x="1615.177734"/>
     <use xlink:href="#DejaVuSans-67" x="1678.556641"/>
     <use xlink:href="#DejaVuSans-20" x="1742.033203"/>
     <use xlink:href="#DejaVuSans-2d" x="1773.820312"/>
     <use xlink:href="#DejaVuSans-20" x="1809.904297"/>
     <use xlink:href="#DejaVuSans-50" x="1841.691406"/>
     <use xlink:href="#DejaVuSans-65" x="1898.369141"/>
     <use xlink:href="#DejaVuSans-72" x="1959.892578"/>
     <use xlink:href="#DejaVuSans-75" x="2001.005859"/>
    </g>
    <!-- ARIMA (4, 0, 1)x(1, 0, 1, 7) (R2 = 0.443638) -->
    <g transform="translate(583.628438 29.7555)scale(0.12 -0.12)">
     <defs>
      <path id="DejaVuSans-41" d="M 2188 4044 
L 1331 1722 
L 3047 1722 
L 2188 4044 
z
M 1831 4666 
L 2547 4666 
L 4325 0 
L 3669 0 
L 3244 1197 
L 1141 1197 
L 716 0 
L 50 0 
L 1831 4666 
z
" transform="scale(0.015625)"/>
      <path id="DejaVuSans-52" d="M 2841 2188 
Q 3044 2119 3236 1894 
Q 3428 1669 3622 1275 
L 4263 0 
L 3584 0 
L 2988 1197 
Q 2756 1666 2539 1819 
Q 2322 1972 1947 1972 
L 1259 1972 
L 1259 0 
L 628 0 
L 628 4666 
L 2053 4666 
Q 2853 4666 3247 4331 
Q 3641 3997 3641 3322 
Q 3641 2881 3436 2590 
Q 3231 2300 2841 2188 
z
M 1259 4147 
L 1259 2491 
L 2053 2491 
Q 2509 2491 2742 2702 
Q 2975 2913 2975 3322 
Q 2975 3731 2742 3939 
Q 2509 4147 2053 4147 
L 1259 4147 
z
" transform="scale(0.015625)"/>
      <path id="DejaVuSans-49" d="M 628 4666 
L 1259 4666 
L 1259 0 
L 628 0 
L 628 4666 
z
" transform="scale(0.015625)"/>
      <path id="DejaVuSans-4d" d="M 628 4666 
L 1569 4666 
L 2759 1491 
L 3956 4666 
L 4897 4666 
L 4897 0 
L 4281 0 
L 4281 4097 
L 3078 897 
L 2444 897 
L 1241 4097 
L 1241 0 
L 628 0 
L 628 4666 
z
" transform="scale(0.015625)"/>
      <path id="DejaVuSans-28" d="M 1984 4856 
Q 1566 4138 1362 3434 
Q 1159 2731 1159 2009 
Q 1159 1288 1364 580 
Q 1569 -128 1984 -844 
L 1484 -844 
Q 1016 -109 783 600 
Q 550 1309 550 2009 
Q 550 2706 781 3412 
Q 1013 4119 1484 4856 
L 1984 4856 
z
" transform="scale(0.015625)"/>
      <path id="DejaVuSans-2c" d="M 750 794 
L 1409 794 
L 1409 256 
L 897 -744 
L 494 -744 
L 750 256 
L 750 794 
z
" transform="scale(0.015625)"/>
      <path id="DejaVuSans-29" d="M 513 4856 
L 1013 4856 
Q 1481 4119 1714 3412 
Q 1947 2706 1947 2009 
Q 1947 1309 1714 600 
Q 1481 -109 1013 -844 
L 513 -844 
Q 928 -128 1133 580 
Q 1338 1288 1338 2009 
Q 1338 2731 1133 3434 
Q 928 4138 513 4856 
z
" transform="scale(0.015625)"/>
      <path id="DejaVuSans-78" d="M 3513 3500 
L 2247 1797 
L 3578 0 
L 2900 0 
L 1881 1375 
L 863 0 
L 184 0 
L 1544 1831 
L 300 3500 
L 978 3500 
L 1906 2253 
L 2834 3500 
L 3513 3500 
z
" transform="scale(0.015625)"/>
      <path id="DejaVuSans-37" d="M 525 4666 
L 3525 4666 
L 3525 4397 
L 1831 0 
L 1172 0 
L 2766 4134 
L 525 4134 
L 525 4666 
z
" transform="scale(0.015625)"/>
      <path id="DejaVuSans-3d" d="M 678 2906 
L 4684 2906 
L 4684 2381 
L 678 2381 
L 678 2906 
z
M 678 1631 
L 4684 1631 
L 4684 1100 
L 678 1100 
L 678 1631 
z
" transform="scale(0.015625)"/>
      <path id="DejaVuSans-2e" d="M 684 794 
L 1344 794 
L 1344 0 
L 684 0 
L 684 794 
z
" transform="scale(0.015625)"/>
      <path id="DejaVuSans-38" d="M 2034 2216 
Q 1584 2216 1326 1975 
Q 1069 1734 1069 1313 
Q 1069 891 1326 650 
Q 1584 409 2034 409 
Q 2484 409 2743 651 
Q 3003 894 3003 1313 
Q 3003 1734 2745 1975 
Q 2488 2216 2034 2216 
z
M 1403 2484 
Q 997 2584 770 2862 
Q 544 3141 544 3541 
Q 544 4100 942 4425 
Q 1341 4750 2034 4750 
Q 2731 4750 3128 4425 
Q 3525 4100 3525 3541 
Q 3525 3141 3298 2862 
Q 3072 2584 2669 2484 
Q 3125 2378 3379 2068 
Q 3634 1759 3634 1313 
Q 3634 634 3220 271 
Q 2806 -91 2034 -91 
Q 1263 -91 848 271 
Q 434 634 434 1313 
Q 434 1759 690 2068 
Q 947 2378 1403 2484 
z
M 1172 3481 
Q 1172 3119 1398 2916 
Q 1625 2713 2034 2713 
Q 2441 2713 2670 2916 
Q 2900 3119 2900 3481 
Q 2900 3844 2670 4047 
Q 2441 4250 2034 4250 
Q 1625 4250 1398 4047 
Q 1172 3844 1172 3481 
z
" transform="scale(0.015625)"/>
     </defs>
     <use xlink:href="#DejaVuSans-41"/>
     <use xlink:href="#DejaVuSans-52" x="68.408203"/>
     <use xlink:href="#DejaVuSans-49" x="137.890625"/>
     <use xlink:href="#DejaVuSans-4d" x="167.382812"/>
     <use xlink:href="#DejaVuSans-41" x="253.662109"/>
     <use xlink:href="#DejaVuSans-20" x="322.070312"/>
     <use xlink:href="#DejaVuSans-28" x="353.857422"/>
     <use xlink:href="#DejaVuSans-34" x="392.871094"/>
     <use xlink:href="#DejaVuSans-2c" x="456.494141"/>
     <use xlink:href="#DejaVuSans-20" x="488.28125"/>
     <use xlink:href="#DejaVuSans-30" x="520.068359"/>
     <use xlink:href="#DejaVuSans-2c" x="583.691406"/>
     <use xlink:href="#DejaVuSans-20" x="615.478516"/>
     <use xlink:href="#DejaVuSans-31" x="647.265625"/>
     <use xlink:href="#DejaVuSans-29" x="710.888672"/>
     <use xlink:href="#DejaVuSans-78" x="749.902344"/>
     <use xlink:href="#DejaVuSans-28" x="809.082031"/>
     <use xlink:href="#DejaVuSans-31" x="848.095703"/>
     <use xlink:href="#DejaVuSans-2c" x="911.71875"/>
     <use xlink:href="#DejaVuSans-20" x="943.505859"/>
     <use xlink:href="#DejaVuSans-30" x="975.292969"/>
     <use xlink:href="#DejaVuSans-2c" x="1038.916016"/>
     <use xlink:href="#DejaVuSans-20" x="1070.703125"/>
     <use xlink:href="#DejaVuSans-31" x="1102.490234"/>
     <use xlink:href="#DejaVuSans-2c" x="1166.113281"/>
     <use xlink:href="#DejaVuSans-20" x="1197.900391"/>
     <use xlink:href="#DejaVuSans-37" x="1229.6875"/>
     <use xlink:href="#DejaVuSans-29" x="1293.310547"/>
     <use xlink:href="#DejaVuSans-20" x="1332.324219"/>
     <use xlink:href="#DejaVuSans-28" x="1364.111328"/>
     <use xlink:href="#DejaVuSans-52" x="1403.125"/>
     <use xlink:href="#DejaVuSans-32" x="1472.607422"/>
     <use xlink:href="#DejaVuSans-20" x="1536.230469"/>
     <use xlink:href="#DejaVuSans-3d" x="1568.017578"/>
     <use xlink:href="#DejaVuSans-20" x="1651.806641"/>
     <use xlink:href="#DejaVuSans-30" x="1683.59375"/>
     <use xlink:href="#DejaVuSans-2e" x="1747.216797"/>
     <use xlink:href="#DejaVuSans-34" x="1779.003906"/>
     <use xlink:href="#DejaVuSans-34" x="1842.626953"/>
     <use xlink:href="#DejaVuSans-33" x="1906.25"/>
     <use xlink:href="#DejaVuSans-36" x="1969.873047"/>
     <use xlink:href="#DejaVuSans-33" x="2033.496094"/>
     <use xlink:href="#DejaVuSans-38" x="2097.119141"/>
     <use xlink:href="#DejaVuSans-29" x="2160.742188"/>
    </g>
   </g>
   <g id="legend_1">
    <g id="patch_7">
     <path d="M 1281.132812 87.789875 
L 1378.2125 87.789875 
Q 1380.2125 87.789875 1380.2125 85.789875 
L 1380.2125 42.7555 
Q 1380.2125 40.7555 1378.2125 40.7555 
L 1281.132812 40.7555 
Q 1279.132812 40.7555 1279.132812 42.7555 
L 1279.132812 85.789875 
Q 1279.132812 87.789875 1281.132812 87.789875 
z
" style="fill: #ffffff; opacity: 0.8; stroke: #cccccc; stroke-linejoin: miter"/>
    </g>
    <g id="line2d_21">
     <path d="M 1283.132812 48.853937 
L 1293.132812 48.853937 
L 1303.132812 48.853937 
" style="fill: none; stroke: #0000ff; stroke-width: 1.5; stroke-linecap: square"/>
    </g>
    <g id="text_19">
     <!-- Actual Value -->
     <g transform="translate(1311.132812 52.353937)scale(0.1 -0.1)">
      <defs>
       <path id="DejaVuSans-56" d="M 1831 0 
L 50 4666 
L 709 4666 
L 2188 738 
L 3669 4666 
L 4325 4666 
L 2547 0 
L 1831 0 
z
" transform="scale(0.015625)"/>
      </defs>
      <use xlink:href="#DejaVuSans-41"/>
      <use xlink:href="#DejaVuSans-63" x="66.658203"/>
      <use xlink:href="#DejaVuSans-74" x="121.638672"/>
      <use xlink:href="#DejaVuSans-75" x="160.847656"/>
      <use xlink:href="#DejaVuSans-61" x="224.226562"/>
      <use xlink:href="#DejaVuSans-6c" x="285.505859"/>
      <use xlink:href="#DejaVuSans-20" x="313.289062"/>
      <use xlink:href="#DejaVuSans-56" x="345.076172"/>
      <use xlink:href="#DejaVuSans-61" x="405.734375"/>
      <use xlink:href="#DejaVuSans-6c" x="467.013672"/>
      <use xlink:href="#DejaVuSans-75" x="494.796875"/>
      <use xlink:href="#DejaVuSans-65" x="558.175781"/>
     </g>
    </g>
    <g id="line2d_22">
     <path d="M 1283.132812 63.532062 
L 1293.132812 63.532062 
L 1303.132812 63.532062 
" style="fill: none; stroke: #ffa500; stroke-width: 1.5; stroke-linecap: square"/>
    </g>
    <g id="text_20">
     <!-- Check Value -->
     <g transform="translate(1311.132812 67.032062)scale(0.1 -0.1)">
      <defs>
       <path id="DejaVuSans-68" d="M 3513 2113 
L 3513 0 
L 2938 0 
L 2938 2094 
Q 2938 2591 2744 2837 
Q 2550 3084 2163 3084 
Q 1697 3084 1428 2787 
Q 1159 2491 1159 1978 
L 1159 0 
L 581 0 
L 581 4863 
L 1159 4863 
L 1159 2956 
Q 1366 3272 1645 3428 
Q 1925 3584 2291 3584 
Q 2894 3584 3203 3211 
Q 3513 2838 3513 2113 
z
" transform="scale(0.015625)"/>
       <path id="DejaVuSans-6b" d="M 581 4863 
L 1159 4863 
L 1159 1991 
L 2875 3500 
L 3609 3500 
L 1753 1863 
L 3688 0 
L 2938 0 
L 1159 1709 
L 1159 0 
L 581 0 
L 581 4863 
z
" transform="scale(0.015625)"/>
      </defs>
      <use xlink:href="#DejaVuSans-43"/>
      <use xlink:href="#DejaVuSans-68" x="69.824219"/>
      <use xlink:href="#DejaVuSans-65" x="133.203125"/>
      <use xlink:href="#DejaVuSans-63" x="194.726562"/>
      <use xlink:href="#DejaVuSans-6b" x="249.707031"/>
      <use xlink:href="#DejaVuSans-20" x="307.617188"/>
      <use xlink:href="#DejaVuSans-56" x="339.404297"/>
      <use xlink:href="#DejaVuSans-61" x="400.0625"/>
      <use xlink:href="#DejaVuSans-6c" x="461.341797"/>
      <use xlink:href="#DejaVuSans-75" x="489.125"/>
      <use xlink:href="#DejaVuSans-65" x="552.503906"/>
     </g>
    </g>
    <g id="line2d_23">
     <path d="M 1283.132812 78.210187 
L 1293.132812 78.210187 
L 1303.132812 78.210187 
" style="fill: none; stroke: #ff0000; stroke-width: 1.5; stroke-linecap: square"/>
    </g>
    <g id="text_21">
     <!-- Predict Value -->
     <g transform="translate(1311.132812 81.710187)scale(0.1 -0.1)">
      <use xlink:href="#DejaVuSans-50"/>
      <use xlink:href="#DejaVuSans-72" x="58.552734"/>
      <use xlink:href="#DejaVuSans-65" x="97.416016"/>
      <use xlink:href="#DejaVuSans-64" x="158.939453"/>
      <use xlink:href="#DejaVuSans-69" x="222.416016"/>
      <use xlink:href="#DejaVuSans-63" x="250.199219"/>
      <use xlink:href="#DejaVuSans-74" x="305.179688"/>
      <use xlink:href="#DejaVuSans-20" x="344.388672"/>
      <use xlink:href="#DejaVuSans-56" x="376.175781"/>
      <use xlink:href="#DejaVuSans-61" x="436.833984"/>
      <use xlink:href="#DejaVuSans-6c" x="498.113281"/>
      <use xlink:href="#DejaVuSans-75" x="525.896484"/>
      <use xlink:href="#DejaVuSans-65" x="589.275391"/>
     </g>
    </g>
   </g>
  </g>
 </g>
 <defs>
  <clipPath id="pe968309f74">
   <rect x="46.0125" y="35.7555" width="1339.2" height="332.64"/>
  </clipPath>
 </defs>
</svg>
