<?xml version="1.0" encoding="utf-8" standalone="no"?>
<!DOCTYPE svg PUBLIC "-//W3C//DTD SVG 1.1//EN"
  "http://www.w3.org/Graphics/SVG/1.1/DTD/svg11.dtd">
<svg xmlns:xlink="http://www.w3.org/1999/xlink" width="1379.6875pt" height="392.273625pt" viewBox="0 0 1379.6875 392.273625" xmlns="http://www.w3.org/2000/svg" version="1.1">
 <metadata>
  <rdf:RDF xmlns:dc="http://purl.org/dc/elements/1.1/" xmlns:cc="http://creativecommons.org/ns#" xmlns:rdf="http://www.w3.org/1999/02/22-rdf-syntax-ns#">
   <cc:Work>
    <dc:type rdf:resource="http://purl.org/dc/dcmitype/StillImage"/>
    <dc:date>2023-01-10T19:10:52.516876</dc:date>
    <dc:format>image/svg+xml</dc:format>
    <dc:creator>
     <cc:Agent>
      <dc:title>Matplotlib v3.5.1, https://matplotlib.org/</dc:title>
     </cc:Agent>
    </dc:creator>
   </cc:Work>
  </rdf:RDF>
 </metadata>
 <defs>
  <style type="text/css">*{stroke-linejoin: round; stroke-linecap: butt}</style>
 </defs>
 <g id="figure_1">
  <g id="patch_1">
   <path d="M 0 392.273625 
L 1379.6875 392.273625 
L 1379.6875 0 
L 0 0 
z
" style="fill: #ffffff"/>
  </g>
  <g id="axes_1">
   <g id="patch_2">
    <path d="M 33.2875 368.3955 
L 1372.4875 368.3955 
L 1372.4875 35.7555 
L 33.2875 35.7555 
z
" style="fill: #ffffff"/>
   </g>
   <g id="matplotlib.axis_1">
    <g id="xtick_1">
     <g id="line2d_1">
      <defs>
       <path id="mff644ca29f" d="M 0 0 
L 0 3.5 
" style="stroke: #000000; stroke-width: 0.8"/>
      </defs>
      <g>
       <use xlink:href="#mff644ca29f" x="69.722271" y="368.3955" style="stroke: #000000; stroke-width: 0.8"/>
      </g>
     </g>
     <g id="text_1">
      <!-- 2020-01 -->
      <g transform="translate(48.830865 382.993937)scale(0.1 -0.1)">
       <defs>
        <path id="DejaVuSans-32" d="M 1228 531 
L 3431 531 
L 3431 0 
L 469 0 
L 469 531 
Q 828 903 1448 1529 
Q 2069 2156 2228 2338 
Q 2531 2678 2651 2914 
Q 2772 3150 2772 3378 
Q 2772 3750 2511 3984 
Q 2250 4219 1831 4219 
Q 1534 4219 1204 4116 
Q 875 4013 500 3803 
L 500 4441 
Q 881 4594 1212 4672 
Q 1544 4750 1819 4750 
Q 2544 4750 2975 4387 
Q 3406 4025 3406 3419 
Q 3406 3131 3298 2873 
Q 3191 2616 2906 2266 
Q 2828 2175 2409 1742 
Q 1991 1309 1228 531 
z
" transform="scale(0.015625)"/>
        <path id="DejaVuSans-30" d="M 2034 4250 
Q 1547 4250 1301 3770 
Q 1056 3291 1056 2328 
Q 1056 1369 1301 889 
Q 1547 409 2034 409 
Q 2525 409 2770 889 
Q 3016 1369 3016 2328 
Q 3016 3291 2770 3770 
Q 2525 4250 2034 4250 
z
M 2034 4750 
Q 2819 4750 3233 4129 
Q 3647 3509 3647 2328 
Q 3647 1150 3233 529 
Q 2819 -91 2034 -91 
Q 1250 -91 836 529 
Q 422 1150 422 2328 
Q 422 3509 836 4129 
Q 1250 4750 2034 4750 
z
" transform="scale(0.015625)"/>
        <path id="DejaVuSans-2d" d="M 313 2009 
L 1997 2009 
L 1997 1497 
L 313 1497 
L 313 2009 
z
" transform="scale(0.015625)"/>
        <path id="DejaVuSans-31" d="M 794 531 
L 1825 531 
L 1825 4091 
L 703 3866 
L 703 4441 
L 1819 4666 
L 2450 4666 
L 2450 531 
L 3481 531 
L 3481 0 
L 794 0 
L 794 531 
z
" transform="scale(0.015625)"/>
       </defs>
       <use xlink:href="#DejaVuSans-32"/>
       <use xlink:href="#DejaVuSans-30" x="63.623047"/>
       <use xlink:href="#DejaVuSans-32" x="127.246094"/>
       <use xlink:href="#DejaVuSans-30" x="190.869141"/>
       <use xlink:href="#DejaVuSans-2d" x="254.492188"/>
       <use xlink:href="#DejaVuSans-30" x="290.576172"/>
       <use xlink:href="#DejaVuSans-31" x="354.199219"/>
      </g>
     </g>
    </g>
    <g id="xtick_2">
     <g id="line2d_2">
      <g>
       <use xlink:href="#mff644ca29f" x="204.13103" y="368.3955" style="stroke: #000000; stroke-width: 0.8"/>
      </g>
     </g>
     <g id="text_2">
      <!-- 2020-05 -->
      <g transform="translate(183.239624 382.993937)scale(0.1 -0.1)">
       <defs>
        <path id="DejaVuSans-35" d="M 691 4666 
L 3169 4666 
L 3169 4134 
L 1269 4134 
L 1269 2991 
Q 1406 3038 1543 3061 
Q 1681 3084 1819 3084 
Q 2600 3084 3056 2656 
Q 3513 2228 3513 1497 
Q 3513 744 3044 326 
Q 2575 -91 1722 -91 
Q 1428 -91 1123 -41 
Q 819 9 494 109 
L 494 744 
Q 775 591 1075 516 
Q 1375 441 1709 441 
Q 2250 441 2565 725 
Q 2881 1009 2881 1497 
Q 2881 1984 2565 2268 
Q 2250 2553 1709 2553 
Q 1456 2553 1204 2497 
Q 953 2441 691 2322 
L 691 4666 
z
" transform="scale(0.015625)"/>
       </defs>
       <use xlink:href="#DejaVuSans-32"/>
       <use xlink:href="#DejaVuSans-30" x="63.623047"/>
       <use xlink:href="#DejaVuSans-32" x="127.246094"/>
       <use xlink:href="#DejaVuSans-30" x="190.869141"/>
       <use xlink:href="#DejaVuSans-2d" x="254.492188"/>
       <use xlink:href="#DejaVuSans-30" x="290.576172"/>
       <use xlink:href="#DejaVuSans-35" x="354.199219"/>
      </g>
     </g>
    </g>
    <g id="xtick_3">
     <g id="line2d_3">
      <g>
       <use xlink:href="#mff644ca29f" x="340.761422" y="368.3955" style="stroke: #000000; stroke-width: 0.8"/>
      </g>
     </g>
     <g id="text_3">
      <!-- 2020-09 -->
      <g transform="translate(319.870015 382.993937)scale(0.1 -0.1)">
       <defs>
        <path id="DejaVuSans-39" d="M 703 97 
L 703 672 
Q 941 559 1184 500 
Q 1428 441 1663 441 
Q 2288 441 2617 861 
Q 2947 1281 2994 2138 
Q 2813 1869 2534 1725 
Q 2256 1581 1919 1581 
Q 1219 1581 811 2004 
Q 403 2428 403 3163 
Q 403 3881 828 4315 
Q 1253 4750 1959 4750 
Q 2769 4750 3195 4129 
Q 3622 3509 3622 2328 
Q 3622 1225 3098 567 
Q 2575 -91 1691 -91 
Q 1453 -91 1209 -44 
Q 966 3 703 97 
z
M 1959 2075 
Q 2384 2075 2632 2365 
Q 2881 2656 2881 3163 
Q 2881 3666 2632 3958 
Q 2384 4250 1959 4250 
Q 1534 4250 1286 3958 
Q 1038 3666 1038 3163 
Q 1038 2656 1286 2365 
Q 1534 2075 1959 2075 
z
" transform="scale(0.015625)"/>
       </defs>
       <use xlink:href="#DejaVuSans-32"/>
       <use xlink:href="#DejaVuSans-30" x="63.623047"/>
       <use xlink:href="#DejaVuSans-32" x="127.246094"/>
       <use xlink:href="#DejaVuSans-30" x="190.869141"/>
       <use xlink:href="#DejaVuSans-2d" x="254.492188"/>
       <use xlink:href="#DejaVuSans-30" x="290.576172"/>
       <use xlink:href="#DejaVuSans-39" x="354.199219"/>
      </g>
     </g>
    </g>
    <g id="xtick_4">
     <g id="line2d_4">
      <g>
       <use xlink:href="#mff644ca29f" x="476.280997" y="368.3955" style="stroke: #000000; stroke-width: 0.8"/>
      </g>
     </g>
     <g id="text_4">
      <!-- 2021-01 -->
      <g transform="translate(455.389591 382.993937)scale(0.1 -0.1)">
       <use xlink:href="#DejaVuSans-32"/>
       <use xlink:href="#DejaVuSans-30" x="63.623047"/>
       <use xlink:href="#DejaVuSans-32" x="127.246094"/>
       <use xlink:href="#DejaVuSans-31" x="190.869141"/>
       <use xlink:href="#DejaVuSans-2d" x="254.492188"/>
       <use xlink:href="#DejaVuSans-30" x="290.576172"/>
       <use xlink:href="#DejaVuSans-31" x="354.199219"/>
      </g>
     </g>
    </g>
    <g id="xtick_5">
     <g id="line2d_5">
      <g>
       <use xlink:href="#mff644ca29f" x="609.57894" y="368.3955" style="stroke: #000000; stroke-width: 0.8"/>
      </g>
     </g>
     <g id="text_5">
      <!-- 2021-05 -->
      <g transform="translate(588.687534 382.993937)scale(0.1 -0.1)">
       <use xlink:href="#DejaVuSans-32"/>
       <use xlink:href="#DejaVuSans-30" x="63.623047"/>
       <use xlink:href="#DejaVuSans-32" x="127.246094"/>
       <use xlink:href="#DejaVuSans-31" x="190.869141"/>
       <use xlink:href="#DejaVuSans-2d" x="254.492188"/>
       <use xlink:href="#DejaVuSans-30" x="290.576172"/>
       <use xlink:href="#DejaVuSans-35" x="354.199219"/>
      </g>
     </g>
    </g>
    <g id="xtick_6">
     <g id="line2d_6">
      <g>
       <use xlink:href="#mff644ca29f" x="746.209331" y="368.3955" style="stroke: #000000; stroke-width: 0.8"/>
      </g>
     </g>
     <g id="text_6">
      <!-- 2021-09 -->
      <g transform="translate(725.317925 382.993937)scale(0.1 -0.1)">
       <use xlink:href="#DejaVuSans-32"/>
       <use xlink:href="#DejaVuSans-30" x="63.623047"/>
       <use xlink:href="#DejaVuSans-32" x="127.246094"/>
       <use xlink:href="#DejaVuSans-31" x="190.869141"/>
       <use xlink:href="#DejaVuSans-2d" x="254.492188"/>
       <use xlink:href="#DejaVuSans-30" x="290.576172"/>
       <use xlink:href="#DejaVuSans-39" x="354.199219"/>
      </g>
     </g>
    </g>
    <g id="xtick_7">
     <g id="line2d_7">
      <g>
       <use xlink:href="#mff644ca29f" x="881.728907" y="368.3955" style="stroke: #000000; stroke-width: 0.8"/>
      </g>
     </g>
     <g id="text_7">
      <!-- 2022-01 -->
      <g transform="translate(860.837501 382.993937)scale(0.1 -0.1)">
       <use xlink:href="#DejaVuSans-32"/>
       <use xlink:href="#DejaVuSans-30" x="63.623047"/>
       <use xlink:href="#DejaVuSans-32" x="127.246094"/>
       <use xlink:href="#DejaVuSans-32" x="190.869141"/>
       <use xlink:href="#DejaVuSans-2d" x="254.492188"/>
       <use xlink:href="#DejaVuSans-30" x="290.576172"/>
       <use xlink:href="#DejaVuSans-31" x="354.199219"/>
      </g>
     </g>
    </g>
    <g id="xtick_8">
     <g id="line2d_8">
      <g>
       <use xlink:href="#mff644ca29f" x="1015.02685" y="368.3955" style="stroke: #000000; stroke-width: 0.8"/>
      </g>
     </g>
     <g id="text_8">
      <!-- 2022-05 -->
      <g transform="translate(994.135443 382.993937)scale(0.1 -0.1)">
       <use xlink:href="#DejaVuSans-32"/>
       <use xlink:href="#DejaVuSans-30" x="63.623047"/>
       <use xlink:href="#DejaVuSans-32" x="127.246094"/>
       <use xlink:href="#DejaVuSans-32" x="190.869141"/>
       <use xlink:href="#DejaVuSans-2d" x="254.492188"/>
       <use xlink:href="#DejaVuSans-30" x="290.576172"/>
       <use xlink:href="#DejaVuSans-35" x="354.199219"/>
      </g>
     </g>
    </g>
    <g id="xtick_9">
     <g id="line2d_9">
      <g>
       <use xlink:href="#mff644ca29f" x="1151.657241" y="368.3955" style="stroke: #000000; stroke-width: 0.8"/>
      </g>
     </g>
     <g id="text_9">
      <!-- 2022-09 -->
      <g transform="translate(1130.765835 382.993937)scale(0.1 -0.1)">
       <use xlink:href="#DejaVuSans-32"/>
       <use xlink:href="#DejaVuSans-30" x="63.623047"/>
       <use xlink:href="#DejaVuSans-32" x="127.246094"/>
       <use xlink:href="#DejaVuSans-32" x="190.869141"/>
       <use xlink:href="#DejaVuSans-2d" x="254.492188"/>
       <use xlink:href="#DejaVuSans-30" x="290.576172"/>
       <use xlink:href="#DejaVuSans-39" x="354.199219"/>
      </g>
     </g>
    </g>
    <g id="xtick_10">
     <g id="line2d_10">
      <g>
       <use xlink:href="#mff644ca29f" x="1287.176817" y="368.3955" style="stroke: #000000; stroke-width: 0.8"/>
      </g>
     </g>
     <g id="text_10">
      <!-- 2023-01 -->
      <g transform="translate(1266.28541 382.993937)scale(0.1 -0.1)">
       <defs>
        <path id="DejaVuSans-33" d="M 2597 2516 
Q 3050 2419 3304 2112 
Q 3559 1806 3559 1356 
Q 3559 666 3084 287 
Q 2609 -91 1734 -91 
Q 1441 -91 1130 -33 
Q 819 25 488 141 
L 488 750 
Q 750 597 1062 519 
Q 1375 441 1716 441 
Q 2309 441 2620 675 
Q 2931 909 2931 1356 
Q 2931 1769 2642 2001 
Q 2353 2234 1838 2234 
L 1294 2234 
L 1294 2753 
L 1863 2753 
Q 2328 2753 2575 2939 
Q 2822 3125 2822 3475 
Q 2822 3834 2567 4026 
Q 2313 4219 1838 4219 
Q 1578 4219 1281 4162 
Q 984 4106 628 3988 
L 628 4550 
Q 988 4650 1302 4700 
Q 1616 4750 1894 4750 
Q 2613 4750 3031 4423 
Q 3450 4097 3450 3541 
Q 3450 3153 3228 2886 
Q 3006 2619 2597 2516 
z
" transform="scale(0.015625)"/>
       </defs>
       <use xlink:href="#DejaVuSans-32"/>
       <use xlink:href="#DejaVuSans-30" x="63.623047"/>
       <use xlink:href="#DejaVuSans-32" x="127.246094"/>
       <use xlink:href="#DejaVuSans-33" x="190.869141"/>
       <use xlink:href="#DejaVuSans-2d" x="254.492188"/>
       <use xlink:href="#DejaVuSans-30" x="290.576172"/>
       <use xlink:href="#DejaVuSans-31" x="354.199219"/>
      </g>
     </g>
    </g>
   </g>
   <g id="matplotlib.axis_2">
    <g id="ytick_1">
     <g id="line2d_11">
      <defs>
       <path id="md9ad0b476b" d="M 0 0 
L -3.5 0 
" style="stroke: #000000; stroke-width: 0.8"/>
      </defs>
      <g>
       <use xlink:href="#md9ad0b476b" x="33.2875" y="347.051672" style="stroke: #000000; stroke-width: 0.8"/>
      </g>
     </g>
     <g id="text_11">
      <!-- 0 -->
      <g transform="translate(19.925 350.85089)scale(0.1 -0.1)">
       <use xlink:href="#DejaVuSans-30"/>
      </g>
     </g>
    </g>
    <g id="ytick_2">
     <g id="line2d_12">
      <g>
       <use xlink:href="#md9ad0b476b" x="33.2875" y="289.653189" style="stroke: #000000; stroke-width: 0.8"/>
      </g>
     </g>
     <g id="text_12">
      <!-- 100 -->
      <g transform="translate(7.2 293.452408)scale(0.1 -0.1)">
       <use xlink:href="#DejaVuSans-31"/>
       <use xlink:href="#DejaVuSans-30" x="63.623047"/>
       <use xlink:href="#DejaVuSans-30" x="127.246094"/>
      </g>
     </g>
    </g>
    <g id="ytick_3">
     <g id="line2d_13">
      <g>
       <use xlink:href="#md9ad0b476b" x="33.2875" y="232.254706" style="stroke: #000000; stroke-width: 0.8"/>
      </g>
     </g>
     <g id="text_13">
      <!-- 200 -->
      <g transform="translate(7.2 236.053925)scale(0.1 -0.1)">
       <use xlink:href="#DejaVuSans-32"/>
       <use xlink:href="#DejaVuSans-30" x="63.623047"/>
       <use xlink:href="#DejaVuSans-30" x="127.246094"/>
      </g>
     </g>
    </g>
    <g id="ytick_4">
     <g id="line2d_14">
      <g>
       <use xlink:href="#md9ad0b476b" x="33.2875" y="174.856223" style="stroke: #000000; stroke-width: 0.8"/>
      </g>
     </g>
     <g id="text_14">
      <!-- 300 -->
      <g transform="translate(7.2 178.655442)scale(0.1 -0.1)">
       <use xlink:href="#DejaVuSans-33"/>
       <use xlink:href="#DejaVuSans-30" x="63.623047"/>
       <use xlink:href="#DejaVuSans-30" x="127.246094"/>
      </g>
     </g>
    </g>
    <g id="ytick_5">
     <g id="line2d_15">
      <g>
       <use xlink:href="#md9ad0b476b" x="33.2875" y="117.45774" style="stroke: #000000; stroke-width: 0.8"/>
      </g>
     </g>
     <g id="text_15">
      <!-- 400 -->
      <g transform="translate(7.2 121.256959)scale(0.1 -0.1)">
       <defs>
        <path id="DejaVuSans-34" d="M 2419 4116 
L 825 1625 
L 2419 1625 
L 2419 4116 
z
M 2253 4666 
L 3047 4666 
L 3047 1625 
L 3713 1625 
L 3713 1100 
L 3047 1100 
L 3047 0 
L 2419 0 
L 2419 1100 
L 313 1100 
L 313 1709 
L 2253 4666 
z
" transform="scale(0.015625)"/>
       </defs>
       <use xlink:href="#DejaVuSans-34"/>
       <use xlink:href="#DejaVuSans-30" x="63.623047"/>
       <use xlink:href="#DejaVuSans-30" x="127.246094"/>
      </g>
     </g>
    </g>
    <g id="ytick_6">
     <g id="line2d_16">
      <g>
       <use xlink:href="#md9ad0b476b" x="33.2875" y="60.059257" style="stroke: #000000; stroke-width: 0.8"/>
      </g>
     </g>
     <g id="text_16">
      <!-- 500 -->
      <g transform="translate(7.2 63.858476)scale(0.1 -0.1)">
       <use xlink:href="#DejaVuSans-35"/>
       <use xlink:href="#DejaVuSans-30" x="63.623047"/>
       <use xlink:href="#DejaVuSans-30" x="127.246094"/>
      </g>
     </g>
    </g>
   </g>
   <g id="line2d_17">
    <path d="M 94.160227 347.051672 
L 155.255118 347.051672 
L 156.365934 346.477687 
L 157.47675 347.051672 
L 158.587566 347.051672 
L 159.698383 346.477687 
L 160.809199 347.051672 
L 167.474096 347.051672 
L 168.584912 345.903702 
L 169.695728 347.051672 
L 170.806544 346.477687 
L 171.917361 347.051672 
L 176.360625 347.051672 
L 177.471442 346.477687 
L 178.582258 347.051672 
L 180.80389 347.051672 
L 181.914706 346.477687 
L 183.025523 347.051672 
L 184.136339 345.903702 
L 185.247155 347.051672 
L 193.022868 347.051672 
L 194.133684 346.477687 
L 195.244501 347.051672 
L 196.355317 347.051672 
L 197.466133 346.477687 
L 198.576949 347.051672 
L 199.687765 345.903702 
L 200.798582 347.051672 
L 203.020214 347.051672 
L 204.13103 346.477687 
L 205.241846 347.051672 
L 207.463479 347.051672 
L 208.574295 346.477687 
L 209.685111 347.051672 
L 210.795927 346.477687 
L 211.906744 347.051672 
L 217.460824 347.051672 
L 218.571641 341.885808 
L 219.682457 347.051672 
L 225.236538 347.051672 
L 226.347354 201.259525 
L 227.45817 347.051672 
L 233.012251 347.051672 
L 234.123067 71.538954 
L 235.233884 274.729583 
L 236.3447 347.051672 
L 239.677148 347.051672 
L 240.787964 309.742658 
L 241.898781 140.991118 
L 243.009597 347.051672 
L 248.563678 347.051672 
L 249.674494 148.452921 
L 250.78531 347.051672 
L 256.339391 347.051672 
L 257.450207 140.991118 
L 258.561024 347.051672 
L 271.890818 347.051672 
L 273.001634 250.62222 
L 274.11245 347.051672 
L 279.666531 347.051672 
L 280.777347 215.609146 
L 281.888164 347.051672 
L 286.331428 347.051672 
L 287.442245 174.282238 
L 288.553061 347.051672 
L 294.107142 347.051672 
L 295.217958 179.448102 
L 296.328774 347.051672 
L 301.882855 347.051672 
L 302.993671 303.428825 
L 304.104487 347.051672 
L 309.658568 347.051672 
L 310.769385 240.290494 
L 311.880201 347.051672 
L 317.434282 347.051672 
L 318.545098 262.675902 
L 319.655914 347.051672 
L 325.209995 347.051672 
L 326.320811 274.155598 
L 327.431627 347.051672 
L 332.985708 347.051672 
L 334.096525 278.747477 
L 335.207341 347.051672 
L 340.761422 347.051672 
L 341.872238 281.617401 
L 342.983054 347.051672 
L 348.537135 347.051672 
L 349.647951 287.35725 
L 350.758767 347.051672 
L 356.312848 347.051672 
L 357.423665 288.505219 
L 358.534481 347.051672 
L 364.088562 347.051672 
L 365.199378 297.688976 
L 366.310194 347.051672 
L 371.864275 347.051672 
L 372.975091 300.558901 
L 374.085907 347.051672 
L 379.639988 347.051672 
L 380.750805 301.70687 
L 381.861621 347.051672 
L 387.415702 347.051672 
L 388.526518 305.724764 
L 389.637334 347.051672 
L 395.191415 347.051672 
L 396.302231 309.742658 
L 397.413047 347.051672 
L 402.967128 347.051672 
L 404.077945 311.464612 
L 405.188761 347.051672 
L 410.742842 347.051672 
L 411.853658 314.908521 
L 412.964474 347.051672 
L 418.518555 347.051672 
L 419.629371 316.630476 
L 420.740187 347.051672 
L 426.294268 347.051672 
L 427.405085 318.35243 
L 428.515901 347.051672 
L 434.069982 347.051672 
L 435.180798 320.64837 
L 436.291614 347.051672 
L 441.845695 347.051672 
L 442.956511 322.944309 
L 444.067327 347.051672 
L 449.621408 347.051672 
L 450.732225 325.240248 
L 451.843041 347.051672 
L 457.397122 347.051672 
L 458.507938 324.666263 
L 459.618754 347.051672 
L 465.172835 347.051672 
L 466.283651 322.944309 
L 467.394467 347.051672 
L 472.948548 347.051672 
L 474.059365 324.666263 
L 475.170181 347.051672 
L 480.724262 347.051672 
L 481.835078 325.240248 
L 482.945894 347.051672 
L 488.499975 347.051672 
L 489.610791 318.926415 
L 490.721607 347.051672 
L 496.275688 347.051672 
L 497.386505 325.814233 
L 498.497321 347.051672 
L 504.051402 347.051672 
L 505.162218 324.666263 
L 506.273034 347.051672 
L 511.827115 347.051672 
L 512.937931 326.962203 
L 514.048748 347.051672 
L 519.602828 347.051672 
L 520.713645 325.814233 
L 521.824461 347.051672 
L 527.378542 347.051672 
L 528.489358 322.944309 
L 529.600174 347.051672 
L 535.154255 347.051672 
L 536.265071 326.388218 
L 537.375888 347.051672 
L 542.929968 347.051672 
L 544.040785 327.536188 
L 545.151601 347.051672 
L 550.705682 347.051672 
L 551.816498 324.092279 
L 552.927314 347.051672 
L 558.481395 347.051672 
L 559.592211 326.962203 
L 560.703028 347.051672 
L 566.257108 347.051672 
L 567.367925 325.814233 
L 568.478741 347.051672 
L 574.032822 347.051672 
L 575.143638 325.240248 
L 576.254454 347.051672 
L 581.808535 347.051672 
L 582.919351 324.092279 
L 584.030168 347.051672 
L 589.584249 347.051672 
L 590.695065 323.518294 
L 591.805881 347.051672 
L 597.359962 347.051672 
L 598.470778 322.370324 
L 599.581594 347.051672 
L 605.135675 347.051672 
L 606.246491 319.5004 
L 607.357308 347.051672 
L 612.911389 347.051672 
L 614.022205 302.85484 
L 615.133021 347.051672 
L 620.687102 347.051672 
L 621.797918 304.576794 
L 622.908734 347.051672 
L 628.462815 347.051672 
L 629.573631 299.984916 
L 630.684448 347.051672 
L 636.238529 347.051672 
L 637.349345 288.505219 
L 638.460161 347.051672 
L 644.014242 347.051672 
L 645.125058 280.469432 
L 646.235874 347.051672 
L 651.789955 347.051672 
L 652.900771 268.989735 
L 654.011588 347.051672 
L 659.565669 347.051672 
L 660.676485 256.362069 
L 661.787301 347.051672 
L 667.341382 347.051672 
L 668.452198 255.788084 
L 669.563014 347.051672 
L 675.117095 347.051672 
L 676.227911 231.106736 
L 677.338728 347.051672 
L 682.892809 347.051672 
L 684.003625 223.644934 
L 685.114441 347.051672 
L 690.668522 347.051672 
L 691.779338 217.905085 
L 692.890154 347.051672 
L 698.444235 347.051672 
L 699.555051 192.649753 
L 700.665868 347.051672 
L 706.219949 347.051672 
L 707.330765 186.909904 
L 708.441581 347.051672 
L 713.995662 347.051672 
L 715.106478 176.004193 
L 716.217294 347.051672 
L 721.771375 347.051672 
L 722.882191 173.134269 
L 723.993008 347.051672 
L 729.547089 347.051672 
L 730.657905 173.134269 
L 731.768721 347.051672 
L 737.322802 347.051672 
L 738.433618 134.1033 
L 739.544434 347.051672 
L 745.098515 347.051672 
L 746.209331 108.273983 
L 747.320148 347.051672 
L 752.874229 347.051672 
L 753.985045 89.332484 
L 755.095861 347.051672 
L 760.649942 347.051672 
L 761.760758 52.597454 
L 762.871574 347.051672 
L 768.425655 347.051672 
L 769.536471 53.171439 
L 770.647288 347.051672 
L 776.201369 347.051672 
L 777.312185 50.8755 
L 778.423001 347.051672 
L 783.977082 347.051672 
L 785.087898 79.574741 
L 786.198714 347.051672 
L 791.752795 347.051672 
L 792.863611 100.238195 
L 793.974428 347.051672 
L 799.528509 347.051672 
L 800.639325 128.937437 
L 801.750141 347.051672 
L 807.304222 347.051672 
L 808.415038 165.098481 
L 809.525854 347.051672 
L 815.079935 347.051672 
L 816.190751 243.160418 
L 817.301568 347.051672 
L 822.855649 347.051672 
L 823.966465 287.931234 
L 825.077281 347.051672 
L 830.631362 347.051672 
L 831.742178 294.245067 
L 832.852994 347.051672 
L 838.407075 347.051672 
L 839.517892 296.541007 
L 840.628708 347.051672 
L 846.182789 347.051672 
L 847.293605 308.594688 
L 848.404421 347.051672 
L 853.958502 347.051672 
L 855.069318 317.204461 
L 856.180134 347.051672 
L 861.734215 347.051672 
L 862.845032 321.796339 
L 863.955848 347.051672 
L 869.509929 347.051672 
L 870.620745 325.240248 
L 871.731561 347.051672 
L 877.285642 347.051672 
L 878.396458 328.684157 
L 879.507274 347.051672 
L 885.061355 347.051672 
L 886.172172 332.128066 
L 887.282988 347.051672 
L 900.612782 347.051672 
L 901.723598 314.334536 
L 902.834414 347.051672 
L 908.388495 347.051672 
L 909.499312 326.962203 
L 910.610128 347.051672 
L 916.164209 347.051672 
L 917.275025 320.64837 
L 918.385841 347.051672 
L 923.939922 347.051672 
L 925.050738 309.742658 
L 926.161554 347.051672 
L 931.715635 347.051672 
L 932.826452 298.262961 
L 933.937268 347.051672 
L 939.491349 347.051672 
L 940.602165 300.558901 
L 941.712981 347.051672 
L 947.267062 347.051672 
L 948.377878 302.85484 
L 949.488694 347.051672 
L 955.042775 347.051672 
L 956.153592 305.150779 
L 957.264408 347.051672 
L 962.818489 347.051672 
L 963.929305 311.464612 
L 965.040121 347.051672 
L 970.594202 347.051672 
L 971.705018 317.204461 
L 972.815834 347.051672 
L 978.369915 347.051672 
L 979.480732 320.074385 
L 980.591548 347.051672 
L 986.145629 347.051672 
L 987.256445 325.814233 
L 988.367261 347.051672 
L 993.921342 347.051672 
L 995.032158 328.110172 
L 996.142974 347.051672 
L 1001.697055 347.051672 
L 1002.807872 328.684157 
L 1003.918688 347.051672 
L 1009.472769 347.051672 
L 1010.583585 333.276036 
L 1011.694401 347.051672 
L 1017.248482 347.051672 
L 1018.359298 331.554081 
L 1019.470114 347.051672 
L 1025.024195 347.051672 
L 1026.135012 332.702051 
L 1027.245828 347.051672 
L 1032.799909 347.051672 
L 1033.910725 332.128066 
L 1035.021541 347.051672 
L 1040.575622 347.051672 
L 1041.686438 326.962203 
L 1042.797254 347.051672 
L 1048.351335 347.051672 
L 1049.462152 329.832127 
L 1050.572968 347.051672 
L 1056.127049 347.051672 
L 1057.237865 324.666263 
L 1058.348681 347.051672 
L 1063.902762 347.051672 
L 1065.013578 322.944309 
L 1066.124394 347.051672 
L 1079.454189 347.051672 
L 1080.565005 306.298749 
L 1081.675821 347.051672 
L 1087.229902 347.051672 
L 1088.340718 329.258142 
L 1089.451535 347.051672 
L 1095.005615 347.051672 
L 1096.116432 329.832127 
L 1097.227248 347.051672 
L 1102.781329 347.051672 
L 1103.892145 332.128066 
L 1105.002961 347.051672 
L 1110.557042 347.051672 
L 1111.667858 329.832127 
L 1112.778675 347.051672 
L 1126.108469 347.051672 
L 1127.219285 309.742658 
L 1128.330101 347.051672 
L 1133.884182 347.051672 
L 1134.994998 331.554081 
L 1136.105815 347.051672 
L 1141.659895 347.051672 
L 1142.770712 328.684157 
L 1143.881528 347.051672 
L 1162.765403 347.051672 
L 1163.876219 313.186567 
L 1164.987036 347.051672 
L 1171.651933 347.051672 
L 1172.762749 329.258142 
L 1173.873565 347.051672 
L 1174.984381 333.276036 
L 1176.095197 347.051672 
L 1180.538462 347.051672 
L 1181.649278 332.702051 
L 1182.760095 347.051672 
L 1188.314176 347.051672 
L 1189.424992 334.424005 
L 1190.535808 347.051672 
L 1196.089889 347.051672 
L 1197.200705 330.980097 
L 1198.311521 347.051672 
L 1203.865602 347.051672 
L 1204.976418 332.702051 
L 1206.087235 347.051672 
L 1211.641316 347.051672 
L 1212.752132 334.99799 
L 1213.862948 347.051672 
L 1219.417029 347.051672 
L 1220.527845 335.571975 
L 1221.638661 347.051672 
L 1227.192742 347.051672 
L 1228.303558 337.29393 
L 1229.414375 347.051672 
L 1234.968456 347.051672 
L 1236.079272 337.867914 
L 1237.190088 347.051672 
L 1242.744169 347.051672 
L 1243.854985 339.589869 
L 1244.965801 347.051672 
L 1250.519882 347.051672 
L 1251.630698 336.719945 
L 1252.741515 347.051672 
L 1258.295596 347.051672 
L 1259.406412 339.589869 
L 1260.517228 347.051672 
L 1266.071309 347.051672 
L 1267.182125 321.222354 
L 1268.292941 347.051672 
L 1276.068655 347.051672 
L 1277.179471 314.334536 
L 1278.290287 347.051672 
L 1290.509265 347.051672 
L 1291.620081 289.079204 
L 1292.730897 347.051672 
L 1296.063346 347.051672 
L 1296.063346 347.051672 
" clip-path="url(#p79626f587a)" style="fill: none; stroke: #0000ff; stroke-width: 1.5; stroke-linecap: square"/>
   </g>
   <g id="line2d_18">
    <path d="M 1056.127049 347.051672 
L 1057.237865 330.942169 
L 1058.348681 346.084089 
L 1059.459497 345.81426 
L 1062.791946 345.632506 
L 1063.902762 347.051672 
L 1065.013578 326.869935 
L 1066.124394 346.446441 
L 1067.235211 346.277661 
L 1070.567659 346.163973 
L 1071.678475 347.051672 
L 1072.789292 325.023795 
L 1073.900108 350.447803 
L 1075.010924 351.394878 
L 1076.12174 351.697154 
L 1077.232556 351.713583 
L 1078.343373 352.032818 
L 1079.454189 347.051672 
L 1080.565005 344.76807 
L 1081.675821 341.120694 
L 1082.786637 339.466728 
L 1083.897454 338.938836 
L 1085.00827 338.910145 
L 1086.119086 338.352635 
L 1087.229902 347.051672 
L 1088.340718 313.114172 
L 1089.451535 349.540656 
L 1090.562351 350.234756 
L 1091.673167 350.456291 
L 1092.783983 350.468331 
L 1093.894799 350.702295 
L 1095.005615 347.051672 
L 1096.116432 328.818998 
L 1097.227248 347.20787 
L 1101.670513 347.28077 
L 1102.781329 347.051672 
L 1103.892145 330.921756 
L 1105.002961 347.237654 
L 1108.33541 347.306972 
L 1109.446226 347.324454 
L 1110.557042 347.051672 
L 1111.667858 333.03838 
L 1112.778675 346.55735 
L 1115.000307 346.375502 
L 1117.221939 346.326644 
L 1118.332755 347.051672 
L 1119.443572 331.359174 
L 1120.554388 349.471051 
L 1121.665204 350.14574 
L 1122.77602 350.361079 
L 1123.886836 350.372783 
L 1124.997653 350.600204 
L 1126.108469 347.051672 
L 1127.219285 345.424851 
L 1128.330101 341.550397 
L 1129.440917 340.016262 
L 1130.551734 339.526616 
L 1131.66255 339.500004 
L 1132.773366 338.982886 
L 1133.884182 347.051672 
L 1134.994998 316.030212 
L 1136.105815 349.445052 
L 1137.216631 350.112492 
L 1138.327447 350.325517 
L 1139.438263 350.337095 
L 1140.549079 350.562072 
L 1141.659895 347.051672 
L 1142.770712 331.019935 
L 1143.881528 346.691555 
L 1146.10316 346.559077 
L 1148.324793 346.523484 
L 1149.435609 347.051672 
L 1150.546425 330.200607 
L 1151.657241 349.649672 
L 1152.768057 350.374173 
L 1153.878874 350.605411 
L 1154.98969 350.617978 
L 1156.100506 350.86219 
L 1157.211322 347.051672 
L 1158.322138 345.304744 
L 1159.432955 347.321003 
L 1161.654587 347.420083 
L 1163.876219 347.446703 
L 1164.987036 341.830545 
L 1166.097852 340.193433 
L 1167.208668 339.937745 
L 1168.319484 339.920274 
L 1169.4303 339.431975 
L 1170.541116 347.09 
L 1171.651933 319.087766 
L 1172.762749 351.369299 
L 1173.873565 349.811273 
L 1174.984381 349.452214 
L 1176.095197 347.10589 
L 1177.206014 346.906457 
L 1178.31683 340.12685 
L 1179.427646 341.237257 
L 1180.538462 329.669784 
L 1181.649278 349.890735 
L 1182.760095 336.96131 
L 1183.870911 349.696652 
L 1184.981727 350.0426 
L 1186.092543 349.744964 
L 1187.203359 345.917196 
L 1188.314176 348.14867 
L 1189.424992 335.479528 
L 1190.535808 346.11761 
L 1191.646624 347.469098 
L 1193.868256 347.484616 
L 1194.979073 347.098324 
L 1196.089889 347.165396 
L 1197.200705 335.409513 
L 1198.311521 346.288807 
L 1202.754786 346.079632 
L 1203.865602 347.063461 
L 1204.976418 332.554303 
L 1206.087235 347.066161 
L 1210.530499 347.088148 
L 1211.641316 347.052894 
L 1212.752132 333.682283 
L 1213.862948 347.253661 
L 1217.195396 347.330855 
L 1218.306213 347.349509 
L 1219.417029 347.051798 
L 1220.527845 335.697854 
L 1221.638661 347.032175 
L 1227.192742 347.051685 
L 1228.303558 336.381464 
L 1229.414375 347.192341 
L 1233.857639 347.25801 
L 1234.968456 347.051673 
L 1236.079272 337.876309 
L 1237.190088 347.050377 
L 1242.744169 347.051672 
L 1243.854985 338.505936 
L 1244.965801 347.218786 
L 1249.409066 347.296781 
L 1250.519882 347.051672 
L 1251.630698 339.995184 
L 1252.741515 346.546714 
L 1254.963147 346.360953 
L 1257.184779 346.311044 
L 1258.295596 347.051672 
L 1259.406412 337.77628 
L 1260.517228 347.33128 
L 1262.73886 347.434141 
L 1264.960493 347.461777 
L 1266.071309 347.051672 
L 1267.182125 339.919542 
L 1268.292941 344.169047 
L 1269.403757 343.365173 
L 1270.514574 343.108602 
L 1271.62539 343.094657 
L 1272.736206 342.823692 
L 1273.847022 347.051672 
L 1274.957838 324.952656 
L 1276.068655 350.45877 
L 1277.179471 351.408905 
L 1278.290287 346.668018 
L 1279.401103 345.277845 
L 1280.511919 345.149153 
L 1281.622736 340.12752 
L 1282.733552 337.362396 
L 1283.844368 347.404881 
L 1284.955184 320.44784 
L 1286.066 351.706085 
L 1287.176817 352.871031 
L 1288.287633 353.2755 
L 1289.398449 352.777622 
L 1290.509265 352.932217 
L 1291.620081 347.088289 
L 1292.730897 335.355826 
L 1293.841714 336.103836 
L 1294.95253 335.429082 
L 1296.063346 335.427776 
L 1296.063346 335.427776 
" clip-path="url(#p79626f587a)" style="fill: none; stroke: #ffa500; stroke-width: 1.5; stroke-linecap: square"/>
   </g>
   <g id="line2d_19">
    <path d="M 1297.174162 334.536006 
L 1298.284978 345.731707 
L 1299.395795 296.443747 
L 1300.506611 343.454812 
L 1301.617427 343.094077 
L 1302.728243 342.122824 
L 1303.839059 343.956796 
L 1304.949876 333.115347 
L 1306.060692 342.169793 
L 1307.171508 296.349503 
L 1308.282324 340.175884 
L 1309.39314 340.15903 
L 1310.503957 339.223087 
L 1311.614773 340.705588 
" clip-path="url(#p79626f587a)" style="fill: none; stroke: #ff0000; stroke-width: 1.5; stroke-linecap: square"/>
   </g>
   <g id="patch_3">
    <path d="M 33.2875 368.3955 
L 33.2875 35.7555 
" style="fill: none; stroke: #000000; stroke-width: 0.8; stroke-linejoin: miter; stroke-linecap: square"/>
   </g>
   <g id="patch_4">
    <path d="M 1372.4875 368.3955 
L 1372.4875 35.7555 
" style="fill: none; stroke: #000000; stroke-width: 0.8; stroke-linejoin: miter; stroke-linecap: square"/>
   </g>
   <g id="patch_5">
    <path d="M 33.2875 368.3955 
L 1372.4875 368.3955 
" style="fill: none; stroke: #000000; stroke-width: 0.8; stroke-linejoin: miter; stroke-linecap: square"/>
   </g>
   <g id="patch_6">
    <path d="M 33.2875 35.7555 
L 1372.4875 35.7555 
" style="fill: none; stroke: #000000; stroke-width: 0.8; stroke-linejoin: miter; stroke-linecap: square"/>
   </g>
   <g id="text_17">
    <!-- Daily Confirmed Cases Forecasting - Nicaragua -->
    <g transform="translate(561.82375 16.318125)scale(0.12 -0.12)">
     <defs>
      <path id="DejaVuSans-44" d="M 1259 4147 
L 1259 519 
L 2022 519 
Q 2988 519 3436 956 
Q 3884 1394 3884 2338 
Q 3884 3275 3436 3711 
Q 2988 4147 2022 4147 
L 1259 4147 
z
M 628 4666 
L 1925 4666 
Q 3281 4666 3915 4102 
Q 4550 3538 4550 2338 
Q 4550 1131 3912 565 
Q 3275 0 1925 0 
L 628 0 
L 628 4666 
z
" transform="scale(0.015625)"/>
      <path id="DejaVuSans-61" d="M 2194 1759 
Q 1497 1759 1228 1600 
Q 959 1441 959 1056 
Q 959 750 1161 570 
Q 1363 391 1709 391 
Q 2188 391 2477 730 
Q 2766 1069 2766 1631 
L 2766 1759 
L 2194 1759 
z
M 3341 1997 
L 3341 0 
L 2766 0 
L 2766 531 
Q 2569 213 2275 61 
Q 1981 -91 1556 -91 
Q 1019 -91 701 211 
Q 384 513 384 1019 
Q 384 1609 779 1909 
Q 1175 2209 1959 2209 
L 2766 2209 
L 2766 2266 
Q 2766 2663 2505 2880 
Q 2244 3097 1772 3097 
Q 1472 3097 1187 3025 
Q 903 2953 641 2809 
L 641 3341 
Q 956 3463 1253 3523 
Q 1550 3584 1831 3584 
Q 2591 3584 2966 3190 
Q 3341 2797 3341 1997 
z
" transform="scale(0.015625)"/>
      <path id="DejaVuSans-69" d="M 603 3500 
L 1178 3500 
L 1178 0 
L 603 0 
L 603 3500 
z
M 603 4863 
L 1178 4863 
L 1178 4134 
L 603 4134 
L 603 4863 
z
" transform="scale(0.015625)"/>
      <path id="DejaVuSans-6c" d="M 603 4863 
L 1178 4863 
L 1178 0 
L 603 0 
L 603 4863 
z
" transform="scale(0.015625)"/>
      <path id="DejaVuSans-79" d="M 2059 -325 
Q 1816 -950 1584 -1140 
Q 1353 -1331 966 -1331 
L 506 -1331 
L 506 -850 
L 844 -850 
Q 1081 -850 1212 -737 
Q 1344 -625 1503 -206 
L 1606 56 
L 191 3500 
L 800 3500 
L 1894 763 
L 2988 3500 
L 3597 3500 
L 2059 -325 
z
" transform="scale(0.015625)"/>
      <path id="DejaVuSans-20" transform="scale(0.015625)"/>
      <path id="DejaVuSans-43" d="M 4122 4306 
L 4122 3641 
Q 3803 3938 3442 4084 
Q 3081 4231 2675 4231 
Q 1875 4231 1450 3742 
Q 1025 3253 1025 2328 
Q 1025 1406 1450 917 
Q 1875 428 2675 428 
Q 3081 428 3442 575 
Q 3803 722 4122 1019 
L 4122 359 
Q 3791 134 3420 21 
Q 3050 -91 2638 -91 
Q 1578 -91 968 557 
Q 359 1206 359 2328 
Q 359 3453 968 4101 
Q 1578 4750 2638 4750 
Q 3056 4750 3426 4639 
Q 3797 4528 4122 4306 
z
" transform="scale(0.015625)"/>
      <path id="DejaVuSans-6f" d="M 1959 3097 
Q 1497 3097 1228 2736 
Q 959 2375 959 1747 
Q 959 1119 1226 758 
Q 1494 397 1959 397 
Q 2419 397 2687 759 
Q 2956 1122 2956 1747 
Q 2956 2369 2687 2733 
Q 2419 3097 1959 3097 
z
M 1959 3584 
Q 2709 3584 3137 3096 
Q 3566 2609 3566 1747 
Q 3566 888 3137 398 
Q 2709 -91 1959 -91 
Q 1206 -91 779 398 
Q 353 888 353 1747 
Q 353 2609 779 3096 
Q 1206 3584 1959 3584 
z
" transform="scale(0.015625)"/>
      <path id="DejaVuSans-6e" d="M 3513 2113 
L 3513 0 
L 2938 0 
L 2938 2094 
Q 2938 2591 2744 2837 
Q 2550 3084 2163 3084 
Q 1697 3084 1428 2787 
Q 1159 2491 1159 1978 
L 1159 0 
L 581 0 
L 581 3500 
L 1159 3500 
L 1159 2956 
Q 1366 3272 1645 3428 
Q 1925 3584 2291 3584 
Q 2894 3584 3203 3211 
Q 3513 2838 3513 2113 
z
" transform="scale(0.015625)"/>
      <path id="DejaVuSans-66" d="M 2375 4863 
L 2375 4384 
L 1825 4384 
Q 1516 4384 1395 4259 
Q 1275 4134 1275 3809 
L 1275 3500 
L 2222 3500 
L 2222 3053 
L 1275 3053 
L 1275 0 
L 697 0 
L 697 3053 
L 147 3053 
L 147 3500 
L 697 3500 
L 697 3744 
Q 697 4328 969 4595 
Q 1241 4863 1831 4863 
L 2375 4863 
z
" transform="scale(0.015625)"/>
      <path id="DejaVuSans-72" d="M 2631 2963 
Q 2534 3019 2420 3045 
Q 2306 3072 2169 3072 
Q 1681 3072 1420 2755 
Q 1159 2438 1159 1844 
L 1159 0 
L 581 0 
L 581 3500 
L 1159 3500 
L 1159 2956 
Q 1341 3275 1631 3429 
Q 1922 3584 2338 3584 
Q 2397 3584 2469 3576 
Q 2541 3569 2628 3553 
L 2631 2963 
z
" transform="scale(0.015625)"/>
      <path id="DejaVuSans-6d" d="M 3328 2828 
Q 3544 3216 3844 3400 
Q 4144 3584 4550 3584 
Q 5097 3584 5394 3201 
Q 5691 2819 5691 2113 
L 5691 0 
L 5113 0 
L 5113 2094 
Q 5113 2597 4934 2840 
Q 4756 3084 4391 3084 
Q 3944 3084 3684 2787 
Q 3425 2491 3425 1978 
L 3425 0 
L 2847 0 
L 2847 2094 
Q 2847 2600 2669 2842 
Q 2491 3084 2119 3084 
Q 1678 3084 1418 2786 
Q 1159 2488 1159 1978 
L 1159 0 
L 581 0 
L 581 3500 
L 1159 3500 
L 1159 2956 
Q 1356 3278 1631 3431 
Q 1906 3584 2284 3584 
Q 2666 3584 2933 3390 
Q 3200 3197 3328 2828 
z
" transform="scale(0.015625)"/>
      <path id="DejaVuSans-65" d="M 3597 1894 
L 3597 1613 
L 953 1613 
Q 991 1019 1311 708 
Q 1631 397 2203 397 
Q 2534 397 2845 478 
Q 3156 559 3463 722 
L 3463 178 
Q 3153 47 2828 -22 
Q 2503 -91 2169 -91 
Q 1331 -91 842 396 
Q 353 884 353 1716 
Q 353 2575 817 3079 
Q 1281 3584 2069 3584 
Q 2775 3584 3186 3129 
Q 3597 2675 3597 1894 
z
M 3022 2063 
Q 3016 2534 2758 2815 
Q 2500 3097 2075 3097 
Q 1594 3097 1305 2825 
Q 1016 2553 972 2059 
L 3022 2063 
z
" transform="scale(0.015625)"/>
      <path id="DejaVuSans-64" d="M 2906 2969 
L 2906 4863 
L 3481 4863 
L 3481 0 
L 2906 0 
L 2906 525 
Q 2725 213 2448 61 
Q 2172 -91 1784 -91 
Q 1150 -91 751 415 
Q 353 922 353 1747 
Q 353 2572 751 3078 
Q 1150 3584 1784 3584 
Q 2172 3584 2448 3432 
Q 2725 3281 2906 2969 
z
M 947 1747 
Q 947 1113 1208 752 
Q 1469 391 1925 391 
Q 2381 391 2643 752 
Q 2906 1113 2906 1747 
Q 2906 2381 2643 2742 
Q 2381 3103 1925 3103 
Q 1469 3103 1208 2742 
Q 947 2381 947 1747 
z
" transform="scale(0.015625)"/>
      <path id="DejaVuSans-73" d="M 2834 3397 
L 2834 2853 
Q 2591 2978 2328 3040 
Q 2066 3103 1784 3103 
Q 1356 3103 1142 2972 
Q 928 2841 928 2578 
Q 928 2378 1081 2264 
Q 1234 2150 1697 2047 
L 1894 2003 
Q 2506 1872 2764 1633 
Q 3022 1394 3022 966 
Q 3022 478 2636 193 
Q 2250 -91 1575 -91 
Q 1294 -91 989 -36 
Q 684 19 347 128 
L 347 722 
Q 666 556 975 473 
Q 1284 391 1588 391 
Q 1994 391 2212 530 
Q 2431 669 2431 922 
Q 2431 1156 2273 1281 
Q 2116 1406 1581 1522 
L 1381 1569 
Q 847 1681 609 1914 
Q 372 2147 372 2553 
Q 372 3047 722 3315 
Q 1072 3584 1716 3584 
Q 2034 3584 2315 3537 
Q 2597 3491 2834 3397 
z
" transform="scale(0.015625)"/>
      <path id="DejaVuSans-46" d="M 628 4666 
L 3309 4666 
L 3309 4134 
L 1259 4134 
L 1259 2759 
L 3109 2759 
L 3109 2228 
L 1259 2228 
L 1259 0 
L 628 0 
L 628 4666 
z
" transform="scale(0.015625)"/>
      <path id="DejaVuSans-63" d="M 3122 3366 
L 3122 2828 
Q 2878 2963 2633 3030 
Q 2388 3097 2138 3097 
Q 1578 3097 1268 2742 
Q 959 2388 959 1747 
Q 959 1106 1268 751 
Q 1578 397 2138 397 
Q 2388 397 2633 464 
Q 2878 531 3122 666 
L 3122 134 
Q 2881 22 2623 -34 
Q 2366 -91 2075 -91 
Q 1284 -91 818 406 
Q 353 903 353 1747 
Q 353 2603 823 3093 
Q 1294 3584 2113 3584 
Q 2378 3584 2631 3529 
Q 2884 3475 3122 3366 
z
" transform="scale(0.015625)"/>
      <path id="DejaVuSans-74" d="M 1172 4494 
L 1172 3500 
L 2356 3500 
L 2356 3053 
L 1172 3053 
L 1172 1153 
Q 1172 725 1289 603 
Q 1406 481 1766 481 
L 2356 481 
L 2356 0 
L 1766 0 
Q 1100 0 847 248 
Q 594 497 594 1153 
L 594 3053 
L 172 3053 
L 172 3500 
L 594 3500 
L 594 4494 
L 1172 4494 
z
" transform="scale(0.015625)"/>
      <path id="DejaVuSans-67" d="M 2906 1791 
Q 2906 2416 2648 2759 
Q 2391 3103 1925 3103 
Q 1463 3103 1205 2759 
Q 947 2416 947 1791 
Q 947 1169 1205 825 
Q 1463 481 1925 481 
Q 2391 481 2648 825 
Q 2906 1169 2906 1791 
z
M 3481 434 
Q 3481 -459 3084 -895 
Q 2688 -1331 1869 -1331 
Q 1566 -1331 1297 -1286 
Q 1028 -1241 775 -1147 
L 775 -588 
Q 1028 -725 1275 -790 
Q 1522 -856 1778 -856 
Q 2344 -856 2625 -561 
Q 2906 -266 2906 331 
L 2906 616 
Q 2728 306 2450 153 
Q 2172 0 1784 0 
Q 1141 0 747 490 
Q 353 981 353 1791 
Q 353 2603 747 3093 
Q 1141 3584 1784 3584 
Q 2172 3584 2450 3431 
Q 2728 3278 2906 2969 
L 2906 3500 
L 3481 3500 
L 3481 434 
z
" transform="scale(0.015625)"/>
      <path id="DejaVuSans-4e" d="M 628 4666 
L 1478 4666 
L 3547 763 
L 3547 4666 
L 4159 4666 
L 4159 0 
L 3309 0 
L 1241 3903 
L 1241 0 
L 628 0 
L 628 4666 
z
" transform="scale(0.015625)"/>
      <path id="DejaVuSans-75" d="M 544 1381 
L 544 3500 
L 1119 3500 
L 1119 1403 
Q 1119 906 1312 657 
Q 1506 409 1894 409 
Q 2359 409 2629 706 
Q 2900 1003 2900 1516 
L 2900 3500 
L 3475 3500 
L 3475 0 
L 2900 0 
L 2900 538 
Q 2691 219 2414 64 
Q 2138 -91 1772 -91 
Q 1169 -91 856 284 
Q 544 659 544 1381 
z
M 1991 3584 
L 1991 3584 
z
" transform="scale(0.015625)"/>
     </defs>
     <use xlink:href="#DejaVuSans-44"/>
     <use xlink:href="#DejaVuSans-61" x="77.001953"/>
     <use xlink:href="#DejaVuSans-69" x="138.28125"/>
     <use xlink:href="#DejaVuSans-6c" x="166.064453"/>
     <use xlink:href="#DejaVuSans-79" x="193.847656"/>
     <use xlink:href="#DejaVuSans-20" x="253.027344"/>
     <use xlink:href="#DejaVuSans-43" x="284.814453"/>
     <use xlink:href="#DejaVuSans-6f" x="354.638672"/>
     <use xlink:href="#DejaVuSans-6e" x="415.820312"/>
     <use xlink:href="#DejaVuSans-66" x="479.199219"/>
     <use xlink:href="#DejaVuSans-69" x="514.404297"/>
     <use xlink:href="#DejaVuSans-72" x="542.1875"/>
     <use xlink:href="#DejaVuSans-6d" x="581.550781"/>
     <use xlink:href="#DejaVuSans-65" x="678.962891"/>
     <use xlink:href="#DejaVuSans-64" x="740.486328"/>
     <use xlink:href="#DejaVuSans-20" x="803.962891"/>
     <use xlink:href="#DejaVuSans-43" x="835.75"/>
     <use xlink:href="#DejaVuSans-61" x="905.574219"/>
     <use xlink:href="#DejaVuSans-73" x="966.853516"/>
     <use xlink:href="#DejaVuSans-65" x="1018.953125"/>
     <use xlink:href="#DejaVuSans-73" x="1080.476562"/>
     <use xlink:href="#DejaVuSans-20" x="1132.576172"/>
     <use xlink:href="#DejaVuSans-46" x="1164.363281"/>
     <use xlink:href="#DejaVuSans-6f" x="1218.257812"/>
     <use xlink:href="#DejaVuSans-72" x="1279.439453"/>
     <use xlink:href="#DejaVuSans-65" x="1318.302734"/>
     <use xlink:href="#DejaVuSans-63" x="1379.826172"/>
     <use xlink:href="#DejaVuSans-61" x="1434.806641"/>
     <use xlink:href="#DejaVuSans-73" x="1496.085938"/>
     <use xlink:href="#DejaVuSans-74" x="1548.185547"/>
     <use xlink:href="#DejaVuSans-69" x="1587.394531"/>
     <use xlink:href="#DejaVuSans-6e" x="1615.177734"/>
     <use xlink:href="#DejaVuSans-67" x="1678.556641"/>
     <use xlink:href="#DejaVuSans-20" x="1742.033203"/>
     <use xlink:href="#DejaVuSans-2d" x="1773.820312"/>
     <use xlink:href="#DejaVuSans-20" x="1809.904297"/>
     <use xlink:href="#DejaVuSans-4e" x="1841.691406"/>
     <use xlink:href="#DejaVuSans-69" x="1916.496094"/>
     <use xlink:href="#DejaVuSans-63" x="1944.279297"/>
     <use xlink:href="#DejaVuSans-61" x="1999.259766"/>
     <use xlink:href="#DejaVuSans-72" x="2060.539062"/>
     <use xlink:href="#DejaVuSans-61" x="2101.652344"/>
     <use xlink:href="#DejaVuSans-67" x="2162.931641"/>
     <use xlink:href="#DejaVuSans-75" x="2226.408203"/>
     <use xlink:href="#DejaVuSans-61" x="2289.787109"/>
    </g>
    <!-- ARIMA (4, 1, 0)x(1, 0, 1, 7) (R2 = -0.269072) -->
    <g transform="translate(568.73875 29.7555)scale(0.12 -0.12)">
     <defs>
      <path id="DejaVuSans-41" d="M 2188 4044 
L 1331 1722 
L 3047 1722 
L 2188 4044 
z
M 1831 4666 
L 2547 4666 
L 4325 0 
L 3669 0 
L 3244 1197 
L 1141 1197 
L 716 0 
L 50 0 
L 1831 4666 
z
" transform="scale(0.015625)"/>
      <path id="DejaVuSans-52" d="M 2841 2188 
Q 3044 2119 3236 1894 
Q 3428 1669 3622 1275 
L 4263 0 
L 3584 0 
L 2988 1197 
Q 2756 1666 2539 1819 
Q 2322 1972 1947 1972 
L 1259 1972 
L 1259 0 
L 628 0 
L 628 4666 
L 2053 4666 
Q 2853 4666 3247 4331 
Q 3641 3997 3641 3322 
Q 3641 2881 3436 2590 
Q 3231 2300 2841 2188 
z
M 1259 4147 
L 1259 2491 
L 2053 2491 
Q 2509 2491 2742 2702 
Q 2975 2913 2975 3322 
Q 2975 3731 2742 3939 
Q 2509 4147 2053 4147 
L 1259 4147 
z
" transform="scale(0.015625)"/>
      <path id="DejaVuSans-49" d="M 628 4666 
L 1259 4666 
L 1259 0 
L 628 0 
L 628 4666 
z
" transform="scale(0.015625)"/>
      <path id="DejaVuSans-4d" d="M 628 4666 
L 1569 4666 
L 2759 1491 
L 3956 4666 
L 4897 4666 
L 4897 0 
L 4281 0 
L 4281 4097 
L 3078 897 
L 2444 897 
L 1241 4097 
L 1241 0 
L 628 0 
L 628 4666 
z
" transform="scale(0.015625)"/>
      <path id="DejaVuSans-28" d="M 1984 4856 
Q 1566 4138 1362 3434 
Q 1159 2731 1159 2009 
Q 1159 1288 1364 580 
Q 1569 -128 1984 -844 
L 1484 -844 
Q 1016 -109 783 600 
Q 550 1309 550 2009 
Q 550 2706 781 3412 
Q 1013 4119 1484 4856 
L 1984 4856 
z
" transform="scale(0.015625)"/>
      <path id="DejaVuSans-2c" d="M 750 794 
L 1409 794 
L 1409 256 
L 897 -744 
L 494 -744 
L 750 256 
L 750 794 
z
" transform="scale(0.015625)"/>
      <path id="DejaVuSans-29" d="M 513 4856 
L 1013 4856 
Q 1481 4119 1714 3412 
Q 1947 2706 1947 2009 
Q 1947 1309 1714 600 
Q 1481 -109 1013 -844 
L 513 -844 
Q 928 -128 1133 580 
Q 1338 1288 1338 2009 
Q 1338 2731 1133 3434 
Q 928 4138 513 4856 
z
" transform="scale(0.015625)"/>
      <path id="DejaVuSans-78" d="M 3513 3500 
L 2247 1797 
L 3578 0 
L 2900 0 
L 1881 1375 
L 863 0 
L 184 0 
L 1544 1831 
L 300 3500 
L 978 3500 
L 1906 2253 
L 2834 3500 
L 3513 3500 
z
" transform="scale(0.015625)"/>
      <path id="DejaVuSans-37" d="M 525 4666 
L 3525 4666 
L 3525 4397 
L 1831 0 
L 1172 0 
L 2766 4134 
L 525 4134 
L 525 4666 
z
" transform="scale(0.015625)"/>
      <path id="DejaVuSans-3d" d="M 678 2906 
L 4684 2906 
L 4684 2381 
L 678 2381 
L 678 2906 
z
M 678 1631 
L 4684 1631 
L 4684 1100 
L 678 1100 
L 678 1631 
z
" transform="scale(0.015625)"/>
      <path id="DejaVuSans-2e" d="M 684 794 
L 1344 794 
L 1344 0 
L 684 0 
L 684 794 
z
" transform="scale(0.015625)"/>
      <path id="DejaVuSans-36" d="M 2113 2584 
Q 1688 2584 1439 2293 
Q 1191 2003 1191 1497 
Q 1191 994 1439 701 
Q 1688 409 2113 409 
Q 2538 409 2786 701 
Q 3034 994 3034 1497 
Q 3034 2003 2786 2293 
Q 2538 2584 2113 2584 
z
M 3366 4563 
L 3366 3988 
Q 3128 4100 2886 4159 
Q 2644 4219 2406 4219 
Q 1781 4219 1451 3797 
Q 1122 3375 1075 2522 
Q 1259 2794 1537 2939 
Q 1816 3084 2150 3084 
Q 2853 3084 3261 2657 
Q 3669 2231 3669 1497 
Q 3669 778 3244 343 
Q 2819 -91 2113 -91 
Q 1303 -91 875 529 
Q 447 1150 447 2328 
Q 447 3434 972 4092 
Q 1497 4750 2381 4750 
Q 2619 4750 2861 4703 
Q 3103 4656 3366 4563 
z
" transform="scale(0.015625)"/>
     </defs>
     <use xlink:href="#DejaVuSans-41"/>
     <use xlink:href="#DejaVuSans-52" x="68.408203"/>
     <use xlink:href="#DejaVuSans-49" x="137.890625"/>
     <use xlink:href="#DejaVuSans-4d" x="167.382812"/>
     <use xlink:href="#DejaVuSans-41" x="253.662109"/>
     <use xlink:href="#DejaVuSans-20" x="322.070312"/>
     <use xlink:href="#DejaVuSans-28" x="353.857422"/>
     <use xlink:href="#DejaVuSans-34" x="392.871094"/>
     <use xlink:href="#DejaVuSans-2c" x="456.494141"/>
     <use xlink:href="#DejaVuSans-20" x="488.28125"/>
     <use xlink:href="#DejaVuSans-31" x="520.068359"/>
     <use xlink:href="#DejaVuSans-2c" x="583.691406"/>
     <use xlink:href="#DejaVuSans-20" x="615.478516"/>
     <use xlink:href="#DejaVuSans-30" x="647.265625"/>
     <use xlink:href="#DejaVuSans-29" x="710.888672"/>
     <use xlink:href="#DejaVuSans-78" x="749.902344"/>
     <use xlink:href="#DejaVuSans-28" x="809.082031"/>
     <use xlink:href="#DejaVuSans-31" x="848.095703"/>
     <use xlink:href="#DejaVuSans-2c" x="911.71875"/>
     <use xlink:href="#DejaVuSans-20" x="943.505859"/>
     <use xlink:href="#DejaVuSans-30" x="975.292969"/>
     <use xlink:href="#DejaVuSans-2c" x="1038.916016"/>
     <use xlink:href="#DejaVuSans-20" x="1070.703125"/>
     <use xlink:href="#DejaVuSans-31" x="1102.490234"/>
     <use xlink:href="#DejaVuSans-2c" x="1166.113281"/>
     <use xlink:href="#DejaVuSans-20" x="1197.900391"/>
     <use xlink:href="#DejaVuSans-37" x="1229.6875"/>
     <use xlink:href="#DejaVuSans-29" x="1293.310547"/>
     <use xlink:href="#DejaVuSans-20" x="1332.324219"/>
     <use xlink:href="#DejaVuSans-28" x="1364.111328"/>
     <use xlink:href="#DejaVuSans-52" x="1403.125"/>
     <use xlink:href="#DejaVuSans-32" x="1472.607422"/>
     <use xlink:href="#DejaVuSans-20" x="1536.230469"/>
     <use xlink:href="#DejaVuSans-3d" x="1568.017578"/>
     <use xlink:href="#DejaVuSans-20" x="1651.806641"/>
     <use xlink:href="#DejaVuSans-2d" x="1683.59375"/>
     <use xlink:href="#DejaVuSans-30" x="1719.677734"/>
     <use xlink:href="#DejaVuSans-2e" x="1783.300781"/>
     <use xlink:href="#DejaVuSans-32" x="1815.087891"/>
     <use xlink:href="#DejaVuSans-36" x="1878.710938"/>
     <use xlink:href="#DejaVuSans-39" x="1942.333984"/>
     <use xlink:href="#DejaVuSans-30" x="2005.957031"/>
     <use xlink:href="#DejaVuSans-37" x="2069.580078"/>
     <use xlink:href="#DejaVuSans-32" x="2133.203125"/>
     <use xlink:href="#DejaVuSans-29" x="2196.826172"/>
    </g>
   </g>
   <g id="legend_1">
    <g id="patch_7">
     <path d="M 1268.407813 87.789875 
L 1365.4875 87.789875 
Q 1367.4875 87.789875 1367.4875 85.789875 
L 1367.4875 42.7555 
Q 1367.4875 40.7555 1365.4875 40.7555 
L 1268.407813 40.7555 
Q 1266.407813 40.7555 1266.407813 42.7555 
L 1266.407813 85.789875 
Q 1266.407813 87.789875 1268.407813 87.789875 
z
" style="fill: #ffffff; opacity: 0.8; stroke: #cccccc; stroke-linejoin: miter"/>
    </g>
    <g id="line2d_20">
     <path d="M 1270.407813 48.853937 
L 1280.407813 48.853937 
L 1290.407813 48.853937 
" style="fill: none; stroke: #0000ff; stroke-width: 1.5; stroke-linecap: square"/>
    </g>
    <g id="text_18">
     <!-- Actual Value -->
     <g transform="translate(1298.407813 52.353937)scale(0.1 -0.1)">
      <defs>
       <path id="DejaVuSans-56" d="M 1831 0 
L 50 4666 
L 709 4666 
L 2188 738 
L 3669 4666 
L 4325 4666 
L 2547 0 
L 1831 0 
z
" transform="scale(0.015625)"/>
      </defs>
      <use xlink:href="#DejaVuSans-41"/>
      <use xlink:href="#DejaVuSans-63" x="66.658203"/>
      <use xlink:href="#DejaVuSans-74" x="121.638672"/>
      <use xlink:href="#DejaVuSans-75" x="160.847656"/>
      <use xlink:href="#DejaVuSans-61" x="224.226562"/>
      <use xlink:href="#DejaVuSans-6c" x="285.505859"/>
      <use xlink:href="#DejaVuSans-20" x="313.289062"/>
      <use xlink:href="#DejaVuSans-56" x="345.076172"/>
      <use xlink:href="#DejaVuSans-61" x="405.734375"/>
      <use xlink:href="#DejaVuSans-6c" x="467.013672"/>
      <use xlink:href="#DejaVuSans-75" x="494.796875"/>
      <use xlink:href="#DejaVuSans-65" x="558.175781"/>
     </g>
    </g>
    <g id="line2d_21">
     <path d="M 1270.407813 63.532062 
L 1280.407813 63.532062 
L 1290.407813 63.532062 
" style="fill: none; stroke: #ffa500; stroke-width: 1.5; stroke-linecap: square"/>
    </g>
    <g id="text_19">
     <!-- Check Value -->
     <g transform="translate(1298.407813 67.032062)scale(0.1 -0.1)">
      <defs>
       <path id="DejaVuSans-68" d="M 3513 2113 
L 3513 0 
L 2938 0 
L 2938 2094 
Q 2938 2591 2744 2837 
Q 2550 3084 2163 3084 
Q 1697 3084 1428 2787 
Q 1159 2491 1159 1978 
L 1159 0 
L 581 0 
L 581 4863 
L 1159 4863 
L 1159 2956 
Q 1366 3272 1645 3428 
Q 1925 3584 2291 3584 
Q 2894 3584 3203 3211 
Q 3513 2838 3513 2113 
z
" transform="scale(0.015625)"/>
       <path id="DejaVuSans-6b" d="M 581 4863 
L 1159 4863 
L 1159 1991 
L 2875 3500 
L 3609 3500 
L 1753 1863 
L 3688 0 
L 2938 0 
L 1159 1709 
L 1159 0 
L 581 0 
L 581 4863 
z
" transform="scale(0.015625)"/>
      </defs>
      <use xlink:href="#DejaVuSans-43"/>
      <use xlink:href="#DejaVuSans-68" x="69.824219"/>
      <use xlink:href="#DejaVuSans-65" x="133.203125"/>
      <use xlink:href="#DejaVuSans-63" x="194.726562"/>
      <use xlink:href="#DejaVuSans-6b" x="249.707031"/>
      <use xlink:href="#DejaVuSans-20" x="307.617188"/>
      <use xlink:href="#DejaVuSans-56" x="339.404297"/>
      <use xlink:href="#DejaVuSans-61" x="400.0625"/>
      <use xlink:href="#DejaVuSans-6c" x="461.341797"/>
      <use xlink:href="#DejaVuSans-75" x="489.125"/>
      <use xlink:href="#DejaVuSans-65" x="552.503906"/>
     </g>
    </g>
    <g id="line2d_22">
     <path d="M 1270.407813 78.210187 
L 1280.407813 78.210187 
L 1290.407813 78.210187 
" style="fill: none; stroke: #ff0000; stroke-width: 1.5; stroke-linecap: square"/>
    </g>
    <g id="text_20">
     <!-- Predict Value -->
     <g transform="translate(1298.407813 81.710187)scale(0.1 -0.1)">
      <defs>
       <path id="DejaVuSans-50" d="M 1259 4147 
L 1259 2394 
L 2053 2394 
Q 2494 2394 2734 2622 
Q 2975 2850 2975 3272 
Q 2975 3691 2734 3919 
Q 2494 4147 2053 4147 
L 1259 4147 
z
M 628 4666 
L 2053 4666 
Q 2838 4666 3239 4311 
Q 3641 3956 3641 3272 
Q 3641 2581 3239 2228 
Q 2838 1875 2053 1875 
L 1259 1875 
L 1259 0 
L 628 0 
L 628 4666 
z
" transform="scale(0.015625)"/>
      </defs>
      <use xlink:href="#DejaVuSans-50"/>
      <use xlink:href="#DejaVuSans-72" x="58.552734"/>
      <use xlink:href="#DejaVuSans-65" x="97.416016"/>
      <use xlink:href="#DejaVuSans-64" x="158.939453"/>
      <use xlink:href="#DejaVuSans-69" x="222.416016"/>
      <use xlink:href="#DejaVuSans-63" x="250.199219"/>
      <use xlink:href="#DejaVuSans-74" x="305.179688"/>
      <use xlink:href="#DejaVuSans-20" x="344.388672"/>
      <use xlink:href="#DejaVuSans-56" x="376.175781"/>
      <use xlink:href="#DejaVuSans-61" x="436.833984"/>
      <use xlink:href="#DejaVuSans-6c" x="498.113281"/>
      <use xlink:href="#DejaVuSans-75" x="525.896484"/>
      <use xlink:href="#DejaVuSans-65" x="589.275391"/>
     </g>
    </g>
   </g>
  </g>
 </g>
 <defs>
  <clipPath id="p79626f587a">
   <rect x="33.2875" y="35.7555" width="1339.2" height="332.64"/>
  </clipPath>
 </defs>
</svg>
