<?xml version="1.0" encoding="utf-8" standalone="no"?>
<!DOCTYPE svg PUBLIC "-//W3C//DTD SVG 1.1//EN"
  "http://www.w3.org/Graphics/SVG/1.1/DTD/svg11.dtd">
<svg xmlns:xlink="http://www.w3.org/1999/xlink" width="1404.85709pt" height="392.273625pt" viewBox="0 0 1404.85709 392.273625" xmlns="http://www.w3.org/2000/svg" version="1.1">
 <metadata>
  <rdf:RDF xmlns:dc="http://purl.org/dc/elements/1.1/" xmlns:cc="http://creativecommons.org/ns#" xmlns:rdf="http://www.w3.org/1999/02/22-rdf-syntax-ns#">
   <cc:Work>
    <dc:type rdf:resource="http://purl.org/dc/dcmitype/StillImage"/>
    <dc:date>2023-02-22T18:35:20.445592</dc:date>
    <dc:format>image/svg+xml</dc:format>
    <dc:creator>
     <cc:Agent>
      <dc:title>Matplotlib v3.5.1, https://matplotlib.org/</dc:title>
     </cc:Agent>
    </dc:creator>
   </cc:Work>
  </rdf:RDF>
 </metadata>
 <defs>
  <style type="text/css">*{stroke-linejoin: round; stroke-linecap: butt}</style>
 </defs>
 <g id="figure_1">
  <g id="patch_1">
   <path d="M 0 392.273625 
L 1404.85709 392.273625 
L 1404.85709 0 
L 0 0 
z
" style="fill: #ffffff"/>
  </g>
  <g id="axes_1">
   <g id="patch_2">
    <path d="M 39.65 368.3955 
L 1378.85 368.3955 
L 1378.85 35.7555 
L 39.65 35.7555 
z
" style="fill: #ffffff"/>
   </g>
   <g id="matplotlib.axis_1">
    <g id="xtick_1">
     <g id="line2d_1">
      <defs>
       <path id="m1581ff3d4f" d="M 0 0 
L 0 3.5 
" style="stroke: #000000; stroke-width: 0.8"/>
      </defs>
      <g>
       <use xlink:href="#m1581ff3d4f" x="77.007363" y="368.3955" style="stroke: #000000; stroke-width: 0.8"/>
      </g>
     </g>
     <g id="text_1">
      <!-- 2020-01 -->
      <g transform="translate(56.115957 382.993937)scale(0.1 -0.1)">
       <defs>
        <path id="DejaVuSans-32" d="M 1228 531 
L 3431 531 
L 3431 0 
L 469 0 
L 469 531 
Q 828 903 1448 1529 
Q 2069 2156 2228 2338 
Q 2531 2678 2651 2914 
Q 2772 3150 2772 3378 
Q 2772 3750 2511 3984 
Q 2250 4219 1831 4219 
Q 1534 4219 1204 4116 
Q 875 4013 500 3803 
L 500 4441 
Q 881 4594 1212 4672 
Q 1544 4750 1819 4750 
Q 2544 4750 2975 4387 
Q 3406 4025 3406 3419 
Q 3406 3131 3298 2873 
Q 3191 2616 2906 2266 
Q 2828 2175 2409 1742 
Q 1991 1309 1228 531 
z
" transform="scale(0.015625)"/>
        <path id="DejaVuSans-30" d="M 2034 4250 
Q 1547 4250 1301 3770 
Q 1056 3291 1056 2328 
Q 1056 1369 1301 889 
Q 1547 409 2034 409 
Q 2525 409 2770 889 
Q 3016 1369 3016 2328 
Q 3016 3291 2770 3770 
Q 2525 4250 2034 4250 
z
M 2034 4750 
Q 2819 4750 3233 4129 
Q 3647 3509 3647 2328 
Q 3647 1150 3233 529 
Q 2819 -91 2034 -91 
Q 1250 -91 836 529 
Q 422 1150 422 2328 
Q 422 3509 836 4129 
Q 1250 4750 2034 4750 
z
" transform="scale(0.015625)"/>
        <path id="DejaVuSans-2d" d="M 313 2009 
L 1997 2009 
L 1997 1497 
L 313 1497 
L 313 2009 
z
" transform="scale(0.015625)"/>
        <path id="DejaVuSans-31" d="M 794 531 
L 1825 531 
L 1825 4091 
L 703 3866 
L 703 4441 
L 1819 4666 
L 2450 4666 
L 2450 531 
L 3481 531 
L 3481 0 
L 794 0 
L 794 531 
z
" transform="scale(0.015625)"/>
       </defs>
       <use xlink:href="#DejaVuSans-32"/>
       <use xlink:href="#DejaVuSans-30" x="63.623047"/>
       <use xlink:href="#DejaVuSans-32" x="127.246094"/>
       <use xlink:href="#DejaVuSans-30" x="190.869141"/>
       <use xlink:href="#DejaVuSans-2d" x="254.492188"/>
       <use xlink:href="#DejaVuSans-30" x="290.576172"/>
       <use xlink:href="#DejaVuSans-31" x="354.199219"/>
      </g>
     </g>
    </g>
    <g id="xtick_2">
     <g id="line2d_2">
      <g>
       <use xlink:href="#m1581ff3d4f" x="206.341867" y="368.3955" style="stroke: #000000; stroke-width: 0.8"/>
      </g>
     </g>
     <g id="text_2">
      <!-- 2020-05 -->
      <g transform="translate(185.450461 382.993937)scale(0.1 -0.1)">
       <defs>
        <path id="DejaVuSans-35" d="M 691 4666 
L 3169 4666 
L 3169 4134 
L 1269 4134 
L 1269 2991 
Q 1406 3038 1543 3061 
Q 1681 3084 1819 3084 
Q 2600 3084 3056 2656 
Q 3513 2228 3513 1497 
Q 3513 744 3044 326 
Q 2575 -91 1722 -91 
Q 1428 -91 1123 -41 
Q 819 9 494 109 
L 494 744 
Q 775 591 1075 516 
Q 1375 441 1709 441 
Q 2250 441 2565 725 
Q 2881 1009 2881 1497 
Q 2881 1984 2565 2268 
Q 2250 2553 1709 2553 
Q 1456 2553 1204 2497 
Q 953 2441 691 2322 
L 691 4666 
z
" transform="scale(0.015625)"/>
       </defs>
       <use xlink:href="#DejaVuSans-32"/>
       <use xlink:href="#DejaVuSans-30" x="63.623047"/>
       <use xlink:href="#DejaVuSans-32" x="127.246094"/>
       <use xlink:href="#DejaVuSans-30" x="190.869141"/>
       <use xlink:href="#DejaVuSans-2d" x="254.492188"/>
       <use xlink:href="#DejaVuSans-30" x="290.576172"/>
       <use xlink:href="#DejaVuSans-35" x="354.199219"/>
      </g>
     </g>
    </g>
    <g id="xtick_3">
     <g id="line2d_3">
      <g>
       <use xlink:href="#m1581ff3d4f" x="337.814131" y="368.3955" style="stroke: #000000; stroke-width: 0.8"/>
      </g>
     </g>
     <g id="text_3">
      <!-- 2020-09 -->
      <g transform="translate(316.922725 382.993937)scale(0.1 -0.1)">
       <defs>
        <path id="DejaVuSans-39" d="M 703 97 
L 703 672 
Q 941 559 1184 500 
Q 1428 441 1663 441 
Q 2288 441 2617 861 
Q 2947 1281 2994 2138 
Q 2813 1869 2534 1725 
Q 2256 1581 1919 1581 
Q 1219 1581 811 2004 
Q 403 2428 403 3163 
Q 403 3881 828 4315 
Q 1253 4750 1959 4750 
Q 2769 4750 3195 4129 
Q 3622 3509 3622 2328 
Q 3622 1225 3098 567 
Q 2575 -91 1691 -91 
Q 1453 -91 1209 -44 
Q 966 3 703 97 
z
M 1959 2075 
Q 2384 2075 2632 2365 
Q 2881 2656 2881 3163 
Q 2881 3666 2632 3958 
Q 2384 4250 1959 4250 
Q 1534 4250 1286 3958 
Q 1038 3666 1038 3163 
Q 1038 2656 1286 2365 
Q 1534 2075 1959 2075 
z
" transform="scale(0.015625)"/>
       </defs>
       <use xlink:href="#DejaVuSans-32"/>
       <use xlink:href="#DejaVuSans-30" x="63.623047"/>
       <use xlink:href="#DejaVuSans-32" x="127.246094"/>
       <use xlink:href="#DejaVuSans-30" x="190.869141"/>
       <use xlink:href="#DejaVuSans-2d" x="254.492188"/>
       <use xlink:href="#DejaVuSans-30" x="290.576172"/>
       <use xlink:href="#DejaVuSans-39" x="354.199219"/>
      </g>
     </g>
    </g>
    <g id="xtick_4">
     <g id="line2d_4">
      <g>
       <use xlink:href="#m1581ff3d4f" x="468.217515" y="368.3955" style="stroke: #000000; stroke-width: 0.8"/>
      </g>
     </g>
     <g id="text_4">
      <!-- 2021-01 -->
      <g transform="translate(447.326109 382.993937)scale(0.1 -0.1)">
       <use xlink:href="#DejaVuSans-32"/>
       <use xlink:href="#DejaVuSans-30" x="63.623047"/>
       <use xlink:href="#DejaVuSans-32" x="127.246094"/>
       <use xlink:href="#DejaVuSans-31" x="190.869141"/>
       <use xlink:href="#DejaVuSans-2d" x="254.492188"/>
       <use xlink:href="#DejaVuSans-30" x="290.576172"/>
       <use xlink:href="#DejaVuSans-31" x="354.199219"/>
      </g>
     </g>
    </g>
    <g id="xtick_5">
     <g id="line2d_5">
      <g>
       <use xlink:href="#m1581ff3d4f" x="596.483139" y="368.3955" style="stroke: #000000; stroke-width: 0.8"/>
      </g>
     </g>
     <g id="text_5">
      <!-- 2021-05 -->
      <g transform="translate(575.591733 382.993937)scale(0.1 -0.1)">
       <use xlink:href="#DejaVuSans-32"/>
       <use xlink:href="#DejaVuSans-30" x="63.623047"/>
       <use xlink:href="#DejaVuSans-32" x="127.246094"/>
       <use xlink:href="#DejaVuSans-31" x="190.869141"/>
       <use xlink:href="#DejaVuSans-2d" x="254.492188"/>
       <use xlink:href="#DejaVuSans-30" x="290.576172"/>
       <use xlink:href="#DejaVuSans-35" x="354.199219"/>
      </g>
     </g>
    </g>
    <g id="xtick_6">
     <g id="line2d_6">
      <g>
       <use xlink:href="#m1581ff3d4f" x="727.955403" y="368.3955" style="stroke: #000000; stroke-width: 0.8"/>
      </g>
     </g>
     <g id="text_6">
      <!-- 2021-09 -->
      <g transform="translate(707.063997 382.993937)scale(0.1 -0.1)">
       <use xlink:href="#DejaVuSans-32"/>
       <use xlink:href="#DejaVuSans-30" x="63.623047"/>
       <use xlink:href="#DejaVuSans-32" x="127.246094"/>
       <use xlink:href="#DejaVuSans-31" x="190.869141"/>
       <use xlink:href="#DejaVuSans-2d" x="254.492188"/>
       <use xlink:href="#DejaVuSans-30" x="290.576172"/>
       <use xlink:href="#DejaVuSans-39" x="354.199219"/>
      </g>
     </g>
    </g>
    <g id="xtick_7">
     <g id="line2d_7">
      <g>
       <use xlink:href="#m1581ff3d4f" x="858.358788" y="368.3955" style="stroke: #000000; stroke-width: 0.8"/>
      </g>
     </g>
     <g id="text_7">
      <!-- 2022-01 -->
      <g transform="translate(837.467381 382.993937)scale(0.1 -0.1)">
       <use xlink:href="#DejaVuSans-32"/>
       <use xlink:href="#DejaVuSans-30" x="63.623047"/>
       <use xlink:href="#DejaVuSans-32" x="127.246094"/>
       <use xlink:href="#DejaVuSans-32" x="190.869141"/>
       <use xlink:href="#DejaVuSans-2d" x="254.492188"/>
       <use xlink:href="#DejaVuSans-30" x="290.576172"/>
       <use xlink:href="#DejaVuSans-31" x="354.199219"/>
      </g>
     </g>
    </g>
    <g id="xtick_8">
     <g id="line2d_8">
      <g>
       <use xlink:href="#m1581ff3d4f" x="986.624411" y="368.3955" style="stroke: #000000; stroke-width: 0.8"/>
      </g>
     </g>
     <g id="text_8">
      <!-- 2022-05 -->
      <g transform="translate(965.733005 382.993937)scale(0.1 -0.1)">
       <use xlink:href="#DejaVuSans-32"/>
       <use xlink:href="#DejaVuSans-30" x="63.623047"/>
       <use xlink:href="#DejaVuSans-32" x="127.246094"/>
       <use xlink:href="#DejaVuSans-32" x="190.869141"/>
       <use xlink:href="#DejaVuSans-2d" x="254.492188"/>
       <use xlink:href="#DejaVuSans-30" x="290.576172"/>
       <use xlink:href="#DejaVuSans-35" x="354.199219"/>
      </g>
     </g>
    </g>
    <g id="xtick_9">
     <g id="line2d_9">
      <g>
       <use xlink:href="#m1581ff3d4f" x="1118.096676" y="368.3955" style="stroke: #000000; stroke-width: 0.8"/>
      </g>
     </g>
     <g id="text_9">
      <!-- 2022-09 -->
      <g transform="translate(1097.205269 382.993937)scale(0.1 -0.1)">
       <use xlink:href="#DejaVuSans-32"/>
       <use xlink:href="#DejaVuSans-30" x="63.623047"/>
       <use xlink:href="#DejaVuSans-32" x="127.246094"/>
       <use xlink:href="#DejaVuSans-32" x="190.869141"/>
       <use xlink:href="#DejaVuSans-2d" x="254.492188"/>
       <use xlink:href="#DejaVuSans-30" x="290.576172"/>
       <use xlink:href="#DejaVuSans-39" x="354.199219"/>
      </g>
     </g>
    </g>
    <g id="xtick_10">
     <g id="line2d_10">
      <g>
       <use xlink:href="#m1581ff3d4f" x="1248.50006" y="368.3955" style="stroke: #000000; stroke-width: 0.8"/>
      </g>
     </g>
     <g id="text_10">
      <!-- 2023-01 -->
      <g transform="translate(1227.608654 382.993937)scale(0.1 -0.1)">
       <defs>
        <path id="DejaVuSans-33" d="M 2597 2516 
Q 3050 2419 3304 2112 
Q 3559 1806 3559 1356 
Q 3559 666 3084 287 
Q 2609 -91 1734 -91 
Q 1441 -91 1130 -33 
Q 819 25 488 141 
L 488 750 
Q 750 597 1062 519 
Q 1375 441 1716 441 
Q 2309 441 2620 675 
Q 2931 909 2931 1356 
Q 2931 1769 2642 2001 
Q 2353 2234 1838 2234 
L 1294 2234 
L 1294 2753 
L 1863 2753 
Q 2328 2753 2575 2939 
Q 2822 3125 2822 3475 
Q 2822 3834 2567 4026 
Q 2313 4219 1838 4219 
Q 1578 4219 1281 4162 
Q 984 4106 628 3988 
L 628 4550 
Q 988 4650 1302 4700 
Q 1616 4750 1894 4750 
Q 2613 4750 3031 4423 
Q 3450 4097 3450 3541 
Q 3450 3153 3228 2886 
Q 3006 2619 2597 2516 
z
" transform="scale(0.015625)"/>
       </defs>
       <use xlink:href="#DejaVuSans-32"/>
       <use xlink:href="#DejaVuSans-30" x="63.623047"/>
       <use xlink:href="#DejaVuSans-32" x="127.246094"/>
       <use xlink:href="#DejaVuSans-33" x="190.869141"/>
       <use xlink:href="#DejaVuSans-2d" x="254.492188"/>
       <use xlink:href="#DejaVuSans-30" x="290.576172"/>
       <use xlink:href="#DejaVuSans-31" x="354.199219"/>
      </g>
     </g>
    </g>
    <g id="xtick_11">
     <g id="line2d_11">
      <g>
       <use xlink:href="#m1581ff3d4f" x="1376.765684" y="368.3955" style="stroke: #000000; stroke-width: 0.8"/>
      </g>
     </g>
     <g id="text_11">
      <!-- 2023-05 -->
      <g transform="translate(1355.874277 382.993937)scale(0.1 -0.1)">
       <use xlink:href="#DejaVuSans-32"/>
       <use xlink:href="#DejaVuSans-30" x="63.623047"/>
       <use xlink:href="#DejaVuSans-32" x="127.246094"/>
       <use xlink:href="#DejaVuSans-33" x="190.869141"/>
       <use xlink:href="#DejaVuSans-2d" x="254.492188"/>
       <use xlink:href="#DejaVuSans-30" x="290.576172"/>
       <use xlink:href="#DejaVuSans-35" x="354.199219"/>
      </g>
     </g>
    </g>
   </g>
   <g id="matplotlib.axis_2">
    <g id="ytick_1">
     <g id="line2d_12">
      <defs>
       <path id="m0793a37156" d="M 0 0 
L -3.5 0 
" style="stroke: #000000; stroke-width: 0.8"/>
      </defs>
      <g>
       <use xlink:href="#m0793a37156" x="39.65" y="352.727871" style="stroke: #000000; stroke-width: 0.8"/>
      </g>
     </g>
     <g id="text_12">
      <!-- 0 -->
      <g transform="translate(26.2875 356.527089)scale(0.1 -0.1)">
       <use xlink:href="#DejaVuSans-30"/>
      </g>
     </g>
    </g>
    <g id="ytick_2">
     <g id="line2d_13">
      <g>
       <use xlink:href="#m0793a37156" x="39.65" y="292.657747" style="stroke: #000000; stroke-width: 0.8"/>
      </g>
     </g>
     <g id="text_13">
      <!-- 200 -->
      <g transform="translate(13.5625 296.456966)scale(0.1 -0.1)">
       <use xlink:href="#DejaVuSans-32"/>
       <use xlink:href="#DejaVuSans-30" x="63.623047"/>
       <use xlink:href="#DejaVuSans-30" x="127.246094"/>
      </g>
     </g>
    </g>
    <g id="ytick_3">
     <g id="line2d_14">
      <g>
       <use xlink:href="#m0793a37156" x="39.65" y="232.587624" style="stroke: #000000; stroke-width: 0.8"/>
      </g>
     </g>
     <g id="text_14">
      <!-- 400 -->
      <g transform="translate(13.5625 236.386842)scale(0.1 -0.1)">
       <defs>
        <path id="DejaVuSans-34" d="M 2419 4116 
L 825 1625 
L 2419 1625 
L 2419 4116 
z
M 2253 4666 
L 3047 4666 
L 3047 1625 
L 3713 1625 
L 3713 1100 
L 3047 1100 
L 3047 0 
L 2419 0 
L 2419 1100 
L 313 1100 
L 313 1709 
L 2253 4666 
z
" transform="scale(0.015625)"/>
       </defs>
       <use xlink:href="#DejaVuSans-34"/>
       <use xlink:href="#DejaVuSans-30" x="63.623047"/>
       <use xlink:href="#DejaVuSans-30" x="127.246094"/>
      </g>
     </g>
    </g>
    <g id="ytick_4">
     <g id="line2d_15">
      <g>
       <use xlink:href="#m0793a37156" x="39.65" y="172.5175" style="stroke: #000000; stroke-width: 0.8"/>
      </g>
     </g>
     <g id="text_15">
      <!-- 600 -->
      <g transform="translate(13.5625 176.316719)scale(0.1 -0.1)">
       <defs>
        <path id="DejaVuSans-36" d="M 2113 2584 
Q 1688 2584 1439 2293 
Q 1191 2003 1191 1497 
Q 1191 994 1439 701 
Q 1688 409 2113 409 
Q 2538 409 2786 701 
Q 3034 994 3034 1497 
Q 3034 2003 2786 2293 
Q 2538 2584 2113 2584 
z
M 3366 4563 
L 3366 3988 
Q 3128 4100 2886 4159 
Q 2644 4219 2406 4219 
Q 1781 4219 1451 3797 
Q 1122 3375 1075 2522 
Q 1259 2794 1537 2939 
Q 1816 3084 2150 3084 
Q 2853 3084 3261 2657 
Q 3669 2231 3669 1497 
Q 3669 778 3244 343 
Q 2819 -91 2113 -91 
Q 1303 -91 875 529 
Q 447 1150 447 2328 
Q 447 3434 972 4092 
Q 1497 4750 2381 4750 
Q 2619 4750 2861 4703 
Q 3103 4656 3366 4563 
z
" transform="scale(0.015625)"/>
       </defs>
       <use xlink:href="#DejaVuSans-36"/>
       <use xlink:href="#DejaVuSans-30" x="63.623047"/>
       <use xlink:href="#DejaVuSans-30" x="127.246094"/>
      </g>
     </g>
    </g>
    <g id="ytick_5">
     <g id="line2d_16">
      <g>
       <use xlink:href="#m0793a37156" x="39.65" y="112.447377" style="stroke: #000000; stroke-width: 0.8"/>
      </g>
     </g>
     <g id="text_16">
      <!-- 800 -->
      <g transform="translate(13.5625 116.246595)scale(0.1 -0.1)">
       <defs>
        <path id="DejaVuSans-38" d="M 2034 2216 
Q 1584 2216 1326 1975 
Q 1069 1734 1069 1313 
Q 1069 891 1326 650 
Q 1584 409 2034 409 
Q 2484 409 2743 651 
Q 3003 894 3003 1313 
Q 3003 1734 2745 1975 
Q 2488 2216 2034 2216 
z
M 1403 2484 
Q 997 2584 770 2862 
Q 544 3141 544 3541 
Q 544 4100 942 4425 
Q 1341 4750 2034 4750 
Q 2731 4750 3128 4425 
Q 3525 4100 3525 3541 
Q 3525 3141 3298 2862 
Q 3072 2584 2669 2484 
Q 3125 2378 3379 2068 
Q 3634 1759 3634 1313 
Q 3634 634 3220 271 
Q 2806 -91 2034 -91 
Q 1263 -91 848 271 
Q 434 634 434 1313 
Q 434 1759 690 2068 
Q 947 2378 1403 2484 
z
M 1172 3481 
Q 1172 3119 1398 2916 
Q 1625 2713 2034 2713 
Q 2441 2713 2670 2916 
Q 2900 3119 2900 3481 
Q 2900 3844 2670 4047 
Q 2441 4250 2034 4250 
Q 1625 4250 1398 4047 
Q 1172 3844 1172 3481 
z
" transform="scale(0.015625)"/>
       </defs>
       <use xlink:href="#DejaVuSans-38"/>
       <use xlink:href="#DejaVuSans-30" x="63.623047"/>
       <use xlink:href="#DejaVuSans-30" x="127.246094"/>
      </g>
     </g>
    </g>
    <g id="ytick_6">
     <g id="line2d_17">
      <g>
       <use xlink:href="#m0793a37156" x="39.65" y="52.377253" style="stroke: #000000; stroke-width: 0.8"/>
      </g>
     </g>
     <g id="text_17">
      <!-- 1000 -->
      <g transform="translate(7.2 56.176472)scale(0.1 -0.1)">
       <use xlink:href="#DejaVuSans-31"/>
       <use xlink:href="#DejaVuSans-30" x="63.623047"/>
       <use xlink:href="#DejaVuSans-30" x="127.246094"/>
       <use xlink:href="#DejaVuSans-30" x="190.869141"/>
      </g>
     </g>
    </g>
   </g>
   <g id="line2d_18">
    <path d="M 100.522727 352.727871 
L 149.691216 352.727871 
L 150.760097 352.42752 
L 151.828977 352.42752 
L 152.897857 352.727871 
L 155.035617 352.727871 
L 156.104498 352.42752 
L 157.173378 349.123663 
L 158.242258 352.727871 
L 159.311138 351.226118 
L 160.380018 348.823313 
L 161.448899 350.625416 
L 162.517779 345.519456 
L 163.586659 349.424014 
L 164.655539 345.519456 
L 165.724419 348.222611 
L 166.7933 343.116651 
L 167.86218 350.925767 
L 168.93106 344.318053 
L 169.99994 344.618404 
L 171.06882 348.222611 
L 172.137701 345.519456 
L 173.206581 348.222611 
L 174.275461 346.420508 
L 175.344341 350.925767 
L 176.413221 348.522962 
L 177.482102 347.922261 
L 178.550982 344.618404 
L 179.619862 347.021209 
L 180.688742 346.720858 
L 181.757622 343.717352 
L 182.826503 344.017703 
L 183.895383 352.727871 
L 184.964263 340.413495 
L 186.033143 348.823313 
L 187.102023 352.727871 
L 188.170904 343.417001 
L 189.239784 348.522962 
L 190.308664 351.526468 
L 191.377544 349.424014 
L 192.446424 350.325066 
L 193.515304 349.424014 
L 194.584185 351.226118 
L 195.653065 347.021209 
L 196.721945 350.024715 
L 197.790825 350.625416 
L 198.859705 348.823313 
L 199.928586 352.727871 
L 200.997466 351.826819 
L 204.204106 351.826819 
L 205.272987 351.526468 
L 206.341867 351.526468 
L 207.410747 351.826819 
L 208.479627 349.724364 
L 209.548507 349.724364 
L 210.617388 347.922261 
L 211.686268 340.413495 
L 212.755148 350.625416 
L 213.824028 350.325066 
L 214.892908 351.526468 
L 215.961789 351.826819 
L 217.030669 350.024715 
L 218.099549 350.925767 
L 219.168429 350.625416 
L 220.237309 352.727871 
L 221.30619 350.625416 
L 222.37507 352.127169 
L 223.44395 348.522962 
L 224.51283 352.727871 
L 225.58171 352.727871 
L 226.650591 348.823313 
L 227.719471 351.826819 
L 228.788351 352.127169 
L 229.857231 352.727871 
L 230.926111 352.727871 
L 231.994992 347.32156 
L 233.063872 352.727871 
L 234.132752 348.823313 
L 235.201632 352.127169 
L 236.270512 352.727871 
L 239.477153 352.727871 
L 240.546033 342.51595 
L 241.614913 351.826819 
L 242.683794 352.42752 
L 243.752674 351.826819 
L 244.821554 352.727871 
L 245.890434 352.42752 
L 248.028195 352.42752 
L 249.097075 352.727871 
L 250.165955 352.42752 
L 251.234835 352.727871 
L 252.303715 352.727871 
L 253.372596 352.127169 
L 254.441476 352.727871 
L 255.510356 352.42752 
L 256.579236 351.526468 
L 257.648116 352.727871 
L 258.716997 352.42752 
L 259.785877 352.42752 
L 260.854757 352.127169 
L 261.923637 352.727871 
L 262.992517 351.526468 
L 264.061398 349.123663 
L 265.130278 348.222611 
L 266.199158 350.625416 
L 267.268038 352.727871 
L 268.336918 347.32156 
L 269.405799 352.727871 
L 270.474679 351.826819 
L 271.543559 352.727871 
L 272.612439 351.226118 
L 273.681319 348.823313 
L 274.7502 350.625416 
L 275.81908 352.727871 
L 276.88796 348.823313 
L 277.95684 351.826819 
L 279.02572 352.727871 
L 280.094601 352.127169 
L 281.163481 348.222611 
L 282.232361 348.823313 
L 283.301241 351.826819 
L 284.370121 352.727871 
L 285.439002 352.42752 
L 286.507882 352.42752 
L 287.576762 352.727871 
L 288.645642 350.625416 
L 289.714522 352.127169 
L 290.783403 351.226118 
L 291.852283 348.823313 
L 292.921163 352.727871 
L 293.990043 352.42752 
L 295.058923 351.526468 
L 296.127803 351.226118 
L 297.196684 349.424014 
L 298.265564 352.727871 
L 299.334444 348.522962 
L 300.403324 351.226118 
L 301.472204 352.727871 
L 302.541085 352.42752 
L 303.609965 352.727871 
L 304.678845 341.614898 
L 305.747725 352.727871 
L 306.816605 350.625416 
L 307.885486 351.826819 
L 308.954366 352.727871 
L 310.023246 351.226118 
L 311.092126 352.727871 
L 312.161006 347.62191 
L 313.229887 352.727871 
L 314.298767 344.017703 
L 315.367647 350.625416 
L 316.436527 352.127169 
L 317.505407 348.222611 
L 318.574288 349.724364 
L 319.643168 352.127169 
L 320.712048 344.618404 
L 322.849808 352.727871 
L 323.918689 351.226118 
L 324.987569 349.123663 
L 326.056449 352.727871 
L 327.125329 352.727871 
L 328.194209 345.819806 
L 329.26309 347.32156 
L 330.33197 352.727871 
L 331.40085 348.522962 
L 332.46973 352.727871 
L 334.607491 352.727871 
L 335.676371 351.226118 
L 336.745251 349.424014 
L 337.814131 352.127169 
L 338.883011 352.727871 
L 339.951892 351.226118 
L 341.020772 342.8163 
L 342.089652 352.727871 
L 343.158532 339.512443 
L 344.227412 349.424014 
L 345.296293 351.826819 
L 346.365173 349.724364 
L 347.434053 349.724364 
L 348.502933 348.823313 
L 349.571813 348.222611 
L 350.640694 294.760201 
L 351.709574 349.724364 
L 352.778454 347.922261 
L 353.847334 348.222611 
L 354.916214 347.021209 
L 355.985095 343.717352 
L 357.053975 347.021209 
L 358.122855 343.717352 
L 359.191735 337.71034 
L 360.260615 349.424014 
L 361.329496 346.120157 
L 362.398376 346.420508 
L 363.467256 349.123663 
L 364.536136 349.424014 
L 365.605016 342.215599 
L 367.742777 351.526468 
L 368.811657 345.519456 
L 369.880537 343.116651 
L 370.949417 342.215599 
L 372.018298 343.417001 
L 373.087178 348.823313 
L 374.156058 347.62191 
L 375.224938 348.823313 
L 376.293818 345.219105 
L 378.431579 348.823313 
L 379.500459 347.62191 
L 380.569339 352.727871 
L 381.638219 345.819806 
L 383.77598 352.727871 
L 384.84486 343.717352 
L 385.91374 350.325066 
L 386.98262 352.727871 
L 388.051501 341.314547 
L 389.120381 350.925767 
L 390.189261 347.021209 
L 391.258141 352.727871 
L 392.327021 350.325066 
L 393.395902 347.021209 
L 394.464782 349.424014 
L 395.533662 350.625416 
L 396.602542 350.325066 
L 397.671422 350.625416 
L 398.740302 352.727871 
L 399.809183 351.226118 
L 400.878063 350.925767 
L 401.946943 345.819806 
L 403.015823 352.727871 
L 404.084703 347.62191 
L 406.222464 350.024715 
L 407.291344 349.424014 
L 408.360224 349.123663 
L 409.429104 351.826819 
L 410.497985 351.526468 
L 411.566865 349.123663 
L 412.635745 352.42752 
L 413.704625 351.526468 
L 414.773505 352.727871 
L 415.842386 345.819806 
L 416.911266 344.918755 
L 417.980146 350.925767 
L 419.049026 349.424014 
L 420.117906 352.727871 
L 421.186787 347.32156 
L 422.255667 347.922261 
L 423.324547 352.727871 
L 424.393427 347.62191 
L 425.462307 343.116651 
L 426.531188 347.021209 
L 427.600068 351.826819 
L 428.668948 346.720858 
L 429.737828 352.727871 
L 430.806708 341.014197 
L 431.875589 352.727871 
L 432.944469 340.713846 
L 434.013349 343.717352 
L 435.082229 339.212093 
L 436.151109 329.000172 
L 437.21999 337.109639 
L 438.28887 344.017703 
L 439.35775 333.20508 
L 440.42663 335.908236 
L 442.564391 306.473876 
L 443.633271 352.727871 
L 444.702151 319.689303 
L 445.771031 352.727871 
L 446.839911 258.117426 
L 447.908792 311.880187 
L 448.977672 298.96511 
L 450.046552 325.395964 
L 451.115432 307.975629 
L 452.184312 304.071071 
L 453.253193 286.350384 
L 454.322073 316.085095 
L 455.390953 290.855643 
L 456.459833 310.378434 
L 457.528713 304.671772 
L 458.597594 296.261955 
L 459.666474 265.02549 
L 460.735354 294.760201 
L 461.804234 316.385446 
L 462.873114 325.996666 
L 463.941995 352.727871 
L 465.010875 294.760201 
L 466.079755 324.494913 
L 467.148635 329.901224 
L 468.217515 316.385446 
L 469.286396 319.088601 
L 470.355276 319.388952 
L 471.424156 330.201574 
L 472.493036 287.852137 
L 473.561916 286.350384 
L 474.630797 307.675278 
L 475.699677 306.774226 
L 476.768557 352.727871 
L 477.837437 287.852137 
L 478.906317 293.558799 
L 479.975198 297.463357 
L 481.044078 327.798769 
L 482.112958 273.735658 
L 483.181838 330.802276 
L 484.250718 317.286498 
L 485.319599 296.261955 
L 486.388479 303.470369 
L 487.457359 352.727871 
L 488.526239 292.357397 
L 489.595119 302.869668 
L 491.73288 319.689303 
L 492.80176 331.402977 
L 493.87064 333.20508 
L 494.93952 336.508937 
L 496.008401 334.706834 
L 497.077281 304.671772 
L 498.146161 338.911742 
L 499.215041 305.572824 
L 500.283921 322.092108 
L 501.352802 326.897718 
L 502.421682 311.880187 
L 503.490562 336.508937 
L 504.559442 324.194562 
L 505.628322 325.696315 
L 506.697202 327.498419 
L 507.766083 335.307535 
L 508.834963 345.519456 
L 509.903843 335.307535 
L 510.972723 335.007184 
L 512.041603 352.727871 
L 513.110484 319.088601 
L 514.179364 337.71034 
L 515.248244 352.727871 
L 516.317124 340.113145 
L 517.386004 352.727871 
L 518.454885 340.113145 
L 519.523765 343.417001 
L 520.592645 334.706834 
L 521.661525 346.720858 
L 522.730405 348.522962 
L 523.799286 337.71034 
L 524.868166 346.420508 
L 525.937046 347.021209 
L 527.005926 344.618404 
L 528.074806 345.219105 
L 529.143687 339.812794 
L 530.212567 352.727871 
L 531.281447 338.311041 
L 532.350327 347.62191 
L 533.419207 345.519456 
L 534.488088 343.116651 
L 535.556968 346.720858 
L 536.625848 343.717352 
L 537.694728 344.318053 
L 538.763608 352.727871 
L 539.832489 350.925767 
L 540.901369 339.812794 
L 541.970249 339.212093 
L 543.039129 343.717352 
L 544.108009 339.212093 
L 545.17689 346.120157 
L 546.24577 350.925767 
L 547.31465 352.727871 
L 548.38353 346.420508 
L 549.45241 337.409989 
L 550.521291 352.727871 
L 551.590171 332.90473 
L 552.659051 347.021209 
L 553.727931 345.519456 
L 554.796811 348.823313 
L 555.865692 345.519456 
L 556.934572 345.819806 
L 558.003452 343.417001 
L 559.072332 345.819806 
L 560.141212 347.021209 
L 561.210093 349.724364 
L 562.278973 348.222611 
L 563.347853 352.727871 
L 564.416733 335.607885 
L 565.485613 347.62191 
L 566.554494 349.123663 
L 567.623374 348.522962 
L 568.692254 350.325066 
L 569.761134 346.720858 
L 570.830014 344.318053 
L 571.898895 343.417001 
L 572.967775 346.720858 
L 574.036655 343.116651 
L 575.105535 352.727871 
L 576.174415 342.8163 
L 577.243296 352.727871 
L 578.312176 334.406483 
L 579.381056 348.522962 
L 580.449936 347.021209 
L 581.518816 343.417001 
L 582.587697 348.222611 
L 583.656577 347.021209 
L 584.725457 347.021209 
L 585.794337 352.727871 
L 586.863217 339.212093 
L 587.932098 347.021209 
L 589.000978 352.727871 
L 590.069858 343.116651 
L 591.138738 352.727871 
L 592.207618 352.727871 
L 593.276499 345.819806 
L 594.345379 345.819806 
L 595.414259 352.42752 
L 596.483139 350.024715 
L 597.552019 352.727871 
L 598.6209 351.226118 
L 599.68978 348.222611 
L 600.75866 350.925767 
L 601.82754 350.325066 
L 602.89642 352.727871 
L 603.965301 345.519456 
L 605.034181 352.127169 
L 606.103061 351.826819 
L 607.171941 352.127169 
L 608.240821 351.826819 
L 609.309701 352.727871 
L 610.378582 350.625416 
L 611.447462 352.42752 
L 612.516342 352.127169 
L 613.585222 352.727871 
L 614.654102 350.625416 
L 615.722983 351.826819 
L 616.791863 352.42752 
L 617.860743 352.127169 
L 618.929623 351.526468 
L 619.998503 352.42752 
L 621.067384 352.727871 
L 622.136264 352.42752 
L 623.205144 351.826819 
L 624.274024 352.127169 
L 625.342904 351.826819 
L 626.411785 350.925767 
L 627.480665 352.727871 
L 628.549545 351.526468 
L 629.618425 352.42752 
L 630.687305 352.727871 
L 631.756186 349.424014 
L 632.825066 352.42752 
L 633.893946 351.226118 
L 634.962826 352.42752 
L 636.031706 352.727871 
L 637.100587 352.42752 
L 638.169467 352.727871 
L 639.238347 352.127169 
L 640.307227 352.727871 
L 641.376107 351.826819 
L 642.444988 352.727871 
L 644.582748 352.727871 
L 645.651628 352.42752 
L 646.720508 352.727871 
L 647.789389 352.127169 
L 648.858269 350.925767 
L 649.927149 352.42752 
L 650.996029 352.727871 
L 652.064909 352.727871 
L 653.13379 351.526468 
L 654.20267 352.42752 
L 655.27155 351.826819 
L 656.34043 352.42752 
L 657.40931 352.727871 
L 658.478191 352.42752 
L 659.547071 352.727871 
L 660.615951 352.727871 
L 661.684831 350.925767 
L 662.753711 351.826819 
L 663.822592 350.925767 
L 664.891472 352.727871 
L 667.029232 352.727871 
L 668.098112 349.724364 
L 669.166993 352.42752 
L 670.235873 352.42752 
L 671.304753 352.727871 
L 672.373633 351.826819 
L 673.442513 349.424014 
L 674.511394 351.826819 
L 675.580274 351.526468 
L 677.718034 352.127169 
L 678.786914 351.526468 
L 679.855795 352.727871 
L 680.924675 352.727871 
L 681.993555 352.42752 
L 683.062435 352.727871 
L 685.200196 352.727871 
L 686.269076 352.42752 
L 687.337956 352.727871 
L 688.406836 349.123663 
L 689.475716 350.925767 
L 690.544597 351.526468 
L 691.613477 350.925767 
L 692.682357 350.625416 
L 693.751237 352.727871 
L 694.820117 348.222611 
L 695.888998 351.826819 
L 696.957878 352.727871 
L 698.026758 350.325066 
L 699.095638 352.727871 
L 700.164518 350.325066 
L 701.233399 351.826819 
L 702.302279 349.424014 
L 703.371159 351.526468 
L 704.440039 352.42752 
L 705.508919 350.925767 
L 706.5778 351.826819 
L 707.64668 342.8163 
L 708.71556 351.826819 
L 709.78444 351.526468 
L 711.9222 352.727871 
L 712.991081 351.826819 
L 714.059961 349.123663 
L 715.128841 351.826819 
L 716.197721 351.526468 
L 717.266601 348.522962 
L 718.335482 352.127169 
L 719.404362 349.724364 
L 720.473242 349.123663 
L 721.542122 349.123663 
L 722.611002 351.226118 
L 723.679883 351.226118 
L 724.748763 351.826819 
L 726.886523 350.024715 
L 727.955403 352.727871 
L 729.024284 346.420508 
L 730.093164 347.32156 
L 731.162044 349.424014 
L 732.230924 348.522962 
L 733.299804 349.724364 
L 734.368685 347.62191 
L 735.437565 351.526468 
L 736.506445 352.727871 
L 737.575325 342.51595 
L 739.713086 348.823313 
L 740.781966 350.325066 
L 741.850846 350.024715 
L 742.919726 348.823313 
L 743.988606 349.123663 
L 745.057487 347.021209 
L 746.126367 346.120157 
L 747.195247 347.922261 
L 748.264127 349.424014 
L 749.333007 349.123663 
L 750.401888 349.123663 
L 751.470768 347.922261 
L 752.539648 345.519456 
L 753.608528 348.222611 
L 754.677408 340.413495 
L 755.746289 349.424014 
L 756.815169 347.922261 
L 757.884049 348.522962 
L 758.952929 343.717352 
L 760.021809 347.021209 
L 761.09069 344.318053 
L 762.15957 339.212093 
L 763.22845 350.925767 
L 764.29733 348.222611 
L 765.36621 343.116651 
L 766.435091 348.222611 
L 767.503971 343.417001 
L 768.572851 345.519456 
L 769.641731 341.614898 
L 770.710611 346.420508 
L 772.848372 340.713846 
L 773.917252 336.508937 
L 774.986132 347.62191 
L 776.055012 344.017703 
L 777.123893 338.311041 
L 778.192773 347.32156 
L 779.261653 350.625416 
L 780.330533 342.51595 
L 781.399413 352.727871 
L 793.157096 352.727871 
L 794.225976 259.619179 
L 795.294856 352.727871 
L 801.708137 352.727871 
L 802.777017 299.265461 
L 803.845898 352.727871 
L 808.121418 352.727871 
L 809.190299 282.746177 
L 810.259179 352.727871 
L 819.8791 352.727871 
L 820.947981 293.558799 
L 822.016861 352.727871 
L 823.085741 352.727871 
L 824.154621 265.926542 
L 825.223501 352.727871 
L 830.567902 352.727871 
L 831.636783 252.410764 
L 832.705663 352.727871 
L 838.050064 352.727871 
L 839.118944 251.209362 
L 840.187824 352.727871 
L 845.532225 352.727871 
L 846.601105 242.198843 
L 847.669986 352.727871 
L 853.014387 352.727871 
L 854.083267 174.920305 
L 855.152147 352.727871 
L 860.496548 352.727871 
L 861.565428 50.8755 
L 862.634308 352.727871 
L 863.703189 352.727871 
L 865.840949 207.958873 
L 866.909829 269.8311 
L 867.978709 352.727871 
L 869.04759 352.727871 
L 870.11647 277.640216 
L 871.18535 326.897718 
L 872.25423 352.727871 
L 873.32311 306.173525 
L 874.391991 332.304029 
L 876.529751 340.413495 
L 877.598631 315.484394 
L 878.667511 346.420508 
L 879.736392 352.727871 
L 880.805272 329.000172 
L 881.874152 352.727871 
L 884.011912 352.727871 
L 885.080793 329.600873 
L 886.149673 352.727871 
L 887.218553 346.720858 
L 888.287433 352.727871 
L 889.356313 352.727871 
L 891.494074 345.219105 
L 892.562954 352.727871 
L 893.631834 348.222611 
L 894.700714 350.024715 
L 895.769595 350.925767 
L 896.838475 352.727871 
L 897.907355 351.526468 
L 898.976235 352.127169 
L 900.045115 350.325066 
L 901.113996 351.826819 
L 902.182876 351.826819 
L 903.251756 350.925767 
L 904.320636 349.424014 
L 905.389516 351.226118 
L 906.458397 351.526468 
L 907.527277 351.526468 
L 908.596157 348.522962 
L 909.665037 352.42752 
L 910.733917 352.42752 
L 911.802798 350.925767 
L 912.871678 352.727871 
L 937.455922 352.727871 
L 938.524802 336.208587 
L 939.593683 350.625416 
L 940.662563 352.727871 
L 946.006964 352.727871 
L 947.075844 350.024715 
L 948.144724 352.727871 
L 949.213604 343.417001 
L 950.282485 352.727871 
L 953.489125 352.727871 
L 954.558005 351.226118 
L 955.626886 352.727871 
L 964.177927 352.727871 
L 965.246807 350.625416 
L 966.315688 352.727871 
L 994.106573 352.727871 
L 995.175453 342.51595 
L 996.244333 352.727871 
L 1034.72402 352.727871 
L 1035.7929 309.177031 
L 1036.861781 352.727871 
L 1065.721546 352.727871 
L 1066.790426 327.498419 
L 1067.859306 352.727871 
L 1144.818681 352.727871 
L 1145.887561 201.65151 
L 1146.956441 352.727871 
L 1234.604617 352.727871 
L 1235.673497 240.096389 
L 1236.742378 352.727871 
L 1255.982221 352.727871 
L 1257.051101 347.62191 
L 1258.119982 352.727871 
L 1259.188862 352.127169 
L 1260.257742 352.727871 
L 1293.393028 352.727871 
L 1294.461908 343.417001 
L 1295.530789 352.727871 
L 1303.01295 352.727871 
L 1303.01295 352.727871 
" clip-path="url(#p0b71d078ea)" style="fill: none; stroke: #0000ff; stroke-width: 1.5; stroke-linecap: square"/>
   </g>
   <g id="line2d_19">
    <path d="M 1062.514905 352.818796 
L 1064.652666 352.810243 
L 1065.721546 351.653231 
L 1066.790426 352.890207 
L 1067.859306 350.843491 
L 1072.134827 351.381678 
L 1073.203707 350.953882 
L 1074.272588 345.056331 
L 1075.341468 352.251557 
L 1079.616989 352.387639 
L 1080.685869 352.165036 
L 1081.754749 349.394286 
L 1082.823629 352.729139 
L 1087.09915 352.728823 
L 1088.16803 352.612182 
L 1089.23691 351.308626 
L 1090.305791 352.852471 
L 1095.650192 352.7554 
L 1096.719072 352.141111 
L 1097.787952 352.854819 
L 1103.132353 352.785939 
L 1104.201233 352.49591 
L 1105.270113 352.825291 
L 1110.614514 352.78006 
L 1111.683395 352.642823 
L 1112.752275 352.79452 
L 1145.887561 352.735237 
L 1146.956441 340.556953 
L 1149.094201 342.436808 
L 1151.231962 344.031923 
L 1152.300842 344.732869 
L 1153.369722 305.99455 
L 1154.438602 349.144312 
L 1157.645243 349.943038 
L 1159.783003 350.373893 
L 1160.851884 332.203287 
L 1161.920764 352.218047 
L 1167.265165 352.393011 
L 1168.334045 343.860359 
L 1169.402925 353.13478 
L 1174.747326 352.995198 
L 1175.816206 348.983121 
L 1176.885087 353.2755 
L 1182.229488 353.087626 
L 1183.298368 351.198233 
L 1184.367248 353.181926 
L 1189.711649 353.026151 
L 1190.780529 352.134786 
L 1191.849409 353.049914 
L 1197.19381 352.939427 
L 1198.262691 352.518027 
L 1199.331571 352.939289 
L 1204.675972 352.866755 
L 1205.744852 352.667053 
L 1206.813732 352.860463 
L 1228.191336 352.737832 
L 1234.604617 352.746435 
L 1235.673497 352.736033 
L 1236.742378 343.665485 
L 1238.880138 345.067572 
L 1241.017898 346.252736 
L 1242.086779 346.774672 
L 1243.155659 317.889475 
L 1244.224539 350.062727 
L 1248.50006 350.823608 
L 1249.56894 350.977103 
L 1250.63782 337.428156 
L 1251.7067 352.351478 
L 1257.051101 352.480613 
L 1258.119982 345.706624 
L 1259.188862 352.654928 
L 1262.395502 352.630254 
L 1263.464383 352.638123 
L 1264.533263 351.314329 
L 1265.602143 349.78383 
L 1266.671023 352.840013 
L 1267.739903 352.987566 
L 1270.946544 352.929692 
L 1273.084304 351.561315 
L 1274.153185 352.969514 
L 1276.290945 352.999247 
L 1278.428705 352.957261 
L 1280.566466 352.298387 
L 1281.635346 352.945674 
L 1285.910867 352.909943 
L 1288.048627 352.59115 
L 1289.117507 352.887798 
L 1293.393028 352.854471 
L 1294.461908 352.78139 
L 1295.530789 351.948881 
L 1296.599669 352.144833 
L 1300.87519 352.317035 
L 1301.94407 349.893669 
L 1303.01295 352.513077 
L 1303.01295 352.513077 
" clip-path="url(#p0b71d078ea)" style="fill: none; stroke: #ffa500; stroke-width: 1.5; stroke-linecap: square"/>
   </g>
   <g id="line2d_20">
    <path d="M 1304.08183 352.59247 
L 1305.15071 352.595919 
L 1306.219591 352.595919 
L 1307.288471 352.595919 
L 1308.357351 352.595919 
L 1309.426231 351.4507 
L 1310.495111 352.565369 
L 1311.563992 352.559015 
L 1312.632872 352.561521 
L 1313.701752 352.561521 
L 1314.770632 352.561521 
L 1315.839512 352.561521 
L 1316.908393 351.729081 
L 1317.977273 352.539315 
" clip-path="url(#p0b71d078ea)" style="fill: none; stroke: #ff0000; stroke-width: 1.5; stroke-linecap: square"/>
   </g>
   <g id="patch_3">
    <path d="M 39.65 368.3955 
L 39.65 35.7555 
" style="fill: none; stroke: #000000; stroke-width: 0.8; stroke-linejoin: miter; stroke-linecap: square"/>
   </g>
   <g id="patch_4">
    <path d="M 1378.85 368.3955 
L 1378.85 35.7555 
" style="fill: none; stroke: #000000; stroke-width: 0.8; stroke-linejoin: miter; stroke-linecap: square"/>
   </g>
   <g id="patch_5">
    <path d="M 39.65 368.3955 
L 1378.85 368.3955 
" style="fill: none; stroke: #000000; stroke-width: 0.8; stroke-linejoin: miter; stroke-linecap: square"/>
   </g>
   <g id="patch_6">
    <path d="M 39.65 35.7555 
L 1378.85 35.7555 
" style="fill: none; stroke: #000000; stroke-width: 0.8; stroke-linejoin: miter; stroke-linecap: square"/>
   </g>
   <g id="text_18">
    <!-- Daily Confirmed Cases Forecasting - Burkina Faso -->
    <g transform="translate(560.459375 16.318125)scale(0.12 -0.12)">
     <defs>
      <path id="DejaVuSans-44" d="M 1259 4147 
L 1259 519 
L 2022 519 
Q 2988 519 3436 956 
Q 3884 1394 3884 2338 
Q 3884 3275 3436 3711 
Q 2988 4147 2022 4147 
L 1259 4147 
z
M 628 4666 
L 1925 4666 
Q 3281 4666 3915 4102 
Q 4550 3538 4550 2338 
Q 4550 1131 3912 565 
Q 3275 0 1925 0 
L 628 0 
L 628 4666 
z
" transform="scale(0.015625)"/>
      <path id="DejaVuSans-61" d="M 2194 1759 
Q 1497 1759 1228 1600 
Q 959 1441 959 1056 
Q 959 750 1161 570 
Q 1363 391 1709 391 
Q 2188 391 2477 730 
Q 2766 1069 2766 1631 
L 2766 1759 
L 2194 1759 
z
M 3341 1997 
L 3341 0 
L 2766 0 
L 2766 531 
Q 2569 213 2275 61 
Q 1981 -91 1556 -91 
Q 1019 -91 701 211 
Q 384 513 384 1019 
Q 384 1609 779 1909 
Q 1175 2209 1959 2209 
L 2766 2209 
L 2766 2266 
Q 2766 2663 2505 2880 
Q 2244 3097 1772 3097 
Q 1472 3097 1187 3025 
Q 903 2953 641 2809 
L 641 3341 
Q 956 3463 1253 3523 
Q 1550 3584 1831 3584 
Q 2591 3584 2966 3190 
Q 3341 2797 3341 1997 
z
" transform="scale(0.015625)"/>
      <path id="DejaVuSans-69" d="M 603 3500 
L 1178 3500 
L 1178 0 
L 603 0 
L 603 3500 
z
M 603 4863 
L 1178 4863 
L 1178 4134 
L 603 4134 
L 603 4863 
z
" transform="scale(0.015625)"/>
      <path id="DejaVuSans-6c" d="M 603 4863 
L 1178 4863 
L 1178 0 
L 603 0 
L 603 4863 
z
" transform="scale(0.015625)"/>
      <path id="DejaVuSans-79" d="M 2059 -325 
Q 1816 -950 1584 -1140 
Q 1353 -1331 966 -1331 
L 506 -1331 
L 506 -850 
L 844 -850 
Q 1081 -850 1212 -737 
Q 1344 -625 1503 -206 
L 1606 56 
L 191 3500 
L 800 3500 
L 1894 763 
L 2988 3500 
L 3597 3500 
L 2059 -325 
z
" transform="scale(0.015625)"/>
      <path id="DejaVuSans-20" transform="scale(0.015625)"/>
      <path id="DejaVuSans-43" d="M 4122 4306 
L 4122 3641 
Q 3803 3938 3442 4084 
Q 3081 4231 2675 4231 
Q 1875 4231 1450 3742 
Q 1025 3253 1025 2328 
Q 1025 1406 1450 917 
Q 1875 428 2675 428 
Q 3081 428 3442 575 
Q 3803 722 4122 1019 
L 4122 359 
Q 3791 134 3420 21 
Q 3050 -91 2638 -91 
Q 1578 -91 968 557 
Q 359 1206 359 2328 
Q 359 3453 968 4101 
Q 1578 4750 2638 4750 
Q 3056 4750 3426 4639 
Q 3797 4528 4122 4306 
z
" transform="scale(0.015625)"/>
      <path id="DejaVuSans-6f" d="M 1959 3097 
Q 1497 3097 1228 2736 
Q 959 2375 959 1747 
Q 959 1119 1226 758 
Q 1494 397 1959 397 
Q 2419 397 2687 759 
Q 2956 1122 2956 1747 
Q 2956 2369 2687 2733 
Q 2419 3097 1959 3097 
z
M 1959 3584 
Q 2709 3584 3137 3096 
Q 3566 2609 3566 1747 
Q 3566 888 3137 398 
Q 2709 -91 1959 -91 
Q 1206 -91 779 398 
Q 353 888 353 1747 
Q 353 2609 779 3096 
Q 1206 3584 1959 3584 
z
" transform="scale(0.015625)"/>
      <path id="DejaVuSans-6e" d="M 3513 2113 
L 3513 0 
L 2938 0 
L 2938 2094 
Q 2938 2591 2744 2837 
Q 2550 3084 2163 3084 
Q 1697 3084 1428 2787 
Q 1159 2491 1159 1978 
L 1159 0 
L 581 0 
L 581 3500 
L 1159 3500 
L 1159 2956 
Q 1366 3272 1645 3428 
Q 1925 3584 2291 3584 
Q 2894 3584 3203 3211 
Q 3513 2838 3513 2113 
z
" transform="scale(0.015625)"/>
      <path id="DejaVuSans-66" d="M 2375 4863 
L 2375 4384 
L 1825 4384 
Q 1516 4384 1395 4259 
Q 1275 4134 1275 3809 
L 1275 3500 
L 2222 3500 
L 2222 3053 
L 1275 3053 
L 1275 0 
L 697 0 
L 697 3053 
L 147 3053 
L 147 3500 
L 697 3500 
L 697 3744 
Q 697 4328 969 4595 
Q 1241 4863 1831 4863 
L 2375 4863 
z
" transform="scale(0.015625)"/>
      <path id="DejaVuSans-72" d="M 2631 2963 
Q 2534 3019 2420 3045 
Q 2306 3072 2169 3072 
Q 1681 3072 1420 2755 
Q 1159 2438 1159 1844 
L 1159 0 
L 581 0 
L 581 3500 
L 1159 3500 
L 1159 2956 
Q 1341 3275 1631 3429 
Q 1922 3584 2338 3584 
Q 2397 3584 2469 3576 
Q 2541 3569 2628 3553 
L 2631 2963 
z
" transform="scale(0.015625)"/>
      <path id="DejaVuSans-6d" d="M 3328 2828 
Q 3544 3216 3844 3400 
Q 4144 3584 4550 3584 
Q 5097 3584 5394 3201 
Q 5691 2819 5691 2113 
L 5691 0 
L 5113 0 
L 5113 2094 
Q 5113 2597 4934 2840 
Q 4756 3084 4391 3084 
Q 3944 3084 3684 2787 
Q 3425 2491 3425 1978 
L 3425 0 
L 2847 0 
L 2847 2094 
Q 2847 2600 2669 2842 
Q 2491 3084 2119 3084 
Q 1678 3084 1418 2786 
Q 1159 2488 1159 1978 
L 1159 0 
L 581 0 
L 581 3500 
L 1159 3500 
L 1159 2956 
Q 1356 3278 1631 3431 
Q 1906 3584 2284 3584 
Q 2666 3584 2933 3390 
Q 3200 3197 3328 2828 
z
" transform="scale(0.015625)"/>
      <path id="DejaVuSans-65" d="M 3597 1894 
L 3597 1613 
L 953 1613 
Q 991 1019 1311 708 
Q 1631 397 2203 397 
Q 2534 397 2845 478 
Q 3156 559 3463 722 
L 3463 178 
Q 3153 47 2828 -22 
Q 2503 -91 2169 -91 
Q 1331 -91 842 396 
Q 353 884 353 1716 
Q 353 2575 817 3079 
Q 1281 3584 2069 3584 
Q 2775 3584 3186 3129 
Q 3597 2675 3597 1894 
z
M 3022 2063 
Q 3016 2534 2758 2815 
Q 2500 3097 2075 3097 
Q 1594 3097 1305 2825 
Q 1016 2553 972 2059 
L 3022 2063 
z
" transform="scale(0.015625)"/>
      <path id="DejaVuSans-64" d="M 2906 2969 
L 2906 4863 
L 3481 4863 
L 3481 0 
L 2906 0 
L 2906 525 
Q 2725 213 2448 61 
Q 2172 -91 1784 -91 
Q 1150 -91 751 415 
Q 353 922 353 1747 
Q 353 2572 751 3078 
Q 1150 3584 1784 3584 
Q 2172 3584 2448 3432 
Q 2725 3281 2906 2969 
z
M 947 1747 
Q 947 1113 1208 752 
Q 1469 391 1925 391 
Q 2381 391 2643 752 
Q 2906 1113 2906 1747 
Q 2906 2381 2643 2742 
Q 2381 3103 1925 3103 
Q 1469 3103 1208 2742 
Q 947 2381 947 1747 
z
" transform="scale(0.015625)"/>
      <path id="DejaVuSans-73" d="M 2834 3397 
L 2834 2853 
Q 2591 2978 2328 3040 
Q 2066 3103 1784 3103 
Q 1356 3103 1142 2972 
Q 928 2841 928 2578 
Q 928 2378 1081 2264 
Q 1234 2150 1697 2047 
L 1894 2003 
Q 2506 1872 2764 1633 
Q 3022 1394 3022 966 
Q 3022 478 2636 193 
Q 2250 -91 1575 -91 
Q 1294 -91 989 -36 
Q 684 19 347 128 
L 347 722 
Q 666 556 975 473 
Q 1284 391 1588 391 
Q 1994 391 2212 530 
Q 2431 669 2431 922 
Q 2431 1156 2273 1281 
Q 2116 1406 1581 1522 
L 1381 1569 
Q 847 1681 609 1914 
Q 372 2147 372 2553 
Q 372 3047 722 3315 
Q 1072 3584 1716 3584 
Q 2034 3584 2315 3537 
Q 2597 3491 2834 3397 
z
" transform="scale(0.015625)"/>
      <path id="DejaVuSans-46" d="M 628 4666 
L 3309 4666 
L 3309 4134 
L 1259 4134 
L 1259 2759 
L 3109 2759 
L 3109 2228 
L 1259 2228 
L 1259 0 
L 628 0 
L 628 4666 
z
" transform="scale(0.015625)"/>
      <path id="DejaVuSans-63" d="M 3122 3366 
L 3122 2828 
Q 2878 2963 2633 3030 
Q 2388 3097 2138 3097 
Q 1578 3097 1268 2742 
Q 959 2388 959 1747 
Q 959 1106 1268 751 
Q 1578 397 2138 397 
Q 2388 397 2633 464 
Q 2878 531 3122 666 
L 3122 134 
Q 2881 22 2623 -34 
Q 2366 -91 2075 -91 
Q 1284 -91 818 406 
Q 353 903 353 1747 
Q 353 2603 823 3093 
Q 1294 3584 2113 3584 
Q 2378 3584 2631 3529 
Q 2884 3475 3122 3366 
z
" transform="scale(0.015625)"/>
      <path id="DejaVuSans-74" d="M 1172 4494 
L 1172 3500 
L 2356 3500 
L 2356 3053 
L 1172 3053 
L 1172 1153 
Q 1172 725 1289 603 
Q 1406 481 1766 481 
L 2356 481 
L 2356 0 
L 1766 0 
Q 1100 0 847 248 
Q 594 497 594 1153 
L 594 3053 
L 172 3053 
L 172 3500 
L 594 3500 
L 594 4494 
L 1172 4494 
z
" transform="scale(0.015625)"/>
      <path id="DejaVuSans-67" d="M 2906 1791 
Q 2906 2416 2648 2759 
Q 2391 3103 1925 3103 
Q 1463 3103 1205 2759 
Q 947 2416 947 1791 
Q 947 1169 1205 825 
Q 1463 481 1925 481 
Q 2391 481 2648 825 
Q 2906 1169 2906 1791 
z
M 3481 434 
Q 3481 -459 3084 -895 
Q 2688 -1331 1869 -1331 
Q 1566 -1331 1297 -1286 
Q 1028 -1241 775 -1147 
L 775 -588 
Q 1028 -725 1275 -790 
Q 1522 -856 1778 -856 
Q 2344 -856 2625 -561 
Q 2906 -266 2906 331 
L 2906 616 
Q 2728 306 2450 153 
Q 2172 0 1784 0 
Q 1141 0 747 490 
Q 353 981 353 1791 
Q 353 2603 747 3093 
Q 1141 3584 1784 3584 
Q 2172 3584 2450 3431 
Q 2728 3278 2906 2969 
L 2906 3500 
L 3481 3500 
L 3481 434 
z
" transform="scale(0.015625)"/>
      <path id="DejaVuSans-42" d="M 1259 2228 
L 1259 519 
L 2272 519 
Q 2781 519 3026 730 
Q 3272 941 3272 1375 
Q 3272 1813 3026 2020 
Q 2781 2228 2272 2228 
L 1259 2228 
z
M 1259 4147 
L 1259 2741 
L 2194 2741 
Q 2656 2741 2882 2914 
Q 3109 3088 3109 3444 
Q 3109 3797 2882 3972 
Q 2656 4147 2194 4147 
L 1259 4147 
z
M 628 4666 
L 2241 4666 
Q 2963 4666 3353 4366 
Q 3744 4066 3744 3513 
Q 3744 3084 3544 2831 
Q 3344 2578 2956 2516 
Q 3422 2416 3680 2098 
Q 3938 1781 3938 1306 
Q 3938 681 3513 340 
Q 3088 0 2303 0 
L 628 0 
L 628 4666 
z
" transform="scale(0.015625)"/>
      <path id="DejaVuSans-75" d="M 544 1381 
L 544 3500 
L 1119 3500 
L 1119 1403 
Q 1119 906 1312 657 
Q 1506 409 1894 409 
Q 2359 409 2629 706 
Q 2900 1003 2900 1516 
L 2900 3500 
L 3475 3500 
L 3475 0 
L 2900 0 
L 2900 538 
Q 2691 219 2414 64 
Q 2138 -91 1772 -91 
Q 1169 -91 856 284 
Q 544 659 544 1381 
z
M 1991 3584 
L 1991 3584 
z
" transform="scale(0.015625)"/>
      <path id="DejaVuSans-6b" d="M 581 4863 
L 1159 4863 
L 1159 1991 
L 2875 3500 
L 3609 3500 
L 1753 1863 
L 3688 0 
L 2938 0 
L 1159 1709 
L 1159 0 
L 581 0 
L 581 4863 
z
" transform="scale(0.015625)"/>
     </defs>
     <use xlink:href="#DejaVuSans-44"/>
     <use xlink:href="#DejaVuSans-61" x="77.001953"/>
     <use xlink:href="#DejaVuSans-69" x="138.28125"/>
     <use xlink:href="#DejaVuSans-6c" x="166.064453"/>
     <use xlink:href="#DejaVuSans-79" x="193.847656"/>
     <use xlink:href="#DejaVuSans-20" x="253.027344"/>
     <use xlink:href="#DejaVuSans-43" x="284.814453"/>
     <use xlink:href="#DejaVuSans-6f" x="354.638672"/>
     <use xlink:href="#DejaVuSans-6e" x="415.820312"/>
     <use xlink:href="#DejaVuSans-66" x="479.199219"/>
     <use xlink:href="#DejaVuSans-69" x="514.404297"/>
     <use xlink:href="#DejaVuSans-72" x="542.1875"/>
     <use xlink:href="#DejaVuSans-6d" x="581.550781"/>
     <use xlink:href="#DejaVuSans-65" x="678.962891"/>
     <use xlink:href="#DejaVuSans-64" x="740.486328"/>
     <use xlink:href="#DejaVuSans-20" x="803.962891"/>
     <use xlink:href="#DejaVuSans-43" x="835.75"/>
     <use xlink:href="#DejaVuSans-61" x="905.574219"/>
     <use xlink:href="#DejaVuSans-73" x="966.853516"/>
     <use xlink:href="#DejaVuSans-65" x="1018.953125"/>
     <use xlink:href="#DejaVuSans-73" x="1080.476562"/>
     <use xlink:href="#DejaVuSans-20" x="1132.576172"/>
     <use xlink:href="#DejaVuSans-46" x="1164.363281"/>
     <use xlink:href="#DejaVuSans-6f" x="1218.257812"/>
     <use xlink:href="#DejaVuSans-72" x="1279.439453"/>
     <use xlink:href="#DejaVuSans-65" x="1318.302734"/>
     <use xlink:href="#DejaVuSans-63" x="1379.826172"/>
     <use xlink:href="#DejaVuSans-61" x="1434.806641"/>
     <use xlink:href="#DejaVuSans-73" x="1496.085938"/>
     <use xlink:href="#DejaVuSans-74" x="1548.185547"/>
     <use xlink:href="#DejaVuSans-69" x="1587.394531"/>
     <use xlink:href="#DejaVuSans-6e" x="1615.177734"/>
     <use xlink:href="#DejaVuSans-67" x="1678.556641"/>
     <use xlink:href="#DejaVuSans-20" x="1742.033203"/>
     <use xlink:href="#DejaVuSans-2d" x="1773.820312"/>
     <use xlink:href="#DejaVuSans-20" x="1809.904297"/>
     <use xlink:href="#DejaVuSans-42" x="1841.691406"/>
     <use xlink:href="#DejaVuSans-75" x="1910.294922"/>
     <use xlink:href="#DejaVuSans-72" x="1973.673828"/>
     <use xlink:href="#DejaVuSans-6b" x="2014.787109"/>
     <use xlink:href="#DejaVuSans-69" x="2072.697266"/>
     <use xlink:href="#DejaVuSans-6e" x="2100.480469"/>
     <use xlink:href="#DejaVuSans-61" x="2163.859375"/>
     <use xlink:href="#DejaVuSans-20" x="2225.138672"/>
     <use xlink:href="#DejaVuSans-46" x="2256.925781"/>
     <use xlink:href="#DejaVuSans-61" x="2305.320312"/>
     <use xlink:href="#DejaVuSans-73" x="2366.599609"/>
     <use xlink:href="#DejaVuSans-6f" x="2418.699219"/>
    </g>
    <!-- ARIMA (0, 1, 1)x(1, 0, 1, 7) (R2 = -0.160780) -->
    <g transform="translate(575.10125 29.7555)scale(0.12 -0.12)">
     <defs>
      <path id="DejaVuSans-41" d="M 2188 4044 
L 1331 1722 
L 3047 1722 
L 2188 4044 
z
M 1831 4666 
L 2547 4666 
L 4325 0 
L 3669 0 
L 3244 1197 
L 1141 1197 
L 716 0 
L 50 0 
L 1831 4666 
z
" transform="scale(0.015625)"/>
      <path id="DejaVuSans-52" d="M 2841 2188 
Q 3044 2119 3236 1894 
Q 3428 1669 3622 1275 
L 4263 0 
L 3584 0 
L 2988 1197 
Q 2756 1666 2539 1819 
Q 2322 1972 1947 1972 
L 1259 1972 
L 1259 0 
L 628 0 
L 628 4666 
L 2053 4666 
Q 2853 4666 3247 4331 
Q 3641 3997 3641 3322 
Q 3641 2881 3436 2590 
Q 3231 2300 2841 2188 
z
M 1259 4147 
L 1259 2491 
L 2053 2491 
Q 2509 2491 2742 2702 
Q 2975 2913 2975 3322 
Q 2975 3731 2742 3939 
Q 2509 4147 2053 4147 
L 1259 4147 
z
" transform="scale(0.015625)"/>
      <path id="DejaVuSans-49" d="M 628 4666 
L 1259 4666 
L 1259 0 
L 628 0 
L 628 4666 
z
" transform="scale(0.015625)"/>
      <path id="DejaVuSans-4d" d="M 628 4666 
L 1569 4666 
L 2759 1491 
L 3956 4666 
L 4897 4666 
L 4897 0 
L 4281 0 
L 4281 4097 
L 3078 897 
L 2444 897 
L 1241 4097 
L 1241 0 
L 628 0 
L 628 4666 
z
" transform="scale(0.015625)"/>
      <path id="DejaVuSans-28" d="M 1984 4856 
Q 1566 4138 1362 3434 
Q 1159 2731 1159 2009 
Q 1159 1288 1364 580 
Q 1569 -128 1984 -844 
L 1484 -844 
Q 1016 -109 783 600 
Q 550 1309 550 2009 
Q 550 2706 781 3412 
Q 1013 4119 1484 4856 
L 1984 4856 
z
" transform="scale(0.015625)"/>
      <path id="DejaVuSans-2c" d="M 750 794 
L 1409 794 
L 1409 256 
L 897 -744 
L 494 -744 
L 750 256 
L 750 794 
z
" transform="scale(0.015625)"/>
      <path id="DejaVuSans-29" d="M 513 4856 
L 1013 4856 
Q 1481 4119 1714 3412 
Q 1947 2706 1947 2009 
Q 1947 1309 1714 600 
Q 1481 -109 1013 -844 
L 513 -844 
Q 928 -128 1133 580 
Q 1338 1288 1338 2009 
Q 1338 2731 1133 3434 
Q 928 4138 513 4856 
z
" transform="scale(0.015625)"/>
      <path id="DejaVuSans-78" d="M 3513 3500 
L 2247 1797 
L 3578 0 
L 2900 0 
L 1881 1375 
L 863 0 
L 184 0 
L 1544 1831 
L 300 3500 
L 978 3500 
L 1906 2253 
L 2834 3500 
L 3513 3500 
z
" transform="scale(0.015625)"/>
      <path id="DejaVuSans-37" d="M 525 4666 
L 3525 4666 
L 3525 4397 
L 1831 0 
L 1172 0 
L 2766 4134 
L 525 4134 
L 525 4666 
z
" transform="scale(0.015625)"/>
      <path id="DejaVuSans-3d" d="M 678 2906 
L 4684 2906 
L 4684 2381 
L 678 2381 
L 678 2906 
z
M 678 1631 
L 4684 1631 
L 4684 1100 
L 678 1100 
L 678 1631 
z
" transform="scale(0.015625)"/>
      <path id="DejaVuSans-2e" d="M 684 794 
L 1344 794 
L 1344 0 
L 684 0 
L 684 794 
z
" transform="scale(0.015625)"/>
     </defs>
     <use xlink:href="#DejaVuSans-41"/>
     <use xlink:href="#DejaVuSans-52" x="68.408203"/>
     <use xlink:href="#DejaVuSans-49" x="137.890625"/>
     <use xlink:href="#DejaVuSans-4d" x="167.382812"/>
     <use xlink:href="#DejaVuSans-41" x="253.662109"/>
     <use xlink:href="#DejaVuSans-20" x="322.070312"/>
     <use xlink:href="#DejaVuSans-28" x="353.857422"/>
     <use xlink:href="#DejaVuSans-30" x="392.871094"/>
     <use xlink:href="#DejaVuSans-2c" x="456.494141"/>
     <use xlink:href="#DejaVuSans-20" x="488.28125"/>
     <use xlink:href="#DejaVuSans-31" x="520.068359"/>
     <use xlink:href="#DejaVuSans-2c" x="583.691406"/>
     <use xlink:href="#DejaVuSans-20" x="615.478516"/>
     <use xlink:href="#DejaVuSans-31" x="647.265625"/>
     <use xlink:href="#DejaVuSans-29" x="710.888672"/>
     <use xlink:href="#DejaVuSans-78" x="749.902344"/>
     <use xlink:href="#DejaVuSans-28" x="809.082031"/>
     <use xlink:href="#DejaVuSans-31" x="848.095703"/>
     <use xlink:href="#DejaVuSans-2c" x="911.71875"/>
     <use xlink:href="#DejaVuSans-20" x="943.505859"/>
     <use xlink:href="#DejaVuSans-30" x="975.292969"/>
     <use xlink:href="#DejaVuSans-2c" x="1038.916016"/>
     <use xlink:href="#DejaVuSans-20" x="1070.703125"/>
     <use xlink:href="#DejaVuSans-31" x="1102.490234"/>
     <use xlink:href="#DejaVuSans-2c" x="1166.113281"/>
     <use xlink:href="#DejaVuSans-20" x="1197.900391"/>
     <use xlink:href="#DejaVuSans-37" x="1229.6875"/>
     <use xlink:href="#DejaVuSans-29" x="1293.310547"/>
     <use xlink:href="#DejaVuSans-20" x="1332.324219"/>
     <use xlink:href="#DejaVuSans-28" x="1364.111328"/>
     <use xlink:href="#DejaVuSans-52" x="1403.125"/>
     <use xlink:href="#DejaVuSans-32" x="1472.607422"/>
     <use xlink:href="#DejaVuSans-20" x="1536.230469"/>
     <use xlink:href="#DejaVuSans-3d" x="1568.017578"/>
     <use xlink:href="#DejaVuSans-20" x="1651.806641"/>
     <use xlink:href="#DejaVuSans-2d" x="1683.59375"/>
     <use xlink:href="#DejaVuSans-30" x="1719.677734"/>
     <use xlink:href="#DejaVuSans-2e" x="1783.300781"/>
     <use xlink:href="#DejaVuSans-31" x="1815.087891"/>
     <use xlink:href="#DejaVuSans-36" x="1878.710938"/>
     <use xlink:href="#DejaVuSans-30" x="1942.333984"/>
     <use xlink:href="#DejaVuSans-37" x="2005.957031"/>
     <use xlink:href="#DejaVuSans-38" x="2069.580078"/>
     <use xlink:href="#DejaVuSans-30" x="2133.203125"/>
     <use xlink:href="#DejaVuSans-29" x="2196.826172"/>
    </g>
   </g>
   <g id="legend_1">
    <g id="patch_7">
     <path d="M 1274.770313 87.789875 
L 1371.85 87.789875 
Q 1373.85 87.789875 1373.85 85.789875 
L 1373.85 42.7555 
Q 1373.85 40.7555 1371.85 40.7555 
L 1274.770313 40.7555 
Q 1272.770313 40.7555 1272.770313 42.7555 
L 1272.770313 85.789875 
Q 1272.770313 87.789875 1274.770313 87.789875 
z
" style="fill: #ffffff; opacity: 0.8; stroke: #cccccc; stroke-linejoin: miter"/>
    </g>
    <g id="line2d_21">
     <path d="M 1276.770313 48.853937 
L 1286.770313 48.853937 
L 1296.770313 48.853937 
" style="fill: none; stroke: #0000ff; stroke-width: 1.5; stroke-linecap: square"/>
    </g>
    <g id="text_19">
     <!-- Actual Value -->
     <g transform="translate(1304.770313 52.353937)scale(0.1 -0.1)">
      <defs>
       <path id="DejaVuSans-56" d="M 1831 0 
L 50 4666 
L 709 4666 
L 2188 738 
L 3669 4666 
L 4325 4666 
L 2547 0 
L 1831 0 
z
" transform="scale(0.015625)"/>
      </defs>
      <use xlink:href="#DejaVuSans-41"/>
      <use xlink:href="#DejaVuSans-63" x="66.658203"/>
      <use xlink:href="#DejaVuSans-74" x="121.638672"/>
      <use xlink:href="#DejaVuSans-75" x="160.847656"/>
      <use xlink:href="#DejaVuSans-61" x="224.226562"/>
      <use xlink:href="#DejaVuSans-6c" x="285.505859"/>
      <use xlink:href="#DejaVuSans-20" x="313.289062"/>
      <use xlink:href="#DejaVuSans-56" x="345.076172"/>
      <use xlink:href="#DejaVuSans-61" x="405.734375"/>
      <use xlink:href="#DejaVuSans-6c" x="467.013672"/>
      <use xlink:href="#DejaVuSans-75" x="494.796875"/>
      <use xlink:href="#DejaVuSans-65" x="558.175781"/>
     </g>
    </g>
    <g id="line2d_22">
     <path d="M 1276.770313 63.532062 
L 1286.770313 63.532062 
L 1296.770313 63.532062 
" style="fill: none; stroke: #ffa500; stroke-width: 1.5; stroke-linecap: square"/>
    </g>
    <g id="text_20">
     <!-- Check Value -->
     <g transform="translate(1304.770313 67.032062)scale(0.1 -0.1)">
      <defs>
       <path id="DejaVuSans-68" d="M 3513 2113 
L 3513 0 
L 2938 0 
L 2938 2094 
Q 2938 2591 2744 2837 
Q 2550 3084 2163 3084 
Q 1697 3084 1428 2787 
Q 1159 2491 1159 1978 
L 1159 0 
L 581 0 
L 581 4863 
L 1159 4863 
L 1159 2956 
Q 1366 3272 1645 3428 
Q 1925 3584 2291 3584 
Q 2894 3584 3203 3211 
Q 3513 2838 3513 2113 
z
" transform="scale(0.015625)"/>
      </defs>
      <use xlink:href="#DejaVuSans-43"/>
      <use xlink:href="#DejaVuSans-68" x="69.824219"/>
      <use xlink:href="#DejaVuSans-65" x="133.203125"/>
      <use xlink:href="#DejaVuSans-63" x="194.726562"/>
      <use xlink:href="#DejaVuSans-6b" x="249.707031"/>
      <use xlink:href="#DejaVuSans-20" x="307.617188"/>
      <use xlink:href="#DejaVuSans-56" x="339.404297"/>
      <use xlink:href="#DejaVuSans-61" x="400.0625"/>
      <use xlink:href="#DejaVuSans-6c" x="461.341797"/>
      <use xlink:href="#DejaVuSans-75" x="489.125"/>
      <use xlink:href="#DejaVuSans-65" x="552.503906"/>
     </g>
    </g>
    <g id="line2d_23">
     <path d="M 1276.770313 78.210187 
L 1286.770313 78.210187 
L 1296.770313 78.210187 
" style="fill: none; stroke: #ff0000; stroke-width: 1.5; stroke-linecap: square"/>
    </g>
    <g id="text_21">
     <!-- Predict Value -->
     <g transform="translate(1304.770313 81.710187)scale(0.1 -0.1)">
      <defs>
       <path id="DejaVuSans-50" d="M 1259 4147 
L 1259 2394 
L 2053 2394 
Q 2494 2394 2734 2622 
Q 2975 2850 2975 3272 
Q 2975 3691 2734 3919 
Q 2494 4147 2053 4147 
L 1259 4147 
z
M 628 4666 
L 2053 4666 
Q 2838 4666 3239 4311 
Q 3641 3956 3641 3272 
Q 3641 2581 3239 2228 
Q 2838 1875 2053 1875 
L 1259 1875 
L 1259 0 
L 628 0 
L 628 4666 
z
" transform="scale(0.015625)"/>
      </defs>
      <use xlink:href="#DejaVuSans-50"/>
      <use xlink:href="#DejaVuSans-72" x="58.552734"/>
      <use xlink:href="#DejaVuSans-65" x="97.416016"/>
      <use xlink:href="#DejaVuSans-64" x="158.939453"/>
      <use xlink:href="#DejaVuSans-69" x="222.416016"/>
      <use xlink:href="#DejaVuSans-63" x="250.199219"/>
      <use xlink:href="#DejaVuSans-74" x="305.179688"/>
      <use xlink:href="#DejaVuSans-20" x="344.388672"/>
      <use xlink:href="#DejaVuSans-56" x="376.175781"/>
      <use xlink:href="#DejaVuSans-61" x="436.833984"/>
      <use xlink:href="#DejaVuSans-6c" x="498.113281"/>
      <use xlink:href="#DejaVuSans-75" x="525.896484"/>
      <use xlink:href="#DejaVuSans-65" x="589.275391"/>
     </g>
    </g>
   </g>
  </g>
 </g>
 <defs>
  <clipPath id="p0b71d078ea">
   <rect x="39.65" y="35.7555" width="1339.2" height="332.64"/>
  </clipPath>
 </defs>
</svg>
