<?xml version="1.0" encoding="utf-8" standalone="no"?>
<!DOCTYPE svg PUBLIC "-//W3C//DTD SVG 1.1//EN"
  "http://www.w3.org/Graphics/SVG/1.1/DTD/svg11.dtd">
<svg xmlns:xlink="http://www.w3.org/1999/xlink" width="1401.214201pt" height="392.273625pt" viewBox="0 0 1401.214201 392.273625" xmlns="http://www.w3.org/2000/svg" version="1.1">
 <metadata>
  <rdf:RDF xmlns:dc="http://purl.org/dc/elements/1.1/" xmlns:cc="http://creativecommons.org/ns#" xmlns:rdf="http://www.w3.org/1999/02/22-rdf-syntax-ns#">
   <cc:Work>
    <dc:type rdf:resource="http://purl.org/dc/dcmitype/StillImage"/>
    <dc:date>2023-03-03T19:16:39.290598</dc:date>
    <dc:format>image/svg+xml</dc:format>
    <dc:creator>
     <cc:Agent>
      <dc:title>Matplotlib v3.5.1, https://matplotlib.org/</dc:title>
     </cc:Agent>
    </dc:creator>
   </cc:Work>
  </rdf:RDF>
 </metadata>
 <defs>
  <style type="text/css">*{stroke-linejoin: round; stroke-linecap: butt}</style>
 </defs>
 <g id="figure_1">
  <g id="patch_1">
   <path d="M 0 392.273625 
L 1401.214201 392.273625 
L 1401.214201 0 
L 0 0 
z
" style="fill: #ffffff"/>
  </g>
  <g id="axes_1">
   <g id="patch_2">
    <path d="M 46.0125 368.3955 
L 1385.2125 368.3955 
L 1385.2125 35.7555 
L 46.0125 35.7555 
z
" style="fill: #ffffff"/>
   </g>
   <g id="matplotlib.axis_1">
    <g id="xtick_1">
     <g id="line2d_1">
      <defs>
       <path id="m858242c66f" d="M 0 0 
L 0 3.5 
" style="stroke: #000000; stroke-width: 0.8"/>
      </defs>
      <g>
       <use xlink:href="#m858242c66f" x="83.554217" y="368.3955" style="stroke: #000000; stroke-width: 0.8"/>
      </g>
     </g>
     <g id="text_1">
      <!-- 2020-01 -->
      <g transform="translate(62.662811 382.993937)scale(0.1 -0.1)">
       <defs>
        <path id="DejaVuSans-32" d="M 1228 531 
L 3431 531 
L 3431 0 
L 469 0 
L 469 531 
Q 828 903 1448 1529 
Q 2069 2156 2228 2338 
Q 2531 2678 2651 2914 
Q 2772 3150 2772 3378 
Q 2772 3750 2511 3984 
Q 2250 4219 1831 4219 
Q 1534 4219 1204 4116 
Q 875 4013 500 3803 
L 500 4441 
Q 881 4594 1212 4672 
Q 1544 4750 1819 4750 
Q 2544 4750 2975 4387 
Q 3406 4025 3406 3419 
Q 3406 3131 3298 2873 
Q 3191 2616 2906 2266 
Q 2828 2175 2409 1742 
Q 1991 1309 1228 531 
z
" transform="scale(0.015625)"/>
        <path id="DejaVuSans-30" d="M 2034 4250 
Q 1547 4250 1301 3770 
Q 1056 3291 1056 2328 
Q 1056 1369 1301 889 
Q 1547 409 2034 409 
Q 2525 409 2770 889 
Q 3016 1369 3016 2328 
Q 3016 3291 2770 3770 
Q 2525 4250 2034 4250 
z
M 2034 4750 
Q 2819 4750 3233 4129 
Q 3647 3509 3647 2328 
Q 3647 1150 3233 529 
Q 2819 -91 2034 -91 
Q 1250 -91 836 529 
Q 422 1150 422 2328 
Q 422 3509 836 4129 
Q 1250 4750 2034 4750 
z
" transform="scale(0.015625)"/>
        <path id="DejaVuSans-2d" d="M 313 2009 
L 1997 2009 
L 1997 1497 
L 313 1497 
L 313 2009 
z
" transform="scale(0.015625)"/>
        <path id="DejaVuSans-31" d="M 794 531 
L 1825 531 
L 1825 4091 
L 703 3866 
L 703 4441 
L 1819 4666 
L 2450 4666 
L 2450 531 
L 3481 531 
L 3481 0 
L 794 0 
L 794 531 
z
" transform="scale(0.015625)"/>
       </defs>
       <use xlink:href="#DejaVuSans-32"/>
       <use xlink:href="#DejaVuSans-30" x="63.623047"/>
       <use xlink:href="#DejaVuSans-32" x="127.246094"/>
       <use xlink:href="#DejaVuSans-30" x="190.869141"/>
       <use xlink:href="#DejaVuSans-2d" x="254.492188"/>
       <use xlink:href="#DejaVuSans-30" x="290.576172"/>
       <use xlink:href="#DejaVuSans-31" x="354.199219"/>
      </g>
     </g>
    </g>
    <g id="xtick_2">
     <g id="line2d_2">
      <g>
       <use xlink:href="#m858242c66f" x="211.874774" y="368.3955" style="stroke: #000000; stroke-width: 0.8"/>
      </g>
     </g>
     <g id="text_2">
      <!-- 2020-05 -->
      <g transform="translate(190.983368 382.993937)scale(0.1 -0.1)">
       <defs>
        <path id="DejaVuSans-35" d="M 691 4666 
L 3169 4666 
L 3169 4134 
L 1269 4134 
L 1269 2991 
Q 1406 3038 1543 3061 
Q 1681 3084 1819 3084 
Q 2600 3084 3056 2656 
Q 3513 2228 3513 1497 
Q 3513 744 3044 326 
Q 2575 -91 1722 -91 
Q 1428 -91 1123 -41 
Q 819 9 494 109 
L 494 744 
Q 775 591 1075 516 
Q 1375 441 1709 441 
Q 2250 441 2565 725 
Q 2881 1009 2881 1497 
Q 2881 1984 2565 2268 
Q 2250 2553 1709 2553 
Q 1456 2553 1204 2497 
Q 953 2441 691 2322 
L 691 4666 
z
" transform="scale(0.015625)"/>
       </defs>
       <use xlink:href="#DejaVuSans-32"/>
       <use xlink:href="#DejaVuSans-30" x="63.623047"/>
       <use xlink:href="#DejaVuSans-32" x="127.246094"/>
       <use xlink:href="#DejaVuSans-30" x="190.869141"/>
       <use xlink:href="#DejaVuSans-2d" x="254.492188"/>
       <use xlink:href="#DejaVuSans-30" x="290.576172"/>
       <use xlink:href="#DejaVuSans-35" x="354.199219"/>
      </g>
     </g>
    </g>
    <g id="xtick_3">
     <g id="line2d_3">
      <g>
       <use xlink:href="#m858242c66f" x="342.316333" y="368.3955" style="stroke: #000000; stroke-width: 0.8"/>
      </g>
     </g>
     <g id="text_3">
      <!-- 2020-09 -->
      <g transform="translate(321.424927 382.993937)scale(0.1 -0.1)">
       <defs>
        <path id="DejaVuSans-39" d="M 703 97 
L 703 672 
Q 941 559 1184 500 
Q 1428 441 1663 441 
Q 2288 441 2617 861 
Q 2947 1281 2994 2138 
Q 2813 1869 2534 1725 
Q 2256 1581 1919 1581 
Q 1219 1581 811 2004 
Q 403 2428 403 3163 
Q 403 3881 828 4315 
Q 1253 4750 1959 4750 
Q 2769 4750 3195 4129 
Q 3622 3509 3622 2328 
Q 3622 1225 3098 567 
Q 2575 -91 1691 -91 
Q 1453 -91 1209 -44 
Q 966 3 703 97 
z
M 1959 2075 
Q 2384 2075 2632 2365 
Q 2881 2656 2881 3163 
Q 2881 3666 2632 3958 
Q 2384 4250 1959 4250 
Q 1534 4250 1286 3958 
Q 1038 3666 1038 3163 
Q 1038 2656 1286 2365 
Q 1534 2075 1959 2075 
z
" transform="scale(0.015625)"/>
       </defs>
       <use xlink:href="#DejaVuSans-32"/>
       <use xlink:href="#DejaVuSans-30" x="63.623047"/>
       <use xlink:href="#DejaVuSans-32" x="127.246094"/>
       <use xlink:href="#DejaVuSans-30" x="190.869141"/>
       <use xlink:href="#DejaVuSans-2d" x="254.492188"/>
       <use xlink:href="#DejaVuSans-30" x="290.576172"/>
       <use xlink:href="#DejaVuSans-39" x="354.199219"/>
      </g>
     </g>
    </g>
    <g id="xtick_4">
     <g id="line2d_4">
      <g>
       <use xlink:href="#m858242c66f" x="471.697391" y="368.3955" style="stroke: #000000; stroke-width: 0.8"/>
      </g>
     </g>
     <g id="text_4">
      <!-- 2021-01 -->
      <g transform="translate(450.805984 382.993937)scale(0.1 -0.1)">
       <use xlink:href="#DejaVuSans-32"/>
       <use xlink:href="#DejaVuSans-30" x="63.623047"/>
       <use xlink:href="#DejaVuSans-32" x="127.246094"/>
       <use xlink:href="#DejaVuSans-31" x="190.869141"/>
       <use xlink:href="#DejaVuSans-2d" x="254.492188"/>
       <use xlink:href="#DejaVuSans-30" x="290.576172"/>
       <use xlink:href="#DejaVuSans-31" x="354.199219"/>
      </g>
     </g>
    </g>
    <g id="xtick_5">
     <g id="line2d_5">
      <g>
       <use xlink:href="#m858242c66f" x="598.957448" y="368.3955" style="stroke: #000000; stroke-width: 0.8"/>
      </g>
     </g>
     <g id="text_5">
      <!-- 2021-05 -->
      <g transform="translate(578.066041 382.993937)scale(0.1 -0.1)">
       <use xlink:href="#DejaVuSans-32"/>
       <use xlink:href="#DejaVuSans-30" x="63.623047"/>
       <use xlink:href="#DejaVuSans-32" x="127.246094"/>
       <use xlink:href="#DejaVuSans-31" x="190.869141"/>
       <use xlink:href="#DejaVuSans-2d" x="254.492188"/>
       <use xlink:href="#DejaVuSans-30" x="290.576172"/>
       <use xlink:href="#DejaVuSans-35" x="354.199219"/>
      </g>
     </g>
    </g>
    <g id="xtick_6">
     <g id="line2d_6">
      <g>
       <use xlink:href="#m858242c66f" x="729.399006" y="368.3955" style="stroke: #000000; stroke-width: 0.8"/>
      </g>
     </g>
     <g id="text_6">
      <!-- 2021-09 -->
      <g transform="translate(708.5076 382.993937)scale(0.1 -0.1)">
       <use xlink:href="#DejaVuSans-32"/>
       <use xlink:href="#DejaVuSans-30" x="63.623047"/>
       <use xlink:href="#DejaVuSans-32" x="127.246094"/>
       <use xlink:href="#DejaVuSans-31" x="190.869141"/>
       <use xlink:href="#DejaVuSans-2d" x="254.492188"/>
       <use xlink:href="#DejaVuSans-30" x="290.576172"/>
       <use xlink:href="#DejaVuSans-39" x="354.199219"/>
      </g>
     </g>
    </g>
    <g id="xtick_7">
     <g id="line2d_7">
      <g>
       <use xlink:href="#m858242c66f" x="858.780064" y="368.3955" style="stroke: #000000; stroke-width: 0.8"/>
      </g>
     </g>
     <g id="text_7">
      <!-- 2022-01 -->
      <g transform="translate(837.888658 382.993937)scale(0.1 -0.1)">
       <use xlink:href="#DejaVuSans-32"/>
       <use xlink:href="#DejaVuSans-30" x="63.623047"/>
       <use xlink:href="#DejaVuSans-32" x="127.246094"/>
       <use xlink:href="#DejaVuSans-32" x="190.869141"/>
       <use xlink:href="#DejaVuSans-2d" x="254.492188"/>
       <use xlink:href="#DejaVuSans-30" x="290.576172"/>
       <use xlink:href="#DejaVuSans-31" x="354.199219"/>
      </g>
     </g>
    </g>
    <g id="xtick_8">
     <g id="line2d_8">
      <g>
       <use xlink:href="#m858242c66f" x="986.040121" y="368.3955" style="stroke: #000000; stroke-width: 0.8"/>
      </g>
     </g>
     <g id="text_8">
      <!-- 2022-05 -->
      <g transform="translate(965.148715 382.993937)scale(0.1 -0.1)">
       <use xlink:href="#DejaVuSans-32"/>
       <use xlink:href="#DejaVuSans-30" x="63.623047"/>
       <use xlink:href="#DejaVuSans-32" x="127.246094"/>
       <use xlink:href="#DejaVuSans-32" x="190.869141"/>
       <use xlink:href="#DejaVuSans-2d" x="254.492188"/>
       <use xlink:href="#DejaVuSans-30" x="290.576172"/>
       <use xlink:href="#DejaVuSans-35" x="354.199219"/>
      </g>
     </g>
    </g>
    <g id="xtick_9">
     <g id="line2d_9">
      <g>
       <use xlink:href="#m858242c66f" x="1116.48168" y="368.3955" style="stroke: #000000; stroke-width: 0.8"/>
      </g>
     </g>
     <g id="text_9">
      <!-- 2022-09 -->
      <g transform="translate(1095.590273 382.993937)scale(0.1 -0.1)">
       <use xlink:href="#DejaVuSans-32"/>
       <use xlink:href="#DejaVuSans-30" x="63.623047"/>
       <use xlink:href="#DejaVuSans-32" x="127.246094"/>
       <use xlink:href="#DejaVuSans-32" x="190.869141"/>
       <use xlink:href="#DejaVuSans-2d" x="254.492188"/>
       <use xlink:href="#DejaVuSans-30" x="290.576172"/>
       <use xlink:href="#DejaVuSans-39" x="354.199219"/>
      </g>
     </g>
    </g>
    <g id="xtick_10">
     <g id="line2d_10">
      <g>
       <use xlink:href="#m858242c66f" x="1245.862738" y="368.3955" style="stroke: #000000; stroke-width: 0.8"/>
      </g>
     </g>
     <g id="text_10">
      <!-- 2023-01 -->
      <g transform="translate(1224.971331 382.993937)scale(0.1 -0.1)">
       <defs>
        <path id="DejaVuSans-33" d="M 2597 2516 
Q 3050 2419 3304 2112 
Q 3559 1806 3559 1356 
Q 3559 666 3084 287 
Q 2609 -91 1734 -91 
Q 1441 -91 1130 -33 
Q 819 25 488 141 
L 488 750 
Q 750 597 1062 519 
Q 1375 441 1716 441 
Q 2309 441 2620 675 
Q 2931 909 2931 1356 
Q 2931 1769 2642 2001 
Q 2353 2234 1838 2234 
L 1294 2234 
L 1294 2753 
L 1863 2753 
Q 2328 2753 2575 2939 
Q 2822 3125 2822 3475 
Q 2822 3834 2567 4026 
Q 2313 4219 1838 4219 
Q 1578 4219 1281 4162 
Q 984 4106 628 3988 
L 628 4550 
Q 988 4650 1302 4700 
Q 1616 4750 1894 4750 
Q 2613 4750 3031 4423 
Q 3450 4097 3450 3541 
Q 3450 3153 3228 2886 
Q 3006 2619 2597 2516 
z
" transform="scale(0.015625)"/>
       </defs>
       <use xlink:href="#DejaVuSans-32"/>
       <use xlink:href="#DejaVuSans-30" x="63.623047"/>
       <use xlink:href="#DejaVuSans-32" x="127.246094"/>
       <use xlink:href="#DejaVuSans-33" x="190.869141"/>
       <use xlink:href="#DejaVuSans-2d" x="254.492188"/>
       <use xlink:href="#DejaVuSans-30" x="290.576172"/>
       <use xlink:href="#DejaVuSans-31" x="354.199219"/>
      </g>
     </g>
    </g>
    <g id="xtick_11">
     <g id="line2d_11">
      <g>
       <use xlink:href="#m858242c66f" x="1373.122795" y="368.3955" style="stroke: #000000; stroke-width: 0.8"/>
      </g>
     </g>
     <g id="text_11">
      <!-- 2023-05 -->
      <g transform="translate(1352.231388 382.993937)scale(0.1 -0.1)">
       <use xlink:href="#DejaVuSans-32"/>
       <use xlink:href="#DejaVuSans-30" x="63.623047"/>
       <use xlink:href="#DejaVuSans-32" x="127.246094"/>
       <use xlink:href="#DejaVuSans-33" x="190.869141"/>
       <use xlink:href="#DejaVuSans-2d" x="254.492188"/>
       <use xlink:href="#DejaVuSans-30" x="290.576172"/>
       <use xlink:href="#DejaVuSans-35" x="354.199219"/>
      </g>
     </g>
    </g>
   </g>
   <g id="matplotlib.axis_2">
    <g id="ytick_1">
     <g id="line2d_12">
      <defs>
       <path id="me16b6c3298" d="M 0 0 
L -3.5 0 
" style="stroke: #000000; stroke-width: 0.8"/>
      </defs>
      <g>
       <use xlink:href="#me16b6c3298" x="46.0125" y="352.544647" style="stroke: #000000; stroke-width: 0.8"/>
      </g>
     </g>
     <g id="text_12">
      <!-- 0 -->
      <g transform="translate(32.65 356.343866)scale(0.1 -0.1)">
       <use xlink:href="#DejaVuSans-30"/>
      </g>
     </g>
    </g>
    <g id="ytick_2">
     <g id="line2d_13">
      <g>
       <use xlink:href="#me16b6c3298" x="46.0125" y="292.522931" style="stroke: #000000; stroke-width: 0.8"/>
      </g>
     </g>
     <g id="text_13">
      <!-- 2000 -->
      <g transform="translate(13.5625 296.32215)scale(0.1 -0.1)">
       <use xlink:href="#DejaVuSans-32"/>
       <use xlink:href="#DejaVuSans-30" x="63.623047"/>
       <use xlink:href="#DejaVuSans-30" x="127.246094"/>
       <use xlink:href="#DejaVuSans-30" x="190.869141"/>
      </g>
     </g>
    </g>
    <g id="ytick_3">
     <g id="line2d_14">
      <g>
       <use xlink:href="#me16b6c3298" x="46.0125" y="232.501214" style="stroke: #000000; stroke-width: 0.8"/>
      </g>
     </g>
     <g id="text_14">
      <!-- 4000 -->
      <g transform="translate(13.5625 236.300433)scale(0.1 -0.1)">
       <defs>
        <path id="DejaVuSans-34" d="M 2419 4116 
L 825 1625 
L 2419 1625 
L 2419 4116 
z
M 2253 4666 
L 3047 4666 
L 3047 1625 
L 3713 1625 
L 3713 1100 
L 3047 1100 
L 3047 0 
L 2419 0 
L 2419 1100 
L 313 1100 
L 313 1709 
L 2253 4666 
z
" transform="scale(0.015625)"/>
       </defs>
       <use xlink:href="#DejaVuSans-34"/>
       <use xlink:href="#DejaVuSans-30" x="63.623047"/>
       <use xlink:href="#DejaVuSans-30" x="127.246094"/>
       <use xlink:href="#DejaVuSans-30" x="190.869141"/>
      </g>
     </g>
    </g>
    <g id="ytick_4">
     <g id="line2d_15">
      <g>
       <use xlink:href="#me16b6c3298" x="46.0125" y="172.479498" style="stroke: #000000; stroke-width: 0.8"/>
      </g>
     </g>
     <g id="text_15">
      <!-- 6000 -->
      <g transform="translate(13.5625 176.278717)scale(0.1 -0.1)">
       <defs>
        <path id="DejaVuSans-36" d="M 2113 2584 
Q 1688 2584 1439 2293 
Q 1191 2003 1191 1497 
Q 1191 994 1439 701 
Q 1688 409 2113 409 
Q 2538 409 2786 701 
Q 3034 994 3034 1497 
Q 3034 2003 2786 2293 
Q 2538 2584 2113 2584 
z
M 3366 4563 
L 3366 3988 
Q 3128 4100 2886 4159 
Q 2644 4219 2406 4219 
Q 1781 4219 1451 3797 
Q 1122 3375 1075 2522 
Q 1259 2794 1537 2939 
Q 1816 3084 2150 3084 
Q 2853 3084 3261 2657 
Q 3669 2231 3669 1497 
Q 3669 778 3244 343 
Q 2819 -91 2113 -91 
Q 1303 -91 875 529 
Q 447 1150 447 2328 
Q 447 3434 972 4092 
Q 1497 4750 2381 4750 
Q 2619 4750 2861 4703 
Q 3103 4656 3366 4563 
z
" transform="scale(0.015625)"/>
       </defs>
       <use xlink:href="#DejaVuSans-36"/>
       <use xlink:href="#DejaVuSans-30" x="63.623047"/>
       <use xlink:href="#DejaVuSans-30" x="127.246094"/>
       <use xlink:href="#DejaVuSans-30" x="190.869141"/>
      </g>
     </g>
    </g>
    <g id="ytick_5">
     <g id="line2d_16">
      <g>
       <use xlink:href="#me16b6c3298" x="46.0125" y="112.457781" style="stroke: #000000; stroke-width: 0.8"/>
      </g>
     </g>
     <g id="text_16">
      <!-- 8000 -->
      <g transform="translate(13.5625 116.257)scale(0.1 -0.1)">
       <defs>
        <path id="DejaVuSans-38" d="M 2034 2216 
Q 1584 2216 1326 1975 
Q 1069 1734 1069 1313 
Q 1069 891 1326 650 
Q 1584 409 2034 409 
Q 2484 409 2743 651 
Q 3003 894 3003 1313 
Q 3003 1734 2745 1975 
Q 2488 2216 2034 2216 
z
M 1403 2484 
Q 997 2584 770 2862 
Q 544 3141 544 3541 
Q 544 4100 942 4425 
Q 1341 4750 2034 4750 
Q 2731 4750 3128 4425 
Q 3525 4100 3525 3541 
Q 3525 3141 3298 2862 
Q 3072 2584 2669 2484 
Q 3125 2378 3379 2068 
Q 3634 1759 3634 1313 
Q 3634 634 3220 271 
Q 2806 -91 2034 -91 
Q 1263 -91 848 271 
Q 434 634 434 1313 
Q 434 1759 690 2068 
Q 947 2378 1403 2484 
z
M 1172 3481 
Q 1172 3119 1398 2916 
Q 1625 2713 2034 2713 
Q 2441 2713 2670 2916 
Q 2900 3119 2900 3481 
Q 2900 3844 2670 4047 
Q 2441 4250 2034 4250 
Q 1625 4250 1398 4047 
Q 1172 3844 1172 3481 
z
" transform="scale(0.015625)"/>
       </defs>
       <use xlink:href="#DejaVuSans-38"/>
       <use xlink:href="#DejaVuSans-30" x="63.623047"/>
       <use xlink:href="#DejaVuSans-30" x="127.246094"/>
       <use xlink:href="#DejaVuSans-30" x="190.869141"/>
      </g>
     </g>
    </g>
    <g id="ytick_6">
     <g id="line2d_17">
      <g>
       <use xlink:href="#me16b6c3298" x="46.0125" y="52.436065" style="stroke: #000000; stroke-width: 0.8"/>
      </g>
     </g>
     <g id="text_17">
      <!-- 10000 -->
      <g transform="translate(7.2 56.235283)scale(0.1 -0.1)">
       <use xlink:href="#DejaVuSans-31"/>
       <use xlink:href="#DejaVuSans-30" x="63.623047"/>
       <use xlink:href="#DejaVuSans-30" x="127.246094"/>
       <use xlink:href="#DejaVuSans-30" x="190.869141"/>
       <use xlink:href="#DejaVuSans-30" x="254.492188"/>
      </g>
     </g>
    </g>
   </g>
   <g id="line2d_18">
    <path d="M 106.885227 352.544647 
L 195.967267 352.544647 
L 197.027768 352.124495 
L 198.088268 352.514637 
L 200.209269 352.544647 
L 201.26977 352.184517 
L 202.33027 352.484626 
L 204.451271 352.514637 
L 205.511771 352.544647 
L 206.572272 352.454615 
L 207.632772 352.544647 
L 209.753773 352.454615 
L 210.814274 352.544647 
L 211.874774 352.484626 
L 212.935275 352.544647 
L 213.995775 352.064474 
L 215.056276 352.544647 
L 217.177277 352.034463 
L 218.237777 352.484626 
L 219.298278 352.514637 
L 220.358778 352.304561 
L 221.419279 352.544647 
L 222.479779 351.824387 
L 223.54028 350.053746 
L 224.60078 351.554289 
L 225.66128 352.574658 
L 226.721781 352.004452 
L 227.782281 351.824387 
L 228.842782 352.424604 
L 229.903282 350.143779 
L 230.963783 351.734354 
L 232.024283 351.794376 
L 233.084784 351.644322 
L 234.145284 350.774007 
L 235.205785 350.503909 
L 236.266285 351.974441 
L 237.326786 350.17379 
L 238.387286 349.84367 
L 239.447787 349.12341 
L 240.508287 347.862954 
L 241.568788 347.442802 
L 242.629288 346.872595 
L 243.689789 347.412791 
L 244.750289 345.372052 
L 245.81079 343.90152 
L 246.87129 346.512465 
L 247.93179 342.521021 
L 248.992291 344.201629 
L 250.052791 342.85114 
L 251.113292 346.152335 
L 252.173792 343.121238 
L 253.234293 342.821129 
L 254.294793 344.201629 
L 255.355294 345.041933 
L 256.415794 339.099783 
L 257.476295 344.351683 
L 258.536795 339.790033 
L 259.597296 339.00975 
L 260.657796 341.140521 
L 261.718297 334.958285 
L 262.778797 332.407362 
L 263.839298 339.760022 
L 264.899798 342.611053 
L 265.960299 339.910076 
L 267.020799 336.488838 
L 268.081299 336.398806 
L 269.1418 333.667818 
L 270.2023 339.519935 
L 271.262801 334.748209 
L 272.323301 335.918632 
L 273.383802 338.64962 
L 274.444302 338.259479 
L 275.504803 343.061216 
L 276.565303 338.079414 
L 277.625804 338.349511 
L 278.686304 330.336612 
L 279.746805 345.582128 
L 280.807305 343.751466 
L 281.867806 347.142693 
L 282.928306 346.422432 
L 283.988807 344.891879 
L 285.049307 349.303475 
L 286.109808 349.003366 
L 287.170308 350.443887 
L 288.230809 350.083757 
L 289.291309 348.223084 
L 290.351809 349.063388 
L 291.41231 349.063388 
L 292.47281 347.532834 
L 293.533311 349.513551 
L 294.593811 350.834029 
L 295.654312 347.862954 
L 296.714812 346.962628 
L 297.775313 348.043019 
L 298.835813 349.543562 
L 299.896314 348.133051 
L 300.956814 348.553203 
L 302.017315 349.273464 
L 303.077815 348.643236 
L 304.138316 348.373138 
L 305.198816 343.211271 
L 306.259317 346.242367 
L 307.319817 344.321672 
L 308.380318 345.822215 
L 309.440818 343.091227 
L 310.501318 345.161976 
L 311.561819 340.000109 
L 312.622319 344.771835 
L 313.68282 341.11051 
L 314.74332 341.740738 
L 315.803821 338.619609 
L 316.864321 341.200543 
L 317.924822 341.140521 
L 318.985322 342.400977 
L 320.045823 333.39772 
L 321.106323 338.019392 
L 322.166824 336.788947 
L 323.227324 334.718198 
L 324.287825 338.499566 
L 325.348325 333.307687 
L 326.408826 335.108339 
L 327.469326 322.053615 
L 328.529827 332.107253 
L 329.590327 331.326971 
L 330.650828 327.395548 
L 331.711328 333.517763 
L 332.771828 327.995765 
L 333.832329 330.24658 
L 334.892829 326.885364 
L 335.95333 325.985038 
L 337.01383 319.202584 
L 338.074331 324.724582 
L 339.134831 326.015049 
L 340.195332 315.90139 
L 341.255832 325.564886 
L 342.316333 320.46304 
L 343.376833 318.932486 
L 344.437334 315.691313 
L 345.497834 311.759891 
L 346.558335 321.303344 
L 347.618835 323.134006 
L 348.679336 323.164017 
L 349.739836 325.474853 
L 352.921338 308.90886 
L 353.981838 316.501607 
L 355.042338 321.363366 
L 356.102839 317.431943 
L 357.163339 308.758805 
L 358.22384 306.357937 
L 359.28434 315.151118 
L 360.344841 291.922714 
L 361.405341 316.411574 
L 362.465842 312.78026 
L 363.526342 317.912117 
L 364.586843 311.849924 
L 365.647343 317.371922 
L 366.707844 307.618393 
L 367.768344 313.140391 
L 368.828845 316.321542 
L 369.889345 305.337567 
L 370.949846 311.999978 
L 372.010346 307.138219 
L 373.070847 305.757719 
L 374.131347 295.193897 
L 375.191847 270.855091 
L 376.252348 288.921628 
L 377.312848 284.930184 
L 378.373349 279.318153 
L 379.433849 305.997806 
L 380.49435 249.337306 
L 381.55485 221.577262 
L 382.615351 290.75229 
L 383.675851 202.250269 
L 384.736352 290.39216 
L 385.796852 231.090704 
L 386.857353 245.826035 
L 387.917853 273.376003 
L 388.978354 240.03394 
L 390.038854 220.736958 
L 391.099355 257.500259 
L 392.159855 264.252702 
L 393.220356 238.803495 
L 394.280856 259.721063 
L 395.341357 180.192288 
L 396.401857 243.395156 
L 397.462357 217.525796 
L 398.522858 285.770488 
L 399.583358 266.833636 
L 401.704359 335.438458 
L 402.76486 293.90343 
L 403.82536 281.598978 
L 404.885861 246.996459 
L 405.946361 277.277415 
L 407.006862 267.793984 
L 408.067362 264.5228 
L 410.188363 253.238717 
L 411.248864 260.981519 
L 413.369865 269.924755 
L 414.430365 268.00406 
L 415.490866 275.386731 
L 416.551366 270.434939 
L 417.611866 275.446753 
L 418.672367 295.133876 
L 419.732867 289.191726 
L 420.793368 294.143517 
L 421.853868 308.21861 
L 422.914369 316.62165 
L 423.974869 337.479197 
L 425.03537 309.26899 
L 426.09587 289.431812 
L 427.156371 294.173528 
L 428.216871 302.306471 
L 429.277372 302.456525 
L 430.337872 293.123148 
L 431.398373 298.825211 
L 432.458873 294.083496 
L 433.519374 304.107122 
L 434.579874 301.436156 
L 435.640375 311.129663 
L 436.700875 314.88102 
L 437.761376 308.308642 
L 438.821876 352.544647 
L 439.882376 268.694309 
L 440.942877 312.240065 
L 442.003377 314.370836 
L 443.063878 321.813529 
L 444.124378 319.652747 
L 445.184879 322.113637 
L 446.245379 311.069641 
L 447.30588 320.853181 
L 448.36638 316.021433 
L 449.426881 321.213311 
L 450.487381 325.564886 
L 451.547882 327.635635 
L 452.608382 327.905733 
L 453.668883 324.454484 
L 454.729383 330.456656 
L 455.789884 329.256221 
L 456.850384 329.076156 
L 457.910885 331.236938 
L 458.971385 334.898263 
L 460.031885 330.276591 
L 461.092386 330.876808 
L 462.152886 330.24658 
L 463.213387 334.147991 
L 464.273887 334.298046 
L 465.334388 337.539218 
L 466.394888 338.109425 
L 467.455389 332.767492 
L 468.515889 331.29696 
L 469.57639 337.209099 
L 470.63689 336.518849 
L 471.697391 339.760022 
L 472.757891 339.970098 
L 473.818392 339.910076 
L 474.878892 340.450272 
L 475.939393 336.878979 
L 476.999893 340.270206 
L 478.060394 340.180174 
L 479.120894 335.918632 
L 480.181395 341.680717 
L 481.241895 344.771835 
L 482.302395 337.899349 
L 483.362896 339.639978 
L 484.423396 339.189816 
L 485.483897 340.450272 
L 486.544397 344.441716 
L 487.604898 345.342041 
L 488.665398 344.561759 
L 489.725899 342.881151 
L 490.786399 342.100869 
L 491.8469 343.001195 
L 492.9074 342.460999 
L 493.967901 343.481368 
L 495.028401 345.582128 
L 496.088902 344.441716 
L 497.149402 342.370967 
L 498.209903 343.451357 
L 499.270403 344.051575 
L 500.330904 346.152335 
L 501.391404 347.832943 
L 502.451904 349.273464 
L 503.512405 349.393507 
L 504.572905 347.772921 
L 505.633406 347.412791 
L 506.693906 348.283106 
L 507.754407 347.412791 
L 508.814907 349.393507 
L 509.875408 349.573572 
L 510.935908 348.973355 
L 511.996409 348.643236 
L 513.056909 347.74291 
L 514.11741 348.523192 
L 515.17791 350.113768 
L 516.238411 348.733268 
L 517.298911 350.834029 
L 518.359412 349.423518 
L 519.419912 348.883323 
L 520.480413 349.393507 
L 521.540913 348.79329 
L 522.601414 349.663605 
L 523.661914 349.633594 
L 525.782915 350.143779 
L 526.843415 348.79329 
L 528.964416 349.723627 
L 530.024917 349.183431 
L 531.085417 349.183431 
L 532.145918 350.113768 
L 534.266919 350.353855 
L 535.327419 350.203801 
L 536.38792 349.933703 
L 537.44842 349.333486 
L 538.508921 348.943344 
L 539.569421 351.134137 
L 541.690422 349.873681 
L 542.750923 350.774007 
L 543.811423 349.423518 
L 544.871924 349.633594 
L 545.932424 351.104126 
L 546.992924 350.743996 
L 548.053425 350.954072 
L 549.113925 350.17379 
L 550.174426 349.12341 
L 551.234926 349.723627 
L 552.295427 349.333486 
L 553.355927 348.79329 
L 554.416428 350.17379 
L 555.476928 350.233811 
L 556.537429 348.043019 
L 557.597929 346.902606 
L 558.65843 348.193073 
L 559.71893 348.943344 
L 560.779431 347.862954 
L 561.839931 349.993725 
L 562.900432 349.873681 
L 563.960932 348.313116 
L 565.021433 347.532834 
L 566.081933 347.682888 
L 567.142433 347.982997 
L 568.202934 347.172704 
L 569.263434 348.703258 
L 570.323935 347.262736 
L 571.384435 344.561759 
L 572.444936 344.741824 
L 574.565937 342.581043 
L 575.626437 343.90152 
L 576.686938 342.430988 
L 577.747438 343.451357 
L 578.807939 337.659262 
L 579.868439 338.739653 
L 580.92894 335.13835 
L 581.98944 337.839327 
L 583.049941 327.45557 
L 584.110441 329.496308 
L 585.170942 322.083626 
L 586.231442 315.721324 
L 587.291943 302.516547 
L 588.352443 285.920542 
L 589.412943 281.568968 
L 590.473444 279.048056 
L 591.533944 277.937654 
L 592.594445 261.551725 
L 593.654945 249.247273 
L 594.715446 221.577262 
L 595.775946 209.27281 
L 596.836447 207.562191 
L 597.896947 182.773222 
L 598.957448 181.30269 
L 600.017948 138.357152 
L 601.078449 130.824426 
L 602.138949 124.852266 
L 603.19945 94.301212 
L 604.25995 83.347249 
L 605.320451 81.756673 
L 606.380951 103.844665 
L 607.441452 89.139344 
L 608.501952 78.635544 
L 609.562452 72.933481 
L 610.622953 75.304339 
L 613.804454 111.077282 
L 614.864955 132.985208 
L 615.925455 76.504773 
L 616.985956 108.376304 
L 618.046456 110.537086 
L 620.167457 100.243362 
L 621.227958 94.721364 
L 622.288458 124.522146 
L 623.348959 135.866251 
L 624.409459 100.843579 
L 625.46996 152.162147 
L 626.53046 150.54156 
L 627.590961 146.820214 
L 628.651461 223.167837 
L 629.711962 241.44445 
L 630.772462 227.159282 
L 631.832962 193.937261 
L 632.893463 216.775525 
L 633.953963 177.731398 
L 636.074964 246.306209 
L 637.135465 261.791812 
L 638.195965 251.408055 
L 639.256466 236.402626 
L 640.316966 249.037197 
L 641.377467 266.293441 
L 642.437967 271.245232 
L 643.498468 281.058783 
L 644.558968 301.706254 
L 645.619469 291.052399 
L 646.679969 302.096395 
L 647.74047 292.102779 
L 648.80097 299.48545 
L 649.861471 293.633333 
L 651.982471 309.899218 
L 653.042972 305.007448 
L 654.103472 241.414439 
L 655.163973 307.198241 
L 656.224473 305.217524 
L 657.284974 300.89596 
L 658.345474 317.3119 
L 659.405975 311.939956 
L 660.466475 307.258262 
L 661.526976 300.685884 
L 662.587476 295.854136 
L 663.647977 296.814484 
L 664.708477 310.799544 
L 665.768978 306.718067 
L 666.829478 321.273333 
L 667.889979 300.1757 
L 668.950479 300.985993 
L 670.01098 290.212095 
L 671.07148 315.991422 
L 672.131981 308.158588 
L 674.252981 315.421216 
L 675.313482 301.826297 
L 676.373982 303.356851 
L 677.434483 292.222822 
L 678.494983 299.065298 
L 679.555484 292.342866 
L 680.615984 313.230423 
L 681.676485 315.841368 
L 682.736985 303.266818 
L 683.797486 286.460738 
L 684.857986 294.983821 
L 685.918487 296.874505 
L 686.978987 293.063126 
L 688.039488 283.249576 
L 689.099988 306.357937 
L 690.160489 280.788685 
L 691.220989 270.735048 
L 692.28149 273.496047 
L 693.34199 282.469293 
L 694.40249 278.50786 
L 695.462991 284.119891 
L 696.523491 293.093137 
L 697.583992 284.149901 
L 698.644492 279.078066 
L 699.704993 263.262344 
L 700.765493 262.301997 
L 701.825994 279.618262 
L 702.886494 285.590423 
L 703.946995 288.411443 
L 705.007495 274.246318 
L 706.067996 256.689966 
L 707.128496 274.036242 
L 708.188997 278.327795 
L 709.249497 269.624646 
L 710.309998 294.113506 
L 711.370498 298.735179 
L 712.430999 275.536785 
L 713.491499 278.83798 
L 714.552 274.126275 
L 715.6125 282.889445 
L 716.673 290.152073 
L 717.733501 309.809185 
L 718.794001 301.466167 
L 719.854502 306.087839 
L 720.915002 291.922714 
L 721.975503 296.664429 
L 723.036003 290.962366 
L 724.096504 305.217524 
L 725.157004 307.048186 
L 726.217505 316.111466 
L 727.278005 295.463995 
L 728.338506 306.83811 
L 729.399006 303.086753 
L 730.459507 303.957068 
L 731.520007 311.819913 
L 732.580508 321.813529 
L 733.641008 323.25405 
L 734.701509 307.88849 
L 735.762009 309.839196 
L 736.82251 312.120021 
L 737.88301 320.793159 
L 738.94351 323.704213 
L 740.004011 329.226211 
L 741.064511 327.395548 
L 742.125012 318.062171 
L 743.185512 317.131835 
L 744.246013 312.570184 
L 745.306513 317.581998 
L 746.367014 319.952855 
L 747.427514 327.485581 
L 748.488015 332.857524 
L 749.548515 323.284061 
L 750.609016 321.453398 
L 751.669516 315.001064 
L 752.730017 324.30443 
L 753.790517 319.442671 
L 754.851018 328.836069 
L 755.911518 330.636721 
L 756.972019 323.284061 
L 758.032519 325.414832 
L 759.093019 325.774962 
L 760.15352 325.594897 
L 761.21402 325.594897 
L 762.274521 332.767492 
L 763.335021 335.318415 
L 764.395522 328.175831 
L 765.456022 329.676373 
L 766.516523 327.065429 
L 767.577023 332.527405 
L 768.637524 331.086884 
L 770.758525 335.588513 
L 771.819025 332.647448 
L 772.879526 331.807144 
L 773.940026 342.761108 
L 775.000527 340.600326 
L 776.061027 345.342041 
L 777.121528 348.463171 
L 778.182028 340.990467 
L 779.242529 336.848969 
L 780.303029 323.824256 
L 781.363529 336.488838 
L 782.42403 338.439544 
L 783.48453 335.318415 
L 784.545031 339.399892 
L 785.605531 336.878979 
L 786.666032 332.34734 
L 787.726532 335.468469 
L 788.787033 335.078328 
L 789.847533 336.728925 
L 790.908034 337.839327 
L 791.968534 343.631423 
L 793.029035 341.260565 
L 794.089535 339.309859 
L 795.150036 339.880065 
L 796.210536 340.690358 
L 798.331537 347.322758 
L 799.392038 348.703258 
L 800.452538 348.313116 
L 801.513038 341.410619 
L 802.573539 339.249837 
L 803.634039 340.930445 
L 804.69454 343.511379 
L 805.75504 341.890793 
L 806.815541 344.741824 
L 807.876041 343.811488 
L 808.936542 341.530662 
L 809.997042 342.370967 
L 811.057543 341.650706 
L 812.118043 344.381694 
L 813.178544 344.411705 
L 814.239044 346.272378 
L 815.299545 345.582128 
L 816.360045 341.530662 
L 817.420546 343.151249 
L 818.481046 343.391336 
L 819.541547 344.111596 
L 820.602047 345.28202 
L 822.723048 347.922975 
L 823.783548 345.252009 
L 824.844049 345.191987 
L 825.904549 343.991553 
L 826.96505 343.601412 
L 828.02555 345.852226 
L 829.086051 345.942259 
L 830.146551 346.542476 
L 832.267552 344.381694 
L 833.328053 344.891879 
L 834.388553 346.632508 
L 835.449054 345.582128 
L 836.509554 346.722541 
L 837.570055 345.28202 
L 838.630555 343.151249 
L 839.691056 345.672161 
L 840.751556 344.981911 
L 841.812057 347.74291 
L 842.872557 344.471727 
L 843.933057 347.802932 
L 844.993558 348.553203 
L 846.054058 346.00228 
L 847.114559 344.981911 
L 848.175059 346.032291 
L 849.23556 345.312031 
L 850.29606 345.432074 
L 851.356561 347.832943 
L 852.417061 346.152335 
L 853.477562 345.011922 
L 854.538062 345.312031 
L 855.598563 346.272378 
L 856.659063 345.492096 
L 857.719564 345.822215 
L 858.780064 342.280934 
L 859.840565 346.152335 
L 860.901065 343.811488 
L 861.961566 341.890793 
L 863.022066 341.44063 
L 864.082567 338.199457 
L 865.143067 335.378437 
L 866.203567 331.65709 
L 867.264068 327.305516 
L 868.324568 311.819913 
L 869.385069 293.093137 
L 871.50607 264.85292 
L 872.56657 226.378999 
L 873.627071 241.414439 
L 874.687571 216.475416 
L 875.748072 180.072245 
L 876.808572 90.549855 
L 877.869073 67.381472 
L 878.929573 50.8755 
L 879.990074 87.998932 
L 881.050574 106.095479 
L 882.111075 184.543863 
L 883.171575 110.837195 
L 884.232076 69.482232 
L 885.292576 185.354156 
L 886.353076 178.001496 
L 887.413577 208.282452 
L 888.474077 252.96862 
L 889.534578 261.041541 
L 890.595078 248.346948 
L 891.655579 242.794939 
L 892.716079 286.370705 
L 893.77658 270.254874 
L 894.83708 304.467252 
L 895.897581 319.442671 
L 896.958081 317.041802 
L 898.018582 321.87355 
L 899.079082 317.011791 
L 900.139583 296.994549 
L 901.200083 322.143648 
L 902.260584 332.557416 
L 903.321084 337.809316 
L 904.381585 339.730011 
L 905.442085 338.079414 
L 906.502586 337.59924 
L 907.563086 338.919718 
L 909.684087 344.291661 
L 910.744587 346.602498 
L 911.805088 345.672161 
L 912.865588 345.131965 
L 913.926089 343.571401 
L 914.986589 344.861868 
L 916.04709 348.013008 
L 917.10759 347.802932 
L 918.168091 349.513551 
L 919.228591 349.723627 
L 920.289092 348.973355 
L 921.349592 349.783649 
L 922.410093 348.853312 
L 923.470593 350.443887 
L 924.531094 349.213442 
L 925.591594 350.53392 
L 926.652095 350.924061 
L 927.712595 350.563931 
L 928.773096 350.323844 
L 929.833596 350.503909 
L 930.894096 350.233811 
L 931.954597 350.683974 
L 933.015097 351.644322 
L 934.075598 350.774007 
L 935.136098 351.044105 
L 936.196599 350.834029 
L 939.3781 352.184517 
L 940.438601 352.304561 
L 941.499101 351.704343 
L 942.559602 351.314202 
L 943.620102 351.494267 
L 945.741103 351.5843 
L 946.801604 352.184517 
L 947.862104 352.304561 
L 948.922605 352.094485 
L 949.983105 352.094485 
L 951.043605 351.644322 
L 952.104106 351.794376 
L 953.164606 351.824387 
L 955.285607 352.244539 
L 956.346108 351.854398 
L 957.406608 351.5843 
L 959.527609 352.244539 
L 960.58811 352.334571 
L 962.709111 352.184517 
L 963.769611 352.454615 
L 964.830112 351.884409 
L 965.890612 351.854398 
L 966.951113 352.094485 
L 968.011613 352.454615 
L 969.072114 352.124495 
L 970.132614 352.364582 
L 971.193115 352.214528 
L 973.314115 352.244539 
L 974.374616 352.27455 
L 975.435116 352.184517 
L 976.495617 352.27455 
L 977.556117 352.004452 
L 978.616618 352.214528 
L 979.677118 351.974441 
L 980.737619 352.304561 
L 981.798119 352.304561 
L 982.85862 352.094485 
L 983.91912 352.154506 
L 984.979621 352.424604 
L 986.040121 352.004452 
L 987.100622 352.304561 
L 988.161122 351.674333 
L 989.221623 351.974441 
L 990.282123 352.094485 
L 991.342624 352.094485 
L 992.403124 352.214528 
L 993.463624 352.034463 
L 994.524125 352.364582 
L 996.645126 352.004452 
L 997.705626 352.424604 
L 998.766127 352.334571 
L 999.826627 352.484626 
L 1000.887128 352.334571 
L 1001.947628 352.364582 
L 1003.008129 352.004452 
L 1004.068629 352.364582 
L 1005.12913 352.184517 
L 1009.371132 352.304561 
L 1010.431632 352.214528 
L 1011.492133 352.424604 
L 1012.552633 352.124495 
L 1014.673634 352.394593 
L 1015.734134 352.27455 
L 1016.794635 352.394593 
L 1021.036637 351.974441 
L 1022.097137 352.304561 
L 1024.218138 352.334571 
L 1026.339139 352.244539 
L 1027.39964 352.184517 
L 1028.46014 352.334571 
L 1030.581141 352.214528 
L 1032.702142 352.334571 
L 1033.762643 351.974441 
L 1034.823143 352.184517 
L 1035.883643 351.824387 
L 1036.944144 352.214528 
L 1038.004644 352.004452 
L 1039.065145 351.94443 
L 1040.125645 352.124495 
L 1041.186146 351.704343 
L 1042.246646 351.554289 
L 1043.307147 351.5843 
L 1044.367647 351.854398 
L 1045.428148 351.914419 
L 1046.488648 351.464257 
L 1047.549149 351.404235 
L 1048.609649 351.014094 
L 1049.67015 351.464257 
L 1051.791151 351.554289 
L 1052.851651 351.374224 
L 1053.912152 351.524278 
L 1054.972652 350.353855 
L 1056.033153 349.84367 
L 1057.093653 350.743996 
L 1058.154153 350.053746 
L 1059.214654 350.383866 
L 1060.275154 349.423518 
L 1061.335655 348.673247 
L 1062.396155 348.223084 
L 1064.517156 346.122324 
L 1065.577657 347.712899 
L 1066.638157 347.982997 
L 1067.698658 349.12341 
L 1068.759158 340.960456 
L 1069.819659 344.501737 
L 1070.880159 342.340956 
L 1071.94066 343.031205 
L 1073.00116 341.020478 
L 1074.061661 346.062302 
L 1075.122161 343.451357 
L 1076.182662 338.949729 
L 1077.243162 340.540304 
L 1078.303662 340.000109 
L 1079.364163 336.818958 
L 1080.424663 340.810402 
L 1081.485164 343.781477 
L 1082.545664 337.659262 
L 1083.606165 333.577785 
L 1084.666665 337.269121 
L 1085.727166 334.838241 
L 1086.787666 337.719283 
L 1087.848167 336.668903 
L 1088.908667 342.761108 
L 1089.969168 339.00975 
L 1091.029668 337.59924 
L 1092.090169 335.738567 
L 1093.150669 337.659262 
L 1094.21117 338.589598 
L 1095.27167 339.970098 
L 1096.332171 347.682888 
L 1097.392671 343.391336 
L 1098.453172 339.730011 
L 1099.513672 340.570315 
L 1100.574172 336.608882 
L 1101.634673 345.822215 
L 1102.695173 345.161976 
L 1103.755674 347.142693 
L 1104.816174 346.482454 
L 1105.876675 340.39025 
L 1106.937175 342.250923 
L 1107.997676 345.28202 
L 1109.058176 346.212356 
L 1110.118677 347.652878 
L 1111.179177 350.593942 
L 1112.239678 347.622867 
L 1113.300178 348.193073 
L 1114.360679 348.253095 
L 1115.421179 345.822215 
L 1118.602681 349.783649 
L 1119.663181 349.063388 
L 1120.723682 348.883323 
L 1121.784182 347.232726 
L 1122.844682 348.703258 
L 1123.905183 348.43316 
L 1124.965683 349.243453 
L 1126.026184 349.183431 
L 1127.086684 349.873681 
L 1128.147185 348.733268 
L 1129.207685 349.933703 
L 1130.268186 349.873681 
L 1132.389187 350.743996 
L 1133.449687 351.494267 
L 1134.510188 351.794376 
L 1135.570688 350.293833 
L 1136.631189 351.374224 
L 1137.691689 351.374224 
L 1138.75219 350.774007 
L 1139.81269 350.954072 
L 1140.873191 351.674333 
L 1141.933691 351.344213 
L 1142.994191 351.374224 
L 1144.054692 351.284191 
L 1145.115192 351.614311 
L 1146.175693 351.794376 
L 1147.236193 351.644322 
L 1148.296694 352.034463 
L 1149.357194 352.544647 
L 1150.417695 351.644322 
L 1151.478195 351.344213 
L 1152.538696 352.244539 
L 1154.659697 352.214528 
L 1155.720197 352.364582 
L 1156.780698 351.94443 
L 1157.841198 351.794376 
L 1159.962199 351.194159 
L 1163.143701 351.194159 
L 1164.204201 351.704343 
L 1165.264701 351.344213 
L 1167.385702 351.284191 
L 1168.446203 351.044105 
L 1170.567204 351.254181 
L 1171.627704 351.374224 
L 1172.688205 351.344213 
L 1173.748705 352.124495 
L 1174.809206 352.124495 
L 1175.869706 352.454615 
L 1176.930207 352.184517 
L 1177.990707 352.454615 
L 1179.051208 352.27455 
L 1180.111708 352.364582 
L 1181.172209 351.674333 
L 1182.232709 351.164148 
L 1183.29321 351.194159 
L 1184.35371 351.884409 
L 1185.41421 352.244539 
L 1186.474711 351.764365 
L 1187.535211 352.094485 
L 1189.656212 352.334571 
L 1191.777213 352.27455 
L 1192.837714 352.304561 
L 1193.898214 352.124495 
L 1194.958715 352.304561 
L 1196.019215 352.184517 
L 1198.140216 352.424604 
L 1199.200717 352.304561 
L 1200.261217 352.454615 
L 1202.382218 352.424604 
L 1205.56372 352.484626 
L 1206.62422 352.244539 
L 1207.68472 352.544647 
L 1209.805721 352.364582 
L 1210.866222 352.514637 
L 1212.987223 352.394593 
L 1214.047723 352.364582 
L 1215.108224 352.454615 
L 1216.168724 352.364582 
L 1218.289725 352.514637 
L 1219.350226 352.27455 
L 1220.410726 352.454615 
L 1221.471227 352.394593 
L 1222.531727 352.514637 
L 1223.592228 352.484626 
L 1224.652728 352.334571 
L 1225.713229 352.484626 
L 1231.015731 352.544647 
L 1232.076231 352.304561 
L 1237.378734 352.544647 
L 1238.439234 352.424604 
L 1239.499735 352.514637 
L 1240.560235 352.304561 
L 1241.620736 352.544647 
L 1242.681236 352.064474 
L 1243.741737 352.424604 
L 1244.802237 352.394593 
L 1246.923238 352.514637 
L 1247.983739 352.484626 
L 1249.044239 352.334571 
L 1251.16524 352.484626 
L 1255.407242 352.424604 
L 1256.467742 352.484626 
L 1259.649244 352.394593 
L 1260.709744 352.544647 
L 1261.770245 352.394593 
L 1262.830745 352.454615 
L 1263.891246 352.27455 
L 1266.012247 352.514637 
L 1271.314749 352.454615 
L 1273.43575 352.364582 
L 1274.49625 352.544647 
L 1275.556751 352.424604 
L 1282.980254 352.544647 
L 1293.585259 352.454615 
L 1296.76676 352.454615 
L 1297.827261 352.544647 
L 1298.887761 352.484626 
L 1299.948262 352.544647 
L 1302.069263 352.514637 
L 1309.492766 352.514637 
L 1309.492766 352.514637 
" clip-path="url(#p39ae96ab91)" style="fill: none; stroke: #0000ff; stroke-width: 1.5; stroke-linecap: square"/>
   </g>
   <g id="line2d_19">
    <path d="M 1069.819659 343.588365 
L 1071.94066 342.294222 
L 1073.00116 342.750548 
L 1074.061661 341.699692 
L 1075.122161 344.11275 
L 1076.182662 343.170962 
L 1077.243162 340.595087 
L 1078.303662 339.482928 
L 1079.364163 339.681986 
L 1080.424663 337.773325 
L 1081.485164 339.768201 
L 1082.545664 342.340377 
L 1084.666665 335.051314 
L 1085.727166 335.131588 
L 1086.787666 334.766688 
L 1087.848167 336.826173 
L 1088.908667 337.873042 
L 1089.969168 340.202668 
L 1091.029668 338.733775 
L 1092.090169 338.70864 
L 1093.150669 336.208162 
L 1094.21117 336.819558 
L 1095.27167 338.272216 
L 1096.332171 341.036089 
L 1097.392671 344.547619 
L 1098.453172 343.720289 
L 1099.513672 341.782759 
L 1100.574172 340.370778 
L 1101.634673 338.050659 
L 1103.755674 347.240797 
L 1104.816174 346.625204 
L 1105.876675 345.207193 
L 1106.937175 342.744197 
L 1107.997676 341.263398 
L 1109.058176 344.7007 
L 1110.118677 346.505296 
L 1111.179177 349.383047 
L 1112.239678 349.344712 
L 1113.300178 346.826922 
L 1114.360679 348.102118 
L 1115.421179 348.356256 
L 1116.48168 347.95471 
L 1117.54218 347.416821 
L 1118.602681 349.724881 
L 1119.663181 348.68556 
L 1120.723682 347.471571 
L 1121.784182 348.814082 
L 1122.844682 347.705441 
L 1123.905183 349.110389 
L 1124.965683 349.207184 
L 1126.026184 350.783274 
L 1127.086684 348.648878 
L 1128.147185 347.952088 
L 1130.268186 349.485338 
L 1131.328686 350.698419 
L 1132.389187 351.009872 
L 1133.449687 352.153311 
L 1134.510188 350.917057 
L 1135.570688 350.27464 
L 1137.691689 351.035861 
L 1138.75219 352.045496 
L 1139.81269 351.748209 
L 1140.873191 352.233393 
L 1142.994191 350.03604 
L 1144.054692 351.176074 
L 1145.115192 351.316561 
L 1146.175693 352.038877 
L 1147.236193 352.278773 
L 1148.296694 352.902068 
L 1149.357194 351.685335 
L 1150.417695 351.181867 
L 1151.478195 351.816522 
L 1152.538696 351.542098 
L 1153.599196 352.329102 
L 1154.659697 352.641136 
L 1155.720197 353.2755 
L 1157.841198 351.061439 
L 1158.901699 351.606035 
L 1161.0227 351.676995 
L 1162.0832 351.474767 
L 1163.143701 351.979704 
L 1164.204201 351.00679 
L 1165.264701 350.569027 
L 1166.325202 351.202184 
L 1168.446203 351.608079 
L 1169.506703 351.424225 
L 1170.567204 351.73361 
L 1172.688205 350.545267 
L 1173.748705 351.132874 
L 1174.809206 351.876152 
L 1175.869706 352.421215 
L 1177.990707 352.944454 
L 1180.111708 351.748219 
L 1181.172209 352.26773 
L 1183.29321 351.591446 
L 1184.35371 351.273919 
L 1185.41421 351.996391 
L 1186.474711 352.005246 
L 1187.535211 351.467107 
L 1189.656212 352.143137 
L 1190.716713 352.526425 
L 1191.777213 352.576205 
L 1192.837714 352.785794 
L 1194.958715 351.78621 
L 1196.019215 352.131401 
L 1197.079716 352.198086 
L 1200.261217 352.7517 
L 1201.321718 352.338159 
L 1202.382218 352.144088 
L 1203.442719 352.366669 
L 1207.68472 352.664889 
L 1209.805721 352.190953 
L 1212.987223 352.570727 
L 1214.047723 352.512255 
L 1215.108224 352.663694 
L 1217.229225 352.149196 
L 1218.289725 352.381803 
L 1219.350226 352.488768 
L 1221.471227 352.466143 
L 1222.531727 352.648138 
L 1224.652728 352.305772 
L 1226.773729 352.397357 
L 1227.834229 352.576154 
L 1228.89473 352.548026 
L 1229.95523 352.736652 
L 1232.076231 352.381669 
L 1234.197232 352.321087 
L 1237.378734 352.724064 
L 1239.499735 352.309707 
L 1240.560235 352.458201 
L 1241.620736 352.373303 
L 1242.681236 352.517252 
L 1243.741737 352.275268 
L 1244.802237 352.440341 
L 1246.923238 352.325788 
L 1249.044239 352.528132 
L 1250.104739 352.414351 
L 1252.22574 352.595908 
L 1254.346741 352.373501 
L 1259.649244 352.443216 
L 1260.709744 352.327804 
L 1263.891246 352.451469 
L 1264.951746 352.346201 
L 1266.012247 352.379703 
L 1267.072747 352.550572 
L 1277.677752 352.43327 
L 1282.980254 352.534403 
L 1285.101255 352.541028 
L 1288.282757 352.530235 
L 1290.403758 352.512566 
L 1292.524758 352.494719 
L 1298.887761 352.463393 
L 1304.190264 352.578599 
L 1308.432266 352.454882 
L 1309.492766 352.454918 
L 1309.492766 352.454918 
" clip-path="url(#p39ae96ab91)" style="fill: none; stroke: #ffa500; stroke-width: 1.5; stroke-linecap: square"/>
   </g>
   <g id="line2d_20">
    <path d="M 1310.553267 352.500007 
L 1311.613767 352.555772 
L 1312.674268 352.551654 
L 1313.734768 352.51832 
L 1314.795268 352.531462 
L 1315.855769 352.511576 
L 1316.916269 352.52152 
L 1317.97677 352.52778 
L 1319.03727 352.573596 
L 1320.097771 352.568695 
L 1321.158271 352.537916 
L 1322.218772 352.549182 
L 1323.279272 352.530382 
L 1324.339773 352.539217 
" clip-path="url(#p39ae96ab91)" style="fill: none; stroke: #ff0000; stroke-width: 1.5; stroke-linecap: square"/>
   </g>
   <g id="patch_3">
    <path d="M 46.0125 368.3955 
L 46.0125 35.7555 
" style="fill: none; stroke: #000000; stroke-width: 0.8; stroke-linejoin: miter; stroke-linecap: square"/>
   </g>
   <g id="patch_4">
    <path d="M 1385.2125 368.3955 
L 1385.2125 35.7555 
" style="fill: none; stroke: #000000; stroke-width: 0.8; stroke-linejoin: miter; stroke-linecap: square"/>
   </g>
   <g id="patch_5">
    <path d="M 46.0125 368.3955 
L 1385.2125 368.3955 
" style="fill: none; stroke: #000000; stroke-width: 0.8; stroke-linejoin: miter; stroke-linecap: square"/>
   </g>
   <g id="patch_6">
    <path d="M 46.0125 35.7555 
L 1385.2125 35.7555 
" style="fill: none; stroke: #000000; stroke-width: 0.8; stroke-linejoin: miter; stroke-linecap: square"/>
   </g>
   <g id="text_18">
    <!-- Daily Confirmed Cases Forecasting - Nepal -->
    <g transform="translate(587.77875 16.318125)scale(0.12 -0.12)">
     <defs>
      <path id="DejaVuSans-44" d="M 1259 4147 
L 1259 519 
L 2022 519 
Q 2988 519 3436 956 
Q 3884 1394 3884 2338 
Q 3884 3275 3436 3711 
Q 2988 4147 2022 4147 
L 1259 4147 
z
M 628 4666 
L 1925 4666 
Q 3281 4666 3915 4102 
Q 4550 3538 4550 2338 
Q 4550 1131 3912 565 
Q 3275 0 1925 0 
L 628 0 
L 628 4666 
z
" transform="scale(0.015625)"/>
      <path id="DejaVuSans-61" d="M 2194 1759 
Q 1497 1759 1228 1600 
Q 959 1441 959 1056 
Q 959 750 1161 570 
Q 1363 391 1709 391 
Q 2188 391 2477 730 
Q 2766 1069 2766 1631 
L 2766 1759 
L 2194 1759 
z
M 3341 1997 
L 3341 0 
L 2766 0 
L 2766 531 
Q 2569 213 2275 61 
Q 1981 -91 1556 -91 
Q 1019 -91 701 211 
Q 384 513 384 1019 
Q 384 1609 779 1909 
Q 1175 2209 1959 2209 
L 2766 2209 
L 2766 2266 
Q 2766 2663 2505 2880 
Q 2244 3097 1772 3097 
Q 1472 3097 1187 3025 
Q 903 2953 641 2809 
L 641 3341 
Q 956 3463 1253 3523 
Q 1550 3584 1831 3584 
Q 2591 3584 2966 3190 
Q 3341 2797 3341 1997 
z
" transform="scale(0.015625)"/>
      <path id="DejaVuSans-69" d="M 603 3500 
L 1178 3500 
L 1178 0 
L 603 0 
L 603 3500 
z
M 603 4863 
L 1178 4863 
L 1178 4134 
L 603 4134 
L 603 4863 
z
" transform="scale(0.015625)"/>
      <path id="DejaVuSans-6c" d="M 603 4863 
L 1178 4863 
L 1178 0 
L 603 0 
L 603 4863 
z
" transform="scale(0.015625)"/>
      <path id="DejaVuSans-79" d="M 2059 -325 
Q 1816 -950 1584 -1140 
Q 1353 -1331 966 -1331 
L 506 -1331 
L 506 -850 
L 844 -850 
Q 1081 -850 1212 -737 
Q 1344 -625 1503 -206 
L 1606 56 
L 191 3500 
L 800 3500 
L 1894 763 
L 2988 3500 
L 3597 3500 
L 2059 -325 
z
" transform="scale(0.015625)"/>
      <path id="DejaVuSans-20" transform="scale(0.015625)"/>
      <path id="DejaVuSans-43" d="M 4122 4306 
L 4122 3641 
Q 3803 3938 3442 4084 
Q 3081 4231 2675 4231 
Q 1875 4231 1450 3742 
Q 1025 3253 1025 2328 
Q 1025 1406 1450 917 
Q 1875 428 2675 428 
Q 3081 428 3442 575 
Q 3803 722 4122 1019 
L 4122 359 
Q 3791 134 3420 21 
Q 3050 -91 2638 -91 
Q 1578 -91 968 557 
Q 359 1206 359 2328 
Q 359 3453 968 4101 
Q 1578 4750 2638 4750 
Q 3056 4750 3426 4639 
Q 3797 4528 4122 4306 
z
" transform="scale(0.015625)"/>
      <path id="DejaVuSans-6f" d="M 1959 3097 
Q 1497 3097 1228 2736 
Q 959 2375 959 1747 
Q 959 1119 1226 758 
Q 1494 397 1959 397 
Q 2419 397 2687 759 
Q 2956 1122 2956 1747 
Q 2956 2369 2687 2733 
Q 2419 3097 1959 3097 
z
M 1959 3584 
Q 2709 3584 3137 3096 
Q 3566 2609 3566 1747 
Q 3566 888 3137 398 
Q 2709 -91 1959 -91 
Q 1206 -91 779 398 
Q 353 888 353 1747 
Q 353 2609 779 3096 
Q 1206 3584 1959 3584 
z
" transform="scale(0.015625)"/>
      <path id="DejaVuSans-6e" d="M 3513 2113 
L 3513 0 
L 2938 0 
L 2938 2094 
Q 2938 2591 2744 2837 
Q 2550 3084 2163 3084 
Q 1697 3084 1428 2787 
Q 1159 2491 1159 1978 
L 1159 0 
L 581 0 
L 581 3500 
L 1159 3500 
L 1159 2956 
Q 1366 3272 1645 3428 
Q 1925 3584 2291 3584 
Q 2894 3584 3203 3211 
Q 3513 2838 3513 2113 
z
" transform="scale(0.015625)"/>
      <path id="DejaVuSans-66" d="M 2375 4863 
L 2375 4384 
L 1825 4384 
Q 1516 4384 1395 4259 
Q 1275 4134 1275 3809 
L 1275 3500 
L 2222 3500 
L 2222 3053 
L 1275 3053 
L 1275 0 
L 697 0 
L 697 3053 
L 147 3053 
L 147 3500 
L 697 3500 
L 697 3744 
Q 697 4328 969 4595 
Q 1241 4863 1831 4863 
L 2375 4863 
z
" transform="scale(0.015625)"/>
      <path id="DejaVuSans-72" d="M 2631 2963 
Q 2534 3019 2420 3045 
Q 2306 3072 2169 3072 
Q 1681 3072 1420 2755 
Q 1159 2438 1159 1844 
L 1159 0 
L 581 0 
L 581 3500 
L 1159 3500 
L 1159 2956 
Q 1341 3275 1631 3429 
Q 1922 3584 2338 3584 
Q 2397 3584 2469 3576 
Q 2541 3569 2628 3553 
L 2631 2963 
z
" transform="scale(0.015625)"/>
      <path id="DejaVuSans-6d" d="M 3328 2828 
Q 3544 3216 3844 3400 
Q 4144 3584 4550 3584 
Q 5097 3584 5394 3201 
Q 5691 2819 5691 2113 
L 5691 0 
L 5113 0 
L 5113 2094 
Q 5113 2597 4934 2840 
Q 4756 3084 4391 3084 
Q 3944 3084 3684 2787 
Q 3425 2491 3425 1978 
L 3425 0 
L 2847 0 
L 2847 2094 
Q 2847 2600 2669 2842 
Q 2491 3084 2119 3084 
Q 1678 3084 1418 2786 
Q 1159 2488 1159 1978 
L 1159 0 
L 581 0 
L 581 3500 
L 1159 3500 
L 1159 2956 
Q 1356 3278 1631 3431 
Q 1906 3584 2284 3584 
Q 2666 3584 2933 3390 
Q 3200 3197 3328 2828 
z
" transform="scale(0.015625)"/>
      <path id="DejaVuSans-65" d="M 3597 1894 
L 3597 1613 
L 953 1613 
Q 991 1019 1311 708 
Q 1631 397 2203 397 
Q 2534 397 2845 478 
Q 3156 559 3463 722 
L 3463 178 
Q 3153 47 2828 -22 
Q 2503 -91 2169 -91 
Q 1331 -91 842 396 
Q 353 884 353 1716 
Q 353 2575 817 3079 
Q 1281 3584 2069 3584 
Q 2775 3584 3186 3129 
Q 3597 2675 3597 1894 
z
M 3022 2063 
Q 3016 2534 2758 2815 
Q 2500 3097 2075 3097 
Q 1594 3097 1305 2825 
Q 1016 2553 972 2059 
L 3022 2063 
z
" transform="scale(0.015625)"/>
      <path id="DejaVuSans-64" d="M 2906 2969 
L 2906 4863 
L 3481 4863 
L 3481 0 
L 2906 0 
L 2906 525 
Q 2725 213 2448 61 
Q 2172 -91 1784 -91 
Q 1150 -91 751 415 
Q 353 922 353 1747 
Q 353 2572 751 3078 
Q 1150 3584 1784 3584 
Q 2172 3584 2448 3432 
Q 2725 3281 2906 2969 
z
M 947 1747 
Q 947 1113 1208 752 
Q 1469 391 1925 391 
Q 2381 391 2643 752 
Q 2906 1113 2906 1747 
Q 2906 2381 2643 2742 
Q 2381 3103 1925 3103 
Q 1469 3103 1208 2742 
Q 947 2381 947 1747 
z
" transform="scale(0.015625)"/>
      <path id="DejaVuSans-73" d="M 2834 3397 
L 2834 2853 
Q 2591 2978 2328 3040 
Q 2066 3103 1784 3103 
Q 1356 3103 1142 2972 
Q 928 2841 928 2578 
Q 928 2378 1081 2264 
Q 1234 2150 1697 2047 
L 1894 2003 
Q 2506 1872 2764 1633 
Q 3022 1394 3022 966 
Q 3022 478 2636 193 
Q 2250 -91 1575 -91 
Q 1294 -91 989 -36 
Q 684 19 347 128 
L 347 722 
Q 666 556 975 473 
Q 1284 391 1588 391 
Q 1994 391 2212 530 
Q 2431 669 2431 922 
Q 2431 1156 2273 1281 
Q 2116 1406 1581 1522 
L 1381 1569 
Q 847 1681 609 1914 
Q 372 2147 372 2553 
Q 372 3047 722 3315 
Q 1072 3584 1716 3584 
Q 2034 3584 2315 3537 
Q 2597 3491 2834 3397 
z
" transform="scale(0.015625)"/>
      <path id="DejaVuSans-46" d="M 628 4666 
L 3309 4666 
L 3309 4134 
L 1259 4134 
L 1259 2759 
L 3109 2759 
L 3109 2228 
L 1259 2228 
L 1259 0 
L 628 0 
L 628 4666 
z
" transform="scale(0.015625)"/>
      <path id="DejaVuSans-63" d="M 3122 3366 
L 3122 2828 
Q 2878 2963 2633 3030 
Q 2388 3097 2138 3097 
Q 1578 3097 1268 2742 
Q 959 2388 959 1747 
Q 959 1106 1268 751 
Q 1578 397 2138 397 
Q 2388 397 2633 464 
Q 2878 531 3122 666 
L 3122 134 
Q 2881 22 2623 -34 
Q 2366 -91 2075 -91 
Q 1284 -91 818 406 
Q 353 903 353 1747 
Q 353 2603 823 3093 
Q 1294 3584 2113 3584 
Q 2378 3584 2631 3529 
Q 2884 3475 3122 3366 
z
" transform="scale(0.015625)"/>
      <path id="DejaVuSans-74" d="M 1172 4494 
L 1172 3500 
L 2356 3500 
L 2356 3053 
L 1172 3053 
L 1172 1153 
Q 1172 725 1289 603 
Q 1406 481 1766 481 
L 2356 481 
L 2356 0 
L 1766 0 
Q 1100 0 847 248 
Q 594 497 594 1153 
L 594 3053 
L 172 3053 
L 172 3500 
L 594 3500 
L 594 4494 
L 1172 4494 
z
" transform="scale(0.015625)"/>
      <path id="DejaVuSans-67" d="M 2906 1791 
Q 2906 2416 2648 2759 
Q 2391 3103 1925 3103 
Q 1463 3103 1205 2759 
Q 947 2416 947 1791 
Q 947 1169 1205 825 
Q 1463 481 1925 481 
Q 2391 481 2648 825 
Q 2906 1169 2906 1791 
z
M 3481 434 
Q 3481 -459 3084 -895 
Q 2688 -1331 1869 -1331 
Q 1566 -1331 1297 -1286 
Q 1028 -1241 775 -1147 
L 775 -588 
Q 1028 -725 1275 -790 
Q 1522 -856 1778 -856 
Q 2344 -856 2625 -561 
Q 2906 -266 2906 331 
L 2906 616 
Q 2728 306 2450 153 
Q 2172 0 1784 0 
Q 1141 0 747 490 
Q 353 981 353 1791 
Q 353 2603 747 3093 
Q 1141 3584 1784 3584 
Q 2172 3584 2450 3431 
Q 2728 3278 2906 2969 
L 2906 3500 
L 3481 3500 
L 3481 434 
z
" transform="scale(0.015625)"/>
      <path id="DejaVuSans-4e" d="M 628 4666 
L 1478 4666 
L 3547 763 
L 3547 4666 
L 4159 4666 
L 4159 0 
L 3309 0 
L 1241 3903 
L 1241 0 
L 628 0 
L 628 4666 
z
" transform="scale(0.015625)"/>
      <path id="DejaVuSans-70" d="M 1159 525 
L 1159 -1331 
L 581 -1331 
L 581 3500 
L 1159 3500 
L 1159 2969 
Q 1341 3281 1617 3432 
Q 1894 3584 2278 3584 
Q 2916 3584 3314 3078 
Q 3713 2572 3713 1747 
Q 3713 922 3314 415 
Q 2916 -91 2278 -91 
Q 1894 -91 1617 61 
Q 1341 213 1159 525 
z
M 3116 1747 
Q 3116 2381 2855 2742 
Q 2594 3103 2138 3103 
Q 1681 3103 1420 2742 
Q 1159 2381 1159 1747 
Q 1159 1113 1420 752 
Q 1681 391 2138 391 
Q 2594 391 2855 752 
Q 3116 1113 3116 1747 
z
" transform="scale(0.015625)"/>
     </defs>
     <use xlink:href="#DejaVuSans-44"/>
     <use xlink:href="#DejaVuSans-61" x="77.001953"/>
     <use xlink:href="#DejaVuSans-69" x="138.28125"/>
     <use xlink:href="#DejaVuSans-6c" x="166.064453"/>
     <use xlink:href="#DejaVuSans-79" x="193.847656"/>
     <use xlink:href="#DejaVuSans-20" x="253.027344"/>
     <use xlink:href="#DejaVuSans-43" x="284.814453"/>
     <use xlink:href="#DejaVuSans-6f" x="354.638672"/>
     <use xlink:href="#DejaVuSans-6e" x="415.820312"/>
     <use xlink:href="#DejaVuSans-66" x="479.199219"/>
     <use xlink:href="#DejaVuSans-69" x="514.404297"/>
     <use xlink:href="#DejaVuSans-72" x="542.1875"/>
     <use xlink:href="#DejaVuSans-6d" x="581.550781"/>
     <use xlink:href="#DejaVuSans-65" x="678.962891"/>
     <use xlink:href="#DejaVuSans-64" x="740.486328"/>
     <use xlink:href="#DejaVuSans-20" x="803.962891"/>
     <use xlink:href="#DejaVuSans-43" x="835.75"/>
     <use xlink:href="#DejaVuSans-61" x="905.574219"/>
     <use xlink:href="#DejaVuSans-73" x="966.853516"/>
     <use xlink:href="#DejaVuSans-65" x="1018.953125"/>
     <use xlink:href="#DejaVuSans-73" x="1080.476562"/>
     <use xlink:href="#DejaVuSans-20" x="1132.576172"/>
     <use xlink:href="#DejaVuSans-46" x="1164.363281"/>
     <use xlink:href="#DejaVuSans-6f" x="1218.257812"/>
     <use xlink:href="#DejaVuSans-72" x="1279.439453"/>
     <use xlink:href="#DejaVuSans-65" x="1318.302734"/>
     <use xlink:href="#DejaVuSans-63" x="1379.826172"/>
     <use xlink:href="#DejaVuSans-61" x="1434.806641"/>
     <use xlink:href="#DejaVuSans-73" x="1496.085938"/>
     <use xlink:href="#DejaVuSans-74" x="1548.185547"/>
     <use xlink:href="#DejaVuSans-69" x="1587.394531"/>
     <use xlink:href="#DejaVuSans-6e" x="1615.177734"/>
     <use xlink:href="#DejaVuSans-67" x="1678.556641"/>
     <use xlink:href="#DejaVuSans-20" x="1742.033203"/>
     <use xlink:href="#DejaVuSans-2d" x="1773.820312"/>
     <use xlink:href="#DejaVuSans-20" x="1809.904297"/>
     <use xlink:href="#DejaVuSans-4e" x="1841.691406"/>
     <use xlink:href="#DejaVuSans-65" x="1916.496094"/>
     <use xlink:href="#DejaVuSans-70" x="1978.019531"/>
     <use xlink:href="#DejaVuSans-61" x="2041.496094"/>
     <use xlink:href="#DejaVuSans-6c" x="2102.775391"/>
    </g>
    <!-- ARIMA (3, 1, 1)x(1, 0, 1, 7) (R2 = 0.907685) -->
    <g transform="translate(583.628438 29.7555)scale(0.12 -0.12)">
     <defs>
      <path id="DejaVuSans-41" d="M 2188 4044 
L 1331 1722 
L 3047 1722 
L 2188 4044 
z
M 1831 4666 
L 2547 4666 
L 4325 0 
L 3669 0 
L 3244 1197 
L 1141 1197 
L 716 0 
L 50 0 
L 1831 4666 
z
" transform="scale(0.015625)"/>
      <path id="DejaVuSans-52" d="M 2841 2188 
Q 3044 2119 3236 1894 
Q 3428 1669 3622 1275 
L 4263 0 
L 3584 0 
L 2988 1197 
Q 2756 1666 2539 1819 
Q 2322 1972 1947 1972 
L 1259 1972 
L 1259 0 
L 628 0 
L 628 4666 
L 2053 4666 
Q 2853 4666 3247 4331 
Q 3641 3997 3641 3322 
Q 3641 2881 3436 2590 
Q 3231 2300 2841 2188 
z
M 1259 4147 
L 1259 2491 
L 2053 2491 
Q 2509 2491 2742 2702 
Q 2975 2913 2975 3322 
Q 2975 3731 2742 3939 
Q 2509 4147 2053 4147 
L 1259 4147 
z
" transform="scale(0.015625)"/>
      <path id="DejaVuSans-49" d="M 628 4666 
L 1259 4666 
L 1259 0 
L 628 0 
L 628 4666 
z
" transform="scale(0.015625)"/>
      <path id="DejaVuSans-4d" d="M 628 4666 
L 1569 4666 
L 2759 1491 
L 3956 4666 
L 4897 4666 
L 4897 0 
L 4281 0 
L 4281 4097 
L 3078 897 
L 2444 897 
L 1241 4097 
L 1241 0 
L 628 0 
L 628 4666 
z
" transform="scale(0.015625)"/>
      <path id="DejaVuSans-28" d="M 1984 4856 
Q 1566 4138 1362 3434 
Q 1159 2731 1159 2009 
Q 1159 1288 1364 580 
Q 1569 -128 1984 -844 
L 1484 -844 
Q 1016 -109 783 600 
Q 550 1309 550 2009 
Q 550 2706 781 3412 
Q 1013 4119 1484 4856 
L 1984 4856 
z
" transform="scale(0.015625)"/>
      <path id="DejaVuSans-2c" d="M 750 794 
L 1409 794 
L 1409 256 
L 897 -744 
L 494 -744 
L 750 256 
L 750 794 
z
" transform="scale(0.015625)"/>
      <path id="DejaVuSans-29" d="M 513 4856 
L 1013 4856 
Q 1481 4119 1714 3412 
Q 1947 2706 1947 2009 
Q 1947 1309 1714 600 
Q 1481 -109 1013 -844 
L 513 -844 
Q 928 -128 1133 580 
Q 1338 1288 1338 2009 
Q 1338 2731 1133 3434 
Q 928 4138 513 4856 
z
" transform="scale(0.015625)"/>
      <path id="DejaVuSans-78" d="M 3513 3500 
L 2247 1797 
L 3578 0 
L 2900 0 
L 1881 1375 
L 863 0 
L 184 0 
L 1544 1831 
L 300 3500 
L 978 3500 
L 1906 2253 
L 2834 3500 
L 3513 3500 
z
" transform="scale(0.015625)"/>
      <path id="DejaVuSans-37" d="M 525 4666 
L 3525 4666 
L 3525 4397 
L 1831 0 
L 1172 0 
L 2766 4134 
L 525 4134 
L 525 4666 
z
" transform="scale(0.015625)"/>
      <path id="DejaVuSans-3d" d="M 678 2906 
L 4684 2906 
L 4684 2381 
L 678 2381 
L 678 2906 
z
M 678 1631 
L 4684 1631 
L 4684 1100 
L 678 1100 
L 678 1631 
z
" transform="scale(0.015625)"/>
      <path id="DejaVuSans-2e" d="M 684 794 
L 1344 794 
L 1344 0 
L 684 0 
L 684 794 
z
" transform="scale(0.015625)"/>
     </defs>
     <use xlink:href="#DejaVuSans-41"/>
     <use xlink:href="#DejaVuSans-52" x="68.408203"/>
     <use xlink:href="#DejaVuSans-49" x="137.890625"/>
     <use xlink:href="#DejaVuSans-4d" x="167.382812"/>
     <use xlink:href="#DejaVuSans-41" x="253.662109"/>
     <use xlink:href="#DejaVuSans-20" x="322.070312"/>
     <use xlink:href="#DejaVuSans-28" x="353.857422"/>
     <use xlink:href="#DejaVuSans-33" x="392.871094"/>
     <use xlink:href="#DejaVuSans-2c" x="456.494141"/>
     <use xlink:href="#DejaVuSans-20" x="488.28125"/>
     <use xlink:href="#DejaVuSans-31" x="520.068359"/>
     <use xlink:href="#DejaVuSans-2c" x="583.691406"/>
     <use xlink:href="#DejaVuSans-20" x="615.478516"/>
     <use xlink:href="#DejaVuSans-31" x="647.265625"/>
     <use xlink:href="#DejaVuSans-29" x="710.888672"/>
     <use xlink:href="#DejaVuSans-78" x="749.902344"/>
     <use xlink:href="#DejaVuSans-28" x="809.082031"/>
     <use xlink:href="#DejaVuSans-31" x="848.095703"/>
     <use xlink:href="#DejaVuSans-2c" x="911.71875"/>
     <use xlink:href="#DejaVuSans-20" x="943.505859"/>
     <use xlink:href="#DejaVuSans-30" x="975.292969"/>
     <use xlink:href="#DejaVuSans-2c" x="1038.916016"/>
     <use xlink:href="#DejaVuSans-20" x="1070.703125"/>
     <use xlink:href="#DejaVuSans-31" x="1102.490234"/>
     <use xlink:href="#DejaVuSans-2c" x="1166.113281"/>
     <use xlink:href="#DejaVuSans-20" x="1197.900391"/>
     <use xlink:href="#DejaVuSans-37" x="1229.6875"/>
     <use xlink:href="#DejaVuSans-29" x="1293.310547"/>
     <use xlink:href="#DejaVuSans-20" x="1332.324219"/>
     <use xlink:href="#DejaVuSans-28" x="1364.111328"/>
     <use xlink:href="#DejaVuSans-52" x="1403.125"/>
     <use xlink:href="#DejaVuSans-32" x="1472.607422"/>
     <use xlink:href="#DejaVuSans-20" x="1536.230469"/>
     <use xlink:href="#DejaVuSans-3d" x="1568.017578"/>
     <use xlink:href="#DejaVuSans-20" x="1651.806641"/>
     <use xlink:href="#DejaVuSans-30" x="1683.59375"/>
     <use xlink:href="#DejaVuSans-2e" x="1747.216797"/>
     <use xlink:href="#DejaVuSans-39" x="1779.003906"/>
     <use xlink:href="#DejaVuSans-30" x="1842.626953"/>
     <use xlink:href="#DejaVuSans-37" x="1906.25"/>
     <use xlink:href="#DejaVuSans-36" x="1969.873047"/>
     <use xlink:href="#DejaVuSans-38" x="2033.496094"/>
     <use xlink:href="#DejaVuSans-35" x="2097.119141"/>
     <use xlink:href="#DejaVuSans-29" x="2160.742188"/>
    </g>
   </g>
   <g id="legend_1">
    <g id="patch_7">
     <path d="M 1281.132812 87.789875 
L 1378.2125 87.789875 
Q 1380.2125 87.789875 1380.2125 85.789875 
L 1380.2125 42.7555 
Q 1380.2125 40.7555 1378.2125 40.7555 
L 1281.132812 40.7555 
Q 1279.132812 40.7555 1279.132812 42.7555 
L 1279.132812 85.789875 
Q 1279.132812 87.789875 1281.132812 87.789875 
z
" style="fill: #ffffff; opacity: 0.8; stroke: #cccccc; stroke-linejoin: miter"/>
    </g>
    <g id="line2d_21">
     <path d="M 1283.132812 48.853937 
L 1293.132812 48.853937 
L 1303.132812 48.853937 
" style="fill: none; stroke: #0000ff; stroke-width: 1.5; stroke-linecap: square"/>
    </g>
    <g id="text_19">
     <!-- Actual Value -->
     <g transform="translate(1311.132812 52.353937)scale(0.1 -0.1)">
      <defs>
       <path id="DejaVuSans-75" d="M 544 1381 
L 544 3500 
L 1119 3500 
L 1119 1403 
Q 1119 906 1312 657 
Q 1506 409 1894 409 
Q 2359 409 2629 706 
Q 2900 1003 2900 1516 
L 2900 3500 
L 3475 3500 
L 3475 0 
L 2900 0 
L 2900 538 
Q 2691 219 2414 64 
Q 2138 -91 1772 -91 
Q 1169 -91 856 284 
Q 544 659 544 1381 
z
M 1991 3584 
L 1991 3584 
z
" transform="scale(0.015625)"/>
       <path id="DejaVuSans-56" d="M 1831 0 
L 50 4666 
L 709 4666 
L 2188 738 
L 3669 4666 
L 4325 4666 
L 2547 0 
L 1831 0 
z
" transform="scale(0.015625)"/>
      </defs>
      <use xlink:href="#DejaVuSans-41"/>
      <use xlink:href="#DejaVuSans-63" x="66.658203"/>
      <use xlink:href="#DejaVuSans-74" x="121.638672"/>
      <use xlink:href="#DejaVuSans-75" x="160.847656"/>
      <use xlink:href="#DejaVuSans-61" x="224.226562"/>
      <use xlink:href="#DejaVuSans-6c" x="285.505859"/>
      <use xlink:href="#DejaVuSans-20" x="313.289062"/>
      <use xlink:href="#DejaVuSans-56" x="345.076172"/>
      <use xlink:href="#DejaVuSans-61" x="405.734375"/>
      <use xlink:href="#DejaVuSans-6c" x="467.013672"/>
      <use xlink:href="#DejaVuSans-75" x="494.796875"/>
      <use xlink:href="#DejaVuSans-65" x="558.175781"/>
     </g>
    </g>
    <g id="line2d_22">
     <path d="M 1283.132812 63.532062 
L 1293.132812 63.532062 
L 1303.132812 63.532062 
" style="fill: none; stroke: #ffa500; stroke-width: 1.5; stroke-linecap: square"/>
    </g>
    <g id="text_20">
     <!-- Check Value -->
     <g transform="translate(1311.132812 67.032062)scale(0.1 -0.1)">
      <defs>
       <path id="DejaVuSans-68" d="M 3513 2113 
L 3513 0 
L 2938 0 
L 2938 2094 
Q 2938 2591 2744 2837 
Q 2550 3084 2163 3084 
Q 1697 3084 1428 2787 
Q 1159 2491 1159 1978 
L 1159 0 
L 581 0 
L 581 4863 
L 1159 4863 
L 1159 2956 
Q 1366 3272 1645 3428 
Q 1925 3584 2291 3584 
Q 2894 3584 3203 3211 
Q 3513 2838 3513 2113 
z
" transform="scale(0.015625)"/>
       <path id="DejaVuSans-6b" d="M 581 4863 
L 1159 4863 
L 1159 1991 
L 2875 3500 
L 3609 3500 
L 1753 1863 
L 3688 0 
L 2938 0 
L 1159 1709 
L 1159 0 
L 581 0 
L 581 4863 
z
" transform="scale(0.015625)"/>
      </defs>
      <use xlink:href="#DejaVuSans-43"/>
      <use xlink:href="#DejaVuSans-68" x="69.824219"/>
      <use xlink:href="#DejaVuSans-65" x="133.203125"/>
      <use xlink:href="#DejaVuSans-63" x="194.726562"/>
      <use xlink:href="#DejaVuSans-6b" x="249.707031"/>
      <use xlink:href="#DejaVuSans-20" x="307.617188"/>
      <use xlink:href="#DejaVuSans-56" x="339.404297"/>
      <use xlink:href="#DejaVuSans-61" x="400.0625"/>
      <use xlink:href="#DejaVuSans-6c" x="461.341797"/>
      <use xlink:href="#DejaVuSans-75" x="489.125"/>
      <use xlink:href="#DejaVuSans-65" x="552.503906"/>
     </g>
    </g>
    <g id="line2d_23">
     <path d="M 1283.132812 78.210187 
L 1293.132812 78.210187 
L 1303.132812 78.210187 
" style="fill: none; stroke: #ff0000; stroke-width: 1.5; stroke-linecap: square"/>
    </g>
    <g id="text_21">
     <!-- Predict Value -->
     <g transform="translate(1311.132812 81.710187)scale(0.1 -0.1)">
      <defs>
       <path id="DejaVuSans-50" d="M 1259 4147 
L 1259 2394 
L 2053 2394 
Q 2494 2394 2734 2622 
Q 2975 2850 2975 3272 
Q 2975 3691 2734 3919 
Q 2494 4147 2053 4147 
L 1259 4147 
z
M 628 4666 
L 2053 4666 
Q 2838 4666 3239 4311 
Q 3641 3956 3641 3272 
Q 3641 2581 3239 2228 
Q 2838 1875 2053 1875 
L 1259 1875 
L 1259 0 
L 628 0 
L 628 4666 
z
" transform="scale(0.015625)"/>
      </defs>
      <use xlink:href="#DejaVuSans-50"/>
      <use xlink:href="#DejaVuSans-72" x="58.552734"/>
      <use xlink:href="#DejaVuSans-65" x="97.416016"/>
      <use xlink:href="#DejaVuSans-64" x="158.939453"/>
      <use xlink:href="#DejaVuSans-69" x="222.416016"/>
      <use xlink:href="#DejaVuSans-63" x="250.199219"/>
      <use xlink:href="#DejaVuSans-74" x="305.179688"/>
      <use xlink:href="#DejaVuSans-20" x="344.388672"/>
      <use xlink:href="#DejaVuSans-56" x="376.175781"/>
      <use xlink:href="#DejaVuSans-61" x="436.833984"/>
      <use xlink:href="#DejaVuSans-6c" x="498.113281"/>
      <use xlink:href="#DejaVuSans-75" x="525.896484"/>
      <use xlink:href="#DejaVuSans-65" x="589.275391"/>
     </g>
    </g>
   </g>
  </g>
 </g>
 <defs>
  <clipPath id="p39ae96ab91">
   <rect x="46.0125" y="35.7555" width="1339.2" height="332.64"/>
  </clipPath>
 </defs>
</svg>
