<?xml version="1.0" encoding="utf-8" standalone="no"?>
<!DOCTYPE svg PUBLIC "-//W3C//DTD SVG 1.1//EN"
  "http://www.w3.org/Graphics/SVG/1.1/DTD/svg11.dtd">
<svg xmlns:xlink="http://www.w3.org/1999/xlink" width="1386.05pt" height="392.273625pt" viewBox="0 0 1386.05 392.273625" xmlns="http://www.w3.org/2000/svg" version="1.1">
 <metadata>
  <rdf:RDF xmlns:dc="http://purl.org/dc/elements/1.1/" xmlns:cc="http://creativecommons.org/ns#" xmlns:rdf="http://www.w3.org/1999/02/22-rdf-syntax-ns#">
   <cc:Work>
    <dc:type rdf:resource="http://purl.org/dc/dcmitype/StillImage"/>
    <dc:date>2022-05-28T18:54:25.865258</dc:date>
    <dc:format>image/svg+xml</dc:format>
    <dc:creator>
     <cc:Agent>
      <dc:title>Matplotlib v3.5.1, https://matplotlib.org/</dc:title>
     </cc:Agent>
    </dc:creator>
   </cc:Work>
  </rdf:RDF>
 </metadata>
 <defs>
  <style type="text/css">*{stroke-linejoin: round; stroke-linecap: butt}</style>
 </defs>
 <g id="figure_1">
  <g id="patch_1">
   <path d="M 0 392.273625 
L 1386.05 392.273625 
L 1386.05 0 
L 0 0 
z
" style="fill: #ffffff"/>
  </g>
  <g id="axes_1">
   <g id="patch_2">
    <path d="M 39.65 368.3955 
L 1378.85 368.3955 
L 1378.85 35.7555 
L 39.65 35.7555 
z
" style="fill: #ffffff"/>
   </g>
   <g id="matplotlib.axis_1">
    <g id="xtick_1">
     <g id="line2d_1">
      <defs>
       <path id="md1705cecda" d="M 0 0 
L 0 3.5 
" style="stroke: #000000; stroke-width: 0.8"/>
      </defs>
      <g>
       <use xlink:href="#md1705cecda" x="69.701093" y="368.3955" style="stroke: #000000; stroke-width: 0.8"/>
      </g>
     </g>
     <g id="text_1">
      <!-- 2020-01 -->
      <g transform="translate(48.809687 382.993937)scale(0.1 -0.1)">
       <defs>
        <path id="DejaVuSans-32" d="M 1228 531 
L 3431 531 
L 3431 0 
L 469 0 
L 469 531 
Q 828 903 1448 1529 
Q 2069 2156 2228 2338 
Q 2531 2678 2651 2914 
Q 2772 3150 2772 3378 
Q 2772 3750 2511 3984 
Q 2250 4219 1831 4219 
Q 1534 4219 1204 4116 
Q 875 4013 500 3803 
L 500 4441 
Q 881 4594 1212 4672 
Q 1544 4750 1819 4750 
Q 2544 4750 2975 4387 
Q 3406 4025 3406 3419 
Q 3406 3131 3298 2873 
Q 3191 2616 2906 2266 
Q 2828 2175 2409 1742 
Q 1991 1309 1228 531 
z
" transform="scale(0.015625)"/>
        <path id="DejaVuSans-30" d="M 2034 4250 
Q 1547 4250 1301 3770 
Q 1056 3291 1056 2328 
Q 1056 1369 1301 889 
Q 1547 409 2034 409 
Q 2525 409 2770 889 
Q 3016 1369 3016 2328 
Q 3016 3291 2770 3770 
Q 2525 4250 2034 4250 
z
M 2034 4750 
Q 2819 4750 3233 4129 
Q 3647 3509 3647 2328 
Q 3647 1150 3233 529 
Q 2819 -91 2034 -91 
Q 1250 -91 836 529 
Q 422 1150 422 2328 
Q 422 3509 836 4129 
Q 1250 4750 2034 4750 
z
" transform="scale(0.015625)"/>
        <path id="DejaVuSans-2d" d="M 313 2009 
L 1997 2009 
L 1997 1497 
L 313 1497 
L 313 2009 
z
" transform="scale(0.015625)"/>
        <path id="DejaVuSans-31" d="M 794 531 
L 1825 531 
L 1825 4091 
L 703 3866 
L 703 4441 
L 1819 4666 
L 2450 4666 
L 2450 531 
L 3481 531 
L 3481 0 
L 794 0 
L 794 531 
z
" transform="scale(0.015625)"/>
       </defs>
       <use xlink:href="#DejaVuSans-32"/>
       <use xlink:href="#DejaVuSans-30" x="63.623047"/>
       <use xlink:href="#DejaVuSans-32" x="127.246094"/>
       <use xlink:href="#DejaVuSans-30" x="190.869141"/>
       <use xlink:href="#DejaVuSans-2d" x="254.492188"/>
       <use xlink:href="#DejaVuSans-30" x="290.576172"/>
       <use xlink:href="#DejaVuSans-31" x="354.199219"/>
      </g>
     </g>
    </g>
    <g id="xtick_2">
     <g id="line2d_2">
      <g>
       <use xlink:href="#md1705cecda" x="197.19058" y="368.3955" style="stroke: #000000; stroke-width: 0.8"/>
      </g>
     </g>
     <g id="text_2">
      <!-- 2020-04 -->
      <g transform="translate(176.299173 382.993937)scale(0.1 -0.1)">
       <defs>
        <path id="DejaVuSans-34" d="M 2419 4116 
L 825 1625 
L 2419 1625 
L 2419 4116 
z
M 2253 4666 
L 3047 4666 
L 3047 1625 
L 3713 1625 
L 3713 1100 
L 3047 1100 
L 3047 0 
L 2419 0 
L 2419 1100 
L 313 1100 
L 313 1709 
L 2253 4666 
z
" transform="scale(0.015625)"/>
       </defs>
       <use xlink:href="#DejaVuSans-32"/>
       <use xlink:href="#DejaVuSans-30" x="63.623047"/>
       <use xlink:href="#DejaVuSans-32" x="127.246094"/>
       <use xlink:href="#DejaVuSans-30" x="190.869141"/>
       <use xlink:href="#DejaVuSans-2d" x="254.492188"/>
       <use xlink:href="#DejaVuSans-30" x="290.576172"/>
       <use xlink:href="#DejaVuSans-34" x="354.199219"/>
      </g>
     </g>
    </g>
    <g id="xtick_3">
     <g id="line2d_3">
      <g>
       <use xlink:href="#md1705cecda" x="324.680066" y="368.3955" style="stroke: #000000; stroke-width: 0.8"/>
      </g>
     </g>
     <g id="text_3">
      <!-- 2020-07 -->
      <g transform="translate(303.78866 382.993937)scale(0.1 -0.1)">
       <defs>
        <path id="DejaVuSans-37" d="M 525 4666 
L 3525 4666 
L 3525 4397 
L 1831 0 
L 1172 0 
L 2766 4134 
L 525 4134 
L 525 4666 
z
" transform="scale(0.015625)"/>
       </defs>
       <use xlink:href="#DejaVuSans-32"/>
       <use xlink:href="#DejaVuSans-30" x="63.623047"/>
       <use xlink:href="#DejaVuSans-32" x="127.246094"/>
       <use xlink:href="#DejaVuSans-30" x="190.869141"/>
       <use xlink:href="#DejaVuSans-2d" x="254.492188"/>
       <use xlink:href="#DejaVuSans-30" x="290.576172"/>
       <use xlink:href="#DejaVuSans-37" x="354.199219"/>
      </g>
     </g>
    </g>
    <g id="xtick_4">
     <g id="line2d_4">
      <g>
       <use xlink:href="#md1705cecda" x="453.570536" y="368.3955" style="stroke: #000000; stroke-width: 0.8"/>
      </g>
     </g>
     <g id="text_4">
      <!-- 2020-10 -->
      <g transform="translate(432.679129 382.993937)scale(0.1 -0.1)">
       <use xlink:href="#DejaVuSans-32"/>
       <use xlink:href="#DejaVuSans-30" x="63.623047"/>
       <use xlink:href="#DejaVuSans-32" x="127.246094"/>
       <use xlink:href="#DejaVuSans-30" x="190.869141"/>
       <use xlink:href="#DejaVuSans-2d" x="254.492188"/>
       <use xlink:href="#DejaVuSans-31" x="290.576172"/>
       <use xlink:href="#DejaVuSans-30" x="354.199219"/>
      </g>
     </g>
    </g>
    <g id="xtick_5">
     <g id="line2d_5">
      <g>
       <use xlink:href="#md1705cecda" x="582.461005" y="368.3955" style="stroke: #000000; stroke-width: 0.8"/>
      </g>
     </g>
     <g id="text_5">
      <!-- 2021-01 -->
      <g transform="translate(561.569599 382.993937)scale(0.1 -0.1)">
       <use xlink:href="#DejaVuSans-32"/>
       <use xlink:href="#DejaVuSans-30" x="63.623047"/>
       <use xlink:href="#DejaVuSans-32" x="127.246094"/>
       <use xlink:href="#DejaVuSans-31" x="190.869141"/>
       <use xlink:href="#DejaVuSans-2d" x="254.492188"/>
       <use xlink:href="#DejaVuSans-30" x="290.576172"/>
       <use xlink:href="#DejaVuSans-31" x="354.199219"/>
      </g>
     </g>
    </g>
    <g id="xtick_6">
     <g id="line2d_6">
      <g>
       <use xlink:href="#md1705cecda" x="708.549508" y="368.3955" style="stroke: #000000; stroke-width: 0.8"/>
      </g>
     </g>
     <g id="text_6">
      <!-- 2021-04 -->
      <g transform="translate(687.658102 382.993937)scale(0.1 -0.1)">
       <use xlink:href="#DejaVuSans-32"/>
       <use xlink:href="#DejaVuSans-30" x="63.623047"/>
       <use xlink:href="#DejaVuSans-32" x="127.246094"/>
       <use xlink:href="#DejaVuSans-31" x="190.869141"/>
       <use xlink:href="#DejaVuSans-2d" x="254.492188"/>
       <use xlink:href="#DejaVuSans-30" x="290.576172"/>
       <use xlink:href="#DejaVuSans-34" x="354.199219"/>
      </g>
     </g>
    </g>
    <g id="xtick_7">
     <g id="line2d_7">
      <g>
       <use xlink:href="#md1705cecda" x="836.038995" y="368.3955" style="stroke: #000000; stroke-width: 0.8"/>
      </g>
     </g>
     <g id="text_7">
      <!-- 2021-07 -->
      <g transform="translate(815.147588 382.993937)scale(0.1 -0.1)">
       <use xlink:href="#DejaVuSans-32"/>
       <use xlink:href="#DejaVuSans-30" x="63.623047"/>
       <use xlink:href="#DejaVuSans-32" x="127.246094"/>
       <use xlink:href="#DejaVuSans-31" x="190.869141"/>
       <use xlink:href="#DejaVuSans-2d" x="254.492188"/>
       <use xlink:href="#DejaVuSans-30" x="290.576172"/>
       <use xlink:href="#DejaVuSans-37" x="354.199219"/>
      </g>
     </g>
    </g>
    <g id="xtick_8">
     <g id="line2d_8">
      <g>
       <use xlink:href="#md1705cecda" x="964.929464" y="368.3955" style="stroke: #000000; stroke-width: 0.8"/>
      </g>
     </g>
     <g id="text_8">
      <!-- 2021-10 -->
      <g transform="translate(944.038058 382.993937)scale(0.1 -0.1)">
       <use xlink:href="#DejaVuSans-32"/>
       <use xlink:href="#DejaVuSans-30" x="63.623047"/>
       <use xlink:href="#DejaVuSans-32" x="127.246094"/>
       <use xlink:href="#DejaVuSans-31" x="190.869141"/>
       <use xlink:href="#DejaVuSans-2d" x="254.492188"/>
       <use xlink:href="#DejaVuSans-31" x="290.576172"/>
       <use xlink:href="#DejaVuSans-30" x="354.199219"/>
      </g>
     </g>
    </g>
    <g id="xtick_9">
     <g id="line2d_9">
      <g>
       <use xlink:href="#md1705cecda" x="1093.819934" y="368.3955" style="stroke: #000000; stroke-width: 0.8"/>
      </g>
     </g>
     <g id="text_9">
      <!-- 2022-01 -->
      <g transform="translate(1072.928528 382.993937)scale(0.1 -0.1)">
       <use xlink:href="#DejaVuSans-32"/>
       <use xlink:href="#DejaVuSans-30" x="63.623047"/>
       <use xlink:href="#DejaVuSans-32" x="127.246094"/>
       <use xlink:href="#DejaVuSans-32" x="190.869141"/>
       <use xlink:href="#DejaVuSans-2d" x="254.492188"/>
       <use xlink:href="#DejaVuSans-30" x="290.576172"/>
       <use xlink:href="#DejaVuSans-31" x="354.199219"/>
      </g>
     </g>
    </g>
    <g id="xtick_10">
     <g id="line2d_10">
      <g>
       <use xlink:href="#md1705cecda" x="1219.908437" y="368.3955" style="stroke: #000000; stroke-width: 0.8"/>
      </g>
     </g>
     <g id="text_10">
      <!-- 2022-04 -->
      <g transform="translate(1199.017031 382.993937)scale(0.1 -0.1)">
       <use xlink:href="#DejaVuSans-32"/>
       <use xlink:href="#DejaVuSans-30" x="63.623047"/>
       <use xlink:href="#DejaVuSans-32" x="127.246094"/>
       <use xlink:href="#DejaVuSans-32" x="190.869141"/>
       <use xlink:href="#DejaVuSans-2d" x="254.492188"/>
       <use xlink:href="#DejaVuSans-30" x="290.576172"/>
       <use xlink:href="#DejaVuSans-34" x="354.199219"/>
      </g>
     </g>
    </g>
    <g id="xtick_11">
     <g id="line2d_11">
      <g>
       <use xlink:href="#md1705cecda" x="1347.397923" y="368.3955" style="stroke: #000000; stroke-width: 0.8"/>
      </g>
     </g>
     <g id="text_11">
      <!-- 2022-07 -->
      <g transform="translate(1326.506517 382.993937)scale(0.1 -0.1)">
       <use xlink:href="#DejaVuSans-32"/>
       <use xlink:href="#DejaVuSans-30" x="63.623047"/>
       <use xlink:href="#DejaVuSans-32" x="127.246094"/>
       <use xlink:href="#DejaVuSans-32" x="190.869141"/>
       <use xlink:href="#DejaVuSans-2d" x="254.492188"/>
       <use xlink:href="#DejaVuSans-30" x="290.576172"/>
       <use xlink:href="#DejaVuSans-37" x="354.199219"/>
      </g>
     </g>
    </g>
   </g>
   <g id="matplotlib.axis_2">
    <g id="ytick_1">
     <g id="line2d_12">
      <defs>
       <path id="mf4453d63fe" d="M 0 0 
L -3.5 0 
" style="stroke: #000000; stroke-width: 0.8"/>
      </defs>
      <g>
       <use xlink:href="#mf4453d63fe" x="39.65" y="353.2755" style="stroke: #000000; stroke-width: 0.8"/>
      </g>
     </g>
     <g id="text_12">
      <!-- 0 -->
      <g transform="translate(26.2875 357.074719)scale(0.1 -0.1)">
       <use xlink:href="#DejaVuSans-30"/>
      </g>
     </g>
    </g>
    <g id="ytick_2">
     <g id="line2d_13">
      <g>
       <use xlink:href="#mf4453d63fe" x="39.65" y="281.446521" style="stroke: #000000; stroke-width: 0.8"/>
      </g>
     </g>
     <g id="text_13">
      <!-- 1000 -->
      <g transform="translate(7.2 285.24574)scale(0.1 -0.1)">
       <use xlink:href="#DejaVuSans-31"/>
       <use xlink:href="#DejaVuSans-30" x="63.623047"/>
       <use xlink:href="#DejaVuSans-30" x="127.246094"/>
       <use xlink:href="#DejaVuSans-30" x="190.869141"/>
      </g>
     </g>
    </g>
    <g id="ytick_3">
     <g id="line2d_14">
      <g>
       <use xlink:href="#mf4453d63fe" x="39.65" y="209.617543" style="stroke: #000000; stroke-width: 0.8"/>
      </g>
     </g>
     <g id="text_14">
      <!-- 2000 -->
      <g transform="translate(7.2 213.416762)scale(0.1 -0.1)">
       <use xlink:href="#DejaVuSans-32"/>
       <use xlink:href="#DejaVuSans-30" x="63.623047"/>
       <use xlink:href="#DejaVuSans-30" x="127.246094"/>
       <use xlink:href="#DejaVuSans-30" x="190.869141"/>
      </g>
     </g>
    </g>
    <g id="ytick_4">
     <g id="line2d_15">
      <g>
       <use xlink:href="#mf4453d63fe" x="39.65" y="137.788564" style="stroke: #000000; stroke-width: 0.8"/>
      </g>
     </g>
     <g id="text_15">
      <!-- 3000 -->
      <g transform="translate(7.2 141.587783)scale(0.1 -0.1)">
       <defs>
        <path id="DejaVuSans-33" d="M 2597 2516 
Q 3050 2419 3304 2112 
Q 3559 1806 3559 1356 
Q 3559 666 3084 287 
Q 2609 -91 1734 -91 
Q 1441 -91 1130 -33 
Q 819 25 488 141 
L 488 750 
Q 750 597 1062 519 
Q 1375 441 1716 441 
Q 2309 441 2620 675 
Q 2931 909 2931 1356 
Q 2931 1769 2642 2001 
Q 2353 2234 1838 2234 
L 1294 2234 
L 1294 2753 
L 1863 2753 
Q 2328 2753 2575 2939 
Q 2822 3125 2822 3475 
Q 2822 3834 2567 4026 
Q 2313 4219 1838 4219 
Q 1578 4219 1281 4162 
Q 984 4106 628 3988 
L 628 4550 
Q 988 4650 1302 4700 
Q 1616 4750 1894 4750 
Q 2613 4750 3031 4423 
Q 3450 4097 3450 3541 
Q 3450 3153 3228 2886 
Q 3006 2619 2597 2516 
z
" transform="scale(0.015625)"/>
       </defs>
       <use xlink:href="#DejaVuSans-33"/>
       <use xlink:href="#DejaVuSans-30" x="63.623047"/>
       <use xlink:href="#DejaVuSans-30" x="127.246094"/>
       <use xlink:href="#DejaVuSans-30" x="190.869141"/>
      </g>
     </g>
    </g>
    <g id="ytick_5">
     <g id="line2d_16">
      <g>
       <use xlink:href="#mf4453d63fe" x="39.65" y="65.959586" style="stroke: #000000; stroke-width: 0.8"/>
      </g>
     </g>
     <g id="text_16">
      <!-- 4000 -->
      <g transform="translate(7.2 69.758804)scale(0.1 -0.1)">
       <use xlink:href="#DejaVuSans-34"/>
       <use xlink:href="#DejaVuSans-30" x="63.623047"/>
       <use xlink:href="#DejaVuSans-30" x="127.246094"/>
       <use xlink:href="#DejaVuSans-30" x="190.869141"/>
      </g>
     </g>
    </g>
   </g>
   <g id="line2d_17">
    <path d="M 100.522727 353.2755 
L 170.571896 353.2755 
L 171.972879 353.131842 
L 173.373862 353.2755 
L 184.581729 353.203671 
L 185.982713 353.060013 
L 187.383696 353.2755 
L 188.784679 353.203671 
L 191.586646 353.2755 
L 192.987629 353.060013 
L 194.388613 353.2755 
L 195.789596 353.2755 
L 197.19058 353.060013 
L 198.591563 353.2755 
L 201.39353 353.2755 
L 202.794513 353.131842 
L 204.195496 353.2755 
L 265.838765 353.2755 
L 267.239748 353.131842 
L 270.041715 353.203671 
L 288.254498 353.2755 
L 289.655482 352.988184 
L 291.056465 353.2755 
L 292.457448 353.131842 
L 293.858432 353.2755 
L 302.264332 353.2755 
L 303.665315 353.131842 
L 306.467282 353.060013 
L 307.868266 352.844526 
L 309.269249 353.203671 
L 310.670232 352.629039 
L 312.071216 352.700868 
L 313.472199 352.629039 
L 314.873182 352.988184 
L 316.274166 351.407947 
L 317.675149 351.910749 
L 319.076132 352.198065 
L 320.477116 349.899538 
L 321.878099 352.341723 
L 323.279083 352.629039 
L 324.680066 347.529182 
L 326.081049 352.700868 
L 327.482033 349.181248 
L 328.883016 351.479776 
L 330.283999 350.617828 
L 331.684983 348.031985 
L 333.085966 349.396735 
L 334.486949 349.396735 
L 335.887933 351.695262 
L 337.288916 349.468564 
L 338.6899 353.2755 
L 340.090883 344.87151 
L 341.491866 347.816498 
L 342.89285 353.060013 
L 344.293833 346.379918 
L 347.0958 349.971367 
L 348.496783 344.296878 
L 349.897767 350.115025 
L 351.29875 346.308089 
L 352.699733 351.695262 
L 354.100717 350.689657 
L 355.5017 344.656023 
L 356.902683 346.379918 
L 358.303667 348.3193 
L 359.70465 346.95455 
L 361.105633 348.391129 
L 362.506617 347.960156 
L 363.9076 348.3193 
L 365.308584 348.534787 
L 366.709567 347.744669 
L 368.11055 346.451747 
L 369.511534 348.247471 
L 370.912517 345.230654 
L 372.3135 348.678445 
L 373.714484 348.247471 
L 375.115467 345.230654 
L 376.51645 342.501153 
L 377.917434 353.2755 
L 379.318417 342.71664 
L 380.719401 342.357495 
L 382.120384 344.081391 
L 383.521367 340.561771 
L 384.922351 343.363101 
L 386.323334 340.202626 
L 387.724317 340.274455 
L 389.125301 335.533742 
L 390.526284 339.627994 
L 391.927267 344.656023 
L 393.328251 338.837875 
L 394.729234 335.533742 
L 396.130218 330.649372 
L 397.531201 330.936688 
L 398.932184 330.577543 
L 400.333168 340.6336 
L 401.734151 343.937733 
L 403.135134 333.809847 
L 404.536118 333.091557 
L 405.937101 339.340678 
L 407.338085 338.191414 
L 408.739068 335.390084 
L 410.140051 339.987139 
L 411.541035 343.075785 
L 412.942018 342.357495 
L 414.343001 336.180203 
L 415.743985 335.964716 
L 417.144968 339.556165 
L 418.545951 340.992745 
L 419.946935 344.296878 
L 421.347918 344.799681 
L 422.748902 340.346284 
L 424.149885 342.644811 
L 425.550868 340.274455 
L 426.951852 341.280061 
L 428.352835 345.015167 
L 431.154802 347.313695 
L 432.555785 348.750274 
L 433.956768 345.086996 
L 435.357752 344.009562 
L 436.758735 347.170037 
L 438.159719 347.170037 
L 439.560702 342.572982 
L 440.961685 347.457353 
L 442.362669 349.253077 
L 443.763652 347.744669 
L 445.164635 346.451747 
L 446.565619 347.313695 
L 447.966602 345.015167 
L 449.367586 346.95455 
L 450.768569 351.910749 
L 452.169552 344.296878 
L 453.570536 345.51797 
L 454.971519 345.589799 
L 456.372502 346.667234 
L 457.773486 349.396735 
L 459.174469 351.264289 
L 460.575452 351.910749 
L 461.976436 350.330512 
L 463.377419 348.462958 
L 464.778403 349.827709 
L 466.179386 348.822103 
L 467.580369 350.043196 
L 468.981353 349.468564 
L 470.382336 352.485381 
L 471.783319 348.3193 
L 473.184303 350.833315 
L 474.585286 345.230654 
L 475.986269 349.827709 
L 477.387253 351.120631 
L 478.788236 350.905144 
L 480.18922 350.330512 
L 481.590203 350.47417 
L 482.991186 349.396735 
L 484.39217 350.330512 
L 485.793153 347.67284 
L 487.194136 347.457353 
L 488.59512 352.198065 
L 489.996103 349.396735 
L 491.397087 347.744669 
L 492.79807 349.540393 
L 494.199053 349.75588 
L 495.600037 351.264289 
L 497.00102 349.468564 
L 498.402003 351.551605 
L 499.802987 351.982578 
L 501.20397 352.126236 
L 502.604953 350.115025 
L 504.005937 349.468564 
L 505.40692 351.336118 
L 506.807904 350.330512 
L 508.208887 351.19246 
L 509.60987 352.341723 
L 511.010854 350.47417 
L 512.411837 349.468564 
L 513.81282 351.336118 
L 515.213804 347.744669 
L 516.614787 349.03759 
L 518.01577 349.899538 
L 519.416754 352.485381 
L 520.817737 350.115025 
L 522.218721 349.540393 
L 523.619704 349.684051 
L 525.020687 346.164431 
L 526.421671 349.396735 
L 527.822654 350.976973 
L 529.223637 350.330512 
L 530.624621 348.391129 
L 532.025604 342.572982 
L 533.426588 349.540393 
L 534.827571 347.67284 
L 536.228554 348.965761 
L 537.629538 350.761486 
L 539.030521 350.689657 
L 540.431504 348.893932 
L 541.832488 344.512365 
L 543.233471 338.550559 
L 544.634454 342.788469 
L 546.035438 344.081391 
L 547.436421 343.147614 
L 548.837405 347.601011 
L 550.238388 340.777258 
L 551.639371 331.654977 
L 553.040355 330.002911 
L 554.441338 340.920916 
L 555.842321 334.097163 
L 557.243305 339.627994 
L 558.644288 339.843481 
L 560.045271 327.201581 
L 561.446255 329.500108 
L 562.847238 322.101723 
L 564.248222 324.831224 
L 565.649205 333.378873 
L 567.050188 311.255548 
L 568.451172 329.571937 
L 569.852155 327.776213 
L 571.253138 310.537258 
L 572.654122 304.216308 
L 574.055105 343.506759 
L 575.456089 315.565286 
L 576.857072 327.129752 
L 578.258055 312.763956 
L 579.659039 318.653932 
L 581.060022 309.603481 
L 582.461005 309.890797 
L 583.861989 345.446141 
L 585.262972 320.090512 
L 586.663955 333.881676 
L 588.064939 317.289182 
L 590.866906 327.201581 
L 592.267889 312.117495 
L 593.668872 319.659538 
L 595.069856 314.775167 
L 596.470839 328.63816 
L 597.871822 333.953505 
L 599.272806 330.864859 
L 600.673789 325.477685 
L 602.074772 330.362056 
L 603.475756 331.080346 
L 604.876739 341.423719 
L 606.277723 325.262198 
L 607.678706 335.892887 
L 609.079689 334.743624 
L 610.480673 334.456308 
L 611.881656 329.35645 
L 613.282639 327.057923 
L 614.683623 338.047757 
L 616.084606 337.11398 
L 617.485589 331.224004 
L 618.886573 331.152175 
L 620.287556 339.340678 
L 621.68854 336.252032 
L 623.089523 343.506759 
L 624.490506 345.230654 
L 625.89149 337.185809 
L 627.292473 345.948944 
L 628.693456 345.948944 
L 630.09444 342.71664 
L 631.495423 346.379918 
L 632.896407 336.826664 
L 634.29739 344.009562 
L 635.698373 346.308089 
L 637.099357 343.865904 
L 638.50034 350.330512 
L 639.901323 345.302483 
L 641.302307 338.837875 
L 642.70329 335.821058 
L 644.104273 342.142008 
L 645.505257 333.666189 
L 646.90624 343.147614 
L 648.307224 347.960156 
L 649.708207 336.036545 
L 651.10919 330.79303 
L 652.510174 331.583148 
L 653.911157 339.771652 
L 655.31214 334.671795 
L 656.713124 342.213837 
L 658.114107 347.529182 
L 659.51509 336.754835 
L 660.916074 337.616783 
L 662.317057 337.616783 
L 665.119024 339.771652 
L 666.520007 342.572982 
L 667.920991 345.015167 
L 669.321974 341.136403 
L 670.722957 338.191414 
L 672.123941 338.837875 
L 673.524924 342.285666 
L 674.925908 341.99835 
L 676.326891 342.501153 
L 677.727874 345.086996 
L 679.128858 340.346284 
L 680.529841 340.418113 
L 681.930824 337.83227 
L 683.331808 340.705429 
L 684.732791 337.185809 
L 686.133774 350.258683 
L 687.534758 347.529182 
L 688.935741 343.363101 
L 690.336725 333.091557 
L 691.737708 336.180203 
L 693.138691 333.59436 
L 694.539675 340.6336 
L 695.940658 344.799681 
L 697.341641 346.595405 
L 698.742625 342.788469 
L 700.143608 341.136403 
L 701.544591 330.290227 
L 702.945575 343.722246 
L 704.346558 332.373267 
L 705.747542 344.081391 
L 707.148525 346.95455 
L 708.549508 336.39569 
L 709.950492 338.406901 
L 711.351475 345.948944 
L 712.752458 345.589799 
L 714.153442 346.379918 
L 715.554425 344.512365 
L 716.955409 351.048802 
L 718.356392 352.198065 
L 719.757375 343.291272 
L 721.158359 343.937733 
L 722.559342 338.622388 
L 723.960325 334.599966 
L 725.361309 341.639205 
L 726.762292 345.948944 
L 728.163275 343.650417 
L 729.564259 342.860298 
L 730.965242 339.987139 
L 732.366226 343.219443 
L 733.767209 344.799681 
L 735.168192 345.948944 
L 736.569176 347.601011 
L 737.970159 337.616783 
L 739.371142 338.119586 
L 740.772126 332.588754 
L 742.173109 345.733457 
L 743.574092 341.423719 
L 744.975076 348.247471 
L 746.376059 341.35189 
L 747.777043 353.2755 
L 749.178026 340.777258 
L 750.579009 331.511319 
L 751.979993 353.2755 
L 754.781959 353.2755 
L 756.182943 305.221913 
L 757.583926 343.43493 
L 758.98491 346.667234 
L 760.385893 328.781818 
L 761.786876 340.561771 
L 763.18786 343.291272 
L 764.588843 346.667234 
L 765.989826 337.904099 
L 767.39081 337.616783 
L 768.791793 353.2755 
L 770.192776 337.760441 
L 771.59376 333.953505 
L 772.994743 340.920916 
L 774.395727 335.605571 
L 775.79671 339.556165 
L 777.197693 353.2755 
L 778.598677 309.747139 
L 779.99966 333.235215 
L 781.400643 336.467519 
L 782.801627 334.528137 
L 784.20261 337.11398 
L 785.603593 340.992745 
L 787.004577 331.726806 
L 788.40556 327.057923 
L 789.806544 325.190369 
L 791.207527 318.653932 
L 792.60851 323.969277 
L 794.009494 334.384479 
L 795.410477 320.808802 
L 796.81146 301.774122 
L 799.613427 318.79759 
L 801.014411 306.586664 
L 802.415394 325.621343 
L 803.816377 301.414977 
L 805.217361 316.283576 
L 806.618344 278.214217 
L 808.019327 250.416403 
L 809.420311 252.786759 
L 810.821294 289.778683 
L 812.222277 301.127662 
L 813.623261 266.649752 
L 815.024244 204.230369 
L 816.425228 280.297258 
L 817.826211 234.829514 
L 819.227194 353.2755 
L 820.628178 252.499443 
L 822.029161 166.376498 
L 823.430144 353.2755 
L 824.831128 240.71949 
L 826.232111 253.43322 
L 827.633094 170.327091 
L 829.034078 178.87474 
L 830.435061 280.943719 
L 831.836045 213.639966 
L 833.237028 353.2755 
L 834.638011 118.538398 
L 836.038995 260.544289 
L 837.439978 233.967567 
L 838.840961 268.660963 
L 840.241945 234.326711 
L 841.642928 253.864194 
L 843.043911 250.200916 
L 844.444895 260.903433 
L 845.845878 267.583529 
L 847.246862 254.726141 
L 848.647845 229.298683 
L 851.449812 261.047091 
L 852.850795 268.804621 
L 854.251778 300.840346 
L 855.652762 312.261153 
L 857.053745 280.800061 
L 858.454729 277.711414 
L 859.855712 299.906569 
L 861.256695 305.581058 
L 862.657679 309.172507 
L 864.058662 319.731367 
L 865.459645 317.720156 
L 866.860629 309.531652 
L 868.261612 296.961581 
L 869.662595 295.094027 
L 871.063579 327.345239 
L 872.464562 329.643766 
L 873.865546 333.378873 
L 875.266529 329.859253 
L 876.667512 314.990654 
L 878.068496 317.863814 
L 879.469479 327.201581 
L 880.870462 341.99835 
L 882.271446 327.776213 
L 883.672429 339.843481 
L 885.073412 336.252032 
L 886.474396 333.59436 
L 887.875379 330.362056 
L 889.276363 336.826664 
L 890.677346 341.782863 
L 892.078329 331.43949 
L 893.479313 346.379918 
L 894.880296 337.904099 
L 896.281279 333.163386 
L 897.682263 343.937733 
L 899.083246 335.892887 
L 900.48423 347.816498 
L 901.885213 342.213837 
L 903.286196 339.91531 
L 904.68718 339.125191 
L 906.088163 341.782863 
L 907.489146 335.964716 
L 908.89013 346.23626 
L 910.291113 333.163386 
L 911.692096 340.992745 
L 913.09308 349.612222 
L 914.494063 339.484336 
L 915.895047 344.081391 
L 917.29603 337.83227 
L 918.697013 346.23626 
L 920.097997 340.058968 
L 921.49898 342.788469 
L 922.899963 346.810892 
L 924.300947 348.247471 
L 925.70193 345.589799 
L 927.102913 340.274455 
L 929.90488 349.75588 
L 931.305864 345.158825 
L 932.706847 344.296878 
L 934.10783 348.3193 
L 935.508814 349.03759 
L 936.909797 340.489942 
L 938.31078 347.026379 
L 939.711764 349.612222 
L 941.112747 346.882721 
L 942.513731 353.2755 
L 943.914714 345.589799 
L 945.315697 346.739063 
L 946.716681 347.529182 
L 948.117664 345.877115 
L 949.518647 346.882721 
L 950.919631 346.092602 
L 952.320614 350.761486 
L 953.721597 350.689657 
L 955.122581 353.2755 
L 956.523564 342.070179 
L 957.924548 350.833315 
L 959.325531 345.230654 
L 960.726514 344.656023 
L 962.127498 353.2755 
L 963.528481 346.379918 
L 964.929464 346.739063 
L 966.330448 347.816498 
L 967.731431 349.827709 
L 969.132414 349.109419 
L 970.533398 348.893932 
L 971.934381 350.905144 
L 973.335365 350.905144 
L 974.736348 349.109419 
L 976.137331 351.623433 
L 977.538315 350.689657 
L 978.939298 351.623433 
L 980.340281 350.545999 
L 983.142248 353.2755 
L 984.543232 349.540393 
L 985.944215 353.2755 
L 987.345198 346.882721 
L 988.746182 351.479776 
L 990.147165 351.551605 
L 991.548148 351.982578 
L 992.949132 351.910749 
L 994.350115 351.120631 
L 995.751098 327.632555 
L 997.152082 351.623433 
L 998.553065 351.479776 
L 999.954049 352.55721 
L 1001.355032 352.629039 
L 1002.756015 352.413552 
L 1004.156999 352.844526 
L 1005.557982 351.83892 
L 1006.958965 351.767091 
L 1008.359949 352.485381 
L 1009.760932 351.982578 
L 1011.161915 352.772697 
L 1012.562899 352.988184 
L 1013.963882 351.982578 
L 1018.166832 352.916355 
L 1019.567816 352.629039 
L 1022.369782 353.2755 
L 1023.770766 352.485381 
L 1025.171749 353.060013 
L 1026.572733 353.2755 
L 1027.973716 351.910749 
L 1029.374699 352.772697 
L 1030.775683 353.131842 
L 1032.176666 352.916355 
L 1034.978633 353.2755 
L 1036.379616 352.198065 
L 1037.780599 352.269894 
L 1039.181583 353.2755 
L 1040.582566 351.767091 
L 1041.98355 352.772697 
L 1043.384533 351.982578 
L 1044.785516 352.629039 
L 1046.1865 351.83892 
L 1047.587483 353.2755 
L 1048.988466 352.772697 
L 1050.38945 349.253077 
L 1051.790433 353.2755 
L 1053.191416 334.240821 
L 1054.5924 343.937733 
L 1055.993383 341.926521 
L 1057.394367 353.2755 
L 1058.79535 334.95911 
L 1060.196333 353.2755 
L 1061.597317 340.418113 
L 1062.9983 281.446521 
L 1064.399283 278.501533 
L 1065.800267 311.75835 
L 1067.20125 335.964716 
L 1068.602233 353.2755 
L 1071.4042 302.276925 
L 1072.805184 314.487852 
L 1074.206167 193.312365 
L 1075.60715 262.5555 
L 1077.008134 257.455643 
L 1078.409117 353.2755 
L 1079.8101 243.59265 
L 1081.211084 353.2755 
L 1082.612067 171.476355 
L 1084.013051 277.639586 
L 1085.414034 280.87189 
L 1086.815017 320.23417 
L 1089.616984 334.528137 
L 1091.017967 353.2755 
L 1092.418951 263.201961 
L 1093.819934 291.143433 
L 1095.220917 307.376783 
L 1096.621901 334.384479 
L 1098.022884 324.256593 
L 1099.423868 324.903053 
L 1100.824851 320.23417 
L 1102.225834 316.139918 
L 1103.626818 321.670749 
L 1105.027801 322.173552 
L 1106.428784 321.958065 
L 1107.829768 342.070179 
L 1109.230751 331.152175 
L 1110.631734 330.218398 
L 1112.032718 327.560726 
L 1113.433701 332.301438 
L 1114.834685 344.87151 
L 1116.235668 341.926521 
L 1117.636651 344.081391 
L 1119.037635 346.667234 
L 1120.438618 343.147614 
L 1121.839601 343.937733 
L 1123.240585 340.992745 
L 1124.641568 349.181248 
L 1126.042552 353.2755 
L 1127.443535 341.136403 
L 1128.844518 347.67284 
L 1130.245502 344.584194 
L 1131.646485 346.164431 
L 1133.047468 348.893932 
L 1134.448452 349.181248 
L 1135.849435 349.03759 
L 1137.250418 350.186854 
L 1138.651402 345.948944 
L 1140.052385 349.109419 
L 1142.854352 345.086996 
L 1144.255335 348.247471 
L 1145.656319 348.031985 
L 1147.057302 350.545999 
L 1148.458285 350.617828 
L 1149.859269 350.115025 
L 1151.260252 350.330512 
L 1152.661235 341.711034 
L 1154.062219 353.2755 
L 1155.463202 350.043196 
L 1156.864186 350.905144 
L 1158.265169 351.19246 
L 1159.666152 350.330512 
L 1161.067136 351.623433 
L 1162.468119 349.971367 
L 1163.869102 351.264289 
L 1165.270086 351.551605 
L 1166.671069 353.2755 
L 1168.072053 351.407947 
L 1169.473036 349.971367 
L 1170.874019 351.336118 
L 1172.275003 348.965761 
L 1173.675986 352.054407 
L 1175.076969 352.198065 
L 1176.477953 353.2755 
L 1177.878936 349.684051 
L 1179.279919 352.629039 
L 1180.680903 351.336118 
L 1182.081886 352.341723 
L 1183.48287 352.269894 
L 1184.883853 352.413552 
L 1186.284836 352.700868 
L 1187.68582 352.700868 
L 1189.086803 353.2755 
L 1190.487786 352.054407 
L 1191.88877 353.2755 
L 1193.289753 349.324906 
L 1194.690736 353.2755 
L 1196.09172 351.83892 
L 1197.492703 352.341723 
L 1198.893687 351.982578 
L 1200.29467 352.269894 
L 1201.695653 352.341723 
L 1204.49762 353.2755 
L 1205.898603 351.695262 
L 1207.299587 352.772697 
L 1208.70057 352.269894 
L 1210.101554 352.55721 
L 1211.502537 353.2755 
L 1212.90352 350.761486 
L 1214.304504 352.988184 
L 1215.705487 352.772697 
L 1217.10647 353.2755 
L 1218.507454 351.551605 
L 1219.908437 353.2755 
L 1222.710404 353.2755 
L 1224.111387 344.799681 
L 1225.512371 352.413552 
L 1226.913354 351.120631 
L 1228.314337 351.910749 
L 1229.715321 352.126236 
L 1231.116304 352.054407 
L 1232.517287 350.545999 
L 1233.918271 353.2755 
L 1235.319254 352.772697 
L 1236.720237 352.485381 
L 1238.121221 347.026379 
L 1239.522204 353.2755 
L 1240.923188 348.031985 
L 1242.324171 353.2755 
L 1243.725154 353.2755 
L 1245.126138 350.545999 
L 1246.527121 353.2755 
L 1247.928104 353.2755 
L 1249.329088 341.208232 
L 1250.730071 349.540393 
L 1252.131055 351.407947 
L 1253.532038 351.767091 
L 1254.933021 349.827709 
L 1256.334005 349.468564 
L 1257.734988 348.606616 
L 1259.135971 345.805286 
L 1260.536955 353.2755 
L 1261.937938 341.639205 
L 1263.338921 353.2755 
L 1264.739905 348.750274 
L 1266.140888 348.534787 
L 1267.541872 349.75588 
L 1268.942855 348.750274 
L 1270.343838 347.241866 
L 1271.744822 347.313695 
L 1274.546788 350.905144 
L 1275.947772 339.484336 
L 1277.348755 353.2755 
L 1278.749738 353.2755 
L 1280.150722 312.261153 
L 1281.551705 353.2755 
L 1282.952689 353.2755 
L 1284.353672 327.129752 
L 1285.754655 338.766046 
L 1287.155639 353.2755 
L 1289.957605 353.2755 
L 1291.358589 50.8755 
L 1292.759572 345.877115 
L 1295.561539 336.826664 
L 1296.962522 353.2755 
L 1298.363506 320.880631 
L 1298.363506 320.880631 
" clip-path="url(#p169b2d1adb)" style="fill: none; stroke: #0000ff; stroke-width: 1.5; stroke-linecap: square"/>
   </g>
   <g id="line2d_18">
    <path d="M 1058.79535 346.650778 
L 1060.196333 346.619701 
L 1061.597317 345.519166 
L 1062.9983 342.759661 
L 1064.399283 341.828963 
L 1065.800267 328.887893 
L 1067.20125 321.756642 
L 1068.602233 316.916073 
L 1070.003217 324.370075 
L 1071.4042 327.91517 
L 1072.805184 312.418893 
L 1074.206167 308.27107 
L 1075.60715 312.823551 
L 1077.008134 297.207064 
L 1078.409117 293.090288 
L 1079.8101 284.84576 
L 1081.211084 288.723069 
L 1082.612067 278.686471 
L 1084.013051 262.286935 
L 1085.414034 259.289569 
L 1086.815017 267.642735 
L 1088.216001 293.32119 
L 1089.616984 277.924461 
L 1091.017967 305.190069 
L 1092.418951 275.609301 
L 1093.819934 294.968063 
L 1095.220917 298.800805 
L 1096.621901 307.939657 
L 1098.022884 319.891319 
L 1099.423868 316.411833 
L 1100.824851 328.693662 
L 1102.225834 295.355677 
L 1103.626818 305.184684 
L 1106.428784 327.437031 
L 1107.829768 329.437752 
L 1109.230751 325.878412 
L 1110.631734 331.986432 
L 1112.032718 318.46548 
L 1113.433701 323.674023 
L 1114.834685 328.073461 
L 1116.235668 333.227714 
L 1117.636651 341.08569 
L 1119.037635 338.773241 
L 1120.438618 340.496545 
L 1121.839601 336.042389 
L 1123.240585 339.545347 
L 1124.641568 344.565404 
L 1126.042552 345.384394 
L 1127.443535 348.739659 
L 1128.844518 348.992273 
L 1131.646485 345.008362 
L 1133.047468 345.114713 
L 1134.448452 348.65097 
L 1135.849435 350.406907 
L 1137.250418 348.610663 
L 1138.651402 349.548675 
L 1140.052385 348.967116 
L 1141.453369 347.854302 
L 1144.255335 349.75204 
L 1145.656319 349.488726 
L 1148.458285 348.221058 
L 1149.859269 349.007665 
L 1151.260252 348.819021 
L 1152.661235 348.841961 
L 1154.062219 350.013872 
L 1155.463202 348.933315 
L 1156.864186 350.152426 
L 1158.265169 350.057 
L 1159.666152 350.25065 
L 1161.067136 350.255505 
L 1162.468119 348.368746 
L 1163.869102 351.582763 
L 1165.270086 351.15285 
L 1168.072053 351.541749 
L 1170.874019 351.757724 
L 1172.275003 350.383385 
L 1173.675986 351.700816 
L 1175.076969 351.282551 
L 1176.477953 351.912173 
L 1179.279919 351.468756 
L 1180.680903 351.490497 
L 1182.081886 350.839848 
L 1183.48287 351.998307 
L 1184.883853 352.242355 
L 1186.284836 352.664863 
L 1187.68582 351.771579 
L 1189.086803 352.293074 
L 1191.88877 352.350609 
L 1193.289753 352.73633 
L 1194.690736 352.821674 
L 1196.09172 352.430456 
L 1197.492703 352.253904 
L 1198.893687 352.428828 
L 1200.29467 352.140741 
L 1201.695653 352.272893 
L 1203.096637 351.627303 
L 1204.49762 352.523574 
L 1212.90352 352.392262 
L 1214.304504 352.902482 
L 1215.705487 352.17272 
L 1217.10647 352.483992 
L 1221.30942 352.661517 
L 1222.710404 352.221456 
L 1224.111387 352.977247 
L 1225.512371 352.686246 
L 1226.913354 351.415259 
L 1228.314337 351.214225 
L 1231.116304 351.759957 
L 1232.517287 351.619489 
L 1233.918271 350.043545 
L 1235.319254 351.508898 
L 1236.720237 351.940484 
L 1239.522204 352.196927 
L 1240.923188 351.347288 
L 1242.324171 351.182703 
L 1243.725154 350.596555 
L 1245.126138 351.640708 
L 1246.527121 351.847845 
L 1247.928104 350.465063 
L 1249.329088 352.263958 
L 1252.131055 350.150925 
L 1253.532038 350.250787 
L 1254.933021 350.10016 
L 1256.334005 350.852869 
L 1257.734988 350.280016 
L 1259.135971 347.94372 
L 1260.536955 348.99362 
L 1263.338921 350.203372 
L 1264.739905 348.202305 
L 1266.140888 349.153553 
L 1267.541872 348.731862 
L 1268.942855 347.283232 
L 1270.343838 349.648464 
L 1271.744822 347.582893 
L 1273.145805 349.646938 
L 1274.546788 348.474744 
L 1275.947772 348.438253 
L 1277.348755 348.73423 
L 1278.749738 346.496277 
L 1280.150722 348.270698 
L 1281.551705 347.32179 
L 1282.952689 342.384301 
L 1284.353672 344.869448 
L 1285.754655 343.367409 
L 1287.155639 342.879764 
L 1288.556622 342.724166 
L 1289.957605 336.257351 
L 1291.358589 346.799736 
L 1292.759572 340.845447 
L 1294.160555 283.326814 
L 1296.962522 310.7173 
L 1298.363506 317.386739 
L 1298.363506 317.386739 
" clip-path="url(#p169b2d1adb)" style="fill: none; stroke: #ffa500; stroke-width: 1.5; stroke-linecap: square"/>
   </g>
   <g id="line2d_19">
    <path d="M 1299.764489 320.658539 
L 1301.165472 258.295081 
L 1302.566456 322.027786 
L 1303.967439 318.933658 
L 1305.368422 318.527988 
L 1306.769406 323.676941 
L 1308.170389 316.670074 
L 1309.571373 315.385834 
L 1310.972356 278.588267 
L 1312.373339 316.368228 
L 1313.774323 314.538953 
L 1315.175306 314.297037 
L 1316.576289 317.352497 
L 1317.977273 313.19478 
" clip-path="url(#p169b2d1adb)" style="fill: none; stroke: #ff0000; stroke-width: 1.5; stroke-linecap: square"/>
   </g>
   <g id="patch_3">
    <path d="M 39.65 368.3955 
L 39.65 35.7555 
" style="fill: none; stroke: #000000; stroke-width: 0.8; stroke-linejoin: miter; stroke-linecap: square"/>
   </g>
   <g id="patch_4">
    <path d="M 1378.85 368.3955 
L 1378.85 35.7555 
" style="fill: none; stroke: #000000; stroke-width: 0.8; stroke-linejoin: miter; stroke-linecap: square"/>
   </g>
   <g id="patch_5">
    <path d="M 39.65 368.3955 
L 1378.85 368.3955 
" style="fill: none; stroke: #000000; stroke-width: 0.8; stroke-linejoin: miter; stroke-linecap: square"/>
   </g>
   <g id="patch_6">
    <path d="M 39.65 35.7555 
L 1378.85 35.7555 
" style="fill: none; stroke: #000000; stroke-width: 0.8; stroke-linejoin: miter; stroke-linecap: square"/>
   </g>
   <g id="text_17">
    <!-- Daily Confirmed Cases Forecasting - Namibia -->
    <g transform="translate(573.92 16.318125)scale(0.12 -0.12)">
     <defs>
      <path id="DejaVuSans-44" d="M 1259 4147 
L 1259 519 
L 2022 519 
Q 2988 519 3436 956 
Q 3884 1394 3884 2338 
Q 3884 3275 3436 3711 
Q 2988 4147 2022 4147 
L 1259 4147 
z
M 628 4666 
L 1925 4666 
Q 3281 4666 3915 4102 
Q 4550 3538 4550 2338 
Q 4550 1131 3912 565 
Q 3275 0 1925 0 
L 628 0 
L 628 4666 
z
" transform="scale(0.015625)"/>
      <path id="DejaVuSans-61" d="M 2194 1759 
Q 1497 1759 1228 1600 
Q 959 1441 959 1056 
Q 959 750 1161 570 
Q 1363 391 1709 391 
Q 2188 391 2477 730 
Q 2766 1069 2766 1631 
L 2766 1759 
L 2194 1759 
z
M 3341 1997 
L 3341 0 
L 2766 0 
L 2766 531 
Q 2569 213 2275 61 
Q 1981 -91 1556 -91 
Q 1019 -91 701 211 
Q 384 513 384 1019 
Q 384 1609 779 1909 
Q 1175 2209 1959 2209 
L 2766 2209 
L 2766 2266 
Q 2766 2663 2505 2880 
Q 2244 3097 1772 3097 
Q 1472 3097 1187 3025 
Q 903 2953 641 2809 
L 641 3341 
Q 956 3463 1253 3523 
Q 1550 3584 1831 3584 
Q 2591 3584 2966 3190 
Q 3341 2797 3341 1997 
z
" transform="scale(0.015625)"/>
      <path id="DejaVuSans-69" d="M 603 3500 
L 1178 3500 
L 1178 0 
L 603 0 
L 603 3500 
z
M 603 4863 
L 1178 4863 
L 1178 4134 
L 603 4134 
L 603 4863 
z
" transform="scale(0.015625)"/>
      <path id="DejaVuSans-6c" d="M 603 4863 
L 1178 4863 
L 1178 0 
L 603 0 
L 603 4863 
z
" transform="scale(0.015625)"/>
      <path id="DejaVuSans-79" d="M 2059 -325 
Q 1816 -950 1584 -1140 
Q 1353 -1331 966 -1331 
L 506 -1331 
L 506 -850 
L 844 -850 
Q 1081 -850 1212 -737 
Q 1344 -625 1503 -206 
L 1606 56 
L 191 3500 
L 800 3500 
L 1894 763 
L 2988 3500 
L 3597 3500 
L 2059 -325 
z
" transform="scale(0.015625)"/>
      <path id="DejaVuSans-20" transform="scale(0.015625)"/>
      <path id="DejaVuSans-43" d="M 4122 4306 
L 4122 3641 
Q 3803 3938 3442 4084 
Q 3081 4231 2675 4231 
Q 1875 4231 1450 3742 
Q 1025 3253 1025 2328 
Q 1025 1406 1450 917 
Q 1875 428 2675 428 
Q 3081 428 3442 575 
Q 3803 722 4122 1019 
L 4122 359 
Q 3791 134 3420 21 
Q 3050 -91 2638 -91 
Q 1578 -91 968 557 
Q 359 1206 359 2328 
Q 359 3453 968 4101 
Q 1578 4750 2638 4750 
Q 3056 4750 3426 4639 
Q 3797 4528 4122 4306 
z
" transform="scale(0.015625)"/>
      <path id="DejaVuSans-6f" d="M 1959 3097 
Q 1497 3097 1228 2736 
Q 959 2375 959 1747 
Q 959 1119 1226 758 
Q 1494 397 1959 397 
Q 2419 397 2687 759 
Q 2956 1122 2956 1747 
Q 2956 2369 2687 2733 
Q 2419 3097 1959 3097 
z
M 1959 3584 
Q 2709 3584 3137 3096 
Q 3566 2609 3566 1747 
Q 3566 888 3137 398 
Q 2709 -91 1959 -91 
Q 1206 -91 779 398 
Q 353 888 353 1747 
Q 353 2609 779 3096 
Q 1206 3584 1959 3584 
z
" transform="scale(0.015625)"/>
      <path id="DejaVuSans-6e" d="M 3513 2113 
L 3513 0 
L 2938 0 
L 2938 2094 
Q 2938 2591 2744 2837 
Q 2550 3084 2163 3084 
Q 1697 3084 1428 2787 
Q 1159 2491 1159 1978 
L 1159 0 
L 581 0 
L 581 3500 
L 1159 3500 
L 1159 2956 
Q 1366 3272 1645 3428 
Q 1925 3584 2291 3584 
Q 2894 3584 3203 3211 
Q 3513 2838 3513 2113 
z
" transform="scale(0.015625)"/>
      <path id="DejaVuSans-66" d="M 2375 4863 
L 2375 4384 
L 1825 4384 
Q 1516 4384 1395 4259 
Q 1275 4134 1275 3809 
L 1275 3500 
L 2222 3500 
L 2222 3053 
L 1275 3053 
L 1275 0 
L 697 0 
L 697 3053 
L 147 3053 
L 147 3500 
L 697 3500 
L 697 3744 
Q 697 4328 969 4595 
Q 1241 4863 1831 4863 
L 2375 4863 
z
" transform="scale(0.015625)"/>
      <path id="DejaVuSans-72" d="M 2631 2963 
Q 2534 3019 2420 3045 
Q 2306 3072 2169 3072 
Q 1681 3072 1420 2755 
Q 1159 2438 1159 1844 
L 1159 0 
L 581 0 
L 581 3500 
L 1159 3500 
L 1159 2956 
Q 1341 3275 1631 3429 
Q 1922 3584 2338 3584 
Q 2397 3584 2469 3576 
Q 2541 3569 2628 3553 
L 2631 2963 
z
" transform="scale(0.015625)"/>
      <path id="DejaVuSans-6d" d="M 3328 2828 
Q 3544 3216 3844 3400 
Q 4144 3584 4550 3584 
Q 5097 3584 5394 3201 
Q 5691 2819 5691 2113 
L 5691 0 
L 5113 0 
L 5113 2094 
Q 5113 2597 4934 2840 
Q 4756 3084 4391 3084 
Q 3944 3084 3684 2787 
Q 3425 2491 3425 1978 
L 3425 0 
L 2847 0 
L 2847 2094 
Q 2847 2600 2669 2842 
Q 2491 3084 2119 3084 
Q 1678 3084 1418 2786 
Q 1159 2488 1159 1978 
L 1159 0 
L 581 0 
L 581 3500 
L 1159 3500 
L 1159 2956 
Q 1356 3278 1631 3431 
Q 1906 3584 2284 3584 
Q 2666 3584 2933 3390 
Q 3200 3197 3328 2828 
z
" transform="scale(0.015625)"/>
      <path id="DejaVuSans-65" d="M 3597 1894 
L 3597 1613 
L 953 1613 
Q 991 1019 1311 708 
Q 1631 397 2203 397 
Q 2534 397 2845 478 
Q 3156 559 3463 722 
L 3463 178 
Q 3153 47 2828 -22 
Q 2503 -91 2169 -91 
Q 1331 -91 842 396 
Q 353 884 353 1716 
Q 353 2575 817 3079 
Q 1281 3584 2069 3584 
Q 2775 3584 3186 3129 
Q 3597 2675 3597 1894 
z
M 3022 2063 
Q 3016 2534 2758 2815 
Q 2500 3097 2075 3097 
Q 1594 3097 1305 2825 
Q 1016 2553 972 2059 
L 3022 2063 
z
" transform="scale(0.015625)"/>
      <path id="DejaVuSans-64" d="M 2906 2969 
L 2906 4863 
L 3481 4863 
L 3481 0 
L 2906 0 
L 2906 525 
Q 2725 213 2448 61 
Q 2172 -91 1784 -91 
Q 1150 -91 751 415 
Q 353 922 353 1747 
Q 353 2572 751 3078 
Q 1150 3584 1784 3584 
Q 2172 3584 2448 3432 
Q 2725 3281 2906 2969 
z
M 947 1747 
Q 947 1113 1208 752 
Q 1469 391 1925 391 
Q 2381 391 2643 752 
Q 2906 1113 2906 1747 
Q 2906 2381 2643 2742 
Q 2381 3103 1925 3103 
Q 1469 3103 1208 2742 
Q 947 2381 947 1747 
z
" transform="scale(0.015625)"/>
      <path id="DejaVuSans-73" d="M 2834 3397 
L 2834 2853 
Q 2591 2978 2328 3040 
Q 2066 3103 1784 3103 
Q 1356 3103 1142 2972 
Q 928 2841 928 2578 
Q 928 2378 1081 2264 
Q 1234 2150 1697 2047 
L 1894 2003 
Q 2506 1872 2764 1633 
Q 3022 1394 3022 966 
Q 3022 478 2636 193 
Q 2250 -91 1575 -91 
Q 1294 -91 989 -36 
Q 684 19 347 128 
L 347 722 
Q 666 556 975 473 
Q 1284 391 1588 391 
Q 1994 391 2212 530 
Q 2431 669 2431 922 
Q 2431 1156 2273 1281 
Q 2116 1406 1581 1522 
L 1381 1569 
Q 847 1681 609 1914 
Q 372 2147 372 2553 
Q 372 3047 722 3315 
Q 1072 3584 1716 3584 
Q 2034 3584 2315 3537 
Q 2597 3491 2834 3397 
z
" transform="scale(0.015625)"/>
      <path id="DejaVuSans-46" d="M 628 4666 
L 3309 4666 
L 3309 4134 
L 1259 4134 
L 1259 2759 
L 3109 2759 
L 3109 2228 
L 1259 2228 
L 1259 0 
L 628 0 
L 628 4666 
z
" transform="scale(0.015625)"/>
      <path id="DejaVuSans-63" d="M 3122 3366 
L 3122 2828 
Q 2878 2963 2633 3030 
Q 2388 3097 2138 3097 
Q 1578 3097 1268 2742 
Q 959 2388 959 1747 
Q 959 1106 1268 751 
Q 1578 397 2138 397 
Q 2388 397 2633 464 
Q 2878 531 3122 666 
L 3122 134 
Q 2881 22 2623 -34 
Q 2366 -91 2075 -91 
Q 1284 -91 818 406 
Q 353 903 353 1747 
Q 353 2603 823 3093 
Q 1294 3584 2113 3584 
Q 2378 3584 2631 3529 
Q 2884 3475 3122 3366 
z
" transform="scale(0.015625)"/>
      <path id="DejaVuSans-74" d="M 1172 4494 
L 1172 3500 
L 2356 3500 
L 2356 3053 
L 1172 3053 
L 1172 1153 
Q 1172 725 1289 603 
Q 1406 481 1766 481 
L 2356 481 
L 2356 0 
L 1766 0 
Q 1100 0 847 248 
Q 594 497 594 1153 
L 594 3053 
L 172 3053 
L 172 3500 
L 594 3500 
L 594 4494 
L 1172 4494 
z
" transform="scale(0.015625)"/>
      <path id="DejaVuSans-67" d="M 2906 1791 
Q 2906 2416 2648 2759 
Q 2391 3103 1925 3103 
Q 1463 3103 1205 2759 
Q 947 2416 947 1791 
Q 947 1169 1205 825 
Q 1463 481 1925 481 
Q 2391 481 2648 825 
Q 2906 1169 2906 1791 
z
M 3481 434 
Q 3481 -459 3084 -895 
Q 2688 -1331 1869 -1331 
Q 1566 -1331 1297 -1286 
Q 1028 -1241 775 -1147 
L 775 -588 
Q 1028 -725 1275 -790 
Q 1522 -856 1778 -856 
Q 2344 -856 2625 -561 
Q 2906 -266 2906 331 
L 2906 616 
Q 2728 306 2450 153 
Q 2172 0 1784 0 
Q 1141 0 747 490 
Q 353 981 353 1791 
Q 353 2603 747 3093 
Q 1141 3584 1784 3584 
Q 2172 3584 2450 3431 
Q 2728 3278 2906 2969 
L 2906 3500 
L 3481 3500 
L 3481 434 
z
" transform="scale(0.015625)"/>
      <path id="DejaVuSans-4e" d="M 628 4666 
L 1478 4666 
L 3547 763 
L 3547 4666 
L 4159 4666 
L 4159 0 
L 3309 0 
L 1241 3903 
L 1241 0 
L 628 0 
L 628 4666 
z
" transform="scale(0.015625)"/>
      <path id="DejaVuSans-62" d="M 3116 1747 
Q 3116 2381 2855 2742 
Q 2594 3103 2138 3103 
Q 1681 3103 1420 2742 
Q 1159 2381 1159 1747 
Q 1159 1113 1420 752 
Q 1681 391 2138 391 
Q 2594 391 2855 752 
Q 3116 1113 3116 1747 
z
M 1159 2969 
Q 1341 3281 1617 3432 
Q 1894 3584 2278 3584 
Q 2916 3584 3314 3078 
Q 3713 2572 3713 1747 
Q 3713 922 3314 415 
Q 2916 -91 2278 -91 
Q 1894 -91 1617 61 
Q 1341 213 1159 525 
L 1159 0 
L 581 0 
L 581 4863 
L 1159 4863 
L 1159 2969 
z
" transform="scale(0.015625)"/>
     </defs>
     <use xlink:href="#DejaVuSans-44"/>
     <use xlink:href="#DejaVuSans-61" x="77.001953"/>
     <use xlink:href="#DejaVuSans-69" x="138.28125"/>
     <use xlink:href="#DejaVuSans-6c" x="166.064453"/>
     <use xlink:href="#DejaVuSans-79" x="193.847656"/>
     <use xlink:href="#DejaVuSans-20" x="253.027344"/>
     <use xlink:href="#DejaVuSans-43" x="284.814453"/>
     <use xlink:href="#DejaVuSans-6f" x="354.638672"/>
     <use xlink:href="#DejaVuSans-6e" x="415.820312"/>
     <use xlink:href="#DejaVuSans-66" x="479.199219"/>
     <use xlink:href="#DejaVuSans-69" x="514.404297"/>
     <use xlink:href="#DejaVuSans-72" x="542.1875"/>
     <use xlink:href="#DejaVuSans-6d" x="581.550781"/>
     <use xlink:href="#DejaVuSans-65" x="678.962891"/>
     <use xlink:href="#DejaVuSans-64" x="740.486328"/>
     <use xlink:href="#DejaVuSans-20" x="803.962891"/>
     <use xlink:href="#DejaVuSans-43" x="835.75"/>
     <use xlink:href="#DejaVuSans-61" x="905.574219"/>
     <use xlink:href="#DejaVuSans-73" x="966.853516"/>
     <use xlink:href="#DejaVuSans-65" x="1018.953125"/>
     <use xlink:href="#DejaVuSans-73" x="1080.476562"/>
     <use xlink:href="#DejaVuSans-20" x="1132.576172"/>
     <use xlink:href="#DejaVuSans-46" x="1164.363281"/>
     <use xlink:href="#DejaVuSans-6f" x="1218.257812"/>
     <use xlink:href="#DejaVuSans-72" x="1279.439453"/>
     <use xlink:href="#DejaVuSans-65" x="1318.302734"/>
     <use xlink:href="#DejaVuSans-63" x="1379.826172"/>
     <use xlink:href="#DejaVuSans-61" x="1434.806641"/>
     <use xlink:href="#DejaVuSans-73" x="1496.085938"/>
     <use xlink:href="#DejaVuSans-74" x="1548.185547"/>
     <use xlink:href="#DejaVuSans-69" x="1587.394531"/>
     <use xlink:href="#DejaVuSans-6e" x="1615.177734"/>
     <use xlink:href="#DejaVuSans-67" x="1678.556641"/>
     <use xlink:href="#DejaVuSans-20" x="1742.033203"/>
     <use xlink:href="#DejaVuSans-2d" x="1773.820312"/>
     <use xlink:href="#DejaVuSans-20" x="1809.904297"/>
     <use xlink:href="#DejaVuSans-4e" x="1841.691406"/>
     <use xlink:href="#DejaVuSans-61" x="1916.496094"/>
     <use xlink:href="#DejaVuSans-6d" x="1977.775391"/>
     <use xlink:href="#DejaVuSans-69" x="2075.1875"/>
     <use xlink:href="#DejaVuSans-62" x="2102.970703"/>
     <use xlink:href="#DejaVuSans-69" x="2166.447266"/>
     <use xlink:href="#DejaVuSans-61" x="2194.230469"/>
    </g>
    <!-- ARIMA (1, 1, 1)x(1, 0, 1, 7) (R2 = 0.212422) -->
    <g transform="translate(577.265938 29.7555)scale(0.12 -0.12)">
     <defs>
      <path id="DejaVuSans-41" d="M 2188 4044 
L 1331 1722 
L 3047 1722 
L 2188 4044 
z
M 1831 4666 
L 2547 4666 
L 4325 0 
L 3669 0 
L 3244 1197 
L 1141 1197 
L 716 0 
L 50 0 
L 1831 4666 
z
" transform="scale(0.015625)"/>
      <path id="DejaVuSans-52" d="M 2841 2188 
Q 3044 2119 3236 1894 
Q 3428 1669 3622 1275 
L 4263 0 
L 3584 0 
L 2988 1197 
Q 2756 1666 2539 1819 
Q 2322 1972 1947 1972 
L 1259 1972 
L 1259 0 
L 628 0 
L 628 4666 
L 2053 4666 
Q 2853 4666 3247 4331 
Q 3641 3997 3641 3322 
Q 3641 2881 3436 2590 
Q 3231 2300 2841 2188 
z
M 1259 4147 
L 1259 2491 
L 2053 2491 
Q 2509 2491 2742 2702 
Q 2975 2913 2975 3322 
Q 2975 3731 2742 3939 
Q 2509 4147 2053 4147 
L 1259 4147 
z
" transform="scale(0.015625)"/>
      <path id="DejaVuSans-49" d="M 628 4666 
L 1259 4666 
L 1259 0 
L 628 0 
L 628 4666 
z
" transform="scale(0.015625)"/>
      <path id="DejaVuSans-4d" d="M 628 4666 
L 1569 4666 
L 2759 1491 
L 3956 4666 
L 4897 4666 
L 4897 0 
L 4281 0 
L 4281 4097 
L 3078 897 
L 2444 897 
L 1241 4097 
L 1241 0 
L 628 0 
L 628 4666 
z
" transform="scale(0.015625)"/>
      <path id="DejaVuSans-28" d="M 1984 4856 
Q 1566 4138 1362 3434 
Q 1159 2731 1159 2009 
Q 1159 1288 1364 580 
Q 1569 -128 1984 -844 
L 1484 -844 
Q 1016 -109 783 600 
Q 550 1309 550 2009 
Q 550 2706 781 3412 
Q 1013 4119 1484 4856 
L 1984 4856 
z
" transform="scale(0.015625)"/>
      <path id="DejaVuSans-2c" d="M 750 794 
L 1409 794 
L 1409 256 
L 897 -744 
L 494 -744 
L 750 256 
L 750 794 
z
" transform="scale(0.015625)"/>
      <path id="DejaVuSans-29" d="M 513 4856 
L 1013 4856 
Q 1481 4119 1714 3412 
Q 1947 2706 1947 2009 
Q 1947 1309 1714 600 
Q 1481 -109 1013 -844 
L 513 -844 
Q 928 -128 1133 580 
Q 1338 1288 1338 2009 
Q 1338 2731 1133 3434 
Q 928 4138 513 4856 
z
" transform="scale(0.015625)"/>
      <path id="DejaVuSans-78" d="M 3513 3500 
L 2247 1797 
L 3578 0 
L 2900 0 
L 1881 1375 
L 863 0 
L 184 0 
L 1544 1831 
L 300 3500 
L 978 3500 
L 1906 2253 
L 2834 3500 
L 3513 3500 
z
" transform="scale(0.015625)"/>
      <path id="DejaVuSans-3d" d="M 678 2906 
L 4684 2906 
L 4684 2381 
L 678 2381 
L 678 2906 
z
M 678 1631 
L 4684 1631 
L 4684 1100 
L 678 1100 
L 678 1631 
z
" transform="scale(0.015625)"/>
      <path id="DejaVuSans-2e" d="M 684 794 
L 1344 794 
L 1344 0 
L 684 0 
L 684 794 
z
" transform="scale(0.015625)"/>
     </defs>
     <use xlink:href="#DejaVuSans-41"/>
     <use xlink:href="#DejaVuSans-52" x="68.408203"/>
     <use xlink:href="#DejaVuSans-49" x="137.890625"/>
     <use xlink:href="#DejaVuSans-4d" x="167.382812"/>
     <use xlink:href="#DejaVuSans-41" x="253.662109"/>
     <use xlink:href="#DejaVuSans-20" x="322.070312"/>
     <use xlink:href="#DejaVuSans-28" x="353.857422"/>
     <use xlink:href="#DejaVuSans-31" x="392.871094"/>
     <use xlink:href="#DejaVuSans-2c" x="456.494141"/>
     <use xlink:href="#DejaVuSans-20" x="488.28125"/>
     <use xlink:href="#DejaVuSans-31" x="520.068359"/>
     <use xlink:href="#DejaVuSans-2c" x="583.691406"/>
     <use xlink:href="#DejaVuSans-20" x="615.478516"/>
     <use xlink:href="#DejaVuSans-31" x="647.265625"/>
     <use xlink:href="#DejaVuSans-29" x="710.888672"/>
     <use xlink:href="#DejaVuSans-78" x="749.902344"/>
     <use xlink:href="#DejaVuSans-28" x="809.082031"/>
     <use xlink:href="#DejaVuSans-31" x="848.095703"/>
     <use xlink:href="#DejaVuSans-2c" x="911.71875"/>
     <use xlink:href="#DejaVuSans-20" x="943.505859"/>
     <use xlink:href="#DejaVuSans-30" x="975.292969"/>
     <use xlink:href="#DejaVuSans-2c" x="1038.916016"/>
     <use xlink:href="#DejaVuSans-20" x="1070.703125"/>
     <use xlink:href="#DejaVuSans-31" x="1102.490234"/>
     <use xlink:href="#DejaVuSans-2c" x="1166.113281"/>
     <use xlink:href="#DejaVuSans-20" x="1197.900391"/>
     <use xlink:href="#DejaVuSans-37" x="1229.6875"/>
     <use xlink:href="#DejaVuSans-29" x="1293.310547"/>
     <use xlink:href="#DejaVuSans-20" x="1332.324219"/>
     <use xlink:href="#DejaVuSans-28" x="1364.111328"/>
     <use xlink:href="#DejaVuSans-52" x="1403.125"/>
     <use xlink:href="#DejaVuSans-32" x="1472.607422"/>
     <use xlink:href="#DejaVuSans-20" x="1536.230469"/>
     <use xlink:href="#DejaVuSans-3d" x="1568.017578"/>
     <use xlink:href="#DejaVuSans-20" x="1651.806641"/>
     <use xlink:href="#DejaVuSans-30" x="1683.59375"/>
     <use xlink:href="#DejaVuSans-2e" x="1747.216797"/>
     <use xlink:href="#DejaVuSans-32" x="1779.003906"/>
     <use xlink:href="#DejaVuSans-31" x="1842.626953"/>
     <use xlink:href="#DejaVuSans-32" x="1906.25"/>
     <use xlink:href="#DejaVuSans-34" x="1969.873047"/>
     <use xlink:href="#DejaVuSans-32" x="2033.496094"/>
     <use xlink:href="#DejaVuSans-32" x="2097.119141"/>
     <use xlink:href="#DejaVuSans-29" x="2160.742188"/>
    </g>
   </g>
   <g id="legend_1">
    <g id="patch_7">
     <path d="M 46.65 87.789875 
L 143.729688 87.789875 
Q 145.729688 87.789875 145.729688 85.789875 
L 145.729688 42.7555 
Q 145.729688 40.7555 143.729688 40.7555 
L 46.65 40.7555 
Q 44.65 40.7555 44.65 42.7555 
L 44.65 85.789875 
Q 44.65 87.789875 46.65 87.789875 
z
" style="fill: #ffffff; opacity: 0.8; stroke: #cccccc; stroke-linejoin: miter"/>
    </g>
    <g id="line2d_20">
     <path d="M 48.65 48.853937 
L 58.65 48.853937 
L 68.65 48.853937 
" style="fill: none; stroke: #0000ff; stroke-width: 1.5; stroke-linecap: square"/>
    </g>
    <g id="text_18">
     <!-- Actual Value -->
     <g transform="translate(76.65 52.353937)scale(0.1 -0.1)">
      <defs>
       <path id="DejaVuSans-75" d="M 544 1381 
L 544 3500 
L 1119 3500 
L 1119 1403 
Q 1119 906 1312 657 
Q 1506 409 1894 409 
Q 2359 409 2629 706 
Q 2900 1003 2900 1516 
L 2900 3500 
L 3475 3500 
L 3475 0 
L 2900 0 
L 2900 538 
Q 2691 219 2414 64 
Q 2138 -91 1772 -91 
Q 1169 -91 856 284 
Q 544 659 544 1381 
z
M 1991 3584 
L 1991 3584 
z
" transform="scale(0.015625)"/>
       <path id="DejaVuSans-56" d="M 1831 0 
L 50 4666 
L 709 4666 
L 2188 738 
L 3669 4666 
L 4325 4666 
L 2547 0 
L 1831 0 
z
" transform="scale(0.015625)"/>
      </defs>
      <use xlink:href="#DejaVuSans-41"/>
      <use xlink:href="#DejaVuSans-63" x="66.658203"/>
      <use xlink:href="#DejaVuSans-74" x="121.638672"/>
      <use xlink:href="#DejaVuSans-75" x="160.847656"/>
      <use xlink:href="#DejaVuSans-61" x="224.226562"/>
      <use xlink:href="#DejaVuSans-6c" x="285.505859"/>
      <use xlink:href="#DejaVuSans-20" x="313.289062"/>
      <use xlink:href="#DejaVuSans-56" x="345.076172"/>
      <use xlink:href="#DejaVuSans-61" x="405.734375"/>
      <use xlink:href="#DejaVuSans-6c" x="467.013672"/>
      <use xlink:href="#DejaVuSans-75" x="494.796875"/>
      <use xlink:href="#DejaVuSans-65" x="558.175781"/>
     </g>
    </g>
    <g id="line2d_21">
     <path d="M 48.65 63.532062 
L 58.65 63.532062 
L 68.65 63.532062 
" style="fill: none; stroke: #ffa500; stroke-width: 1.5; stroke-linecap: square"/>
    </g>
    <g id="text_19">
     <!-- Check Value -->
     <g transform="translate(76.65 67.032062)scale(0.1 -0.1)">
      <defs>
       <path id="DejaVuSans-68" d="M 3513 2113 
L 3513 0 
L 2938 0 
L 2938 2094 
Q 2938 2591 2744 2837 
Q 2550 3084 2163 3084 
Q 1697 3084 1428 2787 
Q 1159 2491 1159 1978 
L 1159 0 
L 581 0 
L 581 4863 
L 1159 4863 
L 1159 2956 
Q 1366 3272 1645 3428 
Q 1925 3584 2291 3584 
Q 2894 3584 3203 3211 
Q 3513 2838 3513 2113 
z
" transform="scale(0.015625)"/>
       <path id="DejaVuSans-6b" d="M 581 4863 
L 1159 4863 
L 1159 1991 
L 2875 3500 
L 3609 3500 
L 1753 1863 
L 3688 0 
L 2938 0 
L 1159 1709 
L 1159 0 
L 581 0 
L 581 4863 
z
" transform="scale(0.015625)"/>
      </defs>
      <use xlink:href="#DejaVuSans-43"/>
      <use xlink:href="#DejaVuSans-68" x="69.824219"/>
      <use xlink:href="#DejaVuSans-65" x="133.203125"/>
      <use xlink:href="#DejaVuSans-63" x="194.726562"/>
      <use xlink:href="#DejaVuSans-6b" x="249.707031"/>
      <use xlink:href="#DejaVuSans-20" x="307.617188"/>
      <use xlink:href="#DejaVuSans-56" x="339.404297"/>
      <use xlink:href="#DejaVuSans-61" x="400.0625"/>
      <use xlink:href="#DejaVuSans-6c" x="461.341797"/>
      <use xlink:href="#DejaVuSans-75" x="489.125"/>
      <use xlink:href="#DejaVuSans-65" x="552.503906"/>
     </g>
    </g>
    <g id="line2d_22">
     <path d="M 48.65 78.210187 
L 58.65 78.210187 
L 68.65 78.210187 
" style="fill: none; stroke: #ff0000; stroke-width: 1.5; stroke-linecap: square"/>
    </g>
    <g id="text_20">
     <!-- Predict Value -->
     <g transform="translate(76.65 81.710187)scale(0.1 -0.1)">
      <defs>
       <path id="DejaVuSans-50" d="M 1259 4147 
L 1259 2394 
L 2053 2394 
Q 2494 2394 2734 2622 
Q 2975 2850 2975 3272 
Q 2975 3691 2734 3919 
Q 2494 4147 2053 4147 
L 1259 4147 
z
M 628 4666 
L 2053 4666 
Q 2838 4666 3239 4311 
Q 3641 3956 3641 3272 
Q 3641 2581 3239 2228 
Q 2838 1875 2053 1875 
L 1259 1875 
L 1259 0 
L 628 0 
L 628 4666 
z
" transform="scale(0.015625)"/>
      </defs>
      <use xlink:href="#DejaVuSans-50"/>
      <use xlink:href="#DejaVuSans-72" x="58.552734"/>
      <use xlink:href="#DejaVuSans-65" x="97.416016"/>
      <use xlink:href="#DejaVuSans-64" x="158.939453"/>
      <use xlink:href="#DejaVuSans-69" x="222.416016"/>
      <use xlink:href="#DejaVuSans-63" x="250.199219"/>
      <use xlink:href="#DejaVuSans-74" x="305.179688"/>
      <use xlink:href="#DejaVuSans-20" x="344.388672"/>
      <use xlink:href="#DejaVuSans-56" x="376.175781"/>
      <use xlink:href="#DejaVuSans-61" x="436.833984"/>
      <use xlink:href="#DejaVuSans-6c" x="498.113281"/>
      <use xlink:href="#DejaVuSans-75" x="525.896484"/>
      <use xlink:href="#DejaVuSans-65" x="589.275391"/>
     </g>
    </g>
   </g>
  </g>
 </g>
 <defs>
  <clipPath id="p169b2d1adb">
   <rect x="39.65" y="35.7555" width="1339.2" height="332.64"/>
  </clipPath>
 </defs>
</svg>
