<?xml version="1.0" encoding="utf-8" standalone="no"?>
<!DOCTYPE svg PUBLIC "-//W3C//DTD SVG 1.1//EN"
  "http://www.w3.org/Graphics/SVG/1.1/DTD/svg11.dtd">
<svg xmlns:xlink="http://www.w3.org/1999/xlink" width="1390.724348pt" height="392.273625pt" viewBox="0 0 1390.724348 392.273625" xmlns="http://www.w3.org/2000/svg" version="1.1">
 <metadata>
  <rdf:RDF xmlns:dc="http://purl.org/dc/elements/1.1/" xmlns:cc="http://creativecommons.org/ns#" xmlns:rdf="http://www.w3.org/1999/02/22-rdf-syntax-ns#">
   <cc:Work>
    <dc:type rdf:resource="http://purl.org/dc/dcmitype/StillImage"/>
    <dc:date>2022-11-11T18:58:15.672950</dc:date>
    <dc:format>image/svg+xml</dc:format>
    <dc:creator>
     <cc:Agent>
      <dc:title>Matplotlib v3.5.1, https://matplotlib.org/</dc:title>
     </cc:Agent>
    </dc:creator>
   </cc:Work>
  </rdf:RDF>
 </metadata>
 <defs>
  <style type="text/css">*{stroke-linejoin: round; stroke-linecap: butt}</style>
 </defs>
 <g id="figure_1">
  <g id="patch_1">
   <path d="M 0 392.273625 
L 1390.724348 392.273625 
L 1390.724348 0 
L 0 0 
z
" style="fill: #ffffff"/>
  </g>
  <g id="axes_1">
   <g id="patch_2">
    <path d="M 39.65 368.3955 
L 1378.85 368.3955 
L 1378.85 35.7555 
L 39.65 35.7555 
z
" style="fill: #ffffff"/>
   </g>
   <g id="matplotlib.axis_1">
    <g id="xtick_1">
     <g id="line2d_1">
      <defs>
       <path id="m82529f8871" d="M 0 0 
L 0 3.5 
" style="stroke: #000000; stroke-width: 0.8"/>
      </defs>
      <g>
       <use xlink:href="#m82529f8871" x="74.669445" y="368.3955" style="stroke: #000000; stroke-width: 0.8"/>
      </g>
     </g>
     <g id="text_1">
      <!-- 2020-01 -->
      <g transform="translate(53.778039 382.993937)scale(0.1 -0.1)">
       <defs>
        <path id="DejaVuSans-32" d="M 1228 531 
L 3431 531 
L 3431 0 
L 469 0 
L 469 531 
Q 828 903 1448 1529 
Q 2069 2156 2228 2338 
Q 2531 2678 2651 2914 
Q 2772 3150 2772 3378 
Q 2772 3750 2511 3984 
Q 2250 4219 1831 4219 
Q 1534 4219 1204 4116 
Q 875 4013 500 3803 
L 500 4441 
Q 881 4594 1212 4672 
Q 1544 4750 1819 4750 
Q 2544 4750 2975 4387 
Q 3406 4025 3406 3419 
Q 3406 3131 3298 2873 
Q 3191 2616 2906 2266 
Q 2828 2175 2409 1742 
Q 1991 1309 1228 531 
z
" transform="scale(0.015625)"/>
        <path id="DejaVuSans-30" d="M 2034 4250 
Q 1547 4250 1301 3770 
Q 1056 3291 1056 2328 
Q 1056 1369 1301 889 
Q 1547 409 2034 409 
Q 2525 409 2770 889 
Q 3016 1369 3016 2328 
Q 3016 3291 2770 3770 
Q 2525 4250 2034 4250 
z
M 2034 4750 
Q 2819 4750 3233 4129 
Q 3647 3509 3647 2328 
Q 3647 1150 3233 529 
Q 2819 -91 2034 -91 
Q 1250 -91 836 529 
Q 422 1150 422 2328 
Q 422 3509 836 4129 
Q 1250 4750 2034 4750 
z
" transform="scale(0.015625)"/>
        <path id="DejaVuSans-2d" d="M 313 2009 
L 1997 2009 
L 1997 1497 
L 313 1497 
L 313 2009 
z
" transform="scale(0.015625)"/>
        <path id="DejaVuSans-31" d="M 794 531 
L 1825 531 
L 1825 4091 
L 703 3866 
L 703 4441 
L 1819 4666 
L 2450 4666 
L 2450 531 
L 3481 531 
L 3481 0 
L 794 0 
L 794 531 
z
" transform="scale(0.015625)"/>
       </defs>
       <use xlink:href="#DejaVuSans-32"/>
       <use xlink:href="#DejaVuSans-30" x="63.623047"/>
       <use xlink:href="#DejaVuSans-32" x="127.246094"/>
       <use xlink:href="#DejaVuSans-30" x="190.869141"/>
       <use xlink:href="#DejaVuSans-2d" x="254.492188"/>
       <use xlink:href="#DejaVuSans-30" x="290.576172"/>
       <use xlink:href="#DejaVuSans-31" x="354.199219"/>
      </g>
     </g>
    </g>
    <g id="xtick_2">
     <g id="line2d_2">
      <g>
       <use xlink:href="#m82529f8871" x="216.862496" y="368.3955" style="stroke: #000000; stroke-width: 0.8"/>
      </g>
     </g>
     <g id="text_2">
      <!-- 2020-05 -->
      <g transform="translate(195.971089 382.993937)scale(0.1 -0.1)">
       <defs>
        <path id="DejaVuSans-35" d="M 691 4666 
L 3169 4666 
L 3169 4134 
L 1269 4134 
L 1269 2991 
Q 1406 3038 1543 3061 
Q 1681 3084 1819 3084 
Q 2600 3084 3056 2656 
Q 3513 2228 3513 1497 
Q 3513 744 3044 326 
Q 2575 -91 1722 -91 
Q 1428 -91 1123 -41 
Q 819 9 494 109 
L 494 744 
Q 775 591 1075 516 
Q 1375 441 1709 441 
Q 2250 441 2565 725 
Q 2881 1009 2881 1497 
Q 2881 1984 2565 2268 
Q 2250 2553 1709 2553 
Q 1456 2553 1204 2497 
Q 953 2441 691 2322 
L 691 4666 
z
" transform="scale(0.015625)"/>
       </defs>
       <use xlink:href="#DejaVuSans-32"/>
       <use xlink:href="#DejaVuSans-30" x="63.623047"/>
       <use xlink:href="#DejaVuSans-32" x="127.246094"/>
       <use xlink:href="#DejaVuSans-30" x="190.869141"/>
       <use xlink:href="#DejaVuSans-2d" x="254.492188"/>
       <use xlink:href="#DejaVuSans-30" x="290.576172"/>
       <use xlink:href="#DejaVuSans-35" x="354.199219"/>
      </g>
     </g>
    </g>
    <g id="xtick_3">
     <g id="line2d_3">
      <g>
       <use xlink:href="#m82529f8871" x="361.405844" y="368.3955" style="stroke: #000000; stroke-width: 0.8"/>
      </g>
     </g>
     <g id="text_3">
      <!-- 2020-09 -->
      <g transform="translate(340.514438 382.993937)scale(0.1 -0.1)">
       <defs>
        <path id="DejaVuSans-39" d="M 703 97 
L 703 672 
Q 941 559 1184 500 
Q 1428 441 1663 441 
Q 2288 441 2617 861 
Q 2947 1281 2994 2138 
Q 2813 1869 2534 1725 
Q 2256 1581 1919 1581 
Q 1219 1581 811 2004 
Q 403 2428 403 3163 
Q 403 3881 828 4315 
Q 1253 4750 1959 4750 
Q 2769 4750 3195 4129 
Q 3622 3509 3622 2328 
Q 3622 1225 3098 567 
Q 2575 -91 1691 -91 
Q 1453 -91 1209 -44 
Q 966 3 703 97 
z
M 1959 2075 
Q 2384 2075 2632 2365 
Q 2881 2656 2881 3163 
Q 2881 3666 2632 3958 
Q 2384 4250 1959 4250 
Q 1534 4250 1286 3958 
Q 1038 3666 1038 3163 
Q 1038 2656 1286 2365 
Q 1534 2075 1959 2075 
z
" transform="scale(0.015625)"/>
       </defs>
       <use xlink:href="#DejaVuSans-32"/>
       <use xlink:href="#DejaVuSans-30" x="63.623047"/>
       <use xlink:href="#DejaVuSans-32" x="127.246094"/>
       <use xlink:href="#DejaVuSans-30" x="190.869141"/>
       <use xlink:href="#DejaVuSans-2d" x="254.492188"/>
       <use xlink:href="#DejaVuSans-30" x="290.576172"/>
       <use xlink:href="#DejaVuSans-39" x="354.199219"/>
      </g>
     </g>
    </g>
    <g id="xtick_4">
     <g id="line2d_4">
      <g>
       <use xlink:href="#m82529f8871" x="504.774044" y="368.3955" style="stroke: #000000; stroke-width: 0.8"/>
      </g>
     </g>
     <g id="text_4">
      <!-- 2021-01 -->
      <g transform="translate(483.882637 382.993937)scale(0.1 -0.1)">
       <use xlink:href="#DejaVuSans-32"/>
       <use xlink:href="#DejaVuSans-30" x="63.623047"/>
       <use xlink:href="#DejaVuSans-32" x="127.246094"/>
       <use xlink:href="#DejaVuSans-31" x="190.869141"/>
       <use xlink:href="#DejaVuSans-2d" x="254.492188"/>
       <use xlink:href="#DejaVuSans-30" x="290.576172"/>
       <use xlink:href="#DejaVuSans-31" x="354.199219"/>
      </g>
     </g>
    </g>
    <g id="xtick_5">
     <g id="line2d_5">
      <g>
       <use xlink:href="#m82529f8871" x="645.791945" y="368.3955" style="stroke: #000000; stroke-width: 0.8"/>
      </g>
     </g>
     <g id="text_5">
      <!-- 2021-05 -->
      <g transform="translate(624.900538 382.993937)scale(0.1 -0.1)">
       <use xlink:href="#DejaVuSans-32"/>
       <use xlink:href="#DejaVuSans-30" x="63.623047"/>
       <use xlink:href="#DejaVuSans-32" x="127.246094"/>
       <use xlink:href="#DejaVuSans-31" x="190.869141"/>
       <use xlink:href="#DejaVuSans-2d" x="254.492188"/>
       <use xlink:href="#DejaVuSans-30" x="290.576172"/>
       <use xlink:href="#DejaVuSans-35" x="354.199219"/>
      </g>
     </g>
    </g>
    <g id="xtick_6">
     <g id="line2d_6">
      <g>
       <use xlink:href="#m82529f8871" x="790.335293" y="368.3955" style="stroke: #000000; stroke-width: 0.8"/>
      </g>
     </g>
     <g id="text_6">
      <!-- 2021-09 -->
      <g transform="translate(769.443887 382.993937)scale(0.1 -0.1)">
       <use xlink:href="#DejaVuSans-32"/>
       <use xlink:href="#DejaVuSans-30" x="63.623047"/>
       <use xlink:href="#DejaVuSans-32" x="127.246094"/>
       <use xlink:href="#DejaVuSans-31" x="190.869141"/>
       <use xlink:href="#DejaVuSans-2d" x="254.492188"/>
       <use xlink:href="#DejaVuSans-30" x="290.576172"/>
       <use xlink:href="#DejaVuSans-39" x="354.199219"/>
      </g>
     </g>
    </g>
    <g id="xtick_7">
     <g id="line2d_7">
      <g>
       <use xlink:href="#m82529f8871" x="933.703492" y="368.3955" style="stroke: #000000; stroke-width: 0.8"/>
      </g>
     </g>
     <g id="text_7">
      <!-- 2022-01 -->
      <g transform="translate(912.812086 382.993937)scale(0.1 -0.1)">
       <use xlink:href="#DejaVuSans-32"/>
       <use xlink:href="#DejaVuSans-30" x="63.623047"/>
       <use xlink:href="#DejaVuSans-32" x="127.246094"/>
       <use xlink:href="#DejaVuSans-32" x="190.869141"/>
       <use xlink:href="#DejaVuSans-2d" x="254.492188"/>
       <use xlink:href="#DejaVuSans-30" x="290.576172"/>
       <use xlink:href="#DejaVuSans-31" x="354.199219"/>
      </g>
     </g>
    </g>
    <g id="xtick_8">
     <g id="line2d_8">
      <g>
       <use xlink:href="#m82529f8871" x="1074.721393" y="368.3955" style="stroke: #000000; stroke-width: 0.8"/>
      </g>
     </g>
     <g id="text_8">
      <!-- 2022-05 -->
      <g transform="translate(1053.829987 382.993937)scale(0.1 -0.1)">
       <use xlink:href="#DejaVuSans-32"/>
       <use xlink:href="#DejaVuSans-30" x="63.623047"/>
       <use xlink:href="#DejaVuSans-32" x="127.246094"/>
       <use xlink:href="#DejaVuSans-32" x="190.869141"/>
       <use xlink:href="#DejaVuSans-2d" x="254.492188"/>
       <use xlink:href="#DejaVuSans-30" x="290.576172"/>
       <use xlink:href="#DejaVuSans-35" x="354.199219"/>
      </g>
     </g>
    </g>
    <g id="xtick_9">
     <g id="line2d_9">
      <g>
       <use xlink:href="#m82529f8871" x="1219.264742" y="368.3955" style="stroke: #000000; stroke-width: 0.8"/>
      </g>
     </g>
     <g id="text_9">
      <!-- 2022-09 -->
      <g transform="translate(1198.373336 382.993937)scale(0.1 -0.1)">
       <use xlink:href="#DejaVuSans-32"/>
       <use xlink:href="#DejaVuSans-30" x="63.623047"/>
       <use xlink:href="#DejaVuSans-32" x="127.246094"/>
       <use xlink:href="#DejaVuSans-32" x="190.869141"/>
       <use xlink:href="#DejaVuSans-2d" x="254.492188"/>
       <use xlink:href="#DejaVuSans-30" x="290.576172"/>
       <use xlink:href="#DejaVuSans-39" x="354.199219"/>
      </g>
     </g>
    </g>
    <g id="xtick_10">
     <g id="line2d_10">
      <g>
       <use xlink:href="#m82529f8871" x="1362.632941" y="368.3955" style="stroke: #000000; stroke-width: 0.8"/>
      </g>
     </g>
     <g id="text_10">
      <!-- 2023-01 -->
      <g transform="translate(1341.741535 382.993937)scale(0.1 -0.1)">
       <defs>
        <path id="DejaVuSans-33" d="M 2597 2516 
Q 3050 2419 3304 2112 
Q 3559 1806 3559 1356 
Q 3559 666 3084 287 
Q 2609 -91 1734 -91 
Q 1441 -91 1130 -33 
Q 819 25 488 141 
L 488 750 
Q 750 597 1062 519 
Q 1375 441 1716 441 
Q 2309 441 2620 675 
Q 2931 909 2931 1356 
Q 2931 1769 2642 2001 
Q 2353 2234 1838 2234 
L 1294 2234 
L 1294 2753 
L 1863 2753 
Q 2328 2753 2575 2939 
Q 2822 3125 2822 3475 
Q 2822 3834 2567 4026 
Q 2313 4219 1838 4219 
Q 1578 4219 1281 4162 
Q 984 4106 628 3988 
L 628 4550 
Q 988 4650 1302 4700 
Q 1616 4750 1894 4750 
Q 2613 4750 3031 4423 
Q 3450 4097 3450 3541 
Q 3450 3153 3228 2886 
Q 3006 2619 2597 2516 
z
" transform="scale(0.015625)"/>
       </defs>
       <use xlink:href="#DejaVuSans-32"/>
       <use xlink:href="#DejaVuSans-30" x="63.623047"/>
       <use xlink:href="#DejaVuSans-32" x="127.246094"/>
       <use xlink:href="#DejaVuSans-33" x="190.869141"/>
       <use xlink:href="#DejaVuSans-2d" x="254.492188"/>
       <use xlink:href="#DejaVuSans-30" x="290.576172"/>
       <use xlink:href="#DejaVuSans-31" x="354.199219"/>
      </g>
     </g>
    </g>
   </g>
   <g id="matplotlib.axis_2">
    <g id="ytick_1">
     <g id="line2d_11">
      <defs>
       <path id="m7d006c63e8" d="M 0 0 
L -3.5 0 
" style="stroke: #000000; stroke-width: 0.8"/>
      </defs>
      <g>
       <use xlink:href="#m7d006c63e8" x="39.65" y="347.416782" style="stroke: #000000; stroke-width: 0.8"/>
      </g>
     </g>
     <g id="text_11">
      <!-- 0 -->
      <g transform="translate(26.2875 351.216)scale(0.1 -0.1)">
       <use xlink:href="#DejaVuSans-30"/>
      </g>
     </g>
    </g>
    <g id="ytick_2">
     <g id="line2d_12">
      <g>
       <use xlink:href="#m7d006c63e8" x="39.65" y="302.349718" style="stroke: #000000; stroke-width: 0.8"/>
      </g>
     </g>
     <g id="text_12">
      <!-- 200 -->
      <g transform="translate(13.5625 306.148936)scale(0.1 -0.1)">
       <use xlink:href="#DejaVuSans-32"/>
       <use xlink:href="#DejaVuSans-30" x="63.623047"/>
       <use xlink:href="#DejaVuSans-30" x="127.246094"/>
      </g>
     </g>
    </g>
    <g id="ytick_3">
     <g id="line2d_13">
      <g>
       <use xlink:href="#m7d006c63e8" x="39.65" y="257.282654" style="stroke: #000000; stroke-width: 0.8"/>
      </g>
     </g>
     <g id="text_13">
      <!-- 400 -->
      <g transform="translate(13.5625 261.081872)scale(0.1 -0.1)">
       <defs>
        <path id="DejaVuSans-34" d="M 2419 4116 
L 825 1625 
L 2419 1625 
L 2419 4116 
z
M 2253 4666 
L 3047 4666 
L 3047 1625 
L 3713 1625 
L 3713 1100 
L 3047 1100 
L 3047 0 
L 2419 0 
L 2419 1100 
L 313 1100 
L 313 1709 
L 2253 4666 
z
" transform="scale(0.015625)"/>
       </defs>
       <use xlink:href="#DejaVuSans-34"/>
       <use xlink:href="#DejaVuSans-30" x="63.623047"/>
       <use xlink:href="#DejaVuSans-30" x="127.246094"/>
      </g>
     </g>
    </g>
    <g id="ytick_4">
     <g id="line2d_14">
      <g>
       <use xlink:href="#m7d006c63e8" x="39.65" y="212.215589" style="stroke: #000000; stroke-width: 0.8"/>
      </g>
     </g>
     <g id="text_14">
      <!-- 600 -->
      <g transform="translate(13.5625 216.014808)scale(0.1 -0.1)">
       <defs>
        <path id="DejaVuSans-36" d="M 2113 2584 
Q 1688 2584 1439 2293 
Q 1191 2003 1191 1497 
Q 1191 994 1439 701 
Q 1688 409 2113 409 
Q 2538 409 2786 701 
Q 3034 994 3034 1497 
Q 3034 2003 2786 2293 
Q 2538 2584 2113 2584 
z
M 3366 4563 
L 3366 3988 
Q 3128 4100 2886 4159 
Q 2644 4219 2406 4219 
Q 1781 4219 1451 3797 
Q 1122 3375 1075 2522 
Q 1259 2794 1537 2939 
Q 1816 3084 2150 3084 
Q 2853 3084 3261 2657 
Q 3669 2231 3669 1497 
Q 3669 778 3244 343 
Q 2819 -91 2113 -91 
Q 1303 -91 875 529 
Q 447 1150 447 2328 
Q 447 3434 972 4092 
Q 1497 4750 2381 4750 
Q 2619 4750 2861 4703 
Q 3103 4656 3366 4563 
z
" transform="scale(0.015625)"/>
       </defs>
       <use xlink:href="#DejaVuSans-36"/>
       <use xlink:href="#DejaVuSans-30" x="63.623047"/>
       <use xlink:href="#DejaVuSans-30" x="127.246094"/>
      </g>
     </g>
    </g>
    <g id="ytick_5">
     <g id="line2d_15">
      <g>
       <use xlink:href="#m7d006c63e8" x="39.65" y="167.148525" style="stroke: #000000; stroke-width: 0.8"/>
      </g>
     </g>
     <g id="text_15">
      <!-- 800 -->
      <g transform="translate(13.5625 170.947744)scale(0.1 -0.1)">
       <defs>
        <path id="DejaVuSans-38" d="M 2034 2216 
Q 1584 2216 1326 1975 
Q 1069 1734 1069 1313 
Q 1069 891 1326 650 
Q 1584 409 2034 409 
Q 2484 409 2743 651 
Q 3003 894 3003 1313 
Q 3003 1734 2745 1975 
Q 2488 2216 2034 2216 
z
M 1403 2484 
Q 997 2584 770 2862 
Q 544 3141 544 3541 
Q 544 4100 942 4425 
Q 1341 4750 2034 4750 
Q 2731 4750 3128 4425 
Q 3525 4100 3525 3541 
Q 3525 3141 3298 2862 
Q 3072 2584 2669 2484 
Q 3125 2378 3379 2068 
Q 3634 1759 3634 1313 
Q 3634 634 3220 271 
Q 2806 -91 2034 -91 
Q 1263 -91 848 271 
Q 434 634 434 1313 
Q 434 1759 690 2068 
Q 947 2378 1403 2484 
z
M 1172 3481 
Q 1172 3119 1398 2916 
Q 1625 2713 2034 2713 
Q 2441 2713 2670 2916 
Q 2900 3119 2900 3481 
Q 2900 3844 2670 4047 
Q 2441 4250 2034 4250 
Q 1625 4250 1398 4047 
Q 1172 3844 1172 3481 
z
" transform="scale(0.015625)"/>
       </defs>
       <use xlink:href="#DejaVuSans-38"/>
       <use xlink:href="#DejaVuSans-30" x="63.623047"/>
       <use xlink:href="#DejaVuSans-30" x="127.246094"/>
      </g>
     </g>
    </g>
    <g id="ytick_6">
     <g id="line2d_16">
      <g>
       <use xlink:href="#m7d006c63e8" x="39.65" y="122.081461" style="stroke: #000000; stroke-width: 0.8"/>
      </g>
     </g>
     <g id="text_16">
      <!-- 1000 -->
      <g transform="translate(7.2 125.88068)scale(0.1 -0.1)">
       <use xlink:href="#DejaVuSans-31"/>
       <use xlink:href="#DejaVuSans-30" x="63.623047"/>
       <use xlink:href="#DejaVuSans-30" x="127.246094"/>
       <use xlink:href="#DejaVuSans-30" x="190.869141"/>
      </g>
     </g>
    </g>
    <g id="ytick_7">
     <g id="line2d_17">
      <g>
       <use xlink:href="#m7d006c63e8" x="39.65" y="77.014397" style="stroke: #000000; stroke-width: 0.8"/>
      </g>
     </g>
     <g id="text_17">
      <!-- 1200 -->
      <g transform="translate(7.2 80.813616)scale(0.1 -0.1)">
       <use xlink:href="#DejaVuSans-31"/>
       <use xlink:href="#DejaVuSans-32" x="63.623047"/>
       <use xlink:href="#DejaVuSans-30" x="127.246094"/>
       <use xlink:href="#DejaVuSans-30" x="190.869141"/>
      </g>
     </g>
    </g>
   </g>
   <g id="line2d_18">
    <path d="M 100.522727 347.416782 
L 181.60802 347.416782 
L 182.78317 346.740776 
L 183.958319 347.416782 
L 185.133468 347.191446 
L 186.308617 347.416782 
L 187.483766 347.191446 
L 188.658915 346.740776 
L 189.834065 347.416782 
L 191.009214 347.416782 
L 192.184363 347.191446 
L 193.359512 346.740776 
L 194.534661 347.191446 
L 195.70981 346.740776 
L 196.88496 347.416782 
L 199.235258 347.416782 
L 200.410407 347.191446 
L 201.585556 347.416782 
L 203.935855 347.416782 
L 205.111004 347.191446 
L 206.286153 346.290105 
L 207.461302 345.163428 
L 208.636451 347.416782 
L 209.811601 347.416782 
L 212.161899 346.966111 
L 213.337048 347.416782 
L 214.512197 347.416782 
L 215.687346 347.191446 
L 216.862496 347.416782 
L 218.037645 347.191446 
L 219.212794 347.191446 
L 220.387943 346.966111 
L 221.563092 347.416782 
L 222.738241 346.966111 
L 223.913391 347.416782 
L 225.08854 347.416782 
L 226.263689 344.487423 
L 227.438838 347.416782 
L 228.613987 347.191446 
L 229.789137 347.416782 
L 230.964286 346.06477 
L 232.139435 347.416782 
L 233.314584 347.416782 
L 234.489733 346.966111 
L 235.664882 346.290105 
L 236.840032 347.416782 
L 238.015181 347.416782 
L 239.19033 347.191446 
L 240.365479 347.191446 
L 241.540628 345.163428 
L 242.715777 347.416782 
L 243.890927 347.191446 
L 245.066076 343.360746 
L 246.241225 347.416782 
L 247.416374 347.416782 
L 248.591523 324.432579 
L 249.766673 331.643309 
L 250.941822 346.06477 
L 252.116971 346.290105 
L 253.29212 335.699345 
L 254.467269 342.459405 
L 255.642418 344.938093 
L 256.817568 342.008734 
L 257.992717 343.811417 
L 259.167866 347.416782 
L 260.343015 340.882057 
L 261.518164 346.290105 
L 262.693313 344.712758 
L 263.868463 347.416782 
L 265.043612 341.558063 
L 266.218761 347.416782 
L 267.39391 336.600686 
L 268.569059 343.360746 
L 269.744208 345.614099 
L 270.919358 345.388764 
L 272.094507 345.614099 
L 273.269656 342.910075 
L 274.444805 341.107393 
L 275.619954 347.416782 
L 276.795104 322.629896 
L 277.970253 343.135411 
L 279.145402 335.248674 
L 280.320551 316.320507 
L 281.4957 343.135411 
L 282.670849 337.276692 
L 283.845999 339.980716 
L 285.021148 323.080567 
L 286.196297 346.06477 
L 287.371446 331.192639 
L 288.546595 338.178034 
L 289.721744 330.065962 
L 290.896894 312.264472 
L 292.072043 321.50322 
L 293.247192 347.416782 
L 294.422341 318.348525 
L 295.59749 330.291297 
L 296.77264 337.051357 
L 297.947789 329.840627 
L 299.122938 318.799196 
L 300.298087 304.1524 
L 301.473236 324.207244 
L 302.648385 332.544651 
L 303.823535 332.319315 
L 304.998684 321.052549 
L 306.173833 325.33392 
L 307.348982 326.460597 
L 308.524131 346.290105 
L 309.69928 325.559256 
L 310.87443 328.263279 
L 312.049579 335.47401 
L 313.224728 289.505604 
L 314.399877 347.416782 
L 315.575026 313.391148 
L 316.750176 347.416782 
L 317.925325 305.279077 
L 319.100474 342.008734 
L 320.275623 337.276692 
L 321.450772 340.882057 
L 322.625921 320.376543 
L 323.801071 297.843011 
L 324.97622 323.080567 
L 326.151369 337.276692 
L 327.326518 338.178034 
L 328.501667 327.361938 
L 329.676816 332.769986 
L 330.851966 332.769986 
L 332.027115 328.488615 
L 333.202264 336.375351 
L 334.377413 339.755381 
L 335.552562 343.811417 
L 336.727711 338.403369 
L 337.902861 338.854039 
L 339.07801 311.36313 
L 340.253159 330.291297 
L 341.428308 338.854039 
L 342.603457 337.051357 
L 343.778607 335.47401 
L 344.953756 332.09398 
L 346.128905 336.826022 
L 347.304054 337.952698 
L 348.479203 338.403369 
L 349.654352 333.896662 
L 352.004651 346.290105 
L 353.1798 346.51544 
L 354.354949 335.92468 
L 355.530098 342.459405 
L 356.705247 341.332728 
L 357.880397 346.290105 
L 359.055546 345.614099 
L 360.230695 340.656722 
L 361.405844 345.163428 
L 362.580993 346.740776 
L 363.756143 344.262087 
L 364.931292 344.036752 
L 366.106441 346.740776 
L 367.28159 346.740776 
L 368.456739 345.839434 
L 369.631888 345.388764 
L 370.807038 342.234069 
L 371.982187 346.966111 
L 373.157336 344.262087 
L 374.332485 345.388764 
L 375.507634 344.712758 
L 376.682783 345.839434 
L 377.857933 346.51544 
L 379.033082 346.740776 
L 380.208231 345.839434 
L 381.38338 346.290105 
L 382.558529 346.966111 
L 383.733678 344.487423 
L 384.908828 346.966111 
L 386.083977 346.06477 
L 387.259126 345.839434 
L 388.434275 347.191446 
L 389.609424 343.586081 
L 390.784574 346.966111 
L 394.310021 346.966111 
L 395.48517 347.191446 
L 396.660319 346.06477 
L 397.835469 346.51544 
L 399.010618 347.416782 
L 400.185767 346.740776 
L 401.360916 345.614099 
L 402.536065 346.966111 
L 403.711214 345.839434 
L 404.886364 346.06477 
L 406.061513 346.51544 
L 407.236662 345.614099 
L 408.411811 347.416782 
L 409.58696 346.740776 
L 410.76211 346.740776 
L 411.937259 346.966111 
L 413.112408 345.839434 
L 414.287557 346.06477 
L 415.462706 345.163428 
L 416.637855 346.290105 
L 418.988154 347.191446 
L 420.163303 346.740776 
L 421.338452 345.163428 
L 422.513601 344.938093 
L 423.68875 346.966111 
L 426.039049 346.51544 
L 427.214198 346.740776 
L 428.389347 345.839434 
L 429.564496 344.712758 
L 430.739645 345.839434 
L 431.914795 345.839434 
L 433.089944 346.966111 
L 434.265093 347.191446 
L 435.440242 347.191446 
L 436.615391 347.416782 
L 437.790541 346.06477 
L 438.96569 346.966111 
L 440.140839 346.06477 
L 441.315988 346.740776 
L 442.491137 346.966111 
L 443.666286 347.416782 
L 444.841436 346.966111 
L 447.191734 346.51544 
L 448.366883 346.966111 
L 449.542032 347.191446 
L 450.717181 346.06477 
L 451.892331 347.416782 
L 453.06748 341.107393 
L 454.242629 346.740776 
L 455.417778 347.191446 
L 456.592927 347.416782 
L 457.768077 347.416782 
L 458.943226 346.06477 
L 460.118375 345.614099 
L 461.293524 347.191446 
L 462.468673 346.966111 
L 463.643822 346.51544 
L 464.818972 347.191446 
L 465.994121 347.416782 
L 467.16927 346.740776 
L 468.344419 347.416782 
L 469.519568 344.712758 
L 470.694717 346.740776 
L 471.869867 346.51544 
L 473.045016 346.966111 
L 474.220165 346.966111 
L 475.395314 347.416782 
L 478.920762 347.416782 
L 481.27106 345.614099 
L 482.446209 346.740776 
L 483.621358 346.51544 
L 484.796508 345.163428 
L 485.971657 344.938093 
L 487.146806 336.826022 
L 488.321955 345.163428 
L 489.497104 346.290105 
L 490.672253 345.614099 
L 491.847403 338.178034 
L 493.022552 337.051357 
L 494.197701 344.487423 
L 495.37285 343.811417 
L 496.547999 333.445992 
L 497.723148 346.51544 
L 498.898298 344.938093 
L 500.073447 342.234069 
L 501.248596 344.938093 
L 502.423745 328.71395 
L 503.598894 322.179226 
L 504.774044 324.657914 
L 505.949193 341.107393 
L 507.124342 317.672519 
L 508.299491 326.911268 
L 509.47464 307.983101 
L 510.649789 296.265664 
L 511.824939 285.674904 
L 513.000088 276.661491 
L 514.175237 261.564025 
L 515.350386 286.80158 
L 516.525535 245.565217 
L 517.700684 347.416782 
L 518.875834 263.366707 
L 520.050983 214.243607 
L 521.226132 69.803667 
L 522.401281 220.778332 
L 523.57643 193.062087 
L 524.75158 221.905008 
L 525.926729 155.205753 
L 527.101878 128.616186 
L 528.277027 77.465068 
L 529.452176 50.8755 
L 530.627325 105.406648 
L 531.802475 131.996215 
L 532.977624 214.018272 
L 534.152773 157.459107 
L 535.327922 160.388466 
L 536.503071 202.300835 
L 537.67822 186.076692 
L 538.85337 239.931834 
L 540.028519 242.410522 
L 541.203668 256.831983 
L 542.378817 226.186379 
L 543.553966 224.383697 
L 544.729115 249.395917 
L 547.079414 231.369092 
L 548.254563 275.309479 
L 549.429712 296.265664 
L 550.604861 279.816186 
L 551.780011 273.506797 
L 552.95516 297.843011 
L 554.130309 266.296066 
L 555.305458 291.984293 
L 556.480607 311.588466 
L 557.655756 314.517825 
L 558.830906 293.336305 
L 560.006055 299.420358 
L 561.181204 301.673712 
L 562.356353 248.269241 
L 563.531502 290.857616 
L 564.706651 299.195023 
L 565.881801 302.349718 
L 567.05695 310.461789 
L 568.232099 304.828406 
L 569.407248 300.77237 
L 570.582397 308.433771 
L 571.757547 319.700537 
L 572.932696 314.29249 
L 574.107845 333.220656 
L 575.282994 315.869837 
L 576.458143 329.164621 
L 577.633292 335.248674 
L 578.808442 347.416782 
L 579.983591 321.50322 
L 581.15874 337.502028 
L 582.333889 341.332728 
L 583.509038 334.121998 
L 584.684187 328.037944 
L 585.859337 334.121998 
L 587.034486 330.967303 
L 588.209635 337.727363 
L 589.384784 347.416782 
L 590.559933 330.516633 
L 591.735082 340.656722 
L 592.910232 330.291297 
L 594.085381 330.516633 
L 595.26053 318.348525 
L 596.435679 337.952698 
L 597.610828 342.68474 
L 598.785978 339.980716 
L 599.961127 335.47401 
L 601.136276 340.431387 
L 602.311425 339.980716 
L 603.486574 341.107393 
L 604.661723 337.727363 
L 605.836873 342.234069 
L 607.012022 342.008734 
L 608.187171 342.910075 
L 609.36232 341.558063 
L 610.537469 339.980716 
L 611.712618 335.023339 
L 612.887768 345.614099 
L 614.062917 344.262087 
L 615.238066 344.712758 
L 616.413215 344.712758 
L 617.588364 339.980716 
L 618.763514 342.910075 
L 619.938663 338.178034 
L 621.113812 341.558063 
L 622.288961 342.459405 
L 623.46411 340.206051 
L 624.639259 344.487423 
L 625.814409 343.135411 
L 626.989558 344.938093 
L 628.164707 343.586081 
L 629.339856 347.416782 
L 630.515005 342.459405 
L 631.690154 343.360746 
L 632.865304 345.388764 
L 634.040453 345.839434 
L 635.215602 344.262087 
L 636.390751 347.416782 
L 637.5659 342.459405 
L 638.741049 346.290105 
L 639.916199 346.290105 
L 641.091348 345.163428 
L 642.266497 342.68474 
L 643.441646 345.163428 
L 644.616795 343.811417 
L 645.791945 343.586081 
L 646.967094 347.191446 
L 648.142243 346.740776 
L 649.317392 342.008734 
L 650.492541 342.910075 
L 651.66769 345.614099 
L 652.84284 345.839434 
L 654.017989 345.614099 
L 655.193138 346.290105 
L 656.368287 345.388764 
L 657.543436 346.740776 
L 658.718585 347.416782 
L 659.893735 343.586081 
L 661.068884 347.416782 
L 662.244033 345.163428 
L 663.419182 346.51544 
L 664.594331 346.966111 
L 665.769481 344.036752 
L 666.94463 345.839434 
L 668.119779 344.487423 
L 669.294928 345.163428 
L 670.470077 344.487423 
L 671.645226 345.163428 
L 672.820376 345.388764 
L 673.995525 346.966111 
L 675.170674 345.388764 
L 676.345823 347.416782 
L 677.520972 343.135411 
L 678.696121 346.06477 
L 679.871271 346.06477 
L 681.04642 346.740776 
L 682.221569 345.614099 
L 683.396718 344.262087 
L 684.571867 346.290105 
L 685.747016 346.06477 
L 686.922166 344.487423 
L 688.097315 346.06477 
L 689.272464 344.487423 
L 690.447613 345.839434 
L 691.622762 342.459405 
L 692.797912 344.036752 
L 693.973061 342.234069 
L 695.14821 344.036752 
L 696.323359 347.416782 
L 697.498508 329.615291 
L 698.673657 342.008734 
L 699.848807 333.445992 
L 701.023956 335.699345 
L 702.199105 329.615291 
L 703.374254 335.92468 
L 704.549403 339.30471 
L 705.724552 337.051357 
L 708.074851 320.601879 
L 709.25 323.981908 
L 710.425149 309.335113 
L 711.600298 310.011118 
L 712.775448 330.516633 
L 713.950597 329.389956 
L 715.125746 305.053741 
L 716.300895 295.814993 
L 717.476044 294.913652 
L 718.651193 299.195023 
L 719.826343 291.758958 
L 721.001492 323.531238 
L 722.176641 317.897855 
L 723.35179 277.788168 
L 724.526939 304.603071 
L 725.702088 251.1986 
L 726.877238 245.790552 
L 728.052387 232.045098 
L 729.227536 293.336305 
L 730.402685 295.138987 
L 732.752984 171.429896 
L 733.928133 170.528555 
L 735.103282 177.063279 
L 736.278431 169.627214 
L 737.45358 251.1986 
L 738.628729 269.225425 
L 739.803879 152.051059 
L 740.979028 171.429896 
L 742.154177 132.897557 
L 743.329326 156.33243 
L 744.504475 166.92319 
L 745.679624 218.750314 
L 746.854774 263.592042 
L 748.029923 179.992639 
L 749.205072 205.680865 
L 750.380221 176.161938 
L 751.55537 196.892788 
L 752.730519 226.186379 
L 753.905669 283.421551 
L 755.080818 267.197408 
L 757.431116 195.31544 
L 758.606265 226.411715 
L 759.781415 234.073115 
L 760.956564 239.030493 
L 762.131713 297.617676 
L 763.306862 298.969688 
L 764.482011 248.494576 
L 766.83231 275.084144 
L 768.007459 269.225425 
L 769.182608 285.224233 
L 770.357757 305.279077 
L 771.532906 316.320507 
L 772.708055 292.434963 
L 773.883205 258.183995 
L 775.058354 305.279077 
L 776.233503 302.124382 
L 777.408652 313.616484 
L 778.583801 331.192639 
L 779.758951 312.940478 
L 780.9341 310.687124 
L 782.109249 309.785783 
L 783.284398 316.771178 
L 784.459547 317.897855 
L 785.634696 326.685932 
L 786.809846 340.206051 
L 787.984995 338.178034 
L 789.160144 323.080567 
L 790.335293 327.361938 
L 791.510442 329.389956 
L 792.685591 332.769986 
L 793.860741 330.516633 
L 795.03589 343.360746 
L 796.211039 340.431387 
L 797.386188 337.051357 
L 798.561337 332.319315 
L 799.736486 340.656722 
L 800.911636 334.572668 
L 802.086785 337.051357 
L 803.261934 344.036752 
L 804.437083 342.008734 
L 805.612232 339.755381 
L 806.787382 339.30471 
L 807.962531 337.727363 
L 809.13768 339.079375 
L 810.312829 336.150016 
L 811.487978 341.558063 
L 812.663127 343.135411 
L 813.838277 339.755381 
L 815.013426 343.586081 
L 816.188575 342.910075 
L 817.363724 342.459405 
L 818.538873 342.459405 
L 819.714022 344.712758 
L 820.889172 345.614099 
L 822.064321 344.938093 
L 823.23947 342.008734 
L 824.414619 341.107393 
L 825.589768 343.586081 
L 826.764918 344.712758 
L 827.940067 346.740776 
L 829.115216 345.839434 
L 830.290365 345.163428 
L 831.465514 345.163428 
L 832.640663 345.388764 
L 833.815813 344.036752 
L 834.990962 345.388764 
L 836.166111 346.51544 
L 837.34126 346.740776 
L 838.516409 344.036752 
L 839.691558 346.290105 
L 840.866708 346.740776 
L 842.041857 345.839434 
L 843.217006 346.740776 
L 844.392155 346.51544 
L 845.567304 345.163428 
L 846.742453 346.06477 
L 847.917603 346.06477 
L 849.092752 345.839434 
L 850.267901 346.966111 
L 851.44305 345.163428 
L 852.618199 347.416782 
L 853.793349 345.614099 
L 854.968498 347.191446 
L 856.143647 345.614099 
L 857.318796 345.614099 
L 858.493945 345.839434 
L 859.669094 346.290105 
L 860.844244 346.966111 
L 862.019393 346.51544 
L 863.194542 346.966111 
L 865.54484 347.416782 
L 866.719989 347.416782 
L 867.895139 344.712758 
L 869.070288 347.416782 
L 870.245437 346.740776 
L 871.420586 346.740776 
L 872.595735 344.938093 
L 873.770885 346.966111 
L 874.946034 345.839434 
L 876.121183 346.966111 
L 877.296332 347.416782 
L 878.471481 346.966111 
L 879.64663 347.191446 
L 880.82178 345.614099 
L 881.996929 346.51544 
L 884.347227 346.966111 
L 885.522376 347.416782 
L 886.697525 346.966111 
L 887.872675 347.416782 
L 889.047824 346.966111 
L 890.222973 346.290105 
L 891.398122 344.262087 
L 892.573271 346.740776 
L 893.74842 345.614099 
L 894.92357 346.51544 
L 896.098719 344.036752 
L 897.273868 345.163428 
L 898.449017 345.163428 
L 899.624166 344.487423 
L 900.799316 343.586081 
L 901.974465 344.036752 
L 903.149614 343.811417 
L 904.324763 343.360746 
L 905.499912 338.854039 
L 906.675061 339.530045 
L 909.02536 328.71395 
L 910.200509 339.530045 
L 911.375658 321.50322 
L 912.550807 294.462981 
L 913.725956 275.76015 
L 914.901106 240.382504 
L 916.076255 226.63705 
L 917.251404 241.959852 
L 918.426553 273.281461 
L 919.601702 238.805157 
L 920.776852 134.925575 
L 921.952001 96.843905 
L 924.302299 62.367601 
L 925.477448 134.024233 
L 926.652597 274.182803 
L 927.827747 224.834367 
L 929.002896 215.820955 
L 930.178045 98.871923 
L 931.353194 130.418868 
L 932.528343 150.473712 
L 933.703492 177.739285 
L 934.878642 293.786975 
L 936.053791 295.814993 
L 937.22894 233.39711 
L 938.404089 160.839136 
L 939.579238 172.556573 
L 940.754388 194.86477 
L 941.929537 205.230194 
L 943.104686 285.674904 
L 944.279835 283.872221 
L 945.454984 212.66626 
L 946.630133 224.158361 
L 947.805283 240.157169 
L 948.980432 263.592042 
L 950.155581 292.434963 
L 951.33073 299.420358 
L 952.505879 330.967303 
L 953.681028 306.180418 
L 954.856178 292.434963 
L 956.031327 305.955083 
L 957.206476 310.91246 
L 958.381625 302.349718 
L 959.556774 334.347333 
L 960.731923 323.981908 
L 961.907073 328.037944 
L 963.082222 326.685932 
L 964.257371 320.601879 
L 965.43252 328.263279 
L 966.607669 329.389956 
L 967.782819 340.431387 
L 968.957968 335.023339 
L 970.133117 325.559256 
L 971.308266 333.896662 
L 972.483415 333.671327 
L 973.658564 337.276692 
L 974.833714 334.572668 
L 976.008863 343.360746 
L 977.184012 340.431387 
L 978.359161 340.206051 
L 979.53431 338.628704 
L 980.709459 342.68474 
L 981.884609 338.854039 
L 983.059758 339.530045 
L 984.234907 343.811417 
L 985.410056 345.614099 
L 986.585205 340.206051 
L 987.760355 338.178034 
L 988.935504 341.107393 
L 990.110653 337.276692 
L 991.285802 341.558063 
L 992.460951 344.262087 
L 993.6361 345.388764 
L 994.81125 345.163428 
L 995.986399 343.135411 
L 999.511846 343.135411 
L 1000.686995 344.262087 
L 1003.037294 345.614099 
L 1004.212443 344.036752 
L 1005.387592 342.68474 
L 1006.562741 344.487423 
L 1007.73789 344.036752 
L 1008.91304 343.360746 
L 1010.088189 344.938093 
L 1011.263338 344.712758 
L 1012.438487 345.388764 
L 1013.613636 344.036752 
L 1014.788786 345.163428 
L 1015.963935 345.388764 
L 1017.139084 346.51544 
L 1018.314233 347.416782 
L 1019.489382 343.811417 
L 1020.664531 344.938093 
L 1021.839681 344.487423 
L 1023.01483 346.290105 
L 1024.189979 344.712758 
L 1025.365128 346.290105 
L 1026.540277 346.966111 
L 1027.715426 346.740776 
L 1028.890576 345.614099 
L 1030.065725 344.712758 
L 1031.240874 345.163428 
L 1032.416023 344.712758 
L 1033.591172 346.966111 
L 1034.766322 345.163428 
L 1035.941471 346.290105 
L 1037.11662 346.06477 
L 1038.291769 345.388764 
L 1039.466918 345.163428 
L 1040.642067 345.839434 
L 1041.817217 345.839434 
L 1042.992366 347.416782 
L 1044.167515 346.740776 
L 1045.342664 345.388764 
L 1046.517813 345.839434 
L 1047.692962 344.938093 
L 1048.868112 345.614099 
L 1050.043261 347.191446 
L 1051.21841 346.966111 
L 1052.393559 346.966111 
L 1053.568708 346.06477 
L 1054.743857 346.51544 
L 1055.919007 346.06477 
L 1057.094156 346.51544 
L 1058.269305 347.191446 
L 1059.444454 347.416782 
L 1060.619603 347.416782 
L 1061.794753 345.839434 
L 1062.969902 346.06477 
L 1064.145051 346.966111 
L 1065.3202 346.51544 
L 1066.495349 347.416782 
L 1067.670498 347.416782 
L 1068.845648 346.290105 
L 1070.020797 345.388764 
L 1071.195946 346.06477 
L 1072.371095 344.262087 
L 1073.546244 347.416782 
L 1074.721393 347.416782 
L 1075.896543 345.388764 
L 1077.071692 347.416782 
L 1078.246841 346.290105 
L 1079.42199 346.966111 
L 1080.597139 346.740776 
L 1081.772289 344.938093 
L 1082.947438 347.416782 
L 1084.122587 347.416782 
L 1085.297736 344.262087 
L 1086.472885 343.586081 
L 1087.648034 344.487423 
L 1088.823184 344.938093 
L 1089.998333 342.68474 
L 1091.173482 347.191446 
L 1092.348631 347.191446 
L 1093.52378 346.06477 
L 1094.698929 346.740776 
L 1095.874079 344.938093 
L 1097.049228 345.388764 
L 1098.224377 344.938093 
L 1099.399526 347.416782 
L 1100.574675 346.06477 
L 1101.749824 345.614099 
L 1102.924974 347.416782 
L 1104.100123 347.416782 
L 1105.275272 342.68474 
L 1106.450421 347.416782 
L 1107.62557 345.388764 
L 1108.80072 346.290105 
L 1109.975869 345.839434 
L 1111.151018 346.06477 
L 1112.326167 346.51544 
L 1113.501316 346.06477 
L 1114.676465 345.163428 
L 1115.851615 347.416782 
L 1117.026764 344.938093 
L 1118.201913 344.262087 
L 1119.377062 345.839434 
L 1120.552211 344.036752 
L 1121.72736 343.586081 
L 1122.90251 344.036752 
L 1124.077659 343.586081 
L 1125.252808 347.416782 
L 1126.427957 341.332728 
L 1127.603106 344.712758 
L 1128.778256 343.811417 
L 1129.953405 341.332728 
L 1131.128554 344.487423 
L 1132.303703 346.966111 
L 1133.478852 342.68474 
L 1134.654001 342.008734 
L 1135.829151 338.854039 
L 1138.179449 341.107393 
L 1139.354598 347.416782 
L 1140.529747 347.416782 
L 1141.704896 333.445992 
L 1142.880046 338.854039 
L 1144.055195 340.656722 
L 1145.230344 341.107393 
L 1146.405493 341.107393 
L 1147.580642 340.431387 
L 1148.755792 344.938093 
L 1149.930941 342.008734 
L 1151.10609 341.558063 
L 1152.281239 343.135411 
L 1153.456388 344.487423 
L 1154.631537 336.600686 
L 1155.806687 347.416782 
L 1156.981836 339.530045 
L 1158.156985 345.388764 
L 1159.332134 336.375351 
L 1161.682432 347.416782 
L 1162.857582 330.065962 
L 1164.032731 347.416782 
L 1165.20788 340.431387 
L 1166.383029 339.079375 
L 1167.558178 347.416782 
L 1168.733327 316.545843 
L 1169.908477 335.92468 
L 1171.083626 347.416782 
L 1172.258775 347.416782 
L 1173.433924 328.939285 
L 1174.609073 344.712758 
L 1175.784223 339.30471 
L 1176.959372 339.079375 
L 1178.134521 337.952698 
L 1179.30967 340.656722 
L 1181.659968 347.416782 
L 1182.835118 344.036752 
L 1184.010267 335.92468 
L 1185.185416 338.854039 
L 1186.360565 339.980716 
L 1187.535714 342.234069 
L 1188.710863 336.826022 
L 1189.886013 345.163428 
L 1191.061162 346.740776 
L 1192.236311 345.839434 
L 1193.41146 339.980716 
L 1194.586609 342.68474 
L 1195.761759 344.262087 
L 1196.936908 346.290105 
L 1198.112057 347.191446 
L 1199.287206 345.839434 
L 1200.462355 344.262087 
L 1201.637504 347.416782 
L 1202.812654 340.431387 
L 1203.987803 345.614099 
L 1205.162952 345.614099 
L 1206.338101 346.51544 
L 1207.51325 346.740776 
L 1208.688399 345.839434 
L 1209.863549 347.416782 
L 1211.038698 342.68474 
L 1212.213847 344.262087 
L 1213.388996 346.06477 
L 1214.564145 346.290105 
L 1215.739294 346.740776 
L 1216.914444 344.262087 
L 1218.089593 346.51544 
L 1219.264742 343.586081 
L 1220.439891 347.416782 
L 1221.61504 343.586081 
L 1222.79019 345.839434 
L 1223.965339 345.839434 
L 1225.140488 346.51544 
L 1226.315637 347.416782 
L 1227.490786 344.036752 
L 1228.665935 346.06477 
L 1229.841085 347.416782 
L 1231.016234 347.416782 
L 1232.191383 345.163428 
L 1233.366532 347.416782 
L 1234.541681 346.740776 
L 1235.71683 347.416782 
L 1236.89198 347.416782 
L 1238.067129 341.558063 
L 1239.242278 345.614099 
L 1240.417427 347.191446 
L 1241.592576 347.416782 
L 1242.767726 345.163428 
L 1243.942875 346.06477 
L 1245.118024 345.614099 
L 1246.293173 347.416782 
L 1250.99377 347.416782 
L 1252.168919 343.135411 
L 1253.344068 346.51544 
L 1254.519217 347.416782 
L 1255.694366 347.191446 
L 1256.869516 347.191446 
L 1258.044665 346.51544 
L 1259.219814 347.191446 
L 1260.394963 346.51544 
L 1261.570112 346.966111 
L 1262.745261 346.51544 
L 1263.920411 347.191446 
L 1265.09556 347.191446 
L 1267.445858 346.290105 
L 1268.621007 347.416782 
L 1269.796157 346.966111 
L 1270.971306 347.416782 
L 1273.321604 347.416782 
L 1274.496753 346.51544 
L 1275.671902 346.740776 
L 1276.847052 347.191446 
L 1278.022201 347.416782 
L 1279.19735 345.614099 
L 1280.372499 347.416782 
L 1293.29914 347.416782 
L 1294.474289 341.558063 
L 1295.649438 347.416782 
L 1296.824588 347.416782 
L 1297.999737 353.2755 
L 1299.174886 341.558063 
L 1301.525184 353.2755 
L 1301.525184 353.2755 
" clip-path="url(#pe873045ea9)" style="fill: none; stroke: #0000ff; stroke-width: 1.5; stroke-linecap: square"/>
   </g>
   <g id="line2d_19">
    <path d="M 1061.794753 346.841602 
L 1064.145051 345.990242 
L 1065.3202 346.923326 
L 1066.495349 347.025861 
L 1067.670498 347.393682 
L 1068.845648 347.372453 
L 1070.020797 345.888992 
L 1071.195946 345.79301 
L 1072.371095 346.361006 
L 1073.546244 344.86027 
L 1074.721393 347.147307 
L 1075.896543 347.171295 
L 1077.071692 345.478402 
L 1078.246841 346.314584 
L 1079.42199 346.489478 
L 1080.597139 346.061435 
L 1081.772289 347.78013 
L 1082.947438 345.980178 
L 1084.122587 346.253535 
L 1085.297736 347.708766 
L 1086.472885 344.789268 
L 1089.998333 344.301999 
L 1091.173482 344.315615 
L 1092.348631 346.118327 
L 1093.52378 345.403523 
L 1094.698929 345.287201 
L 1095.874079 346.595953 
L 1098.224377 344.476244 
L 1099.399526 346.959896 
L 1100.574675 347.190166 
L 1101.749824 345.699353 
L 1104.100123 346.231 
L 1105.275272 347.102234 
L 1106.450421 343.730783 
L 1107.62557 347.92607 
L 1108.80072 345.48204 
L 1109.975869 345.81952 
L 1111.151018 346.617694 
L 1112.326167 346.117353 
L 1113.501316 344.428939 
L 1114.676465 347.410016 
L 1115.851615 345.252888 
L 1117.026764 347.066359 
L 1118.201913 345.294821 
L 1119.377062 345.02998 
L 1120.552211 345.8331 
L 1121.72736 344.048457 
L 1122.90251 343.889231 
L 1124.077659 344.906157 
L 1125.252808 343.049793 
L 1126.427957 345.625807 
L 1127.603106 343.262236 
L 1128.778256 343.728075 
L 1129.953405 343.415337 
L 1131.128554 342.24955 
L 1132.303703 343.83068 
L 1133.478852 347.147854 
L 1134.654001 341.307977 
L 1135.829151 343.652196 
L 1137.0043 340.040601 
L 1138.179449 339.267628 
L 1139.354598 341.938765 
L 1140.529747 346.395716 
L 1141.704896 345.028316 
L 1142.880046 336.560077 
L 1144.055195 337.896115 
L 1145.230344 340.067853 
L 1146.405493 340.776373 
L 1147.580642 343.841569 
L 1148.755792 341.80061 
L 1149.930941 337.775619 
L 1151.10609 342.463139 
L 1152.281239 342.060508 
L 1154.631537 343.920424 
L 1155.806687 339.37371 
L 1156.981836 347.088631 
L 1158.156985 339.185766 
L 1159.332134 343.907683 
L 1160.507283 339.459871 
L 1161.682432 342.25638 
L 1162.857582 342.11312 
L 1164.032731 338.626643 
L 1165.20788 342.168302 
L 1166.383029 342.552033 
L 1167.558178 336.51821 
L 1168.733327 346.395211 
L 1169.908477 328.815919 
L 1171.083626 327.503767 
L 1172.258775 348.637419 
L 1173.433924 342.625196 
L 1174.609073 333.366488 
L 1175.784223 344.535169 
L 1176.959372 327.744874 
L 1178.134521 344.116586 
L 1179.30967 342.608416 
L 1180.484819 343.327534 
L 1181.659968 335.361725 
L 1182.835118 349.850859 
L 1184.010267 343.369045 
L 1185.185416 336.19283 
L 1186.360565 339.836556 
L 1187.535714 341.685408 
L 1188.710863 343.795838 
L 1189.886013 338.9887 
L 1191.061162 343.406719 
L 1192.236311 341.343475 
L 1193.41146 344.613995 
L 1194.586609 341.923336 
L 1195.761759 344.018131 
L 1196.936908 342.208979 
L 1198.112057 348.341534 
L 1199.287206 347.921251 
L 1200.462355 345.447941 
L 1201.637504 342.48798 
L 1202.812654 347.103121 
L 1203.987803 343.382849 
L 1205.162952 345.755165 
L 1206.338101 346.676652 
L 1208.688399 345.62364 
L 1209.863549 346.597198 
L 1211.038698 344.357232 
L 1212.213847 345.620983 
L 1213.388996 344.961021 
L 1214.564145 346.412626 
L 1215.739294 346.282626 
L 1218.089593 345.6991 
L 1219.264742 343.78003 
L 1220.439891 344.777078 
L 1221.61504 347.276373 
L 1222.79019 344.906141 
L 1223.965339 345.952749 
L 1225.140488 344.683919 
L 1226.315637 347.004949 
L 1227.490786 345.351387 
L 1228.665935 346.313823 
L 1229.841085 344.758079 
L 1231.016234 347.520805 
L 1232.191383 347.286281 
L 1233.366532 345.937434 
L 1234.541681 347.666456 
L 1235.71683 345.183889 
L 1236.89198 347.921354 
L 1238.067129 347.71268 
L 1239.242278 343.955965 
L 1240.417427 344.563204 
L 1241.592576 347.212465 
L 1242.767726 346.957882 
L 1243.942875 345.667898 
L 1245.118024 346.301639 
L 1246.293173 343.397713 
L 1247.468322 347.820974 
L 1248.643471 347.733445 
L 1249.818621 347.782746 
L 1250.99377 346.563131 
L 1252.168919 347.519296 
L 1253.344068 344.492379 
L 1254.519217 346.420291 
L 1255.694366 347.33 
L 1258.044665 347.254177 
L 1259.219814 346.580485 
L 1260.394963 345.26983 
L 1261.570112 347.458147 
L 1262.745261 347.475914 
L 1263.920411 346.846798 
L 1265.09556 347.169233 
L 1266.270709 346.895385 
L 1267.445858 347.042501 
L 1268.621007 345.928393 
L 1269.796157 347.426735 
L 1270.971306 346.918882 
L 1272.146455 347.537546 
L 1273.321604 347.426271 
L 1274.496753 347.172437 
L 1275.671902 346.607098 
L 1276.847052 347.102681 
L 1278.022201 347.062598 
L 1279.19735 347.456193 
L 1280.372499 346.297228 
L 1281.547648 347.161027 
L 1282.722797 346.830607 
L 1285.073096 347.563546 
L 1286.248245 347.519449 
L 1287.423394 346.719521 
L 1288.598543 347.963224 
L 1289.773693 347.557347 
L 1290.948842 347.4119 
L 1294.474289 347.45952 
L 1295.649438 343.520731 
L 1296.824588 346.664621 
L 1297.999737 346.941866 
L 1299.174886 350.892266 
L 1300.350035 344.349656 
L 1301.525184 346.968739 
L 1301.525184 346.968739 
" clip-path="url(#pe873045ea9)" style="fill: none; stroke: #ffa500; stroke-width: 1.5; stroke-linecap: square"/>
   </g>
   <g id="line2d_20">
    <path d="M 1302.700333 348.410327 
L 1303.875483 350.361098 
L 1305.050632 350.270345 
L 1306.225781 352.758234 
L 1307.40093 347.717206 
L 1308.576079 350.231938 
L 1309.751229 352.749331 
L 1310.926378 350.159851 
L 1312.101527 351.492613 
L 1313.276676 351.459845 
L 1314.451825 353.029095 
L 1315.626974 349.861891 
L 1316.802124 351.442774 
L 1317.977273 353.025108 
" clip-path="url(#pe873045ea9)" style="fill: none; stroke: #ff0000; stroke-width: 1.5; stroke-linecap: square"/>
   </g>
   <g id="patch_3">
    <path d="M 39.65 368.3955 
L 39.65 35.7555 
" style="fill: none; stroke: #000000; stroke-width: 0.8; stroke-linejoin: miter; stroke-linecap: square"/>
   </g>
   <g id="patch_4">
    <path d="M 1378.85 368.3955 
L 1378.85 35.7555 
" style="fill: none; stroke: #000000; stroke-width: 0.8; stroke-linejoin: miter; stroke-linecap: square"/>
   </g>
   <g id="patch_5">
    <path d="M 39.65 368.3955 
L 1378.85 368.3955 
" style="fill: none; stroke: #000000; stroke-width: 0.8; stroke-linejoin: miter; stroke-linecap: square"/>
   </g>
   <g id="patch_6">
    <path d="M 39.65 35.7555 
L 1378.85 35.7555 
" style="fill: none; stroke: #000000; stroke-width: 0.8; stroke-linejoin: miter; stroke-linecap: square"/>
   </g>
   <g id="text_18">
    <!-- Daily Confirmed Cases Forecasting - Malawi -->
    <g transform="translate(577.978438 16.318125)scale(0.12 -0.12)">
     <defs>
      <path id="DejaVuSans-44" d="M 1259 4147 
L 1259 519 
L 2022 519 
Q 2988 519 3436 956 
Q 3884 1394 3884 2338 
Q 3884 3275 3436 3711 
Q 2988 4147 2022 4147 
L 1259 4147 
z
M 628 4666 
L 1925 4666 
Q 3281 4666 3915 4102 
Q 4550 3538 4550 2338 
Q 4550 1131 3912 565 
Q 3275 0 1925 0 
L 628 0 
L 628 4666 
z
" transform="scale(0.015625)"/>
      <path id="DejaVuSans-61" d="M 2194 1759 
Q 1497 1759 1228 1600 
Q 959 1441 959 1056 
Q 959 750 1161 570 
Q 1363 391 1709 391 
Q 2188 391 2477 730 
Q 2766 1069 2766 1631 
L 2766 1759 
L 2194 1759 
z
M 3341 1997 
L 3341 0 
L 2766 0 
L 2766 531 
Q 2569 213 2275 61 
Q 1981 -91 1556 -91 
Q 1019 -91 701 211 
Q 384 513 384 1019 
Q 384 1609 779 1909 
Q 1175 2209 1959 2209 
L 2766 2209 
L 2766 2266 
Q 2766 2663 2505 2880 
Q 2244 3097 1772 3097 
Q 1472 3097 1187 3025 
Q 903 2953 641 2809 
L 641 3341 
Q 956 3463 1253 3523 
Q 1550 3584 1831 3584 
Q 2591 3584 2966 3190 
Q 3341 2797 3341 1997 
z
" transform="scale(0.015625)"/>
      <path id="DejaVuSans-69" d="M 603 3500 
L 1178 3500 
L 1178 0 
L 603 0 
L 603 3500 
z
M 603 4863 
L 1178 4863 
L 1178 4134 
L 603 4134 
L 603 4863 
z
" transform="scale(0.015625)"/>
      <path id="DejaVuSans-6c" d="M 603 4863 
L 1178 4863 
L 1178 0 
L 603 0 
L 603 4863 
z
" transform="scale(0.015625)"/>
      <path id="DejaVuSans-79" d="M 2059 -325 
Q 1816 -950 1584 -1140 
Q 1353 -1331 966 -1331 
L 506 -1331 
L 506 -850 
L 844 -850 
Q 1081 -850 1212 -737 
Q 1344 -625 1503 -206 
L 1606 56 
L 191 3500 
L 800 3500 
L 1894 763 
L 2988 3500 
L 3597 3500 
L 2059 -325 
z
" transform="scale(0.015625)"/>
      <path id="DejaVuSans-20" transform="scale(0.015625)"/>
      <path id="DejaVuSans-43" d="M 4122 4306 
L 4122 3641 
Q 3803 3938 3442 4084 
Q 3081 4231 2675 4231 
Q 1875 4231 1450 3742 
Q 1025 3253 1025 2328 
Q 1025 1406 1450 917 
Q 1875 428 2675 428 
Q 3081 428 3442 575 
Q 3803 722 4122 1019 
L 4122 359 
Q 3791 134 3420 21 
Q 3050 -91 2638 -91 
Q 1578 -91 968 557 
Q 359 1206 359 2328 
Q 359 3453 968 4101 
Q 1578 4750 2638 4750 
Q 3056 4750 3426 4639 
Q 3797 4528 4122 4306 
z
" transform="scale(0.015625)"/>
      <path id="DejaVuSans-6f" d="M 1959 3097 
Q 1497 3097 1228 2736 
Q 959 2375 959 1747 
Q 959 1119 1226 758 
Q 1494 397 1959 397 
Q 2419 397 2687 759 
Q 2956 1122 2956 1747 
Q 2956 2369 2687 2733 
Q 2419 3097 1959 3097 
z
M 1959 3584 
Q 2709 3584 3137 3096 
Q 3566 2609 3566 1747 
Q 3566 888 3137 398 
Q 2709 -91 1959 -91 
Q 1206 -91 779 398 
Q 353 888 353 1747 
Q 353 2609 779 3096 
Q 1206 3584 1959 3584 
z
" transform="scale(0.015625)"/>
      <path id="DejaVuSans-6e" d="M 3513 2113 
L 3513 0 
L 2938 0 
L 2938 2094 
Q 2938 2591 2744 2837 
Q 2550 3084 2163 3084 
Q 1697 3084 1428 2787 
Q 1159 2491 1159 1978 
L 1159 0 
L 581 0 
L 581 3500 
L 1159 3500 
L 1159 2956 
Q 1366 3272 1645 3428 
Q 1925 3584 2291 3584 
Q 2894 3584 3203 3211 
Q 3513 2838 3513 2113 
z
" transform="scale(0.015625)"/>
      <path id="DejaVuSans-66" d="M 2375 4863 
L 2375 4384 
L 1825 4384 
Q 1516 4384 1395 4259 
Q 1275 4134 1275 3809 
L 1275 3500 
L 2222 3500 
L 2222 3053 
L 1275 3053 
L 1275 0 
L 697 0 
L 697 3053 
L 147 3053 
L 147 3500 
L 697 3500 
L 697 3744 
Q 697 4328 969 4595 
Q 1241 4863 1831 4863 
L 2375 4863 
z
" transform="scale(0.015625)"/>
      <path id="DejaVuSans-72" d="M 2631 2963 
Q 2534 3019 2420 3045 
Q 2306 3072 2169 3072 
Q 1681 3072 1420 2755 
Q 1159 2438 1159 1844 
L 1159 0 
L 581 0 
L 581 3500 
L 1159 3500 
L 1159 2956 
Q 1341 3275 1631 3429 
Q 1922 3584 2338 3584 
Q 2397 3584 2469 3576 
Q 2541 3569 2628 3553 
L 2631 2963 
z
" transform="scale(0.015625)"/>
      <path id="DejaVuSans-6d" d="M 3328 2828 
Q 3544 3216 3844 3400 
Q 4144 3584 4550 3584 
Q 5097 3584 5394 3201 
Q 5691 2819 5691 2113 
L 5691 0 
L 5113 0 
L 5113 2094 
Q 5113 2597 4934 2840 
Q 4756 3084 4391 3084 
Q 3944 3084 3684 2787 
Q 3425 2491 3425 1978 
L 3425 0 
L 2847 0 
L 2847 2094 
Q 2847 2600 2669 2842 
Q 2491 3084 2119 3084 
Q 1678 3084 1418 2786 
Q 1159 2488 1159 1978 
L 1159 0 
L 581 0 
L 581 3500 
L 1159 3500 
L 1159 2956 
Q 1356 3278 1631 3431 
Q 1906 3584 2284 3584 
Q 2666 3584 2933 3390 
Q 3200 3197 3328 2828 
z
" transform="scale(0.015625)"/>
      <path id="DejaVuSans-65" d="M 3597 1894 
L 3597 1613 
L 953 1613 
Q 991 1019 1311 708 
Q 1631 397 2203 397 
Q 2534 397 2845 478 
Q 3156 559 3463 722 
L 3463 178 
Q 3153 47 2828 -22 
Q 2503 -91 2169 -91 
Q 1331 -91 842 396 
Q 353 884 353 1716 
Q 353 2575 817 3079 
Q 1281 3584 2069 3584 
Q 2775 3584 3186 3129 
Q 3597 2675 3597 1894 
z
M 3022 2063 
Q 3016 2534 2758 2815 
Q 2500 3097 2075 3097 
Q 1594 3097 1305 2825 
Q 1016 2553 972 2059 
L 3022 2063 
z
" transform="scale(0.015625)"/>
      <path id="DejaVuSans-64" d="M 2906 2969 
L 2906 4863 
L 3481 4863 
L 3481 0 
L 2906 0 
L 2906 525 
Q 2725 213 2448 61 
Q 2172 -91 1784 -91 
Q 1150 -91 751 415 
Q 353 922 353 1747 
Q 353 2572 751 3078 
Q 1150 3584 1784 3584 
Q 2172 3584 2448 3432 
Q 2725 3281 2906 2969 
z
M 947 1747 
Q 947 1113 1208 752 
Q 1469 391 1925 391 
Q 2381 391 2643 752 
Q 2906 1113 2906 1747 
Q 2906 2381 2643 2742 
Q 2381 3103 1925 3103 
Q 1469 3103 1208 2742 
Q 947 2381 947 1747 
z
" transform="scale(0.015625)"/>
      <path id="DejaVuSans-73" d="M 2834 3397 
L 2834 2853 
Q 2591 2978 2328 3040 
Q 2066 3103 1784 3103 
Q 1356 3103 1142 2972 
Q 928 2841 928 2578 
Q 928 2378 1081 2264 
Q 1234 2150 1697 2047 
L 1894 2003 
Q 2506 1872 2764 1633 
Q 3022 1394 3022 966 
Q 3022 478 2636 193 
Q 2250 -91 1575 -91 
Q 1294 -91 989 -36 
Q 684 19 347 128 
L 347 722 
Q 666 556 975 473 
Q 1284 391 1588 391 
Q 1994 391 2212 530 
Q 2431 669 2431 922 
Q 2431 1156 2273 1281 
Q 2116 1406 1581 1522 
L 1381 1569 
Q 847 1681 609 1914 
Q 372 2147 372 2553 
Q 372 3047 722 3315 
Q 1072 3584 1716 3584 
Q 2034 3584 2315 3537 
Q 2597 3491 2834 3397 
z
" transform="scale(0.015625)"/>
      <path id="DejaVuSans-46" d="M 628 4666 
L 3309 4666 
L 3309 4134 
L 1259 4134 
L 1259 2759 
L 3109 2759 
L 3109 2228 
L 1259 2228 
L 1259 0 
L 628 0 
L 628 4666 
z
" transform="scale(0.015625)"/>
      <path id="DejaVuSans-63" d="M 3122 3366 
L 3122 2828 
Q 2878 2963 2633 3030 
Q 2388 3097 2138 3097 
Q 1578 3097 1268 2742 
Q 959 2388 959 1747 
Q 959 1106 1268 751 
Q 1578 397 2138 397 
Q 2388 397 2633 464 
Q 2878 531 3122 666 
L 3122 134 
Q 2881 22 2623 -34 
Q 2366 -91 2075 -91 
Q 1284 -91 818 406 
Q 353 903 353 1747 
Q 353 2603 823 3093 
Q 1294 3584 2113 3584 
Q 2378 3584 2631 3529 
Q 2884 3475 3122 3366 
z
" transform="scale(0.015625)"/>
      <path id="DejaVuSans-74" d="M 1172 4494 
L 1172 3500 
L 2356 3500 
L 2356 3053 
L 1172 3053 
L 1172 1153 
Q 1172 725 1289 603 
Q 1406 481 1766 481 
L 2356 481 
L 2356 0 
L 1766 0 
Q 1100 0 847 248 
Q 594 497 594 1153 
L 594 3053 
L 172 3053 
L 172 3500 
L 594 3500 
L 594 4494 
L 1172 4494 
z
" transform="scale(0.015625)"/>
      <path id="DejaVuSans-67" d="M 2906 1791 
Q 2906 2416 2648 2759 
Q 2391 3103 1925 3103 
Q 1463 3103 1205 2759 
Q 947 2416 947 1791 
Q 947 1169 1205 825 
Q 1463 481 1925 481 
Q 2391 481 2648 825 
Q 2906 1169 2906 1791 
z
M 3481 434 
Q 3481 -459 3084 -895 
Q 2688 -1331 1869 -1331 
Q 1566 -1331 1297 -1286 
Q 1028 -1241 775 -1147 
L 775 -588 
Q 1028 -725 1275 -790 
Q 1522 -856 1778 -856 
Q 2344 -856 2625 -561 
Q 2906 -266 2906 331 
L 2906 616 
Q 2728 306 2450 153 
Q 2172 0 1784 0 
Q 1141 0 747 490 
Q 353 981 353 1791 
Q 353 2603 747 3093 
Q 1141 3584 1784 3584 
Q 2172 3584 2450 3431 
Q 2728 3278 2906 2969 
L 2906 3500 
L 3481 3500 
L 3481 434 
z
" transform="scale(0.015625)"/>
      <path id="DejaVuSans-4d" d="M 628 4666 
L 1569 4666 
L 2759 1491 
L 3956 4666 
L 4897 4666 
L 4897 0 
L 4281 0 
L 4281 4097 
L 3078 897 
L 2444 897 
L 1241 4097 
L 1241 0 
L 628 0 
L 628 4666 
z
" transform="scale(0.015625)"/>
      <path id="DejaVuSans-77" d="M 269 3500 
L 844 3500 
L 1563 769 
L 2278 3500 
L 2956 3500 
L 3675 769 
L 4391 3500 
L 4966 3500 
L 4050 0 
L 3372 0 
L 2619 2869 
L 1863 0 
L 1184 0 
L 269 3500 
z
" transform="scale(0.015625)"/>
     </defs>
     <use xlink:href="#DejaVuSans-44"/>
     <use xlink:href="#DejaVuSans-61" x="77.001953"/>
     <use xlink:href="#DejaVuSans-69" x="138.28125"/>
     <use xlink:href="#DejaVuSans-6c" x="166.064453"/>
     <use xlink:href="#DejaVuSans-79" x="193.847656"/>
     <use xlink:href="#DejaVuSans-20" x="253.027344"/>
     <use xlink:href="#DejaVuSans-43" x="284.814453"/>
     <use xlink:href="#DejaVuSans-6f" x="354.638672"/>
     <use xlink:href="#DejaVuSans-6e" x="415.820312"/>
     <use xlink:href="#DejaVuSans-66" x="479.199219"/>
     <use xlink:href="#DejaVuSans-69" x="514.404297"/>
     <use xlink:href="#DejaVuSans-72" x="542.1875"/>
     <use xlink:href="#DejaVuSans-6d" x="581.550781"/>
     <use xlink:href="#DejaVuSans-65" x="678.962891"/>
     <use xlink:href="#DejaVuSans-64" x="740.486328"/>
     <use xlink:href="#DejaVuSans-20" x="803.962891"/>
     <use xlink:href="#DejaVuSans-43" x="835.75"/>
     <use xlink:href="#DejaVuSans-61" x="905.574219"/>
     <use xlink:href="#DejaVuSans-73" x="966.853516"/>
     <use xlink:href="#DejaVuSans-65" x="1018.953125"/>
     <use xlink:href="#DejaVuSans-73" x="1080.476562"/>
     <use xlink:href="#DejaVuSans-20" x="1132.576172"/>
     <use xlink:href="#DejaVuSans-46" x="1164.363281"/>
     <use xlink:href="#DejaVuSans-6f" x="1218.257812"/>
     <use xlink:href="#DejaVuSans-72" x="1279.439453"/>
     <use xlink:href="#DejaVuSans-65" x="1318.302734"/>
     <use xlink:href="#DejaVuSans-63" x="1379.826172"/>
     <use xlink:href="#DejaVuSans-61" x="1434.806641"/>
     <use xlink:href="#DejaVuSans-73" x="1496.085938"/>
     <use xlink:href="#DejaVuSans-74" x="1548.185547"/>
     <use xlink:href="#DejaVuSans-69" x="1587.394531"/>
     <use xlink:href="#DejaVuSans-6e" x="1615.177734"/>
     <use xlink:href="#DejaVuSans-67" x="1678.556641"/>
     <use xlink:href="#DejaVuSans-20" x="1742.033203"/>
     <use xlink:href="#DejaVuSans-2d" x="1773.820312"/>
     <use xlink:href="#DejaVuSans-20" x="1809.904297"/>
     <use xlink:href="#DejaVuSans-4d" x="1841.691406"/>
     <use xlink:href="#DejaVuSans-61" x="1927.970703"/>
     <use xlink:href="#DejaVuSans-6c" x="1989.25"/>
     <use xlink:href="#DejaVuSans-61" x="2017.033203"/>
     <use xlink:href="#DejaVuSans-77" x="2078.3125"/>
     <use xlink:href="#DejaVuSans-69" x="2160.099609"/>
    </g>
    <!-- ARIMA (1, 1, 1)x(1, 0, 1, 7) (R2 = -0.243324) -->
    <g transform="translate(575.10125 29.7555)scale(0.12 -0.12)">
     <defs>
      <path id="DejaVuSans-41" d="M 2188 4044 
L 1331 1722 
L 3047 1722 
L 2188 4044 
z
M 1831 4666 
L 2547 4666 
L 4325 0 
L 3669 0 
L 3244 1197 
L 1141 1197 
L 716 0 
L 50 0 
L 1831 4666 
z
" transform="scale(0.015625)"/>
      <path id="DejaVuSans-52" d="M 2841 2188 
Q 3044 2119 3236 1894 
Q 3428 1669 3622 1275 
L 4263 0 
L 3584 0 
L 2988 1197 
Q 2756 1666 2539 1819 
Q 2322 1972 1947 1972 
L 1259 1972 
L 1259 0 
L 628 0 
L 628 4666 
L 2053 4666 
Q 2853 4666 3247 4331 
Q 3641 3997 3641 3322 
Q 3641 2881 3436 2590 
Q 3231 2300 2841 2188 
z
M 1259 4147 
L 1259 2491 
L 2053 2491 
Q 2509 2491 2742 2702 
Q 2975 2913 2975 3322 
Q 2975 3731 2742 3939 
Q 2509 4147 2053 4147 
L 1259 4147 
z
" transform="scale(0.015625)"/>
      <path id="DejaVuSans-49" d="M 628 4666 
L 1259 4666 
L 1259 0 
L 628 0 
L 628 4666 
z
" transform="scale(0.015625)"/>
      <path id="DejaVuSans-28" d="M 1984 4856 
Q 1566 4138 1362 3434 
Q 1159 2731 1159 2009 
Q 1159 1288 1364 580 
Q 1569 -128 1984 -844 
L 1484 -844 
Q 1016 -109 783 600 
Q 550 1309 550 2009 
Q 550 2706 781 3412 
Q 1013 4119 1484 4856 
L 1984 4856 
z
" transform="scale(0.015625)"/>
      <path id="DejaVuSans-2c" d="M 750 794 
L 1409 794 
L 1409 256 
L 897 -744 
L 494 -744 
L 750 256 
L 750 794 
z
" transform="scale(0.015625)"/>
      <path id="DejaVuSans-29" d="M 513 4856 
L 1013 4856 
Q 1481 4119 1714 3412 
Q 1947 2706 1947 2009 
Q 1947 1309 1714 600 
Q 1481 -109 1013 -844 
L 513 -844 
Q 928 -128 1133 580 
Q 1338 1288 1338 2009 
Q 1338 2731 1133 3434 
Q 928 4138 513 4856 
z
" transform="scale(0.015625)"/>
      <path id="DejaVuSans-78" d="M 3513 3500 
L 2247 1797 
L 3578 0 
L 2900 0 
L 1881 1375 
L 863 0 
L 184 0 
L 1544 1831 
L 300 3500 
L 978 3500 
L 1906 2253 
L 2834 3500 
L 3513 3500 
z
" transform="scale(0.015625)"/>
      <path id="DejaVuSans-37" d="M 525 4666 
L 3525 4666 
L 3525 4397 
L 1831 0 
L 1172 0 
L 2766 4134 
L 525 4134 
L 525 4666 
z
" transform="scale(0.015625)"/>
      <path id="DejaVuSans-3d" d="M 678 2906 
L 4684 2906 
L 4684 2381 
L 678 2381 
L 678 2906 
z
M 678 1631 
L 4684 1631 
L 4684 1100 
L 678 1100 
L 678 1631 
z
" transform="scale(0.015625)"/>
      <path id="DejaVuSans-2e" d="M 684 794 
L 1344 794 
L 1344 0 
L 684 0 
L 684 794 
z
" transform="scale(0.015625)"/>
     </defs>
     <use xlink:href="#DejaVuSans-41"/>
     <use xlink:href="#DejaVuSans-52" x="68.408203"/>
     <use xlink:href="#DejaVuSans-49" x="137.890625"/>
     <use xlink:href="#DejaVuSans-4d" x="167.382812"/>
     <use xlink:href="#DejaVuSans-41" x="253.662109"/>
     <use xlink:href="#DejaVuSans-20" x="322.070312"/>
     <use xlink:href="#DejaVuSans-28" x="353.857422"/>
     <use xlink:href="#DejaVuSans-31" x="392.871094"/>
     <use xlink:href="#DejaVuSans-2c" x="456.494141"/>
     <use xlink:href="#DejaVuSans-20" x="488.28125"/>
     <use xlink:href="#DejaVuSans-31" x="520.068359"/>
     <use xlink:href="#DejaVuSans-2c" x="583.691406"/>
     <use xlink:href="#DejaVuSans-20" x="615.478516"/>
     <use xlink:href="#DejaVuSans-31" x="647.265625"/>
     <use xlink:href="#DejaVuSans-29" x="710.888672"/>
     <use xlink:href="#DejaVuSans-78" x="749.902344"/>
     <use xlink:href="#DejaVuSans-28" x="809.082031"/>
     <use xlink:href="#DejaVuSans-31" x="848.095703"/>
     <use xlink:href="#DejaVuSans-2c" x="911.71875"/>
     <use xlink:href="#DejaVuSans-20" x="943.505859"/>
     <use xlink:href="#DejaVuSans-30" x="975.292969"/>
     <use xlink:href="#DejaVuSans-2c" x="1038.916016"/>
     <use xlink:href="#DejaVuSans-20" x="1070.703125"/>
     <use xlink:href="#DejaVuSans-31" x="1102.490234"/>
     <use xlink:href="#DejaVuSans-2c" x="1166.113281"/>
     <use xlink:href="#DejaVuSans-20" x="1197.900391"/>
     <use xlink:href="#DejaVuSans-37" x="1229.6875"/>
     <use xlink:href="#DejaVuSans-29" x="1293.310547"/>
     <use xlink:href="#DejaVuSans-20" x="1332.324219"/>
     <use xlink:href="#DejaVuSans-28" x="1364.111328"/>
     <use xlink:href="#DejaVuSans-52" x="1403.125"/>
     <use xlink:href="#DejaVuSans-32" x="1472.607422"/>
     <use xlink:href="#DejaVuSans-20" x="1536.230469"/>
     <use xlink:href="#DejaVuSans-3d" x="1568.017578"/>
     <use xlink:href="#DejaVuSans-20" x="1651.806641"/>
     <use xlink:href="#DejaVuSans-2d" x="1683.59375"/>
     <use xlink:href="#DejaVuSans-30" x="1719.677734"/>
     <use xlink:href="#DejaVuSans-2e" x="1783.300781"/>
     <use xlink:href="#DejaVuSans-32" x="1815.087891"/>
     <use xlink:href="#DejaVuSans-34" x="1878.710938"/>
     <use xlink:href="#DejaVuSans-33" x="1942.333984"/>
     <use xlink:href="#DejaVuSans-33" x="2005.957031"/>
     <use xlink:href="#DejaVuSans-32" x="2069.580078"/>
     <use xlink:href="#DejaVuSans-34" x="2133.203125"/>
     <use xlink:href="#DejaVuSans-29" x="2196.826172"/>
    </g>
   </g>
   <g id="legend_1">
    <g id="patch_7">
     <path d="M 1274.770313 87.789875 
L 1371.85 87.789875 
Q 1373.85 87.789875 1373.85 85.789875 
L 1373.85 42.7555 
Q 1373.85 40.7555 1371.85 40.7555 
L 1274.770313 40.7555 
Q 1272.770313 40.7555 1272.770313 42.7555 
L 1272.770313 85.789875 
Q 1272.770313 87.789875 1274.770313 87.789875 
z
" style="fill: #ffffff; opacity: 0.8; stroke: #cccccc; stroke-linejoin: miter"/>
    </g>
    <g id="line2d_21">
     <path d="M 1276.770313 48.853937 
L 1286.770313 48.853937 
L 1296.770313 48.853937 
" style="fill: none; stroke: #0000ff; stroke-width: 1.5; stroke-linecap: square"/>
    </g>
    <g id="text_19">
     <!-- Actual Value -->
     <g transform="translate(1304.770313 52.353937)scale(0.1 -0.1)">
      <defs>
       <path id="DejaVuSans-75" d="M 544 1381 
L 544 3500 
L 1119 3500 
L 1119 1403 
Q 1119 906 1312 657 
Q 1506 409 1894 409 
Q 2359 409 2629 706 
Q 2900 1003 2900 1516 
L 2900 3500 
L 3475 3500 
L 3475 0 
L 2900 0 
L 2900 538 
Q 2691 219 2414 64 
Q 2138 -91 1772 -91 
Q 1169 -91 856 284 
Q 544 659 544 1381 
z
M 1991 3584 
L 1991 3584 
z
" transform="scale(0.015625)"/>
       <path id="DejaVuSans-56" d="M 1831 0 
L 50 4666 
L 709 4666 
L 2188 738 
L 3669 4666 
L 4325 4666 
L 2547 0 
L 1831 0 
z
" transform="scale(0.015625)"/>
      </defs>
      <use xlink:href="#DejaVuSans-41"/>
      <use xlink:href="#DejaVuSans-63" x="66.658203"/>
      <use xlink:href="#DejaVuSans-74" x="121.638672"/>
      <use xlink:href="#DejaVuSans-75" x="160.847656"/>
      <use xlink:href="#DejaVuSans-61" x="224.226562"/>
      <use xlink:href="#DejaVuSans-6c" x="285.505859"/>
      <use xlink:href="#DejaVuSans-20" x="313.289062"/>
      <use xlink:href="#DejaVuSans-56" x="345.076172"/>
      <use xlink:href="#DejaVuSans-61" x="405.734375"/>
      <use xlink:href="#DejaVuSans-6c" x="467.013672"/>
      <use xlink:href="#DejaVuSans-75" x="494.796875"/>
      <use xlink:href="#DejaVuSans-65" x="558.175781"/>
     </g>
    </g>
    <g id="line2d_22">
     <path d="M 1276.770313 63.532062 
L 1286.770313 63.532062 
L 1296.770313 63.532062 
" style="fill: none; stroke: #ffa500; stroke-width: 1.5; stroke-linecap: square"/>
    </g>
    <g id="text_20">
     <!-- Check Value -->
     <g transform="translate(1304.770313 67.032062)scale(0.1 -0.1)">
      <defs>
       <path id="DejaVuSans-68" d="M 3513 2113 
L 3513 0 
L 2938 0 
L 2938 2094 
Q 2938 2591 2744 2837 
Q 2550 3084 2163 3084 
Q 1697 3084 1428 2787 
Q 1159 2491 1159 1978 
L 1159 0 
L 581 0 
L 581 4863 
L 1159 4863 
L 1159 2956 
Q 1366 3272 1645 3428 
Q 1925 3584 2291 3584 
Q 2894 3584 3203 3211 
Q 3513 2838 3513 2113 
z
" transform="scale(0.015625)"/>
       <path id="DejaVuSans-6b" d="M 581 4863 
L 1159 4863 
L 1159 1991 
L 2875 3500 
L 3609 3500 
L 1753 1863 
L 3688 0 
L 2938 0 
L 1159 1709 
L 1159 0 
L 581 0 
L 581 4863 
z
" transform="scale(0.015625)"/>
      </defs>
      <use xlink:href="#DejaVuSans-43"/>
      <use xlink:href="#DejaVuSans-68" x="69.824219"/>
      <use xlink:href="#DejaVuSans-65" x="133.203125"/>
      <use xlink:href="#DejaVuSans-63" x="194.726562"/>
      <use xlink:href="#DejaVuSans-6b" x="249.707031"/>
      <use xlink:href="#DejaVuSans-20" x="307.617188"/>
      <use xlink:href="#DejaVuSans-56" x="339.404297"/>
      <use xlink:href="#DejaVuSans-61" x="400.0625"/>
      <use xlink:href="#DejaVuSans-6c" x="461.341797"/>
      <use xlink:href="#DejaVuSans-75" x="489.125"/>
      <use xlink:href="#DejaVuSans-65" x="552.503906"/>
     </g>
    </g>
    <g id="line2d_23">
     <path d="M 1276.770313 78.210187 
L 1286.770313 78.210187 
L 1296.770313 78.210187 
" style="fill: none; stroke: #ff0000; stroke-width: 1.5; stroke-linecap: square"/>
    </g>
    <g id="text_21">
     <!-- Predict Value -->
     <g transform="translate(1304.770313 81.710187)scale(0.1 -0.1)">
      <defs>
       <path id="DejaVuSans-50" d="M 1259 4147 
L 1259 2394 
L 2053 2394 
Q 2494 2394 2734 2622 
Q 2975 2850 2975 3272 
Q 2975 3691 2734 3919 
Q 2494 4147 2053 4147 
L 1259 4147 
z
M 628 4666 
L 2053 4666 
Q 2838 4666 3239 4311 
Q 3641 3956 3641 3272 
Q 3641 2581 3239 2228 
Q 2838 1875 2053 1875 
L 1259 1875 
L 1259 0 
L 628 0 
L 628 4666 
z
" transform="scale(0.015625)"/>
      </defs>
      <use xlink:href="#DejaVuSans-50"/>
      <use xlink:href="#DejaVuSans-72" x="58.552734"/>
      <use xlink:href="#DejaVuSans-65" x="97.416016"/>
      <use xlink:href="#DejaVuSans-64" x="158.939453"/>
      <use xlink:href="#DejaVuSans-69" x="222.416016"/>
      <use xlink:href="#DejaVuSans-63" x="250.199219"/>
      <use xlink:href="#DejaVuSans-74" x="305.179688"/>
      <use xlink:href="#DejaVuSans-20" x="344.388672"/>
      <use xlink:href="#DejaVuSans-56" x="376.175781"/>
      <use xlink:href="#DejaVuSans-61" x="436.833984"/>
      <use xlink:href="#DejaVuSans-6c" x="498.113281"/>
      <use xlink:href="#DejaVuSans-75" x="525.896484"/>
      <use xlink:href="#DejaVuSans-65" x="589.275391"/>
     </g>
    </g>
   </g>
  </g>
 </g>
 <defs>
  <clipPath id="pe873045ea9">
   <rect x="39.65" y="35.7555" width="1339.2" height="332.64"/>
  </clipPath>
 </defs>
</svg>
