<?xml version="1.0" encoding="utf-8" standalone="no"?>
<!DOCTYPE svg PUBLIC "-//W3C//DTD SVG 1.1//EN"
  "http://www.w3.org/Graphics/SVG/1.1/DTD/svg11.dtd">
<svg xmlns:xlink="http://www.w3.org/1999/xlink" width="1394.429688pt" height="392.273625pt" viewBox="0 0 1394.429688 392.273625" xmlns="http://www.w3.org/2000/svg" version="1.1">
 <metadata>
  <rdf:RDF xmlns:dc="http://purl.org/dc/elements/1.1/" xmlns:cc="http://creativecommons.org/ns#" xmlns:rdf="http://www.w3.org/1999/02/22-rdf-syntax-ns#">
   <cc:Work>
    <dc:type rdf:resource="http://purl.org/dc/dcmitype/StillImage"/>
    <dc:date>2022-07-10T18:38:06.115916</dc:date>
    <dc:format>image/svg+xml</dc:format>
    <dc:creator>
     <cc:Agent>
      <dc:title>Matplotlib v3.5.1, https://matplotlib.org/</dc:title>
     </cc:Agent>
    </dc:creator>
   </cc:Work>
  </rdf:RDF>
 </metadata>
 <defs>
  <style type="text/css">*{stroke-linejoin: round; stroke-linecap: butt}</style>
 </defs>
 <g id="figure_1">
  <g id="patch_1">
   <path d="M 0 392.273625 
L 1394.429688 392.273625 
L 1394.429688 0 
L 0 0 
z
" style="fill: #ffffff"/>
  </g>
  <g id="axes_1">
   <g id="patch_2">
    <path d="M 48.029688 368.3955 
L 1387.229688 368.3955 
L 1387.229688 35.7555 
L 48.029688 35.7555 
z
" style="fill: #ffffff"/>
   </g>
   <g id="matplotlib.axis_1">
    <g id="xtick_1">
     <g id="line2d_1">
      <defs>
       <path id="m5623edc85d" d="M 0 0 
L 0 3.5 
" style="stroke: #000000; stroke-width: 0.8"/>
      </defs>
      <g>
       <use xlink:href="#m5623edc85d" x="79.533994" y="368.3955" style="stroke: #000000; stroke-width: 0.8"/>
      </g>
     </g>
     <g id="text_1">
      <!-- 2020-01 -->
      <g transform="translate(58.642587 382.993937)scale(0.1 -0.1)">
       <defs>
        <path id="DejaVuSans-32" d="M 1228 531 
L 3431 531 
L 3431 0 
L 469 0 
L 469 531 
Q 828 903 1448 1529 
Q 2069 2156 2228 2338 
Q 2531 2678 2651 2914 
Q 2772 3150 2772 3378 
Q 2772 3750 2511 3984 
Q 2250 4219 1831 4219 
Q 1534 4219 1204 4116 
Q 875 4013 500 3803 
L 500 4441 
Q 881 4594 1212 4672 
Q 1544 4750 1819 4750 
Q 2544 4750 2975 4387 
Q 3406 4025 3406 3419 
Q 3406 3131 3298 2873 
Q 3191 2616 2906 2266 
Q 2828 2175 2409 1742 
Q 1991 1309 1228 531 
z
" transform="scale(0.015625)"/>
        <path id="DejaVuSans-30" d="M 2034 4250 
Q 1547 4250 1301 3770 
Q 1056 3291 1056 2328 
Q 1056 1369 1301 889 
Q 1547 409 2034 409 
Q 2525 409 2770 889 
Q 3016 1369 3016 2328 
Q 3016 3291 2770 3770 
Q 2525 4250 2034 4250 
z
M 2034 4750 
Q 2819 4750 3233 4129 
Q 3647 3509 3647 2328 
Q 3647 1150 3233 529 
Q 2819 -91 2034 -91 
Q 1250 -91 836 529 
Q 422 1150 422 2328 
Q 422 3509 836 4129 
Q 1250 4750 2034 4750 
z
" transform="scale(0.015625)"/>
        <path id="DejaVuSans-2d" d="M 313 2009 
L 1997 2009 
L 1997 1497 
L 313 1497 
L 313 2009 
z
" transform="scale(0.015625)"/>
        <path id="DejaVuSans-31" d="M 794 531 
L 1825 531 
L 1825 4091 
L 703 3866 
L 703 4441 
L 1819 4666 
L 2450 4666 
L 2450 531 
L 3481 531 
L 3481 0 
L 794 0 
L 794 531 
z
" transform="scale(0.015625)"/>
       </defs>
       <use xlink:href="#DejaVuSans-32"/>
       <use xlink:href="#DejaVuSans-30" x="63.623047"/>
       <use xlink:href="#DejaVuSans-32" x="127.246094"/>
       <use xlink:href="#DejaVuSans-30" x="190.869141"/>
       <use xlink:href="#DejaVuSans-2d" x="254.492188"/>
       <use xlink:href="#DejaVuSans-30" x="290.576172"/>
       <use xlink:href="#DejaVuSans-31" x="354.199219"/>
      </g>
     </g>
    </g>
    <g id="xtick_2">
     <g id="line2d_2">
      <g>
       <use xlink:href="#m5623edc85d" x="201.012463" y="368.3955" style="stroke: #000000; stroke-width: 0.8"/>
      </g>
     </g>
     <g id="text_2">
      <!-- 2020-04 -->
      <g transform="translate(180.121056 382.993937)scale(0.1 -0.1)">
       <defs>
        <path id="DejaVuSans-34" d="M 2419 4116 
L 825 1625 
L 2419 1625 
L 2419 4116 
z
M 2253 4666 
L 3047 4666 
L 3047 1625 
L 3713 1625 
L 3713 1100 
L 3047 1100 
L 3047 0 
L 2419 0 
L 2419 1100 
L 313 1100 
L 313 1709 
L 2253 4666 
z
" transform="scale(0.015625)"/>
       </defs>
       <use xlink:href="#DejaVuSans-32"/>
       <use xlink:href="#DejaVuSans-30" x="63.623047"/>
       <use xlink:href="#DejaVuSans-32" x="127.246094"/>
       <use xlink:href="#DejaVuSans-30" x="190.869141"/>
       <use xlink:href="#DejaVuSans-2d" x="254.492188"/>
       <use xlink:href="#DejaVuSans-30" x="290.576172"/>
       <use xlink:href="#DejaVuSans-34" x="354.199219"/>
      </g>
     </g>
    </g>
    <g id="xtick_3">
     <g id="line2d_3">
      <g>
       <use xlink:href="#m5623edc85d" x="322.490932" y="368.3955" style="stroke: #000000; stroke-width: 0.8"/>
      </g>
     </g>
     <g id="text_3">
      <!-- 2020-07 -->
      <g transform="translate(301.599525 382.993937)scale(0.1 -0.1)">
       <defs>
        <path id="DejaVuSans-37" d="M 525 4666 
L 3525 4666 
L 3525 4397 
L 1831 0 
L 1172 0 
L 2766 4134 
L 525 4134 
L 525 4666 
z
" transform="scale(0.015625)"/>
       </defs>
       <use xlink:href="#DejaVuSans-32"/>
       <use xlink:href="#DejaVuSans-30" x="63.623047"/>
       <use xlink:href="#DejaVuSans-32" x="127.246094"/>
       <use xlink:href="#DejaVuSans-30" x="190.869141"/>
       <use xlink:href="#DejaVuSans-2d" x="254.492188"/>
       <use xlink:href="#DejaVuSans-30" x="290.576172"/>
       <use xlink:href="#DejaVuSans-37" x="354.199219"/>
      </g>
     </g>
    </g>
    <g id="xtick_4">
     <g id="line2d_4">
      <g>
       <use xlink:href="#m5623edc85d" x="445.304329" y="368.3955" style="stroke: #000000; stroke-width: 0.8"/>
      </g>
     </g>
     <g id="text_4">
      <!-- 2020-10 -->
      <g transform="translate(424.412922 382.993937)scale(0.1 -0.1)">
       <use xlink:href="#DejaVuSans-32"/>
       <use xlink:href="#DejaVuSans-30" x="63.623047"/>
       <use xlink:href="#DejaVuSans-32" x="127.246094"/>
       <use xlink:href="#DejaVuSans-30" x="190.869141"/>
       <use xlink:href="#DejaVuSans-2d" x="254.492188"/>
       <use xlink:href="#DejaVuSans-31" x="290.576172"/>
       <use xlink:href="#DejaVuSans-30" x="354.199219"/>
      </g>
     </g>
    </g>
    <g id="xtick_5">
     <g id="line2d_5">
      <g>
       <use xlink:href="#m5623edc85d" x="568.117726" y="368.3955" style="stroke: #000000; stroke-width: 0.8"/>
      </g>
     </g>
     <g id="text_5">
      <!-- 2021-01 -->
      <g transform="translate(547.22632 382.993937)scale(0.1 -0.1)">
       <use xlink:href="#DejaVuSans-32"/>
       <use xlink:href="#DejaVuSans-30" x="63.623047"/>
       <use xlink:href="#DejaVuSans-32" x="127.246094"/>
       <use xlink:href="#DejaVuSans-31" x="190.869141"/>
       <use xlink:href="#DejaVuSans-2d" x="254.492188"/>
       <use xlink:href="#DejaVuSans-30" x="290.576172"/>
       <use xlink:href="#DejaVuSans-31" x="354.199219"/>
      </g>
     </g>
    </g>
    <g id="xtick_6">
     <g id="line2d_6">
      <g>
       <use xlink:href="#m5623edc85d" x="688.261266" y="368.3955" style="stroke: #000000; stroke-width: 0.8"/>
      </g>
     </g>
     <g id="text_6">
      <!-- 2021-04 -->
      <g transform="translate(667.36986 382.993937)scale(0.1 -0.1)">
       <use xlink:href="#DejaVuSans-32"/>
       <use xlink:href="#DejaVuSans-30" x="63.623047"/>
       <use xlink:href="#DejaVuSans-32" x="127.246094"/>
       <use xlink:href="#DejaVuSans-31" x="190.869141"/>
       <use xlink:href="#DejaVuSans-2d" x="254.492188"/>
       <use xlink:href="#DejaVuSans-30" x="290.576172"/>
       <use xlink:href="#DejaVuSans-34" x="354.199219"/>
      </g>
     </g>
    </g>
    <g id="xtick_7">
     <g id="line2d_7">
      <g>
       <use xlink:href="#m5623edc85d" x="809.739735" y="368.3955" style="stroke: #000000; stroke-width: 0.8"/>
      </g>
     </g>
     <g id="text_7">
      <!-- 2021-07 -->
      <g transform="translate(788.848329 382.993937)scale(0.1 -0.1)">
       <use xlink:href="#DejaVuSans-32"/>
       <use xlink:href="#DejaVuSans-30" x="63.623047"/>
       <use xlink:href="#DejaVuSans-32" x="127.246094"/>
       <use xlink:href="#DejaVuSans-31" x="190.869141"/>
       <use xlink:href="#DejaVuSans-2d" x="254.492188"/>
       <use xlink:href="#DejaVuSans-30" x="290.576172"/>
       <use xlink:href="#DejaVuSans-37" x="354.199219"/>
      </g>
     </g>
    </g>
    <g id="xtick_8">
     <g id="line2d_8">
      <g>
       <use xlink:href="#m5623edc85d" x="932.553132" y="368.3955" style="stroke: #000000; stroke-width: 0.8"/>
      </g>
     </g>
     <g id="text_8">
      <!-- 2021-10 -->
      <g transform="translate(911.661726 382.993937)scale(0.1 -0.1)">
       <use xlink:href="#DejaVuSans-32"/>
       <use xlink:href="#DejaVuSans-30" x="63.623047"/>
       <use xlink:href="#DejaVuSans-32" x="127.246094"/>
       <use xlink:href="#DejaVuSans-31" x="190.869141"/>
       <use xlink:href="#DejaVuSans-2d" x="254.492188"/>
       <use xlink:href="#DejaVuSans-31" x="290.576172"/>
       <use xlink:href="#DejaVuSans-30" x="354.199219"/>
      </g>
     </g>
    </g>
    <g id="xtick_9">
     <g id="line2d_9">
      <g>
       <use xlink:href="#m5623edc85d" x="1055.36653" y="368.3955" style="stroke: #000000; stroke-width: 0.8"/>
      </g>
     </g>
     <g id="text_9">
      <!-- 2022-01 -->
      <g transform="translate(1034.475123 382.993937)scale(0.1 -0.1)">
       <use xlink:href="#DejaVuSans-32"/>
       <use xlink:href="#DejaVuSans-30" x="63.623047"/>
       <use xlink:href="#DejaVuSans-32" x="127.246094"/>
       <use xlink:href="#DejaVuSans-32" x="190.869141"/>
       <use xlink:href="#DejaVuSans-2d" x="254.492188"/>
       <use xlink:href="#DejaVuSans-30" x="290.576172"/>
       <use xlink:href="#DejaVuSans-31" x="354.199219"/>
      </g>
     </g>
    </g>
    <g id="xtick_10">
     <g id="line2d_10">
      <g>
       <use xlink:href="#m5623edc85d" x="1175.51007" y="368.3955" style="stroke: #000000; stroke-width: 0.8"/>
      </g>
     </g>
     <g id="text_10">
      <!-- 2022-04 -->
      <g transform="translate(1154.618664 382.993937)scale(0.1 -0.1)">
       <use xlink:href="#DejaVuSans-32"/>
       <use xlink:href="#DejaVuSans-30" x="63.623047"/>
       <use xlink:href="#DejaVuSans-32" x="127.246094"/>
       <use xlink:href="#DejaVuSans-32" x="190.869141"/>
       <use xlink:href="#DejaVuSans-2d" x="254.492188"/>
       <use xlink:href="#DejaVuSans-30" x="290.576172"/>
       <use xlink:href="#DejaVuSans-34" x="354.199219"/>
      </g>
     </g>
    </g>
    <g id="xtick_11">
     <g id="line2d_11">
      <g>
       <use xlink:href="#m5623edc85d" x="1296.988539" y="368.3955" style="stroke: #000000; stroke-width: 0.8"/>
      </g>
     </g>
     <g id="text_11">
      <!-- 2022-07 -->
      <g transform="translate(1276.097133 382.993937)scale(0.1 -0.1)">
       <use xlink:href="#DejaVuSans-32"/>
       <use xlink:href="#DejaVuSans-30" x="63.623047"/>
       <use xlink:href="#DejaVuSans-32" x="127.246094"/>
       <use xlink:href="#DejaVuSans-32" x="190.869141"/>
       <use xlink:href="#DejaVuSans-2d" x="254.492188"/>
       <use xlink:href="#DejaVuSans-30" x="290.576172"/>
       <use xlink:href="#DejaVuSans-37" x="354.199219"/>
      </g>
     </g>
    </g>
   </g>
   <g id="matplotlib.axis_2">
    <g id="ytick_1">
     <g id="line2d_12">
      <defs>
       <path id="m1f3f43ffd7" d="M 0 0 
L -3.5 0 
" style="stroke: #000000; stroke-width: 0.8"/>
      </defs>
      <g>
       <use xlink:href="#m1f3f43ffd7" x="48.029688" y="364.481196" style="stroke: #000000; stroke-width: 0.8"/>
      </g>
     </g>
     <g id="text_12">
      <!-- −2500 -->
      <g transform="translate(7.2 368.280415)scale(0.1 -0.1)">
       <defs>
        <path id="DejaVuSans-2212" d="M 678 2272 
L 4684 2272 
L 4684 1741 
L 678 1741 
L 678 2272 
z
" transform="scale(0.015625)"/>
        <path id="DejaVuSans-35" d="M 691 4666 
L 3169 4666 
L 3169 4134 
L 1269 4134 
L 1269 2991 
Q 1406 3038 1543 3061 
Q 1681 3084 1819 3084 
Q 2600 3084 3056 2656 
Q 3513 2228 3513 1497 
Q 3513 744 3044 326 
Q 2575 -91 1722 -91 
Q 1428 -91 1123 -41 
Q 819 9 494 109 
L 494 744 
Q 775 591 1075 516 
Q 1375 441 1709 441 
Q 2250 441 2565 725 
Q 2881 1009 2881 1497 
Q 2881 1984 2565 2268 
Q 2250 2553 1709 2553 
Q 1456 2553 1204 2497 
Q 953 2441 691 2322 
L 691 4666 
z
" transform="scale(0.015625)"/>
       </defs>
       <use xlink:href="#DejaVuSans-2212"/>
       <use xlink:href="#DejaVuSans-32" x="83.789062"/>
       <use xlink:href="#DejaVuSans-35" x="147.412109"/>
       <use xlink:href="#DejaVuSans-30" x="211.035156"/>
       <use xlink:href="#DejaVuSans-30" x="274.658203"/>
      </g>
     </g>
    </g>
    <g id="ytick_2">
     <g id="line2d_13">
      <g>
       <use xlink:href="#m1f3f43ffd7" x="48.029688" y="326.584143" style="stroke: #000000; stroke-width: 0.8"/>
      </g>
     </g>
     <g id="text_13">
      <!-- 0 -->
      <g transform="translate(34.667188 330.383362)scale(0.1 -0.1)">
       <use xlink:href="#DejaVuSans-30"/>
      </g>
     </g>
    </g>
    <g id="ytick_3">
     <g id="line2d_14">
      <g>
       <use xlink:href="#m1f3f43ffd7" x="48.029688" y="288.68709" style="stroke: #000000; stroke-width: 0.8"/>
      </g>
     </g>
     <g id="text_14">
      <!-- 2500 -->
      <g transform="translate(15.579688 292.486308)scale(0.1 -0.1)">
       <use xlink:href="#DejaVuSans-32"/>
       <use xlink:href="#DejaVuSans-35" x="63.623047"/>
       <use xlink:href="#DejaVuSans-30" x="127.246094"/>
       <use xlink:href="#DejaVuSans-30" x="190.869141"/>
      </g>
     </g>
    </g>
    <g id="ytick_4">
     <g id="line2d_15">
      <g>
       <use xlink:href="#m1f3f43ffd7" x="48.029688" y="250.790036" style="stroke: #000000; stroke-width: 0.8"/>
      </g>
     </g>
     <g id="text_15">
      <!-- 5000 -->
      <g transform="translate(15.579688 254.589255)scale(0.1 -0.1)">
       <use xlink:href="#DejaVuSans-35"/>
       <use xlink:href="#DejaVuSans-30" x="63.623047"/>
       <use xlink:href="#DejaVuSans-30" x="127.246094"/>
       <use xlink:href="#DejaVuSans-30" x="190.869141"/>
      </g>
     </g>
    </g>
    <g id="ytick_5">
     <g id="line2d_16">
      <g>
       <use xlink:href="#m1f3f43ffd7" x="48.029688" y="212.892983" style="stroke: #000000; stroke-width: 0.8"/>
      </g>
     </g>
     <g id="text_16">
      <!-- 7500 -->
      <g transform="translate(15.579688 216.692201)scale(0.1 -0.1)">
       <use xlink:href="#DejaVuSans-37"/>
       <use xlink:href="#DejaVuSans-35" x="63.623047"/>
       <use xlink:href="#DejaVuSans-30" x="127.246094"/>
       <use xlink:href="#DejaVuSans-30" x="190.869141"/>
      </g>
     </g>
    </g>
    <g id="ytick_6">
     <g id="line2d_17">
      <g>
       <use xlink:href="#m1f3f43ffd7" x="48.029688" y="174.995929" style="stroke: #000000; stroke-width: 0.8"/>
      </g>
     </g>
     <g id="text_17">
      <!-- 10000 -->
      <g transform="translate(9.217188 178.795148)scale(0.1 -0.1)">
       <use xlink:href="#DejaVuSans-31"/>
       <use xlink:href="#DejaVuSans-30" x="63.623047"/>
       <use xlink:href="#DejaVuSans-30" x="127.246094"/>
       <use xlink:href="#DejaVuSans-30" x="190.869141"/>
       <use xlink:href="#DejaVuSans-30" x="254.492188"/>
      </g>
     </g>
    </g>
    <g id="ytick_7">
     <g id="line2d_18">
      <g>
       <use xlink:href="#m1f3f43ffd7" x="48.029688" y="137.098876" style="stroke: #000000; stroke-width: 0.8"/>
      </g>
     </g>
     <g id="text_18">
      <!-- 12500 -->
      <g transform="translate(9.217188 140.898095)scale(0.1 -0.1)">
       <use xlink:href="#DejaVuSans-31"/>
       <use xlink:href="#DejaVuSans-32" x="63.623047"/>
       <use xlink:href="#DejaVuSans-35" x="127.246094"/>
       <use xlink:href="#DejaVuSans-30" x="190.869141"/>
       <use xlink:href="#DejaVuSans-30" x="254.492188"/>
      </g>
     </g>
    </g>
    <g id="ytick_8">
     <g id="line2d_19">
      <g>
       <use xlink:href="#m1f3f43ffd7" x="48.029688" y="99.201823" style="stroke: #000000; stroke-width: 0.8"/>
      </g>
     </g>
     <g id="text_19">
      <!-- 15000 -->
      <g transform="translate(9.217188 103.001041)scale(0.1 -0.1)">
       <use xlink:href="#DejaVuSans-31"/>
       <use xlink:href="#DejaVuSans-35" x="63.623047"/>
       <use xlink:href="#DejaVuSans-30" x="127.246094"/>
       <use xlink:href="#DejaVuSans-30" x="190.869141"/>
       <use xlink:href="#DejaVuSans-30" x="254.492188"/>
      </g>
     </g>
    </g>
    <g id="ytick_9">
     <g id="line2d_20">
      <g>
       <use xlink:href="#m1f3f43ffd7" x="48.029688" y="61.304769" style="stroke: #000000; stroke-width: 0.8"/>
      </g>
     </g>
     <g id="text_20">
      <!-- 17500 -->
      <g transform="translate(9.217188 65.103988)scale(0.1 -0.1)">
       <use xlink:href="#DejaVuSans-31"/>
       <use xlink:href="#DejaVuSans-37" x="63.623047"/>
       <use xlink:href="#DejaVuSans-35" x="127.246094"/>
       <use xlink:href="#DejaVuSans-30" x="190.869141"/>
       <use xlink:href="#DejaVuSans-30" x="254.492188"/>
      </g>
     </g>
    </g>
   </g>
   <g id="line2d_21">
    <path d="M 108.902415 326.584143 
L 172.97897 326.523508 
L 174.313898 326.447714 
L 175.648826 326.568984 
L 184.993324 326.280967 
L 186.328252 326.159696 
L 187.66318 326.326443 
L 188.998109 326.220331 
L 190.333037 326.296125 
L 195.67275 326.099061 
L 197.007678 326.296125 
L 199.677534 326.326443 
L 201.012463 326.159696 
L 203.682319 326.280967 
L 210.35696 326.296125 
L 211.691888 326.023267 
L 213.026817 326.296125 
L 217.031601 326.326443 
L 218.36653 326.49319 
L 222.371314 326.478031 
L 227.711027 326.478031 
L 229.045955 326.402237 
L 231.715812 326.568984 
L 233.05074 326.49319 
L 235.720597 326.553825 
L 238.390453 326.462872 
L 245.065094 326.538666 
L 246.400022 326.387078 
L 249.069879 326.523508 
L 253.074664 326.402237 
L 255.74452 326.538666 
L 258.414376 326.356761 
L 263.754089 326.538666 
L 265.089018 326.341602 
L 266.423946 326.356761 
L 267.758874 326.49319 
L 273.098587 326.265808 
L 274.433515 326.508349 
L 275.768443 326.159696 
L 277.103372 326.341602 
L 279.773228 326.205172 
L 281.108156 326.447714 
L 282.443085 326.159696 
L 283.778013 326.265808 
L 285.112941 325.795884 
L 286.447869 326.023267 
L 289.117726 326.053584 
L 290.452654 325.750408 
L 291.787582 326.220331 
L 293.12251 326.083902 
L 294.457439 325.280484 
L 297.127295 325.46239 
L 298.462223 325.826202 
L 299.797152 325.780725 
L 301.13208 326.144537 
L 303.801936 325.447231 
L 305.136865 325.553343 
L 306.471793 324.780243 
L 307.806721 325.538184 
L 309.141649 325.280484 
L 310.476577 325.613978 
L 311.811506 325.20469 
L 313.146434 324.355796 
L 314.481362 324.022302 
L 315.81629 324.280002 
L 317.151219 324.416431 
L 318.486147 324.295161 
L 319.821075 324.477067 
L 321.156003 323.703967 
L 322.490932 322.127449 
L 323.82586 322.491261 
L 326.495716 321.884908 
L 327.830644 320.899585 
L 329.165573 322.870232 
L 330.500501 322.870232 
L 331.835429 321.278555 
L 333.170357 316.746068 
L 334.505286 321.126967 
L 335.840214 320.732838 
L 337.175142 321.051173 
L 338.51007 319.914262 
L 339.844999 319.823309 
L 342.514855 318.095203 
L 343.849783 320.171961 
L 345.184711 317.761709 
L 346.51964 318.049727 
L 349.189496 322.385149 
L 350.524424 318.246791 
L 351.859353 314.942168 
L 353.194281 318.398379 
L 354.529209 312.47128 
L 355.864137 317.049244 
L 357.199065 317.306944 
L 358.533994 318.959256 
L 359.868922 319.67172 
L 362.538778 318.549968 
L 363.873707 321.020855 
L 365.208635 314.638992 
L 366.543563 320.111326 
L 367.878491 319.990056 
L 369.21342 317.792027 
L 370.548348 316.685433 
L 371.883276 311.258575 
L 373.218204 315.654633 
L 374.553132 319.247273 
L 375.888061 317.701074 
L 377.222989 316.943133 
L 378.557917 318.26195 
L 379.892845 310.333886 
L 381.227774 314.426768 
L 382.562702 314.366133 
L 383.89763 315.548521 
L 385.232558 317.200833 
L 386.567487 318.110362 
L 387.902415 314.972486 
L 389.237343 316.488368 
L 390.572271 310.530951 
L 391.907199 312.183263 
L 393.242128 315.42725 
L 394.577056 316.837021 
L 395.911984 313.820415 
L 397.246912 311.395004 
L 398.581841 311.652704 
L 399.916769 308.499669 
L 401.251697 308.181334 
L 402.586625 326.584143 
L 403.921554 302.511935 
L 405.256482 312.98668 
L 406.59141 309.591104 
L 407.926338 309.106022 
L 409.261266 308.060063 
L 410.596195 307.787204 
L 411.931123 326.584143 
L 413.266051 298.388735 
L 414.600979 309.651739 
L 415.935908 306.468387 
L 417.270836 306.498705 
L 418.605764 305.058617 
L 419.940692 304.073293 
L 421.275621 326.584143 
L 422.610549 297.676271 
L 423.945477 314.820898 
L 425.280405 305.680128 
L 426.615333 306.847358 
L 427.950262 302.997017 
L 429.28519 306.30164 
L 430.620118 326.584143 
L 431.955046 297.933971 
L 433.289975 310.106504 
L 434.624903 305.816558 
L 435.959831 305.361793 
L 437.294759 306.013622 
L 438.629687 307.893316 
L 439.964616 326.584143 
L 441.299544 301.344705 
L 442.634472 313.092792 
L 443.9694 309.060545 
L 445.304329 310.394522 
L 446.639257 311.410163 
L 447.974185 306.074258 
L 449.309113 326.584143 
L 450.644042 297.069918 
L 451.97897 311.228257 
L 453.313898 306.04394 
L 454.648826 306.407752 
L 455.983754 308.014587 
L 457.318683 305.574017 
L 458.653611 326.584143 
L 459.988539 299.540806 
L 461.323467 311.197939 
L 462.658396 303.20924 
L 465.328252 308.454193 
L 466.66318 308.908957 
L 467.998109 326.584143 
L 469.333037 302.921223 
L 470.667965 313.744621 
L 472.002893 303.800434 
L 473.337821 308.529987 
L 474.67275 308.241969 
L 476.007678 307.45371 
L 477.342606 326.584143 
L 478.677534 305.78624 
L 480.012463 313.517239 
L 481.347391 307.923634 
L 482.682319 311.167622 
L 484.017247 306.93831 
L 485.352176 309.833645 
L 486.687104 326.584143 
L 488.022032 307.089899 
L 489.35696 313.50208 
L 490.691888 309.287928 
L 492.026817 309.818487 
L 493.361745 310.667381 
L 494.696673 312.243898 
L 496.031601 326.584143 
L 497.36653 308.029746 
L 498.701458 311.743657 
L 500.036386 308.36324 
L 501.371314 308.833163 
L 502.706243 308.636098 
L 504.041171 309.909439 
L 505.376099 326.584143 
L 506.711027 305.831716 
L 508.045955 311.455639 
L 509.380884 305.028299 
L 510.715812 308.10554 
L 512.05074 308.590622 
L 513.385668 326.584143 
L 514.720597 326.584143 
L 516.055525 282.972214 
L 517.390453 313.016998 
L 518.725381 306.422911 
L 520.06031 308.060063 
L 521.395238 306.104575 
L 522.730166 326.584143 
L 524.065094 326.584143 
L 525.400022 288.004943 
L 526.734951 318.489332 
L 528.069879 308.87864 
L 529.404807 308.924116 
L 530.739735 308.696734 
L 532.074664 326.584143 
L 533.409592 326.584143 
L 534.74452 285.109608 
L 536.079448 311.288892 
L 537.414376 307.514346 
L 538.749305 309.500151 
L 540.084233 309.424357 
L 541.419161 326.584143 
L 542.754089 326.584143 
L 544.089018 292.901242 
L 545.423946 312.531916 
L 546.758874 308.893798 
L 549.428731 310.151981 
L 550.763659 326.584143 
L 552.098587 326.584143 
L 553.433515 289.884636 
L 554.768443 312.774457 
L 556.103372 309.333404 
L 557.4383 310.697698 
L 558.773228 326.584143 
L 561.443085 326.584143 
L 562.778013 284.56389 
L 564.112941 310.864445 
L 565.447869 306.650293 
L 566.782798 308.287446 
L 568.117726 326.584143 
L 570.787582 326.584143 
L 572.12251 279.364414 
L 573.457439 309.075704 
L 574.792367 304.649328 
L 576.127295 305.831716 
L 577.462223 308.287446 
L 578.797152 326.584143 
L 580.13208 326.584143 
L 581.467008 289.490507 
L 582.801936 310.940239 
L 584.136865 310.470316 
L 585.471793 310.121663 
L 586.806721 312.259057 
L 588.141649 326.584143 
L 589.476577 326.584143 
L 590.811506 298.858659 
L 592.146434 313.532398 
L 593.481362 313.926527 
L 594.81629 314.987645 
L 596.151219 313.987162 
L 597.486147 326.584143 
L 598.821075 326.584143 
L 600.156003 304.800917 
L 601.490932 317.48885 
L 602.82586 315.654633 
L 604.160788 317.928456 
L 605.495716 316.897656 
L 606.830644 326.584143 
L 608.165573 326.584143 
L 609.500501 306.983787 
L 610.835429 319.914262 
L 612.170357 318.580285 
L 613.505286 319.686879 
L 614.840214 319.823309 
L 616.175142 326.584143 
L 617.51007 326.584143 
L 618.844999 311.470798 
L 620.179927 320.262914 
L 621.514855 319.216956 
L 622.849783 320.247756 
L 624.184711 320.050691 
L 625.51964 326.584143 
L 626.854568 326.584143 
L 628.189496 313.896209 
L 629.524424 320.06585 
L 630.859353 320.005214 
L 632.194281 321.233079 
L 633.529209 319.959738 
L 634.864137 326.584143 
L 636.199065 326.584143 
L 637.533994 311.485957 
L 638.868922 320.171961 
L 640.20385 320.535773 
L 641.538778 320.247756 
L 642.873707 320.111326 
L 644.208635 326.584143 
L 645.543563 326.584143 
L 646.878491 315.290821 
L 648.21342 320.096167 
L 649.548348 320.884426 
L 650.883276 320.475138 
L 652.218204 321.324032 
L 653.553132 326.584143 
L 656.222989 326.584143 
L 657.557917 308.514828 
L 658.892845 326.584143 
L 660.227774 326.584143 
L 661.562702 307.468869 
L 662.89763 326.584143 
L 665.567487 326.584143 
L 666.902415 306.059099 
L 668.237343 326.584143 
L 669.572271 326.584143 
L 670.907199 304.512899 
L 672.242128 326.584143 
L 674.911984 326.584143 
L 676.246912 303.315352 
L 677.581841 326.584143 
L 678.916769 326.584143 
L 680.251697 300.207794 
L 681.586625 326.584143 
L 684.256482 326.584143 
L 685.59141 302.542252 
L 686.926338 326.584143 
L 693.600979 326.584143 
L 694.935908 279.864655 
L 696.270836 326.584143 
L 697.605764 326.584143 
L 698.940692 285.685643 
L 700.275621 326.584143 
L 702.945477 326.584143 
L 704.280405 284.154602 
L 705.615333 326.584143 
L 706.950262 293.386324 
L 708.28519 310.758333 
L 709.620118 326.584143 
L 710.955046 326.584143 
L 712.289975 292.325207 
L 713.624903 309.454675 
L 714.959831 303.375987 
L 716.294759 299.662076 
L 717.629687 301.481135 
L 718.964616 298.8435 
L 720.299544 326.584143 
L 721.634472 288.990266 
L 722.9694 297.373094 
L 724.304329 289.687572 
L 725.639257 284.427461 
L 726.974185 287.034778 
L 728.309113 326.584143 
L 729.644042 326.584143 
L 730.97897 240.406243 
L 732.313898 306.81704 
L 733.648826 287.853354 
L 734.983754 287.792719 
L 736.318683 290.324242 
L 737.653611 326.584143 
L 738.988539 326.584143 
L 740.323467 235.752485 
L 741.658396 292.689018 
L 742.993324 278.485203 
L 744.328252 280.516485 
L 745.66318 283.912061 
L 746.998109 326.584143 
L 748.333037 326.584143 
L 749.667965 237.374479 
L 751.002893 291.809807 
L 752.337821 282.623561 
L 753.67275 283.957537 
L 755.007678 287.368272 
L 756.342606 326.584143 
L 757.677534 326.584143 
L 759.012463 246.090802 
L 760.347391 290.657736 
L 761.682319 287.368272 
L 763.017247 289.657254 
L 764.352176 293.537912 
L 765.687104 326.584143 
L 767.022032 326.584143 
L 768.35696 252.548459 
L 769.691888 291.824966 
L 771.026817 291.430836 
L 772.361745 293.522754 
L 773.696673 293.234736 
L 775.031601 326.584143 
L 776.36653 326.584143 
L 777.701458 266.843228 
L 779.036386 297.782382 
L 780.371314 293.431801 
L 781.706243 295.644989 
L 783.041171 298.510006 
L 784.376099 326.584143 
L 785.711027 326.584143 
L 787.045955 270.435869 
L 788.380884 300.692876 
L 789.715812 298.616118 
L 791.05074 298.252306 
L 792.385668 302.269393 
L 793.720597 326.584143 
L 795.055525 326.584143 
L 796.390453 274.058827 
L 797.725381 303.46694 
L 799.06031 297.736906 
L 800.395238 300.162317 
L 801.730166 300.222953 
L 803.065094 326.584143 
L 804.400022 326.584143 
L 805.734951 276.575191 
L 807.069879 298.434212 
L 808.404807 299.646917 
L 809.739735 302.299711 
L 811.074664 301.329547 
L 812.409592 326.584143 
L 813.74452 326.584143 
L 815.079448 279.318938 
L 816.414376 304.027817 
L 817.749305 307.19601 
L 819.084233 298.5858 
L 820.419161 303.178923 
L 821.754089 326.584143 
L 824.423946 326.584143 
L 825.758874 257.050629 
L 827.093802 301.526611 
L 829.763659 303.845911 
L 831.098587 326.584143 
L 832.433515 326.584143 
L 833.768443 281.365379 
L 835.103372 306.059099 
L 836.4383 303.360829 
L 837.773228 299.267947 
L 839.108156 309.318245 
L 840.443085 326.584143 
L 843.112941 326.584143 
L 844.447869 274.498433 
L 845.782798 304.346152 
L 847.117726 300.889941 
L 848.452654 302.208758 
L 849.787582 326.584143 
L 852.457439 326.584143 
L 853.792367 261.264782 
L 855.127295 299.374059 
L 856.462223 298.888976 
L 857.797152 297.2973 
L 859.13208 326.584143 
L 860.467008 326.584143 
L 861.801936 269.208004 
L 863.136865 298.055241 
L 864.471793 294.326171 
L 865.806721 296.236183 
L 867.141649 298.979929 
L 868.476577 326.584143 
L 869.811506 326.584143 
L 871.146434 268.162045 
L 872.481362 297.2973 
L 873.81629 293.31053 
L 875.151219 291.552107 
L 876.486147 295.356971 
L 877.821075 326.584143 
L 879.156003 326.584143 
L 880.490932 253.897595 
L 881.82586 292.779971 
L 883.160788 286.88319 
L 885.830644 284.336508 
L 887.165573 326.584143 
L 888.500501 326.584143 
L 889.835429 245.317702 
L 891.170357 287.459225 
L 892.505286 283.41182 
L 893.840214 281.244108 
L 895.175142 284.897384 
L 896.51007 326.584143 
L 897.844999 326.584143 
L 899.179927 238.223373 
L 900.514855 281.774667 
L 901.849783 282.866102 
L 903.184711 281.486649 
L 904.51964 283.760473 
L 905.854568 326.584143 
L 908.524424 326.584143 
L 909.859353 221.200017 
L 911.194281 285.276355 
L 912.529209 282.608402 
L 913.864137 284.124284 
L 915.199065 326.584143 
L 916.533994 326.584143 
L 917.868922 243.362214 
L 919.20385 285.185402 
L 920.538778 287.974625 
L 921.873707 285.640166 
L 923.208635 287.929148 
L 924.543563 326.584143 
L 925.878491 326.584143 
L 927.21342 253.5641 
L 928.548348 295.084112 
L 929.883276 295.720783 
L 931.218204 295.175065 
L 932.553132 300.996052 
L 933.888061 326.584143 
L 935.222989 326.584143 
L 936.557917 265.297028 
L 937.892845 303.754958 
L 939.227774 302.117805 
L 940.562702 302.072329 
L 941.89763 305.846875 
L 943.232558 326.584143 
L 944.567487 326.584143 
L 945.902415 287.565337 
L 947.237343 306.589658 
L 948.572271 308.848322 
L 949.907199 310.667381 
L 951.242128 311.273733 
L 952.577056 326.584143 
L 953.911984 326.584143 
L 955.246912 299.161835 
L 956.581841 315.851697 
L 957.916769 312.289374 
L 959.251697 326.584143 
L 960.586625 305.877193 
L 961.921554 326.584143 
L 963.256482 326.584143 
L 964.59141 308.469351 
L 965.926338 315.108915 
L 967.261266 315.487886 
L 969.931123 319.792991 
L 971.266051 326.584143 
L 972.600979 326.584143 
L 973.935908 313.471762 
L 975.270836 319.141162 
L 976.605764 320.854108 
L 977.940692 320.566091 
L 979.275621 319.201797 
L 980.610549 326.584143 
L 981.945477 326.584143 
L 983.280405 316.730909 
L 985.950262 326.584143 
L 987.28519 316.97345 
L 988.620118 323.02182 
L 989.955046 326.584143 
L 991.289975 326.584143 
L 992.624903 318.959256 
L 993.959831 322.961185 
L 995.294759 323.628173 
L 996.629687 322.779279 
L 997.964616 323.53722 
L 999.299544 326.584143 
L 1000.634472 326.584143 
L 1001.9694 320.459979 
L 1003.304329 324.05262 
L 1004.639257 323.901032 
L 1005.974185 324.56802 
L 1007.309113 324.598337 
L 1008.644042 326.584143 
L 1011.313898 326.584143 
L 1012.648826 322.354832 
L 1013.983754 324.765084 
L 1015.318683 321.975861 
L 1016.653611 324.765084 
L 1017.988539 326.584143 
L 1019.323467 326.584143 
L 1020.658396 323.082455 
L 1021.993324 325.189531 
L 1023.328252 326.584143 
L 1024.66318 323.552379 
L 1025.998109 325.235008 
L 1027.333037 326.584143 
L 1030.002893 326.584143 
L 1031.337821 321.884908 
L 1032.67275 325.553343 
L 1034.007678 325.750408 
L 1035.342606 324.916673 
L 1036.677534 326.584143 
L 1039.347391 326.584143 
L 1040.682319 321.703002 
L 1042.017247 326.584143 
L 1048.691888 326.584143 
L 1050.026817 300.874782 
L 1051.361745 326.584143 
L 1058.036386 326.584143 
L 1059.371314 246.015007 
L 1060.706243 288.050419 
L 1062.041171 281.395696 
L 1063.376099 278.788379 
L 1064.711027 326.584143 
L 1066.045955 326.584143 
L 1067.380884 217.470947 
L 1068.715812 265.190916 
L 1070.05074 263.371858 
L 1072.720597 247.39446 
L 1074.055525 326.584143 
L 1075.390453 326.584143 
L 1076.725381 164.30896 
L 1078.06031 245.257066 
L 1079.395238 245.348019 
L 1080.730166 235.388674 
L 1082.065094 233.069374 
L 1083.400022 326.584143 
L 1086.069879 326.584143 
L 1087.404807 50.8755 
L 1088.739735 227.672834 
L 1090.074664 220.942317 
L 1091.409592 215.894429 
L 1092.74452 326.584143 
L 1094.079448 326.584143 
L 1095.414376 138.84214 
L 1096.749305 226.444969 
L 1098.084233 219.123258 
L 1099.419161 217.607376 
L 1100.754089 232.265956 
L 1102.089018 326.584143 
L 1103.423946 326.584143 
L 1104.758874 148.665057 
L 1106.093802 233.569615 
L 1107.428731 234.039539 
L 1108.763659 240.845849 
L 1110.098587 243.392531 
L 1111.433515 326.584143 
L 1112.768443 326.584143 
L 1114.103372 183.681934 
L 1115.4383 258.263335 
L 1116.773228 261.53764 
L 1118.108156 265.873063 
L 1119.443085 264.220752 
L 1120.778013 326.584143 
L 1122.112941 326.584143 
L 1123.447869 220.366282 
L 1124.782798 275.18058 
L 1126.117726 278.151709 
L 1127.452654 284.200078 
L 1128.787582 286.473902 
L 1130.12251 326.584143 
L 1131.457439 326.584143 
L 1132.792367 259.036435 
L 1134.127295 293.189259 
L 1135.462223 297.645953 
L 1136.797152 299.722711 
L 1138.13208 299.73787 
L 1139.467008 326.584143 
L 1140.801936 326.584143 
L 1142.136865 281.789826 
L 1143.471793 304.482581 
L 1144.806721 304.619011 
L 1146.141649 305.846875 
L 1147.476577 309.575945 
L 1148.811506 326.584143 
L 1150.146434 326.584143 
L 1151.481362 292.886083 
L 1152.81629 310.015551 
L 1155.486147 309.970075 
L 1156.821075 312.061992 
L 1158.156003 326.584143 
L 1159.490932 326.584143 
L 1160.82586 300.025888 
L 1162.160788 312.910886 
L 1163.495716 312.759298 
L 1164.830644 312.289374 
L 1166.165573 314.199386 
L 1167.500501 326.584143 
L 1171.505286 326.584143 
L 1172.840214 279.561479 
L 1174.175142 315.836539 
L 1175.51007 313.987162 
L 1176.844999 326.584143 
L 1179.514855 326.584143 
L 1180.849783 296.645471 
L 1182.184711 326.584143 
L 1188.859353 326.584143 
L 1190.194281 272.785486 
L 1191.529209 326.584143 
L 1199.538778 326.584143 
L 1200.873707 282.744832 
L 1202.208635 326.584143 
L 1208.883276 326.584143 
L 1210.218204 261.552799 
L 1211.553132 326.584143 
L 1218.227774 326.584143 
L 1219.562702 247.515731 
L 1220.89763 326.584143 
L 1226.237343 326.584143 
L 1227.572271 192.064762 
L 1228.907199 326.584143 
L 1236.916769 326.584143 
L 1238.251697 154.243503 
L 1239.586625 326.584143 
L 1244.926338 326.584143 
L 1246.261266 121.86426 
L 1247.596195 326.584143 
L 1255.605764 326.584143 
L 1256.940692 115.937161 
L 1258.275621 326.584143 
L 1307.667965 326.584143 
L 1307.667965 326.584143 
" clip-path="url(#p248544bec6)" style="fill: none; stroke: #0000ff; stroke-width: 1.5; stroke-linecap: square"/>
   </g>
   <g id="line2d_22">
    <path d="M 1068.715812 281.67952 
L 1070.05074 287.467209 
L 1071.385668 285.450398 
L 1072.720597 285.202811 
L 1074.055525 293.846343 
L 1075.390453 280.579475 
L 1076.725381 234.700224 
L 1078.06031 261.804725 
L 1079.395238 258.925259 
L 1080.730166 254.609179 
L 1082.065094 252.604699 
L 1083.400022 280.601863 
L 1084.734951 269.182609 
L 1086.069879 185.691385 
L 1087.404807 203.045942 
L 1088.739735 276.879309 
L 1090.074664 255.298017 
L 1091.409592 241.580064 
L 1092.74452 299.002224 
L 1094.079448 261.907149 
L 1095.414376 221.236468 
L 1096.749305 167.590016 
L 1098.084233 207.34615 
L 1099.419161 214.578083 
L 1100.754089 218.448085 
L 1102.089018 273.749592 
L 1103.423946 277.883586 
L 1104.758874 187.253004 
L 1106.093802 198.751236 
L 1107.428731 217.209922 
L 1108.763659 219.794217 
L 1110.098587 226.459901 
L 1111.433515 291.585767 
L 1112.768443 295.65933 
L 1114.103372 185.666603 
L 1115.4383 223.094238 
L 1116.773228 232.647217 
L 1118.108156 237.553523 
L 1119.443085 244.073669 
L 1120.778013 311.661733 
L 1122.112941 318.387949 
L 1123.447869 212.164643 
L 1124.782798 255.231774 
L 1126.117726 262.371309 
L 1127.452654 266.366938 
L 1128.787582 268.358605 
L 1130.12251 325.964004 
L 1131.457439 332.447129 
L 1132.792367 240.733709 
L 1134.127295 277.129113 
L 1135.462223 283.898171 
L 1136.797152 288.098766 
L 1138.13208 290.764454 
L 1139.467008 337.241296 
L 1140.801936 342.316329 
L 1142.136865 271.713072 
L 1143.471793 298.419572 
L 1144.806721 303.244759 
L 1146.141649 306.053163 
L 1147.476577 306.871189 
L 1148.811506 339.545218 
L 1150.146434 342.615267 
L 1151.481362 290.286055 
L 1152.81629 309.889072 
L 1154.151219 312.145261 
L 1155.486147 313.256049 
L 1156.821075 314.702969 
L 1158.156003 337.458875 
L 1159.490932 338.620676 
L 1160.82586 299.628753 
L 1162.160788 314.571374 
L 1163.495716 315.45166 
L 1164.830644 315.768192 
L 1166.165573 317.110907 
L 1167.500501 333.79129 
L 1168.835429 334.136247 
L 1170.170357 304.661245 
L 1171.505286 311.812804 
L 1172.840214 314.19279 
L 1174.175142 325.973478 
L 1175.51007 321.6221 
L 1176.844999 334.054638 
L 1178.179927 332.893232 
L 1179.514855 313.667287 
L 1180.849783 317.751056 
L 1182.184711 307.456171 
L 1183.51964 312.714574 
L 1184.854568 313.49447 
L 1186.189496 327.384749 
L 1187.524424 328.646282 
L 1188.859353 325.749512 
L 1190.194281 316.864101 
L 1191.529209 328.911202 
L 1192.864137 324.580118 
L 1194.199065 321.187526 
L 1195.533994 326.401175 
L 1196.868922 323.907565 
L 1198.20385 323.27966 
L 1199.538778 299.150539 
L 1202.208635 333.086053 
L 1203.543563 327.494057 
L 1204.878491 327.307534 
L 1206.21342 329.176307 
L 1207.548348 322.907481 
L 1208.883276 311.490579 
L 1210.218204 303.609445 
L 1211.553132 334.378388 
L 1212.888061 326.389139 
L 1214.222989 323.783665 
L 1215.557917 324.036465 
L 1216.892845 318.642776 
L 1218.227774 314.35433 
L 1219.562702 286.875823 
L 1220.89763 332.127122 
L 1222.232558 324.279344 
L 1223.567487 321.258053 
L 1224.902415 321.108681 
L 1226.237343 316.746426 
L 1227.572271 315.918563 
L 1228.907199 301.43232 
L 1230.242128 312.804394 
L 1231.577056 310.111815 
L 1232.911984 311.988325 
L 1234.246912 302.24405 
L 1235.581841 312.803039 
L 1236.916769 263.351616 
L 1238.251697 284.366177 
L 1239.586625 350.752508 
L 1240.921554 327.06257 
L 1242.256482 314.991896 
L 1243.59141 316.188657 
L 1244.926338 300.922811 
L 1246.261266 280.690862 
L 1247.596195 271.486704 
L 1248.931123 299.174913 
L 1250.266051 299.51819 
L 1251.600979 304.022775 
L 1252.935908 291.867105 
L 1254.270836 308.260562 
L 1255.605764 221.972918 
L 1256.940692 258.92909 
L 1258.275621 353.2755 
L 1259.610549 329.062985 
L 1260.945477 316.010299 
L 1262.280405 320.171386 
L 1263.615333 301.342676 
L 1264.950262 262.433471 
L 1266.28519 203.522735 
L 1267.620118 293.735445 
L 1268.955046 320.740948 
L 1270.289975 333.946011 
L 1272.959831 350.512361 
L 1274.294759 323.551831 
L 1275.629687 288.450595 
L 1276.964616 327.969837 
L 1278.299544 337.462159 
L 1279.634472 340.986972 
L 1280.9694 342.850295 
L 1282.304329 344.979175 
L 1283.639257 330.297113 
L 1284.974185 311.922453 
L 1286.309113 330.466144 
L 1287.644042 334.441301 
L 1288.97897 335.632295 
L 1290.313898 336.123441 
L 1291.648826 336.836704 
L 1292.983754 329.359151 
L 1294.318683 320.123014 
L 1295.653611 329.076611 
L 1296.988539 330.904368 
L 1298.323467 331.390882 
L 1299.658396 331.554741 
L 1300.993324 331.844494 
L 1302.328252 328.121541 
L 1303.66318 323.544525 
L 1304.998109 327.915915 
L 1306.333037 328.791251 
L 1307.667965 329.012323 
L 1307.667965 329.012323 
" clip-path="url(#p248544bec6)" style="fill: none; stroke: #ffa500; stroke-width: 1.5; stroke-linecap: square"/>
   </g>
   <g id="line2d_23">
    <path d="M 1309.002893 329.078702 
L 1310.337821 328.691194 
L 1311.67275 326.920745 
L 1313.007678 325.270872 
L 1314.342606 328.039769 
L 1315.677534 328.216826 
L 1317.012463 328.231117 
L 1318.347391 329.143989 
L 1319.682319 328.983302 
L 1321.017247 327.678534 
L 1322.352176 326.303706 
L 1323.687104 328.74259 
L 1325.022032 328.808222 
L 1326.35696 328.812713 
" clip-path="url(#p248544bec6)" style="fill: none; stroke: #ff0000; stroke-width: 1.5; stroke-linecap: square"/>
   </g>
   <g id="patch_3">
    <path d="M 48.029688 368.3955 
L 48.029688 35.7555 
" style="fill: none; stroke: #000000; stroke-width: 0.8; stroke-linejoin: miter; stroke-linecap: square"/>
   </g>
   <g id="patch_4">
    <path d="M 1387.229688 368.3955 
L 1387.229688 35.7555 
" style="fill: none; stroke: #000000; stroke-width: 0.8; stroke-linejoin: miter; stroke-linecap: square"/>
   </g>
   <g id="patch_5">
    <path d="M 48.029687 368.3955 
L 1387.229687 368.3955 
" style="fill: none; stroke: #000000; stroke-width: 0.8; stroke-linejoin: miter; stroke-linecap: square"/>
   </g>
   <g id="patch_6">
    <path d="M 48.029687 35.7555 
L 1387.229687 35.7555 
" style="fill: none; stroke: #000000; stroke-width: 0.8; stroke-linejoin: miter; stroke-linecap: square"/>
   </g>
   <g id="text_21">
    <!-- Daily Confirmed Cases Forecasting - Costa Rica -->
    <g transform="translate(575.395 16.318125)scale(0.12 -0.12)">
     <defs>
      <path id="DejaVuSans-44" d="M 1259 4147 
L 1259 519 
L 2022 519 
Q 2988 519 3436 956 
Q 3884 1394 3884 2338 
Q 3884 3275 3436 3711 
Q 2988 4147 2022 4147 
L 1259 4147 
z
M 628 4666 
L 1925 4666 
Q 3281 4666 3915 4102 
Q 4550 3538 4550 2338 
Q 4550 1131 3912 565 
Q 3275 0 1925 0 
L 628 0 
L 628 4666 
z
" transform="scale(0.015625)"/>
      <path id="DejaVuSans-61" d="M 2194 1759 
Q 1497 1759 1228 1600 
Q 959 1441 959 1056 
Q 959 750 1161 570 
Q 1363 391 1709 391 
Q 2188 391 2477 730 
Q 2766 1069 2766 1631 
L 2766 1759 
L 2194 1759 
z
M 3341 1997 
L 3341 0 
L 2766 0 
L 2766 531 
Q 2569 213 2275 61 
Q 1981 -91 1556 -91 
Q 1019 -91 701 211 
Q 384 513 384 1019 
Q 384 1609 779 1909 
Q 1175 2209 1959 2209 
L 2766 2209 
L 2766 2266 
Q 2766 2663 2505 2880 
Q 2244 3097 1772 3097 
Q 1472 3097 1187 3025 
Q 903 2953 641 2809 
L 641 3341 
Q 956 3463 1253 3523 
Q 1550 3584 1831 3584 
Q 2591 3584 2966 3190 
Q 3341 2797 3341 1997 
z
" transform="scale(0.015625)"/>
      <path id="DejaVuSans-69" d="M 603 3500 
L 1178 3500 
L 1178 0 
L 603 0 
L 603 3500 
z
M 603 4863 
L 1178 4863 
L 1178 4134 
L 603 4134 
L 603 4863 
z
" transform="scale(0.015625)"/>
      <path id="DejaVuSans-6c" d="M 603 4863 
L 1178 4863 
L 1178 0 
L 603 0 
L 603 4863 
z
" transform="scale(0.015625)"/>
      <path id="DejaVuSans-79" d="M 2059 -325 
Q 1816 -950 1584 -1140 
Q 1353 -1331 966 -1331 
L 506 -1331 
L 506 -850 
L 844 -850 
Q 1081 -850 1212 -737 
Q 1344 -625 1503 -206 
L 1606 56 
L 191 3500 
L 800 3500 
L 1894 763 
L 2988 3500 
L 3597 3500 
L 2059 -325 
z
" transform="scale(0.015625)"/>
      <path id="DejaVuSans-20" transform="scale(0.015625)"/>
      <path id="DejaVuSans-43" d="M 4122 4306 
L 4122 3641 
Q 3803 3938 3442 4084 
Q 3081 4231 2675 4231 
Q 1875 4231 1450 3742 
Q 1025 3253 1025 2328 
Q 1025 1406 1450 917 
Q 1875 428 2675 428 
Q 3081 428 3442 575 
Q 3803 722 4122 1019 
L 4122 359 
Q 3791 134 3420 21 
Q 3050 -91 2638 -91 
Q 1578 -91 968 557 
Q 359 1206 359 2328 
Q 359 3453 968 4101 
Q 1578 4750 2638 4750 
Q 3056 4750 3426 4639 
Q 3797 4528 4122 4306 
z
" transform="scale(0.015625)"/>
      <path id="DejaVuSans-6f" d="M 1959 3097 
Q 1497 3097 1228 2736 
Q 959 2375 959 1747 
Q 959 1119 1226 758 
Q 1494 397 1959 397 
Q 2419 397 2687 759 
Q 2956 1122 2956 1747 
Q 2956 2369 2687 2733 
Q 2419 3097 1959 3097 
z
M 1959 3584 
Q 2709 3584 3137 3096 
Q 3566 2609 3566 1747 
Q 3566 888 3137 398 
Q 2709 -91 1959 -91 
Q 1206 -91 779 398 
Q 353 888 353 1747 
Q 353 2609 779 3096 
Q 1206 3584 1959 3584 
z
" transform="scale(0.015625)"/>
      <path id="DejaVuSans-6e" d="M 3513 2113 
L 3513 0 
L 2938 0 
L 2938 2094 
Q 2938 2591 2744 2837 
Q 2550 3084 2163 3084 
Q 1697 3084 1428 2787 
Q 1159 2491 1159 1978 
L 1159 0 
L 581 0 
L 581 3500 
L 1159 3500 
L 1159 2956 
Q 1366 3272 1645 3428 
Q 1925 3584 2291 3584 
Q 2894 3584 3203 3211 
Q 3513 2838 3513 2113 
z
" transform="scale(0.015625)"/>
      <path id="DejaVuSans-66" d="M 2375 4863 
L 2375 4384 
L 1825 4384 
Q 1516 4384 1395 4259 
Q 1275 4134 1275 3809 
L 1275 3500 
L 2222 3500 
L 2222 3053 
L 1275 3053 
L 1275 0 
L 697 0 
L 697 3053 
L 147 3053 
L 147 3500 
L 697 3500 
L 697 3744 
Q 697 4328 969 4595 
Q 1241 4863 1831 4863 
L 2375 4863 
z
" transform="scale(0.015625)"/>
      <path id="DejaVuSans-72" d="M 2631 2963 
Q 2534 3019 2420 3045 
Q 2306 3072 2169 3072 
Q 1681 3072 1420 2755 
Q 1159 2438 1159 1844 
L 1159 0 
L 581 0 
L 581 3500 
L 1159 3500 
L 1159 2956 
Q 1341 3275 1631 3429 
Q 1922 3584 2338 3584 
Q 2397 3584 2469 3576 
Q 2541 3569 2628 3553 
L 2631 2963 
z
" transform="scale(0.015625)"/>
      <path id="DejaVuSans-6d" d="M 3328 2828 
Q 3544 3216 3844 3400 
Q 4144 3584 4550 3584 
Q 5097 3584 5394 3201 
Q 5691 2819 5691 2113 
L 5691 0 
L 5113 0 
L 5113 2094 
Q 5113 2597 4934 2840 
Q 4756 3084 4391 3084 
Q 3944 3084 3684 2787 
Q 3425 2491 3425 1978 
L 3425 0 
L 2847 0 
L 2847 2094 
Q 2847 2600 2669 2842 
Q 2491 3084 2119 3084 
Q 1678 3084 1418 2786 
Q 1159 2488 1159 1978 
L 1159 0 
L 581 0 
L 581 3500 
L 1159 3500 
L 1159 2956 
Q 1356 3278 1631 3431 
Q 1906 3584 2284 3584 
Q 2666 3584 2933 3390 
Q 3200 3197 3328 2828 
z
" transform="scale(0.015625)"/>
      <path id="DejaVuSans-65" d="M 3597 1894 
L 3597 1613 
L 953 1613 
Q 991 1019 1311 708 
Q 1631 397 2203 397 
Q 2534 397 2845 478 
Q 3156 559 3463 722 
L 3463 178 
Q 3153 47 2828 -22 
Q 2503 -91 2169 -91 
Q 1331 -91 842 396 
Q 353 884 353 1716 
Q 353 2575 817 3079 
Q 1281 3584 2069 3584 
Q 2775 3584 3186 3129 
Q 3597 2675 3597 1894 
z
M 3022 2063 
Q 3016 2534 2758 2815 
Q 2500 3097 2075 3097 
Q 1594 3097 1305 2825 
Q 1016 2553 972 2059 
L 3022 2063 
z
" transform="scale(0.015625)"/>
      <path id="DejaVuSans-64" d="M 2906 2969 
L 2906 4863 
L 3481 4863 
L 3481 0 
L 2906 0 
L 2906 525 
Q 2725 213 2448 61 
Q 2172 -91 1784 -91 
Q 1150 -91 751 415 
Q 353 922 353 1747 
Q 353 2572 751 3078 
Q 1150 3584 1784 3584 
Q 2172 3584 2448 3432 
Q 2725 3281 2906 2969 
z
M 947 1747 
Q 947 1113 1208 752 
Q 1469 391 1925 391 
Q 2381 391 2643 752 
Q 2906 1113 2906 1747 
Q 2906 2381 2643 2742 
Q 2381 3103 1925 3103 
Q 1469 3103 1208 2742 
Q 947 2381 947 1747 
z
" transform="scale(0.015625)"/>
      <path id="DejaVuSans-73" d="M 2834 3397 
L 2834 2853 
Q 2591 2978 2328 3040 
Q 2066 3103 1784 3103 
Q 1356 3103 1142 2972 
Q 928 2841 928 2578 
Q 928 2378 1081 2264 
Q 1234 2150 1697 2047 
L 1894 2003 
Q 2506 1872 2764 1633 
Q 3022 1394 3022 966 
Q 3022 478 2636 193 
Q 2250 -91 1575 -91 
Q 1294 -91 989 -36 
Q 684 19 347 128 
L 347 722 
Q 666 556 975 473 
Q 1284 391 1588 391 
Q 1994 391 2212 530 
Q 2431 669 2431 922 
Q 2431 1156 2273 1281 
Q 2116 1406 1581 1522 
L 1381 1569 
Q 847 1681 609 1914 
Q 372 2147 372 2553 
Q 372 3047 722 3315 
Q 1072 3584 1716 3584 
Q 2034 3584 2315 3537 
Q 2597 3491 2834 3397 
z
" transform="scale(0.015625)"/>
      <path id="DejaVuSans-46" d="M 628 4666 
L 3309 4666 
L 3309 4134 
L 1259 4134 
L 1259 2759 
L 3109 2759 
L 3109 2228 
L 1259 2228 
L 1259 0 
L 628 0 
L 628 4666 
z
" transform="scale(0.015625)"/>
      <path id="DejaVuSans-63" d="M 3122 3366 
L 3122 2828 
Q 2878 2963 2633 3030 
Q 2388 3097 2138 3097 
Q 1578 3097 1268 2742 
Q 959 2388 959 1747 
Q 959 1106 1268 751 
Q 1578 397 2138 397 
Q 2388 397 2633 464 
Q 2878 531 3122 666 
L 3122 134 
Q 2881 22 2623 -34 
Q 2366 -91 2075 -91 
Q 1284 -91 818 406 
Q 353 903 353 1747 
Q 353 2603 823 3093 
Q 1294 3584 2113 3584 
Q 2378 3584 2631 3529 
Q 2884 3475 3122 3366 
z
" transform="scale(0.015625)"/>
      <path id="DejaVuSans-74" d="M 1172 4494 
L 1172 3500 
L 2356 3500 
L 2356 3053 
L 1172 3053 
L 1172 1153 
Q 1172 725 1289 603 
Q 1406 481 1766 481 
L 2356 481 
L 2356 0 
L 1766 0 
Q 1100 0 847 248 
Q 594 497 594 1153 
L 594 3053 
L 172 3053 
L 172 3500 
L 594 3500 
L 594 4494 
L 1172 4494 
z
" transform="scale(0.015625)"/>
      <path id="DejaVuSans-67" d="M 2906 1791 
Q 2906 2416 2648 2759 
Q 2391 3103 1925 3103 
Q 1463 3103 1205 2759 
Q 947 2416 947 1791 
Q 947 1169 1205 825 
Q 1463 481 1925 481 
Q 2391 481 2648 825 
Q 2906 1169 2906 1791 
z
M 3481 434 
Q 3481 -459 3084 -895 
Q 2688 -1331 1869 -1331 
Q 1566 -1331 1297 -1286 
Q 1028 -1241 775 -1147 
L 775 -588 
Q 1028 -725 1275 -790 
Q 1522 -856 1778 -856 
Q 2344 -856 2625 -561 
Q 2906 -266 2906 331 
L 2906 616 
Q 2728 306 2450 153 
Q 2172 0 1784 0 
Q 1141 0 747 490 
Q 353 981 353 1791 
Q 353 2603 747 3093 
Q 1141 3584 1784 3584 
Q 2172 3584 2450 3431 
Q 2728 3278 2906 2969 
L 2906 3500 
L 3481 3500 
L 3481 434 
z
" transform="scale(0.015625)"/>
      <path id="DejaVuSans-52" d="M 2841 2188 
Q 3044 2119 3236 1894 
Q 3428 1669 3622 1275 
L 4263 0 
L 3584 0 
L 2988 1197 
Q 2756 1666 2539 1819 
Q 2322 1972 1947 1972 
L 1259 1972 
L 1259 0 
L 628 0 
L 628 4666 
L 2053 4666 
Q 2853 4666 3247 4331 
Q 3641 3997 3641 3322 
Q 3641 2881 3436 2590 
Q 3231 2300 2841 2188 
z
M 1259 4147 
L 1259 2491 
L 2053 2491 
Q 2509 2491 2742 2702 
Q 2975 2913 2975 3322 
Q 2975 3731 2742 3939 
Q 2509 4147 2053 4147 
L 1259 4147 
z
" transform="scale(0.015625)"/>
     </defs>
     <use xlink:href="#DejaVuSans-44"/>
     <use xlink:href="#DejaVuSans-61" x="77.001953"/>
     <use xlink:href="#DejaVuSans-69" x="138.28125"/>
     <use xlink:href="#DejaVuSans-6c" x="166.064453"/>
     <use xlink:href="#DejaVuSans-79" x="193.847656"/>
     <use xlink:href="#DejaVuSans-20" x="253.027344"/>
     <use xlink:href="#DejaVuSans-43" x="284.814453"/>
     <use xlink:href="#DejaVuSans-6f" x="354.638672"/>
     <use xlink:href="#DejaVuSans-6e" x="415.820312"/>
     <use xlink:href="#DejaVuSans-66" x="479.199219"/>
     <use xlink:href="#DejaVuSans-69" x="514.404297"/>
     <use xlink:href="#DejaVuSans-72" x="542.1875"/>
     <use xlink:href="#DejaVuSans-6d" x="581.550781"/>
     <use xlink:href="#DejaVuSans-65" x="678.962891"/>
     <use xlink:href="#DejaVuSans-64" x="740.486328"/>
     <use xlink:href="#DejaVuSans-20" x="803.962891"/>
     <use xlink:href="#DejaVuSans-43" x="835.75"/>
     <use xlink:href="#DejaVuSans-61" x="905.574219"/>
     <use xlink:href="#DejaVuSans-73" x="966.853516"/>
     <use xlink:href="#DejaVuSans-65" x="1018.953125"/>
     <use xlink:href="#DejaVuSans-73" x="1080.476562"/>
     <use xlink:href="#DejaVuSans-20" x="1132.576172"/>
     <use xlink:href="#DejaVuSans-46" x="1164.363281"/>
     <use xlink:href="#DejaVuSans-6f" x="1218.257812"/>
     <use xlink:href="#DejaVuSans-72" x="1279.439453"/>
     <use xlink:href="#DejaVuSans-65" x="1318.302734"/>
     <use xlink:href="#DejaVuSans-63" x="1379.826172"/>
     <use xlink:href="#DejaVuSans-61" x="1434.806641"/>
     <use xlink:href="#DejaVuSans-73" x="1496.085938"/>
     <use xlink:href="#DejaVuSans-74" x="1548.185547"/>
     <use xlink:href="#DejaVuSans-69" x="1587.394531"/>
     <use xlink:href="#DejaVuSans-6e" x="1615.177734"/>
     <use xlink:href="#DejaVuSans-67" x="1678.556641"/>
     <use xlink:href="#DejaVuSans-20" x="1742.033203"/>
     <use xlink:href="#DejaVuSans-2d" x="1773.820312"/>
     <use xlink:href="#DejaVuSans-20" x="1809.904297"/>
     <use xlink:href="#DejaVuSans-43" x="1841.691406"/>
     <use xlink:href="#DejaVuSans-6f" x="1911.515625"/>
     <use xlink:href="#DejaVuSans-73" x="1972.697266"/>
     <use xlink:href="#DejaVuSans-74" x="2024.796875"/>
     <use xlink:href="#DejaVuSans-61" x="2064.005859"/>
     <use xlink:href="#DejaVuSans-20" x="2125.285156"/>
     <use xlink:href="#DejaVuSans-52" x="2157.072266"/>
     <use xlink:href="#DejaVuSans-69" x="2226.554688"/>
     <use xlink:href="#DejaVuSans-63" x="2254.337891"/>
     <use xlink:href="#DejaVuSans-61" x="2309.318359"/>
    </g>
    <!-- ARIMA (4, 1, 1)x(1, 0, 1, 7) (R2 = 0.436411) -->
    <g transform="translate(585.645625 29.7555)scale(0.12 -0.12)">
     <defs>
      <path id="DejaVuSans-41" d="M 2188 4044 
L 1331 1722 
L 3047 1722 
L 2188 4044 
z
M 1831 4666 
L 2547 4666 
L 4325 0 
L 3669 0 
L 3244 1197 
L 1141 1197 
L 716 0 
L 50 0 
L 1831 4666 
z
" transform="scale(0.015625)"/>
      <path id="DejaVuSans-49" d="M 628 4666 
L 1259 4666 
L 1259 0 
L 628 0 
L 628 4666 
z
" transform="scale(0.015625)"/>
      <path id="DejaVuSans-4d" d="M 628 4666 
L 1569 4666 
L 2759 1491 
L 3956 4666 
L 4897 4666 
L 4897 0 
L 4281 0 
L 4281 4097 
L 3078 897 
L 2444 897 
L 1241 4097 
L 1241 0 
L 628 0 
L 628 4666 
z
" transform="scale(0.015625)"/>
      <path id="DejaVuSans-28" d="M 1984 4856 
Q 1566 4138 1362 3434 
Q 1159 2731 1159 2009 
Q 1159 1288 1364 580 
Q 1569 -128 1984 -844 
L 1484 -844 
Q 1016 -109 783 600 
Q 550 1309 550 2009 
Q 550 2706 781 3412 
Q 1013 4119 1484 4856 
L 1984 4856 
z
" transform="scale(0.015625)"/>
      <path id="DejaVuSans-2c" d="M 750 794 
L 1409 794 
L 1409 256 
L 897 -744 
L 494 -744 
L 750 256 
L 750 794 
z
" transform="scale(0.015625)"/>
      <path id="DejaVuSans-29" d="M 513 4856 
L 1013 4856 
Q 1481 4119 1714 3412 
Q 1947 2706 1947 2009 
Q 1947 1309 1714 600 
Q 1481 -109 1013 -844 
L 513 -844 
Q 928 -128 1133 580 
Q 1338 1288 1338 2009 
Q 1338 2731 1133 3434 
Q 928 4138 513 4856 
z
" transform="scale(0.015625)"/>
      <path id="DejaVuSans-78" d="M 3513 3500 
L 2247 1797 
L 3578 0 
L 2900 0 
L 1881 1375 
L 863 0 
L 184 0 
L 1544 1831 
L 300 3500 
L 978 3500 
L 1906 2253 
L 2834 3500 
L 3513 3500 
z
" transform="scale(0.015625)"/>
      <path id="DejaVuSans-3d" d="M 678 2906 
L 4684 2906 
L 4684 2381 
L 678 2381 
L 678 2906 
z
M 678 1631 
L 4684 1631 
L 4684 1100 
L 678 1100 
L 678 1631 
z
" transform="scale(0.015625)"/>
      <path id="DejaVuSans-2e" d="M 684 794 
L 1344 794 
L 1344 0 
L 684 0 
L 684 794 
z
" transform="scale(0.015625)"/>
      <path id="DejaVuSans-33" d="M 2597 2516 
Q 3050 2419 3304 2112 
Q 3559 1806 3559 1356 
Q 3559 666 3084 287 
Q 2609 -91 1734 -91 
Q 1441 -91 1130 -33 
Q 819 25 488 141 
L 488 750 
Q 750 597 1062 519 
Q 1375 441 1716 441 
Q 2309 441 2620 675 
Q 2931 909 2931 1356 
Q 2931 1769 2642 2001 
Q 2353 2234 1838 2234 
L 1294 2234 
L 1294 2753 
L 1863 2753 
Q 2328 2753 2575 2939 
Q 2822 3125 2822 3475 
Q 2822 3834 2567 4026 
Q 2313 4219 1838 4219 
Q 1578 4219 1281 4162 
Q 984 4106 628 3988 
L 628 4550 
Q 988 4650 1302 4700 
Q 1616 4750 1894 4750 
Q 2613 4750 3031 4423 
Q 3450 4097 3450 3541 
Q 3450 3153 3228 2886 
Q 3006 2619 2597 2516 
z
" transform="scale(0.015625)"/>
      <path id="DejaVuSans-36" d="M 2113 2584 
Q 1688 2584 1439 2293 
Q 1191 2003 1191 1497 
Q 1191 994 1439 701 
Q 1688 409 2113 409 
Q 2538 409 2786 701 
Q 3034 994 3034 1497 
Q 3034 2003 2786 2293 
Q 2538 2584 2113 2584 
z
M 3366 4563 
L 3366 3988 
Q 3128 4100 2886 4159 
Q 2644 4219 2406 4219 
Q 1781 4219 1451 3797 
Q 1122 3375 1075 2522 
Q 1259 2794 1537 2939 
Q 1816 3084 2150 3084 
Q 2853 3084 3261 2657 
Q 3669 2231 3669 1497 
Q 3669 778 3244 343 
Q 2819 -91 2113 -91 
Q 1303 -91 875 529 
Q 447 1150 447 2328 
Q 447 3434 972 4092 
Q 1497 4750 2381 4750 
Q 2619 4750 2861 4703 
Q 3103 4656 3366 4563 
z
" transform="scale(0.015625)"/>
     </defs>
     <use xlink:href="#DejaVuSans-41"/>
     <use xlink:href="#DejaVuSans-52" x="68.408203"/>
     <use xlink:href="#DejaVuSans-49" x="137.890625"/>
     <use xlink:href="#DejaVuSans-4d" x="167.382812"/>
     <use xlink:href="#DejaVuSans-41" x="253.662109"/>
     <use xlink:href="#DejaVuSans-20" x="322.070312"/>
     <use xlink:href="#DejaVuSans-28" x="353.857422"/>
     <use xlink:href="#DejaVuSans-34" x="392.871094"/>
     <use xlink:href="#DejaVuSans-2c" x="456.494141"/>
     <use xlink:href="#DejaVuSans-20" x="488.28125"/>
     <use xlink:href="#DejaVuSans-31" x="520.068359"/>
     <use xlink:href="#DejaVuSans-2c" x="583.691406"/>
     <use xlink:href="#DejaVuSans-20" x="615.478516"/>
     <use xlink:href="#DejaVuSans-31" x="647.265625"/>
     <use xlink:href="#DejaVuSans-29" x="710.888672"/>
     <use xlink:href="#DejaVuSans-78" x="749.902344"/>
     <use xlink:href="#DejaVuSans-28" x="809.082031"/>
     <use xlink:href="#DejaVuSans-31" x="848.095703"/>
     <use xlink:href="#DejaVuSans-2c" x="911.71875"/>
     <use xlink:href="#DejaVuSans-20" x="943.505859"/>
     <use xlink:href="#DejaVuSans-30" x="975.292969"/>
     <use xlink:href="#DejaVuSans-2c" x="1038.916016"/>
     <use xlink:href="#DejaVuSans-20" x="1070.703125"/>
     <use xlink:href="#DejaVuSans-31" x="1102.490234"/>
     <use xlink:href="#DejaVuSans-2c" x="1166.113281"/>
     <use xlink:href="#DejaVuSans-20" x="1197.900391"/>
     <use xlink:href="#DejaVuSans-37" x="1229.6875"/>
     <use xlink:href="#DejaVuSans-29" x="1293.310547"/>
     <use xlink:href="#DejaVuSans-20" x="1332.324219"/>
     <use xlink:href="#DejaVuSans-28" x="1364.111328"/>
     <use xlink:href="#DejaVuSans-52" x="1403.125"/>
     <use xlink:href="#DejaVuSans-32" x="1472.607422"/>
     <use xlink:href="#DejaVuSans-20" x="1536.230469"/>
     <use xlink:href="#DejaVuSans-3d" x="1568.017578"/>
     <use xlink:href="#DejaVuSans-20" x="1651.806641"/>
     <use xlink:href="#DejaVuSans-30" x="1683.59375"/>
     <use xlink:href="#DejaVuSans-2e" x="1747.216797"/>
     <use xlink:href="#DejaVuSans-34" x="1779.003906"/>
     <use xlink:href="#DejaVuSans-33" x="1842.626953"/>
     <use xlink:href="#DejaVuSans-36" x="1906.25"/>
     <use xlink:href="#DejaVuSans-34" x="1969.873047"/>
     <use xlink:href="#DejaVuSans-31" x="2033.496094"/>
     <use xlink:href="#DejaVuSans-31" x="2097.119141"/>
     <use xlink:href="#DejaVuSans-29" x="2160.742188"/>
    </g>
   </g>
   <g id="legend_1">
    <g id="patch_7">
     <path d="M 1283.15 87.789875 
L 1380.229688 87.789875 
Q 1382.229688 87.789875 1382.229688 85.789875 
L 1382.229688 42.7555 
Q 1382.229688 40.7555 1380.229688 40.7555 
L 1283.15 40.7555 
Q 1281.15 40.7555 1281.15 42.7555 
L 1281.15 85.789875 
Q 1281.15 87.789875 1283.15 87.789875 
z
" style="fill: #ffffff; opacity: 0.8; stroke: #cccccc; stroke-linejoin: miter"/>
    </g>
    <g id="line2d_24">
     <path d="M 1285.15 48.853937 
L 1295.15 48.853937 
L 1305.15 48.853937 
" style="fill: none; stroke: #0000ff; stroke-width: 1.5; stroke-linecap: square"/>
    </g>
    <g id="text_22">
     <!-- Actual Value -->
     <g transform="translate(1313.15 52.353937)scale(0.1 -0.1)">
      <defs>
       <path id="DejaVuSans-75" d="M 544 1381 
L 544 3500 
L 1119 3500 
L 1119 1403 
Q 1119 906 1312 657 
Q 1506 409 1894 409 
Q 2359 409 2629 706 
Q 2900 1003 2900 1516 
L 2900 3500 
L 3475 3500 
L 3475 0 
L 2900 0 
L 2900 538 
Q 2691 219 2414 64 
Q 2138 -91 1772 -91 
Q 1169 -91 856 284 
Q 544 659 544 1381 
z
M 1991 3584 
L 1991 3584 
z
" transform="scale(0.015625)"/>
       <path id="DejaVuSans-56" d="M 1831 0 
L 50 4666 
L 709 4666 
L 2188 738 
L 3669 4666 
L 4325 4666 
L 2547 0 
L 1831 0 
z
" transform="scale(0.015625)"/>
      </defs>
      <use xlink:href="#DejaVuSans-41"/>
      <use xlink:href="#DejaVuSans-63" x="66.658203"/>
      <use xlink:href="#DejaVuSans-74" x="121.638672"/>
      <use xlink:href="#DejaVuSans-75" x="160.847656"/>
      <use xlink:href="#DejaVuSans-61" x="224.226562"/>
      <use xlink:href="#DejaVuSans-6c" x="285.505859"/>
      <use xlink:href="#DejaVuSans-20" x="313.289062"/>
      <use xlink:href="#DejaVuSans-56" x="345.076172"/>
      <use xlink:href="#DejaVuSans-61" x="405.734375"/>
      <use xlink:href="#DejaVuSans-6c" x="467.013672"/>
      <use xlink:href="#DejaVuSans-75" x="494.796875"/>
      <use xlink:href="#DejaVuSans-65" x="558.175781"/>
     </g>
    </g>
    <g id="line2d_25">
     <path d="M 1285.15 63.532062 
L 1295.15 63.532062 
L 1305.15 63.532062 
" style="fill: none; stroke: #ffa500; stroke-width: 1.5; stroke-linecap: square"/>
    </g>
    <g id="text_23">
     <!-- Check Value -->
     <g transform="translate(1313.15 67.032062)scale(0.1 -0.1)">
      <defs>
       <path id="DejaVuSans-68" d="M 3513 2113 
L 3513 0 
L 2938 0 
L 2938 2094 
Q 2938 2591 2744 2837 
Q 2550 3084 2163 3084 
Q 1697 3084 1428 2787 
Q 1159 2491 1159 1978 
L 1159 0 
L 581 0 
L 581 4863 
L 1159 4863 
L 1159 2956 
Q 1366 3272 1645 3428 
Q 1925 3584 2291 3584 
Q 2894 3584 3203 3211 
Q 3513 2838 3513 2113 
z
" transform="scale(0.015625)"/>
       <path id="DejaVuSans-6b" d="M 581 4863 
L 1159 4863 
L 1159 1991 
L 2875 3500 
L 3609 3500 
L 1753 1863 
L 3688 0 
L 2938 0 
L 1159 1709 
L 1159 0 
L 581 0 
L 581 4863 
z
" transform="scale(0.015625)"/>
      </defs>
      <use xlink:href="#DejaVuSans-43"/>
      <use xlink:href="#DejaVuSans-68" x="69.824219"/>
      <use xlink:href="#DejaVuSans-65" x="133.203125"/>
      <use xlink:href="#DejaVuSans-63" x="194.726562"/>
      <use xlink:href="#DejaVuSans-6b" x="249.707031"/>
      <use xlink:href="#DejaVuSans-20" x="307.617188"/>
      <use xlink:href="#DejaVuSans-56" x="339.404297"/>
      <use xlink:href="#DejaVuSans-61" x="400.0625"/>
      <use xlink:href="#DejaVuSans-6c" x="461.341797"/>
      <use xlink:href="#DejaVuSans-75" x="489.125"/>
      <use xlink:href="#DejaVuSans-65" x="552.503906"/>
     </g>
    </g>
    <g id="line2d_26">
     <path d="M 1285.15 78.210187 
L 1295.15 78.210187 
L 1305.15 78.210187 
" style="fill: none; stroke: #ff0000; stroke-width: 1.5; stroke-linecap: square"/>
    </g>
    <g id="text_24">
     <!-- Predict Value -->
     <g transform="translate(1313.15 81.710187)scale(0.1 -0.1)">
      <defs>
       <path id="DejaVuSans-50" d="M 1259 4147 
L 1259 2394 
L 2053 2394 
Q 2494 2394 2734 2622 
Q 2975 2850 2975 3272 
Q 2975 3691 2734 3919 
Q 2494 4147 2053 4147 
L 1259 4147 
z
M 628 4666 
L 2053 4666 
Q 2838 4666 3239 4311 
Q 3641 3956 3641 3272 
Q 3641 2581 3239 2228 
Q 2838 1875 2053 1875 
L 1259 1875 
L 1259 0 
L 628 0 
L 628 4666 
z
" transform="scale(0.015625)"/>
      </defs>
      <use xlink:href="#DejaVuSans-50"/>
      <use xlink:href="#DejaVuSans-72" x="58.552734"/>
      <use xlink:href="#DejaVuSans-65" x="97.416016"/>
      <use xlink:href="#DejaVuSans-64" x="158.939453"/>
      <use xlink:href="#DejaVuSans-69" x="222.416016"/>
      <use xlink:href="#DejaVuSans-63" x="250.199219"/>
      <use xlink:href="#DejaVuSans-74" x="305.179688"/>
      <use xlink:href="#DejaVuSans-20" x="344.388672"/>
      <use xlink:href="#DejaVuSans-56" x="376.175781"/>
      <use xlink:href="#DejaVuSans-61" x="436.833984"/>
      <use xlink:href="#DejaVuSans-6c" x="498.113281"/>
      <use xlink:href="#DejaVuSans-75" x="525.896484"/>
      <use xlink:href="#DejaVuSans-65" x="589.275391"/>
     </g>
    </g>
   </g>
  </g>
 </g>
 <defs>
  <clipPath id="p248544bec6">
   <rect x="48.029688" y="35.7555" width="1339.2" height="332.64"/>
  </clipPath>
 </defs>
</svg>
