<?xml version="1.0" encoding="utf-8" standalone="no"?>
<!DOCTYPE svg PUBLIC "-//W3C//DTD SVG 1.1//EN"
  "http://www.w3.org/Graphics/SVG/1.1/DTD/svg11.dtd">
<svg xmlns:xlink="http://www.w3.org/1999/xlink" width="1398.775pt" height="392.273625pt" viewBox="0 0 1398.775 392.273625" xmlns="http://www.w3.org/2000/svg" version="1.1">
 <metadata>
  <rdf:RDF xmlns:dc="http://purl.org/dc/elements/1.1/" xmlns:cc="http://creativecommons.org/ns#" xmlns:rdf="http://www.w3.org/1999/02/22-rdf-syntax-ns#">
   <cc:Work>
    <dc:type rdf:resource="http://purl.org/dc/dcmitype/StillImage"/>
    <dc:date>2022-09-17T19:01:20.872514</dc:date>
    <dc:format>image/svg+xml</dc:format>
    <dc:creator>
     <cc:Agent>
      <dc:title>Matplotlib v3.5.1, https://matplotlib.org/</dc:title>
     </cc:Agent>
    </dc:creator>
   </cc:Work>
  </rdf:RDF>
 </metadata>
 <defs>
  <style type="text/css">*{stroke-linejoin: round; stroke-linecap: butt}</style>
 </defs>
 <g id="figure_1">
  <g id="patch_1">
   <path d="M 0 392.273625 
L 1398.775 392.273625 
L 1398.775 0 
L 0 0 
z
" style="fill: #ffffff"/>
  </g>
  <g id="axes_1">
   <g id="patch_2">
    <path d="M 52.375 368.3955 
L 1391.575 368.3955 
L 1391.575 35.7555 
L 52.375 35.7555 
z
" style="fill: #ffffff"/>
   </g>
   <g id="matplotlib.axis_1">
    <g id="xtick_1">
     <g id="line2d_1">
      <defs>
       <path id="m24cfdccdc0" d="M 0 0 
L 0 3.5 
" style="stroke: #000000; stroke-width: 0.8"/>
      </defs>
      <g>
       <use xlink:href="#m24cfdccdc0" x="85.944975" y="368.3955" style="stroke: #000000; stroke-width: 0.8"/>
      </g>
     </g>
     <g id="text_1">
      <!-- 2020-01 -->
      <g transform="translate(65.053569 382.993937)scale(0.1 -0.1)">
       <defs>
        <path id="DejaVuSans-32" d="M 1228 531 
L 3431 531 
L 3431 0 
L 469 0 
L 469 531 
Q 828 903 1448 1529 
Q 2069 2156 2228 2338 
Q 2531 2678 2651 2914 
Q 2772 3150 2772 3378 
Q 2772 3750 2511 3984 
Q 2250 4219 1831 4219 
Q 1534 4219 1204 4116 
Q 875 4013 500 3803 
L 500 4441 
Q 881 4594 1212 4672 
Q 1544 4750 1819 4750 
Q 2544 4750 2975 4387 
Q 3406 4025 3406 3419 
Q 3406 3131 3298 2873 
Q 3191 2616 2906 2266 
Q 2828 2175 2409 1742 
Q 1991 1309 1228 531 
z
" transform="scale(0.015625)"/>
        <path id="DejaVuSans-30" d="M 2034 4250 
Q 1547 4250 1301 3770 
Q 1056 3291 1056 2328 
Q 1056 1369 1301 889 
Q 1547 409 2034 409 
Q 2525 409 2770 889 
Q 3016 1369 3016 2328 
Q 3016 3291 2770 3770 
Q 2525 4250 2034 4250 
z
M 2034 4750 
Q 2819 4750 3233 4129 
Q 3647 3509 3647 2328 
Q 3647 1150 3233 529 
Q 2819 -91 2034 -91 
Q 1250 -91 836 529 
Q 422 1150 422 2328 
Q 422 3509 836 4129 
Q 1250 4750 2034 4750 
z
" transform="scale(0.015625)"/>
        <path id="DejaVuSans-2d" d="M 313 2009 
L 1997 2009 
L 1997 1497 
L 313 1497 
L 313 2009 
z
" transform="scale(0.015625)"/>
        <path id="DejaVuSans-31" d="M 794 531 
L 1825 531 
L 1825 4091 
L 703 3866 
L 703 4441 
L 1819 4666 
L 2450 4666 
L 2450 531 
L 3481 531 
L 3481 0 
L 794 0 
L 794 531 
z
" transform="scale(0.015625)"/>
       </defs>
       <use xlink:href="#DejaVuSans-32"/>
       <use xlink:href="#DejaVuSans-30" x="63.623047"/>
       <use xlink:href="#DejaVuSans-32" x="127.246094"/>
       <use xlink:href="#DejaVuSans-30" x="190.869141"/>
       <use xlink:href="#DejaVuSans-2d" x="254.492188"/>
       <use xlink:href="#DejaVuSans-30" x="290.576172"/>
       <use xlink:href="#DejaVuSans-31" x="354.199219"/>
      </g>
     </g>
    </g>
    <g id="xtick_2">
     <g id="line2d_2">
      <g>
       <use xlink:href="#m24cfdccdc0" x="236.110113" y="368.3955" style="stroke: #000000; stroke-width: 0.8"/>
      </g>
     </g>
     <g id="text_2">
      <!-- 2020-05 -->
      <g transform="translate(215.218706 382.993937)scale(0.1 -0.1)">
       <defs>
        <path id="DejaVuSans-35" d="M 691 4666 
L 3169 4666 
L 3169 4134 
L 1269 4134 
L 1269 2991 
Q 1406 3038 1543 3061 
Q 1681 3084 1819 3084 
Q 2600 3084 3056 2656 
Q 3513 2228 3513 1497 
Q 3513 744 3044 326 
Q 2575 -91 1722 -91 
Q 1428 -91 1123 -41 
Q 819 9 494 109 
L 494 744 
Q 775 591 1075 516 
Q 1375 441 1709 441 
Q 2250 441 2565 725 
Q 2881 1009 2881 1497 
Q 2881 1984 2565 2268 
Q 2250 2553 1709 2553 
Q 1456 2553 1204 2497 
Q 953 2441 691 2322 
L 691 4666 
z
" transform="scale(0.015625)"/>
       </defs>
       <use xlink:href="#DejaVuSans-32"/>
       <use xlink:href="#DejaVuSans-30" x="63.623047"/>
       <use xlink:href="#DejaVuSans-32" x="127.246094"/>
       <use xlink:href="#DejaVuSans-30" x="190.869141"/>
       <use xlink:href="#DejaVuSans-2d" x="254.492188"/>
       <use xlink:href="#DejaVuSans-30" x="290.576172"/>
       <use xlink:href="#DejaVuSans-35" x="354.199219"/>
      </g>
     </g>
    </g>
    <g id="xtick_3">
     <g id="line2d_3">
      <g>
       <use xlink:href="#m24cfdccdc0" x="388.757319" y="368.3955" style="stroke: #000000; stroke-width: 0.8"/>
      </g>
     </g>
     <g id="text_3">
      <!-- 2020-09 -->
      <g transform="translate(367.865912 382.993937)scale(0.1 -0.1)">
       <defs>
        <path id="DejaVuSans-39" d="M 703 97 
L 703 672 
Q 941 559 1184 500 
Q 1428 441 1663 441 
Q 2288 441 2617 861 
Q 2947 1281 2994 2138 
Q 2813 1869 2534 1725 
Q 2256 1581 1919 1581 
Q 1219 1581 811 2004 
Q 403 2428 403 3163 
Q 403 3881 828 4315 
Q 1253 4750 1959 4750 
Q 2769 4750 3195 4129 
Q 3622 3509 3622 2328 
Q 3622 1225 3098 567 
Q 2575 -91 1691 -91 
Q 1453 -91 1209 -44 
Q 966 3 703 97 
z
M 1959 2075 
Q 2384 2075 2632 2365 
Q 2881 2656 2881 3163 
Q 2881 3666 2632 3958 
Q 2384 4250 1959 4250 
Q 1534 4250 1286 3958 
Q 1038 3666 1038 3163 
Q 1038 2656 1286 2365 
Q 1534 2075 1959 2075 
z
" transform="scale(0.015625)"/>
       </defs>
       <use xlink:href="#DejaVuSans-32"/>
       <use xlink:href="#DejaVuSans-30" x="63.623047"/>
       <use xlink:href="#DejaVuSans-32" x="127.246094"/>
       <use xlink:href="#DejaVuSans-30" x="190.869141"/>
       <use xlink:href="#DejaVuSans-2d" x="254.492188"/>
       <use xlink:href="#DejaVuSans-30" x="290.576172"/>
       <use xlink:href="#DejaVuSans-39" x="354.199219"/>
      </g>
     </g>
    </g>
    <g id="xtick_4">
     <g id="line2d_4">
      <g>
       <use xlink:href="#m24cfdccdc0" x="540.16349" y="368.3955" style="stroke: #000000; stroke-width: 0.8"/>
      </g>
     </g>
     <g id="text_4">
      <!-- 2021-01 -->
      <g transform="translate(519.272084 382.993937)scale(0.1 -0.1)">
       <use xlink:href="#DejaVuSans-32"/>
       <use xlink:href="#DejaVuSans-30" x="63.623047"/>
       <use xlink:href="#DejaVuSans-32" x="127.246094"/>
       <use xlink:href="#DejaVuSans-31" x="190.869141"/>
       <use xlink:href="#DejaVuSans-2d" x="254.492188"/>
       <use xlink:href="#DejaVuSans-30" x="290.576172"/>
       <use xlink:href="#DejaVuSans-31" x="354.199219"/>
      </g>
     </g>
    </g>
    <g id="xtick_5">
     <g id="line2d_5">
      <g>
       <use xlink:href="#m24cfdccdc0" x="689.087594" y="368.3955" style="stroke: #000000; stroke-width: 0.8"/>
      </g>
     </g>
     <g id="text_5">
      <!-- 2021-05 -->
      <g transform="translate(668.196188 382.993937)scale(0.1 -0.1)">
       <use xlink:href="#DejaVuSans-32"/>
       <use xlink:href="#DejaVuSans-30" x="63.623047"/>
       <use xlink:href="#DejaVuSans-32" x="127.246094"/>
       <use xlink:href="#DejaVuSans-31" x="190.869141"/>
       <use xlink:href="#DejaVuSans-2d" x="254.492188"/>
       <use xlink:href="#DejaVuSans-30" x="290.576172"/>
       <use xlink:href="#DejaVuSans-35" x="354.199219"/>
      </g>
     </g>
    </g>
    <g id="xtick_6">
     <g id="line2d_6">
      <g>
       <use xlink:href="#m24cfdccdc0" x="841.7348" y="368.3955" style="stroke: #000000; stroke-width: 0.8"/>
      </g>
     </g>
     <g id="text_6">
      <!-- 2021-09 -->
      <g transform="translate(820.843394 382.993937)scale(0.1 -0.1)">
       <use xlink:href="#DejaVuSans-32"/>
       <use xlink:href="#DejaVuSans-30" x="63.623047"/>
       <use xlink:href="#DejaVuSans-32" x="127.246094"/>
       <use xlink:href="#DejaVuSans-31" x="190.869141"/>
       <use xlink:href="#DejaVuSans-2d" x="254.492188"/>
       <use xlink:href="#DejaVuSans-30" x="290.576172"/>
       <use xlink:href="#DejaVuSans-39" x="354.199219"/>
      </g>
     </g>
    </g>
    <g id="xtick_7">
     <g id="line2d_7">
      <g>
       <use xlink:href="#m24cfdccdc0" x="993.140972" y="368.3955" style="stroke: #000000; stroke-width: 0.8"/>
      </g>
     </g>
     <g id="text_7">
      <!-- 2022-01 -->
      <g transform="translate(972.249565 382.993937)scale(0.1 -0.1)">
       <use xlink:href="#DejaVuSans-32"/>
       <use xlink:href="#DejaVuSans-30" x="63.623047"/>
       <use xlink:href="#DejaVuSans-32" x="127.246094"/>
       <use xlink:href="#DejaVuSans-32" x="190.869141"/>
       <use xlink:href="#DejaVuSans-2d" x="254.492188"/>
       <use xlink:href="#DejaVuSans-30" x="290.576172"/>
       <use xlink:href="#DejaVuSans-31" x="354.199219"/>
      </g>
     </g>
    </g>
    <g id="xtick_8">
     <g id="line2d_8">
      <g>
       <use xlink:href="#m24cfdccdc0" x="1142.065075" y="368.3955" style="stroke: #000000; stroke-width: 0.8"/>
      </g>
     </g>
     <g id="text_8">
      <!-- 2022-05 -->
      <g transform="translate(1121.173669 382.993937)scale(0.1 -0.1)">
       <use xlink:href="#DejaVuSans-32"/>
       <use xlink:href="#DejaVuSans-30" x="63.623047"/>
       <use xlink:href="#DejaVuSans-32" x="127.246094"/>
       <use xlink:href="#DejaVuSans-32" x="190.869141"/>
       <use xlink:href="#DejaVuSans-2d" x="254.492188"/>
       <use xlink:href="#DejaVuSans-30" x="290.576172"/>
       <use xlink:href="#DejaVuSans-35" x="354.199219"/>
      </g>
     </g>
    </g>
    <g id="xtick_9">
     <g id="line2d_9">
      <g>
       <use xlink:href="#m24cfdccdc0" x="1294.712281" y="368.3955" style="stroke: #000000; stroke-width: 0.8"/>
      </g>
     </g>
     <g id="text_9">
      <!-- 2022-09 -->
      <g transform="translate(1273.820875 382.993937)scale(0.1 -0.1)">
       <use xlink:href="#DejaVuSans-32"/>
       <use xlink:href="#DejaVuSans-30" x="63.623047"/>
       <use xlink:href="#DejaVuSans-32" x="127.246094"/>
       <use xlink:href="#DejaVuSans-32" x="190.869141"/>
       <use xlink:href="#DejaVuSans-2d" x="254.492188"/>
       <use xlink:href="#DejaVuSans-30" x="290.576172"/>
       <use xlink:href="#DejaVuSans-39" x="354.199219"/>
      </g>
     </g>
    </g>
   </g>
   <g id="matplotlib.axis_2">
    <g id="ytick_1">
     <g id="line2d_10">
      <defs>
       <path id="mb53f19d250" d="M 0 0 
L -3.5 0 
" style="stroke: #000000; stroke-width: 0.8"/>
      </defs>
      <g>
       <use xlink:href="#mb53f19d250" x="52.375" y="335.294452" style="stroke: #000000; stroke-width: 0.8"/>
      </g>
     </g>
     <g id="text_10">
      <!-- 0 -->
      <g transform="translate(39.0125 339.093671)scale(0.1 -0.1)">
       <use xlink:href="#DejaVuSans-30"/>
      </g>
     </g>
    </g>
    <g id="ytick_2">
     <g id="line2d_11">
      <g>
       <use xlink:href="#mb53f19d250" x="52.375" y="283.532506" style="stroke: #000000; stroke-width: 0.8"/>
      </g>
     </g>
     <g id="text_11">
      <!-- 20000 -->
      <g transform="translate(13.5625 287.331725)scale(0.1 -0.1)">
       <use xlink:href="#DejaVuSans-32"/>
       <use xlink:href="#DejaVuSans-30" x="63.623047"/>
       <use xlink:href="#DejaVuSans-30" x="127.246094"/>
       <use xlink:href="#DejaVuSans-30" x="190.869141"/>
       <use xlink:href="#DejaVuSans-30" x="254.492188"/>
      </g>
     </g>
    </g>
    <g id="ytick_3">
     <g id="line2d_12">
      <g>
       <use xlink:href="#mb53f19d250" x="52.375" y="231.77056" style="stroke: #000000; stroke-width: 0.8"/>
      </g>
     </g>
     <g id="text_12">
      <!-- 40000 -->
      <g transform="translate(13.5625 235.569779)scale(0.1 -0.1)">
       <defs>
        <path id="DejaVuSans-34" d="M 2419 4116 
L 825 1625 
L 2419 1625 
L 2419 4116 
z
M 2253 4666 
L 3047 4666 
L 3047 1625 
L 3713 1625 
L 3713 1100 
L 3047 1100 
L 3047 0 
L 2419 0 
L 2419 1100 
L 313 1100 
L 313 1709 
L 2253 4666 
z
" transform="scale(0.015625)"/>
       </defs>
       <use xlink:href="#DejaVuSans-34"/>
       <use xlink:href="#DejaVuSans-30" x="63.623047"/>
       <use xlink:href="#DejaVuSans-30" x="127.246094"/>
       <use xlink:href="#DejaVuSans-30" x="190.869141"/>
       <use xlink:href="#DejaVuSans-30" x="254.492188"/>
      </g>
     </g>
    </g>
    <g id="ytick_4">
     <g id="line2d_13">
      <g>
       <use xlink:href="#mb53f19d250" x="52.375" y="180.008615" style="stroke: #000000; stroke-width: 0.8"/>
      </g>
     </g>
     <g id="text_13">
      <!-- 60000 -->
      <g transform="translate(13.5625 183.807833)scale(0.1 -0.1)">
       <defs>
        <path id="DejaVuSans-36" d="M 2113 2584 
Q 1688 2584 1439 2293 
Q 1191 2003 1191 1497 
Q 1191 994 1439 701 
Q 1688 409 2113 409 
Q 2538 409 2786 701 
Q 3034 994 3034 1497 
Q 3034 2003 2786 2293 
Q 2538 2584 2113 2584 
z
M 3366 4563 
L 3366 3988 
Q 3128 4100 2886 4159 
Q 2644 4219 2406 4219 
Q 1781 4219 1451 3797 
Q 1122 3375 1075 2522 
Q 1259 2794 1537 2939 
Q 1816 3084 2150 3084 
Q 2853 3084 3261 2657 
Q 3669 2231 3669 1497 
Q 3669 778 3244 343 
Q 2819 -91 2113 -91 
Q 1303 -91 875 529 
Q 447 1150 447 2328 
Q 447 3434 972 4092 
Q 1497 4750 2381 4750 
Q 2619 4750 2861 4703 
Q 3103 4656 3366 4563 
z
" transform="scale(0.015625)"/>
       </defs>
       <use xlink:href="#DejaVuSans-36"/>
       <use xlink:href="#DejaVuSans-30" x="63.623047"/>
       <use xlink:href="#DejaVuSans-30" x="127.246094"/>
       <use xlink:href="#DejaVuSans-30" x="190.869141"/>
       <use xlink:href="#DejaVuSans-30" x="254.492188"/>
      </g>
     </g>
    </g>
    <g id="ytick_5">
     <g id="line2d_14">
      <g>
       <use xlink:href="#mb53f19d250" x="52.375" y="128.246669" style="stroke: #000000; stroke-width: 0.8"/>
      </g>
     </g>
     <g id="text_14">
      <!-- 80000 -->
      <g transform="translate(13.5625 132.045887)scale(0.1 -0.1)">
       <defs>
        <path id="DejaVuSans-38" d="M 2034 2216 
Q 1584 2216 1326 1975 
Q 1069 1734 1069 1313 
Q 1069 891 1326 650 
Q 1584 409 2034 409 
Q 2484 409 2743 651 
Q 3003 894 3003 1313 
Q 3003 1734 2745 1975 
Q 2488 2216 2034 2216 
z
M 1403 2484 
Q 997 2584 770 2862 
Q 544 3141 544 3541 
Q 544 4100 942 4425 
Q 1341 4750 2034 4750 
Q 2731 4750 3128 4425 
Q 3525 4100 3525 3541 
Q 3525 3141 3298 2862 
Q 3072 2584 2669 2484 
Q 3125 2378 3379 2068 
Q 3634 1759 3634 1313 
Q 3634 634 3220 271 
Q 2806 -91 2034 -91 
Q 1263 -91 848 271 
Q 434 634 434 1313 
Q 434 1759 690 2068 
Q 947 2378 1403 2484 
z
M 1172 3481 
Q 1172 3119 1398 2916 
Q 1625 2713 2034 2713 
Q 2441 2713 2670 2916 
Q 2900 3119 2900 3481 
Q 2900 3844 2670 4047 
Q 2441 4250 2034 4250 
Q 1625 4250 1398 4047 
Q 1172 3844 1172 3481 
z
" transform="scale(0.015625)"/>
       </defs>
       <use xlink:href="#DejaVuSans-38"/>
       <use xlink:href="#DejaVuSans-30" x="63.623047"/>
       <use xlink:href="#DejaVuSans-30" x="127.246094"/>
       <use xlink:href="#DejaVuSans-30" x="190.869141"/>
       <use xlink:href="#DejaVuSans-30" x="254.492188"/>
      </g>
     </g>
    </g>
    <g id="ytick_6">
     <g id="line2d_15">
      <g>
       <use xlink:href="#mb53f19d250" x="52.375" y="76.484723" style="stroke: #000000; stroke-width: 0.8"/>
      </g>
     </g>
     <g id="text_15">
      <!-- 100000 -->
      <g transform="translate(7.2 80.283941)scale(0.1 -0.1)">
       <use xlink:href="#DejaVuSans-31"/>
       <use xlink:href="#DejaVuSans-30" x="63.623047"/>
       <use xlink:href="#DejaVuSans-30" x="127.246094"/>
       <use xlink:href="#DejaVuSans-30" x="190.869141"/>
       <use xlink:href="#DejaVuSans-30" x="254.492188"/>
       <use xlink:href="#DejaVuSans-30" x="318.115234"/>
      </g>
     </g>
    </g>
   </g>
   <g id="line2d_16">
    <path d="M 113.247727 335.294452 
L 181.504608 335.22975 
L 185.227711 335.170224 
L 187.709779 335.162459 
L 188.950813 335.196105 
L 193.91495 334.955411 
L 195.155984 334.919178 
L 196.397018 335.033054 
L 203.843224 334.639664 
L 207.566326 334.269566 
L 208.80736 334.621547 
L 210.048394 334.251449 
L 211.289429 334.323916 
L 212.530463 334.150513 
L 213.771497 334.380854 
L 217.4946 334.129808 
L 218.735634 333.798532 
L 219.976668 333.684656 
L 221.217702 333.317146 
L 222.458736 333.971935 
L 223.699771 333.407729 
L 224.940805 332.595067 
L 226.181839 332.476014 
L 227.422873 332.0878 
L 228.663907 332.783998 
L 229.904942 333.133391 
L 231.145976 333.089393 
L 232.38701 332.129209 
L 233.628044 332.584714 
L 234.869078 331.606414 
L 236.110113 331.373485 
L 237.351147 331.803109 
L 239.833215 331.583121 
L 241.074249 332.395783 
L 242.315284 331.130204 
L 243.556318 330.164843 
L 244.797352 330.361539 
L 246.038386 330.27872 
L 247.27942 331.251844 
L 248.520455 331.916985 
L 249.761489 330.126022 
L 251.002523 330.475415 
L 252.243557 329.059726 
L 253.484591 328.987259 
L 254.725626 329.828391 
L 255.96666 329.92415 
L 258.448728 328.272944 
L 259.689762 329.47641 
L 260.930796 327.600039 
L 262.171831 327.633684 
L 263.412865 326.678676 
L 264.653899 328.140951 
L 265.894933 328.86303 
L 267.135967 326.352576 
L 268.377002 326.331871 
L 269.618036 326.554448 
L 270.85907 326.942662 
L 272.100104 327.827792 
L 273.341138 327.13677 
L 274.582173 328.122835 
L 275.823207 325.224166 
L 277.064241 325.169816 
L 278.305275 323.798124 
L 279.546309 324.046581 
L 280.787344 325.995419 
L 282.028378 326.277521 
L 283.269412 327.532748 
L 284.510446 324.427032 
L 285.75148 322.656773 
L 286.992515 322.897466 
L 288.233549 321.779408 
L 289.474583 326.25164 
L 290.715617 324.561613 
L 291.956651 326.425043 
L 293.197686 323.391793 
L 294.43872 322.535133 
L 295.679754 320.640645 
L 296.920788 322.276323 
L 298.161822 323.086397 
L 299.402857 321.466248 
L 300.643891 323.448731 
L 301.884925 319.020496 
L 303.125959 321.222967 
L 304.366993 319.496706 
L 305.608028 321.212615 
L 306.849062 323.880943 
L 308.090096 324.812658 
L 309.33113 325.446742 
L 310.572164 321.235908 
L 311.813198 320.591472 
L 313.054233 317.848088 
L 314.295267 317.850676 
L 315.536301 317.400348 
L 316.777335 323.174393 
L 318.018369 322.607599 
L 319.259404 319.098139 
L 320.500438 317.190712 
L 321.741472 316.453104 
L 322.982506 317.459874 
L 324.22354 319.522587 
L 325.464575 323.6946 
L 326.705609 323.169216 
L 327.946643 317.045778 
L 329.187677 319.380242 
L 330.428711 318.715101 
L 331.669746 316.51263 
L 332.91078 315.586091 
L 334.151814 321.549068 
L 335.392848 321.908813 
L 336.633882 317.542693 
L 337.874917 319.716695 
L 339.115951 313.456087 
L 341.598019 317.822207 
L 342.839053 321.111679 
L 344.080088 322.423844 
L 345.321122 316.639447 
L 346.562156 320.407717 
L 347.80319 315.28846 
L 349.044224 313.404325 
L 350.285259 310.562594 
L 351.526293 322.734416 
L 352.767327 322.956992 
L 354.008361 319.38283 
L 355.249395 319.406123 
L 356.49043 318.238891 
L 357.731464 317.910203 
L 358.972498 318.48476 
L 360.213532 323.968938 
L 362.695601 317.990434 
L 363.936635 320.133378 
L 365.177669 316.217587 
L 366.418703 320.754522 
L 367.659737 318.872975 
L 368.900771 323.782595 
L 370.141806 326.052357 
L 371.38284 321.044389 
L 372.623874 320.304193 
L 373.864908 317.760093 
L 375.105942 319.952211 
L 376.346977 318.518406 
L 377.588011 325.076644 
L 378.829045 326.13 
L 380.070079 322.571366 
L 381.311113 321.662944 
L 382.552148 319.698578 
L 383.793182 320.221374 
L 385.034216 319.833159 
L 386.27525 324.608199 
L 387.516284 325.669318 
L 388.757319 318.533934 
L 389.998353 322.558425 
L 391.239387 319.928919 
L 392.480421 319.258601 
L 393.721455 318.940265 
L 394.96249 323.352971 
L 396.203524 326.272345 
L 397.444558 321.445544 
L 398.685592 323.74895 
L 399.926626 322.242678 
L 401.167661 319.934095 
L 402.408695 320.609588 
L 403.649729 323.886119 
L 404.890763 326.663148 
L 406.131797 322.94664 
L 407.372832 323.792948 
L 408.613866 327.059127 
L 409.8549 322.765473 
L 411.095934 321.921754 
L 412.336968 326.127412 
L 413.578003 327.744972 
L 414.819037 323.174393 
L 416.060071 322.907819 
L 417.301105 321.298022 
L 418.542139 321.316139 
L 419.783173 320.870986 
L 421.024208 325.237106 
L 422.265242 326.494921 
L 423.506276 323.787772 
L 424.74731 322.216797 
L 425.988344 322.097744 
L 427.229379 322.936288 
L 428.470413 322.708535 
L 429.711447 325.687435 
L 430.952481 262.530097 
L 432.193515 322.799118 
L 433.43455 323.440967 
L 434.675584 321.577537 
L 435.916618 320.977098 
L 438.398686 327.077243 
L 439.639721 326.127412 
L 440.880755 324.178574 
L 442.121789 324.79713 
L 443.362823 321.023684 
L 444.603857 317.822207 
L 447.085926 324.634079 
L 448.32696 325.72108 
L 449.567994 320.314545 
L 450.809028 317.578926 
L 452.050063 318.181953 
L 453.291097 318.202658 
L 454.532131 319.701166 
L 455.773165 324.010348 
L 457.014199 324.512439 
L 458.255234 319.915978 
L 459.496268 320.814048 
L 460.737302 319.90045 
L 461.978336 319.765868 
L 463.21937 319.375066 
L 464.460405 323.829181 
L 465.701439 325.555442 
L 466.942473 321.706941 
L 468.183507 321.771644 
L 470.665575 319.944447 
L 471.90661 317.66951 
L 474.388678 322.45749 
L 475.629712 320.423245 
L 476.870746 315.50586 
L 478.111781 320.650998 
L 479.352815 320.909807 
L 480.593849 320.128202 
L 481.834883 326.833962 
L 483.075917 327.856261 
L 484.316952 330.747165 
L 485.557986 325.154287 
L 486.79902 323.720481 
L 488.040054 318.663339 
L 489.281088 317.905027 
L 490.522123 311.517602 
L 491.763157 315.92772 
L 493.004191 307.35853 
L 494.245225 308.546467 
L 495.486259 314.312747 
L 496.727294 304.027649 
L 497.968328 307.529344 
L 499.209362 320.625117 
L 500.450396 318.544287 
L 502.932465 306.17577 
L 504.173499 306.747739 
L 505.414533 303.908596 
L 506.655567 305.207821 
L 507.896601 316.000187 
L 509.137636 318.733218 
L 510.37867 306.809853 
L 511.619704 304.304575 
L 512.860738 304.503859 
L 514.101772 303.582496 
L 515.342807 304.089763 
L 516.583841 313.016111 
L 517.824875 319.947035 
L 519.065909 306.235296 
L 520.306943 308.644814 
L 521.547977 304.757492 
L 522.789012 303.595437 
L 524.030046 303.90342 
L 525.27108 317.514224 
L 526.512114 321.39637 
L 527.753148 302.914767 
L 528.994183 305.135354 
L 530.235217 302.982058 
L 531.476251 310.244259 
L 532.717285 322.421256 
L 533.958319 319.204251 
L 535.199354 319.776221 
L 536.440388 303.981063 
L 537.681422 303.186517 
L 538.922456 303.825777 
L 540.16349 306.589865 
L 541.404525 318.836742 
L 542.645559 321.807877 
L 543.886593 318.564991 
L 545.127627 306.124008 
L 546.368661 300.756294 
L 547.609696 299.749524 
L 548.85073 298.124199 
L 550.091764 293.613145 
L 551.332798 309.405715 
L 552.573832 315.640441 
L 553.814867 298.038792 
L 555.055901 294.213584 
L 556.296935 292.673666 
L 557.537969 279.997165 
L 558.779003 282.178931 
L 560.020038 306.385405 
L 561.261072 314.398155 
L 562.502106 286.394942 
L 564.984174 277.478947 
L 566.225209 280.926292 
L 567.466243 283.384985 
L 568.707277 307.156658 
L 569.948311 313.241275 
L 571.189345 290.869762 
L 573.671414 286.974676 
L 574.912448 292.916947 
L 576.153482 295.600804 
L 577.394516 317.100128 
L 578.63555 321.194498 
L 579.876585 323.948234 
L 581.117619 303.841306 
L 582.358653 335.294452 
L 583.599687 266.383774 
L 584.840721 301.108275 
L 586.081756 319.597642 
L 587.32279 325.283692 
L 588.563824 307.503463 
L 589.804858 306.468225 
L 591.045892 307.661337 
L 592.286927 308.409298 
L 593.527961 310.083796 
L 594.768995 324.685841 
L 596.010029 327.276527 
L 597.251063 312.822003 
L 598.492098 312.032634 
L 599.733132 311.745355 
L 600.974166 315.032239 
L 602.2152 315.146115 
L 603.456234 327.260998 
L 604.697269 329.466057 
L 605.938303 312.94882 
L 607.179337 312.928115 
L 608.420371 313.393973 
L 609.661405 315.852665 
L 610.90244 316.541099 
L 612.143474 328.021899 
L 613.384508 329.23054 
L 614.625542 314.814838 
L 615.866576 315.12541 
L 617.107611 315.829372 
L 618.348645 317.703155 
L 619.589679 318.313946 
L 620.830713 328.218594 
L 622.071747 330.436594 
L 623.312781 316.124416 
L 624.553816 318.207834 
L 625.79485 318.552051 
L 627.035884 317.653981 
L 628.276918 319.496706 
L 629.517952 329.044197 
L 630.758987 331.57018 
L 632.000021 331.986864 
L 633.241055 318.588284 
L 634.482089 317.88691 
L 635.723123 320.48536 
L 636.964158 320.467243 
L 638.205192 329.774041 
L 639.446226 331.702173 
L 640.68726 320.073852 
L 641.928294 320.506064 
L 643.169329 320.317133 
L 644.410363 321.569772 
L 645.651397 322.201268 
L 646.892431 331.034444 
L 648.133465 331.948042 
L 649.3745 322.180563 
L 650.615534 319.825395 
L 651.856568 321.367901 
L 653.097602 327.29982 
L 654.338636 330.537529 
L 655.579671 332.025685 
L 656.820705 332.067095 
L 658.061739 322.861233 
L 659.302773 321.39637 
L 660.543807 321.991632 
L 661.784842 322.237501 
L 663.025876 318.844506 
L 664.26691 330.653994 
L 665.507944 331.083618 
L 666.748978 323.616957 
L 667.990013 322.628304 
L 669.231047 324.452913 
L 670.472081 323.637662 
L 671.713115 324.535732 
L 672.954149 331.396778 
L 674.195183 331.909221 
L 675.436218 324.263982 
L 676.677252 323.288269 
L 677.918286 325.697787 
L 679.15932 325.172404 
L 680.400354 326.733026 
L 681.641389 331.016327 
L 682.882423 332.336257 
L 684.123457 325.998007 
L 685.364491 325.413097 
L 686.605525 324.967944 
L 687.84656 325.405332 
L 689.087594 327.465458 
L 690.328628 332.465662 
L 691.569662 332.636476 
L 692.810696 327.364522 
L 694.051731 327.47581 
L 695.292765 327.928727 
L 696.533799 327.418872 
L 697.774833 328.195301 
L 699.015867 332.253438 
L 700.256902 333.472432 
L 702.73897 327.297232 
L 703.980004 325.894483 
L 705.221038 327.840732 
L 706.462073 328.31953 
L 707.703107 332.103328 
L 708.944141 333.167036 
L 710.185175 328.133187 
L 711.426209 330.118258 
L 712.667244 328.492933 
L 715.149312 328.601633 
L 716.390346 331.997216 
L 717.63138 333.47502 
L 718.872415 328.868207 
L 720.113449 327.706151 
L 721.354483 327.400755 
L 722.595517 327.514632 
L 723.836551 328.241887 
L 725.077585 331.911809 
L 726.31862 332.882346 
L 727.559654 317.392583 
L 728.800688 326.833962 
L 730.041722 327.804499 
L 731.282756 328.024487 
L 732.523791 329.934503 
L 733.764825 330.172608 
L 735.005859 333.014339 
L 736.246893 326.368105 
L 737.487927 325.317337 
L 738.728962 325.790959 
L 739.969996 326.800317 
L 741.21103 325.850485 
L 742.452064 330.87657 
L 743.693098 332.253438 
L 744.934133 324.295039 
L 746.175167 325.488152 
L 747.416201 324.287274 
L 748.657235 324.68843 
L 749.898269 335.294452 
L 751.139304 320.951217 
L 752.380338 332.012745 
L 753.621372 324.339036 
L 754.862406 322.449725 
L 756.10344 321.474013 
L 757.344475 321.655179 
L 758.585509 322.221973 
L 759.826543 329.124428 
L 761.067577 330.995623 
L 762.308611 320.513829 
L 763.549646 319.494118 
L 764.79068 319.556233 
L 766.031714 320.174788 
L 767.272748 319.080023 
L 768.513782 328.53693 
L 769.754817 330.622937 
L 770.995851 314.618143 
L 772.236885 313.277509 
L 773.477919 310.831757 
L 774.718953 311.175974 
L 775.959987 310.497892 
L 777.201022 325.514033 
L 778.442056 327.338641 
L 779.68309 306.470813 
L 780.924124 303.937065 
L 782.165158 302.112457 
L 783.406193 303.150284 
L 784.647227 302.604195 
L 785.888261 323.808476 
L 787.129295 321.55942 
L 788.370329 299.44154 
L 789.611364 295.96055 
L 790.852398 293.2534 
L 792.093432 335.294452 
L 793.334466 251.843843 
L 794.5755 318.381236 
L 795.816535 319.972916 
L 797.057569 290.240855 
L 798.298603 286.048137 
L 799.539637 285.543458 
L 800.780671 285.225122 
L 802.021706 286.61493 
L 803.26274 317.850676 
L 804.503774 318.456291 
L 805.744808 286.350944 
L 806.985842 281.75966 
L 808.226877 279.471782 
L 809.467911 279.48731 
L 810.708945 283.485921 
L 811.949979 315.694791 
L 813.191013 318.438175 
L 814.432048 284.68421 
L 815.673082 276.516175 
L 816.914116 270.656722 
L 818.15515 276.394534 
L 819.396184 274.106656 
L 820.637219 335.294452 
L 821.878253 292.676254 
L 823.119287 296.954379 
L 824.360321 260.361271 
L 825.601355 275.330826 
L 828.083424 282.73796 
L 829.324458 315.474803 
L 830.565492 318.360532 
L 831.806526 288.030619 
L 833.04756 280.297385 
L 834.288595 281.894241 
L 835.529629 284.681622 
L 836.770663 289.883697 
L 838.011697 317.599631 
L 839.252731 320.894279 
L 840.493766 306.44752 
L 841.7348 290.424609 
L 842.975834 288.351544 
L 844.216868 290.238266 
L 845.457902 294.956368 
L 846.698937 315.87337 
L 847.939971 322.025277 
L 849.181005 294.443925 
L 850.422039 294.20582 
L 851.663073 296.918146 
L 852.904108 335.294452 
L 854.145142 266.078378 
L 855.386176 321.99422 
L 856.62721 324.525379 
L 857.868244 301.832942 
L 859.109279 301.08757 
L 860.350313 317.074247 
L 861.591347 325.578735 
L 862.832381 335.294452 
L 864.073415 292.088756 
L 865.31445 326.580329 
L 866.555484 302.888886 
L 867.796518 305.264759 
L 869.037552 304.734199 
L 870.278586 309.053734 
L 871.519621 335.294452 
L 872.760655 299.876341 
L 874.001689 327.512044 
L 875.242723 309.951804 
L 876.483757 309.941451 
L 877.724791 312.446729 
L 878.965826 316.173589 
L 880.20686 316.222763 
L 881.447894 335.294452 
L 882.688928 321.675884 
L 883.929962 335.294452 
L 886.412031 295.670683 
L 887.653065 316.768852 
L 888.894099 335.294452 
L 890.135133 312.407908 
L 891.376168 330.100141 
L 892.617202 316.693797 
L 893.858236 318.937677 
L 896.340304 321.61377 
L 897.581339 321.828582 
L 898.822373 330.136374 
L 900.063407 331.637471 
L 901.304441 324.372682 
L 902.545475 322.175387 
L 903.78651 322.876761 
L 905.027544 323.252036 
L 906.268578 323.772243 
L 907.509612 335.294452 
L 908.750646 328.081425 
L 909.991681 335.294452 
L 912.473749 311.225147 
L 913.714783 324.939475 
L 914.955817 326.29305 
L 916.196852 331.552064 
L 917.437886 335.294452 
L 918.67892 332.721884 
L 919.919954 326.008359 
L 921.160988 328.410113 
L 922.402023 325.555442 
L 923.643057 316.691209 
L 924.884091 331.717702 
L 926.125125 335.294452 
L 927.366159 323.717893 
L 928.607193 335.294452 
L 929.848228 317.050954 
L 931.089262 335.294452 
L 932.330296 326.616562 
L 933.57133 327.193708 
L 934.812364 332.856465 
L 936.053399 333.288677 
L 937.294433 323.46426 
L 938.535467 325.162051 
L 939.776501 335.294452 
L 941.017535 325.363923 
L 942.25857 326.738203 
L 943.499604 329.753336 
L 944.740638 335.294452 
L 945.981672 325.723668 
L 947.222706 313.515614 
L 948.463741 326.378457 
L 949.704775 335.294452 
L 950.945809 327.644037 
L 952.186843 330.703168 
L 953.427877 335.294452 
L 954.668912 318.078429 
L 955.909946 335.294452 
L 957.15098 319.160254 
L 958.392014 335.294452 
L 959.633048 325.431213 
L 960.874083 333.348203 
L 962.115117 335.294452 
L 964.597185 318.74357 
L 965.838219 335.294452 
L 967.079254 327.550865 
L 968.320288 328.423054 
L 969.561322 333.081629 
L 970.802356 333.299029 
L 972.04339 320.669114 
L 973.284425 328.495521 
L 974.525459 335.294452 
L 975.766493 328.177185 
L 977.007527 328.746566 
L 978.248561 331.264785 
L 979.489595 335.294452 
L 980.73063 327.581922 
L 981.971664 326.704557 
L 983.212698 317.480579 
L 984.453732 327.747561 
L 985.694766 335.294452 
L 986.935801 333.21621 
L 988.176835 332.853876 
L 989.417869 323.839534 
L 990.658903 321.603418 
L 991.899937 288.550827 
L 993.140972 311.502074 
L 994.382006 330.969742 
L 995.62304 327.848496 
L 996.864074 295.996783 
L 999.346143 268.467192 
L 1000.587177 262.768202 
L 1001.828211 255.91492 
L 1003.069245 305.275112 
L 1004.310279 335.294452 
L 1005.551314 219.663441 
L 1006.792348 220.934197 
L 1008.033382 222.652694 
L 1009.274416 335.294452 
L 1010.51545 98.726831 
L 1011.756485 285.778975 
L 1012.997519 291.0354 
L 1014.238553 335.294452 
L 1015.479587 50.8755 
L 1016.720621 335.294452 
L 1017.961656 75.762644 
L 1019.20269 335.294452 
L 1020.443724 148.330304 
L 1021.684758 288.869163 
L 1022.925792 219.083707 
L 1024.166827 335.294452 
L 1026.648895 91.327461 
L 1027.889929 225.088093 
L 1029.130963 299.252609 
L 1030.371997 302.888886 
L 1031.613032 223.750047 
L 1032.854066 335.294452 
L 1034.0951 226.12592 
L 1035.336134 132.962182 
L 1036.577168 244.082139 
L 1037.818203 308.807865 
L 1039.059237 311.375257 
L 1040.300271 318.878151 
L 1041.541305 270.856006 
L 1042.782339 335.294452 
L 1044.023374 246.623651 
L 1045.264408 186.264046 
L 1046.505442 335.294452 
L 1047.746476 312.379439 
L 1048.98751 315.027062 
L 1050.228545 220.633978 
L 1052.710613 335.294452 
L 1053.951647 228.390505 
L 1055.192681 320.506064 
L 1056.433716 335.294452 
L 1057.67475 322.788766 
L 1058.915784 239.586614 
L 1060.156818 288.0565 
L 1061.397852 294.821787 
L 1062.638887 300.461251 
L 1063.879921 326.186938 
L 1065.120955 328.762095 
L 1066.361989 301.351556 
L 1067.603023 335.294452 
L 1068.844058 303.352155 
L 1070.085092 307.969321 
L 1071.326126 310.06568 
L 1072.56716 307.878738 
L 1073.808194 330.936096 
L 1075.049229 312.159451 
L 1077.531297 314.905422 
L 1078.772331 335.294452 
L 1080.013365 299.669293 
L 1081.254399 332.212028 
L 1082.495434 332.659769 
L 1083.736468 335.294452 
L 1084.977502 319.701166 
L 1086.218536 306.607982 
L 1087.45957 335.294452 
L 1088.700605 322.716299 
L 1089.941639 324.64702 
L 1091.182673 332.962577 
L 1092.423707 332.124033 
L 1093.664741 335.294452 
L 1094.905776 324.292451 
L 1096.14681 317.861029 
L 1097.387844 335.294452 
L 1098.628878 325.317337 
L 1099.869912 333.594072 
L 1101.110947 328.15648 
L 1102.351981 335.294452 
L 1103.593015 321.774232 
L 1104.834049 328.725861 
L 1106.075083 326.745967 
L 1107.316118 333.123039 
L 1108.557152 333.467256 
L 1109.798186 324.364917 
L 1111.03922 303.864599 
L 1112.280254 251.91631 
L 1113.521289 324.100931 
L 1114.762323 328.133187 
L 1116.003357 334.422263 
L 1117.244391 334.567197 
L 1118.485425 333.617365 
L 1119.72646 333.355967 
L 1120.967494 334.093575 
L 1122.208528 334.256625 
L 1123.449562 332.20944 
L 1124.690596 332.706355 
L 1125.931631 335.294452 
L 1127.172665 331.14832 
L 1128.413699 331.955807 
L 1129.654733 332.512248 
L 1130.895767 335.294452 
L 1132.136802 330.653994 
L 1133.377836 334.370502 
L 1134.61887 334.932119 
L 1135.859904 332.214616 
L 1137.100938 331.505478 
L 1139.583007 332.815055 
L 1140.824041 332.936696 
L 1142.065075 335.294452 
L 1143.306109 334.259213 
L 1144.547143 336.329691 
L 1145.788178 335.294452 
L 1150.752314 335.294452 
L 1151.993349 319.838335 
L 1153.234383 335.294452 
L 1159.439554 335.294452 
L 1160.680588 317.72386 
L 1161.921622 335.294452 
L 1168.126793 335.294452 
L 1169.367827 316.318523 
L 1170.608862 335.294452 
L 1176.814033 335.294452 
L 1178.055067 301.072042 
L 1179.296101 327.579334 
L 1180.537135 327.400755 
L 1181.778169 326.55186 
L 1183.019204 335.294452 
L 1184.260238 317.188124 
L 1185.501272 330.426241 
L 1186.742306 332.615772 
L 1187.98334 322.069275 
L 1189.224374 321.719882 
L 1190.465409 335.294452 
L 1191.706443 303.735194 
L 1192.947477 318.740982 
L 1194.188511 328.611985 
L 1195.429545 335.294452 
L 1196.67058 309.687818 
L 1197.911614 310.831757 
L 1199.152648 310.950809 
L 1200.393682 335.294452 
L 1201.634716 335.294452 
L 1202.875751 275.486112 
L 1204.116785 329.776629 
L 1205.357819 299.702938 
L 1206.598853 335.294452 
L 1207.839887 295.530925 
L 1209.080922 293.540679 
L 1210.321956 248.215331 
L 1211.56299 320.068676 
L 1212.804024 326.642443 
L 1214.045058 281.050521 
L 1215.286093 335.294452 
L 1216.527127 211.881033 
L 1219.009195 335.294452 
L 1220.250229 255.293777 
L 1221.491264 324.33386 
L 1222.732298 262.897607 
L 1223.973332 254.763217 
L 1225.214366 251.71185 
L 1226.4554 335.294452 
L 1227.696435 167.678919 
L 1228.937469 311.116447 
L 1230.178503 319.802102 
L 1231.419537 241.258525 
L 1232.660571 238.639371 
L 1233.901606 245.008678 
L 1235.14264 245.831693 
L 1236.383674 254.615695 
L 1237.624708 312.361322 
L 1238.865742 335.294452 
L 1240.106776 232.078544 
L 1241.347811 245.588412 
L 1242.588845 248.179097 
L 1243.829879 252.022422 
L 1245.070913 261.432744 
L 1246.311947 317.392583 
L 1247.552982 324.344213 
L 1248.794016 335.294452 
L 1250.03505 184.115925 
L 1251.276084 335.294452 
L 1252.517118 270.868946 
L 1253.758153 335.294452 
L 1254.999187 335.294452 
L 1256.240221 207.696079 
L 1257.481255 278.7937 
L 1259.963324 287.269719 
L 1261.204358 335.294452 
L 1262.445392 251.352105 
L 1263.686426 326.779612 
L 1264.92746 328.824209 
L 1266.168495 294.562977 
L 1267.409529 335.294452 
L 1269.891597 335.294452 
L 1271.132631 205.993111 
L 1272.373666 330.201077 
L 1273.6147 331.756523 
L 1274.855734 307.46723 
L 1276.096768 309.677465 
L 1277.337802 335.294452 
L 1282.301939 335.294452 
L 1283.542973 240.375984 
L 1284.784008 314.638848 
L 1286.025042 316.450516 
L 1287.266076 335.294452 
L 1288.50711 335.294452 
L 1289.748144 301.856235 
L 1290.989178 335.294452 
L 1293.471247 335.294452 
L 1294.712281 289.966516 
L 1295.953315 324.043993 
L 1297.194349 335.294452 
L 1298.435384 322.845704 
L 1299.676418 335.294452 
L 1300.917452 322.25303 
L 1302.158486 335.294452 
L 1304.640555 335.294452 
L 1305.881589 309.286663 
L 1307.122623 326.960779 
L 1308.363657 335.659374 
L 1309.604691 333.772651 
L 1310.845726 335.294452 
L 1313.327794 335.294452 
L 1313.327794 335.294452 
" clip-path="url(#padec72684d)" style="fill: none; stroke: #0000ff; stroke-width: 1.5; stroke-linecap: square"/>
   </g>
   <g id="line2d_17">
    <path d="M 1073.808194 332.151003 
L 1075.049229 313.977827 
L 1076.290263 322.683969 
L 1077.531297 310.330669 
L 1078.772331 314.799469 
L 1080.013365 309.580141 
L 1081.254399 320.658217 
L 1082.495434 320.707736 
L 1083.736468 323.193283 
L 1084.977502 313.922381 
L 1086.218536 323.515871 
L 1087.45957 331.937944 
L 1088.700605 318.737084 
L 1089.941639 329.672412 
L 1091.182673 328.421321 
L 1092.423707 328.916465 
L 1093.664741 325.989595 
L 1094.905776 317.793109 
L 1096.14681 332.136675 
L 1097.387844 328.745653 
L 1098.628878 328.284749 
L 1099.869912 336.304168 
L 1101.110947 327.907811 
L 1102.351981 334.125115 
L 1103.593015 325.326205 
L 1104.834049 329.064391 
L 1106.075083 329.759109 
L 1107.316118 330.775255 
L 1108.557152 329.722375 
L 1109.798186 330.436381 
L 1111.03922 332.363208 
L 1112.280254 332.930903 
L 1113.521289 342.733886 
L 1114.762323 322.220879 
L 1116.003357 321.45223 
L 1117.244391 301.463677 
L 1118.485425 308.588423 
L 1119.72646 306.147752 
L 1120.967494 291.428629 
L 1122.208528 315.502611 
L 1123.449562 326.905922 
L 1124.690596 331.840322 
L 1125.931631 341.275405 
L 1127.172665 337.486434 
L 1128.413699 335.721127 
L 1129.654733 329.757694 
L 1130.895767 334.532946 
L 1132.136802 333.955851 
L 1134.61887 336.443761 
L 1135.859904 335.023078 
L 1137.100938 333.794591 
L 1138.341972 333.328045 
L 1139.583007 335.035954 
L 1140.824041 333.409918 
L 1143.306109 334.278593 
L 1144.547143 332.911998 
L 1145.788178 332.111896 
L 1147.029212 333.05462 
L 1148.270246 333.497089 
L 1149.51128 334.32628 
L 1150.752314 335.591872 
L 1151.993349 335.873471 
L 1153.234383 339.278287 
L 1154.475417 334.460409 
L 1155.716451 335.643555 
L 1156.957485 330.772923 
L 1158.19852 332.671038 
L 1159.439554 333.546379 
L 1160.680588 328.919694 
L 1161.921622 336.964909 
L 1163.162656 333.414564 
L 1164.403691 334.778549 
L 1165.644725 330.909127 
L 1166.885759 332.684677 
L 1168.126793 333.345953 
L 1169.367827 326.851541 
L 1170.608862 336.644648 
L 1171.849896 333.275855 
L 1173.09093 334.676341 
L 1174.331964 330.937547 
L 1175.572998 332.700587 
L 1176.814033 333.310554 
L 1178.055067 325.927527 
L 1179.296101 339.556548 
L 1180.537135 333.447711 
L 1181.778169 335.611734 
L 1183.019204 327.395883 
L 1184.260238 326.793976 
L 1185.501272 331.105399 
L 1186.742306 313.052533 
L 1187.98334 324.29616 
L 1189.224374 325.54589 
L 1190.465409 325.204901 
L 1191.706443 330.884263 
L 1192.947477 329.890705 
L 1194.188511 325.174559 
L 1195.429545 327.379266 
L 1196.67058 315.554674 
L 1197.911614 323.052728 
L 1199.152648 326.581588 
L 1200.393682 321.797133 
L 1201.634716 312.520772 
L 1202.875751 318.599529 
L 1204.116785 329.815628 
L 1205.357819 312.898548 
L 1206.598853 326.424153 
L 1207.839887 300.24658 
L 1209.080922 325.312558 
L 1210.321956 319.095098 
L 1211.56299 318.383926 
L 1212.804024 305.373916 
L 1214.045058 298.558017 
L 1215.286093 296.663297 
L 1216.527127 289.109997 
L 1217.768161 320.501593 
L 1219.009195 275.287213 
L 1220.250229 295.466328 
L 1221.491264 299.164536 
L 1222.732298 261.686627 
L 1223.973332 321.037267 
L 1225.214366 259.8688 
L 1226.4554 281.18316 
L 1227.696435 280.634389 
L 1228.937469 289.343411 
L 1230.178503 266.115031 
L 1231.419537 283.064017 
L 1232.660571 247.032524 
L 1233.901606 260.663481 
L 1235.14264 295.695096 
L 1236.383674 241.025121 
L 1237.624708 261.213241 
L 1238.865742 272.98829 
L 1240.106776 229.054385 
L 1241.347811 257.828642 
L 1242.588845 258.772638 
L 1243.829879 279.671444 
L 1245.070913 257.458902 
L 1246.311947 279.930586 
L 1247.552982 283.978722 
L 1248.794016 243.244007 
L 1250.03505 240.558628 
L 1251.276084 289.093552 
L 1252.517118 251.592588 
L 1253.758153 303.069448 
L 1254.999187 271.025575 
L 1256.240221 316.790397 
L 1257.481255 327.314836 
L 1258.722289 268.17602 
L 1259.963324 317.371172 
L 1261.204358 271.786173 
L 1262.445392 277.410096 
L 1263.686426 325.917628 
L 1264.92746 252.867272 
L 1266.168495 292.881909 
L 1267.409529 275.487479 
L 1268.650563 283.461935 
L 1269.891597 320.452589 
L 1271.132631 291.469217 
L 1272.373666 352.963628 
L 1273.6147 317.772011 
L 1274.855734 319.452885 
L 1276.096768 301.682856 
L 1277.337802 317.224708 
L 1278.578837 320.969256 
L 1279.819871 274.559965 
L 1281.060905 308.580079 
L 1282.301939 327.189486 
L 1283.542973 314.866165 
L 1284.784008 353.2755 
L 1286.025042 334.678741 
L 1287.266076 343.702727 
L 1288.50711 300.393638 
L 1289.748144 317.43975 
L 1290.989178 325.551353 
L 1292.230213 285.908758 
L 1293.471247 313.971478 
L 1294.712281 314.886776 
L 1295.953315 334.451444 
L 1297.194349 334.937344 
L 1298.435384 326.238348 
L 1299.676418 325.335399 
L 1300.917452 318.314204 
L 1302.158486 328.911293 
L 1303.39952 313.171537 
L 1304.640555 324.877432 
L 1305.881589 331.110607 
L 1307.122623 331.767778 
L 1308.363657 336.412685 
L 1309.604691 331.776364 
L 1310.845726 327.615905 
L 1312.08676 328.132036 
L 1313.327794 331.029687 
L 1313.327794 331.029687 
" clip-path="url(#padec72684d)" style="fill: none; stroke: #ffa500; stroke-width: 1.5; stroke-linecap: square"/>
   </g>
   <g id="line2d_18">
    <path d="M 1314.568828 326.116729 
L 1315.809862 330.566056 
L 1317.050897 336.12724 
L 1318.291931 333.780038 
L 1319.532965 335.411998 
L 1320.773999 334.490808 
L 1322.015033 335.416233 
L 1323.256068 330.528582 
L 1324.497102 333.030977 
L 1325.738136 335.774269 
L 1326.97917 334.618698 
L 1328.220204 335.531631 
L 1329.461239 335.082635 
L 1330.702273 335.507424 
" clip-path="url(#padec72684d)" style="fill: none; stroke: #ff0000; stroke-width: 1.5; stroke-linecap: square"/>
   </g>
   <g id="patch_3">
    <path d="M 52.375 368.3955 
L 52.375 35.7555 
" style="fill: none; stroke: #000000; stroke-width: 0.8; stroke-linejoin: miter; stroke-linecap: square"/>
   </g>
   <g id="patch_4">
    <path d="M 1391.575 368.3955 
L 1391.575 35.7555 
" style="fill: none; stroke: #000000; stroke-width: 0.8; stroke-linejoin: miter; stroke-linecap: square"/>
   </g>
   <g id="patch_5">
    <path d="M 52.375 368.3955 
L 1391.575 368.3955 
" style="fill: none; stroke: #000000; stroke-width: 0.8; stroke-linejoin: miter; stroke-linecap: square"/>
   </g>
   <g id="patch_6">
    <path d="M 52.375 35.7555 
L 1391.575 35.7555 
" style="fill: none; stroke: #000000; stroke-width: 0.8; stroke-linejoin: miter; stroke-linecap: square"/>
   </g>
   <g id="text_16">
    <!-- Daily Confirmed Cases Forecasting - Mexico -->
    <g transform="translate(590.5225 16.318125)scale(0.12 -0.12)">
     <defs>
      <path id="DejaVuSans-44" d="M 1259 4147 
L 1259 519 
L 2022 519 
Q 2988 519 3436 956 
Q 3884 1394 3884 2338 
Q 3884 3275 3436 3711 
Q 2988 4147 2022 4147 
L 1259 4147 
z
M 628 4666 
L 1925 4666 
Q 3281 4666 3915 4102 
Q 4550 3538 4550 2338 
Q 4550 1131 3912 565 
Q 3275 0 1925 0 
L 628 0 
L 628 4666 
z
" transform="scale(0.015625)"/>
      <path id="DejaVuSans-61" d="M 2194 1759 
Q 1497 1759 1228 1600 
Q 959 1441 959 1056 
Q 959 750 1161 570 
Q 1363 391 1709 391 
Q 2188 391 2477 730 
Q 2766 1069 2766 1631 
L 2766 1759 
L 2194 1759 
z
M 3341 1997 
L 3341 0 
L 2766 0 
L 2766 531 
Q 2569 213 2275 61 
Q 1981 -91 1556 -91 
Q 1019 -91 701 211 
Q 384 513 384 1019 
Q 384 1609 779 1909 
Q 1175 2209 1959 2209 
L 2766 2209 
L 2766 2266 
Q 2766 2663 2505 2880 
Q 2244 3097 1772 3097 
Q 1472 3097 1187 3025 
Q 903 2953 641 2809 
L 641 3341 
Q 956 3463 1253 3523 
Q 1550 3584 1831 3584 
Q 2591 3584 2966 3190 
Q 3341 2797 3341 1997 
z
" transform="scale(0.015625)"/>
      <path id="DejaVuSans-69" d="M 603 3500 
L 1178 3500 
L 1178 0 
L 603 0 
L 603 3500 
z
M 603 4863 
L 1178 4863 
L 1178 4134 
L 603 4134 
L 603 4863 
z
" transform="scale(0.015625)"/>
      <path id="DejaVuSans-6c" d="M 603 4863 
L 1178 4863 
L 1178 0 
L 603 0 
L 603 4863 
z
" transform="scale(0.015625)"/>
      <path id="DejaVuSans-79" d="M 2059 -325 
Q 1816 -950 1584 -1140 
Q 1353 -1331 966 -1331 
L 506 -1331 
L 506 -850 
L 844 -850 
Q 1081 -850 1212 -737 
Q 1344 -625 1503 -206 
L 1606 56 
L 191 3500 
L 800 3500 
L 1894 763 
L 2988 3500 
L 3597 3500 
L 2059 -325 
z
" transform="scale(0.015625)"/>
      <path id="DejaVuSans-20" transform="scale(0.015625)"/>
      <path id="DejaVuSans-43" d="M 4122 4306 
L 4122 3641 
Q 3803 3938 3442 4084 
Q 3081 4231 2675 4231 
Q 1875 4231 1450 3742 
Q 1025 3253 1025 2328 
Q 1025 1406 1450 917 
Q 1875 428 2675 428 
Q 3081 428 3442 575 
Q 3803 722 4122 1019 
L 4122 359 
Q 3791 134 3420 21 
Q 3050 -91 2638 -91 
Q 1578 -91 968 557 
Q 359 1206 359 2328 
Q 359 3453 968 4101 
Q 1578 4750 2638 4750 
Q 3056 4750 3426 4639 
Q 3797 4528 4122 4306 
z
" transform="scale(0.015625)"/>
      <path id="DejaVuSans-6f" d="M 1959 3097 
Q 1497 3097 1228 2736 
Q 959 2375 959 1747 
Q 959 1119 1226 758 
Q 1494 397 1959 397 
Q 2419 397 2687 759 
Q 2956 1122 2956 1747 
Q 2956 2369 2687 2733 
Q 2419 3097 1959 3097 
z
M 1959 3584 
Q 2709 3584 3137 3096 
Q 3566 2609 3566 1747 
Q 3566 888 3137 398 
Q 2709 -91 1959 -91 
Q 1206 -91 779 398 
Q 353 888 353 1747 
Q 353 2609 779 3096 
Q 1206 3584 1959 3584 
z
" transform="scale(0.015625)"/>
      <path id="DejaVuSans-6e" d="M 3513 2113 
L 3513 0 
L 2938 0 
L 2938 2094 
Q 2938 2591 2744 2837 
Q 2550 3084 2163 3084 
Q 1697 3084 1428 2787 
Q 1159 2491 1159 1978 
L 1159 0 
L 581 0 
L 581 3500 
L 1159 3500 
L 1159 2956 
Q 1366 3272 1645 3428 
Q 1925 3584 2291 3584 
Q 2894 3584 3203 3211 
Q 3513 2838 3513 2113 
z
" transform="scale(0.015625)"/>
      <path id="DejaVuSans-66" d="M 2375 4863 
L 2375 4384 
L 1825 4384 
Q 1516 4384 1395 4259 
Q 1275 4134 1275 3809 
L 1275 3500 
L 2222 3500 
L 2222 3053 
L 1275 3053 
L 1275 0 
L 697 0 
L 697 3053 
L 147 3053 
L 147 3500 
L 697 3500 
L 697 3744 
Q 697 4328 969 4595 
Q 1241 4863 1831 4863 
L 2375 4863 
z
" transform="scale(0.015625)"/>
      <path id="DejaVuSans-72" d="M 2631 2963 
Q 2534 3019 2420 3045 
Q 2306 3072 2169 3072 
Q 1681 3072 1420 2755 
Q 1159 2438 1159 1844 
L 1159 0 
L 581 0 
L 581 3500 
L 1159 3500 
L 1159 2956 
Q 1341 3275 1631 3429 
Q 1922 3584 2338 3584 
Q 2397 3584 2469 3576 
Q 2541 3569 2628 3553 
L 2631 2963 
z
" transform="scale(0.015625)"/>
      <path id="DejaVuSans-6d" d="M 3328 2828 
Q 3544 3216 3844 3400 
Q 4144 3584 4550 3584 
Q 5097 3584 5394 3201 
Q 5691 2819 5691 2113 
L 5691 0 
L 5113 0 
L 5113 2094 
Q 5113 2597 4934 2840 
Q 4756 3084 4391 3084 
Q 3944 3084 3684 2787 
Q 3425 2491 3425 1978 
L 3425 0 
L 2847 0 
L 2847 2094 
Q 2847 2600 2669 2842 
Q 2491 3084 2119 3084 
Q 1678 3084 1418 2786 
Q 1159 2488 1159 1978 
L 1159 0 
L 581 0 
L 581 3500 
L 1159 3500 
L 1159 2956 
Q 1356 3278 1631 3431 
Q 1906 3584 2284 3584 
Q 2666 3584 2933 3390 
Q 3200 3197 3328 2828 
z
" transform="scale(0.015625)"/>
      <path id="DejaVuSans-65" d="M 3597 1894 
L 3597 1613 
L 953 1613 
Q 991 1019 1311 708 
Q 1631 397 2203 397 
Q 2534 397 2845 478 
Q 3156 559 3463 722 
L 3463 178 
Q 3153 47 2828 -22 
Q 2503 -91 2169 -91 
Q 1331 -91 842 396 
Q 353 884 353 1716 
Q 353 2575 817 3079 
Q 1281 3584 2069 3584 
Q 2775 3584 3186 3129 
Q 3597 2675 3597 1894 
z
M 3022 2063 
Q 3016 2534 2758 2815 
Q 2500 3097 2075 3097 
Q 1594 3097 1305 2825 
Q 1016 2553 972 2059 
L 3022 2063 
z
" transform="scale(0.015625)"/>
      <path id="DejaVuSans-64" d="M 2906 2969 
L 2906 4863 
L 3481 4863 
L 3481 0 
L 2906 0 
L 2906 525 
Q 2725 213 2448 61 
Q 2172 -91 1784 -91 
Q 1150 -91 751 415 
Q 353 922 353 1747 
Q 353 2572 751 3078 
Q 1150 3584 1784 3584 
Q 2172 3584 2448 3432 
Q 2725 3281 2906 2969 
z
M 947 1747 
Q 947 1113 1208 752 
Q 1469 391 1925 391 
Q 2381 391 2643 752 
Q 2906 1113 2906 1747 
Q 2906 2381 2643 2742 
Q 2381 3103 1925 3103 
Q 1469 3103 1208 2742 
Q 947 2381 947 1747 
z
" transform="scale(0.015625)"/>
      <path id="DejaVuSans-73" d="M 2834 3397 
L 2834 2853 
Q 2591 2978 2328 3040 
Q 2066 3103 1784 3103 
Q 1356 3103 1142 2972 
Q 928 2841 928 2578 
Q 928 2378 1081 2264 
Q 1234 2150 1697 2047 
L 1894 2003 
Q 2506 1872 2764 1633 
Q 3022 1394 3022 966 
Q 3022 478 2636 193 
Q 2250 -91 1575 -91 
Q 1294 -91 989 -36 
Q 684 19 347 128 
L 347 722 
Q 666 556 975 473 
Q 1284 391 1588 391 
Q 1994 391 2212 530 
Q 2431 669 2431 922 
Q 2431 1156 2273 1281 
Q 2116 1406 1581 1522 
L 1381 1569 
Q 847 1681 609 1914 
Q 372 2147 372 2553 
Q 372 3047 722 3315 
Q 1072 3584 1716 3584 
Q 2034 3584 2315 3537 
Q 2597 3491 2834 3397 
z
" transform="scale(0.015625)"/>
      <path id="DejaVuSans-46" d="M 628 4666 
L 3309 4666 
L 3309 4134 
L 1259 4134 
L 1259 2759 
L 3109 2759 
L 3109 2228 
L 1259 2228 
L 1259 0 
L 628 0 
L 628 4666 
z
" transform="scale(0.015625)"/>
      <path id="DejaVuSans-63" d="M 3122 3366 
L 3122 2828 
Q 2878 2963 2633 3030 
Q 2388 3097 2138 3097 
Q 1578 3097 1268 2742 
Q 959 2388 959 1747 
Q 959 1106 1268 751 
Q 1578 397 2138 397 
Q 2388 397 2633 464 
Q 2878 531 3122 666 
L 3122 134 
Q 2881 22 2623 -34 
Q 2366 -91 2075 -91 
Q 1284 -91 818 406 
Q 353 903 353 1747 
Q 353 2603 823 3093 
Q 1294 3584 2113 3584 
Q 2378 3584 2631 3529 
Q 2884 3475 3122 3366 
z
" transform="scale(0.015625)"/>
      <path id="DejaVuSans-74" d="M 1172 4494 
L 1172 3500 
L 2356 3500 
L 2356 3053 
L 1172 3053 
L 1172 1153 
Q 1172 725 1289 603 
Q 1406 481 1766 481 
L 2356 481 
L 2356 0 
L 1766 0 
Q 1100 0 847 248 
Q 594 497 594 1153 
L 594 3053 
L 172 3053 
L 172 3500 
L 594 3500 
L 594 4494 
L 1172 4494 
z
" transform="scale(0.015625)"/>
      <path id="DejaVuSans-67" d="M 2906 1791 
Q 2906 2416 2648 2759 
Q 2391 3103 1925 3103 
Q 1463 3103 1205 2759 
Q 947 2416 947 1791 
Q 947 1169 1205 825 
Q 1463 481 1925 481 
Q 2391 481 2648 825 
Q 2906 1169 2906 1791 
z
M 3481 434 
Q 3481 -459 3084 -895 
Q 2688 -1331 1869 -1331 
Q 1566 -1331 1297 -1286 
Q 1028 -1241 775 -1147 
L 775 -588 
Q 1028 -725 1275 -790 
Q 1522 -856 1778 -856 
Q 2344 -856 2625 -561 
Q 2906 -266 2906 331 
L 2906 616 
Q 2728 306 2450 153 
Q 2172 0 1784 0 
Q 1141 0 747 490 
Q 353 981 353 1791 
Q 353 2603 747 3093 
Q 1141 3584 1784 3584 
Q 2172 3584 2450 3431 
Q 2728 3278 2906 2969 
L 2906 3500 
L 3481 3500 
L 3481 434 
z
" transform="scale(0.015625)"/>
      <path id="DejaVuSans-4d" d="M 628 4666 
L 1569 4666 
L 2759 1491 
L 3956 4666 
L 4897 4666 
L 4897 0 
L 4281 0 
L 4281 4097 
L 3078 897 
L 2444 897 
L 1241 4097 
L 1241 0 
L 628 0 
L 628 4666 
z
" transform="scale(0.015625)"/>
      <path id="DejaVuSans-78" d="M 3513 3500 
L 2247 1797 
L 3578 0 
L 2900 0 
L 1881 1375 
L 863 0 
L 184 0 
L 1544 1831 
L 300 3500 
L 978 3500 
L 1906 2253 
L 2834 3500 
L 3513 3500 
z
" transform="scale(0.015625)"/>
     </defs>
     <use xlink:href="#DejaVuSans-44"/>
     <use xlink:href="#DejaVuSans-61" x="77.001953"/>
     <use xlink:href="#DejaVuSans-69" x="138.28125"/>
     <use xlink:href="#DejaVuSans-6c" x="166.064453"/>
     <use xlink:href="#DejaVuSans-79" x="193.847656"/>
     <use xlink:href="#DejaVuSans-20" x="253.027344"/>
     <use xlink:href="#DejaVuSans-43" x="284.814453"/>
     <use xlink:href="#DejaVuSans-6f" x="354.638672"/>
     <use xlink:href="#DejaVuSans-6e" x="415.820312"/>
     <use xlink:href="#DejaVuSans-66" x="479.199219"/>
     <use xlink:href="#DejaVuSans-69" x="514.404297"/>
     <use xlink:href="#DejaVuSans-72" x="542.1875"/>
     <use xlink:href="#DejaVuSans-6d" x="581.550781"/>
     <use xlink:href="#DejaVuSans-65" x="678.962891"/>
     <use xlink:href="#DejaVuSans-64" x="740.486328"/>
     <use xlink:href="#DejaVuSans-20" x="803.962891"/>
     <use xlink:href="#DejaVuSans-43" x="835.75"/>
     <use xlink:href="#DejaVuSans-61" x="905.574219"/>
     <use xlink:href="#DejaVuSans-73" x="966.853516"/>
     <use xlink:href="#DejaVuSans-65" x="1018.953125"/>
     <use xlink:href="#DejaVuSans-73" x="1080.476562"/>
     <use xlink:href="#DejaVuSans-20" x="1132.576172"/>
     <use xlink:href="#DejaVuSans-46" x="1164.363281"/>
     <use xlink:href="#DejaVuSans-6f" x="1218.257812"/>
     <use xlink:href="#DejaVuSans-72" x="1279.439453"/>
     <use xlink:href="#DejaVuSans-65" x="1318.302734"/>
     <use xlink:href="#DejaVuSans-63" x="1379.826172"/>
     <use xlink:href="#DejaVuSans-61" x="1434.806641"/>
     <use xlink:href="#DejaVuSans-73" x="1496.085938"/>
     <use xlink:href="#DejaVuSans-74" x="1548.185547"/>
     <use xlink:href="#DejaVuSans-69" x="1587.394531"/>
     <use xlink:href="#DejaVuSans-6e" x="1615.177734"/>
     <use xlink:href="#DejaVuSans-67" x="1678.556641"/>
     <use xlink:href="#DejaVuSans-20" x="1742.033203"/>
     <use xlink:href="#DejaVuSans-2d" x="1773.820312"/>
     <use xlink:href="#DejaVuSans-20" x="1809.904297"/>
     <use xlink:href="#DejaVuSans-4d" x="1841.691406"/>
     <use xlink:href="#DejaVuSans-65" x="1927.970703"/>
     <use xlink:href="#DejaVuSans-78" x="1987.744141"/>
     <use xlink:href="#DejaVuSans-69" x="2046.923828"/>
     <use xlink:href="#DejaVuSans-63" x="2074.707031"/>
     <use xlink:href="#DejaVuSans-6f" x="2129.6875"/>
    </g>
    <!-- ARIMA (4, 1, 1)x(1, 0, 1, 7) (R2 = 0.224588) -->
    <g transform="translate(589.990937 29.7555)scale(0.12 -0.12)">
     <defs>
      <path id="DejaVuSans-41" d="M 2188 4044 
L 1331 1722 
L 3047 1722 
L 2188 4044 
z
M 1831 4666 
L 2547 4666 
L 4325 0 
L 3669 0 
L 3244 1197 
L 1141 1197 
L 716 0 
L 50 0 
L 1831 4666 
z
" transform="scale(0.015625)"/>
      <path id="DejaVuSans-52" d="M 2841 2188 
Q 3044 2119 3236 1894 
Q 3428 1669 3622 1275 
L 4263 0 
L 3584 0 
L 2988 1197 
Q 2756 1666 2539 1819 
Q 2322 1972 1947 1972 
L 1259 1972 
L 1259 0 
L 628 0 
L 628 4666 
L 2053 4666 
Q 2853 4666 3247 4331 
Q 3641 3997 3641 3322 
Q 3641 2881 3436 2590 
Q 3231 2300 2841 2188 
z
M 1259 4147 
L 1259 2491 
L 2053 2491 
Q 2509 2491 2742 2702 
Q 2975 2913 2975 3322 
Q 2975 3731 2742 3939 
Q 2509 4147 2053 4147 
L 1259 4147 
z
" transform="scale(0.015625)"/>
      <path id="DejaVuSans-49" d="M 628 4666 
L 1259 4666 
L 1259 0 
L 628 0 
L 628 4666 
z
" transform="scale(0.015625)"/>
      <path id="DejaVuSans-28" d="M 1984 4856 
Q 1566 4138 1362 3434 
Q 1159 2731 1159 2009 
Q 1159 1288 1364 580 
Q 1569 -128 1984 -844 
L 1484 -844 
Q 1016 -109 783 600 
Q 550 1309 550 2009 
Q 550 2706 781 3412 
Q 1013 4119 1484 4856 
L 1984 4856 
z
" transform="scale(0.015625)"/>
      <path id="DejaVuSans-2c" d="M 750 794 
L 1409 794 
L 1409 256 
L 897 -744 
L 494 -744 
L 750 256 
L 750 794 
z
" transform="scale(0.015625)"/>
      <path id="DejaVuSans-29" d="M 513 4856 
L 1013 4856 
Q 1481 4119 1714 3412 
Q 1947 2706 1947 2009 
Q 1947 1309 1714 600 
Q 1481 -109 1013 -844 
L 513 -844 
Q 928 -128 1133 580 
Q 1338 1288 1338 2009 
Q 1338 2731 1133 3434 
Q 928 4138 513 4856 
z
" transform="scale(0.015625)"/>
      <path id="DejaVuSans-37" d="M 525 4666 
L 3525 4666 
L 3525 4397 
L 1831 0 
L 1172 0 
L 2766 4134 
L 525 4134 
L 525 4666 
z
" transform="scale(0.015625)"/>
      <path id="DejaVuSans-3d" d="M 678 2906 
L 4684 2906 
L 4684 2381 
L 678 2381 
L 678 2906 
z
M 678 1631 
L 4684 1631 
L 4684 1100 
L 678 1100 
L 678 1631 
z
" transform="scale(0.015625)"/>
      <path id="DejaVuSans-2e" d="M 684 794 
L 1344 794 
L 1344 0 
L 684 0 
L 684 794 
z
" transform="scale(0.015625)"/>
     </defs>
     <use xlink:href="#DejaVuSans-41"/>
     <use xlink:href="#DejaVuSans-52" x="68.408203"/>
     <use xlink:href="#DejaVuSans-49" x="137.890625"/>
     <use xlink:href="#DejaVuSans-4d" x="167.382812"/>
     <use xlink:href="#DejaVuSans-41" x="253.662109"/>
     <use xlink:href="#DejaVuSans-20" x="322.070312"/>
     <use xlink:href="#DejaVuSans-28" x="353.857422"/>
     <use xlink:href="#DejaVuSans-34" x="392.871094"/>
     <use xlink:href="#DejaVuSans-2c" x="456.494141"/>
     <use xlink:href="#DejaVuSans-20" x="488.28125"/>
     <use xlink:href="#DejaVuSans-31" x="520.068359"/>
     <use xlink:href="#DejaVuSans-2c" x="583.691406"/>
     <use xlink:href="#DejaVuSans-20" x="615.478516"/>
     <use xlink:href="#DejaVuSans-31" x="647.265625"/>
     <use xlink:href="#DejaVuSans-29" x="710.888672"/>
     <use xlink:href="#DejaVuSans-78" x="749.902344"/>
     <use xlink:href="#DejaVuSans-28" x="809.082031"/>
     <use xlink:href="#DejaVuSans-31" x="848.095703"/>
     <use xlink:href="#DejaVuSans-2c" x="911.71875"/>
     <use xlink:href="#DejaVuSans-20" x="943.505859"/>
     <use xlink:href="#DejaVuSans-30" x="975.292969"/>
     <use xlink:href="#DejaVuSans-2c" x="1038.916016"/>
     <use xlink:href="#DejaVuSans-20" x="1070.703125"/>
     <use xlink:href="#DejaVuSans-31" x="1102.490234"/>
     <use xlink:href="#DejaVuSans-2c" x="1166.113281"/>
     <use xlink:href="#DejaVuSans-20" x="1197.900391"/>
     <use xlink:href="#DejaVuSans-37" x="1229.6875"/>
     <use xlink:href="#DejaVuSans-29" x="1293.310547"/>
     <use xlink:href="#DejaVuSans-20" x="1332.324219"/>
     <use xlink:href="#DejaVuSans-28" x="1364.111328"/>
     <use xlink:href="#DejaVuSans-52" x="1403.125"/>
     <use xlink:href="#DejaVuSans-32" x="1472.607422"/>
     <use xlink:href="#DejaVuSans-20" x="1536.230469"/>
     <use xlink:href="#DejaVuSans-3d" x="1568.017578"/>
     <use xlink:href="#DejaVuSans-20" x="1651.806641"/>
     <use xlink:href="#DejaVuSans-30" x="1683.59375"/>
     <use xlink:href="#DejaVuSans-2e" x="1747.216797"/>
     <use xlink:href="#DejaVuSans-32" x="1779.003906"/>
     <use xlink:href="#DejaVuSans-32" x="1842.626953"/>
     <use xlink:href="#DejaVuSans-34" x="1906.25"/>
     <use xlink:href="#DejaVuSans-35" x="1969.873047"/>
     <use xlink:href="#DejaVuSans-38" x="2033.496094"/>
     <use xlink:href="#DejaVuSans-38" x="2097.119141"/>
     <use xlink:href="#DejaVuSans-29" x="2160.742188"/>
    </g>
   </g>
   <g id="legend_1">
    <g id="patch_7">
     <path d="M 1287.495312 87.789875 
L 1384.575 87.789875 
Q 1386.575 87.789875 1386.575 85.789875 
L 1386.575 42.7555 
Q 1386.575 40.7555 1384.575 40.7555 
L 1287.495312 40.7555 
Q 1285.495312 40.7555 1285.495312 42.7555 
L 1285.495312 85.789875 
Q 1285.495312 87.789875 1287.495312 87.789875 
z
" style="fill: #ffffff; opacity: 0.8; stroke: #cccccc; stroke-linejoin: miter"/>
    </g>
    <g id="line2d_19">
     <path d="M 1289.495312 48.853937 
L 1299.495312 48.853937 
L 1309.495312 48.853937 
" style="fill: none; stroke: #0000ff; stroke-width: 1.5; stroke-linecap: square"/>
    </g>
    <g id="text_17">
     <!-- Actual Value -->
     <g transform="translate(1317.495312 52.353937)scale(0.1 -0.1)">
      <defs>
       <path id="DejaVuSans-75" d="M 544 1381 
L 544 3500 
L 1119 3500 
L 1119 1403 
Q 1119 906 1312 657 
Q 1506 409 1894 409 
Q 2359 409 2629 706 
Q 2900 1003 2900 1516 
L 2900 3500 
L 3475 3500 
L 3475 0 
L 2900 0 
L 2900 538 
Q 2691 219 2414 64 
Q 2138 -91 1772 -91 
Q 1169 -91 856 284 
Q 544 659 544 1381 
z
M 1991 3584 
L 1991 3584 
z
" transform="scale(0.015625)"/>
       <path id="DejaVuSans-56" d="M 1831 0 
L 50 4666 
L 709 4666 
L 2188 738 
L 3669 4666 
L 4325 4666 
L 2547 0 
L 1831 0 
z
" transform="scale(0.015625)"/>
      </defs>
      <use xlink:href="#DejaVuSans-41"/>
      <use xlink:href="#DejaVuSans-63" x="66.658203"/>
      <use xlink:href="#DejaVuSans-74" x="121.638672"/>
      <use xlink:href="#DejaVuSans-75" x="160.847656"/>
      <use xlink:href="#DejaVuSans-61" x="224.226562"/>
      <use xlink:href="#DejaVuSans-6c" x="285.505859"/>
      <use xlink:href="#DejaVuSans-20" x="313.289062"/>
      <use xlink:href="#DejaVuSans-56" x="345.076172"/>
      <use xlink:href="#DejaVuSans-61" x="405.734375"/>
      <use xlink:href="#DejaVuSans-6c" x="467.013672"/>
      <use xlink:href="#DejaVuSans-75" x="494.796875"/>
      <use xlink:href="#DejaVuSans-65" x="558.175781"/>
     </g>
    </g>
    <g id="line2d_20">
     <path d="M 1289.495312 63.532062 
L 1299.495312 63.532062 
L 1309.495312 63.532062 
" style="fill: none; stroke: #ffa500; stroke-width: 1.5; stroke-linecap: square"/>
    </g>
    <g id="text_18">
     <!-- Check Value -->
     <g transform="translate(1317.495312 67.032062)scale(0.1 -0.1)">
      <defs>
       <path id="DejaVuSans-68" d="M 3513 2113 
L 3513 0 
L 2938 0 
L 2938 2094 
Q 2938 2591 2744 2837 
Q 2550 3084 2163 3084 
Q 1697 3084 1428 2787 
Q 1159 2491 1159 1978 
L 1159 0 
L 581 0 
L 581 4863 
L 1159 4863 
L 1159 2956 
Q 1366 3272 1645 3428 
Q 1925 3584 2291 3584 
Q 2894 3584 3203 3211 
Q 3513 2838 3513 2113 
z
" transform="scale(0.015625)"/>
       <path id="DejaVuSans-6b" d="M 581 4863 
L 1159 4863 
L 1159 1991 
L 2875 3500 
L 3609 3500 
L 1753 1863 
L 3688 0 
L 2938 0 
L 1159 1709 
L 1159 0 
L 581 0 
L 581 4863 
z
" transform="scale(0.015625)"/>
      </defs>
      <use xlink:href="#DejaVuSans-43"/>
      <use xlink:href="#DejaVuSans-68" x="69.824219"/>
      <use xlink:href="#DejaVuSans-65" x="133.203125"/>
      <use xlink:href="#DejaVuSans-63" x="194.726562"/>
      <use xlink:href="#DejaVuSans-6b" x="249.707031"/>
      <use xlink:href="#DejaVuSans-20" x="307.617188"/>
      <use xlink:href="#DejaVuSans-56" x="339.404297"/>
      <use xlink:href="#DejaVuSans-61" x="400.0625"/>
      <use xlink:href="#DejaVuSans-6c" x="461.341797"/>
      <use xlink:href="#DejaVuSans-75" x="489.125"/>
      <use xlink:href="#DejaVuSans-65" x="552.503906"/>
     </g>
    </g>
    <g id="line2d_21">
     <path d="M 1289.495312 78.210187 
L 1299.495312 78.210187 
L 1309.495312 78.210187 
" style="fill: none; stroke: #ff0000; stroke-width: 1.5; stroke-linecap: square"/>
    </g>
    <g id="text_19">
     <!-- Predict Value -->
     <g transform="translate(1317.495312 81.710187)scale(0.1 -0.1)">
      <defs>
       <path id="DejaVuSans-50" d="M 1259 4147 
L 1259 2394 
L 2053 2394 
Q 2494 2394 2734 2622 
Q 2975 2850 2975 3272 
Q 2975 3691 2734 3919 
Q 2494 4147 2053 4147 
L 1259 4147 
z
M 628 4666 
L 2053 4666 
Q 2838 4666 3239 4311 
Q 3641 3956 3641 3272 
Q 3641 2581 3239 2228 
Q 2838 1875 2053 1875 
L 1259 1875 
L 1259 0 
L 628 0 
L 628 4666 
z
" transform="scale(0.015625)"/>
      </defs>
      <use xlink:href="#DejaVuSans-50"/>
      <use xlink:href="#DejaVuSans-72" x="58.552734"/>
      <use xlink:href="#DejaVuSans-65" x="97.416016"/>
      <use xlink:href="#DejaVuSans-64" x="158.939453"/>
      <use xlink:href="#DejaVuSans-69" x="222.416016"/>
      <use xlink:href="#DejaVuSans-63" x="250.199219"/>
      <use xlink:href="#DejaVuSans-74" x="305.179688"/>
      <use xlink:href="#DejaVuSans-20" x="344.388672"/>
      <use xlink:href="#DejaVuSans-56" x="376.175781"/>
      <use xlink:href="#DejaVuSans-61" x="436.833984"/>
      <use xlink:href="#DejaVuSans-6c" x="498.113281"/>
      <use xlink:href="#DejaVuSans-75" x="525.896484"/>
      <use xlink:href="#DejaVuSans-65" x="589.275391"/>
     </g>
    </g>
   </g>
  </g>
 </g>
 <defs>
  <clipPath id="padec72684d">
   <rect x="52.375" y="35.7555" width="1339.2" height="332.64"/>
  </clipPath>
 </defs>
</svg>
