<?xml version="1.0" encoding="utf-8" standalone="no"?>
<!DOCTYPE svg PUBLIC "-//W3C//DTD SVG 1.1//EN"
  "http://www.w3.org/Graphics/SVG/1.1/DTD/svg11.dtd">
<svg xmlns:xlink="http://www.w3.org/1999/xlink" width="1392.4125pt" height="392.273625pt" viewBox="0 0 1392.4125 392.273625" xmlns="http://www.w3.org/2000/svg" version="1.1">
 <metadata>
  <rdf:RDF xmlns:dc="http://purl.org/dc/elements/1.1/" xmlns:cc="http://creativecommons.org/ns#" xmlns:rdf="http://www.w3.org/1999/02/22-rdf-syntax-ns#">
   <cc:Work>
    <dc:type rdf:resource="http://purl.org/dc/dcmitype/StillImage"/>
    <dc:date>2022-12-07T18:43:23.915766</dc:date>
    <dc:format>image/svg+xml</dc:format>
    <dc:creator>
     <cc:Agent>
      <dc:title>Matplotlib v3.5.1, https://matplotlib.org/</dc:title>
     </cc:Agent>
    </dc:creator>
   </cc:Work>
  </rdf:RDF>
 </metadata>
 <defs>
  <style type="text/css">*{stroke-linejoin: round; stroke-linecap: butt}</style>
 </defs>
 <g id="figure_1">
  <g id="patch_1">
   <path d="M 0 392.273625 
L 1392.4125 392.273625 
L 1392.4125 0 
L 0 0 
z
" style="fill: #ffffff"/>
  </g>
  <g id="axes_1">
   <g id="patch_2">
    <path d="M 46.0125 368.3955 
L 1385.2125 368.3955 
L 1385.2125 35.7555 
L 46.0125 35.7555 
z
" style="fill: #ffffff"/>
   </g>
   <g id="matplotlib.axis_1">
    <g id="xtick_1">
     <g id="line2d_1">
      <defs>
       <path id="mfa1abd3689" d="M 0 0 
L 0 3.5 
" style="stroke: #000000; stroke-width: 0.8"/>
      </defs>
      <g>
       <use xlink:href="#mfa1abd3689" x="81.664888" y="368.3955" style="stroke: #000000; stroke-width: 0.8"/>
      </g>
     </g>
     <g id="text_1">
      <!-- 2020-01 -->
      <g transform="translate(60.773482 382.993937)scale(0.1 -0.1)">
       <defs>
        <path id="DejaVuSans-32" d="M 1228 531 
L 3431 531 
L 3431 0 
L 469 0 
L 469 531 
Q 828 903 1448 1529 
Q 2069 2156 2228 2338 
Q 2531 2678 2651 2914 
Q 2772 3150 2772 3378 
Q 2772 3750 2511 3984 
Q 2250 4219 1831 4219 
Q 1534 4219 1204 4116 
Q 875 4013 500 3803 
L 500 4441 
Q 881 4594 1212 4672 
Q 1544 4750 1819 4750 
Q 2544 4750 2975 4387 
Q 3406 4025 3406 3419 
Q 3406 3131 3298 2873 
Q 3191 2616 2906 2266 
Q 2828 2175 2409 1742 
Q 1991 1309 1228 531 
z
" transform="scale(0.015625)"/>
        <path id="DejaVuSans-30" d="M 2034 4250 
Q 1547 4250 1301 3770 
Q 1056 3291 1056 2328 
Q 1056 1369 1301 889 
Q 1547 409 2034 409 
Q 2525 409 2770 889 
Q 3016 1369 3016 2328 
Q 3016 3291 2770 3770 
Q 2525 4250 2034 4250 
z
M 2034 4750 
Q 2819 4750 3233 4129 
Q 3647 3509 3647 2328 
Q 3647 1150 3233 529 
Q 2819 -91 2034 -91 
Q 1250 -91 836 529 
Q 422 1150 422 2328 
Q 422 3509 836 4129 
Q 1250 4750 2034 4750 
z
" transform="scale(0.015625)"/>
        <path id="DejaVuSans-2d" d="M 313 2009 
L 1997 2009 
L 1997 1497 
L 313 1497 
L 313 2009 
z
" transform="scale(0.015625)"/>
        <path id="DejaVuSans-31" d="M 794 531 
L 1825 531 
L 1825 4091 
L 703 3866 
L 703 4441 
L 1819 4666 
L 2450 4666 
L 2450 531 
L 3481 531 
L 3481 0 
L 794 0 
L 794 531 
z
" transform="scale(0.015625)"/>
       </defs>
       <use xlink:href="#DejaVuSans-32"/>
       <use xlink:href="#DejaVuSans-30" x="63.623047"/>
       <use xlink:href="#DejaVuSans-32" x="127.246094"/>
       <use xlink:href="#DejaVuSans-30" x="190.869141"/>
       <use xlink:href="#DejaVuSans-2d" x="254.492188"/>
       <use xlink:href="#DejaVuSans-30" x="290.576172"/>
       <use xlink:href="#DejaVuSans-31" x="354.199219"/>
      </g>
     </g>
    </g>
    <g id="xtick_2">
     <g id="line2d_2">
      <g>
       <use xlink:href="#mfa1abd3689" x="220.376753" y="368.3955" style="stroke: #000000; stroke-width: 0.8"/>
      </g>
     </g>
     <g id="text_2">
      <!-- 2020-05 -->
      <g transform="translate(199.485346 382.993937)scale(0.1 -0.1)">
       <defs>
        <path id="DejaVuSans-35" d="M 691 4666 
L 3169 4666 
L 3169 4134 
L 1269 4134 
L 1269 2991 
Q 1406 3038 1543 3061 
Q 1681 3084 1819 3084 
Q 2600 3084 3056 2656 
Q 3513 2228 3513 1497 
Q 3513 744 3044 326 
Q 2575 -91 1722 -91 
Q 1428 -91 1123 -41 
Q 819 9 494 109 
L 494 744 
Q 775 591 1075 516 
Q 1375 441 1709 441 
Q 2250 441 2565 725 
Q 2881 1009 2881 1497 
Q 2881 1984 2565 2268 
Q 2250 2553 1709 2553 
Q 1456 2553 1204 2497 
Q 953 2441 691 2322 
L 691 4666 
z
" transform="scale(0.015625)"/>
       </defs>
       <use xlink:href="#DejaVuSans-32"/>
       <use xlink:href="#DejaVuSans-30" x="63.623047"/>
       <use xlink:href="#DejaVuSans-32" x="127.246094"/>
       <use xlink:href="#DejaVuSans-30" x="190.869141"/>
       <use xlink:href="#DejaVuSans-2d" x="254.492188"/>
       <use xlink:href="#DejaVuSans-30" x="290.576172"/>
       <use xlink:href="#DejaVuSans-35" x="354.199219"/>
      </g>
     </g>
    </g>
    <g id="xtick_3">
     <g id="line2d_3">
      <g>
       <use xlink:href="#mfa1abd3689" x="361.381375" y="368.3955" style="stroke: #000000; stroke-width: 0.8"/>
      </g>
     </g>
     <g id="text_3">
      <!-- 2020-09 -->
      <g transform="translate(340.489969 382.993937)scale(0.1 -0.1)">
       <defs>
        <path id="DejaVuSans-39" d="M 703 97 
L 703 672 
Q 941 559 1184 500 
Q 1428 441 1663 441 
Q 2288 441 2617 861 
Q 2947 1281 2994 2138 
Q 2813 1869 2534 1725 
Q 2256 1581 1919 1581 
Q 1219 1581 811 2004 
Q 403 2428 403 3163 
Q 403 3881 828 4315 
Q 1253 4750 1959 4750 
Q 2769 4750 3195 4129 
Q 3622 3509 3622 2328 
Q 3622 1225 3098 567 
Q 2575 -91 1691 -91 
Q 1453 -91 1209 -44 
Q 966 3 703 97 
z
M 1959 2075 
Q 2384 2075 2632 2365 
Q 2881 2656 2881 3163 
Q 2881 3666 2632 3958 
Q 2384 4250 1959 4250 
Q 1534 4250 1286 3958 
Q 1038 3666 1038 3163 
Q 1038 2656 1286 2365 
Q 1534 2075 1959 2075 
z
" transform="scale(0.015625)"/>
       </defs>
       <use xlink:href="#DejaVuSans-32"/>
       <use xlink:href="#DejaVuSans-30" x="63.623047"/>
       <use xlink:href="#DejaVuSans-32" x="127.246094"/>
       <use xlink:href="#DejaVuSans-30" x="190.869141"/>
       <use xlink:href="#DejaVuSans-2d" x="254.492188"/>
       <use xlink:href="#DejaVuSans-30" x="290.576172"/>
       <use xlink:href="#DejaVuSans-39" x="354.199219"/>
      </g>
     </g>
    </g>
    <g id="xtick_4">
     <g id="line2d_4">
      <g>
       <use xlink:href="#mfa1abd3689" x="501.239619" y="368.3955" style="stroke: #000000; stroke-width: 0.8"/>
      </g>
     </g>
     <g id="text_4">
      <!-- 2021-01 -->
      <g transform="translate(480.348212 382.993937)scale(0.1 -0.1)">
       <use xlink:href="#DejaVuSans-32"/>
       <use xlink:href="#DejaVuSans-30" x="63.623047"/>
       <use xlink:href="#DejaVuSans-32" x="127.246094"/>
       <use xlink:href="#DejaVuSans-31" x="190.869141"/>
       <use xlink:href="#DejaVuSans-2d" x="254.492188"/>
       <use xlink:href="#DejaVuSans-30" x="290.576172"/>
       <use xlink:href="#DejaVuSans-31" x="354.199219"/>
      </g>
     </g>
    </g>
    <g id="xtick_5">
     <g id="line2d_5">
      <g>
       <use xlink:href="#mfa1abd3689" x="638.805104" y="368.3955" style="stroke: #000000; stroke-width: 0.8"/>
      </g>
     </g>
     <g id="text_5">
      <!-- 2021-05 -->
      <g transform="translate(617.913698 382.993937)scale(0.1 -0.1)">
       <use xlink:href="#DejaVuSans-32"/>
       <use xlink:href="#DejaVuSans-30" x="63.623047"/>
       <use xlink:href="#DejaVuSans-32" x="127.246094"/>
       <use xlink:href="#DejaVuSans-31" x="190.869141"/>
       <use xlink:href="#DejaVuSans-2d" x="254.492188"/>
       <use xlink:href="#DejaVuSans-30" x="290.576172"/>
       <use xlink:href="#DejaVuSans-35" x="354.199219"/>
      </g>
     </g>
    </g>
    <g id="xtick_6">
     <g id="line2d_6">
      <g>
       <use xlink:href="#mfa1abd3689" x="779.809727" y="368.3955" style="stroke: #000000; stroke-width: 0.8"/>
      </g>
     </g>
     <g id="text_6">
      <!-- 2021-09 -->
      <g transform="translate(758.91832 382.993937)scale(0.1 -0.1)">
       <use xlink:href="#DejaVuSans-32"/>
       <use xlink:href="#DejaVuSans-30" x="63.623047"/>
       <use xlink:href="#DejaVuSans-32" x="127.246094"/>
       <use xlink:href="#DejaVuSans-31" x="190.869141"/>
       <use xlink:href="#DejaVuSans-2d" x="254.492188"/>
       <use xlink:href="#DejaVuSans-30" x="290.576172"/>
       <use xlink:href="#DejaVuSans-39" x="354.199219"/>
      </g>
     </g>
    </g>
    <g id="xtick_7">
     <g id="line2d_7">
      <g>
       <use xlink:href="#mfa1abd3689" x="919.66797" y="368.3955" style="stroke: #000000; stroke-width: 0.8"/>
      </g>
     </g>
     <g id="text_7">
      <!-- 2022-01 -->
      <g transform="translate(898.776564 382.993937)scale(0.1 -0.1)">
       <use xlink:href="#DejaVuSans-32"/>
       <use xlink:href="#DejaVuSans-30" x="63.623047"/>
       <use xlink:href="#DejaVuSans-32" x="127.246094"/>
       <use xlink:href="#DejaVuSans-32" x="190.869141"/>
       <use xlink:href="#DejaVuSans-2d" x="254.492188"/>
       <use xlink:href="#DejaVuSans-30" x="290.576172"/>
       <use xlink:href="#DejaVuSans-31" x="354.199219"/>
      </g>
     </g>
    </g>
    <g id="xtick_8">
     <g id="line2d_8">
      <g>
       <use xlink:href="#mfa1abd3689" x="1057.233455" y="368.3955" style="stroke: #000000; stroke-width: 0.8"/>
      </g>
     </g>
     <g id="text_8">
      <!-- 2022-05 -->
      <g transform="translate(1036.342049 382.993937)scale(0.1 -0.1)">
       <use xlink:href="#DejaVuSans-32"/>
       <use xlink:href="#DejaVuSans-30" x="63.623047"/>
       <use xlink:href="#DejaVuSans-32" x="127.246094"/>
       <use xlink:href="#DejaVuSans-32" x="190.869141"/>
       <use xlink:href="#DejaVuSans-2d" x="254.492188"/>
       <use xlink:href="#DejaVuSans-30" x="290.576172"/>
       <use xlink:href="#DejaVuSans-35" x="354.199219"/>
      </g>
     </g>
    </g>
    <g id="xtick_9">
     <g id="line2d_9">
      <g>
       <use xlink:href="#mfa1abd3689" x="1198.238078" y="368.3955" style="stroke: #000000; stroke-width: 0.8"/>
      </g>
     </g>
     <g id="text_9">
      <!-- 2022-09 -->
      <g transform="translate(1177.346672 382.993937)scale(0.1 -0.1)">
       <use xlink:href="#DejaVuSans-32"/>
       <use xlink:href="#DejaVuSans-30" x="63.623047"/>
       <use xlink:href="#DejaVuSans-32" x="127.246094"/>
       <use xlink:href="#DejaVuSans-32" x="190.869141"/>
       <use xlink:href="#DejaVuSans-2d" x="254.492188"/>
       <use xlink:href="#DejaVuSans-30" x="290.576172"/>
       <use xlink:href="#DejaVuSans-39" x="354.199219"/>
      </g>
     </g>
    </g>
    <g id="xtick_10">
     <g id="line2d_10">
      <g>
       <use xlink:href="#mfa1abd3689" x="1338.096321" y="368.3955" style="stroke: #000000; stroke-width: 0.8"/>
      </g>
     </g>
     <g id="text_10">
      <!-- 2023-01 -->
      <g transform="translate(1317.204915 382.993937)scale(0.1 -0.1)">
       <defs>
        <path id="DejaVuSans-33" d="M 2597 2516 
Q 3050 2419 3304 2112 
Q 3559 1806 3559 1356 
Q 3559 666 3084 287 
Q 2609 -91 1734 -91 
Q 1441 -91 1130 -33 
Q 819 25 488 141 
L 488 750 
Q 750 597 1062 519 
Q 1375 441 1716 441 
Q 2309 441 2620 675 
Q 2931 909 2931 1356 
Q 2931 1769 2642 2001 
Q 2353 2234 1838 2234 
L 1294 2234 
L 1294 2753 
L 1863 2753 
Q 2328 2753 2575 2939 
Q 2822 3125 2822 3475 
Q 2822 3834 2567 4026 
Q 2313 4219 1838 4219 
Q 1578 4219 1281 4162 
Q 984 4106 628 3988 
L 628 4550 
Q 988 4650 1302 4700 
Q 1616 4750 1894 4750 
Q 2613 4750 3031 4423 
Q 3450 4097 3450 3541 
Q 3450 3153 3228 2886 
Q 3006 2619 2597 2516 
z
" transform="scale(0.015625)"/>
       </defs>
       <use xlink:href="#DejaVuSans-32"/>
       <use xlink:href="#DejaVuSans-30" x="63.623047"/>
       <use xlink:href="#DejaVuSans-32" x="127.246094"/>
       <use xlink:href="#DejaVuSans-33" x="190.869141"/>
       <use xlink:href="#DejaVuSans-2d" x="254.492188"/>
       <use xlink:href="#DejaVuSans-30" x="290.576172"/>
       <use xlink:href="#DejaVuSans-31" x="354.199219"/>
      </g>
     </g>
    </g>
   </g>
   <g id="matplotlib.axis_2">
    <g id="ytick_1">
     <g id="line2d_11">
      <defs>
       <path id="meb0e1268d5" d="M 0 0 
L -3.5 0 
" style="stroke: #000000; stroke-width: 0.8"/>
      </defs>
      <g>
       <use xlink:href="#meb0e1268d5" x="46.0125" y="338.352601" style="stroke: #000000; stroke-width: 0.8"/>
      </g>
     </g>
     <g id="text_11">
      <!-- 0 -->
      <g transform="translate(32.65 342.15182)scale(0.1 -0.1)">
       <use xlink:href="#DejaVuSans-30"/>
      </g>
     </g>
    </g>
    <g id="ytick_2">
     <g id="line2d_12">
      <g>
       <use xlink:href="#meb0e1268d5" x="46.0125" y="284.160718" style="stroke: #000000; stroke-width: 0.8"/>
      </g>
     </g>
     <g id="text_12">
      <!-- 5000 -->
      <g transform="translate(13.5625 287.959937)scale(0.1 -0.1)">
       <use xlink:href="#DejaVuSans-35"/>
       <use xlink:href="#DejaVuSans-30" x="63.623047"/>
       <use xlink:href="#DejaVuSans-30" x="127.246094"/>
       <use xlink:href="#DejaVuSans-30" x="190.869141"/>
      </g>
     </g>
    </g>
    <g id="ytick_3">
     <g id="line2d_13">
      <g>
       <use xlink:href="#meb0e1268d5" x="46.0125" y="229.968835" style="stroke: #000000; stroke-width: 0.8"/>
      </g>
     </g>
     <g id="text_13">
      <!-- 10000 -->
      <g transform="translate(7.2 233.768054)scale(0.1 -0.1)">
       <use xlink:href="#DejaVuSans-31"/>
       <use xlink:href="#DejaVuSans-30" x="63.623047"/>
       <use xlink:href="#DejaVuSans-30" x="127.246094"/>
       <use xlink:href="#DejaVuSans-30" x="190.869141"/>
       <use xlink:href="#DejaVuSans-30" x="254.492188"/>
      </g>
     </g>
    </g>
    <g id="ytick_4">
     <g id="line2d_14">
      <g>
       <use xlink:href="#meb0e1268d5" x="46.0125" y="175.776952" style="stroke: #000000; stroke-width: 0.8"/>
      </g>
     </g>
     <g id="text_14">
      <!-- 15000 -->
      <g transform="translate(7.2 179.576171)scale(0.1 -0.1)">
       <use xlink:href="#DejaVuSans-31"/>
       <use xlink:href="#DejaVuSans-35" x="63.623047"/>
       <use xlink:href="#DejaVuSans-30" x="127.246094"/>
       <use xlink:href="#DejaVuSans-30" x="190.869141"/>
       <use xlink:href="#DejaVuSans-30" x="254.492188"/>
      </g>
     </g>
    </g>
    <g id="ytick_5">
     <g id="line2d_15">
      <g>
       <use xlink:href="#meb0e1268d5" x="46.0125" y="121.585069" style="stroke: #000000; stroke-width: 0.8"/>
      </g>
     </g>
     <g id="text_15">
      <!-- 20000 -->
      <g transform="translate(7.2 125.384288)scale(0.1 -0.1)">
       <use xlink:href="#DejaVuSans-32"/>
       <use xlink:href="#DejaVuSans-30" x="63.623047"/>
       <use xlink:href="#DejaVuSans-30" x="127.246094"/>
       <use xlink:href="#DejaVuSans-30" x="190.869141"/>
       <use xlink:href="#DejaVuSans-30" x="254.492188"/>
      </g>
     </g>
    </g>
    <g id="ytick_6">
     <g id="line2d_16">
      <g>
       <use xlink:href="#meb0e1268d5" x="46.0125" y="67.393186" style="stroke: #000000; stroke-width: 0.8"/>
      </g>
     </g>
     <g id="text_16">
      <!-- 25000 -->
      <g transform="translate(7.2 71.192405)scale(0.1 -0.1)">
       <use xlink:href="#DejaVuSans-32"/>
       <use xlink:href="#DejaVuSans-35" x="63.623047"/>
       <use xlink:href="#DejaVuSans-30" x="127.246094"/>
       <use xlink:href="#DejaVuSans-30" x="190.869141"/>
       <use xlink:href="#DejaVuSans-30" x="254.492188"/>
      </g>
     </g>
    </g>
   </g>
   <g id="line2d_17">
    <path d="M 106.885227 338.352601 
L 182.546244 338.341763 
L 183.692623 338.222541 
L 185.985381 338.276732 
L 188.278139 338.124995 
L 189.424518 338.276732 
L 191.717277 338.200864 
L 192.863656 338.265894 
L 194.010035 338.190025 
L 195.156414 338.276732 
L 196.302793 338.179187 
L 197.449172 338.265894 
L 200.888309 338.049127 
L 202.034688 338.287571 
L 203.181067 337.897389 
L 204.327446 338.114157 
L 210.059341 338.265894 
L 213.498478 338.222541 
L 214.644857 338.02745 
L 215.791237 338.233379 
L 216.937616 338.200864 
L 218.083995 338.287571 
L 219.230374 338.114157 
L 220.376753 338.059965 
L 223.81589 338.309248 
L 224.962269 338.233379 
L 227.255027 338.298409 
L 230.694164 338.255056 
L 232.986922 338.309248 
L 234.133301 338.298409 
L 235.27968 338.135834 
L 236.426059 338.309248 
L 238.718817 338.222541 
L 241.011576 338.287571 
L 253.621745 338.233379 
L 254.768124 338.070803 
L 257.060882 338.330924 
L 261.646398 338.320086 
L 265.085535 338.287571 
L 271.96381 338.190025 
L 273.110189 338.352601 
L 274.256568 338.255056 
L 277.695705 338.330924 
L 278.842084 338.265894 
L 281.134842 338.320086 
L 313.233455 338.244217 
L 314.379834 338.09248 
L 315.526213 338.222541 
L 316.672592 338.146672 
L 320.11173 338.287571 
L 324.697246 338.265894 
L 328.136383 338.330924 
L 329.282762 338.320086 
L 330.429141 338.190025 
L 333.868278 338.320086 
L 337.307415 338.200864 
L 361.381375 338.103318 
L 362.527754 337.940743 
L 363.674133 338.135834 
L 364.820512 338.049127 
L 367.11327 338.038288 
L 371.698787 337.734814 
L 372.845166 337.409662 
L 373.991545 336.640138 
L 375.137924 336.705168 
L 378.577061 336.228279 
L 379.72344 336.412532 
L 384.308956 336.260794 
L 385.455335 335.989835 
L 386.601714 335.89229 
L 387.748093 335.545462 
L 388.894472 335.480431 
L 390.040851 335.144442 
L 392.333609 335.122765 
L 394.626367 334.81929 
L 395.772747 333.497008 
L 396.919126 333.442816 
L 398.065505 333.247726 
L 399.211884 332.34814 
L 400.358263 332.088019 
L 401.504642 332.402332 
L 403.7974 333.236887 
L 404.943779 332.640777 
L 406.090158 332.727484 
L 407.236537 332.68413 
L 408.382916 333.171857 
L 409.529295 332.185565 
L 410.675674 330.982505 
L 411.822053 328.392133 
L 412.968432 328.738961 
L 414.114811 327.969436 
L 415.26119 325.433256 
L 416.407569 325.498286 
L 417.553948 325.411579 
L 418.700327 323.709954 
L 419.846706 321.06539 
L 422.139465 317.315312 
L 423.285844 317.456211 
L 425.578602 318.583402 
L 426.724981 319.591371 
L 430.164118 320.219997 
L 431.310497 318.941069 
L 432.456876 318.279928 
L 433.603255 317.293635 
L 434.749634 313.478527 
L 435.896013 312.329659 
L 437.042392 308.276106 
L 438.188771 307.365682 
L 439.33515 306.910471 
L 440.481529 306.628673 
L 441.627908 306.162623 
L 442.774287 306.802087 
L 443.920666 304.536866 
L 445.067045 300.710919 
L 446.213424 300.374929 
L 447.359804 305.620704 
L 448.506183 304.135846 
L 449.652562 304.569381 
L 450.798941 301.03607 
L 451.94532 298.283123 
L 453.091699 297.513598 
L 454.238078 296.906649 
L 455.384457 294.478853 
L 456.530836 295.454306 
L 457.677215 304.450159 
L 458.823594 305.067947 
L 459.969973 297.155932 
L 461.116352 286.545161 
L 462.262731 289.883381 
L 463.40911 290.381946 
L 464.555489 303.496382 
L 465.701868 297.611143 
L 466.848247 294.641428 
L 467.994626 292.181117 
L 469.141005 283.423708 
L 470.287384 279.283449 
L 471.433763 291.519976 
L 472.580143 311.245821 
L 473.726522 287.704867 
L 474.872901 287.043726 
L 476.01928 288.82122 
L 477.165659 293.416692 
L 478.312038 296.007064 
L 479.458417 308.872217 
L 480.604796 323.861692 
L 481.751175 296.76575 
L 482.897554 300.559182 
L 484.043933 306.0434 
L 485.190312 309.793479 
L 486.336691 306.877955 
L 487.48307 319.591371 
L 488.629449 329.421779 
L 489.775828 305.143815 
L 490.922207 312.936608 
L 492.068586 316.979322 
L 494.361344 319.016937 
L 495.507723 326.462902 
L 496.654102 332.521554 
L 497.800482 316.545787 
L 498.946861 319.515503 
L 500.09324 321.8024 
L 501.239619 327.622608 
L 502.385998 334.645876 
L 503.532377 333.832998 
L 504.678756 331.914605 
L 505.825135 313.250921 
L 506.971514 318.843523 
L 508.117893 320.881138 
L 509.264272 332.532393 
L 510.410651 316.047222 
L 511.55703 325.964337 
L 512.703409 332.380656 
L 513.849788 318.225736 
L 516.142546 323.644924 
L 517.288925 325.595832 
L 518.435304 324.956368 
L 519.581683 329.898667 
L 520.728062 337.16038 
L 521.874441 321.553117 
L 523.02082 333.269402 
L 524.1672 326.029367 
L 525.313579 328.565547 
L 526.459958 327.535901 
L 527.606337 332.434847 
L 528.752716 335.122765 
L 529.899095 327.449194 
L 531.045474 330.310526 
L 532.191853 330.516455 
L 533.338232 331.101727 
L 534.484611 331.025859 
L 535.63099 333.161019 
L 536.777369 335.751391 
L 537.923748 329.053274 
L 539.070127 330.895798 
L 540.216506 332.033828 
L 541.362885 332.521554 
L 542.509264 331.827898 
L 544.802022 336.141572 
L 545.948401 329.367587 
L 547.09478 332.456524 
L 548.241159 332.315625 
L 549.387539 332.857544 
L 550.533918 332.55407 
L 552.826676 336.564269 
L 553.973055 330.332202 
L 555.119434 333.08515 
L 556.265813 334.396594 
L 557.412192 334.147311 
L 558.558571 334.060604 
L 559.70495 335.5563 
L 560.851329 336.75936 
L 561.997708 333.009281 
L 563.144087 333.5512 
L 564.290466 334.429109 
L 565.436845 334.700068 
L 566.583224 334.309887 
L 567.729603 335.664684 
L 568.875982 336.618461 
L 570.022361 333.356109 
L 571.16874 334.450786 
L 572.315119 336.911097 
L 573.461498 334.125634 
L 574.607878 334.504977 
L 575.754257 335.816421 
L 576.900636 336.75936 
L 578.047015 336.846067 
L 579.193394 332.792514 
L 580.339773 334.071442 
L 581.486152 334.75426 
L 582.632531 334.6242 
L 583.77891 335.447916 
L 584.925289 336.629299 
L 586.071668 332.532393 
L 587.218047 334.212341 
L 589.510805 334.450786 
L 590.657184 333.778806 
L 591.803563 335.512946 
L 592.949942 336.510077 
L 594.096321 332.629938 
L 595.2427 333.475332 
L 596.389079 334.028089 
L 597.535458 333.811321 
L 598.681837 333.041797 
L 599.828216 334.396594 
L 600.974596 336.499239 
L 602.120975 331.058374 
L 603.267354 331.676161 
L 604.413733 332.944251 
L 605.560112 332.6191 
L 606.706491 332.066343 
L 607.85287 333.323594 
L 608.999249 335.881451 
L 610.145628 328.630577 
L 611.292007 330.906636 
L 612.438386 330.104596 
L 613.584765 329.931182 
L 614.731144 332.868383 
L 615.877523 330.689869 
L 617.023902 334.461624 
L 618.170281 323.460672 
L 619.31666 326.592962 
L 620.463039 327.189073 
L 621.609418 326.679669 
L 622.755797 325.14062 
L 623.902176 329.486809 
L 625.048555 332.088019 
L 626.194935 318.93023 
L 627.341314 324.154328 
L 628.487693 325.064751 
L 629.634072 324.577024 
L 630.780451 324.80463 
L 631.92683 327.882729 
L 633.073209 332.705807 
L 634.219588 321.249643 
L 635.365967 321.542279 
L 636.512346 322.821207 
L 637.658725 322.355157 
L 638.805104 325.920983 
L 639.951483 327.644285 
L 641.097862 332.835867 
L 642.244241 329.81196 
L 643.39062 314.822485 
L 644.536999 318.778493 
L 645.683378 321.585632 
L 646.829757 321.40138 
L 647.976136 326.549609 
L 649.122515 332.402332 
L 650.268894 318.973584 
L 651.415273 323.081328 
L 652.561653 329.942021 
L 653.708032 323.287258 
L 654.854411 321.27132 
L 656.00079 327.861053 
L 657.147169 332.890059 
L 658.293548 321.423057 
L 659.439927 325.780084 
L 660.586306 326.387033 
L 661.732685 326.820568 
L 662.879064 326.7447 
L 665.171822 334.147311 
L 666.318201 323.677439 
L 667.46458 327.351649 
L 668.610959 332.846706 
L 669.757338 326.907275 
L 670.903717 327.665962 
L 672.050096 330.516455 
L 673.196475 334.450786 
L 674.342854 324.988883 
L 675.489233 328.01279 
L 676.635612 329.324233 
L 677.781992 329.909506 
L 678.928371 329.335072 
L 680.07475 332.890059 
L 681.221129 335.025219 
L 682.367508 327.264942 
L 683.513887 329.454294 
L 684.660266 330.711546 
L 685.806645 330.819929 
L 686.953024 329.74693 
L 688.099403 332.694969 
L 689.245782 334.981866 
L 690.392161 326.517094 
L 691.53854 329.562678 
L 693.831298 331.08005 
L 694.977677 330.017889 
L 697.270435 335.534623 
L 698.416814 328.446325 
L 699.563193 329.974536 
L 700.709572 331.242626 
L 701.855951 330.776576 
L 703.002331 330.180465 
L 704.14871 332.012151 
L 705.295089 334.537493 
L 706.441468 325.411579 
L 707.587847 327.405841 
L 708.734226 327.730992 
L 709.880605 327.904406 
L 711.026984 327.232427 
L 712.173363 338.352601 
L 713.319742 329.270041 
L 714.466121 323.103005 
L 715.6125 323.265581 
L 716.758879 327.048174 
L 717.905258 326.34368 
L 719.051637 323.569055 
L 720.198016 328.034467 
L 721.344395 331.210111 
L 722.490774 318.171544 
L 723.637153 320.328381 
L 724.783532 323.200551 
L 725.929911 320.436765 
L 727.07629 318.756816 
L 728.222669 324.414449 
L 729.369049 329.161658 
L 730.515428 309.999408 
L 731.661807 312.177922 
L 732.808186 313.847032 
L 733.954565 311.690195 
L 735.100944 309.98857 
L 736.247323 316.014707 
L 737.393702 324.652893 
L 738.540081 298.619112 
L 739.68646 304.30926 
L 740.832839 308.0485 
L 741.979218 308.958924 
L 743.125597 303.713149 
L 744.271976 309.58755 
L 745.418355 320.415088 
L 746.564734 286.035757 
L 748.857492 298.575759 
L 750.003871 297.383538 
L 751.15025 292.658005 
L 752.296629 302.10907 
L 753.443008 314.117991 
L 754.589388 276.60637 
L 755.735767 280.345609 
L 756.882146 282.773406 
L 759.174904 277.885298 
L 760.321283 291.595844 
L 761.467662 309.349105 
L 762.614041 271.067959 
L 763.76042 274.254442 
L 764.906799 285.01695 
L 766.053178 286.946181 
L 767.199557 285.233717 
L 768.345936 297.134255 
L 769.492315 312.839063 
L 770.638694 274.146058 
L 772.931452 293.611782 
L 774.077831 294.663105 
L 775.22421 292.322016 
L 776.370589 309.424974 
L 777.516968 317.59711 
L 778.663347 286.566838 
L 779.809727 296.23467 
L 780.956106 303.539735 
L 782.102485 305.468966 
L 783.248864 309.262398 
L 784.395243 314.399789 
L 785.541622 326.213619 
L 786.688001 317.055191 
L 787.83438 310.487135 
L 788.980759 311.744387 
L 790.127138 313.836193 
L 791.273517 296.939164 
L 792.419896 318.431665 
L 793.566275 328.099497 
L 794.712654 303.44219 
L 795.859033 311.094084 
L 797.005412 314.768294 
L 798.151791 316.253151 
L 799.29817 316.708363 
L 800.444549 322.084198 
L 801.590928 331.177596 
L 802.737307 311.581811 
L 803.883686 316.502434 
L 805.030065 320.436765 
L 806.176445 319.949038 
L 807.322824 321.043714 
L 809.615582 331.166757 
L 810.761961 314.670748 
L 811.90834 317.445373 
L 813.054719 319.461311 
L 814.201098 319.374604 
L 815.347477 318.561725 
L 816.493856 325.736731 
L 817.640235 328.955729 
L 818.786614 308.005147 
L 819.932993 312.232113 
L 821.079372 314.204698 
L 822.225751 309.511681 
L 823.37213 307.528258 
L 824.518509 311.365043 
L 825.664888 321.769885 
L 826.811267 286.599353 
L 827.957646 285.927373 
L 829.104025 292.701359 
L 830.250404 302.91111 
L 831.396784 283.337001 
L 832.543163 288.701998 
L 833.689542 311.484265 
L 834.835921 276.151158 
L 835.9823 281.787114 
L 837.128679 290.544522 
L 838.275058 293.319146 
L 839.421437 289.937573 
L 840.567816 301.111939 
L 841.714195 317.304474 
L 842.860574 286.740252 
L 844.006953 291.346562 
L 845.153332 294.901549 
L 846.299711 295.378438 
L 847.44609 288.387685 
L 849.738848 315.147637 
L 850.885227 278.167096 
L 852.031606 273.06222 
L 853.177985 281.928012 
L 854.324364 280.47567 
L 855.470743 281.559508 
L 856.617122 293.871903 
L 857.763502 314.605718 
L 858.909881 273.094736 
L 860.05626 276.021097 
L 861.202639 288.897089 
L 862.349018 290.176017 
L 863.495397 288.875412 
L 864.641776 298.250608 
L 865.788155 318.626756 
L 866.934534 281.949689 
L 868.080913 287.065403 
L 869.227292 290.165179 
L 870.373671 291.986026 
L 871.52005 291.552491 
L 872.666429 301.968171 
L 873.812808 318.290766 
L 874.959187 283.239456 
L 876.105566 303.658958 
L 877.251945 291.411592 
L 878.398324 289.211402 
L 879.544703 294.370469 
L 880.691082 302.228292 
L 881.837461 317.174413 
L 882.983841 283.618799 
L 884.13022 290.02428 
L 885.276599 297.914618 
L 886.422978 293.915257 
L 887.569357 295.541013 
L 888.715736 301.393737 
L 889.862115 319.081967 
L 891.008494 289.482361 
L 892.154873 292.549622 
L 893.301252 299.746304 
L 894.447631 300.916848 
L 895.59401 299.963071 
L 896.740389 306.682865 
L 897.886768 321.8024 
L 899.033147 295.129155 
L 900.179526 302.824403 
L 902.472284 306.065077 
L 903.618663 308.178561 
L 904.765042 314.562364 
L 905.911421 324.306065 
L 907.0578 302.781049 
L 909.350559 314.898354 
L 910.496938 316.935969 
L 911.643317 315.700394 
L 912.789696 320.350058 
L 913.936075 327.665962 
L 915.082454 309.349105 
L 916.228833 311.104922 
L 917.375212 315.624525 
L 919.66797 315.559495 
L 920.814349 329.725253 
L 921.960728 328.132012 
L 923.107107 299.442829 
L 924.253486 301.111939 
L 925.399865 299.692112 
L 926.546244 292.462915 
L 927.692623 309.934378 
L 928.839002 296.711558 
L 929.985381 306.346875 
L 931.13176 278.893267 
L 932.278139 277.701046 
L 933.424518 280.627407 
L 934.570898 278.015359 
L 935.717277 280.031297 
L 936.863656 278.698176 
L 938.010035 298.727496 
L 939.156414 256.837171 
L 940.302793 243.75525 
L 941.449172 269.518071 
L 943.74193 218.707762 
L 944.888309 233.263702 
L 946.034688 252.220022 
L 947.181067 167.518109 
L 948.327446 148.355859 
L 949.473825 148.854425 
L 950.620204 153.384866 
L 951.766583 140.292107 
L 952.912962 151.228029 
L 954.059341 195.827949 
L 955.20572 76.053049 
L 956.352099 53.086529 
L 957.498478 81.873257 
L 958.644857 97.057823 
L 959.791237 87.617597 
L 960.937616 131.361285 
L 962.083995 216.58344 
L 963.230374 71.555123 
L 964.376753 65.648207 
L 966.669511 121.931897 
L 967.81589 118.051758 
L 968.962269 168.060028 
L 970.108648 294.69562 
L 971.255027 91.80121 
L 972.401406 172.362863 
L 973.547785 168.797037 
L 974.694164 182.225786 
L 975.840543 194.332253 
L 976.986922 236.471861 
L 978.133301 286.599353 
L 979.27968 207.197406 
L 981.572438 246.714127 
L 982.718817 257.259867 
L 983.865196 270.764485 
L 985.011576 285.94905 
L 986.157955 311.636003 
L 987.304334 264.142236 
L 988.450713 296.733235 
L 989.597092 304.591058 
L 990.743471 323.558217 
L 991.88985 305.479805 
L 993.036229 319.927361 
L 994.182608 328.489678 
L 995.328987 308.189399 
L 996.475366 328.977405 
L 997.621745 317.000999 
L 998.768124 321.628986 
L 999.914503 324.880499 
L 1001.060882 329.432617 
L 1002.207261 333.301918 
L 1003.35364 319.753947 
L 1004.500019 326.441225 
L 1005.646398 328.728123 
L 1007.939156 329.150819 
L 1009.085535 333.204372 
L 1010.231914 334.364078 
L 1011.378294 326.939791 
L 1013.671052 331.860414 
L 1014.817431 331.957959 
L 1015.96381 331.220949 
L 1017.110189 334.483301 
L 1018.256568 335.870613 
L 1019.402947 330.787414 
L 1020.549326 332.358979 
L 1022.842084 334.136473 
L 1023.988463 334.537493 
L 1025.134842 336.000673 
L 1026.281221 336.098219 
L 1027.4276 332.088019 
L 1028.573979 334.277371 
L 1030.866737 335.393724 
L 1032.013116 334.656715 
L 1033.159495 336.748521 
L 1034.305874 337.192895 
L 1035.452253 334.103957 
L 1036.598633 335.469593 
L 1037.745012 335.783906 
L 1038.891391 335.805583 
L 1040.03777 335.946481 
L 1041.184149 337.106188 
L 1042.330528 337.550561 
L 1043.476907 334.645876 
L 1044.623286 335.838098 
L 1045.769665 335.935643 
L 1046.916044 336.607622 
L 1048.062423 337.409662 
L 1049.208802 337.35547 
L 1050.355181 337.723975 
L 1051.50156 337.680622 
L 1052.647939 335.209472 
L 1053.794318 336.921935 
L 1054.940697 336.748521 
L 1056.087076 336.694329 
L 1057.233455 337.572238 
L 1058.379834 337.799844 
L 1059.526213 338.352601 
L 1067.550867 338.352601 
L 1068.697246 330.278011 
L 1069.843625 338.352601 
L 1075.57552 338.352601 
L 1076.721899 331.827898 
L 1077.868278 338.352601 
L 1083.600173 338.352601 
L 1084.746552 332.001312 
L 1085.892931 338.352601 
L 1091.624827 338.352601 
L 1092.771206 332.120535 
L 1093.917585 338.352601 
L 1098.503101 338.352601 
L 1099.64948 332.814191 
L 1100.795859 338.352601 
L 1107.674133 338.352601 
L 1108.820512 332.770837 
L 1109.966891 338.352601 
L 1115.698787 338.352601 
L 1116.845166 331.676161 
L 1117.991545 338.352601 
L 1123.72344 338.352601 
L 1124.869819 326.885599 
L 1126.016198 338.352601 
L 1130.601714 338.352601 
L 1131.748093 318.084837 
L 1132.894472 338.352601 
L 1140.919126 338.352601 
L 1142.065505 282.491608 
L 1143.211884 338.352601 
L 1148.943779 338.352601 
L 1150.090158 253.683203 
L 1151.236537 338.352601 
L 1155.822053 338.352601 
L 1156.968432 219.639862 
L 1158.114811 338.352601 
L 1163.846706 338.352601 
L 1164.993086 210.43808 
L 1166.139465 338.352601 
L 1173.017739 338.352601 
L 1174.164118 200.390905 
L 1175.310497 338.352601 
L 1181.042392 338.352601 
L 1182.188771 204.628711 
L 1183.33515 338.352601 
L 1189.067045 338.352601 
L 1190.213424 201.843248 
L 1191.359804 338.352601 
L 1209.701868 338.352601 
L 1210.848247 50.8755 
L 1211.994626 338.352601 
L 1221.165659 338.352601 
L 1222.312038 138.00521 
L 1223.458417 338.352601 
L 1270.459958 338.352601 
L 1271.606337 290.15434 
L 1272.752716 338.352601 
L 1292.241159 338.352601 
L 1293.387539 115.515578 
L 1294.533918 338.352601 
L 1301.412192 338.352601 
L 1302.558571 325.129782 
L 1303.70495 338.352601 
L 1308.290466 338.352601 
L 1308.290466 338.352601 
" clip-path="url(#p9cdd91c098)" style="fill: none; stroke: #0000ff; stroke-width: 1.5; stroke-linecap: square"/>
   </g>
   <g id="line2d_18">
    <path d="M 1068.697246 338.44142 
L 1069.843625 336.839697 
L 1070.990004 336.763031 
L 1073.282762 337.573754 
L 1075.57552 337.984838 
L 1076.721899 335.229842 
L 1077.868278 337.385036 
L 1079.014657 337.42277 
L 1081.307415 337.870127 
L 1083.600173 338.104565 
L 1084.746552 335.330565 
L 1085.892931 337.48558 
L 1087.03931 337.50648 
L 1089.332069 337.903953 
L 1091.624827 338.11513 
L 1092.771206 335.401585 
L 1093.917585 337.503532 
L 1095.063964 337.523093 
L 1097.356722 337.910703 
L 1099.64948 338.117273 
L 1100.795859 334.299258 
L 1101.942238 337.615094 
L 1103.088617 337.979089 
L 1106.527754 338.207229 
L 1107.674133 336.307417 
L 1108.820512 338.149477 
L 1109.966891 337.653608 
L 1111.11327 337.535957 
L 1113.406029 337.917073 
L 1114.552408 338.034542 
L 1115.698787 337.742243 
L 1116.845166 336.20424 
L 1117.991545 337.343698 
L 1119.137924 337.335822 
L 1121.430682 337.810317 
L 1122.577061 337.956573 
L 1123.72344 337.989662 
L 1124.869819 335.418063 
L 1126.016198 336.389161 
L 1127.162577 336.389603 
L 1128.308956 336.919023 
L 1130.601714 337.58802 
L 1131.748093 337.779853 
L 1132.894472 329.161481 
L 1134.040851 334.685591 
L 1135.18723 335.950321 
L 1136.333609 336.598215 
L 1137.479988 337.071373 
L 1138.626367 337.41692 
L 1139.772747 330.570493 
L 1140.919126 338.45085 
L 1142.065505 339.687842 
L 1143.211884 327.702022 
L 1144.358263 327.188258 
L 1145.504642 330.199278 
L 1146.651021 332.398227 
L 1147.7974 332.619965 
L 1148.943779 335.293365 
L 1150.090158 316.807227 
L 1151.236537 323.297751 
L 1152.382916 323.411043 
L 1153.529295 327.440777 
L 1154.675674 330.383693 
L 1156.968432 334.125183 
L 1158.114811 277.035619 
L 1159.26119 317.807649 
L 1160.407569 325.376747 
L 1161.553948 328.876331 
L 1162.700327 331.432078 
L 1163.846706 333.245917 
L 1164.993086 293.103355 
L 1166.139465 311.091511 
L 1167.285844 319.337865 
L 1168.432223 324.861589 
L 1169.578602 328.500111 
L 1170.724981 331.157324 
L 1171.87136 333.087627 
L 1173.017739 281.627508 
L 1174.164118 345.338472 
L 1175.310497 319.010231 
L 1176.456876 315.940907 
L 1177.603255 321.985334 
L 1178.749634 326.399581 
L 1179.896013 329.621306 
L 1181.042392 321.665316 
L 1182.188771 287.303552 
L 1183.33515 319.344444 
L 1184.481529 319.307805 
L 1185.627908 324.444181 
L 1186.774287 328.195277 
L 1187.920666 330.934314 
L 1189.067045 330.92457 
L 1190.213424 278.532074 
L 1191.359804 319.11891 
L 1192.506183 319.443119 
L 1193.652562 324.543001 
L 1194.798941 328.267446 
L 1195.94532 330.987333 
L 1197.091699 332.581736 
L 1198.238078 275.738279 
L 1199.384457 347.854832 
L 1200.530836 348.854535 
L 1201.677215 346.022167 
L 1202.823594 343.953687 
L 1203.969973 342.443061 
L 1205.116352 341.26343 
L 1206.262731 329.09129 
L 1207.40911 342.357979 
L 1208.555489 341.972354 
L 1209.701868 340.996108 
L 1210.848247 340.283155 
L 1211.994626 279.656491 
L 1213.141005 278.045414 
L 1215.433763 306.666737 
L 1216.580143 315.347846 
L 1217.726522 321.552222 
L 1218.872901 225.434248 
L 1220.01928 350.436108 
L 1221.165659 353.2755 
L 1222.312038 348.817872 
L 1223.458417 304.515989 
L 1224.604796 301.523318 
L 1225.751175 311.456165 
L 1226.897554 299.085084 
L 1228.043933 328.110918 
L 1229.190312 332.062175 
L 1230.336691 263.530367 
L 1231.48307 349.681617 
L 1232.629449 350.88337 
L 1233.775828 347.503825 
L 1234.922207 341.209156 
L 1236.068586 344.033368 
L 1237.214965 342.733119 
L 1238.361344 327.85823 
L 1239.507723 343.552047 
L 1240.654102 342.979845 
L 1241.800482 341.731879 
L 1242.946861 340.074362 
L 1244.09324 340.310901 
L 1245.239619 339.827956 
L 1246.385998 336.760034 
L 1247.532377 339.697735 
L 1249.825135 339.188215 
L 1250.971514 338.817367 
L 1252.117893 338.828684 
L 1253.264272 338.709099 
L 1254.410651 338.092339 
L 1255.55703 338.65159 
L 1263.581683 338.414966 
L 1271.606337 338.365212 
L 1272.752716 328.285671 
L 1273.899095 328.079002 
L 1275.045474 330.84871 
L 1276.191853 332.87352 
L 1277.338232 334.351292 
L 1278.484611 335.426585 
L 1279.63099 319.344592 
L 1280.777369 340.323117 
L 1281.923748 340.814596 
L 1283.070127 340.150387 
L 1284.216506 339.665722 
L 1286.509264 339.052196 
L 1287.655643 335.573898 
L 1288.802022 339.414228 
L 1289.948401 339.327363 
L 1292.241159 338.872488 
L 1293.387539 338.732277 
L 1294.533918 292.038751 
L 1295.680297 290.38006 
L 1296.826676 303.920921 
L 1297.973055 313.246026 
L 1299.119434 320.017254 
L 1300.265813 324.962299 
L 1301.412192 250.555862 
L 1302.558571 347.523046 
L 1303.70495 346.889411 
L 1304.851329 343.902999 
L 1305.997708 342.413642 
L 1307.144087 341.318379 
L 1308.290466 340.518511 
L 1308.290466 340.518511 
" clip-path="url(#p9cdd91c098)" style="fill: none; stroke: #ffa500; stroke-width: 1.5; stroke-linecap: square"/>
   </g>
   <g id="line2d_19">
    <path d="M 1309.436845 324.722073 
L 1310.583224 335.209015 
L 1311.729603 339.819902 
L 1312.875982 339.843941 
L 1314.022361 339.843963 
L 1315.16874 339.843961 
L 1316.315119 339.843961 
L 1317.461498 332.10559 
L 1318.607878 337.84068 
L 1319.754257 340.352924 
L 1320.900636 340.366097 
L 1322.047015 340.366104 
L 1323.193394 340.366103 
L 1324.339773 340.366104 
" clip-path="url(#p9cdd91c098)" style="fill: none; stroke: #ff0000; stroke-width: 1.5; stroke-linecap: square"/>
   </g>
   <g id="patch_3">
    <path d="M 46.0125 368.3955 
L 46.0125 35.7555 
" style="fill: none; stroke: #000000; stroke-width: 0.8; stroke-linejoin: miter; stroke-linecap: square"/>
   </g>
   <g id="patch_4">
    <path d="M 1385.2125 368.3955 
L 1385.2125 35.7555 
" style="fill: none; stroke: #000000; stroke-width: 0.8; stroke-linejoin: miter; stroke-linecap: square"/>
   </g>
   <g id="patch_5">
    <path d="M 46.0125 368.3955 
L 1385.2125 368.3955 
" style="fill: none; stroke: #000000; stroke-width: 0.8; stroke-linejoin: miter; stroke-linecap: square"/>
   </g>
   <g id="patch_6">
    <path d="M 46.0125 35.7555 
L 1385.2125 35.7555 
" style="fill: none; stroke: #000000; stroke-width: 0.8; stroke-linejoin: miter; stroke-linecap: square"/>
   </g>
   <g id="text_17">
    <!-- Daily Confirmed Cases Forecasting - Georgia -->
    <g transform="translate(581.585625 16.318125)scale(0.12 -0.12)">
     <defs>
      <path id="DejaVuSans-44" d="M 1259 4147 
L 1259 519 
L 2022 519 
Q 2988 519 3436 956 
Q 3884 1394 3884 2338 
Q 3884 3275 3436 3711 
Q 2988 4147 2022 4147 
L 1259 4147 
z
M 628 4666 
L 1925 4666 
Q 3281 4666 3915 4102 
Q 4550 3538 4550 2338 
Q 4550 1131 3912 565 
Q 3275 0 1925 0 
L 628 0 
L 628 4666 
z
" transform="scale(0.015625)"/>
      <path id="DejaVuSans-61" d="M 2194 1759 
Q 1497 1759 1228 1600 
Q 959 1441 959 1056 
Q 959 750 1161 570 
Q 1363 391 1709 391 
Q 2188 391 2477 730 
Q 2766 1069 2766 1631 
L 2766 1759 
L 2194 1759 
z
M 3341 1997 
L 3341 0 
L 2766 0 
L 2766 531 
Q 2569 213 2275 61 
Q 1981 -91 1556 -91 
Q 1019 -91 701 211 
Q 384 513 384 1019 
Q 384 1609 779 1909 
Q 1175 2209 1959 2209 
L 2766 2209 
L 2766 2266 
Q 2766 2663 2505 2880 
Q 2244 3097 1772 3097 
Q 1472 3097 1187 3025 
Q 903 2953 641 2809 
L 641 3341 
Q 956 3463 1253 3523 
Q 1550 3584 1831 3584 
Q 2591 3584 2966 3190 
Q 3341 2797 3341 1997 
z
" transform="scale(0.015625)"/>
      <path id="DejaVuSans-69" d="M 603 3500 
L 1178 3500 
L 1178 0 
L 603 0 
L 603 3500 
z
M 603 4863 
L 1178 4863 
L 1178 4134 
L 603 4134 
L 603 4863 
z
" transform="scale(0.015625)"/>
      <path id="DejaVuSans-6c" d="M 603 4863 
L 1178 4863 
L 1178 0 
L 603 0 
L 603 4863 
z
" transform="scale(0.015625)"/>
      <path id="DejaVuSans-79" d="M 2059 -325 
Q 1816 -950 1584 -1140 
Q 1353 -1331 966 -1331 
L 506 -1331 
L 506 -850 
L 844 -850 
Q 1081 -850 1212 -737 
Q 1344 -625 1503 -206 
L 1606 56 
L 191 3500 
L 800 3500 
L 1894 763 
L 2988 3500 
L 3597 3500 
L 2059 -325 
z
" transform="scale(0.015625)"/>
      <path id="DejaVuSans-20" transform="scale(0.015625)"/>
      <path id="DejaVuSans-43" d="M 4122 4306 
L 4122 3641 
Q 3803 3938 3442 4084 
Q 3081 4231 2675 4231 
Q 1875 4231 1450 3742 
Q 1025 3253 1025 2328 
Q 1025 1406 1450 917 
Q 1875 428 2675 428 
Q 3081 428 3442 575 
Q 3803 722 4122 1019 
L 4122 359 
Q 3791 134 3420 21 
Q 3050 -91 2638 -91 
Q 1578 -91 968 557 
Q 359 1206 359 2328 
Q 359 3453 968 4101 
Q 1578 4750 2638 4750 
Q 3056 4750 3426 4639 
Q 3797 4528 4122 4306 
z
" transform="scale(0.015625)"/>
      <path id="DejaVuSans-6f" d="M 1959 3097 
Q 1497 3097 1228 2736 
Q 959 2375 959 1747 
Q 959 1119 1226 758 
Q 1494 397 1959 397 
Q 2419 397 2687 759 
Q 2956 1122 2956 1747 
Q 2956 2369 2687 2733 
Q 2419 3097 1959 3097 
z
M 1959 3584 
Q 2709 3584 3137 3096 
Q 3566 2609 3566 1747 
Q 3566 888 3137 398 
Q 2709 -91 1959 -91 
Q 1206 -91 779 398 
Q 353 888 353 1747 
Q 353 2609 779 3096 
Q 1206 3584 1959 3584 
z
" transform="scale(0.015625)"/>
      <path id="DejaVuSans-6e" d="M 3513 2113 
L 3513 0 
L 2938 0 
L 2938 2094 
Q 2938 2591 2744 2837 
Q 2550 3084 2163 3084 
Q 1697 3084 1428 2787 
Q 1159 2491 1159 1978 
L 1159 0 
L 581 0 
L 581 3500 
L 1159 3500 
L 1159 2956 
Q 1366 3272 1645 3428 
Q 1925 3584 2291 3584 
Q 2894 3584 3203 3211 
Q 3513 2838 3513 2113 
z
" transform="scale(0.015625)"/>
      <path id="DejaVuSans-66" d="M 2375 4863 
L 2375 4384 
L 1825 4384 
Q 1516 4384 1395 4259 
Q 1275 4134 1275 3809 
L 1275 3500 
L 2222 3500 
L 2222 3053 
L 1275 3053 
L 1275 0 
L 697 0 
L 697 3053 
L 147 3053 
L 147 3500 
L 697 3500 
L 697 3744 
Q 697 4328 969 4595 
Q 1241 4863 1831 4863 
L 2375 4863 
z
" transform="scale(0.015625)"/>
      <path id="DejaVuSans-72" d="M 2631 2963 
Q 2534 3019 2420 3045 
Q 2306 3072 2169 3072 
Q 1681 3072 1420 2755 
Q 1159 2438 1159 1844 
L 1159 0 
L 581 0 
L 581 3500 
L 1159 3500 
L 1159 2956 
Q 1341 3275 1631 3429 
Q 1922 3584 2338 3584 
Q 2397 3584 2469 3576 
Q 2541 3569 2628 3553 
L 2631 2963 
z
" transform="scale(0.015625)"/>
      <path id="DejaVuSans-6d" d="M 3328 2828 
Q 3544 3216 3844 3400 
Q 4144 3584 4550 3584 
Q 5097 3584 5394 3201 
Q 5691 2819 5691 2113 
L 5691 0 
L 5113 0 
L 5113 2094 
Q 5113 2597 4934 2840 
Q 4756 3084 4391 3084 
Q 3944 3084 3684 2787 
Q 3425 2491 3425 1978 
L 3425 0 
L 2847 0 
L 2847 2094 
Q 2847 2600 2669 2842 
Q 2491 3084 2119 3084 
Q 1678 3084 1418 2786 
Q 1159 2488 1159 1978 
L 1159 0 
L 581 0 
L 581 3500 
L 1159 3500 
L 1159 2956 
Q 1356 3278 1631 3431 
Q 1906 3584 2284 3584 
Q 2666 3584 2933 3390 
Q 3200 3197 3328 2828 
z
" transform="scale(0.015625)"/>
      <path id="DejaVuSans-65" d="M 3597 1894 
L 3597 1613 
L 953 1613 
Q 991 1019 1311 708 
Q 1631 397 2203 397 
Q 2534 397 2845 478 
Q 3156 559 3463 722 
L 3463 178 
Q 3153 47 2828 -22 
Q 2503 -91 2169 -91 
Q 1331 -91 842 396 
Q 353 884 353 1716 
Q 353 2575 817 3079 
Q 1281 3584 2069 3584 
Q 2775 3584 3186 3129 
Q 3597 2675 3597 1894 
z
M 3022 2063 
Q 3016 2534 2758 2815 
Q 2500 3097 2075 3097 
Q 1594 3097 1305 2825 
Q 1016 2553 972 2059 
L 3022 2063 
z
" transform="scale(0.015625)"/>
      <path id="DejaVuSans-64" d="M 2906 2969 
L 2906 4863 
L 3481 4863 
L 3481 0 
L 2906 0 
L 2906 525 
Q 2725 213 2448 61 
Q 2172 -91 1784 -91 
Q 1150 -91 751 415 
Q 353 922 353 1747 
Q 353 2572 751 3078 
Q 1150 3584 1784 3584 
Q 2172 3584 2448 3432 
Q 2725 3281 2906 2969 
z
M 947 1747 
Q 947 1113 1208 752 
Q 1469 391 1925 391 
Q 2381 391 2643 752 
Q 2906 1113 2906 1747 
Q 2906 2381 2643 2742 
Q 2381 3103 1925 3103 
Q 1469 3103 1208 2742 
Q 947 2381 947 1747 
z
" transform="scale(0.015625)"/>
      <path id="DejaVuSans-73" d="M 2834 3397 
L 2834 2853 
Q 2591 2978 2328 3040 
Q 2066 3103 1784 3103 
Q 1356 3103 1142 2972 
Q 928 2841 928 2578 
Q 928 2378 1081 2264 
Q 1234 2150 1697 2047 
L 1894 2003 
Q 2506 1872 2764 1633 
Q 3022 1394 3022 966 
Q 3022 478 2636 193 
Q 2250 -91 1575 -91 
Q 1294 -91 989 -36 
Q 684 19 347 128 
L 347 722 
Q 666 556 975 473 
Q 1284 391 1588 391 
Q 1994 391 2212 530 
Q 2431 669 2431 922 
Q 2431 1156 2273 1281 
Q 2116 1406 1581 1522 
L 1381 1569 
Q 847 1681 609 1914 
Q 372 2147 372 2553 
Q 372 3047 722 3315 
Q 1072 3584 1716 3584 
Q 2034 3584 2315 3537 
Q 2597 3491 2834 3397 
z
" transform="scale(0.015625)"/>
      <path id="DejaVuSans-46" d="M 628 4666 
L 3309 4666 
L 3309 4134 
L 1259 4134 
L 1259 2759 
L 3109 2759 
L 3109 2228 
L 1259 2228 
L 1259 0 
L 628 0 
L 628 4666 
z
" transform="scale(0.015625)"/>
      <path id="DejaVuSans-63" d="M 3122 3366 
L 3122 2828 
Q 2878 2963 2633 3030 
Q 2388 3097 2138 3097 
Q 1578 3097 1268 2742 
Q 959 2388 959 1747 
Q 959 1106 1268 751 
Q 1578 397 2138 397 
Q 2388 397 2633 464 
Q 2878 531 3122 666 
L 3122 134 
Q 2881 22 2623 -34 
Q 2366 -91 2075 -91 
Q 1284 -91 818 406 
Q 353 903 353 1747 
Q 353 2603 823 3093 
Q 1294 3584 2113 3584 
Q 2378 3584 2631 3529 
Q 2884 3475 3122 3366 
z
" transform="scale(0.015625)"/>
      <path id="DejaVuSans-74" d="M 1172 4494 
L 1172 3500 
L 2356 3500 
L 2356 3053 
L 1172 3053 
L 1172 1153 
Q 1172 725 1289 603 
Q 1406 481 1766 481 
L 2356 481 
L 2356 0 
L 1766 0 
Q 1100 0 847 248 
Q 594 497 594 1153 
L 594 3053 
L 172 3053 
L 172 3500 
L 594 3500 
L 594 4494 
L 1172 4494 
z
" transform="scale(0.015625)"/>
      <path id="DejaVuSans-67" d="M 2906 1791 
Q 2906 2416 2648 2759 
Q 2391 3103 1925 3103 
Q 1463 3103 1205 2759 
Q 947 2416 947 1791 
Q 947 1169 1205 825 
Q 1463 481 1925 481 
Q 2391 481 2648 825 
Q 2906 1169 2906 1791 
z
M 3481 434 
Q 3481 -459 3084 -895 
Q 2688 -1331 1869 -1331 
Q 1566 -1331 1297 -1286 
Q 1028 -1241 775 -1147 
L 775 -588 
Q 1028 -725 1275 -790 
Q 1522 -856 1778 -856 
Q 2344 -856 2625 -561 
Q 2906 -266 2906 331 
L 2906 616 
Q 2728 306 2450 153 
Q 2172 0 1784 0 
Q 1141 0 747 490 
Q 353 981 353 1791 
Q 353 2603 747 3093 
Q 1141 3584 1784 3584 
Q 2172 3584 2450 3431 
Q 2728 3278 2906 2969 
L 2906 3500 
L 3481 3500 
L 3481 434 
z
" transform="scale(0.015625)"/>
      <path id="DejaVuSans-47" d="M 3809 666 
L 3809 1919 
L 2778 1919 
L 2778 2438 
L 4434 2438 
L 4434 434 
Q 4069 175 3628 42 
Q 3188 -91 2688 -91 
Q 1594 -91 976 548 
Q 359 1188 359 2328 
Q 359 3472 976 4111 
Q 1594 4750 2688 4750 
Q 3144 4750 3555 4637 
Q 3966 4525 4313 4306 
L 4313 3634 
Q 3963 3931 3569 4081 
Q 3175 4231 2741 4231 
Q 1884 4231 1454 3753 
Q 1025 3275 1025 2328 
Q 1025 1384 1454 906 
Q 1884 428 2741 428 
Q 3075 428 3337 486 
Q 3600 544 3809 666 
z
" transform="scale(0.015625)"/>
     </defs>
     <use xlink:href="#DejaVuSans-44"/>
     <use xlink:href="#DejaVuSans-61" x="77.001953"/>
     <use xlink:href="#DejaVuSans-69" x="138.28125"/>
     <use xlink:href="#DejaVuSans-6c" x="166.064453"/>
     <use xlink:href="#DejaVuSans-79" x="193.847656"/>
     <use xlink:href="#DejaVuSans-20" x="253.027344"/>
     <use xlink:href="#DejaVuSans-43" x="284.814453"/>
     <use xlink:href="#DejaVuSans-6f" x="354.638672"/>
     <use xlink:href="#DejaVuSans-6e" x="415.820312"/>
     <use xlink:href="#DejaVuSans-66" x="479.199219"/>
     <use xlink:href="#DejaVuSans-69" x="514.404297"/>
     <use xlink:href="#DejaVuSans-72" x="542.1875"/>
     <use xlink:href="#DejaVuSans-6d" x="581.550781"/>
     <use xlink:href="#DejaVuSans-65" x="678.962891"/>
     <use xlink:href="#DejaVuSans-64" x="740.486328"/>
     <use xlink:href="#DejaVuSans-20" x="803.962891"/>
     <use xlink:href="#DejaVuSans-43" x="835.75"/>
     <use xlink:href="#DejaVuSans-61" x="905.574219"/>
     <use xlink:href="#DejaVuSans-73" x="966.853516"/>
     <use xlink:href="#DejaVuSans-65" x="1018.953125"/>
     <use xlink:href="#DejaVuSans-73" x="1080.476562"/>
     <use xlink:href="#DejaVuSans-20" x="1132.576172"/>
     <use xlink:href="#DejaVuSans-46" x="1164.363281"/>
     <use xlink:href="#DejaVuSans-6f" x="1218.257812"/>
     <use xlink:href="#DejaVuSans-72" x="1279.439453"/>
     <use xlink:href="#DejaVuSans-65" x="1318.302734"/>
     <use xlink:href="#DejaVuSans-63" x="1379.826172"/>
     <use xlink:href="#DejaVuSans-61" x="1434.806641"/>
     <use xlink:href="#DejaVuSans-73" x="1496.085938"/>
     <use xlink:href="#DejaVuSans-74" x="1548.185547"/>
     <use xlink:href="#DejaVuSans-69" x="1587.394531"/>
     <use xlink:href="#DejaVuSans-6e" x="1615.177734"/>
     <use xlink:href="#DejaVuSans-67" x="1678.556641"/>
     <use xlink:href="#DejaVuSans-20" x="1742.033203"/>
     <use xlink:href="#DejaVuSans-2d" x="1773.820312"/>
     <use xlink:href="#DejaVuSans-20" x="1809.904297"/>
     <use xlink:href="#DejaVuSans-47" x="1841.691406"/>
     <use xlink:href="#DejaVuSans-65" x="1919.181641"/>
     <use xlink:href="#DejaVuSans-6f" x="1980.705078"/>
     <use xlink:href="#DejaVuSans-72" x="2041.886719"/>
     <use xlink:href="#DejaVuSans-67" x="2081.25"/>
     <use xlink:href="#DejaVuSans-69" x="2144.726562"/>
     <use xlink:href="#DejaVuSans-61" x="2172.509766"/>
    </g>
    <!-- ARIMA (1, 1, 1)x(1, 0, 1, 7) (R2 = -0.202674) -->
    <g transform="translate(581.46375 29.7555)scale(0.12 -0.12)">
     <defs>
      <path id="DejaVuSans-41" d="M 2188 4044 
L 1331 1722 
L 3047 1722 
L 2188 4044 
z
M 1831 4666 
L 2547 4666 
L 4325 0 
L 3669 0 
L 3244 1197 
L 1141 1197 
L 716 0 
L 50 0 
L 1831 4666 
z
" transform="scale(0.015625)"/>
      <path id="DejaVuSans-52" d="M 2841 2188 
Q 3044 2119 3236 1894 
Q 3428 1669 3622 1275 
L 4263 0 
L 3584 0 
L 2988 1197 
Q 2756 1666 2539 1819 
Q 2322 1972 1947 1972 
L 1259 1972 
L 1259 0 
L 628 0 
L 628 4666 
L 2053 4666 
Q 2853 4666 3247 4331 
Q 3641 3997 3641 3322 
Q 3641 2881 3436 2590 
Q 3231 2300 2841 2188 
z
M 1259 4147 
L 1259 2491 
L 2053 2491 
Q 2509 2491 2742 2702 
Q 2975 2913 2975 3322 
Q 2975 3731 2742 3939 
Q 2509 4147 2053 4147 
L 1259 4147 
z
" transform="scale(0.015625)"/>
      <path id="DejaVuSans-49" d="M 628 4666 
L 1259 4666 
L 1259 0 
L 628 0 
L 628 4666 
z
" transform="scale(0.015625)"/>
      <path id="DejaVuSans-4d" d="M 628 4666 
L 1569 4666 
L 2759 1491 
L 3956 4666 
L 4897 4666 
L 4897 0 
L 4281 0 
L 4281 4097 
L 3078 897 
L 2444 897 
L 1241 4097 
L 1241 0 
L 628 0 
L 628 4666 
z
" transform="scale(0.015625)"/>
      <path id="DejaVuSans-28" d="M 1984 4856 
Q 1566 4138 1362 3434 
Q 1159 2731 1159 2009 
Q 1159 1288 1364 580 
Q 1569 -128 1984 -844 
L 1484 -844 
Q 1016 -109 783 600 
Q 550 1309 550 2009 
Q 550 2706 781 3412 
Q 1013 4119 1484 4856 
L 1984 4856 
z
" transform="scale(0.015625)"/>
      <path id="DejaVuSans-2c" d="M 750 794 
L 1409 794 
L 1409 256 
L 897 -744 
L 494 -744 
L 750 256 
L 750 794 
z
" transform="scale(0.015625)"/>
      <path id="DejaVuSans-29" d="M 513 4856 
L 1013 4856 
Q 1481 4119 1714 3412 
Q 1947 2706 1947 2009 
Q 1947 1309 1714 600 
Q 1481 -109 1013 -844 
L 513 -844 
Q 928 -128 1133 580 
Q 1338 1288 1338 2009 
Q 1338 2731 1133 3434 
Q 928 4138 513 4856 
z
" transform="scale(0.015625)"/>
      <path id="DejaVuSans-78" d="M 3513 3500 
L 2247 1797 
L 3578 0 
L 2900 0 
L 1881 1375 
L 863 0 
L 184 0 
L 1544 1831 
L 300 3500 
L 978 3500 
L 1906 2253 
L 2834 3500 
L 3513 3500 
z
" transform="scale(0.015625)"/>
      <path id="DejaVuSans-37" d="M 525 4666 
L 3525 4666 
L 3525 4397 
L 1831 0 
L 1172 0 
L 2766 4134 
L 525 4134 
L 525 4666 
z
" transform="scale(0.015625)"/>
      <path id="DejaVuSans-3d" d="M 678 2906 
L 4684 2906 
L 4684 2381 
L 678 2381 
L 678 2906 
z
M 678 1631 
L 4684 1631 
L 4684 1100 
L 678 1100 
L 678 1631 
z
" transform="scale(0.015625)"/>
      <path id="DejaVuSans-2e" d="M 684 794 
L 1344 794 
L 1344 0 
L 684 0 
L 684 794 
z
" transform="scale(0.015625)"/>
      <path id="DejaVuSans-36" d="M 2113 2584 
Q 1688 2584 1439 2293 
Q 1191 2003 1191 1497 
Q 1191 994 1439 701 
Q 1688 409 2113 409 
Q 2538 409 2786 701 
Q 3034 994 3034 1497 
Q 3034 2003 2786 2293 
Q 2538 2584 2113 2584 
z
M 3366 4563 
L 3366 3988 
Q 3128 4100 2886 4159 
Q 2644 4219 2406 4219 
Q 1781 4219 1451 3797 
Q 1122 3375 1075 2522 
Q 1259 2794 1537 2939 
Q 1816 3084 2150 3084 
Q 2853 3084 3261 2657 
Q 3669 2231 3669 1497 
Q 3669 778 3244 343 
Q 2819 -91 2113 -91 
Q 1303 -91 875 529 
Q 447 1150 447 2328 
Q 447 3434 972 4092 
Q 1497 4750 2381 4750 
Q 2619 4750 2861 4703 
Q 3103 4656 3366 4563 
z
" transform="scale(0.015625)"/>
      <path id="DejaVuSans-34" d="M 2419 4116 
L 825 1625 
L 2419 1625 
L 2419 4116 
z
M 2253 4666 
L 3047 4666 
L 3047 1625 
L 3713 1625 
L 3713 1100 
L 3047 1100 
L 3047 0 
L 2419 0 
L 2419 1100 
L 313 1100 
L 313 1709 
L 2253 4666 
z
" transform="scale(0.015625)"/>
     </defs>
     <use xlink:href="#DejaVuSans-41"/>
     <use xlink:href="#DejaVuSans-52" x="68.408203"/>
     <use xlink:href="#DejaVuSans-49" x="137.890625"/>
     <use xlink:href="#DejaVuSans-4d" x="167.382812"/>
     <use xlink:href="#DejaVuSans-41" x="253.662109"/>
     <use xlink:href="#DejaVuSans-20" x="322.070312"/>
     <use xlink:href="#DejaVuSans-28" x="353.857422"/>
     <use xlink:href="#DejaVuSans-31" x="392.871094"/>
     <use xlink:href="#DejaVuSans-2c" x="456.494141"/>
     <use xlink:href="#DejaVuSans-20" x="488.28125"/>
     <use xlink:href="#DejaVuSans-31" x="520.068359"/>
     <use xlink:href="#DejaVuSans-2c" x="583.691406"/>
     <use xlink:href="#DejaVuSans-20" x="615.478516"/>
     <use xlink:href="#DejaVuSans-31" x="647.265625"/>
     <use xlink:href="#DejaVuSans-29" x="710.888672"/>
     <use xlink:href="#DejaVuSans-78" x="749.902344"/>
     <use xlink:href="#DejaVuSans-28" x="809.082031"/>
     <use xlink:href="#DejaVuSans-31" x="848.095703"/>
     <use xlink:href="#DejaVuSans-2c" x="911.71875"/>
     <use xlink:href="#DejaVuSans-20" x="943.505859"/>
     <use xlink:href="#DejaVuSans-30" x="975.292969"/>
     <use xlink:href="#DejaVuSans-2c" x="1038.916016"/>
     <use xlink:href="#DejaVuSans-20" x="1070.703125"/>
     <use xlink:href="#DejaVuSans-31" x="1102.490234"/>
     <use xlink:href="#DejaVuSans-2c" x="1166.113281"/>
     <use xlink:href="#DejaVuSans-20" x="1197.900391"/>
     <use xlink:href="#DejaVuSans-37" x="1229.6875"/>
     <use xlink:href="#DejaVuSans-29" x="1293.310547"/>
     <use xlink:href="#DejaVuSans-20" x="1332.324219"/>
     <use xlink:href="#DejaVuSans-28" x="1364.111328"/>
     <use xlink:href="#DejaVuSans-52" x="1403.125"/>
     <use xlink:href="#DejaVuSans-32" x="1472.607422"/>
     <use xlink:href="#DejaVuSans-20" x="1536.230469"/>
     <use xlink:href="#DejaVuSans-3d" x="1568.017578"/>
     <use xlink:href="#DejaVuSans-20" x="1651.806641"/>
     <use xlink:href="#DejaVuSans-2d" x="1683.59375"/>
     <use xlink:href="#DejaVuSans-30" x="1719.677734"/>
     <use xlink:href="#DejaVuSans-2e" x="1783.300781"/>
     <use xlink:href="#DejaVuSans-32" x="1815.087891"/>
     <use xlink:href="#DejaVuSans-30" x="1878.710938"/>
     <use xlink:href="#DejaVuSans-32" x="1942.333984"/>
     <use xlink:href="#DejaVuSans-36" x="2005.957031"/>
     <use xlink:href="#DejaVuSans-37" x="2069.580078"/>
     <use xlink:href="#DejaVuSans-34" x="2133.203125"/>
     <use xlink:href="#DejaVuSans-29" x="2196.826172"/>
    </g>
   </g>
   <g id="legend_1">
    <g id="patch_7">
     <path d="M 1281.132812 87.789875 
L 1378.2125 87.789875 
Q 1380.2125 87.789875 1380.2125 85.789875 
L 1380.2125 42.7555 
Q 1380.2125 40.7555 1378.2125 40.7555 
L 1281.132812 40.7555 
Q 1279.132812 40.7555 1279.132812 42.7555 
L 1279.132812 85.789875 
Q 1279.132812 87.789875 1281.132812 87.789875 
z
" style="fill: #ffffff; opacity: 0.8; stroke: #cccccc; stroke-linejoin: miter"/>
    </g>
    <g id="line2d_20">
     <path d="M 1283.132812 48.853937 
L 1293.132812 48.853937 
L 1303.132812 48.853937 
" style="fill: none; stroke: #0000ff; stroke-width: 1.5; stroke-linecap: square"/>
    </g>
    <g id="text_18">
     <!-- Actual Value -->
     <g transform="translate(1311.132812 52.353937)scale(0.1 -0.1)">
      <defs>
       <path id="DejaVuSans-75" d="M 544 1381 
L 544 3500 
L 1119 3500 
L 1119 1403 
Q 1119 906 1312 657 
Q 1506 409 1894 409 
Q 2359 409 2629 706 
Q 2900 1003 2900 1516 
L 2900 3500 
L 3475 3500 
L 3475 0 
L 2900 0 
L 2900 538 
Q 2691 219 2414 64 
Q 2138 -91 1772 -91 
Q 1169 -91 856 284 
Q 544 659 544 1381 
z
M 1991 3584 
L 1991 3584 
z
" transform="scale(0.015625)"/>
       <path id="DejaVuSans-56" d="M 1831 0 
L 50 4666 
L 709 4666 
L 2188 738 
L 3669 4666 
L 4325 4666 
L 2547 0 
L 1831 0 
z
" transform="scale(0.015625)"/>
      </defs>
      <use xlink:href="#DejaVuSans-41"/>
      <use xlink:href="#DejaVuSans-63" x="66.658203"/>
      <use xlink:href="#DejaVuSans-74" x="121.638672"/>
      <use xlink:href="#DejaVuSans-75" x="160.847656"/>
      <use xlink:href="#DejaVuSans-61" x="224.226562"/>
      <use xlink:href="#DejaVuSans-6c" x="285.505859"/>
      <use xlink:href="#DejaVuSans-20" x="313.289062"/>
      <use xlink:href="#DejaVuSans-56" x="345.076172"/>
      <use xlink:href="#DejaVuSans-61" x="405.734375"/>
      <use xlink:href="#DejaVuSans-6c" x="467.013672"/>
      <use xlink:href="#DejaVuSans-75" x="494.796875"/>
      <use xlink:href="#DejaVuSans-65" x="558.175781"/>
     </g>
    </g>
    <g id="line2d_21">
     <path d="M 1283.132812 63.532062 
L 1293.132812 63.532062 
L 1303.132812 63.532062 
" style="fill: none; stroke: #ffa500; stroke-width: 1.5; stroke-linecap: square"/>
    </g>
    <g id="text_19">
     <!-- Check Value -->
     <g transform="translate(1311.132812 67.032062)scale(0.1 -0.1)">
      <defs>
       <path id="DejaVuSans-68" d="M 3513 2113 
L 3513 0 
L 2938 0 
L 2938 2094 
Q 2938 2591 2744 2837 
Q 2550 3084 2163 3084 
Q 1697 3084 1428 2787 
Q 1159 2491 1159 1978 
L 1159 0 
L 581 0 
L 581 4863 
L 1159 4863 
L 1159 2956 
Q 1366 3272 1645 3428 
Q 1925 3584 2291 3584 
Q 2894 3584 3203 3211 
Q 3513 2838 3513 2113 
z
" transform="scale(0.015625)"/>
       <path id="DejaVuSans-6b" d="M 581 4863 
L 1159 4863 
L 1159 1991 
L 2875 3500 
L 3609 3500 
L 1753 1863 
L 3688 0 
L 2938 0 
L 1159 1709 
L 1159 0 
L 581 0 
L 581 4863 
z
" transform="scale(0.015625)"/>
      </defs>
      <use xlink:href="#DejaVuSans-43"/>
      <use xlink:href="#DejaVuSans-68" x="69.824219"/>
      <use xlink:href="#DejaVuSans-65" x="133.203125"/>
      <use xlink:href="#DejaVuSans-63" x="194.726562"/>
      <use xlink:href="#DejaVuSans-6b" x="249.707031"/>
      <use xlink:href="#DejaVuSans-20" x="307.617188"/>
      <use xlink:href="#DejaVuSans-56" x="339.404297"/>
      <use xlink:href="#DejaVuSans-61" x="400.0625"/>
      <use xlink:href="#DejaVuSans-6c" x="461.341797"/>
      <use xlink:href="#DejaVuSans-75" x="489.125"/>
      <use xlink:href="#DejaVuSans-65" x="552.503906"/>
     </g>
    </g>
    <g id="line2d_22">
     <path d="M 1283.132812 78.210187 
L 1293.132812 78.210187 
L 1303.132812 78.210187 
" style="fill: none; stroke: #ff0000; stroke-width: 1.5; stroke-linecap: square"/>
    </g>
    <g id="text_20">
     <!-- Predict Value -->
     <g transform="translate(1311.132812 81.710187)scale(0.1 -0.1)">
      <defs>
       <path id="DejaVuSans-50" d="M 1259 4147 
L 1259 2394 
L 2053 2394 
Q 2494 2394 2734 2622 
Q 2975 2850 2975 3272 
Q 2975 3691 2734 3919 
Q 2494 4147 2053 4147 
L 1259 4147 
z
M 628 4666 
L 2053 4666 
Q 2838 4666 3239 4311 
Q 3641 3956 3641 3272 
Q 3641 2581 3239 2228 
Q 2838 1875 2053 1875 
L 1259 1875 
L 1259 0 
L 628 0 
L 628 4666 
z
" transform="scale(0.015625)"/>
      </defs>
      <use xlink:href="#DejaVuSans-50"/>
      <use xlink:href="#DejaVuSans-72" x="58.552734"/>
      <use xlink:href="#DejaVuSans-65" x="97.416016"/>
      <use xlink:href="#DejaVuSans-64" x="158.939453"/>
      <use xlink:href="#DejaVuSans-69" x="222.416016"/>
      <use xlink:href="#DejaVuSans-63" x="250.199219"/>
      <use xlink:href="#DejaVuSans-74" x="305.179688"/>
      <use xlink:href="#DejaVuSans-20" x="344.388672"/>
      <use xlink:href="#DejaVuSans-56" x="376.175781"/>
      <use xlink:href="#DejaVuSans-61" x="436.833984"/>
      <use xlink:href="#DejaVuSans-6c" x="498.113281"/>
      <use xlink:href="#DejaVuSans-75" x="525.896484"/>
      <use xlink:href="#DejaVuSans-65" x="589.275391"/>
     </g>
    </g>
   </g>
  </g>
 </g>
 <defs>
  <clipPath id="p9cdd91c098">
   <rect x="46.0125" y="35.7555" width="1339.2" height="332.64"/>
  </clipPath>
 </defs>
</svg>
