<?xml version="1.0" encoding="utf-8" standalone="no"?>
<!DOCTYPE svg PUBLIC "-//W3C//DTD SVG 1.1//EN"
  "http://www.w3.org/Graphics/SVG/1.1/DTD/svg11.dtd">
<svg xmlns:xlink="http://www.w3.org/1999/xlink" width="1392.4125pt" height="392.273625pt" viewBox="0 0 1392.4125 392.273625" xmlns="http://www.w3.org/2000/svg" version="1.1">
 <metadata>
  <rdf:RDF xmlns:dc="http://purl.org/dc/elements/1.1/" xmlns:cc="http://creativecommons.org/ns#" xmlns:rdf="http://www.w3.org/1999/02/22-rdf-syntax-ns#">
   <cc:Work>
    <dc:type rdf:resource="http://purl.org/dc/dcmitype/StillImage"/>
    <dc:date>2022-12-21T19:13:16.557982</dc:date>
    <dc:format>image/svg+xml</dc:format>
    <dc:creator>
     <cc:Agent>
      <dc:title>Matplotlib v3.5.1, https://matplotlib.org/</dc:title>
     </cc:Agent>
    </dc:creator>
   </cc:Work>
  </rdf:RDF>
 </metadata>
 <defs>
  <style type="text/css">*{stroke-linejoin: round; stroke-linecap: butt}</style>
 </defs>
 <g id="figure_1">
  <g id="patch_1">
   <path d="M 0 392.273625 
L 1392.4125 392.273625 
L 1392.4125 0 
L 0 0 
z
" style="fill: #ffffff"/>
  </g>
  <g id="axes_1">
   <g id="patch_2">
    <path d="M 46.0125 368.3955 
L 1385.2125 368.3955 
L 1385.2125 35.7555 
L 46.0125 35.7555 
z
" style="fill: #ffffff"/>
   </g>
   <g id="matplotlib.axis_1">
    <g id="xtick_1">
     <g id="line2d_1">
      <defs>
       <path id="meb8b45d95f" d="M 0 0 
L 0 3.5 
" style="stroke: #000000; stroke-width: 0.8"/>
      </defs>
      <g>
       <use xlink:href="#meb8b45d95f" x="81.993034" y="368.3955" style="stroke: #000000; stroke-width: 0.8"/>
      </g>
     </g>
     <g id="text_1">
      <!-- 2020-01 -->
      <g transform="translate(61.101628 382.993937)scale(0.1 -0.1)">
       <defs>
        <path id="DejaVuSans-32" d="M 1228 531 
L 3431 531 
L 3431 0 
L 469 0 
L 469 531 
Q 828 903 1448 1529 
Q 2069 2156 2228 2338 
Q 2531 2678 2651 2914 
Q 2772 3150 2772 3378 
Q 2772 3750 2511 3984 
Q 2250 4219 1831 4219 
Q 1534 4219 1204 4116 
Q 875 4013 500 3803 
L 500 4441 
Q 881 4594 1212 4672 
Q 1544 4750 1819 4750 
Q 2544 4750 2975 4387 
Q 3406 4025 3406 3419 
Q 3406 3131 3298 2873 
Q 3191 2616 2906 2266 
Q 2828 2175 2409 1742 
Q 1991 1309 1228 531 
z
" transform="scale(0.015625)"/>
        <path id="DejaVuSans-30" d="M 2034 4250 
Q 1547 4250 1301 3770 
Q 1056 3291 1056 2328 
Q 1056 1369 1301 889 
Q 1547 409 2034 409 
Q 2525 409 2770 889 
Q 3016 1369 3016 2328 
Q 3016 3291 2770 3770 
Q 2525 4250 2034 4250 
z
M 2034 4750 
Q 2819 4750 3233 4129 
Q 3647 3509 3647 2328 
Q 3647 1150 3233 529 
Q 2819 -91 2034 -91 
Q 1250 -91 836 529 
Q 422 1150 422 2328 
Q 422 3509 836 4129 
Q 1250 4750 2034 4750 
z
" transform="scale(0.015625)"/>
        <path id="DejaVuSans-2d" d="M 313 2009 
L 1997 2009 
L 1997 1497 
L 313 1497 
L 313 2009 
z
" transform="scale(0.015625)"/>
        <path id="DejaVuSans-31" d="M 794 531 
L 1825 531 
L 1825 4091 
L 703 3866 
L 703 4441 
L 1819 4666 
L 2450 4666 
L 2450 531 
L 3481 531 
L 3481 0 
L 794 0 
L 794 531 
z
" transform="scale(0.015625)"/>
       </defs>
       <use xlink:href="#DejaVuSans-32"/>
       <use xlink:href="#DejaVuSans-30" x="63.623047"/>
       <use xlink:href="#DejaVuSans-32" x="127.246094"/>
       <use xlink:href="#DejaVuSans-30" x="190.869141"/>
       <use xlink:href="#DejaVuSans-2d" x="254.492188"/>
       <use xlink:href="#DejaVuSans-30" x="290.576172"/>
       <use xlink:href="#DejaVuSans-31" x="354.199219"/>
      </g>
     </g>
    </g>
    <g id="xtick_2">
     <g id="line2d_2">
      <g>
       <use xlink:href="#meb8b45d95f" x="218.900097" y="368.3955" style="stroke: #000000; stroke-width: 0.8"/>
      </g>
     </g>
     <g id="text_2">
      <!-- 2020-05 -->
      <g transform="translate(198.008691 382.993937)scale(0.1 -0.1)">
       <defs>
        <path id="DejaVuSans-35" d="M 691 4666 
L 3169 4666 
L 3169 4134 
L 1269 4134 
L 1269 2991 
Q 1406 3038 1543 3061 
Q 1681 3084 1819 3084 
Q 2600 3084 3056 2656 
Q 3513 2228 3513 1497 
Q 3513 744 3044 326 
Q 2575 -91 1722 -91 
Q 1428 -91 1123 -41 
Q 819 9 494 109 
L 494 744 
Q 775 591 1075 516 
Q 1375 441 1709 441 
Q 2250 441 2565 725 
Q 2881 1009 2881 1497 
Q 2881 1984 2565 2268 
Q 2250 2553 1709 2553 
Q 1456 2553 1204 2497 
Q 953 2441 691 2322 
L 691 4666 
z
" transform="scale(0.015625)"/>
       </defs>
       <use xlink:href="#DejaVuSans-32"/>
       <use xlink:href="#DejaVuSans-30" x="63.623047"/>
       <use xlink:href="#DejaVuSans-32" x="127.246094"/>
       <use xlink:href="#DejaVuSans-30" x="190.869141"/>
       <use xlink:href="#DejaVuSans-2d" x="254.492188"/>
       <use xlink:href="#DejaVuSans-30" x="290.576172"/>
       <use xlink:href="#DejaVuSans-35" x="354.199219"/>
      </g>
     </g>
    </g>
    <g id="xtick_3">
     <g id="line2d_3">
      <g>
       <use xlink:href="#meb8b45d95f" x="358.070087" y="368.3955" style="stroke: #000000; stroke-width: 0.8"/>
      </g>
     </g>
     <g id="text_3">
      <!-- 2020-09 -->
      <g transform="translate(337.178681 382.993937)scale(0.1 -0.1)">
       <defs>
        <path id="DejaVuSans-39" d="M 703 97 
L 703 672 
Q 941 559 1184 500 
Q 1428 441 1663 441 
Q 2288 441 2617 861 
Q 2947 1281 2994 2138 
Q 2813 1869 2534 1725 
Q 2256 1581 1919 1581 
Q 1219 1581 811 2004 
Q 403 2428 403 3163 
Q 403 3881 828 4315 
Q 1253 4750 1959 4750 
Q 2769 4750 3195 4129 
Q 3622 3509 3622 2328 
Q 3622 1225 3098 567 
Q 2575 -91 1691 -91 
Q 1453 -91 1209 -44 
Q 966 3 703 97 
z
M 1959 2075 
Q 2384 2075 2632 2365 
Q 2881 2656 2881 3163 
Q 2881 3666 2632 3958 
Q 2384 4250 1959 4250 
Q 1534 4250 1286 3958 
Q 1038 3666 1038 3163 
Q 1038 2656 1286 2365 
Q 1534 2075 1959 2075 
z
" transform="scale(0.015625)"/>
       </defs>
       <use xlink:href="#DejaVuSans-32"/>
       <use xlink:href="#DejaVuSans-30" x="63.623047"/>
       <use xlink:href="#DejaVuSans-32" x="127.246094"/>
       <use xlink:href="#DejaVuSans-30" x="190.869141"/>
       <use xlink:href="#DejaVuSans-2d" x="254.492188"/>
       <use xlink:href="#DejaVuSans-30" x="290.576172"/>
       <use xlink:href="#DejaVuSans-39" x="354.199219"/>
      </g>
     </g>
    </g>
    <g id="xtick_4">
     <g id="line2d_4">
      <g>
       <use xlink:href="#meb8b45d95f" x="496.108614" y="368.3955" style="stroke: #000000; stroke-width: 0.8"/>
      </g>
     </g>
     <g id="text_4">
      <!-- 2021-01 -->
      <g transform="translate(475.217207 382.993937)scale(0.1 -0.1)">
       <use xlink:href="#DejaVuSans-32"/>
       <use xlink:href="#DejaVuSans-30" x="63.623047"/>
       <use xlink:href="#DejaVuSans-32" x="127.246094"/>
       <use xlink:href="#DejaVuSans-31" x="190.869141"/>
       <use xlink:href="#DejaVuSans-2d" x="254.492188"/>
       <use xlink:href="#DejaVuSans-30" x="290.576172"/>
       <use xlink:href="#DejaVuSans-31" x="354.199219"/>
      </g>
     </g>
    </g>
    <g id="xtick_5">
     <g id="line2d_5">
      <g>
       <use xlink:href="#meb8b45d95f" x="631.884213" y="368.3955" style="stroke: #000000; stroke-width: 0.8"/>
      </g>
     </g>
     <g id="text_5">
      <!-- 2021-05 -->
      <g transform="translate(610.992807 382.993937)scale(0.1 -0.1)">
       <use xlink:href="#DejaVuSans-32"/>
       <use xlink:href="#DejaVuSans-30" x="63.623047"/>
       <use xlink:href="#DejaVuSans-32" x="127.246094"/>
       <use xlink:href="#DejaVuSans-31" x="190.869141"/>
       <use xlink:href="#DejaVuSans-2d" x="254.492188"/>
       <use xlink:href="#DejaVuSans-30" x="290.576172"/>
       <use xlink:href="#DejaVuSans-35" x="354.199219"/>
      </g>
     </g>
    </g>
    <g id="xtick_6">
     <g id="line2d_6">
      <g>
       <use xlink:href="#meb8b45d95f" x="771.054203" y="368.3955" style="stroke: #000000; stroke-width: 0.8"/>
      </g>
     </g>
     <g id="text_6">
      <!-- 2021-09 -->
      <g transform="translate(750.162797 382.993937)scale(0.1 -0.1)">
       <use xlink:href="#DejaVuSans-32"/>
       <use xlink:href="#DejaVuSans-30" x="63.623047"/>
       <use xlink:href="#DejaVuSans-32" x="127.246094"/>
       <use xlink:href="#DejaVuSans-31" x="190.869141"/>
       <use xlink:href="#DejaVuSans-2d" x="254.492188"/>
       <use xlink:href="#DejaVuSans-30" x="290.576172"/>
       <use xlink:href="#DejaVuSans-39" x="354.199219"/>
      </g>
     </g>
    </g>
    <g id="xtick_7">
     <g id="line2d_7">
      <g>
       <use xlink:href="#meb8b45d95f" x="909.09273" y="368.3955" style="stroke: #000000; stroke-width: 0.8"/>
      </g>
     </g>
     <g id="text_7">
      <!-- 2022-01 -->
      <g transform="translate(888.201324 382.993937)scale(0.1 -0.1)">
       <use xlink:href="#DejaVuSans-32"/>
       <use xlink:href="#DejaVuSans-30" x="63.623047"/>
       <use xlink:href="#DejaVuSans-32" x="127.246094"/>
       <use xlink:href="#DejaVuSans-32" x="190.869141"/>
       <use xlink:href="#DejaVuSans-2d" x="254.492188"/>
       <use xlink:href="#DejaVuSans-30" x="290.576172"/>
       <use xlink:href="#DejaVuSans-31" x="354.199219"/>
      </g>
     </g>
    </g>
    <g id="xtick_8">
     <g id="line2d_8">
      <g>
       <use xlink:href="#meb8b45d95f" x="1044.86833" y="368.3955" style="stroke: #000000; stroke-width: 0.8"/>
      </g>
     </g>
     <g id="text_8">
      <!-- 2022-05 -->
      <g transform="translate(1023.976923 382.993937)scale(0.1 -0.1)">
       <use xlink:href="#DejaVuSans-32"/>
       <use xlink:href="#DejaVuSans-30" x="63.623047"/>
       <use xlink:href="#DejaVuSans-32" x="127.246094"/>
       <use xlink:href="#DejaVuSans-32" x="190.869141"/>
       <use xlink:href="#DejaVuSans-2d" x="254.492188"/>
       <use xlink:href="#DejaVuSans-30" x="290.576172"/>
       <use xlink:href="#DejaVuSans-35" x="354.199219"/>
      </g>
     </g>
    </g>
    <g id="xtick_9">
     <g id="line2d_9">
      <g>
       <use xlink:href="#meb8b45d95f" x="1184.03832" y="368.3955" style="stroke: #000000; stroke-width: 0.8"/>
      </g>
     </g>
     <g id="text_9">
      <!-- 2022-09 -->
      <g transform="translate(1163.146913 382.993937)scale(0.1 -0.1)">
       <use xlink:href="#DejaVuSans-32"/>
       <use xlink:href="#DejaVuSans-30" x="63.623047"/>
       <use xlink:href="#DejaVuSans-32" x="127.246094"/>
       <use xlink:href="#DejaVuSans-32" x="190.869141"/>
       <use xlink:href="#DejaVuSans-2d" x="254.492188"/>
       <use xlink:href="#DejaVuSans-30" x="290.576172"/>
       <use xlink:href="#DejaVuSans-39" x="354.199219"/>
      </g>
     </g>
    </g>
    <g id="xtick_10">
     <g id="line2d_10">
      <g>
       <use xlink:href="#meb8b45d95f" x="1322.076846" y="368.3955" style="stroke: #000000; stroke-width: 0.8"/>
      </g>
     </g>
     <g id="text_10">
      <!-- 2023-01 -->
      <g transform="translate(1301.18544 382.993937)scale(0.1 -0.1)">
       <defs>
        <path id="DejaVuSans-33" d="M 2597 2516 
Q 3050 2419 3304 2112 
Q 3559 1806 3559 1356 
Q 3559 666 3084 287 
Q 2609 -91 1734 -91 
Q 1441 -91 1130 -33 
Q 819 25 488 141 
L 488 750 
Q 750 597 1062 519 
Q 1375 441 1716 441 
Q 2309 441 2620 675 
Q 2931 909 2931 1356 
Q 2931 1769 2642 2001 
Q 2353 2234 1838 2234 
L 1294 2234 
L 1294 2753 
L 1863 2753 
Q 2328 2753 2575 2939 
Q 2822 3125 2822 3475 
Q 2822 3834 2567 4026 
Q 2313 4219 1838 4219 
Q 1578 4219 1281 4162 
Q 984 4106 628 3988 
L 628 4550 
Q 988 4650 1302 4700 
Q 1616 4750 1894 4750 
Q 2613 4750 3031 4423 
Q 3450 4097 3450 3541 
Q 3450 3153 3228 2886 
Q 3006 2619 2597 2516 
z
" transform="scale(0.015625)"/>
       </defs>
       <use xlink:href="#DejaVuSans-32"/>
       <use xlink:href="#DejaVuSans-30" x="63.623047"/>
       <use xlink:href="#DejaVuSans-32" x="127.246094"/>
       <use xlink:href="#DejaVuSans-33" x="190.869141"/>
       <use xlink:href="#DejaVuSans-2d" x="254.492188"/>
       <use xlink:href="#DejaVuSans-30" x="290.576172"/>
       <use xlink:href="#DejaVuSans-31" x="354.199219"/>
      </g>
     </g>
    </g>
   </g>
   <g id="matplotlib.axis_2">
    <g id="ytick_1">
     <g id="line2d_11">
      <defs>
       <path id="me12be256e2" d="M 0 0 
L -3.5 0 
" style="stroke: #000000; stroke-width: 0.8"/>
      </defs>
      <g>
       <use xlink:href="#me12be256e2" x="46.0125" y="341.703468" style="stroke: #000000; stroke-width: 0.8"/>
      </g>
     </g>
     <g id="text_11">
      <!-- 0 -->
      <g transform="translate(32.65 345.502687)scale(0.1 -0.1)">
       <use xlink:href="#DejaVuSans-30"/>
      </g>
     </g>
    </g>
    <g id="ytick_2">
     <g id="line2d_12">
      <g>
       <use xlink:href="#me12be256e2" x="46.0125" y="288.516203" style="stroke: #000000; stroke-width: 0.8"/>
      </g>
     </g>
     <g id="text_12">
      <!-- 5000 -->
      <g transform="translate(13.5625 292.315421)scale(0.1 -0.1)">
       <use xlink:href="#DejaVuSans-35"/>
       <use xlink:href="#DejaVuSans-30" x="63.623047"/>
       <use xlink:href="#DejaVuSans-30" x="127.246094"/>
       <use xlink:href="#DejaVuSans-30" x="190.869141"/>
      </g>
     </g>
    </g>
    <g id="ytick_3">
     <g id="line2d_13">
      <g>
       <use xlink:href="#me12be256e2" x="46.0125" y="235.328937" style="stroke: #000000; stroke-width: 0.8"/>
      </g>
     </g>
     <g id="text_13">
      <!-- 10000 -->
      <g transform="translate(7.2 239.128156)scale(0.1 -0.1)">
       <use xlink:href="#DejaVuSans-31"/>
       <use xlink:href="#DejaVuSans-30" x="63.623047"/>
       <use xlink:href="#DejaVuSans-30" x="127.246094"/>
       <use xlink:href="#DejaVuSans-30" x="190.869141"/>
       <use xlink:href="#DejaVuSans-30" x="254.492188"/>
      </g>
     </g>
    </g>
    <g id="ytick_4">
     <g id="line2d_14">
      <g>
       <use xlink:href="#me12be256e2" x="46.0125" y="182.141671" style="stroke: #000000; stroke-width: 0.8"/>
      </g>
     </g>
     <g id="text_14">
      <!-- 15000 -->
      <g transform="translate(7.2 185.94089)scale(0.1 -0.1)">
       <use xlink:href="#DejaVuSans-31"/>
       <use xlink:href="#DejaVuSans-35" x="63.623047"/>
       <use xlink:href="#DejaVuSans-30" x="127.246094"/>
       <use xlink:href="#DejaVuSans-30" x="190.869141"/>
       <use xlink:href="#DejaVuSans-30" x="254.492188"/>
      </g>
     </g>
    </g>
    <g id="ytick_5">
     <g id="line2d_15">
      <g>
       <use xlink:href="#me12be256e2" x="46.0125" y="128.954406" style="stroke: #000000; stroke-width: 0.8"/>
      </g>
     </g>
     <g id="text_15">
      <!-- 20000 -->
      <g transform="translate(7.2 132.753625)scale(0.1 -0.1)">
       <use xlink:href="#DejaVuSans-32"/>
       <use xlink:href="#DejaVuSans-30" x="63.623047"/>
       <use xlink:href="#DejaVuSans-30" x="127.246094"/>
       <use xlink:href="#DejaVuSans-30" x="190.869141"/>
       <use xlink:href="#DejaVuSans-30" x="254.492188"/>
      </g>
     </g>
    </g>
    <g id="ytick_6">
     <g id="line2d_16">
      <g>
       <use xlink:href="#me12be256e2" x="46.0125" y="75.76714" style="stroke: #000000; stroke-width: 0.8"/>
      </g>
     </g>
     <g id="text_16">
      <!-- 25000 -->
      <g transform="translate(7.2 79.566359)scale(0.1 -0.1)">
       <use xlink:href="#DejaVuSans-32"/>
       <use xlink:href="#DejaVuSans-35" x="63.623047"/>
       <use xlink:href="#DejaVuSans-30" x="127.246094"/>
       <use xlink:href="#DejaVuSans-30" x="190.869141"/>
       <use xlink:href="#DejaVuSans-30" x="254.492188"/>
      </g>
     </g>
    </g>
   </g>
   <g id="line2d_17">
    <path d="M 106.885227 341.703468 
L 170.247174 341.597094 
L 171.378637 341.543906 
L 172.510101 341.639643 
L 175.904491 341.437532 
L 177.035954 341.075858 
L 178.167417 341.448169 
L 179.298881 341.384345 
L 180.430344 341.160958 
L 181.561807 341.341795 
L 182.693271 341.703468 
L 183.824734 340.831197 
L 184.956197 341.394982 
L 187.219124 341.27797 
L 188.350587 341.086496 
L 189.482051 341.480082 
L 191.744977 341.416257 
L 192.876441 341.650281 
L 195.139367 341.40562 
L 196.270831 341.554544 
L 197.402294 341.469444 
L 199.665221 341.480082 
L 201.928147 341.256695 
L 203.059611 341.256695 
L 204.191074 341.703468 
L 205.322537 341.543906 
L 207.585464 341.703468 
L 208.716927 341.437532 
L 209.848391 341.607731 
L 210.979854 341.660918 
L 212.111317 341.522631 
L 213.242781 341.597094 
L 214.374244 341.511994 
L 216.63717 341.650281 
L 217.768634 341.554544 
L 218.900097 341.660918 
L 220.03156 341.586456 
L 222.294487 341.650281 
L 237.00351 341.703468 
L 238.134974 341.639643 
L 241.529364 341.692831 
L 253.97546 341.629006 
L 257.36985 341.703468 
L 268.684484 341.682193 
L 269.815947 341.554544 
L 270.94741 341.543906 
L 272.078874 341.671556 
L 283.393507 341.660918 
L 287.91936 341.692831 
L 298.10253 341.607731 
L 299.233994 341.650281 
L 301.49692 341.288608 
L 302.628384 341.660918 
L 303.759847 341.565181 
L 306.022774 341.607731 
L 307.154237 341.575819 
L 308.2857 341.426894 
L 309.417164 341.629006 
L 316.205944 341.607731 
L 317.337407 341.671556 
L 320.731797 341.426894 
L 325.25765 341.660918 
L 326.389114 341.501357 
L 327.520577 341.522631 
L 328.65204 341.267333 
L 329.783504 341.554544 
L 330.914967 341.469444 
L 334.309357 341.480082 
L 336.572284 340.990759 
L 337.703747 341.107771 
L 338.83521 340.426974 
L 339.966674 340.809922 
L 341.098137 340.873747 
L 342.2296 340.331237 
L 343.361064 340.501436 
L 344.492527 340.469524 
L 345.62399 341.022671 
L 346.755454 340.309962 
L 347.886917 340.852472 
L 349.01838 340.905659 
L 350.149844 339.831276 
L 351.281307 340.246137 
L 352.41277 340.458886 
L 353.544234 340.2355 
L 354.675697 340.522711 
L 356.938624 340.448249 
L 358.070087 340.001476 
L 359.20155 339.224942 
L 360.333014 339.597252 
L 361.464477 340.129125 
L 362.59594 339.214304 
L 363.727404 338.884543 
L 364.858867 340.82056 
L 365.99033 338.586694 
L 367.121794 341.703468 
L 368.253257 336.757052 
L 369.38472 337.693148 
L 370.516184 337.703786 
L 371.647647 341.703468 
L 372.77911 333.757291 
L 373.910574 339.139842 
L 375.042037 336.629403 
L 376.1735 336.703865 
L 377.304964 341.703468 
L 378.436427 335.959244 
L 379.56789 324.449519 
L 380.699354 336.086893 
L 381.830817 341.703468 
L 382.96228 328.736413 
L 384.093744 332.916932 
L 385.225207 330.140557 
L 386.35667 341.703468 
L 387.488134 323.385774 
L 388.619597 341.703468 
L 389.75106 327.970516 
L 390.882524 330.980915 
L 392.013987 341.703468 
L 393.14545 327.78968 
L 394.276914 328.693863 
L 395.408377 328.023703 
L 396.53984 341.703468 
L 397.671304 341.703468 
L 398.802767 317.109677 
L 399.93423 316.630991 
L 401.065694 341.703468 
L 402.197157 295.324173 
L 403.32862 327.906692 
L 404.460084 341.703468 
L 405.591547 341.703468 
L 406.72301 317.939398 
L 407.854474 341.703468 
L 408.985937 341.703468 
L 410.1174 280.516838 
L 411.248864 341.703468 
L 412.380327 318.460633 
L 413.51179 323.375136 
L 414.643254 326.364261 
L 415.774717 341.703468 
L 416.90618 327.640755 
L 418.037644 324.843105 
L 419.169107 341.703468 
L 420.30057 303.408637 
L 421.432034 341.703468 
L 422.563497 321.715694 
L 423.69496 341.703468 
L 424.826424 301.802382 
L 425.957887 322.726252 
L 428.220814 333.289243 
L 429.352277 328.725775 
L 430.48374 328.544939 
L 431.615204 320.737048 
L 432.746667 341.703468 
L 433.87813 307.567881 
L 435.009594 324.938842 
L 436.141057 336.916614 
L 437.27252 326.555735 
L 438.403984 325.438802 
L 439.535447 324.853742 
L 440.66691 325.087766 
L 441.798374 323.928284 
L 442.929837 330.374581 
L 444.0613 335.331634 
L 445.192764 334.044502 
L 446.324227 319.907327 
L 447.45569 341.703468 
L 448.587154 315.184298 
L 449.718617 328.8747 
L 450.85008 328.513026 
L 451.981544 336.544303 
L 453.113007 330.885178 
L 455.375934 329.278923 
L 456.507397 327.927966 
L 457.63886 328.83215 
L 458.770324 328.183265 
L 459.901787 336.193267 
L 461.03325 341.703468 
L 462.164714 314.992823 
L 463.296177 341.703468 
L 464.42764 313.833341 
L 465.559104 330.098007 
L 466.690567 330.949003 
L 467.82203 338.225021 
L 468.953494 329.832071 
L 470.084957 326.694022 
L 471.21642 331.512788 
L 472.347884 327.981154 
L 473.479347 327.991791 
L 474.61081 331.406414 
L 475.742274 341.703468 
L 476.873737 321.705056 
L 478.0052 327.810954 
L 479.136664 326.608922 
L 480.268127 324.513344 
L 481.39959 325.013304 
L 482.531054 325.36434 
L 483.662517 330.736254 
L 484.79398 324.630356 
L 488.18837 322.279479 
L 489.319834 324.130396 
L 490.451297 327.215257 
L 491.58276 324.555894 
L 492.714224 324.704818 
L 493.845687 316.024656 
L 496.108614 326.630197 
L 497.240077 326.57701 
L 498.37154 325.055854 
L 499.503004 328.385377 
L 500.634467 317.609637 
L 501.76593 311.70585 
L 502.897394 316.460792 
L 504.028857 313.524855 
L 505.16032 313.929078 
L 506.291784 322.960276 
L 507.423247 309.003937 
L 508.55471 314.195014 
L 509.686174 303.068238 
L 510.817637 316.950115 
L 511.9491 297.345289 
L 513.080564 318.662745 
L 514.212027 311.29099 
L 515.34349 322.60924 
L 516.474954 314.067365 
L 517.606417 300.323776 
L 518.73788 314.992823 
L 519.869344 316.290593 
L 521.000807 319.992426 
L 522.13227 319.800952 
L 523.263734 328.268365 
L 524.395197 320.151988 
L 525.52666 324.034659 
L 526.658124 320.130713 
L 527.789587 323.843184 
L 528.92105 326.406811 
L 530.052514 326.630197 
L 531.183977 329.364023 
L 532.31544 327.16207 
L 533.446904 328.225815 
L 534.578367 328.193903 
L 536.841294 330.385218 
L 537.972757 332.023386 
L 539.10422 334.608287 
L 540.235684 333.076494 
L 541.367147 330.151194 
L 542.49861 332.895657 
L 543.630074 331.310677 
L 544.761537 330.54478 
L 545.893 333.831753 
L 547.024464 338.459045 
L 548.155927 333.406255 
L 549.28739 333.331793 
L 550.418853 332.140398 
L 551.550317 333.991315 
L 552.68178 332.097848 
L 553.813243 334.055139 
L 554.944707 335.586933 
L 556.07617 332.725458 
L 557.207633 334.661474 
L 558.339097 332.608446 
L 559.47056 334.618924 
L 560.602023 334.778486 
L 561.733487 334.661474 
L 562.86495 337.533587 
L 563.996413 335.72522 
L 565.127877 333.438167 
L 566.25934 334.948685 
L 567.390803 334.118964 
L 568.522267 334.5551 
L 569.65373 334.51255 
L 570.785193 338.373945 
L 571.916657 335.363546 
L 573.04812 333.672191 
L 574.179583 335.225259 
L 575.311047 334.895498 
L 576.44251 334.895498 
L 577.573973 335.565658 
L 578.705437 338.618607 
L 579.8369 335.863506 
L 580.968363 333.555179 
L 582.099827 336.427291 
L 583.23129 332.75737 
L 584.362753 335.01251 
L 585.494217 338.501595 
L 586.62568 339.395141 
L 587.757143 335.491196 
L 588.888607 333.757291 
L 590.02007 333.374342 
L 591.151533 333.778566 
L 592.282997 331.906374 
L 593.41446 332.533984 
L 594.545923 335.278447 
L 595.677387 331.04474 
L 596.80885 322.056092 
L 597.940313 327.981154 
L 599.071777 324.438882 
L 600.20324 326.768484 
L 601.334703 323.524061 
L 602.466167 329.651234 
L 603.59763 321.853981 
L 604.729093 320.949797 
L 605.860557 322.205017 
L 606.99202 320.322187 
L 608.123483 326.172787 
L 609.254947 325.066492 
L 610.38641 330.225656 
L 611.517873 324.002746 
L 612.649337 319.120155 
L 613.7808 313.524855 
L 614.912263 316.162943 
L 616.043727 318.311709 
L 617.17519 325.598364 
L 618.306653 324.992029 
L 619.438117 318.630832 
L 620.56958 314.014178 
L 621.701043 317.184139 
L 622.832507 318.247884 
L 623.96397 317.992585 
L 626.226897 328.034341 
L 627.35836 320.885972 
L 628.489823 323.311312 
L 629.621287 321.471032 
L 630.75275 321.449757 
L 631.884213 324.523981 
L 633.015677 330.970278 
L 634.14714 331.023465 
L 635.278603 326.757847 
L 636.410067 326.300436 
L 637.54153 326.704659 
L 638.672993 328.661951 
L 639.804457 328.130078 
L 640.93592 327.864142 
L 642.067383 330.810716 
L 643.198847 329.353385 
L 644.33031 329.949083 
L 645.461773 334.044502 
L 646.593237 336.842152 
L 647.7247 335.831594 
L 648.856163 333.831753 
L 651.11909 330.480955 
L 653.382017 323.098563 
L 654.51348 329.37466 
L 655.644943 328.236453 
L 656.776407 328.449202 
L 657.90787 330.332031 
L 659.039333 329.842708 
L 660.170797 327.61948 
L 661.30226 326.842946 
L 662.433723 323.598523 
L 663.565187 326.57701 
L 664.69665 327.725855 
L 665.828113 333.34243 
L 666.959577 325.619639 
L 668.09104 321.226371 
L 669.222503 324.938842 
L 670.353967 322.385853 
L 671.48543 325.970675 
L 672.616893 320.960435 
L 673.748357 330.874541 
L 674.87982 326.459998 
L 676.011283 319.343542 
L 677.142747 316.460792 
L 678.27421 318.715932 
L 679.405673 318.003223 
L 680.537137 321.907168 
L 681.6686 327.70458 
L 682.800063 320.460474 
L 683.931527 319.460554 
L 685.06299 316.396967 
L 687.325917 318.375534 
L 688.45738 322.821989 
L 689.588843 315.343859 
L 690.720307 316.758641 
L 691.85177 303.004414 
L 692.983233 299.674891 
L 694.114697 304.823418 
L 695.24616 292.090387 
L 696.377623 304.217083 
L 697.509087 321.343383 
L 698.64055 285.846202 
L 699.772013 278.719108 
L 700.903477 269.624086 
L 702.03494 279.133969 
L 703.166403 275.921458 
L 704.297867 291.856363 
L 705.42933 304.153259 
L 706.560793 257.348465 
L 707.692257 237.211766 
L 708.82372 253.253046 
L 709.955183 251.221292 
L 711.086647 242.924079 
L 712.21811 271.581377 
L 713.349573 295.856045 
L 714.481037 251.572328 
L 715.6125 254.338066 
L 716.743963 257.901613 
L 717.875427 269.507074 
L 719.00689 261.667271 
L 720.138353 283.888911 
L 721.269817 314.897086 
L 722.40128 276.198032 
L 723.532743 330.151194 
L 724.664207 317.141589 
L 725.79567 341.703468 
L 726.927133 281.878432 
L 728.058597 284.697357 
L 729.19006 298.036723 
L 730.321523 324.598444 
L 731.452987 299.579154 
L 732.58445 302.600191 
L 733.715913 304.387283 
L 734.847377 305.334016 
L 735.97884 278.229785 
L 737.110303 328.481114 
L 738.241767 341.703468 
L 739.37323 278.070224 
L 740.504693 341.703468 
L 741.636157 315.662983 
L 742.76762 310.759117 
L 743.899083 314.620513 
L 745.030547 310.131507 
L 746.16201 341.703468 
L 747.293473 308.344415 
L 748.424937 327.236532 
L 749.5564 319.492466 
L 750.687863 319.896689 
L 751.819327 323.853822 
L 752.95079 323.1092 
L 754.082253 330.406493 
L 755.213717 282.367755 
L 756.34518 341.703468 
L 757.476643 308.440152 
L 758.608107 313.865253 
L 759.73957 311.652663 
L 760.871033 321.588044 
L 762.002497 328.044978 
L 763.13396 305.419116 
L 764.265423 303.919235 
L 765.396887 301.674732 
L 766.52835 304.217083 
L 767.659813 317.609637 
L 768.791277 318.673382 
L 769.92274 328.066253 
L 771.054203 319.003143 
L 772.185667 321.673144 
L 773.31713 320.683861 
L 774.448593 318.205334 
L 775.580057 322.439041 
L 776.71152 329.534222 
L 777.842983 335.533745 
L 778.974447 314.13119 
L 780.10591 323.502786 
L 781.237373 324.789918 
L 782.368837 320.045614 
L 783.5003 327.672668 
L 784.631763 333.406255 
L 785.763227 239.509456 
L 786.89469 332.416972 
L 788.026153 329.555497 
L 789.157617 331.00219 
L 790.28908 333.225418 
L 791.420543 334.214701 
L 792.552007 336.68259 
L 793.68347 337.374025 
L 794.814933 323.662348 
L 795.946397 335.789044 
L 797.07786 341.703468 
L 798.209323 321.970993 
L 799.340787 341.703468 
L 800.47225 335.746494 
L 801.603713 341.703468 
L 802.735177 332.768008 
L 803.86664 332.385059 
L 804.998103 337.89526 
L 806.129567 337.076176 
L 807.26103 341.703468 
L 808.392493 339.363229 
L 809.523957 335.480558 
L 810.65542 339.437691 
L 812.918347 339.214304 
L 814.04981 341.703468 
L 815.181273 337.682511 
L 816.312737 341.36307 
L 817.4442 339.256854 
L 818.575663 339.299404 
L 819.707127 341.703468 
L 820.83859 337.969722 
L 821.970053 340.639723 
L 823.101517 340.288687 
L 824.23298 341.203508 
L 825.364443 341.129046 
L 826.495907 340.033388 
L 827.62737 339.224942 
L 828.758833 341.703468 
L 829.890297 340.384424 
L 831.02176 339.873826 
L 832.153223 340.341874 
L 833.284687 339.661077 
L 834.41615 340.363149 
L 835.547613 340.73546 
L 836.679077 340.767372 
L 837.81054 341.703468 
L 838.942003 337.140001 
L 840.073467 341.394982 
L 841.20493 340.597173 
L 842.336393 340.618448 
L 843.467857 340.756735 
L 844.59932 341.703468 
L 845.730783 339.756814 
L 846.862247 341.129046 
L 847.99371 341.23542 
L 849.125173 341.703468 
L 850.256637 321.237008 
L 851.3881 339.437691 
L 852.519563 340.831197 
L 855.913953 341.394982 
L 857.045417 340.618448 
L 859.308343 340.884384 
L 860.439807 340.788647 
L 861.57127 340.543986 
L 862.702733 340.863109 
L 863.834197 341.32052 
L 864.96566 338.39522 
L 866.097123 340.714185 
L 867.228587 340.012113 
L 868.36005 340.352512 
L 869.491513 339.841914 
L 870.622977 340.69291 
L 871.75444 341.160958 
L 872.885903 338.905818 
L 874.017367 340.2355 
L 875.14883 339.597252 
L 876.280293 340.097213 
L 877.411757 339.373866 
L 878.54322 339.948288 
L 879.674683 341.703468 
L 880.806147 339.012193 
L 881.93761 339.895101 
L 883.069073 340.214225 
L 884.200536 339.139842 
L 885.332 339.714264 
L 886.463463 340.086575 
L 887.594926 341.703468 
L 888.72639 338.331396 
L 889.857853 339.150479 
L 890.989316 337.714423 
L 892.12078 341.703468 
L 893.252243 338.139921 
L 894.383706 339.810002 
L 895.51517 340.937572 
L 896.646633 338.012272 
L 897.778096 338.012272 
L 898.90956 338.235658 
L 900.041023 338.299483 
L 901.172486 337.959085 
L 902.30395 341.703468 
L 903.435413 335.033785 
L 904.566876 334.576375 
L 905.69834 341.703468 
L 906.829803 335.448646 
L 907.961266 320.151988 
L 909.09273 329.608684 
L 910.224193 337.26765 
L 911.355656 335.937969 
L 912.48712 317.503262 
L 913.618583 317.216051 
L 914.750046 314.109915 
L 915.88151 315.439596 
L 917.012973 311.737763 
L 918.144436 314.269477 
L 919.2759 329.693784 
L 920.407363 289.952259 
L 921.538826 274.442852 
L 922.67029 271.900501 
L 923.801753 251.710615 
L 924.933216 239.913679 
L 926.06468 341.703468 
L 927.196143 264.411734 
L 928.327606 300.164214 
L 929.45907 209.416101 
L 930.590533 206.629089 
L 931.721996 237.594715 
L 932.85346 129.77349 
L 933.984923 341.703468 
L 935.116386 265.709503 
L 936.24785 311.556926 
L 937.379313 238.456348 
L 938.510776 237.456428 
L 939.64224 252.955197 
L 940.773703 165.98338 
L 941.905166 341.703468 
L 943.03663 249.093801 
L 944.168093 256.593206 
L 945.299556 341.703468 
L 946.43102 211.118094 
L 947.562483 292.53716 
L 948.693946 283.080464 
L 949.82541 299.664253 
L 950.956873 328.108803 
L 952.088336 287.218433 
L 953.2198 297.5474 
L 954.351263 301.036485 
L 955.482726 306.302024 
L 956.61419 308.940113 
L 957.745653 319.418004 
L 958.877116 341.703468 
L 960.00858 327.438644 
L 961.140043 309.078399 
L 962.271506 312.407922 
L 963.40297 284.282496 
L 964.534433 341.703468 
L 965.665896 270.177233 
L 966.79736 331.917011 
L 967.928823 330.289481 
L 969.060286 318.790394 
L 970.19175 319.460554 
L 971.323213 320.758323 
L 972.454676 329.257648 
L 973.58614 319.992426 
L 974.717603 336.640041 
L 975.849066 341.703468 
L 976.98053 328.821512 
L 978.111993 330.246931 
L 979.243456 328.555576 
L 980.37492 305.397841 
L 981.506383 341.703468 
L 982.637846 334.927411 
L 983.76931 223.734113 
L 984.900773 330.927728 
L 986.032236 335.959244 
L 987.1637 319.375454 
L 988.295163 254.784839 
L 989.426626 336.26773 
L 990.55809 337.788885 
L 991.689553 339.937651 
L 992.821016 341.703468 
L 998.478333 341.703468 
L 999.609796 299.483417 
L 1000.74126 341.703468 
L 1006.398576 341.703468 
L 1007.53004 318.801032 
L 1008.661503 341.703468 
L 1014.31882 341.703468 
L 1015.450283 326.023862 
L 1016.581746 341.703468 
L 1022.239063 341.703468 
L 1023.370526 327.768405 
L 1024.50199 341.703468 
L 1030.159306 341.703468 
L 1031.29077 332.512709 
L 1032.422233 341.703468 
L 1038.07955 341.703468 
L 1039.211013 334.672112 
L 1040.342476 341.703468 
L 1047.131256 341.703468 
L 1048.26272 336.18263 
L 1049.394183 341.703468 
L 1053.920036 341.703468 
L 1055.0515 336.544303 
L 1056.182963 341.703468 
L 1062.971743 341.703468 
L 1064.103206 335.406096 
L 1065.23467 341.703468 
L 1069.760523 341.703468 
L 1070.891986 335.608208 
L 1072.02345 335.608208 
L 1073.154913 347.798729 
L 1074.286376 341.703468 
L 1077.680766 341.703468 
L 1078.81223 336.278367 
L 1079.943693 341.703468 
L 1085.60101 341.703468 
L 1086.732473 334.59765 
L 1087.863936 341.703468 
L 1093.521253 341.703468 
L 1094.652716 332.278685 
L 1095.78418 341.703468 
L 1101.441496 341.703468 
L 1102.57296 317.481987 
L 1103.704423 341.703468 
L 1110.493203 341.703468 
L 1111.624666 283.442137 
L 1112.75613 341.703468 
L 1118.413446 341.703468 
L 1119.54491 193.34291 
L 1120.676373 341.703468 
L 1125.202226 341.703468 
L 1126.33369 119.348786 
L 1127.465153 341.703468 
L 1133.12247 341.703468 
L 1134.253933 50.8755 
L 1135.385396 341.703468 
L 1141.042713 341.703468 
L 1142.174176 189.343227 
L 1143.30564 341.703468 
L 1150.09442 341.703468 
L 1151.225883 278.229785 
L 1152.357346 341.703468 
L 1158.014663 341.703468 
L 1159.146126 292.973295 
L 1160.27759 341.703468 
L 1164.803443 341.703468 
L 1165.934906 321.556132 
L 1167.06637 339.586615 
L 1168.197833 340.075938 
L 1169.329296 338.661157 
L 1170.46076 341.703468 
L 1173.85515 341.703468 
L 1174.986613 333.682829 
L 1176.118076 338.873906 
L 1177.24954 337.725061 
L 1178.381003 341.703468 
L 1180.64393 341.703468 
L 1181.775393 335.09761 
L 1182.906856 340.916297 
L 1184.03832 341.703468 
L 1188.564173 341.703468 
L 1189.695636 331.470238 
L 1190.8271 341.703468 
L 1196.484416 341.703468 
L 1197.61588 338.097372 
L 1198.747343 341.703468 
L 1204.40466 341.703468 
L 1205.536123 339.767452 
L 1206.667586 341.703468 
L 1212.324903 341.703468 
L 1213.456366 338.076097 
L 1214.58783 341.703468 
L 1220.245146 341.703468 
L 1221.376609 340.182312 
L 1222.508073 341.703468 
L 1228.165389 341.703468 
L 1229.296853 340.629085 
L 1230.428316 341.703468 
L 1236.085633 341.703468 
L 1237.217096 340.490799 
L 1238.348559 341.703468 
L 1244.005876 341.703468 
L 1245.137339 340.554623 
L 1246.268803 341.703468 
L 1251.926119 341.703468 
L 1253.057583 337.012351 
L 1254.189046 341.703468 
L 1259.846363 341.703468 
L 1260.977826 340.543986 
L 1262.109289 341.703468 
L 1267.766606 341.703468 
L 1268.898069 340.671635 
L 1270.029533 341.703468 
L 1275.686849 341.703468 
L 1276.818313 339.661077 
L 1277.949776 341.703468 
L 1283.607093 341.703468 
L 1284.738556 340.841834 
L 1285.870019 341.703468 
L 1291.527336 341.703468 
L 1292.658799 340.926934 
L 1293.790263 341.703468 
L 1299.447579 341.703468 
L 1300.579043 340.246137 
L 1301.710506 341.703468 
L 1307.367823 341.703468 
L 1308.499286 339.629165 
L 1308.499286 339.629165 
" clip-path="url(#p17660f1bb5)" style="fill: none; stroke: #0000ff; stroke-width: 1.5; stroke-linecap: square"/>
   </g>
   <g id="line2d_18">
    <path d="M 1068.62906 341.093095 
L 1069.760523 341.195918 
L 1070.891986 342.042017 
L 1072.02345 337.584491 
L 1073.154913 340.272908 
L 1074.286376 340.011484 
L 1075.41784 341.417505 
L 1077.680766 341.505777 
L 1078.81223 337.785669 
L 1079.943693 338.939045 
L 1081.075156 344.835821 
L 1082.20662 341.88019 
L 1083.338083 341.193346 
L 1085.60101 341.350766 
L 1086.732473 339.120988 
L 1087.863936 342.163615 
L 1088.9954 339.838297 
L 1090.126863 340.728812 
L 1091.258326 341.048992 
L 1093.521253 341.250967 
L 1094.652716 337.705283 
L 1095.78418 341.330533 
L 1096.915643 340.649464 
L 1099.17857 340.823997 
L 1101.441496 341.095405 
L 1102.57296 336.532927 
L 1103.704423 341.619831 
L 1104.835886 337.960664 
L 1105.96735 338.62378 
L 1108.230276 339.58149 
L 1109.36174 339.939039 
L 1110.493203 327.145483 
L 1111.624666 340.273446 
L 1112.75613 343.837678 
L 1113.887593 332.755848 
L 1115.019056 334.261419 
L 1116.15052 335.515389 
L 1117.281983 336.558068 
L 1118.413446 340.532122 
L 1119.54491 304.044404 
L 1120.676373 339.970688 
L 1121.807836 319.260925 
L 1122.9393 323.042943 
L 1124.070763 326.187203 
L 1125.202226 328.801662 
L 1126.33369 330.238141 
L 1127.465153 257.337305 
L 1128.596616 295.154584 
L 1129.72808 317.5002 
L 1130.859543 321.578284 
L 1131.991006 324.969336 
L 1133.12247 327.789004 
L 1134.253933 199.969499 
L 1135.385396 353.2755 
L 1136.51686 306.503683 
L 1137.648323 308.992728 
L 1138.779786 314.504449 
L 1139.91125 319.087428 
L 1141.042713 322.898185 
L 1142.174176 186.484249 
L 1143.30564 324.455986 
L 1144.437103 328.637784 
L 1145.568566 331.656282 
L 1146.70003 333.349206 
L 1147.831493 334.756882 
L 1148.962956 335.927368 
L 1150.09442 280.720022 
L 1151.225883 337.898753 
L 1152.357346 348.989105 
L 1153.48881 335.894499 
L 1154.620273 336.8733 
L 1155.751736 337.687174 
L 1156.8832 338.363911 
L 1158.014663 352.26087 
L 1159.146126 302.142906 
L 1160.27759 337.675839 
L 1161.409053 336.281306 
L 1162.540516 337.194929 
L 1164.803443 338.586284 
L 1165.934906 335.94669 
L 1167.06637 320.135701 
L 1168.197833 336.735309 
L 1169.329296 340.826382 
L 1170.46076 340.72173 
L 1171.592223 340.327657 
L 1172.723686 340.559478 
L 1173.85515 329.693504 
L 1174.986613 344.170889 
L 1176.118076 342.160248 
L 1177.24954 339.016523 
L 1178.381003 340.641009 
L 1179.512466 340.416347 
L 1180.64393 340.633225 
L 1181.775393 343.438306 
L 1182.906856 335.590407 
L 1184.03832 338.003854 
L 1185.169783 338.756779 
L 1186.301246 341.074425 
L 1187.43271 341.531451 
L 1188.564173 341.560435 
L 1189.695636 337.089363 
L 1190.8271 342.540595 
L 1191.958563 340.992476 
L 1193.090026 341.132027 
L 1194.22149 340.796075 
L 1196.484416 341.006822 
L 1197.61588 336.192639 
L 1198.747343 341.000211 
L 1199.878806 341.445969 
L 1204.40466 341.665055 
L 1205.536123 340.728207 
L 1206.667586 341.739952 
L 1207.79905 341.531425 
L 1212.324903 341.601129 
L 1213.456366 340.707419 
L 1214.58783 341.663228 
L 1215.719293 341.175151 
L 1220.245146 341.455688 
L 1221.376609 339.58737 
L 1222.508073 341.528852 
L 1224.770999 341.641345 
L 1228.165389 341.666586 
L 1229.296853 341.234482 
L 1230.428316 341.687129 
L 1231.559779 341.573172 
L 1236.085633 341.641452 
L 1237.217096 341.126157 
L 1238.348559 341.671325 
L 1239.480023 341.55035 
L 1244.005876 341.630209 
L 1245.137339 341.056498 
L 1246.268803 341.661452 
L 1247.400266 341.565047 
L 1251.926119 341.637314 
L 1253.057583 341.114133 
L 1254.189046 341.721779 
L 1255.320509 340.954239 
L 1258.714899 341.272734 
L 1259.846363 341.345312 
L 1260.977826 338.782659 
L 1262.109289 341.433291 
L 1263.240753 341.747964 
L 1270.029533 341.733192 
L 1271.160996 341.548926 
L 1275.686849 341.629593 
L 1276.818313 341.050757 
L 1277.949776 341.674747 
L 1279.081239 341.412722 
L 1283.607093 341.564483 
L 1284.738556 340.531039 
L 1285.870019 341.604367 
L 1289.264409 341.671319 
L 1291.527336 341.68124 
L 1292.658799 341.430758 
L 1293.790263 341.696147 
L 1294.921726 341.601326 
L 1299.447579 341.654641 
L 1300.579043 341.268022 
L 1301.710506 341.686079 
L 1302.841969 341.493613 
L 1307.367823 341.603152 
L 1308.499286 340.859517 
L 1308.499286 340.859517 
" clip-path="url(#p17660f1bb5)" style="fill: none; stroke: #ffa500; stroke-width: 1.5; stroke-linecap: square"/>
   </g>
   <g id="line2d_19">
    <path d="M 1309.630749 341.65435 
L 1310.762213 341.421776 
L 1311.893676 341.464547 
L 1313.025139 341.456682 
L 1314.156603 341.458128 
L 1315.288066 341.457862 
L 1316.419529 340.422514 
L 1317.550993 341.42911 
L 1318.682456 341.292782 
L 1319.813919 341.317854 
L 1320.945383 341.313243 
L 1322.076846 341.314091 
L 1323.208309 341.313935 
L 1324.339773 340.952786 
" clip-path="url(#p17660f1bb5)" style="fill: none; stroke: #ff0000; stroke-width: 1.5; stroke-linecap: square"/>
   </g>
   <g id="patch_3">
    <path d="M 46.0125 368.3955 
L 46.0125 35.7555 
" style="fill: none; stroke: #000000; stroke-width: 0.8; stroke-linejoin: miter; stroke-linecap: square"/>
   </g>
   <g id="patch_4">
    <path d="M 1385.2125 368.3955 
L 1385.2125 35.7555 
" style="fill: none; stroke: #000000; stroke-width: 0.8; stroke-linejoin: miter; stroke-linecap: square"/>
   </g>
   <g id="patch_5">
    <path d="M 46.0125 368.3955 
L 1385.2125 368.3955 
" style="fill: none; stroke: #000000; stroke-width: 0.8; stroke-linejoin: miter; stroke-linecap: square"/>
   </g>
   <g id="patch_6">
    <path d="M 46.0125 35.7555 
L 1385.2125 35.7555 
" style="fill: none; stroke: #000000; stroke-width: 0.8; stroke-linejoin: miter; stroke-linecap: square"/>
   </g>
   <g id="text_17">
    <!-- Daily Confirmed Cases Forecasting - Tunisia -->
    <g transform="translate(584.61375 16.318125)scale(0.12 -0.12)">
     <defs>
      <path id="DejaVuSans-44" d="M 1259 4147 
L 1259 519 
L 2022 519 
Q 2988 519 3436 956 
Q 3884 1394 3884 2338 
Q 3884 3275 3436 3711 
Q 2988 4147 2022 4147 
L 1259 4147 
z
M 628 4666 
L 1925 4666 
Q 3281 4666 3915 4102 
Q 4550 3538 4550 2338 
Q 4550 1131 3912 565 
Q 3275 0 1925 0 
L 628 0 
L 628 4666 
z
" transform="scale(0.015625)"/>
      <path id="DejaVuSans-61" d="M 2194 1759 
Q 1497 1759 1228 1600 
Q 959 1441 959 1056 
Q 959 750 1161 570 
Q 1363 391 1709 391 
Q 2188 391 2477 730 
Q 2766 1069 2766 1631 
L 2766 1759 
L 2194 1759 
z
M 3341 1997 
L 3341 0 
L 2766 0 
L 2766 531 
Q 2569 213 2275 61 
Q 1981 -91 1556 -91 
Q 1019 -91 701 211 
Q 384 513 384 1019 
Q 384 1609 779 1909 
Q 1175 2209 1959 2209 
L 2766 2209 
L 2766 2266 
Q 2766 2663 2505 2880 
Q 2244 3097 1772 3097 
Q 1472 3097 1187 3025 
Q 903 2953 641 2809 
L 641 3341 
Q 956 3463 1253 3523 
Q 1550 3584 1831 3584 
Q 2591 3584 2966 3190 
Q 3341 2797 3341 1997 
z
" transform="scale(0.015625)"/>
      <path id="DejaVuSans-69" d="M 603 3500 
L 1178 3500 
L 1178 0 
L 603 0 
L 603 3500 
z
M 603 4863 
L 1178 4863 
L 1178 4134 
L 603 4134 
L 603 4863 
z
" transform="scale(0.015625)"/>
      <path id="DejaVuSans-6c" d="M 603 4863 
L 1178 4863 
L 1178 0 
L 603 0 
L 603 4863 
z
" transform="scale(0.015625)"/>
      <path id="DejaVuSans-79" d="M 2059 -325 
Q 1816 -950 1584 -1140 
Q 1353 -1331 966 -1331 
L 506 -1331 
L 506 -850 
L 844 -850 
Q 1081 -850 1212 -737 
Q 1344 -625 1503 -206 
L 1606 56 
L 191 3500 
L 800 3500 
L 1894 763 
L 2988 3500 
L 3597 3500 
L 2059 -325 
z
" transform="scale(0.015625)"/>
      <path id="DejaVuSans-20" transform="scale(0.015625)"/>
      <path id="DejaVuSans-43" d="M 4122 4306 
L 4122 3641 
Q 3803 3938 3442 4084 
Q 3081 4231 2675 4231 
Q 1875 4231 1450 3742 
Q 1025 3253 1025 2328 
Q 1025 1406 1450 917 
Q 1875 428 2675 428 
Q 3081 428 3442 575 
Q 3803 722 4122 1019 
L 4122 359 
Q 3791 134 3420 21 
Q 3050 -91 2638 -91 
Q 1578 -91 968 557 
Q 359 1206 359 2328 
Q 359 3453 968 4101 
Q 1578 4750 2638 4750 
Q 3056 4750 3426 4639 
Q 3797 4528 4122 4306 
z
" transform="scale(0.015625)"/>
      <path id="DejaVuSans-6f" d="M 1959 3097 
Q 1497 3097 1228 2736 
Q 959 2375 959 1747 
Q 959 1119 1226 758 
Q 1494 397 1959 397 
Q 2419 397 2687 759 
Q 2956 1122 2956 1747 
Q 2956 2369 2687 2733 
Q 2419 3097 1959 3097 
z
M 1959 3584 
Q 2709 3584 3137 3096 
Q 3566 2609 3566 1747 
Q 3566 888 3137 398 
Q 2709 -91 1959 -91 
Q 1206 -91 779 398 
Q 353 888 353 1747 
Q 353 2609 779 3096 
Q 1206 3584 1959 3584 
z
" transform="scale(0.015625)"/>
      <path id="DejaVuSans-6e" d="M 3513 2113 
L 3513 0 
L 2938 0 
L 2938 2094 
Q 2938 2591 2744 2837 
Q 2550 3084 2163 3084 
Q 1697 3084 1428 2787 
Q 1159 2491 1159 1978 
L 1159 0 
L 581 0 
L 581 3500 
L 1159 3500 
L 1159 2956 
Q 1366 3272 1645 3428 
Q 1925 3584 2291 3584 
Q 2894 3584 3203 3211 
Q 3513 2838 3513 2113 
z
" transform="scale(0.015625)"/>
      <path id="DejaVuSans-66" d="M 2375 4863 
L 2375 4384 
L 1825 4384 
Q 1516 4384 1395 4259 
Q 1275 4134 1275 3809 
L 1275 3500 
L 2222 3500 
L 2222 3053 
L 1275 3053 
L 1275 0 
L 697 0 
L 697 3053 
L 147 3053 
L 147 3500 
L 697 3500 
L 697 3744 
Q 697 4328 969 4595 
Q 1241 4863 1831 4863 
L 2375 4863 
z
" transform="scale(0.015625)"/>
      <path id="DejaVuSans-72" d="M 2631 2963 
Q 2534 3019 2420 3045 
Q 2306 3072 2169 3072 
Q 1681 3072 1420 2755 
Q 1159 2438 1159 1844 
L 1159 0 
L 581 0 
L 581 3500 
L 1159 3500 
L 1159 2956 
Q 1341 3275 1631 3429 
Q 1922 3584 2338 3584 
Q 2397 3584 2469 3576 
Q 2541 3569 2628 3553 
L 2631 2963 
z
" transform="scale(0.015625)"/>
      <path id="DejaVuSans-6d" d="M 3328 2828 
Q 3544 3216 3844 3400 
Q 4144 3584 4550 3584 
Q 5097 3584 5394 3201 
Q 5691 2819 5691 2113 
L 5691 0 
L 5113 0 
L 5113 2094 
Q 5113 2597 4934 2840 
Q 4756 3084 4391 3084 
Q 3944 3084 3684 2787 
Q 3425 2491 3425 1978 
L 3425 0 
L 2847 0 
L 2847 2094 
Q 2847 2600 2669 2842 
Q 2491 3084 2119 3084 
Q 1678 3084 1418 2786 
Q 1159 2488 1159 1978 
L 1159 0 
L 581 0 
L 581 3500 
L 1159 3500 
L 1159 2956 
Q 1356 3278 1631 3431 
Q 1906 3584 2284 3584 
Q 2666 3584 2933 3390 
Q 3200 3197 3328 2828 
z
" transform="scale(0.015625)"/>
      <path id="DejaVuSans-65" d="M 3597 1894 
L 3597 1613 
L 953 1613 
Q 991 1019 1311 708 
Q 1631 397 2203 397 
Q 2534 397 2845 478 
Q 3156 559 3463 722 
L 3463 178 
Q 3153 47 2828 -22 
Q 2503 -91 2169 -91 
Q 1331 -91 842 396 
Q 353 884 353 1716 
Q 353 2575 817 3079 
Q 1281 3584 2069 3584 
Q 2775 3584 3186 3129 
Q 3597 2675 3597 1894 
z
M 3022 2063 
Q 3016 2534 2758 2815 
Q 2500 3097 2075 3097 
Q 1594 3097 1305 2825 
Q 1016 2553 972 2059 
L 3022 2063 
z
" transform="scale(0.015625)"/>
      <path id="DejaVuSans-64" d="M 2906 2969 
L 2906 4863 
L 3481 4863 
L 3481 0 
L 2906 0 
L 2906 525 
Q 2725 213 2448 61 
Q 2172 -91 1784 -91 
Q 1150 -91 751 415 
Q 353 922 353 1747 
Q 353 2572 751 3078 
Q 1150 3584 1784 3584 
Q 2172 3584 2448 3432 
Q 2725 3281 2906 2969 
z
M 947 1747 
Q 947 1113 1208 752 
Q 1469 391 1925 391 
Q 2381 391 2643 752 
Q 2906 1113 2906 1747 
Q 2906 2381 2643 2742 
Q 2381 3103 1925 3103 
Q 1469 3103 1208 2742 
Q 947 2381 947 1747 
z
" transform="scale(0.015625)"/>
      <path id="DejaVuSans-73" d="M 2834 3397 
L 2834 2853 
Q 2591 2978 2328 3040 
Q 2066 3103 1784 3103 
Q 1356 3103 1142 2972 
Q 928 2841 928 2578 
Q 928 2378 1081 2264 
Q 1234 2150 1697 2047 
L 1894 2003 
Q 2506 1872 2764 1633 
Q 3022 1394 3022 966 
Q 3022 478 2636 193 
Q 2250 -91 1575 -91 
Q 1294 -91 989 -36 
Q 684 19 347 128 
L 347 722 
Q 666 556 975 473 
Q 1284 391 1588 391 
Q 1994 391 2212 530 
Q 2431 669 2431 922 
Q 2431 1156 2273 1281 
Q 2116 1406 1581 1522 
L 1381 1569 
Q 847 1681 609 1914 
Q 372 2147 372 2553 
Q 372 3047 722 3315 
Q 1072 3584 1716 3584 
Q 2034 3584 2315 3537 
Q 2597 3491 2834 3397 
z
" transform="scale(0.015625)"/>
      <path id="DejaVuSans-46" d="M 628 4666 
L 3309 4666 
L 3309 4134 
L 1259 4134 
L 1259 2759 
L 3109 2759 
L 3109 2228 
L 1259 2228 
L 1259 0 
L 628 0 
L 628 4666 
z
" transform="scale(0.015625)"/>
      <path id="DejaVuSans-63" d="M 3122 3366 
L 3122 2828 
Q 2878 2963 2633 3030 
Q 2388 3097 2138 3097 
Q 1578 3097 1268 2742 
Q 959 2388 959 1747 
Q 959 1106 1268 751 
Q 1578 397 2138 397 
Q 2388 397 2633 464 
Q 2878 531 3122 666 
L 3122 134 
Q 2881 22 2623 -34 
Q 2366 -91 2075 -91 
Q 1284 -91 818 406 
Q 353 903 353 1747 
Q 353 2603 823 3093 
Q 1294 3584 2113 3584 
Q 2378 3584 2631 3529 
Q 2884 3475 3122 3366 
z
" transform="scale(0.015625)"/>
      <path id="DejaVuSans-74" d="M 1172 4494 
L 1172 3500 
L 2356 3500 
L 2356 3053 
L 1172 3053 
L 1172 1153 
Q 1172 725 1289 603 
Q 1406 481 1766 481 
L 2356 481 
L 2356 0 
L 1766 0 
Q 1100 0 847 248 
Q 594 497 594 1153 
L 594 3053 
L 172 3053 
L 172 3500 
L 594 3500 
L 594 4494 
L 1172 4494 
z
" transform="scale(0.015625)"/>
      <path id="DejaVuSans-67" d="M 2906 1791 
Q 2906 2416 2648 2759 
Q 2391 3103 1925 3103 
Q 1463 3103 1205 2759 
Q 947 2416 947 1791 
Q 947 1169 1205 825 
Q 1463 481 1925 481 
Q 2391 481 2648 825 
Q 2906 1169 2906 1791 
z
M 3481 434 
Q 3481 -459 3084 -895 
Q 2688 -1331 1869 -1331 
Q 1566 -1331 1297 -1286 
Q 1028 -1241 775 -1147 
L 775 -588 
Q 1028 -725 1275 -790 
Q 1522 -856 1778 -856 
Q 2344 -856 2625 -561 
Q 2906 -266 2906 331 
L 2906 616 
Q 2728 306 2450 153 
Q 2172 0 1784 0 
Q 1141 0 747 490 
Q 353 981 353 1791 
Q 353 2603 747 3093 
Q 1141 3584 1784 3584 
Q 2172 3584 2450 3431 
Q 2728 3278 2906 2969 
L 2906 3500 
L 3481 3500 
L 3481 434 
z
" transform="scale(0.015625)"/>
      <path id="DejaVuSans-54" d="M -19 4666 
L 3928 4666 
L 3928 4134 
L 2272 4134 
L 2272 0 
L 1638 0 
L 1638 4134 
L -19 4134 
L -19 4666 
z
" transform="scale(0.015625)"/>
      <path id="DejaVuSans-75" d="M 544 1381 
L 544 3500 
L 1119 3500 
L 1119 1403 
Q 1119 906 1312 657 
Q 1506 409 1894 409 
Q 2359 409 2629 706 
Q 2900 1003 2900 1516 
L 2900 3500 
L 3475 3500 
L 3475 0 
L 2900 0 
L 2900 538 
Q 2691 219 2414 64 
Q 2138 -91 1772 -91 
Q 1169 -91 856 284 
Q 544 659 544 1381 
z
M 1991 3584 
L 1991 3584 
z
" transform="scale(0.015625)"/>
     </defs>
     <use xlink:href="#DejaVuSans-44"/>
     <use xlink:href="#DejaVuSans-61" x="77.001953"/>
     <use xlink:href="#DejaVuSans-69" x="138.28125"/>
     <use xlink:href="#DejaVuSans-6c" x="166.064453"/>
     <use xlink:href="#DejaVuSans-79" x="193.847656"/>
     <use xlink:href="#DejaVuSans-20" x="253.027344"/>
     <use xlink:href="#DejaVuSans-43" x="284.814453"/>
     <use xlink:href="#DejaVuSans-6f" x="354.638672"/>
     <use xlink:href="#DejaVuSans-6e" x="415.820312"/>
     <use xlink:href="#DejaVuSans-66" x="479.199219"/>
     <use xlink:href="#DejaVuSans-69" x="514.404297"/>
     <use xlink:href="#DejaVuSans-72" x="542.1875"/>
     <use xlink:href="#DejaVuSans-6d" x="581.550781"/>
     <use xlink:href="#DejaVuSans-65" x="678.962891"/>
     <use xlink:href="#DejaVuSans-64" x="740.486328"/>
     <use xlink:href="#DejaVuSans-20" x="803.962891"/>
     <use xlink:href="#DejaVuSans-43" x="835.75"/>
     <use xlink:href="#DejaVuSans-61" x="905.574219"/>
     <use xlink:href="#DejaVuSans-73" x="966.853516"/>
     <use xlink:href="#DejaVuSans-65" x="1018.953125"/>
     <use xlink:href="#DejaVuSans-73" x="1080.476562"/>
     <use xlink:href="#DejaVuSans-20" x="1132.576172"/>
     <use xlink:href="#DejaVuSans-46" x="1164.363281"/>
     <use xlink:href="#DejaVuSans-6f" x="1218.257812"/>
     <use xlink:href="#DejaVuSans-72" x="1279.439453"/>
     <use xlink:href="#DejaVuSans-65" x="1318.302734"/>
     <use xlink:href="#DejaVuSans-63" x="1379.826172"/>
     <use xlink:href="#DejaVuSans-61" x="1434.806641"/>
     <use xlink:href="#DejaVuSans-73" x="1496.085938"/>
     <use xlink:href="#DejaVuSans-74" x="1548.185547"/>
     <use xlink:href="#DejaVuSans-69" x="1587.394531"/>
     <use xlink:href="#DejaVuSans-6e" x="1615.177734"/>
     <use xlink:href="#DejaVuSans-67" x="1678.556641"/>
     <use xlink:href="#DejaVuSans-20" x="1742.033203"/>
     <use xlink:href="#DejaVuSans-2d" x="1773.820312"/>
     <use xlink:href="#DejaVuSans-20" x="1809.904297"/>
     <use xlink:href="#DejaVuSans-54" x="1841.691406"/>
     <use xlink:href="#DejaVuSans-75" x="1887.650391"/>
     <use xlink:href="#DejaVuSans-6e" x="1951.029297"/>
     <use xlink:href="#DejaVuSans-69" x="2014.408203"/>
     <use xlink:href="#DejaVuSans-73" x="2042.191406"/>
     <use xlink:href="#DejaVuSans-69" x="2094.291016"/>
     <use xlink:href="#DejaVuSans-61" x="2122.074219"/>
    </g>
    <!-- ARIMA (1, 1, 1)x(1, 0, 1, 7) (R2 = 0.411207) -->
    <g transform="translate(583.628438 29.7555)scale(0.12 -0.12)">
     <defs>
      <path id="DejaVuSans-41" d="M 2188 4044 
L 1331 1722 
L 3047 1722 
L 2188 4044 
z
M 1831 4666 
L 2547 4666 
L 4325 0 
L 3669 0 
L 3244 1197 
L 1141 1197 
L 716 0 
L 50 0 
L 1831 4666 
z
" transform="scale(0.015625)"/>
      <path id="DejaVuSans-52" d="M 2841 2188 
Q 3044 2119 3236 1894 
Q 3428 1669 3622 1275 
L 4263 0 
L 3584 0 
L 2988 1197 
Q 2756 1666 2539 1819 
Q 2322 1972 1947 1972 
L 1259 1972 
L 1259 0 
L 628 0 
L 628 4666 
L 2053 4666 
Q 2853 4666 3247 4331 
Q 3641 3997 3641 3322 
Q 3641 2881 3436 2590 
Q 3231 2300 2841 2188 
z
M 1259 4147 
L 1259 2491 
L 2053 2491 
Q 2509 2491 2742 2702 
Q 2975 2913 2975 3322 
Q 2975 3731 2742 3939 
Q 2509 4147 2053 4147 
L 1259 4147 
z
" transform="scale(0.015625)"/>
      <path id="DejaVuSans-49" d="M 628 4666 
L 1259 4666 
L 1259 0 
L 628 0 
L 628 4666 
z
" transform="scale(0.015625)"/>
      <path id="DejaVuSans-4d" d="M 628 4666 
L 1569 4666 
L 2759 1491 
L 3956 4666 
L 4897 4666 
L 4897 0 
L 4281 0 
L 4281 4097 
L 3078 897 
L 2444 897 
L 1241 4097 
L 1241 0 
L 628 0 
L 628 4666 
z
" transform="scale(0.015625)"/>
      <path id="DejaVuSans-28" d="M 1984 4856 
Q 1566 4138 1362 3434 
Q 1159 2731 1159 2009 
Q 1159 1288 1364 580 
Q 1569 -128 1984 -844 
L 1484 -844 
Q 1016 -109 783 600 
Q 550 1309 550 2009 
Q 550 2706 781 3412 
Q 1013 4119 1484 4856 
L 1984 4856 
z
" transform="scale(0.015625)"/>
      <path id="DejaVuSans-2c" d="M 750 794 
L 1409 794 
L 1409 256 
L 897 -744 
L 494 -744 
L 750 256 
L 750 794 
z
" transform="scale(0.015625)"/>
      <path id="DejaVuSans-29" d="M 513 4856 
L 1013 4856 
Q 1481 4119 1714 3412 
Q 1947 2706 1947 2009 
Q 1947 1309 1714 600 
Q 1481 -109 1013 -844 
L 513 -844 
Q 928 -128 1133 580 
Q 1338 1288 1338 2009 
Q 1338 2731 1133 3434 
Q 928 4138 513 4856 
z
" transform="scale(0.015625)"/>
      <path id="DejaVuSans-78" d="M 3513 3500 
L 2247 1797 
L 3578 0 
L 2900 0 
L 1881 1375 
L 863 0 
L 184 0 
L 1544 1831 
L 300 3500 
L 978 3500 
L 1906 2253 
L 2834 3500 
L 3513 3500 
z
" transform="scale(0.015625)"/>
      <path id="DejaVuSans-37" d="M 525 4666 
L 3525 4666 
L 3525 4397 
L 1831 0 
L 1172 0 
L 2766 4134 
L 525 4134 
L 525 4666 
z
" transform="scale(0.015625)"/>
      <path id="DejaVuSans-3d" d="M 678 2906 
L 4684 2906 
L 4684 2381 
L 678 2381 
L 678 2906 
z
M 678 1631 
L 4684 1631 
L 4684 1100 
L 678 1100 
L 678 1631 
z
" transform="scale(0.015625)"/>
      <path id="DejaVuSans-2e" d="M 684 794 
L 1344 794 
L 1344 0 
L 684 0 
L 684 794 
z
" transform="scale(0.015625)"/>
      <path id="DejaVuSans-34" d="M 2419 4116 
L 825 1625 
L 2419 1625 
L 2419 4116 
z
M 2253 4666 
L 3047 4666 
L 3047 1625 
L 3713 1625 
L 3713 1100 
L 3047 1100 
L 3047 0 
L 2419 0 
L 2419 1100 
L 313 1100 
L 313 1709 
L 2253 4666 
z
" transform="scale(0.015625)"/>
     </defs>
     <use xlink:href="#DejaVuSans-41"/>
     <use xlink:href="#DejaVuSans-52" x="68.408203"/>
     <use xlink:href="#DejaVuSans-49" x="137.890625"/>
     <use xlink:href="#DejaVuSans-4d" x="167.382812"/>
     <use xlink:href="#DejaVuSans-41" x="253.662109"/>
     <use xlink:href="#DejaVuSans-20" x="322.070312"/>
     <use xlink:href="#DejaVuSans-28" x="353.857422"/>
     <use xlink:href="#DejaVuSans-31" x="392.871094"/>
     <use xlink:href="#DejaVuSans-2c" x="456.494141"/>
     <use xlink:href="#DejaVuSans-20" x="488.28125"/>
     <use xlink:href="#DejaVuSans-31" x="520.068359"/>
     <use xlink:href="#DejaVuSans-2c" x="583.691406"/>
     <use xlink:href="#DejaVuSans-20" x="615.478516"/>
     <use xlink:href="#DejaVuSans-31" x="647.265625"/>
     <use xlink:href="#DejaVuSans-29" x="710.888672"/>
     <use xlink:href="#DejaVuSans-78" x="749.902344"/>
     <use xlink:href="#DejaVuSans-28" x="809.082031"/>
     <use xlink:href="#DejaVuSans-31" x="848.095703"/>
     <use xlink:href="#DejaVuSans-2c" x="911.71875"/>
     <use xlink:href="#DejaVuSans-20" x="943.505859"/>
     <use xlink:href="#DejaVuSans-30" x="975.292969"/>
     <use xlink:href="#DejaVuSans-2c" x="1038.916016"/>
     <use xlink:href="#DejaVuSans-20" x="1070.703125"/>
     <use xlink:href="#DejaVuSans-31" x="1102.490234"/>
     <use xlink:href="#DejaVuSans-2c" x="1166.113281"/>
     <use xlink:href="#DejaVuSans-20" x="1197.900391"/>
     <use xlink:href="#DejaVuSans-37" x="1229.6875"/>
     <use xlink:href="#DejaVuSans-29" x="1293.310547"/>
     <use xlink:href="#DejaVuSans-20" x="1332.324219"/>
     <use xlink:href="#DejaVuSans-28" x="1364.111328"/>
     <use xlink:href="#DejaVuSans-52" x="1403.125"/>
     <use xlink:href="#DejaVuSans-32" x="1472.607422"/>
     <use xlink:href="#DejaVuSans-20" x="1536.230469"/>
     <use xlink:href="#DejaVuSans-3d" x="1568.017578"/>
     <use xlink:href="#DejaVuSans-20" x="1651.806641"/>
     <use xlink:href="#DejaVuSans-30" x="1683.59375"/>
     <use xlink:href="#DejaVuSans-2e" x="1747.216797"/>
     <use xlink:href="#DejaVuSans-34" x="1779.003906"/>
     <use xlink:href="#DejaVuSans-31" x="1842.626953"/>
     <use xlink:href="#DejaVuSans-31" x="1906.25"/>
     <use xlink:href="#DejaVuSans-32" x="1969.873047"/>
     <use xlink:href="#DejaVuSans-30" x="2033.496094"/>
     <use xlink:href="#DejaVuSans-37" x="2097.119141"/>
     <use xlink:href="#DejaVuSans-29" x="2160.742188"/>
    </g>
   </g>
   <g id="legend_1">
    <g id="patch_7">
     <path d="M 1281.132812 87.789875 
L 1378.2125 87.789875 
Q 1380.2125 87.789875 1380.2125 85.789875 
L 1380.2125 42.7555 
Q 1380.2125 40.7555 1378.2125 40.7555 
L 1281.132812 40.7555 
Q 1279.132812 40.7555 1279.132812 42.7555 
L 1279.132812 85.789875 
Q 1279.132812 87.789875 1281.132812 87.789875 
z
" style="fill: #ffffff; opacity: 0.8; stroke: #cccccc; stroke-linejoin: miter"/>
    </g>
    <g id="line2d_20">
     <path d="M 1283.132812 48.853937 
L 1293.132812 48.853937 
L 1303.132812 48.853937 
" style="fill: none; stroke: #0000ff; stroke-width: 1.5; stroke-linecap: square"/>
    </g>
    <g id="text_18">
     <!-- Actual Value -->
     <g transform="translate(1311.132812 52.353937)scale(0.1 -0.1)">
      <defs>
       <path id="DejaVuSans-56" d="M 1831 0 
L 50 4666 
L 709 4666 
L 2188 738 
L 3669 4666 
L 4325 4666 
L 2547 0 
L 1831 0 
z
" transform="scale(0.015625)"/>
      </defs>
      <use xlink:href="#DejaVuSans-41"/>
      <use xlink:href="#DejaVuSans-63" x="66.658203"/>
      <use xlink:href="#DejaVuSans-74" x="121.638672"/>
      <use xlink:href="#DejaVuSans-75" x="160.847656"/>
      <use xlink:href="#DejaVuSans-61" x="224.226562"/>
      <use xlink:href="#DejaVuSans-6c" x="285.505859"/>
      <use xlink:href="#DejaVuSans-20" x="313.289062"/>
      <use xlink:href="#DejaVuSans-56" x="345.076172"/>
      <use xlink:href="#DejaVuSans-61" x="405.734375"/>
      <use xlink:href="#DejaVuSans-6c" x="467.013672"/>
      <use xlink:href="#DejaVuSans-75" x="494.796875"/>
      <use xlink:href="#DejaVuSans-65" x="558.175781"/>
     </g>
    </g>
    <g id="line2d_21">
     <path d="M 1283.132812 63.532062 
L 1293.132812 63.532062 
L 1303.132812 63.532062 
" style="fill: none; stroke: #ffa500; stroke-width: 1.5; stroke-linecap: square"/>
    </g>
    <g id="text_19">
     <!-- Check Value -->
     <g transform="translate(1311.132812 67.032062)scale(0.1 -0.1)">
      <defs>
       <path id="DejaVuSans-68" d="M 3513 2113 
L 3513 0 
L 2938 0 
L 2938 2094 
Q 2938 2591 2744 2837 
Q 2550 3084 2163 3084 
Q 1697 3084 1428 2787 
Q 1159 2491 1159 1978 
L 1159 0 
L 581 0 
L 581 4863 
L 1159 4863 
L 1159 2956 
Q 1366 3272 1645 3428 
Q 1925 3584 2291 3584 
Q 2894 3584 3203 3211 
Q 3513 2838 3513 2113 
z
" transform="scale(0.015625)"/>
       <path id="DejaVuSans-6b" d="M 581 4863 
L 1159 4863 
L 1159 1991 
L 2875 3500 
L 3609 3500 
L 1753 1863 
L 3688 0 
L 2938 0 
L 1159 1709 
L 1159 0 
L 581 0 
L 581 4863 
z
" transform="scale(0.015625)"/>
      </defs>
      <use xlink:href="#DejaVuSans-43"/>
      <use xlink:href="#DejaVuSans-68" x="69.824219"/>
      <use xlink:href="#DejaVuSans-65" x="133.203125"/>
      <use xlink:href="#DejaVuSans-63" x="194.726562"/>
      <use xlink:href="#DejaVuSans-6b" x="249.707031"/>
      <use xlink:href="#DejaVuSans-20" x="307.617188"/>
      <use xlink:href="#DejaVuSans-56" x="339.404297"/>
      <use xlink:href="#DejaVuSans-61" x="400.0625"/>
      <use xlink:href="#DejaVuSans-6c" x="461.341797"/>
      <use xlink:href="#DejaVuSans-75" x="489.125"/>
      <use xlink:href="#DejaVuSans-65" x="552.503906"/>
     </g>
    </g>
    <g id="line2d_22">
     <path d="M 1283.132812 78.210187 
L 1293.132812 78.210187 
L 1303.132812 78.210187 
" style="fill: none; stroke: #ff0000; stroke-width: 1.5; stroke-linecap: square"/>
    </g>
    <g id="text_20">
     <!-- Predict Value -->
     <g transform="translate(1311.132812 81.710187)scale(0.1 -0.1)">
      <defs>
       <path id="DejaVuSans-50" d="M 1259 4147 
L 1259 2394 
L 2053 2394 
Q 2494 2394 2734 2622 
Q 2975 2850 2975 3272 
Q 2975 3691 2734 3919 
Q 2494 4147 2053 4147 
L 1259 4147 
z
M 628 4666 
L 2053 4666 
Q 2838 4666 3239 4311 
Q 3641 3956 3641 3272 
Q 3641 2581 3239 2228 
Q 2838 1875 2053 1875 
L 1259 1875 
L 1259 0 
L 628 0 
L 628 4666 
z
" transform="scale(0.015625)"/>
      </defs>
      <use xlink:href="#DejaVuSans-50"/>
      <use xlink:href="#DejaVuSans-72" x="58.552734"/>
      <use xlink:href="#DejaVuSans-65" x="97.416016"/>
      <use xlink:href="#DejaVuSans-64" x="158.939453"/>
      <use xlink:href="#DejaVuSans-69" x="222.416016"/>
      <use xlink:href="#DejaVuSans-63" x="250.199219"/>
      <use xlink:href="#DejaVuSans-74" x="305.179688"/>
      <use xlink:href="#DejaVuSans-20" x="344.388672"/>
      <use xlink:href="#DejaVuSans-56" x="376.175781"/>
      <use xlink:href="#DejaVuSans-61" x="436.833984"/>
      <use xlink:href="#DejaVuSans-6c" x="498.113281"/>
      <use xlink:href="#DejaVuSans-75" x="525.896484"/>
      <use xlink:href="#DejaVuSans-65" x="589.275391"/>
     </g>
    </g>
   </g>
  </g>
 </g>
 <defs>
  <clipPath id="p17660f1bb5">
   <rect x="46.0125" y="35.7555" width="1339.2" height="332.64"/>
  </clipPath>
 </defs>
</svg>
