<?xml version="1.0" encoding="utf-8" standalone="no"?>
<!DOCTYPE svg PUBLIC "-//W3C//DTD SVG 1.1//EN"
  "http://www.w3.org/Graphics/SVG/1.1/DTD/svg11.dtd">
<svg xmlns:xlink="http://www.w3.org/1999/xlink" width="1392.4125pt" height="392.273625pt" viewBox="0 0 1392.4125 392.273625" xmlns="http://www.w3.org/2000/svg" version="1.1">
 <metadata>
  <rdf:RDF xmlns:dc="http://purl.org/dc/elements/1.1/" xmlns:cc="http://creativecommons.org/ns#" xmlns:rdf="http://www.w3.org/1999/02/22-rdf-syntax-ns#">
   <cc:Work>
    <dc:type rdf:resource="http://purl.org/dc/dcmitype/StillImage"/>
    <dc:date>2022-12-04T19:13:18.015085</dc:date>
    <dc:format>image/svg+xml</dc:format>
    <dc:creator>
     <cc:Agent>
      <dc:title>Matplotlib v3.5.1, https://matplotlib.org/</dc:title>
     </cc:Agent>
    </dc:creator>
   </cc:Work>
  </rdf:RDF>
 </metadata>
 <defs>
  <style type="text/css">*{stroke-linejoin: round; stroke-linecap: butt}</style>
 </defs>
 <g id="figure_1">
  <g id="patch_1">
   <path d="M 0 392.273625 
L 1392.4125 392.273625 
L 1392.4125 0 
L 0 0 
z
" style="fill: #ffffff"/>
  </g>
  <g id="axes_1">
   <g id="patch_2">
    <path d="M 46.0125 368.3955 
L 1385.2125 368.3955 
L 1385.2125 35.7555 
L 46.0125 35.7555 
z
" style="fill: #ffffff"/>
   </g>
   <g id="matplotlib.axis_1">
    <g id="xtick_1">
     <g id="line2d_1">
      <defs>
       <path id="m5d493f243e" d="M 0 0 
L 0 3.5 
" style="stroke: #000000; stroke-width: 0.8"/>
      </defs>
      <g>
       <use xlink:href="#m5d493f243e" x="81.593443" y="368.3955" style="stroke: #000000; stroke-width: 0.8"/>
      </g>
     </g>
     <g id="text_1">
      <!-- 2020-01 -->
      <g transform="translate(60.702036 382.993937)scale(0.1 -0.1)">
       <defs>
        <path id="DejaVuSans-32" d="M 1228 531 
L 3431 531 
L 3431 0 
L 469 0 
L 469 531 
Q 828 903 1448 1529 
Q 2069 2156 2228 2338 
Q 2531 2678 2651 2914 
Q 2772 3150 2772 3378 
Q 2772 3750 2511 3984 
Q 2250 4219 1831 4219 
Q 1534 4219 1204 4116 
Q 875 4013 500 3803 
L 500 4441 
Q 881 4594 1212 4672 
Q 1544 4750 1819 4750 
Q 2544 4750 2975 4387 
Q 3406 4025 3406 3419 
Q 3406 3131 3298 2873 
Q 3191 2616 2906 2266 
Q 2828 2175 2409 1742 
Q 1991 1309 1228 531 
z
" transform="scale(0.015625)"/>
        <path id="DejaVuSans-30" d="M 2034 4250 
Q 1547 4250 1301 3770 
Q 1056 3291 1056 2328 
Q 1056 1369 1301 889 
Q 1547 409 2034 409 
Q 2525 409 2770 889 
Q 3016 1369 3016 2328 
Q 3016 3291 2770 3770 
Q 2525 4250 2034 4250 
z
M 2034 4750 
Q 2819 4750 3233 4129 
Q 3647 3509 3647 2328 
Q 3647 1150 3233 529 
Q 2819 -91 2034 -91 
Q 1250 -91 836 529 
Q 422 1150 422 2328 
Q 422 3509 836 4129 
Q 1250 4750 2034 4750 
z
" transform="scale(0.015625)"/>
        <path id="DejaVuSans-2d" d="M 313 2009 
L 1997 2009 
L 1997 1497 
L 313 1497 
L 313 2009 
z
" transform="scale(0.015625)"/>
        <path id="DejaVuSans-31" d="M 794 531 
L 1825 531 
L 1825 4091 
L 703 3866 
L 703 4441 
L 1819 4666 
L 2450 4666 
L 2450 531 
L 3481 531 
L 3481 0 
L 794 0 
L 794 531 
z
" transform="scale(0.015625)"/>
       </defs>
       <use xlink:href="#DejaVuSans-32"/>
       <use xlink:href="#DejaVuSans-30" x="63.623047"/>
       <use xlink:href="#DejaVuSans-32" x="127.246094"/>
       <use xlink:href="#DejaVuSans-30" x="190.869141"/>
       <use xlink:href="#DejaVuSans-2d" x="254.492188"/>
       <use xlink:href="#DejaVuSans-30" x="290.576172"/>
       <use xlink:href="#DejaVuSans-31" x="354.199219"/>
      </g>
     </g>
    </g>
    <g id="xtick_2">
     <g id="line2d_2">
      <g>
       <use xlink:href="#m5d493f243e" x="220.698258" y="368.3955" style="stroke: #000000; stroke-width: 0.8"/>
      </g>
     </g>
     <g id="text_2">
      <!-- 2020-05 -->
      <g transform="translate(199.806852 382.993937)scale(0.1 -0.1)">
       <defs>
        <path id="DejaVuSans-35" d="M 691 4666 
L 3169 4666 
L 3169 4134 
L 1269 4134 
L 1269 2991 
Q 1406 3038 1543 3061 
Q 1681 3084 1819 3084 
Q 2600 3084 3056 2656 
Q 3513 2228 3513 1497 
Q 3513 744 3044 326 
Q 2575 -91 1722 -91 
Q 1428 -91 1123 -41 
Q 819 9 494 109 
L 494 744 
Q 775 591 1075 516 
Q 1375 441 1709 441 
Q 2250 441 2565 725 
Q 2881 1009 2881 1497 
Q 2881 1984 2565 2268 
Q 2250 2553 1709 2553 
Q 1456 2553 1204 2497 
Q 953 2441 691 2322 
L 691 4666 
z
" transform="scale(0.015625)"/>
       </defs>
       <use xlink:href="#DejaVuSans-32"/>
       <use xlink:href="#DejaVuSans-30" x="63.623047"/>
       <use xlink:href="#DejaVuSans-32" x="127.246094"/>
       <use xlink:href="#DejaVuSans-30" x="190.869141"/>
       <use xlink:href="#DejaVuSans-2d" x="254.492188"/>
       <use xlink:href="#DejaVuSans-30" x="290.576172"/>
       <use xlink:href="#DejaVuSans-35" x="354.199219"/>
      </g>
     </g>
    </g>
    <g id="xtick_3">
     <g id="line2d_3">
      <g>
       <use xlink:href="#m5d493f243e" x="362.102327" y="368.3955" style="stroke: #000000; stroke-width: 0.8"/>
      </g>
     </g>
     <g id="text_3">
      <!-- 2020-09 -->
      <g transform="translate(341.210921 382.993937)scale(0.1 -0.1)">
       <defs>
        <path id="DejaVuSans-39" d="M 703 97 
L 703 672 
Q 941 559 1184 500 
Q 1428 441 1663 441 
Q 2288 441 2617 861 
Q 2947 1281 2994 2138 
Q 2813 1869 2534 1725 
Q 2256 1581 1919 1581 
Q 1219 1581 811 2004 
Q 403 2428 403 3163 
Q 403 3881 828 4315 
Q 1253 4750 1959 4750 
Q 2769 4750 3195 4129 
Q 3622 3509 3622 2328 
Q 3622 1225 3098 567 
Q 2575 -91 1691 -91 
Q 1453 -91 1209 -44 
Q 966 3 703 97 
z
M 1959 2075 
Q 2384 2075 2632 2365 
Q 2881 2656 2881 3163 
Q 2881 3666 2632 3958 
Q 2384 4250 1959 4250 
Q 1534 4250 1286 3958 
Q 1038 3666 1038 3163 
Q 1038 2656 1286 2365 
Q 1534 2075 1959 2075 
z
" transform="scale(0.015625)"/>
       </defs>
       <use xlink:href="#DejaVuSans-32"/>
       <use xlink:href="#DejaVuSans-30" x="63.623047"/>
       <use xlink:href="#DejaVuSans-32" x="127.246094"/>
       <use xlink:href="#DejaVuSans-30" x="190.869141"/>
       <use xlink:href="#DejaVuSans-2d" x="254.492188"/>
       <use xlink:href="#DejaVuSans-30" x="290.576172"/>
       <use xlink:href="#DejaVuSans-39" x="354.199219"/>
      </g>
     </g>
    </g>
    <g id="xtick_4">
     <g id="line2d_4">
      <g>
       <use xlink:href="#m5d493f243e" x="502.35677" y="368.3955" style="stroke: #000000; stroke-width: 0.8"/>
      </g>
     </g>
     <g id="text_4">
      <!-- 2021-01 -->
      <g transform="translate(481.465364 382.993937)scale(0.1 -0.1)">
       <use xlink:href="#DejaVuSans-32"/>
       <use xlink:href="#DejaVuSans-30" x="63.623047"/>
       <use xlink:href="#DejaVuSans-32" x="127.246094"/>
       <use xlink:href="#DejaVuSans-31" x="190.869141"/>
       <use xlink:href="#DejaVuSans-2d" x="254.492188"/>
       <use xlink:href="#DejaVuSans-30" x="290.576172"/>
       <use xlink:href="#DejaVuSans-31" x="354.199219"/>
      </g>
     </g>
    </g>
    <g id="xtick_5">
     <g id="line2d_5">
      <g>
       <use xlink:href="#m5d493f243e" x="640.311959" y="368.3955" style="stroke: #000000; stroke-width: 0.8"/>
      </g>
     </g>
     <g id="text_5">
      <!-- 2021-05 -->
      <g transform="translate(619.420553 382.993937)scale(0.1 -0.1)">
       <use xlink:href="#DejaVuSans-32"/>
       <use xlink:href="#DejaVuSans-30" x="63.623047"/>
       <use xlink:href="#DejaVuSans-32" x="127.246094"/>
       <use xlink:href="#DejaVuSans-31" x="190.869141"/>
       <use xlink:href="#DejaVuSans-2d" x="254.492188"/>
       <use xlink:href="#DejaVuSans-30" x="290.576172"/>
       <use xlink:href="#DejaVuSans-35" x="354.199219"/>
      </g>
     </g>
    </g>
    <g id="xtick_6">
     <g id="line2d_6">
      <g>
       <use xlink:href="#m5d493f243e" x="781.716028" y="368.3955" style="stroke: #000000; stroke-width: 0.8"/>
      </g>
     </g>
     <g id="text_6">
      <!-- 2021-09 -->
      <g transform="translate(760.824622 382.993937)scale(0.1 -0.1)">
       <use xlink:href="#DejaVuSans-32"/>
       <use xlink:href="#DejaVuSans-30" x="63.623047"/>
       <use xlink:href="#DejaVuSans-32" x="127.246094"/>
       <use xlink:href="#DejaVuSans-31" x="190.869141"/>
       <use xlink:href="#DejaVuSans-2d" x="254.492188"/>
       <use xlink:href="#DejaVuSans-30" x="290.576172"/>
       <use xlink:href="#DejaVuSans-39" x="354.199219"/>
      </g>
     </g>
    </g>
    <g id="xtick_7">
     <g id="line2d_7">
      <g>
       <use xlink:href="#m5d493f243e" x="921.970471" y="368.3955" style="stroke: #000000; stroke-width: 0.8"/>
      </g>
     </g>
     <g id="text_7">
      <!-- 2022-01 -->
      <g transform="translate(901.079064 382.993937)scale(0.1 -0.1)">
       <use xlink:href="#DejaVuSans-32"/>
       <use xlink:href="#DejaVuSans-30" x="63.623047"/>
       <use xlink:href="#DejaVuSans-32" x="127.246094"/>
       <use xlink:href="#DejaVuSans-32" x="190.869141"/>
       <use xlink:href="#DejaVuSans-2d" x="254.492188"/>
       <use xlink:href="#DejaVuSans-30" x="290.576172"/>
       <use xlink:href="#DejaVuSans-31" x="354.199219"/>
      </g>
     </g>
    </g>
    <g id="xtick_8">
     <g id="line2d_8">
      <g>
       <use xlink:href="#m5d493f243e" x="1059.92566" y="368.3955" style="stroke: #000000; stroke-width: 0.8"/>
      </g>
     </g>
     <g id="text_8">
      <!-- 2022-05 -->
      <g transform="translate(1039.034254 382.993937)scale(0.1 -0.1)">
       <use xlink:href="#DejaVuSans-32"/>
       <use xlink:href="#DejaVuSans-30" x="63.623047"/>
       <use xlink:href="#DejaVuSans-32" x="127.246094"/>
       <use xlink:href="#DejaVuSans-32" x="190.869141"/>
       <use xlink:href="#DejaVuSans-2d" x="254.492188"/>
       <use xlink:href="#DejaVuSans-30" x="290.576172"/>
       <use xlink:href="#DejaVuSans-35" x="354.199219"/>
      </g>
     </g>
    </g>
    <g id="xtick_9">
     <g id="line2d_9">
      <g>
       <use xlink:href="#m5d493f243e" x="1201.329729" y="368.3955" style="stroke: #000000; stroke-width: 0.8"/>
      </g>
     </g>
     <g id="text_9">
      <!-- 2022-09 -->
      <g transform="translate(1180.438323 382.993937)scale(0.1 -0.1)">
       <use xlink:href="#DejaVuSans-32"/>
       <use xlink:href="#DejaVuSans-30" x="63.623047"/>
       <use xlink:href="#DejaVuSans-32" x="127.246094"/>
       <use xlink:href="#DejaVuSans-32" x="190.869141"/>
       <use xlink:href="#DejaVuSans-2d" x="254.492188"/>
       <use xlink:href="#DejaVuSans-30" x="290.576172"/>
       <use xlink:href="#DejaVuSans-39" x="354.199219"/>
      </g>
     </g>
    </g>
    <g id="xtick_10">
     <g id="line2d_10">
      <g>
       <use xlink:href="#m5d493f243e" x="1341.584171" y="368.3955" style="stroke: #000000; stroke-width: 0.8"/>
      </g>
     </g>
     <g id="text_10">
      <!-- 2023-01 -->
      <g transform="translate(1320.692765 382.993937)scale(0.1 -0.1)">
       <defs>
        <path id="DejaVuSans-33" d="M 2597 2516 
Q 3050 2419 3304 2112 
Q 3559 1806 3559 1356 
Q 3559 666 3084 287 
Q 2609 -91 1734 -91 
Q 1441 -91 1130 -33 
Q 819 25 488 141 
L 488 750 
Q 750 597 1062 519 
Q 1375 441 1716 441 
Q 2309 441 2620 675 
Q 2931 909 2931 1356 
Q 2931 1769 2642 2001 
Q 2353 2234 1838 2234 
L 1294 2234 
L 1294 2753 
L 1863 2753 
Q 2328 2753 2575 2939 
Q 2822 3125 2822 3475 
Q 2822 3834 2567 4026 
Q 2313 4219 1838 4219 
Q 1578 4219 1281 4162 
Q 984 4106 628 3988 
L 628 4550 
Q 988 4650 1302 4700 
Q 1616 4750 1894 4750 
Q 2613 4750 3031 4423 
Q 3450 4097 3450 3541 
Q 3450 3153 3228 2886 
Q 3006 2619 2597 2516 
z
" transform="scale(0.015625)"/>
       </defs>
       <use xlink:href="#DejaVuSans-32"/>
       <use xlink:href="#DejaVuSans-30" x="63.623047"/>
       <use xlink:href="#DejaVuSans-32" x="127.246094"/>
       <use xlink:href="#DejaVuSans-33" x="190.869141"/>
       <use xlink:href="#DejaVuSans-2d" x="254.492188"/>
       <use xlink:href="#DejaVuSans-30" x="290.576172"/>
       <use xlink:href="#DejaVuSans-31" x="354.199219"/>
      </g>
     </g>
    </g>
   </g>
   <g id="matplotlib.axis_2">
    <g id="ytick_1">
     <g id="line2d_11">
      <defs>
       <path id="mae0470b20f" d="M 0 0 
L -3.5 0 
" style="stroke: #000000; stroke-width: 0.8"/>
      </defs>
      <g>
       <use xlink:href="#mae0470b20f" x="46.0125" y="353.2755" style="stroke: #000000; stroke-width: 0.8"/>
      </g>
     </g>
     <g id="text_11">
      <!-- 0 -->
      <g transform="translate(32.65 357.074719)scale(0.1 -0.1)">
       <use xlink:href="#DejaVuSans-30"/>
      </g>
     </g>
    </g>
    <g id="ytick_2">
     <g id="line2d_12">
      <g>
       <use xlink:href="#mae0470b20f" x="46.0125" y="300.064168" style="stroke: #000000; stroke-width: 0.8"/>
      </g>
     </g>
     <g id="text_12">
      <!-- 2000 -->
      <g transform="translate(13.5625 303.863387)scale(0.1 -0.1)">
       <use xlink:href="#DejaVuSans-32"/>
       <use xlink:href="#DejaVuSans-30" x="63.623047"/>
       <use xlink:href="#DejaVuSans-30" x="127.246094"/>
       <use xlink:href="#DejaVuSans-30" x="190.869141"/>
      </g>
     </g>
    </g>
    <g id="ytick_3">
     <g id="line2d_13">
      <g>
       <use xlink:href="#mae0470b20f" x="46.0125" y="246.852836" style="stroke: #000000; stroke-width: 0.8"/>
      </g>
     </g>
     <g id="text_13">
      <!-- 4000 -->
      <g transform="translate(13.5625 250.652055)scale(0.1 -0.1)">
       <defs>
        <path id="DejaVuSans-34" d="M 2419 4116 
L 825 1625 
L 2419 1625 
L 2419 4116 
z
M 2253 4666 
L 3047 4666 
L 3047 1625 
L 3713 1625 
L 3713 1100 
L 3047 1100 
L 3047 0 
L 2419 0 
L 2419 1100 
L 313 1100 
L 313 1709 
L 2253 4666 
z
" transform="scale(0.015625)"/>
       </defs>
       <use xlink:href="#DejaVuSans-34"/>
       <use xlink:href="#DejaVuSans-30" x="63.623047"/>
       <use xlink:href="#DejaVuSans-30" x="127.246094"/>
       <use xlink:href="#DejaVuSans-30" x="190.869141"/>
      </g>
     </g>
    </g>
    <g id="ytick_4">
     <g id="line2d_14">
      <g>
       <use xlink:href="#mae0470b20f" x="46.0125" y="193.641504" style="stroke: #000000; stroke-width: 0.8"/>
      </g>
     </g>
     <g id="text_14">
      <!-- 6000 -->
      <g transform="translate(13.5625 197.440723)scale(0.1 -0.1)">
       <defs>
        <path id="DejaVuSans-36" d="M 2113 2584 
Q 1688 2584 1439 2293 
Q 1191 2003 1191 1497 
Q 1191 994 1439 701 
Q 1688 409 2113 409 
Q 2538 409 2786 701 
Q 3034 994 3034 1497 
Q 3034 2003 2786 2293 
Q 2538 2584 2113 2584 
z
M 3366 4563 
L 3366 3988 
Q 3128 4100 2886 4159 
Q 2644 4219 2406 4219 
Q 1781 4219 1451 3797 
Q 1122 3375 1075 2522 
Q 1259 2794 1537 2939 
Q 1816 3084 2150 3084 
Q 2853 3084 3261 2657 
Q 3669 2231 3669 1497 
Q 3669 778 3244 343 
Q 2819 -91 2113 -91 
Q 1303 -91 875 529 
Q 447 1150 447 2328 
Q 447 3434 972 4092 
Q 1497 4750 2381 4750 
Q 2619 4750 2861 4703 
Q 3103 4656 3366 4563 
z
" transform="scale(0.015625)"/>
       </defs>
       <use xlink:href="#DejaVuSans-36"/>
       <use xlink:href="#DejaVuSans-30" x="63.623047"/>
       <use xlink:href="#DejaVuSans-30" x="127.246094"/>
       <use xlink:href="#DejaVuSans-30" x="190.869141"/>
      </g>
     </g>
    </g>
    <g id="ytick_5">
     <g id="line2d_15">
      <g>
       <use xlink:href="#mae0470b20f" x="46.0125" y="140.430172" style="stroke: #000000; stroke-width: 0.8"/>
      </g>
     </g>
     <g id="text_15">
      <!-- 8000 -->
      <g transform="translate(13.5625 144.229391)scale(0.1 -0.1)">
       <defs>
        <path id="DejaVuSans-38" d="M 2034 2216 
Q 1584 2216 1326 1975 
Q 1069 1734 1069 1313 
Q 1069 891 1326 650 
Q 1584 409 2034 409 
Q 2484 409 2743 651 
Q 3003 894 3003 1313 
Q 3003 1734 2745 1975 
Q 2488 2216 2034 2216 
z
M 1403 2484 
Q 997 2584 770 2862 
Q 544 3141 544 3541 
Q 544 4100 942 4425 
Q 1341 4750 2034 4750 
Q 2731 4750 3128 4425 
Q 3525 4100 3525 3541 
Q 3525 3141 3298 2862 
Q 3072 2584 2669 2484 
Q 3125 2378 3379 2068 
Q 3634 1759 3634 1313 
Q 3634 634 3220 271 
Q 2806 -91 2034 -91 
Q 1263 -91 848 271 
Q 434 634 434 1313 
Q 434 1759 690 2068 
Q 947 2378 1403 2484 
z
M 1172 3481 
Q 1172 3119 1398 2916 
Q 1625 2713 2034 2713 
Q 2441 2713 2670 2916 
Q 2900 3119 2900 3481 
Q 2900 3844 2670 4047 
Q 2441 4250 2034 4250 
Q 1625 4250 1398 4047 
Q 1172 3844 1172 3481 
z
" transform="scale(0.015625)"/>
       </defs>
       <use xlink:href="#DejaVuSans-38"/>
       <use xlink:href="#DejaVuSans-30" x="63.623047"/>
       <use xlink:href="#DejaVuSans-30" x="127.246094"/>
       <use xlink:href="#DejaVuSans-30" x="190.869141"/>
      </g>
     </g>
    </g>
    <g id="ytick_6">
     <g id="line2d_16">
      <g>
       <use xlink:href="#mae0470b20f" x="46.0125" y="87.21884" style="stroke: #000000; stroke-width: 0.8"/>
      </g>
     </g>
     <g id="text_16">
      <!-- 10000 -->
      <g transform="translate(7.2 91.018059)scale(0.1 -0.1)">
       <use xlink:href="#DejaVuSans-31"/>
       <use xlink:href="#DejaVuSans-30" x="63.623047"/>
       <use xlink:href="#DejaVuSans-30" x="127.246094"/>
       <use xlink:href="#DejaVuSans-30" x="190.869141"/>
       <use xlink:href="#DejaVuSans-30" x="254.492188"/>
      </g>
     </g>
    </g>
   </g>
   <g id="line2d_17">
    <path d="M 106.885227 353.2755 
L 165.516183 353.169077 
L 168.965062 352.849809 
L 170.114689 353.08926 
L 172.413942 352.929626 
L 173.563569 353.169077 
L 174.713195 353.142472 
L 175.862822 352.876415 
L 177.012448 353.142472 
L 178.162075 353.2755 
L 179.311702 353.169077 
L 180.461328 353.2755 
L 181.610955 353.08926 
L 183.910208 353.142472 
L 185.059835 352.716781 
L 186.209461 353.195683 
L 190.807967 353.009443 
L 191.957594 353.222289 
L 193.107221 353.08926 
L 196.5561 353.2755 
L 198.855353 352.956232 
L 200.00498 353.08926 
L 201.154607 352.849809 
L 202.304233 353.142472 
L 203.45386 353.2755 
L 206.90274 352.823204 
L 208.052366 352.397513 
L 209.201993 353.115866 
L 212.650872 351.892005 
L 213.800499 352.211273 
L 214.950126 351.599343 
L 216.099752 351.546132 
L 217.249379 352.450724 
L 218.399005 352.47733 
L 219.548632 352.903021 
L 220.698258 352.557147 
L 221.847885 352.876415 
L 222.997512 352.929626 
L 224.147138 352.397513 
L 225.296765 352.743387 
L 226.446391 352.583753 
L 227.596018 352.557147 
L 228.745644 352.982838 
L 231.044898 352.849809 
L 232.194524 353.115866 
L 233.344151 352.743387 
L 234.493777 352.583753 
L 235.643404 353.009443 
L 236.793031 353.009443 
L 237.942657 352.610358 
L 239.092284 352.716781 
L 240.24191 352.982838 
L 241.391537 352.344302 
L 242.541163 353.248894 
L 243.69079 352.557147 
L 244.840417 352.929626 
L 245.990043 352.716781 
L 247.13967 351.892005 
L 248.289296 352.184668 
L 249.438923 349.630524 
L 250.588549 349.28465 
L 251.738176 351.652554 
L 252.887803 352.530541 
L 254.037429 351.625949 
L 255.187056 352.929626 
L 256.336682 353.009443 
L 258.635935 351.519526 
L 259.785562 351.998428 
L 260.935189 353.169077 
L 263.234442 352.716781 
L 264.384068 352.690175 
L 265.533695 353.222289 
L 266.683322 353.009443 
L 271.281828 353.142472 
L 272.431454 352.849809 
L 273.581081 353.009443 
L 274.730708 353.036049 
L 275.880334 352.66357 
L 277.029961 353.195683 
L 279.329214 353.2755 
L 280.47884 353.248894 
L 281.628467 352.211273 
L 282.778094 353.009443 
L 285.077347 353.169077 
L 286.226973 352.769992 
L 287.3766 353.169077 
L 288.526227 353.222289 
L 289.675853 353.062655 
L 290.82548 353.08926 
L 291.975106 352.956232 
L 293.124733 353.195683 
L 294.274359 353.142472 
L 296.573613 353.248894 
L 297.723239 353.169077 
L 298.872866 352.929626 
L 300.022492 351.67916 
L 301.172119 345.2938 
L 302.321745 351.758977 
L 303.471372 350.455299 
L 304.620999 352.503936 
L 306.920252 353.115866 
L 308.069878 352.849809 
L 310.369131 353.115866 
L 311.518758 352.716781 
L 312.668385 353.115866 
L 313.818011 353.2755 
L 314.967638 352.690175 
L 316.117264 353.248894 
L 317.266891 352.982838 
L 318.416518 353.115866 
L 319.566144 352.956232 
L 320.715771 352.66357 
L 321.865397 353.142472 
L 323.015024 353.2755 
L 324.16465 353.169077 
L 326.463904 353.2755 
L 327.61353 353.062655 
L 329.912783 353.115866 
L 335.660916 353.195683 
L 336.810543 352.557147 
L 337.960169 353.036049 
L 339.109796 353.248894 
L 343.708302 353.195683 
L 344.857929 353.08926 
L 347.157182 353.2755 
L 348.306809 352.849809 
L 349.456435 352.66357 
L 350.606062 353.115866 
L 352.905315 353.115866 
L 354.054941 352.956232 
L 355.204568 352.929626 
L 356.354195 353.222289 
L 358.653448 353.115866 
L 359.803074 352.823204 
L 360.952701 352.29109 
L 362.102327 352.131456 
L 363.251954 353.036049 
L 364.401581 353.009443 
L 365.551207 353.169077 
L 366.700834 353.115866 
L 369.000087 353.2755 
L 370.149713 352.823204 
L 371.29934 353.08926 
L 372.448967 353.062655 
L 373.598593 352.903021 
L 375.897846 352.237879 
L 377.047473 352.530541 
L 378.1971 353.036049 
L 379.346726 353.2755 
L 380.496353 353.142472 
L 383.945232 353.169077 
L 385.094859 352.956232 
L 386.244486 352.903021 
L 388.543739 353.036049 
L 389.693365 352.956232 
L 390.842992 353.169077 
L 391.992618 352.982838 
L 393.142245 353.195683 
L 394.291872 352.982838 
L 396.591125 353.222289 
L 398.890378 353.08926 
L 400.040005 353.08926 
L 401.189631 350.322271 
L 402.339258 333.613913 
L 403.488884 347.768127 
L 404.638511 352.503936 
L 405.788137 352.344302 
L 406.937764 350.481905 
L 408.087391 349.976397 
L 409.237017 350.827779 
L 410.386644 348.114001 
L 412.685897 351.306681 
L 413.835523 350.348877 
L 414.98515 350.056214 
L 416.134777 351.599343 
L 417.284403 350.960807 
L 418.43403 348.326846 
L 419.583656 348.832354 
L 420.733283 345.054349 
L 421.882909 330.234993 
L 423.032536 343.484615 
L 424.182163 343.936911 
L 425.331789 338.881835 
L 426.481416 341.116711 
L 427.631042 344.362602 
L 428.780669 337.68458 
L 429.930296 336.434113 
L 431.079922 346.916746 
L 432.229549 342.713051 
L 433.379175 345.958942 
L 434.528802 342.393783 
L 435.678428 341.48919 
L 436.828055 343.08553 
L 437.977682 342.633234 
L 439.127308 341.329556 
L 440.276935 339.70661 
L 441.426561 343.803883 
L 442.576188 341.835064 
L 443.725814 336.380902 
L 444.875441 343.351587 
L 446.025068 340.824048 
L 447.174694 342.846079 
L 448.324321 334.545111 
L 449.473947 342.979107 
L 450.623574 342.606628 
L 451.7732 344.575447 
L 452.922827 341.595613 
L 454.072454 341.595613 
L 455.22208 340.212118 
L 456.371707 342.633234 
L 457.521333 344.309391 
L 458.67096 341.063499 
L 459.820587 339.919456 
L 460.970213 338.402933 
L 462.11984 340.69102 
L 463.269466 340.318541 
L 465.568719 339.89285 
L 466.718346 338.775412 
L 467.867973 329.915725 
L 469.017599 336.567142 
L 470.167226 339.413948 
L 471.316852 335.476309 
L 472.466479 336.008423 
L 473.616105 334.571717 
L 474.765732 332.044179 
L 475.915359 334.811168 
L 477.064985 338.881835 
L 478.214612 333.001982 
L 479.364238 333.055194 
L 480.513865 335.848789 
L 481.663492 334.970802 
L 482.813118 336.168057 
L 483.962745 336.88641 
L 485.112371 335.981817 
L 486.261998 335.662549 
L 487.411624 336.833198 
L 488.561251 337.471734 
L 489.710878 343.431404 
L 490.860504 341.888275 
L 492.010131 337.844214 
L 493.159757 337.524946 
L 494.309384 338.615778 
L 495.45901 337.365312 
L 496.608637 335.343281 
L 497.758264 338.668989 
L 498.90789 341.223133 
L 500.057517 336.08824 
L 501.207143 337.391917 
L 503.506396 339.573582 
L 504.656023 342.553417 
L 505.80565 340.824048 
L 506.955276 340.398358 
L 508.104903 339.387342 
L 509.254529 339.121286 
L 510.404156 339.307525 
L 511.553783 339.041469 
L 512.703409 338.90844 
L 513.853036 338.136876 
L 515.002662 337.631368 
L 516.152289 334.864379 
L 517.301915 335.449704 
L 520.750795 333.347856 
L 521.900422 334.970802 
L 523.050048 335.476309 
L 524.199675 332.789137 
L 525.349301 329.676274 
L 526.498928 332.336841 
L 527.648555 334.012998 
L 528.798181 330.846924 
L 529.947808 333.667124 
L 532.247061 332.735926 
L 533.396687 329.543246 
L 534.546314 330.421233 
L 535.695941 330.713895 
L 536.845567 330.288205 
L 537.995194 331.29922 
L 539.14482 334.252449 
L 541.444074 334.4919 
L 542.5937 333.720335 
L 543.743327 333.959786 
L 544.892953 332.735926 
L 546.04258 329.676274 
L 547.192206 327.30837 
L 548.341833 327.654244 
L 549.49146 328.212963 
L 550.641086 328.266174 
L 551.790713 332.09739 
L 552.940339 331.937756 
L 554.089966 332.682714 
L 555.239592 333.161616 
L 556.389219 334.066209 
L 557.538846 339.600188 
L 558.688472 339.520371 
L 559.838099 338.828623 
L 560.987725 339.467159 
L 562.137352 339.493765 
L 563.286978 340.185512 
L 564.436605 341.090105 
L 565.586232 340.87726 
L 566.735858 340.052484 
L 567.885485 341.036894 
L 569.035111 347.847944 
L 570.184738 341.090105 
L 571.334365 344.814898 
L 572.483991 343.803883 
L 573.633618 343.058924 
L 574.783244 343.963517 
L 575.932871 348.220423 
L 577.082497 338.775412 
L 578.232124 344.123151 
L 579.381751 345.187378 
L 580.531377 344.176362 
L 581.681004 345.187378 
L 582.83063 345.373617 
L 583.980257 344.921321 
L 585.129883 345.107561 
L 586.27951 344.469025 
L 587.429137 349.178227 
L 588.578763 340.770837 
L 589.72839 348.965382 
L 590.878016 340.69102 
L 592.027643 349.071805 
L 593.17727 338.775412 
L 594.326896 344.921321 
L 595.476523 346.597478 
L 596.626149 346.544266 
L 597.775776 346.065365 
L 598.925402 346.038759 
L 600.075029 345.879125 
L 602.374282 347.555282 
L 603.523909 349.577312 
L 604.673535 346.251604 
L 605.823162 347.661704 
L 606.972788 347.661704 
L 608.122415 348.832354 
L 609.272042 349.524101 
L 610.421668 349.045199 
L 611.571295 350.747962 
L 613.870548 344.149757 
L 616.169801 345.719491 
L 617.319428 345.746097 
L 618.469054 346.27821 
L 619.618681 347.262619 
L 620.768307 350.641539 
L 621.917934 347.156197 
L 623.067561 346.969957 
L 624.217187 348.805748 
L 625.366814 341.515796 
L 626.51644 345.054349 
L 627.666067 343.511221 
L 628.815693 337.897425 
L 629.96532 335.396492 
L 631.114947 332.09739 
L 632.264573 324.860649 
L 633.4142 332.177207 
L 634.563826 326.749651 
L 635.713453 323.716605 
L 636.863079 314.271594 
L 638.012706 312.542225 
L 639.162333 309.056883 
L 640.311959 307.620177 
L 641.461586 302.964186 
L 642.611212 302.112804 
L 643.760839 302.352255 
L 644.910465 301.687114 
L 646.060092 302.857763 
L 647.209719 302.352255 
L 648.359345 302.831157 
L 649.508972 282.18516 
L 650.658598 283.462232 
L 651.808225 284.95215 
L 652.957852 288.650337 
L 654.107478 292.907244 
L 655.257105 292.37513 
L 656.406731 289.794381 
L 657.556358 292.74761 
L 658.705984 287.931984 
L 659.855611 286.282433 
L 661.005238 256.883172 
L 662.154864 261.672192 
L 663.304491 258.905203 
L 664.454117 275.879618 
L 665.603744 274.549334 
L 666.75337 274.230066 
L 667.902997 280.695243 
L 669.052624 290.033832 
L 670.20225 284.526459 
L 671.351877 277.449352 
L 672.501503 276.597971 
L 673.65113 277.209901 
L 674.800757 275.799801 
L 675.950383 276.730999 
L 677.10001 265.317168 
L 678.249636 265.556619 
L 679.399263 262.550179 
L 680.548889 270.718118 
L 681.698516 274.097038 
L 682.848143 282.876908 
L 683.997769 281.919104 
L 685.147396 280.509003 
L 686.297022 280.429186 
L 687.446649 293.891653 
L 688.596275 275.826406 
L 689.745902 290.459523 
L 690.895529 292.508159 
L 692.045155 291.177876 
L 693.194782 288.464098 
L 694.344408 290.16686 
L 695.494035 290.778791 
L 696.643661 293.465963 
L 697.793288 299.319209 
L 698.942915 296.578826 
L 700.092541 297.589841 
L 701.242168 294.849457 
L 702.391794 301.633902 
L 703.541421 303.363271 
L 704.691048 304.72016 
L 705.840674 303.602722 
L 706.990301 302.990791 
L 708.139927 307.593571 
L 709.289554 303.682539 
L 710.43918 303.177031 
L 711.588807 304.773371 
L 712.738434 319.699149 
L 713.88806 311.424787 
L 715.037687 330.155176 
L 716.187313 328.425808 
L 717.33694 320.204657 
L 718.486566 319.486304 
L 719.636193 312.382591 
L 720.78582 312.089929 
L 721.935446 313.180761 
L 723.085073 311.557816 
L 724.234699 315.681694 
L 725.384326 312.302774 
L 726.533952 313.792692 
L 727.683579 312.914705 
L 728.833206 314.644073 
L 729.982832 315.495454 
L 732.282085 311.930295 
L 733.431712 310.600012 
L 734.581339 307.487149 
L 735.730965 318.422078 
L 736.880592 293.625597 
L 738.030218 308.95046 
L 739.179845 308.977066 
L 740.329471 307.753205 
L 741.479098 301.660508 
L 742.628725 290.220072 
L 743.778351 287.825562 
L 744.927978 296.073318 
L 746.077604 285.776925 
L 747.227231 288.889788 
L 748.376857 288.091618 
L 750.676111 282.664062 
L 751.825737 278.939269 
L 752.975364 304.853188 
L 754.12499 248.156514 
L 755.274617 274.708968 
L 756.424243 276.012646 
L 757.57387 187.575412 
L 758.723497 272.420881 
L 761.02275 266.461212 
L 762.172376 261.885037 
L 763.322003 256.430876 
L 764.47163 165.040413 
L 765.621256 255.473072 
L 766.770883 252.014335 
L 767.920509 123.216306 
L 769.070136 249.939093 
L 770.219762 238.764713 
L 771.369389 237.407824 
L 772.519016 234.986709 
L 773.668642 114.702493 
L 774.818269 230.836225 
L 775.967895 231.128887 
L 777.117522 230.995859 
L 778.267148 230.570168 
L 779.416775 89.560138 
L 780.566402 240.972984 
L 781.716028 251.42901 
L 782.865655 256.776749 
L 784.015281 256.324453 
L 785.164908 353.2755 
L 786.314535 50.8755 
L 787.464161 268.616271 
L 788.613788 195.929591 
L 789.763414 275.666772 
L 790.913041 277.289718 
L 792.062667 277.662197 
L 793.212294 278.726424 
L 794.361921 282.98333 
L 796.661174 287.426477 
L 797.8108 207.84893 
L 798.960427 292.854032 
L 800.110053 297.988926 
L 801.25968 300.436647 
L 802.409307 307.167881 
L 804.70856 318.129415 
L 805.858186 317.570696 
L 807.007813 316.878949 
L 808.157439 317.836753 
L 809.307066 322.439533 
L 810.456693 324.594592 
L 811.606319 327.12213 
L 812.755946 328.479019 
L 813.905572 328.239568 
L 815.055199 329.011133 
L 816.204826 316.080779 
L 817.354452 330.527656 
L 818.504079 331.937756 
L 819.653705 332.363447 
L 820.803332 332.416658 
L 823.102585 332.735926 
L 824.252212 316.373441 
L 825.401838 333.959786 
L 826.551465 334.11942 
L 827.701091 335.157041 
L 828.850718 335.423098 
L 830.000344 335.183647 
L 831.149971 317.623908 
L 832.299598 335.556126 
L 833.449224 336.008423 
L 834.598851 337.897425 
L 835.748477 338.11027 
L 836.898104 338.695595 
L 838.04773 338.935046 
L 839.197357 338.509355 
L 840.346984 323.610182 
L 841.49661 338.535961 
L 842.646237 338.509355 
L 843.795863 338.349721 
L 844.94549 338.48275 
L 846.095117 323.50376 
L 847.244743 338.90844 
L 848.39437 338.48275 
L 849.543996 338.243299 
L 850.693623 324.222113 
L 851.843249 338.216693 
L 854.142503 337.817608 
L 855.292129 337.524946 
L 856.441756 336.567142 
L 857.591382 336.859804 
L 858.741009 336.620353 
L 859.890635 335.210253 
L 861.040262 334.172632 
L 862.189889 334.837773 
L 863.339515 334.252449 
L 864.489142 334.039603 
L 865.638768 334.225843 
L 866.788395 304.241258 
L 867.938022 328.505625 
L 869.087648 334.11942 
L 872.536528 333.454279 
L 873.686154 333.986392 
L 874.835781 334.731351 
L 875.985408 333.720335 
L 877.135034 313.393607 
L 878.284661 333.454279 
L 879.434287 333.587307 
L 880.583914 334.279054 
L 881.73354 334.146026 
L 882.883167 333.534096 
L 884.032794 333.401067 
L 885.18242 334.066209 
L 886.332047 333.480884 
L 887.481673 333.640518 
L 888.6313 333.986392 
L 889.780926 333.587307 
L 890.930553 333.427673 
L 892.08018 333.560701 
L 894.379433 333.135011 
L 895.529059 333.480884 
L 897.828313 333.001982 
L 898.977939 334.279054 
L 900.127566 333.401067 
L 901.277192 285.56408 
L 902.426819 332.735926 
L 903.576445 333.108405 
L 904.726072 334.252449 
L 905.875699 334.784562 
L 907.025325 338.615778 
L 908.174952 339.334131 
L 909.324578 334.30566 
L 910.474205 335.369887 
L 911.623831 338.535961 
L 912.773458 338.030453 
L 913.923085 339.201103 
L 915.072711 342.686445 
L 916.222338 341.090105 
L 917.371964 340.531386 
L 918.521591 310.786251 
L 919.671217 338.29651 
L 920.820844 339.999273 
L 921.970471 343.936911 
L 923.120097 344.256179 
L 924.269724 343.564432 
L 925.41935 336.540536 
L 926.568977 338.642384 
L 927.718604 337.737791 
L 928.86823 337.631368 
L 930.017857 337.844214 
L 931.167483 341.67543 
L 932.31711 341.010288 
L 933.466736 328.159751 
L 934.616363 335.902 
L 935.76599 337.471734 
L 936.915616 335.263464 
L 938.065243 335.689155 
L 939.214869 334.91759 
L 940.364496 334.970802 
L 941.514122 335.396492 
L 942.663749 331.219403 
L 943.813376 331.272614 
L 944.963002 330.926741 
L 946.112629 330.793712 
L 947.262255 330.979952 
L 948.411882 329.942331 
L 949.561508 329.569852 
L 950.711135 328.612048 
L 951.860762 286.149405 
L 953.010388 327.707455 
L 954.160015 327.148736 
L 955.309641 325.179917 
L 956.459268 324.488169 
L 957.608895 323.024858 
L 958.758521 322.51935 
L 959.908148 321.854208 
L 961.057774 320.204657 
L 963.357027 317.863359 
L 964.506654 294.423767 
L 965.656281 319.9386 
L 966.805907 319.672544 
L 967.955534 318.767951 
L 969.10516 319.778966 
L 970.254787 322.359716 
L 971.404413 322.678984 
L 972.55404 320.523925 
L 973.703667 319.965206 
L 974.853293 320.896404 
L 976.00292 320.417502 
L 977.152546 319.167036 
L 978.302173 319.406487 
L 979.4518 320.523925 
L 980.601426 321.189067 
L 981.751053 319.911995 
L 982.900679 319.193642 
L 984.050306 321.135855 
L 985.199932 319.060613 
L 986.349559 326.989102 
L 987.499186 327.281764 
L 988.648812 326.749651 
L 989.798439 328.957921 
L 990.948065 333.294645 
L 992.097692 334.358871 
L 993.247318 337.764397 
L 994.396945 336.274479 
L 995.546572 339.759822 
L 996.696198 335.662549 
L 997.845825 294.024682 
L 998.995451 318.501895 
L 1000.145078 337.844214 
L 1002.444331 344.043334 
L 1003.593958 345.001138 
L 1004.743584 344.096545 
L 1005.893211 341.888275 
L 1007.042837 344.761687 
L 1008.192464 345.267195 
L 1009.342091 345.613068 
L 1010.491717 346.943351 
L 1011.641344 346.996563 
L 1012.79097 345.400223 
L 1013.940597 316.93216 
L 1015.090223 345.506646 
L 1016.23985 346.677295 
L 1017.389477 347.049774 
L 1019.68873 350.801173 
L 1021.987983 347.102985 
L 1023.137609 348.805748 
L 1024.287236 348.539691 
L 1025.436863 349.28465 
L 1026.586489 350.508511 
L 1030.035369 350.26906 
L 1031.184995 349.923186 
L 1032.334622 351.06723 
L 1033.484249 351.147047 
L 1034.633875 351.838794 
L 1035.783502 352.397513 
L 1036.933128 351.546132 
L 1038.082755 351.67916 
L 1039.232382 352.450724 
L 1041.531635 352.769992 
L 1042.681261 352.397513 
L 1043.830888 353.2755 
L 1044.980514 351.014018 
L 1046.130141 352.397513 
L 1047.279768 351.652554 
L 1048.429394 352.344302 
L 1049.579021 351.945217 
L 1050.728647 352.211273 
L 1051.878274 353.2755 
L 1053.0279 351.572737 
L 1054.177527 352.104851 
L 1055.327154 353.2755 
L 1056.47678 351.625949 
L 1057.626407 352.530541 
L 1058.776033 352.397513 
L 1059.92566 352.982838 
L 1061.075287 352.344302 
L 1062.224913 352.796598 
L 1063.37454 352.131456 
L 1064.524166 352.370907 
L 1065.673793 352.823204 
L 1066.823419 352.929626 
L 1067.973046 352.530541 
L 1069.122673 353.2755 
L 1070.272299 352.317696 
L 1071.421926 352.823204 
L 1073.721179 352.66357 
L 1074.870805 353.062655 
L 1078.319685 352.982838 
L 1079.469312 352.450724 
L 1080.618938 352.876415 
L 1081.768565 353.115866 
L 1084.067818 353.036049 
L 1085.217445 353.08926 
L 1086.367071 352.903021 
L 1087.516698 353.08926 
L 1088.666324 352.903021 
L 1089.815951 353.169077 
L 1090.965578 353.062655 
L 1092.115204 353.169077 
L 1094.414457 352.982838 
L 1095.564084 353.169077 
L 1099.012964 353.036049 
L 1100.16259 353.08926 
L 1101.312217 352.876415 
L 1103.61147 353.115866 
L 1104.761096 352.849809 
L 1105.910723 353.142472 
L 1107.06035 352.876415 
L 1110.509229 353.142472 
L 1111.658856 353.2755 
L 1112.808482 353.009443 
L 1113.958109 353.036049 
L 1115.107736 353.2755 
L 1116.257362 353.142472 
L 1117.406989 352.716781 
L 1118.556615 353.062655 
L 1119.706242 352.796598 
L 1122.005495 353.142472 
L 1123.155122 352.929626 
L 1124.304748 352.876415 
L 1126.604001 353.062655 
L 1128.903255 352.929626 
L 1130.052881 352.876415 
L 1131.202508 352.956232 
L 1132.352134 352.823204 
L 1134.651387 352.929626 
L 1135.801014 353.195683 
L 1136.950641 352.743387 
L 1138.100267 352.796598 
L 1139.249894 352.716781 
L 1140.39952 352.823204 
L 1142.698773 352.66357 
L 1143.8484 352.47733 
L 1144.998027 352.769992 
L 1146.147653 352.610358 
L 1147.29728 352.610358 
L 1148.446906 352.370907 
L 1149.596533 351.625949 
L 1150.74616 351.625949 
L 1151.895786 351.280075 
L 1153.045413 351.758977 
L 1154.195039 351.466315 
L 1155.344666 351.359892 
L 1156.494292 351.785583 
L 1157.643919 351.280075 
L 1158.793546 350.109426 
L 1159.943172 353.2755 
L 1161.092799 345.692885 
L 1162.242425 348.912171 
L 1163.392052 351.06723 
L 1164.541678 350.26906 
L 1165.691305 350.402088 
L 1167.990558 350.029609 
L 1169.140185 349.391073 
L 1170.289811 348.459874 
L 1171.439438 348.832354 
L 1172.589065 348.380057 
L 1173.738691 348.48648 
L 1174.888318 347.581887 
L 1176.037944 347.236014 
L 1177.187571 348.273635 
L 1178.337197 348.965382 
L 1179.486824 348.459874 
L 1180.636451 350.721356 
L 1181.786077 349.843369 
L 1182.935704 348.087395 
L 1184.08533 348.991988 
L 1185.234957 348.858959 
L 1186.384583 348.912171 
L 1187.53421 353.2755 
L 1188.683837 347.794733 
L 1189.833463 350.535116 
L 1190.98309 347.262619 
L 1192.132716 350.481905 
L 1193.282343 350.242454 
L 1194.431969 351.732371 
L 1195.581596 351.838794 
L 1196.731223 351.785583 
L 1197.880849 351.413103 
L 1199.030476 351.306681 
L 1200.180102 351.572737 
L 1202.479356 351.705766 
L 1203.628982 351.945217 
L 1204.778609 351.971822 
L 1207.077862 352.397513 
L 1208.227488 352.051639 
L 1209.377115 352.104851 
L 1210.526742 352.344302 
L 1211.676368 352.424119 
L 1212.825995 352.317696 
L 1213.975621 352.557147 
L 1215.125248 352.47733 
L 1216.274874 352.796598 
L 1217.424501 353.2755 
L 1218.574128 351.918611 
L 1219.723754 352.929626 
L 1220.873381 352.929626 
L 1222.023007 352.716781 
L 1223.172634 352.636964 
L 1224.32226 352.903021 
L 1225.471887 352.929626 
L 1226.621514 352.823204 
L 1228.920767 353.2755 
L 1230.070393 352.636964 
L 1231.22002 352.903021 
L 1232.369647 352.823204 
L 1235.818526 353.08926 
L 1238.117779 352.876415 
L 1239.267406 353.062655 
L 1240.417033 353.08926 
L 1241.566659 352.796598 
L 1242.716286 353.115866 
L 1243.865912 352.929626 
L 1245.015539 352.956232 
L 1246.165165 353.169077 
L 1247.314792 352.982838 
L 1248.464419 352.956232 
L 1249.614045 353.195683 
L 1250.763672 353.2755 
L 1251.913298 352.769992 
L 1253.062925 353.195683 
L 1255.362178 352.929626 
L 1256.511805 353.009443 
L 1257.661431 352.903021 
L 1261.110311 353.142472 
L 1264.559191 352.876415 
L 1265.708817 353.08926 
L 1266.858444 352.903021 
L 1268.00807 353.2755 
L 1269.157697 352.769992 
L 1270.307324 352.823204 
L 1271.45695 352.66357 
L 1272.606577 352.876415 
L 1273.756203 348.566297 
L 1274.90583 353.062655 
L 1277.205083 353.062655 
L 1278.35471 353.115866 
L 1279.504336 352.849809 
L 1280.653963 353.169077 
L 1281.803589 352.876415 
L 1282.953216 352.876415 
L 1284.102843 352.690175 
L 1285.252469 352.982838 
L 1286.402096 352.903021 
L 1287.551722 352.636964 
L 1288.701349 353.009443 
L 1289.850975 352.849809 
L 1291.000602 352.849809 
L 1292.150229 353.2755 
L 1293.299855 352.610358 
L 1294.449482 352.636964 
L 1295.599108 352.823204 
L 1296.748735 352.66357 
L 1297.898361 352.636964 
L 1301.347241 353.169077 
L 1302.496868 353.036049 
L 1303.646494 352.743387 
L 1305.945747 353.142472 
L 1308.245001 353.062655 
L 1308.245001 353.062655 
" clip-path="url(#p5ad1040d4c)" style="fill: none; stroke: #0000ff; stroke-width: 1.5; stroke-linecap: square"/>
   </g>
   <g id="line2d_18">
    <path d="M 1067.973046 352.566835 
L 1071.421926 352.787573 
L 1072.571552 352.676973 
L 1080.618938 352.930184 
L 1081.768565 352.811646 
L 1094.414457 353.08316 
L 1116.257362 353.076754 
L 1118.556615 353.105984 
L 1120.855869 353.009036 
L 1123.155122 352.974458 
L 1125.454375 352.983654 
L 1132.352134 352.942071 
L 1143.8484 352.802531 
L 1150.74616 352.510782 
L 1153.045413 352.033729 
L 1154.195039 351.835405 
L 1158.793546 351.634985 
L 1161.092799 351.245631 
L 1162.242425 351.382989 
L 1163.392052 349.860642 
L 1164.541678 349.708939 
L 1165.691305 350.070468 
L 1169.140185 350.182878 
L 1170.289811 350.09614 
L 1171.439438 349.823632 
L 1172.589065 349.433603 
L 1176.037944 348.769104 
L 1178.337197 348.103643 
L 1180.636451 348.399371 
L 1181.786077 348.560319 
L 1182.935704 349.160222 
L 1184.08533 349.256639 
L 1185.234957 348.959143 
L 1187.53421 348.933215 
L 1188.683837 349.201972 
L 1189.833463 350.091541 
L 1190.98309 349.567906 
L 1192.132716 349.654829 
L 1193.282343 349.132465 
L 1196.731223 350.418819 
L 1197.880849 350.846026 
L 1199.030476 351.10743 
L 1208.227488 351.901982 
L 1209.377115 352.030426 
L 1212.825995 352.161629 
L 1219.723754 352.690811 
L 1220.873381 352.520418 
L 1223.172634 352.717532 
L 1226.621514 352.767567 
L 1232.369647 352.891105 
L 1240.417033 352.957837 
L 1245.015539 352.995679 
L 1250.763672 353.010928 
L 1253.062925 353.101817 
L 1254.212552 353.028044 
L 1256.511805 353.059724 
L 1262.259938 352.986508 
L 1265.708817 352.998957 
L 1269.157697 352.992727 
L 1270.307324 353.046593 
L 1273.756203 352.850573 
L 1274.90583 352.586626 
L 1276.055456 351.651114 
L 1277.205083 352.075764 
L 1279.504336 352.577966 
L 1281.803589 352.782482 
L 1284.102843 352.879784 
L 1293.299855 352.88497 
L 1294.449482 352.961444 
L 1296.748735 352.801792 
L 1302.496868 352.843526 
L 1304.796121 352.946385 
L 1307.095374 352.935136 
L 1308.245001 352.992971 
L 1308.245001 352.992971 
" clip-path="url(#p5ad1040d4c)" style="fill: none; stroke: #ffa500; stroke-width: 1.5; stroke-linecap: square"/>
   </g>
   <g id="line2d_19">
    <path d="M 1309.394627 353.0141 
L 1310.544254 353.025761 
L 1311.69388 353.022961 
L 1312.843507 353.023633 
L 1313.993134 353.023472 
L 1315.14276 353.023511 
L 1316.292387 353.023501 
L 1317.442013 353.023504 
L 1318.59164 353.023503 
L 1319.741266 353.023503 
L 1320.890893 353.023503 
L 1322.04052 353.023503 
L 1323.190146 353.023503 
L 1324.339773 353.023503 
" clip-path="url(#p5ad1040d4c)" style="fill: none; stroke: #ff0000; stroke-width: 1.5; stroke-linecap: square"/>
   </g>
   <g id="patch_3">
    <path d="M 46.0125 368.3955 
L 46.0125 35.7555 
" style="fill: none; stroke: #000000; stroke-width: 0.8; stroke-linejoin: miter; stroke-linecap: square"/>
   </g>
   <g id="patch_4">
    <path d="M 1385.2125 368.3955 
L 1385.2125 35.7555 
" style="fill: none; stroke: #000000; stroke-width: 0.8; stroke-linejoin: miter; stroke-linecap: square"/>
   </g>
   <g id="patch_5">
    <path d="M 46.0125 368.3955 
L 1385.2125 368.3955 
" style="fill: none; stroke: #000000; stroke-width: 0.8; stroke-linejoin: miter; stroke-linecap: square"/>
   </g>
   <g id="patch_6">
    <path d="M 46.0125 35.7555 
L 1385.2125 35.7555 
" style="fill: none; stroke: #000000; stroke-width: 0.8; stroke-linejoin: miter; stroke-linecap: square"/>
   </g>
   <g id="text_17">
    <!-- Daily Confirmed Cases Forecasting - Sri Lanka -->
    <g transform="translate(577.394063 16.318125)scale(0.12 -0.12)">
     <defs>
      <path id="DejaVuSans-44" d="M 1259 4147 
L 1259 519 
L 2022 519 
Q 2988 519 3436 956 
Q 3884 1394 3884 2338 
Q 3884 3275 3436 3711 
Q 2988 4147 2022 4147 
L 1259 4147 
z
M 628 4666 
L 1925 4666 
Q 3281 4666 3915 4102 
Q 4550 3538 4550 2338 
Q 4550 1131 3912 565 
Q 3275 0 1925 0 
L 628 0 
L 628 4666 
z
" transform="scale(0.015625)"/>
      <path id="DejaVuSans-61" d="M 2194 1759 
Q 1497 1759 1228 1600 
Q 959 1441 959 1056 
Q 959 750 1161 570 
Q 1363 391 1709 391 
Q 2188 391 2477 730 
Q 2766 1069 2766 1631 
L 2766 1759 
L 2194 1759 
z
M 3341 1997 
L 3341 0 
L 2766 0 
L 2766 531 
Q 2569 213 2275 61 
Q 1981 -91 1556 -91 
Q 1019 -91 701 211 
Q 384 513 384 1019 
Q 384 1609 779 1909 
Q 1175 2209 1959 2209 
L 2766 2209 
L 2766 2266 
Q 2766 2663 2505 2880 
Q 2244 3097 1772 3097 
Q 1472 3097 1187 3025 
Q 903 2953 641 2809 
L 641 3341 
Q 956 3463 1253 3523 
Q 1550 3584 1831 3584 
Q 2591 3584 2966 3190 
Q 3341 2797 3341 1997 
z
" transform="scale(0.015625)"/>
      <path id="DejaVuSans-69" d="M 603 3500 
L 1178 3500 
L 1178 0 
L 603 0 
L 603 3500 
z
M 603 4863 
L 1178 4863 
L 1178 4134 
L 603 4134 
L 603 4863 
z
" transform="scale(0.015625)"/>
      <path id="DejaVuSans-6c" d="M 603 4863 
L 1178 4863 
L 1178 0 
L 603 0 
L 603 4863 
z
" transform="scale(0.015625)"/>
      <path id="DejaVuSans-79" d="M 2059 -325 
Q 1816 -950 1584 -1140 
Q 1353 -1331 966 -1331 
L 506 -1331 
L 506 -850 
L 844 -850 
Q 1081 -850 1212 -737 
Q 1344 -625 1503 -206 
L 1606 56 
L 191 3500 
L 800 3500 
L 1894 763 
L 2988 3500 
L 3597 3500 
L 2059 -325 
z
" transform="scale(0.015625)"/>
      <path id="DejaVuSans-20" transform="scale(0.015625)"/>
      <path id="DejaVuSans-43" d="M 4122 4306 
L 4122 3641 
Q 3803 3938 3442 4084 
Q 3081 4231 2675 4231 
Q 1875 4231 1450 3742 
Q 1025 3253 1025 2328 
Q 1025 1406 1450 917 
Q 1875 428 2675 428 
Q 3081 428 3442 575 
Q 3803 722 4122 1019 
L 4122 359 
Q 3791 134 3420 21 
Q 3050 -91 2638 -91 
Q 1578 -91 968 557 
Q 359 1206 359 2328 
Q 359 3453 968 4101 
Q 1578 4750 2638 4750 
Q 3056 4750 3426 4639 
Q 3797 4528 4122 4306 
z
" transform="scale(0.015625)"/>
      <path id="DejaVuSans-6f" d="M 1959 3097 
Q 1497 3097 1228 2736 
Q 959 2375 959 1747 
Q 959 1119 1226 758 
Q 1494 397 1959 397 
Q 2419 397 2687 759 
Q 2956 1122 2956 1747 
Q 2956 2369 2687 2733 
Q 2419 3097 1959 3097 
z
M 1959 3584 
Q 2709 3584 3137 3096 
Q 3566 2609 3566 1747 
Q 3566 888 3137 398 
Q 2709 -91 1959 -91 
Q 1206 -91 779 398 
Q 353 888 353 1747 
Q 353 2609 779 3096 
Q 1206 3584 1959 3584 
z
" transform="scale(0.015625)"/>
      <path id="DejaVuSans-6e" d="M 3513 2113 
L 3513 0 
L 2938 0 
L 2938 2094 
Q 2938 2591 2744 2837 
Q 2550 3084 2163 3084 
Q 1697 3084 1428 2787 
Q 1159 2491 1159 1978 
L 1159 0 
L 581 0 
L 581 3500 
L 1159 3500 
L 1159 2956 
Q 1366 3272 1645 3428 
Q 1925 3584 2291 3584 
Q 2894 3584 3203 3211 
Q 3513 2838 3513 2113 
z
" transform="scale(0.015625)"/>
      <path id="DejaVuSans-66" d="M 2375 4863 
L 2375 4384 
L 1825 4384 
Q 1516 4384 1395 4259 
Q 1275 4134 1275 3809 
L 1275 3500 
L 2222 3500 
L 2222 3053 
L 1275 3053 
L 1275 0 
L 697 0 
L 697 3053 
L 147 3053 
L 147 3500 
L 697 3500 
L 697 3744 
Q 697 4328 969 4595 
Q 1241 4863 1831 4863 
L 2375 4863 
z
" transform="scale(0.015625)"/>
      <path id="DejaVuSans-72" d="M 2631 2963 
Q 2534 3019 2420 3045 
Q 2306 3072 2169 3072 
Q 1681 3072 1420 2755 
Q 1159 2438 1159 1844 
L 1159 0 
L 581 0 
L 581 3500 
L 1159 3500 
L 1159 2956 
Q 1341 3275 1631 3429 
Q 1922 3584 2338 3584 
Q 2397 3584 2469 3576 
Q 2541 3569 2628 3553 
L 2631 2963 
z
" transform="scale(0.015625)"/>
      <path id="DejaVuSans-6d" d="M 3328 2828 
Q 3544 3216 3844 3400 
Q 4144 3584 4550 3584 
Q 5097 3584 5394 3201 
Q 5691 2819 5691 2113 
L 5691 0 
L 5113 0 
L 5113 2094 
Q 5113 2597 4934 2840 
Q 4756 3084 4391 3084 
Q 3944 3084 3684 2787 
Q 3425 2491 3425 1978 
L 3425 0 
L 2847 0 
L 2847 2094 
Q 2847 2600 2669 2842 
Q 2491 3084 2119 3084 
Q 1678 3084 1418 2786 
Q 1159 2488 1159 1978 
L 1159 0 
L 581 0 
L 581 3500 
L 1159 3500 
L 1159 2956 
Q 1356 3278 1631 3431 
Q 1906 3584 2284 3584 
Q 2666 3584 2933 3390 
Q 3200 3197 3328 2828 
z
" transform="scale(0.015625)"/>
      <path id="DejaVuSans-65" d="M 3597 1894 
L 3597 1613 
L 953 1613 
Q 991 1019 1311 708 
Q 1631 397 2203 397 
Q 2534 397 2845 478 
Q 3156 559 3463 722 
L 3463 178 
Q 3153 47 2828 -22 
Q 2503 -91 2169 -91 
Q 1331 -91 842 396 
Q 353 884 353 1716 
Q 353 2575 817 3079 
Q 1281 3584 2069 3584 
Q 2775 3584 3186 3129 
Q 3597 2675 3597 1894 
z
M 3022 2063 
Q 3016 2534 2758 2815 
Q 2500 3097 2075 3097 
Q 1594 3097 1305 2825 
Q 1016 2553 972 2059 
L 3022 2063 
z
" transform="scale(0.015625)"/>
      <path id="DejaVuSans-64" d="M 2906 2969 
L 2906 4863 
L 3481 4863 
L 3481 0 
L 2906 0 
L 2906 525 
Q 2725 213 2448 61 
Q 2172 -91 1784 -91 
Q 1150 -91 751 415 
Q 353 922 353 1747 
Q 353 2572 751 3078 
Q 1150 3584 1784 3584 
Q 2172 3584 2448 3432 
Q 2725 3281 2906 2969 
z
M 947 1747 
Q 947 1113 1208 752 
Q 1469 391 1925 391 
Q 2381 391 2643 752 
Q 2906 1113 2906 1747 
Q 2906 2381 2643 2742 
Q 2381 3103 1925 3103 
Q 1469 3103 1208 2742 
Q 947 2381 947 1747 
z
" transform="scale(0.015625)"/>
      <path id="DejaVuSans-73" d="M 2834 3397 
L 2834 2853 
Q 2591 2978 2328 3040 
Q 2066 3103 1784 3103 
Q 1356 3103 1142 2972 
Q 928 2841 928 2578 
Q 928 2378 1081 2264 
Q 1234 2150 1697 2047 
L 1894 2003 
Q 2506 1872 2764 1633 
Q 3022 1394 3022 966 
Q 3022 478 2636 193 
Q 2250 -91 1575 -91 
Q 1294 -91 989 -36 
Q 684 19 347 128 
L 347 722 
Q 666 556 975 473 
Q 1284 391 1588 391 
Q 1994 391 2212 530 
Q 2431 669 2431 922 
Q 2431 1156 2273 1281 
Q 2116 1406 1581 1522 
L 1381 1569 
Q 847 1681 609 1914 
Q 372 2147 372 2553 
Q 372 3047 722 3315 
Q 1072 3584 1716 3584 
Q 2034 3584 2315 3537 
Q 2597 3491 2834 3397 
z
" transform="scale(0.015625)"/>
      <path id="DejaVuSans-46" d="M 628 4666 
L 3309 4666 
L 3309 4134 
L 1259 4134 
L 1259 2759 
L 3109 2759 
L 3109 2228 
L 1259 2228 
L 1259 0 
L 628 0 
L 628 4666 
z
" transform="scale(0.015625)"/>
      <path id="DejaVuSans-63" d="M 3122 3366 
L 3122 2828 
Q 2878 2963 2633 3030 
Q 2388 3097 2138 3097 
Q 1578 3097 1268 2742 
Q 959 2388 959 1747 
Q 959 1106 1268 751 
Q 1578 397 2138 397 
Q 2388 397 2633 464 
Q 2878 531 3122 666 
L 3122 134 
Q 2881 22 2623 -34 
Q 2366 -91 2075 -91 
Q 1284 -91 818 406 
Q 353 903 353 1747 
Q 353 2603 823 3093 
Q 1294 3584 2113 3584 
Q 2378 3584 2631 3529 
Q 2884 3475 3122 3366 
z
" transform="scale(0.015625)"/>
      <path id="DejaVuSans-74" d="M 1172 4494 
L 1172 3500 
L 2356 3500 
L 2356 3053 
L 1172 3053 
L 1172 1153 
Q 1172 725 1289 603 
Q 1406 481 1766 481 
L 2356 481 
L 2356 0 
L 1766 0 
Q 1100 0 847 248 
Q 594 497 594 1153 
L 594 3053 
L 172 3053 
L 172 3500 
L 594 3500 
L 594 4494 
L 1172 4494 
z
" transform="scale(0.015625)"/>
      <path id="DejaVuSans-67" d="M 2906 1791 
Q 2906 2416 2648 2759 
Q 2391 3103 1925 3103 
Q 1463 3103 1205 2759 
Q 947 2416 947 1791 
Q 947 1169 1205 825 
Q 1463 481 1925 481 
Q 2391 481 2648 825 
Q 2906 1169 2906 1791 
z
M 3481 434 
Q 3481 -459 3084 -895 
Q 2688 -1331 1869 -1331 
Q 1566 -1331 1297 -1286 
Q 1028 -1241 775 -1147 
L 775 -588 
Q 1028 -725 1275 -790 
Q 1522 -856 1778 -856 
Q 2344 -856 2625 -561 
Q 2906 -266 2906 331 
L 2906 616 
Q 2728 306 2450 153 
Q 2172 0 1784 0 
Q 1141 0 747 490 
Q 353 981 353 1791 
Q 353 2603 747 3093 
Q 1141 3584 1784 3584 
Q 2172 3584 2450 3431 
Q 2728 3278 2906 2969 
L 2906 3500 
L 3481 3500 
L 3481 434 
z
" transform="scale(0.015625)"/>
      <path id="DejaVuSans-53" d="M 3425 4513 
L 3425 3897 
Q 3066 4069 2747 4153 
Q 2428 4238 2131 4238 
Q 1616 4238 1336 4038 
Q 1056 3838 1056 3469 
Q 1056 3159 1242 3001 
Q 1428 2844 1947 2747 
L 2328 2669 
Q 3034 2534 3370 2195 
Q 3706 1856 3706 1288 
Q 3706 609 3251 259 
Q 2797 -91 1919 -91 
Q 1588 -91 1214 -16 
Q 841 59 441 206 
L 441 856 
Q 825 641 1194 531 
Q 1563 422 1919 422 
Q 2459 422 2753 634 
Q 3047 847 3047 1241 
Q 3047 1584 2836 1778 
Q 2625 1972 2144 2069 
L 1759 2144 
Q 1053 2284 737 2584 
Q 422 2884 422 3419 
Q 422 4038 858 4394 
Q 1294 4750 2059 4750 
Q 2388 4750 2728 4690 
Q 3069 4631 3425 4513 
z
" transform="scale(0.015625)"/>
      <path id="DejaVuSans-4c" d="M 628 4666 
L 1259 4666 
L 1259 531 
L 3531 531 
L 3531 0 
L 628 0 
L 628 4666 
z
" transform="scale(0.015625)"/>
      <path id="DejaVuSans-6b" d="M 581 4863 
L 1159 4863 
L 1159 1991 
L 2875 3500 
L 3609 3500 
L 1753 1863 
L 3688 0 
L 2938 0 
L 1159 1709 
L 1159 0 
L 581 0 
L 581 4863 
z
" transform="scale(0.015625)"/>
     </defs>
     <use xlink:href="#DejaVuSans-44"/>
     <use xlink:href="#DejaVuSans-61" x="77.001953"/>
     <use xlink:href="#DejaVuSans-69" x="138.28125"/>
     <use xlink:href="#DejaVuSans-6c" x="166.064453"/>
     <use xlink:href="#DejaVuSans-79" x="193.847656"/>
     <use xlink:href="#DejaVuSans-20" x="253.027344"/>
     <use xlink:href="#DejaVuSans-43" x="284.814453"/>
     <use xlink:href="#DejaVuSans-6f" x="354.638672"/>
     <use xlink:href="#DejaVuSans-6e" x="415.820312"/>
     <use xlink:href="#DejaVuSans-66" x="479.199219"/>
     <use xlink:href="#DejaVuSans-69" x="514.404297"/>
     <use xlink:href="#DejaVuSans-72" x="542.1875"/>
     <use xlink:href="#DejaVuSans-6d" x="581.550781"/>
     <use xlink:href="#DejaVuSans-65" x="678.962891"/>
     <use xlink:href="#DejaVuSans-64" x="740.486328"/>
     <use xlink:href="#DejaVuSans-20" x="803.962891"/>
     <use xlink:href="#DejaVuSans-43" x="835.75"/>
     <use xlink:href="#DejaVuSans-61" x="905.574219"/>
     <use xlink:href="#DejaVuSans-73" x="966.853516"/>
     <use xlink:href="#DejaVuSans-65" x="1018.953125"/>
     <use xlink:href="#DejaVuSans-73" x="1080.476562"/>
     <use xlink:href="#DejaVuSans-20" x="1132.576172"/>
     <use xlink:href="#DejaVuSans-46" x="1164.363281"/>
     <use xlink:href="#DejaVuSans-6f" x="1218.257812"/>
     <use xlink:href="#DejaVuSans-72" x="1279.439453"/>
     <use xlink:href="#DejaVuSans-65" x="1318.302734"/>
     <use xlink:href="#DejaVuSans-63" x="1379.826172"/>
     <use xlink:href="#DejaVuSans-61" x="1434.806641"/>
     <use xlink:href="#DejaVuSans-73" x="1496.085938"/>
     <use xlink:href="#DejaVuSans-74" x="1548.185547"/>
     <use xlink:href="#DejaVuSans-69" x="1587.394531"/>
     <use xlink:href="#DejaVuSans-6e" x="1615.177734"/>
     <use xlink:href="#DejaVuSans-67" x="1678.556641"/>
     <use xlink:href="#DejaVuSans-20" x="1742.033203"/>
     <use xlink:href="#DejaVuSans-2d" x="1773.820312"/>
     <use xlink:href="#DejaVuSans-20" x="1809.904297"/>
     <use xlink:href="#DejaVuSans-53" x="1841.691406"/>
     <use xlink:href="#DejaVuSans-72" x="1905.167969"/>
     <use xlink:href="#DejaVuSans-69" x="1946.28125"/>
     <use xlink:href="#DejaVuSans-20" x="1974.064453"/>
     <use xlink:href="#DejaVuSans-4c" x="2005.851562"/>
     <use xlink:href="#DejaVuSans-61" x="2061.564453"/>
     <use xlink:href="#DejaVuSans-6e" x="2122.84375"/>
     <use xlink:href="#DejaVuSans-6b" x="2186.222656"/>
     <use xlink:href="#DejaVuSans-61" x="2242.382812"/>
    </g>
    <!-- ARIMA (1, 1, 1)x(0, 0, 0, 7) (R2 = 0.691202) -->
    <g transform="translate(583.628438 29.7555)scale(0.12 -0.12)">
     <defs>
      <path id="DejaVuSans-41" d="M 2188 4044 
L 1331 1722 
L 3047 1722 
L 2188 4044 
z
M 1831 4666 
L 2547 4666 
L 4325 0 
L 3669 0 
L 3244 1197 
L 1141 1197 
L 716 0 
L 50 0 
L 1831 4666 
z
" transform="scale(0.015625)"/>
      <path id="DejaVuSans-52" d="M 2841 2188 
Q 3044 2119 3236 1894 
Q 3428 1669 3622 1275 
L 4263 0 
L 3584 0 
L 2988 1197 
Q 2756 1666 2539 1819 
Q 2322 1972 1947 1972 
L 1259 1972 
L 1259 0 
L 628 0 
L 628 4666 
L 2053 4666 
Q 2853 4666 3247 4331 
Q 3641 3997 3641 3322 
Q 3641 2881 3436 2590 
Q 3231 2300 2841 2188 
z
M 1259 4147 
L 1259 2491 
L 2053 2491 
Q 2509 2491 2742 2702 
Q 2975 2913 2975 3322 
Q 2975 3731 2742 3939 
Q 2509 4147 2053 4147 
L 1259 4147 
z
" transform="scale(0.015625)"/>
      <path id="DejaVuSans-49" d="M 628 4666 
L 1259 4666 
L 1259 0 
L 628 0 
L 628 4666 
z
" transform="scale(0.015625)"/>
      <path id="DejaVuSans-4d" d="M 628 4666 
L 1569 4666 
L 2759 1491 
L 3956 4666 
L 4897 4666 
L 4897 0 
L 4281 0 
L 4281 4097 
L 3078 897 
L 2444 897 
L 1241 4097 
L 1241 0 
L 628 0 
L 628 4666 
z
" transform="scale(0.015625)"/>
      <path id="DejaVuSans-28" d="M 1984 4856 
Q 1566 4138 1362 3434 
Q 1159 2731 1159 2009 
Q 1159 1288 1364 580 
Q 1569 -128 1984 -844 
L 1484 -844 
Q 1016 -109 783 600 
Q 550 1309 550 2009 
Q 550 2706 781 3412 
Q 1013 4119 1484 4856 
L 1984 4856 
z
" transform="scale(0.015625)"/>
      <path id="DejaVuSans-2c" d="M 750 794 
L 1409 794 
L 1409 256 
L 897 -744 
L 494 -744 
L 750 256 
L 750 794 
z
" transform="scale(0.015625)"/>
      <path id="DejaVuSans-29" d="M 513 4856 
L 1013 4856 
Q 1481 4119 1714 3412 
Q 1947 2706 1947 2009 
Q 1947 1309 1714 600 
Q 1481 -109 1013 -844 
L 513 -844 
Q 928 -128 1133 580 
Q 1338 1288 1338 2009 
Q 1338 2731 1133 3434 
Q 928 4138 513 4856 
z
" transform="scale(0.015625)"/>
      <path id="DejaVuSans-78" d="M 3513 3500 
L 2247 1797 
L 3578 0 
L 2900 0 
L 1881 1375 
L 863 0 
L 184 0 
L 1544 1831 
L 300 3500 
L 978 3500 
L 1906 2253 
L 2834 3500 
L 3513 3500 
z
" transform="scale(0.015625)"/>
      <path id="DejaVuSans-37" d="M 525 4666 
L 3525 4666 
L 3525 4397 
L 1831 0 
L 1172 0 
L 2766 4134 
L 525 4134 
L 525 4666 
z
" transform="scale(0.015625)"/>
      <path id="DejaVuSans-3d" d="M 678 2906 
L 4684 2906 
L 4684 2381 
L 678 2381 
L 678 2906 
z
M 678 1631 
L 4684 1631 
L 4684 1100 
L 678 1100 
L 678 1631 
z
" transform="scale(0.015625)"/>
      <path id="DejaVuSans-2e" d="M 684 794 
L 1344 794 
L 1344 0 
L 684 0 
L 684 794 
z
" transform="scale(0.015625)"/>
     </defs>
     <use xlink:href="#DejaVuSans-41"/>
     <use xlink:href="#DejaVuSans-52" x="68.408203"/>
     <use xlink:href="#DejaVuSans-49" x="137.890625"/>
     <use xlink:href="#DejaVuSans-4d" x="167.382812"/>
     <use xlink:href="#DejaVuSans-41" x="253.662109"/>
     <use xlink:href="#DejaVuSans-20" x="322.070312"/>
     <use xlink:href="#DejaVuSans-28" x="353.857422"/>
     <use xlink:href="#DejaVuSans-31" x="392.871094"/>
     <use xlink:href="#DejaVuSans-2c" x="456.494141"/>
     <use xlink:href="#DejaVuSans-20" x="488.28125"/>
     <use xlink:href="#DejaVuSans-31" x="520.068359"/>
     <use xlink:href="#DejaVuSans-2c" x="583.691406"/>
     <use xlink:href="#DejaVuSans-20" x="615.478516"/>
     <use xlink:href="#DejaVuSans-31" x="647.265625"/>
     <use xlink:href="#DejaVuSans-29" x="710.888672"/>
     <use xlink:href="#DejaVuSans-78" x="749.902344"/>
     <use xlink:href="#DejaVuSans-28" x="809.082031"/>
     <use xlink:href="#DejaVuSans-30" x="848.095703"/>
     <use xlink:href="#DejaVuSans-2c" x="911.71875"/>
     <use xlink:href="#DejaVuSans-20" x="943.505859"/>
     <use xlink:href="#DejaVuSans-30" x="975.292969"/>
     <use xlink:href="#DejaVuSans-2c" x="1038.916016"/>
     <use xlink:href="#DejaVuSans-20" x="1070.703125"/>
     <use xlink:href="#DejaVuSans-30" x="1102.490234"/>
     <use xlink:href="#DejaVuSans-2c" x="1166.113281"/>
     <use xlink:href="#DejaVuSans-20" x="1197.900391"/>
     <use xlink:href="#DejaVuSans-37" x="1229.6875"/>
     <use xlink:href="#DejaVuSans-29" x="1293.310547"/>
     <use xlink:href="#DejaVuSans-20" x="1332.324219"/>
     <use xlink:href="#DejaVuSans-28" x="1364.111328"/>
     <use xlink:href="#DejaVuSans-52" x="1403.125"/>
     <use xlink:href="#DejaVuSans-32" x="1472.607422"/>
     <use xlink:href="#DejaVuSans-20" x="1536.230469"/>
     <use xlink:href="#DejaVuSans-3d" x="1568.017578"/>
     <use xlink:href="#DejaVuSans-20" x="1651.806641"/>
     <use xlink:href="#DejaVuSans-30" x="1683.59375"/>
     <use xlink:href="#DejaVuSans-2e" x="1747.216797"/>
     <use xlink:href="#DejaVuSans-36" x="1779.003906"/>
     <use xlink:href="#DejaVuSans-39" x="1842.626953"/>
     <use xlink:href="#DejaVuSans-31" x="1906.25"/>
     <use xlink:href="#DejaVuSans-32" x="1969.873047"/>
     <use xlink:href="#DejaVuSans-30" x="2033.496094"/>
     <use xlink:href="#DejaVuSans-32" x="2097.119141"/>
     <use xlink:href="#DejaVuSans-29" x="2160.742188"/>
    </g>
   </g>
   <g id="legend_1">
    <g id="patch_7">
     <path d="M 1281.132812 87.789875 
L 1378.2125 87.789875 
Q 1380.2125 87.789875 1380.2125 85.789875 
L 1380.2125 42.7555 
Q 1380.2125 40.7555 1378.2125 40.7555 
L 1281.132812 40.7555 
Q 1279.132812 40.7555 1279.132812 42.7555 
L 1279.132812 85.789875 
Q 1279.132812 87.789875 1281.132812 87.789875 
z
" style="fill: #ffffff; opacity: 0.8; stroke: #cccccc; stroke-linejoin: miter"/>
    </g>
    <g id="line2d_20">
     <path d="M 1283.132812 48.853937 
L 1293.132812 48.853937 
L 1303.132812 48.853937 
" style="fill: none; stroke: #0000ff; stroke-width: 1.5; stroke-linecap: square"/>
    </g>
    <g id="text_18">
     <!-- Actual Value -->
     <g transform="translate(1311.132812 52.353937)scale(0.1 -0.1)">
      <defs>
       <path id="DejaVuSans-75" d="M 544 1381 
L 544 3500 
L 1119 3500 
L 1119 1403 
Q 1119 906 1312 657 
Q 1506 409 1894 409 
Q 2359 409 2629 706 
Q 2900 1003 2900 1516 
L 2900 3500 
L 3475 3500 
L 3475 0 
L 2900 0 
L 2900 538 
Q 2691 219 2414 64 
Q 2138 -91 1772 -91 
Q 1169 -91 856 284 
Q 544 659 544 1381 
z
M 1991 3584 
L 1991 3584 
z
" transform="scale(0.015625)"/>
       <path id="DejaVuSans-56" d="M 1831 0 
L 50 4666 
L 709 4666 
L 2188 738 
L 3669 4666 
L 4325 4666 
L 2547 0 
L 1831 0 
z
" transform="scale(0.015625)"/>
      </defs>
      <use xlink:href="#DejaVuSans-41"/>
      <use xlink:href="#DejaVuSans-63" x="66.658203"/>
      <use xlink:href="#DejaVuSans-74" x="121.638672"/>
      <use xlink:href="#DejaVuSans-75" x="160.847656"/>
      <use xlink:href="#DejaVuSans-61" x="224.226562"/>
      <use xlink:href="#DejaVuSans-6c" x="285.505859"/>
      <use xlink:href="#DejaVuSans-20" x="313.289062"/>
      <use xlink:href="#DejaVuSans-56" x="345.076172"/>
      <use xlink:href="#DejaVuSans-61" x="405.734375"/>
      <use xlink:href="#DejaVuSans-6c" x="467.013672"/>
      <use xlink:href="#DejaVuSans-75" x="494.796875"/>
      <use xlink:href="#DejaVuSans-65" x="558.175781"/>
     </g>
    </g>
    <g id="line2d_21">
     <path d="M 1283.132812 63.532062 
L 1293.132812 63.532062 
L 1303.132812 63.532062 
" style="fill: none; stroke: #ffa500; stroke-width: 1.5; stroke-linecap: square"/>
    </g>
    <g id="text_19">
     <!-- Check Value -->
     <g transform="translate(1311.132812 67.032062)scale(0.1 -0.1)">
      <defs>
       <path id="DejaVuSans-68" d="M 3513 2113 
L 3513 0 
L 2938 0 
L 2938 2094 
Q 2938 2591 2744 2837 
Q 2550 3084 2163 3084 
Q 1697 3084 1428 2787 
Q 1159 2491 1159 1978 
L 1159 0 
L 581 0 
L 581 4863 
L 1159 4863 
L 1159 2956 
Q 1366 3272 1645 3428 
Q 1925 3584 2291 3584 
Q 2894 3584 3203 3211 
Q 3513 2838 3513 2113 
z
" transform="scale(0.015625)"/>
      </defs>
      <use xlink:href="#DejaVuSans-43"/>
      <use xlink:href="#DejaVuSans-68" x="69.824219"/>
      <use xlink:href="#DejaVuSans-65" x="133.203125"/>
      <use xlink:href="#DejaVuSans-63" x="194.726562"/>
      <use xlink:href="#DejaVuSans-6b" x="249.707031"/>
      <use xlink:href="#DejaVuSans-20" x="307.617188"/>
      <use xlink:href="#DejaVuSans-56" x="339.404297"/>
      <use xlink:href="#DejaVuSans-61" x="400.0625"/>
      <use xlink:href="#DejaVuSans-6c" x="461.341797"/>
      <use xlink:href="#DejaVuSans-75" x="489.125"/>
      <use xlink:href="#DejaVuSans-65" x="552.503906"/>
     </g>
    </g>
    <g id="line2d_22">
     <path d="M 1283.132812 78.210187 
L 1293.132812 78.210187 
L 1303.132812 78.210187 
" style="fill: none; stroke: #ff0000; stroke-width: 1.5; stroke-linecap: square"/>
    </g>
    <g id="text_20">
     <!-- Predict Value -->
     <g transform="translate(1311.132812 81.710187)scale(0.1 -0.1)">
      <defs>
       <path id="DejaVuSans-50" d="M 1259 4147 
L 1259 2394 
L 2053 2394 
Q 2494 2394 2734 2622 
Q 2975 2850 2975 3272 
Q 2975 3691 2734 3919 
Q 2494 4147 2053 4147 
L 1259 4147 
z
M 628 4666 
L 2053 4666 
Q 2838 4666 3239 4311 
Q 3641 3956 3641 3272 
Q 3641 2581 3239 2228 
Q 2838 1875 2053 1875 
L 1259 1875 
L 1259 0 
L 628 0 
L 628 4666 
z
" transform="scale(0.015625)"/>
      </defs>
      <use xlink:href="#DejaVuSans-50"/>
      <use xlink:href="#DejaVuSans-72" x="58.552734"/>
      <use xlink:href="#DejaVuSans-65" x="97.416016"/>
      <use xlink:href="#DejaVuSans-64" x="158.939453"/>
      <use xlink:href="#DejaVuSans-69" x="222.416016"/>
      <use xlink:href="#DejaVuSans-63" x="250.199219"/>
      <use xlink:href="#DejaVuSans-74" x="305.179688"/>
      <use xlink:href="#DejaVuSans-20" x="344.388672"/>
      <use xlink:href="#DejaVuSans-56" x="376.175781"/>
      <use xlink:href="#DejaVuSans-61" x="436.833984"/>
      <use xlink:href="#DejaVuSans-6c" x="498.113281"/>
      <use xlink:href="#DejaVuSans-75" x="525.896484"/>
      <use xlink:href="#DejaVuSans-65" x="589.275391"/>
     </g>
    </g>
   </g>
  </g>
 </g>
 <defs>
  <clipPath id="p5ad1040d4c">
   <rect x="46.0125" y="35.7555" width="1339.2" height="332.64"/>
  </clipPath>
 </defs>
</svg>
