<?xml version="1.0" encoding="utf-8" standalone="no"?>
<!DOCTYPE svg PUBLIC "-//W3C//DTD SVG 1.1//EN"
  "http://www.w3.org/Graphics/SVG/1.1/DTD/svg11.dtd">
<svg xmlns:xlink="http://www.w3.org/1999/xlink" width="1398.775pt" height="392.273625pt" viewBox="0 0 1398.775 392.273625" xmlns="http://www.w3.org/2000/svg" version="1.1">
 <metadata>
  <rdf:RDF xmlns:dc="http://purl.org/dc/elements/1.1/" xmlns:cc="http://creativecommons.org/ns#" xmlns:rdf="http://www.w3.org/1999/02/22-rdf-syntax-ns#">
   <cc:Work>
    <dc:type rdf:resource="http://purl.org/dc/dcmitype/StillImage"/>
    <dc:date>2022-07-08T19:07:14.917732</dc:date>
    <dc:format>image/svg+xml</dc:format>
    <dc:creator>
     <cc:Agent>
      <dc:title>Matplotlib v3.5.1, https://matplotlib.org/</dc:title>
     </cc:Agent>
    </dc:creator>
   </cc:Work>
  </rdf:RDF>
 </metadata>
 <defs>
  <style type="text/css">*{stroke-linejoin: round; stroke-linecap: butt}</style>
 </defs>
 <g id="figure_1">
  <g id="patch_1">
   <path d="M 0 392.273625 
L 1398.775 392.273625 
L 1398.775 0 
L 0 0 
z
" style="fill: #ffffff"/>
  </g>
  <g id="axes_1">
   <g id="patch_2">
    <path d="M 52.375 368.3955 
L 1391.575 368.3955 
L 1391.575 35.7555 
L 52.375 35.7555 
z
" style="fill: #ffffff"/>
   </g>
   <g id="matplotlib.axis_1">
    <g id="xtick_1">
     <g id="line2d_1">
      <defs>
       <path id="m2a37955e06" d="M 0 0 
L 0 3.5 
" style="stroke: #000000; stroke-width: 0.8"/>
      </defs>
      <g>
       <use xlink:href="#m2a37955e06" x="83.81476" y="368.3955" style="stroke: #000000; stroke-width: 0.8"/>
      </g>
     </g>
     <g id="text_1">
      <!-- 2020-01 -->
      <g transform="translate(62.923354 382.993937)scale(0.1 -0.1)">
       <defs>
        <path id="DejaVuSans-32" d="M 1228 531 
L 3431 531 
L 3431 0 
L 469 0 
L 469 531 
Q 828 903 1448 1529 
Q 2069 2156 2228 2338 
Q 2531 2678 2651 2914 
Q 2772 3150 2772 3378 
Q 2772 3750 2511 3984 
Q 2250 4219 1831 4219 
Q 1534 4219 1204 4116 
Q 875 4013 500 3803 
L 500 4441 
Q 881 4594 1212 4672 
Q 1544 4750 1819 4750 
Q 2544 4750 2975 4387 
Q 3406 4025 3406 3419 
Q 3406 3131 3298 2873 
Q 3191 2616 2906 2266 
Q 2828 2175 2409 1742 
Q 1991 1309 1228 531 
z
" transform="scale(0.015625)"/>
        <path id="DejaVuSans-30" d="M 2034 4250 
Q 1547 4250 1301 3770 
Q 1056 3291 1056 2328 
Q 1056 1369 1301 889 
Q 1547 409 2034 409 
Q 2525 409 2770 889 
Q 3016 1369 3016 2328 
Q 3016 3291 2770 3770 
Q 2525 4250 2034 4250 
z
M 2034 4750 
Q 2819 4750 3233 4129 
Q 3647 3509 3647 2328 
Q 3647 1150 3233 529 
Q 2819 -91 2034 -91 
Q 1250 -91 836 529 
Q 422 1150 422 2328 
Q 422 3509 836 4129 
Q 1250 4750 2034 4750 
z
" transform="scale(0.015625)"/>
        <path id="DejaVuSans-2d" d="M 313 2009 
L 1997 2009 
L 1997 1497 
L 313 1497 
L 313 2009 
z
" transform="scale(0.015625)"/>
        <path id="DejaVuSans-31" d="M 794 531 
L 1825 531 
L 1825 4091 
L 703 3866 
L 703 4441 
L 1819 4666 
L 2450 4666 
L 2450 531 
L 3481 531 
L 3481 0 
L 794 0 
L 794 531 
z
" transform="scale(0.015625)"/>
       </defs>
       <use xlink:href="#DejaVuSans-32"/>
       <use xlink:href="#DejaVuSans-30" x="63.623047"/>
       <use xlink:href="#DejaVuSans-32" x="127.246094"/>
       <use xlink:href="#DejaVuSans-30" x="190.869141"/>
       <use xlink:href="#DejaVuSans-2d" x="254.492188"/>
       <use xlink:href="#DejaVuSans-30" x="290.576172"/>
       <use xlink:href="#DejaVuSans-31" x="354.199219"/>
      </g>
     </g>
    </g>
    <g id="xtick_2">
     <g id="line2d_2">
      <g>
       <use xlink:href="#m2a37955e06" x="205.560215" y="368.3955" style="stroke: #000000; stroke-width: 0.8"/>
      </g>
     </g>
     <g id="text_2">
      <!-- 2020-04 -->
      <g transform="translate(184.668809 382.993937)scale(0.1 -0.1)">
       <defs>
        <path id="DejaVuSans-34" d="M 2419 4116 
L 825 1625 
L 2419 1625 
L 2419 4116 
z
M 2253 4666 
L 3047 4666 
L 3047 1625 
L 3713 1625 
L 3713 1100 
L 3047 1100 
L 3047 0 
L 2419 0 
L 2419 1100 
L 313 1100 
L 313 1709 
L 2253 4666 
z
" transform="scale(0.015625)"/>
       </defs>
       <use xlink:href="#DejaVuSans-32"/>
       <use xlink:href="#DejaVuSans-30" x="63.623047"/>
       <use xlink:href="#DejaVuSans-32" x="127.246094"/>
       <use xlink:href="#DejaVuSans-30" x="190.869141"/>
       <use xlink:href="#DejaVuSans-2d" x="254.492188"/>
       <use xlink:href="#DejaVuSans-30" x="290.576172"/>
       <use xlink:href="#DejaVuSans-34" x="354.199219"/>
      </g>
     </g>
    </g>
    <g id="xtick_3">
     <g id="line2d_3">
      <g>
       <use xlink:href="#m2a37955e06" x="327.305669" y="368.3955" style="stroke: #000000; stroke-width: 0.8"/>
      </g>
     </g>
     <g id="text_3">
      <!-- 2020-07 -->
      <g transform="translate(306.414263 382.993937)scale(0.1 -0.1)">
       <defs>
        <path id="DejaVuSans-37" d="M 525 4666 
L 3525 4666 
L 3525 4397 
L 1831 0 
L 1172 0 
L 2766 4134 
L 525 4134 
L 525 4666 
z
" transform="scale(0.015625)"/>
       </defs>
       <use xlink:href="#DejaVuSans-32"/>
       <use xlink:href="#DejaVuSans-30" x="63.623047"/>
       <use xlink:href="#DejaVuSans-32" x="127.246094"/>
       <use xlink:href="#DejaVuSans-30" x="190.869141"/>
       <use xlink:href="#DejaVuSans-2d" x="254.492188"/>
       <use xlink:href="#DejaVuSans-30" x="290.576172"/>
       <use xlink:href="#DejaVuSans-37" x="354.199219"/>
      </g>
     </g>
    </g>
    <g id="xtick_4">
     <g id="line2d_4">
      <g>
       <use xlink:href="#m2a37955e06" x="450.388986" y="368.3955" style="stroke: #000000; stroke-width: 0.8"/>
      </g>
     </g>
     <g id="text_4">
      <!-- 2020-10 -->
      <g transform="translate(429.49758 382.993937)scale(0.1 -0.1)">
       <use xlink:href="#DejaVuSans-32"/>
       <use xlink:href="#DejaVuSans-30" x="63.623047"/>
       <use xlink:href="#DejaVuSans-32" x="127.246094"/>
       <use xlink:href="#DejaVuSans-30" x="190.869141"/>
       <use xlink:href="#DejaVuSans-2d" x="254.492188"/>
       <use xlink:href="#DejaVuSans-31" x="290.576172"/>
       <use xlink:href="#DejaVuSans-30" x="354.199219"/>
      </g>
     </g>
    </g>
    <g id="xtick_5">
     <g id="line2d_5">
      <g>
       <use xlink:href="#m2a37955e06" x="573.472303" y="368.3955" style="stroke: #000000; stroke-width: 0.8"/>
      </g>
     </g>
     <g id="text_5">
      <!-- 2021-01 -->
      <g transform="translate(552.580896 382.993937)scale(0.1 -0.1)">
       <use xlink:href="#DejaVuSans-32"/>
       <use xlink:href="#DejaVuSans-30" x="63.623047"/>
       <use xlink:href="#DejaVuSans-32" x="127.246094"/>
       <use xlink:href="#DejaVuSans-31" x="190.869141"/>
       <use xlink:href="#DejaVuSans-2d" x="254.492188"/>
       <use xlink:href="#DejaVuSans-30" x="290.576172"/>
       <use xlink:href="#DejaVuSans-31" x="354.199219"/>
      </g>
     </g>
    </g>
    <g id="xtick_6">
     <g id="line2d_6">
      <g>
       <use xlink:href="#m2a37955e06" x="693.879895" y="368.3955" style="stroke: #000000; stroke-width: 0.8"/>
      </g>
     </g>
     <g id="text_6">
      <!-- 2021-04 -->
      <g transform="translate(672.988489 382.993937)scale(0.1 -0.1)">
       <use xlink:href="#DejaVuSans-32"/>
       <use xlink:href="#DejaVuSans-30" x="63.623047"/>
       <use xlink:href="#DejaVuSans-32" x="127.246094"/>
       <use xlink:href="#DejaVuSans-31" x="190.869141"/>
       <use xlink:href="#DejaVuSans-2d" x="254.492188"/>
       <use xlink:href="#DejaVuSans-30" x="290.576172"/>
       <use xlink:href="#DejaVuSans-34" x="354.199219"/>
      </g>
     </g>
    </g>
    <g id="xtick_7">
     <g id="line2d_7">
      <g>
       <use xlink:href="#m2a37955e06" x="815.62535" y="368.3955" style="stroke: #000000; stroke-width: 0.8"/>
      </g>
     </g>
     <g id="text_7">
      <!-- 2021-07 -->
      <g transform="translate(794.733943 382.993937)scale(0.1 -0.1)">
       <use xlink:href="#DejaVuSans-32"/>
       <use xlink:href="#DejaVuSans-30" x="63.623047"/>
       <use xlink:href="#DejaVuSans-32" x="127.246094"/>
       <use xlink:href="#DejaVuSans-31" x="190.869141"/>
       <use xlink:href="#DejaVuSans-2d" x="254.492188"/>
       <use xlink:href="#DejaVuSans-30" x="290.576172"/>
       <use xlink:href="#DejaVuSans-37" x="354.199219"/>
      </g>
     </g>
    </g>
    <g id="xtick_8">
     <g id="line2d_8">
      <g>
       <use xlink:href="#m2a37955e06" x="938.708666" y="368.3955" style="stroke: #000000; stroke-width: 0.8"/>
      </g>
     </g>
     <g id="text_8">
      <!-- 2021-10 -->
      <g transform="translate(917.81726 382.993937)scale(0.1 -0.1)">
       <use xlink:href="#DejaVuSans-32"/>
       <use xlink:href="#DejaVuSans-30" x="63.623047"/>
       <use xlink:href="#DejaVuSans-32" x="127.246094"/>
       <use xlink:href="#DejaVuSans-31" x="190.869141"/>
       <use xlink:href="#DejaVuSans-2d" x="254.492188"/>
       <use xlink:href="#DejaVuSans-31" x="290.576172"/>
       <use xlink:href="#DejaVuSans-30" x="354.199219"/>
      </g>
     </g>
    </g>
    <g id="xtick_9">
     <g id="line2d_9">
      <g>
       <use xlink:href="#m2a37955e06" x="1061.791983" y="368.3955" style="stroke: #000000; stroke-width: 0.8"/>
      </g>
     </g>
     <g id="text_9">
      <!-- 2022-01 -->
      <g transform="translate(1040.900577 382.993937)scale(0.1 -0.1)">
       <use xlink:href="#DejaVuSans-32"/>
       <use xlink:href="#DejaVuSans-30" x="63.623047"/>
       <use xlink:href="#DejaVuSans-32" x="127.246094"/>
       <use xlink:href="#DejaVuSans-32" x="190.869141"/>
       <use xlink:href="#DejaVuSans-2d" x="254.492188"/>
       <use xlink:href="#DejaVuSans-30" x="290.576172"/>
       <use xlink:href="#DejaVuSans-31" x="354.199219"/>
      </g>
     </g>
    </g>
    <g id="xtick_10">
     <g id="line2d_10">
      <g>
       <use xlink:href="#m2a37955e06" x="1182.199575" y="368.3955" style="stroke: #000000; stroke-width: 0.8"/>
      </g>
     </g>
     <g id="text_10">
      <!-- 2022-04 -->
      <g transform="translate(1161.308169 382.993937)scale(0.1 -0.1)">
       <use xlink:href="#DejaVuSans-32"/>
       <use xlink:href="#DejaVuSans-30" x="63.623047"/>
       <use xlink:href="#DejaVuSans-32" x="127.246094"/>
       <use xlink:href="#DejaVuSans-32" x="190.869141"/>
       <use xlink:href="#DejaVuSans-2d" x="254.492188"/>
       <use xlink:href="#DejaVuSans-30" x="290.576172"/>
       <use xlink:href="#DejaVuSans-34" x="354.199219"/>
      </g>
     </g>
    </g>
    <g id="xtick_11">
     <g id="line2d_11">
      <g>
       <use xlink:href="#m2a37955e06" x="1303.94503" y="368.3955" style="stroke: #000000; stroke-width: 0.8"/>
      </g>
     </g>
     <g id="text_11">
      <!-- 2022-07 -->
      <g transform="translate(1283.053624 382.993937)scale(0.1 -0.1)">
       <use xlink:href="#DejaVuSans-32"/>
       <use xlink:href="#DejaVuSans-30" x="63.623047"/>
       <use xlink:href="#DejaVuSans-32" x="127.246094"/>
       <use xlink:href="#DejaVuSans-32" x="190.869141"/>
       <use xlink:href="#DejaVuSans-2d" x="254.492188"/>
       <use xlink:href="#DejaVuSans-30" x="290.576172"/>
       <use xlink:href="#DejaVuSans-37" x="354.199219"/>
      </g>
     </g>
    </g>
   </g>
   <g id="matplotlib.axis_2">
    <g id="ytick_1">
     <g id="line2d_12">
      <defs>
       <path id="m16908f1f83" d="M 0 0 
L -3.5 0 
" style="stroke: #000000; stroke-width: 0.8"/>
      </defs>
      <g>
       <use xlink:href="#m16908f1f83" x="52.375" y="329.635374" style="stroke: #000000; stroke-width: 0.8"/>
      </g>
     </g>
     <g id="text_12">
      <!-- 0 -->
      <g transform="translate(39.0125 333.434593)scale(0.1 -0.1)">
       <use xlink:href="#DejaVuSans-30"/>
      </g>
     </g>
    </g>
    <g id="ytick_2">
     <g id="line2d_13">
      <g>
       <use xlink:href="#m16908f1f83" x="52.375" y="289.521711" style="stroke: #000000; stroke-width: 0.8"/>
      </g>
     </g>
     <g id="text_13">
      <!-- 20000 -->
      <g transform="translate(13.5625 293.32093)scale(0.1 -0.1)">
       <use xlink:href="#DejaVuSans-32"/>
       <use xlink:href="#DejaVuSans-30" x="63.623047"/>
       <use xlink:href="#DejaVuSans-30" x="127.246094"/>
       <use xlink:href="#DejaVuSans-30" x="190.869141"/>
       <use xlink:href="#DejaVuSans-30" x="254.492188"/>
      </g>
     </g>
    </g>
    <g id="ytick_3">
     <g id="line2d_14">
      <g>
       <use xlink:href="#m16908f1f83" x="52.375" y="249.408048" style="stroke: #000000; stroke-width: 0.8"/>
      </g>
     </g>
     <g id="text_14">
      <!-- 40000 -->
      <g transform="translate(13.5625 253.207266)scale(0.1 -0.1)">
       <use xlink:href="#DejaVuSans-34"/>
       <use xlink:href="#DejaVuSans-30" x="63.623047"/>
       <use xlink:href="#DejaVuSans-30" x="127.246094"/>
       <use xlink:href="#DejaVuSans-30" x="190.869141"/>
       <use xlink:href="#DejaVuSans-30" x="254.492188"/>
      </g>
     </g>
    </g>
    <g id="ytick_4">
     <g id="line2d_15">
      <g>
       <use xlink:href="#m16908f1f83" x="52.375" y="209.294385" style="stroke: #000000; stroke-width: 0.8"/>
      </g>
     </g>
     <g id="text_15">
      <!-- 60000 -->
      <g transform="translate(13.5625 213.093603)scale(0.1 -0.1)">
       <defs>
        <path id="DejaVuSans-36" d="M 2113 2584 
Q 1688 2584 1439 2293 
Q 1191 2003 1191 1497 
Q 1191 994 1439 701 
Q 1688 409 2113 409 
Q 2538 409 2786 701 
Q 3034 994 3034 1497 
Q 3034 2003 2786 2293 
Q 2538 2584 2113 2584 
z
M 3366 4563 
L 3366 3988 
Q 3128 4100 2886 4159 
Q 2644 4219 2406 4219 
Q 1781 4219 1451 3797 
Q 1122 3375 1075 2522 
Q 1259 2794 1537 2939 
Q 1816 3084 2150 3084 
Q 2853 3084 3261 2657 
Q 3669 2231 3669 1497 
Q 3669 778 3244 343 
Q 2819 -91 2113 -91 
Q 1303 -91 875 529 
Q 447 1150 447 2328 
Q 447 3434 972 4092 
Q 1497 4750 2381 4750 
Q 2619 4750 2861 4703 
Q 3103 4656 3366 4563 
z
" transform="scale(0.015625)"/>
       </defs>
       <use xlink:href="#DejaVuSans-36"/>
       <use xlink:href="#DejaVuSans-30" x="63.623047"/>
       <use xlink:href="#DejaVuSans-30" x="127.246094"/>
       <use xlink:href="#DejaVuSans-30" x="190.869141"/>
       <use xlink:href="#DejaVuSans-30" x="254.492188"/>
      </g>
     </g>
    </g>
    <g id="ytick_5">
     <g id="line2d_16">
      <g>
       <use xlink:href="#m16908f1f83" x="52.375" y="169.180721" style="stroke: #000000; stroke-width: 0.8"/>
      </g>
     </g>
     <g id="text_16">
      <!-- 80000 -->
      <g transform="translate(13.5625 172.97994)scale(0.1 -0.1)">
       <defs>
        <path id="DejaVuSans-38" d="M 2034 2216 
Q 1584 2216 1326 1975 
Q 1069 1734 1069 1313 
Q 1069 891 1326 650 
Q 1584 409 2034 409 
Q 2484 409 2743 651 
Q 3003 894 3003 1313 
Q 3003 1734 2745 1975 
Q 2488 2216 2034 2216 
z
M 1403 2484 
Q 997 2584 770 2862 
Q 544 3141 544 3541 
Q 544 4100 942 4425 
Q 1341 4750 2034 4750 
Q 2731 4750 3128 4425 
Q 3525 4100 3525 3541 
Q 3525 3141 3298 2862 
Q 3072 2584 2669 2484 
Q 3125 2378 3379 2068 
Q 3634 1759 3634 1313 
Q 3634 634 3220 271 
Q 2806 -91 2034 -91 
Q 1263 -91 848 271 
Q 434 634 434 1313 
Q 434 1759 690 2068 
Q 947 2378 1403 2484 
z
M 1172 3481 
Q 1172 3119 1398 2916 
Q 1625 2713 2034 2713 
Q 2441 2713 2670 2916 
Q 2900 3119 2900 3481 
Q 2900 3844 2670 4047 
Q 2441 4250 2034 4250 
Q 1625 4250 1398 4047 
Q 1172 3844 1172 3481 
z
" transform="scale(0.015625)"/>
       </defs>
       <use xlink:href="#DejaVuSans-38"/>
       <use xlink:href="#DejaVuSans-30" x="63.623047"/>
       <use xlink:href="#DejaVuSans-30" x="127.246094"/>
       <use xlink:href="#DejaVuSans-30" x="190.869141"/>
       <use xlink:href="#DejaVuSans-30" x="254.492188"/>
      </g>
     </g>
    </g>
    <g id="ytick_6">
     <g id="line2d_17">
      <g>
       <use xlink:href="#m16908f1f83" x="52.375" y="129.067058" style="stroke: #000000; stroke-width: 0.8"/>
      </g>
     </g>
     <g id="text_17">
      <!-- 100000 -->
      <g transform="translate(7.2 132.866277)scale(0.1 -0.1)">
       <use xlink:href="#DejaVuSans-31"/>
       <use xlink:href="#DejaVuSans-30" x="63.623047"/>
       <use xlink:href="#DejaVuSans-30" x="127.246094"/>
       <use xlink:href="#DejaVuSans-30" x="190.869141"/>
       <use xlink:href="#DejaVuSans-30" x="254.492188"/>
       <use xlink:href="#DejaVuSans-30" x="318.115234"/>
      </g>
     </g>
    </g>
    <g id="ytick_7">
     <g id="line2d_18">
      <g>
       <use xlink:href="#m16908f1f83" x="52.375" y="88.953395" style="stroke: #000000; stroke-width: 0.8"/>
      </g>
     </g>
     <g id="text_18">
      <!-- 120000 -->
      <g transform="translate(7.2 92.752614)scale(0.1 -0.1)">
       <use xlink:href="#DejaVuSans-31"/>
       <use xlink:href="#DejaVuSans-32" x="63.623047"/>
       <use xlink:href="#DejaVuSans-30" x="127.246094"/>
       <use xlink:href="#DejaVuSans-30" x="190.869141"/>
       <use xlink:href="#DejaVuSans-30" x="254.492188"/>
       <use xlink:href="#DejaVuSans-30" x="318.115234"/>
      </g>
     </g>
    </g>
    <g id="ytick_8">
     <g id="line2d_19">
      <g>
       <use xlink:href="#m16908f1f83" x="52.375" y="48.839732" style="stroke: #000000; stroke-width: 0.8"/>
      </g>
     </g>
     <g id="text_19">
      <!-- 140000 -->
      <g transform="translate(7.2 52.63895)scale(0.1 -0.1)">
       <use xlink:href="#DejaVuSans-31"/>
       <use xlink:href="#DejaVuSans-34" x="63.623047"/>
       <use xlink:href="#DejaVuSans-30" x="127.246094"/>
       <use xlink:href="#DejaVuSans-30" x="190.869141"/>
       <use xlink:href="#DejaVuSans-30" x="254.492188"/>
       <use xlink:href="#DejaVuSans-30" x="318.115234"/>
      </g>
     </g>
    </g>
   </g>
   <g id="line2d_20">
    <path d="M 113.247727 329.635374 
L 169.437937 329.585232 
L 170.775799 329.517039 
L 173.451523 329.543113 
L 174.789386 329.4328 
L 176.127248 329.438817 
L 177.46511 329.24226 
L 182.816558 329.496982 
L 194.857318 329.174067 
L 196.19518 329.00559 
L 197.533042 329.061749 
L 198.870904 328.9033 
L 201.546628 329.073783 
L 202.884491 328.80101 
L 208.235939 328.429959 
L 209.573801 328.919345 
L 210.911663 328.953442 
L 212.249525 328.855163 
L 213.587388 328.15518 
L 214.92525 328.321652 
L 216.263112 328.341709 
L 217.600974 328.724794 
L 218.938836 328.843129 
L 220.276698 328.704737 
L 221.61456 328.758891 
L 222.952423 328.674652 
L 224.290285 328.423942 
L 226.966009 328.255464 
L 229.641733 328.857169 
L 230.979595 328.710754 
L 232.317458 328.217356 
L 236.331044 328.072947 
L 237.668906 328.686686 
L 239.006768 329.033669 
L 240.34463 328.506175 
L 241.682493 328.147157 
L 243.020355 328.034839 
L 244.358217 328.361765 
L 245.696079 328.568351 
L 247.033941 329.035675 
L 248.371803 329.111891 
L 251.047527 328.31764 
L 253.723252 328.056902 
L 255.061114 328.231396 
L 257.736838 329.077794 
L 259.0747 328.722788 
L 260.412562 328.123089 
L 263.088287 328.311623 
L 264.426149 328.255464 
L 265.764011 328.91734 
L 267.101873 329.115902 
L 268.439735 328.770925 
L 269.777597 328.297584 
L 271.11546 328.014782 
L 272.453322 328.411907 
L 275.129046 328.827084 
L 276.466908 329.214181 
L 279.142632 328.139135 
L 280.480495 328.030828 
L 283.156219 328.084981 
L 284.494081 328.768919 
L 285.831943 329.103868 
L 287.169805 328.335692 
L 288.507667 327.828254 
L 289.845529 327.53743 
L 291.183392 327.551469 
L 292.521254 327.336861 
L 295.196978 328.708749 
L 297.872702 327.758055 
L 299.210564 326.753207 
L 300.548427 327.04002 
L 301.886289 326.953776 
L 303.224151 327.545452 
L 304.562013 328.796999 
L 305.899875 328.263487 
L 307.237737 327.192452 
L 308.575599 326.713094 
L 309.913462 326.634872 
L 311.251324 327.202481 
L 312.589186 328.227385 
L 313.927048 328.99155 
L 317.940634 326.229724 
L 319.278497 327.066094 
L 320.616359 327.222537 
L 321.954221 328.111055 
L 323.292083 328.792987 
L 324.629945 328.177243 
L 325.967807 328.020799 
L 327.305669 328.263487 
L 329.981394 328.233402 
L 331.319256 328.893271 
L 333.99498 329.131948 
L 335.332842 329.077794 
L 336.670704 328.558322 
L 338.008566 328.96347 
L 339.346429 328.879232 
L 340.684291 329.00559 
L 342.022153 329.422772 
L 343.360015 329.294408 
L 344.697877 329.003584 
L 350.049326 329.234238 
L 351.387188 329.414749 
L 352.72505 329.37263 
L 355.400774 329.039686 
L 356.738636 329.194124 
L 358.076499 329.109885 
L 360.752223 329.551136 
L 362.090085 329.492971 
L 363.427947 329.067766 
L 366.103671 329.029658 
L 367.441533 329.117908 
L 368.779396 329.027652 
L 370.117258 329.559158 
L 374.130844 328.782959 
L 378.144431 329.113897 
L 379.482293 329.488959 
L 380.820155 329.24226 
L 382.158017 328.799004 
L 383.495879 328.744851 
L 384.833741 328.909317 
L 386.171603 328.945419 
L 388.847328 329.509016 
L 392.860914 328.931379 
L 395.536638 329.037681 
L 398.212363 329.52105 
L 399.550225 329.27034 
L 402.225949 329.141976 
L 404.901673 329.635374 
L 407.577398 329.635374 
L 408.91526 328.790982 
L 410.253122 329.350567 
L 411.590984 329.613312 
L 412.928846 329.240255 
L 414.266708 329.121919 
L 415.60457 329.635374 
L 416.942433 329.635374 
L 418.280295 328.486118 
L 419.618157 329.336527 
L 420.956019 329.288391 
L 422.293881 329.00559 
L 423.631743 329.011607 
L 424.969605 329.635374 
L 427.64533 329.635374 
L 428.983192 327.9506 
L 430.321054 329.174067 
L 432.996778 328.929374 
L 434.33464 329.635374 
L 437.010365 329.635374 
L 438.348227 327.23056 
L 439.686089 328.993556 
L 441.023951 328.566345 
L 442.361813 328.363771 
L 443.699675 329.635374 
L 446.3754 329.635374 
L 447.713262 326.540605 
L 449.051124 328.839118 
L 450.388986 328.1271 
L 451.726848 328.295578 
L 453.06471 329.635374 
L 455.740435 329.635374 
L 457.078297 325.900792 
L 458.416159 328.568351 
L 459.754021 327.920515 
L 461.091883 327.792151 
L 462.429745 329.635374 
L 465.10547 329.635374 
L 466.443332 325.216854 
L 467.781194 328.275521 
L 469.119056 327.479265 
L 470.456918 328.044867 
L 471.79478 329.635374 
L 474.470504 329.635374 
L 475.808367 323.257302 
L 477.146229 327.679833 
L 478.484091 326.398202 
L 479.821953 326.376139 
L 481.159815 329.635374 
L 483.835539 329.635374 
L 485.173402 319.223873 
L 486.511264 325.36728 
L 487.849126 323.108881 
L 489.186988 323.241256 
L 490.52485 329.635374 
L 493.200574 329.635374 
L 494.538437 309.223537 
L 495.876299 323.221199 
L 497.214161 321.544448 
L 498.552023 320.21468 
L 499.889885 329.635374 
L 502.565609 329.635374 
L 503.903472 297.9877 
L 505.241334 320.675988 
L 506.579196 320.292902 
L 507.917058 317.621332 
L 509.25492 329.635374 
L 511.930644 329.635374 
L 513.268506 299.381649 
L 514.606369 321.598602 
L 515.944231 320.391181 
L 517.282093 315.114228 
L 518.619955 329.635374 
L 521.295679 329.635374 
L 522.633541 295.007254 
L 523.971404 319.69922 
L 526.647128 316.048876 
L 527.98499 329.635374 
L 530.660714 329.635374 
L 531.998576 294.277186 
L 533.336439 318.804685 
L 534.674301 316.628519 
L 536.012163 317.061746 
L 537.350025 329.635374 
L 540.025749 329.635374 
L 541.363611 291.888417 
L 542.701474 315.473245 
L 544.039336 313.720278 
L 545.377198 314.853489 
L 546.71506 329.635374 
L 549.390784 329.635374 
L 550.728646 287.65442 
L 552.066508 314.480432 
L 553.404371 311.822902 
L 554.742233 310.272509 
L 556.080095 329.635374 
L 558.755819 329.635374 
L 560.093681 284.870532 
L 561.431543 316.379814 
L 562.769406 329.635374 
L 568.120854 329.635374 
L 569.458716 264.480757 
L 570.796578 311.893101 
L 572.134441 329.635374 
L 577.485889 329.635374 
L 578.823751 264.713416 
L 580.161613 329.635374 
L 581.499476 304.49213 
L 582.837338 315.220529 
L 584.1752 329.635374 
L 586.850924 329.635374 
L 588.188786 294.746516 
L 589.526648 318.931043 
L 590.86451 316.437979 
L 592.202373 320.202646 
L 593.540235 329.635374 
L 596.215959 329.635374 
L 597.553821 310.021799 
L 598.891683 320.204652 
L 600.229545 319.637044 
L 601.567408 321.183425 
L 602.90527 329.635374 
L 605.580994 329.635374 
L 606.918856 311.337527 
L 608.256718 321.245602 
L 609.59458 321.442158 
L 610.932443 324.821735 
L 612.270305 329.635374 
L 614.946029 329.635374 
L 616.283891 310.282537 
L 617.621753 320.99088 
L 618.959615 322.098017 
L 620.297478 322.84012 
L 621.63534 329.635374 
L 624.311064 329.635374 
L 625.648926 313.365272 
L 626.986788 321.472244 
L 628.32465 320.944749 
L 629.662512 321.945585 
L 631.000375 329.635374 
L 633.676099 329.635374 
L 635.013961 310.665623 
L 636.351823 321.145317 
L 637.689685 319.767413 
L 639.027547 321.323823 
L 640.36541 329.635374 
L 643.041134 329.635374 
L 644.378996 307.70724 
L 645.716858 318.86285 
L 647.05472 319.616987 
L 648.392582 319.919845 
L 649.730445 329.635374 
L 652.406169 329.635374 
L 653.744031 305.96029 
L 655.081893 317.242258 
L 656.419755 319.931879 
L 657.757617 319.945919 
L 659.09548 329.635374 
L 661.771204 329.635374 
L 663.109066 307.54478 
L 664.446928 317.767747 
L 665.78479 319.005253 
L 667.122652 318.935055 
L 668.460514 329.635374 
L 671.136239 329.635374 
L 672.474101 304.038846 
L 673.811963 316.034837 
L 675.149825 316.664621 
L 676.487687 318.132781 
L 677.825549 329.635374 
L 680.501274 329.635374 
L 681.839136 301.429452 
L 683.176998 314.293904 
L 684.51486 314.17958 
L 685.852722 316.943411 
L 687.190584 329.635374 
L 689.866309 329.635374 
L 691.204171 296.688017 
L 692.542033 312.705403 
L 693.879895 312.978176 
L 695.217757 329.635374 
L 699.231344 329.635374 
L 700.569206 285.90747 
L 701.907068 315.968649 
L 703.24493 313.946921 
L 704.582792 314.047205 
L 705.920654 329.635374 
L 708.596379 329.635374 
L 709.934241 291.316797 
L 711.272103 311.826913 
L 712.609965 315.405052 
L 713.947827 314.275853 
L 715.285689 329.635374 
L 717.961414 329.635374 
L 719.299276 296.156511 
L 720.637138 314.572694 
L 721.975 314.119409 
L 723.312862 317.065758 
L 724.650724 329.635374 
L 727.326449 329.635374 
L 728.664311 299.728633 
L 730.002173 315.06208 
L 731.340035 315.278694 
L 732.677897 317.749696 
L 734.015759 329.635374 
L 736.691484 329.635374 
L 738.029346 299.650411 
L 739.367208 315.513359 
L 740.70507 316.546286 
L 742.042932 318.261145 
L 743.380794 329.635374 
L 746.056518 329.635374 
L 747.394381 301.932878 
L 748.732243 316.9394 
L 750.070105 329.635374 
L 751.407967 311.199135 
L 752.745829 329.635374 
L 755.421553 329.635374 
L 756.759416 309.544446 
L 758.097278 320.371124 
L 759.43514 322.793989 
L 760.773002 323.28137 
L 762.110864 329.635374 
L 764.786588 329.635374 
L 766.124451 317.533082 
L 767.462313 324.155848 
L 770.138037 329.635374 
L 776.827348 329.635374 
L 778.16521 312.546954 
L 779.503072 327.491299 
L 780.840934 329.635374 
L 783.516658 329.635374 
L 784.85452 324.278194 
L 786.192383 327.298753 
L 787.530245 327.968651 
L 788.868107 328.177243 
L 790.205969 329.635374 
L 792.881693 329.635374 
L 794.219555 327.268668 
L 795.557418 329.635374 
L 802.246728 329.635374 
L 803.58459 322.860176 
L 804.922453 328.62451 
L 806.260315 328.877226 
L 807.598177 329.635374 
L 811.611763 329.635374 
L 812.949625 327.936561 
L 814.287488 329.13997 
L 815.62535 328.506175 
L 816.963212 328.979516 
L 818.301074 329.635374 
L 820.976798 329.635374 
L 822.31466 327.930544 
L 823.652522 328.927368 
L 824.990385 329.184095 
L 826.328247 329.170056 
L 827.666109 329.635374 
L 830.341833 329.635374 
L 831.679695 328.293572 
L 833.017557 328.899288 
L 835.693282 328.905306 
L 837.031144 329.635374 
L 839.706868 329.635374 
L 841.04473 327.645737 
L 842.382592 328.674652 
L 843.720455 328.466061 
L 845.058317 328.716771 
L 846.396179 329.635374 
L 849.071903 329.635374 
L 850.409765 326.917674 
L 851.747627 328.349731 
L 854.423352 328.379817 
L 855.761214 329.635374 
L 858.436938 329.635374 
L 859.7748 325.904804 
L 861.112662 327.772095 
L 863.788387 327.940572 
L 865.126249 329.635374 
L 867.801973 329.635374 
L 869.139835 325.0564 
L 870.477697 327.15635 
L 871.815559 327.519378 
L 873.153422 327.559492 
L 874.491284 329.635374 
L 877.167008 329.635374 
L 878.50487 323.997399 
L 879.842732 326.987872 
L 881.180594 327.052054 
L 882.518457 327.593589 
L 883.856319 329.635374 
L 886.532043 329.635374 
L 887.869905 324.071609 
L 889.207767 327.088157 
L 890.545629 326.604787 
L 891.883492 327.080134 
L 893.221354 329.635374 
L 895.897078 329.635374 
L 897.23494 322.816051 
L 898.572802 327.4211 
L 899.910664 327.200475 
L 901.248526 326.839452 
L 902.586389 329.635374 
L 905.262113 329.635374 
L 906.599975 323.770757 
L 907.937837 326.20365 
L 909.275699 326.87756 
L 910.613561 326.662952 
L 911.951424 329.635374 
L 914.627148 329.635374 
L 915.96501 322.302597 
L 917.302872 327.43514 
L 918.640734 327.222537 
L 919.978596 327.61164 
L 921.316459 329.635374 
L 923.992183 329.635374 
L 925.330045 325.652087 
L 926.667907 327.808197 
L 928.005769 328.107044 
L 929.343631 328.099021 
L 930.681494 329.635374 
L 933.357218 329.635374 
L 934.69508 326.093338 
L 936.032942 327.922521 
L 937.370804 327.912492 
L 938.708666 328.093004 
L 940.046528 329.635374 
L 942.722253 329.635374 
L 944.060115 325.866696 
L 945.397977 328.203316 
L 946.735839 327.960629 
L 948.073701 328.153174 
L 949.411563 329.635374 
L 952.087288 329.635374 
L 953.42515 326.149497 
L 954.763012 327.820231 
L 957.438736 328.293572 
L 958.776598 329.635374 
L 961.452323 329.635374 
L 962.790185 326.301929 
L 964.128047 328.016788 
L 966.803771 328.026816 
L 968.141633 329.635374 
L 970.817358 329.635374 
L 972.15522 325.072445 
L 973.493082 327.110219 
L 974.830944 327.846305 
L 976.168806 327.44918 
L 977.506668 329.635374 
L 980.182393 329.635374 
L 981.520255 324.097683 
L 982.858117 327.324827 
L 984.195979 327.942578 
L 985.533841 327.980686 
L 986.871703 329.635374 
L 989.547428 329.635374 
L 990.88529 325.427451 
L 992.223152 326.975838 
L 993.561014 327.601611 
L 994.898876 327.752038 
L 996.236738 329.635374 
L 998.912463 329.635374 
L 1000.250325 324.376473 
L 1001.588187 327.04002 
L 1004.263911 327.372964 
L 1005.601773 329.635374 
L 1008.277498 329.635374 
L 1009.61536 321.963636 
L 1010.953222 325.471576 
L 1012.291084 325.519712 
L 1013.628946 325.303099 
L 1014.966808 329.635374 
L 1017.642532 329.635374 
L 1018.980395 317.579213 
L 1020.318257 324.342376 
L 1022.993981 325.202814 
L 1024.331843 329.635374 
L 1027.007567 329.635374 
L 1028.34543 314.769251 
L 1029.683292 322.946421 
L 1031.021154 323.291398 
L 1032.359016 323.293404 
L 1033.696878 329.635374 
L 1036.372602 329.635374 
L 1037.710465 310.637543 
L 1039.048327 321.524391 
L 1040.386189 321.568517 
L 1041.724051 321.351903 
L 1043.061913 329.635374 
L 1045.737637 329.635374 
L 1047.0755 304.201306 
L 1048.413362 320.232732 
L 1049.751224 319.488623 
L 1051.089086 329.635374 
L 1055.102672 329.635374 
L 1056.440534 287.020624 
L 1057.778397 311.37764 
L 1059.116259 307.330172 
L 1060.454121 329.635374 
L 1064.467707 329.635374 
L 1065.805569 243.453174 
L 1067.143432 294.507839 
L 1068.481294 329.635374 
L 1069.819156 246.634188 
L 1071.157018 329.635374 
L 1073.832742 329.635374 
L 1075.170604 187.95191 
L 1076.508467 285.632691 
L 1077.846329 278.356073 
L 1079.184191 278.358078 
L 1080.522053 329.635374 
L 1083.197777 329.635374 
L 1084.535639 134.586698 
L 1085.873501 243.942561 
L 1087.211364 246.652239 
L 1088.549226 244.805005 
L 1089.887088 329.635374 
L 1092.562812 329.635374 
L 1093.900674 50.8755 
L 1095.238536 228.358403 
L 1096.576399 245.815869 
L 1097.914261 218.961777 
L 1099.252123 329.635374 
L 1101.927847 329.635374 
L 1103.265709 102.082597 
L 1104.603571 251.002566 
L 1105.941434 256.345706 
L 1107.279296 273.217513 
L 1108.617158 329.635374 
L 1111.292882 329.635374 
L 1112.630744 195.916478 
L 1113.968606 293.168043 
L 1115.306469 295.602942 
L 1116.644331 314.141472 
L 1117.982193 329.635374 
L 1120.657917 329.635374 
L 1121.995779 306.066591 
L 1123.333641 318.840787 
L 1124.671503 321.41809 
L 1126.009366 321.018959 
L 1127.347228 329.635374 
L 1130.022952 329.635374 
L 1131.360814 312.569016 
L 1132.698676 322.779949 
L 1134.036538 323.483944 
L 1135.374401 323.032665 
L 1136.712263 329.635374 
L 1139.387987 329.635374 
L 1140.725849 315.515365 
L 1142.063711 323.052722 
L 1143.401573 324.677325 
L 1144.739436 325.563837 
L 1146.077298 329.635374 
L 1148.753022 329.635374 
L 1150.090884 319.973998 
L 1151.428746 325.285047 
L 1152.766608 325.329172 
L 1154.104471 326.670974 
L 1155.442333 329.635374 
L 1158.118057 329.635374 
L 1159.455919 322.260477 
L 1160.793781 325.997065 
L 1162.131643 326.348059 
L 1163.469505 325.664122 
L 1164.807368 329.635374 
L 1170.158816 329.635374 
L 1171.496678 317.502997 
L 1172.83454 329.635374 
L 1179.523851 329.635374 
L 1180.861713 317.368616 
L 1182.199575 329.635374 
L 1188.888886 329.635374 
L 1190.226748 321.355914 
L 1191.56461 329.635374 
L 1198.253921 329.635374 
L 1199.591783 321.580551 
L 1200.929645 329.635374 
L 1207.618956 329.635374 
L 1208.956818 324.83778 
L 1210.29468 329.635374 
L 1216.983991 329.635374 
L 1218.321853 324.563001 
L 1219.659715 329.635374 
L 1226.349026 329.635374 
L 1227.686888 325.277025 
L 1229.02475 329.635374 
L 1235.714061 329.635374 
L 1237.051923 326.017122 
L 1238.389785 329.635374 
L 1245.079096 329.635374 
L 1246.416958 326.199639 
L 1247.75482 329.635374 
L 1253.106269 329.635374 
L 1254.444131 326.945753 
L 1255.781993 329.635374 
L 1263.809166 329.635374 
L 1265.147028 326.791315 
L 1266.48489 329.635374 
L 1273.174201 329.635374 
L 1274.512063 326.498486 
L 1275.849925 329.635374 
L 1282.539236 329.635374 
L 1283.877098 325.778445 
L 1285.21496 329.635374 
L 1291.904271 329.635374 
L 1293.242133 323.786802 
L 1294.579995 329.635374 
L 1301.269306 329.635374 
L 1302.607168 322.755881 
L 1303.94503 329.635374 
L 1310.634341 329.635374 
L 1311.972203 321.201477 
L 1311.972203 321.201477 
" clip-path="url(#p716b1a7aa6)" style="fill: none; stroke: #0000ff; stroke-width: 1.5; stroke-linecap: square"/>
   </g>
   <g id="line2d_21">
    <path d="M 1072.49488 303.001956 
L 1073.832742 314.391246 
L 1075.170604 231.496873 
L 1076.508467 272.215246 
L 1077.846329 320.784994 
L 1079.184191 210.912413 
L 1080.522053 309.006036 
L 1083.197777 325.054543 
L 1084.535639 194.940023 
L 1085.873501 286.46698 
L 1087.211364 245.567693 
L 1088.549226 272.861898 
L 1089.887088 291.882682 
L 1091.22495 291.615156 
L 1092.562812 305.901084 
L 1093.900674 135.37853 
L 1095.238536 217.946419 
L 1096.576399 226.664609 
L 1097.914261 215.915013 
L 1099.252123 299.609977 
L 1100.589985 302.75148 
L 1101.927847 320.414897 
L 1103.265709 63.476553 
L 1104.603571 243.517353 
L 1105.941434 268.013504 
L 1107.279296 240.363665 
L 1108.617158 345.188134 
L 1109.95502 346.823589 
L 1111.292882 339.445159 
L 1112.630744 161.638081 
L 1113.968606 282.426308 
L 1115.306469 284.066474 
L 1116.644331 316.415879 
L 1117.982193 353.2755 
L 1119.320055 351.442533 
L 1120.657917 342.699567 
L 1121.995779 241.340881 
L 1123.333641 323.360752 
L 1124.671503 330.341952 
L 1126.009366 342.378889 
L 1127.347228 349.315535 
L 1128.68509 345.479947 
L 1130.022952 333.408882 
L 1131.360814 334.807884 
L 1132.698676 320.408591 
L 1134.036538 320.99048 
L 1135.374401 316.874985 
L 1136.712263 324.49931 
L 1138.050125 325.616201 
L 1139.387987 328.97216 
L 1140.725849 308.787998 
L 1142.063711 324.818121 
L 1143.401573 325.179299 
L 1144.739436 325.921039 
L 1146.077298 331.294431 
L 1147.41516 331.04394 
L 1148.753022 329.986939 
L 1150.090884 320.481806 
L 1151.428746 324.234947 
L 1152.766608 326.077251 
L 1154.104471 326.800997 
L 1155.442333 329.721947 
L 1158.118057 329.718782 
L 1159.455919 321.593623 
L 1160.793781 326.558917 
L 1162.131643 325.992219 
L 1163.469505 327.302306 
L 1164.807368 329.490011 
L 1166.14523 329.334945 
L 1167.483092 329.326115 
L 1168.820954 323.526704 
L 1170.158816 327.303794 
L 1171.496678 329.098176 
L 1172.83454 326.186784 
L 1174.172403 329.748821 
L 1175.510265 330.158126 
L 1176.848127 328.961027 
L 1178.185989 330.726721 
L 1179.523851 330.894407 
L 1180.861713 316.017792 
L 1182.199575 330.315068 
L 1183.537438 329.017373 
L 1184.8753 328.986684 
L 1186.213162 329.375032 
L 1187.551024 328.918162 
L 1188.888886 329.236392 
L 1190.226748 320.010198 
L 1191.56461 329.735367 
L 1192.902473 330.275533 
L 1196.916059 330.146146 
L 1198.253921 329.76181 
L 1199.591783 323.276378 
L 1200.929645 329.377988 
L 1202.267507 329.114544 
L 1206.281094 329.270639 
L 1207.618956 329.595307 
L 1208.956818 322.496626 
L 1210.29468 330.037652 
L 1211.632542 330.252246 
L 1215.646129 330.039237 
L 1216.983991 329.648071 
L 1218.321853 326.445399 
L 1219.659715 329.305111 
L 1220.997577 329.154207 
L 1225.011164 329.325116 
L 1226.349026 329.631351 
L 1227.686888 324.881776 
L 1229.02475 329.704246 
L 1233.038337 329.71772 
L 1235.714061 329.636649 
L 1237.051923 326.188732 
L 1238.389785 329.605306 
L 1245.079096 329.63497 
L 1246.416958 326.615645 
L 1247.75482 329.561266 
L 1251.768407 329.550678 
L 1254.444131 329.635502 
L 1255.781993 326.209557 
L 1257.119855 329.485786 
L 1258.457717 329.81451 
L 1259.795579 329.699316 
L 1261.133442 329.80679 
L 1262.471304 330.106369 
L 1263.809166 326.578719 
L 1265.147028 331.112931 
L 1266.48489 329.729248 
L 1267.822752 329.324418 
L 1269.160614 329.473586 
L 1270.498477 329.353137 
L 1271.836339 329.031575 
L 1273.174201 330.604016 
L 1274.512063 325.935017 
L 1275.849925 329.462311 
L 1281.201374 329.697894 
L 1282.539236 329.328415 
L 1283.877098 327.243092 
L 1285.21496 329.461548 
L 1286.552822 329.345977 
L 1289.228546 329.39677 
L 1290.566409 329.410017 
L 1291.904271 329.732648 
L 1293.242133 326.01028 
L 1294.579995 329.212593 
L 1295.917857 329.05386 
L 1299.931444 329.277249 
L 1301.269306 329.604548 
L 1302.607168 324.137553 
L 1303.94503 329.398404 
L 1305.282892 329.297059 
L 1309.296479 329.415429 
L 1310.634341 329.645143 
L 1311.972203 323.559425 
L 1311.972203 323.559425 
" clip-path="url(#p716b1a7aa6)" style="fill: none; stroke: #ffa500; stroke-width: 1.5; stroke-linecap: square"/>
   </g>
   <g id="line2d_22">
    <path d="M 1313.310065 329.213368 
L 1314.647927 328.967231 
L 1315.985789 328.91835 
L 1317.323651 328.769842 
L 1318.661513 328.699759 
L 1319.999376 328.896311 
L 1321.337238 321.177374 
L 1322.6751 328.343845 
L 1324.012962 328.049561 
L 1325.350824 328.004571 
L 1326.688686 327.850386 
L 1328.026548 327.760202 
L 1329.364411 327.983364 
L 1330.702273 321.637578 
" clip-path="url(#p716b1a7aa6)" style="fill: none; stroke: #ff0000; stroke-width: 1.5; stroke-linecap: square"/>
   </g>
   <g id="patch_3">
    <path d="M 52.375 368.3955 
L 52.375 35.7555 
" style="fill: none; stroke: #000000; stroke-width: 0.8; stroke-linejoin: miter; stroke-linecap: square"/>
   </g>
   <g id="patch_4">
    <path d="M 1391.575 368.3955 
L 1391.575 35.7555 
" style="fill: none; stroke: #000000; stroke-width: 0.8; stroke-linejoin: miter; stroke-linecap: square"/>
   </g>
   <g id="patch_5">
    <path d="M 52.375 368.3955 
L 1391.575 368.3955 
" style="fill: none; stroke: #000000; stroke-width: 0.8; stroke-linejoin: miter; stroke-linecap: square"/>
   </g>
   <g id="patch_6">
    <path d="M 52.375 35.7555 
L 1391.575 35.7555 
" style="fill: none; stroke: #000000; stroke-width: 0.8; stroke-linejoin: miter; stroke-linecap: square"/>
   </g>
   <g id="text_20">
    <!-- Daily Confirmed Cases Forecasting - Sweden -->
    <g transform="translate(587.763438 16.318125)scale(0.12 -0.12)">
     <defs>
      <path id="DejaVuSans-44" d="M 1259 4147 
L 1259 519 
L 2022 519 
Q 2988 519 3436 956 
Q 3884 1394 3884 2338 
Q 3884 3275 3436 3711 
Q 2988 4147 2022 4147 
L 1259 4147 
z
M 628 4666 
L 1925 4666 
Q 3281 4666 3915 4102 
Q 4550 3538 4550 2338 
Q 4550 1131 3912 565 
Q 3275 0 1925 0 
L 628 0 
L 628 4666 
z
" transform="scale(0.015625)"/>
      <path id="DejaVuSans-61" d="M 2194 1759 
Q 1497 1759 1228 1600 
Q 959 1441 959 1056 
Q 959 750 1161 570 
Q 1363 391 1709 391 
Q 2188 391 2477 730 
Q 2766 1069 2766 1631 
L 2766 1759 
L 2194 1759 
z
M 3341 1997 
L 3341 0 
L 2766 0 
L 2766 531 
Q 2569 213 2275 61 
Q 1981 -91 1556 -91 
Q 1019 -91 701 211 
Q 384 513 384 1019 
Q 384 1609 779 1909 
Q 1175 2209 1959 2209 
L 2766 2209 
L 2766 2266 
Q 2766 2663 2505 2880 
Q 2244 3097 1772 3097 
Q 1472 3097 1187 3025 
Q 903 2953 641 2809 
L 641 3341 
Q 956 3463 1253 3523 
Q 1550 3584 1831 3584 
Q 2591 3584 2966 3190 
Q 3341 2797 3341 1997 
z
" transform="scale(0.015625)"/>
      <path id="DejaVuSans-69" d="M 603 3500 
L 1178 3500 
L 1178 0 
L 603 0 
L 603 3500 
z
M 603 4863 
L 1178 4863 
L 1178 4134 
L 603 4134 
L 603 4863 
z
" transform="scale(0.015625)"/>
      <path id="DejaVuSans-6c" d="M 603 4863 
L 1178 4863 
L 1178 0 
L 603 0 
L 603 4863 
z
" transform="scale(0.015625)"/>
      <path id="DejaVuSans-79" d="M 2059 -325 
Q 1816 -950 1584 -1140 
Q 1353 -1331 966 -1331 
L 506 -1331 
L 506 -850 
L 844 -850 
Q 1081 -850 1212 -737 
Q 1344 -625 1503 -206 
L 1606 56 
L 191 3500 
L 800 3500 
L 1894 763 
L 2988 3500 
L 3597 3500 
L 2059 -325 
z
" transform="scale(0.015625)"/>
      <path id="DejaVuSans-20" transform="scale(0.015625)"/>
      <path id="DejaVuSans-43" d="M 4122 4306 
L 4122 3641 
Q 3803 3938 3442 4084 
Q 3081 4231 2675 4231 
Q 1875 4231 1450 3742 
Q 1025 3253 1025 2328 
Q 1025 1406 1450 917 
Q 1875 428 2675 428 
Q 3081 428 3442 575 
Q 3803 722 4122 1019 
L 4122 359 
Q 3791 134 3420 21 
Q 3050 -91 2638 -91 
Q 1578 -91 968 557 
Q 359 1206 359 2328 
Q 359 3453 968 4101 
Q 1578 4750 2638 4750 
Q 3056 4750 3426 4639 
Q 3797 4528 4122 4306 
z
" transform="scale(0.015625)"/>
      <path id="DejaVuSans-6f" d="M 1959 3097 
Q 1497 3097 1228 2736 
Q 959 2375 959 1747 
Q 959 1119 1226 758 
Q 1494 397 1959 397 
Q 2419 397 2687 759 
Q 2956 1122 2956 1747 
Q 2956 2369 2687 2733 
Q 2419 3097 1959 3097 
z
M 1959 3584 
Q 2709 3584 3137 3096 
Q 3566 2609 3566 1747 
Q 3566 888 3137 398 
Q 2709 -91 1959 -91 
Q 1206 -91 779 398 
Q 353 888 353 1747 
Q 353 2609 779 3096 
Q 1206 3584 1959 3584 
z
" transform="scale(0.015625)"/>
      <path id="DejaVuSans-6e" d="M 3513 2113 
L 3513 0 
L 2938 0 
L 2938 2094 
Q 2938 2591 2744 2837 
Q 2550 3084 2163 3084 
Q 1697 3084 1428 2787 
Q 1159 2491 1159 1978 
L 1159 0 
L 581 0 
L 581 3500 
L 1159 3500 
L 1159 2956 
Q 1366 3272 1645 3428 
Q 1925 3584 2291 3584 
Q 2894 3584 3203 3211 
Q 3513 2838 3513 2113 
z
" transform="scale(0.015625)"/>
      <path id="DejaVuSans-66" d="M 2375 4863 
L 2375 4384 
L 1825 4384 
Q 1516 4384 1395 4259 
Q 1275 4134 1275 3809 
L 1275 3500 
L 2222 3500 
L 2222 3053 
L 1275 3053 
L 1275 0 
L 697 0 
L 697 3053 
L 147 3053 
L 147 3500 
L 697 3500 
L 697 3744 
Q 697 4328 969 4595 
Q 1241 4863 1831 4863 
L 2375 4863 
z
" transform="scale(0.015625)"/>
      <path id="DejaVuSans-72" d="M 2631 2963 
Q 2534 3019 2420 3045 
Q 2306 3072 2169 3072 
Q 1681 3072 1420 2755 
Q 1159 2438 1159 1844 
L 1159 0 
L 581 0 
L 581 3500 
L 1159 3500 
L 1159 2956 
Q 1341 3275 1631 3429 
Q 1922 3584 2338 3584 
Q 2397 3584 2469 3576 
Q 2541 3569 2628 3553 
L 2631 2963 
z
" transform="scale(0.015625)"/>
      <path id="DejaVuSans-6d" d="M 3328 2828 
Q 3544 3216 3844 3400 
Q 4144 3584 4550 3584 
Q 5097 3584 5394 3201 
Q 5691 2819 5691 2113 
L 5691 0 
L 5113 0 
L 5113 2094 
Q 5113 2597 4934 2840 
Q 4756 3084 4391 3084 
Q 3944 3084 3684 2787 
Q 3425 2491 3425 1978 
L 3425 0 
L 2847 0 
L 2847 2094 
Q 2847 2600 2669 2842 
Q 2491 3084 2119 3084 
Q 1678 3084 1418 2786 
Q 1159 2488 1159 1978 
L 1159 0 
L 581 0 
L 581 3500 
L 1159 3500 
L 1159 2956 
Q 1356 3278 1631 3431 
Q 1906 3584 2284 3584 
Q 2666 3584 2933 3390 
Q 3200 3197 3328 2828 
z
" transform="scale(0.015625)"/>
      <path id="DejaVuSans-65" d="M 3597 1894 
L 3597 1613 
L 953 1613 
Q 991 1019 1311 708 
Q 1631 397 2203 397 
Q 2534 397 2845 478 
Q 3156 559 3463 722 
L 3463 178 
Q 3153 47 2828 -22 
Q 2503 -91 2169 -91 
Q 1331 -91 842 396 
Q 353 884 353 1716 
Q 353 2575 817 3079 
Q 1281 3584 2069 3584 
Q 2775 3584 3186 3129 
Q 3597 2675 3597 1894 
z
M 3022 2063 
Q 3016 2534 2758 2815 
Q 2500 3097 2075 3097 
Q 1594 3097 1305 2825 
Q 1016 2553 972 2059 
L 3022 2063 
z
" transform="scale(0.015625)"/>
      <path id="DejaVuSans-64" d="M 2906 2969 
L 2906 4863 
L 3481 4863 
L 3481 0 
L 2906 0 
L 2906 525 
Q 2725 213 2448 61 
Q 2172 -91 1784 -91 
Q 1150 -91 751 415 
Q 353 922 353 1747 
Q 353 2572 751 3078 
Q 1150 3584 1784 3584 
Q 2172 3584 2448 3432 
Q 2725 3281 2906 2969 
z
M 947 1747 
Q 947 1113 1208 752 
Q 1469 391 1925 391 
Q 2381 391 2643 752 
Q 2906 1113 2906 1747 
Q 2906 2381 2643 2742 
Q 2381 3103 1925 3103 
Q 1469 3103 1208 2742 
Q 947 2381 947 1747 
z
" transform="scale(0.015625)"/>
      <path id="DejaVuSans-73" d="M 2834 3397 
L 2834 2853 
Q 2591 2978 2328 3040 
Q 2066 3103 1784 3103 
Q 1356 3103 1142 2972 
Q 928 2841 928 2578 
Q 928 2378 1081 2264 
Q 1234 2150 1697 2047 
L 1894 2003 
Q 2506 1872 2764 1633 
Q 3022 1394 3022 966 
Q 3022 478 2636 193 
Q 2250 -91 1575 -91 
Q 1294 -91 989 -36 
Q 684 19 347 128 
L 347 722 
Q 666 556 975 473 
Q 1284 391 1588 391 
Q 1994 391 2212 530 
Q 2431 669 2431 922 
Q 2431 1156 2273 1281 
Q 2116 1406 1581 1522 
L 1381 1569 
Q 847 1681 609 1914 
Q 372 2147 372 2553 
Q 372 3047 722 3315 
Q 1072 3584 1716 3584 
Q 2034 3584 2315 3537 
Q 2597 3491 2834 3397 
z
" transform="scale(0.015625)"/>
      <path id="DejaVuSans-46" d="M 628 4666 
L 3309 4666 
L 3309 4134 
L 1259 4134 
L 1259 2759 
L 3109 2759 
L 3109 2228 
L 1259 2228 
L 1259 0 
L 628 0 
L 628 4666 
z
" transform="scale(0.015625)"/>
      <path id="DejaVuSans-63" d="M 3122 3366 
L 3122 2828 
Q 2878 2963 2633 3030 
Q 2388 3097 2138 3097 
Q 1578 3097 1268 2742 
Q 959 2388 959 1747 
Q 959 1106 1268 751 
Q 1578 397 2138 397 
Q 2388 397 2633 464 
Q 2878 531 3122 666 
L 3122 134 
Q 2881 22 2623 -34 
Q 2366 -91 2075 -91 
Q 1284 -91 818 406 
Q 353 903 353 1747 
Q 353 2603 823 3093 
Q 1294 3584 2113 3584 
Q 2378 3584 2631 3529 
Q 2884 3475 3122 3366 
z
" transform="scale(0.015625)"/>
      <path id="DejaVuSans-74" d="M 1172 4494 
L 1172 3500 
L 2356 3500 
L 2356 3053 
L 1172 3053 
L 1172 1153 
Q 1172 725 1289 603 
Q 1406 481 1766 481 
L 2356 481 
L 2356 0 
L 1766 0 
Q 1100 0 847 248 
Q 594 497 594 1153 
L 594 3053 
L 172 3053 
L 172 3500 
L 594 3500 
L 594 4494 
L 1172 4494 
z
" transform="scale(0.015625)"/>
      <path id="DejaVuSans-67" d="M 2906 1791 
Q 2906 2416 2648 2759 
Q 2391 3103 1925 3103 
Q 1463 3103 1205 2759 
Q 947 2416 947 1791 
Q 947 1169 1205 825 
Q 1463 481 1925 481 
Q 2391 481 2648 825 
Q 2906 1169 2906 1791 
z
M 3481 434 
Q 3481 -459 3084 -895 
Q 2688 -1331 1869 -1331 
Q 1566 -1331 1297 -1286 
Q 1028 -1241 775 -1147 
L 775 -588 
Q 1028 -725 1275 -790 
Q 1522 -856 1778 -856 
Q 2344 -856 2625 -561 
Q 2906 -266 2906 331 
L 2906 616 
Q 2728 306 2450 153 
Q 2172 0 1784 0 
Q 1141 0 747 490 
Q 353 981 353 1791 
Q 353 2603 747 3093 
Q 1141 3584 1784 3584 
Q 2172 3584 2450 3431 
Q 2728 3278 2906 2969 
L 2906 3500 
L 3481 3500 
L 3481 434 
z
" transform="scale(0.015625)"/>
      <path id="DejaVuSans-53" d="M 3425 4513 
L 3425 3897 
Q 3066 4069 2747 4153 
Q 2428 4238 2131 4238 
Q 1616 4238 1336 4038 
Q 1056 3838 1056 3469 
Q 1056 3159 1242 3001 
Q 1428 2844 1947 2747 
L 2328 2669 
Q 3034 2534 3370 2195 
Q 3706 1856 3706 1288 
Q 3706 609 3251 259 
Q 2797 -91 1919 -91 
Q 1588 -91 1214 -16 
Q 841 59 441 206 
L 441 856 
Q 825 641 1194 531 
Q 1563 422 1919 422 
Q 2459 422 2753 634 
Q 3047 847 3047 1241 
Q 3047 1584 2836 1778 
Q 2625 1972 2144 2069 
L 1759 2144 
Q 1053 2284 737 2584 
Q 422 2884 422 3419 
Q 422 4038 858 4394 
Q 1294 4750 2059 4750 
Q 2388 4750 2728 4690 
Q 3069 4631 3425 4513 
z
" transform="scale(0.015625)"/>
      <path id="DejaVuSans-77" d="M 269 3500 
L 844 3500 
L 1563 769 
L 2278 3500 
L 2956 3500 
L 3675 769 
L 4391 3500 
L 4966 3500 
L 4050 0 
L 3372 0 
L 2619 2869 
L 1863 0 
L 1184 0 
L 269 3500 
z
" transform="scale(0.015625)"/>
     </defs>
     <use xlink:href="#DejaVuSans-44"/>
     <use xlink:href="#DejaVuSans-61" x="77.001953"/>
     <use xlink:href="#DejaVuSans-69" x="138.28125"/>
     <use xlink:href="#DejaVuSans-6c" x="166.064453"/>
     <use xlink:href="#DejaVuSans-79" x="193.847656"/>
     <use xlink:href="#DejaVuSans-20" x="253.027344"/>
     <use xlink:href="#DejaVuSans-43" x="284.814453"/>
     <use xlink:href="#DejaVuSans-6f" x="354.638672"/>
     <use xlink:href="#DejaVuSans-6e" x="415.820312"/>
     <use xlink:href="#DejaVuSans-66" x="479.199219"/>
     <use xlink:href="#DejaVuSans-69" x="514.404297"/>
     <use xlink:href="#DejaVuSans-72" x="542.1875"/>
     <use xlink:href="#DejaVuSans-6d" x="581.550781"/>
     <use xlink:href="#DejaVuSans-65" x="678.962891"/>
     <use xlink:href="#DejaVuSans-64" x="740.486328"/>
     <use xlink:href="#DejaVuSans-20" x="803.962891"/>
     <use xlink:href="#DejaVuSans-43" x="835.75"/>
     <use xlink:href="#DejaVuSans-61" x="905.574219"/>
     <use xlink:href="#DejaVuSans-73" x="966.853516"/>
     <use xlink:href="#DejaVuSans-65" x="1018.953125"/>
     <use xlink:href="#DejaVuSans-73" x="1080.476562"/>
     <use xlink:href="#DejaVuSans-20" x="1132.576172"/>
     <use xlink:href="#DejaVuSans-46" x="1164.363281"/>
     <use xlink:href="#DejaVuSans-6f" x="1218.257812"/>
     <use xlink:href="#DejaVuSans-72" x="1279.439453"/>
     <use xlink:href="#DejaVuSans-65" x="1318.302734"/>
     <use xlink:href="#DejaVuSans-63" x="1379.826172"/>
     <use xlink:href="#DejaVuSans-61" x="1434.806641"/>
     <use xlink:href="#DejaVuSans-73" x="1496.085938"/>
     <use xlink:href="#DejaVuSans-74" x="1548.185547"/>
     <use xlink:href="#DejaVuSans-69" x="1587.394531"/>
     <use xlink:href="#DejaVuSans-6e" x="1615.177734"/>
     <use xlink:href="#DejaVuSans-67" x="1678.556641"/>
     <use xlink:href="#DejaVuSans-20" x="1742.033203"/>
     <use xlink:href="#DejaVuSans-2d" x="1773.820312"/>
     <use xlink:href="#DejaVuSans-20" x="1809.904297"/>
     <use xlink:href="#DejaVuSans-53" x="1841.691406"/>
     <use xlink:href="#DejaVuSans-77" x="1905.167969"/>
     <use xlink:href="#DejaVuSans-65" x="1986.955078"/>
     <use xlink:href="#DejaVuSans-64" x="2048.478516"/>
     <use xlink:href="#DejaVuSans-65" x="2111.955078"/>
     <use xlink:href="#DejaVuSans-6e" x="2173.478516"/>
    </g>
    <!-- ARIMA (4, 1, 0)x(1, 0, 1, 7) (R2 = 0.838672) -->
    <g transform="translate(589.990937 29.7555)scale(0.12 -0.12)">
     <defs>
      <path id="DejaVuSans-41" d="M 2188 4044 
L 1331 1722 
L 3047 1722 
L 2188 4044 
z
M 1831 4666 
L 2547 4666 
L 4325 0 
L 3669 0 
L 3244 1197 
L 1141 1197 
L 716 0 
L 50 0 
L 1831 4666 
z
" transform="scale(0.015625)"/>
      <path id="DejaVuSans-52" d="M 2841 2188 
Q 3044 2119 3236 1894 
Q 3428 1669 3622 1275 
L 4263 0 
L 3584 0 
L 2988 1197 
Q 2756 1666 2539 1819 
Q 2322 1972 1947 1972 
L 1259 1972 
L 1259 0 
L 628 0 
L 628 4666 
L 2053 4666 
Q 2853 4666 3247 4331 
Q 3641 3997 3641 3322 
Q 3641 2881 3436 2590 
Q 3231 2300 2841 2188 
z
M 1259 4147 
L 1259 2491 
L 2053 2491 
Q 2509 2491 2742 2702 
Q 2975 2913 2975 3322 
Q 2975 3731 2742 3939 
Q 2509 4147 2053 4147 
L 1259 4147 
z
" transform="scale(0.015625)"/>
      <path id="DejaVuSans-49" d="M 628 4666 
L 1259 4666 
L 1259 0 
L 628 0 
L 628 4666 
z
" transform="scale(0.015625)"/>
      <path id="DejaVuSans-4d" d="M 628 4666 
L 1569 4666 
L 2759 1491 
L 3956 4666 
L 4897 4666 
L 4897 0 
L 4281 0 
L 4281 4097 
L 3078 897 
L 2444 897 
L 1241 4097 
L 1241 0 
L 628 0 
L 628 4666 
z
" transform="scale(0.015625)"/>
      <path id="DejaVuSans-28" d="M 1984 4856 
Q 1566 4138 1362 3434 
Q 1159 2731 1159 2009 
Q 1159 1288 1364 580 
Q 1569 -128 1984 -844 
L 1484 -844 
Q 1016 -109 783 600 
Q 550 1309 550 2009 
Q 550 2706 781 3412 
Q 1013 4119 1484 4856 
L 1984 4856 
z
" transform="scale(0.015625)"/>
      <path id="DejaVuSans-2c" d="M 750 794 
L 1409 794 
L 1409 256 
L 897 -744 
L 494 -744 
L 750 256 
L 750 794 
z
" transform="scale(0.015625)"/>
      <path id="DejaVuSans-29" d="M 513 4856 
L 1013 4856 
Q 1481 4119 1714 3412 
Q 1947 2706 1947 2009 
Q 1947 1309 1714 600 
Q 1481 -109 1013 -844 
L 513 -844 
Q 928 -128 1133 580 
Q 1338 1288 1338 2009 
Q 1338 2731 1133 3434 
Q 928 4138 513 4856 
z
" transform="scale(0.015625)"/>
      <path id="DejaVuSans-78" d="M 3513 3500 
L 2247 1797 
L 3578 0 
L 2900 0 
L 1881 1375 
L 863 0 
L 184 0 
L 1544 1831 
L 300 3500 
L 978 3500 
L 1906 2253 
L 2834 3500 
L 3513 3500 
z
" transform="scale(0.015625)"/>
      <path id="DejaVuSans-3d" d="M 678 2906 
L 4684 2906 
L 4684 2381 
L 678 2381 
L 678 2906 
z
M 678 1631 
L 4684 1631 
L 4684 1100 
L 678 1100 
L 678 1631 
z
" transform="scale(0.015625)"/>
      <path id="DejaVuSans-2e" d="M 684 794 
L 1344 794 
L 1344 0 
L 684 0 
L 684 794 
z
" transform="scale(0.015625)"/>
      <path id="DejaVuSans-33" d="M 2597 2516 
Q 3050 2419 3304 2112 
Q 3559 1806 3559 1356 
Q 3559 666 3084 287 
Q 2609 -91 1734 -91 
Q 1441 -91 1130 -33 
Q 819 25 488 141 
L 488 750 
Q 750 597 1062 519 
Q 1375 441 1716 441 
Q 2309 441 2620 675 
Q 2931 909 2931 1356 
Q 2931 1769 2642 2001 
Q 2353 2234 1838 2234 
L 1294 2234 
L 1294 2753 
L 1863 2753 
Q 2328 2753 2575 2939 
Q 2822 3125 2822 3475 
Q 2822 3834 2567 4026 
Q 2313 4219 1838 4219 
Q 1578 4219 1281 4162 
Q 984 4106 628 3988 
L 628 4550 
Q 988 4650 1302 4700 
Q 1616 4750 1894 4750 
Q 2613 4750 3031 4423 
Q 3450 4097 3450 3541 
Q 3450 3153 3228 2886 
Q 3006 2619 2597 2516 
z
" transform="scale(0.015625)"/>
     </defs>
     <use xlink:href="#DejaVuSans-41"/>
     <use xlink:href="#DejaVuSans-52" x="68.408203"/>
     <use xlink:href="#DejaVuSans-49" x="137.890625"/>
     <use xlink:href="#DejaVuSans-4d" x="167.382812"/>
     <use xlink:href="#DejaVuSans-41" x="253.662109"/>
     <use xlink:href="#DejaVuSans-20" x="322.070312"/>
     <use xlink:href="#DejaVuSans-28" x="353.857422"/>
     <use xlink:href="#DejaVuSans-34" x="392.871094"/>
     <use xlink:href="#DejaVuSans-2c" x="456.494141"/>
     <use xlink:href="#DejaVuSans-20" x="488.28125"/>
     <use xlink:href="#DejaVuSans-31" x="520.068359"/>
     <use xlink:href="#DejaVuSans-2c" x="583.691406"/>
     <use xlink:href="#DejaVuSans-20" x="615.478516"/>
     <use xlink:href="#DejaVuSans-30" x="647.265625"/>
     <use xlink:href="#DejaVuSans-29" x="710.888672"/>
     <use xlink:href="#DejaVuSans-78" x="749.902344"/>
     <use xlink:href="#DejaVuSans-28" x="809.082031"/>
     <use xlink:href="#DejaVuSans-31" x="848.095703"/>
     <use xlink:href="#DejaVuSans-2c" x="911.71875"/>
     <use xlink:href="#DejaVuSans-20" x="943.505859"/>
     <use xlink:href="#DejaVuSans-30" x="975.292969"/>
     <use xlink:href="#DejaVuSans-2c" x="1038.916016"/>
     <use xlink:href="#DejaVuSans-20" x="1070.703125"/>
     <use xlink:href="#DejaVuSans-31" x="1102.490234"/>
     <use xlink:href="#DejaVuSans-2c" x="1166.113281"/>
     <use xlink:href="#DejaVuSans-20" x="1197.900391"/>
     <use xlink:href="#DejaVuSans-37" x="1229.6875"/>
     <use xlink:href="#DejaVuSans-29" x="1293.310547"/>
     <use xlink:href="#DejaVuSans-20" x="1332.324219"/>
     <use xlink:href="#DejaVuSans-28" x="1364.111328"/>
     <use xlink:href="#DejaVuSans-52" x="1403.125"/>
     <use xlink:href="#DejaVuSans-32" x="1472.607422"/>
     <use xlink:href="#DejaVuSans-20" x="1536.230469"/>
     <use xlink:href="#DejaVuSans-3d" x="1568.017578"/>
     <use xlink:href="#DejaVuSans-20" x="1651.806641"/>
     <use xlink:href="#DejaVuSans-30" x="1683.59375"/>
     <use xlink:href="#DejaVuSans-2e" x="1747.216797"/>
     <use xlink:href="#DejaVuSans-38" x="1779.003906"/>
     <use xlink:href="#DejaVuSans-33" x="1842.626953"/>
     <use xlink:href="#DejaVuSans-38" x="1906.25"/>
     <use xlink:href="#DejaVuSans-36" x="1969.873047"/>
     <use xlink:href="#DejaVuSans-37" x="2033.496094"/>
     <use xlink:href="#DejaVuSans-32" x="2097.119141"/>
     <use xlink:href="#DejaVuSans-29" x="2160.742188"/>
    </g>
   </g>
   <g id="legend_1">
    <g id="patch_7">
     <path d="M 1287.495312 87.789875 
L 1384.575 87.789875 
Q 1386.575 87.789875 1386.575 85.789875 
L 1386.575 42.7555 
Q 1386.575 40.7555 1384.575 40.7555 
L 1287.495312 40.7555 
Q 1285.495312 40.7555 1285.495312 42.7555 
L 1285.495312 85.789875 
Q 1285.495312 87.789875 1287.495312 87.789875 
z
" style="fill: #ffffff; opacity: 0.8; stroke: #cccccc; stroke-linejoin: miter"/>
    </g>
    <g id="line2d_23">
     <path d="M 1289.495312 48.853937 
L 1299.495312 48.853937 
L 1309.495312 48.853937 
" style="fill: none; stroke: #0000ff; stroke-width: 1.5; stroke-linecap: square"/>
    </g>
    <g id="text_21">
     <!-- Actual Value -->
     <g transform="translate(1317.495312 52.353937)scale(0.1 -0.1)">
      <defs>
       <path id="DejaVuSans-75" d="M 544 1381 
L 544 3500 
L 1119 3500 
L 1119 1403 
Q 1119 906 1312 657 
Q 1506 409 1894 409 
Q 2359 409 2629 706 
Q 2900 1003 2900 1516 
L 2900 3500 
L 3475 3500 
L 3475 0 
L 2900 0 
L 2900 538 
Q 2691 219 2414 64 
Q 2138 -91 1772 -91 
Q 1169 -91 856 284 
Q 544 659 544 1381 
z
M 1991 3584 
L 1991 3584 
z
" transform="scale(0.015625)"/>
       <path id="DejaVuSans-56" d="M 1831 0 
L 50 4666 
L 709 4666 
L 2188 738 
L 3669 4666 
L 4325 4666 
L 2547 0 
L 1831 0 
z
" transform="scale(0.015625)"/>
      </defs>
      <use xlink:href="#DejaVuSans-41"/>
      <use xlink:href="#DejaVuSans-63" x="66.658203"/>
      <use xlink:href="#DejaVuSans-74" x="121.638672"/>
      <use xlink:href="#DejaVuSans-75" x="160.847656"/>
      <use xlink:href="#DejaVuSans-61" x="224.226562"/>
      <use xlink:href="#DejaVuSans-6c" x="285.505859"/>
      <use xlink:href="#DejaVuSans-20" x="313.289062"/>
      <use xlink:href="#DejaVuSans-56" x="345.076172"/>
      <use xlink:href="#DejaVuSans-61" x="405.734375"/>
      <use xlink:href="#DejaVuSans-6c" x="467.013672"/>
      <use xlink:href="#DejaVuSans-75" x="494.796875"/>
      <use xlink:href="#DejaVuSans-65" x="558.175781"/>
     </g>
    </g>
    <g id="line2d_24">
     <path d="M 1289.495312 63.532062 
L 1299.495312 63.532062 
L 1309.495312 63.532062 
" style="fill: none; stroke: #ffa500; stroke-width: 1.5; stroke-linecap: square"/>
    </g>
    <g id="text_22">
     <!-- Check Value -->
     <g transform="translate(1317.495312 67.032062)scale(0.1 -0.1)">
      <defs>
       <path id="DejaVuSans-68" d="M 3513 2113 
L 3513 0 
L 2938 0 
L 2938 2094 
Q 2938 2591 2744 2837 
Q 2550 3084 2163 3084 
Q 1697 3084 1428 2787 
Q 1159 2491 1159 1978 
L 1159 0 
L 581 0 
L 581 4863 
L 1159 4863 
L 1159 2956 
Q 1366 3272 1645 3428 
Q 1925 3584 2291 3584 
Q 2894 3584 3203 3211 
Q 3513 2838 3513 2113 
z
" transform="scale(0.015625)"/>
       <path id="DejaVuSans-6b" d="M 581 4863 
L 1159 4863 
L 1159 1991 
L 2875 3500 
L 3609 3500 
L 1753 1863 
L 3688 0 
L 2938 0 
L 1159 1709 
L 1159 0 
L 581 0 
L 581 4863 
z
" transform="scale(0.015625)"/>
      </defs>
      <use xlink:href="#DejaVuSans-43"/>
      <use xlink:href="#DejaVuSans-68" x="69.824219"/>
      <use xlink:href="#DejaVuSans-65" x="133.203125"/>
      <use xlink:href="#DejaVuSans-63" x="194.726562"/>
      <use xlink:href="#DejaVuSans-6b" x="249.707031"/>
      <use xlink:href="#DejaVuSans-20" x="307.617188"/>
      <use xlink:href="#DejaVuSans-56" x="339.404297"/>
      <use xlink:href="#DejaVuSans-61" x="400.0625"/>
      <use xlink:href="#DejaVuSans-6c" x="461.341797"/>
      <use xlink:href="#DejaVuSans-75" x="489.125"/>
      <use xlink:href="#DejaVuSans-65" x="552.503906"/>
     </g>
    </g>
    <g id="line2d_25">
     <path d="M 1289.495312 78.210187 
L 1299.495312 78.210187 
L 1309.495312 78.210187 
" style="fill: none; stroke: #ff0000; stroke-width: 1.5; stroke-linecap: square"/>
    </g>
    <g id="text_23">
     <!-- Predict Value -->
     <g transform="translate(1317.495312 81.710187)scale(0.1 -0.1)">
      <defs>
       <path id="DejaVuSans-50" d="M 1259 4147 
L 1259 2394 
L 2053 2394 
Q 2494 2394 2734 2622 
Q 2975 2850 2975 3272 
Q 2975 3691 2734 3919 
Q 2494 4147 2053 4147 
L 1259 4147 
z
M 628 4666 
L 2053 4666 
Q 2838 4666 3239 4311 
Q 3641 3956 3641 3272 
Q 3641 2581 3239 2228 
Q 2838 1875 2053 1875 
L 1259 1875 
L 1259 0 
L 628 0 
L 628 4666 
z
" transform="scale(0.015625)"/>
      </defs>
      <use xlink:href="#DejaVuSans-50"/>
      <use xlink:href="#DejaVuSans-72" x="58.552734"/>
      <use xlink:href="#DejaVuSans-65" x="97.416016"/>
      <use xlink:href="#DejaVuSans-64" x="158.939453"/>
      <use xlink:href="#DejaVuSans-69" x="222.416016"/>
      <use xlink:href="#DejaVuSans-63" x="250.199219"/>
      <use xlink:href="#DejaVuSans-74" x="305.179688"/>
      <use xlink:href="#DejaVuSans-20" x="344.388672"/>
      <use xlink:href="#DejaVuSans-56" x="376.175781"/>
      <use xlink:href="#DejaVuSans-61" x="436.833984"/>
      <use xlink:href="#DejaVuSans-6c" x="498.113281"/>
      <use xlink:href="#DejaVuSans-75" x="525.896484"/>
      <use xlink:href="#DejaVuSans-65" x="589.275391"/>
     </g>
    </g>
   </g>
  </g>
 </g>
 <defs>
  <clipPath id="p716b1a7aa6">
   <rect x="52.375" y="35.7555" width="1339.2" height="332.64"/>
  </clipPath>
 </defs>
</svg>
