<?xml version="1.0" encoding="utf-8" standalone="no"?>
<!DOCTYPE svg PUBLIC "-//W3C//DTD SVG 1.1//EN"
  "http://www.w3.org/Graphics/SVG/1.1/DTD/svg11.dtd">
<svg xmlns:xlink="http://www.w3.org/1999/xlink" width="1392.4125pt" height="392.273625pt" viewBox="0 0 1392.4125 392.273625" xmlns="http://www.w3.org/2000/svg" version="1.1">
 <metadata>
  <rdf:RDF xmlns:dc="http://purl.org/dc/elements/1.1/" xmlns:cc="http://creativecommons.org/ns#" xmlns:rdf="http://www.w3.org/1999/02/22-rdf-syntax-ns#">
   <cc:Work>
    <dc:type rdf:resource="http://purl.org/dc/dcmitype/StillImage"/>
    <dc:date>2022-11-25T18:58:46.612761</dc:date>
    <dc:format>image/svg+xml</dc:format>
    <dc:creator>
     <cc:Agent>
      <dc:title>Matplotlib v3.5.1, https://matplotlib.org/</dc:title>
     </cc:Agent>
    </dc:creator>
   </cc:Work>
  </rdf:RDF>
 </metadata>
 <defs>
  <style type="text/css">*{stroke-linejoin: round; stroke-linecap: butt}</style>
 </defs>
 <g id="figure_1">
  <g id="patch_1">
   <path d="M 0 392.273625 
L 1392.4125 392.273625 
L 1392.4125 0 
L 0 0 
z
" style="fill: #ffffff"/>
  </g>
  <g id="axes_1">
   <g id="patch_2">
    <path d="M 46.0125 368.3955 
L 1385.2125 368.3955 
L 1385.2125 35.7555 
L 46.0125 35.7555 
z
" style="fill: #ffffff"/>
   </g>
   <g id="matplotlib.axis_1">
    <g id="xtick_1">
     <g id="line2d_1">
      <defs>
       <path id="md094d4d30f" d="M 0 0 
L 0 3.5 
" style="stroke: #000000; stroke-width: 0.8"/>
      </defs>
      <g>
       <use xlink:href="#md094d4d30f" x="81.376656" y="368.3955" style="stroke: #000000; stroke-width: 0.8"/>
      </g>
     </g>
     <g id="text_1">
      <!-- 2020-01 -->
      <g transform="translate(60.48525 382.993937)scale(0.1 -0.1)">
       <defs>
        <path id="DejaVuSans-32" d="M 1228 531 
L 3431 531 
L 3431 0 
L 469 0 
L 469 531 
Q 828 903 1448 1529 
Q 2069 2156 2228 2338 
Q 2531 2678 2651 2914 
Q 2772 3150 2772 3378 
Q 2772 3750 2511 3984 
Q 2250 4219 1831 4219 
Q 1534 4219 1204 4116 
Q 875 4013 500 3803 
L 500 4441 
Q 881 4594 1212 4672 
Q 1544 4750 1819 4750 
Q 2544 4750 2975 4387 
Q 3406 4025 3406 3419 
Q 3406 3131 3298 2873 
Q 3191 2616 2906 2266 
Q 2828 2175 2409 1742 
Q 1991 1309 1228 531 
z
" transform="scale(0.015625)"/>
        <path id="DejaVuSans-30" d="M 2034 4250 
Q 1547 4250 1301 3770 
Q 1056 3291 1056 2328 
Q 1056 1369 1301 889 
Q 1547 409 2034 409 
Q 2525 409 2770 889 
Q 3016 1369 3016 2328 
Q 3016 3291 2770 3770 
Q 2525 4250 2034 4250 
z
M 2034 4750 
Q 2819 4750 3233 4129 
Q 3647 3509 3647 2328 
Q 3647 1150 3233 529 
Q 2819 -91 2034 -91 
Q 1250 -91 836 529 
Q 422 1150 422 2328 
Q 422 3509 836 4129 
Q 1250 4750 2034 4750 
z
" transform="scale(0.015625)"/>
        <path id="DejaVuSans-2d" d="M 313 2009 
L 1997 2009 
L 1997 1497 
L 313 1497 
L 313 2009 
z
" transform="scale(0.015625)"/>
        <path id="DejaVuSans-31" d="M 794 531 
L 1825 531 
L 1825 4091 
L 703 3866 
L 703 4441 
L 1819 4666 
L 2450 4666 
L 2450 531 
L 3481 531 
L 3481 0 
L 794 0 
L 794 531 
z
" transform="scale(0.015625)"/>
       </defs>
       <use xlink:href="#DejaVuSans-32"/>
       <use xlink:href="#DejaVuSans-30" x="63.623047"/>
       <use xlink:href="#DejaVuSans-32" x="127.246094"/>
       <use xlink:href="#DejaVuSans-30" x="190.869141"/>
       <use xlink:href="#DejaVuSans-2d" x="254.492188"/>
       <use xlink:href="#DejaVuSans-30" x="290.576172"/>
       <use xlink:href="#DejaVuSans-31" x="354.199219"/>
      </g>
     </g>
    </g>
    <g id="xtick_2">
     <g id="line2d_2">
      <g>
       <use xlink:href="#md094d4d30f" x="221.673799" y="368.3955" style="stroke: #000000; stroke-width: 0.8"/>
      </g>
     </g>
     <g id="text_2">
      <!-- 2020-05 -->
      <g transform="translate(200.782392 382.993937)scale(0.1 -0.1)">
       <defs>
        <path id="DejaVuSans-35" d="M 691 4666 
L 3169 4666 
L 3169 4134 
L 1269 4134 
L 1269 2991 
Q 1406 3038 1543 3061 
Q 1681 3084 1819 3084 
Q 2600 3084 3056 2656 
Q 3513 2228 3513 1497 
Q 3513 744 3044 326 
Q 2575 -91 1722 -91 
Q 1428 -91 1123 -41 
Q 819 9 494 109 
L 494 744 
Q 775 591 1075 516 
Q 1375 441 1709 441 
Q 2250 441 2565 725 
Q 2881 1009 2881 1497 
Q 2881 1984 2565 2268 
Q 2250 2553 1709 2553 
Q 1456 2553 1204 2497 
Q 953 2441 691 2322 
L 691 4666 
z
" transform="scale(0.015625)"/>
       </defs>
       <use xlink:href="#DejaVuSans-32"/>
       <use xlink:href="#DejaVuSans-30" x="63.623047"/>
       <use xlink:href="#DejaVuSans-32" x="127.246094"/>
       <use xlink:href="#DejaVuSans-30" x="190.869141"/>
       <use xlink:href="#DejaVuSans-2d" x="254.492188"/>
       <use xlink:href="#DejaVuSans-30" x="290.576172"/>
       <use xlink:href="#DejaVuSans-35" x="354.199219"/>
      </g>
     </g>
    </g>
    <g id="xtick_3">
     <g id="line2d_3">
      <g>
       <use xlink:href="#md094d4d30f" x="364.289903" y="368.3955" style="stroke: #000000; stroke-width: 0.8"/>
      </g>
     </g>
     <g id="text_3">
      <!-- 2020-09 -->
      <g transform="translate(343.398496 382.993937)scale(0.1 -0.1)">
       <defs>
        <path id="DejaVuSans-39" d="M 703 97 
L 703 672 
Q 941 559 1184 500 
Q 1428 441 1663 441 
Q 2288 441 2617 861 
Q 2947 1281 2994 2138 
Q 2813 1869 2534 1725 
Q 2256 1581 1919 1581 
Q 1219 1581 811 2004 
Q 403 2428 403 3163 
Q 403 3881 828 4315 
Q 1253 4750 1959 4750 
Q 2769 4750 3195 4129 
Q 3622 3509 3622 2328 
Q 3622 1225 3098 567 
Q 2575 -91 1691 -91 
Q 1453 -91 1209 -44 
Q 966 3 703 97 
z
M 1959 2075 
Q 2384 2075 2632 2365 
Q 2881 2656 2881 3163 
Q 2881 3666 2632 3958 
Q 2384 4250 1959 4250 
Q 1534 4250 1286 3958 
Q 1038 3666 1038 3163 
Q 1038 2656 1286 2365 
Q 1534 2075 1959 2075 
z
" transform="scale(0.015625)"/>
       </defs>
       <use xlink:href="#DejaVuSans-32"/>
       <use xlink:href="#DejaVuSans-30" x="63.623047"/>
       <use xlink:href="#DejaVuSans-32" x="127.246094"/>
       <use xlink:href="#DejaVuSans-30" x="190.869141"/>
       <use xlink:href="#DejaVuSans-2d" x="254.492188"/>
       <use xlink:href="#DejaVuSans-30" x="290.576172"/>
       <use xlink:href="#DejaVuSans-39" x="354.199219"/>
      </g>
     </g>
    </g>
    <g id="xtick_4">
     <g id="line2d_4">
      <g>
       <use xlink:href="#md094d4d30f" x="505.746526" y="368.3955" style="stroke: #000000; stroke-width: 0.8"/>
      </g>
     </g>
     <g id="text_4">
      <!-- 2021-01 -->
      <g transform="translate(484.85512 382.993937)scale(0.1 -0.1)">
       <use xlink:href="#DejaVuSans-32"/>
       <use xlink:href="#DejaVuSans-30" x="63.623047"/>
       <use xlink:href="#DejaVuSans-32" x="127.246094"/>
       <use xlink:href="#DejaVuSans-31" x="190.869141"/>
       <use xlink:href="#DejaVuSans-2d" x="254.492188"/>
       <use xlink:href="#DejaVuSans-30" x="290.576172"/>
       <use xlink:href="#DejaVuSans-31" x="354.199219"/>
      </g>
     </g>
    </g>
    <g id="xtick_5">
     <g id="line2d_5">
      <g>
       <use xlink:href="#md094d4d30f" x="644.884188" y="368.3955" style="stroke: #000000; stroke-width: 0.8"/>
      </g>
     </g>
     <g id="text_5">
      <!-- 2021-05 -->
      <g transform="translate(623.992782 382.993937)scale(0.1 -0.1)">
       <use xlink:href="#DejaVuSans-32"/>
       <use xlink:href="#DejaVuSans-30" x="63.623047"/>
       <use xlink:href="#DejaVuSans-32" x="127.246094"/>
       <use xlink:href="#DejaVuSans-31" x="190.869141"/>
       <use xlink:href="#DejaVuSans-2d" x="254.492188"/>
       <use xlink:href="#DejaVuSans-30" x="290.576172"/>
       <use xlink:href="#DejaVuSans-35" x="354.199219"/>
      </g>
     </g>
    </g>
    <g id="xtick_6">
     <g id="line2d_6">
      <g>
       <use xlink:href="#md094d4d30f" x="787.500292" y="368.3955" style="stroke: #000000; stroke-width: 0.8"/>
      </g>
     </g>
     <g id="text_6">
      <!-- 2021-09 -->
      <g transform="translate(766.608886 382.993937)scale(0.1 -0.1)">
       <use xlink:href="#DejaVuSans-32"/>
       <use xlink:href="#DejaVuSans-30" x="63.623047"/>
       <use xlink:href="#DejaVuSans-32" x="127.246094"/>
       <use xlink:href="#DejaVuSans-31" x="190.869141"/>
       <use xlink:href="#DejaVuSans-2d" x="254.492188"/>
       <use xlink:href="#DejaVuSans-30" x="290.576172"/>
       <use xlink:href="#DejaVuSans-39" x="354.199219"/>
      </g>
     </g>
    </g>
    <g id="xtick_7">
     <g id="line2d_7">
      <g>
       <use xlink:href="#md094d4d30f" x="928.956916" y="368.3955" style="stroke: #000000; stroke-width: 0.8"/>
      </g>
     </g>
     <g id="text_7">
      <!-- 2022-01 -->
      <g transform="translate(908.065509 382.993937)scale(0.1 -0.1)">
       <use xlink:href="#DejaVuSans-32"/>
       <use xlink:href="#DejaVuSans-30" x="63.623047"/>
       <use xlink:href="#DejaVuSans-32" x="127.246094"/>
       <use xlink:href="#DejaVuSans-32" x="190.869141"/>
       <use xlink:href="#DejaVuSans-2d" x="254.492188"/>
       <use xlink:href="#DejaVuSans-30" x="290.576172"/>
       <use xlink:href="#DejaVuSans-31" x="354.199219"/>
      </g>
     </g>
    </g>
    <g id="xtick_8">
     <g id="line2d_8">
      <g>
       <use xlink:href="#md094d4d30f" x="1068.094578" y="368.3955" style="stroke: #000000; stroke-width: 0.8"/>
      </g>
     </g>
     <g id="text_8">
      <!-- 2022-05 -->
      <g transform="translate(1047.203172 382.993937)scale(0.1 -0.1)">
       <use xlink:href="#DejaVuSans-32"/>
       <use xlink:href="#DejaVuSans-30" x="63.623047"/>
       <use xlink:href="#DejaVuSans-32" x="127.246094"/>
       <use xlink:href="#DejaVuSans-32" x="190.869141"/>
       <use xlink:href="#DejaVuSans-2d" x="254.492188"/>
       <use xlink:href="#DejaVuSans-30" x="290.576172"/>
       <use xlink:href="#DejaVuSans-35" x="354.199219"/>
      </g>
     </g>
    </g>
    <g id="xtick_9">
     <g id="line2d_9">
      <g>
       <use xlink:href="#md094d4d30f" x="1210.710682" y="368.3955" style="stroke: #000000; stroke-width: 0.8"/>
      </g>
     </g>
     <g id="text_9">
      <!-- 2022-09 -->
      <g transform="translate(1189.819276 382.993937)scale(0.1 -0.1)">
       <use xlink:href="#DejaVuSans-32"/>
       <use xlink:href="#DejaVuSans-30" x="63.623047"/>
       <use xlink:href="#DejaVuSans-32" x="127.246094"/>
       <use xlink:href="#DejaVuSans-32" x="190.869141"/>
       <use xlink:href="#DejaVuSans-2d" x="254.492188"/>
       <use xlink:href="#DejaVuSans-30" x="290.576172"/>
       <use xlink:href="#DejaVuSans-39" x="354.199219"/>
      </g>
     </g>
    </g>
    <g id="xtick_10">
     <g id="line2d_10">
      <g>
       <use xlink:href="#md094d4d30f" x="1352.167305" y="368.3955" style="stroke: #000000; stroke-width: 0.8"/>
      </g>
     </g>
     <g id="text_10">
      <!-- 2023-01 -->
      <g transform="translate(1331.275899 382.993937)scale(0.1 -0.1)">
       <defs>
        <path id="DejaVuSans-33" d="M 2597 2516 
Q 3050 2419 3304 2112 
Q 3559 1806 3559 1356 
Q 3559 666 3084 287 
Q 2609 -91 1734 -91 
Q 1441 -91 1130 -33 
Q 819 25 488 141 
L 488 750 
Q 750 597 1062 519 
Q 1375 441 1716 441 
Q 2309 441 2620 675 
Q 2931 909 2931 1356 
Q 2931 1769 2642 2001 
Q 2353 2234 1838 2234 
L 1294 2234 
L 1294 2753 
L 1863 2753 
Q 2328 2753 2575 2939 
Q 2822 3125 2822 3475 
Q 2822 3834 2567 4026 
Q 2313 4219 1838 4219 
Q 1578 4219 1281 4162 
Q 984 4106 628 3988 
L 628 4550 
Q 988 4650 1302 4700 
Q 1616 4750 1894 4750 
Q 2613 4750 3031 4423 
Q 3450 4097 3450 3541 
Q 3450 3153 3228 2886 
Q 3006 2619 2597 2516 
z
" transform="scale(0.015625)"/>
       </defs>
       <use xlink:href="#DejaVuSans-32"/>
       <use xlink:href="#DejaVuSans-30" x="63.623047"/>
       <use xlink:href="#DejaVuSans-32" x="127.246094"/>
       <use xlink:href="#DejaVuSans-33" x="190.869141"/>
       <use xlink:href="#DejaVuSans-2d" x="254.492188"/>
       <use xlink:href="#DejaVuSans-30" x="290.576172"/>
       <use xlink:href="#DejaVuSans-31" x="354.199219"/>
      </g>
     </g>
    </g>
   </g>
   <g id="matplotlib.axis_2">
    <g id="ytick_1">
     <g id="line2d_11">
      <defs>
       <path id="mb5dd2235f4" d="M 0 0 
L -3.5 0 
" style="stroke: #000000; stroke-width: 0.8"/>
      </defs>
      <g>
       <use xlink:href="#mb5dd2235f4" x="46.0125" y="352.450447" style="stroke: #000000; stroke-width: 0.8"/>
      </g>
     </g>
     <g id="text_11">
      <!-- 0 -->
      <g transform="translate(32.65 356.249665)scale(0.1 -0.1)">
       <use xlink:href="#DejaVuSans-30"/>
      </g>
     </g>
    </g>
    <g id="ytick_2">
     <g id="line2d_12">
      <g>
       <use xlink:href="#mb5dd2235f4" x="46.0125" y="292.447473" style="stroke: #000000; stroke-width: 0.8"/>
      </g>
     </g>
     <g id="text_12">
      <!-- 2000 -->
      <g transform="translate(13.5625 296.246692)scale(0.1 -0.1)">
       <use xlink:href="#DejaVuSans-32"/>
       <use xlink:href="#DejaVuSans-30" x="63.623047"/>
       <use xlink:href="#DejaVuSans-30" x="127.246094"/>
       <use xlink:href="#DejaVuSans-30" x="190.869141"/>
      </g>
     </g>
    </g>
    <g id="ytick_3">
     <g id="line2d_13">
      <g>
       <use xlink:href="#mb5dd2235f4" x="46.0125" y="232.444499" style="stroke: #000000; stroke-width: 0.8"/>
      </g>
     </g>
     <g id="text_13">
      <!-- 4000 -->
      <g transform="translate(13.5625 236.243718)scale(0.1 -0.1)">
       <defs>
        <path id="DejaVuSans-34" d="M 2419 4116 
L 825 1625 
L 2419 1625 
L 2419 4116 
z
M 2253 4666 
L 3047 4666 
L 3047 1625 
L 3713 1625 
L 3713 1100 
L 3047 1100 
L 3047 0 
L 2419 0 
L 2419 1100 
L 313 1100 
L 313 1709 
L 2253 4666 
z
" transform="scale(0.015625)"/>
       </defs>
       <use xlink:href="#DejaVuSans-34"/>
       <use xlink:href="#DejaVuSans-30" x="63.623047"/>
       <use xlink:href="#DejaVuSans-30" x="127.246094"/>
       <use xlink:href="#DejaVuSans-30" x="190.869141"/>
      </g>
     </g>
    </g>
    <g id="ytick_4">
     <g id="line2d_14">
      <g>
       <use xlink:href="#mb5dd2235f4" x="46.0125" y="172.441525" style="stroke: #000000; stroke-width: 0.8"/>
      </g>
     </g>
     <g id="text_14">
      <!-- 6000 -->
      <g transform="translate(13.5625 176.240744)scale(0.1 -0.1)">
       <defs>
        <path id="DejaVuSans-36" d="M 2113 2584 
Q 1688 2584 1439 2293 
Q 1191 2003 1191 1497 
Q 1191 994 1439 701 
Q 1688 409 2113 409 
Q 2538 409 2786 701 
Q 3034 994 3034 1497 
Q 3034 2003 2786 2293 
Q 2538 2584 2113 2584 
z
M 3366 4563 
L 3366 3988 
Q 3128 4100 2886 4159 
Q 2644 4219 2406 4219 
Q 1781 4219 1451 3797 
Q 1122 3375 1075 2522 
Q 1259 2794 1537 2939 
Q 1816 3084 2150 3084 
Q 2853 3084 3261 2657 
Q 3669 2231 3669 1497 
Q 3669 778 3244 343 
Q 2819 -91 2113 -91 
Q 1303 -91 875 529 
Q 447 1150 447 2328 
Q 447 3434 972 4092 
Q 1497 4750 2381 4750 
Q 2619 4750 2861 4703 
Q 3103 4656 3366 4563 
z
" transform="scale(0.015625)"/>
       </defs>
       <use xlink:href="#DejaVuSans-36"/>
       <use xlink:href="#DejaVuSans-30" x="63.623047"/>
       <use xlink:href="#DejaVuSans-30" x="127.246094"/>
       <use xlink:href="#DejaVuSans-30" x="190.869141"/>
      </g>
     </g>
    </g>
    <g id="ytick_5">
     <g id="line2d_15">
      <g>
       <use xlink:href="#mb5dd2235f4" x="46.0125" y="112.438551" style="stroke: #000000; stroke-width: 0.8"/>
      </g>
     </g>
     <g id="text_15">
      <!-- 8000 -->
      <g transform="translate(13.5625 116.23777)scale(0.1 -0.1)">
       <defs>
        <path id="DejaVuSans-38" d="M 2034 2216 
Q 1584 2216 1326 1975 
Q 1069 1734 1069 1313 
Q 1069 891 1326 650 
Q 1584 409 2034 409 
Q 2484 409 2743 651 
Q 3003 894 3003 1313 
Q 3003 1734 2745 1975 
Q 2488 2216 2034 2216 
z
M 1403 2484 
Q 997 2584 770 2862 
Q 544 3141 544 3541 
Q 544 4100 942 4425 
Q 1341 4750 2034 4750 
Q 2731 4750 3128 4425 
Q 3525 4100 3525 3541 
Q 3525 3141 3298 2862 
Q 3072 2584 2669 2484 
Q 3125 2378 3379 2068 
Q 3634 1759 3634 1313 
Q 3634 634 3220 271 
Q 2806 -91 2034 -91 
Q 1263 -91 848 271 
Q 434 634 434 1313 
Q 434 1759 690 2068 
Q 947 2378 1403 2484 
z
M 1172 3481 
Q 1172 3119 1398 2916 
Q 1625 2713 2034 2713 
Q 2441 2713 2670 2916 
Q 2900 3119 2900 3481 
Q 2900 3844 2670 4047 
Q 2441 4250 2034 4250 
Q 1625 4250 1398 4047 
Q 1172 3844 1172 3481 
z
" transform="scale(0.015625)"/>
       </defs>
       <use xlink:href="#DejaVuSans-38"/>
       <use xlink:href="#DejaVuSans-30" x="63.623047"/>
       <use xlink:href="#DejaVuSans-30" x="127.246094"/>
       <use xlink:href="#DejaVuSans-30" x="190.869141"/>
      </g>
     </g>
    </g>
    <g id="ytick_6">
     <g id="line2d_16">
      <g>
       <use xlink:href="#mb5dd2235f4" x="46.0125" y="52.435577" style="stroke: #000000; stroke-width: 0.8"/>
      </g>
     </g>
     <g id="text_16">
      <!-- 10000 -->
      <g transform="translate(7.2 56.234796)scale(0.1 -0.1)">
       <use xlink:href="#DejaVuSans-31"/>
       <use xlink:href="#DejaVuSans-30" x="63.623047"/>
       <use xlink:href="#DejaVuSans-30" x="127.246094"/>
       <use xlink:href="#DejaVuSans-30" x="190.869141"/>
       <use xlink:href="#DejaVuSans-30" x="254.492188"/>
      </g>
     </g>
    </g>
   </g>
   <g id="line2d_17">
    <path d="M 106.885227 352.450447 
L 204.281591 352.450447 
L 205.441071 352.030426 
L 206.600552 352.420445 
L 208.919513 352.450447 
L 210.078994 352.090429 
L 211.238474 352.390444 
L 213.557435 352.420445 
L 214.716916 352.450447 
L 215.876396 352.360442 
L 217.035877 352.450447 
L 219.354838 352.360442 
L 220.514318 352.450447 
L 221.673799 352.390444 
L 222.833279 352.450447 
L 223.99276 351.970423 
L 225.15224 352.450447 
L 227.471201 351.940421 
L 228.630682 352.390444 
L 229.790162 352.420445 
L 230.949643 352.210435 
L 232.109123 352.450447 
L 233.268604 351.730411 
L 234.428084 349.960323 
L 235.587565 351.460398 
L 236.747045 352.480448 
L 237.906526 351.91042 
L 239.066006 351.730411 
L 240.225487 352.330441 
L 241.384968 350.050328 
L 242.544448 351.640406 
L 243.703929 351.700409 
L 244.863409 351.550402 
L 246.02289 350.680359 
L 247.18237 350.410346 
L 248.341851 351.880418 
L 249.501331 350.080329 
L 250.660812 349.750313 
L 251.820292 349.030277 
L 252.979773 347.770215 
L 254.139253 347.350194 
L 255.298734 346.780166 
L 256.458214 347.320192 
L 257.617695 345.280091 
L 258.777175 343.810018 
L 259.936656 346.420148 
L 261.096136 342.42995 
L 262.255617 344.110033 
L 263.415097 342.759966 
L 264.574578 346.06013 
L 265.734058 343.02998 
L 266.893539 342.729965 
L 268.053019 344.110033 
L 269.2125 344.950075 
L 270.371981 339.00978 
L 271.531461 344.260041 
L 272.690942 339.699815 
L 273.850422 338.919776 
L 275.009903 341.049882 
L 276.169383 334.869575 
L 277.328864 332.319449 
L 278.488344 339.669813 
L 279.647825 342.519954 
L 280.807305 339.819821 
L 281.966786 336.399651 
L 283.126266 336.309647 
L 284.285747 333.579511 
L 285.445227 339.429801 
L 286.604708 334.659565 
L 287.764188 335.829623 
L 288.923669 338.559758 
L 290.083149 338.169739 
L 291.24263 342.969977 
L 292.40211 337.98973 
L 293.561591 338.259743 
L 294.721071 330.249346 
L 295.880552 345.490102 
L 297.040032 343.660011 
L 298.199513 347.050179 
L 299.358994 346.330143 
L 300.518474 344.800067 
L 301.677955 349.210286 
L 302.837435 348.910271 
L 303.996916 350.350343 
L 305.156396 349.990325 
L 306.315877 348.130233 
L 307.475357 348.970274 
L 308.634838 348.970274 
L 309.794318 347.440198 
L 310.953799 349.420296 
L 312.113279 350.740362 
L 313.27276 347.770215 
L 314.43224 346.87017 
L 315.591721 347.950224 
L 316.751201 349.450298 
L 317.910682 348.040228 
L 319.070162 348.460249 
L 320.229643 349.180285 
L 321.389123 348.550253 
L 322.548604 348.28024 
L 323.708084 343.119984 
L 324.867565 346.150134 
L 326.027045 344.230039 
L 327.186526 345.730114 
L 328.346006 342.999978 
L 329.505487 345.070081 
L 330.664968 339.909825 
L 331.824448 344.680062 
L 332.983929 341.01988 
L 334.143409 341.649911 
L 335.30289 338.529757 
L 336.46237 341.109885 
L 337.621851 341.049882 
L 338.781331 342.309944 
L 339.940812 333.309498 
L 341.100292 337.929727 
L 342.259773 336.699666 
L 343.419253 334.629563 
L 344.578734 338.409751 
L 345.738214 333.219494 
L 346.897695 335.019583 
L 348.057175 321.968936 
L 349.216656 332.019434 
L 350.376136 331.239395 
L 351.535617 327.309201 
L 352.695097 333.429504 
L 353.854578 327.90923 
L 355.014058 330.159342 
L 356.173539 326.799175 
L 357.333019 325.899131 
L 358.4925 319.118795 
L 359.651981 324.639068 
L 360.811461 325.929132 
L 361.970942 315.818631 
L 363.130422 325.47911 
L 364.289903 320.378857 
L 365.449383 318.848781 
L 366.608864 315.608621 
L 367.768344 311.678426 
L 368.927825 321.218899 
L 370.087305 323.048989 
L 371.246786 323.078991 
L 372.406266 325.389105 
L 375.884708 308.828285 
L 377.044188 316.418661 
L 378.203669 321.278902 
L 379.363149 317.348707 
L 380.52263 308.678277 
L 381.68211 306.278158 
L 382.841591 315.068594 
L 384.001071 291.847443 
L 385.160552 316.328656 
L 386.320032 312.698476 
L 387.479513 317.828731 
L 388.638994 311.76843 
L 389.798474 317.288704 
L 390.957955 307.538221 
L 392.117435 313.058494 
L 393.276916 316.238652 
L 394.436396 305.258108 
L 395.595877 311.918438 
L 396.755357 307.058197 
L 397.914838 305.678129 
L 399.074318 295.117605 
L 400.233799 270.786399 
L 401.393279 288.847294 
L 402.55276 284.857097 
L 403.71224 279.246819 
L 404.871721 305.91814 
L 406.031201 249.275333 
L 407.190682 221.523958 
L 408.350162 290.677385 
L 409.509643 202.203 
L 410.669123 290.317367 
L 411.828604 231.034429 
L 412.988084 245.765159 
L 414.147565 273.306524 
L 415.307045 239.974872 
L 416.466526 220.683916 
L 417.626006 257.435738 
L 418.785487 264.186072 
L 419.944968 238.744811 
L 421.104448 259.655848 
L 422.263929 180.151907 
L 423.423409 243.335039 
L 424.58289 217.473757 
L 425.74237 285.697138 
L 426.901851 266.7662 
L 429.220812 335.349599 
L 430.380292 293.827541 
L 431.539773 281.526932 
L 432.699253 246.935217 
L 433.858734 277.206717 
L 435.018214 267.726248 
L 436.177695 264.456085 
L 438.496656 253.175526 
L 439.656136 260.91591 
L 441.975097 269.856353 
L 443.134578 267.936258 
L 444.294058 275.316624 
L 445.453539 270.366378 
L 446.613019 275.376627 
L 447.7725 295.057602 
L 448.931981 289.117308 
L 450.091461 294.067553 
L 451.250942 308.13825 
L 452.410422 316.538667 
L 453.569903 337.3897 
L 454.729383 309.188302 
L 455.888864 289.35732 
L 457.048344 294.097555 
L 458.207825 302.227958 
L 459.367305 302.377965 
L 460.526786 293.047503 
L 461.686266 298.747785 
L 462.845747 294.00755 
L 464.005227 304.028047 
L 465.164708 301.357914 
L 466.324188 311.048395 
L 467.483669 314.798581 
L 468.643149 308.228255 
L 469.80263 352.450447 
L 470.96211 268.626292 
L 472.121591 312.15845 
L 473.281071 314.288555 
L 474.440552 321.728924 
L 475.600032 319.568817 
L 476.759513 322.028939 
L 477.918994 310.988392 
L 479.078474 320.768876 
L 480.237955 315.938637 
L 481.397435 321.128894 
L 482.556916 325.47911 
L 483.716396 327.549212 
L 484.875877 327.819226 
L 486.035357 324.369055 
L 487.194838 330.369352 
L 488.354318 329.169293 
L 489.513799 328.989284 
L 490.673279 331.149391 
L 491.83276 334.809572 
L 492.99224 330.189343 
L 494.151721 330.789373 
L 495.311201 330.159342 
L 496.470682 334.059535 
L 497.630162 334.209543 
L 498.789643 337.449703 
L 499.949123 338.019731 
L 501.108604 332.679467 
L 502.268084 331.209394 
L 503.427565 337.119687 
L 504.587045 336.429653 
L 505.746526 339.669813 
L 506.906006 339.879824 
L 508.065487 339.819821 
L 509.224968 340.359847 
L 510.384448 336.78967 
L 511.543929 340.179838 
L 512.703409 340.089834 
L 513.86289 335.829623 
L 515.02237 341.589908 
L 516.181851 344.680062 
L 517.341331 337.809721 
L 518.500812 339.549807 
L 519.660292 339.099785 
L 520.819773 340.359847 
L 521.979253 344.350045 
L 523.138734 345.25009 
L 524.298214 344.470051 
L 525.457695 342.789968 
L 526.617175 342.009929 
L 527.776656 342.909974 
L 528.936136 342.369947 
L 530.095617 343.389998 
L 531.255097 345.490102 
L 532.414578 344.350045 
L 533.574058 342.279943 
L 534.733539 343.359996 
L 535.893019 343.960026 
L 537.0525 346.06013 
L 538.211981 347.740213 
L 539.371461 349.180285 
L 540.530942 349.300291 
L 541.690422 347.68021 
L 542.849903 347.320192 
L 544.009383 348.190235 
L 545.168864 347.320192 
L 546.328344 349.300291 
L 547.487825 349.480299 
L 548.647305 348.88027 
L 549.806786 348.550253 
L 550.966266 347.650209 
L 552.125747 348.430247 
L 553.285227 350.020326 
L 554.444708 348.640258 
L 555.604188 350.740362 
L 556.763669 349.330292 
L 557.923149 348.790265 
L 559.08263 349.300291 
L 560.24211 348.700261 
L 561.401591 349.570304 
L 562.561071 349.540302 
L 564.880032 350.050328 
L 566.039513 348.700261 
L 568.358474 349.630307 
L 569.517955 349.09028 
L 570.677435 349.09028 
L 571.836916 350.020326 
L 574.155877 350.260338 
L 575.315357 350.110331 
L 576.474838 349.840317 
L 577.634318 349.240288 
L 578.793799 348.850268 
L 579.953279 351.040377 
L 582.27224 349.780314 
L 583.431721 350.680359 
L 584.591201 349.330292 
L 585.750682 349.540302 
L 586.910162 351.010375 
L 588.069643 350.650357 
L 589.229123 350.860368 
L 590.388604 350.080329 
L 591.548084 349.030277 
L 592.707565 349.630307 
L 593.867045 349.240288 
L 595.026526 348.700261 
L 596.186006 350.080329 
L 597.345487 350.140332 
L 598.504968 347.950224 
L 599.664448 346.810167 
L 600.823929 348.100231 
L 601.983409 348.850268 
L 603.14289 347.770215 
L 604.30237 349.90032 
L 605.461851 349.780314 
L 606.621331 348.220237 
L 607.780812 347.440198 
L 608.940292 347.590206 
L 610.099773 347.890221 
L 611.259253 347.08018 
L 612.418734 348.610256 
L 613.578214 347.170185 
L 614.737695 344.470051 
L 615.897175 344.65006 
L 618.216136 342.489953 
L 619.375617 343.810018 
L 620.535097 342.339946 
L 621.694578 343.359996 
L 622.854058 337.569709 
L 624.013539 338.649763 
L 625.173019 335.049584 
L 626.3325 337.749718 
L 627.491981 327.369204 
L 628.651461 329.409305 
L 629.810942 321.998937 
L 630.970422 315.638622 
L 632.129903 302.437968 
L 633.289383 285.847146 
L 634.448864 281.49693 
L 635.608344 278.976805 
L 636.767825 277.86675 
L 637.927305 261.485938 
L 639.086786 249.185329 
L 640.246266 221.523958 
L 641.405747 209.223348 
L 642.565227 207.513263 
L 643.724708 182.732035 
L 644.884188 181.261962 
L 646.043669 138.329834 
L 647.203149 130.799461 
L 648.36263 124.829165 
L 649.52211 94.287652 
L 650.681591 83.337109 
L 651.841071 81.74703 
L 653.000552 103.828124 
L 654.160032 89.127396 
L 655.319513 78.626875 
L 656.478994 72.926593 
L 657.638474 75.29671 
L 661.116916 111.058483 
L 662.276396 132.959568 
L 663.435877 76.49677 
L 664.595357 108.358349 
L 665.754838 110.518456 
L 666.914318 105.628214 
L 669.233279 94.707672 
L 670.39276 124.499149 
L 671.55224 135.839711 
L 672.711721 100.827976 
L 673.871201 152.130518 
L 675.030682 150.510438 
L 676.190162 146.790254 
L 677.349643 223.114036 
L 678.509123 241.384942 
L 679.668604 227.104234 
L 680.828084 193.892588 
L 681.987565 216.72372 
L 683.147045 177.691785 
L 684.306526 213.723571 
L 685.466006 246.245183 
L 686.625487 261.72595 
L 687.784968 251.345436 
L 688.944448 236.344692 
L 690.103929 248.975318 
L 691.263409 266.226173 
L 692.42289 271.176419 
L 693.58237 280.986905 
L 694.741851 301.627928 
L 695.901331 290.9774 
L 697.060812 302.017947 
L 698.220292 292.027452 
L 699.379773 299.407818 
L 700.539253 293.557528 
L 702.858214 309.818334 
L 704.017695 304.928091 
L 705.177175 241.354941 
L 706.336656 307.1182 
L 707.496136 305.138102 
L 708.655617 300.817888 
L 709.815097 317.228701 
L 710.974578 311.858435 
L 712.134058 307.178203 
L 713.293539 300.607877 
L 714.453019 295.777638 
L 715.6125 296.737685 
L 716.771981 310.718378 
L 717.931461 306.638176 
L 719.090942 321.188897 
L 720.250422 300.097852 
L 721.409903 300.907892 
L 722.569383 290.137358 
L 723.728864 315.908636 
L 724.888344 308.078247 
L 727.207305 315.338607 
L 728.366786 301.747934 
L 729.526266 303.27801 
L 730.685747 292.147458 
L 731.845227 298.987797 
L 733.004708 292.267464 
L 734.164188 313.148499 
L 735.323669 315.758628 
L 736.483149 303.188005 
L 737.64263 286.387172 
L 738.80211 294.907595 
L 739.961591 296.797688 
L 741.121071 292.9875 
L 742.280552 283.177013 
L 743.440032 306.278158 
L 744.599513 280.716891 
L 745.758994 270.666393 
L 746.918474 273.42653 
L 748.077955 282.396975 
L 749.237435 278.436778 
L 750.396916 284.047056 
L 751.556396 293.017501 
L 752.715877 284.077058 
L 753.875357 279.006807 
L 755.034838 263.196023 
L 756.194318 262.235975 
L 757.353799 279.546833 
L 758.513279 285.517129 
L 759.67276 288.337269 
L 760.83224 274.176567 
L 761.991721 256.625697 
L 763.151201 273.966557 
L 764.310682 278.256769 
L 765.470162 269.556338 
L 766.629643 294.037552 
L 767.789123 298.657781 
L 768.948604 275.466631 
L 770.108084 278.766795 
L 771.267565 274.056561 
L 772.427045 282.816995 
L 773.586526 290.077355 
L 774.746006 309.728329 
L 775.905487 301.387916 
L 777.064968 306.008145 
L 778.224448 291.847443 
L 779.383929 296.587678 
L 780.543409 290.887395 
L 781.70289 305.138102 
L 782.86237 306.968192 
L 784.021851 316.028642 
L 785.181331 295.387618 
L 786.340812 306.758182 
L 787.500292 303.007996 
L 788.659773 303.878039 
L 789.819253 311.738429 
L 790.978734 321.728924 
L 792.138214 323.168995 
L 793.297695 307.808234 
L 794.457175 309.758331 
L 795.616656 312.038444 
L 796.776136 320.708873 
L 797.935617 323.619018 
L 799.095097 329.139291 
L 800.254578 327.309201 
L 801.414058 317.978738 
L 802.573539 317.048692 
L 803.733019 312.488466 
L 804.8925 317.498714 
L 806.051981 319.868832 
L 807.211461 327.399205 
L 808.370942 332.769471 
L 809.530422 323.198997 
L 810.689903 321.368906 
L 811.849383 314.918586 
L 813.008864 324.219047 
L 814.168344 319.358807 
L 815.327825 328.749272 
L 816.487305 330.549361 
L 817.646786 323.198997 
L 818.806266 325.329102 
L 819.965747 325.68912 
L 821.125227 325.509111 
L 822.284708 325.509111 
L 823.444188 332.679467 
L 824.603669 335.229593 
L 825.763149 328.089239 
L 826.92263 329.589314 
L 828.08211 326.979184 
L 829.241591 332.439455 
L 830.401071 330.999383 
L 832.720032 335.499607 
L 833.879513 332.559461 
L 835.038994 331.719419 
L 836.198474 342.669962 
L 837.357955 340.509855 
L 838.517435 345.25009 
L 839.676916 348.370244 
L 840.836396 340.899874 
L 841.995877 336.759669 
L 843.155357 323.739024 
L 844.314838 336.399651 
L 845.474318 338.349748 
L 846.633799 335.229593 
L 847.793279 339.309795 
L 848.95276 336.78967 
L 850.11224 332.259446 
L 851.271721 335.379601 
L 852.431201 334.989581 
L 853.590682 336.639663 
L 854.750162 337.749718 
L 855.909643 343.540005 
L 857.069123 341.169888 
L 858.228604 339.219791 
L 859.388084 339.789819 
L 860.547565 340.599859 
L 862.866526 347.230188 
L 864.026006 348.610256 
L 865.185487 348.220237 
L 866.344968 341.319895 
L 867.504448 339.159788 
L 868.663929 340.839871 
L 869.823409 343.419999 
L 870.98289 341.799919 
L 872.14237 344.65006 
L 873.301851 343.720014 
L 874.461331 341.439901 
L 875.620812 342.279943 
L 876.780292 341.559907 
L 877.939773 344.290042 
L 879.099253 344.320044 
L 880.258734 346.180136 
L 881.418214 345.490102 
L 882.577695 341.439901 
L 883.737175 343.059981 
L 884.896656 343.299993 
L 886.056136 344.020029 
L 887.215617 345.190087 
L 889.534578 347.830218 
L 890.694058 345.160085 
L 891.853539 345.100082 
L 893.013019 343.900023 
L 894.1725 343.510004 
L 895.331981 345.760115 
L 896.491461 345.85012 
L 897.650942 346.450149 
L 899.969903 344.290042 
L 901.129383 344.800067 
L 902.288864 346.540154 
L 903.448344 345.490102 
L 904.607825 346.630158 
L 905.767305 345.190087 
L 906.926786 343.059981 
L 908.086266 345.580106 
L 909.245747 344.890072 
L 910.405227 347.650209 
L 911.564708 344.380047 
L 912.724188 347.710212 
L 913.883669 348.460249 
L 915.043149 345.910122 
L 916.20263 344.890072 
L 917.36211 345.940124 
L 918.521591 345.220088 
L 919.681071 345.340094 
L 920.840552 347.740213 
L 922.000032 346.06013 
L 923.159513 344.920073 
L 924.318994 345.220088 
L 925.478474 346.180136 
L 926.637955 345.400097 
L 927.797435 345.730114 
L 928.956916 342.189938 
L 930.116396 346.06013 
L 931.275877 343.720014 
L 932.435357 341.799919 
L 933.594838 341.349896 
L 934.754318 338.109736 
L 935.913799 335.289596 
L 937.073279 331.569412 
L 938.23276 327.219196 
L 939.39224 311.738429 
L 940.551721 293.017501 
L 942.870682 264.786102 
L 944.030162 226.324196 
L 945.189643 241.354941 
L 946.349123 216.423705 
L 947.508604 180.031901 
L 948.668084 90.537466 
L 949.827565 67.376318 
L 950.987045 50.8755 
L 952.146526 87.987339 
L 953.306006 106.078236 
L 954.465487 184.502123 
L 955.624968 110.818471 
L 956.784448 69.476422 
L 957.943929 185.312163 
L 959.103409 177.961799 
L 960.26289 208.233299 
L 961.42237 252.905513 
L 962.581851 260.975913 
L 963.741331 248.285284 
L 964.900812 242.735009 
L 966.060292 286.297168 
L 967.219773 270.186369 
L 968.379253 304.388065 
L 969.538734 319.358807 
L 970.698214 316.958688 
L 971.857695 321.788927 
L 973.017175 316.928686 
L 974.176656 296.917694 
L 975.336136 322.05894 
L 976.495617 332.469456 
L 977.655097 337.719717 
L 978.814578 339.639812 
L 979.974058 337.98973 
L 981.133539 337.509706 
L 982.293019 338.829772 
L 984.611981 344.200038 
L 985.771461 346.510152 
L 986.930942 345.580106 
L 988.090422 345.040079 
L 989.249903 343.480002 
L 990.409383 344.770066 
L 991.568864 347.920222 
L 992.728344 347.710212 
L 993.887825 349.420296 
L 995.047305 349.630307 
L 996.206786 348.88027 
L 997.366266 349.69031 
L 998.525747 348.760264 
L 999.685227 350.350343 
L 1000.844708 349.120282 
L 1002.004188 350.440347 
L 1003.163669 350.830366 
L 1004.323149 350.470348 
L 1005.48263 350.230337 
L 1006.64211 350.410346 
L 1007.801591 350.140332 
L 1008.961071 350.590354 
L 1010.120552 351.550402 
L 1011.280032 350.680359 
L 1012.439513 350.950372 
L 1013.598994 350.740362 
L 1017.077435 352.090429 
L 1018.236916 352.210435 
L 1019.396396 351.610405 
L 1020.555877 351.220386 
L 1021.715357 351.400395 
L 1024.034318 351.490399 
L 1025.193799 352.090429 
L 1026.353279 352.210435 
L 1027.51276 352.000424 
L 1028.67224 352.000424 
L 1029.831721 351.550402 
L 1030.991201 351.700409 
L 1032.150682 351.730411 
L 1034.469643 352.150432 
L 1035.629123 351.760412 
L 1036.788604 351.490399 
L 1039.107565 352.150432 
L 1040.267045 352.240436 
L 1042.586006 352.090429 
L 1043.745487 352.360442 
L 1044.904968 351.790414 
L 1046.064448 351.760412 
L 1047.223929 352.000424 
L 1048.383409 352.360442 
L 1049.54289 352.030426 
L 1050.70237 352.270438 
L 1051.861851 352.12043 
L 1054.180812 352.150432 
L 1055.340292 352.180433 
L 1056.499773 352.090429 
L 1057.659253 352.180433 
L 1058.818734 351.91042 
L 1059.978214 352.12043 
L 1061.137695 351.880418 
L 1062.297175 352.210435 
L 1063.456656 352.210435 
L 1064.616136 352.000424 
L 1065.775617 352.060427 
L 1066.935097 352.330441 
L 1068.094578 351.91042 
L 1069.254058 352.210435 
L 1070.413539 351.580404 
L 1071.573019 351.880418 
L 1072.7325 352.000424 
L 1073.891981 352.000424 
L 1075.051461 352.12043 
L 1076.210942 351.940421 
L 1077.370422 352.270438 
L 1079.689383 351.91042 
L 1080.848864 352.330441 
L 1082.008344 352.240436 
L 1083.167825 352.390444 
L 1084.327305 352.240436 
L 1085.486786 352.270438 
L 1086.646266 351.91042 
L 1087.805747 352.270438 
L 1088.965227 352.090429 
L 1093.603149 352.210435 
L 1094.76263 352.12043 
L 1095.92211 352.330441 
L 1097.081591 352.030426 
L 1099.400552 352.300439 
L 1100.560032 352.180433 
L 1101.719513 352.300439 
L 1106.357435 351.880418 
L 1107.516916 352.210435 
L 1109.835877 352.240436 
L 1112.154838 352.150432 
L 1113.314318 352.090429 
L 1114.473799 352.240436 
L 1116.79276 352.12043 
L 1119.111721 352.240436 
L 1120.271201 351.880418 
L 1121.430682 352.090429 
L 1122.590162 351.730411 
L 1123.749643 352.12043 
L 1124.909123 351.91042 
L 1126.068604 351.850417 
L 1127.228084 352.030426 
L 1128.387565 351.610405 
L 1129.547045 351.460398 
L 1130.706526 351.490399 
L 1131.866006 351.760412 
L 1133.025487 351.820415 
L 1134.184968 351.370393 
L 1135.344448 351.31039 
L 1136.503929 350.920371 
L 1137.663409 351.370393 
L 1139.98237 351.460398 
L 1141.141851 351.280389 
L 1142.301331 351.430396 
L 1143.460812 350.260338 
L 1144.620292 349.750313 
L 1145.779773 350.650357 
L 1146.939253 349.960323 
L 1148.098734 350.29034 
L 1149.258214 349.330292 
L 1150.417695 348.580255 
L 1151.577175 348.130233 
L 1153.896136 346.030128 
L 1155.055617 347.620207 
L 1156.215097 347.890221 
L 1157.374578 349.030277 
L 1158.534058 340.869873 
L 1159.693539 344.410048 
L 1160.853019 342.249941 
L 1162.0125 342.939975 
L 1163.171981 340.929876 
L 1164.331461 345.970125 
L 1165.490942 343.359996 
L 1166.650422 338.859773 
L 1167.809903 340.449852 
L 1168.969383 339.909825 
L 1170.128864 336.729667 
L 1171.288344 340.719865 
L 1172.447825 343.690012 
L 1173.607305 337.569709 
L 1174.766786 333.489507 
L 1175.926266 337.17969 
L 1177.085747 334.749569 
L 1178.245227 337.629712 
L 1179.404708 336.57966 
L 1180.564188 342.669962 
L 1181.723669 338.919776 
L 1182.883149 337.509706 
L 1184.04263 335.649614 
L 1185.20211 337.569709 
L 1186.361591 338.499755 
L 1187.521071 339.879824 
L 1188.680552 347.590206 
L 1189.840032 343.299993 
L 1190.999513 339.639812 
L 1192.158994 340.479853 
L 1193.318474 336.519657 
L 1194.477955 345.730114 
L 1195.637435 345.070081 
L 1196.796916 347.050179 
L 1197.956396 346.390146 
L 1199.115877 340.299844 
L 1200.275357 342.159937 
L 1201.434838 345.190087 
L 1202.594318 346.120133 
L 1203.753799 347.560204 
L 1204.913279 350.50035 
L 1206.07276 347.530203 
L 1207.23224 348.100231 
L 1208.391721 348.160234 
L 1209.551201 345.730114 
L 1213.029643 349.69031 
L 1214.189123 348.970274 
L 1215.348604 348.790265 
L 1216.508084 347.140183 
L 1217.667565 348.610256 
L 1218.827045 348.340243 
L 1219.986526 349.150283 
L 1221.146006 349.09028 
L 1222.305487 349.780314 
L 1223.464968 348.640258 
L 1224.624448 349.840317 
L 1225.783929 349.780314 
L 1228.10289 350.650357 
L 1229.26237 351.400395 
L 1230.421851 351.700409 
L 1231.581331 350.200335 
L 1232.740812 351.280389 
L 1233.900292 351.280389 
L 1235.059773 350.680359 
L 1236.219253 350.860368 
L 1237.378734 351.580404 
L 1238.538214 351.250387 
L 1239.697695 351.280389 
L 1240.857175 351.190384 
L 1242.016656 351.520401 
L 1243.176136 351.700409 
L 1244.335617 351.550402 
L 1245.495097 351.940421 
L 1246.654578 352.450447 
L 1247.814058 351.550402 
L 1248.973539 351.250387 
L 1250.133019 352.150432 
L 1252.451981 352.12043 
L 1253.611461 352.270438 
L 1254.770942 351.850417 
L 1255.930422 351.700409 
L 1258.249383 351.10038 
L 1261.727825 351.10038 
L 1262.887305 351.610405 
L 1264.046786 351.250387 
L 1266.365747 351.190384 
L 1267.525227 350.950372 
L 1269.844188 351.160383 
L 1271.003669 351.280389 
L 1272.163149 351.250387 
L 1273.32263 352.030426 
L 1274.48211 352.030426 
L 1275.641591 352.360442 
L 1276.801071 352.090429 
L 1277.960552 352.360442 
L 1279.120032 352.180433 
L 1280.279513 352.270438 
L 1281.438994 351.580404 
L 1282.598474 351.070378 
L 1283.757955 351.10038 
L 1284.917435 351.790414 
L 1286.076916 352.150432 
L 1287.236396 351.670408 
L 1288.395877 352.000424 
L 1290.714838 352.240436 
L 1293.033799 352.180433 
L 1294.193279 352.210435 
L 1295.35276 352.030426 
L 1296.51224 352.210435 
L 1297.671721 352.090429 
L 1299.990682 352.330441 
L 1301.150162 352.210435 
L 1302.309643 352.360442 
L 1304.628604 352.330441 
L 1308.107045 352.390444 
L 1308.107045 352.390444 
" clip-path="url(#p6fac50a06a)" style="fill: none; stroke: #0000ff; stroke-width: 1.5; stroke-linecap: square"/>
   </g>
   <g id="line2d_18">
    <path d="M 1068.094578 353.043399 
L 1069.254058 350.841186 
L 1070.413539 350.243747 
L 1071.573019 352.176366 
L 1072.7325 352.219543 
L 1073.891981 352.813883 
L 1075.051461 353.206167 
L 1076.210942 352.733666 
L 1077.370422 351.019348 
L 1078.529903 350.564775 
L 1079.689383 352.4864 
L 1080.848864 352.404065 
L 1082.008344 352.938001 
L 1083.167825 353.2755 
L 1084.327305 352.890466 
L 1085.486786 351.52103 
L 1086.646266 350.960946 
L 1087.805747 352.289035 
L 1091.284188 352.963788 
L 1092.443669 352.522882 
L 1093.603149 351.55223 
L 1094.76263 351.106968 
L 1095.92211 352.393391 
L 1099.400552 352.85007 
L 1100.560032 352.606149 
L 1101.719513 351.691469 
L 1102.878994 351.328706 
L 1104.038474 352.444625 
L 1105.197955 352.36169 
L 1106.357435 352.540897 
L 1107.516916 352.53794 
L 1108.676396 352.359491 
L 1109.835877 351.726019 
L 1110.995357 351.455245 
L 1112.154838 352.40095 
L 1114.473799 352.456926 
L 1115.633279 352.687577 
L 1116.79276 352.442995 
L 1117.95224 351.797387 
L 1119.111721 351.515283 
L 1120.271201 352.326304 
L 1121.430682 352.151395 
L 1122.590162 352.301577 
L 1124.909123 352.16011 
L 1126.068604 351.664634 
L 1127.228084 351.363819 
L 1128.387565 352.006944 
L 1130.706526 351.722168 
L 1131.866006 351.801839 
L 1133.025487 351.765792 
L 1134.184968 351.527545 
L 1135.344448 351.137579 
L 1136.503929 351.34742 
L 1137.663409 351.081056 
L 1139.98237 351.66938 
L 1141.141851 351.593253 
L 1142.301331 351.109287 
L 1143.460812 351.017864 
L 1144.620292 350.647605 
L 1145.779773 349.996392 
L 1146.939253 350.323174 
L 1148.098734 350.372155 
L 1149.258214 350.253095 
L 1150.417695 349.408628 
L 1151.577175 348.387018 
L 1152.736656 348.009104 
L 1153.896136 347.443833 
L 1155.055617 346.324058 
L 1156.215097 347.002329 
L 1157.374578 347.525031 
L 1158.534058 348.341116 
L 1159.693539 343.503837 
L 1162.0125 342.205859 
L 1163.171981 342.655849 
L 1164.331461 341.606621 
L 1165.490942 344.016824 
L 1166.650422 343.082888 
L 1167.809903 340.507268 
L 1168.969383 339.39086 
L 1170.128864 339.592301 
L 1171.288344 337.682171 
L 1172.447825 339.673508 
L 1173.607305 342.248454 
L 1175.926266 334.964344 
L 1177.085747 335.042313 
L 1178.245227 334.679529 
L 1179.404708 336.732904 
L 1180.564188 337.7826 
L 1181.723669 340.10681 
L 1182.883149 338.64664 
L 1184.04263 338.619533 
L 1185.20211 336.120067 
L 1186.361591 336.729023 
L 1187.521071 338.182526 
L 1188.680552 340.943388 
L 1189.840032 344.452149 
L 1190.999513 343.632543 
L 1192.158994 341.692374 
L 1193.318474 340.280974 
L 1194.477955 337.964104 
L 1196.796916 347.15094 
L 1197.956396 346.529054 
L 1199.115877 345.11711 
L 1200.275357 342.65722 
L 1201.434838 341.171557 
L 1202.594318 344.611241 
L 1203.753799 346.413423 
L 1204.913279 349.286027 
L 1206.07276 349.250787 
L 1207.23224 346.737714 
L 1208.391721 348.010142 
L 1209.551201 348.265586 
L 1210.710682 347.862745 
L 1211.870162 347.323376 
L 1213.029643 349.629761 
L 1214.189123 348.59329 
L 1215.348604 347.382448 
L 1216.508084 348.722921 
L 1217.667565 347.613667 
L 1218.827045 349.015236 
L 1219.986526 349.114404 
L 1221.146006 350.685291 
L 1222.305487 348.557191 
L 1223.464968 347.863168 
L 1225.783929 349.391618 
L 1226.943409 350.603467 
L 1228.10289 350.914429 
L 1229.26237 352.054727 
L 1230.421851 350.82456 
L 1231.581331 350.185968 
L 1233.900292 350.941997 
L 1235.059773 351.950127 
L 1236.219253 351.65288 
L 1237.378734 352.13456 
L 1239.697695 349.947973 
L 1240.857175 351.084133 
L 1242.016656 351.223386 
L 1243.176136 351.942171 
L 1244.335617 352.182883 
L 1245.495097 352.803009 
L 1246.654578 351.592685 
L 1247.814058 351.093234 
L 1248.973539 351.72478 
L 1250.133019 351.448439 
L 1251.2925 352.232462 
L 1252.451981 352.545372 
L 1253.611461 353.176077 
L 1255.930422 350.972957 
L 1257.089903 351.513734 
L 1259.408864 351.580868 
L 1260.568344 351.378989 
L 1261.727825 351.881116 
L 1262.887305 350.91439 
L 1264.046786 350.480038 
L 1265.206266 351.109992 
L 1267.525227 351.511809 
L 1268.684708 351.328505 
L 1269.844188 351.635094 
L 1272.163149 350.456384 
L 1273.32263 351.040413 
L 1274.48211 351.781978 
L 1275.641591 352.324929 
L 1277.960552 352.84605 
L 1280.279513 351.659073 
L 1281.438994 352.175055 
L 1282.598474 351.892751 
L 1284.917435 351.178681 
L 1286.076916 351.898615 
L 1287.236396 351.912234 
L 1288.395877 351.377303 
L 1290.714838 352.049136 
L 1291.874318 352.430269 
L 1293.033799 352.48049 
L 1294.193279 352.688019 
L 1296.51224 351.696234 
L 1297.671721 352.038463 
L 1298.831201 352.104236 
L 1302.309643 352.654274 
L 1303.469123 352.244594 
L 1304.628604 352.053572 
L 1305.788084 352.273573 
L 1308.107045 352.468987 
L 1308.107045 352.468987 
" clip-path="url(#p6fac50a06a)" style="fill: none; stroke: #ffa500; stroke-width: 1.5; stroke-linecap: square"/>
   </g>
   <g id="line2d_19">
    <path d="M 1309.266526 352.515085 
L 1310.426006 352.799342 
L 1311.585487 352.649782 
L 1312.744968 352.458505 
L 1313.904448 352.489326 
L 1315.063929 352.47845 
L 1316.223409 352.58626 
L 1317.38289 352.674125 
L 1318.54237 352.942146 
L 1319.701851 352.802992 
L 1320.861331 352.624228 
L 1322.020812 352.652499 
L 1323.180292 352.641771 
L 1324.339773 352.741072 
" clip-path="url(#p6fac50a06a)" style="fill: none; stroke: #ff0000; stroke-width: 1.5; stroke-linecap: square"/>
   </g>
   <g id="patch_3">
    <path d="M 46.0125 368.3955 
L 46.0125 35.7555 
" style="fill: none; stroke: #000000; stroke-width: 0.8; stroke-linejoin: miter; stroke-linecap: square"/>
   </g>
   <g id="patch_4">
    <path d="M 1385.2125 368.3955 
L 1385.2125 35.7555 
" style="fill: none; stroke: #000000; stroke-width: 0.8; stroke-linejoin: miter; stroke-linecap: square"/>
   </g>
   <g id="patch_5">
    <path d="M 46.0125 368.3955 
L 1385.2125 368.3955 
" style="fill: none; stroke: #000000; stroke-width: 0.8; stroke-linejoin: miter; stroke-linecap: square"/>
   </g>
   <g id="patch_6">
    <path d="M 46.0125 35.7555 
L 1385.2125 35.7555 
" style="fill: none; stroke: #000000; stroke-width: 0.8; stroke-linejoin: miter; stroke-linecap: square"/>
   </g>
   <g id="text_17">
    <!-- Daily Confirmed Cases Forecasting - Nepal -->
    <g transform="translate(587.77875 16.318125)scale(0.12 -0.12)">
     <defs>
      <path id="DejaVuSans-44" d="M 1259 4147 
L 1259 519 
L 2022 519 
Q 2988 519 3436 956 
Q 3884 1394 3884 2338 
Q 3884 3275 3436 3711 
Q 2988 4147 2022 4147 
L 1259 4147 
z
M 628 4666 
L 1925 4666 
Q 3281 4666 3915 4102 
Q 4550 3538 4550 2338 
Q 4550 1131 3912 565 
Q 3275 0 1925 0 
L 628 0 
L 628 4666 
z
" transform="scale(0.015625)"/>
      <path id="DejaVuSans-61" d="M 2194 1759 
Q 1497 1759 1228 1600 
Q 959 1441 959 1056 
Q 959 750 1161 570 
Q 1363 391 1709 391 
Q 2188 391 2477 730 
Q 2766 1069 2766 1631 
L 2766 1759 
L 2194 1759 
z
M 3341 1997 
L 3341 0 
L 2766 0 
L 2766 531 
Q 2569 213 2275 61 
Q 1981 -91 1556 -91 
Q 1019 -91 701 211 
Q 384 513 384 1019 
Q 384 1609 779 1909 
Q 1175 2209 1959 2209 
L 2766 2209 
L 2766 2266 
Q 2766 2663 2505 2880 
Q 2244 3097 1772 3097 
Q 1472 3097 1187 3025 
Q 903 2953 641 2809 
L 641 3341 
Q 956 3463 1253 3523 
Q 1550 3584 1831 3584 
Q 2591 3584 2966 3190 
Q 3341 2797 3341 1997 
z
" transform="scale(0.015625)"/>
      <path id="DejaVuSans-69" d="M 603 3500 
L 1178 3500 
L 1178 0 
L 603 0 
L 603 3500 
z
M 603 4863 
L 1178 4863 
L 1178 4134 
L 603 4134 
L 603 4863 
z
" transform="scale(0.015625)"/>
      <path id="DejaVuSans-6c" d="M 603 4863 
L 1178 4863 
L 1178 0 
L 603 0 
L 603 4863 
z
" transform="scale(0.015625)"/>
      <path id="DejaVuSans-79" d="M 2059 -325 
Q 1816 -950 1584 -1140 
Q 1353 -1331 966 -1331 
L 506 -1331 
L 506 -850 
L 844 -850 
Q 1081 -850 1212 -737 
Q 1344 -625 1503 -206 
L 1606 56 
L 191 3500 
L 800 3500 
L 1894 763 
L 2988 3500 
L 3597 3500 
L 2059 -325 
z
" transform="scale(0.015625)"/>
      <path id="DejaVuSans-20" transform="scale(0.015625)"/>
      <path id="DejaVuSans-43" d="M 4122 4306 
L 4122 3641 
Q 3803 3938 3442 4084 
Q 3081 4231 2675 4231 
Q 1875 4231 1450 3742 
Q 1025 3253 1025 2328 
Q 1025 1406 1450 917 
Q 1875 428 2675 428 
Q 3081 428 3442 575 
Q 3803 722 4122 1019 
L 4122 359 
Q 3791 134 3420 21 
Q 3050 -91 2638 -91 
Q 1578 -91 968 557 
Q 359 1206 359 2328 
Q 359 3453 968 4101 
Q 1578 4750 2638 4750 
Q 3056 4750 3426 4639 
Q 3797 4528 4122 4306 
z
" transform="scale(0.015625)"/>
      <path id="DejaVuSans-6f" d="M 1959 3097 
Q 1497 3097 1228 2736 
Q 959 2375 959 1747 
Q 959 1119 1226 758 
Q 1494 397 1959 397 
Q 2419 397 2687 759 
Q 2956 1122 2956 1747 
Q 2956 2369 2687 2733 
Q 2419 3097 1959 3097 
z
M 1959 3584 
Q 2709 3584 3137 3096 
Q 3566 2609 3566 1747 
Q 3566 888 3137 398 
Q 2709 -91 1959 -91 
Q 1206 -91 779 398 
Q 353 888 353 1747 
Q 353 2609 779 3096 
Q 1206 3584 1959 3584 
z
" transform="scale(0.015625)"/>
      <path id="DejaVuSans-6e" d="M 3513 2113 
L 3513 0 
L 2938 0 
L 2938 2094 
Q 2938 2591 2744 2837 
Q 2550 3084 2163 3084 
Q 1697 3084 1428 2787 
Q 1159 2491 1159 1978 
L 1159 0 
L 581 0 
L 581 3500 
L 1159 3500 
L 1159 2956 
Q 1366 3272 1645 3428 
Q 1925 3584 2291 3584 
Q 2894 3584 3203 3211 
Q 3513 2838 3513 2113 
z
" transform="scale(0.015625)"/>
      <path id="DejaVuSans-66" d="M 2375 4863 
L 2375 4384 
L 1825 4384 
Q 1516 4384 1395 4259 
Q 1275 4134 1275 3809 
L 1275 3500 
L 2222 3500 
L 2222 3053 
L 1275 3053 
L 1275 0 
L 697 0 
L 697 3053 
L 147 3053 
L 147 3500 
L 697 3500 
L 697 3744 
Q 697 4328 969 4595 
Q 1241 4863 1831 4863 
L 2375 4863 
z
" transform="scale(0.015625)"/>
      <path id="DejaVuSans-72" d="M 2631 2963 
Q 2534 3019 2420 3045 
Q 2306 3072 2169 3072 
Q 1681 3072 1420 2755 
Q 1159 2438 1159 1844 
L 1159 0 
L 581 0 
L 581 3500 
L 1159 3500 
L 1159 2956 
Q 1341 3275 1631 3429 
Q 1922 3584 2338 3584 
Q 2397 3584 2469 3576 
Q 2541 3569 2628 3553 
L 2631 2963 
z
" transform="scale(0.015625)"/>
      <path id="DejaVuSans-6d" d="M 3328 2828 
Q 3544 3216 3844 3400 
Q 4144 3584 4550 3584 
Q 5097 3584 5394 3201 
Q 5691 2819 5691 2113 
L 5691 0 
L 5113 0 
L 5113 2094 
Q 5113 2597 4934 2840 
Q 4756 3084 4391 3084 
Q 3944 3084 3684 2787 
Q 3425 2491 3425 1978 
L 3425 0 
L 2847 0 
L 2847 2094 
Q 2847 2600 2669 2842 
Q 2491 3084 2119 3084 
Q 1678 3084 1418 2786 
Q 1159 2488 1159 1978 
L 1159 0 
L 581 0 
L 581 3500 
L 1159 3500 
L 1159 2956 
Q 1356 3278 1631 3431 
Q 1906 3584 2284 3584 
Q 2666 3584 2933 3390 
Q 3200 3197 3328 2828 
z
" transform="scale(0.015625)"/>
      <path id="DejaVuSans-65" d="M 3597 1894 
L 3597 1613 
L 953 1613 
Q 991 1019 1311 708 
Q 1631 397 2203 397 
Q 2534 397 2845 478 
Q 3156 559 3463 722 
L 3463 178 
Q 3153 47 2828 -22 
Q 2503 -91 2169 -91 
Q 1331 -91 842 396 
Q 353 884 353 1716 
Q 353 2575 817 3079 
Q 1281 3584 2069 3584 
Q 2775 3584 3186 3129 
Q 3597 2675 3597 1894 
z
M 3022 2063 
Q 3016 2534 2758 2815 
Q 2500 3097 2075 3097 
Q 1594 3097 1305 2825 
Q 1016 2553 972 2059 
L 3022 2063 
z
" transform="scale(0.015625)"/>
      <path id="DejaVuSans-64" d="M 2906 2969 
L 2906 4863 
L 3481 4863 
L 3481 0 
L 2906 0 
L 2906 525 
Q 2725 213 2448 61 
Q 2172 -91 1784 -91 
Q 1150 -91 751 415 
Q 353 922 353 1747 
Q 353 2572 751 3078 
Q 1150 3584 1784 3584 
Q 2172 3584 2448 3432 
Q 2725 3281 2906 2969 
z
M 947 1747 
Q 947 1113 1208 752 
Q 1469 391 1925 391 
Q 2381 391 2643 752 
Q 2906 1113 2906 1747 
Q 2906 2381 2643 2742 
Q 2381 3103 1925 3103 
Q 1469 3103 1208 2742 
Q 947 2381 947 1747 
z
" transform="scale(0.015625)"/>
      <path id="DejaVuSans-73" d="M 2834 3397 
L 2834 2853 
Q 2591 2978 2328 3040 
Q 2066 3103 1784 3103 
Q 1356 3103 1142 2972 
Q 928 2841 928 2578 
Q 928 2378 1081 2264 
Q 1234 2150 1697 2047 
L 1894 2003 
Q 2506 1872 2764 1633 
Q 3022 1394 3022 966 
Q 3022 478 2636 193 
Q 2250 -91 1575 -91 
Q 1294 -91 989 -36 
Q 684 19 347 128 
L 347 722 
Q 666 556 975 473 
Q 1284 391 1588 391 
Q 1994 391 2212 530 
Q 2431 669 2431 922 
Q 2431 1156 2273 1281 
Q 2116 1406 1581 1522 
L 1381 1569 
Q 847 1681 609 1914 
Q 372 2147 372 2553 
Q 372 3047 722 3315 
Q 1072 3584 1716 3584 
Q 2034 3584 2315 3537 
Q 2597 3491 2834 3397 
z
" transform="scale(0.015625)"/>
      <path id="DejaVuSans-46" d="M 628 4666 
L 3309 4666 
L 3309 4134 
L 1259 4134 
L 1259 2759 
L 3109 2759 
L 3109 2228 
L 1259 2228 
L 1259 0 
L 628 0 
L 628 4666 
z
" transform="scale(0.015625)"/>
      <path id="DejaVuSans-63" d="M 3122 3366 
L 3122 2828 
Q 2878 2963 2633 3030 
Q 2388 3097 2138 3097 
Q 1578 3097 1268 2742 
Q 959 2388 959 1747 
Q 959 1106 1268 751 
Q 1578 397 2138 397 
Q 2388 397 2633 464 
Q 2878 531 3122 666 
L 3122 134 
Q 2881 22 2623 -34 
Q 2366 -91 2075 -91 
Q 1284 -91 818 406 
Q 353 903 353 1747 
Q 353 2603 823 3093 
Q 1294 3584 2113 3584 
Q 2378 3584 2631 3529 
Q 2884 3475 3122 3366 
z
" transform="scale(0.015625)"/>
      <path id="DejaVuSans-74" d="M 1172 4494 
L 1172 3500 
L 2356 3500 
L 2356 3053 
L 1172 3053 
L 1172 1153 
Q 1172 725 1289 603 
Q 1406 481 1766 481 
L 2356 481 
L 2356 0 
L 1766 0 
Q 1100 0 847 248 
Q 594 497 594 1153 
L 594 3053 
L 172 3053 
L 172 3500 
L 594 3500 
L 594 4494 
L 1172 4494 
z
" transform="scale(0.015625)"/>
      <path id="DejaVuSans-67" d="M 2906 1791 
Q 2906 2416 2648 2759 
Q 2391 3103 1925 3103 
Q 1463 3103 1205 2759 
Q 947 2416 947 1791 
Q 947 1169 1205 825 
Q 1463 481 1925 481 
Q 2391 481 2648 825 
Q 2906 1169 2906 1791 
z
M 3481 434 
Q 3481 -459 3084 -895 
Q 2688 -1331 1869 -1331 
Q 1566 -1331 1297 -1286 
Q 1028 -1241 775 -1147 
L 775 -588 
Q 1028 -725 1275 -790 
Q 1522 -856 1778 -856 
Q 2344 -856 2625 -561 
Q 2906 -266 2906 331 
L 2906 616 
Q 2728 306 2450 153 
Q 2172 0 1784 0 
Q 1141 0 747 490 
Q 353 981 353 1791 
Q 353 2603 747 3093 
Q 1141 3584 1784 3584 
Q 2172 3584 2450 3431 
Q 2728 3278 2906 2969 
L 2906 3500 
L 3481 3500 
L 3481 434 
z
" transform="scale(0.015625)"/>
      <path id="DejaVuSans-4e" d="M 628 4666 
L 1478 4666 
L 3547 763 
L 3547 4666 
L 4159 4666 
L 4159 0 
L 3309 0 
L 1241 3903 
L 1241 0 
L 628 0 
L 628 4666 
z
" transform="scale(0.015625)"/>
      <path id="DejaVuSans-70" d="M 1159 525 
L 1159 -1331 
L 581 -1331 
L 581 3500 
L 1159 3500 
L 1159 2969 
Q 1341 3281 1617 3432 
Q 1894 3584 2278 3584 
Q 2916 3584 3314 3078 
Q 3713 2572 3713 1747 
Q 3713 922 3314 415 
Q 2916 -91 2278 -91 
Q 1894 -91 1617 61 
Q 1341 213 1159 525 
z
M 3116 1747 
Q 3116 2381 2855 2742 
Q 2594 3103 2138 3103 
Q 1681 3103 1420 2742 
Q 1159 2381 1159 1747 
Q 1159 1113 1420 752 
Q 1681 391 2138 391 
Q 2594 391 2855 752 
Q 3116 1113 3116 1747 
z
" transform="scale(0.015625)"/>
     </defs>
     <use xlink:href="#DejaVuSans-44"/>
     <use xlink:href="#DejaVuSans-61" x="77.001953"/>
     <use xlink:href="#DejaVuSans-69" x="138.28125"/>
     <use xlink:href="#DejaVuSans-6c" x="166.064453"/>
     <use xlink:href="#DejaVuSans-79" x="193.847656"/>
     <use xlink:href="#DejaVuSans-20" x="253.027344"/>
     <use xlink:href="#DejaVuSans-43" x="284.814453"/>
     <use xlink:href="#DejaVuSans-6f" x="354.638672"/>
     <use xlink:href="#DejaVuSans-6e" x="415.820312"/>
     <use xlink:href="#DejaVuSans-66" x="479.199219"/>
     <use xlink:href="#DejaVuSans-69" x="514.404297"/>
     <use xlink:href="#DejaVuSans-72" x="542.1875"/>
     <use xlink:href="#DejaVuSans-6d" x="581.550781"/>
     <use xlink:href="#DejaVuSans-65" x="678.962891"/>
     <use xlink:href="#DejaVuSans-64" x="740.486328"/>
     <use xlink:href="#DejaVuSans-20" x="803.962891"/>
     <use xlink:href="#DejaVuSans-43" x="835.75"/>
     <use xlink:href="#DejaVuSans-61" x="905.574219"/>
     <use xlink:href="#DejaVuSans-73" x="966.853516"/>
     <use xlink:href="#DejaVuSans-65" x="1018.953125"/>
     <use xlink:href="#DejaVuSans-73" x="1080.476562"/>
     <use xlink:href="#DejaVuSans-20" x="1132.576172"/>
     <use xlink:href="#DejaVuSans-46" x="1164.363281"/>
     <use xlink:href="#DejaVuSans-6f" x="1218.257812"/>
     <use xlink:href="#DejaVuSans-72" x="1279.439453"/>
     <use xlink:href="#DejaVuSans-65" x="1318.302734"/>
     <use xlink:href="#DejaVuSans-63" x="1379.826172"/>
     <use xlink:href="#DejaVuSans-61" x="1434.806641"/>
     <use xlink:href="#DejaVuSans-73" x="1496.085938"/>
     <use xlink:href="#DejaVuSans-74" x="1548.185547"/>
     <use xlink:href="#DejaVuSans-69" x="1587.394531"/>
     <use xlink:href="#DejaVuSans-6e" x="1615.177734"/>
     <use xlink:href="#DejaVuSans-67" x="1678.556641"/>
     <use xlink:href="#DejaVuSans-20" x="1742.033203"/>
     <use xlink:href="#DejaVuSans-2d" x="1773.820312"/>
     <use xlink:href="#DejaVuSans-20" x="1809.904297"/>
     <use xlink:href="#DejaVuSans-4e" x="1841.691406"/>
     <use xlink:href="#DejaVuSans-65" x="1916.496094"/>
     <use xlink:href="#DejaVuSans-70" x="1978.019531"/>
     <use xlink:href="#DejaVuSans-61" x="2041.496094"/>
     <use xlink:href="#DejaVuSans-6c" x="2102.775391"/>
    </g>
    <!-- ARIMA (3, 1, 1)x(1, 0, 1, 7) (R2 = 0.880537) -->
    <g transform="translate(583.628438 29.7555)scale(0.12 -0.12)">
     <defs>
      <path id="DejaVuSans-41" d="M 2188 4044 
L 1331 1722 
L 3047 1722 
L 2188 4044 
z
M 1831 4666 
L 2547 4666 
L 4325 0 
L 3669 0 
L 3244 1197 
L 1141 1197 
L 716 0 
L 50 0 
L 1831 4666 
z
" transform="scale(0.015625)"/>
      <path id="DejaVuSans-52" d="M 2841 2188 
Q 3044 2119 3236 1894 
Q 3428 1669 3622 1275 
L 4263 0 
L 3584 0 
L 2988 1197 
Q 2756 1666 2539 1819 
Q 2322 1972 1947 1972 
L 1259 1972 
L 1259 0 
L 628 0 
L 628 4666 
L 2053 4666 
Q 2853 4666 3247 4331 
Q 3641 3997 3641 3322 
Q 3641 2881 3436 2590 
Q 3231 2300 2841 2188 
z
M 1259 4147 
L 1259 2491 
L 2053 2491 
Q 2509 2491 2742 2702 
Q 2975 2913 2975 3322 
Q 2975 3731 2742 3939 
Q 2509 4147 2053 4147 
L 1259 4147 
z
" transform="scale(0.015625)"/>
      <path id="DejaVuSans-49" d="M 628 4666 
L 1259 4666 
L 1259 0 
L 628 0 
L 628 4666 
z
" transform="scale(0.015625)"/>
      <path id="DejaVuSans-4d" d="M 628 4666 
L 1569 4666 
L 2759 1491 
L 3956 4666 
L 4897 4666 
L 4897 0 
L 4281 0 
L 4281 4097 
L 3078 897 
L 2444 897 
L 1241 4097 
L 1241 0 
L 628 0 
L 628 4666 
z
" transform="scale(0.015625)"/>
      <path id="DejaVuSans-28" d="M 1984 4856 
Q 1566 4138 1362 3434 
Q 1159 2731 1159 2009 
Q 1159 1288 1364 580 
Q 1569 -128 1984 -844 
L 1484 -844 
Q 1016 -109 783 600 
Q 550 1309 550 2009 
Q 550 2706 781 3412 
Q 1013 4119 1484 4856 
L 1984 4856 
z
" transform="scale(0.015625)"/>
      <path id="DejaVuSans-2c" d="M 750 794 
L 1409 794 
L 1409 256 
L 897 -744 
L 494 -744 
L 750 256 
L 750 794 
z
" transform="scale(0.015625)"/>
      <path id="DejaVuSans-29" d="M 513 4856 
L 1013 4856 
Q 1481 4119 1714 3412 
Q 1947 2706 1947 2009 
Q 1947 1309 1714 600 
Q 1481 -109 1013 -844 
L 513 -844 
Q 928 -128 1133 580 
Q 1338 1288 1338 2009 
Q 1338 2731 1133 3434 
Q 928 4138 513 4856 
z
" transform="scale(0.015625)"/>
      <path id="DejaVuSans-78" d="M 3513 3500 
L 2247 1797 
L 3578 0 
L 2900 0 
L 1881 1375 
L 863 0 
L 184 0 
L 1544 1831 
L 300 3500 
L 978 3500 
L 1906 2253 
L 2834 3500 
L 3513 3500 
z
" transform="scale(0.015625)"/>
      <path id="DejaVuSans-37" d="M 525 4666 
L 3525 4666 
L 3525 4397 
L 1831 0 
L 1172 0 
L 2766 4134 
L 525 4134 
L 525 4666 
z
" transform="scale(0.015625)"/>
      <path id="DejaVuSans-3d" d="M 678 2906 
L 4684 2906 
L 4684 2381 
L 678 2381 
L 678 2906 
z
M 678 1631 
L 4684 1631 
L 4684 1100 
L 678 1100 
L 678 1631 
z
" transform="scale(0.015625)"/>
      <path id="DejaVuSans-2e" d="M 684 794 
L 1344 794 
L 1344 0 
L 684 0 
L 684 794 
z
" transform="scale(0.015625)"/>
     </defs>
     <use xlink:href="#DejaVuSans-41"/>
     <use xlink:href="#DejaVuSans-52" x="68.408203"/>
     <use xlink:href="#DejaVuSans-49" x="137.890625"/>
     <use xlink:href="#DejaVuSans-4d" x="167.382812"/>
     <use xlink:href="#DejaVuSans-41" x="253.662109"/>
     <use xlink:href="#DejaVuSans-20" x="322.070312"/>
     <use xlink:href="#DejaVuSans-28" x="353.857422"/>
     <use xlink:href="#DejaVuSans-33" x="392.871094"/>
     <use xlink:href="#DejaVuSans-2c" x="456.494141"/>
     <use xlink:href="#DejaVuSans-20" x="488.28125"/>
     <use xlink:href="#DejaVuSans-31" x="520.068359"/>
     <use xlink:href="#DejaVuSans-2c" x="583.691406"/>
     <use xlink:href="#DejaVuSans-20" x="615.478516"/>
     <use xlink:href="#DejaVuSans-31" x="647.265625"/>
     <use xlink:href="#DejaVuSans-29" x="710.888672"/>
     <use xlink:href="#DejaVuSans-78" x="749.902344"/>
     <use xlink:href="#DejaVuSans-28" x="809.082031"/>
     <use xlink:href="#DejaVuSans-31" x="848.095703"/>
     <use xlink:href="#DejaVuSans-2c" x="911.71875"/>
     <use xlink:href="#DejaVuSans-20" x="943.505859"/>
     <use xlink:href="#DejaVuSans-30" x="975.292969"/>
     <use xlink:href="#DejaVuSans-2c" x="1038.916016"/>
     <use xlink:href="#DejaVuSans-20" x="1070.703125"/>
     <use xlink:href="#DejaVuSans-31" x="1102.490234"/>
     <use xlink:href="#DejaVuSans-2c" x="1166.113281"/>
     <use xlink:href="#DejaVuSans-20" x="1197.900391"/>
     <use xlink:href="#DejaVuSans-37" x="1229.6875"/>
     <use xlink:href="#DejaVuSans-29" x="1293.310547"/>
     <use xlink:href="#DejaVuSans-20" x="1332.324219"/>
     <use xlink:href="#DejaVuSans-28" x="1364.111328"/>
     <use xlink:href="#DejaVuSans-52" x="1403.125"/>
     <use xlink:href="#DejaVuSans-32" x="1472.607422"/>
     <use xlink:href="#DejaVuSans-20" x="1536.230469"/>
     <use xlink:href="#DejaVuSans-3d" x="1568.017578"/>
     <use xlink:href="#DejaVuSans-20" x="1651.806641"/>
     <use xlink:href="#DejaVuSans-30" x="1683.59375"/>
     <use xlink:href="#DejaVuSans-2e" x="1747.216797"/>
     <use xlink:href="#DejaVuSans-38" x="1779.003906"/>
     <use xlink:href="#DejaVuSans-38" x="1842.626953"/>
     <use xlink:href="#DejaVuSans-30" x="1906.25"/>
     <use xlink:href="#DejaVuSans-35" x="1969.873047"/>
     <use xlink:href="#DejaVuSans-33" x="2033.496094"/>
     <use xlink:href="#DejaVuSans-37" x="2097.119141"/>
     <use xlink:href="#DejaVuSans-29" x="2160.742188"/>
    </g>
   </g>
   <g id="legend_1">
    <g id="patch_7">
     <path d="M 1281.132812 87.789875 
L 1378.2125 87.789875 
Q 1380.2125 87.789875 1380.2125 85.789875 
L 1380.2125 42.7555 
Q 1380.2125 40.7555 1378.2125 40.7555 
L 1281.132812 40.7555 
Q 1279.132812 40.7555 1279.132812 42.7555 
L 1279.132812 85.789875 
Q 1279.132812 87.789875 1281.132812 87.789875 
z
" style="fill: #ffffff; opacity: 0.8; stroke: #cccccc; stroke-linejoin: miter"/>
    </g>
    <g id="line2d_20">
     <path d="M 1283.132812 48.853937 
L 1293.132812 48.853937 
L 1303.132812 48.853937 
" style="fill: none; stroke: #0000ff; stroke-width: 1.5; stroke-linecap: square"/>
    </g>
    <g id="text_18">
     <!-- Actual Value -->
     <g transform="translate(1311.132812 52.353937)scale(0.1 -0.1)">
      <defs>
       <path id="DejaVuSans-75" d="M 544 1381 
L 544 3500 
L 1119 3500 
L 1119 1403 
Q 1119 906 1312 657 
Q 1506 409 1894 409 
Q 2359 409 2629 706 
Q 2900 1003 2900 1516 
L 2900 3500 
L 3475 3500 
L 3475 0 
L 2900 0 
L 2900 538 
Q 2691 219 2414 64 
Q 2138 -91 1772 -91 
Q 1169 -91 856 284 
Q 544 659 544 1381 
z
M 1991 3584 
L 1991 3584 
z
" transform="scale(0.015625)"/>
       <path id="DejaVuSans-56" d="M 1831 0 
L 50 4666 
L 709 4666 
L 2188 738 
L 3669 4666 
L 4325 4666 
L 2547 0 
L 1831 0 
z
" transform="scale(0.015625)"/>
      </defs>
      <use xlink:href="#DejaVuSans-41"/>
      <use xlink:href="#DejaVuSans-63" x="66.658203"/>
      <use xlink:href="#DejaVuSans-74" x="121.638672"/>
      <use xlink:href="#DejaVuSans-75" x="160.847656"/>
      <use xlink:href="#DejaVuSans-61" x="224.226562"/>
      <use xlink:href="#DejaVuSans-6c" x="285.505859"/>
      <use xlink:href="#DejaVuSans-20" x="313.289062"/>
      <use xlink:href="#DejaVuSans-56" x="345.076172"/>
      <use xlink:href="#DejaVuSans-61" x="405.734375"/>
      <use xlink:href="#DejaVuSans-6c" x="467.013672"/>
      <use xlink:href="#DejaVuSans-75" x="494.796875"/>
      <use xlink:href="#DejaVuSans-65" x="558.175781"/>
     </g>
    </g>
    <g id="line2d_21">
     <path d="M 1283.132812 63.532062 
L 1293.132812 63.532062 
L 1303.132812 63.532062 
" style="fill: none; stroke: #ffa500; stroke-width: 1.5; stroke-linecap: square"/>
    </g>
    <g id="text_19">
     <!-- Check Value -->
     <g transform="translate(1311.132812 67.032062)scale(0.1 -0.1)">
      <defs>
       <path id="DejaVuSans-68" d="M 3513 2113 
L 3513 0 
L 2938 0 
L 2938 2094 
Q 2938 2591 2744 2837 
Q 2550 3084 2163 3084 
Q 1697 3084 1428 2787 
Q 1159 2491 1159 1978 
L 1159 0 
L 581 0 
L 581 4863 
L 1159 4863 
L 1159 2956 
Q 1366 3272 1645 3428 
Q 1925 3584 2291 3584 
Q 2894 3584 3203 3211 
Q 3513 2838 3513 2113 
z
" transform="scale(0.015625)"/>
       <path id="DejaVuSans-6b" d="M 581 4863 
L 1159 4863 
L 1159 1991 
L 2875 3500 
L 3609 3500 
L 1753 1863 
L 3688 0 
L 2938 0 
L 1159 1709 
L 1159 0 
L 581 0 
L 581 4863 
z
" transform="scale(0.015625)"/>
      </defs>
      <use xlink:href="#DejaVuSans-43"/>
      <use xlink:href="#DejaVuSans-68" x="69.824219"/>
      <use xlink:href="#DejaVuSans-65" x="133.203125"/>
      <use xlink:href="#DejaVuSans-63" x="194.726562"/>
      <use xlink:href="#DejaVuSans-6b" x="249.707031"/>
      <use xlink:href="#DejaVuSans-20" x="307.617188"/>
      <use xlink:href="#DejaVuSans-56" x="339.404297"/>
      <use xlink:href="#DejaVuSans-61" x="400.0625"/>
      <use xlink:href="#DejaVuSans-6c" x="461.341797"/>
      <use xlink:href="#DejaVuSans-75" x="489.125"/>
      <use xlink:href="#DejaVuSans-65" x="552.503906"/>
     </g>
    </g>
    <g id="line2d_22">
     <path d="M 1283.132812 78.210187 
L 1293.132812 78.210187 
L 1303.132812 78.210187 
" style="fill: none; stroke: #ff0000; stroke-width: 1.5; stroke-linecap: square"/>
    </g>
    <g id="text_20">
     <!-- Predict Value -->
     <g transform="translate(1311.132812 81.710187)scale(0.1 -0.1)">
      <defs>
       <path id="DejaVuSans-50" d="M 1259 4147 
L 1259 2394 
L 2053 2394 
Q 2494 2394 2734 2622 
Q 2975 2850 2975 3272 
Q 2975 3691 2734 3919 
Q 2494 4147 2053 4147 
L 1259 4147 
z
M 628 4666 
L 2053 4666 
Q 2838 4666 3239 4311 
Q 3641 3956 3641 3272 
Q 3641 2581 3239 2228 
Q 2838 1875 2053 1875 
L 1259 1875 
L 1259 0 
L 628 0 
L 628 4666 
z
" transform="scale(0.015625)"/>
      </defs>
      <use xlink:href="#DejaVuSans-50"/>
      <use xlink:href="#DejaVuSans-72" x="58.552734"/>
      <use xlink:href="#DejaVuSans-65" x="97.416016"/>
      <use xlink:href="#DejaVuSans-64" x="158.939453"/>
      <use xlink:href="#DejaVuSans-69" x="222.416016"/>
      <use xlink:href="#DejaVuSans-63" x="250.199219"/>
      <use xlink:href="#DejaVuSans-74" x="305.179688"/>
      <use xlink:href="#DejaVuSans-20" x="344.388672"/>
      <use xlink:href="#DejaVuSans-56" x="376.175781"/>
      <use xlink:href="#DejaVuSans-61" x="436.833984"/>
      <use xlink:href="#DejaVuSans-6c" x="498.113281"/>
      <use xlink:href="#DejaVuSans-75" x="525.896484"/>
      <use xlink:href="#DejaVuSans-65" x="589.275391"/>
     </g>
    </g>
   </g>
  </g>
 </g>
 <defs>
  <clipPath id="p6fac50a06a">
   <rect x="46.0125" y="35.7555" width="1339.2" height="332.64"/>
  </clipPath>
 </defs>
</svg>
