<?xml version="1.0" encoding="utf-8" standalone="no"?>
<!DOCTYPE svg PUBLIC "-//W3C//DTD SVG 1.1//EN"
  "http://www.w3.org/Graphics/SVG/1.1/DTD/svg11.dtd">
<svg xmlns:xlink="http://www.w3.org/1999/xlink" width="1386.05pt" height="392.273625pt" viewBox="0 0 1386.05 392.273625" xmlns="http://www.w3.org/2000/svg" version="1.1">
 <metadata>
  <rdf:RDF xmlns:dc="http://purl.org/dc/elements/1.1/" xmlns:cc="http://creativecommons.org/ns#" xmlns:rdf="http://www.w3.org/1999/02/22-rdf-syntax-ns#">
   <cc:Work>
    <dc:type rdf:resource="http://purl.org/dc/dcmitype/StillImage"/>
    <dc:date>2022-06-17T18:38:22.738859</dc:date>
    <dc:format>image/svg+xml</dc:format>
    <dc:creator>
     <cc:Agent>
      <dc:title>Matplotlib v3.5.1, https://matplotlib.org/</dc:title>
     </cc:Agent>
    </dc:creator>
   </cc:Work>
  </rdf:RDF>
 </metadata>
 <defs>
  <style type="text/css">*{stroke-linejoin: round; stroke-linecap: butt}</style>
 </defs>
 <g id="figure_1">
  <g id="patch_1">
   <path d="M 0 392.273625 
L 1386.05 392.273625 
L 1386.05 0 
L 0 0 
z
" style="fill: #ffffff"/>
  </g>
  <g id="axes_1">
   <g id="patch_2">
    <path d="M 39.65 368.3955 
L 1378.85 368.3955 
L 1378.85 35.7555 
L 39.65 35.7555 
z
" style="fill: #ffffff"/>
   </g>
   <g id="matplotlib.axis_1">
    <g id="xtick_1">
     <g id="line2d_1">
      <defs>
       <path id="mf8d70da1a3" d="M 0 0 
L 0 3.5 
" style="stroke: #000000; stroke-width: 0.8"/>
      </defs>
      <g>
       <use xlink:href="#mf8d70da1a3" x="70.394493" y="368.3955" style="stroke: #000000; stroke-width: 0.8"/>
      </g>
     </g>
     <g id="text_1">
      <!-- 2020-01 -->
      <g transform="translate(49.503087 382.993937)scale(0.1 -0.1)">
       <defs>
        <path id="DejaVuSans-32" d="M 1228 531 
L 3431 531 
L 3431 0 
L 469 0 
L 469 531 
Q 828 903 1448 1529 
Q 2069 2156 2228 2338 
Q 2531 2678 2651 2914 
Q 2772 3150 2772 3378 
Q 2772 3750 2511 3984 
Q 2250 4219 1831 4219 
Q 1534 4219 1204 4116 
Q 875 4013 500 3803 
L 500 4441 
Q 881 4594 1212 4672 
Q 1544 4750 1819 4750 
Q 2544 4750 2975 4387 
Q 3406 4025 3406 3419 
Q 3406 3131 3298 2873 
Q 3191 2616 2906 2266 
Q 2828 2175 2409 1742 
Q 1991 1309 1228 531 
z
" transform="scale(0.015625)"/>
        <path id="DejaVuSans-30" d="M 2034 4250 
Q 1547 4250 1301 3770 
Q 1056 3291 1056 2328 
Q 1056 1369 1301 889 
Q 1547 409 2034 409 
Q 2525 409 2770 889 
Q 3016 1369 3016 2328 
Q 3016 3291 2770 3770 
Q 2525 4250 2034 4250 
z
M 2034 4750 
Q 2819 4750 3233 4129 
Q 3647 3509 3647 2328 
Q 3647 1150 3233 529 
Q 2819 -91 2034 -91 
Q 1250 -91 836 529 
Q 422 1150 422 2328 
Q 422 3509 836 4129 
Q 1250 4750 2034 4750 
z
" transform="scale(0.015625)"/>
        <path id="DejaVuSans-2d" d="M 313 2009 
L 1997 2009 
L 1997 1497 
L 313 1497 
L 313 2009 
z
" transform="scale(0.015625)"/>
        <path id="DejaVuSans-31" d="M 794 531 
L 1825 531 
L 1825 4091 
L 703 3866 
L 703 4441 
L 1819 4666 
L 2450 4666 
L 2450 531 
L 3481 531 
L 3481 0 
L 794 0 
L 794 531 
z
" transform="scale(0.015625)"/>
       </defs>
       <use xlink:href="#DejaVuSans-32"/>
       <use xlink:href="#DejaVuSans-30" x="63.623047"/>
       <use xlink:href="#DejaVuSans-32" x="127.246094"/>
       <use xlink:href="#DejaVuSans-30" x="190.869141"/>
       <use xlink:href="#DejaVuSans-2d" x="254.492188"/>
       <use xlink:href="#DejaVuSans-30" x="290.576172"/>
       <use xlink:href="#DejaVuSans-31" x="354.199219"/>
      </g>
     </g>
    </g>
    <g id="xtick_2">
     <g id="line2d_2">
      <g>
       <use xlink:href="#mf8d70da1a3" x="195.015825" y="368.3955" style="stroke: #000000; stroke-width: 0.8"/>
      </g>
     </g>
     <g id="text_2">
      <!-- 2020-04 -->
      <g transform="translate(174.124418 382.993937)scale(0.1 -0.1)">
       <defs>
        <path id="DejaVuSans-34" d="M 2419 4116 
L 825 1625 
L 2419 1625 
L 2419 4116 
z
M 2253 4666 
L 3047 4666 
L 3047 1625 
L 3713 1625 
L 3713 1100 
L 3047 1100 
L 3047 0 
L 2419 0 
L 2419 1100 
L 313 1100 
L 313 1709 
L 2253 4666 
z
" transform="scale(0.015625)"/>
       </defs>
       <use xlink:href="#DejaVuSans-32"/>
       <use xlink:href="#DejaVuSans-30" x="63.623047"/>
       <use xlink:href="#DejaVuSans-32" x="127.246094"/>
       <use xlink:href="#DejaVuSans-30" x="190.869141"/>
       <use xlink:href="#DejaVuSans-2d" x="254.492188"/>
       <use xlink:href="#DejaVuSans-30" x="290.576172"/>
       <use xlink:href="#DejaVuSans-34" x="354.199219"/>
      </g>
     </g>
    </g>
    <g id="xtick_3">
     <g id="line2d_3">
      <g>
       <use xlink:href="#mf8d70da1a3" x="319.637156" y="368.3955" style="stroke: #000000; stroke-width: 0.8"/>
      </g>
     </g>
     <g id="text_3">
      <!-- 2020-07 -->
      <g transform="translate(298.74575 382.993937)scale(0.1 -0.1)">
       <defs>
        <path id="DejaVuSans-37" d="M 525 4666 
L 3525 4666 
L 3525 4397 
L 1831 0 
L 1172 0 
L 2766 4134 
L 525 4134 
L 525 4666 
z
" transform="scale(0.015625)"/>
       </defs>
       <use xlink:href="#DejaVuSans-32"/>
       <use xlink:href="#DejaVuSans-30" x="63.623047"/>
       <use xlink:href="#DejaVuSans-32" x="127.246094"/>
       <use xlink:href="#DejaVuSans-30" x="190.869141"/>
       <use xlink:href="#DejaVuSans-2d" x="254.492188"/>
       <use xlink:href="#DejaVuSans-30" x="290.576172"/>
       <use xlink:href="#DejaVuSans-37" x="354.199219"/>
      </g>
     </g>
    </g>
    <g id="xtick_4">
     <g id="line2d_4">
      <g>
       <use xlink:href="#mf8d70da1a3" x="445.627953" y="368.3955" style="stroke: #000000; stroke-width: 0.8"/>
      </g>
     </g>
     <g id="text_4">
      <!-- 2020-10 -->
      <g transform="translate(424.736547 382.993937)scale(0.1 -0.1)">
       <use xlink:href="#DejaVuSans-32"/>
       <use xlink:href="#DejaVuSans-30" x="63.623047"/>
       <use xlink:href="#DejaVuSans-32" x="127.246094"/>
       <use xlink:href="#DejaVuSans-30" x="190.869141"/>
       <use xlink:href="#DejaVuSans-2d" x="254.492188"/>
       <use xlink:href="#DejaVuSans-31" x="290.576172"/>
       <use xlink:href="#DejaVuSans-30" x="354.199219"/>
      </g>
     </g>
    </g>
    <g id="xtick_5">
     <g id="line2d_5">
      <g>
       <use xlink:href="#mf8d70da1a3" x="571.618749" y="368.3955" style="stroke: #000000; stroke-width: 0.8"/>
      </g>
     </g>
     <g id="text_5">
      <!-- 2021-01 -->
      <g transform="translate(550.727343 382.993937)scale(0.1 -0.1)">
       <use xlink:href="#DejaVuSans-32"/>
       <use xlink:href="#DejaVuSans-30" x="63.623047"/>
       <use xlink:href="#DejaVuSans-32" x="127.246094"/>
       <use xlink:href="#DejaVuSans-31" x="190.869141"/>
       <use xlink:href="#DejaVuSans-2d" x="254.492188"/>
       <use xlink:href="#DejaVuSans-30" x="290.576172"/>
       <use xlink:href="#DejaVuSans-31" x="354.199219"/>
      </g>
     </g>
    </g>
    <g id="xtick_6">
     <g id="line2d_6">
      <g>
       <use xlink:href="#mf8d70da1a3" x="694.870616" y="368.3955" style="stroke: #000000; stroke-width: 0.8"/>
      </g>
     </g>
     <g id="text_6">
      <!-- 2021-04 -->
      <g transform="translate(673.979209 382.993937)scale(0.1 -0.1)">
       <use xlink:href="#DejaVuSans-32"/>
       <use xlink:href="#DejaVuSans-30" x="63.623047"/>
       <use xlink:href="#DejaVuSans-32" x="127.246094"/>
       <use xlink:href="#DejaVuSans-31" x="190.869141"/>
       <use xlink:href="#DejaVuSans-2d" x="254.492188"/>
       <use xlink:href="#DejaVuSans-30" x="290.576172"/>
       <use xlink:href="#DejaVuSans-34" x="354.199219"/>
      </g>
     </g>
    </g>
    <g id="xtick_7">
     <g id="line2d_7">
      <g>
       <use xlink:href="#mf8d70da1a3" x="819.491947" y="368.3955" style="stroke: #000000; stroke-width: 0.8"/>
      </g>
     </g>
     <g id="text_7">
      <!-- 2021-07 -->
      <g transform="translate(798.600541 382.993937)scale(0.1 -0.1)">
       <use xlink:href="#DejaVuSans-32"/>
       <use xlink:href="#DejaVuSans-30" x="63.623047"/>
       <use xlink:href="#DejaVuSans-32" x="127.246094"/>
       <use xlink:href="#DejaVuSans-31" x="190.869141"/>
       <use xlink:href="#DejaVuSans-2d" x="254.492188"/>
       <use xlink:href="#DejaVuSans-30" x="290.576172"/>
       <use xlink:href="#DejaVuSans-37" x="354.199219"/>
      </g>
     </g>
    </g>
    <g id="xtick_8">
     <g id="line2d_8">
      <g>
       <use xlink:href="#mf8d70da1a3" x="945.482744" y="368.3955" style="stroke: #000000; stroke-width: 0.8"/>
      </g>
     </g>
     <g id="text_8">
      <!-- 2021-10 -->
      <g transform="translate(924.591337 382.993937)scale(0.1 -0.1)">
       <use xlink:href="#DejaVuSans-32"/>
       <use xlink:href="#DejaVuSans-30" x="63.623047"/>
       <use xlink:href="#DejaVuSans-32" x="127.246094"/>
       <use xlink:href="#DejaVuSans-31" x="190.869141"/>
       <use xlink:href="#DejaVuSans-2d" x="254.492188"/>
       <use xlink:href="#DejaVuSans-31" x="290.576172"/>
       <use xlink:href="#DejaVuSans-30" x="354.199219"/>
      </g>
     </g>
    </g>
    <g id="xtick_9">
     <g id="line2d_9">
      <g>
       <use xlink:href="#mf8d70da1a3" x="1071.47354" y="368.3955" style="stroke: #000000; stroke-width: 0.8"/>
      </g>
     </g>
     <g id="text_9">
      <!-- 2022-01 -->
      <g transform="translate(1050.582134 382.993937)scale(0.1 -0.1)">
       <use xlink:href="#DejaVuSans-32"/>
       <use xlink:href="#DejaVuSans-30" x="63.623047"/>
       <use xlink:href="#DejaVuSans-32" x="127.246094"/>
       <use xlink:href="#DejaVuSans-32" x="190.869141"/>
       <use xlink:href="#DejaVuSans-2d" x="254.492188"/>
       <use xlink:href="#DejaVuSans-30" x="290.576172"/>
       <use xlink:href="#DejaVuSans-31" x="354.199219"/>
      </g>
     </g>
    </g>
    <g id="xtick_10">
     <g id="line2d_10">
      <g>
       <use xlink:href="#mf8d70da1a3" x="1194.725406" y="368.3955" style="stroke: #000000; stroke-width: 0.8"/>
      </g>
     </g>
     <g id="text_10">
      <!-- 2022-04 -->
      <g transform="translate(1173.834 382.993937)scale(0.1 -0.1)">
       <use xlink:href="#DejaVuSans-32"/>
       <use xlink:href="#DejaVuSans-30" x="63.623047"/>
       <use xlink:href="#DejaVuSans-32" x="127.246094"/>
       <use xlink:href="#DejaVuSans-32" x="190.869141"/>
       <use xlink:href="#DejaVuSans-2d" x="254.492188"/>
       <use xlink:href="#DejaVuSans-30" x="290.576172"/>
       <use xlink:href="#DejaVuSans-34" x="354.199219"/>
      </g>
     </g>
    </g>
    <g id="xtick_11">
     <g id="line2d_11">
      <g>
       <use xlink:href="#mf8d70da1a3" x="1319.346738" y="368.3955" style="stroke: #000000; stroke-width: 0.8"/>
      </g>
     </g>
     <g id="text_11">
      <!-- 2022-07 -->
      <g transform="translate(1298.455332 382.993937)scale(0.1 -0.1)">
       <use xlink:href="#DejaVuSans-32"/>
       <use xlink:href="#DejaVuSans-30" x="63.623047"/>
       <use xlink:href="#DejaVuSans-32" x="127.246094"/>
       <use xlink:href="#DejaVuSans-32" x="190.869141"/>
       <use xlink:href="#DejaVuSans-2d" x="254.492188"/>
       <use xlink:href="#DejaVuSans-30" x="290.576172"/>
       <use xlink:href="#DejaVuSans-37" x="354.199219"/>
      </g>
     </g>
    </g>
   </g>
   <g id="matplotlib.axis_2">
    <g id="ytick_1">
     <g id="line2d_12">
      <defs>
       <path id="ma4ed4c0a0d" d="M 0 0 
L -3.5 0 
" style="stroke: #000000; stroke-width: 0.8"/>
      </defs>
      <g>
       <use xlink:href="#ma4ed4c0a0d" x="39.65" y="349.416675" style="stroke: #000000; stroke-width: 0.8"/>
      </g>
     </g>
     <g id="text_12">
      <!-- 0 -->
      <g transform="translate(26.2875 353.215894)scale(0.1 -0.1)">
       <use xlink:href="#DejaVuSans-30"/>
      </g>
     </g>
    </g>
    <g id="ytick_2">
     <g id="line2d_13">
      <g>
       <use xlink:href="#ma4ed4c0a0d" x="39.65" y="282.792891" style="stroke: #000000; stroke-width: 0.8"/>
      </g>
     </g>
     <g id="text_13">
      <!-- 1000 -->
      <g transform="translate(7.2 286.59211)scale(0.1 -0.1)">
       <use xlink:href="#DejaVuSans-31"/>
       <use xlink:href="#DejaVuSans-30" x="63.623047"/>
       <use xlink:href="#DejaVuSans-30" x="127.246094"/>
       <use xlink:href="#DejaVuSans-30" x="190.869141"/>
      </g>
     </g>
    </g>
    <g id="ytick_3">
     <g id="line2d_14">
      <g>
       <use xlink:href="#ma4ed4c0a0d" x="39.65" y="216.169107" style="stroke: #000000; stroke-width: 0.8"/>
      </g>
     </g>
     <g id="text_14">
      <!-- 2000 -->
      <g transform="translate(7.2 219.968326)scale(0.1 -0.1)">
       <use xlink:href="#DejaVuSans-32"/>
       <use xlink:href="#DejaVuSans-30" x="63.623047"/>
       <use xlink:href="#DejaVuSans-30" x="127.246094"/>
       <use xlink:href="#DejaVuSans-30" x="190.869141"/>
      </g>
     </g>
    </g>
    <g id="ytick_4">
     <g id="line2d_15">
      <g>
       <use xlink:href="#ma4ed4c0a0d" x="39.65" y="149.545324" style="stroke: #000000; stroke-width: 0.8"/>
      </g>
     </g>
     <g id="text_15">
      <!-- 3000 -->
      <g transform="translate(7.2 153.344542)scale(0.1 -0.1)">
       <defs>
        <path id="DejaVuSans-33" d="M 2597 2516 
Q 3050 2419 3304 2112 
Q 3559 1806 3559 1356 
Q 3559 666 3084 287 
Q 2609 -91 1734 -91 
Q 1441 -91 1130 -33 
Q 819 25 488 141 
L 488 750 
Q 750 597 1062 519 
Q 1375 441 1716 441 
Q 2309 441 2620 675 
Q 2931 909 2931 1356 
Q 2931 1769 2642 2001 
Q 2353 2234 1838 2234 
L 1294 2234 
L 1294 2753 
L 1863 2753 
Q 2328 2753 2575 2939 
Q 2822 3125 2822 3475 
Q 2822 3834 2567 4026 
Q 2313 4219 1838 4219 
Q 1578 4219 1281 4162 
Q 984 4106 628 3988 
L 628 4550 
Q 988 4650 1302 4700 
Q 1616 4750 1894 4750 
Q 2613 4750 3031 4423 
Q 3450 4097 3450 3541 
Q 3450 3153 3228 2886 
Q 3006 2619 2597 2516 
z
" transform="scale(0.015625)"/>
       </defs>
       <use xlink:href="#DejaVuSans-33"/>
       <use xlink:href="#DejaVuSans-30" x="63.623047"/>
       <use xlink:href="#DejaVuSans-30" x="127.246094"/>
       <use xlink:href="#DejaVuSans-30" x="190.869141"/>
      </g>
     </g>
    </g>
    <g id="ytick_5">
     <g id="line2d_16">
      <g>
       <use xlink:href="#ma4ed4c0a0d" x="39.65" y="82.92154" style="stroke: #000000; stroke-width: 0.8"/>
      </g>
     </g>
     <g id="text_16">
      <!-- 4000 -->
      <g transform="translate(7.2 86.720759)scale(0.1 -0.1)">
       <use xlink:href="#DejaVuSans-34"/>
       <use xlink:href="#DejaVuSans-30" x="63.623047"/>
       <use xlink:href="#DejaVuSans-30" x="127.246094"/>
       <use xlink:href="#DejaVuSans-30" x="190.869141"/>
      </g>
     </g>
    </g>
   </g>
   <g id="line2d_17">
    <path d="M 100.522727 349.416675 
L 175.843312 349.350051 
L 177.212777 348.750437 
L 178.582243 349.15018 
L 184.060103 348.817061 
L 185.429568 349.216803 
L 186.799034 349.216803 
L 188.168499 349.416675 
L 189.537964 348.483942 
L 190.907429 349.416675 
L 192.276894 348.350694 
L 193.64636 348.28407 
L 195.015825 348.683813 
L 196.38529 347.75108 
L 197.754755 349.416675 
L 199.12422 348.084199 
L 200.493685 349.416675 
L 201.863151 348.950308 
L 203.232616 348.150823 
L 204.602081 349.416675 
L 205.971546 349.416675 
L 207.341011 347.084842 
L 208.710477 348.883685 
L 210.079942 348.683813 
L 211.449407 349.350051 
L 212.818872 349.016932 
L 214.188337 348.550566 
L 215.557802 348.550566 
L 216.927268 348.084199 
L 219.666198 348.084199 
L 221.035663 349.083556 
L 222.405128 348.217447 
L 223.774594 348.817061 
L 225.144059 348.217447 
L 226.513524 348.28407 
L 229.252454 347.684456 
L 230.621919 348.28407 
L 231.991385 348.617189 
L 233.36085 348.084199 
L 234.730315 344.020148 
L 236.09978 347.284714 
L 237.469245 344.75301 
L 238.838711 349.416675 
L 240.208176 348.883685 
L 241.577641 347.884328 
L 242.947106 343.287287 
L 244.316571 345.019505 
L 245.686036 344.486515 
L 247.055502 349.416675 
L 248.424967 345.81899 
L 249.794432 347.21809 
L 251.163897 344.22002 
L 252.533362 344.952881 
L 253.902827 344.553139 
L 255.272293 345.685743 
L 256.641758 338.956741 
L 258.011223 349.416675 
L 259.380688 343.886901 
L 260.750153 343.35391 
L 262.119619 342.621049 
L 263.489084 342.487801 
L 264.858549 342.088059 
L 266.228014 344.086772 
L 267.597479 341.688316 
L 268.966944 339.023365 
L 270.33641 342.354554 
L 271.705875 339.889474 
L 273.07534 341.821563 
L 274.444805 337.89076 
L 275.81427 340.555712 
L 277.183736 342.487801 
L 278.553201 341.088702 
L 279.922666 340.688959 
L 281.292131 338.157255 
L 282.661596 339.489731 
L 284.031061 341.421821 
L 285.400527 341.821563 
L 286.769992 340.222593 
L 288.139457 343.420534 
L 289.508922 339.223236 
L 290.878387 340.688959 
L 292.247853 341.088702 
L 293.617318 341.288573 
L 296.356248 345.81899 
L 297.725713 345.485872 
L 299.095178 340.289216 
L 300.464644 341.022078 
L 301.834109 337.224522 
L 303.203574 336.491661 
L 304.573039 336.425037 
L 305.942504 339.156612 
L 307.31197 342.887544 
L 308.681435 342.554425 
L 310.0509 337.024651 
L 311.420365 336.225166 
L 312.78983 340.022721 
L 314.159295 340.222593 
L 315.528761 340.289216 
L 316.898226 341.954811 
L 318.267691 342.754296 
L 321.006621 344.952881 
L 322.376087 341.288573 
L 323.745552 344.886258 
L 325.115017 347.284714 
L 326.484482 348.017575 
L 327.853947 349.416675 
L 329.223412 349.416675 
L 330.592878 321.834428 
L 331.962343 345.485872 
L 333.331808 345.019505 
L 334.701273 345.286 
L 336.070738 346.618476 
L 337.440203 345.419248 
L 338.809669 347.551209 
L 340.179134 347.018219 
L 341.548599 346.085486 
L 342.918064 344.419891 
L 344.287529 344.153396 
L 345.656995 346.751723 
L 347.02646 343.35391 
L 349.76539 343.154039 
L 351.134855 346.285357 
L 352.50432 347.151466 
L 353.873786 347.417961 
L 355.243251 348.550566 
L 356.612716 347.484585 
L 357.982181 345.552495 
L 359.351646 344.153396 
L 360.721112 345.419248 
L 362.090577 348.483942 
L 363.460042 347.351338 
L 364.829507 348.217447 
L 366.198972 346.418605 
L 367.568437 344.419891 
L 368.937903 345.685743 
L 370.307368 346.351981 
L 371.676833 344.020148 
L 373.046298 348.217447 
L 374.415763 347.084842 
L 375.785229 348.750437 
L 377.154694 346.818347 
L 378.524159 346.018862 
L 379.893624 348.350694 
L 381.263089 347.21809 
L 382.632554 346.884971 
L 384.00202 347.417961 
L 385.371485 348.417318 
L 386.74095 348.084199 
L 388.110415 348.350694 
L 389.47988 346.418605 
L 390.849346 348.817061 
L 392.218811 348.150823 
L 393.588276 348.617189 
L 394.957741 346.152109 
L 396.327206 348.017575 
L 397.696671 349.216803 
L 399.066137 344.153396 
L 400.435602 348.550566 
L 401.805067 346.884971 
L 403.174532 345.952238 
L 404.543997 348.950308 
L 405.913463 348.750437 
L 407.282928 348.683813 
L 408.652393 347.817704 
L 410.021858 347.484585 
L 411.391323 347.284714 
L 412.760788 347.884328 
L 414.130254 345.485872 
L 415.499719 347.284714 
L 416.869184 348.150823 
L 418.238649 348.217447 
L 419.608114 347.817704 
L 420.97758 349.083556 
L 422.347045 349.416675 
L 423.71651 348.683813 
L 425.085975 348.550566 
L 426.45544 347.551209 
L 427.824905 348.483942 
L 429.194371 347.284714 
L 430.563836 347.617833 
L 431.933301 349.15018 
L 433.302766 349.15018 
L 434.672231 348.483942 
L 437.411162 347.884328 
L 438.780627 348.417318 
L 440.150092 348.150823 
L 441.519557 348.617189 
L 442.889022 348.950308 
L 444.258488 347.551209 
L 445.627953 347.684456 
L 446.997418 346.485228 
L 448.366883 347.884328 
L 449.736348 348.883685 
L 451.105813 348.217447 
L 452.475279 348.683813 
L 455.214209 348.217447 
L 456.583674 348.550566 
L 457.953139 349.016932 
L 459.322605 348.750437 
L 460.69207 348.28407 
L 462.061535 349.15018 
L 463.431 345.219376 
L 464.800465 349.416675 
L 466.16993 345.152753 
L 467.539396 349.350051 
L 468.908861 349.016932 
L 470.278326 346.351981 
L 471.647791 348.483942 
L 473.017256 349.416675 
L 474.386722 347.351338 
L 475.756187 347.75108 
L 477.125652 348.017575 
L 478.495117 349.416675 
L 479.864582 347.351338 
L 481.234047 348.28407 
L 482.603513 348.084199 
L 483.972978 349.416675 
L 485.342443 343.087415 
L 486.711908 349.416675 
L 488.081373 344.952881 
L 489.450839 347.950952 
L 490.820304 347.284714 
L 492.189769 347.884328 
L 493.559234 349.416675 
L 494.928699 344.952881 
L 496.298164 347.21809 
L 497.66763 346.6851 
L 499.037095 348.28407 
L 500.40656 347.151466 
L 501.776025 348.483942 
L 503.14549 347.018219 
L 504.514956 349.416675 
L 505.884421 344.886258 
L 507.253886 349.416675 
L 508.623351 344.153396 
L 509.992816 347.617833 
L 511.362281 345.952238 
L 512.731747 343.420534 
L 514.101212 341.355197 
L 515.470677 346.018862 
L 516.840142 349.416675 
L 518.209607 342.887544 
L 519.579073 347.284714 
L 520.948538 345.752367 
L 522.318003 342.421178 
L 523.687468 349.416675 
L 525.056933 340.222593 
L 526.426398 343.154039 
L 527.795864 344.75301 
L 529.165329 343.620406 
L 530.534794 340.88883 
L 531.904259 339.756226 
L 533.273724 339.489731 
L 536.012655 341.821563 
L 537.38212 344.886258 
L 538.751585 339.089988 
L 540.12105 343.220663 
L 541.490515 339.156612 
L 542.859981 337.957384 
L 544.229446 337.89076 
L 545.598911 341.488445 
L 546.968376 345.952238 
L 548.337841 343.820277 
L 549.707306 327.230955 
L 551.076772 338.823493 
L 552.446237 349.416675 
L 553.815702 328.896549 
L 555.185167 342.887544 
L 556.554632 337.824136 
L 557.924098 340.022721 
L 559.293563 334.159828 
L 560.663028 333.227095 
L 562.032493 336.758156 
L 563.401958 330.029154 
L 564.771423 344.353267 
L 566.140889 344.22002 
L 567.510354 331.761372 
L 568.879819 336.491661 
L 570.249284 330.628768 
L 571.618749 336.691532 
L 574.35768 342.487801 
L 575.727145 346.018862 
L 577.09661 343.087415 
L 578.466075 333.49359 
L 579.83554 332.694105 
L 581.205006 334.026581 
L 582.574471 336.758156 
L 583.943936 330.961887 
L 585.313401 345.419248 
L 586.682866 335.359056 
L 588.052332 329.696035 
L 589.421797 317.703754 
L 590.791262 344.286643 
L 592.160727 340.289216 
L 593.530192 335.092561 
L 594.899657 339.28986 
L 596.269123 344.086772 
L 597.638588 338.623622 
L 599.008053 343.020792 
L 600.377518 336.158542 
L 601.746983 341.688316 
L 603.116449 339.023365 
L 604.485914 343.753653 
L 605.855379 343.154039 
L 607.224844 340.755583 
L 608.594309 339.82285 
L 609.963774 340.555712 
L 612.702705 338.290503 
L 614.07217 344.686386 
L 615.441635 336.025294 
L 616.8111 340.155969 
L 618.180565 346.751723 
L 619.550031 339.489731 
L 620.919496 341.821563 
L 622.288961 341.821563 
L 623.658426 344.619762 
L 625.027891 342.754296 
L 627.766822 340.35584 
L 629.136287 341.022078 
L 630.505752 343.553782 
L 631.875217 345.752367 
L 633.244682 343.35391 
L 634.614148 346.951595 
L 635.983613 337.491018 
L 637.353078 336.624908 
L 638.722543 338.090632 
L 640.092008 341.688316 
L 641.461474 349.416675 
L 642.830939 345.152753 
L 644.200404 349.416675 
L 646.939334 349.416675 
L 648.308799 312.973465 
L 649.678265 342.687673 
L 651.04773 341.355197 
L 652.417195 346.152109 
L 653.78666 343.553782 
L 655.156125 336.291789 
L 656.525591 343.220663 
L 657.895056 349.416675 
L 659.264521 340.822207 
L 660.633986 344.619762 
L 662.003451 343.687029 
L 663.372916 345.619119 
L 664.742382 345.81899 
L 666.111847 348.017575 
L 667.481312 343.620406 
L 668.850777 343.287287 
L 670.220242 344.353267 
L 671.589708 345.219376 
L 672.959173 347.884328 
L 674.328638 339.28986 
L 675.698103 346.884971 
L 677.067568 345.019505 
L 678.437033 341.954811 
L 679.806499 343.753653 
L 681.175964 348.150823 
L 682.545429 348.883685 
L 683.914894 344.086772 
L 685.284359 344.819634 
L 686.653825 345.086129 
L 688.02329 343.220663 
L 689.392755 346.551852 
L 690.76222 343.953525 
L 692.131685 345.152753 
L 693.50115 345.019505 
L 694.870616 345.619119 
L 696.240081 348.217447 
L 697.609546 344.419891 
L 698.979011 347.21809 
L 700.348476 347.484585 
L 701.717942 347.884328 
L 703.087407 347.21809 
L 704.456872 345.152753 
L 705.826337 346.951595 
L 707.195802 347.351338 
L 708.565267 349.416675 
L 709.934733 349.416675 
L 711.304198 341.221949 
L 712.673663 346.152109 
L 714.043128 345.752367 
L 715.412593 343.420534 
L 716.782058 347.084842 
L 718.151524 345.286 
L 719.520989 349.416675 
L 720.890454 340.88883 
L 722.259919 339.489731 
L 723.629384 341.621692 
L 724.99885 345.752367 
L 726.368315 343.220663 
L 727.73778 344.22002 
L 729.107245 347.084842 
L 730.47671 343.420534 
L 733.215641 346.485228 
L 734.585106 346.6851 
L 737.324036 345.352624 
L 738.693501 346.818347 
L 740.062967 344.952881 
L 741.432432 345.485872 
L 742.801897 344.686386 
L 744.171362 346.818347 
L 745.540827 346.418605 
L 746.910292 346.884971 
L 748.279758 347.617833 
L 749.649223 346.618476 
L 751.018688 346.951595 
L 752.388153 346.152109 
L 753.757618 347.21809 
L 755.127084 347.084842 
L 756.496549 348.350694 
L 757.866014 346.285357 
L 759.235479 348.683813 
L 760.604944 343.553782 
L 761.974409 346.152109 
L 763.343875 344.886258 
L 764.71334 346.884971 
L 766.082805 349.416675 
L 767.45227 349.416675 
L 768.821735 328.829926 
L 770.191201 344.353267 
L 771.560666 347.351338 
L 772.930131 342.28793 
L 774.299596 347.417961 
L 775.669061 340.022721 
L 777.038526 343.154039 
L 778.407992 349.416675 
L 779.777457 330.562144 
L 781.146922 333.227095 
L 782.516387 324.899122 
L 783.885852 332.694105 
L 785.255318 322.367419 
L 786.624783 340.35584 
L 787.994248 333.49359 
L 789.363713 324.166261 
L 790.733178 328.763302 
L 792.102643 320.835072 
L 793.472109 332.494234 
L 794.841574 330.828639 
L 796.211039 320.10221 
L 797.580504 332.760729 
L 800.319435 325.698608 
L 801.6889 324.166261 
L 803.058365 311.974108 
L 804.42783 330.095778 
L 805.797295 341.621692 
L 807.16676 322.500666 
L 808.536226 334.559571 
L 809.905691 323.899766 
L 811.275156 318.836358 
L 812.644621 325.232241 
L 814.014086 316.371278 
L 815.383551 337.091275 
L 816.753017 322.967033 
L 818.122482 349.416675 
L 819.491947 314.972179 
L 820.861412 321.567933 
L 822.230877 336.891403 
L 823.600343 334.626195 
L 824.969808 320.368705 
L 826.339273 331.89462 
L 827.708738 340.155969 
L 829.078203 328.496807 
L 830.447668 325.365489 
L 831.817134 331.02851 
L 833.186599 338.157255 
L 834.556064 336.558285 
L 835.925529 337.424394 
L 837.294994 322.967033 
L 838.66446 329.296292 
L 840.033925 335.092561 
L 841.40339 349.416675 
L 842.772855 310.575009 
L 844.14232 326.298222 
L 845.511785 324.832499 
L 846.881251 340.022721 
L 848.250716 328.896549 
L 849.620181 334.093205 
L 850.989646 323.966389 
L 852.359111 326.631341 
L 853.728577 324.432756 
L 855.098042 331.761372 
L 856.467507 335.95867 
L 857.836972 330.695392 
L 859.206437 328.696678 
L 860.575902 325.765232 
L 861.945368 349.416675 
L 863.314833 331.02851 
L 864.684298 327.031083 
L 866.053763 331.827996 
L 867.423228 332.42761 
L 868.792694 335.692175 
L 870.162159 331.494877 
L 871.531624 325.03237 
L 872.901089 343.020792 
L 874.270554 328.963173 
L 875.640019 340.089345 
L 877.009485 349.416675 
L 878.37895 313.506455 
L 879.748415 338.42375 
L 881.11788 341.555068 
L 882.487345 343.287287 
L 883.856811 339.089988 
L 885.226276 341.488445 
L 886.595741 340.289216 
L 887.965206 339.956098 
L 889.334671 349.416675 
L 890.704136 342.088059 
L 892.073602 349.416675 
L 893.443067 349.416675 
L 894.812532 340.88883 
L 896.181997 343.487158 
L 897.551462 330.628768 
L 898.920927 349.416675 
L 900.290393 349.416675 
L 901.659858 325.765232 
L 903.029323 349.416675 
L 904.398788 330.562144 
L 905.768253 349.416675 
L 907.137719 338.690246 
L 908.507184 349.416675 
L 911.246114 349.416675 
L 912.615579 311.441118 
L 913.985044 349.416675 
L 915.35451 335.558928 
L 916.723975 348.683813 
L 918.09344 349.416675 
L 919.462905 349.416675 
L 920.83237 341.488445 
L 922.201836 349.416675 
L 923.571301 342.28793 
L 924.940766 347.084842 
L 926.310231 347.417961 
L 927.679696 349.416675 
L 929.049161 349.416675 
L 930.418627 344.353267 
L 931.788092 349.416675 
L 934.527022 349.416675 
L 935.896487 339.156612 
L 937.265953 349.416675 
L 938.635418 349.416675 
L 940.004883 333.093848 
L 941.374348 349.416675 
L 942.743813 349.416675 
L 944.113278 344.419891 
L 945.482744 345.419248 
L 946.852209 349.416675 
L 948.221674 349.416675 
L 949.591139 346.951595 
L 950.960604 349.416675 
L 952.33007 346.152109 
L 953.699535 349.416675 
L 955.069 346.551852 
L 956.438465 349.416675 
L 957.80793 349.016932 
L 959.177395 341.75494 
L 960.546861 349.416675 
L 961.916326 347.950952 
L 963.285791 349.416675 
L 967.394187 349.416675 
L 968.763652 344.819634 
L 970.133117 349.416675 
L 971.502582 345.152753 
L 972.872047 349.416675 
L 974.241512 347.417961 
L 975.610978 349.416675 
L 976.980443 349.416675 
L 978.349908 348.017575 
L 979.719373 349.416675 
L 981.088838 348.28407 
L 982.458304 349.416675 
L 986.566699 349.416675 
L 987.936164 343.087415 
L 989.305629 349.416675 
L 990.675095 348.28407 
L 992.04456 349.083556 
L 993.414025 348.217447 
L 994.78349 349.416675 
L 996.152955 349.416675 
L 997.52242 347.21809 
L 998.891886 349.416675 
L 1000.261351 347.817704 
L 1001.630816 349.416675 
L 1003.000281 344.952881 
L 1004.369746 349.416675 
L 1005.739212 349.416675 
L 1007.108677 344.486515 
L 1008.478142 349.416675 
L 1011.217072 349.416675 
L 1012.586537 344.286643 
L 1013.956003 349.416675 
L 1015.325468 349.416675 
L 1016.694933 342.954168 
L 1018.064398 345.952238 
L 1019.433863 347.351338 
L 1020.803329 349.416675 
L 1022.172794 345.752367 
L 1023.542259 349.416675 
L 1024.911724 349.416675 
L 1026.281189 341.488445 
L 1027.650654 349.416675 
L 1029.02012 344.619762 
L 1030.389585 348.550566 
L 1031.75905 349.416675 
L 1034.49798 349.416675 
L 1035.867446 313.506455 
L 1037.236911 328.296935 
L 1038.606376 349.416675 
L 1039.975841 347.21809 
L 1041.345306 306.577582 
L 1042.714771 349.416675 
L 1046.823167 349.416675 
L 1048.192632 210.772581 
L 1049.562097 252.412446 
L 1050.931563 278.795464 
L 1052.301028 349.416675 
L 1053.670493 349.416675 
L 1055.039958 159.538891 
L 1056.409423 349.416675 
L 1057.778888 349.416675 
L 1059.148354 165.468408 
L 1060.517819 349.416675 
L 1063.256749 349.416675 
L 1064.626214 196.84821 
L 1065.99568 349.416675 
L 1067.365145 186.588147 
L 1068.73461 349.416675 
L 1074.212471 349.416675 
L 1075.581936 50.8755 
L 1076.951401 304.911987 
L 1078.320866 333.893333 
L 1079.690331 349.416675 
L 1082.429262 349.416675 
L 1083.798727 294.585301 
L 1085.168192 301.380927 
L 1086.537657 349.416675 
L 1087.907122 349.416675 
L 1089.276588 310.308514 
L 1090.646053 349.416675 
L 1092.015518 349.416675 
L 1093.384983 304.245749 
L 1094.754448 349.416675 
L 1096.123913 349.416675 
L 1097.493379 268.535401 
L 1098.862844 343.753653 
L 1100.232309 349.416675 
L 1101.601774 349.416675 
L 1102.971239 333.693462 
L 1104.340705 333.360343 
L 1105.71017 341.621692 
L 1107.079635 346.152109 
L 1108.4491 344.619762 
L 1109.818565 349.416675 
L 1111.18803 349.416675 
L 1112.557496 324.033013 
L 1113.926961 349.416675 
L 1115.296426 340.688959 
L 1116.665891 349.416675 
L 1120.774287 349.416675 
L 1122.143752 337.690889 
L 1123.513217 349.416675 
L 1124.882682 347.950952 
L 1126.252147 347.084842 
L 1127.621613 347.21809 
L 1128.991078 349.416675 
L 1130.360543 349.416675 
L 1131.730008 348.28407 
L 1133.099473 349.416675 
L 1134.468939 347.484585 
L 1135.838404 348.617189 
L 1137.207869 349.416675 
L 1139.946799 349.416675 
L 1141.316264 346.618476 
L 1142.68573 349.416675 
L 1144.055195 349.416675 
L 1145.42466 345.286 
L 1146.794125 345.352624 
L 1148.16359 349.416675 
L 1149.533056 349.416675 
L 1150.902521 348.150823 
L 1152.271986 348.017575 
L 1153.641451 349.416675 
L 1155.010916 342.82092 
L 1156.380381 348.350694 
L 1157.749847 349.416675 
L 1161.858242 349.416675 
L 1163.227707 341.621692 
L 1164.597173 348.150823 
L 1165.966638 347.75108 
L 1167.336103 349.416675 
L 1168.705568 349.416675 
L 1170.075033 347.484585 
L 1171.444498 347.351338 
L 1172.813964 346.018862 
L 1174.183429 347.084842 
L 1175.552894 349.416675 
L 1179.661289 349.416675 
L 1181.030755 346.218733 
L 1182.40022 344.353267 
L 1183.769685 348.550566 
L 1185.13915 348.550566 
L 1186.508615 349.416675 
L 1187.878081 349.416675 
L 1189.247546 348.28407 
L 1190.617011 343.620406 
L 1191.986476 347.21809 
L 1193.355941 349.416675 
L 1211.158989 349.416675 
L 1212.528454 331.095134 
L 1213.897919 349.416675 
L 1254.981874 349.416675 
L 1256.35134 308.776167 
L 1257.720805 349.416675 
L 1267.307061 349.416675 
L 1268.676526 322.56729 
L 1270.045991 349.416675 
L 1274.154387 349.416675 
L 1275.523852 326.897836 
L 1276.893317 349.416675 
L 1278.262782 349.416675 
L 1279.632248 295.118291 
L 1281.001713 349.416675 
L 1289.218504 349.416675 
L 1290.587969 299.915204 
L 1291.957434 349.416675 
L 1298.80476 349.416675 
L 1298.80476 349.416675 
" clip-path="url(#p323bf1aae4)" style="fill: none; stroke: #0000ff; stroke-width: 1.5; stroke-linecap: square"/>
   </g>
   <g id="line2d_18">
    <path d="M 1059.148354 288.471245 
L 1060.517819 312.198238 
L 1061.887284 294.426209 
L 1063.256749 290.890712 
L 1064.626214 279.270607 
L 1065.99568 300.625664 
L 1067.365145 304.232614 
L 1068.73461 297.938403 
L 1070.104075 309.140991 
L 1071.47354 287.972634 
L 1072.843005 296.208675 
L 1074.212471 271.668923 
L 1075.581936 300.064962 
L 1076.951401 321.776557 
L 1078.320866 329.906051 
L 1079.690331 308.761617 
L 1081.059797 305.913792 
L 1082.429262 276.300223 
L 1083.798727 286.452022 
L 1085.168192 270.891981 
L 1086.537657 305.200131 
L 1087.907122 309.793704 
L 1089.276588 315.547344 
L 1090.646053 319.101133 
L 1092.015518 321.18327 
L 1093.384983 318.15391 
L 1094.754448 326.457272 
L 1096.123913 327.757409 
L 1097.493379 328.765448 
L 1098.862844 335.528418 
L 1100.232309 333.039148 
L 1101.601774 329.778014 
L 1102.971239 326.169305 
L 1104.340705 325.712286 
L 1105.71017 331.020831 
L 1107.079635 325.155795 
L 1108.4491 333.38861 
L 1109.818565 335.083456 
L 1111.18803 335.879599 
L 1112.557496 335.701418 
L 1113.926961 340.710436 
L 1115.296426 341.072538 
L 1116.665891 341.787939 
L 1118.035356 341.992356 
L 1119.404822 340.314289 
L 1120.774287 342.054326 
L 1122.143752 339.934498 
L 1123.513217 344.791855 
L 1124.882682 344.379342 
L 1126.252147 345.349102 
L 1127.621613 346.033423 
L 1128.991078 345.636132 
L 1130.360543 346.031876 
L 1131.730008 345.134881 
L 1133.099473 346.57875 
L 1134.468939 346.709207 
L 1135.838404 347.283187 
L 1138.577334 347.960036 
L 1139.946799 348.14567 
L 1141.316264 348.05969 
L 1142.68573 348.608732 
L 1144.055195 348.457322 
L 1145.42466 348.471702 
L 1146.794125 349.029595 
L 1148.16359 348.985892 
L 1150.902521 347.957808 
L 1152.271986 347.9516 
L 1153.641451 347.829526 
L 1155.010916 347.55188 
L 1156.380381 348.269268 
L 1157.749847 348.424342 
L 1159.119312 347.88809 
L 1160.488777 347.79996 
L 1161.858242 347.298838 
L 1165.966638 348.506169 
L 1167.336103 348.243431 
L 1168.705568 348.113331 
L 1170.075033 347.278316 
L 1171.444498 347.75136 
L 1172.813964 347.176238 
L 1174.183429 348.10516 
L 1175.552894 348.133154 
L 1179.661289 347.432053 
L 1181.030755 347.481685 
L 1182.40022 347.986163 
L 1183.769685 348.6197 
L 1185.13915 348.545198 
L 1186.508615 348.291225 
L 1189.247546 347.536049 
L 1190.617011 347.569257 
L 1193.355941 348.417478 
L 1194.725406 347.997812 
L 1196.094872 347.88714 
L 1197.464337 347.484569 
L 1198.833802 347.54593 
L 1200.203267 347.399659 
L 1201.572732 348.001977 
L 1202.942198 348.474171 
L 1205.681128 348.905273 
L 1208.420058 349.172918 
L 1212.528454 349.287483 
L 1213.897919 351.05405 
L 1215.267384 349.835416 
L 1216.636849 348.192431 
L 1218.006315 347.851072 
L 1219.37578 345.957575 
L 1220.745245 346.617334 
L 1222.11471 345.253371 
L 1223.484175 347.402901 
L 1226.223106 348.335721 
L 1227.592571 348.601442 
L 1228.962036 348.984007 
L 1234.439897 349.231098 
L 1244.026153 349.374488 
L 1256.35134 349.410394 
L 1257.720805 353.2755 
L 1259.09027 350.529086 
L 1260.459735 346.849634 
L 1261.8292 346.064103 
L 1263.198666 341.841052 
L 1264.568131 343.285962 
L 1265.937596 340.245427 
L 1267.307061 345.001323 
L 1268.676526 346.051724 
L 1270.045991 349.605406 
L 1271.415457 348.373307 
L 1272.784922 346.785325 
L 1274.154387 346.444774 
L 1275.523852 343.799176 
L 1276.893317 347.011595 
L 1278.262782 343.575087 
L 1279.632248 344.754408 
L 1281.001713 350.237111 
L 1282.371178 344.93757 
L 1283.740643 341.246628 
L 1285.110108 339.101329 
L 1286.479574 336.238162 
L 1287.849039 338.867113 
L 1289.218504 335.453619 
L 1291.957434 348.845885 
L 1293.326899 346.985873 
L 1294.696365 343.402722 
L 1296.06583 343.669571 
L 1297.435295 338.84305 
L 1298.80476 340.859773 
L 1298.80476 340.859773 
" clip-path="url(#p323bf1aae4)" style="fill: none; stroke: #ffa500; stroke-width: 1.5; stroke-linecap: square"/>
   </g>
   <g id="line2d_19">
    <path d="M 1300.174225 337.364103 
L 1301.543691 344.471008 
L 1302.913156 345.541954 
L 1304.282621 345.813924 
L 1305.652086 346.01272 
L 1307.021551 345.493089 
L 1308.391016 345.425411 
L 1309.760482 344.256502 
L 1311.129947 345.040628 
L 1312.499412 345.191447 
L 1313.868877 345.192969 
L 1315.238342 345.194991 
L 1316.607808 345.141011 
L 1317.977273 345.137686 
" clip-path="url(#p323bf1aae4)" style="fill: none; stroke: #ff0000; stroke-width: 1.5; stroke-linecap: square"/>
   </g>
   <g id="patch_3">
    <path d="M 39.65 368.3955 
L 39.65 35.7555 
" style="fill: none; stroke: #000000; stroke-width: 0.8; stroke-linejoin: miter; stroke-linecap: square"/>
   </g>
   <g id="patch_4">
    <path d="M 1378.85 368.3955 
L 1378.85 35.7555 
" style="fill: none; stroke: #000000; stroke-width: 0.8; stroke-linejoin: miter; stroke-linecap: square"/>
   </g>
   <g id="patch_5">
    <path d="M 39.65 368.3955 
L 1378.85 368.3955 
" style="fill: none; stroke: #000000; stroke-width: 0.8; stroke-linejoin: miter; stroke-linecap: square"/>
   </g>
   <g id="patch_6">
    <path d="M 39.65 35.7555 
L 1378.85 35.7555 
" style="fill: none; stroke: #000000; stroke-width: 0.8; stroke-linejoin: miter; stroke-linecap: square"/>
   </g>
   <g id="text_17">
    <!-- Daily Confirmed Cases Forecasting - Congo (Kinshasa) -->
    <g transform="translate(546.205625 16.318125)scale(0.12 -0.12)">
     <defs>
      <path id="DejaVuSans-44" d="M 1259 4147 
L 1259 519 
L 2022 519 
Q 2988 519 3436 956 
Q 3884 1394 3884 2338 
Q 3884 3275 3436 3711 
Q 2988 4147 2022 4147 
L 1259 4147 
z
M 628 4666 
L 1925 4666 
Q 3281 4666 3915 4102 
Q 4550 3538 4550 2338 
Q 4550 1131 3912 565 
Q 3275 0 1925 0 
L 628 0 
L 628 4666 
z
" transform="scale(0.015625)"/>
      <path id="DejaVuSans-61" d="M 2194 1759 
Q 1497 1759 1228 1600 
Q 959 1441 959 1056 
Q 959 750 1161 570 
Q 1363 391 1709 391 
Q 2188 391 2477 730 
Q 2766 1069 2766 1631 
L 2766 1759 
L 2194 1759 
z
M 3341 1997 
L 3341 0 
L 2766 0 
L 2766 531 
Q 2569 213 2275 61 
Q 1981 -91 1556 -91 
Q 1019 -91 701 211 
Q 384 513 384 1019 
Q 384 1609 779 1909 
Q 1175 2209 1959 2209 
L 2766 2209 
L 2766 2266 
Q 2766 2663 2505 2880 
Q 2244 3097 1772 3097 
Q 1472 3097 1187 3025 
Q 903 2953 641 2809 
L 641 3341 
Q 956 3463 1253 3523 
Q 1550 3584 1831 3584 
Q 2591 3584 2966 3190 
Q 3341 2797 3341 1997 
z
" transform="scale(0.015625)"/>
      <path id="DejaVuSans-69" d="M 603 3500 
L 1178 3500 
L 1178 0 
L 603 0 
L 603 3500 
z
M 603 4863 
L 1178 4863 
L 1178 4134 
L 603 4134 
L 603 4863 
z
" transform="scale(0.015625)"/>
      <path id="DejaVuSans-6c" d="M 603 4863 
L 1178 4863 
L 1178 0 
L 603 0 
L 603 4863 
z
" transform="scale(0.015625)"/>
      <path id="DejaVuSans-79" d="M 2059 -325 
Q 1816 -950 1584 -1140 
Q 1353 -1331 966 -1331 
L 506 -1331 
L 506 -850 
L 844 -850 
Q 1081 -850 1212 -737 
Q 1344 -625 1503 -206 
L 1606 56 
L 191 3500 
L 800 3500 
L 1894 763 
L 2988 3500 
L 3597 3500 
L 2059 -325 
z
" transform="scale(0.015625)"/>
      <path id="DejaVuSans-20" transform="scale(0.015625)"/>
      <path id="DejaVuSans-43" d="M 4122 4306 
L 4122 3641 
Q 3803 3938 3442 4084 
Q 3081 4231 2675 4231 
Q 1875 4231 1450 3742 
Q 1025 3253 1025 2328 
Q 1025 1406 1450 917 
Q 1875 428 2675 428 
Q 3081 428 3442 575 
Q 3803 722 4122 1019 
L 4122 359 
Q 3791 134 3420 21 
Q 3050 -91 2638 -91 
Q 1578 -91 968 557 
Q 359 1206 359 2328 
Q 359 3453 968 4101 
Q 1578 4750 2638 4750 
Q 3056 4750 3426 4639 
Q 3797 4528 4122 4306 
z
" transform="scale(0.015625)"/>
      <path id="DejaVuSans-6f" d="M 1959 3097 
Q 1497 3097 1228 2736 
Q 959 2375 959 1747 
Q 959 1119 1226 758 
Q 1494 397 1959 397 
Q 2419 397 2687 759 
Q 2956 1122 2956 1747 
Q 2956 2369 2687 2733 
Q 2419 3097 1959 3097 
z
M 1959 3584 
Q 2709 3584 3137 3096 
Q 3566 2609 3566 1747 
Q 3566 888 3137 398 
Q 2709 -91 1959 -91 
Q 1206 -91 779 398 
Q 353 888 353 1747 
Q 353 2609 779 3096 
Q 1206 3584 1959 3584 
z
" transform="scale(0.015625)"/>
      <path id="DejaVuSans-6e" d="M 3513 2113 
L 3513 0 
L 2938 0 
L 2938 2094 
Q 2938 2591 2744 2837 
Q 2550 3084 2163 3084 
Q 1697 3084 1428 2787 
Q 1159 2491 1159 1978 
L 1159 0 
L 581 0 
L 581 3500 
L 1159 3500 
L 1159 2956 
Q 1366 3272 1645 3428 
Q 1925 3584 2291 3584 
Q 2894 3584 3203 3211 
Q 3513 2838 3513 2113 
z
" transform="scale(0.015625)"/>
      <path id="DejaVuSans-66" d="M 2375 4863 
L 2375 4384 
L 1825 4384 
Q 1516 4384 1395 4259 
Q 1275 4134 1275 3809 
L 1275 3500 
L 2222 3500 
L 2222 3053 
L 1275 3053 
L 1275 0 
L 697 0 
L 697 3053 
L 147 3053 
L 147 3500 
L 697 3500 
L 697 3744 
Q 697 4328 969 4595 
Q 1241 4863 1831 4863 
L 2375 4863 
z
" transform="scale(0.015625)"/>
      <path id="DejaVuSans-72" d="M 2631 2963 
Q 2534 3019 2420 3045 
Q 2306 3072 2169 3072 
Q 1681 3072 1420 2755 
Q 1159 2438 1159 1844 
L 1159 0 
L 581 0 
L 581 3500 
L 1159 3500 
L 1159 2956 
Q 1341 3275 1631 3429 
Q 1922 3584 2338 3584 
Q 2397 3584 2469 3576 
Q 2541 3569 2628 3553 
L 2631 2963 
z
" transform="scale(0.015625)"/>
      <path id="DejaVuSans-6d" d="M 3328 2828 
Q 3544 3216 3844 3400 
Q 4144 3584 4550 3584 
Q 5097 3584 5394 3201 
Q 5691 2819 5691 2113 
L 5691 0 
L 5113 0 
L 5113 2094 
Q 5113 2597 4934 2840 
Q 4756 3084 4391 3084 
Q 3944 3084 3684 2787 
Q 3425 2491 3425 1978 
L 3425 0 
L 2847 0 
L 2847 2094 
Q 2847 2600 2669 2842 
Q 2491 3084 2119 3084 
Q 1678 3084 1418 2786 
Q 1159 2488 1159 1978 
L 1159 0 
L 581 0 
L 581 3500 
L 1159 3500 
L 1159 2956 
Q 1356 3278 1631 3431 
Q 1906 3584 2284 3584 
Q 2666 3584 2933 3390 
Q 3200 3197 3328 2828 
z
" transform="scale(0.015625)"/>
      <path id="DejaVuSans-65" d="M 3597 1894 
L 3597 1613 
L 953 1613 
Q 991 1019 1311 708 
Q 1631 397 2203 397 
Q 2534 397 2845 478 
Q 3156 559 3463 722 
L 3463 178 
Q 3153 47 2828 -22 
Q 2503 -91 2169 -91 
Q 1331 -91 842 396 
Q 353 884 353 1716 
Q 353 2575 817 3079 
Q 1281 3584 2069 3584 
Q 2775 3584 3186 3129 
Q 3597 2675 3597 1894 
z
M 3022 2063 
Q 3016 2534 2758 2815 
Q 2500 3097 2075 3097 
Q 1594 3097 1305 2825 
Q 1016 2553 972 2059 
L 3022 2063 
z
" transform="scale(0.015625)"/>
      <path id="DejaVuSans-64" d="M 2906 2969 
L 2906 4863 
L 3481 4863 
L 3481 0 
L 2906 0 
L 2906 525 
Q 2725 213 2448 61 
Q 2172 -91 1784 -91 
Q 1150 -91 751 415 
Q 353 922 353 1747 
Q 353 2572 751 3078 
Q 1150 3584 1784 3584 
Q 2172 3584 2448 3432 
Q 2725 3281 2906 2969 
z
M 947 1747 
Q 947 1113 1208 752 
Q 1469 391 1925 391 
Q 2381 391 2643 752 
Q 2906 1113 2906 1747 
Q 2906 2381 2643 2742 
Q 2381 3103 1925 3103 
Q 1469 3103 1208 2742 
Q 947 2381 947 1747 
z
" transform="scale(0.015625)"/>
      <path id="DejaVuSans-73" d="M 2834 3397 
L 2834 2853 
Q 2591 2978 2328 3040 
Q 2066 3103 1784 3103 
Q 1356 3103 1142 2972 
Q 928 2841 928 2578 
Q 928 2378 1081 2264 
Q 1234 2150 1697 2047 
L 1894 2003 
Q 2506 1872 2764 1633 
Q 3022 1394 3022 966 
Q 3022 478 2636 193 
Q 2250 -91 1575 -91 
Q 1294 -91 989 -36 
Q 684 19 347 128 
L 347 722 
Q 666 556 975 473 
Q 1284 391 1588 391 
Q 1994 391 2212 530 
Q 2431 669 2431 922 
Q 2431 1156 2273 1281 
Q 2116 1406 1581 1522 
L 1381 1569 
Q 847 1681 609 1914 
Q 372 2147 372 2553 
Q 372 3047 722 3315 
Q 1072 3584 1716 3584 
Q 2034 3584 2315 3537 
Q 2597 3491 2834 3397 
z
" transform="scale(0.015625)"/>
      <path id="DejaVuSans-46" d="M 628 4666 
L 3309 4666 
L 3309 4134 
L 1259 4134 
L 1259 2759 
L 3109 2759 
L 3109 2228 
L 1259 2228 
L 1259 0 
L 628 0 
L 628 4666 
z
" transform="scale(0.015625)"/>
      <path id="DejaVuSans-63" d="M 3122 3366 
L 3122 2828 
Q 2878 2963 2633 3030 
Q 2388 3097 2138 3097 
Q 1578 3097 1268 2742 
Q 959 2388 959 1747 
Q 959 1106 1268 751 
Q 1578 397 2138 397 
Q 2388 397 2633 464 
Q 2878 531 3122 666 
L 3122 134 
Q 2881 22 2623 -34 
Q 2366 -91 2075 -91 
Q 1284 -91 818 406 
Q 353 903 353 1747 
Q 353 2603 823 3093 
Q 1294 3584 2113 3584 
Q 2378 3584 2631 3529 
Q 2884 3475 3122 3366 
z
" transform="scale(0.015625)"/>
      <path id="DejaVuSans-74" d="M 1172 4494 
L 1172 3500 
L 2356 3500 
L 2356 3053 
L 1172 3053 
L 1172 1153 
Q 1172 725 1289 603 
Q 1406 481 1766 481 
L 2356 481 
L 2356 0 
L 1766 0 
Q 1100 0 847 248 
Q 594 497 594 1153 
L 594 3053 
L 172 3053 
L 172 3500 
L 594 3500 
L 594 4494 
L 1172 4494 
z
" transform="scale(0.015625)"/>
      <path id="DejaVuSans-67" d="M 2906 1791 
Q 2906 2416 2648 2759 
Q 2391 3103 1925 3103 
Q 1463 3103 1205 2759 
Q 947 2416 947 1791 
Q 947 1169 1205 825 
Q 1463 481 1925 481 
Q 2391 481 2648 825 
Q 2906 1169 2906 1791 
z
M 3481 434 
Q 3481 -459 3084 -895 
Q 2688 -1331 1869 -1331 
Q 1566 -1331 1297 -1286 
Q 1028 -1241 775 -1147 
L 775 -588 
Q 1028 -725 1275 -790 
Q 1522 -856 1778 -856 
Q 2344 -856 2625 -561 
Q 2906 -266 2906 331 
L 2906 616 
Q 2728 306 2450 153 
Q 2172 0 1784 0 
Q 1141 0 747 490 
Q 353 981 353 1791 
Q 353 2603 747 3093 
Q 1141 3584 1784 3584 
Q 2172 3584 2450 3431 
Q 2728 3278 2906 2969 
L 2906 3500 
L 3481 3500 
L 3481 434 
z
" transform="scale(0.015625)"/>
      <path id="DejaVuSans-28" d="M 1984 4856 
Q 1566 4138 1362 3434 
Q 1159 2731 1159 2009 
Q 1159 1288 1364 580 
Q 1569 -128 1984 -844 
L 1484 -844 
Q 1016 -109 783 600 
Q 550 1309 550 2009 
Q 550 2706 781 3412 
Q 1013 4119 1484 4856 
L 1984 4856 
z
" transform="scale(0.015625)"/>
      <path id="DejaVuSans-4b" d="M 628 4666 
L 1259 4666 
L 1259 2694 
L 3353 4666 
L 4166 4666 
L 1850 2491 
L 4331 0 
L 3500 0 
L 1259 2247 
L 1259 0 
L 628 0 
L 628 4666 
z
" transform="scale(0.015625)"/>
      <path id="DejaVuSans-68" d="M 3513 2113 
L 3513 0 
L 2938 0 
L 2938 2094 
Q 2938 2591 2744 2837 
Q 2550 3084 2163 3084 
Q 1697 3084 1428 2787 
Q 1159 2491 1159 1978 
L 1159 0 
L 581 0 
L 581 4863 
L 1159 4863 
L 1159 2956 
Q 1366 3272 1645 3428 
Q 1925 3584 2291 3584 
Q 2894 3584 3203 3211 
Q 3513 2838 3513 2113 
z
" transform="scale(0.015625)"/>
      <path id="DejaVuSans-29" d="M 513 4856 
L 1013 4856 
Q 1481 4119 1714 3412 
Q 1947 2706 1947 2009 
Q 1947 1309 1714 600 
Q 1481 -109 1013 -844 
L 513 -844 
Q 928 -128 1133 580 
Q 1338 1288 1338 2009 
Q 1338 2731 1133 3434 
Q 928 4138 513 4856 
z
" transform="scale(0.015625)"/>
     </defs>
     <use xlink:href="#DejaVuSans-44"/>
     <use xlink:href="#DejaVuSans-61" x="77.001953"/>
     <use xlink:href="#DejaVuSans-69" x="138.28125"/>
     <use xlink:href="#DejaVuSans-6c" x="166.064453"/>
     <use xlink:href="#DejaVuSans-79" x="193.847656"/>
     <use xlink:href="#DejaVuSans-20" x="253.027344"/>
     <use xlink:href="#DejaVuSans-43" x="284.814453"/>
     <use xlink:href="#DejaVuSans-6f" x="354.638672"/>
     <use xlink:href="#DejaVuSans-6e" x="415.820312"/>
     <use xlink:href="#DejaVuSans-66" x="479.199219"/>
     <use xlink:href="#DejaVuSans-69" x="514.404297"/>
     <use xlink:href="#DejaVuSans-72" x="542.1875"/>
     <use xlink:href="#DejaVuSans-6d" x="581.550781"/>
     <use xlink:href="#DejaVuSans-65" x="678.962891"/>
     <use xlink:href="#DejaVuSans-64" x="740.486328"/>
     <use xlink:href="#DejaVuSans-20" x="803.962891"/>
     <use xlink:href="#DejaVuSans-43" x="835.75"/>
     <use xlink:href="#DejaVuSans-61" x="905.574219"/>
     <use xlink:href="#DejaVuSans-73" x="966.853516"/>
     <use xlink:href="#DejaVuSans-65" x="1018.953125"/>
     <use xlink:href="#DejaVuSans-73" x="1080.476562"/>
     <use xlink:href="#DejaVuSans-20" x="1132.576172"/>
     <use xlink:href="#DejaVuSans-46" x="1164.363281"/>
     <use xlink:href="#DejaVuSans-6f" x="1218.257812"/>
     <use xlink:href="#DejaVuSans-72" x="1279.439453"/>
     <use xlink:href="#DejaVuSans-65" x="1318.302734"/>
     <use xlink:href="#DejaVuSans-63" x="1379.826172"/>
     <use xlink:href="#DejaVuSans-61" x="1434.806641"/>
     <use xlink:href="#DejaVuSans-73" x="1496.085938"/>
     <use xlink:href="#DejaVuSans-74" x="1548.185547"/>
     <use xlink:href="#DejaVuSans-69" x="1587.394531"/>
     <use xlink:href="#DejaVuSans-6e" x="1615.177734"/>
     <use xlink:href="#DejaVuSans-67" x="1678.556641"/>
     <use xlink:href="#DejaVuSans-20" x="1742.033203"/>
     <use xlink:href="#DejaVuSans-2d" x="1773.820312"/>
     <use xlink:href="#DejaVuSans-20" x="1809.904297"/>
     <use xlink:href="#DejaVuSans-43" x="1841.691406"/>
     <use xlink:href="#DejaVuSans-6f" x="1911.515625"/>
     <use xlink:href="#DejaVuSans-6e" x="1972.697266"/>
     <use xlink:href="#DejaVuSans-67" x="2036.076172"/>
     <use xlink:href="#DejaVuSans-6f" x="2099.552734"/>
     <use xlink:href="#DejaVuSans-20" x="2160.734375"/>
     <use xlink:href="#DejaVuSans-28" x="2192.521484"/>
     <use xlink:href="#DejaVuSans-4b" x="2231.535156"/>
     <use xlink:href="#DejaVuSans-69" x="2297.111328"/>
     <use xlink:href="#DejaVuSans-6e" x="2324.894531"/>
     <use xlink:href="#DejaVuSans-73" x="2388.273438"/>
     <use xlink:href="#DejaVuSans-68" x="2440.373047"/>
     <use xlink:href="#DejaVuSans-61" x="2503.751953"/>
     <use xlink:href="#DejaVuSans-73" x="2565.03125"/>
     <use xlink:href="#DejaVuSans-61" x="2617.130859"/>
     <use xlink:href="#DejaVuSans-29" x="2678.410156"/>
    </g>
    <!-- ARIMA (4, 1, 1)x(1, 0, 0, 7) (R2 = 0.168228) -->
    <g transform="translate(577.265938 29.7555)scale(0.12 -0.12)">
     <defs>
      <path id="DejaVuSans-41" d="M 2188 4044 
L 1331 1722 
L 3047 1722 
L 2188 4044 
z
M 1831 4666 
L 2547 4666 
L 4325 0 
L 3669 0 
L 3244 1197 
L 1141 1197 
L 716 0 
L 50 0 
L 1831 4666 
z
" transform="scale(0.015625)"/>
      <path id="DejaVuSans-52" d="M 2841 2188 
Q 3044 2119 3236 1894 
Q 3428 1669 3622 1275 
L 4263 0 
L 3584 0 
L 2988 1197 
Q 2756 1666 2539 1819 
Q 2322 1972 1947 1972 
L 1259 1972 
L 1259 0 
L 628 0 
L 628 4666 
L 2053 4666 
Q 2853 4666 3247 4331 
Q 3641 3997 3641 3322 
Q 3641 2881 3436 2590 
Q 3231 2300 2841 2188 
z
M 1259 4147 
L 1259 2491 
L 2053 2491 
Q 2509 2491 2742 2702 
Q 2975 2913 2975 3322 
Q 2975 3731 2742 3939 
Q 2509 4147 2053 4147 
L 1259 4147 
z
" transform="scale(0.015625)"/>
      <path id="DejaVuSans-49" d="M 628 4666 
L 1259 4666 
L 1259 0 
L 628 0 
L 628 4666 
z
" transform="scale(0.015625)"/>
      <path id="DejaVuSans-4d" d="M 628 4666 
L 1569 4666 
L 2759 1491 
L 3956 4666 
L 4897 4666 
L 4897 0 
L 4281 0 
L 4281 4097 
L 3078 897 
L 2444 897 
L 1241 4097 
L 1241 0 
L 628 0 
L 628 4666 
z
" transform="scale(0.015625)"/>
      <path id="DejaVuSans-2c" d="M 750 794 
L 1409 794 
L 1409 256 
L 897 -744 
L 494 -744 
L 750 256 
L 750 794 
z
" transform="scale(0.015625)"/>
      <path id="DejaVuSans-78" d="M 3513 3500 
L 2247 1797 
L 3578 0 
L 2900 0 
L 1881 1375 
L 863 0 
L 184 0 
L 1544 1831 
L 300 3500 
L 978 3500 
L 1906 2253 
L 2834 3500 
L 3513 3500 
z
" transform="scale(0.015625)"/>
      <path id="DejaVuSans-3d" d="M 678 2906 
L 4684 2906 
L 4684 2381 
L 678 2381 
L 678 2906 
z
M 678 1631 
L 4684 1631 
L 4684 1100 
L 678 1100 
L 678 1631 
z
" transform="scale(0.015625)"/>
      <path id="DejaVuSans-2e" d="M 684 794 
L 1344 794 
L 1344 0 
L 684 0 
L 684 794 
z
" transform="scale(0.015625)"/>
      <path id="DejaVuSans-36" d="M 2113 2584 
Q 1688 2584 1439 2293 
Q 1191 2003 1191 1497 
Q 1191 994 1439 701 
Q 1688 409 2113 409 
Q 2538 409 2786 701 
Q 3034 994 3034 1497 
Q 3034 2003 2786 2293 
Q 2538 2584 2113 2584 
z
M 3366 4563 
L 3366 3988 
Q 3128 4100 2886 4159 
Q 2644 4219 2406 4219 
Q 1781 4219 1451 3797 
Q 1122 3375 1075 2522 
Q 1259 2794 1537 2939 
Q 1816 3084 2150 3084 
Q 2853 3084 3261 2657 
Q 3669 2231 3669 1497 
Q 3669 778 3244 343 
Q 2819 -91 2113 -91 
Q 1303 -91 875 529 
Q 447 1150 447 2328 
Q 447 3434 972 4092 
Q 1497 4750 2381 4750 
Q 2619 4750 2861 4703 
Q 3103 4656 3366 4563 
z
" transform="scale(0.015625)"/>
      <path id="DejaVuSans-38" d="M 2034 2216 
Q 1584 2216 1326 1975 
Q 1069 1734 1069 1313 
Q 1069 891 1326 650 
Q 1584 409 2034 409 
Q 2484 409 2743 651 
Q 3003 894 3003 1313 
Q 3003 1734 2745 1975 
Q 2488 2216 2034 2216 
z
M 1403 2484 
Q 997 2584 770 2862 
Q 544 3141 544 3541 
Q 544 4100 942 4425 
Q 1341 4750 2034 4750 
Q 2731 4750 3128 4425 
Q 3525 4100 3525 3541 
Q 3525 3141 3298 2862 
Q 3072 2584 2669 2484 
Q 3125 2378 3379 2068 
Q 3634 1759 3634 1313 
Q 3634 634 3220 271 
Q 2806 -91 2034 -91 
Q 1263 -91 848 271 
Q 434 634 434 1313 
Q 434 1759 690 2068 
Q 947 2378 1403 2484 
z
M 1172 3481 
Q 1172 3119 1398 2916 
Q 1625 2713 2034 2713 
Q 2441 2713 2670 2916 
Q 2900 3119 2900 3481 
Q 2900 3844 2670 4047 
Q 2441 4250 2034 4250 
Q 1625 4250 1398 4047 
Q 1172 3844 1172 3481 
z
" transform="scale(0.015625)"/>
     </defs>
     <use xlink:href="#DejaVuSans-41"/>
     <use xlink:href="#DejaVuSans-52" x="68.408203"/>
     <use xlink:href="#DejaVuSans-49" x="137.890625"/>
     <use xlink:href="#DejaVuSans-4d" x="167.382812"/>
     <use xlink:href="#DejaVuSans-41" x="253.662109"/>
     <use xlink:href="#DejaVuSans-20" x="322.070312"/>
     <use xlink:href="#DejaVuSans-28" x="353.857422"/>
     <use xlink:href="#DejaVuSans-34" x="392.871094"/>
     <use xlink:href="#DejaVuSans-2c" x="456.494141"/>
     <use xlink:href="#DejaVuSans-20" x="488.28125"/>
     <use xlink:href="#DejaVuSans-31" x="520.068359"/>
     <use xlink:href="#DejaVuSans-2c" x="583.691406"/>
     <use xlink:href="#DejaVuSans-20" x="615.478516"/>
     <use xlink:href="#DejaVuSans-31" x="647.265625"/>
     <use xlink:href="#DejaVuSans-29" x="710.888672"/>
     <use xlink:href="#DejaVuSans-78" x="749.902344"/>
     <use xlink:href="#DejaVuSans-28" x="809.082031"/>
     <use xlink:href="#DejaVuSans-31" x="848.095703"/>
     <use xlink:href="#DejaVuSans-2c" x="911.71875"/>
     <use xlink:href="#DejaVuSans-20" x="943.505859"/>
     <use xlink:href="#DejaVuSans-30" x="975.292969"/>
     <use xlink:href="#DejaVuSans-2c" x="1038.916016"/>
     <use xlink:href="#DejaVuSans-20" x="1070.703125"/>
     <use xlink:href="#DejaVuSans-30" x="1102.490234"/>
     <use xlink:href="#DejaVuSans-2c" x="1166.113281"/>
     <use xlink:href="#DejaVuSans-20" x="1197.900391"/>
     <use xlink:href="#DejaVuSans-37" x="1229.6875"/>
     <use xlink:href="#DejaVuSans-29" x="1293.310547"/>
     <use xlink:href="#DejaVuSans-20" x="1332.324219"/>
     <use xlink:href="#DejaVuSans-28" x="1364.111328"/>
     <use xlink:href="#DejaVuSans-52" x="1403.125"/>
     <use xlink:href="#DejaVuSans-32" x="1472.607422"/>
     <use xlink:href="#DejaVuSans-20" x="1536.230469"/>
     <use xlink:href="#DejaVuSans-3d" x="1568.017578"/>
     <use xlink:href="#DejaVuSans-20" x="1651.806641"/>
     <use xlink:href="#DejaVuSans-30" x="1683.59375"/>
     <use xlink:href="#DejaVuSans-2e" x="1747.216797"/>
     <use xlink:href="#DejaVuSans-31" x="1779.003906"/>
     <use xlink:href="#DejaVuSans-36" x="1842.626953"/>
     <use xlink:href="#DejaVuSans-38" x="1906.25"/>
     <use xlink:href="#DejaVuSans-32" x="1969.873047"/>
     <use xlink:href="#DejaVuSans-32" x="2033.496094"/>
     <use xlink:href="#DejaVuSans-38" x="2097.119141"/>
     <use xlink:href="#DejaVuSans-29" x="2160.742188"/>
    </g>
   </g>
   <g id="legend_1">
    <g id="patch_7">
     <path d="M 1274.770313 87.789875 
L 1371.85 87.789875 
Q 1373.85 87.789875 1373.85 85.789875 
L 1373.85 42.7555 
Q 1373.85 40.7555 1371.85 40.7555 
L 1274.770313 40.7555 
Q 1272.770313 40.7555 1272.770313 42.7555 
L 1272.770313 85.789875 
Q 1272.770313 87.789875 1274.770313 87.789875 
z
" style="fill: #ffffff; opacity: 0.8; stroke: #cccccc; stroke-linejoin: miter"/>
    </g>
    <g id="line2d_20">
     <path d="M 1276.770313 48.853937 
L 1286.770313 48.853937 
L 1296.770313 48.853937 
" style="fill: none; stroke: #0000ff; stroke-width: 1.5; stroke-linecap: square"/>
    </g>
    <g id="text_18">
     <!-- Actual Value -->
     <g transform="translate(1304.770313 52.353937)scale(0.1 -0.1)">
      <defs>
       <path id="DejaVuSans-75" d="M 544 1381 
L 544 3500 
L 1119 3500 
L 1119 1403 
Q 1119 906 1312 657 
Q 1506 409 1894 409 
Q 2359 409 2629 706 
Q 2900 1003 2900 1516 
L 2900 3500 
L 3475 3500 
L 3475 0 
L 2900 0 
L 2900 538 
Q 2691 219 2414 64 
Q 2138 -91 1772 -91 
Q 1169 -91 856 284 
Q 544 659 544 1381 
z
M 1991 3584 
L 1991 3584 
z
" transform="scale(0.015625)"/>
       <path id="DejaVuSans-56" d="M 1831 0 
L 50 4666 
L 709 4666 
L 2188 738 
L 3669 4666 
L 4325 4666 
L 2547 0 
L 1831 0 
z
" transform="scale(0.015625)"/>
      </defs>
      <use xlink:href="#DejaVuSans-41"/>
      <use xlink:href="#DejaVuSans-63" x="66.658203"/>
      <use xlink:href="#DejaVuSans-74" x="121.638672"/>
      <use xlink:href="#DejaVuSans-75" x="160.847656"/>
      <use xlink:href="#DejaVuSans-61" x="224.226562"/>
      <use xlink:href="#DejaVuSans-6c" x="285.505859"/>
      <use xlink:href="#DejaVuSans-20" x="313.289062"/>
      <use xlink:href="#DejaVuSans-56" x="345.076172"/>
      <use xlink:href="#DejaVuSans-61" x="405.734375"/>
      <use xlink:href="#DejaVuSans-6c" x="467.013672"/>
      <use xlink:href="#DejaVuSans-75" x="494.796875"/>
      <use xlink:href="#DejaVuSans-65" x="558.175781"/>
     </g>
    </g>
    <g id="line2d_21">
     <path d="M 1276.770313 63.532062 
L 1286.770313 63.532062 
L 1296.770313 63.532062 
" style="fill: none; stroke: #ffa500; stroke-width: 1.5; stroke-linecap: square"/>
    </g>
    <g id="text_19">
     <!-- Check Value -->
     <g transform="translate(1304.770313 67.032062)scale(0.1 -0.1)">
      <defs>
       <path id="DejaVuSans-6b" d="M 581 4863 
L 1159 4863 
L 1159 1991 
L 2875 3500 
L 3609 3500 
L 1753 1863 
L 3688 0 
L 2938 0 
L 1159 1709 
L 1159 0 
L 581 0 
L 581 4863 
z
" transform="scale(0.015625)"/>
      </defs>
      <use xlink:href="#DejaVuSans-43"/>
      <use xlink:href="#DejaVuSans-68" x="69.824219"/>
      <use xlink:href="#DejaVuSans-65" x="133.203125"/>
      <use xlink:href="#DejaVuSans-63" x="194.726562"/>
      <use xlink:href="#DejaVuSans-6b" x="249.707031"/>
      <use xlink:href="#DejaVuSans-20" x="307.617188"/>
      <use xlink:href="#DejaVuSans-56" x="339.404297"/>
      <use xlink:href="#DejaVuSans-61" x="400.0625"/>
      <use xlink:href="#DejaVuSans-6c" x="461.341797"/>
      <use xlink:href="#DejaVuSans-75" x="489.125"/>
      <use xlink:href="#DejaVuSans-65" x="552.503906"/>
     </g>
    </g>
    <g id="line2d_22">
     <path d="M 1276.770313 78.210187 
L 1286.770313 78.210187 
L 1296.770313 78.210187 
" style="fill: none; stroke: #ff0000; stroke-width: 1.5; stroke-linecap: square"/>
    </g>
    <g id="text_20">
     <!-- Predict Value -->
     <g transform="translate(1304.770313 81.710187)scale(0.1 -0.1)">
      <defs>
       <path id="DejaVuSans-50" d="M 1259 4147 
L 1259 2394 
L 2053 2394 
Q 2494 2394 2734 2622 
Q 2975 2850 2975 3272 
Q 2975 3691 2734 3919 
Q 2494 4147 2053 4147 
L 1259 4147 
z
M 628 4666 
L 2053 4666 
Q 2838 4666 3239 4311 
Q 3641 3956 3641 3272 
Q 3641 2581 3239 2228 
Q 2838 1875 2053 1875 
L 1259 1875 
L 1259 0 
L 628 0 
L 628 4666 
z
" transform="scale(0.015625)"/>
      </defs>
      <use xlink:href="#DejaVuSans-50"/>
      <use xlink:href="#DejaVuSans-72" x="58.552734"/>
      <use xlink:href="#DejaVuSans-65" x="97.416016"/>
      <use xlink:href="#DejaVuSans-64" x="158.939453"/>
      <use xlink:href="#DejaVuSans-69" x="222.416016"/>
      <use xlink:href="#DejaVuSans-63" x="250.199219"/>
      <use xlink:href="#DejaVuSans-74" x="305.179688"/>
      <use xlink:href="#DejaVuSans-20" x="344.388672"/>
      <use xlink:href="#DejaVuSans-56" x="376.175781"/>
      <use xlink:href="#DejaVuSans-61" x="436.833984"/>
      <use xlink:href="#DejaVuSans-6c" x="498.113281"/>
      <use xlink:href="#DejaVuSans-75" x="525.896484"/>
      <use xlink:href="#DejaVuSans-65" x="589.275391"/>
     </g>
    </g>
   </g>
  </g>
 </g>
 <defs>
  <clipPath id="p323bf1aae4">
   <rect x="39.65" y="35.7555" width="1339.2" height="332.64"/>
  </clipPath>
 </defs>
</svg>
