<?xml version="1.0" encoding="utf-8" standalone="no"?>
<!DOCTYPE svg PUBLIC "-//W3C//DTD SVG 1.1//EN"
  "http://www.w3.org/Graphics/SVG/1.1/DTD/svg11.dtd">
<svg xmlns:xlink="http://www.w3.org/1999/xlink" width="1392.4125pt" height="392.273625pt" viewBox="0 0 1392.4125 392.273625" xmlns="http://www.w3.org/2000/svg" version="1.1">
 <metadata>
  <rdf:RDF xmlns:dc="http://purl.org/dc/elements/1.1/" xmlns:cc="http://creativecommons.org/ns#" xmlns:rdf="http://www.w3.org/1999/02/22-rdf-syntax-ns#">
   <cc:Work>
    <dc:type rdf:resource="http://purl.org/dc/dcmitype/StillImage"/>
    <dc:date>2023-01-03T18:44:50.888031</dc:date>
    <dc:format>image/svg+xml</dc:format>
    <dc:creator>
     <cc:Agent>
      <dc:title>Matplotlib v3.5.1, https://matplotlib.org/</dc:title>
     </cc:Agent>
    </dc:creator>
   </cc:Work>
  </rdf:RDF>
 </metadata>
 <defs>
  <style type="text/css">*{stroke-linejoin: round; stroke-linecap: butt}</style>
 </defs>
 <g id="figure_1">
  <g id="patch_1">
   <path d="M 0 392.273625 
L 1392.4125 392.273625 
L 1392.4125 0 
L 0 0 
z
" style="fill: #ffffff"/>
  </g>
  <g id="axes_1">
   <g id="patch_2">
    <path d="M 46.0125 368.3955 
L 1385.2125 368.3955 
L 1385.2125 35.7555 
L 46.0125 35.7555 
z
" style="fill: #ffffff"/>
   </g>
   <g id="matplotlib.axis_1">
    <g id="xtick_1">
     <g id="line2d_1">
      <defs>
       <path id="m7f0cda86ce" d="M 0 0 
L 0 3.5 
" style="stroke: #000000; stroke-width: 0.8"/>
      </defs>
      <g>
       <use xlink:href="#m7f0cda86ce" x="82.290186" y="368.3955" style="stroke: #000000; stroke-width: 0.8"/>
      </g>
     </g>
     <g id="text_1">
      <!-- 2020-01 -->
      <g transform="translate(61.39878 382.993937)scale(0.1 -0.1)">
       <defs>
        <path id="DejaVuSans-32" d="M 1228 531 
L 3431 531 
L 3431 0 
L 469 0 
L 469 531 
Q 828 903 1448 1529 
Q 2069 2156 2228 2338 
Q 2531 2678 2651 2914 
Q 2772 3150 2772 3378 
Q 2772 3750 2511 3984 
Q 2250 4219 1831 4219 
Q 1534 4219 1204 4116 
Q 875 4013 500 3803 
L 500 4441 
Q 881 4594 1212 4672 
Q 1544 4750 1819 4750 
Q 2544 4750 2975 4387 
Q 3406 4025 3406 3419 
Q 3406 3131 3298 2873 
Q 3191 2616 2906 2266 
Q 2828 2175 2409 1742 
Q 1991 1309 1228 531 
z
" transform="scale(0.015625)"/>
        <path id="DejaVuSans-30" d="M 2034 4250 
Q 1547 4250 1301 3770 
Q 1056 3291 1056 2328 
Q 1056 1369 1301 889 
Q 1547 409 2034 409 
Q 2525 409 2770 889 
Q 3016 1369 3016 2328 
Q 3016 3291 2770 3770 
Q 2525 4250 2034 4250 
z
M 2034 4750 
Q 2819 4750 3233 4129 
Q 3647 3509 3647 2328 
Q 3647 1150 3233 529 
Q 2819 -91 2034 -91 
Q 1250 -91 836 529 
Q 422 1150 422 2328 
Q 422 3509 836 4129 
Q 1250 4750 2034 4750 
z
" transform="scale(0.015625)"/>
        <path id="DejaVuSans-2d" d="M 313 2009 
L 1997 2009 
L 1997 1497 
L 313 1497 
L 313 2009 
z
" transform="scale(0.015625)"/>
        <path id="DejaVuSans-31" d="M 794 531 
L 1825 531 
L 1825 4091 
L 703 3866 
L 703 4441 
L 1819 4666 
L 2450 4666 
L 2450 531 
L 3481 531 
L 3481 0 
L 794 0 
L 794 531 
z
" transform="scale(0.015625)"/>
       </defs>
       <use xlink:href="#DejaVuSans-32"/>
       <use xlink:href="#DejaVuSans-30" x="63.623047"/>
       <use xlink:href="#DejaVuSans-32" x="127.246094"/>
       <use xlink:href="#DejaVuSans-30" x="190.869141"/>
       <use xlink:href="#DejaVuSans-2d" x="254.492188"/>
       <use xlink:href="#DejaVuSans-30" x="290.576172"/>
       <use xlink:href="#DejaVuSans-31" x="354.199219"/>
      </g>
     </g>
    </g>
    <g id="xtick_2">
     <g id="line2d_2">
      <g>
       <use xlink:href="#m7f0cda86ce" x="217.562913" y="368.3955" style="stroke: #000000; stroke-width: 0.8"/>
      </g>
     </g>
     <g id="text_2">
      <!-- 2020-05 -->
      <g transform="translate(196.671507 382.993937)scale(0.1 -0.1)">
       <defs>
        <path id="DejaVuSans-35" d="M 691 4666 
L 3169 4666 
L 3169 4134 
L 1269 4134 
L 1269 2991 
Q 1406 3038 1543 3061 
Q 1681 3084 1819 3084 
Q 2600 3084 3056 2656 
Q 3513 2228 3513 1497 
Q 3513 744 3044 326 
Q 2575 -91 1722 -91 
Q 1428 -91 1123 -41 
Q 819 9 494 109 
L 494 744 
Q 775 591 1075 516 
Q 1375 441 1709 441 
Q 2250 441 2565 725 
Q 2881 1009 2881 1497 
Q 2881 1984 2565 2268 
Q 2250 2553 1709 2553 
Q 1456 2553 1204 2497 
Q 953 2441 691 2322 
L 691 4666 
z
" transform="scale(0.015625)"/>
       </defs>
       <use xlink:href="#DejaVuSans-32"/>
       <use xlink:href="#DejaVuSans-30" x="63.623047"/>
       <use xlink:href="#DejaVuSans-32" x="127.246094"/>
       <use xlink:href="#DejaVuSans-30" x="190.869141"/>
       <use xlink:href="#DejaVuSans-2d" x="254.492188"/>
       <use xlink:href="#DejaVuSans-30" x="290.576172"/>
       <use xlink:href="#DejaVuSans-35" x="354.199219"/>
      </g>
     </g>
    </g>
    <g id="xtick_3">
     <g id="line2d_3">
      <g>
       <use xlink:href="#m7f0cda86ce" x="355.071553" y="368.3955" style="stroke: #000000; stroke-width: 0.8"/>
      </g>
     </g>
     <g id="text_3">
      <!-- 2020-09 -->
      <g transform="translate(334.180147 382.993937)scale(0.1 -0.1)">
       <defs>
        <path id="DejaVuSans-39" d="M 703 97 
L 703 672 
Q 941 559 1184 500 
Q 1428 441 1663 441 
Q 2288 441 2617 861 
Q 2947 1281 2994 2138 
Q 2813 1869 2534 1725 
Q 2256 1581 1919 1581 
Q 1219 1581 811 2004 
Q 403 2428 403 3163 
Q 403 3881 828 4315 
Q 1253 4750 1959 4750 
Q 2769 4750 3195 4129 
Q 3622 3509 3622 2328 
Q 3622 1225 3098 567 
Q 2575 -91 1691 -91 
Q 1453 -91 1209 -44 
Q 966 3 703 97 
z
M 1959 2075 
Q 2384 2075 2632 2365 
Q 2881 2656 2881 3163 
Q 2881 3666 2632 3958 
Q 2384 4250 1959 4250 
Q 1534 4250 1286 3958 
Q 1038 3666 1038 3163 
Q 1038 2656 1286 2365 
Q 1534 2075 1959 2075 
z
" transform="scale(0.015625)"/>
       </defs>
       <use xlink:href="#DejaVuSans-32"/>
       <use xlink:href="#DejaVuSans-30" x="63.623047"/>
       <use xlink:href="#DejaVuSans-32" x="127.246094"/>
       <use xlink:href="#DejaVuSans-30" x="190.869141"/>
       <use xlink:href="#DejaVuSans-2d" x="254.492188"/>
       <use xlink:href="#DejaVuSans-30" x="290.576172"/>
       <use xlink:href="#DejaVuSans-39" x="354.199219"/>
      </g>
     </g>
    </g>
    <g id="xtick_4">
     <g id="line2d_4">
      <g>
       <use xlink:href="#m7f0cda86ce" x="491.462237" y="368.3955" style="stroke: #000000; stroke-width: 0.8"/>
      </g>
     </g>
     <g id="text_4">
      <!-- 2021-01 -->
      <g transform="translate(470.570831 382.993937)scale(0.1 -0.1)">
       <use xlink:href="#DejaVuSans-32"/>
       <use xlink:href="#DejaVuSans-30" x="63.623047"/>
       <use xlink:href="#DejaVuSans-32" x="127.246094"/>
       <use xlink:href="#DejaVuSans-31" x="190.869141"/>
       <use xlink:href="#DejaVuSans-2d" x="254.492188"/>
       <use xlink:href="#DejaVuSans-30" x="290.576172"/>
       <use xlink:href="#DejaVuSans-31" x="354.199219"/>
      </g>
     </g>
    </g>
    <g id="xtick_5">
     <g id="line2d_5">
      <g>
       <use xlink:href="#m7f0cda86ce" x="625.617008" y="368.3955" style="stroke: #000000; stroke-width: 0.8"/>
      </g>
     </g>
     <g id="text_5">
      <!-- 2021-05 -->
      <g transform="translate(604.725602 382.993937)scale(0.1 -0.1)">
       <use xlink:href="#DejaVuSans-32"/>
       <use xlink:href="#DejaVuSans-30" x="63.623047"/>
       <use xlink:href="#DejaVuSans-32" x="127.246094"/>
       <use xlink:href="#DejaVuSans-31" x="190.869141"/>
       <use xlink:href="#DejaVuSans-2d" x="254.492188"/>
       <use xlink:href="#DejaVuSans-30" x="290.576172"/>
       <use xlink:href="#DejaVuSans-35" x="354.199219"/>
      </g>
     </g>
    </g>
    <g id="xtick_6">
     <g id="line2d_6">
      <g>
       <use xlink:href="#m7f0cda86ce" x="763.125648" y="368.3955" style="stroke: #000000; stroke-width: 0.8"/>
      </g>
     </g>
     <g id="text_6">
      <!-- 2021-09 -->
      <g transform="translate(742.234242 382.993937)scale(0.1 -0.1)">
       <use xlink:href="#DejaVuSans-32"/>
       <use xlink:href="#DejaVuSans-30" x="63.623047"/>
       <use xlink:href="#DejaVuSans-32" x="127.246094"/>
       <use xlink:href="#DejaVuSans-31" x="190.869141"/>
       <use xlink:href="#DejaVuSans-2d" x="254.492188"/>
       <use xlink:href="#DejaVuSans-30" x="290.576172"/>
       <use xlink:href="#DejaVuSans-39" x="354.199219"/>
      </g>
     </g>
    </g>
    <g id="xtick_7">
     <g id="line2d_7">
      <g>
       <use xlink:href="#m7f0cda86ce" x="899.516332" y="368.3955" style="stroke: #000000; stroke-width: 0.8"/>
      </g>
     </g>
     <g id="text_7">
      <!-- 2022-01 -->
      <g transform="translate(878.624925 382.993937)scale(0.1 -0.1)">
       <use xlink:href="#DejaVuSans-32"/>
       <use xlink:href="#DejaVuSans-30" x="63.623047"/>
       <use xlink:href="#DejaVuSans-32" x="127.246094"/>
       <use xlink:href="#DejaVuSans-32" x="190.869141"/>
       <use xlink:href="#DejaVuSans-2d" x="254.492188"/>
       <use xlink:href="#DejaVuSans-30" x="290.576172"/>
       <use xlink:href="#DejaVuSans-31" x="354.199219"/>
      </g>
     </g>
    </g>
    <g id="xtick_8">
     <g id="line2d_8">
      <g>
       <use xlink:href="#m7f0cda86ce" x="1033.671103" y="368.3955" style="stroke: #000000; stroke-width: 0.8"/>
      </g>
     </g>
     <g id="text_8">
      <!-- 2022-05 -->
      <g transform="translate(1012.779696 382.993937)scale(0.1 -0.1)">
       <use xlink:href="#DejaVuSans-32"/>
       <use xlink:href="#DejaVuSans-30" x="63.623047"/>
       <use xlink:href="#DejaVuSans-32" x="127.246094"/>
       <use xlink:href="#DejaVuSans-32" x="190.869141"/>
       <use xlink:href="#DejaVuSans-2d" x="254.492188"/>
       <use xlink:href="#DejaVuSans-30" x="290.576172"/>
       <use xlink:href="#DejaVuSans-35" x="354.199219"/>
      </g>
     </g>
    </g>
    <g id="xtick_9">
     <g id="line2d_9">
      <g>
       <use xlink:href="#m7f0cda86ce" x="1171.179743" y="368.3955" style="stroke: #000000; stroke-width: 0.8"/>
      </g>
     </g>
     <g id="text_9">
      <!-- 2022-09 -->
      <g transform="translate(1150.288336 382.993937)scale(0.1 -0.1)">
       <use xlink:href="#DejaVuSans-32"/>
       <use xlink:href="#DejaVuSans-30" x="63.623047"/>
       <use xlink:href="#DejaVuSans-32" x="127.246094"/>
       <use xlink:href="#DejaVuSans-32" x="190.869141"/>
       <use xlink:href="#DejaVuSans-2d" x="254.492188"/>
       <use xlink:href="#DejaVuSans-30" x="290.576172"/>
       <use xlink:href="#DejaVuSans-39" x="354.199219"/>
      </g>
     </g>
    </g>
    <g id="xtick_10">
     <g id="line2d_10">
      <g>
       <use xlink:href="#m7f0cda86ce" x="1307.570426" y="368.3955" style="stroke: #000000; stroke-width: 0.8"/>
      </g>
     </g>
     <g id="text_10">
      <!-- 2023-01 -->
      <g transform="translate(1286.67902 382.993937)scale(0.1 -0.1)">
       <defs>
        <path id="DejaVuSans-33" d="M 2597 2516 
Q 3050 2419 3304 2112 
Q 3559 1806 3559 1356 
Q 3559 666 3084 287 
Q 2609 -91 1734 -91 
Q 1441 -91 1130 -33 
Q 819 25 488 141 
L 488 750 
Q 750 597 1062 519 
Q 1375 441 1716 441 
Q 2309 441 2620 675 
Q 2931 909 2931 1356 
Q 2931 1769 2642 2001 
Q 2353 2234 1838 2234 
L 1294 2234 
L 1294 2753 
L 1863 2753 
Q 2328 2753 2575 2939 
Q 2822 3125 2822 3475 
Q 2822 3834 2567 4026 
Q 2313 4219 1838 4219 
Q 1578 4219 1281 4162 
Q 984 4106 628 3988 
L 628 4550 
Q 988 4650 1302 4700 
Q 1616 4750 1894 4750 
Q 2613 4750 3031 4423 
Q 3450 4097 3450 3541 
Q 3450 3153 3228 2886 
Q 3006 2619 2597 2516 
z
" transform="scale(0.015625)"/>
       </defs>
       <use xlink:href="#DejaVuSans-32"/>
       <use xlink:href="#DejaVuSans-30" x="63.623047"/>
       <use xlink:href="#DejaVuSans-32" x="127.246094"/>
       <use xlink:href="#DejaVuSans-33" x="190.869141"/>
       <use xlink:href="#DejaVuSans-2d" x="254.492188"/>
       <use xlink:href="#DejaVuSans-30" x="290.576172"/>
       <use xlink:href="#DejaVuSans-31" x="354.199219"/>
      </g>
     </g>
    </g>
   </g>
   <g id="matplotlib.axis_2">
    <g id="ytick_1">
     <g id="line2d_11">
      <defs>
       <path id="mce5f0f2e02" d="M 0 0 
L -3.5 0 
" style="stroke: #000000; stroke-width: 0.8"/>
      </defs>
      <g>
       <use xlink:href="#mce5f0f2e02" x="46.0125" y="327.599814" style="stroke: #000000; stroke-width: 0.8"/>
      </g>
     </g>
     <g id="text_11">
      <!-- 0 -->
      <g transform="translate(32.65 331.399032)scale(0.1 -0.1)">
       <use xlink:href="#DejaVuSans-30"/>
      </g>
     </g>
    </g>
    <g id="ytick_2">
     <g id="line2d_12">
      <g>
       <use xlink:href="#mce5f0f2e02" x="46.0125" y="286.64912" style="stroke: #000000; stroke-width: 0.8"/>
      </g>
     </g>
     <g id="text_12">
      <!-- 2000 -->
      <g transform="translate(13.5625 290.448339)scale(0.1 -0.1)">
       <use xlink:href="#DejaVuSans-32"/>
       <use xlink:href="#DejaVuSans-30" x="63.623047"/>
       <use xlink:href="#DejaVuSans-30" x="127.246094"/>
       <use xlink:href="#DejaVuSans-30" x="190.869141"/>
      </g>
     </g>
    </g>
    <g id="ytick_3">
     <g id="line2d_13">
      <g>
       <use xlink:href="#mce5f0f2e02" x="46.0125" y="245.698426" style="stroke: #000000; stroke-width: 0.8"/>
      </g>
     </g>
     <g id="text_13">
      <!-- 4000 -->
      <g transform="translate(13.5625 249.497645)scale(0.1 -0.1)">
       <defs>
        <path id="DejaVuSans-34" d="M 2419 4116 
L 825 1625 
L 2419 1625 
L 2419 4116 
z
M 2253 4666 
L 3047 4666 
L 3047 1625 
L 3713 1625 
L 3713 1100 
L 3047 1100 
L 3047 0 
L 2419 0 
L 2419 1100 
L 313 1100 
L 313 1709 
L 2253 4666 
z
" transform="scale(0.015625)"/>
       </defs>
       <use xlink:href="#DejaVuSans-34"/>
       <use xlink:href="#DejaVuSans-30" x="63.623047"/>
       <use xlink:href="#DejaVuSans-30" x="127.246094"/>
       <use xlink:href="#DejaVuSans-30" x="190.869141"/>
      </g>
     </g>
    </g>
    <g id="ytick_4">
     <g id="line2d_14">
      <g>
       <use xlink:href="#mce5f0f2e02" x="46.0125" y="204.747732" style="stroke: #000000; stroke-width: 0.8"/>
      </g>
     </g>
     <g id="text_14">
      <!-- 6000 -->
      <g transform="translate(13.5625 208.546951)scale(0.1 -0.1)">
       <defs>
        <path id="DejaVuSans-36" d="M 2113 2584 
Q 1688 2584 1439 2293 
Q 1191 2003 1191 1497 
Q 1191 994 1439 701 
Q 1688 409 2113 409 
Q 2538 409 2786 701 
Q 3034 994 3034 1497 
Q 3034 2003 2786 2293 
Q 2538 2584 2113 2584 
z
M 3366 4563 
L 3366 3988 
Q 3128 4100 2886 4159 
Q 2644 4219 2406 4219 
Q 1781 4219 1451 3797 
Q 1122 3375 1075 2522 
Q 1259 2794 1537 2939 
Q 1816 3084 2150 3084 
Q 2853 3084 3261 2657 
Q 3669 2231 3669 1497 
Q 3669 778 3244 343 
Q 2819 -91 2113 -91 
Q 1303 -91 875 529 
Q 447 1150 447 2328 
Q 447 3434 972 4092 
Q 1497 4750 2381 4750 
Q 2619 4750 2861 4703 
Q 3103 4656 3366 4563 
z
" transform="scale(0.015625)"/>
       </defs>
       <use xlink:href="#DejaVuSans-36"/>
       <use xlink:href="#DejaVuSans-30" x="63.623047"/>
       <use xlink:href="#DejaVuSans-30" x="127.246094"/>
       <use xlink:href="#DejaVuSans-30" x="190.869141"/>
      </g>
     </g>
    </g>
    <g id="ytick_5">
     <g id="line2d_15">
      <g>
       <use xlink:href="#mce5f0f2e02" x="46.0125" y="163.797038" style="stroke: #000000; stroke-width: 0.8"/>
      </g>
     </g>
     <g id="text_15">
      <!-- 8000 -->
      <g transform="translate(13.5625 167.596257)scale(0.1 -0.1)">
       <defs>
        <path id="DejaVuSans-38" d="M 2034 2216 
Q 1584 2216 1326 1975 
Q 1069 1734 1069 1313 
Q 1069 891 1326 650 
Q 1584 409 2034 409 
Q 2484 409 2743 651 
Q 3003 894 3003 1313 
Q 3003 1734 2745 1975 
Q 2488 2216 2034 2216 
z
M 1403 2484 
Q 997 2584 770 2862 
Q 544 3141 544 3541 
Q 544 4100 942 4425 
Q 1341 4750 2034 4750 
Q 2731 4750 3128 4425 
Q 3525 4100 3525 3541 
Q 3525 3141 3298 2862 
Q 3072 2584 2669 2484 
Q 3125 2378 3379 2068 
Q 3634 1759 3634 1313 
Q 3634 634 3220 271 
Q 2806 -91 2034 -91 
Q 1263 -91 848 271 
Q 434 634 434 1313 
Q 434 1759 690 2068 
Q 947 2378 1403 2484 
z
M 1172 3481 
Q 1172 3119 1398 2916 
Q 1625 2713 2034 2713 
Q 2441 2713 2670 2916 
Q 2900 3119 2900 3481 
Q 2900 3844 2670 4047 
Q 2441 4250 2034 4250 
Q 1625 4250 1398 4047 
Q 1172 3844 1172 3481 
z
" transform="scale(0.015625)"/>
       </defs>
       <use xlink:href="#DejaVuSans-38"/>
       <use xlink:href="#DejaVuSans-30" x="63.623047"/>
       <use xlink:href="#DejaVuSans-30" x="127.246094"/>
       <use xlink:href="#DejaVuSans-30" x="190.869141"/>
      </g>
     </g>
    </g>
    <g id="ytick_6">
     <g id="line2d_16">
      <g>
       <use xlink:href="#mce5f0f2e02" x="46.0125" y="122.846344" style="stroke: #000000; stroke-width: 0.8"/>
      </g>
     </g>
     <g id="text_16">
      <!-- 10000 -->
      <g transform="translate(7.2 126.645563)scale(0.1 -0.1)">
       <use xlink:href="#DejaVuSans-31"/>
       <use xlink:href="#DejaVuSans-30" x="63.623047"/>
       <use xlink:href="#DejaVuSans-30" x="127.246094"/>
       <use xlink:href="#DejaVuSans-30" x="190.869141"/>
       <use xlink:href="#DejaVuSans-30" x="254.492188"/>
      </g>
     </g>
    </g>
    <g id="ytick_7">
     <g id="line2d_17">
      <g>
       <use xlink:href="#mce5f0f2e02" x="46.0125" y="81.895651" style="stroke: #000000; stroke-width: 0.8"/>
      </g>
     </g>
     <g id="text_17">
      <!-- 12000 -->
      <g transform="translate(7.2 85.694869)scale(0.1 -0.1)">
       <use xlink:href="#DejaVuSans-31"/>
       <use xlink:href="#DejaVuSans-32" x="63.623047"/>
       <use xlink:href="#DejaVuSans-30" x="127.246094"/>
       <use xlink:href="#DejaVuSans-30" x="190.869141"/>
       <use xlink:href="#DejaVuSans-30" x="254.492188"/>
      </g>
     </g>
    </g>
    <g id="ytick_8">
     <g id="line2d_18">
      <g>
       <use xlink:href="#mce5f0f2e02" x="46.0125" y="40.944957" style="stroke: #000000; stroke-width: 0.8"/>
      </g>
     </g>
     <g id="text_18">
      <!-- 14000 -->
      <g transform="translate(7.2 44.744175)scale(0.1 -0.1)">
       <use xlink:href="#DejaVuSans-31"/>
       <use xlink:href="#DejaVuSans-34" x="63.623047"/>
       <use xlink:href="#DejaVuSans-30" x="127.246094"/>
       <use xlink:href="#DejaVuSans-30" x="190.869141"/>
       <use xlink:href="#DejaVuSans-30" x="254.492188"/>
      </g>
     </g>
    </g>
   </g>
   <g id="line2d_19">
    <path d="M 106.885227 327.599814 
L 147.131659 327.599814 
L 148.249615 327.476962 
L 152.721441 327.538388 
L 153.839397 327.599814 
L 156.07531 327.313159 
L 158.311223 327.599814 
L 159.429179 327.374585 
L 160.547136 327.599814 
L 161.665092 327.599814 
L 162.783048 326.985553 
L 163.901005 327.415536 
L 166.136918 327.436011 
L 167.254874 326.985553 
L 168.372831 327.39506 
L 169.490787 327.026504 
L 171.7267 327.476962 
L 175.080569 326.576046 
L 176.198526 326.985553 
L 177.316482 326.862701 
L 178.434438 326.043687 
L 179.552395 326.616997 
L 180.670351 326.760324 
L 181.788308 325.90036 
L 182.906264 326.289391 
L 184.024221 326.903652 
L 185.142177 326.698898 
L 186.260133 326.616997 
L 187.37809 326.412244 
L 188.496046 325.90036 
L 189.614003 326.166539 
L 190.731959 325.736557 
L 191.849915 325.961786 
L 192.967872 326.985553 
L 194.085828 326.637472 
L 197.439698 327.067455 
L 200.793567 327.210782 
L 201.911523 326.616997 
L 203.02948 326.965078 
L 204.147436 327.067455 
L 205.265393 326.883177 
L 206.383349 327.026504 
L 207.501305 327.006029 
L 208.619262 326.657948 
L 209.737218 326.965078 
L 210.855175 326.47367 
L 211.973131 326.432719 
L 213.091088 327.046979 
L 214.209044 325.941311 
L 215.327 326.064163 
L 216.444957 325.920835 
L 217.562913 326.20749 
L 218.68087 326.248441 
L 219.798826 326.023212 
L 220.916782 326.576046 
L 222.034739 325.859409 
L 223.152695 326.596522 
L 224.270652 326.309867 
L 225.388608 326.371293 
L 227.624521 325.797983 
L 228.742477 326.555571 
L 229.860434 325.654656 
L 230.97839 325.163247 
L 232.096347 325.32705 
L 233.214303 326.576046 
L 234.33226 326.227965 
L 235.450216 324.651364 
L 236.568172 324.528512 
L 237.686129 326.432719 
L 238.804085 325.286099 
L 239.922042 324.467086 
L 241.039998 325.818459 
L 242.157955 321.293407 
L 243.275911 323.56617 
L 244.393867 324.262332 
L 245.511824 323.177139 
L 246.62978 321.723389 
L 247.747737 321.006752 
L 248.865693 319.082069 
L 249.98365 321.334358 
L 251.101606 322.276223 
L 252.219562 318.81589 
L 253.337519 316.973109 
L 254.455475 311.608568 
L 255.573432 313.840381 
L 256.691388 307.001615 
L 257.809344 301.964679 
L 258.927301 301.637074 
L 260.045257 304.769802 
L 261.163214 311.485716 
L 262.28117 304.135066 
L 263.399127 301.780401 
L 264.517083 305.179309 
L 266.752996 301.821352 
L 267.870952 304.95408 
L 268.988909 299.241458 
L 270.106865 295.781125 
L 271.224822 297.644381 
L 272.342778 294.122621 
L 273.460734 289.310915 
L 274.578691 293.897393 
L 275.696647 290.580386 
L 276.814604 290.21183 
L 277.93256 282.55405 
L 279.050517 277.701393 
L 280.168473 285.543451 
L 281.286429 285.236321 
L 282.404386 283.782571 
L 283.522342 291.788432 
L 284.640299 287.509084 
L 285.758255 278.151851 
L 286.876211 282.881656 
L 287.994168 280.260812 
L 289.112124 279.810354 
L 290.230081 284.089701 
L 291.348037 290.826091 
L 292.465994 277.926622 
L 293.58395 271.476888 
L 294.701906 283.168311 
L 295.819863 269.286026 
L 296.937819 271.620215 
L 298.055776 280.260812 
L 299.173732 281.960265 
L 300.291689 286.198662 
L 301.409645 284.396832 
L 302.527601 280.895547 
L 303.645558 286.178187 
L 304.763514 285.645828 
L 305.881471 280.301762 
L 306.999427 283.311638 
L 308.117384 277.107608 
L 309.23534 272.193525 
L 310.353296 279.25752 
L 311.471253 276.718577 
L 312.589209 268.999371 
L 313.707166 277.250936 
L 314.825122 275.326253 
L 315.943079 271.354036 
L 317.061035 266.828984 
L 318.178991 266.931361 
L 319.296948 259.089303 
L 320.414904 284.703962 
L 321.532861 277.49664 
L 322.650817 271.59974 
L 323.768773 269.53173 
L 324.88673 269.572681 
L 326.004686 265.211432 
L 327.122643 256.734638 
L 328.240599 259.519285 
L 329.358556 271.784018 
L 330.476512 256.263705 
L 331.594468 258.065536 
L 332.712425 257.144145 
L 333.830381 248.954006 
L 334.948338 245.432246 
L 336.066294 239.699149 
L 337.184251 238.573005 
L 338.302207 262.037753 
L 339.420163 233.904626 
L 340.53812 243.794219 
L 341.656076 245.800803 
L 342.774033 239.801526 
L 343.891989 246.415063 
L 345.009946 260.215447 
L 347.245858 246.476489 
L 348.363815 249.035908 
L 349.481771 252.844322 
L 350.599728 242.07429 
L 351.717684 249.097334 
L 352.83564 251.206294 
L 353.953597 250.673935 
L 355.071553 257.901733 
L 356.18951 246.804095 
L 357.307466 230.239539 
L 358.425423 224.485967 
L 359.543379 232.512303 
L 360.661335 252.844322 
L 361.779292 239.269167 
L 362.897248 227.393466 
L 364.015205 240.722917 
L 365.133161 233.474644 
L 366.251118 240.497688 
L 367.369074 243.528039 
L 368.48703 255.301364 
L 369.604987 242.238092 
L 370.722943 241.111948 
L 371.8409 238.388727 
L 372.958856 239.023463 
L 374.076813 239.453445 
L 375.194769 247.602633 
L 376.312725 257.205571 
L 377.430682 249.363513 
L 378.548638 230.874275 
L 379.666595 224.096935 
L 380.784551 236.054538 
L 381.902508 233.556545 
L 383.020464 240.170082 
L 384.13842 256.325131 
L 386.374333 230.874275 
L 387.49229 231.549961 
L 388.610246 235.60408 
L 389.728202 229.625279 
L 390.846159 252.41434 
L 391.964115 261.87395 
L 393.082072 249.629693 
L 394.200028 242.176666 
L 395.317985 247.275028 
L 396.435941 255.485642 
L 397.553897 261.792049 
L 398.671854 279.6056 
L 399.78981 282.431198 
L 402.025723 247.315978 
L 403.14368 248.626401 
L 404.261636 254.154744 
L 405.379592 255.915624 
L 406.497549 261.648721 
L 407.615505 263.921485 
L 408.733462 244.797511 
L 409.851418 247.336454 
L 410.969375 252.516717 
L 412.087331 247.766436 
L 413.205287 250.100626 
L 414.323244 261.996802 
L 415.4412 275.305778 
L 416.559157 252.025308 
L 417.677113 235.255999 
L 418.795069 244.817986 
L 419.913026 249.711594 
L 422.148939 286.710546 
L 423.266895 273.176342 
L 424.384852 257.717455 
L 425.502808 253.990941 
L 426.620764 254.420924 
L 427.738721 251.820555 
L 428.856677 254.543776 
L 429.974634 268.630815 
L 431.09259 275.797186 
L 432.210547 262.406309 
L 433.328503 254.359498 
L 434.446459 262.119654 
L 435.564416 260.07212 
L 436.682372 272.52113 
L 437.800329 278.069949 
L 438.918285 281.796463 
L 440.036242 278.663735 
L 441.154198 266.972311 
L 442.272154 279.503224 
L 443.390111 278.99134 
L 444.508067 275.531006 
L 445.626024 291.030844 
L 446.74398 291.440351 
L 447.861937 283.864473 
L 450.097849 277.680918 
L 451.215806 276.759527 
L 452.333762 275.490056 
L 453.451719 294.716407 
L 454.569675 294.552604 
L 455.687631 284.31493 
L 456.805588 282.185494 
L 457.923544 287.447658 
L 459.041501 285.850581 
L 460.159457 289.618045 
L 461.277414 288.737605 
L 462.39537 293.201231 
L 463.513326 290.437059 
L 464.631283 284.130652 
L 466.867196 299.343835 
L 467.985152 300.019521 
L 469.103109 306.674009 
L 470.221065 306.878763 
L 471.339021 300.2038 
L 472.456978 299.118606 
L 473.574934 295.8016 
L 474.692891 296.211107 
L 475.810847 299.712391 
L 476.928804 300.838535 
L 478.04676 306.571632 
L 479.164716 303.029397 
L 480.282673 303.889362 
L 481.400629 303.582232 
L 482.518586 304.524098 
L 483.636542 304.257918 
L 484.754498 310.482424 
L 485.872455 310.85098 
L 486.990411 308.537266 
L 488.108368 306.858287 
L 489.226324 309.151526 
L 490.344281 310.216244 
L 491.462237 309.131051 
L 492.580193 310.400522 
L 493.69815 312.427582 
L 494.816106 315.416982 
L 495.934063 312.099976 
L 497.052019 310.420998 
L 498.169976 311.42429 
L 499.287932 313.901807 
L 500.405888 309.028674 
L 501.523845 315.171278 
L 502.641801 311.199061 
L 503.759758 311.014783 
L 504.877714 309.847688 
L 505.995671 311.833797 
L 507.113627 311.117159 
L 508.231583 315.396507 
L 509.34954 314.393215 
L 510.467496 311.280962 
L 511.585453 310.748603 
L 512.703409 312.325205 
L 513.821366 311.035258 
L 514.939322 313.574201 
L 516.057278 311.669994 
L 517.175235 309.315329 
L 518.293191 310.953357 
L 519.411148 311.137635 
L 520.529104 309.601984 
L 521.64706 308.291562 
L 522.765017 308.250611 
L 523.882973 311.73142 
L 525.00093 312.980416 
L 526.118886 307.452072 
L 527.236843 304.360295 
L 528.354799 300.633782 
L 529.472755 304.053165 
L 530.590712 296.190632 
L 531.708668 293.610738 
L 532.826625 304.38077 
L 533.944581 292.525544 
L 536.180494 280.875072 
L 537.29845 279.093717 
L 538.416407 275.797186 
L 539.534363 282.758804 
L 540.65232 282.062642 
L 542.888233 259.375958 
L 544.006189 254.400448 
L 545.124145 247.827862 
L 546.242102 245.207018 
L 547.360058 260.584003 
L 548.478015 262.344883 
L 549.595971 248.483073 
L 550.713927 241.992388 
L 551.831884 239.43297 
L 552.94984 244.18325 
L 554.067797 238.818709 
L 555.185753 255.05566 
L 556.30371 261.095887 
L 557.421666 253.90904 
L 558.539622 231.570437 
L 559.657579 221.680844 
L 560.775535 224.342639 
L 561.893492 222.62271 
L 563.011448 244.306102 
L 564.129405 258.823123 
L 565.247361 236.115964 
L 566.365317 233.208464 
L 567.483274 228.376282 
L 568.60123 221.74227 
L 570.837143 244.592757 
L 571.9551 248.442122 
L 573.073056 227.250138 
L 575.308969 211.647924 
L 576.426925 216.1525 
L 577.544882 219.94044 
L 578.662838 231.898042 
L 579.780795 235.419802 
L 580.898751 232.287074 
L 582.016707 235.583605 
L 583.134664 203.703489 
L 584.25262 194.243879 
L 585.370577 194.714812 
L 586.488533 223.953608 
L 587.606489 219.67426 
L 588.724446 208.085214 
L 589.842402 204.850109 
L 590.960359 191.152102 
L 592.078315 204.440602 
L 593.196272 207.163823 
L 594.314228 217.462923 
L 595.432184 217.688151 
L 596.550141 196.08666 
L 597.668097 178.129781 
L 598.786054 157.019698 
L 599.90401 167.544027 
L 601.021967 165.086985 
L 602.139923 188.797437 
L 603.257879 188.551733 
L 604.375836 164.75938 
L 605.493792 160.131951 
L 606.611749 164.370348 
L 607.729705 167.687354 
L 608.847662 172.499061 
L 609.965618 193.445341 
L 611.083574 200.898367 
L 612.201531 168.403991 
L 613.319487 159.538166 
L 614.437444 149.546197 
L 615.5554 154.583132 
L 616.673356 163.448957 
L 617.791313 184.948072 
L 618.909269 204.05157 
L 620.027226 193.772946 
L 621.145182 181.160132 
L 622.263139 187.179884 
L 623.381095 185.787561 
L 624.499051 196.455217 
L 625.617008 221.803696 
L 626.734964 234.15033 
L 627.852921 223.830755 
L 628.970877 201.819758 
L 630.088834 208.576622 
L 631.20679 199.976976 
L 632.324746 209.600389 
L 633.442703 233.249415 
L 634.560659 242.279043 
L 635.678616 227.229663 
L 636.796572 219.346654 
L 637.914529 232.061845 
L 639.032485 235.215048 
L 640.150441 270.944529 
L 641.268398 285.46155 
L 642.386354 277.312362 
L 643.504311 254.871381 
L 644.622267 245.227493 
L 645.740224 233.22894 
L 646.85818 233.822725 
L 647.976136 238.388727 
L 649.094093 252.762421 
L 650.212049 249.977773 
L 651.330006 243.609941 
L 652.447962 226.492551 
L 653.565918 230.997127 
L 654.683875 233.187989 
L 655.801831 244.838461 
L 656.919788 260.911609 
L 658.037744 256.468458 
L 659.155701 240.170082 
L 660.273657 242.217617 
L 661.391613 233.761299 
L 662.50957 240.333885 
L 663.627526 242.483797 
L 664.745483 263.020569 
L 665.863439 259.744514 
L 666.981396 243.057106 
L 668.099352 243.26186 
L 669.217308 233.085612 
L 670.335265 231.693289 
L 671.453221 239.146315 
L 672.571178 249.15876 
L 673.689134 246.681243 
L 674.807091 224.404065 
L 675.925047 233.044662 
L 677.043003 222.377006 
L 678.16096 221.353238 
L 679.278916 223.830755 
L 680.396873 253.724762 
L 681.514829 242.42237 
L 682.632785 220.411373 
L 683.750742 204.686306 
L 684.868698 198.666554 
L 685.986655 202.843525 
L 687.104611 218.568591 
L 688.222568 229.031494 
L 689.340524 236.115964 
L 690.45848 197.663262 
L 691.576437 193.322489 
L 692.694393 178.129781 
L 693.81235 172.929043 
L 694.930306 197.008051 
L 696.048263 217.544824 
L 697.166219 199.342241 
L 698.284175 163.182778 
L 699.402132 147.048205 
L 700.520088 147.887694 
L 701.638045 139.451851 
L 702.756001 150.774718 
L 703.873958 187.937472 
L 704.991914 171.659572 
L 706.10987 140.270865 
L 707.227827 142.379825 
L 708.345783 130.319846 
L 709.46374 136.421499 
L 710.581696 156.917322 
L 711.699653 160.746212 
L 712.817609 149.505246 
L 713.935565 125.24196 
L 715.053522 144.918768 
L 716.171478 157.244927 
L 717.289435 161.626652 
L 718.407391 145.266849 
L 719.525347 170.901984 
L 720.643304 140.311815 
L 721.76126 78.210088 
L 722.879217 78.107711 
L 723.997173 50.8755 
L 725.11513 56.117189 
L 726.233086 69.671868 
L 727.351042 118.444145 
L 728.468999 135.254405 
L 729.586955 66.866746 
L 730.704912 89.184874 
L 731.822868 67.296728 
L 732.940825 84.53697 
L 734.058781 93.464222 
L 735.176737 164.349873 
L 736.294694 156.712568 
L 737.41265 130.647452 
L 738.530607 123.460605 
L 739.648563 150.795193 
L 740.76652 117.870835 
L 741.884476 123.522031 
L 743.002432 171.782424 
L 744.120389 184.047156 
L 745.238345 146.8025 
L 746.356302 147.867218 
L 747.474258 163.960841 
L 748.592215 163.551334 
L 749.710171 202.270215 
L 750.828127 246.558391 
L 753.06404 181.180608 
L 754.181997 170.553903 
L 755.299953 168.158287 
L 756.417909 162.077109 
L 757.535866 180.136365 
L 758.653822 217.667676 
L 760.889735 188.817912 
L 762.007692 185.562332 
L 763.125648 177.945503 
L 764.243604 185.337103 
L 766.479517 239.228216 
L 767.597474 227.33204 
L 768.71543 211.914104 
L 769.833387 204.993436 
L 770.951343 216.930564 
L 773.187256 231.017602 
L 774.305212 264.412893 
L 775.423169 254.830431 
L 776.541125 241.521455 
L 777.659082 237.508287 
L 778.777038 247.848337 
L 779.894994 247.275028 
L 781.012951 254.728054 
L 782.130907 287.488609 
L 783.248864 276.104316 
L 784.36682 262.242506 
L 785.484776 264.51527 
L 786.602733 268.098456 
L 787.720689 267.136114 
L 788.838646 266.910885 
L 789.956602 300.736159 
L 791.074559 283.803047 
L 792.192515 277.49664 
L 793.310471 278.438506 
L 794.428428 281.448382 
L 795.546384 277.762819 
L 796.664341 272.562081 
L 797.782297 302.292285 
L 798.900254 277.414738 
L 800.01821 287.550035 
L 801.136166 277.025707 
L 802.254123 276.022415 
L 803.372079 285.748205 
L 804.490036 282.24692 
L 805.607992 302.476563 
L 806.725949 293.774541 
L 807.843905 308.271086 
L 808.961861 293.938343 
L 810.079818 291.440351 
L 811.197774 278.807062 
L 812.315731 283.332114 
L 813.433687 305.547865 
L 814.551644 292.464118 
L 815.6696 295.678748 
L 816.787556 290.027552 
L 817.905513 299.180032 
L 819.023469 289.065211 
L 820.141426 289.802323 
L 821.259382 305.814045 
L 822.377338 302.067056 
L 823.495295 296.129205 
L 824.613251 298.340543 
L 825.731208 298.688624 
L 826.849164 297.480578 
L 827.967121 298.995754 
L 829.085077 313.635627 
L 830.203033 306.182601 
L 831.32099 303.991739 
L 832.438946 300.674732 
L 833.556903 303.070348 
L 834.674859 304.012214 
L 835.792816 303.930313 
L 836.910772 312.91899 
L 839.146685 304.094115 
L 840.264641 304.749327 
L 841.382598 308.864871 
L 842.500554 309.929589 
L 843.618511 309.335804 
L 844.736467 315.498884 
L 845.854423 310.011491 
L 846.97238 310.625751 
L 848.090336 311.076209 
L 849.208293 311.096684 
L 850.326249 311.444765 
L 851.444205 311.444765 
L 852.562162 315.969817 
L 853.680118 315.642211 
L 854.798075 310.625751 
L 855.916031 309.212952 
L 857.033988 311.710944 
L 858.151944 312.386631 
L 859.2699 310.072917 
L 860.387857 316.072193 
L 861.505813 316.584077 
L 862.62377 310.687177 
L 863.741726 312.775663 
L 864.859683 309.39723 
L 865.977639 313.000891 
L 867.095595 312.427582 
L 868.213552 319.942034 
L 869.331508 318.24258 
L 870.449465 315.007475 
L 871.567421 314.802722 
L 872.685378 315.191753 
L 873.803334 317.157387 
L 874.92129 316.44075 
L 876.039247 322.480977 
L 877.157203 320.638196 
L 878.27516 316.911683 
L 880.511073 318.877316 
L 881.629029 319.204921 
L 882.746985 320.290115 
L 883.864942 323.873301 
L 886.100855 320.146787 
L 887.218811 320.720097 
L 888.336767 320.597245 
L 889.454724 321.211505 
L 890.57268 321.006752 
L 891.690637 324.40566 
L 892.808593 324.078054 
L 893.92655 324.200906 
L 895.044506 322.992861 
L 897.280419 321.45721 
L 898.398375 321.375308 
L 899.516332 324.508036 
L 900.634288 323.381892 
L 901.752245 322.440026 
L 902.870201 321.088653 
L 903.988157 317.034535 
L 905.106114 313.983708 
L 906.22407 314.454641 
L 907.342027 321.129604 
L 908.459983 312.570909 
L 909.57794 299.589539 
L 910.695896 294.634505 
L 911.813852 285.891532 
L 912.931809 278.766111 
L 914.049765 260.727331 
L 915.167722 276.882379 
L 916.285678 253.274304 
L 917.403634 236.156914 
L 918.521591 194.776238 
L 919.639547 199.956501 
L 920.757504 209.518488 
L 921.87546 181.098706 
L 922.993417 227.598219 
L 924.111373 226.635878 
L 925.229329 209.743717 
L 926.347286 170.08297 
L 927.465242 161.606176 
L 928.583199 171.802899 
L 929.701155 152.453696 
L 930.819112 208.289967 
L 931.937068 213.306427 
L 933.055024 179.829235 
L 934.172981 165.824098 
L 935.290937 157.797762 
L 936.408894 185.316628 
L 937.52685 193.09726 
L 938.644807 239.228216 
L 939.762763 254.113794 
L 940.880719 219.387605 
L 941.998676 217.851954 
L 943.116632 231.754715 
L 945.352545 250.284904 
L 946.470502 286.362465 
L 947.588458 285.912007 
L 948.706414 265.948544 
L 949.824371 266.501378 
L 950.942327 273.565373 
L 952.060284 281.612184 
L 953.17824 279.974157 
L 954.296196 302.333236 
L 955.414153 303.868887 
L 956.532109 285.133944 
L 957.650066 293.098854 
L 958.768022 292.054611 
L 959.885979 296.907269 
L 961.003935 294.777833 
L 962.121891 309.622459 
L 963.239848 308.250611 
L 964.357804 302.967971 
L 965.475761 306.653534 
L 966.593717 301.657549 
L 967.711674 306.940189 
L 968.82963 305.773094 
L 969.947586 319.471101 
L 971.065543 314.577493 
L 972.183499 312.509483 
L 973.301456 309.417706 
L 974.419412 312.796138 
L 975.537369 313.287546 
L 976.655325 313.512775 
L 977.773281 320.105837 
L 978.891238 318.979693 
L 980.009194 314.147511 
L 981.127151 315.86744 
L 982.245107 314.659394 
L 983.363063 316.154095 
L 984.48102 318.611136 
L 985.598976 323.136188 
L 986.716933 322.419551 
L 987.834889 322.235273 
L 988.952846 323.770924 
L 990.070802 322.173847 
L 991.188758 320.023935 
L 992.306715 320.023935 
L 993.424671 322.501452 
L 994.542628 322.890484 
L 995.660584 317.914975 
L 996.778541 319.102545 
L 997.896497 320.556294 
L 999.014453 320.61772 
L 1000.13241 320.269639 
L 1001.250366 323.136188 
L 1002.368323 324.856117 
L 1003.486279 322.153371 
L 1005.722192 321.682438 
L 1007.958105 322.255748 
L 1009.076061 324.508036 
L 1010.194018 325.695606 
L 1011.311974 323.361417 
L 1012.429931 323.054287 
L 1013.547887 322.521928 
L 1014.665843 323.852825 
L 1015.7838 323.422843 
L 1016.901756 325.511328 
L 1018.019713 325.716082 
L 1019.137669 324.487561 
L 1020.255625 323.013336 
L 1023.609495 324.467086 
L 1024.727451 325.347526 
L 1025.845408 325.920835 
L 1026.963364 324.303283 
L 1028.08132 324.589938 
L 1029.199277 324.159955 
L 1030.317233 324.569462 
L 1031.43519 324.835642 
L 1033.671103 325.90036 
L 1034.789059 326.125589 
L 1035.907015 326.7808 
L 1037.024972 326.268916 
L 1038.142928 326.678423 
L 1039.260885 326.166539 
L 1040.378841 326.47367 
L 1042.614754 325.01992 
L 1043.73271 324.917543 
L 1044.850667 324.282807 
L 1045.968623 324.958494 
L 1047.08658 325.01992 
L 1048.204536 326.20749 
L 1049.322492 325.511328 
L 1050.440449 325.163247 
L 1051.558405 324.548987 
L 1052.676362 325.01992 
L 1053.794318 325.286099 
L 1054.912275 324.548987 
L 1056.030231 326.002737 
L 1057.148187 326.023212 
L 1058.266144 325.183723 
L 1059.3841 325.572754 
L 1060.502057 326.146064 
L 1061.620013 325.388476 
L 1062.73797 325.306575 
L 1063.855926 326.371293 
L 1064.973882 326.146064 
L 1066.091839 325.32705 
L 1067.209795 324.835642 
L 1068.327752 325.347526 
L 1069.445708 325.449902 
L 1070.563665 324.958494 
L 1071.681621 325.879885 
L 1072.799577 325.797983 
L 1073.917534 325.204198 
L 1075.03549 324.119005 
L 1076.153447 324.508036 
L 1077.271403 323.402368 
L 1078.38936 323.25904 
L 1079.507316 324.794691 
L 1080.625272 324.508036 
L 1081.743229 322.767632 
L 1082.861185 320.556294 
L 1083.979142 320.597245 
L 1085.097098 319.143495 
L 1086.215054 320.658671 
L 1087.333011 319.716805 
L 1088.450967 321.354833 
L 1089.568924 317.05501 
L 1090.68688 312.222828 
L 1091.804837 308.51679 
L 1092.922793 305.875471 
L 1094.040749 300.408553 
L 1095.158706 300.060472 
L 1096.276662 306.325928 
L 1097.394619 288.594278 
L 1098.512575 282.308346 
L 1099.630532 273.790602 
L 1100.748488 270.903578 
L 1101.866444 267.15659 
L 1102.984401 280.793171 
L 1104.102357 279.196094 
L 1106.33827 231.406634 
L 1107.456227 228.929117 
L 1108.574183 229.850507 
L 1109.692139 224.588343 
L 1110.810096 245.350345 
L 1111.928052 278.807062 
L 1113.046009 267.46372 
L 1114.163965 281.120776 
L 1115.281921 265.313808 
L 1116.399878 266.562805 
L 1117.517834 264.371942 
L 1118.635791 276.083841 
L 1119.753747 268.733191 
L 1120.871704 236.382143 
L 1121.98966 249.15876 
L 1123.107616 240.641015 
L 1124.225573 245.759852 
L 1125.343529 245.391296 
L 1126.461486 283.516392 
L 1127.579442 287.693363 
L 1128.697399 267.136114 
L 1129.815355 273.258243 
L 1130.933311 273.114916 
L 1132.051268 280.240336 
L 1133.169224 284.908715 
L 1134.287181 301.534697 
L 1135.405137 306.592108 
L 1136.523094 305.281686 
L 1137.64105 300.080947 
L 1138.759006 301.964679 
L 1139.876963 308.025382 
L 1140.994919 310.871455 
L 1142.112876 319.819182 
L 1143.230832 327.599814 
L 1144.348789 316.522651 
L 1145.466745 327.599814 
L 1151.056527 327.599814 
L 1152.174483 265.457136 
L 1153.29244 327.599814 
L 1158.882222 327.599814 
L 1160.000178 279.646551 
L 1161.118135 327.599814 
L 1167.825873 327.599814 
L 1168.94383 300.654257 
L 1170.061786 327.599814 
L 1174.533612 327.599814 
L 1175.651568 314.536542 
L 1176.769525 327.599814 
L 1190.185002 327.599814 
L 1191.302958 313.901807 
L 1192.420915 326.146064 
L 1193.538871 327.599814 
L 1198.010697 327.599814 
L 1199.128653 322.358125 
L 1200.24661 317.833073 
L 1201.364566 327.599814 
L 1205.836392 327.599814 
L 1206.954348 320.720097 
L 1208.072305 322.399076 
L 1209.190261 327.599814 
L 1210.308218 325.59323 
L 1211.426174 327.599814 
L 1213.662087 327.599814 
L 1214.780043 323.545695 
L 1215.898 327.599814 
L 1229.313477 327.599814 
L 1230.431433 319.839657 
L 1231.54939 327.599814 
L 1237.139172 327.599814 
L 1238.257128 322.747156 
L 1239.375085 327.599814 
L 1244.964867 327.599814 
L 1246.082823 319.962509 
L 1247.200779 327.599814 
L 1252.790562 327.599814 
L 1253.908518 318.181154 
L 1255.026474 327.599814 
L 1260.616257 327.599814 
L 1261.734213 313.185169 
L 1262.852169 327.599814 
L 1268.441952 327.599814 
L 1269.559908 313.205645 
L 1270.677864 327.599814 
L 1276.267647 327.599814 
L 1277.385603 314.270363 
L 1278.503559 327.599814 
L 1291.919036 327.599814 
L 1293.036993 312.61186 
L 1294.154949 327.599814 
L 1307.570426 327.599814 
L 1308.688383 321.805291 
L 1308.688383 321.805291 
" clip-path="url(#p98bbd756cd)" style="fill: none; stroke: #0000ff; stroke-width: 1.5; stroke-linecap: square"/>
   </g>
   <g id="line2d_20">
    <path d="M 1068.327752 325.142626 
L 1070.563665 325.221516 
L 1071.681621 325.931711 
L 1072.799577 325.716397 
L 1073.917534 325.171669 
L 1075.03549 325.034081 
L 1076.153447 324.595424 
L 1077.271403 324.475338 
L 1078.38936 323.320044 
L 1079.507316 324.066059 
L 1080.625272 324.546065 
L 1081.743229 323.991639 
L 1082.861185 322.491085 
L 1083.979142 321.185687 
L 1086.215054 319.130026 
L 1087.333011 321.359309 
L 1088.450967 319.914965 
L 1089.568924 320.065 
L 1091.804837 313.10074 
L 1092.922793 308.467134 
L 1094.040749 306.69176 
L 1095.158706 301.704713 
L 1096.276662 300.69207 
L 1097.394619 303.115255 
L 1098.512575 289.102684 
L 1100.748488 273.728209 
L 1101.866444 269.350193 
L 1102.984401 267.480664 
L 1104.102357 280.888164 
L 1105.220314 272.133546 
L 1106.33827 255.310985 
L 1107.456227 231.427962 
L 1108.574183 226.813692 
L 1109.692139 226.942553 
L 1110.810096 230.287438 
L 1111.928052 243.221153 
L 1113.046009 259.764313 
L 1114.163965 255.848269 
L 1115.281921 273.418815 
L 1116.399878 267.090604 
L 1117.517834 262.951396 
L 1118.635791 274.78102 
L 1119.753747 289.004672 
L 1120.871704 261.447981 
L 1121.98966 239.573189 
L 1123.107616 239.017604 
L 1124.225573 240.959251 
L 1125.343529 242.273079 
L 1126.461486 255.031707 
L 1127.579442 282.389049 
L 1128.697399 269.52433 
L 1129.815355 272.019978 
L 1130.933311 265.695991 
L 1132.051268 273.802949 
L 1133.169224 277.794134 
L 1134.287181 303.539668 
L 1135.405137 305.900367 
L 1136.523094 288.953291 
L 1137.64105 306.929803 
L 1138.759006 298.051945 
L 1139.876963 304.6562 
L 1140.994919 308.583153 
L 1142.112876 327.284936 
L 1143.230832 325.198351 
L 1144.348789 317.189488 
L 1145.466745 317.273072 
L 1147.702658 331.643672 
L 1148.820614 330.007607 
L 1149.938571 340.149937 
L 1151.056527 334.91937 
L 1152.174483 319.221124 
L 1153.29244 279.833537 
L 1154.410396 316.073189 
L 1155.528353 329.735183 
L 1156.646309 328.871255 
L 1157.764266 334.226936 
L 1158.882222 331.464923 
L 1160.000178 299.575049 
L 1161.118135 309.250705 
L 1162.236091 323.100869 
L 1163.354048 328.7274 
L 1164.472004 328.271201 
L 1165.589961 331.099281 
L 1166.707917 329.640793 
L 1167.825873 294.589711 
L 1168.94383 353.2755 
L 1170.061786 311.502942 
L 1171.179743 323.139291 
L 1172.297699 327.954341 
L 1173.415656 329.447716 
L 1174.533612 328.677558 
L 1175.651568 310.168752 
L 1176.769525 320.312473 
L 1177.887481 336.520724 
L 1179.005438 329.834363 
L 1180.123394 327.787023 
L 1181.24135 328.575603 
L 1182.359307 328.168919 
L 1183.477263 313.434167 
L 1184.59522 333.385728 
L 1185.713176 334.535734 
L 1186.831133 328.779773 
L 1187.949089 327.69867 
L 1189.067045 328.115081 
L 1190.185002 327.900331 
L 1191.302958 320.119611 
L 1192.420915 319.527306 
L 1193.538871 327.511134 
L 1194.656828 327.950118 
L 1195.774784 327.652015 
L 1196.89274 327.871902 
L 1198.010697 327.758503 
L 1199.128653 318.447683 
L 1200.24661 328.628967 
L 1201.364566 322.040765 
L 1202.482523 326.199838 
L 1203.600479 327.627379 
L 1204.718435 327.743491 
L 1205.836392 327.68361 
L 1206.954348 320.776335 
L 1208.072305 322.710922 
L 1209.190261 327.244304 
L 1210.308218 327.548388 
L 1211.426174 325.984292 
L 1212.54413 327.299176 
L 1213.662087 327.644062 
L 1214.780043 321.3839 
L 1215.898 324.823391 
L 1217.015956 331.658772 
L 1218.133912 327.696503 
L 1219.251869 328.226566 
L 1220.369825 327.782865 
L 1221.487782 327.623179 
L 1222.605738 322.777824 
L 1223.723695 329.123583 
L 1224.841651 330.43374 
L 1225.959607 327.650871 
L 1227.077564 327.930772 
L 1228.19552 327.696474 
L 1229.313477 327.612152 
L 1230.431433 325.053551 
L 1231.54939 322.100369 
L 1232.667346 327.640193 
L 1233.785302 327.626774 
L 1234.903259 327.774577 
L 1237.139172 327.606329 
L 1238.257128 323.308122 
L 1239.375085 326.476719 
L 1240.493041 328.032479 
L 1241.610997 327.61405 
L 1242.728954 327.692098 
L 1244.964867 327.603254 
L 1246.082823 323.490647 
L 1247.200779 324.381266 
L 1248.318736 327.22186 
L 1249.436692 327.607331 
L 1251.672605 327.614046 
L 1252.790562 327.60163 
L 1253.908518 322.529484 
L 1255.026474 323.881292 
L 1256.144431 326.933906 
L 1257.262387 327.603783 
L 1260.616257 327.600773 
L 1261.734213 321.345421 
L 1262.852169 320.872449 
L 1263.970126 326.147864 
L 1265.088082 327.60191 
L 1268.441952 327.60032 
L 1269.559908 318.822813 
L 1270.677864 322.984737 
L 1271.795821 326.587657 
L 1272.913777 327.600921 
L 1276.267647 327.600081 
L 1277.385603 317.498519 
L 1278.503559 324.949974 
L 1279.621516 327.016182 
L 1280.739472 327.600398 
L 1284.093341 327.599955 
L 1285.211298 317.203579 
L 1286.329254 336.030875 
L 1287.447211 329.56218 
L 1288.565167 327.600122 
L 1291.919036 327.599888 
L 1293.036993 322.110058 
L 1294.154949 319.876176 
L 1295.272906 325.823771 
L 1296.390862 327.599977 
L 1299.744731 327.599853 
L 1300.862688 319.008851 
L 1301.980644 334.574771 
L 1303.098601 329.215036 
L 1304.216557 327.5999 
L 1307.570426 327.599834 
L 1308.688383 323.063336 
L 1308.688383 323.063336 
" clip-path="url(#p98bbd756cd)" style="fill: none; stroke: #ffa500; stroke-width: 1.5; stroke-linecap: square"/>
   </g>
   <g id="line2d_21">
    <path d="M 1309.806339 326.575692 
L 1310.924296 326.533517 
L 1312.042252 326.541476 
L 1313.160208 326.540277 
L 1314.278165 326.540588 
L 1315.396121 326.540541 
L 1316.514078 321.944424 
L 1317.632034 326.150485 
L 1318.749991 326.135586 
L 1319.867947 326.138423 
L 1320.985903 326.138158 
L 1322.10386 326.138286 
L 1323.221816 326.138272 
L 1324.339773 321.965775 
" clip-path="url(#p98bbd756cd)" style="fill: none; stroke: #ff0000; stroke-width: 1.5; stroke-linecap: square"/>
   </g>
   <g id="patch_3">
    <path d="M 46.0125 368.3955 
L 46.0125 35.7555 
" style="fill: none; stroke: #000000; stroke-width: 0.8; stroke-linejoin: miter; stroke-linecap: square"/>
   </g>
   <g id="patch_4">
    <path d="M 1385.2125 368.3955 
L 1385.2125 35.7555 
" style="fill: none; stroke: #000000; stroke-width: 0.8; stroke-linejoin: miter; stroke-linecap: square"/>
   </g>
   <g id="patch_5">
    <path d="M 46.0125 368.3955 
L 1385.2125 368.3955 
" style="fill: none; stroke: #000000; stroke-width: 0.8; stroke-linejoin: miter; stroke-linecap: square"/>
   </g>
   <g id="patch_6">
    <path d="M 46.0125 35.7555 
L 1385.2125 35.7555 
" style="fill: none; stroke: #000000; stroke-width: 0.8; stroke-linejoin: miter; stroke-linecap: square"/>
   </g>
   <g id="text_19">
    <!-- Daily Confirmed Cases Forecasting - Iraq -->
    <g transform="translate(593.389688 16.318125)scale(0.12 -0.12)">
     <defs>
      <path id="DejaVuSans-44" d="M 1259 4147 
L 1259 519 
L 2022 519 
Q 2988 519 3436 956 
Q 3884 1394 3884 2338 
Q 3884 3275 3436 3711 
Q 2988 4147 2022 4147 
L 1259 4147 
z
M 628 4666 
L 1925 4666 
Q 3281 4666 3915 4102 
Q 4550 3538 4550 2338 
Q 4550 1131 3912 565 
Q 3275 0 1925 0 
L 628 0 
L 628 4666 
z
" transform="scale(0.015625)"/>
      <path id="DejaVuSans-61" d="M 2194 1759 
Q 1497 1759 1228 1600 
Q 959 1441 959 1056 
Q 959 750 1161 570 
Q 1363 391 1709 391 
Q 2188 391 2477 730 
Q 2766 1069 2766 1631 
L 2766 1759 
L 2194 1759 
z
M 3341 1997 
L 3341 0 
L 2766 0 
L 2766 531 
Q 2569 213 2275 61 
Q 1981 -91 1556 -91 
Q 1019 -91 701 211 
Q 384 513 384 1019 
Q 384 1609 779 1909 
Q 1175 2209 1959 2209 
L 2766 2209 
L 2766 2266 
Q 2766 2663 2505 2880 
Q 2244 3097 1772 3097 
Q 1472 3097 1187 3025 
Q 903 2953 641 2809 
L 641 3341 
Q 956 3463 1253 3523 
Q 1550 3584 1831 3584 
Q 2591 3584 2966 3190 
Q 3341 2797 3341 1997 
z
" transform="scale(0.015625)"/>
      <path id="DejaVuSans-69" d="M 603 3500 
L 1178 3500 
L 1178 0 
L 603 0 
L 603 3500 
z
M 603 4863 
L 1178 4863 
L 1178 4134 
L 603 4134 
L 603 4863 
z
" transform="scale(0.015625)"/>
      <path id="DejaVuSans-6c" d="M 603 4863 
L 1178 4863 
L 1178 0 
L 603 0 
L 603 4863 
z
" transform="scale(0.015625)"/>
      <path id="DejaVuSans-79" d="M 2059 -325 
Q 1816 -950 1584 -1140 
Q 1353 -1331 966 -1331 
L 506 -1331 
L 506 -850 
L 844 -850 
Q 1081 -850 1212 -737 
Q 1344 -625 1503 -206 
L 1606 56 
L 191 3500 
L 800 3500 
L 1894 763 
L 2988 3500 
L 3597 3500 
L 2059 -325 
z
" transform="scale(0.015625)"/>
      <path id="DejaVuSans-20" transform="scale(0.015625)"/>
      <path id="DejaVuSans-43" d="M 4122 4306 
L 4122 3641 
Q 3803 3938 3442 4084 
Q 3081 4231 2675 4231 
Q 1875 4231 1450 3742 
Q 1025 3253 1025 2328 
Q 1025 1406 1450 917 
Q 1875 428 2675 428 
Q 3081 428 3442 575 
Q 3803 722 4122 1019 
L 4122 359 
Q 3791 134 3420 21 
Q 3050 -91 2638 -91 
Q 1578 -91 968 557 
Q 359 1206 359 2328 
Q 359 3453 968 4101 
Q 1578 4750 2638 4750 
Q 3056 4750 3426 4639 
Q 3797 4528 4122 4306 
z
" transform="scale(0.015625)"/>
      <path id="DejaVuSans-6f" d="M 1959 3097 
Q 1497 3097 1228 2736 
Q 959 2375 959 1747 
Q 959 1119 1226 758 
Q 1494 397 1959 397 
Q 2419 397 2687 759 
Q 2956 1122 2956 1747 
Q 2956 2369 2687 2733 
Q 2419 3097 1959 3097 
z
M 1959 3584 
Q 2709 3584 3137 3096 
Q 3566 2609 3566 1747 
Q 3566 888 3137 398 
Q 2709 -91 1959 -91 
Q 1206 -91 779 398 
Q 353 888 353 1747 
Q 353 2609 779 3096 
Q 1206 3584 1959 3584 
z
" transform="scale(0.015625)"/>
      <path id="DejaVuSans-6e" d="M 3513 2113 
L 3513 0 
L 2938 0 
L 2938 2094 
Q 2938 2591 2744 2837 
Q 2550 3084 2163 3084 
Q 1697 3084 1428 2787 
Q 1159 2491 1159 1978 
L 1159 0 
L 581 0 
L 581 3500 
L 1159 3500 
L 1159 2956 
Q 1366 3272 1645 3428 
Q 1925 3584 2291 3584 
Q 2894 3584 3203 3211 
Q 3513 2838 3513 2113 
z
" transform="scale(0.015625)"/>
      <path id="DejaVuSans-66" d="M 2375 4863 
L 2375 4384 
L 1825 4384 
Q 1516 4384 1395 4259 
Q 1275 4134 1275 3809 
L 1275 3500 
L 2222 3500 
L 2222 3053 
L 1275 3053 
L 1275 0 
L 697 0 
L 697 3053 
L 147 3053 
L 147 3500 
L 697 3500 
L 697 3744 
Q 697 4328 969 4595 
Q 1241 4863 1831 4863 
L 2375 4863 
z
" transform="scale(0.015625)"/>
      <path id="DejaVuSans-72" d="M 2631 2963 
Q 2534 3019 2420 3045 
Q 2306 3072 2169 3072 
Q 1681 3072 1420 2755 
Q 1159 2438 1159 1844 
L 1159 0 
L 581 0 
L 581 3500 
L 1159 3500 
L 1159 2956 
Q 1341 3275 1631 3429 
Q 1922 3584 2338 3584 
Q 2397 3584 2469 3576 
Q 2541 3569 2628 3553 
L 2631 2963 
z
" transform="scale(0.015625)"/>
      <path id="DejaVuSans-6d" d="M 3328 2828 
Q 3544 3216 3844 3400 
Q 4144 3584 4550 3584 
Q 5097 3584 5394 3201 
Q 5691 2819 5691 2113 
L 5691 0 
L 5113 0 
L 5113 2094 
Q 5113 2597 4934 2840 
Q 4756 3084 4391 3084 
Q 3944 3084 3684 2787 
Q 3425 2491 3425 1978 
L 3425 0 
L 2847 0 
L 2847 2094 
Q 2847 2600 2669 2842 
Q 2491 3084 2119 3084 
Q 1678 3084 1418 2786 
Q 1159 2488 1159 1978 
L 1159 0 
L 581 0 
L 581 3500 
L 1159 3500 
L 1159 2956 
Q 1356 3278 1631 3431 
Q 1906 3584 2284 3584 
Q 2666 3584 2933 3390 
Q 3200 3197 3328 2828 
z
" transform="scale(0.015625)"/>
      <path id="DejaVuSans-65" d="M 3597 1894 
L 3597 1613 
L 953 1613 
Q 991 1019 1311 708 
Q 1631 397 2203 397 
Q 2534 397 2845 478 
Q 3156 559 3463 722 
L 3463 178 
Q 3153 47 2828 -22 
Q 2503 -91 2169 -91 
Q 1331 -91 842 396 
Q 353 884 353 1716 
Q 353 2575 817 3079 
Q 1281 3584 2069 3584 
Q 2775 3584 3186 3129 
Q 3597 2675 3597 1894 
z
M 3022 2063 
Q 3016 2534 2758 2815 
Q 2500 3097 2075 3097 
Q 1594 3097 1305 2825 
Q 1016 2553 972 2059 
L 3022 2063 
z
" transform="scale(0.015625)"/>
      <path id="DejaVuSans-64" d="M 2906 2969 
L 2906 4863 
L 3481 4863 
L 3481 0 
L 2906 0 
L 2906 525 
Q 2725 213 2448 61 
Q 2172 -91 1784 -91 
Q 1150 -91 751 415 
Q 353 922 353 1747 
Q 353 2572 751 3078 
Q 1150 3584 1784 3584 
Q 2172 3584 2448 3432 
Q 2725 3281 2906 2969 
z
M 947 1747 
Q 947 1113 1208 752 
Q 1469 391 1925 391 
Q 2381 391 2643 752 
Q 2906 1113 2906 1747 
Q 2906 2381 2643 2742 
Q 2381 3103 1925 3103 
Q 1469 3103 1208 2742 
Q 947 2381 947 1747 
z
" transform="scale(0.015625)"/>
      <path id="DejaVuSans-73" d="M 2834 3397 
L 2834 2853 
Q 2591 2978 2328 3040 
Q 2066 3103 1784 3103 
Q 1356 3103 1142 2972 
Q 928 2841 928 2578 
Q 928 2378 1081 2264 
Q 1234 2150 1697 2047 
L 1894 2003 
Q 2506 1872 2764 1633 
Q 3022 1394 3022 966 
Q 3022 478 2636 193 
Q 2250 -91 1575 -91 
Q 1294 -91 989 -36 
Q 684 19 347 128 
L 347 722 
Q 666 556 975 473 
Q 1284 391 1588 391 
Q 1994 391 2212 530 
Q 2431 669 2431 922 
Q 2431 1156 2273 1281 
Q 2116 1406 1581 1522 
L 1381 1569 
Q 847 1681 609 1914 
Q 372 2147 372 2553 
Q 372 3047 722 3315 
Q 1072 3584 1716 3584 
Q 2034 3584 2315 3537 
Q 2597 3491 2834 3397 
z
" transform="scale(0.015625)"/>
      <path id="DejaVuSans-46" d="M 628 4666 
L 3309 4666 
L 3309 4134 
L 1259 4134 
L 1259 2759 
L 3109 2759 
L 3109 2228 
L 1259 2228 
L 1259 0 
L 628 0 
L 628 4666 
z
" transform="scale(0.015625)"/>
      <path id="DejaVuSans-63" d="M 3122 3366 
L 3122 2828 
Q 2878 2963 2633 3030 
Q 2388 3097 2138 3097 
Q 1578 3097 1268 2742 
Q 959 2388 959 1747 
Q 959 1106 1268 751 
Q 1578 397 2138 397 
Q 2388 397 2633 464 
Q 2878 531 3122 666 
L 3122 134 
Q 2881 22 2623 -34 
Q 2366 -91 2075 -91 
Q 1284 -91 818 406 
Q 353 903 353 1747 
Q 353 2603 823 3093 
Q 1294 3584 2113 3584 
Q 2378 3584 2631 3529 
Q 2884 3475 3122 3366 
z
" transform="scale(0.015625)"/>
      <path id="DejaVuSans-74" d="M 1172 4494 
L 1172 3500 
L 2356 3500 
L 2356 3053 
L 1172 3053 
L 1172 1153 
Q 1172 725 1289 603 
Q 1406 481 1766 481 
L 2356 481 
L 2356 0 
L 1766 0 
Q 1100 0 847 248 
Q 594 497 594 1153 
L 594 3053 
L 172 3053 
L 172 3500 
L 594 3500 
L 594 4494 
L 1172 4494 
z
" transform="scale(0.015625)"/>
      <path id="DejaVuSans-67" d="M 2906 1791 
Q 2906 2416 2648 2759 
Q 2391 3103 1925 3103 
Q 1463 3103 1205 2759 
Q 947 2416 947 1791 
Q 947 1169 1205 825 
Q 1463 481 1925 481 
Q 2391 481 2648 825 
Q 2906 1169 2906 1791 
z
M 3481 434 
Q 3481 -459 3084 -895 
Q 2688 -1331 1869 -1331 
Q 1566 -1331 1297 -1286 
Q 1028 -1241 775 -1147 
L 775 -588 
Q 1028 -725 1275 -790 
Q 1522 -856 1778 -856 
Q 2344 -856 2625 -561 
Q 2906 -266 2906 331 
L 2906 616 
Q 2728 306 2450 153 
Q 2172 0 1784 0 
Q 1141 0 747 490 
Q 353 981 353 1791 
Q 353 2603 747 3093 
Q 1141 3584 1784 3584 
Q 2172 3584 2450 3431 
Q 2728 3278 2906 2969 
L 2906 3500 
L 3481 3500 
L 3481 434 
z
" transform="scale(0.015625)"/>
      <path id="DejaVuSans-49" d="M 628 4666 
L 1259 4666 
L 1259 0 
L 628 0 
L 628 4666 
z
" transform="scale(0.015625)"/>
      <path id="DejaVuSans-71" d="M 947 1747 
Q 947 1113 1208 752 
Q 1469 391 1925 391 
Q 2381 391 2643 752 
Q 2906 1113 2906 1747 
Q 2906 2381 2643 2742 
Q 2381 3103 1925 3103 
Q 1469 3103 1208 2742 
Q 947 2381 947 1747 
z
M 2906 525 
Q 2725 213 2448 61 
Q 2172 -91 1784 -91 
Q 1150 -91 751 415 
Q 353 922 353 1747 
Q 353 2572 751 3078 
Q 1150 3584 1784 3584 
Q 2172 3584 2448 3432 
Q 2725 3281 2906 2969 
L 2906 3500 
L 3481 3500 
L 3481 -1331 
L 2906 -1331 
L 2906 525 
z
" transform="scale(0.015625)"/>
     </defs>
     <use xlink:href="#DejaVuSans-44"/>
     <use xlink:href="#DejaVuSans-61" x="77.001953"/>
     <use xlink:href="#DejaVuSans-69" x="138.28125"/>
     <use xlink:href="#DejaVuSans-6c" x="166.064453"/>
     <use xlink:href="#DejaVuSans-79" x="193.847656"/>
     <use xlink:href="#DejaVuSans-20" x="253.027344"/>
     <use xlink:href="#DejaVuSans-43" x="284.814453"/>
     <use xlink:href="#DejaVuSans-6f" x="354.638672"/>
     <use xlink:href="#DejaVuSans-6e" x="415.820312"/>
     <use xlink:href="#DejaVuSans-66" x="479.199219"/>
     <use xlink:href="#DejaVuSans-69" x="514.404297"/>
     <use xlink:href="#DejaVuSans-72" x="542.1875"/>
     <use xlink:href="#DejaVuSans-6d" x="581.550781"/>
     <use xlink:href="#DejaVuSans-65" x="678.962891"/>
     <use xlink:href="#DejaVuSans-64" x="740.486328"/>
     <use xlink:href="#DejaVuSans-20" x="803.962891"/>
     <use xlink:href="#DejaVuSans-43" x="835.75"/>
     <use xlink:href="#DejaVuSans-61" x="905.574219"/>
     <use xlink:href="#DejaVuSans-73" x="966.853516"/>
     <use xlink:href="#DejaVuSans-65" x="1018.953125"/>
     <use xlink:href="#DejaVuSans-73" x="1080.476562"/>
     <use xlink:href="#DejaVuSans-20" x="1132.576172"/>
     <use xlink:href="#DejaVuSans-46" x="1164.363281"/>
     <use xlink:href="#DejaVuSans-6f" x="1218.257812"/>
     <use xlink:href="#DejaVuSans-72" x="1279.439453"/>
     <use xlink:href="#DejaVuSans-65" x="1318.302734"/>
     <use xlink:href="#DejaVuSans-63" x="1379.826172"/>
     <use xlink:href="#DejaVuSans-61" x="1434.806641"/>
     <use xlink:href="#DejaVuSans-73" x="1496.085938"/>
     <use xlink:href="#DejaVuSans-74" x="1548.185547"/>
     <use xlink:href="#DejaVuSans-69" x="1587.394531"/>
     <use xlink:href="#DejaVuSans-6e" x="1615.177734"/>
     <use xlink:href="#DejaVuSans-67" x="1678.556641"/>
     <use xlink:href="#DejaVuSans-20" x="1742.033203"/>
     <use xlink:href="#DejaVuSans-2d" x="1773.820312"/>
     <use xlink:href="#DejaVuSans-20" x="1809.904297"/>
     <use xlink:href="#DejaVuSans-49" x="1841.691406"/>
     <use xlink:href="#DejaVuSans-72" x="1871.183594"/>
     <use xlink:href="#DejaVuSans-61" x="1912.296875"/>
     <use xlink:href="#DejaVuSans-71" x="1973.576172"/>
    </g>
    <!-- ARIMA (1, 1, 0)x(1, 0, 1, 7) (R2 = 0.854222) -->
    <g transform="translate(583.628438 29.7555)scale(0.12 -0.12)">
     <defs>
      <path id="DejaVuSans-41" d="M 2188 4044 
L 1331 1722 
L 3047 1722 
L 2188 4044 
z
M 1831 4666 
L 2547 4666 
L 4325 0 
L 3669 0 
L 3244 1197 
L 1141 1197 
L 716 0 
L 50 0 
L 1831 4666 
z
" transform="scale(0.015625)"/>
      <path id="DejaVuSans-52" d="M 2841 2188 
Q 3044 2119 3236 1894 
Q 3428 1669 3622 1275 
L 4263 0 
L 3584 0 
L 2988 1197 
Q 2756 1666 2539 1819 
Q 2322 1972 1947 1972 
L 1259 1972 
L 1259 0 
L 628 0 
L 628 4666 
L 2053 4666 
Q 2853 4666 3247 4331 
Q 3641 3997 3641 3322 
Q 3641 2881 3436 2590 
Q 3231 2300 2841 2188 
z
M 1259 4147 
L 1259 2491 
L 2053 2491 
Q 2509 2491 2742 2702 
Q 2975 2913 2975 3322 
Q 2975 3731 2742 3939 
Q 2509 4147 2053 4147 
L 1259 4147 
z
" transform="scale(0.015625)"/>
      <path id="DejaVuSans-4d" d="M 628 4666 
L 1569 4666 
L 2759 1491 
L 3956 4666 
L 4897 4666 
L 4897 0 
L 4281 0 
L 4281 4097 
L 3078 897 
L 2444 897 
L 1241 4097 
L 1241 0 
L 628 0 
L 628 4666 
z
" transform="scale(0.015625)"/>
      <path id="DejaVuSans-28" d="M 1984 4856 
Q 1566 4138 1362 3434 
Q 1159 2731 1159 2009 
Q 1159 1288 1364 580 
Q 1569 -128 1984 -844 
L 1484 -844 
Q 1016 -109 783 600 
Q 550 1309 550 2009 
Q 550 2706 781 3412 
Q 1013 4119 1484 4856 
L 1984 4856 
z
" transform="scale(0.015625)"/>
      <path id="DejaVuSans-2c" d="M 750 794 
L 1409 794 
L 1409 256 
L 897 -744 
L 494 -744 
L 750 256 
L 750 794 
z
" transform="scale(0.015625)"/>
      <path id="DejaVuSans-29" d="M 513 4856 
L 1013 4856 
Q 1481 4119 1714 3412 
Q 1947 2706 1947 2009 
Q 1947 1309 1714 600 
Q 1481 -109 1013 -844 
L 513 -844 
Q 928 -128 1133 580 
Q 1338 1288 1338 2009 
Q 1338 2731 1133 3434 
Q 928 4138 513 4856 
z
" transform="scale(0.015625)"/>
      <path id="DejaVuSans-78" d="M 3513 3500 
L 2247 1797 
L 3578 0 
L 2900 0 
L 1881 1375 
L 863 0 
L 184 0 
L 1544 1831 
L 300 3500 
L 978 3500 
L 1906 2253 
L 2834 3500 
L 3513 3500 
z
" transform="scale(0.015625)"/>
      <path id="DejaVuSans-37" d="M 525 4666 
L 3525 4666 
L 3525 4397 
L 1831 0 
L 1172 0 
L 2766 4134 
L 525 4134 
L 525 4666 
z
" transform="scale(0.015625)"/>
      <path id="DejaVuSans-3d" d="M 678 2906 
L 4684 2906 
L 4684 2381 
L 678 2381 
L 678 2906 
z
M 678 1631 
L 4684 1631 
L 4684 1100 
L 678 1100 
L 678 1631 
z
" transform="scale(0.015625)"/>
      <path id="DejaVuSans-2e" d="M 684 794 
L 1344 794 
L 1344 0 
L 684 0 
L 684 794 
z
" transform="scale(0.015625)"/>
     </defs>
     <use xlink:href="#DejaVuSans-41"/>
     <use xlink:href="#DejaVuSans-52" x="68.408203"/>
     <use xlink:href="#DejaVuSans-49" x="137.890625"/>
     <use xlink:href="#DejaVuSans-4d" x="167.382812"/>
     <use xlink:href="#DejaVuSans-41" x="253.662109"/>
     <use xlink:href="#DejaVuSans-20" x="322.070312"/>
     <use xlink:href="#DejaVuSans-28" x="353.857422"/>
     <use xlink:href="#DejaVuSans-31" x="392.871094"/>
     <use xlink:href="#DejaVuSans-2c" x="456.494141"/>
     <use xlink:href="#DejaVuSans-20" x="488.28125"/>
     <use xlink:href="#DejaVuSans-31" x="520.068359"/>
     <use xlink:href="#DejaVuSans-2c" x="583.691406"/>
     <use xlink:href="#DejaVuSans-20" x="615.478516"/>
     <use xlink:href="#DejaVuSans-30" x="647.265625"/>
     <use xlink:href="#DejaVuSans-29" x="710.888672"/>
     <use xlink:href="#DejaVuSans-78" x="749.902344"/>
     <use xlink:href="#DejaVuSans-28" x="809.082031"/>
     <use xlink:href="#DejaVuSans-31" x="848.095703"/>
     <use xlink:href="#DejaVuSans-2c" x="911.71875"/>
     <use xlink:href="#DejaVuSans-20" x="943.505859"/>
     <use xlink:href="#DejaVuSans-30" x="975.292969"/>
     <use xlink:href="#DejaVuSans-2c" x="1038.916016"/>
     <use xlink:href="#DejaVuSans-20" x="1070.703125"/>
     <use xlink:href="#DejaVuSans-31" x="1102.490234"/>
     <use xlink:href="#DejaVuSans-2c" x="1166.113281"/>
     <use xlink:href="#DejaVuSans-20" x="1197.900391"/>
     <use xlink:href="#DejaVuSans-37" x="1229.6875"/>
     <use xlink:href="#DejaVuSans-29" x="1293.310547"/>
     <use xlink:href="#DejaVuSans-20" x="1332.324219"/>
     <use xlink:href="#DejaVuSans-28" x="1364.111328"/>
     <use xlink:href="#DejaVuSans-52" x="1403.125"/>
     <use xlink:href="#DejaVuSans-32" x="1472.607422"/>
     <use xlink:href="#DejaVuSans-20" x="1536.230469"/>
     <use xlink:href="#DejaVuSans-3d" x="1568.017578"/>
     <use xlink:href="#DejaVuSans-20" x="1651.806641"/>
     <use xlink:href="#DejaVuSans-30" x="1683.59375"/>
     <use xlink:href="#DejaVuSans-2e" x="1747.216797"/>
     <use xlink:href="#DejaVuSans-38" x="1779.003906"/>
     <use xlink:href="#DejaVuSans-35" x="1842.626953"/>
     <use xlink:href="#DejaVuSans-34" x="1906.25"/>
     <use xlink:href="#DejaVuSans-32" x="1969.873047"/>
     <use xlink:href="#DejaVuSans-32" x="2033.496094"/>
     <use xlink:href="#DejaVuSans-32" x="2097.119141"/>
     <use xlink:href="#DejaVuSans-29" x="2160.742188"/>
    </g>
   </g>
   <g id="legend_1">
    <g id="patch_7">
     <path d="M 1281.132812 87.789875 
L 1378.2125 87.789875 
Q 1380.2125 87.789875 1380.2125 85.789875 
L 1380.2125 42.7555 
Q 1380.2125 40.7555 1378.2125 40.7555 
L 1281.132812 40.7555 
Q 1279.132812 40.7555 1279.132812 42.7555 
L 1279.132812 85.789875 
Q 1279.132812 87.789875 1281.132812 87.789875 
z
" style="fill: #ffffff; opacity: 0.8; stroke: #cccccc; stroke-linejoin: miter"/>
    </g>
    <g id="line2d_22">
     <path d="M 1283.132812 48.853937 
L 1293.132812 48.853937 
L 1303.132812 48.853937 
" style="fill: none; stroke: #0000ff; stroke-width: 1.5; stroke-linecap: square"/>
    </g>
    <g id="text_20">
     <!-- Actual Value -->
     <g transform="translate(1311.132812 52.353937)scale(0.1 -0.1)">
      <defs>
       <path id="DejaVuSans-75" d="M 544 1381 
L 544 3500 
L 1119 3500 
L 1119 1403 
Q 1119 906 1312 657 
Q 1506 409 1894 409 
Q 2359 409 2629 706 
Q 2900 1003 2900 1516 
L 2900 3500 
L 3475 3500 
L 3475 0 
L 2900 0 
L 2900 538 
Q 2691 219 2414 64 
Q 2138 -91 1772 -91 
Q 1169 -91 856 284 
Q 544 659 544 1381 
z
M 1991 3584 
L 1991 3584 
z
" transform="scale(0.015625)"/>
       <path id="DejaVuSans-56" d="M 1831 0 
L 50 4666 
L 709 4666 
L 2188 738 
L 3669 4666 
L 4325 4666 
L 2547 0 
L 1831 0 
z
" transform="scale(0.015625)"/>
      </defs>
      <use xlink:href="#DejaVuSans-41"/>
      <use xlink:href="#DejaVuSans-63" x="66.658203"/>
      <use xlink:href="#DejaVuSans-74" x="121.638672"/>
      <use xlink:href="#DejaVuSans-75" x="160.847656"/>
      <use xlink:href="#DejaVuSans-61" x="224.226562"/>
      <use xlink:href="#DejaVuSans-6c" x="285.505859"/>
      <use xlink:href="#DejaVuSans-20" x="313.289062"/>
      <use xlink:href="#DejaVuSans-56" x="345.076172"/>
      <use xlink:href="#DejaVuSans-61" x="405.734375"/>
      <use xlink:href="#DejaVuSans-6c" x="467.013672"/>
      <use xlink:href="#DejaVuSans-75" x="494.796875"/>
      <use xlink:href="#DejaVuSans-65" x="558.175781"/>
     </g>
    </g>
    <g id="line2d_23">
     <path d="M 1283.132812 63.532062 
L 1293.132812 63.532062 
L 1303.132812 63.532062 
" style="fill: none; stroke: #ffa500; stroke-width: 1.5; stroke-linecap: square"/>
    </g>
    <g id="text_21">
     <!-- Check Value -->
     <g transform="translate(1311.132812 67.032062)scale(0.1 -0.1)">
      <defs>
       <path id="DejaVuSans-68" d="M 3513 2113 
L 3513 0 
L 2938 0 
L 2938 2094 
Q 2938 2591 2744 2837 
Q 2550 3084 2163 3084 
Q 1697 3084 1428 2787 
Q 1159 2491 1159 1978 
L 1159 0 
L 581 0 
L 581 4863 
L 1159 4863 
L 1159 2956 
Q 1366 3272 1645 3428 
Q 1925 3584 2291 3584 
Q 2894 3584 3203 3211 
Q 3513 2838 3513 2113 
z
" transform="scale(0.015625)"/>
       <path id="DejaVuSans-6b" d="M 581 4863 
L 1159 4863 
L 1159 1991 
L 2875 3500 
L 3609 3500 
L 1753 1863 
L 3688 0 
L 2938 0 
L 1159 1709 
L 1159 0 
L 581 0 
L 581 4863 
z
" transform="scale(0.015625)"/>
      </defs>
      <use xlink:href="#DejaVuSans-43"/>
      <use xlink:href="#DejaVuSans-68" x="69.824219"/>
      <use xlink:href="#DejaVuSans-65" x="133.203125"/>
      <use xlink:href="#DejaVuSans-63" x="194.726562"/>
      <use xlink:href="#DejaVuSans-6b" x="249.707031"/>
      <use xlink:href="#DejaVuSans-20" x="307.617188"/>
      <use xlink:href="#DejaVuSans-56" x="339.404297"/>
      <use xlink:href="#DejaVuSans-61" x="400.0625"/>
      <use xlink:href="#DejaVuSans-6c" x="461.341797"/>
      <use xlink:href="#DejaVuSans-75" x="489.125"/>
      <use xlink:href="#DejaVuSans-65" x="552.503906"/>
     </g>
    </g>
    <g id="line2d_24">
     <path d="M 1283.132812 78.210187 
L 1293.132812 78.210187 
L 1303.132812 78.210187 
" style="fill: none; stroke: #ff0000; stroke-width: 1.5; stroke-linecap: square"/>
    </g>
    <g id="text_22">
     <!-- Predict Value -->
     <g transform="translate(1311.132812 81.710187)scale(0.1 -0.1)">
      <defs>
       <path id="DejaVuSans-50" d="M 1259 4147 
L 1259 2394 
L 2053 2394 
Q 2494 2394 2734 2622 
Q 2975 2850 2975 3272 
Q 2975 3691 2734 3919 
Q 2494 4147 2053 4147 
L 1259 4147 
z
M 628 4666 
L 2053 4666 
Q 2838 4666 3239 4311 
Q 3641 3956 3641 3272 
Q 3641 2581 3239 2228 
Q 2838 1875 2053 1875 
L 1259 1875 
L 1259 0 
L 628 0 
L 628 4666 
z
" transform="scale(0.015625)"/>
      </defs>
      <use xlink:href="#DejaVuSans-50"/>
      <use xlink:href="#DejaVuSans-72" x="58.552734"/>
      <use xlink:href="#DejaVuSans-65" x="97.416016"/>
      <use xlink:href="#DejaVuSans-64" x="158.939453"/>
      <use xlink:href="#DejaVuSans-69" x="222.416016"/>
      <use xlink:href="#DejaVuSans-63" x="250.199219"/>
      <use xlink:href="#DejaVuSans-74" x="305.179688"/>
      <use xlink:href="#DejaVuSans-20" x="344.388672"/>
      <use xlink:href="#DejaVuSans-56" x="376.175781"/>
      <use xlink:href="#DejaVuSans-61" x="436.833984"/>
      <use xlink:href="#DejaVuSans-6c" x="498.113281"/>
      <use xlink:href="#DejaVuSans-75" x="525.896484"/>
      <use xlink:href="#DejaVuSans-65" x="589.275391"/>
     </g>
    </g>
   </g>
  </g>
 </g>
 <defs>
  <clipPath id="p98bbd756cd">
   <rect x="46.0125" y="35.7555" width="1339.2" height="332.64"/>
  </clipPath>
 </defs>
</svg>
