<?xml version="1.0" encoding="utf-8" standalone="no"?>
<!DOCTYPE svg PUBLIC "-//W3C//DTD SVG 1.1//EN"
  "http://www.w3.org/Graphics/SVG/1.1/DTD/svg11.dtd">
<svg xmlns:xlink="http://www.w3.org/1999/xlink" width="1399.528067pt" height="392.273625pt" viewBox="0 0 1399.528067 392.273625" xmlns="http://www.w3.org/2000/svg" version="1.1">
 <metadata>
  <rdf:RDF xmlns:dc="http://purl.org/dc/elements/1.1/" xmlns:cc="http://creativecommons.org/ns#" xmlns:rdf="http://www.w3.org/1999/02/22-rdf-syntax-ns#">
   <cc:Work>
    <dc:type rdf:resource="http://purl.org/dc/dcmitype/StillImage"/>
    <dc:date>2022-11-09T19:20:57.044659</dc:date>
    <dc:format>image/svg+xml</dc:format>
    <dc:creator>
     <cc:Agent>
      <dc:title>Matplotlib v3.5.1, https://matplotlib.org/</dc:title>
     </cc:Agent>
    </dc:creator>
   </cc:Work>
  </rdf:RDF>
 </metadata>
 <defs>
  <style type="text/css">*{stroke-linejoin: round; stroke-linecap: butt}</style>
 </defs>
 <g id="figure_1">
  <g id="patch_1">
   <path d="M 0 392.273625 
L 1399.528067 392.273625 
L 1399.528067 0 
L 0 0 
z
" style="fill: #ffffff"/>
  </g>
  <g id="axes_1">
   <g id="patch_2">
    <path d="M 46.0125 368.3955 
L 1385.2125 368.3955 
L 1385.2125 35.7555 
L 46.0125 35.7555 
z
" style="fill: #ffffff"/>
   </g>
   <g id="matplotlib.axis_1">
    <g id="xtick_1">
     <g id="line2d_1">
      <defs>
       <path id="m9582b134db" d="M 0 0 
L 0 3.5 
" style="stroke: #000000; stroke-width: 0.8"/>
      </defs>
      <g>
       <use xlink:href="#m9582b134db" x="80.981939" y="368.3955" style="stroke: #000000; stroke-width: 0.8"/>
      </g>
     </g>
     <g id="text_1">
      <!-- 2020-01 -->
      <g transform="translate(60.090533 382.993937)scale(0.1 -0.1)">
       <defs>
        <path id="DejaVuSans-32" d="M 1228 531 
L 3431 531 
L 3431 0 
L 469 0 
L 469 531 
Q 828 903 1448 1529 
Q 2069 2156 2228 2338 
Q 2531 2678 2651 2914 
Q 2772 3150 2772 3378 
Q 2772 3750 2511 3984 
Q 2250 4219 1831 4219 
Q 1534 4219 1204 4116 
Q 875 4013 500 3803 
L 500 4441 
Q 881 4594 1212 4672 
Q 1544 4750 1819 4750 
Q 2544 4750 2975 4387 
Q 3406 4025 3406 3419 
Q 3406 3131 3298 2873 
Q 3191 2616 2906 2266 
Q 2828 2175 2409 1742 
Q 1991 1309 1228 531 
z
" transform="scale(0.015625)"/>
        <path id="DejaVuSans-30" d="M 2034 4250 
Q 1547 4250 1301 3770 
Q 1056 3291 1056 2328 
Q 1056 1369 1301 889 
Q 1547 409 2034 409 
Q 2525 409 2770 889 
Q 3016 1369 3016 2328 
Q 3016 3291 2770 3770 
Q 2525 4250 2034 4250 
z
M 2034 4750 
Q 2819 4750 3233 4129 
Q 3647 3509 3647 2328 
Q 3647 1150 3233 529 
Q 2819 -91 2034 -91 
Q 1250 -91 836 529 
Q 422 1150 422 2328 
Q 422 3509 836 4129 
Q 1250 4750 2034 4750 
z
" transform="scale(0.015625)"/>
        <path id="DejaVuSans-2d" d="M 313 2009 
L 1997 2009 
L 1997 1497 
L 313 1497 
L 313 2009 
z
" transform="scale(0.015625)"/>
        <path id="DejaVuSans-31" d="M 794 531 
L 1825 531 
L 1825 4091 
L 703 3866 
L 703 4441 
L 1819 4666 
L 2450 4666 
L 2450 531 
L 3481 531 
L 3481 0 
L 794 0 
L 794 531 
z
" transform="scale(0.015625)"/>
       </defs>
       <use xlink:href="#DejaVuSans-32"/>
       <use xlink:href="#DejaVuSans-30" x="63.623047"/>
       <use xlink:href="#DejaVuSans-32" x="127.246094"/>
       <use xlink:href="#DejaVuSans-30" x="190.869141"/>
       <use xlink:href="#DejaVuSans-2d" x="254.492188"/>
       <use xlink:href="#DejaVuSans-30" x="290.576172"/>
       <use xlink:href="#DejaVuSans-31" x="354.199219"/>
      </g>
     </g>
    </g>
    <g id="xtick_2">
     <g id="line2d_2">
      <g>
       <use xlink:href="#m9582b134db" x="223.450024" y="368.3955" style="stroke: #000000; stroke-width: 0.8"/>
      </g>
     </g>
     <g id="text_2">
      <!-- 2020-05 -->
      <g transform="translate(202.558618 382.993937)scale(0.1 -0.1)">
       <defs>
        <path id="DejaVuSans-35" d="M 691 4666 
L 3169 4666 
L 3169 4134 
L 1269 4134 
L 1269 2991 
Q 1406 3038 1543 3061 
Q 1681 3084 1819 3084 
Q 2600 3084 3056 2656 
Q 3513 2228 3513 1497 
Q 3513 744 3044 326 
Q 2575 -91 1722 -91 
Q 1428 -91 1123 -41 
Q 819 9 494 109 
L 494 744 
Q 775 591 1075 516 
Q 1375 441 1709 441 
Q 2250 441 2565 725 
Q 2881 1009 2881 1497 
Q 2881 1984 2565 2268 
Q 2250 2553 1709 2553 
Q 1456 2553 1204 2497 
Q 953 2441 691 2322 
L 691 4666 
z
" transform="scale(0.015625)"/>
       </defs>
       <use xlink:href="#DejaVuSans-32"/>
       <use xlink:href="#DejaVuSans-30" x="63.623047"/>
       <use xlink:href="#DejaVuSans-32" x="127.246094"/>
       <use xlink:href="#DejaVuSans-30" x="190.869141"/>
       <use xlink:href="#DejaVuSans-2d" x="254.492188"/>
       <use xlink:href="#DejaVuSans-30" x="290.576172"/>
       <use xlink:href="#DejaVuSans-35" x="354.199219"/>
      </g>
     </g>
    </g>
    <g id="xtick_3">
     <g id="line2d_3">
      <g>
       <use xlink:href="#m9582b134db" x="368.272954" y="368.3955" style="stroke: #000000; stroke-width: 0.8"/>
      </g>
     </g>
     <g id="text_3">
      <!-- 2020-09 -->
      <g transform="translate(347.381547 382.993937)scale(0.1 -0.1)">
       <defs>
        <path id="DejaVuSans-39" d="M 703 97 
L 703 672 
Q 941 559 1184 500 
Q 1428 441 1663 441 
Q 2288 441 2617 861 
Q 2947 1281 2994 2138 
Q 2813 1869 2534 1725 
Q 2256 1581 1919 1581 
Q 1219 1581 811 2004 
Q 403 2428 403 3163 
Q 403 3881 828 4315 
Q 1253 4750 1959 4750 
Q 2769 4750 3195 4129 
Q 3622 3509 3622 2328 
Q 3622 1225 3098 567 
Q 2575 -91 1691 -91 
Q 1453 -91 1209 -44 
Q 966 3 703 97 
z
M 1959 2075 
Q 2384 2075 2632 2365 
Q 2881 2656 2881 3163 
Q 2881 3666 2632 3958 
Q 2384 4250 1959 4250 
Q 1534 4250 1286 3958 
Q 1038 3666 1038 3163 
Q 1038 2656 1286 2365 
Q 1534 2075 1959 2075 
z
" transform="scale(0.015625)"/>
       </defs>
       <use xlink:href="#DejaVuSans-32"/>
       <use xlink:href="#DejaVuSans-30" x="63.623047"/>
       <use xlink:href="#DejaVuSans-32" x="127.246094"/>
       <use xlink:href="#DejaVuSans-30" x="190.869141"/>
       <use xlink:href="#DejaVuSans-2d" x="254.492188"/>
       <use xlink:href="#DejaVuSans-30" x="290.576172"/>
       <use xlink:href="#DejaVuSans-39" x="354.199219"/>
      </g>
     </g>
    </g>
    <g id="xtick_4">
     <g id="line2d_4">
      <g>
       <use xlink:href="#m9582b134db" x="511.918461" y="368.3955" style="stroke: #000000; stroke-width: 0.8"/>
      </g>
     </g>
     <g id="text_4">
      <!-- 2021-01 -->
      <g transform="translate(491.027055 382.993937)scale(0.1 -0.1)">
       <use xlink:href="#DejaVuSans-32"/>
       <use xlink:href="#DejaVuSans-30" x="63.623047"/>
       <use xlink:href="#DejaVuSans-32" x="127.246094"/>
       <use xlink:href="#DejaVuSans-31" x="190.869141"/>
       <use xlink:href="#DejaVuSans-2d" x="254.492188"/>
       <use xlink:href="#DejaVuSans-30" x="290.576172"/>
       <use xlink:href="#DejaVuSans-31" x="354.199219"/>
      </g>
     </g>
    </g>
    <g id="xtick_5">
     <g id="line2d_5">
      <g>
       <use xlink:href="#m9582b134db" x="653.209124" y="368.3955" style="stroke: #000000; stroke-width: 0.8"/>
      </g>
     </g>
     <g id="text_5">
      <!-- 2021-05 -->
      <g transform="translate(632.317718 382.993937)scale(0.1 -0.1)">
       <use xlink:href="#DejaVuSans-32"/>
       <use xlink:href="#DejaVuSans-30" x="63.623047"/>
       <use xlink:href="#DejaVuSans-32" x="127.246094"/>
       <use xlink:href="#DejaVuSans-31" x="190.869141"/>
       <use xlink:href="#DejaVuSans-2d" x="254.492188"/>
       <use xlink:href="#DejaVuSans-30" x="290.576172"/>
       <use xlink:href="#DejaVuSans-35" x="354.199219"/>
      </g>
     </g>
    </g>
    <g id="xtick_6">
     <g id="line2d_6">
      <g>
       <use xlink:href="#m9582b134db" x="798.032053" y="368.3955" style="stroke: #000000; stroke-width: 0.8"/>
      </g>
     </g>
     <g id="text_6">
      <!-- 2021-09 -->
      <g transform="translate(777.140647 382.993937)scale(0.1 -0.1)">
       <use xlink:href="#DejaVuSans-32"/>
       <use xlink:href="#DejaVuSans-30" x="63.623047"/>
       <use xlink:href="#DejaVuSans-32" x="127.246094"/>
       <use xlink:href="#DejaVuSans-31" x="190.869141"/>
       <use xlink:href="#DejaVuSans-2d" x="254.492188"/>
       <use xlink:href="#DejaVuSans-30" x="290.576172"/>
       <use xlink:href="#DejaVuSans-39" x="354.199219"/>
      </g>
     </g>
    </g>
    <g id="xtick_7">
     <g id="line2d_7">
      <g>
       <use xlink:href="#m9582b134db" x="941.677561" y="368.3955" style="stroke: #000000; stroke-width: 0.8"/>
      </g>
     </g>
     <g id="text_7">
      <!-- 2022-01 -->
      <g transform="translate(920.786154 382.993937)scale(0.1 -0.1)">
       <use xlink:href="#DejaVuSans-32"/>
       <use xlink:href="#DejaVuSans-30" x="63.623047"/>
       <use xlink:href="#DejaVuSans-32" x="127.246094"/>
       <use xlink:href="#DejaVuSans-32" x="190.869141"/>
       <use xlink:href="#DejaVuSans-2d" x="254.492188"/>
       <use xlink:href="#DejaVuSans-30" x="290.576172"/>
       <use xlink:href="#DejaVuSans-31" x="354.199219"/>
      </g>
     </g>
    </g>
    <g id="xtick_8">
     <g id="line2d_8">
      <g>
       <use xlink:href="#m9582b134db" x="1082.968224" y="368.3955" style="stroke: #000000; stroke-width: 0.8"/>
      </g>
     </g>
     <g id="text_8">
      <!-- 2022-05 -->
      <g transform="translate(1062.076817 382.993937)scale(0.1 -0.1)">
       <use xlink:href="#DejaVuSans-32"/>
       <use xlink:href="#DejaVuSans-30" x="63.623047"/>
       <use xlink:href="#DejaVuSans-32" x="127.246094"/>
       <use xlink:href="#DejaVuSans-32" x="190.869141"/>
       <use xlink:href="#DejaVuSans-2d" x="254.492188"/>
       <use xlink:href="#DejaVuSans-30" x="290.576172"/>
       <use xlink:href="#DejaVuSans-35" x="354.199219"/>
      </g>
     </g>
    </g>
    <g id="xtick_9">
     <g id="line2d_9">
      <g>
       <use xlink:href="#m9582b134db" x="1227.791153" y="368.3955" style="stroke: #000000; stroke-width: 0.8"/>
      </g>
     </g>
     <g id="text_9">
      <!-- 2022-09 -->
      <g transform="translate(1206.899747 382.993937)scale(0.1 -0.1)">
       <use xlink:href="#DejaVuSans-32"/>
       <use xlink:href="#DejaVuSans-30" x="63.623047"/>
       <use xlink:href="#DejaVuSans-32" x="127.246094"/>
       <use xlink:href="#DejaVuSans-32" x="190.869141"/>
       <use xlink:href="#DejaVuSans-2d" x="254.492188"/>
       <use xlink:href="#DejaVuSans-30" x="290.576172"/>
       <use xlink:href="#DejaVuSans-39" x="354.199219"/>
      </g>
     </g>
    </g>
    <g id="xtick_10">
     <g id="line2d_10">
      <g>
       <use xlink:href="#m9582b134db" x="1371.43666" y="368.3955" style="stroke: #000000; stroke-width: 0.8"/>
      </g>
     </g>
     <g id="text_10">
      <!-- 2023-01 -->
      <g transform="translate(1350.545254 382.993937)scale(0.1 -0.1)">
       <defs>
        <path id="DejaVuSans-33" d="M 2597 2516 
Q 3050 2419 3304 2112 
Q 3559 1806 3559 1356 
Q 3559 666 3084 287 
Q 2609 -91 1734 -91 
Q 1441 -91 1130 -33 
Q 819 25 488 141 
L 488 750 
Q 750 597 1062 519 
Q 1375 441 1716 441 
Q 2309 441 2620 675 
Q 2931 909 2931 1356 
Q 2931 1769 2642 2001 
Q 2353 2234 1838 2234 
L 1294 2234 
L 1294 2753 
L 1863 2753 
Q 2328 2753 2575 2939 
Q 2822 3125 2822 3475 
Q 2822 3834 2567 4026 
Q 2313 4219 1838 4219 
Q 1578 4219 1281 4162 
Q 984 4106 628 3988 
L 628 4550 
Q 988 4650 1302 4700 
Q 1616 4750 1894 4750 
Q 2613 4750 3031 4423 
Q 3450 4097 3450 3541 
Q 3450 3153 3228 2886 
Q 3006 2619 2597 2516 
z
" transform="scale(0.015625)"/>
       </defs>
       <use xlink:href="#DejaVuSans-32"/>
       <use xlink:href="#DejaVuSans-30" x="63.623047"/>
       <use xlink:href="#DejaVuSans-32" x="127.246094"/>
       <use xlink:href="#DejaVuSans-33" x="190.869141"/>
       <use xlink:href="#DejaVuSans-2d" x="254.492188"/>
       <use xlink:href="#DejaVuSans-30" x="290.576172"/>
       <use xlink:href="#DejaVuSans-31" x="354.199219"/>
      </g>
     </g>
    </g>
   </g>
   <g id="matplotlib.axis_2">
    <g id="ytick_1">
     <g id="line2d_11">
      <defs>
       <path id="m88dd8e3c3e" d="M 0 0 
L -3.5 0 
" style="stroke: #000000; stroke-width: 0.8"/>
      </defs>
      <g>
       <use xlink:href="#m88dd8e3c3e" x="46.0125" y="351.845175" style="stroke: #000000; stroke-width: 0.8"/>
      </g>
     </g>
     <g id="text_11">
      <!-- 0 -->
      <g transform="translate(32.65 355.644394)scale(0.1 -0.1)">
       <use xlink:href="#DejaVuSans-30"/>
      </g>
     </g>
    </g>
    <g id="ytick_2">
     <g id="line2d_12">
      <g>
       <use xlink:href="#m88dd8e3c3e" x="46.0125" y="312.900328" style="stroke: #000000; stroke-width: 0.8"/>
      </g>
     </g>
     <g id="text_12">
      <!-- 10000 -->
      <g transform="translate(7.2 316.699547)scale(0.1 -0.1)">
       <use xlink:href="#DejaVuSans-31"/>
       <use xlink:href="#DejaVuSans-30" x="63.623047"/>
       <use xlink:href="#DejaVuSans-30" x="127.246094"/>
       <use xlink:href="#DejaVuSans-30" x="190.869141"/>
       <use xlink:href="#DejaVuSans-30" x="254.492188"/>
      </g>
     </g>
    </g>
    <g id="ytick_3">
     <g id="line2d_13">
      <g>
       <use xlink:href="#m88dd8e3c3e" x="46.0125" y="273.955481" style="stroke: #000000; stroke-width: 0.8"/>
      </g>
     </g>
     <g id="text_13">
      <!-- 20000 -->
      <g transform="translate(7.2 277.754699)scale(0.1 -0.1)">
       <use xlink:href="#DejaVuSans-32"/>
       <use xlink:href="#DejaVuSans-30" x="63.623047"/>
       <use xlink:href="#DejaVuSans-30" x="127.246094"/>
       <use xlink:href="#DejaVuSans-30" x="190.869141"/>
       <use xlink:href="#DejaVuSans-30" x="254.492188"/>
      </g>
     </g>
    </g>
    <g id="ytick_4">
     <g id="line2d_14">
      <g>
       <use xlink:href="#m88dd8e3c3e" x="46.0125" y="235.010633" style="stroke: #000000; stroke-width: 0.8"/>
      </g>
     </g>
     <g id="text_14">
      <!-- 30000 -->
      <g transform="translate(7.2 238.809852)scale(0.1 -0.1)">
       <use xlink:href="#DejaVuSans-33"/>
       <use xlink:href="#DejaVuSans-30" x="63.623047"/>
       <use xlink:href="#DejaVuSans-30" x="127.246094"/>
       <use xlink:href="#DejaVuSans-30" x="190.869141"/>
       <use xlink:href="#DejaVuSans-30" x="254.492188"/>
      </g>
     </g>
    </g>
    <g id="ytick_5">
     <g id="line2d_15">
      <g>
       <use xlink:href="#m88dd8e3c3e" x="46.0125" y="196.065786" style="stroke: #000000; stroke-width: 0.8"/>
      </g>
     </g>
     <g id="text_15">
      <!-- 40000 -->
      <g transform="translate(7.2 199.865004)scale(0.1 -0.1)">
       <defs>
        <path id="DejaVuSans-34" d="M 2419 4116 
L 825 1625 
L 2419 1625 
L 2419 4116 
z
M 2253 4666 
L 3047 4666 
L 3047 1625 
L 3713 1625 
L 3713 1100 
L 3047 1100 
L 3047 0 
L 2419 0 
L 2419 1100 
L 313 1100 
L 313 1709 
L 2253 4666 
z
" transform="scale(0.015625)"/>
       </defs>
       <use xlink:href="#DejaVuSans-34"/>
       <use xlink:href="#DejaVuSans-30" x="63.623047"/>
       <use xlink:href="#DejaVuSans-30" x="127.246094"/>
       <use xlink:href="#DejaVuSans-30" x="190.869141"/>
       <use xlink:href="#DejaVuSans-30" x="254.492188"/>
      </g>
     </g>
    </g>
    <g id="ytick_6">
     <g id="line2d_16">
      <g>
       <use xlink:href="#m88dd8e3c3e" x="46.0125" y="157.120938" style="stroke: #000000; stroke-width: 0.8"/>
      </g>
     </g>
     <g id="text_16">
      <!-- 50000 -->
      <g transform="translate(7.2 160.920157)scale(0.1 -0.1)">
       <use xlink:href="#DejaVuSans-35"/>
       <use xlink:href="#DejaVuSans-30" x="63.623047"/>
       <use xlink:href="#DejaVuSans-30" x="127.246094"/>
       <use xlink:href="#DejaVuSans-30" x="190.869141"/>
       <use xlink:href="#DejaVuSans-30" x="254.492188"/>
      </g>
     </g>
    </g>
    <g id="ytick_7">
     <g id="line2d_17">
      <g>
       <use xlink:href="#m88dd8e3c3e" x="46.0125" y="118.176091" style="stroke: #000000; stroke-width: 0.8"/>
      </g>
     </g>
     <g id="text_17">
      <!-- 60000 -->
      <g transform="translate(7.2 121.97531)scale(0.1 -0.1)">
       <defs>
        <path id="DejaVuSans-36" d="M 2113 2584 
Q 1688 2584 1439 2293 
Q 1191 2003 1191 1497 
Q 1191 994 1439 701 
Q 1688 409 2113 409 
Q 2538 409 2786 701 
Q 3034 994 3034 1497 
Q 3034 2003 2786 2293 
Q 2538 2584 2113 2584 
z
M 3366 4563 
L 3366 3988 
Q 3128 4100 2886 4159 
Q 2644 4219 2406 4219 
Q 1781 4219 1451 3797 
Q 1122 3375 1075 2522 
Q 1259 2794 1537 2939 
Q 1816 3084 2150 3084 
Q 2853 3084 3261 2657 
Q 3669 2231 3669 1497 
Q 3669 778 3244 343 
Q 2819 -91 2113 -91 
Q 1303 -91 875 529 
Q 447 1150 447 2328 
Q 447 3434 972 4092 
Q 1497 4750 2381 4750 
Q 2619 4750 2861 4703 
Q 3103 4656 3366 4563 
z
" transform="scale(0.015625)"/>
       </defs>
       <use xlink:href="#DejaVuSans-36"/>
       <use xlink:href="#DejaVuSans-30" x="63.623047"/>
       <use xlink:href="#DejaVuSans-30" x="127.246094"/>
       <use xlink:href="#DejaVuSans-30" x="190.869141"/>
       <use xlink:href="#DejaVuSans-30" x="254.492188"/>
      </g>
     </g>
    </g>
    <g id="ytick_8">
     <g id="line2d_18">
      <g>
       <use xlink:href="#m88dd8e3c3e" x="46.0125" y="79.231243" style="stroke: #000000; stroke-width: 0.8"/>
      </g>
     </g>
     <g id="text_18">
      <!-- 70000 -->
      <g transform="translate(7.2 83.030462)scale(0.1 -0.1)">
       <defs>
        <path id="DejaVuSans-37" d="M 525 4666 
L 3525 4666 
L 3525 4397 
L 1831 0 
L 1172 0 
L 2766 4134 
L 525 4134 
L 525 4666 
z
" transform="scale(0.015625)"/>
       </defs>
       <use xlink:href="#DejaVuSans-37"/>
       <use xlink:href="#DejaVuSans-30" x="63.623047"/>
       <use xlink:href="#DejaVuSans-30" x="127.246094"/>
       <use xlink:href="#DejaVuSans-30" x="190.869141"/>
       <use xlink:href="#DejaVuSans-30" x="254.492188"/>
      </g>
     </g>
    </g>
    <g id="ytick_9">
     <g id="line2d_19">
      <g>
       <use xlink:href="#m88dd8e3c3e" x="46.0125" y="40.286396" style="stroke: #000000; stroke-width: 0.8"/>
      </g>
     </g>
     <g id="text_19">
      <!-- 80000 -->
      <g transform="translate(7.2 44.085615)scale(0.1 -0.1)">
       <defs>
        <path id="DejaVuSans-38" d="M 2034 2216 
Q 1584 2216 1326 1975 
Q 1069 1734 1069 1313 
Q 1069 891 1326 650 
Q 1584 409 2034 409 
Q 2484 409 2743 651 
Q 3003 894 3003 1313 
Q 3003 1734 2745 1975 
Q 2488 2216 2034 2216 
z
M 1403 2484 
Q 997 2584 770 2862 
Q 544 3141 544 3541 
Q 544 4100 942 4425 
Q 1341 4750 2034 4750 
Q 2731 4750 3128 4425 
Q 3525 4100 3525 3541 
Q 3525 3141 3298 2862 
Q 3072 2584 2669 2484 
Q 3125 2378 3379 2068 
Q 3634 1759 3634 1313 
Q 3634 634 3220 271 
Q 2806 -91 2034 -91 
Q 1263 -91 848 271 
Q 434 634 434 1313 
Q 434 1759 690 2068 
Q 947 2378 1403 2484 
z
M 1172 3481 
Q 1172 3119 1398 2916 
Q 1625 2713 2034 2713 
Q 2441 2713 2670 2916 
Q 2900 3119 2900 3481 
Q 2900 3844 2670 4047 
Q 2441 4250 2034 4250 
Q 1625 4250 1398 4047 
Q 1172 3844 1172 3481 
z
" transform="scale(0.015625)"/>
       </defs>
       <use xlink:href="#DejaVuSans-38"/>
       <use xlink:href="#DejaVuSans-30" x="63.623047"/>
       <use xlink:href="#DejaVuSans-30" x="127.246094"/>
       <use xlink:href="#DejaVuSans-30" x="190.869141"/>
       <use xlink:href="#DejaVuSans-30" x="254.492188"/>
      </g>
     </g>
    </g>
   </g>
   <g id="line2d_20">
    <path d="M 106.885227 351.845175 
L 164.578915 351.845175 
L 165.756337 351.638768 
L 169.288603 351.51025 
L 170.466026 351.389521 
L 171.643448 351.845175 
L 172.82087 350.532734 
L 173.998292 350.929971 
L 175.175714 350.832609 
L 176.353137 350.59894 
L 177.530559 350.053712 
L 178.707981 350.669041 
L 179.885403 349.379967 
L 181.062825 349.707103 
L 183.41767 348.33235 
L 184.595092 348.760743 
L 185.772514 350.108235 
L 186.949936 347.814384 
L 188.127358 348.698432 
L 189.304781 348.795794 
L 190.482203 348.527074 
L 191.659625 349.360494 
L 192.837047 348.908734 
L 194.014469 350.084868 
L 195.191892 349.072302 
L 196.369314 349.122931 
L 197.546736 348.67117 
L 198.724158 345.941137 
L 199.90158 349.839516 
L 201.079003 349.516274 
L 202.256425 350.486 
L 203.433847 349.84341 
L 205.788691 348.924312 
L 206.966114 351.140274 
L 208.143536 349.263132 
L 209.320958 349.816149 
L 210.49838 349.286499 
L 211.675802 349.835621 
L 212.853224 349.496801 
L 214.030647 350.400322 
L 215.208069 350.116024 
L 216.385491 349.527957 
L 217.562913 350.006979 
L 218.740335 351.210374 
L 219.917758 350.696302 
L 221.09518 351.132485 
L 222.272602 349.742154 
L 223.450024 350.653463 
L 224.627446 352.472187 
L 225.804869 351.486883 
L 226.982291 350.90271 
L 228.159713 351.151957 
L 229.337135 349.975823 
L 230.514557 349.769415 
L 231.69198 349.691525 
L 232.869402 351.307737 
L 234.046824 351.163641 
L 235.224246 351.463516 
L 236.401668 350.933866 
L 238.756513 351.116907 
L 239.933935 350.817031 
L 241.111357 350.961127 
L 242.288779 350.965022 
L 243.466201 351.17143 
L 244.643624 350.976705 
L 246.998468 350.863765 
L 248.17589 350.723564 
L 249.353312 350.78977 
L 250.530735 351.253214 
L 251.708157 351.202585 
L 255.240423 350.661252 
L 256.417846 350.482106 
L 257.595268 350.844293 
L 258.77269 350.688513 
L 259.950112 351.066278 
L 261.127534 351.085751 
L 262.304956 350.419794 
L 263.482379 350.556101 
L 264.659801 350.376955 
L 265.837223 350.357482 
L 267.014645 350.513262 
L 268.192067 351.097434 
L 269.36949 350.205597 
L 270.546912 350.700197 
L 271.724334 350.637885 
L 272.901756 350.793665 
L 274.079178 350.743036 
L 275.256601 350.961127 
L 276.434023 350.497684 
L 277.611445 350.67683 
L 278.788867 350.536629 
L 279.966289 350.221175 
L 281.143712 350.384744 
L 282.321134 350.376955 
L 283.498556 350.707986 
L 284.675978 350.836504 
L 285.8534 350.501578 
L 287.030822 350.4159 
L 288.208245 350.633991 
L 289.385667 350.088763 
L 290.563089 350.587257 
L 291.740511 350.065396 
L 292.917933 350.809242 
L 294.095356 350.953338 
L 295.272778 350.626202 
L 296.4502 350.567784 
L 298.805044 350.236753 
L 301.159889 350.941655 
L 302.337311 350.727458 
L 303.514733 350.119919 
L 305.869578 350.279593 
L 307.047 349.734365 
L 308.224422 350.71188 
L 309.401844 350.653463 
L 310.579266 350.93776 
L 311.756689 350.384744 
L 314.111533 350.630096 
L 315.288955 350.626202 
L 316.466377 350.887132 
L 317.643799 351.31942 
L 318.821222 351.350576 
L 319.998644 350.863765 
L 321.176066 350.953338 
L 322.353488 350.626202 
L 327.063177 351.412888 
L 328.240599 351.054595 
L 329.418021 350.852082 
L 330.595444 351.050701 
L 331.772866 350.918288 
L 332.950288 351.249319 
L 334.12771 351.43236 
L 335.305132 351.408993 
L 338.837399 350.715775 
L 340.014821 351.120801 
L 341.192243 351.334998 
L 342.369665 351.233741 
L 343.547088 351.377837 
L 344.72451 350.762509 
L 345.901932 350.579468 
L 347.079354 350.929971 
L 348.256776 351.074067 
L 349.434199 351.373943 
L 350.611621 351.331103 
L 351.789043 351.011756 
L 354.143887 350.71188 
L 355.32131 350.992283 
L 356.498732 350.906605 
L 357.676154 351.280475 
L 358.853576 351.366154 
L 360.030998 351.097434 
L 361.208421 350.435372 
L 362.385843 350.291276 
L 363.563265 350.283487 
L 365.918109 350.59894 
L 367.095531 350.894921 
L 368.272954 350.945549 
L 369.450376 350.326326 
L 370.627798 350.217281 
L 371.80522 350.264015 
L 372.982642 349.952456 
L 374.160065 350.618413 
L 375.337487 350.875449 
L 376.514909 350.334115 
L 377.692331 349.329338 
L 378.869753 349.566902 
L 380.047176 349.169664 
L 381.224598 349.909616 
L 382.40202 349.224187 
L 383.579442 349.457856 
L 384.756864 350.190019 
L 387.111709 348.846422 
L 388.289131 348.807477 
L 389.466553 348.538758 
L 390.643975 349.69542 
L 391.821397 349.418911 
L 392.99882 350.042029 
L 394.176242 348.721799 
L 395.353664 349.154086 
L 396.531086 348.344034 
L 397.708508 348.402451 
L 400.063353 350.190019 
L 401.240775 349.16577 
L 402.418197 348.632226 
L 404.773042 348.386873 
L 405.950464 348.094787 
L 407.127886 348.324561 
L 408.305308 348.986624 
L 409.48273 350.18223 
L 410.660153 348.168782 
L 411.837575 346.868024 
L 413.014997 346.416264 
L 414.192419 345.434854 
L 415.369841 347.600187 
L 416.547263 346.980964 
L 417.724686 347.140638 
L 418.902108 343.775803 
L 420.07953 343.662863 
L 421.256952 341.688359 
L 422.434374 343.46035 
L 423.611797 344.617012 
L 424.789219 344.254825 
L 425.966641 344.539122 
L 427.144063 341.972657 
L 428.321485 339.11021 
L 429.498908 340.555064 
L 430.67633 337.556311 
L 431.853752 341.809088 
L 433.031174 342.315371 
L 434.208596 338.99727 
L 435.386019 336.423016 
L 436.563441 335.394872 
L 437.740863 333.712454 
L 438.918285 336.239975 
L 440.095707 339.920263 
L 441.27313 342.085597 
L 442.450552 341.735093 
L 443.627974 322.648223 
L 444.805396 334.670498 
L 447.16024 325.985797 
L 448.337663 329.319476 
L 449.515085 335.893366 
L 450.692507 336.979927 
L 451.869929 332.625893 
L 453.047351 329.105279 
L 454.224774 325.935168 
L 455.402196 326.133787 
L 456.579618 328.34196 
L 457.75704 319.244444 
L 458.934462 334.506929 
L 460.111885 328.902766 
L 461.289307 324.607149 
L 462.466729 326.573864 
L 463.644151 326.64007 
L 464.821573 333.198382 
L 465.998996 336.095879 
L 467.176418 336.58269 
L 468.35384 331.243351 
L 469.531262 326.986679 
L 470.708684 330.6436 
L 471.886106 332.886824 
L 474.240951 339.141366 
L 475.418373 342.494518 
L 476.595795 338.666239 
L 477.773217 337.155179 
L 480.128062 328.139447 
L 481.305484 336.913721 
L 482.482906 341.731199 
L 483.660328 340.531697 
L 484.837751 335.889471 
L 486.015173 339.63986 
L 487.192595 332.061193 
L 488.370017 334.658814 
L 489.547439 336.095879 
L 490.724862 343.300676 
L 491.902284 341.571525 
L 493.079706 333.463207 
L 494.257128 335.021001 
L 495.43455 334.95869 
L 497.789395 338.860963 
L 498.966817 343.670652 
L 500.144239 342.358211 
L 501.321661 333.922757 
L 503.676506 335.698642 
L 504.853928 347.117271 
L 506.03135 345.703573 
L 507.208772 343.694019 
L 508.386194 338.853174 
L 509.563617 328.287437 
L 510.741039 322.14194 
L 511.918461 324.774612 
L 513.095883 339.22315 
L 514.273305 338.666239 
L 515.450728 334.830172 
L 516.62815 332.544109 
L 517.805572 312.795177 
L 518.982994 313.184625 
L 520.160416 312.214899 
L 521.337838 314.933249 
L 523.692683 330.020483 
L 524.870105 323.575111 
L 526.047527 310.734994 
L 527.224949 310.181978 
L 528.402372 310.318285 
L 529.579794 309.212251 
L 530.757216 311.400951 
L 531.934638 325.744339 
L 533.11206 311.128337 
L 534.289483 294.802657 
L 535.466905 299.098274 
L 536.644327 297.373017 
L 537.821749 292.131041 
L 538.999171 306.19792 
L 540.176594 324.883658 
L 541.354016 309.921047 
L 542.531438 293.143607 
L 543.70886 287.851002 
L 544.886282 300.437977 
L 546.063705 303.417258 
L 547.241127 314.855359 
L 548.418549 329.237691 
L 549.595971 330.26973 
L 550.773393 316.47157 
L 551.950815 321.024223 
L 553.128238 324.910919 
L 554.30566 327.964195 
L 555.483082 338.183323 
L 556.660504 342.089491 
L 557.837926 341.785721 
L 559.015349 334.760071 
L 560.192771 338.292369 
L 561.370193 340.730316 
L 562.547615 340.722527 
L 563.725037 345.314124 
L 564.90246 346.770662 
L 566.079882 345.995659 
L 567.257304 342.794393 
L 568.434726 344.274297 
L 569.612148 344.289875 
L 571.966993 347.226317 
L 573.144415 349.707103 
L 575.499259 346.081338 
L 576.676681 347.327573 
L 577.854104 347.84554 
L 579.031526 347.674182 
L 581.38637 350.310748 
L 583.741215 348.032475 
L 584.918637 348.612753 
L 586.096059 348.149309 
L 587.273481 347.923429 
L 589.628326 350.423688 
L 590.805748 348.546547 
L 591.98317 349.344916 
L 593.160592 349.403333 
L 594.338014 349.598058 
L 596.692859 349.738259 
L 597.870281 350.848187 
L 599.047703 350.349693 
L 600.225125 349.224187 
L 601.402547 349.95635 
L 602.57997 349.633108 
L 603.757392 350.065396 
L 604.934814 350.092657 
L 606.112236 350.879343 
L 607.289658 350.154969 
L 608.467081 349.605847 
L 609.644503 350.197808 
L 610.821925 349.944667 
L 611.999347 350.505473 
L 613.176769 350.423688 
L 614.354192 350.64178 
L 615.531614 350.334115 
L 616.709036 349.438384 
L 619.06388 349.710998 
L 620.241303 350.75472 
L 621.418725 351.09354 
L 622.596147 351.225952 
L 623.773569 348.441396 
L 624.950991 349.263132 
L 626.128413 349.500696 
L 627.305836 349.142403 
L 628.483258 349.50459 
L 629.66068 349.640897 
L 630.838102 350.78977 
L 632.015524 350.256226 
L 633.192947 349.181348 
L 634.370369 349.894039 
L 635.547791 349.691525 
L 636.725213 349.317655 
L 639.080058 350.988389 
L 641.434902 349.46954 
L 642.612324 349.368283 
L 643.789746 349.874566 
L 644.967169 349.637003 
L 646.144591 349.983612 
L 647.322013 351.081856 
L 648.499435 350.470422 
L 649.676857 349.61753 
L 650.854279 350.014768 
L 653.209124 350.077079 
L 655.563968 351.144168 
L 656.74139 350.840398 
L 657.918813 350.33801 
L 660.273657 350.376955 
L 661.451079 350.264015 
L 662.628501 350.583362 
L 663.805924 351.229847 
L 664.983346 350.801454 
L 666.160768 349.95635 
L 667.33819 350.14718 
L 669.693035 350.018662 
L 672.047879 351.070173 
L 673.225301 350.341904 
L 674.402723 349.855094 
L 675.580146 350.088763 
L 676.757568 349.668158 
L 677.93499 349.80836 
L 679.112412 350.236753 
L 680.289834 350.906605 
L 681.467256 350.384744 
L 682.644679 349.531851 
L 683.822101 349.61753 
L 686.176945 349.473434 
L 687.354367 350.11213 
L 689.709212 350.11213 
L 690.886634 349.025568 
L 692.064056 348.850317 
L 693.241478 350.170547 
L 694.418901 349.613636 
L 695.596323 349.461751 
L 696.773745 350.334115 
L 697.951167 349.516274 
L 699.128589 348.379084 
L 700.306012 348.301194 
L 701.483434 349.823938 
L 702.660856 348.772427 
L 705.0157 349.411122 
L 707.370545 346.587621 
L 708.547967 347.043276 
L 709.725389 346.790134 
L 710.902811 347.238 
L 712.080233 348.180465 
L 713.257656 348.900945 
L 714.435078 347.872801 
L 715.6125 346.015132 
L 717.967344 345.598422 
L 719.144767 345.738623 
L 720.322189 346.019026 
L 721.499611 348.33235 
L 722.677033 345.045405 
L 723.854455 342.646402 
L 725.031878 342.307582 
L 726.2093 342.358211 
L 727.386722 341.700043 
L 729.741566 346.069655 
L 730.918988 343.394144 
L 732.096411 339.051793 
L 733.273833 339.114105 
L 734.451255 339.406191 
L 735.628677 339.530815 
L 736.806099 342.798287 
L 737.983522 344.905204 
L 739.160944 341.524791 
L 740.338366 335.67138 
L 741.515788 337.665356 
L 742.69321 338.031438 
L 743.870633 337.525155 
L 745.048055 339.145261 
L 746.225477 344.620906 
L 747.402899 341.3067 
L 748.580321 334.80291 
L 749.757744 337.739352 
L 750.935166 337.0695 
L 752.112588 338.619505 
L 753.29001 341.622153 
L 754.467432 345.575055 
L 755.644854 342.825549 
L 756.822277 338.401414 
L 759.177121 341.738988 
L 760.354543 341.75846 
L 761.531965 342.864494 
L 762.709388 347.210739 
L 763.88681 343.760225 
L 765.064232 339.371141 
L 766.241654 341.79351 
L 767.419076 342.587985 
L 768.596499 341.637731 
L 769.773921 344.126307 
L 770.951343 347.584609 
L 772.128765 343.152685 
L 773.306187 340.364234 
L 774.48361 341.298911 
L 775.661032 341.727304 
L 776.838454 341.832455 
L 778.015876 343.211103 
L 779.193298 347.424935 
L 780.370721 343.596657 
L 781.548143 340.227927 
L 782.725565 341.898661 
L 783.902987 342.081702 
L 785.080409 341.423534 
L 786.257831 343.620024 
L 787.435254 347.459986 
L 788.612676 343.039745 
L 789.790098 339.920263 
L 790.96752 341.90645 
L 792.144942 342.615247 
L 793.322365 342.599669 
L 794.499787 344.905204 
L 795.677209 347.670288 
L 796.854631 344.414499 
L 798.032053 345.750307 
L 799.209476 340.823784 
L 800.386898 344.749424 
L 801.56432 345.173923 
L 803.919164 349.263132 
L 806.274009 344.920782 
L 807.451431 346.361741 
L 809.806275 347.082221 
L 810.983697 348.2973 
L 812.16112 350.061501 
L 813.338542 347.724811 
L 814.515964 346.988753 
L 815.693386 347.709233 
L 816.870808 347.861118 
L 818.048231 348.188254 
L 819.225653 349.208609 
L 820.403075 350.785876 
L 821.580497 348.807477 
L 822.757919 348.37519 
L 823.935342 348.398556 
L 825.112764 348.89705 
L 826.290186 349.068408 
L 827.467608 349.512379 
L 828.64503 350.949444 
L 829.822453 349.508485 
L 830.999875 348.904839 
L 832.177297 348.928206 
L 833.354719 349.134614 
L 834.532141 349.157981 
L 836.886986 351.09354 
L 838.064408 349.002202 
L 839.24183 349.897933 
L 840.419252 348.998307 
L 841.596674 348.569914 
L 842.774097 349.103458 
L 845.128941 350.571679 
L 846.306363 349.045041 
L 847.483785 348.620542 
L 848.661208 348.819161 
L 849.83863 348.862 
L 853.370896 350.71188 
L 854.548319 348.604964 
L 855.725741 348.234988 
L 856.903163 348.476446 
L 858.080585 348.223305 
L 859.258007 348.406345 
L 861.612852 350.626202 
L 862.790274 348.616648 
L 863.967696 348.086998 
L 865.145118 348.386873 
L 866.32254 348.55823 
L 867.499963 348.2973 
L 868.677385 348.873684 
L 869.854807 349.932983 
L 871.032229 350.092657 
L 872.209651 347.662499 
L 873.387074 346.462997 
L 875.741918 347.183477 
L 876.91934 347.861118 
L 878.096762 349.633108 
L 879.274185 347.241894 
L 880.451607 345.403698 
L 881.629029 346.093021 
L 882.806451 345.025933 
L 883.983873 344.772791 
L 885.161295 346.069655 
L 886.338718 348.051947 
L 887.51614 345.251813 
L 888.693562 342.003812 
L 889.870984 342.506201 
L 892.225829 342.759343 
L 893.403251 342.112858 
L 894.580673 346.10081 
L 895.758095 341.875294 
L 896.935517 337.151284 
L 898.11294 339.577548 
L 899.290362 339.363352 
L 900.467784 338.744129 
L 901.645206 340.562853 
L 902.822628 345.477693 
L 904.000051 340.523908 
L 905.177473 333.657932 
L 906.354895 340.558959 
L 907.532317 341.972657 
L 908.709739 329.845231 
L 909.887162 337.100656 
L 911.064584 343.214997 
L 912.242006 338.537721 
L 913.419428 331.258929 
L 914.59685 337.871764 
L 915.774272 337.272014 
L 916.951695 330.920109 
L 919.306539 342.833338 
L 920.483961 337.860081 
L 921.661383 329.257164 
L 922.838806 331.839207 
L 924.016228 333.759188 
L 925.19365 332.131294 
L 926.371072 335.231303 
L 927.548494 341.127553 
L 929.903339 317.040165 
L 931.080761 310.762256 
L 932.258183 301.438859 
L 933.435605 312.838016 
L 934.613028 337.310958 
L 935.79045 327.177509 
L 936.967872 284.969083 
L 938.145294 247.212054 
L 939.322716 240.233137 
L 940.500138 231.782105 
L 941.677561 261.142626 
L 942.854983 308.694284 
L 944.032405 310.742783 
L 945.209827 251.227268 
L 946.387249 197.740414 
L 947.564672 199.672079 
L 948.742094 200.996203 
L 949.919516 213.034056 
L 951.096938 248.956783 
L 952.27436 273.12985 
L 953.451783 222.003054 
L 954.629205 192.385498 
L 955.806627 195.543925 
L 956.984049 195.715282 
L 958.161471 203.325105 
L 959.338894 226.166258 
L 960.516316 266.489753 
L 961.693738 181.543252 
L 962.87116 147.193897 
L 964.048582 132.094979 
L 965.226004 123.900983 
L 966.403427 125.454883 
L 968.758271 224.269644 
L 969.935693 127.300869 
L 971.113115 96.452655 
L 972.290538 95.954161 
L 973.46796 103.248531 
L 974.645382 121.315046 
L 975.822804 175.28871 
L 977.000226 50.8755 
L 978.177649 239.018058 
L 979.355071 142.695767 
L 980.532493 127.89283 
L 981.709915 144.222405 
L 982.887337 157.039154 
L 984.06476 180.133449 
L 985.242182 223.537481 
L 986.419604 282.098848 
L 987.597026 223.907457 
L 988.774448 210.744099 
L 989.95187 236.619055 
L 991.129293 251.351891 
L 992.306715 270.598435 
L 993.484137 285.911549 
L 994.661559 317.230995 
L 995.838981 276.15197 
L 997.016404 268.678454 
L 998.193826 282.511664 
L 999.371248 286.632028 
L 1000.54867 292.804787 
L 1001.726092 312.670553 
L 1002.903515 327.905778 
L 1004.080937 296.14236 
L 1005.258359 276.144181 
L 1006.435781 302.560471 
L 1007.613203 307.085862 
L 1008.790626 310.707733 
L 1009.968048 321.990055 
L 1011.14547 334.923639 
L 1012.322892 305.843522 
L 1013.500314 311.077709 
L 1015.855159 290.736815 
L 1017.032581 292.878782 
L 1019.387425 328.766459 
L 1020.564847 288.73505 
L 1021.74227 290.954906 
L 1022.919692 298.52189 
L 1024.097114 299.787598 
L 1025.274536 301.477804 
L 1027.629381 332.731044 
L 1028.806803 294.409314 
L 1029.984225 292.321871 
L 1031.161647 298.693248 
L 1032.339069 302.174917 
L 1033.516492 305.212615 
L 1034.693914 318.527858 
L 1035.871336 334.534191 
L 1037.048758 294.627406 
L 1038.22618 293.509688 
L 1039.403603 301.758207 
L 1040.581025 307.549306 
L 1041.758447 305.582591 
L 1042.935869 321.947216 
L 1044.113291 336.302287 
L 1045.290713 302.346274 
L 1046.468136 301.69979 
L 1047.645558 306.369277 
L 1048.82298 308.729335 
L 1050.000402 313.609124 
L 1052.355247 338.342997 
L 1053.532669 309.457603 
L 1054.710091 307.915388 
L 1055.887513 312.608242 
L 1057.064935 311.646304 
L 1058.242358 313.476712 
L 1059.41978 323.691945 
L 1060.597202 337.310958 
L 1061.774624 304.390879 
L 1062.952046 302.988864 
L 1064.129469 306.863877 
L 1065.306891 306.034351 
L 1066.484313 331.89373 
L 1067.661735 322.060156 
L 1068.839157 339.082949 
L 1070.016579 300.94426 
L 1071.194002 296.52402 
L 1072.371424 306.676941 
L 1073.548846 306.388749 
L 1074.726268 314.407494 
L 1075.90369 324.801873 
L 1077.081113 337.33822 
L 1078.258535 333.221749 
L 1079.435957 295.974897 
L 1080.613379 295.266101 
L 1082.968224 298.90355 
L 1085.323068 333.470996 
L 1086.50049 298.86071 
L 1087.677912 287.262935 
L 1088.855335 290.877017 
L 1090.032757 283.321716 
L 1091.210179 284.610791 
L 1092.387601 299.121641 
L 1093.565023 323.275235 
L 1094.742445 262.501801 
L 1095.919868 244.127622 
L 1097.09729 242.89307 
L 1098.274712 235.964782 
L 1100.629556 276.837399 
L 1101.806979 316.40147 
L 1102.984401 201.623215 
L 1104.161823 217.781433 
L 1105.339245 227.762997 
L 1106.516667 351.845175 
L 1107.69409 351.845175 
L 1108.871512 232.04693 
L 1110.048934 135.611699 
L 1111.226356 213.590967 
L 1112.403778 351.845175 
L 1113.581201 111.423054 
L 1114.758623 351.845175 
L 1115.936045 351.845175 
L 1118.290889 153.545801 
L 1119.468311 218.556435 
L 1120.645734 227.634479 
L 1121.823156 249.061934 
L 1123.000578 351.845175 
L 1125.355422 351.845175 
L 1126.532845 76.50121 
L 1127.710267 161.981255 
L 1128.887689 351.845175 
L 1130.065111 265.601811 
L 1131.242533 351.845175 
L 1133.597378 351.845175 
L 1134.7748 84.625105 
L 1135.952222 273.795807 
L 1137.129644 351.845175 
L 1140.661911 351.845175 
L 1141.839333 130.759171 
L 1143.016755 281.608143 
L 1144.194178 291.979156 
L 1146.549022 306.832721 
L 1147.726444 351.845175 
L 1148.903866 351.845175 
L 1150.081288 282.955635 
L 1151.258711 290.947117 
L 1152.436133 326.277883 
L 1153.613555 311.439896 
L 1154.790977 351.845175 
L 1158.323244 351.845175 
L 1159.500666 182.571396 
L 1160.678088 310.937508 
L 1161.85551 315.256491 
L 1163.032933 322.554756 
L 1164.210355 351.845175 
L 1165.387777 351.845175 
L 1166.565199 291.811693 
L 1167.742621 317.11416 
L 1168.920044 323.061039 
L 1170.097466 351.845175 
L 1173.629732 351.845175 
L 1174.807154 272.125073 
L 1175.984577 324.685039 
L 1177.161999 329.054651 
L 1178.339421 330.768224 
L 1179.516843 334.510824 
L 1180.694265 351.845175 
L 1181.871688 351.845175 
L 1183.04911 325.670343 
L 1184.226532 330.008799 
L 1185.403954 335.005423 
L 1186.581376 338.350786 
L 1187.758799 338.249529 
L 1188.936221 351.845175 
L 1190.113643 351.845175 
L 1191.291065 334.199265 
L 1192.468487 335.97515 
L 1193.64591 336.715102 
L 1194.823332 339.452925 
L 1196.000754 338.841491 
L 1197.178176 351.845175 
L 1199.53302 351.845175 
L 1200.710443 321.581134 
L 1201.887865 339.363352 
L 1203.065287 340.632954 
L 1204.242709 340.340867 
L 1205.420131 351.845175 
L 1207.774976 351.845175 
L 1208.952398 331.726267 
L 1211.307242 339.94363 
L 1212.484665 340.204561 
L 1213.662087 351.845175 
L 1216.016931 351.845175 
L 1217.194353 320.260904 
L 1218.371776 351.845175 
L 1219.549198 327.55138 
L 1221.904042 351.845175 
L 1223.081464 351.845175 
L 1224.258886 336.31397 
L 1225.436309 336.547639 
L 1226.613731 340.009836 
L 1227.791153 351.845175 
L 1228.968575 329.447994 
L 1230.145997 351.845175 
L 1231.32342 351.845175 
L 1232.500842 338.413098 
L 1233.678264 337.307064 
L 1234.855686 341.295016 
L 1236.033108 341.840244 
L 1237.210531 341.711726 
L 1238.387953 351.845175 
L 1239.565375 351.845175 
L 1240.742797 336.111457 
L 1241.920219 337.357692 
L 1243.097642 339.83069 
L 1244.275064 343.265626 
L 1245.452486 341.030191 
L 1246.629908 351.845175 
L 1247.80733 351.845175 
L 1248.984753 331.944358 
L 1251.339597 337.984704 
L 1252.517019 339.581443 
L 1253.694441 339.764484 
L 1254.871863 351.845175 
L 1256.049286 351.845175 
L 1257.226708 333.132176 
L 1258.40413 348.710115 
L 1260.758974 329.673874 
L 1263.113819 351.845175 
L 1264.291241 351.845175 
L 1265.468663 333.985068 
L 1266.646085 346.614882 
L 1267.823508 347.389885 
L 1269.00093 349.936878 
L 1270.178352 351.845175 
L 1272.533196 351.845175 
L 1273.710619 347.54177 
L 1274.888041 338.424781 
L 1276.065463 346.649933 
L 1277.242885 347.004331 
L 1278.420307 347.199055 
L 1279.597729 351.845175 
L 1290.194529 351.845175 
L 1291.371951 322.102995 
L 1292.549374 347.584609 
L 1293.726796 351.845175 
L 1296.08164 351.845175 
L 1297.259062 341.812983 
L 1298.436485 351.845175 
L 1304.323595 351.845175 
L 1305.501018 333.432052 
L 1306.67844 344.827314 
L 1307.855862 351.845175 
L 1307.855862 351.845175 
" clip-path="url(#p294e97773a)" style="fill: none; stroke: #0000ff; stroke-width: 1.5; stroke-linecap: square"/>
   </g>
   <g id="line2d_21">
    <path d="M 1067.661735 320.554932 
L 1068.839157 327.948201 
L 1070.016579 312.715861 
L 1071.194002 309.8798 
L 1072.371424 309.521304 
L 1073.548846 308.579302 
L 1074.726268 321.715641 
L 1075.90369 315.266104 
L 1077.081113 325.874377 
L 1078.258535 307.970849 
L 1079.435957 310.168823 
L 1080.613379 312.944731 
L 1081.790801 309.636226 
L 1082.968224 311.600911 
L 1084.145646 314.770446 
L 1085.323068 321.6866 
L 1086.50049 321.638104 
L 1087.677912 298.084968 
L 1088.855335 295.781156 
L 1090.032757 295.891231 
L 1091.210179 294.562853 
L 1093.565023 310.33009 
L 1094.742445 294.536937 
L 1095.919868 282.747788 
L 1097.09729 277.740085 
L 1098.274712 267.563388 
L 1099.452134 262.593609 
L 1100.629556 269.149058 
L 1101.806979 283.157625 
L 1102.984401 257.303691 
L 1104.161823 237.74614 
L 1105.339245 233.534235 
L 1106.516667 228.879039 
L 1107.69409 261.740643 
L 1108.871512 288.318958 
L 1110.048934 298.964525 
L 1111.226356 209.743501 
L 1112.403778 218.883454 
L 1113.581201 247.85457 
L 1114.758623 288.395393 
L 1115.936045 299.728753 
L 1118.290889 196.640913 
L 1119.468311 229.735973 
L 1120.645734 300.062927 
L 1121.823156 161.355671 
L 1123.000578 302.791841 
L 1124.178 311.553716 
L 1125.355422 265.681154 
L 1126.532845 230.406323 
L 1127.710267 236.92439 
L 1128.887689 228.287021 
L 1130.065111 261.566076 
L 1131.242533 316.055125 
L 1132.419956 322.447921 
L 1133.597378 327.69884 
L 1134.7748 187.97332 
L 1135.952222 214.229831 
L 1137.129644 324.191487 
L 1138.307067 284.015159 
L 1139.484489 341.246726 
L 1140.661911 343.139814 
L 1141.839333 344.69476 
L 1143.016755 166.692988 
L 1144.194178 286.178441 
L 1145.3716 328.043913 
L 1146.549022 322.936964 
L 1147.726444 320.060434 
L 1148.903866 325.737805 
L 1150.081288 214.746104 
L 1151.258711 305.842084 
L 1152.436133 308.606861 
L 1153.613555 315.672809 
L 1154.790977 318.777396 
L 1155.968399 348.230953 
L 1157.145822 348.876523 
L 1158.323244 313.369138 
L 1159.500666 324.422225 
L 1160.678088 317.567225 
L 1161.85551 308.62095 
L 1163.032933 330.943082 
L 1164.210355 329.444765 
L 1165.387777 333.445912 
L 1166.565199 336.732377 
L 1167.742621 240.157812 
L 1168.920044 321.05486 
L 1170.097466 323.672559 
L 1171.274888 332.522617 
L 1172.45231 351.296467 
L 1173.629732 351.394477 
L 1174.807154 320.070137 
L 1175.984577 324.742501 
L 1177.161999 327.843181 
L 1178.339421 343.117192 
L 1179.516843 340.911427 
L 1180.694265 339.768155 
L 1181.871688 341.925345 
L 1183.04911 301.993869 
L 1184.226532 333.718227 
L 1185.403954 335.341492 
L 1186.581376 336.177872 
L 1187.758799 338.523833 
L 1188.936221 347.54282 
L 1190.113643 348.311304 
L 1191.291065 335.249888 
L 1192.468487 337.331769 
L 1193.64591 339.703295 
L 1194.823332 340.919579 
L 1196.000754 340.604637 
L 1197.178176 347.401888 
L 1198.355598 348.195545 
L 1199.53302 339.616474 
L 1200.710443 342.729761 
L 1201.887865 339.339292 
L 1203.065287 340.775806 
L 1204.242709 340.430435 
L 1205.420131 347.216951 
L 1206.597554 348.043642 
L 1207.774976 348.722669 
L 1208.952398 333.44862 
L 1210.12982 342.443246 
L 1212.484665 341.424533 
L 1213.662087 347.22478 
L 1214.839509 348.050072 
L 1216.016931 348.727951 
L 1217.194353 338.760102 
L 1218.371776 337.621427 
L 1219.549198 342.295108 
L 1220.72662 339.798091 
L 1221.904042 345.889899 
L 1223.081464 346.953627 
L 1224.258886 347.827352 
L 1225.436309 329.248408 
L 1226.613731 347.074623 
L 1227.791153 333.104093 
L 1228.968575 342.865006 
L 1230.145997 346.763697 
L 1231.32342 347.671348 
L 1232.500842 340.292157 
L 1233.678264 340.078758 
L 1234.855686 341.394832 
L 1236.033108 347.568331 
L 1237.210531 334.828722 
L 1238.387953 347.774621 
L 1239.565375 348.501701 
L 1240.742797 342.072293 
L 1241.920219 340.428982 
L 1243.097642 341.966576 
L 1244.275064 341.870286 
L 1245.452486 342.05229 
L 1246.629908 347.170755 
L 1247.80733 348.005697 
L 1248.984753 340.460846 
L 1250.162175 339.59157 
L 1251.339597 340.040337 
L 1252.517019 341.470052 
L 1253.694441 339.963304 
L 1254.871863 345.585349 
L 1256.049286 346.703475 
L 1257.226708 337.211324 
L 1258.40413 338.008641 
L 1259.581552 341.554039 
L 1260.758974 341.947944 
L 1261.936397 339.85131 
L 1263.113819 346.2953 
L 1264.291241 347.286615 
L 1265.468663 338.311678 
L 1266.646085 345.688027 
L 1267.823508 340.817397 
L 1269.00093 337.069275 
L 1270.178352 345.055795 
L 1271.355774 352.178692 
L 1272.533196 352.119119 
L 1273.710619 342.72717 
L 1274.888041 350.194086 
L 1276.065463 348.497281 
L 1277.242885 349.499698 
L 1278.420307 350.052249 
L 1279.597729 349.542614 
L 1280.775152 349.953896 
L 1281.952574 348.040508 
L 1283.129996 343.950797 
L 1284.307418 349.663645 
L 1285.48484 350.238702 
L 1286.662263 350.627514 
L 1287.839685 353.2755 
L 1290.194529 352.810167 
L 1291.371951 352.637801 
L 1292.549374 347.183693 
L 1293.726796 347.255305 
L 1294.904218 348.075144 
L 1297.259062 349.301663 
L 1298.436485 347.96404 
L 1299.613907 333.098493 
L 1300.791329 349.77701 
L 1301.968751 352.375221 
L 1304.323595 352.202779 
L 1305.501018 346.890842 
L 1306.67844 349.734903 
L 1307.855862 348.858313 
L 1307.855862 348.858313 
" clip-path="url(#p294e97773a)" style="fill: none; stroke: #ffa500; stroke-width: 1.5; stroke-linecap: square"/>
   </g>
   <g id="line2d_22">
    <path d="M 1309.033284 349.391824 
L 1310.210706 349.391824 
L 1311.388129 349.391824 
L 1312.565551 349.391824 
L 1313.742973 339.759512 
L 1314.920395 345.720626 
L 1316.097817 349.391824 
L 1317.27524 348.108422 
L 1318.452662 348.108422 
L 1319.630084 348.108422 
L 1320.807506 348.108422 
L 1321.984928 343.069546 
L 1323.162351 346.187937 
L 1324.339773 348.108422 
" clip-path="url(#p294e97773a)" style="fill: none; stroke: #ff0000; stroke-width: 1.5; stroke-linecap: square"/>
   </g>
   <g id="patch_3">
    <path d="M 46.0125 368.3955 
L 46.0125 35.7555 
" style="fill: none; stroke: #000000; stroke-width: 0.8; stroke-linejoin: miter; stroke-linecap: square"/>
   </g>
   <g id="patch_4">
    <path d="M 1385.2125 368.3955 
L 1385.2125 35.7555 
" style="fill: none; stroke: #000000; stroke-width: 0.8; stroke-linejoin: miter; stroke-linecap: square"/>
   </g>
   <g id="patch_5">
    <path d="M 46.0125 368.3955 
L 1385.2125 368.3955 
" style="fill: none; stroke: #000000; stroke-width: 0.8; stroke-linejoin: miter; stroke-linecap: square"/>
   </g>
   <g id="patch_6">
    <path d="M 46.0125 35.7555 
L 1385.2125 35.7555 
" style="fill: none; stroke: #000000; stroke-width: 0.8; stroke-linejoin: miter; stroke-linecap: square"/>
   </g>
   <g id="text_20">
    <!-- Daily Confirmed Cases Forecasting - Portugal -->
    <g transform="translate(580.266563 16.318125)scale(0.12 -0.12)">
     <defs>
      <path id="DejaVuSans-44" d="M 1259 4147 
L 1259 519 
L 2022 519 
Q 2988 519 3436 956 
Q 3884 1394 3884 2338 
Q 3884 3275 3436 3711 
Q 2988 4147 2022 4147 
L 1259 4147 
z
M 628 4666 
L 1925 4666 
Q 3281 4666 3915 4102 
Q 4550 3538 4550 2338 
Q 4550 1131 3912 565 
Q 3275 0 1925 0 
L 628 0 
L 628 4666 
z
" transform="scale(0.015625)"/>
      <path id="DejaVuSans-61" d="M 2194 1759 
Q 1497 1759 1228 1600 
Q 959 1441 959 1056 
Q 959 750 1161 570 
Q 1363 391 1709 391 
Q 2188 391 2477 730 
Q 2766 1069 2766 1631 
L 2766 1759 
L 2194 1759 
z
M 3341 1997 
L 3341 0 
L 2766 0 
L 2766 531 
Q 2569 213 2275 61 
Q 1981 -91 1556 -91 
Q 1019 -91 701 211 
Q 384 513 384 1019 
Q 384 1609 779 1909 
Q 1175 2209 1959 2209 
L 2766 2209 
L 2766 2266 
Q 2766 2663 2505 2880 
Q 2244 3097 1772 3097 
Q 1472 3097 1187 3025 
Q 903 2953 641 2809 
L 641 3341 
Q 956 3463 1253 3523 
Q 1550 3584 1831 3584 
Q 2591 3584 2966 3190 
Q 3341 2797 3341 1997 
z
" transform="scale(0.015625)"/>
      <path id="DejaVuSans-69" d="M 603 3500 
L 1178 3500 
L 1178 0 
L 603 0 
L 603 3500 
z
M 603 4863 
L 1178 4863 
L 1178 4134 
L 603 4134 
L 603 4863 
z
" transform="scale(0.015625)"/>
      <path id="DejaVuSans-6c" d="M 603 4863 
L 1178 4863 
L 1178 0 
L 603 0 
L 603 4863 
z
" transform="scale(0.015625)"/>
      <path id="DejaVuSans-79" d="M 2059 -325 
Q 1816 -950 1584 -1140 
Q 1353 -1331 966 -1331 
L 506 -1331 
L 506 -850 
L 844 -850 
Q 1081 -850 1212 -737 
Q 1344 -625 1503 -206 
L 1606 56 
L 191 3500 
L 800 3500 
L 1894 763 
L 2988 3500 
L 3597 3500 
L 2059 -325 
z
" transform="scale(0.015625)"/>
      <path id="DejaVuSans-20" transform="scale(0.015625)"/>
      <path id="DejaVuSans-43" d="M 4122 4306 
L 4122 3641 
Q 3803 3938 3442 4084 
Q 3081 4231 2675 4231 
Q 1875 4231 1450 3742 
Q 1025 3253 1025 2328 
Q 1025 1406 1450 917 
Q 1875 428 2675 428 
Q 3081 428 3442 575 
Q 3803 722 4122 1019 
L 4122 359 
Q 3791 134 3420 21 
Q 3050 -91 2638 -91 
Q 1578 -91 968 557 
Q 359 1206 359 2328 
Q 359 3453 968 4101 
Q 1578 4750 2638 4750 
Q 3056 4750 3426 4639 
Q 3797 4528 4122 4306 
z
" transform="scale(0.015625)"/>
      <path id="DejaVuSans-6f" d="M 1959 3097 
Q 1497 3097 1228 2736 
Q 959 2375 959 1747 
Q 959 1119 1226 758 
Q 1494 397 1959 397 
Q 2419 397 2687 759 
Q 2956 1122 2956 1747 
Q 2956 2369 2687 2733 
Q 2419 3097 1959 3097 
z
M 1959 3584 
Q 2709 3584 3137 3096 
Q 3566 2609 3566 1747 
Q 3566 888 3137 398 
Q 2709 -91 1959 -91 
Q 1206 -91 779 398 
Q 353 888 353 1747 
Q 353 2609 779 3096 
Q 1206 3584 1959 3584 
z
" transform="scale(0.015625)"/>
      <path id="DejaVuSans-6e" d="M 3513 2113 
L 3513 0 
L 2938 0 
L 2938 2094 
Q 2938 2591 2744 2837 
Q 2550 3084 2163 3084 
Q 1697 3084 1428 2787 
Q 1159 2491 1159 1978 
L 1159 0 
L 581 0 
L 581 3500 
L 1159 3500 
L 1159 2956 
Q 1366 3272 1645 3428 
Q 1925 3584 2291 3584 
Q 2894 3584 3203 3211 
Q 3513 2838 3513 2113 
z
" transform="scale(0.015625)"/>
      <path id="DejaVuSans-66" d="M 2375 4863 
L 2375 4384 
L 1825 4384 
Q 1516 4384 1395 4259 
Q 1275 4134 1275 3809 
L 1275 3500 
L 2222 3500 
L 2222 3053 
L 1275 3053 
L 1275 0 
L 697 0 
L 697 3053 
L 147 3053 
L 147 3500 
L 697 3500 
L 697 3744 
Q 697 4328 969 4595 
Q 1241 4863 1831 4863 
L 2375 4863 
z
" transform="scale(0.015625)"/>
      <path id="DejaVuSans-72" d="M 2631 2963 
Q 2534 3019 2420 3045 
Q 2306 3072 2169 3072 
Q 1681 3072 1420 2755 
Q 1159 2438 1159 1844 
L 1159 0 
L 581 0 
L 581 3500 
L 1159 3500 
L 1159 2956 
Q 1341 3275 1631 3429 
Q 1922 3584 2338 3584 
Q 2397 3584 2469 3576 
Q 2541 3569 2628 3553 
L 2631 2963 
z
" transform="scale(0.015625)"/>
      <path id="DejaVuSans-6d" d="M 3328 2828 
Q 3544 3216 3844 3400 
Q 4144 3584 4550 3584 
Q 5097 3584 5394 3201 
Q 5691 2819 5691 2113 
L 5691 0 
L 5113 0 
L 5113 2094 
Q 5113 2597 4934 2840 
Q 4756 3084 4391 3084 
Q 3944 3084 3684 2787 
Q 3425 2491 3425 1978 
L 3425 0 
L 2847 0 
L 2847 2094 
Q 2847 2600 2669 2842 
Q 2491 3084 2119 3084 
Q 1678 3084 1418 2786 
Q 1159 2488 1159 1978 
L 1159 0 
L 581 0 
L 581 3500 
L 1159 3500 
L 1159 2956 
Q 1356 3278 1631 3431 
Q 1906 3584 2284 3584 
Q 2666 3584 2933 3390 
Q 3200 3197 3328 2828 
z
" transform="scale(0.015625)"/>
      <path id="DejaVuSans-65" d="M 3597 1894 
L 3597 1613 
L 953 1613 
Q 991 1019 1311 708 
Q 1631 397 2203 397 
Q 2534 397 2845 478 
Q 3156 559 3463 722 
L 3463 178 
Q 3153 47 2828 -22 
Q 2503 -91 2169 -91 
Q 1331 -91 842 396 
Q 353 884 353 1716 
Q 353 2575 817 3079 
Q 1281 3584 2069 3584 
Q 2775 3584 3186 3129 
Q 3597 2675 3597 1894 
z
M 3022 2063 
Q 3016 2534 2758 2815 
Q 2500 3097 2075 3097 
Q 1594 3097 1305 2825 
Q 1016 2553 972 2059 
L 3022 2063 
z
" transform="scale(0.015625)"/>
      <path id="DejaVuSans-64" d="M 2906 2969 
L 2906 4863 
L 3481 4863 
L 3481 0 
L 2906 0 
L 2906 525 
Q 2725 213 2448 61 
Q 2172 -91 1784 -91 
Q 1150 -91 751 415 
Q 353 922 353 1747 
Q 353 2572 751 3078 
Q 1150 3584 1784 3584 
Q 2172 3584 2448 3432 
Q 2725 3281 2906 2969 
z
M 947 1747 
Q 947 1113 1208 752 
Q 1469 391 1925 391 
Q 2381 391 2643 752 
Q 2906 1113 2906 1747 
Q 2906 2381 2643 2742 
Q 2381 3103 1925 3103 
Q 1469 3103 1208 2742 
Q 947 2381 947 1747 
z
" transform="scale(0.015625)"/>
      <path id="DejaVuSans-73" d="M 2834 3397 
L 2834 2853 
Q 2591 2978 2328 3040 
Q 2066 3103 1784 3103 
Q 1356 3103 1142 2972 
Q 928 2841 928 2578 
Q 928 2378 1081 2264 
Q 1234 2150 1697 2047 
L 1894 2003 
Q 2506 1872 2764 1633 
Q 3022 1394 3022 966 
Q 3022 478 2636 193 
Q 2250 -91 1575 -91 
Q 1294 -91 989 -36 
Q 684 19 347 128 
L 347 722 
Q 666 556 975 473 
Q 1284 391 1588 391 
Q 1994 391 2212 530 
Q 2431 669 2431 922 
Q 2431 1156 2273 1281 
Q 2116 1406 1581 1522 
L 1381 1569 
Q 847 1681 609 1914 
Q 372 2147 372 2553 
Q 372 3047 722 3315 
Q 1072 3584 1716 3584 
Q 2034 3584 2315 3537 
Q 2597 3491 2834 3397 
z
" transform="scale(0.015625)"/>
      <path id="DejaVuSans-46" d="M 628 4666 
L 3309 4666 
L 3309 4134 
L 1259 4134 
L 1259 2759 
L 3109 2759 
L 3109 2228 
L 1259 2228 
L 1259 0 
L 628 0 
L 628 4666 
z
" transform="scale(0.015625)"/>
      <path id="DejaVuSans-63" d="M 3122 3366 
L 3122 2828 
Q 2878 2963 2633 3030 
Q 2388 3097 2138 3097 
Q 1578 3097 1268 2742 
Q 959 2388 959 1747 
Q 959 1106 1268 751 
Q 1578 397 2138 397 
Q 2388 397 2633 464 
Q 2878 531 3122 666 
L 3122 134 
Q 2881 22 2623 -34 
Q 2366 -91 2075 -91 
Q 1284 -91 818 406 
Q 353 903 353 1747 
Q 353 2603 823 3093 
Q 1294 3584 2113 3584 
Q 2378 3584 2631 3529 
Q 2884 3475 3122 3366 
z
" transform="scale(0.015625)"/>
      <path id="DejaVuSans-74" d="M 1172 4494 
L 1172 3500 
L 2356 3500 
L 2356 3053 
L 1172 3053 
L 1172 1153 
Q 1172 725 1289 603 
Q 1406 481 1766 481 
L 2356 481 
L 2356 0 
L 1766 0 
Q 1100 0 847 248 
Q 594 497 594 1153 
L 594 3053 
L 172 3053 
L 172 3500 
L 594 3500 
L 594 4494 
L 1172 4494 
z
" transform="scale(0.015625)"/>
      <path id="DejaVuSans-67" d="M 2906 1791 
Q 2906 2416 2648 2759 
Q 2391 3103 1925 3103 
Q 1463 3103 1205 2759 
Q 947 2416 947 1791 
Q 947 1169 1205 825 
Q 1463 481 1925 481 
Q 2391 481 2648 825 
Q 2906 1169 2906 1791 
z
M 3481 434 
Q 3481 -459 3084 -895 
Q 2688 -1331 1869 -1331 
Q 1566 -1331 1297 -1286 
Q 1028 -1241 775 -1147 
L 775 -588 
Q 1028 -725 1275 -790 
Q 1522 -856 1778 -856 
Q 2344 -856 2625 -561 
Q 2906 -266 2906 331 
L 2906 616 
Q 2728 306 2450 153 
Q 2172 0 1784 0 
Q 1141 0 747 490 
Q 353 981 353 1791 
Q 353 2603 747 3093 
Q 1141 3584 1784 3584 
Q 2172 3584 2450 3431 
Q 2728 3278 2906 2969 
L 2906 3500 
L 3481 3500 
L 3481 434 
z
" transform="scale(0.015625)"/>
      <path id="DejaVuSans-50" d="M 1259 4147 
L 1259 2394 
L 2053 2394 
Q 2494 2394 2734 2622 
Q 2975 2850 2975 3272 
Q 2975 3691 2734 3919 
Q 2494 4147 2053 4147 
L 1259 4147 
z
M 628 4666 
L 2053 4666 
Q 2838 4666 3239 4311 
Q 3641 3956 3641 3272 
Q 3641 2581 3239 2228 
Q 2838 1875 2053 1875 
L 1259 1875 
L 1259 0 
L 628 0 
L 628 4666 
z
" transform="scale(0.015625)"/>
      <path id="DejaVuSans-75" d="M 544 1381 
L 544 3500 
L 1119 3500 
L 1119 1403 
Q 1119 906 1312 657 
Q 1506 409 1894 409 
Q 2359 409 2629 706 
Q 2900 1003 2900 1516 
L 2900 3500 
L 3475 3500 
L 3475 0 
L 2900 0 
L 2900 538 
Q 2691 219 2414 64 
Q 2138 -91 1772 -91 
Q 1169 -91 856 284 
Q 544 659 544 1381 
z
M 1991 3584 
L 1991 3584 
z
" transform="scale(0.015625)"/>
     </defs>
     <use xlink:href="#DejaVuSans-44"/>
     <use xlink:href="#DejaVuSans-61" x="77.001953"/>
     <use xlink:href="#DejaVuSans-69" x="138.28125"/>
     <use xlink:href="#DejaVuSans-6c" x="166.064453"/>
     <use xlink:href="#DejaVuSans-79" x="193.847656"/>
     <use xlink:href="#DejaVuSans-20" x="253.027344"/>
     <use xlink:href="#DejaVuSans-43" x="284.814453"/>
     <use xlink:href="#DejaVuSans-6f" x="354.638672"/>
     <use xlink:href="#DejaVuSans-6e" x="415.820312"/>
     <use xlink:href="#DejaVuSans-66" x="479.199219"/>
     <use xlink:href="#DejaVuSans-69" x="514.404297"/>
     <use xlink:href="#DejaVuSans-72" x="542.1875"/>
     <use xlink:href="#DejaVuSans-6d" x="581.550781"/>
     <use xlink:href="#DejaVuSans-65" x="678.962891"/>
     <use xlink:href="#DejaVuSans-64" x="740.486328"/>
     <use xlink:href="#DejaVuSans-20" x="803.962891"/>
     <use xlink:href="#DejaVuSans-43" x="835.75"/>
     <use xlink:href="#DejaVuSans-61" x="905.574219"/>
     <use xlink:href="#DejaVuSans-73" x="966.853516"/>
     <use xlink:href="#DejaVuSans-65" x="1018.953125"/>
     <use xlink:href="#DejaVuSans-73" x="1080.476562"/>
     <use xlink:href="#DejaVuSans-20" x="1132.576172"/>
     <use xlink:href="#DejaVuSans-46" x="1164.363281"/>
     <use xlink:href="#DejaVuSans-6f" x="1218.257812"/>
     <use xlink:href="#DejaVuSans-72" x="1279.439453"/>
     <use xlink:href="#DejaVuSans-65" x="1318.302734"/>
     <use xlink:href="#DejaVuSans-63" x="1379.826172"/>
     <use xlink:href="#DejaVuSans-61" x="1434.806641"/>
     <use xlink:href="#DejaVuSans-73" x="1496.085938"/>
     <use xlink:href="#DejaVuSans-74" x="1548.185547"/>
     <use xlink:href="#DejaVuSans-69" x="1587.394531"/>
     <use xlink:href="#DejaVuSans-6e" x="1615.177734"/>
     <use xlink:href="#DejaVuSans-67" x="1678.556641"/>
     <use xlink:href="#DejaVuSans-20" x="1742.033203"/>
     <use xlink:href="#DejaVuSans-2d" x="1773.820312"/>
     <use xlink:href="#DejaVuSans-20" x="1809.904297"/>
     <use xlink:href="#DejaVuSans-50" x="1841.691406"/>
     <use xlink:href="#DejaVuSans-6f" x="1898.369141"/>
     <use xlink:href="#DejaVuSans-72" x="1959.550781"/>
     <use xlink:href="#DejaVuSans-74" x="2000.664062"/>
     <use xlink:href="#DejaVuSans-75" x="2039.873047"/>
     <use xlink:href="#DejaVuSans-67" x="2103.251953"/>
     <use xlink:href="#DejaVuSans-61" x="2166.728516"/>
     <use xlink:href="#DejaVuSans-6c" x="2228.007812"/>
    </g>
    <!-- ARIMA (0, 1, 1)x(1, 0, 0, 7) (R2 = 0.416091) -->
    <g transform="translate(583.628438 29.7555)scale(0.12 -0.12)">
     <defs>
      <path id="DejaVuSans-41" d="M 2188 4044 
L 1331 1722 
L 3047 1722 
L 2188 4044 
z
M 1831 4666 
L 2547 4666 
L 4325 0 
L 3669 0 
L 3244 1197 
L 1141 1197 
L 716 0 
L 50 0 
L 1831 4666 
z
" transform="scale(0.015625)"/>
      <path id="DejaVuSans-52" d="M 2841 2188 
Q 3044 2119 3236 1894 
Q 3428 1669 3622 1275 
L 4263 0 
L 3584 0 
L 2988 1197 
Q 2756 1666 2539 1819 
Q 2322 1972 1947 1972 
L 1259 1972 
L 1259 0 
L 628 0 
L 628 4666 
L 2053 4666 
Q 2853 4666 3247 4331 
Q 3641 3997 3641 3322 
Q 3641 2881 3436 2590 
Q 3231 2300 2841 2188 
z
M 1259 4147 
L 1259 2491 
L 2053 2491 
Q 2509 2491 2742 2702 
Q 2975 2913 2975 3322 
Q 2975 3731 2742 3939 
Q 2509 4147 2053 4147 
L 1259 4147 
z
" transform="scale(0.015625)"/>
      <path id="DejaVuSans-49" d="M 628 4666 
L 1259 4666 
L 1259 0 
L 628 0 
L 628 4666 
z
" transform="scale(0.015625)"/>
      <path id="DejaVuSans-4d" d="M 628 4666 
L 1569 4666 
L 2759 1491 
L 3956 4666 
L 4897 4666 
L 4897 0 
L 4281 0 
L 4281 4097 
L 3078 897 
L 2444 897 
L 1241 4097 
L 1241 0 
L 628 0 
L 628 4666 
z
" transform="scale(0.015625)"/>
      <path id="DejaVuSans-28" d="M 1984 4856 
Q 1566 4138 1362 3434 
Q 1159 2731 1159 2009 
Q 1159 1288 1364 580 
Q 1569 -128 1984 -844 
L 1484 -844 
Q 1016 -109 783 600 
Q 550 1309 550 2009 
Q 550 2706 781 3412 
Q 1013 4119 1484 4856 
L 1984 4856 
z
" transform="scale(0.015625)"/>
      <path id="DejaVuSans-2c" d="M 750 794 
L 1409 794 
L 1409 256 
L 897 -744 
L 494 -744 
L 750 256 
L 750 794 
z
" transform="scale(0.015625)"/>
      <path id="DejaVuSans-29" d="M 513 4856 
L 1013 4856 
Q 1481 4119 1714 3412 
Q 1947 2706 1947 2009 
Q 1947 1309 1714 600 
Q 1481 -109 1013 -844 
L 513 -844 
Q 928 -128 1133 580 
Q 1338 1288 1338 2009 
Q 1338 2731 1133 3434 
Q 928 4138 513 4856 
z
" transform="scale(0.015625)"/>
      <path id="DejaVuSans-78" d="M 3513 3500 
L 2247 1797 
L 3578 0 
L 2900 0 
L 1881 1375 
L 863 0 
L 184 0 
L 1544 1831 
L 300 3500 
L 978 3500 
L 1906 2253 
L 2834 3500 
L 3513 3500 
z
" transform="scale(0.015625)"/>
      <path id="DejaVuSans-3d" d="M 678 2906 
L 4684 2906 
L 4684 2381 
L 678 2381 
L 678 2906 
z
M 678 1631 
L 4684 1631 
L 4684 1100 
L 678 1100 
L 678 1631 
z
" transform="scale(0.015625)"/>
      <path id="DejaVuSans-2e" d="M 684 794 
L 1344 794 
L 1344 0 
L 684 0 
L 684 794 
z
" transform="scale(0.015625)"/>
     </defs>
     <use xlink:href="#DejaVuSans-41"/>
     <use xlink:href="#DejaVuSans-52" x="68.408203"/>
     <use xlink:href="#DejaVuSans-49" x="137.890625"/>
     <use xlink:href="#DejaVuSans-4d" x="167.382812"/>
     <use xlink:href="#DejaVuSans-41" x="253.662109"/>
     <use xlink:href="#DejaVuSans-20" x="322.070312"/>
     <use xlink:href="#DejaVuSans-28" x="353.857422"/>
     <use xlink:href="#DejaVuSans-30" x="392.871094"/>
     <use xlink:href="#DejaVuSans-2c" x="456.494141"/>
     <use xlink:href="#DejaVuSans-20" x="488.28125"/>
     <use xlink:href="#DejaVuSans-31" x="520.068359"/>
     <use xlink:href="#DejaVuSans-2c" x="583.691406"/>
     <use xlink:href="#DejaVuSans-20" x="615.478516"/>
     <use xlink:href="#DejaVuSans-31" x="647.265625"/>
     <use xlink:href="#DejaVuSans-29" x="710.888672"/>
     <use xlink:href="#DejaVuSans-78" x="749.902344"/>
     <use xlink:href="#DejaVuSans-28" x="809.082031"/>
     <use xlink:href="#DejaVuSans-31" x="848.095703"/>
     <use xlink:href="#DejaVuSans-2c" x="911.71875"/>
     <use xlink:href="#DejaVuSans-20" x="943.505859"/>
     <use xlink:href="#DejaVuSans-30" x="975.292969"/>
     <use xlink:href="#DejaVuSans-2c" x="1038.916016"/>
     <use xlink:href="#DejaVuSans-20" x="1070.703125"/>
     <use xlink:href="#DejaVuSans-30" x="1102.490234"/>
     <use xlink:href="#DejaVuSans-2c" x="1166.113281"/>
     <use xlink:href="#DejaVuSans-20" x="1197.900391"/>
     <use xlink:href="#DejaVuSans-37" x="1229.6875"/>
     <use xlink:href="#DejaVuSans-29" x="1293.310547"/>
     <use xlink:href="#DejaVuSans-20" x="1332.324219"/>
     <use xlink:href="#DejaVuSans-28" x="1364.111328"/>
     <use xlink:href="#DejaVuSans-52" x="1403.125"/>
     <use xlink:href="#DejaVuSans-32" x="1472.607422"/>
     <use xlink:href="#DejaVuSans-20" x="1536.230469"/>
     <use xlink:href="#DejaVuSans-3d" x="1568.017578"/>
     <use xlink:href="#DejaVuSans-20" x="1651.806641"/>
     <use xlink:href="#DejaVuSans-30" x="1683.59375"/>
     <use xlink:href="#DejaVuSans-2e" x="1747.216797"/>
     <use xlink:href="#DejaVuSans-34" x="1779.003906"/>
     <use xlink:href="#DejaVuSans-31" x="1842.626953"/>
     <use xlink:href="#DejaVuSans-36" x="1906.25"/>
     <use xlink:href="#DejaVuSans-30" x="1969.873047"/>
     <use xlink:href="#DejaVuSans-39" x="2033.496094"/>
     <use xlink:href="#DejaVuSans-31" x="2097.119141"/>
     <use xlink:href="#DejaVuSans-29" x="2160.742188"/>
    </g>
   </g>
   <g id="legend_1">
    <g id="patch_7">
     <path d="M 1281.132812 87.789875 
L 1378.2125 87.789875 
Q 1380.2125 87.789875 1380.2125 85.789875 
L 1380.2125 42.7555 
Q 1380.2125 40.7555 1378.2125 40.7555 
L 1281.132812 40.7555 
Q 1279.132812 40.7555 1279.132812 42.7555 
L 1279.132812 85.789875 
Q 1279.132812 87.789875 1281.132812 87.789875 
z
" style="fill: #ffffff; opacity: 0.8; stroke: #cccccc; stroke-linejoin: miter"/>
    </g>
    <g id="line2d_23">
     <path d="M 1283.132812 48.853937 
L 1293.132812 48.853937 
L 1303.132812 48.853937 
" style="fill: none; stroke: #0000ff; stroke-width: 1.5; stroke-linecap: square"/>
    </g>
    <g id="text_21">
     <!-- Actual Value -->
     <g transform="translate(1311.132812 52.353937)scale(0.1 -0.1)">
      <defs>
       <path id="DejaVuSans-56" d="M 1831 0 
L 50 4666 
L 709 4666 
L 2188 738 
L 3669 4666 
L 4325 4666 
L 2547 0 
L 1831 0 
z
" transform="scale(0.015625)"/>
      </defs>
      <use xlink:href="#DejaVuSans-41"/>
      <use xlink:href="#DejaVuSans-63" x="66.658203"/>
      <use xlink:href="#DejaVuSans-74" x="121.638672"/>
      <use xlink:href="#DejaVuSans-75" x="160.847656"/>
      <use xlink:href="#DejaVuSans-61" x="224.226562"/>
      <use xlink:href="#DejaVuSans-6c" x="285.505859"/>
      <use xlink:href="#DejaVuSans-20" x="313.289062"/>
      <use xlink:href="#DejaVuSans-56" x="345.076172"/>
      <use xlink:href="#DejaVuSans-61" x="405.734375"/>
      <use xlink:href="#DejaVuSans-6c" x="467.013672"/>
      <use xlink:href="#DejaVuSans-75" x="494.796875"/>
      <use xlink:href="#DejaVuSans-65" x="558.175781"/>
     </g>
    </g>
    <g id="line2d_24">
     <path d="M 1283.132812 63.532062 
L 1293.132812 63.532062 
L 1303.132812 63.532062 
" style="fill: none; stroke: #ffa500; stroke-width: 1.5; stroke-linecap: square"/>
    </g>
    <g id="text_22">
     <!-- Check Value -->
     <g transform="translate(1311.132812 67.032062)scale(0.1 -0.1)">
      <defs>
       <path id="DejaVuSans-68" d="M 3513 2113 
L 3513 0 
L 2938 0 
L 2938 2094 
Q 2938 2591 2744 2837 
Q 2550 3084 2163 3084 
Q 1697 3084 1428 2787 
Q 1159 2491 1159 1978 
L 1159 0 
L 581 0 
L 581 4863 
L 1159 4863 
L 1159 2956 
Q 1366 3272 1645 3428 
Q 1925 3584 2291 3584 
Q 2894 3584 3203 3211 
Q 3513 2838 3513 2113 
z
" transform="scale(0.015625)"/>
       <path id="DejaVuSans-6b" d="M 581 4863 
L 1159 4863 
L 1159 1991 
L 2875 3500 
L 3609 3500 
L 1753 1863 
L 3688 0 
L 2938 0 
L 1159 1709 
L 1159 0 
L 581 0 
L 581 4863 
z
" transform="scale(0.015625)"/>
      </defs>
      <use xlink:href="#DejaVuSans-43"/>
      <use xlink:href="#DejaVuSans-68" x="69.824219"/>
      <use xlink:href="#DejaVuSans-65" x="133.203125"/>
      <use xlink:href="#DejaVuSans-63" x="194.726562"/>
      <use xlink:href="#DejaVuSans-6b" x="249.707031"/>
      <use xlink:href="#DejaVuSans-20" x="307.617188"/>
      <use xlink:href="#DejaVuSans-56" x="339.404297"/>
      <use xlink:href="#DejaVuSans-61" x="400.0625"/>
      <use xlink:href="#DejaVuSans-6c" x="461.341797"/>
      <use xlink:href="#DejaVuSans-75" x="489.125"/>
      <use xlink:href="#DejaVuSans-65" x="552.503906"/>
     </g>
    </g>
    <g id="line2d_25">
     <path d="M 1283.132812 78.210187 
L 1293.132812 78.210187 
L 1303.132812 78.210187 
" style="fill: none; stroke: #ff0000; stroke-width: 1.5; stroke-linecap: square"/>
    </g>
    <g id="text_23">
     <!-- Predict Value -->
     <g transform="translate(1311.132812 81.710187)scale(0.1 -0.1)">
      <use xlink:href="#DejaVuSans-50"/>
      <use xlink:href="#DejaVuSans-72" x="58.552734"/>
      <use xlink:href="#DejaVuSans-65" x="97.416016"/>
      <use xlink:href="#DejaVuSans-64" x="158.939453"/>
      <use xlink:href="#DejaVuSans-69" x="222.416016"/>
      <use xlink:href="#DejaVuSans-63" x="250.199219"/>
      <use xlink:href="#DejaVuSans-74" x="305.179688"/>
      <use xlink:href="#DejaVuSans-20" x="344.388672"/>
      <use xlink:href="#DejaVuSans-56" x="376.175781"/>
      <use xlink:href="#DejaVuSans-61" x="436.833984"/>
      <use xlink:href="#DejaVuSans-6c" x="498.113281"/>
      <use xlink:href="#DejaVuSans-75" x="525.896484"/>
      <use xlink:href="#DejaVuSans-65" x="589.275391"/>
     </g>
    </g>
   </g>
  </g>
 </g>
 <defs>
  <clipPath id="p294e97773a">
   <rect x="46.0125" y="35.7555" width="1339.2" height="332.64"/>
  </clipPath>
 </defs>
</svg>
