<?xml version="1.0" encoding="utf-8" standalone="no"?>
<!DOCTYPE svg PUBLIC "-//W3C//DTD SVG 1.1//EN"
  "http://www.w3.org/Graphics/SVG/1.1/DTD/svg11.dtd">
<svg xmlns:xlink="http://www.w3.org/1999/xlink" width="1398.775pt" height="392.273625pt" viewBox="0 0 1398.775 392.273625" xmlns="http://www.w3.org/2000/svg" version="1.1">
 <metadata>
  <rdf:RDF xmlns:dc="http://purl.org/dc/elements/1.1/" xmlns:cc="http://creativecommons.org/ns#" xmlns:rdf="http://www.w3.org/1999/02/22-rdf-syntax-ns#">
   <cc:Work>
    <dc:type rdf:resource="http://purl.org/dc/dcmitype/StillImage"/>
    <dc:date>2022-05-26T19:11:03.813885</dc:date>
    <dc:format>image/svg+xml</dc:format>
    <dc:creator>
     <cc:Agent>
      <dc:title>Matplotlib v3.5.1, https://matplotlib.org/</dc:title>
     </cc:Agent>
    </dc:creator>
   </cc:Work>
  </rdf:RDF>
 </metadata>
 <defs>
  <style type="text/css">*{stroke-linejoin: round; stroke-linecap: butt}</style>
 </defs>
 <g id="figure_1">
  <g id="patch_1">
   <path d="M 0 392.273625 
L 1398.775 392.273625 
L 1398.775 0 
L 0 0 
z
" style="fill: #ffffff"/>
  </g>
  <g id="axes_1">
   <g id="patch_2">
    <path d="M 52.375 368.3955 
L 1391.575 368.3955 
L 1391.575 35.7555 
L 52.375 35.7555 
z
" style="fill: #ffffff"/>
   </g>
   <g id="matplotlib.axis_1">
    <g id="xtick_1">
     <g id="line2d_1">
      <defs>
       <path id="mb3543186a9" d="M 0 0 
L 0 3.5 
" style="stroke: #000000; stroke-width: 0.8"/>
      </defs>
      <g>
       <use xlink:href="#mb3543186a9" x="82.354994" y="368.3955" style="stroke: #000000; stroke-width: 0.8"/>
      </g>
     </g>
     <g id="text_1">
      <!-- 2020-01 -->
      <g transform="translate(61.463587 382.993937)scale(0.1 -0.1)">
       <defs>
        <path id="DejaVuSans-32" d="M 1228 531 
L 3431 531 
L 3431 0 
L 469 0 
L 469 531 
Q 828 903 1448 1529 
Q 2069 2156 2228 2338 
Q 2531 2678 2651 2914 
Q 2772 3150 2772 3378 
Q 2772 3750 2511 3984 
Q 2250 4219 1831 4219 
Q 1534 4219 1204 4116 
Q 875 4013 500 3803 
L 500 4441 
Q 881 4594 1212 4672 
Q 1544 4750 1819 4750 
Q 2544 4750 2975 4387 
Q 3406 4025 3406 3419 
Q 3406 3131 3298 2873 
Q 3191 2616 2906 2266 
Q 2828 2175 2409 1742 
Q 1991 1309 1228 531 
z
" transform="scale(0.015625)"/>
        <path id="DejaVuSans-30" d="M 2034 4250 
Q 1547 4250 1301 3770 
Q 1056 3291 1056 2328 
Q 1056 1369 1301 889 
Q 1547 409 2034 409 
Q 2525 409 2770 889 
Q 3016 1369 3016 2328 
Q 3016 3291 2770 3770 
Q 2525 4250 2034 4250 
z
M 2034 4750 
Q 2819 4750 3233 4129 
Q 3647 3509 3647 2328 
Q 3647 1150 3233 529 
Q 2819 -91 2034 -91 
Q 1250 -91 836 529 
Q 422 1150 422 2328 
Q 422 3509 836 4129 
Q 1250 4750 2034 4750 
z
" transform="scale(0.015625)"/>
        <path id="DejaVuSans-2d" d="M 313 2009 
L 1997 2009 
L 1997 1497 
L 313 1497 
L 313 2009 
z
" transform="scale(0.015625)"/>
        <path id="DejaVuSans-31" d="M 794 531 
L 1825 531 
L 1825 4091 
L 703 3866 
L 703 4441 
L 1819 4666 
L 2450 4666 
L 2450 531 
L 3481 531 
L 3481 0 
L 794 0 
L 794 531 
z
" transform="scale(0.015625)"/>
       </defs>
       <use xlink:href="#DejaVuSans-32"/>
       <use xlink:href="#DejaVuSans-30" x="63.623047"/>
       <use xlink:href="#DejaVuSans-32" x="127.246094"/>
       <use xlink:href="#DejaVuSans-30" x="190.869141"/>
       <use xlink:href="#DejaVuSans-2d" x="254.492188"/>
       <use xlink:href="#DejaVuSans-30" x="290.576172"/>
       <use xlink:href="#DejaVuSans-31" x="354.199219"/>
      </g>
     </g>
    </g>
    <g id="xtick_2">
     <g id="line2d_2">
      <g>
       <use xlink:href="#mb3543186a9" x="210.138573" y="368.3955" style="stroke: #000000; stroke-width: 0.8"/>
      </g>
     </g>
     <g id="text_2">
      <!-- 2020-04 -->
      <g transform="translate(189.247167 382.993937)scale(0.1 -0.1)">
       <defs>
        <path id="DejaVuSans-34" d="M 2419 4116 
L 825 1625 
L 2419 1625 
L 2419 4116 
z
M 2253 4666 
L 3047 4666 
L 3047 1625 
L 3713 1625 
L 3713 1100 
L 3047 1100 
L 3047 0 
L 2419 0 
L 2419 1100 
L 313 1100 
L 313 1709 
L 2253 4666 
z
" transform="scale(0.015625)"/>
       </defs>
       <use xlink:href="#DejaVuSans-32"/>
       <use xlink:href="#DejaVuSans-30" x="63.623047"/>
       <use xlink:href="#DejaVuSans-32" x="127.246094"/>
       <use xlink:href="#DejaVuSans-30" x="190.869141"/>
       <use xlink:href="#DejaVuSans-2d" x="254.492188"/>
       <use xlink:href="#DejaVuSans-30" x="290.576172"/>
       <use xlink:href="#DejaVuSans-34" x="354.199219"/>
      </g>
     </g>
    </g>
    <g id="xtick_3">
     <g id="line2d_3">
      <g>
       <use xlink:href="#mb3543186a9" x="337.922153" y="368.3955" style="stroke: #000000; stroke-width: 0.8"/>
      </g>
     </g>
     <g id="text_3">
      <!-- 2020-07 -->
      <g transform="translate(317.030747 382.993937)scale(0.1 -0.1)">
       <defs>
        <path id="DejaVuSans-37" d="M 525 4666 
L 3525 4666 
L 3525 4397 
L 1831 0 
L 1172 0 
L 2766 4134 
L 525 4134 
L 525 4666 
z
" transform="scale(0.015625)"/>
       </defs>
       <use xlink:href="#DejaVuSans-32"/>
       <use xlink:href="#DejaVuSans-30" x="63.623047"/>
       <use xlink:href="#DejaVuSans-32" x="127.246094"/>
       <use xlink:href="#DejaVuSans-30" x="190.869141"/>
       <use xlink:href="#DejaVuSans-2d" x="254.492188"/>
       <use xlink:href="#DejaVuSans-30" x="290.576172"/>
       <use xlink:href="#DejaVuSans-37" x="354.199219"/>
      </g>
     </g>
    </g>
    <g id="xtick_4">
     <g id="line2d_4">
      <g>
       <use xlink:href="#mb3543186a9" x="467.109948" y="368.3955" style="stroke: #000000; stroke-width: 0.8"/>
      </g>
     </g>
     <g id="text_4">
      <!-- 2020-10 -->
      <g transform="translate(446.218542 382.993937)scale(0.1 -0.1)">
       <use xlink:href="#DejaVuSans-32"/>
       <use xlink:href="#DejaVuSans-30" x="63.623047"/>
       <use xlink:href="#DejaVuSans-32" x="127.246094"/>
       <use xlink:href="#DejaVuSans-30" x="190.869141"/>
       <use xlink:href="#DejaVuSans-2d" x="254.492188"/>
       <use xlink:href="#DejaVuSans-31" x="290.576172"/>
       <use xlink:href="#DejaVuSans-30" x="354.199219"/>
      </g>
     </g>
    </g>
    <g id="xtick_5">
     <g id="line2d_5">
      <g>
       <use xlink:href="#mb3543186a9" x="596.297743" y="368.3955" style="stroke: #000000; stroke-width: 0.8"/>
      </g>
     </g>
     <g id="text_5">
      <!-- 2021-01 -->
      <g transform="translate(575.406337 382.993937)scale(0.1 -0.1)">
       <use xlink:href="#DejaVuSans-32"/>
       <use xlink:href="#DejaVuSans-30" x="63.623047"/>
       <use xlink:href="#DejaVuSans-32" x="127.246094"/>
       <use xlink:href="#DejaVuSans-31" x="190.869141"/>
       <use xlink:href="#DejaVuSans-2d" x="254.492188"/>
       <use xlink:href="#DejaVuSans-30" x="290.576172"/>
       <use xlink:href="#DejaVuSans-31" x="354.199219"/>
      </g>
     </g>
    </g>
    <g id="xtick_6">
     <g id="line2d_6">
      <g>
       <use xlink:href="#mb3543186a9" x="722.677108" y="368.3955" style="stroke: #000000; stroke-width: 0.8"/>
      </g>
     </g>
     <g id="text_6">
      <!-- 2021-04 -->
      <g transform="translate(701.785701 382.993937)scale(0.1 -0.1)">
       <use xlink:href="#DejaVuSans-32"/>
       <use xlink:href="#DejaVuSans-30" x="63.623047"/>
       <use xlink:href="#DejaVuSans-32" x="127.246094"/>
       <use xlink:href="#DejaVuSans-31" x="190.869141"/>
       <use xlink:href="#DejaVuSans-2d" x="254.492188"/>
       <use xlink:href="#DejaVuSans-30" x="290.576172"/>
       <use xlink:href="#DejaVuSans-34" x="354.199219"/>
      </g>
     </g>
    </g>
    <g id="xtick_7">
     <g id="line2d_7">
      <g>
       <use xlink:href="#mb3543186a9" x="850.460687" y="368.3955" style="stroke: #000000; stroke-width: 0.8"/>
      </g>
     </g>
     <g id="text_7">
      <!-- 2021-07 -->
      <g transform="translate(829.569281 382.993937)scale(0.1 -0.1)">
       <use xlink:href="#DejaVuSans-32"/>
       <use xlink:href="#DejaVuSans-30" x="63.623047"/>
       <use xlink:href="#DejaVuSans-32" x="127.246094"/>
       <use xlink:href="#DejaVuSans-31" x="190.869141"/>
       <use xlink:href="#DejaVuSans-2d" x="254.492188"/>
       <use xlink:href="#DejaVuSans-30" x="290.576172"/>
       <use xlink:href="#DejaVuSans-37" x="354.199219"/>
      </g>
     </g>
    </g>
    <g id="xtick_8">
     <g id="line2d_8">
      <g>
       <use xlink:href="#mb3543186a9" x="979.648482" y="368.3955" style="stroke: #000000; stroke-width: 0.8"/>
      </g>
     </g>
     <g id="text_8">
      <!-- 2021-10 -->
      <g transform="translate(958.757076 382.993937)scale(0.1 -0.1)">
       <use xlink:href="#DejaVuSans-32"/>
       <use xlink:href="#DejaVuSans-30" x="63.623047"/>
       <use xlink:href="#DejaVuSans-32" x="127.246094"/>
       <use xlink:href="#DejaVuSans-31" x="190.869141"/>
       <use xlink:href="#DejaVuSans-2d" x="254.492188"/>
       <use xlink:href="#DejaVuSans-31" x="290.576172"/>
       <use xlink:href="#DejaVuSans-30" x="354.199219"/>
      </g>
     </g>
    </g>
    <g id="xtick_9">
     <g id="line2d_9">
      <g>
       <use xlink:href="#mb3543186a9" x="1108.836277" y="368.3955" style="stroke: #000000; stroke-width: 0.8"/>
      </g>
     </g>
     <g id="text_9">
      <!-- 2022-01 -->
      <g transform="translate(1087.944871 382.993937)scale(0.1 -0.1)">
       <use xlink:href="#DejaVuSans-32"/>
       <use xlink:href="#DejaVuSans-30" x="63.623047"/>
       <use xlink:href="#DejaVuSans-32" x="127.246094"/>
       <use xlink:href="#DejaVuSans-32" x="190.869141"/>
       <use xlink:href="#DejaVuSans-2d" x="254.492188"/>
       <use xlink:href="#DejaVuSans-30" x="290.576172"/>
       <use xlink:href="#DejaVuSans-31" x="354.199219"/>
      </g>
     </g>
    </g>
    <g id="xtick_10">
     <g id="line2d_10">
      <g>
       <use xlink:href="#mb3543186a9" x="1235.215642" y="368.3955" style="stroke: #000000; stroke-width: 0.8"/>
      </g>
     </g>
     <g id="text_10">
      <!-- 2022-04 -->
      <g transform="translate(1214.324235 382.993937)scale(0.1 -0.1)">
       <use xlink:href="#DejaVuSans-32"/>
       <use xlink:href="#DejaVuSans-30" x="63.623047"/>
       <use xlink:href="#DejaVuSans-32" x="127.246094"/>
       <use xlink:href="#DejaVuSans-32" x="190.869141"/>
       <use xlink:href="#DejaVuSans-2d" x="254.492188"/>
       <use xlink:href="#DejaVuSans-30" x="290.576172"/>
       <use xlink:href="#DejaVuSans-34" x="354.199219"/>
      </g>
     </g>
    </g>
    <g id="xtick_11">
     <g id="line2d_11">
      <g>
       <use xlink:href="#mb3543186a9" x="1362.999221" y="368.3955" style="stroke: #000000; stroke-width: 0.8"/>
      </g>
     </g>
     <g id="text_11">
      <!-- 2022-07 -->
      <g transform="translate(1342.107815 382.993937)scale(0.1 -0.1)">
       <use xlink:href="#DejaVuSans-32"/>
       <use xlink:href="#DejaVuSans-30" x="63.623047"/>
       <use xlink:href="#DejaVuSans-32" x="127.246094"/>
       <use xlink:href="#DejaVuSans-32" x="190.869141"/>
       <use xlink:href="#DejaVuSans-2d" x="254.492188"/>
       <use xlink:href="#DejaVuSans-30" x="290.576172"/>
       <use xlink:href="#DejaVuSans-37" x="354.199219"/>
      </g>
     </g>
    </g>
   </g>
   <g id="matplotlib.axis_2">
    <g id="ytick_1">
     <g id="line2d_12">
      <defs>
       <path id="m58d324891d" d="M 0 0 
L -3.5 0 
" style="stroke: #000000; stroke-width: 0.8"/>
      </defs>
      <g>
       <use xlink:href="#m58d324891d" x="52.375" y="336.981384" style="stroke: #000000; stroke-width: 0.8"/>
      </g>
     </g>
     <g id="text_12">
      <!-- 0 -->
      <g transform="translate(39.0125 340.780603)scale(0.1 -0.1)">
       <use xlink:href="#DejaVuSans-30"/>
      </g>
     </g>
    </g>
    <g id="ytick_2">
     <g id="line2d_13">
      <g>
       <use xlink:href="#m58d324891d" x="52.375" y="284.91243" style="stroke: #000000; stroke-width: 0.8"/>
      </g>
     </g>
     <g id="text_13">
      <!-- 20000 -->
      <g transform="translate(13.5625 288.711649)scale(0.1 -0.1)">
       <use xlink:href="#DejaVuSans-32"/>
       <use xlink:href="#DejaVuSans-30" x="63.623047"/>
       <use xlink:href="#DejaVuSans-30" x="127.246094"/>
       <use xlink:href="#DejaVuSans-30" x="190.869141"/>
       <use xlink:href="#DejaVuSans-30" x="254.492188"/>
      </g>
     </g>
    </g>
    <g id="ytick_3">
     <g id="line2d_14">
      <g>
       <use xlink:href="#m58d324891d" x="52.375" y="232.843477" style="stroke: #000000; stroke-width: 0.8"/>
      </g>
     </g>
     <g id="text_14">
      <!-- 40000 -->
      <g transform="translate(13.5625 236.642695)scale(0.1 -0.1)">
       <use xlink:href="#DejaVuSans-34"/>
       <use xlink:href="#DejaVuSans-30" x="63.623047"/>
       <use xlink:href="#DejaVuSans-30" x="127.246094"/>
       <use xlink:href="#DejaVuSans-30" x="190.869141"/>
       <use xlink:href="#DejaVuSans-30" x="254.492188"/>
      </g>
     </g>
    </g>
    <g id="ytick_4">
     <g id="line2d_15">
      <g>
       <use xlink:href="#m58d324891d" x="52.375" y="180.774523" style="stroke: #000000; stroke-width: 0.8"/>
      </g>
     </g>
     <g id="text_15">
      <!-- 60000 -->
      <g transform="translate(13.5625 184.573741)scale(0.1 -0.1)">
       <defs>
        <path id="DejaVuSans-36" d="M 2113 2584 
Q 1688 2584 1439 2293 
Q 1191 2003 1191 1497 
Q 1191 994 1439 701 
Q 1688 409 2113 409 
Q 2538 409 2786 701 
Q 3034 994 3034 1497 
Q 3034 2003 2786 2293 
Q 2538 2584 2113 2584 
z
M 3366 4563 
L 3366 3988 
Q 3128 4100 2886 4159 
Q 2644 4219 2406 4219 
Q 1781 4219 1451 3797 
Q 1122 3375 1075 2522 
Q 1259 2794 1537 2939 
Q 1816 3084 2150 3084 
Q 2853 3084 3261 2657 
Q 3669 2231 3669 1497 
Q 3669 778 3244 343 
Q 2819 -91 2113 -91 
Q 1303 -91 875 529 
Q 447 1150 447 2328 
Q 447 3434 972 4092 
Q 1497 4750 2381 4750 
Q 2619 4750 2861 4703 
Q 3103 4656 3366 4563 
z
" transform="scale(0.015625)"/>
       </defs>
       <use xlink:href="#DejaVuSans-36"/>
       <use xlink:href="#DejaVuSans-30" x="63.623047"/>
       <use xlink:href="#DejaVuSans-30" x="127.246094"/>
       <use xlink:href="#DejaVuSans-30" x="190.869141"/>
       <use xlink:href="#DejaVuSans-30" x="254.492188"/>
      </g>
     </g>
    </g>
    <g id="ytick_5">
     <g id="line2d_16">
      <g>
       <use xlink:href="#m58d324891d" x="52.375" y="128.705569" style="stroke: #000000; stroke-width: 0.8"/>
      </g>
     </g>
     <g id="text_16">
      <!-- 80000 -->
      <g transform="translate(13.5625 132.504788)scale(0.1 -0.1)">
       <defs>
        <path id="DejaVuSans-38" d="M 2034 2216 
Q 1584 2216 1326 1975 
Q 1069 1734 1069 1313 
Q 1069 891 1326 650 
Q 1584 409 2034 409 
Q 2484 409 2743 651 
Q 3003 894 3003 1313 
Q 3003 1734 2745 1975 
Q 2488 2216 2034 2216 
z
M 1403 2484 
Q 997 2584 770 2862 
Q 544 3141 544 3541 
Q 544 4100 942 4425 
Q 1341 4750 2034 4750 
Q 2731 4750 3128 4425 
Q 3525 4100 3525 3541 
Q 3525 3141 3298 2862 
Q 3072 2584 2669 2484 
Q 3125 2378 3379 2068 
Q 3634 1759 3634 1313 
Q 3634 634 3220 271 
Q 2806 -91 2034 -91 
Q 1263 -91 848 271 
Q 434 634 434 1313 
Q 434 1759 690 2068 
Q 947 2378 1403 2484 
z
M 1172 3481 
Q 1172 3119 1398 2916 
Q 1625 2713 2034 2713 
Q 2441 2713 2670 2916 
Q 2900 3119 2900 3481 
Q 2900 3844 2670 4047 
Q 2441 4250 2034 4250 
Q 1625 4250 1398 4047 
Q 1172 3844 1172 3481 
z
" transform="scale(0.015625)"/>
       </defs>
       <use xlink:href="#DejaVuSans-38"/>
       <use xlink:href="#DejaVuSans-30" x="63.623047"/>
       <use xlink:href="#DejaVuSans-30" x="127.246094"/>
       <use xlink:href="#DejaVuSans-30" x="190.869141"/>
       <use xlink:href="#DejaVuSans-30" x="254.492188"/>
      </g>
     </g>
    </g>
    <g id="ytick_6">
     <g id="line2d_17">
      <g>
       <use xlink:href="#m58d324891d" x="52.375" y="76.636615" style="stroke: #000000; stroke-width: 0.8"/>
      </g>
     </g>
     <g id="text_17">
      <!-- 100000 -->
      <g transform="translate(7.2 80.435834)scale(0.1 -0.1)">
       <use xlink:href="#DejaVuSans-31"/>
       <use xlink:href="#DejaVuSans-30" x="63.623047"/>
       <use xlink:href="#DejaVuSans-30" x="127.246094"/>
       <use xlink:href="#DejaVuSans-30" x="190.869141"/>
       <use xlink:href="#DejaVuSans-30" x="254.492188"/>
       <use xlink:href="#DejaVuSans-30" x="318.115234"/>
      </g>
     </g>
    </g>
   </g>
   <g id="line2d_18">
    <path d="M 113.247727 336.981384 
L 190.479561 336.916298 
L 194.692207 336.856419 
L 197.500637 336.848608 
L 198.904852 336.882453 
L 204.521713 336.640333 
L 205.925928 336.603884 
L 207.330143 336.718436 
L 215.755434 336.322712 
L 219.96808 335.950419 
L 221.372295 336.304488 
L 222.77651 335.932195 
L 224.180725 336.005091 
L 225.58494 335.83066 
L 226.989155 336.062367 
L 231.201801 335.809833 
L 232.606016 335.476592 
L 234.010231 335.36204 
L 235.414446 334.99235 
L 236.818662 335.651023 
L 238.222877 335.083471 
L 239.627092 334.265988 
L 241.031307 334.14623 
L 242.435522 333.755713 
L 243.839737 334.45604 
L 245.243953 334.807505 
L 246.648168 334.763247 
L 248.052383 333.797368 
L 249.456598 334.255575 
L 250.860813 333.271471 
L 252.265028 333.037161 
L 253.669243 333.469333 
L 256.477674 333.24804 
L 257.881889 334.065523 
L 259.286104 332.792437 
L 260.690319 331.821351 
L 262.094534 332.019213 
L 263.49875 331.935903 
L 264.902965 332.914799 
L 266.30718 333.583885 
L 267.711395 331.782299 
L 269.11561 332.133765 
L 270.519825 330.709679 
L 271.924041 330.636782 
L 273.328256 331.482903 
L 274.732471 331.57923 
L 277.540901 329.918231 
L 278.945116 331.128834 
L 280.349332 329.241334 
L 281.753547 329.275179 
L 283.157762 328.314507 
L 284.561977 329.785455 
L 285.966192 330.511817 
L 287.370407 327.986473 
L 288.774623 327.965645 
L 290.178838 328.189541 
L 291.583053 328.580059 
L 292.987268 329.470438 
L 294.391483 328.775317 
L 295.795698 329.767231 
L 297.199913 326.851369 
L 298.604129 326.796697 
L 300.008344 325.41687 
L 301.412559 325.666801 
L 302.816774 327.627197 
L 304.220989 327.910973 
L 305.625204 329.173645 
L 307.02942 326.049507 
L 308.433635 324.268749 
L 309.83785 324.51087 
L 311.242065 323.38618 
L 312.64628 327.884938 
L 314.050495 326.184887 
L 315.454711 328.059369 
L 316.858926 325.008128 
L 318.263141 324.146387 
L 319.667356 322.240663 
L 321.071571 323.886042 
L 322.475786 324.700922 
L 323.880002 323.071163 
L 325.284217 325.065404 
L 326.688432 320.610905 
L 328.092647 322.826439 
L 329.496862 321.08994 
L 330.901077 322.816025 
L 332.305293 325.50018 
L 333.709508 326.437421 
L 335.113723 327.075266 
L 336.517938 322.839456 
L 337.922153 322.191198 
L 339.326368 319.431543 
L 340.730584 319.434147 
L 342.134799 318.981147 
L 343.539014 324.789439 
L 344.943229 324.219284 
L 346.347444 320.689009 
L 347.751659 318.770268 
L 349.155874 318.028285 
L 350.56009 319.041026 
L 351.964305 321.115974 
L 353.36852 325.312732 
L 354.772735 324.784232 
L 356.17695 318.624475 
L 357.581165 320.972784 
L 358.985381 320.303698 
L 360.389596 318.088164 
L 361.793811 317.15613 
L 363.198026 323.154474 
L 364.602241 323.516353 
L 366.006456 319.124337 
L 367.410672 321.311233 
L 368.814887 315.013493 
L 371.623317 319.405509 
L 373.027532 322.714491 
L 374.431747 324.034439 
L 375.835963 318.215733 
L 377.240178 322.006353 
L 378.644393 316.856734 
L 380.048608 314.961424 
L 381.452823 312.102838 
L 382.857038 324.346853 
L 384.261254 324.570749 
L 385.665469 320.975388 
L 387.069684 320.998819 
L 388.473899 319.824664 
L 389.878114 319.494026 
L 391.282329 320.071992 
L 392.686545 325.588697 
L 395.494975 319.574733 
L 396.89919 321.730388 
L 398.303405 317.791371 
L 399.70762 322.355215 
L 401.111835 320.462509 
L 402.516051 325.401249 
L 403.920266 327.684473 
L 405.324481 322.646801 
L 406.728696 321.902215 
L 408.132911 319.343026 
L 409.537126 321.548146 
L 410.941342 320.105836 
L 412.345557 326.702973 
L 413.749772 327.762576 
L 415.153987 324.182835 
L 416.558202 323.269025 
L 417.962417 321.293009 
L 419.366633 321.818905 
L 420.770848 321.428388 
L 422.175063 326.231749 
L 423.579278 327.299162 
L 424.983493 320.121457 
L 426.387708 324.169818 
L 427.791924 321.524715 
L 429.196139 320.850422 
L 430.600354 320.530198 
L 432.004569 324.969077 
L 433.408784 327.905766 
L 434.812999 323.050336 
L 436.217215 325.367404 
L 437.62143 323.852198 
L 439.025645 321.529922 
L 440.42986 322.209422 
L 441.834075 325.505387 
L 443.23829 328.298886 
L 444.642506 324.560335 
L 446.046721 325.411663 
L 447.450936 328.697214 
L 448.855151 324.378094 
L 450.259366 323.52937 
L 451.663581 327.759973 
L 453.067796 329.387127 
L 454.472012 324.789439 
L 455.876227 324.521284 
L 457.280442 322.901939 
L 458.684657 322.920163 
L 460.088872 322.47237 
L 461.493087 326.864387 
L 462.897303 328.129662 
L 464.301518 325.406456 
L 465.705733 323.826163 
L 467.109948 323.706405 
L 468.514163 324.549922 
L 469.918378 324.320818 
L 471.322594 327.317386 
L 472.726809 263.785452 
L 474.131024 324.411939 
L 475.535239 325.057594 
L 476.939454 323.183112 
L 478.343669 322.579112 
L 481.1521 328.715438 
L 482.556315 327.759973 
L 483.96053 325.799576 
L 485.364745 326.4218 
L 486.76896 322.625974 
L 488.173176 319.405509 
L 490.981606 326.257783 
L 492.385821 327.351231 
L 493.790036 321.912629 
L 495.194251 319.160785 
L 496.598466 319.767388 
L 498.002682 319.788216 
L 499.406897 321.295612 
L 500.811112 325.630352 
L 502.215327 326.135421 
L 503.619542 321.511698 
L 505.023757 322.415094 
L 506.427973 321.496077 
L 507.832188 321.360698 
L 509.236403 320.967578 
L 510.640618 325.448111 
L 512.044833 327.184611 
L 513.449048 323.313284 
L 514.853264 323.37837 
L 517.661694 321.540336 
L 519.065909 319.251906 
L 521.874339 324.068284 
L 523.278555 322.021974 
L 524.68277 317.075423 
L 526.086985 322.251077 
L 527.4912 322.511422 
L 528.895415 321.725181 
L 530.29963 328.470714 
L 531.703846 329.499076 
L 533.108061 332.407127 
L 534.512276 326.781076 
L 535.916491 325.338766 
L 537.320706 320.251629 
L 538.724921 319.488819 
L 540.129137 313.06351 
L 541.533352 317.499785 
L 542.937567 308.87977 
L 544.341782 310.074752 
L 545.745997 315.875234 
L 547.150212 305.529133 
L 548.554427 309.051597 
L 549.958643 322.225043 
L 551.362858 320.131871 
L 554.171288 307.689994 
L 555.575503 308.265356 
L 556.979718 305.409374 
L 558.383934 306.716305 
L 559.788149 317.572682 
L 561.192364 320.321923 
L 562.596579 308.327839 
L 564.000794 305.807702 
L 565.405009 306.008167 
L 566.809225 305.08134 
L 568.21344 305.591615 
L 569.617655 314.570907 
L 571.02187 321.542939 
L 572.426085 307.749874 
L 573.8303 310.173683 
L 575.234516 306.263305 
L 576.638731 305.094357 
L 578.042946 305.404167 
L 579.447161 319.095699 
L 580.851376 323.00087 
L 582.255591 304.40965 
L 583.659807 306.643408 
L 585.064022 304.47734 
L 586.468237 311.782614 
L 587.872452 324.031835 
L 589.276667 320.79575 
L 590.680882 321.371112 
L 592.085098 305.482271 
L 593.489313 304.683012 
L 594.893528 305.326064 
L 596.297743 308.106546 
L 597.701958 320.42606 
L 599.106173 323.414818 
L 600.510388 320.152698 
L 601.914604 307.637925 
L 603.318819 302.238375 
L 604.723034 301.225634 
L 606.127249 299.590669 
L 607.531464 295.052859 
L 608.935679 310.939097 
L 610.339895 317.210803 
L 611.74411 299.504755 
L 613.148325 295.656859 
L 614.55254 294.107808 
L 615.956755 281.356121 
L 617.36097 283.550827 
L 618.765186 307.900874 
L 620.169401 315.961148 
L 621.573616 287.791844 
L 624.382046 278.822966 
L 625.786261 282.290759 
L 627.190477 284.764034 
L 628.594692 308.676701 
L 629.998907 314.797407 
L 631.403122 292.293205 
L 634.211552 288.375016 
L 635.615768 294.352532 
L 637.019983 297.052307 
L 638.424198 318.679147 
L 639.828413 322.797801 
L 641.232628 325.56787 
L 642.636843 305.341684 
L 644.041059 336.981384 
L 645.445274 267.661986 
L 646.849489 302.592444 
L 648.253704 321.191474 
L 649.657919 326.911249 
L 651.062134 309.025563 
L 652.466349 307.984184 
L 653.870565 309.184373 
L 655.27478 309.93677 
L 656.678995 311.6212 
L 658.08321 326.309852 
L 659.487425 328.915903 
L 660.89164 314.375648 
L 662.295856 313.581596 
L 663.700071 313.292614 
L 665.104286 316.598992 
L 666.508501 316.713544 
L 667.912716 328.900283 
L 669.316931 331.11842 
L 670.721147 314.503217 
L 672.125362 314.482389 
L 673.529577 314.95101 
L 674.933792 317.424285 
L 676.338007 318.116802 
L 677.742222 329.665696 
L 679.146438 330.881506 
L 680.550653 316.380303 
L 681.954868 316.692716 
L 683.359083 317.400854 
L 684.763298 319.28575 
L 686.167513 319.900164 
L 687.571729 329.863558 
L 688.975944 332.094713 
L 690.380159 317.697647 
L 691.784374 319.793423 
L 693.188589 320.139681 
L 694.592804 319.236285 
L 695.99702 321.08994 
L 697.401235 330.694058 
L 698.80545 333.235023 
L 700.209665 333.654178 
L 701.61388 320.176129 
L 703.018095 319.470595 
L 704.42231 322.084457 
L 705.826526 322.066232 
L 707.230741 331.42823 
L 708.634956 333.367799 
L 710.039171 321.670508 
L 711.443386 322.105284 
L 712.847601 321.915233 
L 714.251817 323.175301 
L 715.656032 323.810542 
L 717.060247 332.696109 
L 718.464462 333.615126 
L 719.868677 323.789715 
L 721.272892 321.420577 
L 722.677108 322.972232 
L 724.081323 328.939334 
L 725.485538 332.196247 
L 726.889753 333.69323 
L 728.293968 333.734885 
L 729.698183 324.474422 
L 731.102399 323.00087 
L 732.506614 323.599663 
L 733.910829 323.846991 
L 735.315044 320.433871 
L 736.719259 332.313403 
L 738.123474 332.745575 
L 739.52769 325.234628 
L 740.931905 324.240111 
L 742.33612 326.075542 
L 743.740335 325.255456 
L 745.14455 326.158852 
L 746.548765 333.060592 
L 747.95298 333.576075 
L 749.357196 325.88549 
L 750.761411 324.90399 
L 752.165626 327.3278 
L 753.569841 326.7993 
L 754.974056 328.369179 
L 756.378271 332.677885 
L 757.782487 334.005644 
L 759.186702 327.6298 
L 760.590917 327.041421 
L 761.995132 326.593628 
L 763.399347 327.033611 
L 764.803562 329.105955 
L 766.207778 334.135816 
L 767.611993 334.307644 
L 769.016208 329.004421 
L 770.420423 329.116369 
L 771.824638 329.571972 
L 773.228853 329.059093 
L 774.633069 329.840127 
L 776.037284 333.922333 
L 777.441499 335.148557 
L 780.249929 328.936731 
L 781.654144 327.525662 
L 783.05836 329.483455 
L 784.462575 329.965093 
L 785.86679 333.771333 
L 787.271005 334.84135 
L 788.67522 329.777645 
L 790.079435 331.774489 
L 791.483651 330.139524 
L 794.292081 330.248869 
L 795.696296 333.664592 
L 797.100511 335.151161 
L 798.504726 330.517024 
L 799.908941 329.348076 
L 801.313157 329.040869 
L 802.717372 329.155421 
L 804.121587 329.886989 
L 805.525802 333.578678 
L 806.930017 334.554971 
L 808.334232 318.973337 
L 809.738448 328.470714 
L 811.142663 329.447007 
L 812.546878 329.6683 
L 813.951093 331.589644 
L 815.355308 331.829161 
L 816.759523 334.687747 
L 818.163739 328.002093 
L 819.567954 326.945093 
L 820.972169 327.421524 
L 822.376384 328.436869 
L 823.780599 327.481404 
L 825.184814 332.537299 
L 826.58903 333.922333 
L 827.993245 325.916732 
L 829.39746 327.116921 
L 830.801675 325.908921 
L 832.20589 326.312456 
L 833.610105 336.981384 
L 835.014321 322.553077 
L 836.418536 333.680213 
L 837.822751 325.96099 
L 839.226966 324.060473 
L 840.631181 323.078974 
L 842.035396 323.261215 
L 843.439612 323.83137 
L 844.843827 330.774765 
L 846.248042 332.657058 
L 847.652257 322.113095 
L 849.056472 321.087336 
L 850.460687 321.149819 
L 851.864902 321.772043 
L 853.269118 320.670785 
L 854.673333 330.183782 
L 856.077548 332.282161 
L 857.481763 316.182441 
L 858.885978 314.833855 
L 860.290193 312.373597 
L 861.694409 312.719855 
L 863.098624 312.037752 
L 864.502839 327.142955 
L 865.907054 328.978386 
L 867.311269 307.986787 
L 868.715484 305.438012 
L 870.1197 303.602581 
L 871.523915 304.646564 
L 872.92813 304.097236 
L 874.332345 325.427283 
L 875.73656 323.164887 
L 877.140775 300.915823 
L 878.544991 297.414186 
L 879.949206 294.69098 
L 881.353421 336.981384 
L 882.757636 253.035817 
L 884.161851 319.967854 
L 885.566066 321.568974 
L 886.970282 291.660567 
L 888.374497 287.442982 
L 889.778712 286.935309 
L 891.182927 286.615085 
L 892.587142 288.013137 
L 893.991357 319.434147 
L 895.395573 320.043354 
L 896.799788 287.747585 
L 898.204003 283.129069 
L 899.608218 280.827621 
L 901.012433 280.843242 
L 902.416648 284.865568 
L 903.820863 317.265475 
L 905.225079 320.025129 
L 906.629294 286.070965 
L 908.033509 277.854484 
L 909.437724 271.960278 
L 910.841939 277.732122 
L 912.246154 275.430674 
L 913.65037 336.981384 
L 915.054585 294.110411 
L 916.4588 298.41391 
L 917.863015 261.603763 
L 919.26723 276.662105 
L 922.075661 284.113172 
L 923.479876 317.044182 
L 924.884091 319.947026 
L 926.288306 289.437223 
L 927.692521 281.658121 
L 929.096736 283.264448 
L 930.500952 286.068361 
L 931.905167 291.301291 
L 933.309382 319.181612 
L 934.713597 322.495801 
L 936.117812 307.963356 
L 937.522027 291.845412 
L 938.926243 289.76005 
L 940.330458 291.657963 
L 941.734673 296.404049 
L 943.138888 317.445113 
L 944.543103 323.633508 
L 945.947318 295.888566 
L 947.351534 295.649049 
L 948.755749 298.377462 
L 950.159964 336.981384 
L 951.564179 267.354779 
L 952.968394 323.602267 
L 954.372609 326.148438 
L 955.776824 303.321409 
L 957.18104 302.571616 
L 958.585255 318.653113 
L 959.98947 327.208042 
L 961.393685 336.981384 
L 962.7979 293.519429 
L 964.202115 328.215576 
L 965.606331 304.383616 
L 967.010546 306.773581 
L 968.414761 306.239874 
L 969.818976 310.585028 
L 971.223191 336.981384 
L 972.627406 301.353203 
L 974.031622 329.152817 
L 975.435837 311.488424 
L 976.840052 311.478011 
L 978.244267 313.998148 
L 979.648482 317.747113 
L 981.052697 317.796578 
L 982.456913 336.981384 
L 983.861128 323.282043 
L 985.265343 336.981384 
L 988.073773 297.1226 
L 989.477988 318.345906 
L 990.882204 336.981384 
L 992.286419 313.959096 
L 993.690634 331.756265 
L 995.094849 318.270406 
L 996.499064 320.527595 
L 999.307494 323.21956 
L 1000.71171 323.435646 
L 1002.115925 331.792713 
L 1003.52014 333.302713 
L 1004.924355 325.994835 
L 1006.32857 323.784508 
L 1007.732785 324.490042 
L 1009.137001 324.867542 
L 1010.541216 325.390835 
L 1011.945431 336.981384 
L 1013.349646 329.725576 
L 1014.753861 336.981384 
L 1017.562292 312.769321 
L 1018.966507 326.56499 
L 1020.370722 327.926593 
L 1021.774937 333.216799 
L 1023.179152 336.981384 
L 1024.583367 334.393557 
L 1025.987583 327.640214 
L 1027.391798 330.056213 
L 1028.796013 327.184611 
L 1030.200228 318.267802 
L 1031.604443 333.38342 
L 1033.008658 336.981384 
L 1034.412874 325.336163 
L 1035.817089 336.981384 
L 1037.221304 318.629682 
L 1038.625519 336.981384 
L 1040.029734 328.252024 
L 1041.433949 328.832593 
L 1042.838165 334.528937 
L 1044.24238 334.963712 
L 1045.646595 325.081025 
L 1047.05081 326.788887 
L 1048.455025 336.981384 
L 1049.85924 326.991956 
L 1051.263455 328.374386 
L 1052.667671 331.407403 
L 1054.071886 336.981384 
L 1055.476101 327.353835 
L 1056.880316 315.073372 
L 1058.284531 328.012507 
L 1059.688746 336.981384 
L 1061.092962 329.285593 
L 1062.497177 332.362868 
L 1063.901392 336.981384 
L 1065.305607 319.66325 
L 1066.709822 336.981384 
L 1068.114037 320.751491 
L 1069.518253 336.981384 
L 1070.922468 327.059645 
L 1072.326683 335.023592 
L 1073.730898 336.981384 
L 1076.539328 320.332336 
L 1077.943544 336.981384 
L 1079.347759 329.191869 
L 1080.751974 330.069231 
L 1082.156189 334.755437 
L 1083.560404 334.974126 
L 1084.964619 322.269301 
L 1086.368835 330.142127 
L 1087.77305 336.981384 
L 1089.177265 329.821903 
L 1090.58148 330.394662 
L 1091.985695 332.927816 
L 1093.38991 336.981384 
L 1094.794126 329.22311 
L 1096.198341 328.340541 
L 1097.602556 319.061854 
L 1099.006771 329.389731 
L 1100.410986 336.981384 
L 1101.815201 334.890816 
L 1103.219416 334.526333 
L 1104.623632 325.458525 
L 1106.027847 323.209146 
L 1107.432062 289.960516 
L 1108.836277 313.04789 
L 1110.240492 332.631023 
L 1111.644707 329.491265 
L 1113.048923 297.450635 
L 1115.857353 269.757761 
L 1117.261568 264.02497 
L 1118.665783 257.13104 
L 1120.069998 306.783995 
L 1121.474214 336.981384 
L 1122.878429 220.664548 
L 1124.282644 221.942841 
L 1125.686859 223.67153 
L 1127.091074 336.981384 
L 1128.495289 99.010644 
L 1129.899505 287.172223 
L 1131.30372 292.459825 
L 1132.707935 336.981384 
L 1134.11215 50.8755 
L 1135.516365 336.981384 
L 1136.92058 75.910253 
L 1138.324796 336.981384 
L 1139.729011 148.908323 
L 1141.133226 290.28074 
L 1142.537441 220.081376 
L 1143.941656 336.981384 
L 1146.750087 91.567387 
L 1148.154302 226.121375 
L 1149.558517 300.725772 
L 1150.962732 304.383616 
L 1152.366947 224.775392 
L 1153.771162 336.981384 
L 1155.175377 227.165357 
L 1156.579593 133.449051 
L 1157.983808 245.228077 
L 1159.388023 310.337701 
L 1160.792238 312.920321 
L 1162.196453 320.467716 
L 1163.600668 272.160744 
L 1165.004884 336.981384 
L 1166.409099 247.784663 
L 1167.813314 187.067056 
L 1169.217529 336.981384 
L 1170.621744 313.930458 
L 1172.025959 316.593785 
L 1173.430175 221.640841 
L 1176.238605 336.981384 
L 1177.64282 229.443374 
L 1179.047035 322.105284 
L 1180.45125 336.981384 
L 1181.855466 324.401525 
L 1183.259681 240.705889 
L 1184.663896 289.463257 
L 1186.068111 296.268669 
L 1187.472326 301.941582 
L 1188.876541 327.819852 
L 1190.280757 330.410282 
L 1191.684972 302.837168 
L 1193.089187 336.981384 
L 1194.493402 304.849633 
L 1195.897617 309.494184 
L 1197.301832 311.602976 
L 1198.706047 309.403063 
L 1200.110263 332.597178 
L 1201.514478 313.709165 
L 1204.322908 316.471423 
L 1205.727123 336.981384 
L 1207.131338 301.144927 
L 1208.535554 333.880678 
L 1209.939769 334.331075 
L 1211.343984 336.981384 
L 1212.748199 321.295612 
L 1214.152414 308.12477 
L 1215.556629 336.981384 
L 1216.960845 324.328629 
L 1218.36506 326.2708 
L 1219.769275 334.635678 
L 1221.17349 333.792161 
L 1222.577705 336.981384 
L 1223.98192 325.914128 
L 1225.386136 319.444561 
L 1226.790351 336.981384 
L 1228.194566 326.945093 
L 1229.598781 335.270919 
L 1231.002996 329.801076 
L 1232.407211 336.981384 
L 1233.811427 323.380974 
L 1235.215642 330.373834 
L 1236.619857 328.382197 
L 1238.024072 334.797092 
L 1239.428287 335.14335 
L 1240.832502 325.987025 
L 1242.236718 305.365116 
L 1243.640933 253.108713 
L 1245.045148 325.721473 
L 1246.449363 329.777645 
L 1247.853578 336.104022 
L 1249.257793 336.249816 
L 1250.662008 335.29435 
L 1252.066224 335.031402 
L 1253.470439 335.773385 
L 1254.874654 335.937402 
L 1256.278869 333.878075 
L 1257.683084 334.377937 
L 1259.087299 336.981384 
L 1260.491515 332.810661 
L 1261.89573 333.622937 
L 1263.299945 334.182678 
L 1264.70416 336.981384 
L 1266.108375 332.313403 
L 1267.51259 336.051953 
L 1268.916806 336.616902 
L 1270.321021 333.883282 
L 1271.725236 333.169937 
L 1274.533666 334.487281 
L 1275.937881 334.609643 
L 1277.342097 336.981384 
L 1278.746312 335.940005 
L 1280.150527 338.022763 
L 1281.554742 336.981384 
L 1287.171603 336.981384 
L 1288.575818 321.433595 
L 1289.980033 336.981384 
L 1297.001109 336.981384 
L 1298.405324 319.306578 
L 1299.809539 336.981384 
L 1306.830615 336.981384 
L 1308.23483 317.892906 
L 1309.639045 336.981384 
L 1311.04326 336.981384 
L 1311.04326 336.981384 
" clip-path="url(#pd316709054)" style="fill: none; stroke: #0000ff; stroke-width: 1.5; stroke-linecap: square"/>
   </g>
   <g id="line2d_19">
    <path d="M 1072.326683 337.848598 
L 1073.730898 330.048922 
L 1075.135113 325.931731 
L 1076.539328 332.368083 
L 1077.943544 330.244958 
L 1079.347759 331.308915 
L 1080.751974 333.617579 
L 1082.156189 326.868788 
L 1083.560404 337.553062 
L 1084.964619 328.123623 
L 1086.368835 327.566662 
L 1087.77305 332.848529 
L 1089.177265 330.768629 
L 1090.58148 327.92309 
L 1091.985695 334.052864 
L 1093.38991 334.306137 
L 1094.794126 326.01209 
L 1096.198341 330.703264 
L 1097.602556 335.00179 
L 1099.006771 335.305705 
L 1100.410986 330.999663 
L 1101.815201 330.699168 
L 1103.219416 328.02267 
L 1104.623632 328.007182 
L 1106.027847 331.893101 
L 1107.432062 326.730639 
L 1108.836277 337.566938 
L 1110.240492 331.824336 
L 1111.644707 328.519259 
L 1113.048923 317.03752 
L 1114.453138 322.105316 
L 1115.857353 324.972896 
L 1117.261568 310.651733 
L 1118.665783 305.315334 
L 1120.069998 312.830811 
L 1121.474214 290.109893 
L 1122.878429 271.642758 
L 1124.282644 278.892045 
L 1125.686859 270.141165 
L 1127.091074 284.091904 
L 1128.495289 217.848494 
L 1129.899505 303.134894 
L 1131.30372 249.284897 
L 1132.707935 264.061191 
L 1134.11215 148.014986 
L 1135.516365 274.16249 
L 1136.92058 232.611053 
L 1138.324796 270.529398 
L 1139.729011 128.348065 
L 1141.133226 344.20716 
L 1142.537441 173.26824 
L 1143.941656 208.438206 
L 1145.345871 187.240968 
L 1146.750087 193.151769 
L 1148.154302 250.510594 
L 1149.558517 268.713889 
L 1150.962732 214.3292 
L 1152.366947 206.469846 
L 1153.771162 255.831975 
L 1155.175377 243.600772 
L 1156.579593 189.261761 
L 1157.983808 244.073853 
L 1159.388023 290.131647 
L 1160.792238 277.582043 
L 1162.196453 222.959198 
L 1163.600668 281.764399 
L 1165.004884 268.296449 
L 1166.409099 185.56434 
L 1167.813314 293.052063 
L 1169.217529 308.298393 
L 1170.621744 316.202385 
L 1172.025959 334.964113 
L 1173.430175 257.175851 
L 1174.83439 343.23608 
L 1176.238605 278.290649 
L 1177.64282 229.943763 
L 1179.047035 304.306683 
L 1180.45125 279.709746 
L 1181.855466 319.325125 
L 1183.259681 254.684201 
L 1184.663896 295.745449 
L 1186.068111 328.513001 
L 1187.472326 279.984095 
L 1188.876541 296.613907 
L 1190.280757 320.984867 
L 1191.684972 302.105333 
L 1193.089187 287.223469 
L 1194.493402 289.109517 
L 1195.897617 314.303898 
L 1197.301832 299.853911 
L 1198.706047 345.493177 
L 1200.110263 333.908686 
L 1201.514478 312.735501 
L 1202.918693 333.10035 
L 1204.322908 311.947483 
L 1205.727123 315.529968 
L 1207.131338 313.860524 
L 1208.535554 315.885112 
L 1209.939769 320.909037 
L 1211.343984 327.376367 
L 1212.748199 310.34824 
L 1214.152414 328.51607 
L 1215.556629 337.411735 
L 1216.960845 319.651432 
L 1218.36506 332.447093 
L 1219.769275 329.523092 
L 1221.17349 332.832423 
L 1222.577705 329.705682 
L 1223.98192 315.004047 
L 1225.386136 334.541131 
L 1226.790351 331.402704 
L 1228.194566 329.455604 
L 1229.598781 339.046702 
L 1231.002996 327.251169 
L 1232.407211 338.703315 
L 1233.811427 327.722646 
L 1235.215642 328.32004 
L 1236.619857 331.873768 
L 1238.024072 332.49363 
L 1239.428287 329.508408 
L 1240.832502 332.865481 
L 1242.236718 333.227758 
L 1243.640933 335.120845 
L 1245.045148 345.043837 
L 1246.449363 321.085029 
L 1247.853578 321.057355 
L 1249.257793 295.925664 
L 1250.662008 312.313847 
L 1252.066224 305.336437 
L 1253.470439 280.784286 
L 1254.874654 315.092758 
L 1256.278869 331.836373 
L 1257.683084 337.440416 
L 1259.087299 353.2755 
L 1260.491515 342.103701 
L 1261.89573 341.10439 
L 1263.299945 338.823395 
L 1264.70416 339.175248 
L 1266.108375 335.491761 
L 1267.51259 336.431244 
L 1268.916806 336.025062 
L 1270.321021 335.354717 
L 1271.725236 334.214611 
L 1273.129451 335.753611 
L 1274.533666 336.769502 
L 1275.937881 334.338563 
L 1277.342097 335.005465 
L 1278.746312 335.411316 
L 1280.150527 333.879675 
L 1281.554742 333.464813 
L 1282.958957 334.76151 
L 1284.363172 334.672772 
L 1285.767388 336.295394 
L 1287.171603 337.649508 
L 1288.575818 337.531822 
L 1289.980033 341.779279 
L 1291.384248 336.310335 
L 1292.788463 337.775591 
L 1294.192679 330.85239 
L 1295.596894 334.995888 
L 1297.001109 335.517088 
L 1298.405324 327.935159 
L 1299.809539 338.222865 
L 1301.213754 335.061175 
L 1302.617969 336.588274 
L 1304.022185 332.225172 
L 1305.4264 335.239978 
L 1306.830615 335.601114 
L 1308.23483 326.922969 
L 1309.639045 338.349594 
L 1311.04326 335.062271 
L 1311.04326 335.062271 
" clip-path="url(#pd316709054)" style="fill: none; stroke: #ffa500; stroke-width: 1.5; stroke-linecap: square"/>
   </g>
   <g id="line2d_20">
    <path d="M 1312.447476 336.627761 
L 1313.851691 332.182501 
L 1315.255906 336.230209 
L 1316.660121 335.168908 
L 1318.064336 326.433579 
L 1319.468551 333.929272 
L 1320.872767 335.841416 
L 1322.276982 334.677327 
L 1323.681197 333.328459 
L 1325.085412 334.198229 
L 1326.489627 334.686732 
L 1327.893842 329.544657 
L 1329.298058 333.995749 
L 1330.702273 334.28249 
" clip-path="url(#pd316709054)" style="fill: none; stroke: #ff0000; stroke-width: 1.5; stroke-linecap: square"/>
   </g>
   <g id="patch_3">
    <path d="M 52.375 368.3955 
L 52.375 35.7555 
" style="fill: none; stroke: #000000; stroke-width: 0.8; stroke-linejoin: miter; stroke-linecap: square"/>
   </g>
   <g id="patch_4">
    <path d="M 1391.575 368.3955 
L 1391.575 35.7555 
" style="fill: none; stroke: #000000; stroke-width: 0.8; stroke-linejoin: miter; stroke-linecap: square"/>
   </g>
   <g id="patch_5">
    <path d="M 52.375 368.3955 
L 1391.575 368.3955 
" style="fill: none; stroke: #000000; stroke-width: 0.8; stroke-linejoin: miter; stroke-linecap: square"/>
   </g>
   <g id="patch_6">
    <path d="M 52.375 35.7555 
L 1391.575 35.7555 
" style="fill: none; stroke: #000000; stroke-width: 0.8; stroke-linejoin: miter; stroke-linecap: square"/>
   </g>
   <g id="text_18">
    <!-- Daily Confirmed Cases Forecasting - Mexico -->
    <g transform="translate(590.5225 16.318125)scale(0.12 -0.12)">
     <defs>
      <path id="DejaVuSans-44" d="M 1259 4147 
L 1259 519 
L 2022 519 
Q 2988 519 3436 956 
Q 3884 1394 3884 2338 
Q 3884 3275 3436 3711 
Q 2988 4147 2022 4147 
L 1259 4147 
z
M 628 4666 
L 1925 4666 
Q 3281 4666 3915 4102 
Q 4550 3538 4550 2338 
Q 4550 1131 3912 565 
Q 3275 0 1925 0 
L 628 0 
L 628 4666 
z
" transform="scale(0.015625)"/>
      <path id="DejaVuSans-61" d="M 2194 1759 
Q 1497 1759 1228 1600 
Q 959 1441 959 1056 
Q 959 750 1161 570 
Q 1363 391 1709 391 
Q 2188 391 2477 730 
Q 2766 1069 2766 1631 
L 2766 1759 
L 2194 1759 
z
M 3341 1997 
L 3341 0 
L 2766 0 
L 2766 531 
Q 2569 213 2275 61 
Q 1981 -91 1556 -91 
Q 1019 -91 701 211 
Q 384 513 384 1019 
Q 384 1609 779 1909 
Q 1175 2209 1959 2209 
L 2766 2209 
L 2766 2266 
Q 2766 2663 2505 2880 
Q 2244 3097 1772 3097 
Q 1472 3097 1187 3025 
Q 903 2953 641 2809 
L 641 3341 
Q 956 3463 1253 3523 
Q 1550 3584 1831 3584 
Q 2591 3584 2966 3190 
Q 3341 2797 3341 1997 
z
" transform="scale(0.015625)"/>
      <path id="DejaVuSans-69" d="M 603 3500 
L 1178 3500 
L 1178 0 
L 603 0 
L 603 3500 
z
M 603 4863 
L 1178 4863 
L 1178 4134 
L 603 4134 
L 603 4863 
z
" transform="scale(0.015625)"/>
      <path id="DejaVuSans-6c" d="M 603 4863 
L 1178 4863 
L 1178 0 
L 603 0 
L 603 4863 
z
" transform="scale(0.015625)"/>
      <path id="DejaVuSans-79" d="M 2059 -325 
Q 1816 -950 1584 -1140 
Q 1353 -1331 966 -1331 
L 506 -1331 
L 506 -850 
L 844 -850 
Q 1081 -850 1212 -737 
Q 1344 -625 1503 -206 
L 1606 56 
L 191 3500 
L 800 3500 
L 1894 763 
L 2988 3500 
L 3597 3500 
L 2059 -325 
z
" transform="scale(0.015625)"/>
      <path id="DejaVuSans-20" transform="scale(0.015625)"/>
      <path id="DejaVuSans-43" d="M 4122 4306 
L 4122 3641 
Q 3803 3938 3442 4084 
Q 3081 4231 2675 4231 
Q 1875 4231 1450 3742 
Q 1025 3253 1025 2328 
Q 1025 1406 1450 917 
Q 1875 428 2675 428 
Q 3081 428 3442 575 
Q 3803 722 4122 1019 
L 4122 359 
Q 3791 134 3420 21 
Q 3050 -91 2638 -91 
Q 1578 -91 968 557 
Q 359 1206 359 2328 
Q 359 3453 968 4101 
Q 1578 4750 2638 4750 
Q 3056 4750 3426 4639 
Q 3797 4528 4122 4306 
z
" transform="scale(0.015625)"/>
      <path id="DejaVuSans-6f" d="M 1959 3097 
Q 1497 3097 1228 2736 
Q 959 2375 959 1747 
Q 959 1119 1226 758 
Q 1494 397 1959 397 
Q 2419 397 2687 759 
Q 2956 1122 2956 1747 
Q 2956 2369 2687 2733 
Q 2419 3097 1959 3097 
z
M 1959 3584 
Q 2709 3584 3137 3096 
Q 3566 2609 3566 1747 
Q 3566 888 3137 398 
Q 2709 -91 1959 -91 
Q 1206 -91 779 398 
Q 353 888 353 1747 
Q 353 2609 779 3096 
Q 1206 3584 1959 3584 
z
" transform="scale(0.015625)"/>
      <path id="DejaVuSans-6e" d="M 3513 2113 
L 3513 0 
L 2938 0 
L 2938 2094 
Q 2938 2591 2744 2837 
Q 2550 3084 2163 3084 
Q 1697 3084 1428 2787 
Q 1159 2491 1159 1978 
L 1159 0 
L 581 0 
L 581 3500 
L 1159 3500 
L 1159 2956 
Q 1366 3272 1645 3428 
Q 1925 3584 2291 3584 
Q 2894 3584 3203 3211 
Q 3513 2838 3513 2113 
z
" transform="scale(0.015625)"/>
      <path id="DejaVuSans-66" d="M 2375 4863 
L 2375 4384 
L 1825 4384 
Q 1516 4384 1395 4259 
Q 1275 4134 1275 3809 
L 1275 3500 
L 2222 3500 
L 2222 3053 
L 1275 3053 
L 1275 0 
L 697 0 
L 697 3053 
L 147 3053 
L 147 3500 
L 697 3500 
L 697 3744 
Q 697 4328 969 4595 
Q 1241 4863 1831 4863 
L 2375 4863 
z
" transform="scale(0.015625)"/>
      <path id="DejaVuSans-72" d="M 2631 2963 
Q 2534 3019 2420 3045 
Q 2306 3072 2169 3072 
Q 1681 3072 1420 2755 
Q 1159 2438 1159 1844 
L 1159 0 
L 581 0 
L 581 3500 
L 1159 3500 
L 1159 2956 
Q 1341 3275 1631 3429 
Q 1922 3584 2338 3584 
Q 2397 3584 2469 3576 
Q 2541 3569 2628 3553 
L 2631 2963 
z
" transform="scale(0.015625)"/>
      <path id="DejaVuSans-6d" d="M 3328 2828 
Q 3544 3216 3844 3400 
Q 4144 3584 4550 3584 
Q 5097 3584 5394 3201 
Q 5691 2819 5691 2113 
L 5691 0 
L 5113 0 
L 5113 2094 
Q 5113 2597 4934 2840 
Q 4756 3084 4391 3084 
Q 3944 3084 3684 2787 
Q 3425 2491 3425 1978 
L 3425 0 
L 2847 0 
L 2847 2094 
Q 2847 2600 2669 2842 
Q 2491 3084 2119 3084 
Q 1678 3084 1418 2786 
Q 1159 2488 1159 1978 
L 1159 0 
L 581 0 
L 581 3500 
L 1159 3500 
L 1159 2956 
Q 1356 3278 1631 3431 
Q 1906 3584 2284 3584 
Q 2666 3584 2933 3390 
Q 3200 3197 3328 2828 
z
" transform="scale(0.015625)"/>
      <path id="DejaVuSans-65" d="M 3597 1894 
L 3597 1613 
L 953 1613 
Q 991 1019 1311 708 
Q 1631 397 2203 397 
Q 2534 397 2845 478 
Q 3156 559 3463 722 
L 3463 178 
Q 3153 47 2828 -22 
Q 2503 -91 2169 -91 
Q 1331 -91 842 396 
Q 353 884 353 1716 
Q 353 2575 817 3079 
Q 1281 3584 2069 3584 
Q 2775 3584 3186 3129 
Q 3597 2675 3597 1894 
z
M 3022 2063 
Q 3016 2534 2758 2815 
Q 2500 3097 2075 3097 
Q 1594 3097 1305 2825 
Q 1016 2553 972 2059 
L 3022 2063 
z
" transform="scale(0.015625)"/>
      <path id="DejaVuSans-64" d="M 2906 2969 
L 2906 4863 
L 3481 4863 
L 3481 0 
L 2906 0 
L 2906 525 
Q 2725 213 2448 61 
Q 2172 -91 1784 -91 
Q 1150 -91 751 415 
Q 353 922 353 1747 
Q 353 2572 751 3078 
Q 1150 3584 1784 3584 
Q 2172 3584 2448 3432 
Q 2725 3281 2906 2969 
z
M 947 1747 
Q 947 1113 1208 752 
Q 1469 391 1925 391 
Q 2381 391 2643 752 
Q 2906 1113 2906 1747 
Q 2906 2381 2643 2742 
Q 2381 3103 1925 3103 
Q 1469 3103 1208 2742 
Q 947 2381 947 1747 
z
" transform="scale(0.015625)"/>
      <path id="DejaVuSans-73" d="M 2834 3397 
L 2834 2853 
Q 2591 2978 2328 3040 
Q 2066 3103 1784 3103 
Q 1356 3103 1142 2972 
Q 928 2841 928 2578 
Q 928 2378 1081 2264 
Q 1234 2150 1697 2047 
L 1894 2003 
Q 2506 1872 2764 1633 
Q 3022 1394 3022 966 
Q 3022 478 2636 193 
Q 2250 -91 1575 -91 
Q 1294 -91 989 -36 
Q 684 19 347 128 
L 347 722 
Q 666 556 975 473 
Q 1284 391 1588 391 
Q 1994 391 2212 530 
Q 2431 669 2431 922 
Q 2431 1156 2273 1281 
Q 2116 1406 1581 1522 
L 1381 1569 
Q 847 1681 609 1914 
Q 372 2147 372 2553 
Q 372 3047 722 3315 
Q 1072 3584 1716 3584 
Q 2034 3584 2315 3537 
Q 2597 3491 2834 3397 
z
" transform="scale(0.015625)"/>
      <path id="DejaVuSans-46" d="M 628 4666 
L 3309 4666 
L 3309 4134 
L 1259 4134 
L 1259 2759 
L 3109 2759 
L 3109 2228 
L 1259 2228 
L 1259 0 
L 628 0 
L 628 4666 
z
" transform="scale(0.015625)"/>
      <path id="DejaVuSans-63" d="M 3122 3366 
L 3122 2828 
Q 2878 2963 2633 3030 
Q 2388 3097 2138 3097 
Q 1578 3097 1268 2742 
Q 959 2388 959 1747 
Q 959 1106 1268 751 
Q 1578 397 2138 397 
Q 2388 397 2633 464 
Q 2878 531 3122 666 
L 3122 134 
Q 2881 22 2623 -34 
Q 2366 -91 2075 -91 
Q 1284 -91 818 406 
Q 353 903 353 1747 
Q 353 2603 823 3093 
Q 1294 3584 2113 3584 
Q 2378 3584 2631 3529 
Q 2884 3475 3122 3366 
z
" transform="scale(0.015625)"/>
      <path id="DejaVuSans-74" d="M 1172 4494 
L 1172 3500 
L 2356 3500 
L 2356 3053 
L 1172 3053 
L 1172 1153 
Q 1172 725 1289 603 
Q 1406 481 1766 481 
L 2356 481 
L 2356 0 
L 1766 0 
Q 1100 0 847 248 
Q 594 497 594 1153 
L 594 3053 
L 172 3053 
L 172 3500 
L 594 3500 
L 594 4494 
L 1172 4494 
z
" transform="scale(0.015625)"/>
      <path id="DejaVuSans-67" d="M 2906 1791 
Q 2906 2416 2648 2759 
Q 2391 3103 1925 3103 
Q 1463 3103 1205 2759 
Q 947 2416 947 1791 
Q 947 1169 1205 825 
Q 1463 481 1925 481 
Q 2391 481 2648 825 
Q 2906 1169 2906 1791 
z
M 3481 434 
Q 3481 -459 3084 -895 
Q 2688 -1331 1869 -1331 
Q 1566 -1331 1297 -1286 
Q 1028 -1241 775 -1147 
L 775 -588 
Q 1028 -725 1275 -790 
Q 1522 -856 1778 -856 
Q 2344 -856 2625 -561 
Q 2906 -266 2906 331 
L 2906 616 
Q 2728 306 2450 153 
Q 2172 0 1784 0 
Q 1141 0 747 490 
Q 353 981 353 1791 
Q 353 2603 747 3093 
Q 1141 3584 1784 3584 
Q 2172 3584 2450 3431 
Q 2728 3278 2906 2969 
L 2906 3500 
L 3481 3500 
L 3481 434 
z
" transform="scale(0.015625)"/>
      <path id="DejaVuSans-4d" d="M 628 4666 
L 1569 4666 
L 2759 1491 
L 3956 4666 
L 4897 4666 
L 4897 0 
L 4281 0 
L 4281 4097 
L 3078 897 
L 2444 897 
L 1241 4097 
L 1241 0 
L 628 0 
L 628 4666 
z
" transform="scale(0.015625)"/>
      <path id="DejaVuSans-78" d="M 3513 3500 
L 2247 1797 
L 3578 0 
L 2900 0 
L 1881 1375 
L 863 0 
L 184 0 
L 1544 1831 
L 300 3500 
L 978 3500 
L 1906 2253 
L 2834 3500 
L 3513 3500 
z
" transform="scale(0.015625)"/>
     </defs>
     <use xlink:href="#DejaVuSans-44"/>
     <use xlink:href="#DejaVuSans-61" x="77.001953"/>
     <use xlink:href="#DejaVuSans-69" x="138.28125"/>
     <use xlink:href="#DejaVuSans-6c" x="166.064453"/>
     <use xlink:href="#DejaVuSans-79" x="193.847656"/>
     <use xlink:href="#DejaVuSans-20" x="253.027344"/>
     <use xlink:href="#DejaVuSans-43" x="284.814453"/>
     <use xlink:href="#DejaVuSans-6f" x="354.638672"/>
     <use xlink:href="#DejaVuSans-6e" x="415.820312"/>
     <use xlink:href="#DejaVuSans-66" x="479.199219"/>
     <use xlink:href="#DejaVuSans-69" x="514.404297"/>
     <use xlink:href="#DejaVuSans-72" x="542.1875"/>
     <use xlink:href="#DejaVuSans-6d" x="581.550781"/>
     <use xlink:href="#DejaVuSans-65" x="678.962891"/>
     <use xlink:href="#DejaVuSans-64" x="740.486328"/>
     <use xlink:href="#DejaVuSans-20" x="803.962891"/>
     <use xlink:href="#DejaVuSans-43" x="835.75"/>
     <use xlink:href="#DejaVuSans-61" x="905.574219"/>
     <use xlink:href="#DejaVuSans-73" x="966.853516"/>
     <use xlink:href="#DejaVuSans-65" x="1018.953125"/>
     <use xlink:href="#DejaVuSans-73" x="1080.476562"/>
     <use xlink:href="#DejaVuSans-20" x="1132.576172"/>
     <use xlink:href="#DejaVuSans-46" x="1164.363281"/>
     <use xlink:href="#DejaVuSans-6f" x="1218.257812"/>
     <use xlink:href="#DejaVuSans-72" x="1279.439453"/>
     <use xlink:href="#DejaVuSans-65" x="1318.302734"/>
     <use xlink:href="#DejaVuSans-63" x="1379.826172"/>
     <use xlink:href="#DejaVuSans-61" x="1434.806641"/>
     <use xlink:href="#DejaVuSans-73" x="1496.085938"/>
     <use xlink:href="#DejaVuSans-74" x="1548.185547"/>
     <use xlink:href="#DejaVuSans-69" x="1587.394531"/>
     <use xlink:href="#DejaVuSans-6e" x="1615.177734"/>
     <use xlink:href="#DejaVuSans-67" x="1678.556641"/>
     <use xlink:href="#DejaVuSans-20" x="1742.033203"/>
     <use xlink:href="#DejaVuSans-2d" x="1773.820312"/>
     <use xlink:href="#DejaVuSans-20" x="1809.904297"/>
     <use xlink:href="#DejaVuSans-4d" x="1841.691406"/>
     <use xlink:href="#DejaVuSans-65" x="1927.970703"/>
     <use xlink:href="#DejaVuSans-78" x="1987.744141"/>
     <use xlink:href="#DejaVuSans-69" x="2046.923828"/>
     <use xlink:href="#DejaVuSans-63" x="2074.707031"/>
     <use xlink:href="#DejaVuSans-6f" x="2129.6875"/>
    </g>
    <!-- ARIMA (4, 1, 1)x(1, 0, 0, 7) (R2 = 0.534232) -->
    <g transform="translate(589.990937 29.7555)scale(0.12 -0.12)">
     <defs>
      <path id="DejaVuSans-41" d="M 2188 4044 
L 1331 1722 
L 3047 1722 
L 2188 4044 
z
M 1831 4666 
L 2547 4666 
L 4325 0 
L 3669 0 
L 3244 1197 
L 1141 1197 
L 716 0 
L 50 0 
L 1831 4666 
z
" transform="scale(0.015625)"/>
      <path id="DejaVuSans-52" d="M 2841 2188 
Q 3044 2119 3236 1894 
Q 3428 1669 3622 1275 
L 4263 0 
L 3584 0 
L 2988 1197 
Q 2756 1666 2539 1819 
Q 2322 1972 1947 1972 
L 1259 1972 
L 1259 0 
L 628 0 
L 628 4666 
L 2053 4666 
Q 2853 4666 3247 4331 
Q 3641 3997 3641 3322 
Q 3641 2881 3436 2590 
Q 3231 2300 2841 2188 
z
M 1259 4147 
L 1259 2491 
L 2053 2491 
Q 2509 2491 2742 2702 
Q 2975 2913 2975 3322 
Q 2975 3731 2742 3939 
Q 2509 4147 2053 4147 
L 1259 4147 
z
" transform="scale(0.015625)"/>
      <path id="DejaVuSans-49" d="M 628 4666 
L 1259 4666 
L 1259 0 
L 628 0 
L 628 4666 
z
" transform="scale(0.015625)"/>
      <path id="DejaVuSans-28" d="M 1984 4856 
Q 1566 4138 1362 3434 
Q 1159 2731 1159 2009 
Q 1159 1288 1364 580 
Q 1569 -128 1984 -844 
L 1484 -844 
Q 1016 -109 783 600 
Q 550 1309 550 2009 
Q 550 2706 781 3412 
Q 1013 4119 1484 4856 
L 1984 4856 
z
" transform="scale(0.015625)"/>
      <path id="DejaVuSans-2c" d="M 750 794 
L 1409 794 
L 1409 256 
L 897 -744 
L 494 -744 
L 750 256 
L 750 794 
z
" transform="scale(0.015625)"/>
      <path id="DejaVuSans-29" d="M 513 4856 
L 1013 4856 
Q 1481 4119 1714 3412 
Q 1947 2706 1947 2009 
Q 1947 1309 1714 600 
Q 1481 -109 1013 -844 
L 513 -844 
Q 928 -128 1133 580 
Q 1338 1288 1338 2009 
Q 1338 2731 1133 3434 
Q 928 4138 513 4856 
z
" transform="scale(0.015625)"/>
      <path id="DejaVuSans-3d" d="M 678 2906 
L 4684 2906 
L 4684 2381 
L 678 2381 
L 678 2906 
z
M 678 1631 
L 4684 1631 
L 4684 1100 
L 678 1100 
L 678 1631 
z
" transform="scale(0.015625)"/>
      <path id="DejaVuSans-2e" d="M 684 794 
L 1344 794 
L 1344 0 
L 684 0 
L 684 794 
z
" transform="scale(0.015625)"/>
      <path id="DejaVuSans-35" d="M 691 4666 
L 3169 4666 
L 3169 4134 
L 1269 4134 
L 1269 2991 
Q 1406 3038 1543 3061 
Q 1681 3084 1819 3084 
Q 2600 3084 3056 2656 
Q 3513 2228 3513 1497 
Q 3513 744 3044 326 
Q 2575 -91 1722 -91 
Q 1428 -91 1123 -41 
Q 819 9 494 109 
L 494 744 
Q 775 591 1075 516 
Q 1375 441 1709 441 
Q 2250 441 2565 725 
Q 2881 1009 2881 1497 
Q 2881 1984 2565 2268 
Q 2250 2553 1709 2553 
Q 1456 2553 1204 2497 
Q 953 2441 691 2322 
L 691 4666 
z
" transform="scale(0.015625)"/>
      <path id="DejaVuSans-33" d="M 2597 2516 
Q 3050 2419 3304 2112 
Q 3559 1806 3559 1356 
Q 3559 666 3084 287 
Q 2609 -91 1734 -91 
Q 1441 -91 1130 -33 
Q 819 25 488 141 
L 488 750 
Q 750 597 1062 519 
Q 1375 441 1716 441 
Q 2309 441 2620 675 
Q 2931 909 2931 1356 
Q 2931 1769 2642 2001 
Q 2353 2234 1838 2234 
L 1294 2234 
L 1294 2753 
L 1863 2753 
Q 2328 2753 2575 2939 
Q 2822 3125 2822 3475 
Q 2822 3834 2567 4026 
Q 2313 4219 1838 4219 
Q 1578 4219 1281 4162 
Q 984 4106 628 3988 
L 628 4550 
Q 988 4650 1302 4700 
Q 1616 4750 1894 4750 
Q 2613 4750 3031 4423 
Q 3450 4097 3450 3541 
Q 3450 3153 3228 2886 
Q 3006 2619 2597 2516 
z
" transform="scale(0.015625)"/>
     </defs>
     <use xlink:href="#DejaVuSans-41"/>
     <use xlink:href="#DejaVuSans-52" x="68.408203"/>
     <use xlink:href="#DejaVuSans-49" x="137.890625"/>
     <use xlink:href="#DejaVuSans-4d" x="167.382812"/>
     <use xlink:href="#DejaVuSans-41" x="253.662109"/>
     <use xlink:href="#DejaVuSans-20" x="322.070312"/>
     <use xlink:href="#DejaVuSans-28" x="353.857422"/>
     <use xlink:href="#DejaVuSans-34" x="392.871094"/>
     <use xlink:href="#DejaVuSans-2c" x="456.494141"/>
     <use xlink:href="#DejaVuSans-20" x="488.28125"/>
     <use xlink:href="#DejaVuSans-31" x="520.068359"/>
     <use xlink:href="#DejaVuSans-2c" x="583.691406"/>
     <use xlink:href="#DejaVuSans-20" x="615.478516"/>
     <use xlink:href="#DejaVuSans-31" x="647.265625"/>
     <use xlink:href="#DejaVuSans-29" x="710.888672"/>
     <use xlink:href="#DejaVuSans-78" x="749.902344"/>
     <use xlink:href="#DejaVuSans-28" x="809.082031"/>
     <use xlink:href="#DejaVuSans-31" x="848.095703"/>
     <use xlink:href="#DejaVuSans-2c" x="911.71875"/>
     <use xlink:href="#DejaVuSans-20" x="943.505859"/>
     <use xlink:href="#DejaVuSans-30" x="975.292969"/>
     <use xlink:href="#DejaVuSans-2c" x="1038.916016"/>
     <use xlink:href="#DejaVuSans-20" x="1070.703125"/>
     <use xlink:href="#DejaVuSans-30" x="1102.490234"/>
     <use xlink:href="#DejaVuSans-2c" x="1166.113281"/>
     <use xlink:href="#DejaVuSans-20" x="1197.900391"/>
     <use xlink:href="#DejaVuSans-37" x="1229.6875"/>
     <use xlink:href="#DejaVuSans-29" x="1293.310547"/>
     <use xlink:href="#DejaVuSans-20" x="1332.324219"/>
     <use xlink:href="#DejaVuSans-28" x="1364.111328"/>
     <use xlink:href="#DejaVuSans-52" x="1403.125"/>
     <use xlink:href="#DejaVuSans-32" x="1472.607422"/>
     <use xlink:href="#DejaVuSans-20" x="1536.230469"/>
     <use xlink:href="#DejaVuSans-3d" x="1568.017578"/>
     <use xlink:href="#DejaVuSans-20" x="1651.806641"/>
     <use xlink:href="#DejaVuSans-30" x="1683.59375"/>
     <use xlink:href="#DejaVuSans-2e" x="1747.216797"/>
     <use xlink:href="#DejaVuSans-35" x="1779.003906"/>
     <use xlink:href="#DejaVuSans-33" x="1842.626953"/>
     <use xlink:href="#DejaVuSans-34" x="1906.25"/>
     <use xlink:href="#DejaVuSans-32" x="1969.873047"/>
     <use xlink:href="#DejaVuSans-33" x="2033.496094"/>
     <use xlink:href="#DejaVuSans-32" x="2097.119141"/>
     <use xlink:href="#DejaVuSans-29" x="2160.742188"/>
    </g>
   </g>
   <g id="legend_1">
    <g id="patch_7">
     <path d="M 1287.495312 87.789875 
L 1384.575 87.789875 
Q 1386.575 87.789875 1386.575 85.789875 
L 1386.575 42.7555 
Q 1386.575 40.7555 1384.575 40.7555 
L 1287.495312 40.7555 
Q 1285.495312 40.7555 1285.495312 42.7555 
L 1285.495312 85.789875 
Q 1285.495312 87.789875 1287.495312 87.789875 
z
" style="fill: #ffffff; opacity: 0.8; stroke: #cccccc; stroke-linejoin: miter"/>
    </g>
    <g id="line2d_21">
     <path d="M 1289.495312 48.853937 
L 1299.495312 48.853937 
L 1309.495312 48.853937 
" style="fill: none; stroke: #0000ff; stroke-width: 1.5; stroke-linecap: square"/>
    </g>
    <g id="text_19">
     <!-- Actual Value -->
     <g transform="translate(1317.495312 52.353937)scale(0.1 -0.1)">
      <defs>
       <path id="DejaVuSans-75" d="M 544 1381 
L 544 3500 
L 1119 3500 
L 1119 1403 
Q 1119 906 1312 657 
Q 1506 409 1894 409 
Q 2359 409 2629 706 
Q 2900 1003 2900 1516 
L 2900 3500 
L 3475 3500 
L 3475 0 
L 2900 0 
L 2900 538 
Q 2691 219 2414 64 
Q 2138 -91 1772 -91 
Q 1169 -91 856 284 
Q 544 659 544 1381 
z
M 1991 3584 
L 1991 3584 
z
" transform="scale(0.015625)"/>
       <path id="DejaVuSans-56" d="M 1831 0 
L 50 4666 
L 709 4666 
L 2188 738 
L 3669 4666 
L 4325 4666 
L 2547 0 
L 1831 0 
z
" transform="scale(0.015625)"/>
      </defs>
      <use xlink:href="#DejaVuSans-41"/>
      <use xlink:href="#DejaVuSans-63" x="66.658203"/>
      <use xlink:href="#DejaVuSans-74" x="121.638672"/>
      <use xlink:href="#DejaVuSans-75" x="160.847656"/>
      <use xlink:href="#DejaVuSans-61" x="224.226562"/>
      <use xlink:href="#DejaVuSans-6c" x="285.505859"/>
      <use xlink:href="#DejaVuSans-20" x="313.289062"/>
      <use xlink:href="#DejaVuSans-56" x="345.076172"/>
      <use xlink:href="#DejaVuSans-61" x="405.734375"/>
      <use xlink:href="#DejaVuSans-6c" x="467.013672"/>
      <use xlink:href="#DejaVuSans-75" x="494.796875"/>
      <use xlink:href="#DejaVuSans-65" x="558.175781"/>
     </g>
    </g>
    <g id="line2d_22">
     <path d="M 1289.495312 63.532062 
L 1299.495312 63.532062 
L 1309.495312 63.532062 
" style="fill: none; stroke: #ffa500; stroke-width: 1.5; stroke-linecap: square"/>
    </g>
    <g id="text_20">
     <!-- Check Value -->
     <g transform="translate(1317.495312 67.032062)scale(0.1 -0.1)">
      <defs>
       <path id="DejaVuSans-68" d="M 3513 2113 
L 3513 0 
L 2938 0 
L 2938 2094 
Q 2938 2591 2744 2837 
Q 2550 3084 2163 3084 
Q 1697 3084 1428 2787 
Q 1159 2491 1159 1978 
L 1159 0 
L 581 0 
L 581 4863 
L 1159 4863 
L 1159 2956 
Q 1366 3272 1645 3428 
Q 1925 3584 2291 3584 
Q 2894 3584 3203 3211 
Q 3513 2838 3513 2113 
z
" transform="scale(0.015625)"/>
       <path id="DejaVuSans-6b" d="M 581 4863 
L 1159 4863 
L 1159 1991 
L 2875 3500 
L 3609 3500 
L 1753 1863 
L 3688 0 
L 2938 0 
L 1159 1709 
L 1159 0 
L 581 0 
L 581 4863 
z
" transform="scale(0.015625)"/>
      </defs>
      <use xlink:href="#DejaVuSans-43"/>
      <use xlink:href="#DejaVuSans-68" x="69.824219"/>
      <use xlink:href="#DejaVuSans-65" x="133.203125"/>
      <use xlink:href="#DejaVuSans-63" x="194.726562"/>
      <use xlink:href="#DejaVuSans-6b" x="249.707031"/>
      <use xlink:href="#DejaVuSans-20" x="307.617188"/>
      <use xlink:href="#DejaVuSans-56" x="339.404297"/>
      <use xlink:href="#DejaVuSans-61" x="400.0625"/>
      <use xlink:href="#DejaVuSans-6c" x="461.341797"/>
      <use xlink:href="#DejaVuSans-75" x="489.125"/>
      <use xlink:href="#DejaVuSans-65" x="552.503906"/>
     </g>
    </g>
    <g id="line2d_23">
     <path d="M 1289.495312 78.210187 
L 1299.495312 78.210187 
L 1309.495312 78.210187 
" style="fill: none; stroke: #ff0000; stroke-width: 1.5; stroke-linecap: square"/>
    </g>
    <g id="text_21">
     <!-- Predict Value -->
     <g transform="translate(1317.495312 81.710187)scale(0.1 -0.1)">
      <defs>
       <path id="DejaVuSans-50" d="M 1259 4147 
L 1259 2394 
L 2053 2394 
Q 2494 2394 2734 2622 
Q 2975 2850 2975 3272 
Q 2975 3691 2734 3919 
Q 2494 4147 2053 4147 
L 1259 4147 
z
M 628 4666 
L 2053 4666 
Q 2838 4666 3239 4311 
Q 3641 3956 3641 3272 
Q 3641 2581 3239 2228 
Q 2838 1875 2053 1875 
L 1259 1875 
L 1259 0 
L 628 0 
L 628 4666 
z
" transform="scale(0.015625)"/>
      </defs>
      <use xlink:href="#DejaVuSans-50"/>
      <use xlink:href="#DejaVuSans-72" x="58.552734"/>
      <use xlink:href="#DejaVuSans-65" x="97.416016"/>
      <use xlink:href="#DejaVuSans-64" x="158.939453"/>
      <use xlink:href="#DejaVuSans-69" x="222.416016"/>
      <use xlink:href="#DejaVuSans-63" x="250.199219"/>
      <use xlink:href="#DejaVuSans-74" x="305.179688"/>
      <use xlink:href="#DejaVuSans-20" x="344.388672"/>
      <use xlink:href="#DejaVuSans-56" x="376.175781"/>
      <use xlink:href="#DejaVuSans-61" x="436.833984"/>
      <use xlink:href="#DejaVuSans-6c" x="498.113281"/>
      <use xlink:href="#DejaVuSans-75" x="525.896484"/>
      <use xlink:href="#DejaVuSans-65" x="589.275391"/>
     </g>
    </g>
   </g>
  </g>
 </g>
 <defs>
  <clipPath id="pd316709054">
   <rect x="52.375" y="35.7555" width="1339.2" height="332.64"/>
  </clipPath>
 </defs>
</svg>
