<?xml version="1.0" encoding="utf-8" standalone="no"?>
<!DOCTYPE svg PUBLIC "-//W3C//DTD SVG 1.1//EN"
  "http://www.w3.org/Graphics/SVG/1.1/DTD/svg11.dtd">
<svg xmlns:xlink="http://www.w3.org/1999/xlink" width="1407.866938pt" height="392.273625pt" viewBox="0 0 1407.866938 392.273625" xmlns="http://www.w3.org/2000/svg" version="1.1">
 <metadata>
  <rdf:RDF xmlns:dc="http://purl.org/dc/elements/1.1/" xmlns:cc="http://creativecommons.org/ns#" xmlns:rdf="http://www.w3.org/1999/02/22-rdf-syntax-ns#">
   <cc:Work>
    <dc:type rdf:resource="http://purl.org/dc/dcmitype/StillImage"/>
    <dc:date>2023-02-25T18:33:28.933583</dc:date>
    <dc:format>image/svg+xml</dc:format>
    <dc:creator>
     <cc:Agent>
      <dc:title>Matplotlib v3.5.1, https://matplotlib.org/</dc:title>
     </cc:Agent>
    </dc:creator>
   </cc:Work>
  </rdf:RDF>
 </metadata>
 <defs>
  <style type="text/css">*{stroke-linejoin: round; stroke-linecap: butt}</style>
 </defs>
 <g id="figure_1">
  <g id="patch_1">
   <path d="M 0 392.273625 
L 1407.866938 392.273625 
L 1407.866938 0 
L 0 0 
z
" style="fill: #ffffff"/>
  </g>
  <g id="axes_1">
   <g id="patch_2">
    <path d="M 46.0125 368.3955 
L 1385.2125 368.3955 
L 1385.2125 35.7555 
L 46.0125 35.7555 
z
" style="fill: #ffffff"/>
   </g>
   <g id="matplotlib.axis_1">
    <g id="xtick_1">
     <g id="line2d_1">
      <defs>
       <path id="m3e9a69de52" d="M 0 0 
L 0 3.5 
" style="stroke: #000000; stroke-width: 0.8"/>
      </defs>
      <g>
       <use xlink:href="#m3e9a69de52" x="83.431637" y="368.3955" style="stroke: #000000; stroke-width: 0.8"/>
      </g>
     </g>
     <g id="text_1">
      <!-- 2020-01 -->
      <g transform="translate(62.540231 382.993937)scale(0.1 -0.1)">
       <defs>
        <path id="DejaVuSans-32" d="M 1228 531 
L 3431 531 
L 3431 0 
L 469 0 
L 469 531 
Q 828 903 1448 1529 
Q 2069 2156 2228 2338 
Q 2531 2678 2651 2914 
Q 2772 3150 2772 3378 
Q 2772 3750 2511 3984 
Q 2250 4219 1831 4219 
Q 1534 4219 1204 4116 
Q 875 4013 500 3803 
L 500 4441 
Q 881 4594 1212 4672 
Q 1544 4750 1819 4750 
Q 2544 4750 2975 4387 
Q 3406 4025 3406 3419 
Q 3406 3131 3298 2873 
Q 3191 2616 2906 2266 
Q 2828 2175 2409 1742 
Q 1991 1309 1228 531 
z
" transform="scale(0.015625)"/>
        <path id="DejaVuSans-30" d="M 2034 4250 
Q 1547 4250 1301 3770 
Q 1056 3291 1056 2328 
Q 1056 1369 1301 889 
Q 1547 409 2034 409 
Q 2525 409 2770 889 
Q 3016 1369 3016 2328 
Q 3016 3291 2770 3770 
Q 2525 4250 2034 4250 
z
M 2034 4750 
Q 2819 4750 3233 4129 
Q 3647 3509 3647 2328 
Q 3647 1150 3233 529 
Q 2819 -91 2034 -91 
Q 1250 -91 836 529 
Q 422 1150 422 2328 
Q 422 3509 836 4129 
Q 1250 4750 2034 4750 
z
" transform="scale(0.015625)"/>
        <path id="DejaVuSans-2d" d="M 313 2009 
L 1997 2009 
L 1997 1497 
L 313 1497 
L 313 2009 
z
" transform="scale(0.015625)"/>
        <path id="DejaVuSans-31" d="M 794 531 
L 1825 531 
L 1825 4091 
L 703 3866 
L 703 4441 
L 1819 4666 
L 2450 4666 
L 2450 531 
L 3481 531 
L 3481 0 
L 794 0 
L 794 531 
z
" transform="scale(0.015625)"/>
       </defs>
       <use xlink:href="#DejaVuSans-32"/>
       <use xlink:href="#DejaVuSans-30" x="63.623047"/>
       <use xlink:href="#DejaVuSans-32" x="127.246094"/>
       <use xlink:href="#DejaVuSans-30" x="190.869141"/>
       <use xlink:href="#DejaVuSans-2d" x="254.492188"/>
       <use xlink:href="#DejaVuSans-30" x="290.576172"/>
       <use xlink:href="#DejaVuSans-31" x="354.199219"/>
      </g>
     </g>
    </g>
    <g id="xtick_2">
     <g id="line2d_2">
      <g>
       <use xlink:href="#m3e9a69de52" x="212.426383" y="368.3955" style="stroke: #000000; stroke-width: 0.8"/>
      </g>
     </g>
     <g id="text_2">
      <!-- 2020-05 -->
      <g transform="translate(191.534977 382.993937)scale(0.1 -0.1)">
       <defs>
        <path id="DejaVuSans-35" d="M 691 4666 
L 3169 4666 
L 3169 4134 
L 1269 4134 
L 1269 2991 
Q 1406 3038 1543 3061 
Q 1681 3084 1819 3084 
Q 2600 3084 3056 2656 
Q 3513 2228 3513 1497 
Q 3513 744 3044 326 
Q 2575 -91 1722 -91 
Q 1428 -91 1123 -41 
Q 819 9 494 109 
L 494 744 
Q 775 591 1075 516 
Q 1375 441 1709 441 
Q 2250 441 2565 725 
Q 2881 1009 2881 1497 
Q 2881 1984 2565 2268 
Q 2250 2553 1709 2553 
Q 1456 2553 1204 2497 
Q 953 2441 691 2322 
L 691 4666 
z
" transform="scale(0.015625)"/>
       </defs>
       <use xlink:href="#DejaVuSans-32"/>
       <use xlink:href="#DejaVuSans-30" x="63.623047"/>
       <use xlink:href="#DejaVuSans-32" x="127.246094"/>
       <use xlink:href="#DejaVuSans-30" x="190.869141"/>
       <use xlink:href="#DejaVuSans-2d" x="254.492188"/>
       <use xlink:href="#DejaVuSans-30" x="290.576172"/>
       <use xlink:href="#DejaVuSans-35" x="354.199219"/>
      </g>
     </g>
    </g>
    <g id="xtick_3">
     <g id="line2d_3">
      <g>
       <use xlink:href="#m3e9a69de52" x="343.553274" y="368.3955" style="stroke: #000000; stroke-width: 0.8"/>
      </g>
     </g>
     <g id="text_3">
      <!-- 2020-09 -->
      <g transform="translate(322.661868 382.993937)scale(0.1 -0.1)">
       <defs>
        <path id="DejaVuSans-39" d="M 703 97 
L 703 672 
Q 941 559 1184 500 
Q 1428 441 1663 441 
Q 2288 441 2617 861 
Q 2947 1281 2994 2138 
Q 2813 1869 2534 1725 
Q 2256 1581 1919 1581 
Q 1219 1581 811 2004 
Q 403 2428 403 3163 
Q 403 3881 828 4315 
Q 1253 4750 1959 4750 
Q 2769 4750 3195 4129 
Q 3622 3509 3622 2328 
Q 3622 1225 3098 567 
Q 2575 -91 1691 -91 
Q 1453 -91 1209 -44 
Q 966 3 703 97 
z
M 1959 2075 
Q 2384 2075 2632 2365 
Q 2881 2656 2881 3163 
Q 2881 3666 2632 3958 
Q 2384 4250 1959 4250 
Q 1534 4250 1286 3958 
Q 1038 3666 1038 3163 
Q 1038 2656 1286 2365 
Q 1534 2075 1959 2075 
z
" transform="scale(0.015625)"/>
       </defs>
       <use xlink:href="#DejaVuSans-32"/>
       <use xlink:href="#DejaVuSans-30" x="63.623047"/>
       <use xlink:href="#DejaVuSans-32" x="127.246094"/>
       <use xlink:href="#DejaVuSans-30" x="190.869141"/>
       <use xlink:href="#DejaVuSans-2d" x="254.492188"/>
       <use xlink:href="#DejaVuSans-30" x="290.576172"/>
       <use xlink:href="#DejaVuSans-39" x="354.199219"/>
      </g>
     </g>
    </g>
    <g id="xtick_4">
     <g id="line2d_4">
      <g>
       <use xlink:href="#m3e9a69de52" x="473.614092" y="368.3955" style="stroke: #000000; stroke-width: 0.8"/>
      </g>
     </g>
     <g id="text_4">
      <!-- 2021-01 -->
      <g transform="translate(452.722686 382.993937)scale(0.1 -0.1)">
       <use xlink:href="#DejaVuSans-32"/>
       <use xlink:href="#DejaVuSans-30" x="63.623047"/>
       <use xlink:href="#DejaVuSans-32" x="127.246094"/>
       <use xlink:href="#DejaVuSans-31" x="190.869141"/>
       <use xlink:href="#DejaVuSans-2d" x="254.492188"/>
       <use xlink:href="#DejaVuSans-30" x="290.576172"/>
       <use xlink:href="#DejaVuSans-31" x="354.199219"/>
      </g>
     </g>
    </g>
    <g id="xtick_5">
     <g id="line2d_5">
      <g>
       <use xlink:href="#m3e9a69de52" x="601.542766" y="368.3955" style="stroke: #000000; stroke-width: 0.8"/>
      </g>
     </g>
     <g id="text_5">
      <!-- 2021-05 -->
      <g transform="translate(580.65136 382.993937)scale(0.1 -0.1)">
       <use xlink:href="#DejaVuSans-32"/>
       <use xlink:href="#DejaVuSans-30" x="63.623047"/>
       <use xlink:href="#DejaVuSans-32" x="127.246094"/>
       <use xlink:href="#DejaVuSans-31" x="190.869141"/>
       <use xlink:href="#DejaVuSans-2d" x="254.492188"/>
       <use xlink:href="#DejaVuSans-30" x="290.576172"/>
       <use xlink:href="#DejaVuSans-35" x="354.199219"/>
      </g>
     </g>
    </g>
    <g id="xtick_6">
     <g id="line2d_6">
      <g>
       <use xlink:href="#m3e9a69de52" x="732.669657" y="368.3955" style="stroke: #000000; stroke-width: 0.8"/>
      </g>
     </g>
     <g id="text_6">
      <!-- 2021-09 -->
      <g transform="translate(711.77825 382.993937)scale(0.1 -0.1)">
       <use xlink:href="#DejaVuSans-32"/>
       <use xlink:href="#DejaVuSans-30" x="63.623047"/>
       <use xlink:href="#DejaVuSans-32" x="127.246094"/>
       <use xlink:href="#DejaVuSans-31" x="190.869141"/>
       <use xlink:href="#DejaVuSans-2d" x="254.492188"/>
       <use xlink:href="#DejaVuSans-30" x="290.576172"/>
       <use xlink:href="#DejaVuSans-39" x="354.199219"/>
      </g>
     </g>
    </g>
    <g id="xtick_7">
     <g id="line2d_7">
      <g>
       <use xlink:href="#m3e9a69de52" x="862.730475" y="368.3955" style="stroke: #000000; stroke-width: 0.8"/>
      </g>
     </g>
     <g id="text_7">
      <!-- 2022-01 -->
      <g transform="translate(841.839069 382.993937)scale(0.1 -0.1)">
       <use xlink:href="#DejaVuSans-32"/>
       <use xlink:href="#DejaVuSans-30" x="63.623047"/>
       <use xlink:href="#DejaVuSans-32" x="127.246094"/>
       <use xlink:href="#DejaVuSans-32" x="190.869141"/>
       <use xlink:href="#DejaVuSans-2d" x="254.492188"/>
       <use xlink:href="#DejaVuSans-30" x="290.576172"/>
       <use xlink:href="#DejaVuSans-31" x="354.199219"/>
      </g>
     </g>
    </g>
    <g id="xtick_8">
     <g id="line2d_8">
      <g>
       <use xlink:href="#m3e9a69de52" x="990.659149" y="368.3955" style="stroke: #000000; stroke-width: 0.8"/>
      </g>
     </g>
     <g id="text_8">
      <!-- 2022-05 -->
      <g transform="translate(969.767742 382.993937)scale(0.1 -0.1)">
       <use xlink:href="#DejaVuSans-32"/>
       <use xlink:href="#DejaVuSans-30" x="63.623047"/>
       <use xlink:href="#DejaVuSans-32" x="127.246094"/>
       <use xlink:href="#DejaVuSans-32" x="190.869141"/>
       <use xlink:href="#DejaVuSans-2d" x="254.492188"/>
       <use xlink:href="#DejaVuSans-30" x="290.576172"/>
       <use xlink:href="#DejaVuSans-35" x="354.199219"/>
      </g>
     </g>
    </g>
    <g id="xtick_9">
     <g id="line2d_9">
      <g>
       <use xlink:href="#m3e9a69de52" x="1121.786039" y="368.3955" style="stroke: #000000; stroke-width: 0.8"/>
      </g>
     </g>
     <g id="text_9">
      <!-- 2022-09 -->
      <g transform="translate(1100.894633 382.993937)scale(0.1 -0.1)">
       <use xlink:href="#DejaVuSans-32"/>
       <use xlink:href="#DejaVuSans-30" x="63.623047"/>
       <use xlink:href="#DejaVuSans-32" x="127.246094"/>
       <use xlink:href="#DejaVuSans-32" x="190.869141"/>
       <use xlink:href="#DejaVuSans-2d" x="254.492188"/>
       <use xlink:href="#DejaVuSans-30" x="290.576172"/>
       <use xlink:href="#DejaVuSans-39" x="354.199219"/>
      </g>
     </g>
    </g>
    <g id="xtick_10">
     <g id="line2d_10">
      <g>
       <use xlink:href="#m3e9a69de52" x="1251.846858" y="368.3955" style="stroke: #000000; stroke-width: 0.8"/>
      </g>
     </g>
     <g id="text_10">
      <!-- 2023-01 -->
      <g transform="translate(1230.955451 382.993937)scale(0.1 -0.1)">
       <defs>
        <path id="DejaVuSans-33" d="M 2597 2516 
Q 3050 2419 3304 2112 
Q 3559 1806 3559 1356 
Q 3559 666 3084 287 
Q 2609 -91 1734 -91 
Q 1441 -91 1130 -33 
Q 819 25 488 141 
L 488 750 
Q 750 597 1062 519 
Q 1375 441 1716 441 
Q 2309 441 2620 675 
Q 2931 909 2931 1356 
Q 2931 1769 2642 2001 
Q 2353 2234 1838 2234 
L 1294 2234 
L 1294 2753 
L 1863 2753 
Q 2328 2753 2575 2939 
Q 2822 3125 2822 3475 
Q 2822 3834 2567 4026 
Q 2313 4219 1838 4219 
Q 1578 4219 1281 4162 
Q 984 4106 628 3988 
L 628 4550 
Q 988 4650 1302 4700 
Q 1616 4750 1894 4750 
Q 2613 4750 3031 4423 
Q 3450 4097 3450 3541 
Q 3450 3153 3228 2886 
Q 3006 2619 2597 2516 
z
" transform="scale(0.015625)"/>
       </defs>
       <use xlink:href="#DejaVuSans-32"/>
       <use xlink:href="#DejaVuSans-30" x="63.623047"/>
       <use xlink:href="#DejaVuSans-32" x="127.246094"/>
       <use xlink:href="#DejaVuSans-33" x="190.869141"/>
       <use xlink:href="#DejaVuSans-2d" x="254.492188"/>
       <use xlink:href="#DejaVuSans-30" x="290.576172"/>
       <use xlink:href="#DejaVuSans-31" x="354.199219"/>
      </g>
     </g>
    </g>
    <g id="xtick_11">
     <g id="line2d_11">
      <g>
       <use xlink:href="#m3e9a69de52" x="1379.775531" y="368.3955" style="stroke: #000000; stroke-width: 0.8"/>
      </g>
     </g>
     <g id="text_11">
      <!-- 2023-05 -->
      <g transform="translate(1358.884125 382.993937)scale(0.1 -0.1)">
       <use xlink:href="#DejaVuSans-32"/>
       <use xlink:href="#DejaVuSans-30" x="63.623047"/>
       <use xlink:href="#DejaVuSans-32" x="127.246094"/>
       <use xlink:href="#DejaVuSans-33" x="190.869141"/>
       <use xlink:href="#DejaVuSans-2d" x="254.492188"/>
       <use xlink:href="#DejaVuSans-30" x="290.576172"/>
       <use xlink:href="#DejaVuSans-35" x="354.199219"/>
      </g>
     </g>
    </g>
   </g>
   <g id="matplotlib.axis_2">
    <g id="ytick_1">
     <g id="line2d_12">
      <defs>
       <path id="m5c772d0018" d="M 0 0 
L -3.5 0 
" style="stroke: #000000; stroke-width: 0.8"/>
      </defs>
      <g>
       <use xlink:href="#m5c772d0018" x="46.0125" y="351.90039" style="stroke: #000000; stroke-width: 0.8"/>
      </g>
     </g>
     <g id="text_12">
      <!-- 0 -->
      <g transform="translate(32.65 355.699609)scale(0.1 -0.1)">
       <use xlink:href="#DejaVuSans-30"/>
      </g>
     </g>
    </g>
    <g id="ytick_2">
     <g id="line2d_13">
      <g>
       <use xlink:href="#m5c772d0018" x="46.0125" y="303.344073" style="stroke: #000000; stroke-width: 0.8"/>
      </g>
     </g>
     <g id="text_13">
      <!-- 2000 -->
      <g transform="translate(13.5625 307.143292)scale(0.1 -0.1)">
       <use xlink:href="#DejaVuSans-32"/>
       <use xlink:href="#DejaVuSans-30" x="63.623047"/>
       <use xlink:href="#DejaVuSans-30" x="127.246094"/>
       <use xlink:href="#DejaVuSans-30" x="190.869141"/>
      </g>
     </g>
    </g>
    <g id="ytick_3">
     <g id="line2d_14">
      <g>
       <use xlink:href="#m5c772d0018" x="46.0125" y="254.787755" style="stroke: #000000; stroke-width: 0.8"/>
      </g>
     </g>
     <g id="text_14">
      <!-- 4000 -->
      <g transform="translate(13.5625 258.586974)scale(0.1 -0.1)">
       <defs>
        <path id="DejaVuSans-34" d="M 2419 4116 
L 825 1625 
L 2419 1625 
L 2419 4116 
z
M 2253 4666 
L 3047 4666 
L 3047 1625 
L 3713 1625 
L 3713 1100 
L 3047 1100 
L 3047 0 
L 2419 0 
L 2419 1100 
L 313 1100 
L 313 1709 
L 2253 4666 
z
" transform="scale(0.015625)"/>
       </defs>
       <use xlink:href="#DejaVuSans-34"/>
       <use xlink:href="#DejaVuSans-30" x="63.623047"/>
       <use xlink:href="#DejaVuSans-30" x="127.246094"/>
       <use xlink:href="#DejaVuSans-30" x="190.869141"/>
      </g>
     </g>
    </g>
    <g id="ytick_4">
     <g id="line2d_15">
      <g>
       <use xlink:href="#m5c772d0018" x="46.0125" y="206.231438" style="stroke: #000000; stroke-width: 0.8"/>
      </g>
     </g>
     <g id="text_15">
      <!-- 6000 -->
      <g transform="translate(13.5625 210.030657)scale(0.1 -0.1)">
       <defs>
        <path id="DejaVuSans-36" d="M 2113 2584 
Q 1688 2584 1439 2293 
Q 1191 2003 1191 1497 
Q 1191 994 1439 701 
Q 1688 409 2113 409 
Q 2538 409 2786 701 
Q 3034 994 3034 1497 
Q 3034 2003 2786 2293 
Q 2538 2584 2113 2584 
z
M 3366 4563 
L 3366 3988 
Q 3128 4100 2886 4159 
Q 2644 4219 2406 4219 
Q 1781 4219 1451 3797 
Q 1122 3375 1075 2522 
Q 1259 2794 1537 2939 
Q 1816 3084 2150 3084 
Q 2853 3084 3261 2657 
Q 3669 2231 3669 1497 
Q 3669 778 3244 343 
Q 2819 -91 2113 -91 
Q 1303 -91 875 529 
Q 447 1150 447 2328 
Q 447 3434 972 4092 
Q 1497 4750 2381 4750 
Q 2619 4750 2861 4703 
Q 3103 4656 3366 4563 
z
" transform="scale(0.015625)"/>
       </defs>
       <use xlink:href="#DejaVuSans-36"/>
       <use xlink:href="#DejaVuSans-30" x="63.623047"/>
       <use xlink:href="#DejaVuSans-30" x="127.246094"/>
       <use xlink:href="#DejaVuSans-30" x="190.869141"/>
      </g>
     </g>
    </g>
    <g id="ytick_5">
     <g id="line2d_16">
      <g>
       <use xlink:href="#m5c772d0018" x="46.0125" y="157.67512" style="stroke: #000000; stroke-width: 0.8"/>
      </g>
     </g>
     <g id="text_16">
      <!-- 8000 -->
      <g transform="translate(13.5625 161.474339)scale(0.1 -0.1)">
       <defs>
        <path id="DejaVuSans-38" d="M 2034 2216 
Q 1584 2216 1326 1975 
Q 1069 1734 1069 1313 
Q 1069 891 1326 650 
Q 1584 409 2034 409 
Q 2484 409 2743 651 
Q 3003 894 3003 1313 
Q 3003 1734 2745 1975 
Q 2488 2216 2034 2216 
z
M 1403 2484 
Q 997 2584 770 2862 
Q 544 3141 544 3541 
Q 544 4100 942 4425 
Q 1341 4750 2034 4750 
Q 2731 4750 3128 4425 
Q 3525 4100 3525 3541 
Q 3525 3141 3298 2862 
Q 3072 2584 2669 2484 
Q 3125 2378 3379 2068 
Q 3634 1759 3634 1313 
Q 3634 634 3220 271 
Q 2806 -91 2034 -91 
Q 1263 -91 848 271 
Q 434 634 434 1313 
Q 434 1759 690 2068 
Q 947 2378 1403 2484 
z
M 1172 3481 
Q 1172 3119 1398 2916 
Q 1625 2713 2034 2713 
Q 2441 2713 2670 2916 
Q 2900 3119 2900 3481 
Q 2900 3844 2670 4047 
Q 2441 4250 2034 4250 
Q 1625 4250 1398 4047 
Q 1172 3844 1172 3481 
z
" transform="scale(0.015625)"/>
       </defs>
       <use xlink:href="#DejaVuSans-38"/>
       <use xlink:href="#DejaVuSans-30" x="63.623047"/>
       <use xlink:href="#DejaVuSans-30" x="127.246094"/>
       <use xlink:href="#DejaVuSans-30" x="190.869141"/>
      </g>
     </g>
    </g>
    <g id="ytick_6">
     <g id="line2d_17">
      <g>
       <use xlink:href="#m5c772d0018" x="46.0125" y="109.118803" style="stroke: #000000; stroke-width: 0.8"/>
      </g>
     </g>
     <g id="text_17">
      <!-- 10000 -->
      <g transform="translate(7.2 112.918022)scale(0.1 -0.1)">
       <use xlink:href="#DejaVuSans-31"/>
       <use xlink:href="#DejaVuSans-30" x="63.623047"/>
       <use xlink:href="#DejaVuSans-30" x="127.246094"/>
       <use xlink:href="#DejaVuSans-30" x="190.869141"/>
       <use xlink:href="#DejaVuSans-30" x="254.492188"/>
      </g>
     </g>
    </g>
    <g id="ytick_7">
     <g id="line2d_18">
      <g>
       <use xlink:href="#m5c772d0018" x="46.0125" y="60.562485" style="stroke: #000000; stroke-width: 0.8"/>
      </g>
     </g>
     <g id="text_18">
      <!-- 12000 -->
      <g transform="translate(7.2 64.361704)scale(0.1 -0.1)">
       <use xlink:href="#DejaVuSans-31"/>
       <use xlink:href="#DejaVuSans-32" x="63.623047"/>
       <use xlink:href="#DejaVuSans-30" x="127.246094"/>
       <use xlink:href="#DejaVuSans-30" x="190.869141"/>
       <use xlink:href="#DejaVuSans-30" x="254.492188"/>
      </g>
     </g>
    </g>
   </g>
   <g id="line2d_19">
    <path d="M 106.885227 351.90039 
L 159.122769 351.90039 
L 160.188841 351.51194 
L 161.254914 351.463383 
L 163.387058 351.876112 
L 165.519203 351.293436 
L 166.585275 351.851834 
L 167.651347 351.099211 
L 168.71742 351.026377 
L 170.849564 351.560496 
L 175.113853 351.196324 
L 176.179926 350.97782 
L 177.245998 351.536218 
L 178.31207 351.584774 
L 179.378142 350.929264 
L 180.444215 351.341993 
L 181.510287 351.050655 
L 183.642432 351.463383 
L 184.708504 351.220602 
L 185.774576 351.463383 
L 186.840648 351.220602 
L 187.906721 351.51194 
L 188.972793 351.293436 
L 190.038865 351.487662 
L 191.104938 351.269158 
L 192.17101 351.560496 
L 193.237082 351.657609 
L 194.303154 351.220602 
L 195.369227 351.074933 
L 196.435299 350.613648 
L 197.501371 350.783595 
L 199.633516 351.51194 
L 200.699588 351.050655 
L 201.76566 350.783595 
L 202.831733 350.710761 
L 203.897805 350.128085 
L 204.963877 348.574283 
L 206.029949 351.584774 
L 207.096022 350.613648 
L 208.162094 350.370866 
L 209.228166 351.026377 
L 211.360311 350.467979 
L 213.492455 350.953542 
L 214.558528 351.317714 
L 215.6246 351.074933 
L 217.756745 350.103807 
L 218.822817 350.662204 
L 219.888889 350.856429 
L 220.954961 350.710761 
L 222.021034 350.832151 
L 223.087106 351.293436 
L 224.153178 351.099211 
L 225.219251 350.783595 
L 226.285323 351.147767 
L 227.351395 350.97782 
L 229.48354 351.026377 
L 230.549612 351.317714 
L 231.615684 351.317714 
L 233.747829 350.953542 
L 234.813901 350.904986 
L 235.879973 351.026377 
L 238.012118 351.754721 
L 241.210335 351.487662 
L 242.276407 351.706165 
L 243.342479 351.560496 
L 244.408552 351.560496 
L 245.474624 351.754721 
L 246.540696 351.439105 
L 248.672841 351.293436 
L 249.738913 350.880708 
L 250.804985 349.861025 
L 251.871058 351.51194 
L 252.93713 349.885303 
L 254.003202 349.982416 
L 255.069274 349.375462 
L 256.135347 349.642522 
L 257.201419 349.351184 
L 258.267491 350.079528 
L 259.333564 351.317714 
L 260.399636 350.662204 
L 261.465708 349.181237 
L 262.53178 349.739634 
L 263.597853 348.695673 
L 264.663925 349.933859 
L 265.729997 349.059846 
L 266.796069 351.099211 
L 268.928214 348.74423 
L 269.994286 348.792786 
L 271.060359 347.870216 
L 272.126431 349.351184 
L 273.192503 349.181237 
L 274.258575 350.298032 
L 275.324648 348.501448 
L 276.39072 348.064441 
L 277.456792 347.894494 
L 278.522865 347.991607 
L 279.588937 347.481765 
L 280.655009 347.530322 
L 281.721081 350.370866 
L 282.787154 347.675991 
L 283.853226 347.336096 
L 284.919298 346.073632 
L 285.985371 343.888598 
L 287.051443 344.811168 
L 288.117515 346.777699 
L 289.183587 350.030972 
L 291.315732 346.219301 
L 292.381804 346.267857 
L 294.513949 344.665499 
L 296.646093 349.593965 
L 297.712166 347.141871 
L 298.778238 344.009989 
L 299.84431 343.888598 
L 300.910383 345.369566 
L 301.976455 345.345287 
L 304.108599 349.108402 
L 305.174672 347.190428 
L 306.240744 345.830851 
L 307.306816 345.005393 
L 308.372888 345.466678 
L 309.438961 345.345287 
L 310.505033 348.355779 
L 311.571105 349.011289 
L 312.637178 346.947646 
L 314.769322 344.544108 
L 315.835394 344.689777 
L 316.901467 347.166149 
L 317.967539 348.647117 
L 319.033611 350.613648 
L 320.099684 349.084124 
L 321.165756 346.801977 
L 322.231828 347.748825 
L 323.2979 351.90039 
L 324.363973 343.403035 
L 325.430045 349.715356 
L 326.496117 351.123489 
L 327.56219 348.622839 
L 328.628262 347.797381 
L 329.694334 348.234388 
L 330.760406 348.452892 
L 331.826479 347.797381 
L 332.892551 351.90039 
L 333.958623 348.112998 
L 335.024696 349.496853 
L 336.090768 346.971924 
L 337.15684 347.967329 
L 338.222912 348.088719 
L 339.288985 348.088719 
L 340.355057 349.496853 
L 341.421129 351.269158 
L 342.487201 350.05525 
L 343.553274 347.336096 
L 344.619346 347.94305 
L 345.685418 348.064441 
L 346.751491 347.5546 
L 347.817563 349.569687 
L 348.883635 350.953542 
L 349.949707 350.516535 
L 351.01578 347.845938 
L 352.081852 348.938455 
L 354.213997 347.02048 
L 355.280069 349.6668 
L 356.346141 351.24488 
L 357.412213 348.428614 
L 358.478286 348.137276 
L 359.544358 347.675991 
L 360.61043 348.161554 
L 361.676503 347.311818 
L 362.742575 349.812469 
L 363.808647 350.832151 
L 364.874719 348.234388 
L 365.940792 349.254071 
L 367.006864 348.015885 
L 368.072936 344.859724 
L 369.139009 345.70946 
L 370.205081 347.797381 
L 371.271153 350.492257 
L 372.337225 346.656308 
L 373.403298 345.199618 
L 374.46937 344.956837 
L 375.535442 351.90039 
L 376.601514 339.688476 
L 377.667587 347.481765 
L 378.733659 350.225197 
L 379.799731 345.029671 
L 380.865804 341.315113 
L 381.931876 341.290835 
L 382.997948 339.37286 
L 384.06402 337.042157 
L 385.130093 341.023775 
L 386.196165 349.885303 
L 387.262237 337.649111 
L 388.32831 332.842036 
L 389.394382 332.016578 
L 390.460454 329.710153 
L 391.526526 327.670788 
L 392.592599 337.260661 
L 393.658671 342.310518 
L 394.724743 327.039556 
L 395.790816 319.46477 
L 397.92296 313.176727 
L 398.989032 313.322396 
L 400.055105 326.578271 
L 401.121177 343.961432 
L 402.187249 297.44448 
L 403.253322 289.5298 
L 404.319394 284.892672 
L 405.385466 286.616421 
L 406.451538 281.712233 
L 407.517611 308.12687 
L 408.583683 322.159646 
L 409.649755 292.977299 
L 410.715827 253.792351 
L 411.7819 253.476735 
L 412.847972 260.760182 
L 413.914044 258.696539 
L 416.046189 335.512633 
L 417.112261 259.254937 
L 418.178333 245.319273 
L 419.244406 256.123054 
L 420.310478 269.014756 
L 421.37655 249.640786 
L 423.508695 332.089413 
L 424.574767 266.46555 
L 425.640839 234.68544 
L 426.706912 256.293001 
L 427.772984 257.239849 
L 428.839056 255.200484 
L 429.905129 296.570467 
L 430.971201 324.636018 
L 432.037273 275.521303 
L 433.103345 245.513499 
L 434.169418 261.779865 
L 435.23549 265.27592 
L 436.301562 271.126956 
L 437.367635 308.39393 
L 438.433707 333.958831 
L 439.499779 283.581652 
L 440.565851 267.533789 
L 441.631924 275.715528 
L 442.697996 272.26803 
L 443.764068 264.159125 
L 445.896213 337.891893 
L 446.962285 284.79556 
L 448.028357 255.273318 
L 449.09443 271.102678 
L 450.160502 277.245052 
L 451.226574 276.710933 
L 452.292646 320.6544 
L 453.358719 339.834145 
L 454.424791 301.037648 
L 455.490863 285.305401 
L 456.556936 304.339477 
L 457.623008 302.32439 
L 458.68908 309.680672 
L 459.755152 327.573675 
L 460.821225 347.870216 
L 461.887297 320.897182 
L 462.953369 308.223983 
L 464.019442 312.691164 
L 465.085514 333.157652 
L 466.151586 345.660904 
L 467.217658 340.513934 
L 468.283731 343.840042 
L 469.349803 343.718651 
L 470.415875 316.988398 
L 471.481948 309.923454 
L 472.54802 326.505436 
L 473.614092 345.248175 
L 474.680164 343.645816 
L 475.746237 347.748825 
L 476.812309 326.918165 
L 477.878381 320.096002 
L 478.944454 327.573675 
L 480.010526 330.851227 
L 481.076598 333.618937 
L 482.14267 342.334796 
L 483.208743 349.351184 
L 484.274815 336.847932 
L 485.340887 333.691771 
L 486.406959 338.911575 
L 487.473032 338.911575 
L 488.539104 338.498847 
L 489.605176 346.243579 
L 490.671249 350.030972 
L 491.737321 338.06184 
L 492.803393 338.693072 
L 493.869465 340.198318 
L 494.935538 340.853828 
L 496.00161 338.158952 
L 497.067682 345.4424 
L 498.133755 348.962733 
L 499.199827 333.157652 
L 500.265899 331.822353 
L 501.331971 337.382051 
L 502.398044 338.304621 
L 503.464116 335.02707 
L 504.530188 343.427313 
L 505.596261 348.74423 
L 506.662333 331.700962 
L 507.728405 328.423411 
L 508.794477 334.444394 
L 509.86055 330.462776 
L 510.926622 329.807266 
L 511.992694 339.931258 
L 513.058767 347.481765 
L 514.124839 324.830243 
L 515.190911 322.475262 
L 516.256983 329.734431 
L 517.323056 325.92276 
L 518.389128 328.447689 
L 519.4552 339.615642 
L 520.521272 347.94305 
L 521.587345 325.971317 
L 522.653417 319.149154 
L 523.719489 321.649805 
L 524.785562 325.53431 
L 525.851634 316.381444 
L 526.917706 338.595959 
L 527.983778 346.389248 
L 529.049851 305.164935 
L 530.115923 308.199705 
L 531.181995 309.826341 
L 532.248068 307.665585 
L 533.31414 311.088805 
L 534.380212 325.704257 
L 535.446284 343.840042 
L 536.512357 289.068515 
L 537.578429 293.559975 
L 538.644501 323.883395 
L 539.710574 298.536997 
L 540.776646 278.968801 
L 541.842718 317.279736 
L 542.90879 339.834145 
L 543.974863 279.187305 
L 545.040935 266.878278 
L 546.107007 284.552778 
L 547.17308 276.128257 
L 548.239152 275.205687 
L 549.305224 302.882788 
L 550.371296 335.415521 
L 551.437369 239.322568 
L 552.503441 245.707724 
L 553.569513 249.907845 
L 554.635585 254.59353 
L 555.701658 250.854694 
L 557.833802 329.006087 
L 558.899875 243.449855 
L 559.965947 234.127042 
L 561.032019 245.683446 
L 562.098091 255.079093 
L 563.164164 251.655873 
L 565.296308 328.03496 
L 566.362381 242.72151 
L 567.428453 226.236641 
L 568.494525 249.762176 
L 569.560597 262.216872 
L 570.62667 254.472139 
L 571.692742 305.310604 
L 572.758814 333.934553 
L 573.824887 258.186698 
L 574.890959 351.90039 
L 575.957031 168.35751 
L 577.023103 280.109875 
L 578.089176 283.848711 
L 579.155248 319.07632 
L 580.22132 340.683881 
L 581.287393 276.103979 
L 582.353465 280.425491 
L 583.419537 290.792265 
L 584.485609 298.852613 
L 585.551682 300.285025 
L 586.617754 325.777091 
L 587.683826 341.75212 
L 588.749899 292.807352 
L 589.815971 301.01337 
L 590.882043 303.295516 
L 591.948115 351.90039 
L 593.014188 269.62171 
L 594.08026 332.52642 
L 595.146332 342.189127 
L 596.212404 309.195109 
L 597.278477 306.985797 
L 598.344549 318.347975 
L 599.410621 321.868308 
L 600.476694 336.071031 
L 601.542766 340.586768 
L 602.608838 343.451591 
L 603.67491 336.580872 
L 604.740983 342.990306 
L 605.807055 312.205601 
L 606.873127 338.668794 
L 607.9392 324.636018 
L 609.005272 340.586768 
L 610.071344 346.049354 
L 611.137416 325.728535 
L 613.269561 335.94964 
L 614.335633 339.615642 
L 615.401706 339.324304 
L 616.467778 346.971924 
L 617.53385 348.234388 
L 618.599922 335.464077 
L 619.665995 340.805272 
L 620.732067 343.135975 
L 621.798139 342.966028 
L 622.864212 343.111697 
L 623.930284 348.307223 
L 624.996356 349.933859 
L 626.062428 349.933859 
L 627.128501 342.043458 
L 628.194573 342.359074 
L 629.260645 344.78689 
L 630.326717 344.932559 
L 631.39279 349.108402 
L 632.458862 350.613648 
L 633.524934 344.544108 
L 634.591007 346.170745 
L 635.657079 347.117593 
L 636.723151 347.773103 
L 637.789223 348.088719 
L 638.855296 349.739634 
L 639.921368 350.759317 
L 640.98744 346.850533 
L 642.053513 347.578878 
L 643.119585 348.719952 
L 644.185657 349.472574 
L 645.251729 348.914177 
L 647.383874 350.880708 
L 648.449946 348.088719 
L 649.516019 347.991607 
L 650.582091 349.593965 
L 651.648163 349.229793 
L 652.714235 349.351184 
L 653.780308 350.904986 
L 654.84638 351.24488 
L 655.912452 348.987011 
L 656.978525 349.618243 
L 658.044597 349.642522 
L 659.110669 350.395144 
L 660.176741 349.812469 
L 661.242814 351.220602 
L 662.308886 351.51194 
L 663.374958 349.108402 
L 664.44103 349.351184 
L 665.507103 350.006694 
L 666.573175 350.128085 
L 667.639247 349.933859 
L 668.70532 350.662204 
L 669.771392 351.90039 
L 670.837464 349.059846 
L 672.969609 350.443701 
L 674.035681 350.565092 
L 675.101753 350.419423 
L 676.167826 351.123489 
L 677.233898 351.51194 
L 678.29997 349.885303 
L 679.366042 350.103807 
L 681.498187 349.618243 
L 683.630332 350.516535 
L 684.696404 351.050655 
L 685.762476 349.156958 
L 686.828548 348.380057 
L 687.894621 349.569687 
L 688.960693 348.962733 
L 690.026765 348.622839 
L 691.092838 350.58937 
L 692.15891 350.516535 
L 693.224982 347.214706 
L 694.291054 347.044759 
L 696.423199 346.292136 
L 697.489271 343.500147 
L 698.555343 347.481765 
L 699.621416 349.618243 
L 700.687488 342.359074 
L 701.75356 340.683881 
L 702.819633 341.48506 
L 703.885705 339.761311 
L 704.951777 338.571681 
L 706.017849 342.383352 
L 707.083922 347.627434 
L 708.149994 333.109095 
L 709.216066 332.356473 
L 710.282139 332.91487 
L 711.348211 330.487054 
L 712.414283 326.481158 
L 713.480355 336.775097 
L 714.546428 345.296731 
L 715.6125 320.314506 
L 716.678572 317.789577 
L 718.810717 318.615035 
L 719.876789 318.687869 
L 720.942861 331.385346 
L 722.008934 342.577577 
L 723.075006 305.990392 
L 724.141078 305.504829 
L 725.207151 313.031058 
L 726.273223 309.826341 
L 727.339295 310.311904 
L 728.405367 327.525119 
L 729.47144 340.950941 
L 730.537512 301.159039 
L 731.603584 302.05733 
L 732.669657 309.535003 
L 733.735729 313.92935 
L 734.801801 312.08421 
L 735.867873 331.166843 
L 736.933946 340.052649 
L 738.000018 335.464077 
L 739.06609 303.222682 
L 740.132162 304.412312 
L 741.198235 312.35127 
L 742.264307 312.424104 
L 743.330379 329.831544 
L 744.396452 341.290835 
L 745.462524 303.392629 
L 746.528596 302.640006 
L 747.594668 306.694459 
L 748.660741 310.044845 
L 749.726813 305.966114 
L 750.792885 328.811861 
L 751.858958 340.780994 
L 752.92503 294.603936 
L 753.991102 298.682666 
L 755.057174 331.263955 
L 756.123247 307.349969 
L 757.189319 305.674776 
L 758.255391 326.699662 
L 759.321464 339.858424 
L 760.387536 290.33098 
L 761.453608 289.432688 
L 762.51968 299.896574 
L 763.585753 302.130165 
L 764.651825 301.13476 
L 765.717897 322.086811 
L 766.78397 339.445695 
L 767.850042 283.775877 
L 768.916114 282.319187 
L 769.982186 290.185311 
L 771.048259 296.012069 
L 772.114331 291.569166 
L 773.180403 321.649805 
L 774.246475 336.823654 
L 775.312548 267.630901 
L 776.37862 267.679458 
L 778.510765 274.623011 
L 779.576837 268.383524 
L 780.642909 306.573068 
L 781.708981 327.622232 
L 782.775054 231.019438 
L 783.841126 231.553557 
L 784.907198 242.114556 
L 785.973271 234.976778 
L 787.039343 234.733996 
L 788.105415 270.471446 
L 789.171487 318.639313 
L 790.23756 209.557546 
L 791.303632 186.42046 
L 792.369704 214.89874 
L 793.435777 226.188084 
L 794.501849 224.294388 
L 795.567921 283.047532 
L 796.633993 316.527113 
L 797.700066 206.061491 
L 798.766138 209.557546 
L 799.83221 232.403293 
L 800.898283 238.715614 
L 801.964355 236.967587 
L 803.030427 283.290314 
L 804.096499 321.407023 
L 805.162572 223.566043 
L 806.228644 231.602114 
L 807.294716 258.356645 
L 808.360788 274.040335 
L 809.426861 275.521303 
L 810.492933 312.812555 
L 811.559005 331.798075 
L 812.625078 273.651885 
L 813.69115 257.968194 
L 814.757222 282.974698 
L 816.889367 285.45107 
L 817.955439 316.575669 
L 819.021511 334.1045 
L 820.087584 267.849405 
L 821.153656 273.409103 
L 822.219728 289.5298 
L 823.2858 294.361154 
L 824.351873 291.496331 
L 825.417945 322.329593 
L 826.484017 334.225891 
L 827.55009 278.580351 
L 828.616162 286.810647 
L 829.682234 300.794866 
L 830.748306 302.907066 
L 831.814379 296.327685 
L 832.880451 327.986404 
L 833.946523 334.76001 
L 835.012596 293.001577 
L 836.078668 296.084903 
L 837.14474 311.792872 
L 838.210812 307.544194 
L 839.276885 310.166235 
L 840.342957 325.849926 
L 842.475101 351.90039 
L 843.541174 255.686047 
L 844.607246 310.020566 
L 845.673318 316.867007 
L 846.739391 312.715442 
L 847.805463 329.952935 
L 848.871535 340.82955 
L 849.937607 303.319795 
L 851.00368 306.184617 
L 852.069752 316.381444 
L 853.135824 304.16953 
L 854.201897 326.821052 
L 855.267969 333.861718 
L 856.334041 331.555293 
L 857.400113 320.872903 
L 858.466186 321.916864 
L 859.532258 268.165021 
L 860.59833 264.110568 
L 861.664403 283.678764 
L 862.730475 325.777091 
L 863.796547 318.979207 
L 864.862619 305.334882 
L 865.928692 200.113342 
L 866.994764 187.634368 
L 868.060836 217.763563 
L 869.126909 217.787841 
L 870.192981 274.792958 
L 871.259053 310.23907 
L 872.325125 187.755759 
L 873.391198 180.448033 
L 874.45727 213.442051 
L 875.523342 181.127822 
L 876.589415 185.279387 
L 877.655487 245.343552 
L 878.721559 294.142651 
L 879.787631 109.215915 
L 880.853704 80.446297 
L 881.919776 105.234297 
L 882.985848 135.047876 
L 884.05192 112.177851 
L 885.117993 190.936198 
L 886.184065 282.780472 
L 887.250137 83.651014 
L 888.31621 50.8755 
L 889.382282 111.158168 
L 890.448354 112.177851 
L 891.514426 112.250685 
L 892.580499 209.266208 
L 893.646571 288.728621 
L 894.712643 105.452801 
L 895.778716 81.368867 
L 896.844788 129.706681 
L 897.91086 154.227622 
L 898.976932 154.858854 
L 900.043005 236.894752 
L 901.109077 298.949726 
L 902.175149 157.383782 
L 903.241222 154.276178 
L 904.307294 175.568123 
L 905.373366 199.48211 
L 906.439438 193.339736 
L 907.505511 263.892065 
L 908.571583 314.536304 
L 909.637655 203.075277 
L 910.703728 191.931602 
L 911.7698 229.951199 
L 912.835872 239.589628 
L 913.901944 239.83241 
L 914.968017 288.655787 
L 916.034089 321.916864 
L 917.100161 234.272711 
L 918.166233 238.594223 
L 919.232306 269.087591 
L 920.298378 282.610525 
L 921.36445 281.420895 
L 922.430523 316.260053 
L 923.496595 334.323003 
L 924.562667 284.91695 
L 925.628739 287.781773 
L 926.694812 296.691857 
L 927.760884 325.097303 
L 928.826956 300.309303 
L 929.893029 318.202306 
L 930.959101 339.397139 
L 932.025173 292.127563 
L 934.157318 305.286326 
L 935.22339 310.797468 
L 936.289462 312.205601 
L 937.355535 328.593358 
L 938.421607 339.202913 
L 939.487679 292.83163 
L 940.553751 293.802756 
L 941.619824 304.582259 
L 942.685896 310.141957 
L 943.751968 313.031058 
L 944.818041 329.588762 
L 945.884113 340.441099 
L 946.950185 304.315199 
L 948.016257 304.727928 
L 949.08233 314.220688 
L 950.148402 317.328292 
L 951.214474 319.537605 
L 952.280546 334.808567 
L 953.346619 343.111697 
L 954.412691 316.891285 
L 955.478763 310.676077 
L 956.544836 323.349276 
L 957.610908 324.150455 
L 958.67698 326.821052 
L 959.743052 339.834145 
L 960.809125 346.413526 
L 961.875197 323.252163 
L 962.941269 331.531015 
L 964.007342 334.274447 
L 965.073414 335.318408 
L 966.139486 334.541507 
L 967.205558 344.107101 
L 968.271631 345.466678 
L 969.337703 330.754114 
L 970.403775 330.389942 
L 971.469848 336.192422 
L 972.53592 338.547403 
L 973.601992 337.114992 
L 974.668064 345.733738 
L 975.734137 346.510639 
L 976.800209 330.171438 
L 977.866281 335.658302 
L 978.932354 337.114992 
L 979.998426 336.580872 
L 981.064498 344.932559 
L 982.13057 343.305922 
L 983.196643 346.146467 
L 984.262715 342.747524 
L 985.328787 324.223289 
L 986.394859 333.910275 
L 987.460932 337.624833 
L 988.527004 339.979814 
L 989.593076 345.515235 
L 990.659149 346.025076 
L 991.725221 346.36497 
L 992.791293 334.420116 
L 993.857365 341.339391 
L 994.923438 341.242279 
L 995.98951 348.112998 
L 997.055582 347.02048 
L 998.121655 348.234388 
L 999.187727 336.750819 
L 1000.253799 341.655007 
L 1001.319871 343.184531 
L 1002.385944 343.840042 
L 1003.452016 344.301327 
L 1004.518088 348.185832 
L 1005.584161 348.841342 
L 1006.650233 343.111697 
L 1007.716305 340.805272 
L 1008.782377 345.223897 
L 1009.84845 345.539513 
L 1010.914522 346.09791 
L 1011.980594 349.6668 
L 1013.046667 349.569687 
L 1014.112739 344.78689 
L 1015.178811 349.472574 
L 1016.244883 344.228492 
L 1017.310956 346.170745 
L 1018.377028 347.82166 
L 1019.4431 348.671395 
L 1020.509173 350.128085 
L 1021.575245 345.758016 
L 1022.641317 347.481765 
L 1023.707389 347.311818 
L 1024.773462 347.481765 
L 1025.839534 347.311818 
L 1026.905606 349.958138 
L 1027.971678 350.710761 
L 1029.037751 344.811168 
L 1030.103823 347.82166 
L 1031.169895 348.015885 
L 1032.235968 349.156958 
L 1033.30204 347.336096 
L 1034.368112 349.909581 
L 1035.434184 350.880708 
L 1036.500257 345.927963 
L 1037.566329 347.845938 
L 1038.632401 348.21011 
L 1039.698474 346.073632 
L 1040.764546 346.850533 
L 1041.830618 348.962733 
L 1042.89669 349.6668 
L 1043.962763 342.650412 
L 1045.028835 344.374161 
L 1046.094907 343.742929 
L 1047.16098 344.13138 
L 1048.227052 345.733738 
L 1049.293124 346.073632 
L 1050.359196 348.914177 
L 1051.425269 337.454886 
L 1052.491341 338.571681 
L 1053.557413 338.98441 
L 1054.623486 340.441099 
L 1055.689558 338.838741 
L 1056.75563 344.277048 
L 1057.821702 347.457487 
L 1058.887775 329.030365 
L 1059.953847 330.875505 
L 1061.019919 336.289534 
L 1062.085991 331.458181 
L 1063.152064 327.500841 
L 1064.218136 343.135975 
L 1065.284208 345.685182 
L 1066.350281 320.144559 
L 1067.416353 324.247567 
L 1068.482425 327.11239 
L 1069.548497 325.024469 
L 1070.61457 324.8788 
L 1071.680642 338.498847 
L 1072.746714 341.776398 
L 1073.812787 296.25485 
L 1074.878859 306.694459 
L 1075.944931 311.987097 
L 1077.011003 312.08421 
L 1078.077076 308.758102 
L 1079.143148 331.943744 
L 1080.20922 340.028371 
L 1081.275293 279.38153 
L 1082.341365 298.706944 
L 1083.407437 304.70365 
L 1084.473509 308.928049 
L 1085.539582 310.578964 
L 1086.605654 334.37156 
L 1087.671726 351.90039 
L 1088.737799 276.905158 
L 1089.803871 304.533703 
L 1090.869943 310.603242 
L 1091.936015 315.580265 
L 1093.002088 313.880794 
L 1094.06816 335.803971 
L 1095.134232 341.922067 
L 1096.200304 295.623618 
L 1097.266377 312.181323 
L 1098.332449 317.206901 
L 1099.398521 320.970016 
L 1100.464594 327.039556 
L 1101.530666 332.040856 
L 1102.596738 343.281644 
L 1103.66281 306.645902 
L 1104.728883 319.124876 
L 1105.794955 323.03366 
L 1106.861027 325.510032 
L 1107.9271 324.199011 
L 1108.993172 341.703564 
L 1110.059244 344.859724 
L 1111.125316 309.413612 
L 1112.191389 323.980508 
L 1113.257461 328.399133 
L 1114.323533 329.977213 
L 1115.389606 331.239677 
L 1116.455678 344.641221 
L 1117.52175 347.311818 
L 1118.587822 317.838134 
L 1119.653895 331.021174 
L 1120.719967 333.036261 
L 1121.786039 333.764606 
L 1122.852112 335.585468 
L 1123.918184 346.413526 
L 1124.984256 347.578878 
L 1126.050328 334.323003 
L 1127.116401 340.708159 
L 1128.182473 333.764606 
L 1129.248545 338.547403 
L 1130.314617 338.231787 
L 1131.38069 345.660904 
L 1132.446762 347.894494 
L 1133.512834 351.90039 
L 1134.578907 315.337483 
L 1135.644979 338.693072 
L 1136.711051 342.747524 
L 1137.777123 334.808567 
L 1138.843196 347.093315 
L 1139.909268 348.501448 
L 1140.97534 328.933252 
L 1142.041413 336.896488 
L 1143.107485 338.814463 
L 1144.173557 347.967329 
L 1145.239629 333.740328 
L 1146.305702 345.369566 
L 1147.371774 347.336096 
L 1148.437846 324.538905 
L 1149.503919 330.462776 
L 1150.569991 333.230486 
L 1151.636063 333.643215 
L 1152.702135 332.453585 
L 1153.768208 344.665499 
L 1154.83428 347.5546 
L 1155.900352 319.391936 
L 1156.966425 329.151756 
L 1158.032497 334.395838 
L 1159.098569 335.269852 
L 1160.164641 334.978514 
L 1161.230714 344.908281 
L 1162.296786 346.753421 
L 1163.362858 317.571074 
L 1164.428931 329.831544 
L 1165.495003 330.41422 
L 1166.561075 332.987705 
L 1167.627147 332.890592 
L 1168.69322 347.166149 
L 1169.759292 344.884002 
L 1170.825364 324.053342 
L 1171.891436 332.793479 
L 1172.957509 336.60515 
L 1174.023581 337.673389 
L 1175.089653 334.468672 
L 1176.155726 346.559195 
L 1177.221798 347.845938 
L 1178.28787 324.101899 
L 1179.353942 335.755415 
L 1181.486087 337.891893 
L 1182.552159 337.503442 
L 1183.618232 347.530322 
L 1184.684304 348.962733 
L 1185.750376 331.361068 
L 1186.816448 339.445695 
L 1187.882521 341.970623 
L 1188.948593 337.819058 
L 1190.014665 351.90039 
L 1191.080738 338.037562 
L 1192.14681 349.545409 
L 1193.212882 335.585468 
L 1194.278954 351.90039 
L 1195.345027 343.160253 
L 1196.411099 340.56249 
L 1197.477171 337.017879 
L 1198.543244 348.719952 
L 1199.609316 350.030972 
L 1200.675388 340.271152 
L 1201.74146 344.495552 
L 1203.873605 346.559195 
L 1204.939677 345.223897 
L 1206.005749 349.861025 
L 1207.071822 350.662204 
L 1208.137894 342.261961 
L 1209.203966 346.801977 
L 1210.270039 345.782294 
L 1211.336111 347.093315 
L 1212.402183 347.457487 
L 1213.468255 350.686482 
L 1214.534328 350.783595 
L 1215.6004 344.908281 
L 1216.666472 347.94305 
L 1217.732545 346.534917 
L 1218.798617 348.185832 
L 1219.864689 347.408931 
L 1220.930761 350.492257 
L 1221.996834 350.904986 
L 1223.062906 344.738333 
L 1224.128978 346.850533 
L 1225.195051 346.947646 
L 1226.261123 347.384653 
L 1227.327195 347.069037 
L 1228.393267 350.249476 
L 1229.45934 350.467979 
L 1230.525412 343.572982 
L 1231.591484 346.583474 
L 1232.657557 346.777699 
L 1233.723629 347.433209 
L 1234.789701 351.90039 
L 1235.855773 345.321009 
L 1236.921846 350.783595 
L 1237.987918 345.005393 
L 1239.05399 351.90039 
L 1240.120062 343.403035 
L 1241.186135 348.331501 
L 1242.252207 347.530322 
L 1243.318279 349.958138 
L 1244.384352 350.419423 
L 1245.450424 349.739634 
L 1246.516496 349.521131 
L 1247.582568 350.128085 
L 1248.648641 344.956837 
L 1249.714713 347.069037 
L 1250.780785 350.176641 
L 1251.846858 350.783595 
L 1252.91293 350.103807 
L 1253.979002 344.592665 
L 1255.045074 345.758016 
L 1256.111147 351.90039 
L 1257.177219 343.063141 
L 1258.243291 350.103807 
L 1259.309364 350.807873 
L 1260.375436 346.316414 
L 1261.441508 347.214706 
L 1262.50758 348.792786 
L 1263.573653 348.574283 
L 1264.639725 348.962733 
L 1265.705797 350.783595 
L 1266.77187 351.026377 
L 1267.837942 347.870216 
L 1268.904014 348.088719 
L 1269.970086 348.768508 
L 1271.036159 349.642522 
L 1272.102231 348.962733 
L 1273.168303 351.172046 
L 1274.234375 351.341993 
L 1275.300448 349.084124 
L 1276.36652 349.593965 
L 1277.432592 350.613648 
L 1278.498665 350.759317 
L 1279.564737 350.443701 
L 1280.630809 351.584774 
L 1281.696881 351.414827 
L 1282.762954 349.691078 
L 1283.829026 350.443701 
L 1284.895098 350.443701 
L 1285.961171 350.97782 
L 1287.027243 350.953542 
L 1288.093315 351.366271 
L 1289.159387 351.609052 
L 1290.22546 350.516535 
L 1291.291532 350.759317 
L 1292.357604 350.759317 
L 1293.423677 350.904986 
L 1294.489749 351.90039 
L 1295.555821 350.929264 
L 1296.621893 350.904986 
L 1297.687966 349.763912 
L 1298.754038 350.662204 
L 1299.82011 350.395144 
L 1300.886183 350.735039 
L 1301.952255 350.807873 
L 1303.018327 351.293436 
L 1304.084399 351.633331 
L 1305.150472 349.496853 
L 1306.216544 349.933859 
L 1307.282616 350.200919 
L 1308.348689 349.885303 
L 1309.414761 349.933859 
L 1309.414761 349.933859 
" clip-path="url(#pbf7efaeb87)" style="fill: none; stroke: #0000ff; stroke-width: 1.5; stroke-linecap: square"/>
   </g>
   <g id="line2d_20">
    <path d="M 1069.548497 326.077522 
L 1070.61457 322.315846 
L 1071.680642 333.782599 
L 1072.746714 337.585616 
L 1073.812787 318.650677 
L 1074.878859 316.251106 
L 1075.944931 317.074276 
L 1077.011003 310.385821 
L 1078.077076 309.016726 
L 1079.143148 319.840685 
L 1080.20922 326.91332 
L 1081.275293 295.093562 
L 1082.341365 300.032826 
L 1083.407437 305.566783 
L 1084.473509 302.70795 
L 1085.539582 301.739646 
L 1086.605654 321.835997 
L 1087.671726 332.910936 
L 1088.737799 290.338252 
L 1089.803871 302.835869 
L 1090.869943 310.774543 
L 1091.936015 311.248857 
L 1093.002088 313.321166 
L 1094.06816 332.93951 
L 1095.134232 348.261518 
L 1096.200304 285.049053 
L 1097.266377 310.136866 
L 1098.332449 314.809796 
L 1099.398521 321.057789 
L 1100.464594 320.079288 
L 1101.530666 341.761665 
L 1102.596738 345.620157 
L 1103.66281 301.413843 
L 1104.728883 317.422874 
L 1105.794955 322.213922 
L 1107.9271 330.5298 
L 1108.993172 336.491073 
L 1110.059244 346.655444 
L 1111.125316 310.825171 
L 1112.191389 323.216875 
L 1113.257461 326.737177 
L 1114.323533 329.640097 
L 1115.389606 329.521026 
L 1116.455678 343.770534 
L 1117.52175 348.240878 
L 1118.587822 316.692705 
L 1119.653895 329.501327 
L 1120.719967 333.571727 
L 1121.786039 335.148625 
L 1122.852112 335.800901 
L 1123.918184 347.71092 
L 1124.984256 349.823863 
L 1126.050328 322.390909 
L 1127.116401 337.139941 
L 1128.182473 339.959121 
L 1129.248545 340.765817 
L 1130.314617 341.989655 
L 1131.38069 350.12833 
L 1132.446762 349.664354 
L 1133.512834 333.92827 
L 1134.578907 345.434002 
L 1135.644979 332.626447 
L 1136.711051 340.452296 
L 1137.777123 336.752868 
L 1138.843196 344.726095 
L 1139.909268 346.628375 
L 1140.97534 347.611038 
L 1142.041413 319.153971 
L 1143.107485 338.913033 
L 1144.173557 339.884946 
L 1145.239629 339.381882 
L 1146.305702 347.27074 
L 1147.371774 350.027769 
L 1148.437846 334.238754 
L 1149.503919 331.885228 
L 1150.569991 335.667868 
L 1151.636063 340.834581 
L 1152.702135 328.040289 
L 1153.768208 338.879427 
L 1154.83428 341.363689 
L 1155.900352 325.29136 
L 1156.966425 328.462046 
L 1158.032497 332.606333 
L 1159.098569 333.754715 
L 1160.164641 331.041974 
L 1161.230714 342.685175 
L 1162.296786 346.071454 
L 1163.362858 323.663342 
L 1164.428931 329.635371 
L 1165.495003 333.996356 
L 1166.561075 333.050831 
L 1167.627147 332.277834 
L 1168.69322 340.904655 
L 1169.759292 344.598734 
L 1170.825364 319.854291 
L 1171.891436 331.871438 
L 1172.957509 333.347181 
L 1174.023581 336.765697 
L 1175.089653 336.636879 
L 1176.155726 348.199768 
L 1177.221798 346.605059 
L 1178.28787 327.183822 
L 1179.353942 334.138365 
L 1180.420015 337.641276 
L 1181.486087 338.214349 
L 1182.552159 336.197383 
L 1183.618232 347.026803 
L 1184.684304 347.861673 
L 1185.750376 327.979471 
L 1186.816448 338.602624 
L 1188.948593 342.143436 
L 1190.014665 340.294954 
L 1191.080738 352.810439 
L 1192.14681 349.087857 
L 1193.212882 334.721948 
L 1195.345027 345.891895 
L 1196.411099 342.052543 
L 1197.477171 353.2755 
L 1198.543244 340.818181 
L 1199.609316 350.817145 
L 1200.675388 334.969734 
L 1201.74146 350.663981 
L 1202.807533 343.265682 
L 1203.873605 342.83295 
L 1204.939677 342.045186 
L 1206.005749 349.638915 
L 1207.071822 352.739449 
L 1208.137894 343.406675 
L 1209.203966 348.614478 
L 1210.270039 347.183927 
L 1211.336111 346.863605 
L 1212.402183 345.751955 
L 1213.468255 350.626912 
L 1214.534328 351.766064 
L 1215.6004 344.027761 
L 1216.666472 348.576666 
L 1217.732545 347.446746 
L 1218.798617 348.213677 
L 1219.864689 348.164609 
L 1220.930761 351.05265 
L 1221.996834 351.162526 
L 1223.062906 345.356332 
L 1224.128978 348.135038 
L 1225.195051 346.612169 
L 1226.261123 347.96469 
L 1227.327195 347.122238 
L 1228.393267 349.939837 
L 1229.45934 350.291781 
L 1230.525412 344.976289 
L 1231.591484 346.67742 
L 1232.657557 346.520171 
L 1233.723629 346.977709 
L 1234.789701 346.762782 
L 1235.855773 350.942383 
L 1236.921846 349.709715 
L 1237.987918 344.908682 
L 1240.120062 348.34036 
L 1241.186135 347.333933 
L 1242.252207 351.611151 
L 1243.318279 345.797417 
L 1244.384352 350.882459 
L 1245.450424 344.789663 
L 1246.516496 352.226294 
L 1247.582568 345.528266 
L 1248.648641 351.068231 
L 1249.714713 348.8622 
L 1250.780785 349.969448 
L 1251.846858 350.115686 
L 1252.91293 348.694647 
L 1253.979002 349.919649 
L 1255.045074 347.918376 
L 1256.111147 344.835923 
L 1257.177219 347.361412 
L 1258.243291 348.191485 
L 1259.309364 350.35939 
L 1260.375436 349.164055 
L 1261.441508 345.234684 
L 1262.50758 346.104469 
L 1263.573653 350.232146 
L 1264.639725 344.36205 
L 1265.705797 351.171976 
L 1266.77187 351.523803 
L 1267.837942 348.754608 
L 1268.904014 348.157188 
L 1269.970086 349.425859 
L 1271.036159 349.591813 
L 1272.102231 348.685799 
L 1273.168303 351.089088 
L 1274.234375 351.422251 
L 1275.300448 348.588361 
L 1276.36652 348.862763 
L 1278.498665 350.777357 
L 1279.564737 350.199293 
L 1280.630809 352.393166 
L 1281.696881 352.324282 
L 1282.762954 349.960136 
L 1283.829026 350.13203 
L 1284.895098 350.963589 
L 1285.961171 351.038365 
L 1287.027243 350.734039 
L 1288.093315 351.943715 
L 1289.159387 351.698538 
L 1290.22546 350.059423 
L 1291.291532 350.713982 
L 1292.357604 350.902175 
L 1293.423677 351.327709 
L 1294.489749 351.142885 
L 1295.555821 351.87225 
L 1296.621893 351.679102 
L 1297.687966 350.499276 
L 1299.82011 350.477519 
L 1300.886183 350.51003 
L 1301.952255 351.296812 
L 1303.018327 350.624092 
L 1304.084399 350.862972 
L 1305.150472 349.9688 
L 1306.216544 350.611934 
L 1307.282616 350.353336 
L 1308.348689 350.532556 
L 1309.414761 350.436193 
L 1309.414761 350.436193 
" clip-path="url(#pbf7efaeb87)" style="fill: none; stroke: #ffa500; stroke-width: 1.5; stroke-linecap: square"/>
   </g>
   <g id="line2d_21">
    <path d="M 1310.480833 350.476412 
L 1311.546905 350.653177 
L 1312.612978 348.943592 
L 1313.67905 349.375705 
L 1314.745122 349.531219 
L 1315.811194 349.387283 
L 1316.877267 349.451885 
L 1317.943339 349.864286 
L 1319.009411 350.03668 
L 1320.075484 348.518411 
L 1321.141556 348.906244 
L 1322.207628 349.042348 
L 1323.2737 348.911099 
L 1324.339773 348.970922 
" clip-path="url(#pbf7efaeb87)" style="fill: none; stroke: #ff0000; stroke-width: 1.5; stroke-linecap: square"/>
   </g>
   <g id="patch_3">
    <path d="M 46.0125 368.3955 
L 46.0125 35.7555 
" style="fill: none; stroke: #000000; stroke-width: 0.8; stroke-linejoin: miter; stroke-linecap: square"/>
   </g>
   <g id="patch_4">
    <path d="M 1385.2125 368.3955 
L 1385.2125 35.7555 
" style="fill: none; stroke: #000000; stroke-width: 0.8; stroke-linejoin: miter; stroke-linecap: square"/>
   </g>
   <g id="patch_5">
    <path d="M 46.0125 368.3955 
L 1385.2125 368.3955 
" style="fill: none; stroke: #000000; stroke-width: 0.8; stroke-linejoin: miter; stroke-linecap: square"/>
   </g>
   <g id="patch_6">
    <path d="M 46.0125 35.7555 
L 1385.2125 35.7555 
" style="fill: none; stroke: #000000; stroke-width: 0.8; stroke-linejoin: miter; stroke-linecap: square"/>
   </g>
   <g id="text_19">
    <!-- Daily Confirmed Cases Forecasting - Bulgaria -->
    <g transform="translate(580.23 16.318125)scale(0.12 -0.12)">
     <defs>
      <path id="DejaVuSans-44" d="M 1259 4147 
L 1259 519 
L 2022 519 
Q 2988 519 3436 956 
Q 3884 1394 3884 2338 
Q 3884 3275 3436 3711 
Q 2988 4147 2022 4147 
L 1259 4147 
z
M 628 4666 
L 1925 4666 
Q 3281 4666 3915 4102 
Q 4550 3538 4550 2338 
Q 4550 1131 3912 565 
Q 3275 0 1925 0 
L 628 0 
L 628 4666 
z
" transform="scale(0.015625)"/>
      <path id="DejaVuSans-61" d="M 2194 1759 
Q 1497 1759 1228 1600 
Q 959 1441 959 1056 
Q 959 750 1161 570 
Q 1363 391 1709 391 
Q 2188 391 2477 730 
Q 2766 1069 2766 1631 
L 2766 1759 
L 2194 1759 
z
M 3341 1997 
L 3341 0 
L 2766 0 
L 2766 531 
Q 2569 213 2275 61 
Q 1981 -91 1556 -91 
Q 1019 -91 701 211 
Q 384 513 384 1019 
Q 384 1609 779 1909 
Q 1175 2209 1959 2209 
L 2766 2209 
L 2766 2266 
Q 2766 2663 2505 2880 
Q 2244 3097 1772 3097 
Q 1472 3097 1187 3025 
Q 903 2953 641 2809 
L 641 3341 
Q 956 3463 1253 3523 
Q 1550 3584 1831 3584 
Q 2591 3584 2966 3190 
Q 3341 2797 3341 1997 
z
" transform="scale(0.015625)"/>
      <path id="DejaVuSans-69" d="M 603 3500 
L 1178 3500 
L 1178 0 
L 603 0 
L 603 3500 
z
M 603 4863 
L 1178 4863 
L 1178 4134 
L 603 4134 
L 603 4863 
z
" transform="scale(0.015625)"/>
      <path id="DejaVuSans-6c" d="M 603 4863 
L 1178 4863 
L 1178 0 
L 603 0 
L 603 4863 
z
" transform="scale(0.015625)"/>
      <path id="DejaVuSans-79" d="M 2059 -325 
Q 1816 -950 1584 -1140 
Q 1353 -1331 966 -1331 
L 506 -1331 
L 506 -850 
L 844 -850 
Q 1081 -850 1212 -737 
Q 1344 -625 1503 -206 
L 1606 56 
L 191 3500 
L 800 3500 
L 1894 763 
L 2988 3500 
L 3597 3500 
L 2059 -325 
z
" transform="scale(0.015625)"/>
      <path id="DejaVuSans-20" transform="scale(0.015625)"/>
      <path id="DejaVuSans-43" d="M 4122 4306 
L 4122 3641 
Q 3803 3938 3442 4084 
Q 3081 4231 2675 4231 
Q 1875 4231 1450 3742 
Q 1025 3253 1025 2328 
Q 1025 1406 1450 917 
Q 1875 428 2675 428 
Q 3081 428 3442 575 
Q 3803 722 4122 1019 
L 4122 359 
Q 3791 134 3420 21 
Q 3050 -91 2638 -91 
Q 1578 -91 968 557 
Q 359 1206 359 2328 
Q 359 3453 968 4101 
Q 1578 4750 2638 4750 
Q 3056 4750 3426 4639 
Q 3797 4528 4122 4306 
z
" transform="scale(0.015625)"/>
      <path id="DejaVuSans-6f" d="M 1959 3097 
Q 1497 3097 1228 2736 
Q 959 2375 959 1747 
Q 959 1119 1226 758 
Q 1494 397 1959 397 
Q 2419 397 2687 759 
Q 2956 1122 2956 1747 
Q 2956 2369 2687 2733 
Q 2419 3097 1959 3097 
z
M 1959 3584 
Q 2709 3584 3137 3096 
Q 3566 2609 3566 1747 
Q 3566 888 3137 398 
Q 2709 -91 1959 -91 
Q 1206 -91 779 398 
Q 353 888 353 1747 
Q 353 2609 779 3096 
Q 1206 3584 1959 3584 
z
" transform="scale(0.015625)"/>
      <path id="DejaVuSans-6e" d="M 3513 2113 
L 3513 0 
L 2938 0 
L 2938 2094 
Q 2938 2591 2744 2837 
Q 2550 3084 2163 3084 
Q 1697 3084 1428 2787 
Q 1159 2491 1159 1978 
L 1159 0 
L 581 0 
L 581 3500 
L 1159 3500 
L 1159 2956 
Q 1366 3272 1645 3428 
Q 1925 3584 2291 3584 
Q 2894 3584 3203 3211 
Q 3513 2838 3513 2113 
z
" transform="scale(0.015625)"/>
      <path id="DejaVuSans-66" d="M 2375 4863 
L 2375 4384 
L 1825 4384 
Q 1516 4384 1395 4259 
Q 1275 4134 1275 3809 
L 1275 3500 
L 2222 3500 
L 2222 3053 
L 1275 3053 
L 1275 0 
L 697 0 
L 697 3053 
L 147 3053 
L 147 3500 
L 697 3500 
L 697 3744 
Q 697 4328 969 4595 
Q 1241 4863 1831 4863 
L 2375 4863 
z
" transform="scale(0.015625)"/>
      <path id="DejaVuSans-72" d="M 2631 2963 
Q 2534 3019 2420 3045 
Q 2306 3072 2169 3072 
Q 1681 3072 1420 2755 
Q 1159 2438 1159 1844 
L 1159 0 
L 581 0 
L 581 3500 
L 1159 3500 
L 1159 2956 
Q 1341 3275 1631 3429 
Q 1922 3584 2338 3584 
Q 2397 3584 2469 3576 
Q 2541 3569 2628 3553 
L 2631 2963 
z
" transform="scale(0.015625)"/>
      <path id="DejaVuSans-6d" d="M 3328 2828 
Q 3544 3216 3844 3400 
Q 4144 3584 4550 3584 
Q 5097 3584 5394 3201 
Q 5691 2819 5691 2113 
L 5691 0 
L 5113 0 
L 5113 2094 
Q 5113 2597 4934 2840 
Q 4756 3084 4391 3084 
Q 3944 3084 3684 2787 
Q 3425 2491 3425 1978 
L 3425 0 
L 2847 0 
L 2847 2094 
Q 2847 2600 2669 2842 
Q 2491 3084 2119 3084 
Q 1678 3084 1418 2786 
Q 1159 2488 1159 1978 
L 1159 0 
L 581 0 
L 581 3500 
L 1159 3500 
L 1159 2956 
Q 1356 3278 1631 3431 
Q 1906 3584 2284 3584 
Q 2666 3584 2933 3390 
Q 3200 3197 3328 2828 
z
" transform="scale(0.015625)"/>
      <path id="DejaVuSans-65" d="M 3597 1894 
L 3597 1613 
L 953 1613 
Q 991 1019 1311 708 
Q 1631 397 2203 397 
Q 2534 397 2845 478 
Q 3156 559 3463 722 
L 3463 178 
Q 3153 47 2828 -22 
Q 2503 -91 2169 -91 
Q 1331 -91 842 396 
Q 353 884 353 1716 
Q 353 2575 817 3079 
Q 1281 3584 2069 3584 
Q 2775 3584 3186 3129 
Q 3597 2675 3597 1894 
z
M 3022 2063 
Q 3016 2534 2758 2815 
Q 2500 3097 2075 3097 
Q 1594 3097 1305 2825 
Q 1016 2553 972 2059 
L 3022 2063 
z
" transform="scale(0.015625)"/>
      <path id="DejaVuSans-64" d="M 2906 2969 
L 2906 4863 
L 3481 4863 
L 3481 0 
L 2906 0 
L 2906 525 
Q 2725 213 2448 61 
Q 2172 -91 1784 -91 
Q 1150 -91 751 415 
Q 353 922 353 1747 
Q 353 2572 751 3078 
Q 1150 3584 1784 3584 
Q 2172 3584 2448 3432 
Q 2725 3281 2906 2969 
z
M 947 1747 
Q 947 1113 1208 752 
Q 1469 391 1925 391 
Q 2381 391 2643 752 
Q 2906 1113 2906 1747 
Q 2906 2381 2643 2742 
Q 2381 3103 1925 3103 
Q 1469 3103 1208 2742 
Q 947 2381 947 1747 
z
" transform="scale(0.015625)"/>
      <path id="DejaVuSans-73" d="M 2834 3397 
L 2834 2853 
Q 2591 2978 2328 3040 
Q 2066 3103 1784 3103 
Q 1356 3103 1142 2972 
Q 928 2841 928 2578 
Q 928 2378 1081 2264 
Q 1234 2150 1697 2047 
L 1894 2003 
Q 2506 1872 2764 1633 
Q 3022 1394 3022 966 
Q 3022 478 2636 193 
Q 2250 -91 1575 -91 
Q 1294 -91 989 -36 
Q 684 19 347 128 
L 347 722 
Q 666 556 975 473 
Q 1284 391 1588 391 
Q 1994 391 2212 530 
Q 2431 669 2431 922 
Q 2431 1156 2273 1281 
Q 2116 1406 1581 1522 
L 1381 1569 
Q 847 1681 609 1914 
Q 372 2147 372 2553 
Q 372 3047 722 3315 
Q 1072 3584 1716 3584 
Q 2034 3584 2315 3537 
Q 2597 3491 2834 3397 
z
" transform="scale(0.015625)"/>
      <path id="DejaVuSans-46" d="M 628 4666 
L 3309 4666 
L 3309 4134 
L 1259 4134 
L 1259 2759 
L 3109 2759 
L 3109 2228 
L 1259 2228 
L 1259 0 
L 628 0 
L 628 4666 
z
" transform="scale(0.015625)"/>
      <path id="DejaVuSans-63" d="M 3122 3366 
L 3122 2828 
Q 2878 2963 2633 3030 
Q 2388 3097 2138 3097 
Q 1578 3097 1268 2742 
Q 959 2388 959 1747 
Q 959 1106 1268 751 
Q 1578 397 2138 397 
Q 2388 397 2633 464 
Q 2878 531 3122 666 
L 3122 134 
Q 2881 22 2623 -34 
Q 2366 -91 2075 -91 
Q 1284 -91 818 406 
Q 353 903 353 1747 
Q 353 2603 823 3093 
Q 1294 3584 2113 3584 
Q 2378 3584 2631 3529 
Q 2884 3475 3122 3366 
z
" transform="scale(0.015625)"/>
      <path id="DejaVuSans-74" d="M 1172 4494 
L 1172 3500 
L 2356 3500 
L 2356 3053 
L 1172 3053 
L 1172 1153 
Q 1172 725 1289 603 
Q 1406 481 1766 481 
L 2356 481 
L 2356 0 
L 1766 0 
Q 1100 0 847 248 
Q 594 497 594 1153 
L 594 3053 
L 172 3053 
L 172 3500 
L 594 3500 
L 594 4494 
L 1172 4494 
z
" transform="scale(0.015625)"/>
      <path id="DejaVuSans-67" d="M 2906 1791 
Q 2906 2416 2648 2759 
Q 2391 3103 1925 3103 
Q 1463 3103 1205 2759 
Q 947 2416 947 1791 
Q 947 1169 1205 825 
Q 1463 481 1925 481 
Q 2391 481 2648 825 
Q 2906 1169 2906 1791 
z
M 3481 434 
Q 3481 -459 3084 -895 
Q 2688 -1331 1869 -1331 
Q 1566 -1331 1297 -1286 
Q 1028 -1241 775 -1147 
L 775 -588 
Q 1028 -725 1275 -790 
Q 1522 -856 1778 -856 
Q 2344 -856 2625 -561 
Q 2906 -266 2906 331 
L 2906 616 
Q 2728 306 2450 153 
Q 2172 0 1784 0 
Q 1141 0 747 490 
Q 353 981 353 1791 
Q 353 2603 747 3093 
Q 1141 3584 1784 3584 
Q 2172 3584 2450 3431 
Q 2728 3278 2906 2969 
L 2906 3500 
L 3481 3500 
L 3481 434 
z
" transform="scale(0.015625)"/>
      <path id="DejaVuSans-42" d="M 1259 2228 
L 1259 519 
L 2272 519 
Q 2781 519 3026 730 
Q 3272 941 3272 1375 
Q 3272 1813 3026 2020 
Q 2781 2228 2272 2228 
L 1259 2228 
z
M 1259 4147 
L 1259 2741 
L 2194 2741 
Q 2656 2741 2882 2914 
Q 3109 3088 3109 3444 
Q 3109 3797 2882 3972 
Q 2656 4147 2194 4147 
L 1259 4147 
z
M 628 4666 
L 2241 4666 
Q 2963 4666 3353 4366 
Q 3744 4066 3744 3513 
Q 3744 3084 3544 2831 
Q 3344 2578 2956 2516 
Q 3422 2416 3680 2098 
Q 3938 1781 3938 1306 
Q 3938 681 3513 340 
Q 3088 0 2303 0 
L 628 0 
L 628 4666 
z
" transform="scale(0.015625)"/>
      <path id="DejaVuSans-75" d="M 544 1381 
L 544 3500 
L 1119 3500 
L 1119 1403 
Q 1119 906 1312 657 
Q 1506 409 1894 409 
Q 2359 409 2629 706 
Q 2900 1003 2900 1516 
L 2900 3500 
L 3475 3500 
L 3475 0 
L 2900 0 
L 2900 538 
Q 2691 219 2414 64 
Q 2138 -91 1772 -91 
Q 1169 -91 856 284 
Q 544 659 544 1381 
z
M 1991 3584 
L 1991 3584 
z
" transform="scale(0.015625)"/>
     </defs>
     <use xlink:href="#DejaVuSans-44"/>
     <use xlink:href="#DejaVuSans-61" x="77.001953"/>
     <use xlink:href="#DejaVuSans-69" x="138.28125"/>
     <use xlink:href="#DejaVuSans-6c" x="166.064453"/>
     <use xlink:href="#DejaVuSans-79" x="193.847656"/>
     <use xlink:href="#DejaVuSans-20" x="253.027344"/>
     <use xlink:href="#DejaVuSans-43" x="284.814453"/>
     <use xlink:href="#DejaVuSans-6f" x="354.638672"/>
     <use xlink:href="#DejaVuSans-6e" x="415.820312"/>
     <use xlink:href="#DejaVuSans-66" x="479.199219"/>
     <use xlink:href="#DejaVuSans-69" x="514.404297"/>
     <use xlink:href="#DejaVuSans-72" x="542.1875"/>
     <use xlink:href="#DejaVuSans-6d" x="581.550781"/>
     <use xlink:href="#DejaVuSans-65" x="678.962891"/>
     <use xlink:href="#DejaVuSans-64" x="740.486328"/>
     <use xlink:href="#DejaVuSans-20" x="803.962891"/>
     <use xlink:href="#DejaVuSans-43" x="835.75"/>
     <use xlink:href="#DejaVuSans-61" x="905.574219"/>
     <use xlink:href="#DejaVuSans-73" x="966.853516"/>
     <use xlink:href="#DejaVuSans-65" x="1018.953125"/>
     <use xlink:href="#DejaVuSans-73" x="1080.476562"/>
     <use xlink:href="#DejaVuSans-20" x="1132.576172"/>
     <use xlink:href="#DejaVuSans-46" x="1164.363281"/>
     <use xlink:href="#DejaVuSans-6f" x="1218.257812"/>
     <use xlink:href="#DejaVuSans-72" x="1279.439453"/>
     <use xlink:href="#DejaVuSans-65" x="1318.302734"/>
     <use xlink:href="#DejaVuSans-63" x="1379.826172"/>
     <use xlink:href="#DejaVuSans-61" x="1434.806641"/>
     <use xlink:href="#DejaVuSans-73" x="1496.085938"/>
     <use xlink:href="#DejaVuSans-74" x="1548.185547"/>
     <use xlink:href="#DejaVuSans-69" x="1587.394531"/>
     <use xlink:href="#DejaVuSans-6e" x="1615.177734"/>
     <use xlink:href="#DejaVuSans-67" x="1678.556641"/>
     <use xlink:href="#DejaVuSans-20" x="1742.033203"/>
     <use xlink:href="#DejaVuSans-2d" x="1773.820312"/>
     <use xlink:href="#DejaVuSans-20" x="1809.904297"/>
     <use xlink:href="#DejaVuSans-42" x="1841.691406"/>
     <use xlink:href="#DejaVuSans-75" x="1910.294922"/>
     <use xlink:href="#DejaVuSans-6c" x="1973.673828"/>
     <use xlink:href="#DejaVuSans-67" x="2001.457031"/>
     <use xlink:href="#DejaVuSans-61" x="2064.933594"/>
     <use xlink:href="#DejaVuSans-72" x="2126.212891"/>
     <use xlink:href="#DejaVuSans-69" x="2167.326172"/>
     <use xlink:href="#DejaVuSans-61" x="2195.109375"/>
    </g>
    <!-- ARIMA (4, 1, 0)x(1, 0, 1, 7) (R2 = 0.850289) -->
    <g transform="translate(583.628438 29.7555)scale(0.12 -0.12)">
     <defs>
      <path id="DejaVuSans-41" d="M 2188 4044 
L 1331 1722 
L 3047 1722 
L 2188 4044 
z
M 1831 4666 
L 2547 4666 
L 4325 0 
L 3669 0 
L 3244 1197 
L 1141 1197 
L 716 0 
L 50 0 
L 1831 4666 
z
" transform="scale(0.015625)"/>
      <path id="DejaVuSans-52" d="M 2841 2188 
Q 3044 2119 3236 1894 
Q 3428 1669 3622 1275 
L 4263 0 
L 3584 0 
L 2988 1197 
Q 2756 1666 2539 1819 
Q 2322 1972 1947 1972 
L 1259 1972 
L 1259 0 
L 628 0 
L 628 4666 
L 2053 4666 
Q 2853 4666 3247 4331 
Q 3641 3997 3641 3322 
Q 3641 2881 3436 2590 
Q 3231 2300 2841 2188 
z
M 1259 4147 
L 1259 2491 
L 2053 2491 
Q 2509 2491 2742 2702 
Q 2975 2913 2975 3322 
Q 2975 3731 2742 3939 
Q 2509 4147 2053 4147 
L 1259 4147 
z
" transform="scale(0.015625)"/>
      <path id="DejaVuSans-49" d="M 628 4666 
L 1259 4666 
L 1259 0 
L 628 0 
L 628 4666 
z
" transform="scale(0.015625)"/>
      <path id="DejaVuSans-4d" d="M 628 4666 
L 1569 4666 
L 2759 1491 
L 3956 4666 
L 4897 4666 
L 4897 0 
L 4281 0 
L 4281 4097 
L 3078 897 
L 2444 897 
L 1241 4097 
L 1241 0 
L 628 0 
L 628 4666 
z
" transform="scale(0.015625)"/>
      <path id="DejaVuSans-28" d="M 1984 4856 
Q 1566 4138 1362 3434 
Q 1159 2731 1159 2009 
Q 1159 1288 1364 580 
Q 1569 -128 1984 -844 
L 1484 -844 
Q 1016 -109 783 600 
Q 550 1309 550 2009 
Q 550 2706 781 3412 
Q 1013 4119 1484 4856 
L 1984 4856 
z
" transform="scale(0.015625)"/>
      <path id="DejaVuSans-2c" d="M 750 794 
L 1409 794 
L 1409 256 
L 897 -744 
L 494 -744 
L 750 256 
L 750 794 
z
" transform="scale(0.015625)"/>
      <path id="DejaVuSans-29" d="M 513 4856 
L 1013 4856 
Q 1481 4119 1714 3412 
Q 1947 2706 1947 2009 
Q 1947 1309 1714 600 
Q 1481 -109 1013 -844 
L 513 -844 
Q 928 -128 1133 580 
Q 1338 1288 1338 2009 
Q 1338 2731 1133 3434 
Q 928 4138 513 4856 
z
" transform="scale(0.015625)"/>
      <path id="DejaVuSans-78" d="M 3513 3500 
L 2247 1797 
L 3578 0 
L 2900 0 
L 1881 1375 
L 863 0 
L 184 0 
L 1544 1831 
L 300 3500 
L 978 3500 
L 1906 2253 
L 2834 3500 
L 3513 3500 
z
" transform="scale(0.015625)"/>
      <path id="DejaVuSans-37" d="M 525 4666 
L 3525 4666 
L 3525 4397 
L 1831 0 
L 1172 0 
L 2766 4134 
L 525 4134 
L 525 4666 
z
" transform="scale(0.015625)"/>
      <path id="DejaVuSans-3d" d="M 678 2906 
L 4684 2906 
L 4684 2381 
L 678 2381 
L 678 2906 
z
M 678 1631 
L 4684 1631 
L 4684 1100 
L 678 1100 
L 678 1631 
z
" transform="scale(0.015625)"/>
      <path id="DejaVuSans-2e" d="M 684 794 
L 1344 794 
L 1344 0 
L 684 0 
L 684 794 
z
" transform="scale(0.015625)"/>
     </defs>
     <use xlink:href="#DejaVuSans-41"/>
     <use xlink:href="#DejaVuSans-52" x="68.408203"/>
     <use xlink:href="#DejaVuSans-49" x="137.890625"/>
     <use xlink:href="#DejaVuSans-4d" x="167.382812"/>
     <use xlink:href="#DejaVuSans-41" x="253.662109"/>
     <use xlink:href="#DejaVuSans-20" x="322.070312"/>
     <use xlink:href="#DejaVuSans-28" x="353.857422"/>
     <use xlink:href="#DejaVuSans-34" x="392.871094"/>
     <use xlink:href="#DejaVuSans-2c" x="456.494141"/>
     <use xlink:href="#DejaVuSans-20" x="488.28125"/>
     <use xlink:href="#DejaVuSans-31" x="520.068359"/>
     <use xlink:href="#DejaVuSans-2c" x="583.691406"/>
     <use xlink:href="#DejaVuSans-20" x="615.478516"/>
     <use xlink:href="#DejaVuSans-30" x="647.265625"/>
     <use xlink:href="#DejaVuSans-29" x="710.888672"/>
     <use xlink:href="#DejaVuSans-78" x="749.902344"/>
     <use xlink:href="#DejaVuSans-28" x="809.082031"/>
     <use xlink:href="#DejaVuSans-31" x="848.095703"/>
     <use xlink:href="#DejaVuSans-2c" x="911.71875"/>
     <use xlink:href="#DejaVuSans-20" x="943.505859"/>
     <use xlink:href="#DejaVuSans-30" x="975.292969"/>
     <use xlink:href="#DejaVuSans-2c" x="1038.916016"/>
     <use xlink:href="#DejaVuSans-20" x="1070.703125"/>
     <use xlink:href="#DejaVuSans-31" x="1102.490234"/>
     <use xlink:href="#DejaVuSans-2c" x="1166.113281"/>
     <use xlink:href="#DejaVuSans-20" x="1197.900391"/>
     <use xlink:href="#DejaVuSans-37" x="1229.6875"/>
     <use xlink:href="#DejaVuSans-29" x="1293.310547"/>
     <use xlink:href="#DejaVuSans-20" x="1332.324219"/>
     <use xlink:href="#DejaVuSans-28" x="1364.111328"/>
     <use xlink:href="#DejaVuSans-52" x="1403.125"/>
     <use xlink:href="#DejaVuSans-32" x="1472.607422"/>
     <use xlink:href="#DejaVuSans-20" x="1536.230469"/>
     <use xlink:href="#DejaVuSans-3d" x="1568.017578"/>
     <use xlink:href="#DejaVuSans-20" x="1651.806641"/>
     <use xlink:href="#DejaVuSans-30" x="1683.59375"/>
     <use xlink:href="#DejaVuSans-2e" x="1747.216797"/>
     <use xlink:href="#DejaVuSans-38" x="1779.003906"/>
     <use xlink:href="#DejaVuSans-35" x="1842.626953"/>
     <use xlink:href="#DejaVuSans-30" x="1906.25"/>
     <use xlink:href="#DejaVuSans-32" x="1969.873047"/>
     <use xlink:href="#DejaVuSans-38" x="2033.496094"/>
     <use xlink:href="#DejaVuSans-39" x="2097.119141"/>
     <use xlink:href="#DejaVuSans-29" x="2160.742188"/>
    </g>
   </g>
   <g id="legend_1">
    <g id="patch_7">
     <path d="M 1281.132812 87.789875 
L 1378.2125 87.789875 
Q 1380.2125 87.789875 1380.2125 85.789875 
L 1380.2125 42.7555 
Q 1380.2125 40.7555 1378.2125 40.7555 
L 1281.132812 40.7555 
Q 1279.132812 40.7555 1279.132812 42.7555 
L 1279.132812 85.789875 
Q 1279.132812 87.789875 1281.132812 87.789875 
z
" style="fill: #ffffff; opacity: 0.8; stroke: #cccccc; stroke-linejoin: miter"/>
    </g>
    <g id="line2d_22">
     <path d="M 1283.132812 48.853937 
L 1293.132812 48.853937 
L 1303.132812 48.853937 
" style="fill: none; stroke: #0000ff; stroke-width: 1.5; stroke-linecap: square"/>
    </g>
    <g id="text_20">
     <!-- Actual Value -->
     <g transform="translate(1311.132812 52.353937)scale(0.1 -0.1)">
      <defs>
       <path id="DejaVuSans-56" d="M 1831 0 
L 50 4666 
L 709 4666 
L 2188 738 
L 3669 4666 
L 4325 4666 
L 2547 0 
L 1831 0 
z
" transform="scale(0.015625)"/>
      </defs>
      <use xlink:href="#DejaVuSans-41"/>
      <use xlink:href="#DejaVuSans-63" x="66.658203"/>
      <use xlink:href="#DejaVuSans-74" x="121.638672"/>
      <use xlink:href="#DejaVuSans-75" x="160.847656"/>
      <use xlink:href="#DejaVuSans-61" x="224.226562"/>
      <use xlink:href="#DejaVuSans-6c" x="285.505859"/>
      <use xlink:href="#DejaVuSans-20" x="313.289062"/>
      <use xlink:href="#DejaVuSans-56" x="345.076172"/>
      <use xlink:href="#DejaVuSans-61" x="405.734375"/>
      <use xlink:href="#DejaVuSans-6c" x="467.013672"/>
      <use xlink:href="#DejaVuSans-75" x="494.796875"/>
      <use xlink:href="#DejaVuSans-65" x="558.175781"/>
     </g>
    </g>
    <g id="line2d_23">
     <path d="M 1283.132812 63.532062 
L 1293.132812 63.532062 
L 1303.132812 63.532062 
" style="fill: none; stroke: #ffa500; stroke-width: 1.5; stroke-linecap: square"/>
    </g>
    <g id="text_21">
     <!-- Check Value -->
     <g transform="translate(1311.132812 67.032062)scale(0.1 -0.1)">
      <defs>
       <path id="DejaVuSans-68" d="M 3513 2113 
L 3513 0 
L 2938 0 
L 2938 2094 
Q 2938 2591 2744 2837 
Q 2550 3084 2163 3084 
Q 1697 3084 1428 2787 
Q 1159 2491 1159 1978 
L 1159 0 
L 581 0 
L 581 4863 
L 1159 4863 
L 1159 2956 
Q 1366 3272 1645 3428 
Q 1925 3584 2291 3584 
Q 2894 3584 3203 3211 
Q 3513 2838 3513 2113 
z
" transform="scale(0.015625)"/>
       <path id="DejaVuSans-6b" d="M 581 4863 
L 1159 4863 
L 1159 1991 
L 2875 3500 
L 3609 3500 
L 1753 1863 
L 3688 0 
L 2938 0 
L 1159 1709 
L 1159 0 
L 581 0 
L 581 4863 
z
" transform="scale(0.015625)"/>
      </defs>
      <use xlink:href="#DejaVuSans-43"/>
      <use xlink:href="#DejaVuSans-68" x="69.824219"/>
      <use xlink:href="#DejaVuSans-65" x="133.203125"/>
      <use xlink:href="#DejaVuSans-63" x="194.726562"/>
      <use xlink:href="#DejaVuSans-6b" x="249.707031"/>
      <use xlink:href="#DejaVuSans-20" x="307.617188"/>
      <use xlink:href="#DejaVuSans-56" x="339.404297"/>
      <use xlink:href="#DejaVuSans-61" x="400.0625"/>
      <use xlink:href="#DejaVuSans-6c" x="461.341797"/>
      <use xlink:href="#DejaVuSans-75" x="489.125"/>
      <use xlink:href="#DejaVuSans-65" x="552.503906"/>
     </g>
    </g>
    <g id="line2d_24">
     <path d="M 1283.132812 78.210187 
L 1293.132812 78.210187 
L 1303.132812 78.210187 
" style="fill: none; stroke: #ff0000; stroke-width: 1.5; stroke-linecap: square"/>
    </g>
    <g id="text_22">
     <!-- Predict Value -->
     <g transform="translate(1311.132812 81.710187)scale(0.1 -0.1)">
      <defs>
       <path id="DejaVuSans-50" d="M 1259 4147 
L 1259 2394 
L 2053 2394 
Q 2494 2394 2734 2622 
Q 2975 2850 2975 3272 
Q 2975 3691 2734 3919 
Q 2494 4147 2053 4147 
L 1259 4147 
z
M 628 4666 
L 2053 4666 
Q 2838 4666 3239 4311 
Q 3641 3956 3641 3272 
Q 3641 2581 3239 2228 
Q 2838 1875 2053 1875 
L 1259 1875 
L 1259 0 
L 628 0 
L 628 4666 
z
" transform="scale(0.015625)"/>
      </defs>
      <use xlink:href="#DejaVuSans-50"/>
      <use xlink:href="#DejaVuSans-72" x="58.552734"/>
      <use xlink:href="#DejaVuSans-65" x="97.416016"/>
      <use xlink:href="#DejaVuSans-64" x="158.939453"/>
      <use xlink:href="#DejaVuSans-69" x="222.416016"/>
      <use xlink:href="#DejaVuSans-63" x="250.199219"/>
      <use xlink:href="#DejaVuSans-74" x="305.179688"/>
      <use xlink:href="#DejaVuSans-20" x="344.388672"/>
      <use xlink:href="#DejaVuSans-56" x="376.175781"/>
      <use xlink:href="#DejaVuSans-61" x="436.833984"/>
      <use xlink:href="#DejaVuSans-6c" x="498.113281"/>
      <use xlink:href="#DejaVuSans-75" x="525.896484"/>
      <use xlink:href="#DejaVuSans-65" x="589.275391"/>
     </g>
    </g>
   </g>
  </g>
 </g>
 <defs>
  <clipPath id="pbf7efaeb87">
   <rect x="46.0125" y="35.7555" width="1339.2" height="332.64"/>
  </clipPath>
 </defs>
</svg>
