<?xml version="1.0" encoding="utf-8" standalone="no"?>
<!DOCTYPE svg PUBLIC "-//W3C//DTD SVG 1.1//EN"
  "http://www.w3.org/Graphics/SVG/1.1/DTD/svg11.dtd">
<svg xmlns:xlink="http://www.w3.org/1999/xlink" width="1394.389721pt" height="392.273625pt" viewBox="0 0 1394.389721 392.273625" xmlns="http://www.w3.org/2000/svg" version="1.1">
 <metadata>
  <rdf:RDF xmlns:dc="http://purl.org/dc/elements/1.1/" xmlns:cc="http://creativecommons.org/ns#" xmlns:rdf="http://www.w3.org/1999/02/22-rdf-syntax-ns#">
   <cc:Work>
    <dc:type rdf:resource="http://purl.org/dc/dcmitype/StillImage"/>
    <dc:date>2022-11-08T19:37:19.133048</dc:date>
    <dc:format>image/svg+xml</dc:format>
    <dc:creator>
     <cc:Agent>
      <dc:title>Matplotlib v3.5.1, https://matplotlib.org/</dc:title>
     </cc:Agent>
    </dc:creator>
   </cc:Work>
  </rdf:RDF>
 </metadata>
 <defs>
  <style type="text/css">*{stroke-linejoin: round; stroke-linecap: butt}</style>
 </defs>
 <g id="figure_1">
  <g id="patch_1">
   <path d="M 0 392.273625 
L 1394.389721 392.273625 
L 1394.389721 0 
L 0 0 
z
" style="fill: #ffffff"/>
  </g>
  <g id="axes_1">
   <g id="patch_2">
    <path d="M 39.65 368.3955 
L 1378.85 368.3955 
L 1378.85 35.7555 
L 39.65 35.7555 
z
" style="fill: #ffffff"/>
   </g>
   <g id="matplotlib.axis_1">
    <g id="xtick_1">
     <g id="line2d_1">
      <defs>
       <path id="m5f5f27cff4" d="M 0 0 
L 0 3.5 
" style="stroke: #000000; stroke-width: 0.8"/>
      </defs>
      <g>
       <use xlink:href="#m5f5f27cff4" x="74.594363" y="368.3955" style="stroke: #000000; stroke-width: 0.8"/>
      </g>
     </g>
     <g id="text_1">
      <!-- 2020-01 -->
      <g transform="translate(53.702957 382.993937)scale(0.1 -0.1)">
       <defs>
        <path id="DejaVuSans-32" d="M 1228 531 
L 3431 531 
L 3431 0 
L 469 0 
L 469 531 
Q 828 903 1448 1529 
Q 2069 2156 2228 2338 
Q 2531 2678 2651 2914 
Q 2772 3150 2772 3378 
Q 2772 3750 2511 3984 
Q 2250 4219 1831 4219 
Q 1534 4219 1204 4116 
Q 875 4013 500 3803 
L 500 4441 
Q 881 4594 1212 4672 
Q 1544 4750 1819 4750 
Q 2544 4750 2975 4387 
Q 3406 4025 3406 3419 
Q 3406 3131 3298 2873 
Q 3191 2616 2906 2266 
Q 2828 2175 2409 1742 
Q 1991 1309 1228 531 
z
" transform="scale(0.015625)"/>
        <path id="DejaVuSans-30" d="M 2034 4250 
Q 1547 4250 1301 3770 
Q 1056 3291 1056 2328 
Q 1056 1369 1301 889 
Q 1547 409 2034 409 
Q 2525 409 2770 889 
Q 3016 1369 3016 2328 
Q 3016 3291 2770 3770 
Q 2525 4250 2034 4250 
z
M 2034 4750 
Q 2819 4750 3233 4129 
Q 3647 3509 3647 2328 
Q 3647 1150 3233 529 
Q 2819 -91 2034 -91 
Q 1250 -91 836 529 
Q 422 1150 422 2328 
Q 422 3509 836 4129 
Q 1250 4750 2034 4750 
z
" transform="scale(0.015625)"/>
        <path id="DejaVuSans-2d" d="M 313 2009 
L 1997 2009 
L 1997 1497 
L 313 1497 
L 313 2009 
z
" transform="scale(0.015625)"/>
        <path id="DejaVuSans-31" d="M 794 531 
L 1825 531 
L 1825 4091 
L 703 3866 
L 703 4441 
L 1819 4666 
L 2450 4666 
L 2450 531 
L 3481 531 
L 3481 0 
L 794 0 
L 794 531 
z
" transform="scale(0.015625)"/>
       </defs>
       <use xlink:href="#DejaVuSans-32"/>
       <use xlink:href="#DejaVuSans-30" x="63.623047"/>
       <use xlink:href="#DejaVuSans-32" x="127.246094"/>
       <use xlink:href="#DejaVuSans-30" x="190.869141"/>
       <use xlink:href="#DejaVuSans-2d" x="254.492188"/>
       <use xlink:href="#DejaVuSans-30" x="290.576172"/>
       <use xlink:href="#DejaVuSans-31" x="354.199219"/>
      </g>
     </g>
    </g>
    <g id="xtick_2">
     <g id="line2d_2">
      <g>
       <use xlink:href="#m5f5f27cff4" x="217.200365" y="368.3955" style="stroke: #000000; stroke-width: 0.8"/>
      </g>
     </g>
     <g id="text_2">
      <!-- 2020-05 -->
      <g transform="translate(196.308959 382.993937)scale(0.1 -0.1)">
       <defs>
        <path id="DejaVuSans-35" d="M 691 4666 
L 3169 4666 
L 3169 4134 
L 1269 4134 
L 1269 2991 
Q 1406 3038 1543 3061 
Q 1681 3084 1819 3084 
Q 2600 3084 3056 2656 
Q 3513 2228 3513 1497 
Q 3513 744 3044 326 
Q 2575 -91 1722 -91 
Q 1428 -91 1123 -41 
Q 819 9 494 109 
L 494 744 
Q 775 591 1075 516 
Q 1375 441 1709 441 
Q 2250 441 2565 725 
Q 2881 1009 2881 1497 
Q 2881 1984 2565 2268 
Q 2250 2553 1709 2553 
Q 1456 2553 1204 2497 
Q 953 2441 691 2322 
L 691 4666 
z
" transform="scale(0.015625)"/>
       </defs>
       <use xlink:href="#DejaVuSans-32"/>
       <use xlink:href="#DejaVuSans-30" x="63.623047"/>
       <use xlink:href="#DejaVuSans-32" x="127.246094"/>
       <use xlink:href="#DejaVuSans-30" x="190.869141"/>
       <use xlink:href="#DejaVuSans-2d" x="254.492188"/>
       <use xlink:href="#DejaVuSans-30" x="290.576172"/>
       <use xlink:href="#DejaVuSans-35" x="354.199219"/>
      </g>
     </g>
    </g>
    <g id="xtick_3">
     <g id="line2d_3">
      <g>
       <use xlink:href="#m5f5f27cff4" x="362.163491" y="368.3955" style="stroke: #000000; stroke-width: 0.8"/>
      </g>
     </g>
     <g id="text_3">
      <!-- 2020-09 -->
      <g transform="translate(341.272085 382.993937)scale(0.1 -0.1)">
       <defs>
        <path id="DejaVuSans-39" d="M 703 97 
L 703 672 
Q 941 559 1184 500 
Q 1428 441 1663 441 
Q 2288 441 2617 861 
Q 2947 1281 2994 2138 
Q 2813 1869 2534 1725 
Q 2256 1581 1919 1581 
Q 1219 1581 811 2004 
Q 403 2428 403 3163 
Q 403 3881 828 4315 
Q 1253 4750 1959 4750 
Q 2769 4750 3195 4129 
Q 3622 3509 3622 2328 
Q 3622 1225 3098 567 
Q 2575 -91 1691 -91 
Q 1453 -91 1209 -44 
Q 966 3 703 97 
z
M 1959 2075 
Q 2384 2075 2632 2365 
Q 2881 2656 2881 3163 
Q 2881 3666 2632 3958 
Q 2384 4250 1959 4250 
Q 1534 4250 1286 3958 
Q 1038 3666 1038 3163 
Q 1038 2656 1286 2365 
Q 1534 2075 1959 2075 
z
" transform="scale(0.015625)"/>
       </defs>
       <use xlink:href="#DejaVuSans-32"/>
       <use xlink:href="#DejaVuSans-30" x="63.623047"/>
       <use xlink:href="#DejaVuSans-32" x="127.246094"/>
       <use xlink:href="#DejaVuSans-30" x="190.869141"/>
       <use xlink:href="#DejaVuSans-2d" x="254.492188"/>
       <use xlink:href="#DejaVuSans-30" x="290.576172"/>
       <use xlink:href="#DejaVuSans-39" x="354.199219"/>
      </g>
     </g>
    </g>
    <g id="xtick_4">
     <g id="line2d_4">
      <g>
       <use xlink:href="#m5f5f27cff4" x="505.948055" y="368.3955" style="stroke: #000000; stroke-width: 0.8"/>
      </g>
     </g>
     <g id="text_4">
      <!-- 2021-01 -->
      <g transform="translate(485.056649 382.993937)scale(0.1 -0.1)">
       <use xlink:href="#DejaVuSans-32"/>
       <use xlink:href="#DejaVuSans-30" x="63.623047"/>
       <use xlink:href="#DejaVuSans-32" x="127.246094"/>
       <use xlink:href="#DejaVuSans-31" x="190.869141"/>
       <use xlink:href="#DejaVuSans-2d" x="254.492188"/>
       <use xlink:href="#DejaVuSans-30" x="290.576172"/>
       <use xlink:href="#DejaVuSans-31" x="354.199219"/>
      </g>
     </g>
    </g>
    <g id="xtick_5">
     <g id="line2d_5">
      <g>
       <use xlink:href="#m5f5f27cff4" x="647.375495" y="368.3955" style="stroke: #000000; stroke-width: 0.8"/>
      </g>
     </g>
     <g id="text_5">
      <!-- 2021-05 -->
      <g transform="translate(626.484089 382.993937)scale(0.1 -0.1)">
       <use xlink:href="#DejaVuSans-32"/>
       <use xlink:href="#DejaVuSans-30" x="63.623047"/>
       <use xlink:href="#DejaVuSans-32" x="127.246094"/>
       <use xlink:href="#DejaVuSans-31" x="190.869141"/>
       <use xlink:href="#DejaVuSans-2d" x="254.492188"/>
       <use xlink:href="#DejaVuSans-30" x="290.576172"/>
       <use xlink:href="#DejaVuSans-35" x="354.199219"/>
      </g>
     </g>
    </g>
    <g id="xtick_6">
     <g id="line2d_6">
      <g>
       <use xlink:href="#m5f5f27cff4" x="792.338621" y="368.3955" style="stroke: #000000; stroke-width: 0.8"/>
      </g>
     </g>
     <g id="text_6">
      <!-- 2021-09 -->
      <g transform="translate(771.447215 382.993937)scale(0.1 -0.1)">
       <use xlink:href="#DejaVuSans-32"/>
       <use xlink:href="#DejaVuSans-30" x="63.623047"/>
       <use xlink:href="#DejaVuSans-32" x="127.246094"/>
       <use xlink:href="#DejaVuSans-31" x="190.869141"/>
       <use xlink:href="#DejaVuSans-2d" x="254.492188"/>
       <use xlink:href="#DejaVuSans-30" x="290.576172"/>
       <use xlink:href="#DejaVuSans-39" x="354.199219"/>
      </g>
     </g>
    </g>
    <g id="xtick_7">
     <g id="line2d_7">
      <g>
       <use xlink:href="#m5f5f27cff4" x="936.123185" y="368.3955" style="stroke: #000000; stroke-width: 0.8"/>
      </g>
     </g>
     <g id="text_7">
      <!-- 2022-01 -->
      <g transform="translate(915.231779 382.993937)scale(0.1 -0.1)">
       <use xlink:href="#DejaVuSans-32"/>
       <use xlink:href="#DejaVuSans-30" x="63.623047"/>
       <use xlink:href="#DejaVuSans-32" x="127.246094"/>
       <use xlink:href="#DejaVuSans-32" x="190.869141"/>
       <use xlink:href="#DejaVuSans-2d" x="254.492188"/>
       <use xlink:href="#DejaVuSans-30" x="290.576172"/>
       <use xlink:href="#DejaVuSans-31" x="354.199219"/>
      </g>
     </g>
    </g>
    <g id="xtick_8">
     <g id="line2d_8">
      <g>
       <use xlink:href="#m5f5f27cff4" x="1077.550625" y="368.3955" style="stroke: #000000; stroke-width: 0.8"/>
      </g>
     </g>
     <g id="text_8">
      <!-- 2022-05 -->
      <g transform="translate(1056.659219 382.993937)scale(0.1 -0.1)">
       <use xlink:href="#DejaVuSans-32"/>
       <use xlink:href="#DejaVuSans-30" x="63.623047"/>
       <use xlink:href="#DejaVuSans-32" x="127.246094"/>
       <use xlink:href="#DejaVuSans-32" x="190.869141"/>
       <use xlink:href="#DejaVuSans-2d" x="254.492188"/>
       <use xlink:href="#DejaVuSans-30" x="290.576172"/>
       <use xlink:href="#DejaVuSans-35" x="354.199219"/>
      </g>
     </g>
    </g>
    <g id="xtick_9">
     <g id="line2d_9">
      <g>
       <use xlink:href="#m5f5f27cff4" x="1222.513751" y="368.3955" style="stroke: #000000; stroke-width: 0.8"/>
      </g>
     </g>
     <g id="text_9">
      <!-- 2022-09 -->
      <g transform="translate(1201.622345 382.993937)scale(0.1 -0.1)">
       <use xlink:href="#DejaVuSans-32"/>
       <use xlink:href="#DejaVuSans-30" x="63.623047"/>
       <use xlink:href="#DejaVuSans-32" x="127.246094"/>
       <use xlink:href="#DejaVuSans-32" x="190.869141"/>
       <use xlink:href="#DejaVuSans-2d" x="254.492188"/>
       <use xlink:href="#DejaVuSans-30" x="290.576172"/>
       <use xlink:href="#DejaVuSans-39" x="354.199219"/>
      </g>
     </g>
    </g>
    <g id="xtick_10">
     <g id="line2d_10">
      <g>
       <use xlink:href="#m5f5f27cff4" x="1366.298315" y="368.3955" style="stroke: #000000; stroke-width: 0.8"/>
      </g>
     </g>
     <g id="text_10">
      <!-- 2023-01 -->
      <g transform="translate(1345.406908 382.993937)scale(0.1 -0.1)">
       <defs>
        <path id="DejaVuSans-33" d="M 2597 2516 
Q 3050 2419 3304 2112 
Q 3559 1806 3559 1356 
Q 3559 666 3084 287 
Q 2609 -91 1734 -91 
Q 1441 -91 1130 -33 
Q 819 25 488 141 
L 488 750 
Q 750 597 1062 519 
Q 1375 441 1716 441 
Q 2309 441 2620 675 
Q 2931 909 2931 1356 
Q 2931 1769 2642 2001 
Q 2353 2234 1838 2234 
L 1294 2234 
L 1294 2753 
L 1863 2753 
Q 2328 2753 2575 2939 
Q 2822 3125 2822 3475 
Q 2822 3834 2567 4026 
Q 2313 4219 1838 4219 
Q 1578 4219 1281 4162 
Q 984 4106 628 3988 
L 628 4550 
Q 988 4650 1302 4700 
Q 1616 4750 1894 4750 
Q 2613 4750 3031 4423 
Q 3450 4097 3450 3541 
Q 3450 3153 3228 2886 
Q 3006 2619 2597 2516 
z
" transform="scale(0.015625)"/>
       </defs>
       <use xlink:href="#DejaVuSans-32"/>
       <use xlink:href="#DejaVuSans-30" x="63.623047"/>
       <use xlink:href="#DejaVuSans-32" x="127.246094"/>
       <use xlink:href="#DejaVuSans-33" x="190.869141"/>
       <use xlink:href="#DejaVuSans-2d" x="254.492188"/>
       <use xlink:href="#DejaVuSans-30" x="290.576172"/>
       <use xlink:href="#DejaVuSans-31" x="354.199219"/>
      </g>
     </g>
    </g>
   </g>
   <g id="matplotlib.axis_2">
    <g id="ytick_1">
     <g id="line2d_11">
      <defs>
       <path id="m759e30824c" d="M 0 0 
L -3.5 0 
" style="stroke: #000000; stroke-width: 0.8"/>
      </defs>
      <g>
       <use xlink:href="#m759e30824c" x="39.65" y="352.676094" style="stroke: #000000; stroke-width: 0.8"/>
      </g>
     </g>
     <g id="text_11">
      <!-- 0 -->
      <g transform="translate(26.2875 356.475312)scale(0.1 -0.1)">
       <use xlink:href="#DejaVuSans-30"/>
      </g>
     </g>
    </g>
    <g id="ytick_2">
     <g id="line2d_12">
      <g>
       <use xlink:href="#m759e30824c" x="39.65" y="309.684556" style="stroke: #000000; stroke-width: 0.8"/>
      </g>
     </g>
     <g id="text_12">
      <!-- 200 -->
      <g transform="translate(13.5625 313.483775)scale(0.1 -0.1)">
       <use xlink:href="#DejaVuSans-32"/>
       <use xlink:href="#DejaVuSans-30" x="63.623047"/>
       <use xlink:href="#DejaVuSans-30" x="127.246094"/>
      </g>
     </g>
    </g>
    <g id="ytick_3">
     <g id="line2d_13">
      <g>
       <use xlink:href="#m759e30824c" x="39.65" y="266.693019" style="stroke: #000000; stroke-width: 0.8"/>
      </g>
     </g>
     <g id="text_13">
      <!-- 400 -->
      <g transform="translate(13.5625 270.492237)scale(0.1 -0.1)">
       <defs>
        <path id="DejaVuSans-34" d="M 2419 4116 
L 825 1625 
L 2419 1625 
L 2419 4116 
z
M 2253 4666 
L 3047 4666 
L 3047 1625 
L 3713 1625 
L 3713 1100 
L 3047 1100 
L 3047 0 
L 2419 0 
L 2419 1100 
L 313 1100 
L 313 1709 
L 2253 4666 
z
" transform="scale(0.015625)"/>
       </defs>
       <use xlink:href="#DejaVuSans-34"/>
       <use xlink:href="#DejaVuSans-30" x="63.623047"/>
       <use xlink:href="#DejaVuSans-30" x="127.246094"/>
      </g>
     </g>
    </g>
    <g id="ytick_4">
     <g id="line2d_14">
      <g>
       <use xlink:href="#m759e30824c" x="39.65" y="223.701481" style="stroke: #000000; stroke-width: 0.8"/>
      </g>
     </g>
     <g id="text_14">
      <!-- 600 -->
      <g transform="translate(13.5625 227.5007)scale(0.1 -0.1)">
       <defs>
        <path id="DejaVuSans-36" d="M 2113 2584 
Q 1688 2584 1439 2293 
Q 1191 2003 1191 1497 
Q 1191 994 1439 701 
Q 1688 409 2113 409 
Q 2538 409 2786 701 
Q 3034 994 3034 1497 
Q 3034 2003 2786 2293 
Q 2538 2584 2113 2584 
z
M 3366 4563 
L 3366 3988 
Q 3128 4100 2886 4159 
Q 2644 4219 2406 4219 
Q 1781 4219 1451 3797 
Q 1122 3375 1075 2522 
Q 1259 2794 1537 2939 
Q 1816 3084 2150 3084 
Q 2853 3084 3261 2657 
Q 3669 2231 3669 1497 
Q 3669 778 3244 343 
Q 2819 -91 2113 -91 
Q 1303 -91 875 529 
Q 447 1150 447 2328 
Q 447 3434 972 4092 
Q 1497 4750 2381 4750 
Q 2619 4750 2861 4703 
Q 3103 4656 3366 4563 
z
" transform="scale(0.015625)"/>
       </defs>
       <use xlink:href="#DejaVuSans-36"/>
       <use xlink:href="#DejaVuSans-30" x="63.623047"/>
       <use xlink:href="#DejaVuSans-30" x="127.246094"/>
      </g>
     </g>
    </g>
    <g id="ytick_5">
     <g id="line2d_15">
      <g>
       <use xlink:href="#m759e30824c" x="39.65" y="180.709943" style="stroke: #000000; stroke-width: 0.8"/>
      </g>
     </g>
     <g id="text_15">
      <!-- 800 -->
      <g transform="translate(13.5625 184.509162)scale(0.1 -0.1)">
       <defs>
        <path id="DejaVuSans-38" d="M 2034 2216 
Q 1584 2216 1326 1975 
Q 1069 1734 1069 1313 
Q 1069 891 1326 650 
Q 1584 409 2034 409 
Q 2484 409 2743 651 
Q 3003 894 3003 1313 
Q 3003 1734 2745 1975 
Q 2488 2216 2034 2216 
z
M 1403 2484 
Q 997 2584 770 2862 
Q 544 3141 544 3541 
Q 544 4100 942 4425 
Q 1341 4750 2034 4750 
Q 2731 4750 3128 4425 
Q 3525 4100 3525 3541 
Q 3525 3141 3298 2862 
Q 3072 2584 2669 2484 
Q 3125 2378 3379 2068 
Q 3634 1759 3634 1313 
Q 3634 634 3220 271 
Q 2806 -91 2034 -91 
Q 1263 -91 848 271 
Q 434 634 434 1313 
Q 434 1759 690 2068 
Q 947 2378 1403 2484 
z
M 1172 3481 
Q 1172 3119 1398 2916 
Q 1625 2713 2034 2713 
Q 2441 2713 2670 2916 
Q 2900 3119 2900 3481 
Q 2900 3844 2670 4047 
Q 2441 4250 2034 4250 
Q 1625 4250 1398 4047 
Q 1172 3844 1172 3481 
z
" transform="scale(0.015625)"/>
       </defs>
       <use xlink:href="#DejaVuSans-38"/>
       <use xlink:href="#DejaVuSans-30" x="63.623047"/>
       <use xlink:href="#DejaVuSans-30" x="127.246094"/>
      </g>
     </g>
    </g>
    <g id="ytick_6">
     <g id="line2d_16">
      <g>
       <use xlink:href="#m759e30824c" x="39.65" y="137.718406" style="stroke: #000000; stroke-width: 0.8"/>
      </g>
     </g>
     <g id="text_16">
      <!-- 1000 -->
      <g transform="translate(7.2 141.517625)scale(0.1 -0.1)">
       <use xlink:href="#DejaVuSans-31"/>
       <use xlink:href="#DejaVuSans-30" x="63.623047"/>
       <use xlink:href="#DejaVuSans-30" x="127.246094"/>
       <use xlink:href="#DejaVuSans-30" x="190.869141"/>
      </g>
     </g>
    </g>
    <g id="ytick_7">
     <g id="line2d_17">
      <g>
       <use xlink:href="#m759e30824c" x="39.65" y="94.726868" style="stroke: #000000; stroke-width: 0.8"/>
      </g>
     </g>
     <g id="text_17">
      <!-- 1200 -->
      <g transform="translate(7.2 98.526087)scale(0.1 -0.1)">
       <use xlink:href="#DejaVuSans-31"/>
       <use xlink:href="#DejaVuSans-32" x="63.623047"/>
       <use xlink:href="#DejaVuSans-30" x="127.246094"/>
       <use xlink:href="#DejaVuSans-30" x="190.869141"/>
      </g>
     </g>
    </g>
    <g id="ytick_8">
     <g id="line2d_18">
      <g>
       <use xlink:href="#m759e30824c" x="39.65" y="51.735331" style="stroke: #000000; stroke-width: 0.8"/>
      </g>
     </g>
     <g id="text_18">
      <!-- 1400 -->
      <g transform="translate(7.2 55.53455)scale(0.1 -0.1)">
       <use xlink:href="#DejaVuSans-31"/>
       <use xlink:href="#DejaVuSans-34" x="63.623047"/>
       <use xlink:href="#DejaVuSans-30" x="127.246094"/>
       <use xlink:href="#DejaVuSans-30" x="190.869141"/>
      </g>
     </g>
    </g>
   </g>
   <g id="line2d_19">
    <path d="M 100.522727 352.676094 
L 159.450827 352.676094 
L 160.629389 352.461136 
L 161.807951 352.676094 
L 166.522199 352.676094 
L 167.700761 352.031221 
L 168.879323 352.676094 
L 170.057885 352.461136 
L 171.236447 352.676094 
L 172.415009 352.246178 
L 174.772133 352.676094 
L 179.486381 352.676094 
L 180.664943 352.461136 
L 181.843505 352.461136 
L 183.022067 352.676094 
L 236.057357 352.676094 
L 237.235919 352.461136 
L 238.414481 352.676094 
L 246.664415 352.676094 
L 247.842977 352.461136 
L 249.021539 352.676094 
L 250.200101 352.676094 
L 251.378663 352.246178 
L 252.557225 350.741475 
L 253.735787 348.161982 
L 254.914349 350.526517 
L 256.092911 348.37694 
L 257.271473 350.956432 
L 258.450035 350.956432 
L 259.628597 350.526517 
L 260.807159 347.947025 
L 261.985721 351.386348 
L 263.164283 350.741475 
L 264.342845 351.17139 
L 265.521407 347.517109 
L 266.699969 348.591898 
L 267.878531 350.741475 
L 269.057093 350.096601 
L 270.235655 348.161982 
L 271.414217 351.17139 
L 272.592779 347.302152 
L 273.771341 349.236771 
L 274.949903 349.236771 
L 276.128465 350.526517 
L 277.307027 350.311559 
L 278.485589 351.601305 
L 279.664151 352.676094 
L 280.842713 344.507702 
L 282.021275 349.236771 
L 283.199837 349.236771 
L 284.378399 335.909394 
L 285.556961 347.732067 
L 286.735523 350.311559 
L 287.914085 349.666686 
L 289.092647 348.37694 
L 290.271209 350.096601 
L 291.449771 349.666686 
L 292.628333 351.816263 
L 293.806895 346.442321 
L 294.985457 348.37694 
L 296.164019 348.37694 
L 297.342581 346.012405 
L 298.521143 346.442321 
L 299.699705 345.797448 
L 300.878267 349.451728 
L 302.056829 352.676094 
L 303.235391 344.292744 
L 304.413953 348.161982 
L 305.592515 344.937617 
L 306.771077 338.273929 
L 307.949639 344.292744 
L 309.128201 340.208548 
L 310.306763 346.657278 
L 311.485325 341.928209 
L 312.663887 341.498294 
L 313.842449 343.002998 
L 316.199573 337.414098 
L 317.378135 336.339309 
L 318.556697 340.208548 
L 319.735259 343.217955 
L 320.913821 346.872236 
L 322.092383 331.825198 
L 323.270945 352.676094 
L 324.449507 343.432913 
L 325.628069 329.030748 
L 326.806631 333.544859 
L 327.985193 343.217955 
L 329.163755 333.759817 
L 330.342317 337.844013 
L 331.520879 342.78804 
L 332.699441 329.675621 
L 333.878003 330.535452 
L 335.056565 334.40469 
L 336.235127 331.61024 
L 337.413689 337.629056 
L 338.592251 332.470071 
L 339.770813 329.460663 
L 340.949375 336.124352 
L 342.127937 326.236298 
L 343.306499 340.853421 
L 344.485061 339.563675 
L 345.663623 322.796975 
L 346.842185 335.694436 
L 348.020747 337.414098 
L 349.199309 332.470071 
L 350.377871 329.245706 
L 351.556433 344.507702 
L 352.734995 347.302152 
L 353.913557 338.488886 
L 355.092119 347.087194 
L 356.270681 337.844013 
L 357.449243 340.853421 
L 358.627805 329.890579 
L 359.806367 340.853421 
L 360.984929 347.302152 
L 362.163491 340.853421 
L 363.342053 339.778632 
L 364.520615 338.488886 
L 365.699177 344.722659 
L 366.877739 338.058971 
L 368.056301 347.087194 
L 369.234863 349.666686 
L 370.413425 339.99359 
L 371.591987 346.657278 
L 372.770549 346.227363 
L 373.949111 341.498294 
L 375.127673 341.928209 
L 376.306235 352.031221 
L 377.484797 346.442321 
L 378.663359 349.666686 
L 381.020483 347.087194 
L 382.199045 348.37694 
L 383.377607 348.806855 
L 384.556169 349.666686 
L 385.734731 349.021813 
L 386.913293 348.591898 
L 388.091855 348.37694 
L 389.270417 350.526517 
L 390.448979 346.657278 
L 391.627541 349.666686 
L 392.806103 351.816263 
L 393.984665 352.461136 
L 395.163227 346.872236 
L 396.341789 349.666686 
L 397.520351 349.666686 
L 398.698913 350.956432 
L 399.877475 347.302152 
L 401.056037 349.021813 
L 402.234599 349.881644 
L 403.413161 350.311559 
L 404.591723 349.666686 
L 405.770285 347.302152 
L 406.948847 349.666686 
L 408.127409 349.021813 
L 409.305971 349.236771 
L 410.484533 351.17139 
L 411.663095 349.666686 
L 412.841657 350.311559 
L 414.020219 350.311559 
L 415.198781 348.591898 
L 416.377343 350.526517 
L 417.555905 351.17139 
L 418.734467 352.031221 
L 419.913029 350.311559 
L 421.091591 351.386348 
L 422.270153 351.816263 
L 423.448715 352.461136 
L 424.627277 350.311559 
L 425.805839 351.816263 
L 426.984401 350.526517 
L 428.162963 351.17139 
L 429.341525 351.601305 
L 430.520087 351.601305 
L 431.698649 351.816263 
L 432.877211 352.246178 
L 434.055773 351.17139 
L 435.234335 352.246178 
L 436.412897 351.386348 
L 437.591459 352.246178 
L 438.770021 351.601305 
L 439.948583 352.246178 
L 441.127145 351.17139 
L 442.305707 351.601305 
L 443.484269 352.246178 
L 444.662831 351.816263 
L 445.841393 350.741475 
L 447.019955 351.17139 
L 448.198517 351.17139 
L 449.377079 351.386348 
L 450.555641 352.676094 
L 451.734203 352.461136 
L 452.912765 352.031221 
L 454.091327 351.816263 
L 455.269889 352.246178 
L 456.448451 351.601305 
L 457.627013 351.386348 
L 458.805575 352.461136 
L 459.984137 352.461136 
L 462.341261 351.601305 
L 463.519823 352.246178 
L 464.698385 351.816263 
L 465.876947 352.461136 
L 467.055509 352.676094 
L 468.234071 352.676094 
L 469.412633 351.17139 
L 470.591195 352.461136 
L 471.769757 352.246178 
L 472.948319 352.676094 
L 474.126881 352.246178 
L 475.305443 352.676094 
L 476.484005 352.461136 
L 477.662567 352.461136 
L 478.841129 351.17139 
L 480.019691 351.816263 
L 481.198253 352.246178 
L 482.376815 352.461136 
L 483.555377 349.881644 
L 484.733939 351.386348 
L 485.912501 347.947025 
L 487.091063 348.37694 
L 488.269625 346.872236 
L 489.448187 346.012405 
L 490.626749 341.498294 
L 492.983873 346.012405 
L 494.162435 334.189733 
L 495.340997 338.703844 
L 496.519559 336.339309 
L 497.698121 337.629056 
L 498.876683 340.208548 
L 500.055245 344.077786 
L 501.233807 345.152575 
L 502.412369 334.40469 
L 503.590931 334.834606 
L 504.769493 346.442321 
L 505.948055 338.273929 
L 507.126617 338.488886 
L 508.305179 341.928209 
L 509.483741 331.180325 
L 510.662303 332.685029 
L 511.840865 335.479479 
L 513.019427 334.619648 
L 514.197989 330.320494 
L 515.376551 332.470071 
L 516.555113 339.778632 
L 517.733675 340.638463 
L 518.912237 328.170917 
L 520.090799 337.844013 
L 521.269361 341.283336 
L 522.447923 329.245706 
L 523.626485 339.778632 
L 524.805047 340.208548 
L 525.983609 331.825198 
L 528.340733 336.769225 
L 529.519295 331.825198 
L 530.697857 338.703844 
L 531.876419 340.853421 
L 533.054981 340.423506 
L 534.233543 340.853421 
L 536.590667 337.844013 
L 537.769229 341.928209 
L 538.947791 337.414098 
L 540.126353 344.292744 
L 541.304915 345.152575 
L 542.483477 350.311559 
L 543.662039 342.358125 
L 544.840601 339.99359 
L 546.019163 344.292744 
L 547.197725 347.517109 
L 548.376287 346.012405 
L 549.554849 348.161982 
L 550.733411 348.591898 
L 551.911973 348.37694 
L 553.090535 346.442321 
L 554.269097 347.087194 
L 555.447659 349.881644 
L 556.626221 349.236771 
L 557.804783 350.741475 
L 558.983345 350.956432 
L 560.161907 350.741475 
L 561.340469 350.096601 
L 562.519031 351.386348 
L 563.697593 349.236771 
L 564.876155 352.246178 
L 566.054717 350.096601 
L 567.233279 352.461136 
L 568.411841 350.311559 
L 569.590403 350.096601 
L 570.768965 350.741475 
L 571.947527 350.096601 
L 573.126089 351.386348 
L 574.304651 350.526517 
L 575.483213 351.816263 
L 576.661775 351.386348 
L 577.840337 349.666686 
L 579.018899 351.386348 
L 580.197461 351.17139 
L 581.376023 351.601305 
L 582.554585 351.386348 
L 583.733147 352.031221 
L 584.911709 351.601305 
L 586.090271 351.601305 
L 587.268833 351.17139 
L 588.447395 349.451728 
L 589.625957 350.526517 
L 590.804519 352.246178 
L 594.340205 350.956432 
L 596.697329 351.386348 
L 597.875891 351.386348 
L 599.054453 351.601305 
L 600.233015 352.461136 
L 601.411577 351.17139 
L 602.590139 352.031221 
L 603.768701 350.956432 
L 604.947263 352.031221 
L 606.125825 351.17139 
L 607.304387 352.246178 
L 608.482949 351.17139 
L 609.661511 351.601305 
L 610.840073 349.881644 
L 612.018635 352.676094 
L 613.197197 350.956432 
L 614.375759 347.732067 
L 615.554321 350.526517 
L 616.732883 350.311559 
L 617.911445 350.526517 
L 619.090007 349.236771 
L 620.268569 341.068379 
L 621.447131 350.311559 
L 622.625693 349.881644 
L 623.804255 347.517109 
L 624.982817 349.666686 
L 626.161379 342.573082 
L 627.339941 341.068379 
L 628.518503 343.862829 
L 629.697065 344.507702 
L 630.875627 342.143167 
L 632.054189 344.937617 
L 633.232751 352.676094 
L 634.411313 329.890579 
L 635.589875 330.320494 
L 636.768437 336.769225 
L 637.946999 338.273929 
L 639.125561 338.918802 
L 640.304123 342.143167 
L 641.482685 344.937617 
L 642.661247 336.339309 
L 643.839809 339.563675 
L 645.018371 338.058971 
L 646.196933 336.124352 
L 647.375495 338.703844 
L 648.554057 339.563675 
L 649.732619 341.068379 
L 650.911181 335.479479 
L 652.089743 336.984183 
L 653.268305 326.881171 
L 654.446867 327.526044 
L 655.625429 333.974775 
L 656.803991 332.899986 
L 657.982553 330.965367 
L 659.161115 332.685029 
L 660.339677 326.666213 
L 661.518239 321.507229 
L 662.696801 323.656806 
L 663.875363 326.666213 
L 665.053925 326.451256 
L 666.232487 318.927737 
L 667.411049 321.722187 
L 668.589611 318.712779 
L 669.768173 317.852948 
L 670.946735 315.918329 
L 672.125297 312.693964 
L 673.303859 313.338837 
L 674.482421 311.619175 
L 675.660983 311.18926 
L 676.839545 304.310614 
L 678.018107 289.908449 
L 679.196669 289.693491 
L 680.375231 307.534979 
L 681.553793 299.151629 
L 682.732355 311.834133 
L 683.910917 315.273456 
L 685.089479 288.188787 
L 686.268041 299.366587 
L 687.446603 281.095184 
L 688.625165 291.843068 
L 689.803727 299.151629 
L 690.982289 300.01146 
L 692.160851 297.861883 
L 693.339413 294.207603 
L 694.517975 302.590952 
L 695.696537 298.291799 
L 696.875099 285.824253 
L 698.053661 296.35718 
L 699.232223 303.880699 
L 700.410785 304.095656 
L 701.589347 291.843068 
L 702.767909 298.291799 
L 703.946471 306.460191 
L 705.125033 315.703371 
L 706.303595 293.132814 
L 707.482157 327.741002 
L 708.660719 318.927737 
L 709.839281 298.721714 
L 711.017843 315.273456 
L 712.196405 312.264048 
L 713.374967 320.647398 
L 714.553529 312.049091 
L 715.732091 328.81579 
L 716.910653 318.497821 
L 718.089215 306.890106 
L 719.267777 308.824725 
L 720.446339 325.376467 
L 721.624901 322.582017 
L 722.803463 314.628583 
L 723.982025 334.40469 
L 725.160587 327.741002 
L 726.339149 308.179852 
L 727.517711 307.749937 
L 728.696273 315.703371 
L 729.874835 326.02134 
L 731.053397 333.329902 
L 732.231959 335.479479 
L 733.410521 324.516637 
L 734.589083 326.451256 
L 735.767645 321.507229 
L 736.946207 310.974302 
L 738.124769 326.666213 
L 739.303331 332.040156 
L 740.481893 344.077786 
L 741.660455 326.236298 
L 742.839017 340.853421 
L 744.017579 334.834606 
L 745.196141 327.741002 
L 746.374703 329.460663 
L 747.553265 335.909394 
L 748.731827 346.657278 
L 749.910389 325.806383 
L 751.088951 333.329902 
L 752.267513 331.180325 
L 753.446075 337.844013 
L 754.624637 338.918802 
L 756.981761 344.722659 
L 758.160323 329.030748 
L 759.338885 338.703844 
L 761.696009 323.22689 
L 762.874571 338.918802 
L 764.053133 334.40469 
L 765.231695 343.217955 
L 766.410257 340.423506 
L 767.588819 327.096129 
L 768.767381 332.040156 
L 769.945943 327.95596 
L 771.124505 329.890579 
L 772.303067 341.068379 
L 773.481629 342.358125 
L 774.660191 318.067906 
L 775.838753 328.170917 
L 777.017315 319.57261 
L 778.195877 322.582017 
L 779.374439 318.067906 
L 780.553001 324.301679 
L 781.731563 337.414098 
L 782.910125 309.254641 
L 784.088687 304.955487 
L 785.267249 303.235826 
L 786.445811 302.375995 
L 787.624373 304.955487 
L 788.802935 319.142694 
L 789.981497 325.376467 
L 791.160059 282.599887 
L 792.338621 286.899041 
L 793.517183 283.459718 
L 794.695745 309.899514 
L 795.874307 263.468653 
L 797.052869 283.889634 
L 798.231431 318.927737 
L 799.409993 270.992172 
L 800.588555 244.767334 
L 801.767117 289.263576 
L 802.945679 229.075423 
L 804.124241 285.609295 
L 805.302803 245.842123 
L 806.481365 263.468653 
L 807.659927 213.168554 
L 808.838489 229.935254 
L 810.017051 221.766862 
L 811.195613 221.336946 
L 813.552737 352.676094 
L 814.731299 171.251805 
L 815.909861 235.094238 
L 817.088423 216.822835 
L 818.266985 272.926792 
L 819.445547 251.860938 
L 820.624109 288.403745 
L 821.802671 352.676094 
L 822.981233 230.580127 
L 824.159795 242.4028 
L 825.338357 260.244288 
L 827.695481 352.676094 
L 828.874043 252.505811 
L 830.052605 312.264048 
L 831.231167 260.02933 
L 832.409729 352.676094 
L 833.588291 352.676094 
L 834.766853 125.035902 
L 835.945415 296.572137 
L 837.123977 302.375995 
L 838.302539 352.676094 
L 839.481101 344.937617 
L 840.659663 230.795085 
L 841.838225 198.121516 
L 843.016787 294.852476 
L 844.195349 294.42256 
L 845.373911 313.768752 
L 846.552473 323.871764 
L 847.731035 234.664323 
L 848.909597 290.76828 
L 850.088159 311.18926 
L 851.266721 309.684556 
L 852.445283 310.114472 
L 853.623845 330.535452 
L 854.802407 322.582017 
L 855.980969 306.245233 
L 857.159531 306.675149 
L 858.338093 326.451256 
L 859.516655 327.95596 
L 860.695217 328.170917 
L 861.873779 338.703844 
L 863.052341 340.853421 
L 864.230903 352.676094 
L 865.409465 331.180325 
L 866.588027 323.011933 
L 867.766589 330.105536 
L 868.945151 344.507702 
L 870.123713 330.320494 
L 871.302275 342.78804 
L 872.480837 341.498294 
L 873.659399 307.534979 
L 874.837961 333.329902 
L 876.016523 352.676094 
L 877.195085 342.358125 
L 878.373647 339.133759 
L 879.552209 345.58249 
L 880.730771 345.797448 
L 881.909333 332.899986 
L 883.087895 337.19914 
L 884.266457 328.170917 
L 885.445019 352.676094 
L 886.623581 341.068379 
L 887.802143 346.657278 
L 888.980705 332.685029 
L 890.159267 352.676094 
L 891.337829 331.61024 
L 892.516391 346.872236 
L 893.694953 341.068379 
L 894.873515 346.012405 
L 896.052077 348.591898 
L 897.230639 339.133759 
L 898.409201 347.302152 
L 899.587763 345.367532 
L 900.766325 342.573082 
L 901.944887 346.012405 
L 903.123449 345.58249 
L 904.302011 349.236771 
L 905.480573 343.432913 
L 906.659135 352.676094 
L 907.837697 346.012405 
L 909.016259 338.488886 
L 910.194821 348.806855 
L 911.373383 352.676094 
L 912.551945 345.152575 
L 913.730507 352.676094 
L 914.909069 333.974775 
L 916.087631 345.367532 
L 917.266193 352.676094 
L 918.444755 344.507702 
L 919.623317 343.002998 
L 920.801879 350.526517 
L 921.980441 352.676094 
L 923.159003 335.049563 
L 924.337565 348.37694 
L 925.516127 347.517109 
L 926.694689 348.161982 
L 927.873251 349.451728 
L 929.051813 352.676094 
L 930.230375 330.105536 
L 931.408937 329.460663 
L 932.587499 301.086249 
L 933.766061 301.516164 
L 934.944623 314.628583 
L 936.123185 316.993118 
L 937.301747 291.843068 
L 938.480309 192.532616 
L 939.658871 176.41079 
L 940.837433 155.774852 
L 942.015995 209.729231 
L 943.194557 191.24287 
L 944.373119 235.094238 
L 945.551681 274.00158 
L 946.730243 135.783787 
L 947.908805 124.391029 
L 949.087367 127.615395 
L 950.265929 162.43854 
L 951.444491 132.129506 
L 952.623053 200.271093 
L 953.801615 259.1695 
L 954.980177 50.8755 
L 956.158739 62.268257 
L 957.337301 108.699118 
L 958.515863 182.429605 
L 959.694425 198.981347 
L 960.872987 252.505811 
L 962.051549 281.095184 
L 963.230111 167.167609 
L 964.408673 203.925374 
L 965.587235 254.010515 
L 966.765797 253.795557 
L 967.944359 267.767807 
L 969.122921 305.60036 
L 970.301483 352.676094 
L 971.480045 222.196777 
L 972.658607 312.479006 
L 973.837169 242.187842 
L 975.015731 269.272511 
L 976.194293 267.982765 
L 977.372855 320.432441 
L 978.551417 324.946552 
L 979.729979 275.721241 
L 980.908541 277.440903 
L 982.087103 297.002053 
L 983.265665 308.609768 
L 984.444227 315.488414 
L 985.622789 331.395283 
L 986.801351 339.563675 
L 987.979913 316.77816 
L 989.158475 324.516637 
L 990.337037 327.741002 
L 991.515599 331.395283 
L 992.694161 334.40469 
L 993.872723 341.498294 
L 995.051285 346.227363 
L 996.229847 332.470071 
L 997.408409 337.629056 
L 998.586971 340.853421 
L 999.765533 335.264521 
L 1000.944095 341.068379 
L 1002.122657 347.947025 
L 1003.301219 346.012405 
L 1004.479781 332.685029 
L 1005.658343 335.909394 
L 1008.015467 343.862829 
L 1009.194029 339.778632 
L 1010.372591 345.58249 
L 1011.551153 347.517109 
L 1012.729715 338.058971 
L 1013.908277 343.217955 
L 1015.086839 346.012405 
L 1016.265401 341.713252 
L 1017.443963 345.152575 
L 1018.622525 349.666686 
L 1019.801087 350.741475 
L 1020.979649 346.227363 
L 1022.158211 345.152575 
L 1023.336773 345.797448 
L 1024.515335 345.58249 
L 1026.872459 350.096601 
L 1028.051021 348.806855 
L 1029.229583 335.694436 
L 1030.408145 346.227363 
L 1031.586707 343.002998 
L 1032.765269 350.096601 
L 1033.943831 348.161982 
L 1035.122393 349.021813 
L 1036.300955 351.601305 
L 1037.479517 348.806855 
L 1038.658079 349.451728 
L 1039.836641 349.666686 
L 1041.015203 348.591898 
L 1042.193765 350.956432 
L 1043.372327 352.676094 
L 1044.550889 352.031221 
L 1046.908013 351.601305 
L 1048.086575 352.676094 
L 1053.979385 352.676094 
L 1055.157947 345.152575 
L 1056.336509 352.676094 
L 1062.229319 352.676094 
L 1063.407881 347.087194 
L 1064.586443 352.676094 
L 1070.479253 352.676094 
L 1071.657815 345.367532 
L 1072.836377 352.676094 
L 1078.729187 352.676094 
L 1079.907749 340.423506 
L 1081.086311 352.676094 
L 1086.979121 352.676094 
L 1088.157683 220.477116 
L 1089.336245 352.676094 
L 1095.229055 352.676094 
L 1096.407617 302.80591 
L 1097.586179 352.676094 
L 1103.478989 352.676094 
L 1104.657551 314.843541 
L 1105.836113 352.676094 
L 1111.728923 352.676094 
L 1112.907485 324.516637 
L 1114.086047 352.676094 
L 1119.978857 352.676094 
L 1121.157419 325.591425 
L 1122.335981 352.676094 
L 1128.228791 352.676094 
L 1129.407353 332.685029 
L 1130.585915 352.676094 
L 1136.478725 352.676094 
L 1137.657287 341.713252 
L 1138.835849 352.676094 
L 1144.728659 352.676094 
L 1145.907221 342.573082 
L 1147.085783 352.676094 
L 1152.978593 352.676094 
L 1154.157155 347.087194 
L 1155.335717 352.676094 
L 1161.228527 352.676094 
L 1162.407089 346.442321 
L 1163.585651 352.676094 
L 1169.478461 352.676094 
L 1170.657023 346.227363 
L 1171.835585 352.676094 
L 1177.728395 352.676094 
L 1178.906957 349.021813 
L 1180.085519 352.676094 
L 1185.978329 352.676094 
L 1187.156891 349.236771 
L 1188.335453 352.676094 
L 1194.228263 352.676094 
L 1195.406825 351.386348 
L 1196.585387 352.676094 
L 1202.478197 352.676094 
L 1203.656759 348.591898 
L 1204.835321 352.676094 
L 1210.728131 352.676094 
L 1211.906693 349.451728 
L 1213.085255 352.676094 
L 1218.978065 352.676094 
L 1220.156627 349.021813 
L 1221.335189 352.676094 
L 1228.406561 352.676094 
L 1229.585123 348.806855 
L 1230.763685 352.676094 
L 1235.477933 352.676094 
L 1236.656495 348.161982 
L 1237.835057 352.676094 
L 1243.727867 352.676094 
L 1244.906429 348.161982 
L 1246.084991 352.676094 
L 1251.977801 352.676094 
L 1253.156363 351.17139 
L 1254.334925 352.676094 
L 1260.227735 352.676094 
L 1261.406297 350.956432 
L 1262.584859 352.676094 
L 1268.477669 352.676094 
L 1269.656231 349.021813 
L 1270.834793 352.676094 
L 1276.727603 352.676094 
L 1277.906165 346.872236 
L 1279.084727 352.676094 
L 1284.977537 352.676094 
L 1286.156099 346.872236 
L 1287.334661 352.676094 
L 1293.227471 352.676094 
L 1294.406033 343.432913 
L 1295.584595 352.676094 
L 1301.477405 352.676094 
L 1301.477405 352.676094 
" clip-path="url(#p245226fa64)" style="fill: none; stroke: #0000ff; stroke-width: 1.5; stroke-linecap: square"/>
   </g>
   <g id="line2d_20">
    <path d="M 1062.229319 352.340661 
L 1063.407881 350.123964 
L 1064.586443 351.829156 
L 1065.765005 352.492283 
L 1066.943567 352.422677 
L 1068.122129 352.579492 
L 1069.300691 351.995671 
L 1070.479253 352.543415 
L 1071.657815 349.865998 
L 1072.836377 351.260374 
L 1074.014939 352.328159 
L 1075.193501 352.15075 
L 1076.372063 352.228174 
L 1077.550625 351.431196 
L 1078.729187 352.465891 
L 1079.907749 349.152988 
L 1081.086311 349.844787 
L 1082.264873 351.963827 
L 1083.443435 351.584808 
L 1084.621997 351.66374 
L 1085.800559 350.145111 
L 1086.979121 352.260938 
L 1088.157683 347.151029 
L 1089.336245 311.545169 
L 1090.514807 342.276805 
L 1091.693369 336.684731 
L 1092.871931 337.618319 
L 1094.050493 315.732771 
L 1095.229055 346.650053 
L 1096.407617 303.437619 
L 1097.586179 351.993874 
L 1098.764741 352.518315 
L 1101.121865 352.486678 
L 1102.300427 352.207894 
L 1103.478989 352.599475 
L 1104.657551 319.207356 
L 1105.836113 351.254654 
L 1107.014675 352.316934 
L 1108.193237 352.124245 
L 1109.371799 352.156877 
L 1110.550361 351.401054 
L 1111.728923 352.468056 
L 1112.907485 328.302073 
L 1114.086047 351.431445 
L 1115.264609 352.361877 
L 1116.443171 352.194084 
L 1117.621733 352.222361 
L 1118.800295 351.562847 
L 1119.978857 352.494501 
L 1121.157419 334.715255 
L 1122.335981 349.701173 
L 1123.514543 351.924231 
L 1124.693105 351.520772 
L 1125.871667 351.587995 
L 1127.050229 350.007516 
L 1128.228791 352.240854 
L 1129.407353 337.167525 
L 1130.585915 351.187001 
L 1131.764477 352.30057 
L 1132.943039 352.101112 
L 1134.121601 352.134748 
L 1135.300163 351.348558 
L 1136.478725 352.459577 
L 1137.657287 340.519149 
L 1138.835849 353.046353 
L 1140.014411 352.770245 
L 1143.550097 353.013943 
L 1144.728659 352.731194 
L 1145.907221 344.830707 
L 1147.085783 351.947911 
L 1148.264345 352.491817 
L 1149.442907 352.392335 
L 1150.621469 352.408778 
L 1151.800031 352.020512 
L 1152.978593 352.569172 
L 1154.157155 346.515308 
L 1155.335717 352.853161 
L 1156.514279 352.721127 
L 1160.049965 352.837741 
L 1161.228527 352.702457 
L 1162.407089 348.688191 
L 1163.585651 351.949438 
L 1164.764213 352.492271 
L 1165.942775 352.393205 
L 1167.121337 352.409612 
L 1168.299899 352.022569 
L 1169.478461 352.569507 
L 1170.657023 349.150129 
L 1171.835585 351.719222 
L 1173.014147 352.434371 
L 1174.192709 352.304943 
L 1175.371271 352.326546 
L 1176.549833 351.818897 
L 1177.728395 352.536289 
L 1178.906957 349.228851 
L 1180.085519 352.597795 
L 1182.442643 352.646987 
L 1185.978329 352.665164 
L 1187.156891 350.2596 
L 1188.335453 352.343331 
L 1189.514015 352.59197 
L 1193.049701 352.37737 
L 1194.228263 352.627373 
L 1195.406825 350.662346 
L 1196.585387 352.907147 
L 1197.763949 352.73464 
L 1201.299635 352.884857 
L 1202.478197 352.710142 
L 1203.656759 351.566199 
L 1204.835321 351.713683 
L 1206.013883 352.432634 
L 1207.192445 352.301434 
L 1208.371007 352.323163 
L 1209.549569 351.810562 
L 1210.728131 352.53493 
L 1211.906693 350.849633 
L 1213.085255 352.211268 
L 1214.263817 352.558884 
L 1217.799503 352.261823 
L 1218.978065 352.608528 
L 1220.156627 350.936627 
L 1221.335189 352.049391 
L 1222.513751 352.517772 
L 1224.870875 352.447136 
L 1226.049437 352.11462 
L 1227.227999 352.58452 
L 1228.406561 350.806401 
L 1229.585123 353.2755 
L 1230.763685 351.572381 
L 1231.942247 352.592618 
L 1233.120809 352.408248 
L 1234.299371 352.756855 
L 1235.477933 351.636218 
L 1236.656495 351.894125 
L 1237.835057 350.02275 
L 1239.013619 352.792595 
L 1240.192181 352.294488 
L 1241.370743 352.383719 
L 1242.549305 351.700166 
L 1243.727867 352.886959 
L 1244.906429 350.922074 
L 1246.084991 351.348356 
L 1247.263553 352.599006 
L 1248.442115 352.369069 
L 1249.620677 352.408732 
L 1250.799239 351.934791 
L 1251.977801 352.677362 
L 1253.156363 350.499606 
L 1254.334925 352.74597 
L 1259.049173 352.889631 
L 1260.227735 352.751257 
L 1261.406297 351.440948 
L 1262.584859 352.47592 
L 1263.763421 352.653546 
L 1267.299107 352.544227 
L 1268.477669 352.667904 
L 1269.656231 351.658635 
L 1270.834793 351.803676 
L 1272.013355 352.464821 
L 1273.191917 352.344453 
L 1274.370479 352.364499 
L 1275.549041 351.908865 
L 1276.727603 352.55536 
L 1277.906165 351.036827 
L 1279.084727 351.309809 
L 1280.263289 352.333951 
L 1281.441851 352.14835 
L 1282.620413 352.179311 
L 1283.798975 351.456807 
L 1284.977537 352.478686 
L 1286.156099 350.069738 
L 1287.334661 351.621091 
L 1288.513223 352.410789 
L 1289.691785 352.26848 
L 1290.870347 352.292336 
L 1292.048909 351.734687 
L 1293.227471 352.523035 
L 1294.406033 349.761804 
L 1295.584595 350.609707 
L 1296.763157 352.154239 
L 1297.941719 351.874116 
L 1299.120281 351.920782 
L 1300.298843 350.823707 
L 1301.477405 352.374137 
L 1301.477405 352.374137 
" clip-path="url(#p245226fa64)" style="fill: none; stroke: #ffa500; stroke-width: 1.5; stroke-linecap: square"/>
   </g>
   <g id="line2d_21">
    <path d="M 1302.655967 348.424907 
L 1303.834529 352.65189 
L 1305.013091 352.662951 
L 1306.191653 352.66343 
L 1307.370215 352.661986 
L 1308.548777 352.6516 
L 1309.727339 352.654484 
L 1310.905901 349.777271 
L 1312.084463 352.650686 
L 1313.263025 352.654065 
L 1314.441587 352.651881 
L 1315.620149 352.651475 
L 1316.798711 352.648898 
L 1317.977273 352.65034 
" clip-path="url(#p245226fa64)" style="fill: none; stroke: #ff0000; stroke-width: 1.5; stroke-linecap: square"/>
   </g>
   <g id="patch_3">
    <path d="M 39.65 368.3955 
L 39.65 35.7555 
" style="fill: none; stroke: #000000; stroke-width: 0.8; stroke-linejoin: miter; stroke-linecap: square"/>
   </g>
   <g id="patch_4">
    <path d="M 1378.85 368.3955 
L 1378.85 35.7555 
" style="fill: none; stroke: #000000; stroke-width: 0.8; stroke-linejoin: miter; stroke-linecap: square"/>
   </g>
   <g id="patch_5">
    <path d="M 39.65 368.3955 
L 1378.85 368.3955 
" style="fill: none; stroke: #000000; stroke-width: 0.8; stroke-linejoin: miter; stroke-linecap: square"/>
   </g>
   <g id="patch_6">
    <path d="M 39.65 35.7555 
L 1378.85 35.7555 
" style="fill: none; stroke: #000000; stroke-width: 0.8; stroke-linejoin: miter; stroke-linecap: square"/>
   </g>
   <g id="text_19">
    <!-- Daily Confirmed Cases Forecasting - Suriname -->
    <g transform="translate(569.989063 16.318125)scale(0.12 -0.12)">
     <defs>
      <path id="DejaVuSans-44" d="M 1259 4147 
L 1259 519 
L 2022 519 
Q 2988 519 3436 956 
Q 3884 1394 3884 2338 
Q 3884 3275 3436 3711 
Q 2988 4147 2022 4147 
L 1259 4147 
z
M 628 4666 
L 1925 4666 
Q 3281 4666 3915 4102 
Q 4550 3538 4550 2338 
Q 4550 1131 3912 565 
Q 3275 0 1925 0 
L 628 0 
L 628 4666 
z
" transform="scale(0.015625)"/>
      <path id="DejaVuSans-61" d="M 2194 1759 
Q 1497 1759 1228 1600 
Q 959 1441 959 1056 
Q 959 750 1161 570 
Q 1363 391 1709 391 
Q 2188 391 2477 730 
Q 2766 1069 2766 1631 
L 2766 1759 
L 2194 1759 
z
M 3341 1997 
L 3341 0 
L 2766 0 
L 2766 531 
Q 2569 213 2275 61 
Q 1981 -91 1556 -91 
Q 1019 -91 701 211 
Q 384 513 384 1019 
Q 384 1609 779 1909 
Q 1175 2209 1959 2209 
L 2766 2209 
L 2766 2266 
Q 2766 2663 2505 2880 
Q 2244 3097 1772 3097 
Q 1472 3097 1187 3025 
Q 903 2953 641 2809 
L 641 3341 
Q 956 3463 1253 3523 
Q 1550 3584 1831 3584 
Q 2591 3584 2966 3190 
Q 3341 2797 3341 1997 
z
" transform="scale(0.015625)"/>
      <path id="DejaVuSans-69" d="M 603 3500 
L 1178 3500 
L 1178 0 
L 603 0 
L 603 3500 
z
M 603 4863 
L 1178 4863 
L 1178 4134 
L 603 4134 
L 603 4863 
z
" transform="scale(0.015625)"/>
      <path id="DejaVuSans-6c" d="M 603 4863 
L 1178 4863 
L 1178 0 
L 603 0 
L 603 4863 
z
" transform="scale(0.015625)"/>
      <path id="DejaVuSans-79" d="M 2059 -325 
Q 1816 -950 1584 -1140 
Q 1353 -1331 966 -1331 
L 506 -1331 
L 506 -850 
L 844 -850 
Q 1081 -850 1212 -737 
Q 1344 -625 1503 -206 
L 1606 56 
L 191 3500 
L 800 3500 
L 1894 763 
L 2988 3500 
L 3597 3500 
L 2059 -325 
z
" transform="scale(0.015625)"/>
      <path id="DejaVuSans-20" transform="scale(0.015625)"/>
      <path id="DejaVuSans-43" d="M 4122 4306 
L 4122 3641 
Q 3803 3938 3442 4084 
Q 3081 4231 2675 4231 
Q 1875 4231 1450 3742 
Q 1025 3253 1025 2328 
Q 1025 1406 1450 917 
Q 1875 428 2675 428 
Q 3081 428 3442 575 
Q 3803 722 4122 1019 
L 4122 359 
Q 3791 134 3420 21 
Q 3050 -91 2638 -91 
Q 1578 -91 968 557 
Q 359 1206 359 2328 
Q 359 3453 968 4101 
Q 1578 4750 2638 4750 
Q 3056 4750 3426 4639 
Q 3797 4528 4122 4306 
z
" transform="scale(0.015625)"/>
      <path id="DejaVuSans-6f" d="M 1959 3097 
Q 1497 3097 1228 2736 
Q 959 2375 959 1747 
Q 959 1119 1226 758 
Q 1494 397 1959 397 
Q 2419 397 2687 759 
Q 2956 1122 2956 1747 
Q 2956 2369 2687 2733 
Q 2419 3097 1959 3097 
z
M 1959 3584 
Q 2709 3584 3137 3096 
Q 3566 2609 3566 1747 
Q 3566 888 3137 398 
Q 2709 -91 1959 -91 
Q 1206 -91 779 398 
Q 353 888 353 1747 
Q 353 2609 779 3096 
Q 1206 3584 1959 3584 
z
" transform="scale(0.015625)"/>
      <path id="DejaVuSans-6e" d="M 3513 2113 
L 3513 0 
L 2938 0 
L 2938 2094 
Q 2938 2591 2744 2837 
Q 2550 3084 2163 3084 
Q 1697 3084 1428 2787 
Q 1159 2491 1159 1978 
L 1159 0 
L 581 0 
L 581 3500 
L 1159 3500 
L 1159 2956 
Q 1366 3272 1645 3428 
Q 1925 3584 2291 3584 
Q 2894 3584 3203 3211 
Q 3513 2838 3513 2113 
z
" transform="scale(0.015625)"/>
      <path id="DejaVuSans-66" d="M 2375 4863 
L 2375 4384 
L 1825 4384 
Q 1516 4384 1395 4259 
Q 1275 4134 1275 3809 
L 1275 3500 
L 2222 3500 
L 2222 3053 
L 1275 3053 
L 1275 0 
L 697 0 
L 697 3053 
L 147 3053 
L 147 3500 
L 697 3500 
L 697 3744 
Q 697 4328 969 4595 
Q 1241 4863 1831 4863 
L 2375 4863 
z
" transform="scale(0.015625)"/>
      <path id="DejaVuSans-72" d="M 2631 2963 
Q 2534 3019 2420 3045 
Q 2306 3072 2169 3072 
Q 1681 3072 1420 2755 
Q 1159 2438 1159 1844 
L 1159 0 
L 581 0 
L 581 3500 
L 1159 3500 
L 1159 2956 
Q 1341 3275 1631 3429 
Q 1922 3584 2338 3584 
Q 2397 3584 2469 3576 
Q 2541 3569 2628 3553 
L 2631 2963 
z
" transform="scale(0.015625)"/>
      <path id="DejaVuSans-6d" d="M 3328 2828 
Q 3544 3216 3844 3400 
Q 4144 3584 4550 3584 
Q 5097 3584 5394 3201 
Q 5691 2819 5691 2113 
L 5691 0 
L 5113 0 
L 5113 2094 
Q 5113 2597 4934 2840 
Q 4756 3084 4391 3084 
Q 3944 3084 3684 2787 
Q 3425 2491 3425 1978 
L 3425 0 
L 2847 0 
L 2847 2094 
Q 2847 2600 2669 2842 
Q 2491 3084 2119 3084 
Q 1678 3084 1418 2786 
Q 1159 2488 1159 1978 
L 1159 0 
L 581 0 
L 581 3500 
L 1159 3500 
L 1159 2956 
Q 1356 3278 1631 3431 
Q 1906 3584 2284 3584 
Q 2666 3584 2933 3390 
Q 3200 3197 3328 2828 
z
" transform="scale(0.015625)"/>
      <path id="DejaVuSans-65" d="M 3597 1894 
L 3597 1613 
L 953 1613 
Q 991 1019 1311 708 
Q 1631 397 2203 397 
Q 2534 397 2845 478 
Q 3156 559 3463 722 
L 3463 178 
Q 3153 47 2828 -22 
Q 2503 -91 2169 -91 
Q 1331 -91 842 396 
Q 353 884 353 1716 
Q 353 2575 817 3079 
Q 1281 3584 2069 3584 
Q 2775 3584 3186 3129 
Q 3597 2675 3597 1894 
z
M 3022 2063 
Q 3016 2534 2758 2815 
Q 2500 3097 2075 3097 
Q 1594 3097 1305 2825 
Q 1016 2553 972 2059 
L 3022 2063 
z
" transform="scale(0.015625)"/>
      <path id="DejaVuSans-64" d="M 2906 2969 
L 2906 4863 
L 3481 4863 
L 3481 0 
L 2906 0 
L 2906 525 
Q 2725 213 2448 61 
Q 2172 -91 1784 -91 
Q 1150 -91 751 415 
Q 353 922 353 1747 
Q 353 2572 751 3078 
Q 1150 3584 1784 3584 
Q 2172 3584 2448 3432 
Q 2725 3281 2906 2969 
z
M 947 1747 
Q 947 1113 1208 752 
Q 1469 391 1925 391 
Q 2381 391 2643 752 
Q 2906 1113 2906 1747 
Q 2906 2381 2643 2742 
Q 2381 3103 1925 3103 
Q 1469 3103 1208 2742 
Q 947 2381 947 1747 
z
" transform="scale(0.015625)"/>
      <path id="DejaVuSans-73" d="M 2834 3397 
L 2834 2853 
Q 2591 2978 2328 3040 
Q 2066 3103 1784 3103 
Q 1356 3103 1142 2972 
Q 928 2841 928 2578 
Q 928 2378 1081 2264 
Q 1234 2150 1697 2047 
L 1894 2003 
Q 2506 1872 2764 1633 
Q 3022 1394 3022 966 
Q 3022 478 2636 193 
Q 2250 -91 1575 -91 
Q 1294 -91 989 -36 
Q 684 19 347 128 
L 347 722 
Q 666 556 975 473 
Q 1284 391 1588 391 
Q 1994 391 2212 530 
Q 2431 669 2431 922 
Q 2431 1156 2273 1281 
Q 2116 1406 1581 1522 
L 1381 1569 
Q 847 1681 609 1914 
Q 372 2147 372 2553 
Q 372 3047 722 3315 
Q 1072 3584 1716 3584 
Q 2034 3584 2315 3537 
Q 2597 3491 2834 3397 
z
" transform="scale(0.015625)"/>
      <path id="DejaVuSans-46" d="M 628 4666 
L 3309 4666 
L 3309 4134 
L 1259 4134 
L 1259 2759 
L 3109 2759 
L 3109 2228 
L 1259 2228 
L 1259 0 
L 628 0 
L 628 4666 
z
" transform="scale(0.015625)"/>
      <path id="DejaVuSans-63" d="M 3122 3366 
L 3122 2828 
Q 2878 2963 2633 3030 
Q 2388 3097 2138 3097 
Q 1578 3097 1268 2742 
Q 959 2388 959 1747 
Q 959 1106 1268 751 
Q 1578 397 2138 397 
Q 2388 397 2633 464 
Q 2878 531 3122 666 
L 3122 134 
Q 2881 22 2623 -34 
Q 2366 -91 2075 -91 
Q 1284 -91 818 406 
Q 353 903 353 1747 
Q 353 2603 823 3093 
Q 1294 3584 2113 3584 
Q 2378 3584 2631 3529 
Q 2884 3475 3122 3366 
z
" transform="scale(0.015625)"/>
      <path id="DejaVuSans-74" d="M 1172 4494 
L 1172 3500 
L 2356 3500 
L 2356 3053 
L 1172 3053 
L 1172 1153 
Q 1172 725 1289 603 
Q 1406 481 1766 481 
L 2356 481 
L 2356 0 
L 1766 0 
Q 1100 0 847 248 
Q 594 497 594 1153 
L 594 3053 
L 172 3053 
L 172 3500 
L 594 3500 
L 594 4494 
L 1172 4494 
z
" transform="scale(0.015625)"/>
      <path id="DejaVuSans-67" d="M 2906 1791 
Q 2906 2416 2648 2759 
Q 2391 3103 1925 3103 
Q 1463 3103 1205 2759 
Q 947 2416 947 1791 
Q 947 1169 1205 825 
Q 1463 481 1925 481 
Q 2391 481 2648 825 
Q 2906 1169 2906 1791 
z
M 3481 434 
Q 3481 -459 3084 -895 
Q 2688 -1331 1869 -1331 
Q 1566 -1331 1297 -1286 
Q 1028 -1241 775 -1147 
L 775 -588 
Q 1028 -725 1275 -790 
Q 1522 -856 1778 -856 
Q 2344 -856 2625 -561 
Q 2906 -266 2906 331 
L 2906 616 
Q 2728 306 2450 153 
Q 2172 0 1784 0 
Q 1141 0 747 490 
Q 353 981 353 1791 
Q 353 2603 747 3093 
Q 1141 3584 1784 3584 
Q 2172 3584 2450 3431 
Q 2728 3278 2906 2969 
L 2906 3500 
L 3481 3500 
L 3481 434 
z
" transform="scale(0.015625)"/>
      <path id="DejaVuSans-53" d="M 3425 4513 
L 3425 3897 
Q 3066 4069 2747 4153 
Q 2428 4238 2131 4238 
Q 1616 4238 1336 4038 
Q 1056 3838 1056 3469 
Q 1056 3159 1242 3001 
Q 1428 2844 1947 2747 
L 2328 2669 
Q 3034 2534 3370 2195 
Q 3706 1856 3706 1288 
Q 3706 609 3251 259 
Q 2797 -91 1919 -91 
Q 1588 -91 1214 -16 
Q 841 59 441 206 
L 441 856 
Q 825 641 1194 531 
Q 1563 422 1919 422 
Q 2459 422 2753 634 
Q 3047 847 3047 1241 
Q 3047 1584 2836 1778 
Q 2625 1972 2144 2069 
L 1759 2144 
Q 1053 2284 737 2584 
Q 422 2884 422 3419 
Q 422 4038 858 4394 
Q 1294 4750 2059 4750 
Q 2388 4750 2728 4690 
Q 3069 4631 3425 4513 
z
" transform="scale(0.015625)"/>
      <path id="DejaVuSans-75" d="M 544 1381 
L 544 3500 
L 1119 3500 
L 1119 1403 
Q 1119 906 1312 657 
Q 1506 409 1894 409 
Q 2359 409 2629 706 
Q 2900 1003 2900 1516 
L 2900 3500 
L 3475 3500 
L 3475 0 
L 2900 0 
L 2900 538 
Q 2691 219 2414 64 
Q 2138 -91 1772 -91 
Q 1169 -91 856 284 
Q 544 659 544 1381 
z
M 1991 3584 
L 1991 3584 
z
" transform="scale(0.015625)"/>
     </defs>
     <use xlink:href="#DejaVuSans-44"/>
     <use xlink:href="#DejaVuSans-61" x="77.001953"/>
     <use xlink:href="#DejaVuSans-69" x="138.28125"/>
     <use xlink:href="#DejaVuSans-6c" x="166.064453"/>
     <use xlink:href="#DejaVuSans-79" x="193.847656"/>
     <use xlink:href="#DejaVuSans-20" x="253.027344"/>
     <use xlink:href="#DejaVuSans-43" x="284.814453"/>
     <use xlink:href="#DejaVuSans-6f" x="354.638672"/>
     <use xlink:href="#DejaVuSans-6e" x="415.820312"/>
     <use xlink:href="#DejaVuSans-66" x="479.199219"/>
     <use xlink:href="#DejaVuSans-69" x="514.404297"/>
     <use xlink:href="#DejaVuSans-72" x="542.1875"/>
     <use xlink:href="#DejaVuSans-6d" x="581.550781"/>
     <use xlink:href="#DejaVuSans-65" x="678.962891"/>
     <use xlink:href="#DejaVuSans-64" x="740.486328"/>
     <use xlink:href="#DejaVuSans-20" x="803.962891"/>
     <use xlink:href="#DejaVuSans-43" x="835.75"/>
     <use xlink:href="#DejaVuSans-61" x="905.574219"/>
     <use xlink:href="#DejaVuSans-73" x="966.853516"/>
     <use xlink:href="#DejaVuSans-65" x="1018.953125"/>
     <use xlink:href="#DejaVuSans-73" x="1080.476562"/>
     <use xlink:href="#DejaVuSans-20" x="1132.576172"/>
     <use xlink:href="#DejaVuSans-46" x="1164.363281"/>
     <use xlink:href="#DejaVuSans-6f" x="1218.257812"/>
     <use xlink:href="#DejaVuSans-72" x="1279.439453"/>
     <use xlink:href="#DejaVuSans-65" x="1318.302734"/>
     <use xlink:href="#DejaVuSans-63" x="1379.826172"/>
     <use xlink:href="#DejaVuSans-61" x="1434.806641"/>
     <use xlink:href="#DejaVuSans-73" x="1496.085938"/>
     <use xlink:href="#DejaVuSans-74" x="1548.185547"/>
     <use xlink:href="#DejaVuSans-69" x="1587.394531"/>
     <use xlink:href="#DejaVuSans-6e" x="1615.177734"/>
     <use xlink:href="#DejaVuSans-67" x="1678.556641"/>
     <use xlink:href="#DejaVuSans-20" x="1742.033203"/>
     <use xlink:href="#DejaVuSans-2d" x="1773.820312"/>
     <use xlink:href="#DejaVuSans-20" x="1809.904297"/>
     <use xlink:href="#DejaVuSans-53" x="1841.691406"/>
     <use xlink:href="#DejaVuSans-75" x="1905.167969"/>
     <use xlink:href="#DejaVuSans-72" x="1968.546875"/>
     <use xlink:href="#DejaVuSans-69" x="2009.660156"/>
     <use xlink:href="#DejaVuSans-6e" x="2037.443359"/>
     <use xlink:href="#DejaVuSans-61" x="2100.822266"/>
     <use xlink:href="#DejaVuSans-6d" x="2162.101562"/>
     <use xlink:href="#DejaVuSans-65" x="2259.513672"/>
    </g>
    <!-- ARIMA (4, 1, 1)x(1, 0, 1, 7) (R2 = 0.132810) -->
    <g transform="translate(577.265938 29.7555)scale(0.12 -0.12)">
     <defs>
      <path id="DejaVuSans-41" d="M 2188 4044 
L 1331 1722 
L 3047 1722 
L 2188 4044 
z
M 1831 4666 
L 2547 4666 
L 4325 0 
L 3669 0 
L 3244 1197 
L 1141 1197 
L 716 0 
L 50 0 
L 1831 4666 
z
" transform="scale(0.015625)"/>
      <path id="DejaVuSans-52" d="M 2841 2188 
Q 3044 2119 3236 1894 
Q 3428 1669 3622 1275 
L 4263 0 
L 3584 0 
L 2988 1197 
Q 2756 1666 2539 1819 
Q 2322 1972 1947 1972 
L 1259 1972 
L 1259 0 
L 628 0 
L 628 4666 
L 2053 4666 
Q 2853 4666 3247 4331 
Q 3641 3997 3641 3322 
Q 3641 2881 3436 2590 
Q 3231 2300 2841 2188 
z
M 1259 4147 
L 1259 2491 
L 2053 2491 
Q 2509 2491 2742 2702 
Q 2975 2913 2975 3322 
Q 2975 3731 2742 3939 
Q 2509 4147 2053 4147 
L 1259 4147 
z
" transform="scale(0.015625)"/>
      <path id="DejaVuSans-49" d="M 628 4666 
L 1259 4666 
L 1259 0 
L 628 0 
L 628 4666 
z
" transform="scale(0.015625)"/>
      <path id="DejaVuSans-4d" d="M 628 4666 
L 1569 4666 
L 2759 1491 
L 3956 4666 
L 4897 4666 
L 4897 0 
L 4281 0 
L 4281 4097 
L 3078 897 
L 2444 897 
L 1241 4097 
L 1241 0 
L 628 0 
L 628 4666 
z
" transform="scale(0.015625)"/>
      <path id="DejaVuSans-28" d="M 1984 4856 
Q 1566 4138 1362 3434 
Q 1159 2731 1159 2009 
Q 1159 1288 1364 580 
Q 1569 -128 1984 -844 
L 1484 -844 
Q 1016 -109 783 600 
Q 550 1309 550 2009 
Q 550 2706 781 3412 
Q 1013 4119 1484 4856 
L 1984 4856 
z
" transform="scale(0.015625)"/>
      <path id="DejaVuSans-2c" d="M 750 794 
L 1409 794 
L 1409 256 
L 897 -744 
L 494 -744 
L 750 256 
L 750 794 
z
" transform="scale(0.015625)"/>
      <path id="DejaVuSans-29" d="M 513 4856 
L 1013 4856 
Q 1481 4119 1714 3412 
Q 1947 2706 1947 2009 
Q 1947 1309 1714 600 
Q 1481 -109 1013 -844 
L 513 -844 
Q 928 -128 1133 580 
Q 1338 1288 1338 2009 
Q 1338 2731 1133 3434 
Q 928 4138 513 4856 
z
" transform="scale(0.015625)"/>
      <path id="DejaVuSans-78" d="M 3513 3500 
L 2247 1797 
L 3578 0 
L 2900 0 
L 1881 1375 
L 863 0 
L 184 0 
L 1544 1831 
L 300 3500 
L 978 3500 
L 1906 2253 
L 2834 3500 
L 3513 3500 
z
" transform="scale(0.015625)"/>
      <path id="DejaVuSans-37" d="M 525 4666 
L 3525 4666 
L 3525 4397 
L 1831 0 
L 1172 0 
L 2766 4134 
L 525 4134 
L 525 4666 
z
" transform="scale(0.015625)"/>
      <path id="DejaVuSans-3d" d="M 678 2906 
L 4684 2906 
L 4684 2381 
L 678 2381 
L 678 2906 
z
M 678 1631 
L 4684 1631 
L 4684 1100 
L 678 1100 
L 678 1631 
z
" transform="scale(0.015625)"/>
      <path id="DejaVuSans-2e" d="M 684 794 
L 1344 794 
L 1344 0 
L 684 0 
L 684 794 
z
" transform="scale(0.015625)"/>
     </defs>
     <use xlink:href="#DejaVuSans-41"/>
     <use xlink:href="#DejaVuSans-52" x="68.408203"/>
     <use xlink:href="#DejaVuSans-49" x="137.890625"/>
     <use xlink:href="#DejaVuSans-4d" x="167.382812"/>
     <use xlink:href="#DejaVuSans-41" x="253.662109"/>
     <use xlink:href="#DejaVuSans-20" x="322.070312"/>
     <use xlink:href="#DejaVuSans-28" x="353.857422"/>
     <use xlink:href="#DejaVuSans-34" x="392.871094"/>
     <use xlink:href="#DejaVuSans-2c" x="456.494141"/>
     <use xlink:href="#DejaVuSans-20" x="488.28125"/>
     <use xlink:href="#DejaVuSans-31" x="520.068359"/>
     <use xlink:href="#DejaVuSans-2c" x="583.691406"/>
     <use xlink:href="#DejaVuSans-20" x="615.478516"/>
     <use xlink:href="#DejaVuSans-31" x="647.265625"/>
     <use xlink:href="#DejaVuSans-29" x="710.888672"/>
     <use xlink:href="#DejaVuSans-78" x="749.902344"/>
     <use xlink:href="#DejaVuSans-28" x="809.082031"/>
     <use xlink:href="#DejaVuSans-31" x="848.095703"/>
     <use xlink:href="#DejaVuSans-2c" x="911.71875"/>
     <use xlink:href="#DejaVuSans-20" x="943.505859"/>
     <use xlink:href="#DejaVuSans-30" x="975.292969"/>
     <use xlink:href="#DejaVuSans-2c" x="1038.916016"/>
     <use xlink:href="#DejaVuSans-20" x="1070.703125"/>
     <use xlink:href="#DejaVuSans-31" x="1102.490234"/>
     <use xlink:href="#DejaVuSans-2c" x="1166.113281"/>
     <use xlink:href="#DejaVuSans-20" x="1197.900391"/>
     <use xlink:href="#DejaVuSans-37" x="1229.6875"/>
     <use xlink:href="#DejaVuSans-29" x="1293.310547"/>
     <use xlink:href="#DejaVuSans-20" x="1332.324219"/>
     <use xlink:href="#DejaVuSans-28" x="1364.111328"/>
     <use xlink:href="#DejaVuSans-52" x="1403.125"/>
     <use xlink:href="#DejaVuSans-32" x="1472.607422"/>
     <use xlink:href="#DejaVuSans-20" x="1536.230469"/>
     <use xlink:href="#DejaVuSans-3d" x="1568.017578"/>
     <use xlink:href="#DejaVuSans-20" x="1651.806641"/>
     <use xlink:href="#DejaVuSans-30" x="1683.59375"/>
     <use xlink:href="#DejaVuSans-2e" x="1747.216797"/>
     <use xlink:href="#DejaVuSans-31" x="1779.003906"/>
     <use xlink:href="#DejaVuSans-33" x="1842.626953"/>
     <use xlink:href="#DejaVuSans-32" x="1906.25"/>
     <use xlink:href="#DejaVuSans-38" x="1969.873047"/>
     <use xlink:href="#DejaVuSans-31" x="2033.496094"/>
     <use xlink:href="#DejaVuSans-30" x="2097.119141"/>
     <use xlink:href="#DejaVuSans-29" x="2160.742188"/>
    </g>
   </g>
   <g id="legend_1">
    <g id="patch_7">
     <path d="M 1274.770313 87.789875 
L 1371.85 87.789875 
Q 1373.85 87.789875 1373.85 85.789875 
L 1373.85 42.7555 
Q 1373.85 40.7555 1371.85 40.7555 
L 1274.770313 40.7555 
Q 1272.770313 40.7555 1272.770313 42.7555 
L 1272.770313 85.789875 
Q 1272.770313 87.789875 1274.770313 87.789875 
z
" style="fill: #ffffff; opacity: 0.8; stroke: #cccccc; stroke-linejoin: miter"/>
    </g>
    <g id="line2d_22">
     <path d="M 1276.770313 48.853937 
L 1286.770313 48.853937 
L 1296.770313 48.853937 
" style="fill: none; stroke: #0000ff; stroke-width: 1.5; stroke-linecap: square"/>
    </g>
    <g id="text_20">
     <!-- Actual Value -->
     <g transform="translate(1304.770313 52.353937)scale(0.1 -0.1)">
      <defs>
       <path id="DejaVuSans-56" d="M 1831 0 
L 50 4666 
L 709 4666 
L 2188 738 
L 3669 4666 
L 4325 4666 
L 2547 0 
L 1831 0 
z
" transform="scale(0.015625)"/>
      </defs>
      <use xlink:href="#DejaVuSans-41"/>
      <use xlink:href="#DejaVuSans-63" x="66.658203"/>
      <use xlink:href="#DejaVuSans-74" x="121.638672"/>
      <use xlink:href="#DejaVuSans-75" x="160.847656"/>
      <use xlink:href="#DejaVuSans-61" x="224.226562"/>
      <use xlink:href="#DejaVuSans-6c" x="285.505859"/>
      <use xlink:href="#DejaVuSans-20" x="313.289062"/>
      <use xlink:href="#DejaVuSans-56" x="345.076172"/>
      <use xlink:href="#DejaVuSans-61" x="405.734375"/>
      <use xlink:href="#DejaVuSans-6c" x="467.013672"/>
      <use xlink:href="#DejaVuSans-75" x="494.796875"/>
      <use xlink:href="#DejaVuSans-65" x="558.175781"/>
     </g>
    </g>
    <g id="line2d_23">
     <path d="M 1276.770313 63.532062 
L 1286.770313 63.532062 
L 1296.770313 63.532062 
" style="fill: none; stroke: #ffa500; stroke-width: 1.5; stroke-linecap: square"/>
    </g>
    <g id="text_21">
     <!-- Check Value -->
     <g transform="translate(1304.770313 67.032062)scale(0.1 -0.1)">
      <defs>
       <path id="DejaVuSans-68" d="M 3513 2113 
L 3513 0 
L 2938 0 
L 2938 2094 
Q 2938 2591 2744 2837 
Q 2550 3084 2163 3084 
Q 1697 3084 1428 2787 
Q 1159 2491 1159 1978 
L 1159 0 
L 581 0 
L 581 4863 
L 1159 4863 
L 1159 2956 
Q 1366 3272 1645 3428 
Q 1925 3584 2291 3584 
Q 2894 3584 3203 3211 
Q 3513 2838 3513 2113 
z
" transform="scale(0.015625)"/>
       <path id="DejaVuSans-6b" d="M 581 4863 
L 1159 4863 
L 1159 1991 
L 2875 3500 
L 3609 3500 
L 1753 1863 
L 3688 0 
L 2938 0 
L 1159 1709 
L 1159 0 
L 581 0 
L 581 4863 
z
" transform="scale(0.015625)"/>
      </defs>
      <use xlink:href="#DejaVuSans-43"/>
      <use xlink:href="#DejaVuSans-68" x="69.824219"/>
      <use xlink:href="#DejaVuSans-65" x="133.203125"/>
      <use xlink:href="#DejaVuSans-63" x="194.726562"/>
      <use xlink:href="#DejaVuSans-6b" x="249.707031"/>
      <use xlink:href="#DejaVuSans-20" x="307.617188"/>
      <use xlink:href="#DejaVuSans-56" x="339.404297"/>
      <use xlink:href="#DejaVuSans-61" x="400.0625"/>
      <use xlink:href="#DejaVuSans-6c" x="461.341797"/>
      <use xlink:href="#DejaVuSans-75" x="489.125"/>
      <use xlink:href="#DejaVuSans-65" x="552.503906"/>
     </g>
    </g>
    <g id="line2d_24">
     <path d="M 1276.770313 78.210187 
L 1286.770313 78.210187 
L 1296.770313 78.210187 
" style="fill: none; stroke: #ff0000; stroke-width: 1.5; stroke-linecap: square"/>
    </g>
    <g id="text_22">
     <!-- Predict Value -->
     <g transform="translate(1304.770313 81.710187)scale(0.1 -0.1)">
      <defs>
       <path id="DejaVuSans-50" d="M 1259 4147 
L 1259 2394 
L 2053 2394 
Q 2494 2394 2734 2622 
Q 2975 2850 2975 3272 
Q 2975 3691 2734 3919 
Q 2494 4147 2053 4147 
L 1259 4147 
z
M 628 4666 
L 2053 4666 
Q 2838 4666 3239 4311 
Q 3641 3956 3641 3272 
Q 3641 2581 3239 2228 
Q 2838 1875 2053 1875 
L 1259 1875 
L 1259 0 
L 628 0 
L 628 4666 
z
" transform="scale(0.015625)"/>
      </defs>
      <use xlink:href="#DejaVuSans-50"/>
      <use xlink:href="#DejaVuSans-72" x="58.552734"/>
      <use xlink:href="#DejaVuSans-65" x="97.416016"/>
      <use xlink:href="#DejaVuSans-64" x="158.939453"/>
      <use xlink:href="#DejaVuSans-69" x="222.416016"/>
      <use xlink:href="#DejaVuSans-63" x="250.199219"/>
      <use xlink:href="#DejaVuSans-74" x="305.179688"/>
      <use xlink:href="#DejaVuSans-20" x="344.388672"/>
      <use xlink:href="#DejaVuSans-56" x="376.175781"/>
      <use xlink:href="#DejaVuSans-61" x="436.833984"/>
      <use xlink:href="#DejaVuSans-6c" x="498.113281"/>
      <use xlink:href="#DejaVuSans-75" x="525.896484"/>
      <use xlink:href="#DejaVuSans-65" x="589.275391"/>
     </g>
    </g>
   </g>
  </g>
 </g>
 <defs>
  <clipPath id="p245226fa64">
   <rect x="39.65" y="35.7555" width="1339.2" height="332.64"/>
  </clipPath>
 </defs>
</svg>
