<?xml version="1.0" encoding="utf-8" standalone="no"?>
<!DOCTYPE svg PUBLIC "-//W3C//DTD SVG 1.1//EN"
  "http://www.w3.org/Graphics/SVG/1.1/DTD/svg11.dtd">
<svg xmlns:xlink="http://www.w3.org/1999/xlink" width="1380.815034pt" height="392.273625pt" viewBox="0 0 1380.815034 392.273625" xmlns="http://www.w3.org/2000/svg" version="1.1">
 <metadata>
  <rdf:RDF xmlns:dc="http://purl.org/dc/elements/1.1/" xmlns:cc="http://creativecommons.org/ns#" xmlns:rdf="http://www.w3.org/1999/02/22-rdf-syntax-ns#">
   <cc:Work>
    <dc:type rdf:resource="http://purl.org/dc/dcmitype/StillImage"/>
    <dc:date>2023-10-01T19:12:23.818537</dc:date>
    <dc:format>image/svg+xml</dc:format>
    <dc:creator>
     <cc:Agent>
      <dc:title>Matplotlib v3.5.1, https://matplotlib.org/</dc:title>
     </cc:Agent>
    </dc:creator>
   </cc:Work>
  </rdf:RDF>
 </metadata>
 <defs>
  <style type="text/css">*{stroke-linejoin: round; stroke-linecap: butt}</style>
 </defs>
 <g id="figure_1">
  <g id="patch_1">
   <path d="M 0 392.273625 
L 1380.815034 392.273625 
L 1380.815034 0 
L 0 0 
z
" style="fill: #ffffff"/>
  </g>
  <g id="axes_1">
   <g id="patch_2">
    <path d="M 33.2875 368.3955 
L 1372.4875 368.3955 
L 1372.4875 35.7555 
L 33.2875 35.7555 
z
" style="fill: #ffffff"/>
   </g>
   <g id="matplotlib.axis_1">
    <g id="xtick_1">
     <g id="line2d_1">
      <defs>
       <path id="m3930914361" d="M 0 0 
L 0 3.5 
" style="stroke: #000000; stroke-width: 0.8"/>
      </defs>
      <g>
       <use xlink:href="#m3930914361" x="70.970617" y="368.3955" style="stroke: #000000; stroke-width: 0.8"/>
      </g>
     </g>
     <g id="text_1">
      <!-- 2020-01 -->
      <g transform="translate(50.079211 382.993937)scale(0.1 -0.1)">
       <defs>
        <path id="DejaVuSans-32" d="M 1228 531 
L 3431 531 
L 3431 0 
L 469 0 
L 469 531 
Q 828 903 1448 1529 
Q 2069 2156 2228 2338 
Q 2531 2678 2651 2914 
Q 2772 3150 2772 3378 
Q 2772 3750 2511 3984 
Q 2250 4219 1831 4219 
Q 1534 4219 1204 4116 
Q 875 4013 500 3803 
L 500 4441 
Q 881 4594 1212 4672 
Q 1544 4750 1819 4750 
Q 2544 4750 2975 4387 
Q 3406 4025 3406 3419 
Q 3406 3131 3298 2873 
Q 3191 2616 2906 2266 
Q 2828 2175 2409 1742 
Q 1991 1309 1228 531 
z
" transform="scale(0.015625)"/>
        <path id="DejaVuSans-30" d="M 2034 4250 
Q 1547 4250 1301 3770 
Q 1056 3291 1056 2328 
Q 1056 1369 1301 889 
Q 1547 409 2034 409 
Q 2525 409 2770 889 
Q 3016 1369 3016 2328 
Q 3016 3291 2770 3770 
Q 2525 4250 2034 4250 
z
M 2034 4750 
Q 2819 4750 3233 4129 
Q 3647 3509 3647 2328 
Q 3647 1150 3233 529 
Q 2819 -91 2034 -91 
Q 1250 -91 836 529 
Q 422 1150 422 2328 
Q 422 3509 836 4129 
Q 1250 4750 2034 4750 
z
" transform="scale(0.015625)"/>
        <path id="DejaVuSans-2d" d="M 313 2009 
L 1997 2009 
L 1997 1497 
L 313 1497 
L 313 2009 
z
" transform="scale(0.015625)"/>
        <path id="DejaVuSans-31" d="M 794 531 
L 1825 531 
L 1825 4091 
L 703 3866 
L 703 4441 
L 1819 4666 
L 2450 4666 
L 2450 531 
L 3481 531 
L 3481 0 
L 794 0 
L 794 531 
z
" transform="scale(0.015625)"/>
       </defs>
       <use xlink:href="#DejaVuSans-32"/>
       <use xlink:href="#DejaVuSans-30" x="63.623047"/>
       <use xlink:href="#DejaVuSans-32" x="127.246094"/>
       <use xlink:href="#DejaVuSans-30" x="190.869141"/>
       <use xlink:href="#DejaVuSans-2d" x="254.492188"/>
       <use xlink:href="#DejaVuSans-30" x="290.576172"/>
       <use xlink:href="#DejaVuSans-31" x="354.199219"/>
      </g>
     </g>
    </g>
    <g id="xtick_2">
     <g id="line2d_2">
      <g>
       <use xlink:href="#m3930914361" x="198.513474" y="368.3955" style="stroke: #000000; stroke-width: 0.8"/>
      </g>
     </g>
     <g id="text_2">
      <!-- 2020-05 -->
      <g transform="translate(177.622068 382.993937)scale(0.1 -0.1)">
       <defs>
        <path id="DejaVuSans-35" d="M 691 4666 
L 3169 4666 
L 3169 4134 
L 1269 4134 
L 1269 2991 
Q 1406 3038 1543 3061 
Q 1681 3084 1819 3084 
Q 2600 3084 3056 2656 
Q 3513 2228 3513 1497 
Q 3513 744 3044 326 
Q 2575 -91 1722 -91 
Q 1428 -91 1123 -41 
Q 819 9 494 109 
L 494 744 
Q 775 591 1075 516 
Q 1375 441 1709 441 
Q 2250 441 2565 725 
Q 2881 1009 2881 1497 
Q 2881 1984 2565 2268 
Q 2250 2553 1709 2553 
Q 1456 2553 1204 2497 
Q 953 2441 691 2322 
L 691 4666 
z
" transform="scale(0.015625)"/>
       </defs>
       <use xlink:href="#DejaVuSans-32"/>
       <use xlink:href="#DejaVuSans-30" x="63.623047"/>
       <use xlink:href="#DejaVuSans-32" x="127.246094"/>
       <use xlink:href="#DejaVuSans-30" x="190.869141"/>
       <use xlink:href="#DejaVuSans-2d" x="254.492188"/>
       <use xlink:href="#DejaVuSans-30" x="290.576172"/>
       <use xlink:href="#DejaVuSans-35" x="354.199219"/>
      </g>
     </g>
    </g>
    <g id="xtick_3">
     <g id="line2d_3">
      <g>
       <use xlink:href="#m3930914361" x="328.164478" y="368.3955" style="stroke: #000000; stroke-width: 0.8"/>
      </g>
     </g>
     <g id="text_3">
      <!-- 2020-09 -->
      <g transform="translate(307.273071 382.993937)scale(0.1 -0.1)">
       <defs>
        <path id="DejaVuSans-39" d="M 703 97 
L 703 672 
Q 941 559 1184 500 
Q 1428 441 1663 441 
Q 2288 441 2617 861 
Q 2947 1281 2994 2138 
Q 2813 1869 2534 1725 
Q 2256 1581 1919 1581 
Q 1219 1581 811 2004 
Q 403 2428 403 3163 
Q 403 3881 828 4315 
Q 1253 4750 1959 4750 
Q 2769 4750 3195 4129 
Q 3622 3509 3622 2328 
Q 3622 1225 3098 567 
Q 2575 -91 1691 -91 
Q 1453 -91 1209 -44 
Q 966 3 703 97 
z
M 1959 2075 
Q 2384 2075 2632 2365 
Q 2881 2656 2881 3163 
Q 2881 3666 2632 3958 
Q 2384 4250 1959 4250 
Q 1534 4250 1286 3958 
Q 1038 3666 1038 3163 
Q 1038 2656 1286 2365 
Q 1534 2075 1959 2075 
z
" transform="scale(0.015625)"/>
       </defs>
       <use xlink:href="#DejaVuSans-32"/>
       <use xlink:href="#DejaVuSans-30" x="63.623047"/>
       <use xlink:href="#DejaVuSans-32" x="127.246094"/>
       <use xlink:href="#DejaVuSans-30" x="190.869141"/>
       <use xlink:href="#DejaVuSans-2d" x="254.492188"/>
       <use xlink:href="#DejaVuSans-30" x="290.576172"/>
       <use xlink:href="#DejaVuSans-39" x="354.199219"/>
      </g>
     </g>
    </g>
    <g id="xtick_4">
     <g id="line2d_4">
      <g>
       <use xlink:href="#m3930914361" x="456.761408" y="368.3955" style="stroke: #000000; stroke-width: 0.8"/>
      </g>
     </g>
     <g id="text_4">
      <!-- 2021-01 -->
      <g transform="translate(435.870002 382.993937)scale(0.1 -0.1)">
       <use xlink:href="#DejaVuSans-32"/>
       <use xlink:href="#DejaVuSans-30" x="63.623047"/>
       <use xlink:href="#DejaVuSans-32" x="127.246094"/>
       <use xlink:href="#DejaVuSans-31" x="190.869141"/>
       <use xlink:href="#DejaVuSans-2d" x="254.492188"/>
       <use xlink:href="#DejaVuSans-30" x="290.576172"/>
       <use xlink:href="#DejaVuSans-31" x="354.199219"/>
      </g>
     </g>
    </g>
    <g id="xtick_5">
     <g id="line2d_5">
      <g>
       <use xlink:href="#m3930914361" x="583.250192" y="368.3955" style="stroke: #000000; stroke-width: 0.8"/>
      </g>
     </g>
     <g id="text_5">
      <!-- 2021-05 -->
      <g transform="translate(562.358786 382.993937)scale(0.1 -0.1)">
       <use xlink:href="#DejaVuSans-32"/>
       <use xlink:href="#DejaVuSans-30" x="63.623047"/>
       <use xlink:href="#DejaVuSans-32" x="127.246094"/>
       <use xlink:href="#DejaVuSans-31" x="190.869141"/>
       <use xlink:href="#DejaVuSans-2d" x="254.492188"/>
       <use xlink:href="#DejaVuSans-30" x="290.576172"/>
       <use xlink:href="#DejaVuSans-35" x="354.199219"/>
      </g>
     </g>
    </g>
    <g id="xtick_6">
     <g id="line2d_6">
      <g>
       <use xlink:href="#m3930914361" x="712.901195" y="368.3955" style="stroke: #000000; stroke-width: 0.8"/>
      </g>
     </g>
     <g id="text_6">
      <!-- 2021-09 -->
      <g transform="translate(692.009789 382.993937)scale(0.1 -0.1)">
       <use xlink:href="#DejaVuSans-32"/>
       <use xlink:href="#DejaVuSans-30" x="63.623047"/>
       <use xlink:href="#DejaVuSans-32" x="127.246094"/>
       <use xlink:href="#DejaVuSans-31" x="190.869141"/>
       <use xlink:href="#DejaVuSans-2d" x="254.492188"/>
       <use xlink:href="#DejaVuSans-30" x="290.576172"/>
       <use xlink:href="#DejaVuSans-39" x="354.199219"/>
      </g>
     </g>
    </g>
    <g id="xtick_7">
     <g id="line2d_7">
      <g>
       <use xlink:href="#m3930914361" x="841.498126" y="368.3955" style="stroke: #000000; stroke-width: 0.8"/>
      </g>
     </g>
     <g id="text_7">
      <!-- 2022-01 -->
      <g transform="translate(820.606719 382.993937)scale(0.1 -0.1)">
       <use xlink:href="#DejaVuSans-32"/>
       <use xlink:href="#DejaVuSans-30" x="63.623047"/>
       <use xlink:href="#DejaVuSans-32" x="127.246094"/>
       <use xlink:href="#DejaVuSans-32" x="190.869141"/>
       <use xlink:href="#DejaVuSans-2d" x="254.492188"/>
       <use xlink:href="#DejaVuSans-30" x="290.576172"/>
       <use xlink:href="#DejaVuSans-31" x="354.199219"/>
      </g>
     </g>
    </g>
    <g id="xtick_8">
     <g id="line2d_8">
      <g>
       <use xlink:href="#m3930914361" x="967.98691" y="368.3955" style="stroke: #000000; stroke-width: 0.8"/>
      </g>
     </g>
     <g id="text_8">
      <!-- 2022-05 -->
      <g transform="translate(947.095503 382.993937)scale(0.1 -0.1)">
       <use xlink:href="#DejaVuSans-32"/>
       <use xlink:href="#DejaVuSans-30" x="63.623047"/>
       <use xlink:href="#DejaVuSans-32" x="127.246094"/>
       <use xlink:href="#DejaVuSans-32" x="190.869141"/>
       <use xlink:href="#DejaVuSans-2d" x="254.492188"/>
       <use xlink:href="#DejaVuSans-30" x="290.576172"/>
       <use xlink:href="#DejaVuSans-35" x="354.199219"/>
      </g>
     </g>
    </g>
    <g id="xtick_9">
     <g id="line2d_9">
      <g>
       <use xlink:href="#m3930914361" x="1097.637913" y="368.3955" style="stroke: #000000; stroke-width: 0.8"/>
      </g>
     </g>
     <g id="text_9">
      <!-- 2022-09 -->
      <g transform="translate(1076.746507 382.993937)scale(0.1 -0.1)">
       <use xlink:href="#DejaVuSans-32"/>
       <use xlink:href="#DejaVuSans-30" x="63.623047"/>
       <use xlink:href="#DejaVuSans-32" x="127.246094"/>
       <use xlink:href="#DejaVuSans-32" x="190.869141"/>
       <use xlink:href="#DejaVuSans-2d" x="254.492188"/>
       <use xlink:href="#DejaVuSans-30" x="290.576172"/>
       <use xlink:href="#DejaVuSans-39" x="354.199219"/>
      </g>
     </g>
    </g>
    <g id="xtick_10">
     <g id="line2d_10">
      <g>
       <use xlink:href="#m3930914361" x="1226.234844" y="368.3955" style="stroke: #000000; stroke-width: 0.8"/>
      </g>
     </g>
     <g id="text_10">
      <!-- 2023-01 -->
      <g transform="translate(1205.343437 382.993937)scale(0.1 -0.1)">
       <defs>
        <path id="DejaVuSans-33" d="M 2597 2516 
Q 3050 2419 3304 2112 
Q 3559 1806 3559 1356 
Q 3559 666 3084 287 
Q 2609 -91 1734 -91 
Q 1441 -91 1130 -33 
Q 819 25 488 141 
L 488 750 
Q 750 597 1062 519 
Q 1375 441 1716 441 
Q 2309 441 2620 675 
Q 2931 909 2931 1356 
Q 2931 1769 2642 2001 
Q 2353 2234 1838 2234 
L 1294 2234 
L 1294 2753 
L 1863 2753 
Q 2328 2753 2575 2939 
Q 2822 3125 2822 3475 
Q 2822 3834 2567 4026 
Q 2313 4219 1838 4219 
Q 1578 4219 1281 4162 
Q 984 4106 628 3988 
L 628 4550 
Q 988 4650 1302 4700 
Q 1616 4750 1894 4750 
Q 2613 4750 3031 4423 
Q 3450 4097 3450 3541 
Q 3450 3153 3228 2886 
Q 3006 2619 2597 2516 
z
" transform="scale(0.015625)"/>
       </defs>
       <use xlink:href="#DejaVuSans-32"/>
       <use xlink:href="#DejaVuSans-30" x="63.623047"/>
       <use xlink:href="#DejaVuSans-32" x="127.246094"/>
       <use xlink:href="#DejaVuSans-33" x="190.869141"/>
       <use xlink:href="#DejaVuSans-2d" x="254.492188"/>
       <use xlink:href="#DejaVuSans-30" x="290.576172"/>
       <use xlink:href="#DejaVuSans-31" x="354.199219"/>
      </g>
     </g>
    </g>
    <g id="xtick_11">
     <g id="line2d_11">
      <g>
       <use xlink:href="#m3930914361" x="1352.723628" y="368.3955" style="stroke: #000000; stroke-width: 0.8"/>
      </g>
     </g>
     <g id="text_11">
      <!-- 2023-05 -->
      <g transform="translate(1331.832221 382.993937)scale(0.1 -0.1)">
       <use xlink:href="#DejaVuSans-32"/>
       <use xlink:href="#DejaVuSans-30" x="63.623047"/>
       <use xlink:href="#DejaVuSans-32" x="127.246094"/>
       <use xlink:href="#DejaVuSans-33" x="190.869141"/>
       <use xlink:href="#DejaVuSans-2d" x="254.492188"/>
       <use xlink:href="#DejaVuSans-30" x="290.576172"/>
       <use xlink:href="#DejaVuSans-35" x="354.199219"/>
      </g>
     </g>
    </g>
   </g>
   <g id="matplotlib.axis_2">
    <g id="ytick_1">
     <g id="line2d_12">
      <defs>
       <path id="maf06d8f41c" d="M 0 0 
L -3.5 0 
" style="stroke: #000000; stroke-width: 0.8"/>
      </defs>
      <g>
       <use xlink:href="#maf06d8f41c" x="33.2875" y="350.459858" style="stroke: #000000; stroke-width: 0.8"/>
      </g>
     </g>
     <g id="text_12">
      <!-- 0 -->
      <g transform="translate(19.925 354.259076)scale(0.1 -0.1)">
       <use xlink:href="#DejaVuSans-30"/>
      </g>
     </g>
    </g>
    <g id="ytick_2">
     <g id="line2d_13">
      <g>
       <use xlink:href="#maf06d8f41c" x="33.2875" y="294.147008" style="stroke: #000000; stroke-width: 0.8"/>
      </g>
     </g>
     <g id="text_13">
      <!-- 100 -->
      <g transform="translate(7.2 297.946227)scale(0.1 -0.1)">
       <use xlink:href="#DejaVuSans-31"/>
       <use xlink:href="#DejaVuSans-30" x="63.623047"/>
       <use xlink:href="#DejaVuSans-30" x="127.246094"/>
      </g>
     </g>
    </g>
    <g id="ytick_3">
     <g id="line2d_14">
      <g>
       <use xlink:href="#maf06d8f41c" x="33.2875" y="237.834159" style="stroke: #000000; stroke-width: 0.8"/>
      </g>
     </g>
     <g id="text_14">
      <!-- 200 -->
      <g transform="translate(7.2 241.633378)scale(0.1 -0.1)">
       <use xlink:href="#DejaVuSans-32"/>
       <use xlink:href="#DejaVuSans-30" x="63.623047"/>
       <use xlink:href="#DejaVuSans-30" x="127.246094"/>
      </g>
     </g>
    </g>
    <g id="ytick_4">
     <g id="line2d_15">
      <g>
       <use xlink:href="#maf06d8f41c" x="33.2875" y="181.52131" style="stroke: #000000; stroke-width: 0.8"/>
      </g>
     </g>
     <g id="text_15">
      <!-- 300 -->
      <g transform="translate(7.2 185.320529)scale(0.1 -0.1)">
       <use xlink:href="#DejaVuSans-33"/>
       <use xlink:href="#DejaVuSans-30" x="63.623047"/>
       <use xlink:href="#DejaVuSans-30" x="127.246094"/>
      </g>
     </g>
    </g>
    <g id="ytick_5">
     <g id="line2d_16">
      <g>
       <use xlink:href="#maf06d8f41c" x="33.2875" y="125.208461" style="stroke: #000000; stroke-width: 0.8"/>
      </g>
     </g>
     <g id="text_16">
      <!-- 400 -->
      <g transform="translate(7.2 129.00768)scale(0.1 -0.1)">
       <defs>
        <path id="DejaVuSans-34" d="M 2419 4116 
L 825 1625 
L 2419 1625 
L 2419 4116 
z
M 2253 4666 
L 3047 4666 
L 3047 1625 
L 3713 1625 
L 3713 1100 
L 3047 1100 
L 3047 0 
L 2419 0 
L 2419 1100 
L 313 1100 
L 313 1709 
L 2253 4666 
z
" transform="scale(0.015625)"/>
       </defs>
       <use xlink:href="#DejaVuSans-34"/>
       <use xlink:href="#DejaVuSans-30" x="63.623047"/>
       <use xlink:href="#DejaVuSans-30" x="127.246094"/>
      </g>
     </g>
    </g>
    <g id="ytick_6">
     <g id="line2d_17">
      <g>
       <use xlink:href="#maf06d8f41c" x="33.2875" y="68.895612" style="stroke: #000000; stroke-width: 0.8"/>
      </g>
     </g>
     <g id="text_17">
      <!-- 500 -->
      <g transform="translate(7.2 72.69483)scale(0.1 -0.1)">
       <use xlink:href="#DejaVuSans-35"/>
       <use xlink:href="#DejaVuSans-30" x="63.623047"/>
       <use xlink:href="#DejaVuSans-30" x="127.246094"/>
      </g>
     </g>
    </g>
   </g>
   <g id="line2d_18">
    <path d="M 94.160227 350.459858 
L 155.296473 350.459858 
L 156.350546 349.896729 
L 157.404619 350.459858 
L 175.323864 350.459858 
L 176.377937 349.896729 
L 177.43201 350.459858 
L 178.486083 350.459858 
L 179.540156 349.333601 
L 181.648303 349.333601 
L 182.702376 344.828573 
L 183.756449 350.459858 
L 184.810522 350.459858 
L 185.864596 349.896729 
L 186.918669 348.770472 
L 187.972742 349.896729 
L 189.026815 350.459858 
L 190.080888 350.459858 
L 191.134962 349.896729 
L 192.189035 350.459858 
L 297.596355 350.459858 
L 298.650428 349.896729 
L 299.704501 350.459858 
L 316.569672 350.459858 
L 317.623746 349.896729 
L 318.677819 350.459858 
L 321.840038 350.459858 
L 322.894112 349.896729 
L 323.948185 350.459858 
L 356.624454 350.459858 
L 357.678527 349.896729 
L 358.7326 350.459858 
L 370.327406 350.459858 
L 371.381479 349.896729 
L 372.435552 350.459858 
L 385.08443 350.459858 
L 386.138504 349.896729 
L 387.192577 350.459858 
L 424.085139 350.459858 
L 425.139212 349.896729 
L 426.193285 350.459858 
L 446.220676 350.459858 
L 447.274749 349.333601 
L 448.328822 345.95483 
L 449.382896 350.459858 
L 451.491042 350.459858 
L 452.545115 348.770472 
L 453.599188 350.459858 
L 457.815481 350.459858 
L 458.869554 349.333601 
L 459.923628 348.770472 
L 460.977701 350.459858 
L 468.356213 350.459858 
L 469.410286 349.333601 
L 470.46436 350.459858 
L 471.518433 350.459858 
L 472.572506 349.896729 
L 473.626579 350.459858 
L 475.734726 350.459858 
L 476.788799 349.896729 
L 477.842872 350.459858 
L 478.896945 350.459858 
L 479.951018 344.265444 
L 481.005091 348.770472 
L 482.059165 350.459858 
L 483.113238 350.459858 
L 484.167311 349.896729 
L 485.221384 350.459858 
L 486.275457 349.896729 
L 487.329531 349.896729 
L 488.383604 350.459858 
L 489.437677 350.459858 
L 490.49175 347.644215 
L 491.545823 349.333601 
L 492.599897 348.770472 
L 493.65397 350.459858 
L 496.816189 350.459858 
L 497.870263 347.081087 
L 498.924336 350.459858 
L 499.978409 342.576059 
L 501.032482 350.459858 
L 502.086555 349.896729 
L 503.140629 349.896729 
L 504.194702 350.459858 
L 506.302848 350.459858 
L 507.356921 349.896729 
L 508.410995 350.459858 
L 511.573214 350.459858 
L 512.627287 348.207344 
L 513.681361 349.333601 
L 515.789507 350.459858 
L 517.897653 349.333601 
L 518.951727 350.459858 
L 522.113946 350.459858 
L 523.168019 347.081087 
L 524.222093 350.459858 
L 525.276166 348.770472 
L 526.330239 346.517958 
L 527.384312 343.139187 
L 528.438385 348.770472 
L 529.492459 342.576059 
L 531.600605 345.95483 
L 532.654678 340.323545 
L 533.708751 346.517958 
L 534.762825 347.644215 
L 535.816898 345.95483 
L 536.870971 343.139187 
L 537.925044 337.507902 
L 538.979117 339.760416 
L 540.033191 319.487791 
L 541.087264 345.391701 
L 542.141337 341.449802 
L 543.19541 338.634159 
L 544.249483 338.071031 
L 545.303557 317.798405 
L 546.35763 334.69226 
L 547.411703 344.265444 
L 548.465776 338.634159 
L 549.519849 321.740304 
L 550.573923 327.371589 
L 551.627996 328.497846 
L 552.682069 331.313489 
L 553.736142 329.624103 
L 554.790215 350.459858 
L 555.844289 321.177176 
L 556.898362 343.139187 
L 557.952435 350.459858 
L 559.006508 345.95483 
L 560.060581 299.778293 
L 561.114655 311.040863 
L 562.168728 350.459858 
L 563.222801 294.710137 
L 564.276874 334.69226 
L 565.330947 334.129131 
L 566.385021 330.75036 
L 567.439094 319.487791 
L 568.493167 326.245332 
L 569.54724 311.040863 
L 570.601313 315.545891 
L 571.655387 303.157064 
L 572.70946 318.361534 
L 573.763533 267.116841 
L 574.817606 350.459858 
L 576.925753 261.485556 
L 577.979826 321.177176 
L 579.033899 294.710137 
L 580.087972 307.662092 
L 581.142045 313.293377 
L 582.196119 302.030807 
L 583.250192 350.459858 
L 584.304265 255.854271 
L 585.358338 305.409578 
L 586.412411 277.816282 
L 587.466485 275.563768 
L 588.520558 303.157064 
L 589.574631 296.962651 
L 590.628704 268.243098 
L 591.682777 285.136953 
L 592.736851 279.505668 
L 593.790924 271.621869 
L 594.844997 275.563768 
L 595.89907 207.988349 
L 596.953143 215.872148 
L 598.007217 259.79617 
L 599.06129 249.659858 
L 600.115363 276.690025 
L 601.169436 251.349243 
L 602.223509 246.844215 
L 603.277583 253.601757 
L 604.331656 256.980528 
L 605.385729 241.21293 
L 606.439802 262.611813 
L 607.493875 249.659858 
L 608.547949 350.459858 
L 609.602022 108.877735 
L 610.656095 229.95036 
L 611.710168 258.669913 
L 612.764241 277.253154 
L 613.818315 268.806226 
L 614.872388 295.836394 
L 615.926461 256.417399 
L 616.980534 266.553712 
L 618.034607 287.389466 
L 619.088681 300.341422 
L 620.142754 267.116841 
L 621.196827 304.84645 
L 622.2509 336.944774 
L 623.304973 350.459858 
L 624.359047 250.786115 
L 625.41312 253.601757 
L 626.467193 332.439746 
L 627.521266 303.720193 
L 628.575339 318.361534 
L 629.629413 318.924662 
L 630.683486 310.477735 
L 631.737559 313.293377 
L 632.791632 335.818517 
L 633.845705 295.273265 
L 634.899779 307.662092 
L 635.953852 334.129131 
L 637.007925 338.634159 
L 638.061998 320.614047 
L 639.116071 315.545891 
L 640.170145 324.555947 
L 641.224218 337.507902 
L 642.278291 312.730249 
L 643.332364 318.924662 
L 644.386437 339.197288 
L 646.494584 291.894494 
L 647.548657 318.924662 
L 648.60273 303.720193 
L 649.656803 314.419634 
L 650.710877 321.740304 
L 651.76495 330.187232 
L 652.819023 324.555947 
L 653.873096 330.187232 
L 654.927169 314.982763 
L 655.981243 320.614047 
L 657.035316 318.924662 
L 658.089389 318.361534 
L 659.143462 328.497846 
L 660.197535 325.682204 
L 661.251609 320.050919 
L 662.305682 329.624103 
L 663.359755 321.177176 
L 664.413828 321.740304 
L 665.467901 334.69226 
L 666.521975 342.576059 
L 667.576048 332.439746 
L 668.630121 333.002874 
L 669.684194 338.071031 
L 670.738267 320.050919 
L 671.792341 318.924662 
L 672.846414 344.265444 
L 673.900487 347.081087 
L 674.95456 331.876617 
L 676.008633 267.116841 
L 677.062707 260.359299 
L 678.11678 322.866561 
L 679.170853 263.73807 
L 680.224926 312.16712 
L 681.278999 341.449802 
L 682.333073 284.010696 
L 683.387146 325.119075 
L 684.441219 305.409578 
L 685.495292 259.79617 
L 686.549365 300.341422 
L 687.603439 320.050919 
L 688.657512 322.303433 
L 689.711585 272.748126 
L 690.765658 264.301198 
L 691.819731 350.459858 
L 692.873805 244.028573 
L 693.927878 230.513489 
L 694.981951 185.463209 
L 696.036024 284.573824 
L 697.090097 211.36712 
L 698.144171 223.192818 
L 699.198244 193.910137 
L 700.252317 200.10455 
L 701.30639 192.220751 
L 703.414537 245.15483 
L 704.46861 50.8755 
L 705.522683 147.170472 
L 706.576756 177.579411 
L 707.630829 149.422986 
L 708.684903 195.036394 
L 709.738976 256.980528 
L 710.793049 286.826338 
L 711.847122 256.417399 
L 712.901195 204.609578 
L 713.955269 214.182763 
L 715.009342 240.086673 
L 716.063415 300.341422 
L 717.117488 265.990584 
L 718.171561 305.409578 
L 719.225635 243.465444 
L 720.279708 261.485556 
L 721.333781 257.543656 
L 722.387854 295.836394 
L 723.441927 308.788349 
L 724.496001 275.563768 
L 725.550074 304.283321 
L 726.604147 284.010696 
L 727.65822 310.477735 
L 728.712293 311.040863 
L 729.766367 301.467679 
L 730.82044 321.740304 
L 731.874513 328.497846 
L 732.928586 336.381645 
L 733.982659 312.730249 
L 735.036733 304.84645 
L 736.090806 317.798405 
L 737.144879 325.682204 
L 738.198952 326.808461 
L 739.253025 332.439746 
L 740.307099 341.449802 
L 741.361172 323.992818 
L 742.415245 344.828573 
L 743.469318 326.245332 
L 744.523391 329.624103 
L 747.685611 344.828573 
L 748.739684 340.886673 
L 749.793757 348.207344 
L 750.847831 339.197288 
L 751.901904 340.323545 
L 752.955977 344.828573 
L 754.01005 343.702316 
L 755.064123 349.333601 
L 756.118197 347.081087 
L 757.17227 345.391701 
L 758.226343 347.081087 
L 759.280416 346.517958 
L 760.334489 348.207344 
L 761.388563 346.517958 
L 762.442636 344.265444 
L 763.496709 347.644215 
L 764.550782 341.449802 
L 765.604855 348.770472 
L 766.658929 344.828573 
L 768.767075 348.207344 
L 770.875221 348.207344 
L 771.929295 346.517958 
L 772.983368 350.459858 
L 774.037441 349.333601 
L 775.091514 349.333601 
L 777.199661 350.459858 
L 779.307807 350.459858 
L 780.36188 348.207344 
L 781.415953 349.896729 
L 782.470027 348.207344 
L 783.5241 350.459858 
L 784.578173 350.459858 
L 785.632246 347.644215 
L 786.686319 348.770472 
L 787.740393 349.333601 
L 788.794466 350.459858 
L 790.902612 350.459858 
L 793.010759 349.333601 
L 794.064832 349.896729 
L 795.118905 349.896729 
L 797.227051 348.770472 
L 798.281125 350.459858 
L 799.335198 350.459858 
L 800.389271 349.896729 
L 801.443344 350.459858 
L 802.497417 350.459858 
L 803.551491 349.896729 
L 804.605564 349.896729 
L 805.659637 350.459858 
L 806.71371 350.459858 
L 808.821857 349.333601 
L 809.87593 350.459858 
L 810.930003 349.333601 
L 813.038149 350.459858 
L 814.092223 350.459858 
L 815.146296 349.896729 
L 816.200369 350.459858 
L 821.470735 350.459858 
L 822.524808 349.896729 
L 823.578881 350.459858 
L 824.632955 350.459858 
L 825.687028 349.333601 
L 827.795174 350.459858 
L 839.389979 350.459858 
L 840.444053 348.207344 
L 842.552199 350.459858 
L 843.606272 348.770472 
L 844.660345 350.459858 
L 845.714419 350.459858 
L 846.768492 349.333601 
L 847.822565 344.265444 
L 848.876638 350.459858 
L 850.984785 349.333601 
L 852.038858 349.333601 
L 853.092931 350.459858 
L 854.147004 350.459858 
L 855.201077 349.896729 
L 856.255151 350.459858 
L 857.309224 349.333601 
L 858.363297 350.459858 
L 859.41737 349.333601 
L 861.525517 350.459858 
L 863.633663 350.459858 
L 864.687736 349.333601 
L 865.741809 349.896729 
L 866.795883 349.333601 
L 867.849956 345.95483 
L 868.904029 342.01293 
L 869.958102 350.459858 
L 871.012175 342.576059 
L 872.066249 350.459858 
L 873.120322 329.060975 
L 874.174395 260.922427 
L 875.228468 333.002874 
L 876.282541 327.371589 
L 877.336615 314.982763 
L 878.390688 300.90455 
L 879.444761 308.225221 
L 880.498834 295.273265 
L 881.552907 211.36712 
L 882.606981 241.21293 
L 883.661054 228.824103 
L 884.715127 213.619634 
L 886.823273 308.225221 
L 887.877347 284.573824 
L 888.93142 277.816282 
L 889.985493 254.728014 
L 891.039566 299.215165 
L 892.093639 281.195053 
L 893.147713 320.614047 
L 894.201786 325.682204 
L 895.255859 323.42969 
L 896.309932 305.972707 
L 897.364005 350.459858 
L 898.418079 294.710137 
L 899.472152 350.459858 
L 900.526225 313.856506 
L 901.580298 339.760416 
L 902.634371 336.381645 
L 903.688445 350.459858 
L 904.742518 328.497846 
L 905.796591 348.207344 
L 906.850664 347.644215 
L 907.904737 350.459858 
L 908.958811 340.323545 
L 910.012884 348.770472 
L 912.12103 345.391701 
L 913.175103 346.517958 
L 914.229177 350.459858 
L 915.28325 347.644215 
L 916.337323 350.459858 
L 919.499543 350.459858 
L 920.553616 343.702316 
L 921.607689 350.459858 
L 923.715835 350.459858 
L 924.769909 348.207344 
L 925.823982 344.828573 
L 926.878055 348.770472 
L 927.932128 353.2755 
L 928.986201 348.207344 
L 930.040274 348.207344 
L 931.094348 350.459858 
L 932.148421 349.896729 
L 933.202494 347.644215 
L 934.256567 348.770472 
L 935.31064 350.459858 
L 936.364714 349.333601 
L 937.418787 350.459858 
L 939.526933 350.459858 
L 940.581006 348.207344 
L 941.63508 350.459858 
L 942.689153 347.081087 
L 943.743226 350.459858 
L 946.905446 350.459858 
L 949.013592 348.207344 
L 951.121738 349.333601 
L 952.175812 350.459858 
L 955.338031 350.459858 
L 956.392104 349.896729 
L 957.446178 348.770472 
L 958.500251 348.770472 
L 959.554324 350.459858 
L 961.66247 350.459858 
L 962.716544 349.896729 
L 964.82469 349.896729 
L 965.878763 349.333601 
L 966.932836 350.459858 
L 967.98691 347.081087 
L 969.040983 348.770472 
L 970.095056 349.896729 
L 971.149129 348.207344 
L 972.203202 348.207344 
L 973.257276 349.896729 
L 974.311349 349.896729 
L 975.365422 350.459858 
L 976.419495 350.459858 
L 978.527642 349.333601 
L 979.581715 350.459858 
L 980.635788 350.459858 
L 981.689861 349.896729 
L 982.743934 350.459858 
L 983.798008 350.459858 
L 984.852081 349.896729 
L 985.906154 350.459858 
L 986.960227 350.459858 
L 988.0143 348.770472 
L 989.068374 350.459858 
L 990.122447 350.459858 
L 991.17652 348.770472 
L 992.230593 350.459858 
L 993.284666 349.896729 
L 994.33874 346.517958 
L 996.446886 348.770472 
L 997.500959 350.459858 
L 999.609106 349.333601 
L 1000.663179 349.896729 
L 1001.717252 349.896729 
L 1002.771325 348.207344 
L 1003.825398 350.459858 
L 1004.879472 348.207344 
L 1005.933545 349.333601 
L 1006.987618 349.896729 
L 1008.041691 349.896729 
L 1009.095764 349.333601 
L 1010.149838 350.459858 
L 1012.257984 350.459858 
L 1013.312057 349.333601 
L 1014.36613 346.517958 
L 1015.420204 348.207344 
L 1016.474277 350.459858 
L 1020.69057 350.459858 
L 1021.744643 349.896729 
L 1022.798716 350.459858 
L 1023.852789 349.333601 
L 1024.906862 349.333601 
L 1027.015009 350.459858 
L 1028.069082 349.896729 
L 1029.123155 348.770472 
L 1030.177228 348.770472 
L 1031.231302 350.459858 
L 1032.285375 349.896729 
L 1033.339448 350.459858 
L 1034.393521 350.459858 
L 1037.555741 348.770472 
L 1038.609814 349.896729 
L 1039.663887 348.207344 
L 1040.71796 350.459858 
L 1041.772034 350.459858 
L 1042.826107 348.770472 
L 1043.88018 350.459858 
L 1044.934253 349.333601 
L 1045.988326 349.896729 
L 1047.0424 349.896729 
L 1048.096473 350.459858 
L 1049.150546 350.459858 
L 1050.204619 349.333601 
L 1051.258692 349.333601 
L 1052.312766 348.207344 
L 1053.366839 350.459858 
L 1054.420912 349.896729 
L 1055.474985 350.459858 
L 1056.529058 350.459858 
L 1057.583132 349.896729 
L 1058.637205 347.644215 
L 1059.691278 350.459858 
L 1060.745351 347.644215 
L 1061.799424 348.770472 
L 1062.853498 350.459858 
L 1064.961644 350.459858 
L 1066.015717 339.197288 
L 1067.06979 347.644215 
L 1068.123864 348.770472 
L 1069.177937 345.391701 
L 1070.23201 350.459858 
L 1071.286083 350.459858 
L 1072.340156 347.081087 
L 1073.39423 343.139187 
L 1074.448303 345.391701 
L 1075.502376 345.95483 
L 1076.556449 349.333601 
L 1077.610522 350.459858 
L 1078.664596 350.459858 
L 1079.718669 343.702316 
L 1080.772742 345.391701 
L 1081.826815 347.644215 
L 1082.880888 345.95483 
L 1083.934962 347.081087 
L 1084.989035 350.459858 
L 1086.043108 350.459858 
L 1087.097181 347.081087 
L 1088.151254 342.576059 
L 1089.205328 347.081087 
L 1090.259401 348.207344 
L 1091.313474 345.95483 
L 1092.367547 350.459858 
L 1093.42162 347.081087 
L 1094.475694 348.770472 
L 1095.529767 349.333601 
L 1096.58384 346.517958 
L 1097.637913 347.081087 
L 1099.74606 350.459858 
L 1100.800133 350.459858 
L 1101.854206 344.828573 
L 1102.908279 347.081087 
L 1103.962352 345.391701 
L 1105.016426 350.459858 
L 1106.070499 350.459858 
L 1107.124572 343.139187 
L 1108.178645 350.459858 
L 1109.232718 348.770472 
L 1110.286792 346.517958 
L 1111.340865 347.644215 
L 1112.394938 347.644215 
L 1113.449011 349.333601 
L 1114.503084 350.459858 
L 1115.557158 350.459858 
L 1116.611231 348.770472 
L 1117.665304 348.770472 
L 1118.719377 349.333601 
L 1119.77345 350.459858 
L 1120.827524 349.896729 
L 1121.881597 350.459858 
L 1122.93567 350.459858 
L 1123.989743 347.644215 
L 1125.043816 350.459858 
L 1127.151963 350.459858 
L 1128.206036 348.207344 
L 1129.260109 350.459858 
L 1133.476402 350.459858 
L 1134.530475 345.391701 
L 1135.584548 349.333601 
L 1136.638622 350.459858 
L 1137.692695 350.459858 
L 1138.746768 348.207344 
L 1139.800841 350.459858 
L 1140.854914 348.770472 
L 1141.908988 350.459858 
L 1142.963061 349.896729 
L 1144.017134 350.459858 
L 1145.071207 350.459858 
L 1146.12528 343.702316 
L 1147.179354 350.459858 
L 1148.233427 348.770472 
L 1149.2875 349.896729 
L 1150.341573 347.644215 
L 1151.395646 350.459858 
L 1152.44972 350.459858 
L 1153.503793 348.770472 
L 1154.557866 350.459858 
L 1159.828232 350.459858 
L 1160.882305 349.896729 
L 1161.936378 350.459858 
L 1162.990452 349.333601 
L 1164.044525 350.459858 
L 1167.206744 350.459858 
L 1168.260818 349.333601 
L 1169.314891 347.644215 
L 1170.368964 349.333601 
L 1171.423037 350.459858 
L 1174.585257 350.459858 
L 1175.63933 348.770472 
L 1177.747476 349.896729 
L 1179.855623 348.770472 
L 1180.909696 350.459858 
L 1181.963769 350.459858 
L 1183.017842 348.207344 
L 1184.071916 350.459858 
L 1185.125989 345.95483 
L 1186.180062 349.896729 
L 1187.234135 349.896729 
L 1188.288208 350.459858 
L 1190.396355 350.459858 
L 1191.450428 349.896729 
L 1192.504501 347.644215 
L 1193.558574 344.265444 
L 1194.612648 350.459858 
L 1196.720794 350.459858 
L 1197.774867 349.896729 
L 1198.82894 350.459858 
L 1199.883014 347.644215 
L 1200.937087 350.459858 
L 1201.99116 348.207344 
L 1203.045233 350.459858 
L 1204.099306 350.459858 
L 1205.15338 345.95483 
L 1206.207453 348.770472 
L 1207.261526 349.896729 
L 1208.315599 348.770472 
L 1209.369672 350.459858 
L 1211.477819 350.459858 
L 1212.531892 347.081087 
L 1213.585965 350.459858 
L 1214.640038 349.896729 
L 1215.694112 350.459858 
L 1227.288917 350.459858 
L 1228.34299 344.265444 
L 1229.397063 350.459858 
L 1230.451136 349.333601 
L 1231.50521 348.770472 
L 1232.559283 350.459858 
L 1233.613356 350.459858 
L 1234.667429 349.896729 
L 1235.721502 350.459858 
L 1236.775576 349.896729 
L 1237.829649 349.896729 
L 1238.883722 350.459858 
L 1240.991868 350.459858 
L 1242.045942 349.896729 
L 1243.100015 349.896729 
L 1244.154088 350.459858 
L 1245.208161 349.896729 
L 1246.262234 349.896729 
L 1247.316308 350.459858 
L 1248.370381 350.459858 
L 1249.424454 349.896729 
L 1250.478527 350.459858 
L 1251.5326 349.333601 
L 1252.586674 350.459858 
L 1253.640747 350.459858 
L 1254.69482 349.333601 
L 1255.748893 350.459858 
L 1256.802966 349.896729 
L 1257.85704 350.459858 
L 1263.127406 350.459858 
L 1264.181479 349.896729 
L 1265.235552 350.459858 
L 1270.505918 350.459858 
L 1271.559991 349.896729 
L 1272.614064 350.459858 
L 1273.668138 349.896729 
L 1274.722211 350.459858 
L 1294.749602 350.459858 
L 1295.803675 349.896729 
L 1296.857748 350.459858 
L 1296.857748 350.459858 
" clip-path="url(#pd840a42c8a)" style="fill: none; stroke: #0000ff; stroke-width: 1.5; stroke-linecap: square"/>
   </g>
   <g id="line2d_19">
    <path d="M 1056.529058 350.1631 
L 1057.583132 349.937684 
L 1058.637205 349.947118 
L 1059.691278 349.023345 
L 1060.745351 349.775666 
L 1061.799424 349.024801 
L 1062.853498 349.134269 
L 1063.907571 349.542594 
L 1066.015717 349.638254 
L 1067.06979 346.663554 
L 1068.123864 346.395345 
L 1069.177937 347.227344 
L 1070.23201 347.177175 
L 1071.286083 348.091006 
L 1072.340156 348.789647 
L 1073.39423 346.846127 
L 1074.448303 346.755218 
L 1076.556449 345.719019 
L 1077.610522 347.694925 
L 1078.664596 348.726185 
L 1079.718669 348.845337 
L 1080.772742 345.846541 
L 1081.826815 346.483011 
L 1082.880888 346.970465 
L 1083.934962 346.85609 
L 1084.989035 347.594955 
L 1086.043108 348.491828 
L 1087.097181 348.067765 
L 1088.151254 347.048327 
L 1089.205328 346.584929 
L 1090.259401 346.40908 
L 1091.313474 347.23029 
L 1092.367547 347.815038 
L 1093.42162 348.559672 
L 1094.475694 347.051012 
L 1095.529767 346.417872 
L 1096.58384 348.592105 
L 1098.691986 347.595393 
L 1099.74606 349.048919 
L 1100.800133 349.140435 
L 1101.854206 349.013094 
L 1102.908279 347.130078 
L 1103.962352 347.366018 
L 1105.016426 346.879557 
L 1106.070499 348.005485 
L 1107.124572 349.909901 
L 1108.178645 347.666813 
L 1109.232718 347.10771 
L 1110.286792 347.607762 
L 1111.340865 347.452005 
L 1112.394938 348.130414 
L 1113.449011 348.078316 
L 1114.503084 348.213644 
L 1115.557158 349.660467 
L 1117.665304 348.636386 
L 1118.719377 348.867274 
L 1120.827524 350.057764 
L 1121.881597 350.038485 
L 1122.93567 350.622536 
L 1125.043816 348.848374 
L 1126.09789 349.446087 
L 1127.151963 350.28569 
L 1128.206036 350.489287 
L 1129.260109 349.849693 
L 1130.314182 350.237337 
L 1131.368256 349.453442 
L 1132.422329 349.933227 
L 1134.530475 350.656578 
L 1135.584548 348.848342 
L 1136.638622 349.043968 
L 1137.692695 349.732046 
L 1139.800841 349.190426 
L 1140.854914 349.611667 
L 1141.908988 349.01382 
L 1142.963061 349.750011 
L 1144.017134 350.21077 
L 1145.071207 350.430787 
L 1146.12528 349.780121 
L 1147.179354 348.256123 
L 1149.2875 348.637774 
L 1150.341573 349.189 
L 1151.395646 349.072823 
L 1152.44972 349.513467 
L 1153.503793 348.618924 
L 1154.557866 349.745175 
L 1155.611939 349.67378 
L 1156.666012 350.036932 
L 1157.720086 350.041498 
L 1158.774159 350.724327 
L 1159.828232 350.726412 
L 1160.882305 349.58135 
L 1161.936378 350.566106 
L 1164.044525 350.090469 
L 1165.098598 350.04548 
L 1166.152671 350.554925 
L 1167.206744 350.58764 
L 1168.260818 349.769956 
L 1169.314891 350.302408 
L 1170.368964 349.196428 
L 1171.423037 349.282693 
L 1172.47711 349.587281 
L 1173.531184 350.15459 
L 1174.585257 350.31631 
L 1175.63933 349.718779 
L 1177.747476 349.550561 
L 1178.80155 349.894512 
L 1180.909696 349.542189 
L 1181.963769 349.800178 
L 1183.017842 349.409634 
L 1184.071916 349.304826 
L 1185.125989 349.680139 
L 1186.180062 348.698805 
L 1187.234135 348.778213 
L 1188.288208 349.505867 
L 1189.342282 349.862069 
L 1190.396355 349.388605 
L 1191.450428 350.171711 
L 1192.504501 349.654687 
L 1193.558574 349.559507 
L 1194.612648 347.767573 
L 1196.720794 349.343032 
L 1197.774867 349.295309 
L 1198.82894 349.749634 
L 1199.883014 349.399616 
L 1200.937087 348.852399 
L 1201.99116 349.952436 
L 1203.045233 349.68804 
L 1204.099306 349.838819 
L 1205.15338 349.690284 
L 1207.261526 347.85829 
L 1208.315599 348.80606 
L 1209.369672 349.092946 
L 1210.423746 349.898401 
L 1211.477819 350.142971 
L 1212.531892 349.46643 
L 1213.585965 349.228997 
L 1214.640038 349.128087 
L 1215.694112 349.506528 
L 1216.748185 350.167569 
L 1217.802258 350.567209 
L 1218.856331 350.548141 
L 1219.910404 349.575316 
L 1220.964478 350.57072 
L 1222.018551 350.271044 
L 1225.18077 350.790493 
L 1226.234844 350.679852 
L 1227.288917 349.965026 
L 1228.34299 350.596445 
L 1229.397063 348.46843 
L 1231.50521 349.26675 
L 1232.559283 349.249676 
L 1233.613356 349.597071 
L 1234.667429 349.499016 
L 1235.721502 349.247692 
L 1236.775576 350.237656 
L 1238.883722 350.057665 
L 1239.937795 350.454757 
L 1240.991868 350.477631 
L 1243.100015 349.839846 
L 1244.154088 350.18294 
L 1248.370381 350.3316 
L 1250.478527 349.88553 
L 1251.5326 350.346285 
L 1252.586674 349.959783 
L 1253.640747 350.122223 
L 1254.69482 350.449373 
L 1256.802966 349.897332 
L 1257.85704 349.890491 
L 1259.965186 350.321669 
L 1263.127406 350.57852 
L 1264.181479 350.29299 
L 1265.235552 350.214245 
L 1268.397772 350.46242 
L 1270.505918 350.55111 
L 1271.559991 350.287481 
L 1274.722211 350.239138 
L 1277.88443 350.459994 
L 1278.938504 350.238601 
L 1279.992577 350.440964 
L 1281.04665 350.409442 
L 1283.154796 350.510889 
L 1289.479236 350.503926 
L 1295.803675 350.447342 
L 1296.857748 350.316802 
L 1296.857748 350.316802 
" clip-path="url(#pd840a42c8a)" style="fill: none; stroke: #ffa500; stroke-width: 1.5; stroke-linecap: square"/>
   </g>
   <g id="line2d_20">
    <path d="M 1297.911821 350.339239 
L 1298.965894 350.347749 
L 1300.019968 350.365635 
L 1301.074041 350.297102 
L 1302.128114 350.338031 
L 1303.182187 350.256039 
L 1304.23626 350.349773 
L 1305.290334 350.339131 
L 1306.344407 350.339822 
L 1307.39848 350.354416 
L 1308.452553 350.300117 
L 1309.506626 350.332529 
L 1310.5607 350.267603 
L 1311.614773 350.341827 
" clip-path="url(#pd840a42c8a)" style="fill: none; stroke: #ff0000; stroke-width: 1.5; stroke-linecap: square"/>
   </g>
   <g id="patch_3">
    <path d="M 33.2875 368.3955 
L 33.2875 35.7555 
" style="fill: none; stroke: #000000; stroke-width: 0.8; stroke-linejoin: miter; stroke-linecap: square"/>
   </g>
   <g id="patch_4">
    <path d="M 1372.4875 368.3955 
L 1372.4875 35.7555 
" style="fill: none; stroke: #000000; stroke-width: 0.8; stroke-linejoin: miter; stroke-linecap: square"/>
   </g>
   <g id="patch_5">
    <path d="M 33.2875 368.3955 
L 1372.4875 368.3955 
" style="fill: none; stroke: #000000; stroke-width: 0.8; stroke-linejoin: miter; stroke-linecap: square"/>
   </g>
   <g id="patch_6">
    <path d="M 33.2875 35.7555 
L 1372.4875 35.7555 
" style="fill: none; stroke: #000000; stroke-width: 0.8; stroke-linejoin: miter; stroke-linecap: square"/>
   </g>
   <g id="text_18">
    <!-- Daily Confirmed Cases Forecasting - Timor-Leste -->
    <g transform="translate(557.379063 16.318125)scale(0.12 -0.12)">
     <defs>
      <path id="DejaVuSans-44" d="M 1259 4147 
L 1259 519 
L 2022 519 
Q 2988 519 3436 956 
Q 3884 1394 3884 2338 
Q 3884 3275 3436 3711 
Q 2988 4147 2022 4147 
L 1259 4147 
z
M 628 4666 
L 1925 4666 
Q 3281 4666 3915 4102 
Q 4550 3538 4550 2338 
Q 4550 1131 3912 565 
Q 3275 0 1925 0 
L 628 0 
L 628 4666 
z
" transform="scale(0.015625)"/>
      <path id="DejaVuSans-61" d="M 2194 1759 
Q 1497 1759 1228 1600 
Q 959 1441 959 1056 
Q 959 750 1161 570 
Q 1363 391 1709 391 
Q 2188 391 2477 730 
Q 2766 1069 2766 1631 
L 2766 1759 
L 2194 1759 
z
M 3341 1997 
L 3341 0 
L 2766 0 
L 2766 531 
Q 2569 213 2275 61 
Q 1981 -91 1556 -91 
Q 1019 -91 701 211 
Q 384 513 384 1019 
Q 384 1609 779 1909 
Q 1175 2209 1959 2209 
L 2766 2209 
L 2766 2266 
Q 2766 2663 2505 2880 
Q 2244 3097 1772 3097 
Q 1472 3097 1187 3025 
Q 903 2953 641 2809 
L 641 3341 
Q 956 3463 1253 3523 
Q 1550 3584 1831 3584 
Q 2591 3584 2966 3190 
Q 3341 2797 3341 1997 
z
" transform="scale(0.015625)"/>
      <path id="DejaVuSans-69" d="M 603 3500 
L 1178 3500 
L 1178 0 
L 603 0 
L 603 3500 
z
M 603 4863 
L 1178 4863 
L 1178 4134 
L 603 4134 
L 603 4863 
z
" transform="scale(0.015625)"/>
      <path id="DejaVuSans-6c" d="M 603 4863 
L 1178 4863 
L 1178 0 
L 603 0 
L 603 4863 
z
" transform="scale(0.015625)"/>
      <path id="DejaVuSans-79" d="M 2059 -325 
Q 1816 -950 1584 -1140 
Q 1353 -1331 966 -1331 
L 506 -1331 
L 506 -850 
L 844 -850 
Q 1081 -850 1212 -737 
Q 1344 -625 1503 -206 
L 1606 56 
L 191 3500 
L 800 3500 
L 1894 763 
L 2988 3500 
L 3597 3500 
L 2059 -325 
z
" transform="scale(0.015625)"/>
      <path id="DejaVuSans-20" transform="scale(0.015625)"/>
      <path id="DejaVuSans-43" d="M 4122 4306 
L 4122 3641 
Q 3803 3938 3442 4084 
Q 3081 4231 2675 4231 
Q 1875 4231 1450 3742 
Q 1025 3253 1025 2328 
Q 1025 1406 1450 917 
Q 1875 428 2675 428 
Q 3081 428 3442 575 
Q 3803 722 4122 1019 
L 4122 359 
Q 3791 134 3420 21 
Q 3050 -91 2638 -91 
Q 1578 -91 968 557 
Q 359 1206 359 2328 
Q 359 3453 968 4101 
Q 1578 4750 2638 4750 
Q 3056 4750 3426 4639 
Q 3797 4528 4122 4306 
z
" transform="scale(0.015625)"/>
      <path id="DejaVuSans-6f" d="M 1959 3097 
Q 1497 3097 1228 2736 
Q 959 2375 959 1747 
Q 959 1119 1226 758 
Q 1494 397 1959 397 
Q 2419 397 2687 759 
Q 2956 1122 2956 1747 
Q 2956 2369 2687 2733 
Q 2419 3097 1959 3097 
z
M 1959 3584 
Q 2709 3584 3137 3096 
Q 3566 2609 3566 1747 
Q 3566 888 3137 398 
Q 2709 -91 1959 -91 
Q 1206 -91 779 398 
Q 353 888 353 1747 
Q 353 2609 779 3096 
Q 1206 3584 1959 3584 
z
" transform="scale(0.015625)"/>
      <path id="DejaVuSans-6e" d="M 3513 2113 
L 3513 0 
L 2938 0 
L 2938 2094 
Q 2938 2591 2744 2837 
Q 2550 3084 2163 3084 
Q 1697 3084 1428 2787 
Q 1159 2491 1159 1978 
L 1159 0 
L 581 0 
L 581 3500 
L 1159 3500 
L 1159 2956 
Q 1366 3272 1645 3428 
Q 1925 3584 2291 3584 
Q 2894 3584 3203 3211 
Q 3513 2838 3513 2113 
z
" transform="scale(0.015625)"/>
      <path id="DejaVuSans-66" d="M 2375 4863 
L 2375 4384 
L 1825 4384 
Q 1516 4384 1395 4259 
Q 1275 4134 1275 3809 
L 1275 3500 
L 2222 3500 
L 2222 3053 
L 1275 3053 
L 1275 0 
L 697 0 
L 697 3053 
L 147 3053 
L 147 3500 
L 697 3500 
L 697 3744 
Q 697 4328 969 4595 
Q 1241 4863 1831 4863 
L 2375 4863 
z
" transform="scale(0.015625)"/>
      <path id="DejaVuSans-72" d="M 2631 2963 
Q 2534 3019 2420 3045 
Q 2306 3072 2169 3072 
Q 1681 3072 1420 2755 
Q 1159 2438 1159 1844 
L 1159 0 
L 581 0 
L 581 3500 
L 1159 3500 
L 1159 2956 
Q 1341 3275 1631 3429 
Q 1922 3584 2338 3584 
Q 2397 3584 2469 3576 
Q 2541 3569 2628 3553 
L 2631 2963 
z
" transform="scale(0.015625)"/>
      <path id="DejaVuSans-6d" d="M 3328 2828 
Q 3544 3216 3844 3400 
Q 4144 3584 4550 3584 
Q 5097 3584 5394 3201 
Q 5691 2819 5691 2113 
L 5691 0 
L 5113 0 
L 5113 2094 
Q 5113 2597 4934 2840 
Q 4756 3084 4391 3084 
Q 3944 3084 3684 2787 
Q 3425 2491 3425 1978 
L 3425 0 
L 2847 0 
L 2847 2094 
Q 2847 2600 2669 2842 
Q 2491 3084 2119 3084 
Q 1678 3084 1418 2786 
Q 1159 2488 1159 1978 
L 1159 0 
L 581 0 
L 581 3500 
L 1159 3500 
L 1159 2956 
Q 1356 3278 1631 3431 
Q 1906 3584 2284 3584 
Q 2666 3584 2933 3390 
Q 3200 3197 3328 2828 
z
" transform="scale(0.015625)"/>
      <path id="DejaVuSans-65" d="M 3597 1894 
L 3597 1613 
L 953 1613 
Q 991 1019 1311 708 
Q 1631 397 2203 397 
Q 2534 397 2845 478 
Q 3156 559 3463 722 
L 3463 178 
Q 3153 47 2828 -22 
Q 2503 -91 2169 -91 
Q 1331 -91 842 396 
Q 353 884 353 1716 
Q 353 2575 817 3079 
Q 1281 3584 2069 3584 
Q 2775 3584 3186 3129 
Q 3597 2675 3597 1894 
z
M 3022 2063 
Q 3016 2534 2758 2815 
Q 2500 3097 2075 3097 
Q 1594 3097 1305 2825 
Q 1016 2553 972 2059 
L 3022 2063 
z
" transform="scale(0.015625)"/>
      <path id="DejaVuSans-64" d="M 2906 2969 
L 2906 4863 
L 3481 4863 
L 3481 0 
L 2906 0 
L 2906 525 
Q 2725 213 2448 61 
Q 2172 -91 1784 -91 
Q 1150 -91 751 415 
Q 353 922 353 1747 
Q 353 2572 751 3078 
Q 1150 3584 1784 3584 
Q 2172 3584 2448 3432 
Q 2725 3281 2906 2969 
z
M 947 1747 
Q 947 1113 1208 752 
Q 1469 391 1925 391 
Q 2381 391 2643 752 
Q 2906 1113 2906 1747 
Q 2906 2381 2643 2742 
Q 2381 3103 1925 3103 
Q 1469 3103 1208 2742 
Q 947 2381 947 1747 
z
" transform="scale(0.015625)"/>
      <path id="DejaVuSans-73" d="M 2834 3397 
L 2834 2853 
Q 2591 2978 2328 3040 
Q 2066 3103 1784 3103 
Q 1356 3103 1142 2972 
Q 928 2841 928 2578 
Q 928 2378 1081 2264 
Q 1234 2150 1697 2047 
L 1894 2003 
Q 2506 1872 2764 1633 
Q 3022 1394 3022 966 
Q 3022 478 2636 193 
Q 2250 -91 1575 -91 
Q 1294 -91 989 -36 
Q 684 19 347 128 
L 347 722 
Q 666 556 975 473 
Q 1284 391 1588 391 
Q 1994 391 2212 530 
Q 2431 669 2431 922 
Q 2431 1156 2273 1281 
Q 2116 1406 1581 1522 
L 1381 1569 
Q 847 1681 609 1914 
Q 372 2147 372 2553 
Q 372 3047 722 3315 
Q 1072 3584 1716 3584 
Q 2034 3584 2315 3537 
Q 2597 3491 2834 3397 
z
" transform="scale(0.015625)"/>
      <path id="DejaVuSans-46" d="M 628 4666 
L 3309 4666 
L 3309 4134 
L 1259 4134 
L 1259 2759 
L 3109 2759 
L 3109 2228 
L 1259 2228 
L 1259 0 
L 628 0 
L 628 4666 
z
" transform="scale(0.015625)"/>
      <path id="DejaVuSans-63" d="M 3122 3366 
L 3122 2828 
Q 2878 2963 2633 3030 
Q 2388 3097 2138 3097 
Q 1578 3097 1268 2742 
Q 959 2388 959 1747 
Q 959 1106 1268 751 
Q 1578 397 2138 397 
Q 2388 397 2633 464 
Q 2878 531 3122 666 
L 3122 134 
Q 2881 22 2623 -34 
Q 2366 -91 2075 -91 
Q 1284 -91 818 406 
Q 353 903 353 1747 
Q 353 2603 823 3093 
Q 1294 3584 2113 3584 
Q 2378 3584 2631 3529 
Q 2884 3475 3122 3366 
z
" transform="scale(0.015625)"/>
      <path id="DejaVuSans-74" d="M 1172 4494 
L 1172 3500 
L 2356 3500 
L 2356 3053 
L 1172 3053 
L 1172 1153 
Q 1172 725 1289 603 
Q 1406 481 1766 481 
L 2356 481 
L 2356 0 
L 1766 0 
Q 1100 0 847 248 
Q 594 497 594 1153 
L 594 3053 
L 172 3053 
L 172 3500 
L 594 3500 
L 594 4494 
L 1172 4494 
z
" transform="scale(0.015625)"/>
      <path id="DejaVuSans-67" d="M 2906 1791 
Q 2906 2416 2648 2759 
Q 2391 3103 1925 3103 
Q 1463 3103 1205 2759 
Q 947 2416 947 1791 
Q 947 1169 1205 825 
Q 1463 481 1925 481 
Q 2391 481 2648 825 
Q 2906 1169 2906 1791 
z
M 3481 434 
Q 3481 -459 3084 -895 
Q 2688 -1331 1869 -1331 
Q 1566 -1331 1297 -1286 
Q 1028 -1241 775 -1147 
L 775 -588 
Q 1028 -725 1275 -790 
Q 1522 -856 1778 -856 
Q 2344 -856 2625 -561 
Q 2906 -266 2906 331 
L 2906 616 
Q 2728 306 2450 153 
Q 2172 0 1784 0 
Q 1141 0 747 490 
Q 353 981 353 1791 
Q 353 2603 747 3093 
Q 1141 3584 1784 3584 
Q 2172 3584 2450 3431 
Q 2728 3278 2906 2969 
L 2906 3500 
L 3481 3500 
L 3481 434 
z
" transform="scale(0.015625)"/>
      <path id="DejaVuSans-54" d="M -19 4666 
L 3928 4666 
L 3928 4134 
L 2272 4134 
L 2272 0 
L 1638 0 
L 1638 4134 
L -19 4134 
L -19 4666 
z
" transform="scale(0.015625)"/>
      <path id="DejaVuSans-4c" d="M 628 4666 
L 1259 4666 
L 1259 531 
L 3531 531 
L 3531 0 
L 628 0 
L 628 4666 
z
" transform="scale(0.015625)"/>
     </defs>
     <use xlink:href="#DejaVuSans-44"/>
     <use xlink:href="#DejaVuSans-61" x="77.001953"/>
     <use xlink:href="#DejaVuSans-69" x="138.28125"/>
     <use xlink:href="#DejaVuSans-6c" x="166.064453"/>
     <use xlink:href="#DejaVuSans-79" x="193.847656"/>
     <use xlink:href="#DejaVuSans-20" x="253.027344"/>
     <use xlink:href="#DejaVuSans-43" x="284.814453"/>
     <use xlink:href="#DejaVuSans-6f" x="354.638672"/>
     <use xlink:href="#DejaVuSans-6e" x="415.820312"/>
     <use xlink:href="#DejaVuSans-66" x="479.199219"/>
     <use xlink:href="#DejaVuSans-69" x="514.404297"/>
     <use xlink:href="#DejaVuSans-72" x="542.1875"/>
     <use xlink:href="#DejaVuSans-6d" x="581.550781"/>
     <use xlink:href="#DejaVuSans-65" x="678.962891"/>
     <use xlink:href="#DejaVuSans-64" x="740.486328"/>
     <use xlink:href="#DejaVuSans-20" x="803.962891"/>
     <use xlink:href="#DejaVuSans-43" x="835.75"/>
     <use xlink:href="#DejaVuSans-61" x="905.574219"/>
     <use xlink:href="#DejaVuSans-73" x="966.853516"/>
     <use xlink:href="#DejaVuSans-65" x="1018.953125"/>
     <use xlink:href="#DejaVuSans-73" x="1080.476562"/>
     <use xlink:href="#DejaVuSans-20" x="1132.576172"/>
     <use xlink:href="#DejaVuSans-46" x="1164.363281"/>
     <use xlink:href="#DejaVuSans-6f" x="1218.257812"/>
     <use xlink:href="#DejaVuSans-72" x="1279.439453"/>
     <use xlink:href="#DejaVuSans-65" x="1318.302734"/>
     <use xlink:href="#DejaVuSans-63" x="1379.826172"/>
     <use xlink:href="#DejaVuSans-61" x="1434.806641"/>
     <use xlink:href="#DejaVuSans-73" x="1496.085938"/>
     <use xlink:href="#DejaVuSans-74" x="1548.185547"/>
     <use xlink:href="#DejaVuSans-69" x="1587.394531"/>
     <use xlink:href="#DejaVuSans-6e" x="1615.177734"/>
     <use xlink:href="#DejaVuSans-67" x="1678.556641"/>
     <use xlink:href="#DejaVuSans-20" x="1742.033203"/>
     <use xlink:href="#DejaVuSans-2d" x="1773.820312"/>
     <use xlink:href="#DejaVuSans-20" x="1809.904297"/>
     <use xlink:href="#DejaVuSans-54" x="1841.691406"/>
     <use xlink:href="#DejaVuSans-69" x="1899.650391"/>
     <use xlink:href="#DejaVuSans-6d" x="1927.433594"/>
     <use xlink:href="#DejaVuSans-6f" x="2024.845703"/>
     <use xlink:href="#DejaVuSans-72" x="2086.027344"/>
     <use xlink:href="#DejaVuSans-2d" x="2120.765625"/>
     <use xlink:href="#DejaVuSans-4c" x="2156.849609"/>
     <use xlink:href="#DejaVuSans-65" x="2210.8125"/>
     <use xlink:href="#DejaVuSans-73" x="2272.335938"/>
     <use xlink:href="#DejaVuSans-74" x="2324.435547"/>
     <use xlink:href="#DejaVuSans-65" x="2363.644531"/>
    </g>
    <!-- ARIMA (1, 1, 1)x(1, 0, 1, 7) (R2 = 0.119458) -->
    <g transform="translate(570.903438 29.7555)scale(0.12 -0.12)">
     <defs>
      <path id="DejaVuSans-41" d="M 2188 4044 
L 1331 1722 
L 3047 1722 
L 2188 4044 
z
M 1831 4666 
L 2547 4666 
L 4325 0 
L 3669 0 
L 3244 1197 
L 1141 1197 
L 716 0 
L 50 0 
L 1831 4666 
z
" transform="scale(0.015625)"/>
      <path id="DejaVuSans-52" d="M 2841 2188 
Q 3044 2119 3236 1894 
Q 3428 1669 3622 1275 
L 4263 0 
L 3584 0 
L 2988 1197 
Q 2756 1666 2539 1819 
Q 2322 1972 1947 1972 
L 1259 1972 
L 1259 0 
L 628 0 
L 628 4666 
L 2053 4666 
Q 2853 4666 3247 4331 
Q 3641 3997 3641 3322 
Q 3641 2881 3436 2590 
Q 3231 2300 2841 2188 
z
M 1259 4147 
L 1259 2491 
L 2053 2491 
Q 2509 2491 2742 2702 
Q 2975 2913 2975 3322 
Q 2975 3731 2742 3939 
Q 2509 4147 2053 4147 
L 1259 4147 
z
" transform="scale(0.015625)"/>
      <path id="DejaVuSans-49" d="M 628 4666 
L 1259 4666 
L 1259 0 
L 628 0 
L 628 4666 
z
" transform="scale(0.015625)"/>
      <path id="DejaVuSans-4d" d="M 628 4666 
L 1569 4666 
L 2759 1491 
L 3956 4666 
L 4897 4666 
L 4897 0 
L 4281 0 
L 4281 4097 
L 3078 897 
L 2444 897 
L 1241 4097 
L 1241 0 
L 628 0 
L 628 4666 
z
" transform="scale(0.015625)"/>
      <path id="DejaVuSans-28" d="M 1984 4856 
Q 1566 4138 1362 3434 
Q 1159 2731 1159 2009 
Q 1159 1288 1364 580 
Q 1569 -128 1984 -844 
L 1484 -844 
Q 1016 -109 783 600 
Q 550 1309 550 2009 
Q 550 2706 781 3412 
Q 1013 4119 1484 4856 
L 1984 4856 
z
" transform="scale(0.015625)"/>
      <path id="DejaVuSans-2c" d="M 750 794 
L 1409 794 
L 1409 256 
L 897 -744 
L 494 -744 
L 750 256 
L 750 794 
z
" transform="scale(0.015625)"/>
      <path id="DejaVuSans-29" d="M 513 4856 
L 1013 4856 
Q 1481 4119 1714 3412 
Q 1947 2706 1947 2009 
Q 1947 1309 1714 600 
Q 1481 -109 1013 -844 
L 513 -844 
Q 928 -128 1133 580 
Q 1338 1288 1338 2009 
Q 1338 2731 1133 3434 
Q 928 4138 513 4856 
z
" transform="scale(0.015625)"/>
      <path id="DejaVuSans-78" d="M 3513 3500 
L 2247 1797 
L 3578 0 
L 2900 0 
L 1881 1375 
L 863 0 
L 184 0 
L 1544 1831 
L 300 3500 
L 978 3500 
L 1906 2253 
L 2834 3500 
L 3513 3500 
z
" transform="scale(0.015625)"/>
      <path id="DejaVuSans-37" d="M 525 4666 
L 3525 4666 
L 3525 4397 
L 1831 0 
L 1172 0 
L 2766 4134 
L 525 4134 
L 525 4666 
z
" transform="scale(0.015625)"/>
      <path id="DejaVuSans-3d" d="M 678 2906 
L 4684 2906 
L 4684 2381 
L 678 2381 
L 678 2906 
z
M 678 1631 
L 4684 1631 
L 4684 1100 
L 678 1100 
L 678 1631 
z
" transform="scale(0.015625)"/>
      <path id="DejaVuSans-2e" d="M 684 794 
L 1344 794 
L 1344 0 
L 684 0 
L 684 794 
z
" transform="scale(0.015625)"/>
      <path id="DejaVuSans-38" d="M 2034 2216 
Q 1584 2216 1326 1975 
Q 1069 1734 1069 1313 
Q 1069 891 1326 650 
Q 1584 409 2034 409 
Q 2484 409 2743 651 
Q 3003 894 3003 1313 
Q 3003 1734 2745 1975 
Q 2488 2216 2034 2216 
z
M 1403 2484 
Q 997 2584 770 2862 
Q 544 3141 544 3541 
Q 544 4100 942 4425 
Q 1341 4750 2034 4750 
Q 2731 4750 3128 4425 
Q 3525 4100 3525 3541 
Q 3525 3141 3298 2862 
Q 3072 2584 2669 2484 
Q 3125 2378 3379 2068 
Q 3634 1759 3634 1313 
Q 3634 634 3220 271 
Q 2806 -91 2034 -91 
Q 1263 -91 848 271 
Q 434 634 434 1313 
Q 434 1759 690 2068 
Q 947 2378 1403 2484 
z
M 1172 3481 
Q 1172 3119 1398 2916 
Q 1625 2713 2034 2713 
Q 2441 2713 2670 2916 
Q 2900 3119 2900 3481 
Q 2900 3844 2670 4047 
Q 2441 4250 2034 4250 
Q 1625 4250 1398 4047 
Q 1172 3844 1172 3481 
z
" transform="scale(0.015625)"/>
     </defs>
     <use xlink:href="#DejaVuSans-41"/>
     <use xlink:href="#DejaVuSans-52" x="68.408203"/>
     <use xlink:href="#DejaVuSans-49" x="137.890625"/>
     <use xlink:href="#DejaVuSans-4d" x="167.382812"/>
     <use xlink:href="#DejaVuSans-41" x="253.662109"/>
     <use xlink:href="#DejaVuSans-20" x="322.070312"/>
     <use xlink:href="#DejaVuSans-28" x="353.857422"/>
     <use xlink:href="#DejaVuSans-31" x="392.871094"/>
     <use xlink:href="#DejaVuSans-2c" x="456.494141"/>
     <use xlink:href="#DejaVuSans-20" x="488.28125"/>
     <use xlink:href="#DejaVuSans-31" x="520.068359"/>
     <use xlink:href="#DejaVuSans-2c" x="583.691406"/>
     <use xlink:href="#DejaVuSans-20" x="615.478516"/>
     <use xlink:href="#DejaVuSans-31" x="647.265625"/>
     <use xlink:href="#DejaVuSans-29" x="710.888672"/>
     <use xlink:href="#DejaVuSans-78" x="749.902344"/>
     <use xlink:href="#DejaVuSans-28" x="809.082031"/>
     <use xlink:href="#DejaVuSans-31" x="848.095703"/>
     <use xlink:href="#DejaVuSans-2c" x="911.71875"/>
     <use xlink:href="#DejaVuSans-20" x="943.505859"/>
     <use xlink:href="#DejaVuSans-30" x="975.292969"/>
     <use xlink:href="#DejaVuSans-2c" x="1038.916016"/>
     <use xlink:href="#DejaVuSans-20" x="1070.703125"/>
     <use xlink:href="#DejaVuSans-31" x="1102.490234"/>
     <use xlink:href="#DejaVuSans-2c" x="1166.113281"/>
     <use xlink:href="#DejaVuSans-20" x="1197.900391"/>
     <use xlink:href="#DejaVuSans-37" x="1229.6875"/>
     <use xlink:href="#DejaVuSans-29" x="1293.310547"/>
     <use xlink:href="#DejaVuSans-20" x="1332.324219"/>
     <use xlink:href="#DejaVuSans-28" x="1364.111328"/>
     <use xlink:href="#DejaVuSans-52" x="1403.125"/>
     <use xlink:href="#DejaVuSans-32" x="1472.607422"/>
     <use xlink:href="#DejaVuSans-20" x="1536.230469"/>
     <use xlink:href="#DejaVuSans-3d" x="1568.017578"/>
     <use xlink:href="#DejaVuSans-20" x="1651.806641"/>
     <use xlink:href="#DejaVuSans-30" x="1683.59375"/>
     <use xlink:href="#DejaVuSans-2e" x="1747.216797"/>
     <use xlink:href="#DejaVuSans-31" x="1779.003906"/>
     <use xlink:href="#DejaVuSans-31" x="1842.626953"/>
     <use xlink:href="#DejaVuSans-39" x="1906.25"/>
     <use xlink:href="#DejaVuSans-34" x="1969.873047"/>
     <use xlink:href="#DejaVuSans-35" x="2033.496094"/>
     <use xlink:href="#DejaVuSans-38" x="2097.119141"/>
     <use xlink:href="#DejaVuSans-29" x="2160.742188"/>
    </g>
   </g>
   <g id="legend_1">
    <g id="patch_7">
     <path d="M 1268.407813 87.789875 
L 1365.4875 87.789875 
Q 1367.4875 87.789875 1367.4875 85.789875 
L 1367.4875 42.7555 
Q 1367.4875 40.7555 1365.4875 40.7555 
L 1268.407813 40.7555 
Q 1266.407813 40.7555 1266.407813 42.7555 
L 1266.407813 85.789875 
Q 1266.407813 87.789875 1268.407813 87.789875 
z
" style="fill: #ffffff; opacity: 0.8; stroke: #cccccc; stroke-linejoin: miter"/>
    </g>
    <g id="line2d_21">
     <path d="M 1270.407813 48.853937 
L 1280.407813 48.853937 
L 1290.407813 48.853937 
" style="fill: none; stroke: #0000ff; stroke-width: 1.5; stroke-linecap: square"/>
    </g>
    <g id="text_19">
     <!-- Actual Value -->
     <g transform="translate(1298.407813 52.353937)scale(0.1 -0.1)">
      <defs>
       <path id="DejaVuSans-75" d="M 544 1381 
L 544 3500 
L 1119 3500 
L 1119 1403 
Q 1119 906 1312 657 
Q 1506 409 1894 409 
Q 2359 409 2629 706 
Q 2900 1003 2900 1516 
L 2900 3500 
L 3475 3500 
L 3475 0 
L 2900 0 
L 2900 538 
Q 2691 219 2414 64 
Q 2138 -91 1772 -91 
Q 1169 -91 856 284 
Q 544 659 544 1381 
z
M 1991 3584 
L 1991 3584 
z
" transform="scale(0.015625)"/>
       <path id="DejaVuSans-56" d="M 1831 0 
L 50 4666 
L 709 4666 
L 2188 738 
L 3669 4666 
L 4325 4666 
L 2547 0 
L 1831 0 
z
" transform="scale(0.015625)"/>
      </defs>
      <use xlink:href="#DejaVuSans-41"/>
      <use xlink:href="#DejaVuSans-63" x="66.658203"/>
      <use xlink:href="#DejaVuSans-74" x="121.638672"/>
      <use xlink:href="#DejaVuSans-75" x="160.847656"/>
      <use xlink:href="#DejaVuSans-61" x="224.226562"/>
      <use xlink:href="#DejaVuSans-6c" x="285.505859"/>
      <use xlink:href="#DejaVuSans-20" x="313.289062"/>
      <use xlink:href="#DejaVuSans-56" x="345.076172"/>
      <use xlink:href="#DejaVuSans-61" x="405.734375"/>
      <use xlink:href="#DejaVuSans-6c" x="467.013672"/>
      <use xlink:href="#DejaVuSans-75" x="494.796875"/>
      <use xlink:href="#DejaVuSans-65" x="558.175781"/>
     </g>
    </g>
    <g id="line2d_22">
     <path d="M 1270.407813 63.532062 
L 1280.407813 63.532062 
L 1290.407813 63.532062 
" style="fill: none; stroke: #ffa500; stroke-width: 1.5; stroke-linecap: square"/>
    </g>
    <g id="text_20">
     <!-- Check Value -->
     <g transform="translate(1298.407813 67.032062)scale(0.1 -0.1)">
      <defs>
       <path id="DejaVuSans-68" d="M 3513 2113 
L 3513 0 
L 2938 0 
L 2938 2094 
Q 2938 2591 2744 2837 
Q 2550 3084 2163 3084 
Q 1697 3084 1428 2787 
Q 1159 2491 1159 1978 
L 1159 0 
L 581 0 
L 581 4863 
L 1159 4863 
L 1159 2956 
Q 1366 3272 1645 3428 
Q 1925 3584 2291 3584 
Q 2894 3584 3203 3211 
Q 3513 2838 3513 2113 
z
" transform="scale(0.015625)"/>
       <path id="DejaVuSans-6b" d="M 581 4863 
L 1159 4863 
L 1159 1991 
L 2875 3500 
L 3609 3500 
L 1753 1863 
L 3688 0 
L 2938 0 
L 1159 1709 
L 1159 0 
L 581 0 
L 581 4863 
z
" transform="scale(0.015625)"/>
      </defs>
      <use xlink:href="#DejaVuSans-43"/>
      <use xlink:href="#DejaVuSans-68" x="69.824219"/>
      <use xlink:href="#DejaVuSans-65" x="133.203125"/>
      <use xlink:href="#DejaVuSans-63" x="194.726562"/>
      <use xlink:href="#DejaVuSans-6b" x="249.707031"/>
      <use xlink:href="#DejaVuSans-20" x="307.617188"/>
      <use xlink:href="#DejaVuSans-56" x="339.404297"/>
      <use xlink:href="#DejaVuSans-61" x="400.0625"/>
      <use xlink:href="#DejaVuSans-6c" x="461.341797"/>
      <use xlink:href="#DejaVuSans-75" x="489.125"/>
      <use xlink:href="#DejaVuSans-65" x="552.503906"/>
     </g>
    </g>
    <g id="line2d_23">
     <path d="M 1270.407813 78.210187 
L 1280.407813 78.210187 
L 1290.407813 78.210187 
" style="fill: none; stroke: #ff0000; stroke-width: 1.5; stroke-linecap: square"/>
    </g>
    <g id="text_21">
     <!-- Predict Value -->
     <g transform="translate(1298.407813 81.710187)scale(0.1 -0.1)">
      <defs>
       <path id="DejaVuSans-50" d="M 1259 4147 
L 1259 2394 
L 2053 2394 
Q 2494 2394 2734 2622 
Q 2975 2850 2975 3272 
Q 2975 3691 2734 3919 
Q 2494 4147 2053 4147 
L 1259 4147 
z
M 628 4666 
L 2053 4666 
Q 2838 4666 3239 4311 
Q 3641 3956 3641 3272 
Q 3641 2581 3239 2228 
Q 2838 1875 2053 1875 
L 1259 1875 
L 1259 0 
L 628 0 
L 628 4666 
z
" transform="scale(0.015625)"/>
      </defs>
      <use xlink:href="#DejaVuSans-50"/>
      <use xlink:href="#DejaVuSans-72" x="58.552734"/>
      <use xlink:href="#DejaVuSans-65" x="97.416016"/>
      <use xlink:href="#DejaVuSans-64" x="158.939453"/>
      <use xlink:href="#DejaVuSans-69" x="222.416016"/>
      <use xlink:href="#DejaVuSans-63" x="250.199219"/>
      <use xlink:href="#DejaVuSans-74" x="305.179688"/>
      <use xlink:href="#DejaVuSans-20" x="344.388672"/>
      <use xlink:href="#DejaVuSans-56" x="376.175781"/>
      <use xlink:href="#DejaVuSans-61" x="436.833984"/>
      <use xlink:href="#DejaVuSans-6c" x="498.113281"/>
      <use xlink:href="#DejaVuSans-75" x="525.896484"/>
      <use xlink:href="#DejaVuSans-65" x="589.275391"/>
     </g>
    </g>
   </g>
  </g>
 </g>
 <defs>
  <clipPath id="pd840a42c8a">
   <rect x="33.2875" y="35.7555" width="1339.2" height="332.64"/>
  </clipPath>
 </defs>
</svg>
