<?xml version="1.0" encoding="utf-8" standalone="no"?>
<!DOCTYPE svg PUBLIC "-//W3C//DTD SVG 1.1//EN"
  "http://www.w3.org/Graphics/SVG/1.1/DTD/svg11.dtd">
<svg xmlns:xlink="http://www.w3.org/1999/xlink" width="1400.792188pt" height="392.273625pt" viewBox="0 0 1400.792188 392.273625" xmlns="http://www.w3.org/2000/svg" version="1.1">
 <metadata>
  <rdf:RDF xmlns:dc="http://purl.org/dc/elements/1.1/" xmlns:cc="http://creativecommons.org/ns#" xmlns:rdf="http://www.w3.org/1999/02/22-rdf-syntax-ns#">
   <cc:Work>
    <dc:type rdf:resource="http://purl.org/dc/dcmitype/StillImage"/>
    <dc:date>2023-01-01T18:32:31.754045</dc:date>
    <dc:format>image/svg+xml</dc:format>
    <dc:creator>
     <cc:Agent>
      <dc:title>Matplotlib v3.5.1, https://matplotlib.org/</dc:title>
     </cc:Agent>
    </dc:creator>
   </cc:Work>
  </rdf:RDF>
 </metadata>
 <defs>
  <style type="text/css">*{stroke-linejoin: round; stroke-linecap: butt}</style>
 </defs>
 <g id="figure_1">
  <g id="patch_1">
   <path d="M 0 392.273625 
L 1400.792188 392.273625 
L 1400.792188 0 
L 0 0 
z
" style="fill: #ffffff"/>
  </g>
  <g id="axes_1">
   <g id="patch_2">
    <path d="M 54.392188 368.3955 
L 1393.592188 368.3955 
L 1393.592188 35.7555 
L 54.392188 35.7555 
z
" style="fill: #ffffff"/>
   </g>
   <g id="matplotlib.axis_1">
    <g id="xtick_1">
     <g id="line2d_1">
      <defs>
       <path id="m6eb2e7f915" d="M 0 0 
L 0 3.5 
" style="stroke: #000000; stroke-width: 0.8"/>
      </defs>
      <g>
       <use xlink:href="#m6eb2e7f915" x="90.62462" y="368.3955" style="stroke: #000000; stroke-width: 0.8"/>
      </g>
     </g>
     <g id="text_1">
      <!-- 2020-01 -->
      <g transform="translate(69.733214 382.993937)scale(0.1 -0.1)">
       <defs>
        <path id="DejaVuSans-32" d="M 1228 531 
L 3431 531 
L 3431 0 
L 469 0 
L 469 531 
Q 828 903 1448 1529 
Q 2069 2156 2228 2338 
Q 2531 2678 2651 2914 
Q 2772 3150 2772 3378 
Q 2772 3750 2511 3984 
Q 2250 4219 1831 4219 
Q 1534 4219 1204 4116 
Q 875 4013 500 3803 
L 500 4441 
Q 881 4594 1212 4672 
Q 1544 4750 1819 4750 
Q 2544 4750 2975 4387 
Q 3406 4025 3406 3419 
Q 3406 3131 3298 2873 
Q 3191 2616 2906 2266 
Q 2828 2175 2409 1742 
Q 1991 1309 1228 531 
z
" transform="scale(0.015625)"/>
        <path id="DejaVuSans-30" d="M 2034 4250 
Q 1547 4250 1301 3770 
Q 1056 3291 1056 2328 
Q 1056 1369 1301 889 
Q 1547 409 2034 409 
Q 2525 409 2770 889 
Q 3016 1369 3016 2328 
Q 3016 3291 2770 3770 
Q 2525 4250 2034 4250 
z
M 2034 4750 
Q 2819 4750 3233 4129 
Q 3647 3509 3647 2328 
Q 3647 1150 3233 529 
Q 2819 -91 2034 -91 
Q 1250 -91 836 529 
Q 422 1150 422 2328 
Q 422 3509 836 4129 
Q 1250 4750 2034 4750 
z
" transform="scale(0.015625)"/>
        <path id="DejaVuSans-2d" d="M 313 2009 
L 1997 2009 
L 1997 1497 
L 313 1497 
L 313 2009 
z
" transform="scale(0.015625)"/>
        <path id="DejaVuSans-31" d="M 794 531 
L 1825 531 
L 1825 4091 
L 703 3866 
L 703 4441 
L 1819 4666 
L 2450 4666 
L 2450 531 
L 3481 531 
L 3481 0 
L 794 0 
L 794 531 
z
" transform="scale(0.015625)"/>
       </defs>
       <use xlink:href="#DejaVuSans-32"/>
       <use xlink:href="#DejaVuSans-30" x="63.623047"/>
       <use xlink:href="#DejaVuSans-32" x="127.246094"/>
       <use xlink:href="#DejaVuSans-30" x="190.869141"/>
       <use xlink:href="#DejaVuSans-2d" x="254.492188"/>
       <use xlink:href="#DejaVuSans-30" x="290.576172"/>
       <use xlink:href="#DejaVuSans-31" x="354.199219"/>
      </g>
     </g>
    </g>
    <g id="xtick_2">
     <g id="line2d_2">
      <g>
       <use xlink:href="#m6eb2e7f915" x="226.14624" y="368.3955" style="stroke: #000000; stroke-width: 0.8"/>
      </g>
     </g>
     <g id="text_2">
      <!-- 2020-05 -->
      <g transform="translate(205.254833 382.993937)scale(0.1 -0.1)">
       <defs>
        <path id="DejaVuSans-35" d="M 691 4666 
L 3169 4666 
L 3169 4134 
L 1269 4134 
L 1269 2991 
Q 1406 3038 1543 3061 
Q 1681 3084 1819 3084 
Q 2600 3084 3056 2656 
Q 3513 2228 3513 1497 
Q 3513 744 3044 326 
Q 2575 -91 1722 -91 
Q 1428 -91 1123 -41 
Q 819 9 494 109 
L 494 744 
Q 775 591 1075 516 
Q 1375 441 1709 441 
Q 2250 441 2565 725 
Q 2881 1009 2881 1497 
Q 2881 1984 2565 2268 
Q 2250 2553 1709 2553 
Q 1456 2553 1204 2497 
Q 953 2441 691 2322 
L 691 4666 
z
" transform="scale(0.015625)"/>
       </defs>
       <use xlink:href="#DejaVuSans-32"/>
       <use xlink:href="#DejaVuSans-30" x="63.623047"/>
       <use xlink:href="#DejaVuSans-32" x="127.246094"/>
       <use xlink:href="#DejaVuSans-30" x="190.869141"/>
       <use xlink:href="#DejaVuSans-2d" x="254.492188"/>
       <use xlink:href="#DejaVuSans-30" x="290.576172"/>
       <use xlink:href="#DejaVuSans-35" x="354.199219"/>
      </g>
     </g>
    </g>
    <g id="xtick_3">
     <g id="line2d_3">
      <g>
       <use xlink:href="#m6eb2e7f915" x="363.907885" y="368.3955" style="stroke: #000000; stroke-width: 0.8"/>
      </g>
     </g>
     <g id="text_3">
      <!-- 2020-09 -->
      <g transform="translate(343.016479 382.993937)scale(0.1 -0.1)">
       <defs>
        <path id="DejaVuSans-39" d="M 703 97 
L 703 672 
Q 941 559 1184 500 
Q 1428 441 1663 441 
Q 2288 441 2617 861 
Q 2947 1281 2994 2138 
Q 2813 1869 2534 1725 
Q 2256 1581 1919 1581 
Q 1219 1581 811 2004 
Q 403 2428 403 3163 
Q 403 3881 828 4315 
Q 1253 4750 1959 4750 
Q 2769 4750 3195 4129 
Q 3622 3509 3622 2328 
Q 3622 1225 3098 567 
Q 2575 -91 1691 -91 
Q 1453 -91 1209 -44 
Q 966 3 703 97 
z
M 1959 2075 
Q 2384 2075 2632 2365 
Q 2881 2656 2881 3163 
Q 2881 3666 2632 3958 
Q 2384 4250 1959 4250 
Q 1534 4250 1286 3958 
Q 1038 3666 1038 3163 
Q 1038 2656 1286 2365 
Q 1534 2075 1959 2075 
z
" transform="scale(0.015625)"/>
       </defs>
       <use xlink:href="#DejaVuSans-32"/>
       <use xlink:href="#DejaVuSans-30" x="63.623047"/>
       <use xlink:href="#DejaVuSans-32" x="127.246094"/>
       <use xlink:href="#DejaVuSans-30" x="190.869141"/>
       <use xlink:href="#DejaVuSans-2d" x="254.492188"/>
       <use xlink:href="#DejaVuSans-30" x="290.576172"/>
       <use xlink:href="#DejaVuSans-39" x="354.199219"/>
      </g>
     </g>
    </g>
    <g id="xtick_4">
     <g id="line2d_4">
      <g>
       <use xlink:href="#m6eb2e7f915" x="500.549518" y="368.3955" style="stroke: #000000; stroke-width: 0.8"/>
      </g>
     </g>
     <g id="text_4">
      <!-- 2021-01 -->
      <g transform="translate(479.658112 382.993937)scale(0.1 -0.1)">
       <use xlink:href="#DejaVuSans-32"/>
       <use xlink:href="#DejaVuSans-30" x="63.623047"/>
       <use xlink:href="#DejaVuSans-32" x="127.246094"/>
       <use xlink:href="#DejaVuSans-31" x="190.869141"/>
       <use xlink:href="#DejaVuSans-2d" x="254.492188"/>
       <use xlink:href="#DejaVuSans-30" x="290.576172"/>
       <use xlink:href="#DejaVuSans-31" x="354.199219"/>
      </g>
     </g>
    </g>
    <g id="xtick_5">
     <g id="line2d_5">
      <g>
       <use xlink:href="#m6eb2e7f915" x="634.951124" y="368.3955" style="stroke: #000000; stroke-width: 0.8"/>
      </g>
     </g>
     <g id="text_5">
      <!-- 2021-05 -->
      <g transform="translate(614.059717 382.993937)scale(0.1 -0.1)">
       <use xlink:href="#DejaVuSans-32"/>
       <use xlink:href="#DejaVuSans-30" x="63.623047"/>
       <use xlink:href="#DejaVuSans-32" x="127.246094"/>
       <use xlink:href="#DejaVuSans-31" x="190.869141"/>
       <use xlink:href="#DejaVuSans-2d" x="254.492188"/>
       <use xlink:href="#DejaVuSans-30" x="290.576172"/>
       <use xlink:href="#DejaVuSans-35" x="354.199219"/>
      </g>
     </g>
    </g>
    <g id="xtick_6">
     <g id="line2d_6">
      <g>
       <use xlink:href="#m6eb2e7f915" x="772.71277" y="368.3955" style="stroke: #000000; stroke-width: 0.8"/>
      </g>
     </g>
     <g id="text_6">
      <!-- 2021-09 -->
      <g transform="translate(751.821363 382.993937)scale(0.1 -0.1)">
       <use xlink:href="#DejaVuSans-32"/>
       <use xlink:href="#DejaVuSans-30" x="63.623047"/>
       <use xlink:href="#DejaVuSans-32" x="127.246094"/>
       <use xlink:href="#DejaVuSans-31" x="190.869141"/>
       <use xlink:href="#DejaVuSans-2d" x="254.492188"/>
       <use xlink:href="#DejaVuSans-30" x="290.576172"/>
       <use xlink:href="#DejaVuSans-39" x="354.199219"/>
      </g>
     </g>
    </g>
    <g id="xtick_7">
     <g id="line2d_7">
      <g>
       <use xlink:href="#m6eb2e7f915" x="909.354402" y="368.3955" style="stroke: #000000; stroke-width: 0.8"/>
      </g>
     </g>
     <g id="text_7">
      <!-- 2022-01 -->
      <g transform="translate(888.462996 382.993937)scale(0.1 -0.1)">
       <use xlink:href="#DejaVuSans-32"/>
       <use xlink:href="#DejaVuSans-30" x="63.623047"/>
       <use xlink:href="#DejaVuSans-32" x="127.246094"/>
       <use xlink:href="#DejaVuSans-32" x="190.869141"/>
       <use xlink:href="#DejaVuSans-2d" x="254.492188"/>
       <use xlink:href="#DejaVuSans-30" x="290.576172"/>
       <use xlink:href="#DejaVuSans-31" x="354.199219"/>
      </g>
     </g>
    </g>
    <g id="xtick_8">
     <g id="line2d_8">
      <g>
       <use xlink:href="#m6eb2e7f915" x="1043.756008" y="368.3955" style="stroke: #000000; stroke-width: 0.8"/>
      </g>
     </g>
     <g id="text_8">
      <!-- 2022-05 -->
      <g transform="translate(1022.864602 382.993937)scale(0.1 -0.1)">
       <use xlink:href="#DejaVuSans-32"/>
       <use xlink:href="#DejaVuSans-30" x="63.623047"/>
       <use xlink:href="#DejaVuSans-32" x="127.246094"/>
       <use xlink:href="#DejaVuSans-32" x="190.869141"/>
       <use xlink:href="#DejaVuSans-2d" x="254.492188"/>
       <use xlink:href="#DejaVuSans-30" x="290.576172"/>
       <use xlink:href="#DejaVuSans-35" x="354.199219"/>
      </g>
     </g>
    </g>
    <g id="xtick_9">
     <g id="line2d_9">
      <g>
       <use xlink:href="#m6eb2e7f915" x="1181.517654" y="368.3955" style="stroke: #000000; stroke-width: 0.8"/>
      </g>
     </g>
     <g id="text_9">
      <!-- 2022-09 -->
      <g transform="translate(1160.626248 382.993937)scale(0.1 -0.1)">
       <use xlink:href="#DejaVuSans-32"/>
       <use xlink:href="#DejaVuSans-30" x="63.623047"/>
       <use xlink:href="#DejaVuSans-32" x="127.246094"/>
       <use xlink:href="#DejaVuSans-32" x="190.869141"/>
       <use xlink:href="#DejaVuSans-2d" x="254.492188"/>
       <use xlink:href="#DejaVuSans-30" x="290.576172"/>
       <use xlink:href="#DejaVuSans-39" x="354.199219"/>
      </g>
     </g>
    </g>
    <g id="xtick_10">
     <g id="line2d_10">
      <g>
       <use xlink:href="#m6eb2e7f915" x="1318.159286" y="368.3955" style="stroke: #000000; stroke-width: 0.8"/>
      </g>
     </g>
     <g id="text_10">
      <!-- 2023-01 -->
      <g transform="translate(1297.26788 382.993937)scale(0.1 -0.1)">
       <defs>
        <path id="DejaVuSans-33" d="M 2597 2516 
Q 3050 2419 3304 2112 
Q 3559 1806 3559 1356 
Q 3559 666 3084 287 
Q 2609 -91 1734 -91 
Q 1441 -91 1130 -33 
Q 819 25 488 141 
L 488 750 
Q 750 597 1062 519 
Q 1375 441 1716 441 
Q 2309 441 2620 675 
Q 2931 909 2931 1356 
Q 2931 1769 2642 2001 
Q 2353 2234 1838 2234 
L 1294 2234 
L 1294 2753 
L 1863 2753 
Q 2328 2753 2575 2939 
Q 2822 3125 2822 3475 
Q 2822 3834 2567 4026 
Q 2313 4219 1838 4219 
Q 1578 4219 1281 4162 
Q 984 4106 628 3988 
L 628 4550 
Q 988 4650 1302 4700 
Q 1616 4750 1894 4750 
Q 2613 4750 3031 4423 
Q 3450 4097 3450 3541 
Q 3450 3153 3228 2886 
Q 3006 2619 2597 2516 
z
" transform="scale(0.015625)"/>
       </defs>
       <use xlink:href="#DejaVuSans-32"/>
       <use xlink:href="#DejaVuSans-30" x="63.623047"/>
       <use xlink:href="#DejaVuSans-32" x="127.246094"/>
       <use xlink:href="#DejaVuSans-33" x="190.869141"/>
       <use xlink:href="#DejaVuSans-2d" x="254.492188"/>
       <use xlink:href="#DejaVuSans-30" x="290.576172"/>
       <use xlink:href="#DejaVuSans-31" x="354.199219"/>
      </g>
     </g>
    </g>
   </g>
   <g id="matplotlib.axis_2">
    <g id="ytick_1">
     <g id="line2d_11">
      <defs>
       <path id="m0e3a8c230a" d="M 0 0 
L -3.5 0 
" style="stroke: #000000; stroke-width: 0.8"/>
      </defs>
      <g>
       <use xlink:href="#m0e3a8c230a" x="54.392188" y="361.51388" style="stroke: #000000; stroke-width: 0.8"/>
      </g>
     </g>
     <g id="text_11">
      <!-- −10000 -->
      <g transform="translate(7.2 365.313099)scale(0.1 -0.1)">
       <defs>
        <path id="DejaVuSans-2212" d="M 678 2272 
L 4684 2272 
L 4684 1741 
L 678 1741 
L 678 2272 
z
" transform="scale(0.015625)"/>
       </defs>
       <use xlink:href="#DejaVuSans-2212"/>
       <use xlink:href="#DejaVuSans-31" x="83.789062"/>
       <use xlink:href="#DejaVuSans-30" x="147.412109"/>
       <use xlink:href="#DejaVuSans-30" x="211.035156"/>
       <use xlink:href="#DejaVuSans-30" x="274.658203"/>
       <use xlink:href="#DejaVuSans-30" x="338.28125"/>
      </g>
     </g>
    </g>
    <g id="ytick_2">
     <g id="line2d_12">
      <g>
       <use xlink:href="#m0e3a8c230a" x="54.392188" y="319.352261" style="stroke: #000000; stroke-width: 0.8"/>
      </g>
     </g>
     <g id="text_12">
      <!-- 0 -->
      <g transform="translate(41.029688 323.15148)scale(0.1 -0.1)">
       <use xlink:href="#DejaVuSans-30"/>
      </g>
     </g>
    </g>
    <g id="ytick_3">
     <g id="line2d_13">
      <g>
       <use xlink:href="#m0e3a8c230a" x="54.392188" y="277.190641" style="stroke: #000000; stroke-width: 0.8"/>
      </g>
     </g>
     <g id="text_13">
      <!-- 10000 -->
      <g transform="translate(15.579688 280.98986)scale(0.1 -0.1)">
       <use xlink:href="#DejaVuSans-31"/>
       <use xlink:href="#DejaVuSans-30" x="63.623047"/>
       <use xlink:href="#DejaVuSans-30" x="127.246094"/>
       <use xlink:href="#DejaVuSans-30" x="190.869141"/>
       <use xlink:href="#DejaVuSans-30" x="254.492188"/>
      </g>
     </g>
    </g>
    <g id="ytick_4">
     <g id="line2d_14">
      <g>
       <use xlink:href="#m0e3a8c230a" x="54.392188" y="235.029022" style="stroke: #000000; stroke-width: 0.8"/>
      </g>
     </g>
     <g id="text_14">
      <!-- 20000 -->
      <g transform="translate(15.579688 238.828241)scale(0.1 -0.1)">
       <use xlink:href="#DejaVuSans-32"/>
       <use xlink:href="#DejaVuSans-30" x="63.623047"/>
       <use xlink:href="#DejaVuSans-30" x="127.246094"/>
       <use xlink:href="#DejaVuSans-30" x="190.869141"/>
       <use xlink:href="#DejaVuSans-30" x="254.492188"/>
      </g>
     </g>
    </g>
    <g id="ytick_5">
     <g id="line2d_15">
      <g>
       <use xlink:href="#m0e3a8c230a" x="54.392188" y="192.867402" style="stroke: #000000; stroke-width: 0.8"/>
      </g>
     </g>
     <g id="text_15">
      <!-- 30000 -->
      <g transform="translate(15.579688 196.666621)scale(0.1 -0.1)">
       <use xlink:href="#DejaVuSans-33"/>
       <use xlink:href="#DejaVuSans-30" x="63.623047"/>
       <use xlink:href="#DejaVuSans-30" x="127.246094"/>
       <use xlink:href="#DejaVuSans-30" x="190.869141"/>
       <use xlink:href="#DejaVuSans-30" x="254.492188"/>
      </g>
     </g>
    </g>
    <g id="ytick_6">
     <g id="line2d_16">
      <g>
       <use xlink:href="#m0e3a8c230a" x="54.392188" y="150.705783" style="stroke: #000000; stroke-width: 0.8"/>
      </g>
     </g>
     <g id="text_16">
      <!-- 40000 -->
      <g transform="translate(15.579688 154.505002)scale(0.1 -0.1)">
       <defs>
        <path id="DejaVuSans-34" d="M 2419 4116 
L 825 1625 
L 2419 1625 
L 2419 4116 
z
M 2253 4666 
L 3047 4666 
L 3047 1625 
L 3713 1625 
L 3713 1100 
L 3047 1100 
L 3047 0 
L 2419 0 
L 2419 1100 
L 313 1100 
L 313 1709 
L 2253 4666 
z
" transform="scale(0.015625)"/>
       </defs>
       <use xlink:href="#DejaVuSans-34"/>
       <use xlink:href="#DejaVuSans-30" x="63.623047"/>
       <use xlink:href="#DejaVuSans-30" x="127.246094"/>
       <use xlink:href="#DejaVuSans-30" x="190.869141"/>
       <use xlink:href="#DejaVuSans-30" x="254.492188"/>
      </g>
     </g>
    </g>
    <g id="ytick_7">
     <g id="line2d_17">
      <g>
       <use xlink:href="#m0e3a8c230a" x="54.392188" y="108.544163" style="stroke: #000000; stroke-width: 0.8"/>
      </g>
     </g>
     <g id="text_17">
      <!-- 50000 -->
      <g transform="translate(15.579688 112.343382)scale(0.1 -0.1)">
       <use xlink:href="#DejaVuSans-35"/>
       <use xlink:href="#DejaVuSans-30" x="63.623047"/>
       <use xlink:href="#DejaVuSans-30" x="127.246094"/>
       <use xlink:href="#DejaVuSans-30" x="190.869141"/>
       <use xlink:href="#DejaVuSans-30" x="254.492188"/>
      </g>
     </g>
    </g>
    <g id="ytick_8">
     <g id="line2d_18">
      <g>
       <use xlink:href="#m0e3a8c230a" x="54.392188" y="66.382544" style="stroke: #000000; stroke-width: 0.8"/>
      </g>
     </g>
     <g id="text_18">
      <!-- 60000 -->
      <g transform="translate(15.579688 70.181762)scale(0.1 -0.1)">
       <defs>
        <path id="DejaVuSans-36" d="M 2113 2584 
Q 1688 2584 1439 2293 
Q 1191 2003 1191 1497 
Q 1191 994 1439 701 
Q 1688 409 2113 409 
Q 2538 409 2786 701 
Q 3034 994 3034 1497 
Q 3034 2003 2786 2293 
Q 2538 2584 2113 2584 
z
M 3366 4563 
L 3366 3988 
Q 3128 4100 2886 4159 
Q 2644 4219 2406 4219 
Q 1781 4219 1451 3797 
Q 1122 3375 1075 2522 
Q 1259 2794 1537 2939 
Q 1816 3084 2150 3084 
Q 2853 3084 3261 2657 
Q 3669 2231 3669 1497 
Q 3669 778 3244 343 
Q 2819 -91 2113 -91 
Q 1303 -91 875 529 
Q 447 1150 447 2328 
Q 447 3434 972 4092 
Q 1497 4750 2381 4750 
Q 2619 4750 2861 4703 
Q 3103 4656 3366 4563 
z
" transform="scale(0.015625)"/>
       </defs>
       <use xlink:href="#DejaVuSans-36"/>
       <use xlink:href="#DejaVuSans-30" x="63.623047"/>
       <use xlink:href="#DejaVuSans-30" x="127.246094"/>
       <use xlink:href="#DejaVuSans-30" x="190.869141"/>
       <use xlink:href="#DejaVuSans-30" x="254.492188"/>
      </g>
     </g>
    </g>
   </g>
   <g id="line2d_19">
    <path d="M 115.264915 319.343829 
L 145.505276 319.352261 
L 167.905544 319.263722 
L 169.025557 319.086643 
L 170.14557 319.095075 
L 171.265584 318.943293 
L 172.385597 319.069778 
L 175.745637 318.702972 
L 176.865651 318.327734 
L 177.985664 318.289788 
L 179.105678 317.906117 
L 180.225691 317.231531 
L 181.345704 317.425475 
L 182.465718 316.62862 
L 183.585731 316.405164 
L 184.705744 316.9364 
L 185.825758 315.384853 
L 186.945771 315.688416 
L 188.065785 315.43123 
L 189.185798 315.405933 
L 190.305811 314.157949 
L 191.425825 314.153733 
L 192.545838 313.820656 
L 193.665851 312.104679 
L 194.785865 313.736333 
L 195.905878 313.719469 
L 197.025892 314.339244 
L 198.145905 313.023802 
L 199.265918 313.500228 
L 200.385932 314.141085 
L 201.505945 313.533957 
L 202.625959 314.528972 
L 203.745972 313.550822 
L 204.865985 313.694172 
L 205.985999 311.775818 
L 207.106012 312.231163 
L 208.226025 311.986626 
L 209.346039 311.906519 
L 210.466052 310.388701 
L 211.586066 312.918398 
L 212.706079 312.184786 
L 213.826092 312.134192 
L 214.946106 312.648563 
L 216.066119 311.569226 
L 217.186132 311.725224 
L 218.306146 312.437755 
L 219.426159 312.682293 
L 220.546173 314.246489 
L 221.666186 312.370297 
L 222.786199 312.931046 
L 223.906213 312.231163 
L 225.026226 312.441971 
L 226.14624 311.716792 
L 227.266253 313.635145 
L 228.386266 314.044113 
L 229.50628 313.550822 
L 230.626293 313.470715 
L 231.746306 312.960559 
L 232.86632 313.993519 
L 236.22636 314.975885 
L 237.346373 315.034911 
L 239.5864 314.17903 
L 240.706413 314.672321 
L 241.826427 313.993519 
L 242.94644 314.482594 
L 244.066454 314.259137 
L 245.186467 314.773509 
L 246.30648 315.127667 
L 247.426494 314.056762 
L 248.546507 314.65124 
L 249.666521 314.756644 
L 250.786534 315.528202 
L 251.906547 315.334259 
L 253.026561 315.287881 
L 254.146574 316.118465 
L 255.266587 315.620958 
L 256.386601 316.034141 
L 257.506614 314.845184 
L 258.626628 316.139546 
L 259.746641 316.274463 
L 260.866654 315.996196 
L 261.986668 316.708727 
L 263.106681 316.476838 
L 264.226694 316.898455 
L 265.346708 317.130344 
L 266.466721 317.142992 
L 267.586735 317.615202 
L 268.706748 317.450772 
L 269.826761 317.522447 
L 270.946775 317.286342 
L 272.066788 317.615202 
L 273.186802 317.40861 
L 274.306815 317.91455 
L 275.426828 318.07898 
L 276.546842 317.762768 
L 277.666855 317.838659 
L 279.906882 317.640499 
L 281.026895 317.71639 
L 282.146909 318.02417 
L 283.266922 318.053683 
L 284.386935 317.855523 
L 285.506949 318.011521 
L 286.626962 318.003089 
L 287.746975 318.112709 
L 288.866989 317.973576 
L 289.987002 317.657364 
L 291.107016 318.032602 
L 292.227029 318.104277 
L 293.347042 317.944063 
L 294.467056 318.416273 
L 295.587069 317.88082 
L 296.707083 318.011521 
L 298.947109 318.690323 
L 300.067123 317.868172 
L 301.187136 318.032602 
L 304.547176 317.885037 
L 305.66719 318.340382 
L 306.787203 318.450002 
L 307.907216 317.067101 
L 309.02723 317.556176 
L 310.147243 317.640499 
L 311.267256 317.320071 
L 312.38727 317.121911 
L 314.627297 318.285572 
L 315.74731 316.000412 
L 316.867323 317.412826 
L 317.987337 317.741687 
L 319.10735 316.249166 
L 320.227364 317.509798 
L 321.347377 317.935631 
L 322.46739 318.057899 
L 323.587404 316.691863 
L 324.707417 317.762768 
L 325.82743 317.239964 
L 326.947444 317.471853 
L 328.067457 317.446556 
L 329.187471 318.281356 
L 330.307484 318.576487 
L 331.427497 318.226546 
L 332.547511 316.447325 
L 333.667524 317.842875 
L 334.787538 317.948279 
L 335.907551 317.488717 
L 337.027564 318.344598 
L 338.147578 318.412057 
L 339.267591 316.894238 
L 340.387604 317.82601 
L 341.507618 317.948279 
L 342.627631 317.269477 
L 343.747645 317.615202 
L 344.867658 318.466867 
L 345.987671 318.614433 
L 347.107685 318.492164 
L 348.227698 315.545067 
L 349.347711 317.855523 
L 350.467725 318.315085 
L 351.587738 316.379867 
L 352.707752 318.49638 
L 353.827765 318.24341 
L 354.947778 316.228085 
L 356.067792 317.788065 
L 357.187805 317.311639 
L 358.307819 317.349584 
L 359.427832 316.982778 
L 360.547845 317.973576 
L 361.667859 318.180168 
L 362.787872 314.996966 
L 363.907885 317.088182 
L 365.027899 316.961697 
L 366.147912 316.603323 
L 367.267926 316.66235 
L 368.387939 317.750119 
L 369.507952 317.535095 
L 370.627966 317.594121 
L 371.747979 313.120774 
L 372.867992 317.218883 
L 373.988006 315.21199 
L 376.228033 316.658133 
L 377.348046 316.923752 
L 378.468059 313.748982 
L 379.588073 315.43123 
L 380.708086 315.119234 
L 381.8281 314.65124 
L 382.948113 313.951357 
L 384.068126 315.279448 
L 385.18814 315.414366 
L 386.308153 312.269109 
L 387.428166 314.238056 
L 388.54818 313.34423 
L 389.668193 313.323149 
L 390.788207 311.788466 
L 393.028233 313.205097 
L 394.148247 310.064056 
L 395.26826 311.206636 
L 396.388273 310.831398 
L 397.508287 311.409012 
L 398.6283 310.215838 
L 399.748314 311.9276 
L 400.868327 312.349216 
L 401.98834 309.153365 
L 403.108354 310.249567 
L 404.228367 310.464592 
L 405.348381 309.22504 
L 406.468394 309.001583 
L 407.588407 311.957113 
L 408.708421 311.354202 
L 409.828434 312.922614 
L 410.948447 304.722179 
L 412.068461 308.647426 
L 414.308488 309.064826 
L 415.428501 311.834844 
L 416.548514 311.20242 
L 417.668528 306.109296 
L 418.788541 308.908828 
L 419.908554 308.141486 
L 421.028568 308.60948 
L 422.148581 306.261078 
L 423.268595 310.860911 
L 424.388608 311.215068 
L 425.508621 301.517896 
L 426.628635 307.762032 
L 427.748648 307.226579 
L 428.868662 306.889286 
L 429.988675 304.903474 
L 431.108688 309.562333 
L 432.228702 308.740181 
L 433.348715 305.422062 
L 434.468728 299.44776 
L 435.588742 307.298254 
L 436.708755 302.318967 
L 437.828769 299.076738 
L 438.948782 301.517896 
L 440.068795 302.689989 
L 441.188809 298.731013 
L 442.308822 299.785053 
L 443.428835 301.981674 
L 444.548849 296.201316 
L 446.788876 301.286007 
L 447.908889 302.044916 
L 449.028902 294.822631 
L 450.148916 300.704177 
L 452.388943 298.208209 
L 453.508956 297.963671 
L 454.628969 298.992415 
L 455.748983 299.814566 
L 456.868996 290.800412 
L 457.989009 296.458502 
L 460.229036 294.63712 
L 461.34905 294.607606 
L 462.469063 295.809213 
L 463.589076 296.36153 
L 464.70909 286.997434 
L 465.829103 294.898522 
L 466.949116 292.503742 
L 468.06913 291.82494 
L 469.189143 290.585388 
L 470.309157 293.283732 
L 471.42917 294.346204 
L 472.549183 286.402955 
L 473.669197 292.954871 
L 474.78921 292.520606 
L 475.909224 291.677374 
L 477.029237 289.763236 
L 478.14925 293.317461 
L 479.269264 294.089018 
L 480.389277 283.325157 
L 481.50929 292.575416 
L 482.629304 290.606469 
L 483.749317 288.215905 
L 484.869331 289.021192 
L 485.989344 293.325893 
L 487.109357 293.764374 
L 488.229371 287.191378 
L 489.349384 291.84602 
L 490.469398 291.150354 
L 491.589411 292.566984 
L 492.709424 294.375718 
L 493.829438 296.681958 
L 494.949451 295.977859 
L 496.069464 292.916925 
L 497.189478 279.699258 
L 498.309491 286.828788 
L 500.549518 292.651307 
L 501.669531 294.839495 
L 502.789545 278.771702 
L 503.909558 278.383815 
L 505.029571 287.612994 
L 506.149585 281.782042 
L 507.269598 280.43287 
L 508.389612 281.870581 
L 509.509625 290.302905 
L 510.629638 292.35196 
L 511.749652 288.068339 
L 512.869665 290.669711 
L 513.989679 289.455456 
L 516.229705 290.054151 
L 517.349719 294.894305 
L 518.469732 298.760526 
L 519.589745 293.865562 
L 520.709759 296.939144 
L 521.829772 294.755172 
L 522.949786 294.717227 
L 524.069799 295.455055 
L 525.189812 301.214332 
L 526.309826 302.740583 
L 527.429839 296.787362 
L 528.549852 300.95293 
L 529.669866 300.586124 
L 530.789879 299.772405 
L 531.909893 299.586894 
L 533.029906 303.739813 
L 534.149919 305.847894 
L 535.269933 302.441235 
L 536.389946 304.047593 
L 537.50996 304.169862 
L 538.629973 302.786961 
L 539.749986 302.639395 
L 540.87 306.826044 
L 541.990013 308.482995 
L 543.110026 304.570397 
L 544.23004 306.923015 
L 545.350053 304.136132 
L 546.470067 305.118498 
L 547.59008 305.396765 
L 548.710093 308.723317 
L 549.830107 310.034543 
L 550.95012 311.054854 
L 552.070133 302.580369 
L 553.190147 307.289822 
L 554.31016 304.806502 
L 555.430174 306.092432 
L 556.550187 308.504076 
L 557.6702 309.199743 
L 558.790214 304.283698 
L 559.910227 306.606803 
L 561.030241 306.455021 
L 562.150254 306.058702 
L 563.270267 306.218916 
L 564.390281 308.803424 
L 565.510294 310.342323 
L 566.630307 304.5451 
L 567.750321 306.476102 
L 568.870334 306.906151 
L 569.990348 305.696112 
L 571.110361 305.375684 
L 572.230374 308.162567 
L 573.350388 309.364173 
L 574.470401 303.474195 
L 575.590414 306.573074 
L 576.710428 305.818381 
L 577.830441 304.857096 
L 578.950455 303.453114 
L 580.070468 307.479549 
L 581.190481 309.220824 
L 582.310495 302.972472 
L 583.430508 304.68845 
L 584.550522 304.047593 
L 585.670535 302.795393 
L 586.790548 301.024605 
L 587.910562 305.358819 
L 589.030575 306.252646 
L 590.150588 297.904645 
L 591.270602 302.302102 
L 592.390615 298.2841 
L 593.510629 297.567352 
L 594.630642 295.695376 
L 595.750655 301.973241 
L 596.870669 302.369561 
L 597.990682 291.487647 
L 599.110695 297.284869 
L 600.230709 291.871317 
L 601.350722 292.562768 
L 602.470736 299.877809 
L 603.590749 294.215503 
L 604.710762 300.881255 
L 605.830776 287.663588 
L 606.950789 272.219786 
L 608.070803 284.965244 
L 609.190816 281.933824 
L 610.310829 280.593084 
L 611.430843 285.770531 
L 612.550856 289.059137 
L 613.670869 275.626445 
L 614.790883 284.796598 
L 615.910896 279.87212 
L 617.03091 278.219385 
L 618.150923 284.493034 
L 619.270936 286.348145 
L 620.39095 289.03384 
L 621.510963 278.860242 
L 622.630976 286.031933 
L 623.75099 284.712274 
L 624.871003 281.26767 
L 625.991017 284.670113 
L 627.11103 289.063353 
L 628.231043 291.521376 
L 629.351057 282.899325 
L 630.47107 287.718398 
L 631.591084 284.488818 
L 632.711097 284.113579 
L 633.83111 285.766315 
L 634.951124 286.609547 
L 636.071137 293.469243 
L 637.19115 284.294874 
L 638.311164 290.256527 
L 639.431177 286.807707 
L 640.551191 285.273024 
L 641.671204 286.69387 
L 642.791217 292.035748 
L 643.911231 296.015805 
L 645.031244 290.087881 
L 646.151258 293.709564 
L 647.271271 291.466566 
L 648.391284 292.5712 
L 649.511298 294.004695 
L 650.631311 299.144197 
L 651.751324 301.353466 
L 652.871338 298.30518 
L 653.991351 300.881255 
L 655.111365 298.313613 
L 656.231378 300.472288 
L 657.351391 300.501801 
L 658.471405 304.882393 
L 659.591418 307.416306 
L 660.711431 309.347309 
L 661.831445 304.608343 
L 662.951458 307.331983 
L 664.071472 306.594155 
L 665.191485 306.93988 
L 666.311498 309.452713 
L 667.431512 311.543929 
L 668.551525 309.448496 
L 669.671539 311.636685 
L 670.791552 310.093569 
L 671.911565 310.266432 
L 674.151592 313.023802 
L 675.271605 314.343461 
L 676.391619 313.184016 
L 677.511632 313.559254 
L 678.631646 312.720238 
L 679.751659 313.28942 
L 680.871672 313.664658 
L 681.991686 314.453081 
L 683.111699 315.46496 
L 684.231712 314.916859 
L 685.351726 315.262584 
L 686.471739 315.060208 
L 687.591753 314.722915 
L 688.711766 315.182477 
L 689.831779 316.219653 
L 690.951793 316.742457 
L 692.071806 316.468406 
L 693.19182 316.603323 
L 694.311833 316.363002 
L 695.431846 316.367218 
L 696.55186 316.66235 
L 698.791886 317.653148 
L 699.9119 316.350354 
L 702.151927 317.033372 
L 703.27194 318.1886 
L 704.391953 316.586459 
L 705.511967 317.729039 
L 706.63198 318.116925 
L 707.751993 316.9364 
L 708.872007 317.644715 
L 709.99202 316.99121 
L 711.112034 317.147208 
L 712.232047 317.10083 
L 713.35206 317.889253 
L 714.472074 318.218113 
L 715.592087 317.438123 
L 716.712101 317.813362 
L 717.832114 317.986224 
L 718.952127 317.467637 
L 720.072141 317.809146 
L 721.192154 317.889253 
L 722.312167 318.125358 
L 723.432181 316.970129 
L 724.552194 317.855523 
L 725.672208 317.083966 
L 726.792221 317.691093 
L 727.912234 316.843645 
L 729.032248 317.775416 
L 730.152261 318.112709 
L 731.272274 315.372204 
L 732.392288 316.847861 
L 733.512301 315.798036 
L 734.632315 315.427014 
L 735.752328 315.536634 
L 736.872341 317.362232 
L 737.992355 317.750119 
L 739.112368 317.935631 
L 740.232382 310.793452 
L 741.352395 314.743996 
L 742.472408 312.648563 
L 743.592422 312.500998 
L 744.712435 316.32084 
L 745.832448 316.278679 
L 746.952462 307.306686 
L 748.072475 313.377959 
L 749.192489 310.58686 
L 750.312502 310.236919 
L 751.432515 309.073258 
L 752.552529 314.832535 
L 753.672542 315.435446 
L 754.792555 302.837555 
L 755.912569 311.029557 
L 757.032582 308.407104 
L 758.152596 307.116959 
L 759.272609 306.57729 
L 760.392622 313.1798 
L 761.512636 314.330812 
L 762.632649 299.080954 
L 763.752663 308.849801 
L 764.872676 304.717963 
L 765.992689 304.368021 
L 767.112703 303.465763 
L 768.232716 312.285973 
L 769.352729 313.306285 
L 770.472743 292.410986 
L 771.592756 305.894272 
L 772.71277 302.487613 
L 773.832783 302.234643 
L 774.952796 301.53476 
L 776.07281 312.129975 
L 777.192823 311.758953 
L 778.312836 313.011153 
L 779.43285 281.10324 
L 780.552863 302.753231 
L 781.672877 301.517896 
L 782.79289 299.763972 
L 783.912903 314.59643 
L 785.032917 307.576521 
L 786.15293 282.713814 
L 787.272944 301.2059 
L 789.51297 299.801918 
L 790.632984 298.060643 
L 791.752997 310.928369 
L 792.87301 311.691495 
L 793.993024 283.236618 
L 795.113037 303.031498 
L 796.233051 301.909999 
L 797.353064 300.075968 
L 798.473077 300.265696 
L 799.593091 314.06941 
L 800.713104 314.663889 
L 801.833117 273.602688 
L 802.953131 304.060242 
L 804.073144 300.725257 
L 805.193158 303.550086 
L 806.313171 297.461948 
L 807.433184 311.459606 
L 808.553198 313.1798 
L 809.673211 285.989771 
L 810.793225 307.0495 
L 811.913238 303.141118 
L 813.033251 301.863621 
L 814.153265 302.006971 
L 815.273278 311.952897 
L 817.513305 313.54239 
L 818.633318 289.678913 
L 819.753332 307.905381 
L 820.873345 305.207038 
L 821.993358 304.840231 
L 823.113372 312.614834 
L 824.233385 313.90498 
L 825.353399 296.69039 
L 826.473412 309.64244 
L 827.593425 307.597601 
L 828.713439 307.251876 
L 829.833452 308.495644 
L 830.953465 311.855925 
L 832.073479 313.044883 
L 833.193492 305.367252 
L 834.313506 311.636685 
L 835.433519 308.149919 
L 836.553532 308.145702 
L 837.673546 308.668507 
L 838.793559 311.813763 
L 839.913572 312.7624 
L 841.033586 306.691127 
L 842.153599 311.118097 
L 843.273613 309.246121 
L 844.393626 308.052947 
L 845.513639 308.512509 
L 846.633653 313.314717 
L 847.753666 314.153733 
L 848.87368 300.295209 
L 849.993693 308.790775 
L 851.113706 307.850571 
L 852.23372 312.530511 
L 853.353733 303.212793 
L 854.473746 313.049099 
L 855.59376 313.867034 
L 856.713773 302.377993 
L 857.833787 310.468808 
L 858.9538 308.33543 
L 860.073813 307.386793 
L 861.193827 307.736735 
L 862.31384 311.484903 
L 863.433853 313.154503 
L 864.553867 301.791946 
L 865.67388 309.326228 
L 866.793894 307.559656 
L 867.913907 300.813797 
L 869.03392 306.598371 
L 870.153934 310.068272 
L 871.273947 312.041436 
L 872.393961 303.440466 
L 873.513974 308.314349 
L 874.633987 304.945636 
L 875.754001 305.093201 
L 876.874014 304.022296 
L 877.994027 308.293268 
L 879.114041 309.612927 
L 880.234054 299.59111 
L 881.354068 305.628654 
L 882.474081 302.753231 
L 883.594094 300.312074 
L 884.714108 306.345401 
L 885.834121 295.138843 
L 886.954134 304.464993 
L 888.074148 293.621025 
L 889.194161 297.259572 
L 890.314175 289.076002 
L 891.434188 285.94761 
L 892.554201 277.11475 
L 893.674215 284.341252 
L 894.794228 283.995527 
L 895.914242 254.212559 
L 897.034255 259.731515 
L 898.154268 239.6668 
L 899.274282 209.879616 
L 900.394295 213.172438 
L 901.514308 239.135564 
L 902.634322 242.727734 
L 903.754335 224.960827 
L 904.874349 200.941352 
L 905.994362 87.210384 
L 907.114375 138.25124 
L 908.234389 138.327131 
L 909.354402 180.168322 
L 910.474415 192.917996 
L 911.594429 166.217043 
L 912.714442 111.63461 
L 913.834456 151.047292 
L 914.954469 142.783614 
L 916.074482 127.554837 
L 917.194496 196.948647 
L 918.314509 208.585254 
L 919.434523 72.871217 
L 920.554536 180.847125 
L 921.674549 172.322045 
L 922.794563 186.176353 
L 923.914576 148.55554 
L 925.034589 242.84157 
L 926.154603 254.941955 
L 927.274616 144.773643 
L 928.39463 231.386258 
L 929.514643 220.390508 
L 930.634656 222.523885 
L 931.75467 229.999141 
L 932.874683 261.240901 
L 933.994696 297.14152 
L 935.11471 237.086509 
L 936.234723 197.222698 
L 937.354737 287.081757 
L 938.47475 199.613261 
L 939.594763 249.621158 
L 940.714777 283.784719 
L 941.83479 288.61644 
L 942.954804 229.628118 
L 944.074817 269.023936 
L 945.19483 254.625743 
L 946.314844 263.816976 
L 947.434857 264.128972 
L 948.55487 291.42862 
L 949.674884 296.572338 
L 950.794897 251.682862 
L 951.914911 277.021995 
L 953.034924 275.820389 
L 954.154937 275.584284 
L 955.274951 288.140014 
L 956.394964 277.848363 
L 957.514977 304.110835 
L 958.634991 267.961463 
L 959.755004 292.132719 
L 960.875018 286.651709 
L 961.995031 289.016976 
L 963.115044 290.905816 
L 964.235058 304.410183 
L 965.355071 309.031096 
L 966.475085 303.933757 
L 967.595098 285.660911 
L 968.715111 277.98328 
L 969.835125 295.062952 
L 970.955138 282.958351 
L 972.075151 311.712575 
L 973.195165 304.241536 
L 974.315178 285.964474 
L 975.435192 297.807673 
L 976.555205 294.422095 
L 977.675218 284.126228 
L 978.795232 279.286074 
L 979.915245 305.873191 
L 981.035259 308.33543 
L 982.155272 283.704612 
L 983.275285 301.84254 
L 984.395299 290.931113 
L 985.515312 295.712241 
L 986.635325 285.378428 
L 987.755339 311.661982 
L 988.875352 313.479147 
L 989.995366 300.286777 
L 991.115379 281.276102 
L 992.235392 297.048764 
L 993.355406 301.648597 
L 994.475419 305.27028 
L 995.595432 306.674262 
L 996.715446 309.853248 
L 997.835459 284.977893 
L 998.955473 279.442072 
L 1000.075486 290.581172 
L 1001.195499 289.615671 
L 1002.315513 281.642908 
L 1003.435526 300.910769 
L 1004.55554 303.946405 
L 1005.675553 293.422865 
L 1006.795566 274.825375 
L 1007.91558 273.075667 
L 1009.035593 282.287981 
L 1010.155606 266.776721 
L 1011.27562 289.780101 
L 1012.395633 308.470347 
L 1013.515647 316.99121 
L 1014.63566 281.811555 
L 1015.755673 279.079482 
L 1016.875687 293.975182 
L 1017.9957 319.352261 
L 1019.115713 253.719268 
L 1020.235727 319.352261 
L 1021.35574 318.795728 
L 1022.475754 319.352261 
L 1023.595767 50.8755 
L 1024.71578 239.477073 
L 1025.835794 353.2755 
L 1026.955807 248.997166 
L 1028.075821 311.181339 
L 1029.195834 268.867938 
L 1030.315847 286.074095 
L 1031.435861 262.716557 
L 1032.555874 275.019318 
L 1033.675887 246.454821 
L 1034.795901 299.321275 
L 1035.915914 299.717595 
L 1037.035928 302.980904 
L 1038.155941 287.351592 
L 1039.275954 264.183782 
L 1040.395968 283.527533 
L 1041.515981 267.792816 
L 1042.635994 304.781205 
L 1043.756008 308.310133 
L 1044.876021 308.111973 
L 1045.996035 295.927265 
L 1047.116048 273.826144 
L 1048.236061 289.253081 
L 1049.356075 281.533288 
L 1050.476088 308.988935 
L 1051.596102 310.31281 
L 1052.716115 310.198973 
L 1053.836128 300.851742 
L 1054.956142 284.746004 
L 1056.076155 296.226613 
L 1057.196168 286.588466 
L 1058.316182 315.987764 
L 1059.436195 316.679214 
L 1060.556209 315.245719 
L 1061.676222 292.672388 
L 1062.796235 293.882427 
L 1063.916249 300.674663 
L 1065.036262 294.759388 
L 1066.156275 313.521309 
L 1067.276289 314.735564 
L 1068.396302 317.935631 
L 1069.516316 310.688048 
L 1070.636329 300.17294 
L 1071.756342 303.385656 
L 1072.876356 297.133087 
L 1073.996369 314.335028 
L 1075.116383 315.220422 
L 1076.236396 315.498689 
L 1077.356409 310.810317 
L 1078.476423 300.328938 
L 1079.596436 306.336969 
L 1080.716449 304.595694 
L 1081.836463 312.353432 
L 1082.956476 315.675768 
L 1084.07649 315.6842 
L 1085.196503 306.973609 
L 1086.316516 303.575383 
L 1087.43653 309.596062 
L 1088.556543 299.266465 
L 1089.676556 302.833338 
L 1090.79657 313.361095 
L 1091.916583 315.726362 
L 1093.036597 309.161797 
L 1094.15661 309.570765 
L 1095.276623 307.656628 
L 1096.396637 311.944464 
L 1097.51665 304.680017 
L 1098.636664 319.352261 
L 1100.87669 309.106987 
L 1101.996704 306.817611 
L 1103.116717 299.249601 
L 1104.23673 309.760492 
L 1105.356744 304.684233 
L 1106.476757 316.476838 
L 1107.596771 315.671552 
L 1108.716784 304.869745 
L 1109.836797 308.310133 
L 1110.956811 293.368055 
L 1112.076824 313.327365 
L 1113.196837 302.310534 
L 1114.316851 315.448095 
L 1115.436864 317.952495 
L 1116.556878 294.059505 
L 1117.676891 314.988533 
L 1118.796904 282.389169 
L 1119.916918 304.317427 
L 1121.036931 313.196664 
L 1122.156945 314.836751 
L 1123.276958 314.996966 
L 1124.396971 305.282928 
L 1125.516985 298.385288 
L 1126.636998 243.043946 
L 1127.757011 295.501433 
L 1128.877025 310.987396 
L 1129.997038 319.352261 
L 1131.117052 319.246857 
L 1132.237065 273.906251 
L 1133.357078 302.023835 
L 1134.477092 275.402989 
L 1135.597105 283.540181 
L 1136.717119 312.378729 
L 1137.837132 313.964006 
L 1138.957145 313.972438 
L 1140.077159 288.215905 
L 1141.197172 304.561965 
L 1142.317185 277.207506 
L 1144.557212 313.719469 
L 1145.677226 315.372204 
L 1146.797239 315.174044 
L 1147.917252 295.484568 
L 1149.037266 306.020757 
L 1150.157279 352.723183 
L 1151.277292 229.3625 
L 1152.397306 314.840968 
L 1153.517319 316.177491 
L 1154.637333 316.080519 
L 1155.757346 310.831398 
L 1156.877359 306.800747 
L 1157.997373 264.584317 
L 1159.117386 299.047225 
L 1160.2374 319.352261 
L 1162.477426 319.352261 
L 1163.59744 289.527131 
L 1164.717453 307.230795 
L 1165.837466 280.647894 
L 1166.95748 295.067168 
L 1168.077493 315.751659 
L 1169.197507 316.734024 
L 1170.31752 316.620188 
L 1171.437533 304.29213 
L 1172.557547 303.427817 
L 1173.67756 288.013529 
L 1175.917587 316.198572 
L 1177.0376 317.033372 
L 1178.157614 317.328503 
L 1179.277627 302.643611 
L 1180.39764 310.869343 
L 1181.517654 279.636015 
L 1182.637667 303.967486 
L 1183.757681 316.565378 
L 1184.877694 317.3538 
L 1185.997707 317.471853 
L 1187.117721 307.13804 
L 1188.237734 310.953666 
L 1189.357747 289.805398 
L 1190.477761 305.354603 
L 1191.597774 316.666566 
L 1192.717788 319.352261 
L 1193.837801 314.634376 
L 1194.957814 304.717963 
L 1196.077828 314.807238 
L 1197.197841 285.576588 
L 1198.317854 298.553934 
L 1199.437868 316.763537 
L 1200.557881 317.412826 
L 1201.677895 316.890022 
L 1202.797908 301.93108 
L 1203.917921 310.498321 
L 1205.037935 287.794289 
L 1206.157948 306.438157 
L 1207.277962 316.261814 
L 1208.397975 316.734024 
L 1209.517988 316.71716 
L 1210.638002 305.915353 
L 1211.758015 308.120405 
L 1212.878028 284.973676 
L 1213.998042 315.616741 
L 1215.118055 315.789604 
L 1216.238069 316.830996 
L 1218.478095 301.04147 
L 1219.598109 314.777725 
L 1220.718122 283.270347 
L 1221.838135 305.476872 
L 1222.958149 315.418582 
L 1224.078162 316.691863 
L 1225.198176 316.346137 
L 1226.318189 304.861312 
L 1227.438202 303.179064 
L 1228.558216 280.938809 
L 1230.798243 315.039127 
L 1231.918256 316.392515 
L 1233.038269 316.653917 
L 1234.158283 304.034945 
L 1235.278296 308.942557 
L 1236.398309 281.980201 
L 1237.518323 307.496414 
L 1238.638336 316.143762 
L 1239.75835 316.898455 
L 1240.878363 313.639361 
L 1241.998376 302.133455 
L 1243.11839 309.570765 
L 1244.238403 282.705381 
L 1246.47843 315.90344 
L 1247.598443 317.003859 
L 1248.718457 316.986994 
L 1249.83847 305.282928 
L 1250.958483 308.504076 
L 1252.078497 283.042674 
L 1253.19851 313.424337 
L 1254.318524 319.352261 
L 1255.438537 319.352261 
L 1256.55855 303.613328 
L 1258.798577 310.814533 
L 1259.91859 286.963705 
L 1261.038604 314.79459 
L 1262.158617 316.485271 
L 1263.278631 317.185154 
L 1264.398644 317.159857 
L 1265.518657 298.482259 
L 1266.638671 308.748614 
L 1267.758684 294.051073 
L 1268.878697 315.110802 
L 1269.998711 316.548513 
L 1271.118724 316.890022 
L 1272.238738 311.670414 
L 1273.358751 313.213529 
L 1274.478764 308.052947 
L 1275.598778 312.302838 
L 1276.718791 313.854386 
L 1277.838805 319.352261 
L 1278.958818 319.352261 
L 1280.078831 310.869343 
L 1281.198845 317.020723 
L 1282.318858 313.808008 
L 1283.438871 267.000178 
L 1284.558885 319.061346 
L 1285.678898 319.352261 
L 1286.798912 319.352261 
L 1287.918925 285.247727 
L 1289.038938 319.352261 
L 1290.158952 307.344632 
L 1291.278965 297.082493 
L 1292.398979 311.328905 
L 1293.518992 315.355339 
L 1294.639005 315.954034 
L 1295.759019 306.235781 
L 1296.879032 311.678846 
L 1297.999045 309.49909 
L 1299.119059 309.946004 
L 1301.359086 314.988533 
L 1302.479099 315.722145 
L 1303.599112 308.870882 
L 1304.719126 311.168691 
L 1305.839139 309.4232 
L 1306.959152 281.99285 
L 1309.199179 319.352261 
L 1310.319193 319.352261 
L 1311.439206 312.134192 
L 1312.559219 316.114249 
L 1314.799246 314.680753 
L 1315.91926 311.000044 
L 1317.039273 315.932954 
L 1317.039273 315.932954 
" clip-path="url(#p18743498af)" style="fill: none; stroke: #0000ff; stroke-width: 1.5; stroke-linecap: square"/>
   </g>
   <g id="line2d_20">
    <path d="M 1077.356409 309.085875 
L 1078.476423 302.808834 
L 1079.596436 306.897763 
L 1080.716449 303.205452 
L 1081.836463 314.756844 
L 1082.956476 315.234886 
L 1084.07649 315.581063 
L 1085.196503 310.933168 
L 1086.316516 303.595288 
L 1087.43653 307.667617 
L 1088.556543 305.856601 
L 1089.676556 312.0755 
L 1090.79657 311.238721 
L 1091.916583 311.892814 
L 1094.15661 304.140794 
L 1095.276623 309.260189 
L 1096.396637 304.801372 
L 1097.51665 311.593351 
L 1099.756677 315.734352 
L 1100.87669 311.009894 
L 1101.996704 308.521115 
L 1103.116717 309.471204 
L 1104.23673 306.045317 
L 1105.356744 307.489008 
L 1106.476757 312.772143 
L 1107.596771 312.567275 
L 1109.836797 306.900286 
L 1110.956811 305.836958 
L 1112.076824 305.213119 
L 1113.196837 306.087128 
L 1114.316851 311.485395 
L 1115.436864 311.67652 
L 1117.676891 304.939983 
L 1118.796904 302.557053 
L 1119.916918 304.359424 
L 1121.036931 300.677125 
L 1122.156945 310.7175 
L 1123.276958 312.04233 
L 1124.396971 303.643312 
L 1125.516985 309.968006 
L 1126.636998 295.452451 
L 1127.757011 291.942953 
L 1128.877025 293.450447 
L 1129.997038 301.81588 
L 1131.117052 306.403752 
L 1132.237065 302.254368 
L 1133.357078 296.230344 
L 1134.477092 276.291495 
L 1135.597105 295.639872 
L 1136.717119 297.253574 
L 1137.837132 305.404095 
L 1138.957145 307.618057 
L 1140.077159 292.777646 
L 1141.197172 300.049672 
L 1142.317185 282.849839 
L 1144.557212 304.758716 
L 1145.677226 309.666127 
L 1146.797239 311.133422 
L 1147.917252 296.57971 
L 1149.037266 305.159635 
L 1150.157279 288.396602 
L 1151.277292 316.079107 
L 1152.397306 304.532317 
L 1153.517319 308.932184 
L 1154.637333 310.711312 
L 1155.757346 298.628629 
L 1156.877359 309.138824 
L 1157.997373 312.979469 
L 1159.117386 272.226085 
L 1160.2374 308.040084 
L 1161.357413 312.172873 
L 1162.477426 313.926213 
L 1163.59744 306.985347 
L 1164.717453 305.27494 
L 1166.95748 287.384416 
L 1168.077493 309.792225 
L 1169.197507 311.946039 
L 1170.31752 313.122568 
L 1171.437533 301.432139 
L 1172.557547 308.456911 
L 1173.67756 294.897132 
L 1174.797573 294.700886 
L 1175.917587 312.884224 
L 1177.0376 314.325604 
L 1178.157614 314.960443 
L 1179.277627 305.711157 
L 1180.39764 307.91022 
L 1181.517654 298.081615 
L 1182.637667 298.313659 
L 1183.757681 311.785282 
L 1184.877694 313.527399 
L 1185.997707 314.546546 
L 1187.117721 306.163592 
L 1188.237734 310.218864 
L 1189.357747 296.287459 
L 1190.477761 303.939681 
L 1191.597774 313.951912 
L 1193.837801 316.25146 
L 1194.957814 308.317264 
L 1196.077828 310.421847 
L 1197.197841 298.422623 
L 1198.317854 304.273421 
L 1199.437868 310.918532 
L 1200.557881 313.387599 
L 1201.677895 313.108801 
L 1202.797908 307.451472 
L 1203.917921 310.420364 
L 1205.037935 295.598406 
L 1206.157948 301.887885 
L 1207.277962 312.232364 
L 1208.397975 313.934737 
L 1209.517988 313.834888 
L 1210.638002 307.011866 
L 1211.758015 311.348139 
L 1212.878028 296.636676 
L 1213.998042 303.124852 
L 1215.118055 313.686217 
L 1216.238069 314.697809 
L 1217.358082 314.819931 
L 1218.478095 306.553015 
L 1219.598109 308.134872 
L 1220.718122 296.250529 
L 1221.838135 306.358516 
L 1222.958149 309.966877 
L 1224.078162 311.870789 
L 1225.198176 310.736497 
L 1226.318189 306.366798 
L 1227.438202 311.339804 
L 1228.558216 293.587175 
L 1229.678229 303.427807 
L 1230.798243 306.592701 
L 1231.918256 309.339011 
L 1233.038269 309.817969 
L 1234.158283 305.379553 
L 1235.278296 307.294154 
L 1236.398309 293.493517 
L 1238.638336 310.608139 
L 1239.75835 312.694298 
L 1240.878363 313.165321 
L 1241.998376 306.624197 
L 1243.11839 308.017401 
L 1244.238403 293.6321 
L 1245.358416 303.712411 
L 1246.47843 308.944882 
L 1247.598443 311.255322 
L 1248.718457 311.487682 
L 1249.83847 306.25838 
L 1250.958483 309.375927 
L 1252.078497 294.124706 
L 1253.19851 302.68308 
L 1254.318524 312.995113 
L 1255.438537 315.184276 
L 1256.55855 315.609293 
L 1257.678564 305.967476 
L 1258.798577 308.887232 
L 1259.91859 294.59879 
L 1261.038604 306.952213 
L 1262.158617 314.452904 
L 1263.278631 315.265516 
L 1264.398644 311.028394 
L 1265.518657 310.191047 
L 1266.638671 309.597907 
L 1267.758684 295.197276 
L 1268.878697 309.954484 
L 1269.998711 314.535938 
L 1271.118724 315.390373 
L 1272.238738 313.35854 
L 1273.358751 306.502713 
L 1274.478764 312.24726 
L 1275.598778 299.866013 
L 1276.718791 316.528277 
L 1277.838805 317.93409 
L 1278.958818 318.563129 
L 1280.078831 316.075707 
L 1281.198845 311.929876 
L 1282.318858 313.829024 
L 1283.438871 309.247975 
L 1284.558885 305.987848 
L 1285.678898 311.857915 
L 1286.798912 313.875046 
L 1287.918925 311.508199 
L 1289.038938 305.203288 
L 1290.158952 308.167119 
L 1291.278965 292.53832 
L 1292.398979 311.968612 
L 1293.518992 313.209597 
L 1294.639005 313.81811 
L 1295.759019 302.909985 
L 1296.879032 313.424219 
L 1297.999045 309.331838 
L 1299.119059 298.656005 
L 1300.239072 314.777012 
L 1301.359086 316.023876 
L 1302.479099 315.967979 
L 1303.599112 307.365447 
L 1304.719126 314.190893 
L 1305.839139 310.964179 
L 1306.959152 305.250018 
L 1308.079166 306.875209 
L 1309.199179 307.075217 
L 1310.319193 310.460304 
L 1311.439206 306.426213 
L 1312.559219 311.780076 
L 1313.679233 311.121384 
L 1314.799246 301.793531 
L 1315.91926 314.149427 
L 1317.039273 319.319675 
L 1317.039273 319.319675 
" clip-path="url(#p18743498af)" style="fill: none; stroke: #ffa500; stroke-width: 1.5; stroke-linecap: square"/>
   </g>
   <g id="line2d_21">
    <path d="M 1318.159286 318.628159 
L 1319.2793 313.422766 
L 1320.399313 316.532473 
L 1321.519326 315.427756 
L 1322.63934 309.960227 
L 1323.759353 313.574093 
L 1324.879367 317.986157 
L 1325.99938 318.820081 
L 1327.119393 314.715419 
L 1328.239407 317.167549 
L 1329.35942 316.296434 
L 1330.479433 311.985068 
L 1331.599447 314.834747 
L 1332.71946 318.313837 
" clip-path="url(#p18743498af)" style="fill: none; stroke: #ff0000; stroke-width: 1.5; stroke-linecap: square"/>
   </g>
   <g id="patch_3">
    <path d="M 54.392188 368.3955 
L 54.392188 35.7555 
" style="fill: none; stroke: #000000; stroke-width: 0.8; stroke-linejoin: miter; stroke-linecap: square"/>
   </g>
   <g id="patch_4">
    <path d="M 1393.592188 368.3955 
L 1393.592188 35.7555 
" style="fill: none; stroke: #000000; stroke-width: 0.8; stroke-linejoin: miter; stroke-linecap: square"/>
   </g>
   <g id="patch_5">
    <path d="M 54.392188 368.3955 
L 1393.592188 368.3955 
" style="fill: none; stroke: #000000; stroke-width: 0.8; stroke-linejoin: miter; stroke-linecap: square"/>
   </g>
   <g id="patch_6">
    <path d="M 54.392188 35.7555 
L 1393.592188 35.7555 
" style="fill: none; stroke: #000000; stroke-width: 0.8; stroke-linejoin: miter; stroke-linecap: square"/>
   </g>
   <g id="text_19">
    <!-- Daily Confirmed Cases Forecasting - Canada -->
    <g transform="translate(590.66 16.318125)scale(0.12 -0.12)">
     <defs>
      <path id="DejaVuSans-44" d="M 1259 4147 
L 1259 519 
L 2022 519 
Q 2988 519 3436 956 
Q 3884 1394 3884 2338 
Q 3884 3275 3436 3711 
Q 2988 4147 2022 4147 
L 1259 4147 
z
M 628 4666 
L 1925 4666 
Q 3281 4666 3915 4102 
Q 4550 3538 4550 2338 
Q 4550 1131 3912 565 
Q 3275 0 1925 0 
L 628 0 
L 628 4666 
z
" transform="scale(0.015625)"/>
      <path id="DejaVuSans-61" d="M 2194 1759 
Q 1497 1759 1228 1600 
Q 959 1441 959 1056 
Q 959 750 1161 570 
Q 1363 391 1709 391 
Q 2188 391 2477 730 
Q 2766 1069 2766 1631 
L 2766 1759 
L 2194 1759 
z
M 3341 1997 
L 3341 0 
L 2766 0 
L 2766 531 
Q 2569 213 2275 61 
Q 1981 -91 1556 -91 
Q 1019 -91 701 211 
Q 384 513 384 1019 
Q 384 1609 779 1909 
Q 1175 2209 1959 2209 
L 2766 2209 
L 2766 2266 
Q 2766 2663 2505 2880 
Q 2244 3097 1772 3097 
Q 1472 3097 1187 3025 
Q 903 2953 641 2809 
L 641 3341 
Q 956 3463 1253 3523 
Q 1550 3584 1831 3584 
Q 2591 3584 2966 3190 
Q 3341 2797 3341 1997 
z
" transform="scale(0.015625)"/>
      <path id="DejaVuSans-69" d="M 603 3500 
L 1178 3500 
L 1178 0 
L 603 0 
L 603 3500 
z
M 603 4863 
L 1178 4863 
L 1178 4134 
L 603 4134 
L 603 4863 
z
" transform="scale(0.015625)"/>
      <path id="DejaVuSans-6c" d="M 603 4863 
L 1178 4863 
L 1178 0 
L 603 0 
L 603 4863 
z
" transform="scale(0.015625)"/>
      <path id="DejaVuSans-79" d="M 2059 -325 
Q 1816 -950 1584 -1140 
Q 1353 -1331 966 -1331 
L 506 -1331 
L 506 -850 
L 844 -850 
Q 1081 -850 1212 -737 
Q 1344 -625 1503 -206 
L 1606 56 
L 191 3500 
L 800 3500 
L 1894 763 
L 2988 3500 
L 3597 3500 
L 2059 -325 
z
" transform="scale(0.015625)"/>
      <path id="DejaVuSans-20" transform="scale(0.015625)"/>
      <path id="DejaVuSans-43" d="M 4122 4306 
L 4122 3641 
Q 3803 3938 3442 4084 
Q 3081 4231 2675 4231 
Q 1875 4231 1450 3742 
Q 1025 3253 1025 2328 
Q 1025 1406 1450 917 
Q 1875 428 2675 428 
Q 3081 428 3442 575 
Q 3803 722 4122 1019 
L 4122 359 
Q 3791 134 3420 21 
Q 3050 -91 2638 -91 
Q 1578 -91 968 557 
Q 359 1206 359 2328 
Q 359 3453 968 4101 
Q 1578 4750 2638 4750 
Q 3056 4750 3426 4639 
Q 3797 4528 4122 4306 
z
" transform="scale(0.015625)"/>
      <path id="DejaVuSans-6f" d="M 1959 3097 
Q 1497 3097 1228 2736 
Q 959 2375 959 1747 
Q 959 1119 1226 758 
Q 1494 397 1959 397 
Q 2419 397 2687 759 
Q 2956 1122 2956 1747 
Q 2956 2369 2687 2733 
Q 2419 3097 1959 3097 
z
M 1959 3584 
Q 2709 3584 3137 3096 
Q 3566 2609 3566 1747 
Q 3566 888 3137 398 
Q 2709 -91 1959 -91 
Q 1206 -91 779 398 
Q 353 888 353 1747 
Q 353 2609 779 3096 
Q 1206 3584 1959 3584 
z
" transform="scale(0.015625)"/>
      <path id="DejaVuSans-6e" d="M 3513 2113 
L 3513 0 
L 2938 0 
L 2938 2094 
Q 2938 2591 2744 2837 
Q 2550 3084 2163 3084 
Q 1697 3084 1428 2787 
Q 1159 2491 1159 1978 
L 1159 0 
L 581 0 
L 581 3500 
L 1159 3500 
L 1159 2956 
Q 1366 3272 1645 3428 
Q 1925 3584 2291 3584 
Q 2894 3584 3203 3211 
Q 3513 2838 3513 2113 
z
" transform="scale(0.015625)"/>
      <path id="DejaVuSans-66" d="M 2375 4863 
L 2375 4384 
L 1825 4384 
Q 1516 4384 1395 4259 
Q 1275 4134 1275 3809 
L 1275 3500 
L 2222 3500 
L 2222 3053 
L 1275 3053 
L 1275 0 
L 697 0 
L 697 3053 
L 147 3053 
L 147 3500 
L 697 3500 
L 697 3744 
Q 697 4328 969 4595 
Q 1241 4863 1831 4863 
L 2375 4863 
z
" transform="scale(0.015625)"/>
      <path id="DejaVuSans-72" d="M 2631 2963 
Q 2534 3019 2420 3045 
Q 2306 3072 2169 3072 
Q 1681 3072 1420 2755 
Q 1159 2438 1159 1844 
L 1159 0 
L 581 0 
L 581 3500 
L 1159 3500 
L 1159 2956 
Q 1341 3275 1631 3429 
Q 1922 3584 2338 3584 
Q 2397 3584 2469 3576 
Q 2541 3569 2628 3553 
L 2631 2963 
z
" transform="scale(0.015625)"/>
      <path id="DejaVuSans-6d" d="M 3328 2828 
Q 3544 3216 3844 3400 
Q 4144 3584 4550 3584 
Q 5097 3584 5394 3201 
Q 5691 2819 5691 2113 
L 5691 0 
L 5113 0 
L 5113 2094 
Q 5113 2597 4934 2840 
Q 4756 3084 4391 3084 
Q 3944 3084 3684 2787 
Q 3425 2491 3425 1978 
L 3425 0 
L 2847 0 
L 2847 2094 
Q 2847 2600 2669 2842 
Q 2491 3084 2119 3084 
Q 1678 3084 1418 2786 
Q 1159 2488 1159 1978 
L 1159 0 
L 581 0 
L 581 3500 
L 1159 3500 
L 1159 2956 
Q 1356 3278 1631 3431 
Q 1906 3584 2284 3584 
Q 2666 3584 2933 3390 
Q 3200 3197 3328 2828 
z
" transform="scale(0.015625)"/>
      <path id="DejaVuSans-65" d="M 3597 1894 
L 3597 1613 
L 953 1613 
Q 991 1019 1311 708 
Q 1631 397 2203 397 
Q 2534 397 2845 478 
Q 3156 559 3463 722 
L 3463 178 
Q 3153 47 2828 -22 
Q 2503 -91 2169 -91 
Q 1331 -91 842 396 
Q 353 884 353 1716 
Q 353 2575 817 3079 
Q 1281 3584 2069 3584 
Q 2775 3584 3186 3129 
Q 3597 2675 3597 1894 
z
M 3022 2063 
Q 3016 2534 2758 2815 
Q 2500 3097 2075 3097 
Q 1594 3097 1305 2825 
Q 1016 2553 972 2059 
L 3022 2063 
z
" transform="scale(0.015625)"/>
      <path id="DejaVuSans-64" d="M 2906 2969 
L 2906 4863 
L 3481 4863 
L 3481 0 
L 2906 0 
L 2906 525 
Q 2725 213 2448 61 
Q 2172 -91 1784 -91 
Q 1150 -91 751 415 
Q 353 922 353 1747 
Q 353 2572 751 3078 
Q 1150 3584 1784 3584 
Q 2172 3584 2448 3432 
Q 2725 3281 2906 2969 
z
M 947 1747 
Q 947 1113 1208 752 
Q 1469 391 1925 391 
Q 2381 391 2643 752 
Q 2906 1113 2906 1747 
Q 2906 2381 2643 2742 
Q 2381 3103 1925 3103 
Q 1469 3103 1208 2742 
Q 947 2381 947 1747 
z
" transform="scale(0.015625)"/>
      <path id="DejaVuSans-73" d="M 2834 3397 
L 2834 2853 
Q 2591 2978 2328 3040 
Q 2066 3103 1784 3103 
Q 1356 3103 1142 2972 
Q 928 2841 928 2578 
Q 928 2378 1081 2264 
Q 1234 2150 1697 2047 
L 1894 2003 
Q 2506 1872 2764 1633 
Q 3022 1394 3022 966 
Q 3022 478 2636 193 
Q 2250 -91 1575 -91 
Q 1294 -91 989 -36 
Q 684 19 347 128 
L 347 722 
Q 666 556 975 473 
Q 1284 391 1588 391 
Q 1994 391 2212 530 
Q 2431 669 2431 922 
Q 2431 1156 2273 1281 
Q 2116 1406 1581 1522 
L 1381 1569 
Q 847 1681 609 1914 
Q 372 2147 372 2553 
Q 372 3047 722 3315 
Q 1072 3584 1716 3584 
Q 2034 3584 2315 3537 
Q 2597 3491 2834 3397 
z
" transform="scale(0.015625)"/>
      <path id="DejaVuSans-46" d="M 628 4666 
L 3309 4666 
L 3309 4134 
L 1259 4134 
L 1259 2759 
L 3109 2759 
L 3109 2228 
L 1259 2228 
L 1259 0 
L 628 0 
L 628 4666 
z
" transform="scale(0.015625)"/>
      <path id="DejaVuSans-63" d="M 3122 3366 
L 3122 2828 
Q 2878 2963 2633 3030 
Q 2388 3097 2138 3097 
Q 1578 3097 1268 2742 
Q 959 2388 959 1747 
Q 959 1106 1268 751 
Q 1578 397 2138 397 
Q 2388 397 2633 464 
Q 2878 531 3122 666 
L 3122 134 
Q 2881 22 2623 -34 
Q 2366 -91 2075 -91 
Q 1284 -91 818 406 
Q 353 903 353 1747 
Q 353 2603 823 3093 
Q 1294 3584 2113 3584 
Q 2378 3584 2631 3529 
Q 2884 3475 3122 3366 
z
" transform="scale(0.015625)"/>
      <path id="DejaVuSans-74" d="M 1172 4494 
L 1172 3500 
L 2356 3500 
L 2356 3053 
L 1172 3053 
L 1172 1153 
Q 1172 725 1289 603 
Q 1406 481 1766 481 
L 2356 481 
L 2356 0 
L 1766 0 
Q 1100 0 847 248 
Q 594 497 594 1153 
L 594 3053 
L 172 3053 
L 172 3500 
L 594 3500 
L 594 4494 
L 1172 4494 
z
" transform="scale(0.015625)"/>
      <path id="DejaVuSans-67" d="M 2906 1791 
Q 2906 2416 2648 2759 
Q 2391 3103 1925 3103 
Q 1463 3103 1205 2759 
Q 947 2416 947 1791 
Q 947 1169 1205 825 
Q 1463 481 1925 481 
Q 2391 481 2648 825 
Q 2906 1169 2906 1791 
z
M 3481 434 
Q 3481 -459 3084 -895 
Q 2688 -1331 1869 -1331 
Q 1566 -1331 1297 -1286 
Q 1028 -1241 775 -1147 
L 775 -588 
Q 1028 -725 1275 -790 
Q 1522 -856 1778 -856 
Q 2344 -856 2625 -561 
Q 2906 -266 2906 331 
L 2906 616 
Q 2728 306 2450 153 
Q 2172 0 1784 0 
Q 1141 0 747 490 
Q 353 981 353 1791 
Q 353 2603 747 3093 
Q 1141 3584 1784 3584 
Q 2172 3584 2450 3431 
Q 2728 3278 2906 2969 
L 2906 3500 
L 3481 3500 
L 3481 434 
z
" transform="scale(0.015625)"/>
     </defs>
     <use xlink:href="#DejaVuSans-44"/>
     <use xlink:href="#DejaVuSans-61" x="77.001953"/>
     <use xlink:href="#DejaVuSans-69" x="138.28125"/>
     <use xlink:href="#DejaVuSans-6c" x="166.064453"/>
     <use xlink:href="#DejaVuSans-79" x="193.847656"/>
     <use xlink:href="#DejaVuSans-20" x="253.027344"/>
     <use xlink:href="#DejaVuSans-43" x="284.814453"/>
     <use xlink:href="#DejaVuSans-6f" x="354.638672"/>
     <use xlink:href="#DejaVuSans-6e" x="415.820312"/>
     <use xlink:href="#DejaVuSans-66" x="479.199219"/>
     <use xlink:href="#DejaVuSans-69" x="514.404297"/>
     <use xlink:href="#DejaVuSans-72" x="542.1875"/>
     <use xlink:href="#DejaVuSans-6d" x="581.550781"/>
     <use xlink:href="#DejaVuSans-65" x="678.962891"/>
     <use xlink:href="#DejaVuSans-64" x="740.486328"/>
     <use xlink:href="#DejaVuSans-20" x="803.962891"/>
     <use xlink:href="#DejaVuSans-43" x="835.75"/>
     <use xlink:href="#DejaVuSans-61" x="905.574219"/>
     <use xlink:href="#DejaVuSans-73" x="966.853516"/>
     <use xlink:href="#DejaVuSans-65" x="1018.953125"/>
     <use xlink:href="#DejaVuSans-73" x="1080.476562"/>
     <use xlink:href="#DejaVuSans-20" x="1132.576172"/>
     <use xlink:href="#DejaVuSans-46" x="1164.363281"/>
     <use xlink:href="#DejaVuSans-6f" x="1218.257812"/>
     <use xlink:href="#DejaVuSans-72" x="1279.439453"/>
     <use xlink:href="#DejaVuSans-65" x="1318.302734"/>
     <use xlink:href="#DejaVuSans-63" x="1379.826172"/>
     <use xlink:href="#DejaVuSans-61" x="1434.806641"/>
     <use xlink:href="#DejaVuSans-73" x="1496.085938"/>
     <use xlink:href="#DejaVuSans-74" x="1548.185547"/>
     <use xlink:href="#DejaVuSans-69" x="1587.394531"/>
     <use xlink:href="#DejaVuSans-6e" x="1615.177734"/>
     <use xlink:href="#DejaVuSans-67" x="1678.556641"/>
     <use xlink:href="#DejaVuSans-20" x="1742.033203"/>
     <use xlink:href="#DejaVuSans-2d" x="1773.820312"/>
     <use xlink:href="#DejaVuSans-20" x="1809.904297"/>
     <use xlink:href="#DejaVuSans-43" x="1841.691406"/>
     <use xlink:href="#DejaVuSans-61" x="1911.515625"/>
     <use xlink:href="#DejaVuSans-6e" x="1972.794922"/>
     <use xlink:href="#DejaVuSans-61" x="2036.173828"/>
     <use xlink:href="#DejaVuSans-64" x="2097.453125"/>
     <use xlink:href="#DejaVuSans-61" x="2160.929688"/>
    </g>
    <!-- ARIMA (0, 1, 1)x(1, 0, 1, 7) (R2 = 0.216141) -->
    <g transform="translate(592.008125 29.7555)scale(0.12 -0.12)">
     <defs>
      <path id="DejaVuSans-41" d="M 2188 4044 
L 1331 1722 
L 3047 1722 
L 2188 4044 
z
M 1831 4666 
L 2547 4666 
L 4325 0 
L 3669 0 
L 3244 1197 
L 1141 1197 
L 716 0 
L 50 0 
L 1831 4666 
z
" transform="scale(0.015625)"/>
      <path id="DejaVuSans-52" d="M 2841 2188 
Q 3044 2119 3236 1894 
Q 3428 1669 3622 1275 
L 4263 0 
L 3584 0 
L 2988 1197 
Q 2756 1666 2539 1819 
Q 2322 1972 1947 1972 
L 1259 1972 
L 1259 0 
L 628 0 
L 628 4666 
L 2053 4666 
Q 2853 4666 3247 4331 
Q 3641 3997 3641 3322 
Q 3641 2881 3436 2590 
Q 3231 2300 2841 2188 
z
M 1259 4147 
L 1259 2491 
L 2053 2491 
Q 2509 2491 2742 2702 
Q 2975 2913 2975 3322 
Q 2975 3731 2742 3939 
Q 2509 4147 2053 4147 
L 1259 4147 
z
" transform="scale(0.015625)"/>
      <path id="DejaVuSans-49" d="M 628 4666 
L 1259 4666 
L 1259 0 
L 628 0 
L 628 4666 
z
" transform="scale(0.015625)"/>
      <path id="DejaVuSans-4d" d="M 628 4666 
L 1569 4666 
L 2759 1491 
L 3956 4666 
L 4897 4666 
L 4897 0 
L 4281 0 
L 4281 4097 
L 3078 897 
L 2444 897 
L 1241 4097 
L 1241 0 
L 628 0 
L 628 4666 
z
" transform="scale(0.015625)"/>
      <path id="DejaVuSans-28" d="M 1984 4856 
Q 1566 4138 1362 3434 
Q 1159 2731 1159 2009 
Q 1159 1288 1364 580 
Q 1569 -128 1984 -844 
L 1484 -844 
Q 1016 -109 783 600 
Q 550 1309 550 2009 
Q 550 2706 781 3412 
Q 1013 4119 1484 4856 
L 1984 4856 
z
" transform="scale(0.015625)"/>
      <path id="DejaVuSans-2c" d="M 750 794 
L 1409 794 
L 1409 256 
L 897 -744 
L 494 -744 
L 750 256 
L 750 794 
z
" transform="scale(0.015625)"/>
      <path id="DejaVuSans-29" d="M 513 4856 
L 1013 4856 
Q 1481 4119 1714 3412 
Q 1947 2706 1947 2009 
Q 1947 1309 1714 600 
Q 1481 -109 1013 -844 
L 513 -844 
Q 928 -128 1133 580 
Q 1338 1288 1338 2009 
Q 1338 2731 1133 3434 
Q 928 4138 513 4856 
z
" transform="scale(0.015625)"/>
      <path id="DejaVuSans-78" d="M 3513 3500 
L 2247 1797 
L 3578 0 
L 2900 0 
L 1881 1375 
L 863 0 
L 184 0 
L 1544 1831 
L 300 3500 
L 978 3500 
L 1906 2253 
L 2834 3500 
L 3513 3500 
z
" transform="scale(0.015625)"/>
      <path id="DejaVuSans-37" d="M 525 4666 
L 3525 4666 
L 3525 4397 
L 1831 0 
L 1172 0 
L 2766 4134 
L 525 4134 
L 525 4666 
z
" transform="scale(0.015625)"/>
      <path id="DejaVuSans-3d" d="M 678 2906 
L 4684 2906 
L 4684 2381 
L 678 2381 
L 678 2906 
z
M 678 1631 
L 4684 1631 
L 4684 1100 
L 678 1100 
L 678 1631 
z
" transform="scale(0.015625)"/>
      <path id="DejaVuSans-2e" d="M 684 794 
L 1344 794 
L 1344 0 
L 684 0 
L 684 794 
z
" transform="scale(0.015625)"/>
     </defs>
     <use xlink:href="#DejaVuSans-41"/>
     <use xlink:href="#DejaVuSans-52" x="68.408203"/>
     <use xlink:href="#DejaVuSans-49" x="137.890625"/>
     <use xlink:href="#DejaVuSans-4d" x="167.382812"/>
     <use xlink:href="#DejaVuSans-41" x="253.662109"/>
     <use xlink:href="#DejaVuSans-20" x="322.070312"/>
     <use xlink:href="#DejaVuSans-28" x="353.857422"/>
     <use xlink:href="#DejaVuSans-30" x="392.871094"/>
     <use xlink:href="#DejaVuSans-2c" x="456.494141"/>
     <use xlink:href="#DejaVuSans-20" x="488.28125"/>
     <use xlink:href="#DejaVuSans-31" x="520.068359"/>
     <use xlink:href="#DejaVuSans-2c" x="583.691406"/>
     <use xlink:href="#DejaVuSans-20" x="615.478516"/>
     <use xlink:href="#DejaVuSans-31" x="647.265625"/>
     <use xlink:href="#DejaVuSans-29" x="710.888672"/>
     <use xlink:href="#DejaVuSans-78" x="749.902344"/>
     <use xlink:href="#DejaVuSans-28" x="809.082031"/>
     <use xlink:href="#DejaVuSans-31" x="848.095703"/>
     <use xlink:href="#DejaVuSans-2c" x="911.71875"/>
     <use xlink:href="#DejaVuSans-20" x="943.505859"/>
     <use xlink:href="#DejaVuSans-30" x="975.292969"/>
     <use xlink:href="#DejaVuSans-2c" x="1038.916016"/>
     <use xlink:href="#DejaVuSans-20" x="1070.703125"/>
     <use xlink:href="#DejaVuSans-31" x="1102.490234"/>
     <use xlink:href="#DejaVuSans-2c" x="1166.113281"/>
     <use xlink:href="#DejaVuSans-20" x="1197.900391"/>
     <use xlink:href="#DejaVuSans-37" x="1229.6875"/>
     <use xlink:href="#DejaVuSans-29" x="1293.310547"/>
     <use xlink:href="#DejaVuSans-20" x="1332.324219"/>
     <use xlink:href="#DejaVuSans-28" x="1364.111328"/>
     <use xlink:href="#DejaVuSans-52" x="1403.125"/>
     <use xlink:href="#DejaVuSans-32" x="1472.607422"/>
     <use xlink:href="#DejaVuSans-20" x="1536.230469"/>
     <use xlink:href="#DejaVuSans-3d" x="1568.017578"/>
     <use xlink:href="#DejaVuSans-20" x="1651.806641"/>
     <use xlink:href="#DejaVuSans-30" x="1683.59375"/>
     <use xlink:href="#DejaVuSans-2e" x="1747.216797"/>
     <use xlink:href="#DejaVuSans-32" x="1779.003906"/>
     <use xlink:href="#DejaVuSans-31" x="1842.626953"/>
     <use xlink:href="#DejaVuSans-36" x="1906.25"/>
     <use xlink:href="#DejaVuSans-31" x="1969.873047"/>
     <use xlink:href="#DejaVuSans-34" x="2033.496094"/>
     <use xlink:href="#DejaVuSans-31" x="2097.119141"/>
     <use xlink:href="#DejaVuSans-29" x="2160.742188"/>
    </g>
   </g>
   <g id="legend_1">
    <g id="patch_7">
     <path d="M 1289.5125 87.789875 
L 1386.592188 87.789875 
Q 1388.592188 87.789875 1388.592188 85.789875 
L 1388.592188 42.7555 
Q 1388.592188 40.7555 1386.592188 40.7555 
L 1289.5125 40.7555 
Q 1287.5125 40.7555 1287.5125 42.7555 
L 1287.5125 85.789875 
Q 1287.5125 87.789875 1289.5125 87.789875 
z
" style="fill: #ffffff; opacity: 0.8; stroke: #cccccc; stroke-linejoin: miter"/>
    </g>
    <g id="line2d_22">
     <path d="M 1291.5125 48.853937 
L 1301.5125 48.853937 
L 1311.5125 48.853937 
" style="fill: none; stroke: #0000ff; stroke-width: 1.5; stroke-linecap: square"/>
    </g>
    <g id="text_20">
     <!-- Actual Value -->
     <g transform="translate(1319.5125 52.353937)scale(0.1 -0.1)">
      <defs>
       <path id="DejaVuSans-75" d="M 544 1381 
L 544 3500 
L 1119 3500 
L 1119 1403 
Q 1119 906 1312 657 
Q 1506 409 1894 409 
Q 2359 409 2629 706 
Q 2900 1003 2900 1516 
L 2900 3500 
L 3475 3500 
L 3475 0 
L 2900 0 
L 2900 538 
Q 2691 219 2414 64 
Q 2138 -91 1772 -91 
Q 1169 -91 856 284 
Q 544 659 544 1381 
z
M 1991 3584 
L 1991 3584 
z
" transform="scale(0.015625)"/>
       <path id="DejaVuSans-56" d="M 1831 0 
L 50 4666 
L 709 4666 
L 2188 738 
L 3669 4666 
L 4325 4666 
L 2547 0 
L 1831 0 
z
" transform="scale(0.015625)"/>
      </defs>
      <use xlink:href="#DejaVuSans-41"/>
      <use xlink:href="#DejaVuSans-63" x="66.658203"/>
      <use xlink:href="#DejaVuSans-74" x="121.638672"/>
      <use xlink:href="#DejaVuSans-75" x="160.847656"/>
      <use xlink:href="#DejaVuSans-61" x="224.226562"/>
      <use xlink:href="#DejaVuSans-6c" x="285.505859"/>
      <use xlink:href="#DejaVuSans-20" x="313.289062"/>
      <use xlink:href="#DejaVuSans-56" x="345.076172"/>
      <use xlink:href="#DejaVuSans-61" x="405.734375"/>
      <use xlink:href="#DejaVuSans-6c" x="467.013672"/>
      <use xlink:href="#DejaVuSans-75" x="494.796875"/>
      <use xlink:href="#DejaVuSans-65" x="558.175781"/>
     </g>
    </g>
    <g id="line2d_23">
     <path d="M 1291.5125 63.532062 
L 1301.5125 63.532062 
L 1311.5125 63.532062 
" style="fill: none; stroke: #ffa500; stroke-width: 1.5; stroke-linecap: square"/>
    </g>
    <g id="text_21">
     <!-- Check Value -->
     <g transform="translate(1319.5125 67.032062)scale(0.1 -0.1)">
      <defs>
       <path id="DejaVuSans-68" d="M 3513 2113 
L 3513 0 
L 2938 0 
L 2938 2094 
Q 2938 2591 2744 2837 
Q 2550 3084 2163 3084 
Q 1697 3084 1428 2787 
Q 1159 2491 1159 1978 
L 1159 0 
L 581 0 
L 581 4863 
L 1159 4863 
L 1159 2956 
Q 1366 3272 1645 3428 
Q 1925 3584 2291 3584 
Q 2894 3584 3203 3211 
Q 3513 2838 3513 2113 
z
" transform="scale(0.015625)"/>
       <path id="DejaVuSans-6b" d="M 581 4863 
L 1159 4863 
L 1159 1991 
L 2875 3500 
L 3609 3500 
L 1753 1863 
L 3688 0 
L 2938 0 
L 1159 1709 
L 1159 0 
L 581 0 
L 581 4863 
z
" transform="scale(0.015625)"/>
      </defs>
      <use xlink:href="#DejaVuSans-43"/>
      <use xlink:href="#DejaVuSans-68" x="69.824219"/>
      <use xlink:href="#DejaVuSans-65" x="133.203125"/>
      <use xlink:href="#DejaVuSans-63" x="194.726562"/>
      <use xlink:href="#DejaVuSans-6b" x="249.707031"/>
      <use xlink:href="#DejaVuSans-20" x="307.617188"/>
      <use xlink:href="#DejaVuSans-56" x="339.404297"/>
      <use xlink:href="#DejaVuSans-61" x="400.0625"/>
      <use xlink:href="#DejaVuSans-6c" x="461.341797"/>
      <use xlink:href="#DejaVuSans-75" x="489.125"/>
      <use xlink:href="#DejaVuSans-65" x="552.503906"/>
     </g>
    </g>
    <g id="line2d_24">
     <path d="M 1291.5125 78.210187 
L 1301.5125 78.210187 
L 1311.5125 78.210187 
" style="fill: none; stroke: #ff0000; stroke-width: 1.5; stroke-linecap: square"/>
    </g>
    <g id="text_22">
     <!-- Predict Value -->
     <g transform="translate(1319.5125 81.710187)scale(0.1 -0.1)">
      <defs>
       <path id="DejaVuSans-50" d="M 1259 4147 
L 1259 2394 
L 2053 2394 
Q 2494 2394 2734 2622 
Q 2975 2850 2975 3272 
Q 2975 3691 2734 3919 
Q 2494 4147 2053 4147 
L 1259 4147 
z
M 628 4666 
L 2053 4666 
Q 2838 4666 3239 4311 
Q 3641 3956 3641 3272 
Q 3641 2581 3239 2228 
Q 2838 1875 2053 1875 
L 1259 1875 
L 1259 0 
L 628 0 
L 628 4666 
z
" transform="scale(0.015625)"/>
      </defs>
      <use xlink:href="#DejaVuSans-50"/>
      <use xlink:href="#DejaVuSans-72" x="58.552734"/>
      <use xlink:href="#DejaVuSans-65" x="97.416016"/>
      <use xlink:href="#DejaVuSans-64" x="158.939453"/>
      <use xlink:href="#DejaVuSans-69" x="222.416016"/>
      <use xlink:href="#DejaVuSans-63" x="250.199219"/>
      <use xlink:href="#DejaVuSans-74" x="305.179688"/>
      <use xlink:href="#DejaVuSans-20" x="344.388672"/>
      <use xlink:href="#DejaVuSans-56" x="376.175781"/>
      <use xlink:href="#DejaVuSans-61" x="436.833984"/>
      <use xlink:href="#DejaVuSans-6c" x="498.113281"/>
      <use xlink:href="#DejaVuSans-75" x="525.896484"/>
      <use xlink:href="#DejaVuSans-65" x="589.275391"/>
     </g>
    </g>
   </g>
  </g>
 </g>
 <defs>
  <clipPath id="p18743498af">
   <rect x="54.392188" y="35.7555" width="1339.2" height="332.64"/>
  </clipPath>
 </defs>
</svg>
