<?xml version="1.0" encoding="utf-8" standalone="no"?>
<!DOCTYPE svg PUBLIC "-//W3C//DTD SVG 1.1//EN"
  "http://www.w3.org/Graphics/SVG/1.1/DTD/svg11.dtd">
<svg xmlns:xlink="http://www.w3.org/1999/xlink" width="1392.4125pt" height="392.273625pt" viewBox="0 0 1392.4125 392.273625" xmlns="http://www.w3.org/2000/svg" version="1.1">
 <metadata>
  <rdf:RDF xmlns:dc="http://purl.org/dc/elements/1.1/" xmlns:cc="http://creativecommons.org/ns#" xmlns:rdf="http://www.w3.org/1999/02/22-rdf-syntax-ns#">
   <cc:Work>
    <dc:type rdf:resource="http://purl.org/dc/dcmitype/StillImage"/>
    <dc:date>2023-01-13T19:08:19.464316</dc:date>
    <dc:format>image/svg+xml</dc:format>
    <dc:creator>
     <cc:Agent>
      <dc:title>Matplotlib v3.5.1, https://matplotlib.org/</dc:title>
     </cc:Agent>
    </dc:creator>
   </cc:Work>
  </rdf:RDF>
 </metadata>
 <defs>
  <style type="text/css">*{stroke-linejoin: round; stroke-linecap: butt}</style>
 </defs>
 <g id="figure_1">
  <g id="patch_1">
   <path d="M 0 392.273625 
L 1392.4125 392.273625 
L 1392.4125 0 
L 0 0 
z
" style="fill: #ffffff"/>
  </g>
  <g id="axes_1">
   <g id="patch_2">
    <path d="M 46.0125 368.3955 
L 1385.2125 368.3955 
L 1385.2125 35.7555 
L 46.0125 35.7555 
z
" style="fill: #ffffff"/>
   </g>
   <g id="matplotlib.axis_1">
    <g id="xtick_1">
     <g id="line2d_1">
      <defs>
       <path id="m7fbba38109" d="M 0 0 
L 0 3.5 
" style="stroke: #000000; stroke-width: 0.8"/>
      </defs>
      <g>
       <use xlink:href="#m7fbba38109" x="82.513981" y="368.3955" style="stroke: #000000; stroke-width: 0.8"/>
      </g>
     </g>
     <g id="text_1">
      <!-- 2020-01 -->
      <g transform="translate(61.622574 382.993937)scale(0.1 -0.1)">
       <defs>
        <path id="DejaVuSans-32" d="M 1228 531 
L 3431 531 
L 3431 0 
L 469 0 
L 469 531 
Q 828 903 1448 1529 
Q 2069 2156 2228 2338 
Q 2531 2678 2651 2914 
Q 2772 3150 2772 3378 
Q 2772 3750 2511 3984 
Q 2250 4219 1831 4219 
Q 1534 4219 1204 4116 
Q 875 4013 500 3803 
L 500 4441 
Q 881 4594 1212 4672 
Q 1544 4750 1819 4750 
Q 2544 4750 2975 4387 
Q 3406 4025 3406 3419 
Q 3406 3131 3298 2873 
Q 3191 2616 2906 2266 
Q 2828 2175 2409 1742 
Q 1991 1309 1228 531 
z
" transform="scale(0.015625)"/>
        <path id="DejaVuSans-30" d="M 2034 4250 
Q 1547 4250 1301 3770 
Q 1056 3291 1056 2328 
Q 1056 1369 1301 889 
Q 1547 409 2034 409 
Q 2525 409 2770 889 
Q 3016 1369 3016 2328 
Q 3016 3291 2770 3770 
Q 2525 4250 2034 4250 
z
M 2034 4750 
Q 2819 4750 3233 4129 
Q 3647 3509 3647 2328 
Q 3647 1150 3233 529 
Q 2819 -91 2034 -91 
Q 1250 -91 836 529 
Q 422 1150 422 2328 
Q 422 3509 836 4129 
Q 1250 4750 2034 4750 
z
" transform="scale(0.015625)"/>
        <path id="DejaVuSans-2d" d="M 313 2009 
L 1997 2009 
L 1997 1497 
L 313 1497 
L 313 2009 
z
" transform="scale(0.015625)"/>
        <path id="DejaVuSans-31" d="M 794 531 
L 1825 531 
L 1825 4091 
L 703 3866 
L 703 4441 
L 1819 4666 
L 2450 4666 
L 2450 531 
L 3481 531 
L 3481 0 
L 794 0 
L 794 531 
z
" transform="scale(0.015625)"/>
       </defs>
       <use xlink:href="#DejaVuSans-32"/>
       <use xlink:href="#DejaVuSans-30" x="63.623047"/>
       <use xlink:href="#DejaVuSans-32" x="127.246094"/>
       <use xlink:href="#DejaVuSans-30" x="190.869141"/>
       <use xlink:href="#DejaVuSans-2d" x="254.492188"/>
       <use xlink:href="#DejaVuSans-30" x="290.576172"/>
       <use xlink:href="#DejaVuSans-31" x="354.199219"/>
      </g>
     </g>
    </g>
    <g id="xtick_2">
     <g id="line2d_2">
      <g>
       <use xlink:href="#m7fbba38109" x="216.555837" y="368.3955" style="stroke: #000000; stroke-width: 0.8"/>
      </g>
     </g>
     <g id="text_2">
      <!-- 2020-05 -->
      <g transform="translate(195.664431 382.993937)scale(0.1 -0.1)">
       <defs>
        <path id="DejaVuSans-35" d="M 691 4666 
L 3169 4666 
L 3169 4134 
L 1269 4134 
L 1269 2991 
Q 1406 3038 1543 3061 
Q 1681 3084 1819 3084 
Q 2600 3084 3056 2656 
Q 3513 2228 3513 1497 
Q 3513 744 3044 326 
Q 2575 -91 1722 -91 
Q 1428 -91 1123 -41 
Q 819 9 494 109 
L 494 744 
Q 775 591 1075 516 
Q 1375 441 1709 441 
Q 2250 441 2565 725 
Q 2881 1009 2881 1497 
Q 2881 1984 2565 2268 
Q 2250 2553 1709 2553 
Q 1456 2553 1204 2497 
Q 953 2441 691 2322 
L 691 4666 
z
" transform="scale(0.015625)"/>
       </defs>
       <use xlink:href="#DejaVuSans-32"/>
       <use xlink:href="#DejaVuSans-30" x="63.623047"/>
       <use xlink:href="#DejaVuSans-32" x="127.246094"/>
       <use xlink:href="#DejaVuSans-30" x="190.869141"/>
       <use xlink:href="#DejaVuSans-2d" x="254.492188"/>
       <use xlink:href="#DejaVuSans-30" x="290.576172"/>
       <use xlink:href="#DejaVuSans-35" x="354.199219"/>
      </g>
     </g>
    </g>
    <g id="xtick_3">
     <g id="line2d_3">
      <g>
       <use xlink:href="#m7fbba38109" x="352.813261" y="368.3955" style="stroke: #000000; stroke-width: 0.8"/>
      </g>
     </g>
     <g id="text_3">
      <!-- 2020-09 -->
      <g transform="translate(331.921855 382.993937)scale(0.1 -0.1)">
       <defs>
        <path id="DejaVuSans-39" d="M 703 97 
L 703 672 
Q 941 559 1184 500 
Q 1428 441 1663 441 
Q 2288 441 2617 861 
Q 2947 1281 2994 2138 
Q 2813 1869 2534 1725 
Q 2256 1581 1919 1581 
Q 1219 1581 811 2004 
Q 403 2428 403 3163 
Q 403 3881 828 4315 
Q 1253 4750 1959 4750 
Q 2769 4750 3195 4129 
Q 3622 3509 3622 2328 
Q 3622 1225 3098 567 
Q 2575 -91 1691 -91 
Q 1453 -91 1209 -44 
Q 966 3 703 97 
z
M 1959 2075 
Q 2384 2075 2632 2365 
Q 2881 2656 2881 3163 
Q 2881 3666 2632 3958 
Q 2384 4250 1959 4250 
Q 1534 4250 1286 3958 
Q 1038 3666 1038 3163 
Q 1038 2656 1286 2365 
Q 1534 2075 1959 2075 
z
" transform="scale(0.015625)"/>
       </defs>
       <use xlink:href="#DejaVuSans-32"/>
       <use xlink:href="#DejaVuSans-30" x="63.623047"/>
       <use xlink:href="#DejaVuSans-32" x="127.246094"/>
       <use xlink:href="#DejaVuSans-30" x="190.869141"/>
       <use xlink:href="#DejaVuSans-2d" x="254.492188"/>
       <use xlink:href="#DejaVuSans-30" x="290.576172"/>
       <use xlink:href="#DejaVuSans-39" x="354.199219"/>
      </g>
     </g>
    </g>
    <g id="xtick_4">
     <g id="line2d_4">
      <g>
       <use xlink:href="#m7fbba38109" x="487.962901" y="368.3955" style="stroke: #000000; stroke-width: 0.8"/>
      </g>
     </g>
     <g id="text_4">
      <!-- 2021-01 -->
      <g transform="translate(467.071495 382.993937)scale(0.1 -0.1)">
       <use xlink:href="#DejaVuSans-32"/>
       <use xlink:href="#DejaVuSans-30" x="63.623047"/>
       <use xlink:href="#DejaVuSans-32" x="127.246094"/>
       <use xlink:href="#DejaVuSans-31" x="190.869141"/>
       <use xlink:href="#DejaVuSans-2d" x="254.492188"/>
       <use xlink:href="#DejaVuSans-30" x="290.576172"/>
       <use xlink:href="#DejaVuSans-31" x="354.199219"/>
      </g>
     </g>
    </g>
    <g id="xtick_5">
     <g id="line2d_5">
      <g>
       <use xlink:href="#m7fbba38109" x="620.896973" y="368.3955" style="stroke: #000000; stroke-width: 0.8"/>
      </g>
     </g>
     <g id="text_5">
      <!-- 2021-05 -->
      <g transform="translate(600.005567 382.993937)scale(0.1 -0.1)">
       <use xlink:href="#DejaVuSans-32"/>
       <use xlink:href="#DejaVuSans-30" x="63.623047"/>
       <use xlink:href="#DejaVuSans-32" x="127.246094"/>
       <use xlink:href="#DejaVuSans-31" x="190.869141"/>
       <use xlink:href="#DejaVuSans-2d" x="254.492188"/>
       <use xlink:href="#DejaVuSans-30" x="290.576172"/>
       <use xlink:href="#DejaVuSans-35" x="354.199219"/>
      </g>
     </g>
    </g>
    <g id="xtick_6">
     <g id="line2d_6">
      <g>
       <use xlink:href="#m7fbba38109" x="757.154398" y="368.3955" style="stroke: #000000; stroke-width: 0.8"/>
      </g>
     </g>
     <g id="text_6">
      <!-- 2021-09 -->
      <g transform="translate(736.262991 382.993937)scale(0.1 -0.1)">
       <use xlink:href="#DejaVuSans-32"/>
       <use xlink:href="#DejaVuSans-30" x="63.623047"/>
       <use xlink:href="#DejaVuSans-32" x="127.246094"/>
       <use xlink:href="#DejaVuSans-31" x="190.869141"/>
       <use xlink:href="#DejaVuSans-2d" x="254.492188"/>
       <use xlink:href="#DejaVuSans-30" x="290.576172"/>
       <use xlink:href="#DejaVuSans-39" x="354.199219"/>
      </g>
     </g>
    </g>
    <g id="xtick_7">
     <g id="line2d_7">
      <g>
       <use xlink:href="#m7fbba38109" x="892.304038" y="368.3955" style="stroke: #000000; stroke-width: 0.8"/>
      </g>
     </g>
     <g id="text_7">
      <!-- 2022-01 -->
      <g transform="translate(871.412632 382.993937)scale(0.1 -0.1)">
       <use xlink:href="#DejaVuSans-32"/>
       <use xlink:href="#DejaVuSans-30" x="63.623047"/>
       <use xlink:href="#DejaVuSans-32" x="127.246094"/>
       <use xlink:href="#DejaVuSans-32" x="190.869141"/>
       <use xlink:href="#DejaVuSans-2d" x="254.492188"/>
       <use xlink:href="#DejaVuSans-30" x="290.576172"/>
       <use xlink:href="#DejaVuSans-31" x="354.199219"/>
      </g>
     </g>
    </g>
    <g id="xtick_8">
     <g id="line2d_8">
      <g>
       <use xlink:href="#m7fbba38109" x="1025.23811" y="368.3955" style="stroke: #000000; stroke-width: 0.8"/>
      </g>
     </g>
     <g id="text_8">
      <!-- 2022-05 -->
      <g transform="translate(1004.346704 382.993937)scale(0.1 -0.1)">
       <use xlink:href="#DejaVuSans-32"/>
       <use xlink:href="#DejaVuSans-30" x="63.623047"/>
       <use xlink:href="#DejaVuSans-32" x="127.246094"/>
       <use xlink:href="#DejaVuSans-32" x="190.869141"/>
       <use xlink:href="#DejaVuSans-2d" x="254.492188"/>
       <use xlink:href="#DejaVuSans-30" x="290.576172"/>
       <use xlink:href="#DejaVuSans-35" x="354.199219"/>
      </g>
     </g>
    </g>
    <g id="xtick_9">
     <g id="line2d_9">
      <g>
       <use xlink:href="#m7fbba38109" x="1161.495534" y="368.3955" style="stroke: #000000; stroke-width: 0.8"/>
      </g>
     </g>
     <g id="text_9">
      <!-- 2022-09 -->
      <g transform="translate(1140.604128 382.993937)scale(0.1 -0.1)">
       <use xlink:href="#DejaVuSans-32"/>
       <use xlink:href="#DejaVuSans-30" x="63.623047"/>
       <use xlink:href="#DejaVuSans-32" x="127.246094"/>
       <use xlink:href="#DejaVuSans-32" x="190.869141"/>
       <use xlink:href="#DejaVuSans-2d" x="254.492188"/>
       <use xlink:href="#DejaVuSans-30" x="290.576172"/>
       <use xlink:href="#DejaVuSans-39" x="354.199219"/>
      </g>
     </g>
    </g>
    <g id="xtick_10">
     <g id="line2d_10">
      <g>
       <use xlink:href="#m7fbba38109" x="1296.645174" y="368.3955" style="stroke: #000000; stroke-width: 0.8"/>
      </g>
     </g>
     <g id="text_10">
      <!-- 2023-01 -->
      <g transform="translate(1275.753768 382.993937)scale(0.1 -0.1)">
       <defs>
        <path id="DejaVuSans-33" d="M 2597 2516 
Q 3050 2419 3304 2112 
Q 3559 1806 3559 1356 
Q 3559 666 3084 287 
Q 2609 -91 1734 -91 
Q 1441 -91 1130 -33 
Q 819 25 488 141 
L 488 750 
Q 750 597 1062 519 
Q 1375 441 1716 441 
Q 2309 441 2620 675 
Q 2931 909 2931 1356 
Q 2931 1769 2642 2001 
Q 2353 2234 1838 2234 
L 1294 2234 
L 1294 2753 
L 1863 2753 
Q 2328 2753 2575 2939 
Q 2822 3125 2822 3475 
Q 2822 3834 2567 4026 
Q 2313 4219 1838 4219 
Q 1578 4219 1281 4162 
Q 984 4106 628 3988 
L 628 4550 
Q 988 4650 1302 4700 
Q 1616 4750 1894 4750 
Q 2613 4750 3031 4423 
Q 3450 4097 3450 3541 
Q 3450 3153 3228 2886 
Q 3006 2619 2597 2516 
z
" transform="scale(0.015625)"/>
       </defs>
       <use xlink:href="#DejaVuSans-32"/>
       <use xlink:href="#DejaVuSans-30" x="63.623047"/>
       <use xlink:href="#DejaVuSans-32" x="127.246094"/>
       <use xlink:href="#DejaVuSans-33" x="190.869141"/>
       <use xlink:href="#DejaVuSans-2d" x="254.492188"/>
       <use xlink:href="#DejaVuSans-30" x="290.576172"/>
       <use xlink:href="#DejaVuSans-31" x="354.199219"/>
      </g>
     </g>
    </g>
   </g>
   <g id="matplotlib.axis_2">
    <g id="ytick_1">
     <g id="line2d_11">
      <defs>
       <path id="m013d5a6184" d="M 0 0 
L -3.5 0 
" style="stroke: #000000; stroke-width: 0.8"/>
      </defs>
      <g>
       <use xlink:href="#m013d5a6184" x="46.0125" y="351.807813" style="stroke: #000000; stroke-width: 0.8"/>
      </g>
     </g>
     <g id="text_11">
      <!-- 0 -->
      <g transform="translate(32.65 355.607032)scale(0.1 -0.1)">
       <use xlink:href="#DejaVuSans-30"/>
      </g>
     </g>
    </g>
    <g id="ytick_2">
     <g id="line2d_12">
      <g>
       <use xlink:href="#m013d5a6184" x="46.0125" y="281.245931" style="stroke: #000000; stroke-width: 0.8"/>
      </g>
     </g>
     <g id="text_12">
      <!-- 5000 -->
      <g transform="translate(13.5625 285.04515)scale(0.1 -0.1)">
       <use xlink:href="#DejaVuSans-35"/>
       <use xlink:href="#DejaVuSans-30" x="63.623047"/>
       <use xlink:href="#DejaVuSans-30" x="127.246094"/>
       <use xlink:href="#DejaVuSans-30" x="190.869141"/>
      </g>
     </g>
    </g>
    <g id="ytick_3">
     <g id="line2d_13">
      <g>
       <use xlink:href="#m013d5a6184" x="46.0125" y="210.68405" style="stroke: #000000; stroke-width: 0.8"/>
      </g>
     </g>
     <g id="text_13">
      <!-- 10000 -->
      <g transform="translate(7.2 214.483268)scale(0.1 -0.1)">
       <use xlink:href="#DejaVuSans-31"/>
       <use xlink:href="#DejaVuSans-30" x="63.623047"/>
       <use xlink:href="#DejaVuSans-30" x="127.246094"/>
       <use xlink:href="#DejaVuSans-30" x="190.869141"/>
       <use xlink:href="#DejaVuSans-30" x="254.492188"/>
      </g>
     </g>
    </g>
    <g id="ytick_4">
     <g id="line2d_14">
      <g>
       <use xlink:href="#m013d5a6184" x="46.0125" y="140.122168" style="stroke: #000000; stroke-width: 0.8"/>
      </g>
     </g>
     <g id="text_14">
      <!-- 15000 -->
      <g transform="translate(7.2 143.921387)scale(0.1 -0.1)">
       <use xlink:href="#DejaVuSans-31"/>
       <use xlink:href="#DejaVuSans-35" x="63.623047"/>
       <use xlink:href="#DejaVuSans-30" x="127.246094"/>
       <use xlink:href="#DejaVuSans-30" x="190.869141"/>
       <use xlink:href="#DejaVuSans-30" x="254.492188"/>
      </g>
     </g>
    </g>
    <g id="ytick_5">
     <g id="line2d_15">
      <g>
       <use xlink:href="#m013d5a6184" x="46.0125" y="69.560286" style="stroke: #000000; stroke-width: 0.8"/>
      </g>
     </g>
     <g id="text_15">
      <!-- 20000 -->
      <g transform="translate(7.2 73.359505)scale(0.1 -0.1)">
       <use xlink:href="#DejaVuSans-32"/>
       <use xlink:href="#DejaVuSans-30" x="63.623047"/>
       <use xlink:href="#DejaVuSans-30" x="127.246094"/>
       <use xlink:href="#DejaVuSans-30" x="190.869141"/>
       <use xlink:href="#DejaVuSans-30" x="254.492188"/>
      </g>
     </g>
    </g>
   </g>
   <g id="line2d_16">
    <path d="M 106.885227 351.807813 
L 172.244479 351.807813 
L 173.352263 351.694914 
L 174.460047 351.807813 
L 175.567831 351.737251 
L 176.675615 351.807813 
L 177.783399 351.680801 
L 181.106751 351.807813 
L 182.214535 351.652577 
L 183.322319 351.807813 
L 191.076806 351.7937 
L 199.939078 351.807813 
L 208.801349 351.7937 
L 215.448053 351.779588 
L 224.310324 351.807813 
L 225.418108 351.596127 
L 227.633676 351.807813 
L 230.957028 351.511453 
L 232.064812 351.200981 
L 234.28038 351.807813 
L 235.388164 351.511453 
L 237.603732 351.751363 
L 238.711516 353.2755 
L 239.8193 351.596127 
L 240.927084 351.483228 
L 242.034867 351.807813 
L 243.142651 351.469116 
L 244.250435 351.370329 
L 245.358219 351.412666 
L 246.466003 351.299767 
L 247.573787 351.638464 
L 248.681571 350.622373 
L 249.789355 351.751363 
L 250.897139 351.243318 
L 254.220491 351.596127 
L 255.328275 351.31388 
L 256.436059 351.299767 
L 257.543843 351.483228 
L 258.651626 351.384442 
L 259.75941 351.652577 
L 260.867194 351.694914 
L 261.974978 351.61024 
L 263.082762 351.709026 
L 266.406114 351.680801 
L 267.513898 351.539678 
L 268.621682 351.694914 
L 273.052818 351.709026 
L 274.160602 351.751363 
L 275.268386 351.483228 
L 276.376169 351.694914 
L 277.483953 351.582015 
L 280.807305 351.652577 
L 281.915089 351.652577 
L 283.022873 351.539678 
L 284.130657 351.751363 
L 287.454009 351.582015 
L 289.669577 351.61024 
L 290.777361 351.55379 
L 291.885145 351.723139 
L 292.992928 351.483228 
L 294.100712 351.723139 
L 298.531848 351.652577 
L 299.639632 351.765476 
L 300.747416 351.694914 
L 304.070768 351.765476 
L 314.040823 351.709026 
L 317.364175 351.709026 
L 318.471959 351.497341 
L 319.579743 351.723139 
L 320.687527 351.624352 
L 322.903095 351.666689 
L 324.010879 351.666689 
L 325.118663 351.370329 
L 326.226447 351.624352 
L 332.87315 351.356217 
L 335.088718 350.876396 
L 336.196502 350.96107 
L 337.304286 351.200981 
L 338.41207 351.059857 
L 339.519854 350.481249 
L 340.627638 350.4248 
L 341.735422 347.320077 
L 342.843206 350.438912 
L 343.95099 350.410688 
L 345.058773 350.904621 
L 346.166557 350.4248 
L 347.274341 349.620395 
L 348.382125 350.72116 
L 349.489909 350.523587 
L 350.597693 350.66471 
L 351.705477 351.186868 
L 352.813261 350.890508 
L 353.921045 350.749385 
L 355.028829 349.324035 
L 356.136613 350.890508 
L 357.244397 349.182911 
L 358.352181 350.001429 
L 359.459965 350.269564 
L 360.567749 350.057878 
L 361.675533 348.971225 
L 362.783316 349.126461 
L 363.8911 350.594148 
L 364.998884 347.207178 
L 366.106668 350.453025 
L 367.214452 349.281697 
L 368.322236 349.761518 
L 369.43002 349.789743 
L 370.537804 350.199002 
L 371.645588 348.787764 
L 372.753372 345.838278 
L 373.861156 347.997471 
L 374.96894 349.253473 
L 376.076724 348.364393 
L 377.184508 349.451046 
L 378.292292 349.197023 
L 379.400075 349.634507 
L 380.507859 349.747406 
L 381.615643 349.465158 
L 382.723427 348.322056 
L 383.831211 348.420843 
L 384.938995 350.227227 
L 387.154563 348.928888 
L 389.370131 349.747406 
L 390.477915 349.59217 
L 391.585699 350.156665 
L 392.693483 349.29581 
L 393.801267 349.23936 
L 394.909051 350.453025 
L 396.016835 349.507496 
L 397.124618 350.396575 
L 398.232402 350.918733 
L 399.340186 350.66471 
L 400.44797 350.057878 
L 401.555754 351.130419 
L 402.663538 348.745427 
L 403.771322 350.100215 
L 404.879106 349.902642 
L 405.98689 350.382463 
L 407.094674 350.438912 
L 408.202458 349.761518 
L 409.310242 350.283676 
L 412.633594 349.747406 
L 413.741377 350.199002 
L 414.849161 350.904621 
L 415.956945 349.747406 
L 417.064729 345.683042 
L 418.172513 348.858326 
L 419.280297 350.608261 
L 420.388081 348.307944 
L 421.495865 348.590191 
L 422.603649 350.001429 
L 423.711433 348.251494 
L 424.819217 348.745427 
L 425.927001 347.799898 
L 427.034785 348.787764 
L 428.142569 347.051942 
L 429.250353 349.394597 
L 430.358137 349.973204 
L 431.46592 347.729336 
L 432.573704 348.646641 
L 433.681488 349.197023 
L 434.789272 346.346323 
L 435.897056 348.547854 
L 437.00484 348.46318 
L 438.112624 347.489426 
L 439.220408 346.98138 
L 440.328192 348.378505 
L 441.435976 347.81401 
L 442.54376 348.477292 
L 443.651544 347.559988 
L 444.759328 349.027675 
L 445.867112 348.40673 
L 446.974896 344.977423 
L 448.08268 348.632528 
L 449.190463 345.132659 
L 450.298247 346.783807 
L 451.406031 348.971225 
L 452.513815 347.376527 
L 453.621599 343.679084 
L 454.729383 346.529784 
L 455.837167 348.943 
L 456.944951 347.771673 
L 458.052735 347.715224 
L 459.160519 347.418864 
L 460.268303 341.915037 
L 461.376087 351.807813 
L 462.483871 325.572905 
L 463.591655 342.338408 
L 464.699439 342.790004 
L 465.807222 341.900925 
L 468.02279 348.505517 
L 470.238358 343.83432 
L 471.346142 342.945241 
L 472.453926 341.788026 
L 473.56171 342.902903 
L 474.669494 344.96331 
L 475.777278 349.027675 
L 476.885062 344.384703 
L 477.992846 344.906861 
L 479.10063 344.539939 
L 480.208414 345.513693 
L 481.316198 348.943 
L 482.423982 348.307944 
L 483.531765 349.521608 
L 484.639549 347.461201 
L 485.747333 346.219312 
L 486.855117 344.201242 
L 487.962901 347.644662 
L 489.070685 348.971225 
L 490.178469 348.844214 
L 491.286253 350.001429 
L 492.394037 346.769695 
L 493.501821 347.644662 
L 494.609605 346.558009 
L 495.717389 348.674865 
L 496.825173 348.16682 
L 497.932957 349.154686 
L 499.040741 350.876396 
L 500.148524 349.83208 
L 501.256308 349.874417 
L 502.364092 351.807813 
L 506.795228 351.807813 
L 507.903012 345.471356 
L 509.010796 350.481249 
L 510.11858 349.29581 
L 511.226364 349.987316 
L 512.334148 350.269564 
L 513.441932 350.326013 
L 514.549716 351.25743 
L 515.6575 350.777609 
L 516.765284 351.059857 
L 517.873067 350.255451 
L 518.980851 350.876396 
L 520.088635 351.200981 
L 521.196419 351.158644 
L 522.304203 351.426779 
L 523.411987 351.172756 
L 524.519771 351.327992 
L 525.627555 351.102194 
L 526.735339 351.045745 
L 527.843123 351.356217 
L 528.950907 351.426779 
L 530.058691 351.638464 
L 532.274259 351.412666 
L 535.59761 351.243318 
L 536.705394 351.807813 
L 537.813178 351.299767 
L 538.920962 351.694914 
L 540.028746 351.25743 
L 541.13653 351.073969 
L 542.244314 351.61024 
L 543.352098 351.370329 
L 544.459882 351.61024 
L 545.567666 351.694914 
L 546.67545 351.497341 
L 547.783234 351.55379 
L 548.891018 351.25743 
L 551.106586 351.624352 
L 552.214369 351.497341 
L 553.322153 351.666689 
L 554.429937 351.412666 
L 555.537721 351.624352 
L 557.753289 351.440891 
L 558.861073 351.807813 
L 559.968857 351.638464 
L 562.184425 351.652577 
L 563.292209 351.384442 
L 564.399993 351.596127 
L 566.615561 351.807813 
L 567.723345 351.285655 
L 568.831129 351.666689 
L 569.938912 351.779588 
L 571.046696 351.61024 
L 573.262264 351.440891 
L 574.370048 351.807813 
L 575.477832 351.525565 
L 576.585616 351.582015 
L 577.6934 351.356217 
L 578.801184 351.807813 
L 579.908968 351.596127 
L 589.879023 351.271543 
L 590.986807 351.807813 
L 592.094591 351.045745 
L 593.202375 351.709026 
L 594.310159 351.483228 
L 595.417943 351.582015 
L 597.633511 351.426779 
L 603.172431 351.440891 
L 604.280214 351.144531 
L 605.387998 351.384442 
L 606.495782 351.271543 
L 607.603566 351.55379 
L 608.71135 351.440891 
L 609.819134 351.059857 
L 610.926918 351.045745 
L 612.034702 351.158644 
L 613.142486 351.807813 
L 614.25027 350.678823 
L 615.358054 350.96107 
L 616.465838 351.497341 
L 618.681406 351.370329 
L 619.78919 350.834059 
L 620.896973 351.25743 
L 622.004757 351.807813 
L 623.112541 350.848171 
L 624.220325 350.975183 
L 625.328109 350.819947 
L 626.435893 351.102194 
L 627.543677 350.791722 
L 628.651461 350.622373 
L 629.759245 351.144531 
L 630.867029 351.398554 
L 633.082597 350.96107 
L 634.190381 350.523587 
L 635.298165 350.453025 
L 636.405949 351.807813 
L 637.513733 350.326013 
L 638.621516 350.678823 
L 639.7293 350.805834 
L 640.837084 349.493383 
L 641.944868 349.987316 
L 643.052652 349.733294 
L 644.160436 349.874417 
L 645.26822 348.604303 
L 646.376004 349.197023 
L 647.483788 349.620395 
L 648.591572 348.886551 
L 649.699356 347.390639 
L 650.80714 342.818229 
L 651.914924 341.929149 
L 653.022708 342.042048 
L 654.130492 344.412928 
L 655.238275 343.142814 
L 656.346059 338.894989 
L 658.561627 334.20968 
L 659.669411 342.352521 
L 660.777195 334.040331 
L 661.884979 337.328515 
L 662.992763 341.81625 
L 664.100547 339.925192 
L 665.208331 331.514216 
L 666.316115 329.707832 
L 667.423899 327.32284 
L 668.531683 327.435739 
L 669.639467 335.973727 
L 670.747251 331.740014 
L 671.855035 336.143075 
L 672.962818 329.453809 
L 674.070602 329.736056 
L 675.178386 332.092823 
L 676.28617 332.516194 
L 677.393954 335.776153 
L 678.501738 341.618677 
L 679.609522 339.685282 
L 680.717306 333.786308 
L 681.82509 337.342627 
L 682.932874 338.499842 
L 684.040658 339.26191 
L 685.148442 341.999711 
L 686.256226 346.939043 
L 687.36401 344.144793 
L 688.471794 336.891031 
L 689.579578 337.018042 
L 690.687361 340.941283 
L 691.795145 340.74371 
L 692.902929 345.033872 
L 694.010713 345.626592 
L 695.118497 345.810053 
L 696.226281 343.312162 
L 697.334065 343.918994 
L 698.441849 343.128701 
L 699.549633 344.441152 
L 701.765201 345.626592 
L 702.872985 345.033872 
L 703.980769 346.078188 
L 706.196337 345.31612 
L 707.30412 345.922952 
L 708.411904 348.068033 
L 709.519688 348.223269 
L 710.627472 348.251494 
L 711.735256 349.084124 
L 712.84304 346.797919 
L 713.950824 346.0923 
L 715.058608 346.515672 
L 716.166392 348.505517 
L 717.274176 350.805834 
L 718.38196 347.193066 
L 719.489744 349.549833 
L 720.597528 346.261649 
L 721.705312 348.251494 
L 722.813096 348.025696 
L 723.92088 348.561966 
L 725.028663 350.227227 
L 726.136447 348.957113 
L 727.244231 349.479271 
L 728.352015 347.263628 
L 729.459799 348.307944 
L 730.567583 348.293831 
L 731.675367 349.662732 
L 732.783151 350.678823 
L 733.890935 350.227227 
L 734.998719 349.59217 
L 736.106503 347.955134 
L 737.214287 349.253473 
L 738.322071 347.447089 
L 739.429855 349.874417 
L 740.537639 350.932846 
L 742.753206 349.563945 
L 743.86099 351.807813 
L 746.076558 351.807813 
L 747.184342 50.8755 
L 748.292126 350.071991 
L 749.39991 349.874417 
L 750.507694 350.340126 
L 751.615478 349.182911 
L 752.723262 348.745427 
L 753.831046 349.154686 
L 754.93883 350.495362 
L 756.046614 350.537699 
L 757.154398 349.549833 
L 758.262182 349.930867 
L 759.369965 349.422821 
L 760.477749 350.551811 
L 761.585533 350.18489 
L 763.801101 351.073969 
L 764.908885 349.930867 
L 766.016669 349.789743 
L 767.124453 349.324035 
L 768.232237 349.973204 
L 769.340021 348.787764 
L 770.447805 350.72116 
L 771.555589 351.384442 
L 772.663373 350.819947 
L 773.771157 350.438912 
L 774.878941 348.985338 
L 775.986725 350.410688 
L 777.094508 349.987316 
L 778.202292 350.890508 
L 779.310076 350.001429 
L 780.41786 350.438912 
L 781.525644 350.551811 
L 782.633428 347.404751 
L 783.741212 349.507496 
L 785.95678 350.904621 
L 787.064564 350.467137 
L 788.172348 350.326013 
L 789.280132 350.015541 
L 790.387916 349.408709 
L 791.4957 350.18489 
L 792.603484 350.12844 
L 793.711267 350.918733 
L 794.819051 350.975183 
L 795.926835 350.509474 
L 797.034619 350.904621 
L 798.142403 349.225248 
L 799.250187 350.297789 
L 801.465755 350.537699 
L 803.681323 351.01752 
L 804.789107 350.96107 
L 805.896891 350.043766 
L 807.004675 351.172756 
L 808.112459 350.509474 
L 809.220243 350.749385 
L 810.328027 351.497341 
L 811.43581 350.66471 
L 812.543594 350.932846 
L 813.651378 350.241339 
L 814.759162 350.283676 
L 815.866946 350.890508 
L 818.082514 351.384442 
L 819.190298 350.777609 
L 820.298082 350.975183 
L 821.405866 350.678823 
L 822.51365 350.749385 
L 823.621434 350.453025 
L 825.837002 351.299767 
L 826.944786 351.116306 
L 828.052569 351.426779 
L 830.268137 350.608261 
L 831.375921 350.707048 
L 832.483705 351.031632 
L 833.591489 351.539678 
L 834.699273 350.819947 
L 835.807057 351.116306 
L 836.914841 350.819947 
L 838.022625 351.01752 
L 839.130409 351.327992 
L 840.238193 351.215093 
L 841.345977 351.285655 
L 842.453761 351.186868 
L 843.561545 351.426779 
L 844.669329 351.031632 
L 845.777112 351.807813 
L 846.884896 351.116306 
L 847.99268 350.96107 
L 849.100464 351.370329 
L 850.208248 351.285655 
L 851.316032 351.356217 
L 852.423816 350.735272 
L 853.5316 351.666689 
L 854.639384 351.412666 
L 855.747168 350.791722 
L 856.854952 351.426779 
L 857.962736 351.25743 
L 859.07052 351.398554 
L 860.178304 351.342104 
L 861.286088 351.807813 
L 862.393871 351.751363 
L 863.501655 350.382463 
L 864.609439 351.539678 
L 865.717223 351.144531 
L 866.825007 351.229205 
L 867.932791 350.66471 
L 869.040575 351.807813 
L 870.148359 351.398554 
L 871.256143 350.015541 
L 872.363927 350.580036 
L 874.579495 350.537699 
L 875.687279 348.858326 
L 876.795063 349.182911 
L 877.902847 347.616437 
L 879.010631 348.16682 
L 880.118414 346.769695 
L 881.226198 344.7234 
L 882.333982 341.788026 
L 883.441766 336.382986 
L 884.54955 334.15323 
L 885.657334 336.058401 
L 886.765118 341.322317 
L 887.872902 338.062358 
L 888.980686 333.85687 
L 890.08847 327.224053 
L 891.196254 328.409493 
L 892.304038 325.460006 
L 893.411822 324.486252 
L 895.62739 339.388922 
L 896.735174 326.885356 
L 897.842957 326.984143 
L 898.950741 351.807813 
L 900.058525 317.796986 
L 901.166309 337.921235 
L 902.274093 340.292114 
L 903.381877 339.600607 
L 904.489661 342.352521 
L 906.705229 344.42704 
L 907.813013 344.370591 
L 908.920797 344.977423 
L 910.028581 344.681063 
L 911.136365 349.126461 
L 912.244149 347.051942 
L 913.351933 348.265606 
L 914.459716 347.771673 
L 915.5675 347.023717 
L 916.675284 348.900663 
L 917.783068 348.70309 
L 919.998636 349.041787 
L 921.10642 347.785786 
L 922.214204 349.521608 
L 923.321988 350.650598 
L 924.429772 349.126461 
L 925.537556 349.747406 
L 926.64534 350.537699 
L 927.753124 350.707048 
L 928.860908 351.215093 
L 929.968692 350.580036 
L 931.076476 350.862284 
L 932.184259 350.819947 
L 933.292043 350.36835 
L 934.399827 350.862284 
L 935.507611 350.848171 
L 936.615395 351.116306 
L 937.723179 350.678823 
L 938.830963 351.807813 
L 939.938747 351.003407 
L 941.046531 350.029653 
L 942.154315 351.144531 
L 943.262099 350.918733 
L 944.369883 351.807813 
L 945.477667 351.229205 
L 947.693235 351.412666 
L 948.801018 350.622373 
L 949.908802 351.497341 
L 951.016586 351.61024 
L 952.12437 351.426779 
L 953.232154 351.073969 
L 954.339938 351.807813 
L 955.447722 351.539678 
L 956.555506 351.003407 
L 957.66329 351.31388 
L 958.771074 351.807813 
L 959.878858 351.229205 
L 960.986642 351.807813 
L 963.20221 351.807813 
L 964.309994 351.539678 
L 965.417778 351.61024 
L 967.633345 350.975183 
L 968.741129 351.582015 
L 969.848913 351.807813 
L 970.956697 351.807813 
L 972.064481 351.638464 
L 973.172265 351.01752 
L 974.280049 351.638464 
L 975.387833 351.55379 
L 977.603401 351.7937 
L 978.711185 351.059857 
L 979.818969 350.678823 
L 980.926753 351.807813 
L 982.034537 351.709026 
L 983.14232 351.215093 
L 984.250104 351.624352 
L 993.112376 351.624352 
L 994.22016 351.751363 
L 995.327944 351.624352 
L 996.435728 351.779588 
L 998.651296 351.807813 
L 999.75908 351.55379 
L 1003.082431 351.765476 
L 1004.190215 351.582015 
L 1007.513567 351.709026 
L 1008.621351 351.680801 
L 1009.729135 351.807813 
L 1013.052487 351.652577 
L 1014.160271 351.807813 
L 1021.914758 351.807813 
L 1023.022542 351.596127 
L 1024.130326 351.807813 
L 1025.23811 351.807813 
L 1026.345894 351.525565 
L 1027.453678 351.807813 
L 1029.669246 351.807813 
L 1030.77703 351.61024 
L 1031.884814 351.807813 
L 1032.992598 351.807813 
L 1034.100382 351.370329 
L 1035.208165 351.751363 
L 1037.423733 351.807813 
L 1049.609357 351.807813 
L 1050.717141 349.29581 
L 1051.824925 351.807813 
L 1052.932708 351.807813 
L 1054.040492 351.31388 
L 1055.148276 351.807813 
L 1064.010548 351.807813 
L 1065.118332 332.981903 
L 1066.226116 351.327992 
L 1067.3339 350.834059 
L 1068.441684 350.057878 
L 1069.549467 350.12844 
L 1070.657251 350.749385 
L 1071.765035 350.170777 
L 1072.872819 350.650598 
L 1073.980603 350.975183 
L 1075.088387 350.12844 
L 1076.196171 350.453025 
L 1077.303955 349.944979 
L 1078.411739 350.622373 
L 1079.519523 350.241339 
L 1080.627307 351.327992 
L 1081.735091 351.215093 
L 1082.842875 350.029653 
L 1083.950659 350.467137 
L 1086.166227 350.876396 
L 1087.27401 350.608261 
L 1088.381794 350.975183 
L 1089.489578 351.807813 
L 1090.597362 349.902642 
L 1091.705146 350.777609 
L 1092.81293 350.580036 
L 1096.136282 351.186868 
L 1097.244066 351.807813 
L 1098.35185 351.384442 
L 1099.459634 349.549833 
L 1100.567418 350.989295 
L 1102.782986 350.834059 
L 1103.89077 351.327992 
L 1107.214121 350.791722 
L 1108.321905 350.96107 
L 1109.429689 350.467137 
L 1110.537473 351.25743 
L 1111.645257 351.624352 
L 1113.860825 351.200981 
L 1114.968609 351.215093 
L 1116.076393 351.807813 
L 1118.291961 350.975183 
L 1119.399745 351.285655 
L 1120.507529 350.269564 
L 1121.615312 351.271543 
L 1122.723096 351.426779 
L 1123.83088 351.229205 
L 1124.938664 351.807813 
L 1126.046448 351.807813 
L 1127.154232 351.525565 
L 1128.262016 350.537699 
L 1129.3698 351.807813 
L 1130.477584 351.01752 
L 1131.585368 351.807813 
L 1226.854786 351.807813 
L 1227.96257 350.72116 
L 1229.070354 351.807813 
L 1242.363761 351.807813 
L 1243.471545 350.283676 
L 1244.579329 350.650598 
L 1245.687113 351.807813 
L 1258.980521 351.807813 
L 1260.088304 350.819947 
L 1261.196088 351.807813 
L 1265.627224 351.807813 
L 1266.735008 350.72116 
L 1267.842792 351.807813 
L 1289.998471 351.807813 
L 1291.106255 349.338147 
L 1292.214039 351.807813 
L 1304.399662 351.807813 
L 1305.507446 348.646641 
L 1306.61523 351.807813 
L 1307.723014 350.819947 
L 1308.830798 351.807813 
L 1308.830798 351.807813 
" clip-path="url(#pf3643c743d)" style="fill: none; stroke: #0000ff; stroke-width: 1.5; stroke-linecap: square"/>
   </g>
   <g id="line2d_17">
    <path d="M 1068.441684 350.375135 
L 1072.872819 350.35049 
L 1079.519523 350.386412 
L 1081.735091 350.448983 
L 1083.950659 350.471248 
L 1089.489578 350.555747 
L 1090.597362 350.652736 
L 1092.81293 350.608806 
L 1097.244066 350.691937 
L 1099.459634 350.825324 
L 1100.567418 350.72652 
L 1161.495534 351.73899 
L 1196.94462 351.802598 
L 1243.471545 351.778126 
L 1245.687113 351.583986 
L 1260.088304 351.729344 
L 1262.303872 351.670434 
L 1281.136199 351.740939 
L 1291.106255 351.775446 
L 1292.214039 351.586644 
L 1305.507446 351.723765 
L 1306.61523 351.485401 
L 1308.830798 351.456893 
L 1308.830798 351.456893 
" clip-path="url(#pf3643c743d)" style="fill: none; stroke: #ffa500; stroke-width: 1.5; stroke-linecap: square"/>
   </g>
   <g id="line2d_18">
    <path d="M 1309.938582 351.484076 
L 1311.046365 351.484076 
L 1312.154149 351.484076 
L 1313.261933 351.484076 
L 1314.369717 351.484076 
L 1315.477501 351.484076 
L 1316.585285 351.484076 
L 1317.693069 351.484076 
L 1318.800853 351.484076 
L 1319.908637 351.484076 
L 1321.016421 351.484076 
L 1322.124205 351.484076 
L 1323.231989 351.484076 
L 1324.339773 351.484076 
" clip-path="url(#pf3643c743d)" style="fill: none; stroke: #ff0000; stroke-width: 1.5; stroke-linecap: square"/>
   </g>
   <g id="patch_3">
    <path d="M 46.0125 368.3955 
L 46.0125 35.7555 
" style="fill: none; stroke: #000000; stroke-width: 0.8; stroke-linejoin: miter; stroke-linecap: square"/>
   </g>
   <g id="patch_4">
    <path d="M 1385.2125 368.3955 
L 1385.2125 35.7555 
" style="fill: none; stroke: #000000; stroke-width: 0.8; stroke-linejoin: miter; stroke-linecap: square"/>
   </g>
   <g id="patch_5">
    <path d="M 46.0125 368.3955 
L 1385.2125 368.3955 
" style="fill: none; stroke: #000000; stroke-width: 0.8; stroke-linejoin: miter; stroke-linecap: square"/>
   </g>
   <g id="patch_6">
    <path d="M 46.0125 35.7555 
L 1385.2125 35.7555 
" style="fill: none; stroke: #000000; stroke-width: 0.8; stroke-linejoin: miter; stroke-linecap: square"/>
   </g>
   <g id="text_16">
    <!-- Daily Confirmed Cases Forecasting - Uganda -->
    <g transform="translate(581.946563 16.318125)scale(0.12 -0.12)">
     <defs>
      <path id="DejaVuSans-44" d="M 1259 4147 
L 1259 519 
L 2022 519 
Q 2988 519 3436 956 
Q 3884 1394 3884 2338 
Q 3884 3275 3436 3711 
Q 2988 4147 2022 4147 
L 1259 4147 
z
M 628 4666 
L 1925 4666 
Q 3281 4666 3915 4102 
Q 4550 3538 4550 2338 
Q 4550 1131 3912 565 
Q 3275 0 1925 0 
L 628 0 
L 628 4666 
z
" transform="scale(0.015625)"/>
      <path id="DejaVuSans-61" d="M 2194 1759 
Q 1497 1759 1228 1600 
Q 959 1441 959 1056 
Q 959 750 1161 570 
Q 1363 391 1709 391 
Q 2188 391 2477 730 
Q 2766 1069 2766 1631 
L 2766 1759 
L 2194 1759 
z
M 3341 1997 
L 3341 0 
L 2766 0 
L 2766 531 
Q 2569 213 2275 61 
Q 1981 -91 1556 -91 
Q 1019 -91 701 211 
Q 384 513 384 1019 
Q 384 1609 779 1909 
Q 1175 2209 1959 2209 
L 2766 2209 
L 2766 2266 
Q 2766 2663 2505 2880 
Q 2244 3097 1772 3097 
Q 1472 3097 1187 3025 
Q 903 2953 641 2809 
L 641 3341 
Q 956 3463 1253 3523 
Q 1550 3584 1831 3584 
Q 2591 3584 2966 3190 
Q 3341 2797 3341 1997 
z
" transform="scale(0.015625)"/>
      <path id="DejaVuSans-69" d="M 603 3500 
L 1178 3500 
L 1178 0 
L 603 0 
L 603 3500 
z
M 603 4863 
L 1178 4863 
L 1178 4134 
L 603 4134 
L 603 4863 
z
" transform="scale(0.015625)"/>
      <path id="DejaVuSans-6c" d="M 603 4863 
L 1178 4863 
L 1178 0 
L 603 0 
L 603 4863 
z
" transform="scale(0.015625)"/>
      <path id="DejaVuSans-79" d="M 2059 -325 
Q 1816 -950 1584 -1140 
Q 1353 -1331 966 -1331 
L 506 -1331 
L 506 -850 
L 844 -850 
Q 1081 -850 1212 -737 
Q 1344 -625 1503 -206 
L 1606 56 
L 191 3500 
L 800 3500 
L 1894 763 
L 2988 3500 
L 3597 3500 
L 2059 -325 
z
" transform="scale(0.015625)"/>
      <path id="DejaVuSans-20" transform="scale(0.015625)"/>
      <path id="DejaVuSans-43" d="M 4122 4306 
L 4122 3641 
Q 3803 3938 3442 4084 
Q 3081 4231 2675 4231 
Q 1875 4231 1450 3742 
Q 1025 3253 1025 2328 
Q 1025 1406 1450 917 
Q 1875 428 2675 428 
Q 3081 428 3442 575 
Q 3803 722 4122 1019 
L 4122 359 
Q 3791 134 3420 21 
Q 3050 -91 2638 -91 
Q 1578 -91 968 557 
Q 359 1206 359 2328 
Q 359 3453 968 4101 
Q 1578 4750 2638 4750 
Q 3056 4750 3426 4639 
Q 3797 4528 4122 4306 
z
" transform="scale(0.015625)"/>
      <path id="DejaVuSans-6f" d="M 1959 3097 
Q 1497 3097 1228 2736 
Q 959 2375 959 1747 
Q 959 1119 1226 758 
Q 1494 397 1959 397 
Q 2419 397 2687 759 
Q 2956 1122 2956 1747 
Q 2956 2369 2687 2733 
Q 2419 3097 1959 3097 
z
M 1959 3584 
Q 2709 3584 3137 3096 
Q 3566 2609 3566 1747 
Q 3566 888 3137 398 
Q 2709 -91 1959 -91 
Q 1206 -91 779 398 
Q 353 888 353 1747 
Q 353 2609 779 3096 
Q 1206 3584 1959 3584 
z
" transform="scale(0.015625)"/>
      <path id="DejaVuSans-6e" d="M 3513 2113 
L 3513 0 
L 2938 0 
L 2938 2094 
Q 2938 2591 2744 2837 
Q 2550 3084 2163 3084 
Q 1697 3084 1428 2787 
Q 1159 2491 1159 1978 
L 1159 0 
L 581 0 
L 581 3500 
L 1159 3500 
L 1159 2956 
Q 1366 3272 1645 3428 
Q 1925 3584 2291 3584 
Q 2894 3584 3203 3211 
Q 3513 2838 3513 2113 
z
" transform="scale(0.015625)"/>
      <path id="DejaVuSans-66" d="M 2375 4863 
L 2375 4384 
L 1825 4384 
Q 1516 4384 1395 4259 
Q 1275 4134 1275 3809 
L 1275 3500 
L 2222 3500 
L 2222 3053 
L 1275 3053 
L 1275 0 
L 697 0 
L 697 3053 
L 147 3053 
L 147 3500 
L 697 3500 
L 697 3744 
Q 697 4328 969 4595 
Q 1241 4863 1831 4863 
L 2375 4863 
z
" transform="scale(0.015625)"/>
      <path id="DejaVuSans-72" d="M 2631 2963 
Q 2534 3019 2420 3045 
Q 2306 3072 2169 3072 
Q 1681 3072 1420 2755 
Q 1159 2438 1159 1844 
L 1159 0 
L 581 0 
L 581 3500 
L 1159 3500 
L 1159 2956 
Q 1341 3275 1631 3429 
Q 1922 3584 2338 3584 
Q 2397 3584 2469 3576 
Q 2541 3569 2628 3553 
L 2631 2963 
z
" transform="scale(0.015625)"/>
      <path id="DejaVuSans-6d" d="M 3328 2828 
Q 3544 3216 3844 3400 
Q 4144 3584 4550 3584 
Q 5097 3584 5394 3201 
Q 5691 2819 5691 2113 
L 5691 0 
L 5113 0 
L 5113 2094 
Q 5113 2597 4934 2840 
Q 4756 3084 4391 3084 
Q 3944 3084 3684 2787 
Q 3425 2491 3425 1978 
L 3425 0 
L 2847 0 
L 2847 2094 
Q 2847 2600 2669 2842 
Q 2491 3084 2119 3084 
Q 1678 3084 1418 2786 
Q 1159 2488 1159 1978 
L 1159 0 
L 581 0 
L 581 3500 
L 1159 3500 
L 1159 2956 
Q 1356 3278 1631 3431 
Q 1906 3584 2284 3584 
Q 2666 3584 2933 3390 
Q 3200 3197 3328 2828 
z
" transform="scale(0.015625)"/>
      <path id="DejaVuSans-65" d="M 3597 1894 
L 3597 1613 
L 953 1613 
Q 991 1019 1311 708 
Q 1631 397 2203 397 
Q 2534 397 2845 478 
Q 3156 559 3463 722 
L 3463 178 
Q 3153 47 2828 -22 
Q 2503 -91 2169 -91 
Q 1331 -91 842 396 
Q 353 884 353 1716 
Q 353 2575 817 3079 
Q 1281 3584 2069 3584 
Q 2775 3584 3186 3129 
Q 3597 2675 3597 1894 
z
M 3022 2063 
Q 3016 2534 2758 2815 
Q 2500 3097 2075 3097 
Q 1594 3097 1305 2825 
Q 1016 2553 972 2059 
L 3022 2063 
z
" transform="scale(0.015625)"/>
      <path id="DejaVuSans-64" d="M 2906 2969 
L 2906 4863 
L 3481 4863 
L 3481 0 
L 2906 0 
L 2906 525 
Q 2725 213 2448 61 
Q 2172 -91 1784 -91 
Q 1150 -91 751 415 
Q 353 922 353 1747 
Q 353 2572 751 3078 
Q 1150 3584 1784 3584 
Q 2172 3584 2448 3432 
Q 2725 3281 2906 2969 
z
M 947 1747 
Q 947 1113 1208 752 
Q 1469 391 1925 391 
Q 2381 391 2643 752 
Q 2906 1113 2906 1747 
Q 2906 2381 2643 2742 
Q 2381 3103 1925 3103 
Q 1469 3103 1208 2742 
Q 947 2381 947 1747 
z
" transform="scale(0.015625)"/>
      <path id="DejaVuSans-73" d="M 2834 3397 
L 2834 2853 
Q 2591 2978 2328 3040 
Q 2066 3103 1784 3103 
Q 1356 3103 1142 2972 
Q 928 2841 928 2578 
Q 928 2378 1081 2264 
Q 1234 2150 1697 2047 
L 1894 2003 
Q 2506 1872 2764 1633 
Q 3022 1394 3022 966 
Q 3022 478 2636 193 
Q 2250 -91 1575 -91 
Q 1294 -91 989 -36 
Q 684 19 347 128 
L 347 722 
Q 666 556 975 473 
Q 1284 391 1588 391 
Q 1994 391 2212 530 
Q 2431 669 2431 922 
Q 2431 1156 2273 1281 
Q 2116 1406 1581 1522 
L 1381 1569 
Q 847 1681 609 1914 
Q 372 2147 372 2553 
Q 372 3047 722 3315 
Q 1072 3584 1716 3584 
Q 2034 3584 2315 3537 
Q 2597 3491 2834 3397 
z
" transform="scale(0.015625)"/>
      <path id="DejaVuSans-46" d="M 628 4666 
L 3309 4666 
L 3309 4134 
L 1259 4134 
L 1259 2759 
L 3109 2759 
L 3109 2228 
L 1259 2228 
L 1259 0 
L 628 0 
L 628 4666 
z
" transform="scale(0.015625)"/>
      <path id="DejaVuSans-63" d="M 3122 3366 
L 3122 2828 
Q 2878 2963 2633 3030 
Q 2388 3097 2138 3097 
Q 1578 3097 1268 2742 
Q 959 2388 959 1747 
Q 959 1106 1268 751 
Q 1578 397 2138 397 
Q 2388 397 2633 464 
Q 2878 531 3122 666 
L 3122 134 
Q 2881 22 2623 -34 
Q 2366 -91 2075 -91 
Q 1284 -91 818 406 
Q 353 903 353 1747 
Q 353 2603 823 3093 
Q 1294 3584 2113 3584 
Q 2378 3584 2631 3529 
Q 2884 3475 3122 3366 
z
" transform="scale(0.015625)"/>
      <path id="DejaVuSans-74" d="M 1172 4494 
L 1172 3500 
L 2356 3500 
L 2356 3053 
L 1172 3053 
L 1172 1153 
Q 1172 725 1289 603 
Q 1406 481 1766 481 
L 2356 481 
L 2356 0 
L 1766 0 
Q 1100 0 847 248 
Q 594 497 594 1153 
L 594 3053 
L 172 3053 
L 172 3500 
L 594 3500 
L 594 4494 
L 1172 4494 
z
" transform="scale(0.015625)"/>
      <path id="DejaVuSans-67" d="M 2906 1791 
Q 2906 2416 2648 2759 
Q 2391 3103 1925 3103 
Q 1463 3103 1205 2759 
Q 947 2416 947 1791 
Q 947 1169 1205 825 
Q 1463 481 1925 481 
Q 2391 481 2648 825 
Q 2906 1169 2906 1791 
z
M 3481 434 
Q 3481 -459 3084 -895 
Q 2688 -1331 1869 -1331 
Q 1566 -1331 1297 -1286 
Q 1028 -1241 775 -1147 
L 775 -588 
Q 1028 -725 1275 -790 
Q 1522 -856 1778 -856 
Q 2344 -856 2625 -561 
Q 2906 -266 2906 331 
L 2906 616 
Q 2728 306 2450 153 
Q 2172 0 1784 0 
Q 1141 0 747 490 
Q 353 981 353 1791 
Q 353 2603 747 3093 
Q 1141 3584 1784 3584 
Q 2172 3584 2450 3431 
Q 2728 3278 2906 2969 
L 2906 3500 
L 3481 3500 
L 3481 434 
z
" transform="scale(0.015625)"/>
      <path id="DejaVuSans-55" d="M 556 4666 
L 1191 4666 
L 1191 1831 
Q 1191 1081 1462 751 
Q 1734 422 2344 422 
Q 2950 422 3222 751 
Q 3494 1081 3494 1831 
L 3494 4666 
L 4128 4666 
L 4128 1753 
Q 4128 841 3676 375 
Q 3225 -91 2344 -91 
Q 1459 -91 1007 375 
Q 556 841 556 1753 
L 556 4666 
z
" transform="scale(0.015625)"/>
     </defs>
     <use xlink:href="#DejaVuSans-44"/>
     <use xlink:href="#DejaVuSans-61" x="77.001953"/>
     <use xlink:href="#DejaVuSans-69" x="138.28125"/>
     <use xlink:href="#DejaVuSans-6c" x="166.064453"/>
     <use xlink:href="#DejaVuSans-79" x="193.847656"/>
     <use xlink:href="#DejaVuSans-20" x="253.027344"/>
     <use xlink:href="#DejaVuSans-43" x="284.814453"/>
     <use xlink:href="#DejaVuSans-6f" x="354.638672"/>
     <use xlink:href="#DejaVuSans-6e" x="415.820312"/>
     <use xlink:href="#DejaVuSans-66" x="479.199219"/>
     <use xlink:href="#DejaVuSans-69" x="514.404297"/>
     <use xlink:href="#DejaVuSans-72" x="542.1875"/>
     <use xlink:href="#DejaVuSans-6d" x="581.550781"/>
     <use xlink:href="#DejaVuSans-65" x="678.962891"/>
     <use xlink:href="#DejaVuSans-64" x="740.486328"/>
     <use xlink:href="#DejaVuSans-20" x="803.962891"/>
     <use xlink:href="#DejaVuSans-43" x="835.75"/>
     <use xlink:href="#DejaVuSans-61" x="905.574219"/>
     <use xlink:href="#DejaVuSans-73" x="966.853516"/>
     <use xlink:href="#DejaVuSans-65" x="1018.953125"/>
     <use xlink:href="#DejaVuSans-73" x="1080.476562"/>
     <use xlink:href="#DejaVuSans-20" x="1132.576172"/>
     <use xlink:href="#DejaVuSans-46" x="1164.363281"/>
     <use xlink:href="#DejaVuSans-6f" x="1218.257812"/>
     <use xlink:href="#DejaVuSans-72" x="1279.439453"/>
     <use xlink:href="#DejaVuSans-65" x="1318.302734"/>
     <use xlink:href="#DejaVuSans-63" x="1379.826172"/>
     <use xlink:href="#DejaVuSans-61" x="1434.806641"/>
     <use xlink:href="#DejaVuSans-73" x="1496.085938"/>
     <use xlink:href="#DejaVuSans-74" x="1548.185547"/>
     <use xlink:href="#DejaVuSans-69" x="1587.394531"/>
     <use xlink:href="#DejaVuSans-6e" x="1615.177734"/>
     <use xlink:href="#DejaVuSans-67" x="1678.556641"/>
     <use xlink:href="#DejaVuSans-20" x="1742.033203"/>
     <use xlink:href="#DejaVuSans-2d" x="1773.820312"/>
     <use xlink:href="#DejaVuSans-20" x="1809.904297"/>
     <use xlink:href="#DejaVuSans-55" x="1841.691406"/>
     <use xlink:href="#DejaVuSans-67" x="1914.884766"/>
     <use xlink:href="#DejaVuSans-61" x="1978.361328"/>
     <use xlink:href="#DejaVuSans-6e" x="2039.640625"/>
     <use xlink:href="#DejaVuSans-64" x="2103.019531"/>
     <use xlink:href="#DejaVuSans-61" x="2166.496094"/>
    </g>
    <!-- ARIMA (0, 1, 1)x(0, 0, 0, 7) (R2 = 0.404653) -->
    <g transform="translate(583.628438 29.7555)scale(0.12 -0.12)">
     <defs>
      <path id="DejaVuSans-41" d="M 2188 4044 
L 1331 1722 
L 3047 1722 
L 2188 4044 
z
M 1831 4666 
L 2547 4666 
L 4325 0 
L 3669 0 
L 3244 1197 
L 1141 1197 
L 716 0 
L 50 0 
L 1831 4666 
z
" transform="scale(0.015625)"/>
      <path id="DejaVuSans-52" d="M 2841 2188 
Q 3044 2119 3236 1894 
Q 3428 1669 3622 1275 
L 4263 0 
L 3584 0 
L 2988 1197 
Q 2756 1666 2539 1819 
Q 2322 1972 1947 1972 
L 1259 1972 
L 1259 0 
L 628 0 
L 628 4666 
L 2053 4666 
Q 2853 4666 3247 4331 
Q 3641 3997 3641 3322 
Q 3641 2881 3436 2590 
Q 3231 2300 2841 2188 
z
M 1259 4147 
L 1259 2491 
L 2053 2491 
Q 2509 2491 2742 2702 
Q 2975 2913 2975 3322 
Q 2975 3731 2742 3939 
Q 2509 4147 2053 4147 
L 1259 4147 
z
" transform="scale(0.015625)"/>
      <path id="DejaVuSans-49" d="M 628 4666 
L 1259 4666 
L 1259 0 
L 628 0 
L 628 4666 
z
" transform="scale(0.015625)"/>
      <path id="DejaVuSans-4d" d="M 628 4666 
L 1569 4666 
L 2759 1491 
L 3956 4666 
L 4897 4666 
L 4897 0 
L 4281 0 
L 4281 4097 
L 3078 897 
L 2444 897 
L 1241 4097 
L 1241 0 
L 628 0 
L 628 4666 
z
" transform="scale(0.015625)"/>
      <path id="DejaVuSans-28" d="M 1984 4856 
Q 1566 4138 1362 3434 
Q 1159 2731 1159 2009 
Q 1159 1288 1364 580 
Q 1569 -128 1984 -844 
L 1484 -844 
Q 1016 -109 783 600 
Q 550 1309 550 2009 
Q 550 2706 781 3412 
Q 1013 4119 1484 4856 
L 1984 4856 
z
" transform="scale(0.015625)"/>
      <path id="DejaVuSans-2c" d="M 750 794 
L 1409 794 
L 1409 256 
L 897 -744 
L 494 -744 
L 750 256 
L 750 794 
z
" transform="scale(0.015625)"/>
      <path id="DejaVuSans-29" d="M 513 4856 
L 1013 4856 
Q 1481 4119 1714 3412 
Q 1947 2706 1947 2009 
Q 1947 1309 1714 600 
Q 1481 -109 1013 -844 
L 513 -844 
Q 928 -128 1133 580 
Q 1338 1288 1338 2009 
Q 1338 2731 1133 3434 
Q 928 4138 513 4856 
z
" transform="scale(0.015625)"/>
      <path id="DejaVuSans-78" d="M 3513 3500 
L 2247 1797 
L 3578 0 
L 2900 0 
L 1881 1375 
L 863 0 
L 184 0 
L 1544 1831 
L 300 3500 
L 978 3500 
L 1906 2253 
L 2834 3500 
L 3513 3500 
z
" transform="scale(0.015625)"/>
      <path id="DejaVuSans-37" d="M 525 4666 
L 3525 4666 
L 3525 4397 
L 1831 0 
L 1172 0 
L 2766 4134 
L 525 4134 
L 525 4666 
z
" transform="scale(0.015625)"/>
      <path id="DejaVuSans-3d" d="M 678 2906 
L 4684 2906 
L 4684 2381 
L 678 2381 
L 678 2906 
z
M 678 1631 
L 4684 1631 
L 4684 1100 
L 678 1100 
L 678 1631 
z
" transform="scale(0.015625)"/>
      <path id="DejaVuSans-2e" d="M 684 794 
L 1344 794 
L 1344 0 
L 684 0 
L 684 794 
z
" transform="scale(0.015625)"/>
      <path id="DejaVuSans-34" d="M 2419 4116 
L 825 1625 
L 2419 1625 
L 2419 4116 
z
M 2253 4666 
L 3047 4666 
L 3047 1625 
L 3713 1625 
L 3713 1100 
L 3047 1100 
L 3047 0 
L 2419 0 
L 2419 1100 
L 313 1100 
L 313 1709 
L 2253 4666 
z
" transform="scale(0.015625)"/>
      <path id="DejaVuSans-36" d="M 2113 2584 
Q 1688 2584 1439 2293 
Q 1191 2003 1191 1497 
Q 1191 994 1439 701 
Q 1688 409 2113 409 
Q 2538 409 2786 701 
Q 3034 994 3034 1497 
Q 3034 2003 2786 2293 
Q 2538 2584 2113 2584 
z
M 3366 4563 
L 3366 3988 
Q 3128 4100 2886 4159 
Q 2644 4219 2406 4219 
Q 1781 4219 1451 3797 
Q 1122 3375 1075 2522 
Q 1259 2794 1537 2939 
Q 1816 3084 2150 3084 
Q 2853 3084 3261 2657 
Q 3669 2231 3669 1497 
Q 3669 778 3244 343 
Q 2819 -91 2113 -91 
Q 1303 -91 875 529 
Q 447 1150 447 2328 
Q 447 3434 972 4092 
Q 1497 4750 2381 4750 
Q 2619 4750 2861 4703 
Q 3103 4656 3366 4563 
z
" transform="scale(0.015625)"/>
     </defs>
     <use xlink:href="#DejaVuSans-41"/>
     <use xlink:href="#DejaVuSans-52" x="68.408203"/>
     <use xlink:href="#DejaVuSans-49" x="137.890625"/>
     <use xlink:href="#DejaVuSans-4d" x="167.382812"/>
     <use xlink:href="#DejaVuSans-41" x="253.662109"/>
     <use xlink:href="#DejaVuSans-20" x="322.070312"/>
     <use xlink:href="#DejaVuSans-28" x="353.857422"/>
     <use xlink:href="#DejaVuSans-30" x="392.871094"/>
     <use xlink:href="#DejaVuSans-2c" x="456.494141"/>
     <use xlink:href="#DejaVuSans-20" x="488.28125"/>
     <use xlink:href="#DejaVuSans-31" x="520.068359"/>
     <use xlink:href="#DejaVuSans-2c" x="583.691406"/>
     <use xlink:href="#DejaVuSans-20" x="615.478516"/>
     <use xlink:href="#DejaVuSans-31" x="647.265625"/>
     <use xlink:href="#DejaVuSans-29" x="710.888672"/>
     <use xlink:href="#DejaVuSans-78" x="749.902344"/>
     <use xlink:href="#DejaVuSans-28" x="809.082031"/>
     <use xlink:href="#DejaVuSans-30" x="848.095703"/>
     <use xlink:href="#DejaVuSans-2c" x="911.71875"/>
     <use xlink:href="#DejaVuSans-20" x="943.505859"/>
     <use xlink:href="#DejaVuSans-30" x="975.292969"/>
     <use xlink:href="#DejaVuSans-2c" x="1038.916016"/>
     <use xlink:href="#DejaVuSans-20" x="1070.703125"/>
     <use xlink:href="#DejaVuSans-30" x="1102.490234"/>
     <use xlink:href="#DejaVuSans-2c" x="1166.113281"/>
     <use xlink:href="#DejaVuSans-20" x="1197.900391"/>
     <use xlink:href="#DejaVuSans-37" x="1229.6875"/>
     <use xlink:href="#DejaVuSans-29" x="1293.310547"/>
     <use xlink:href="#DejaVuSans-20" x="1332.324219"/>
     <use xlink:href="#DejaVuSans-28" x="1364.111328"/>
     <use xlink:href="#DejaVuSans-52" x="1403.125"/>
     <use xlink:href="#DejaVuSans-32" x="1472.607422"/>
     <use xlink:href="#DejaVuSans-20" x="1536.230469"/>
     <use xlink:href="#DejaVuSans-3d" x="1568.017578"/>
     <use xlink:href="#DejaVuSans-20" x="1651.806641"/>
     <use xlink:href="#DejaVuSans-30" x="1683.59375"/>
     <use xlink:href="#DejaVuSans-2e" x="1747.216797"/>
     <use xlink:href="#DejaVuSans-34" x="1779.003906"/>
     <use xlink:href="#DejaVuSans-30" x="1842.626953"/>
     <use xlink:href="#DejaVuSans-34" x="1906.25"/>
     <use xlink:href="#DejaVuSans-36" x="1969.873047"/>
     <use xlink:href="#DejaVuSans-35" x="2033.496094"/>
     <use xlink:href="#DejaVuSans-33" x="2097.119141"/>
     <use xlink:href="#DejaVuSans-29" x="2160.742188"/>
    </g>
   </g>
   <g id="legend_1">
    <g id="patch_7">
     <path d="M 1281.132812 87.789875 
L 1378.2125 87.789875 
Q 1380.2125 87.789875 1380.2125 85.789875 
L 1380.2125 42.7555 
Q 1380.2125 40.7555 1378.2125 40.7555 
L 1281.132812 40.7555 
Q 1279.132812 40.7555 1279.132812 42.7555 
L 1279.132812 85.789875 
Q 1279.132812 87.789875 1281.132812 87.789875 
z
" style="fill: #ffffff; opacity: 0.8; stroke: #cccccc; stroke-linejoin: miter"/>
    </g>
    <g id="line2d_19">
     <path d="M 1283.132812 48.853937 
L 1293.132812 48.853937 
L 1303.132812 48.853937 
" style="fill: none; stroke: #0000ff; stroke-width: 1.5; stroke-linecap: square"/>
    </g>
    <g id="text_17">
     <!-- Actual Value -->
     <g transform="translate(1311.132812 52.353937)scale(0.1 -0.1)">
      <defs>
       <path id="DejaVuSans-75" d="M 544 1381 
L 544 3500 
L 1119 3500 
L 1119 1403 
Q 1119 906 1312 657 
Q 1506 409 1894 409 
Q 2359 409 2629 706 
Q 2900 1003 2900 1516 
L 2900 3500 
L 3475 3500 
L 3475 0 
L 2900 0 
L 2900 538 
Q 2691 219 2414 64 
Q 2138 -91 1772 -91 
Q 1169 -91 856 284 
Q 544 659 544 1381 
z
M 1991 3584 
L 1991 3584 
z
" transform="scale(0.015625)"/>
       <path id="DejaVuSans-56" d="M 1831 0 
L 50 4666 
L 709 4666 
L 2188 738 
L 3669 4666 
L 4325 4666 
L 2547 0 
L 1831 0 
z
" transform="scale(0.015625)"/>
      </defs>
      <use xlink:href="#DejaVuSans-41"/>
      <use xlink:href="#DejaVuSans-63" x="66.658203"/>
      <use xlink:href="#DejaVuSans-74" x="121.638672"/>
      <use xlink:href="#DejaVuSans-75" x="160.847656"/>
      <use xlink:href="#DejaVuSans-61" x="224.226562"/>
      <use xlink:href="#DejaVuSans-6c" x="285.505859"/>
      <use xlink:href="#DejaVuSans-20" x="313.289062"/>
      <use xlink:href="#DejaVuSans-56" x="345.076172"/>
      <use xlink:href="#DejaVuSans-61" x="405.734375"/>
      <use xlink:href="#DejaVuSans-6c" x="467.013672"/>
      <use xlink:href="#DejaVuSans-75" x="494.796875"/>
      <use xlink:href="#DejaVuSans-65" x="558.175781"/>
     </g>
    </g>
    <g id="line2d_20">
     <path d="M 1283.132812 63.532062 
L 1293.132812 63.532062 
L 1303.132812 63.532062 
" style="fill: none; stroke: #ffa500; stroke-width: 1.5; stroke-linecap: square"/>
    </g>
    <g id="text_18">
     <!-- Check Value -->
     <g transform="translate(1311.132812 67.032062)scale(0.1 -0.1)">
      <defs>
       <path id="DejaVuSans-68" d="M 3513 2113 
L 3513 0 
L 2938 0 
L 2938 2094 
Q 2938 2591 2744 2837 
Q 2550 3084 2163 3084 
Q 1697 3084 1428 2787 
Q 1159 2491 1159 1978 
L 1159 0 
L 581 0 
L 581 4863 
L 1159 4863 
L 1159 2956 
Q 1366 3272 1645 3428 
Q 1925 3584 2291 3584 
Q 2894 3584 3203 3211 
Q 3513 2838 3513 2113 
z
" transform="scale(0.015625)"/>
       <path id="DejaVuSans-6b" d="M 581 4863 
L 1159 4863 
L 1159 1991 
L 2875 3500 
L 3609 3500 
L 1753 1863 
L 3688 0 
L 2938 0 
L 1159 1709 
L 1159 0 
L 581 0 
L 581 4863 
z
" transform="scale(0.015625)"/>
      </defs>
      <use xlink:href="#DejaVuSans-43"/>
      <use xlink:href="#DejaVuSans-68" x="69.824219"/>
      <use xlink:href="#DejaVuSans-65" x="133.203125"/>
      <use xlink:href="#DejaVuSans-63" x="194.726562"/>
      <use xlink:href="#DejaVuSans-6b" x="249.707031"/>
      <use xlink:href="#DejaVuSans-20" x="307.617188"/>
      <use xlink:href="#DejaVuSans-56" x="339.404297"/>
      <use xlink:href="#DejaVuSans-61" x="400.0625"/>
      <use xlink:href="#DejaVuSans-6c" x="461.341797"/>
      <use xlink:href="#DejaVuSans-75" x="489.125"/>
      <use xlink:href="#DejaVuSans-65" x="552.503906"/>
     </g>
    </g>
    <g id="line2d_21">
     <path d="M 1283.132812 78.210187 
L 1293.132812 78.210187 
L 1303.132812 78.210187 
" style="fill: none; stroke: #ff0000; stroke-width: 1.5; stroke-linecap: square"/>
    </g>
    <g id="text_19">
     <!-- Predict Value -->
     <g transform="translate(1311.132812 81.710187)scale(0.1 -0.1)">
      <defs>
       <path id="DejaVuSans-50" d="M 1259 4147 
L 1259 2394 
L 2053 2394 
Q 2494 2394 2734 2622 
Q 2975 2850 2975 3272 
Q 2975 3691 2734 3919 
Q 2494 4147 2053 4147 
L 1259 4147 
z
M 628 4666 
L 2053 4666 
Q 2838 4666 3239 4311 
Q 3641 3956 3641 3272 
Q 3641 2581 3239 2228 
Q 2838 1875 2053 1875 
L 1259 1875 
L 1259 0 
L 628 0 
L 628 4666 
z
" transform="scale(0.015625)"/>
      </defs>
      <use xlink:href="#DejaVuSans-50"/>
      <use xlink:href="#DejaVuSans-72" x="58.552734"/>
      <use xlink:href="#DejaVuSans-65" x="97.416016"/>
      <use xlink:href="#DejaVuSans-64" x="158.939453"/>
      <use xlink:href="#DejaVuSans-69" x="222.416016"/>
      <use xlink:href="#DejaVuSans-63" x="250.199219"/>
      <use xlink:href="#DejaVuSans-74" x="305.179688"/>
      <use xlink:href="#DejaVuSans-20" x="344.388672"/>
      <use xlink:href="#DejaVuSans-56" x="376.175781"/>
      <use xlink:href="#DejaVuSans-61" x="436.833984"/>
      <use xlink:href="#DejaVuSans-6c" x="498.113281"/>
      <use xlink:href="#DejaVuSans-75" x="525.896484"/>
      <use xlink:href="#DejaVuSans-65" x="589.275391"/>
     </g>
    </g>
   </g>
  </g>
 </g>
 <defs>
  <clipPath id="pf3643c743d">
   <rect x="46.0125" y="35.7555" width="1339.2" height="332.64"/>
  </clipPath>
 </defs>
</svg>
