<?xml version="1.0" encoding="utf-8" standalone="no"?>
<!DOCTYPE svg PUBLIC "-//W3C//DTD SVG 1.1//EN"
  "http://www.w3.org/Graphics/SVG/1.1/DTD/svg11.dtd">
<svg xmlns:xlink="http://www.w3.org/1999/xlink" width="1386.05pt" height="392.273625pt" viewBox="0 0 1386.05 392.273625" xmlns="http://www.w3.org/2000/svg" version="1.1">
 <metadata>
  <rdf:RDF xmlns:dc="http://purl.org/dc/elements/1.1/" xmlns:cc="http://creativecommons.org/ns#" xmlns:rdf="http://www.w3.org/1999/02/22-rdf-syntax-ns#">
   <cc:Work>
    <dc:type rdf:resource="http://purl.org/dc/dcmitype/StillImage"/>
    <dc:date>2022-07-25T18:59:52.640239</dc:date>
    <dc:format>image/svg+xml</dc:format>
    <dc:creator>
     <cc:Agent>
      <dc:title>Matplotlib v3.5.1, https://matplotlib.org/</dc:title>
     </cc:Agent>
    </dc:creator>
   </cc:Work>
  </rdf:RDF>
 </metadata>
 <defs>
  <style type="text/css">*{stroke-linejoin: round; stroke-linecap: butt}</style>
 </defs>
 <g id="figure_1">
  <g id="patch_1">
   <path d="M 0 392.273625 
L 1386.05 392.273625 
L 1386.05 0 
L 0 0 
z
" style="fill: #ffffff"/>
  </g>
  <g id="axes_1">
   <g id="patch_2">
    <path d="M 39.65 368.3955 
L 1378.85 368.3955 
L 1378.85 35.7555 
L 39.65 35.7555 
z
" style="fill: #ffffff"/>
   </g>
   <g id="matplotlib.axis_1">
    <g id="xtick_1">
     <g id="line2d_1">
      <defs>
       <path id="m9d955c5900" d="M 0 0 
L 0 3.5 
" style="stroke: #000000; stroke-width: 0.8"/>
      </defs>
      <g>
       <use xlink:href="#m9d955c5900" x="71.629523" y="368.3955" style="stroke: #000000; stroke-width: 0.8"/>
      </g>
     </g>
     <g id="text_1">
      <!-- 2020-01 -->
      <g transform="translate(50.738117 382.993937)scale(0.1 -0.1)">
       <defs>
        <path id="DejaVuSans-32" d="M 1228 531 
L 3431 531 
L 3431 0 
L 469 0 
L 469 531 
Q 828 903 1448 1529 
Q 2069 2156 2228 2338 
Q 2531 2678 2651 2914 
Q 2772 3150 2772 3378 
Q 2772 3750 2511 3984 
Q 2250 4219 1831 4219 
Q 1534 4219 1204 4116 
Q 875 4013 500 3803 
L 500 4441 
Q 881 4594 1212 4672 
Q 1544 4750 1819 4750 
Q 2544 4750 2975 4387 
Q 3406 4025 3406 3419 
Q 3406 3131 3298 2873 
Q 3191 2616 2906 2266 
Q 2828 2175 2409 1742 
Q 1991 1309 1228 531 
z
" transform="scale(0.015625)"/>
        <path id="DejaVuSans-30" d="M 2034 4250 
Q 1547 4250 1301 3770 
Q 1056 3291 1056 2328 
Q 1056 1369 1301 889 
Q 1547 409 2034 409 
Q 2525 409 2770 889 
Q 3016 1369 3016 2328 
Q 3016 3291 2770 3770 
Q 2525 4250 2034 4250 
z
M 2034 4750 
Q 2819 4750 3233 4129 
Q 3647 3509 3647 2328 
Q 3647 1150 3233 529 
Q 2819 -91 2034 -91 
Q 1250 -91 836 529 
Q 422 1150 422 2328 
Q 422 3509 836 4129 
Q 1250 4750 2034 4750 
z
" transform="scale(0.015625)"/>
        <path id="DejaVuSans-2d" d="M 313 2009 
L 1997 2009 
L 1997 1497 
L 313 1497 
L 313 2009 
z
" transform="scale(0.015625)"/>
        <path id="DejaVuSans-31" d="M 794 531 
L 1825 531 
L 1825 4091 
L 703 3866 
L 703 4441 
L 1819 4666 
L 2450 4666 
L 2450 531 
L 3481 531 
L 3481 0 
L 794 0 
L 794 531 
z
" transform="scale(0.015625)"/>
       </defs>
       <use xlink:href="#DejaVuSans-32"/>
       <use xlink:href="#DejaVuSans-30" x="63.623047"/>
       <use xlink:href="#DejaVuSans-32" x="127.246094"/>
       <use xlink:href="#DejaVuSans-30" x="190.869141"/>
       <use xlink:href="#DejaVuSans-2d" x="254.492188"/>
       <use xlink:href="#DejaVuSans-30" x="290.576172"/>
       <use xlink:href="#DejaVuSans-31" x="354.199219"/>
      </g>
     </g>
    </g>
    <g id="xtick_2">
     <g id="line2d_2">
      <g>
       <use xlink:href="#m9d955c5900" x="191.142321" y="368.3955" style="stroke: #000000; stroke-width: 0.8"/>
      </g>
     </g>
     <g id="text_2">
      <!-- 2020-04 -->
      <g transform="translate(170.250915 382.993937)scale(0.1 -0.1)">
       <defs>
        <path id="DejaVuSans-34" d="M 2419 4116 
L 825 1625 
L 2419 1625 
L 2419 4116 
z
M 2253 4666 
L 3047 4666 
L 3047 1625 
L 3713 1625 
L 3713 1100 
L 3047 1100 
L 3047 0 
L 2419 0 
L 2419 1100 
L 313 1100 
L 313 1709 
L 2253 4666 
z
" transform="scale(0.015625)"/>
       </defs>
       <use xlink:href="#DejaVuSans-32"/>
       <use xlink:href="#DejaVuSans-30" x="63.623047"/>
       <use xlink:href="#DejaVuSans-32" x="127.246094"/>
       <use xlink:href="#DejaVuSans-30" x="190.869141"/>
       <use xlink:href="#DejaVuSans-2d" x="254.492188"/>
       <use xlink:href="#DejaVuSans-30" x="290.576172"/>
       <use xlink:href="#DejaVuSans-34" x="354.199219"/>
      </g>
     </g>
    </g>
    <g id="xtick_3">
     <g id="line2d_3">
      <g>
       <use xlink:href="#m9d955c5900" x="310.655119" y="368.3955" style="stroke: #000000; stroke-width: 0.8"/>
      </g>
     </g>
     <g id="text_3">
      <!-- 2020-07 -->
      <g transform="translate(289.763713 382.993937)scale(0.1 -0.1)">
       <defs>
        <path id="DejaVuSans-37" d="M 525 4666 
L 3525 4666 
L 3525 4397 
L 1831 0 
L 1172 0 
L 2766 4134 
L 525 4134 
L 525 4666 
z
" transform="scale(0.015625)"/>
       </defs>
       <use xlink:href="#DejaVuSans-32"/>
       <use xlink:href="#DejaVuSans-30" x="63.623047"/>
       <use xlink:href="#DejaVuSans-32" x="127.246094"/>
       <use xlink:href="#DejaVuSans-30" x="190.869141"/>
       <use xlink:href="#DejaVuSans-2d" x="254.492188"/>
       <use xlink:href="#DejaVuSans-30" x="290.576172"/>
       <use xlink:href="#DejaVuSans-37" x="354.199219"/>
      </g>
     </g>
    </g>
    <g id="xtick_4">
     <g id="line2d_4">
      <g>
       <use xlink:href="#m9d955c5900" x="431.481244" y="368.3955" style="stroke: #000000; stroke-width: 0.8"/>
      </g>
     </g>
     <g id="text_4">
      <!-- 2020-10 -->
      <g transform="translate(410.589838 382.993937)scale(0.1 -0.1)">
       <use xlink:href="#DejaVuSans-32"/>
       <use xlink:href="#DejaVuSans-30" x="63.623047"/>
       <use xlink:href="#DejaVuSans-32" x="127.246094"/>
       <use xlink:href="#DejaVuSans-30" x="190.869141"/>
       <use xlink:href="#DejaVuSans-2d" x="254.492188"/>
       <use xlink:href="#DejaVuSans-31" x="290.576172"/>
       <use xlink:href="#DejaVuSans-30" x="354.199219"/>
      </g>
     </g>
    </g>
    <g id="xtick_5">
     <g id="line2d_5">
      <g>
       <use xlink:href="#m9d955c5900" x="552.30737" y="368.3955" style="stroke: #000000; stroke-width: 0.8"/>
      </g>
     </g>
     <g id="text_5">
      <!-- 2021-01 -->
      <g transform="translate(531.415964 382.993937)scale(0.1 -0.1)">
       <use xlink:href="#DejaVuSans-32"/>
       <use xlink:href="#DejaVuSans-30" x="63.623047"/>
       <use xlink:href="#DejaVuSans-32" x="127.246094"/>
       <use xlink:href="#DejaVuSans-31" x="190.869141"/>
       <use xlink:href="#DejaVuSans-2d" x="254.492188"/>
       <use xlink:href="#DejaVuSans-30" x="290.576172"/>
       <use xlink:href="#DejaVuSans-31" x="354.199219"/>
      </g>
     </g>
    </g>
    <g id="xtick_6">
     <g id="line2d_6">
      <g>
       <use xlink:href="#m9d955c5900" x="670.50684" y="368.3955" style="stroke: #000000; stroke-width: 0.8"/>
      </g>
     </g>
     <g id="text_6">
      <!-- 2021-04 -->
      <g transform="translate(649.615434 382.993937)scale(0.1 -0.1)">
       <use xlink:href="#DejaVuSans-32"/>
       <use xlink:href="#DejaVuSans-30" x="63.623047"/>
       <use xlink:href="#DejaVuSans-32" x="127.246094"/>
       <use xlink:href="#DejaVuSans-31" x="190.869141"/>
       <use xlink:href="#DejaVuSans-2d" x="254.492188"/>
       <use xlink:href="#DejaVuSans-30" x="290.576172"/>
       <use xlink:href="#DejaVuSans-34" x="354.199219"/>
      </g>
     </g>
    </g>
    <g id="xtick_7">
     <g id="line2d_7">
      <g>
       <use xlink:href="#m9d955c5900" x="790.019638" y="368.3955" style="stroke: #000000; stroke-width: 0.8"/>
      </g>
     </g>
     <g id="text_7">
      <!-- 2021-07 -->
      <g transform="translate(769.128232 382.993937)scale(0.1 -0.1)">
       <use xlink:href="#DejaVuSans-32"/>
       <use xlink:href="#DejaVuSans-30" x="63.623047"/>
       <use xlink:href="#DejaVuSans-32" x="127.246094"/>
       <use xlink:href="#DejaVuSans-31" x="190.869141"/>
       <use xlink:href="#DejaVuSans-2d" x="254.492188"/>
       <use xlink:href="#DejaVuSans-30" x="290.576172"/>
       <use xlink:href="#DejaVuSans-37" x="354.199219"/>
      </g>
     </g>
    </g>
    <g id="xtick_8">
     <g id="line2d_8">
      <g>
       <use xlink:href="#m9d955c5900" x="910.845763" y="368.3955" style="stroke: #000000; stroke-width: 0.8"/>
      </g>
     </g>
     <g id="text_8">
      <!-- 2021-10 -->
      <g transform="translate(889.954357 382.993937)scale(0.1 -0.1)">
       <use xlink:href="#DejaVuSans-32"/>
       <use xlink:href="#DejaVuSans-30" x="63.623047"/>
       <use xlink:href="#DejaVuSans-32" x="127.246094"/>
       <use xlink:href="#DejaVuSans-31" x="190.869141"/>
       <use xlink:href="#DejaVuSans-2d" x="254.492188"/>
       <use xlink:href="#DejaVuSans-31" x="290.576172"/>
       <use xlink:href="#DejaVuSans-30" x="354.199219"/>
      </g>
     </g>
    </g>
    <g id="xtick_9">
     <g id="line2d_9">
      <g>
       <use xlink:href="#m9d955c5900" x="1031.671889" y="368.3955" style="stroke: #000000; stroke-width: 0.8"/>
      </g>
     </g>
     <g id="text_9">
      <!-- 2022-01 -->
      <g transform="translate(1010.780483 382.993937)scale(0.1 -0.1)">
       <use xlink:href="#DejaVuSans-32"/>
       <use xlink:href="#DejaVuSans-30" x="63.623047"/>
       <use xlink:href="#DejaVuSans-32" x="127.246094"/>
       <use xlink:href="#DejaVuSans-32" x="190.869141"/>
       <use xlink:href="#DejaVuSans-2d" x="254.492188"/>
       <use xlink:href="#DejaVuSans-30" x="290.576172"/>
       <use xlink:href="#DejaVuSans-31" x="354.199219"/>
      </g>
     </g>
    </g>
    <g id="xtick_10">
     <g id="line2d_10">
      <g>
       <use xlink:href="#m9d955c5900" x="1149.871359" y="368.3955" style="stroke: #000000; stroke-width: 0.8"/>
      </g>
     </g>
     <g id="text_10">
      <!-- 2022-04 -->
      <g transform="translate(1128.979953 382.993937)scale(0.1 -0.1)">
       <use xlink:href="#DejaVuSans-32"/>
       <use xlink:href="#DejaVuSans-30" x="63.623047"/>
       <use xlink:href="#DejaVuSans-32" x="127.246094"/>
       <use xlink:href="#DejaVuSans-32" x="190.869141"/>
       <use xlink:href="#DejaVuSans-2d" x="254.492188"/>
       <use xlink:href="#DejaVuSans-30" x="290.576172"/>
       <use xlink:href="#DejaVuSans-34" x="354.199219"/>
      </g>
     </g>
    </g>
    <g id="xtick_11">
     <g id="line2d_11">
      <g>
       <use xlink:href="#m9d955c5900" x="1269.384157" y="368.3955" style="stroke: #000000; stroke-width: 0.8"/>
      </g>
     </g>
     <g id="text_11">
      <!-- 2022-07 -->
      <g transform="translate(1248.492751 382.993937)scale(0.1 -0.1)">
       <use xlink:href="#DejaVuSans-32"/>
       <use xlink:href="#DejaVuSans-30" x="63.623047"/>
       <use xlink:href="#DejaVuSans-32" x="127.246094"/>
       <use xlink:href="#DejaVuSans-32" x="190.869141"/>
       <use xlink:href="#DejaVuSans-2d" x="254.492188"/>
       <use xlink:href="#DejaVuSans-30" x="290.576172"/>
       <use xlink:href="#DejaVuSans-37" x="354.199219"/>
      </g>
     </g>
    </g>
   </g>
   <g id="matplotlib.axis_2">
    <g id="ytick_1">
     <g id="line2d_12">
      <defs>
       <path id="m9ecc774b4f" d="M 0 0 
L -3.5 0 
" style="stroke: #000000; stroke-width: 0.8"/>
      </defs>
      <g>
       <use xlink:href="#m9ecc774b4f" x="39.65" y="334.973184" style="stroke: #000000; stroke-width: 0.8"/>
      </g>
     </g>
     <g id="text_12">
      <!-- 0 -->
      <g transform="translate(26.2875 338.772403)scale(0.1 -0.1)">
       <use xlink:href="#DejaVuSans-30"/>
      </g>
     </g>
    </g>
    <g id="ytick_2">
     <g id="line2d_13">
      <g>
       <use xlink:href="#m9ecc774b4f" x="39.65" y="293.877034" style="stroke: #000000; stroke-width: 0.8"/>
      </g>
     </g>
     <g id="text_13">
      <!-- 1000 -->
      <g transform="translate(7.2 297.676253)scale(0.1 -0.1)">
       <use xlink:href="#DejaVuSans-31"/>
       <use xlink:href="#DejaVuSans-30" x="63.623047"/>
       <use xlink:href="#DejaVuSans-30" x="127.246094"/>
       <use xlink:href="#DejaVuSans-30" x="190.869141"/>
      </g>
     </g>
    </g>
    <g id="ytick_3">
     <g id="line2d_14">
      <g>
       <use xlink:href="#m9ecc774b4f" x="39.65" y="252.780884" style="stroke: #000000; stroke-width: 0.8"/>
      </g>
     </g>
     <g id="text_14">
      <!-- 2000 -->
      <g transform="translate(7.2 256.580103)scale(0.1 -0.1)">
       <use xlink:href="#DejaVuSans-32"/>
       <use xlink:href="#DejaVuSans-30" x="63.623047"/>
       <use xlink:href="#DejaVuSans-30" x="127.246094"/>
       <use xlink:href="#DejaVuSans-30" x="190.869141"/>
      </g>
     </g>
    </g>
    <g id="ytick_4">
     <g id="line2d_15">
      <g>
       <use xlink:href="#m9ecc774b4f" x="39.65" y="211.684734" style="stroke: #000000; stroke-width: 0.8"/>
      </g>
     </g>
     <g id="text_15">
      <!-- 3000 -->
      <g transform="translate(7.2 215.483953)scale(0.1 -0.1)">
       <defs>
        <path id="DejaVuSans-33" d="M 2597 2516 
Q 3050 2419 3304 2112 
Q 3559 1806 3559 1356 
Q 3559 666 3084 287 
Q 2609 -91 1734 -91 
Q 1441 -91 1130 -33 
Q 819 25 488 141 
L 488 750 
Q 750 597 1062 519 
Q 1375 441 1716 441 
Q 2309 441 2620 675 
Q 2931 909 2931 1356 
Q 2931 1769 2642 2001 
Q 2353 2234 1838 2234 
L 1294 2234 
L 1294 2753 
L 1863 2753 
Q 2328 2753 2575 2939 
Q 2822 3125 2822 3475 
Q 2822 3834 2567 4026 
Q 2313 4219 1838 4219 
Q 1578 4219 1281 4162 
Q 984 4106 628 3988 
L 628 4550 
Q 988 4650 1302 4700 
Q 1616 4750 1894 4750 
Q 2613 4750 3031 4423 
Q 3450 4097 3450 3541 
Q 3450 3153 3228 2886 
Q 3006 2619 2597 2516 
z
" transform="scale(0.015625)"/>
       </defs>
       <use xlink:href="#DejaVuSans-33"/>
       <use xlink:href="#DejaVuSans-30" x="63.623047"/>
       <use xlink:href="#DejaVuSans-30" x="127.246094"/>
       <use xlink:href="#DejaVuSans-30" x="190.869141"/>
      </g>
     </g>
    </g>
    <g id="ytick_5">
     <g id="line2d_16">
      <g>
       <use xlink:href="#m9ecc774b4f" x="39.65" y="170.588585" style="stroke: #000000; stroke-width: 0.8"/>
      </g>
     </g>
     <g id="text_16">
      <!-- 4000 -->
      <g transform="translate(7.2 174.387803)scale(0.1 -0.1)">
       <use xlink:href="#DejaVuSans-34"/>
       <use xlink:href="#DejaVuSans-30" x="63.623047"/>
       <use xlink:href="#DejaVuSans-30" x="127.246094"/>
       <use xlink:href="#DejaVuSans-30" x="190.869141"/>
      </g>
     </g>
    </g>
    <g id="ytick_6">
     <g id="line2d_17">
      <g>
       <use xlink:href="#m9ecc774b4f" x="39.65" y="129.492435" style="stroke: #000000; stroke-width: 0.8"/>
      </g>
     </g>
     <g id="text_17">
      <!-- 5000 -->
      <g transform="translate(7.2 133.291653)scale(0.1 -0.1)">
       <defs>
        <path id="DejaVuSans-35" d="M 691 4666 
L 3169 4666 
L 3169 4134 
L 1269 4134 
L 1269 2991 
Q 1406 3038 1543 3061 
Q 1681 3084 1819 3084 
Q 2600 3084 3056 2656 
Q 3513 2228 3513 1497 
Q 3513 744 3044 326 
Q 2575 -91 1722 -91 
Q 1428 -91 1123 -41 
Q 819 9 494 109 
L 494 744 
Q 775 591 1075 516 
Q 1375 441 1709 441 
Q 2250 441 2565 725 
Q 2881 1009 2881 1497 
Q 2881 1984 2565 2268 
Q 2250 2553 1709 2553 
Q 1456 2553 1204 2497 
Q 953 2441 691 2322 
L 691 4666 
z
" transform="scale(0.015625)"/>
       </defs>
       <use xlink:href="#DejaVuSans-35"/>
       <use xlink:href="#DejaVuSans-30" x="63.623047"/>
       <use xlink:href="#DejaVuSans-30" x="127.246094"/>
       <use xlink:href="#DejaVuSans-30" x="190.869141"/>
      </g>
     </g>
    </g>
    <g id="ytick_7">
     <g id="line2d_18">
      <g>
       <use xlink:href="#m9ecc774b4f" x="39.65" y="88.396285" style="stroke: #000000; stroke-width: 0.8"/>
      </g>
     </g>
     <g id="text_18">
      <!-- 6000 -->
      <g transform="translate(7.2 92.195504)scale(0.1 -0.1)">
       <defs>
        <path id="DejaVuSans-36" d="M 2113 2584 
Q 1688 2584 1439 2293 
Q 1191 2003 1191 1497 
Q 1191 994 1439 701 
Q 1688 409 2113 409 
Q 2538 409 2786 701 
Q 3034 994 3034 1497 
Q 3034 2003 2786 2293 
Q 2538 2584 2113 2584 
z
M 3366 4563 
L 3366 3988 
Q 3128 4100 2886 4159 
Q 2644 4219 2406 4219 
Q 1781 4219 1451 3797 
Q 1122 3375 1075 2522 
Q 1259 2794 1537 2939 
Q 1816 3084 2150 3084 
Q 2853 3084 3261 2657 
Q 3669 2231 3669 1497 
Q 3669 778 3244 343 
Q 2819 -91 2113 -91 
Q 1303 -91 875 529 
Q 447 1150 447 2328 
Q 447 3434 972 4092 
Q 1497 4750 2381 4750 
Q 2619 4750 2861 4703 
Q 3103 4656 3366 4563 
z
" transform="scale(0.015625)"/>
       </defs>
       <use xlink:href="#DejaVuSans-36"/>
       <use xlink:href="#DejaVuSans-30" x="63.623047"/>
       <use xlink:href="#DejaVuSans-30" x="127.246094"/>
       <use xlink:href="#DejaVuSans-30" x="190.869141"/>
      </g>
     </g>
    </g>
    <g id="ytick_8">
     <g id="line2d_19">
      <g>
       <use xlink:href="#m9ecc774b4f" x="39.65" y="47.300135" style="stroke: #000000; stroke-width: 0.8"/>
      </g>
     </g>
     <g id="text_19">
      <!-- 7000 -->
      <g transform="translate(7.2 51.099354)scale(0.1 -0.1)">
       <use xlink:href="#DejaVuSans-37"/>
       <use xlink:href="#DejaVuSans-30" x="63.623047"/>
       <use xlink:href="#DejaVuSans-30" x="127.246094"/>
       <use xlink:href="#DejaVuSans-30" x="190.869141"/>
      </g>
     </g>
    </g>
   </g>
   <g id="line2d_20">
    <path d="M 100.522727 334.973184 
L 142.549206 334.932088 
L 143.862533 334.562223 
L 145.175861 334.356742 
L 146.489188 334.274549 
L 147.802515 334.890992 
L 150.42917 334.973184 
L 151.742498 334.521126 
L 153.055825 334.973184 
L 156.995808 334.973184 
L 158.309135 334.849896 
L 159.622462 334.849896 
L 160.93579 334.973184 
L 162.249117 334.767703 
L 163.562445 334.849896 
L 164.875772 334.644415 
L 166.1891 334.973184 
L 167.502427 333.986876 
L 168.815755 334.644415 
L 170.129082 334.521126 
L 171.44241 334.685511 
L 172.755737 334.48003 
L 174.069064 334.726607 
L 176.695719 334.274549 
L 178.009047 334.48003 
L 179.322374 334.932088 
L 181.949029 334.808799 
L 183.262357 334.438934 
L 184.575684 334.274549 
L 185.889011 334.562223 
L 187.202339 334.151261 
L 188.515666 334.521126 
L 189.828994 334.027973 
L 191.142321 333.822492 
L 192.455649 333.94578 
L 193.768976 331.890973 
L 195.082304 332.425223 
L 196.395631 331.80878 
L 197.708959 330.493704 
L 199.022286 331.767684 
L 200.335613 330.370415 
L 201.648941 332.712896 
L 202.962268 331.562204 
L 204.275596 328.356704 
L 205.588923 331.685492 
L 206.902251 332.260838 
L 208.215578 332.712896 
L 209.528906 332.918377 
L 210.842233 330.082742 
L 212.15556 329.4663 
L 213.468888 331.151242 
L 214.782215 328.233415 
L 216.095543 331.685492 
L 217.40887 331.480011 
L 218.722198 328.069031 
L 220.035525 328.767665 
L 222.66218 323.548454 
L 223.975508 327.452589 
L 225.288835 326.219704 
L 226.602162 328.726569 
L 227.91549 322.644339 
L 229.228817 323.301877 
L 230.542145 320.466243 
L 231.855472 325.027916 
L 233.1688 320.014185 
L 234.482127 322.84982 
L 235.795455 313.356609 
L 237.108782 315.041551 
L 238.422109 323.548454 
L 239.735437 308.630552 
L 241.048764 317.918282 
L 242.362092 291.205784 
L 243.675419 310.397686 
L 244.988747 294.246899 
L 246.302074 304.109975 
L 247.615402 296.05513 
L 248.928729 298.603091 
L 250.242056 296.260611 
L 251.555384 291.904419 
L 252.868711 300.411322 
L 254.182039 290.877015 
L 255.495366 301.93188 
L 256.808694 292.192092 
L 258.122021 295.726361 
L 259.435349 297.986649 
L 260.748676 300.53461 
L 262.062004 307.644244 
L 263.375331 309.986725 
L 264.688658 306.534648 
L 266.001986 300.246937 
L 267.315313 290.918111 
L 268.628641 293.548265 
L 269.941968 300.00036 
L 271.255296 305.425052 
L 272.568623 298.520899 
L 273.881951 305.794918 
L 275.195278 311.877148 
L 276.508605 305.260668 
L 277.821933 314.959359 
L 279.13526 305.507245 
L 280.448588 307.767533 
L 281.761915 309.08261 
L 283.075243 306.904514 
L 284.38857 309.945629 
L 285.701898 313.603186 
L 287.015225 313.849763 
L 288.328553 316.315532 
L 289.64188 313.973051 
L 290.955207 313.315513 
L 292.268535 311.342898 
L 293.581862 312.740167 
L 294.89519 310.151109 
L 296.208517 315.781282 
L 297.521845 314.219628 
L 298.835172 308.630552 
L 301.461827 300.205841 
L 302.775154 297.616784 
L 304.088482 297.370207 
L 305.401809 306.699033 
L 306.715137 312.329205 
L 308.028464 311.055225 
L 309.341792 307.397667 
L 310.655119 304.356552 
L 311.968447 297.205822 
L 313.281774 301.562014 
L 314.595102 309.041513 
L 315.908429 308.75384 
L 317.221756 306.082591 
L 318.535084 310.274398 
L 319.848411 303.657918 
L 321.161739 300.740091 
L 322.475066 304.562033 
L 323.788394 315.329224 
L 325.101721 300.616803 
L 326.415049 309.740148 
L 327.728376 307.603148 
L 329.041703 306.082591 
L 330.355031 302.466129 
L 331.668358 312.247013 
L 332.981686 306.904514 
L 334.295013 322.644339 
L 335.608341 312.000436 
L 336.921668 307.397667 
L 338.234996 304.109975 
L 339.548323 306.740129 
L 340.86165 304.027783 
L 342.174978 306.863418 
L 343.488305 315.90457 
L 344.801633 310.068917 
L 346.11496 303.329149 
L 347.428288 303.986687 
L 348.741615 309.246994 
L 350.054943 317.384032 
L 351.36827 314.794974 
L 352.681598 315.945667 
L 353.994925 319.027878 
L 355.308252 315.452513 
L 356.62158 308.21959 
L 357.934907 309.493571 
L 359.248235 306.94561 
L 360.561562 315.575801 
L 361.87489 313.849763 
L 363.188217 306.740129 
L 364.501545 307.520956 
L 365.814872 305.507245 
L 367.128199 306.164783 
L 368.441527 306.246975 
L 369.754854 313.931955 
L 371.068182 314.09634 
L 372.381509 309.411379 
L 373.694837 308.54836 
L 375.008164 307.233283 
L 376.321492 309.411379 
L 377.634819 314.342917 
L 378.948147 306.699033 
L 380.261474 311.507282 
L 381.574801 317.219647 
L 382.888129 309.781244 
L 384.201456 306.288071 
L 385.514784 307.274379 
L 386.828111 308.959321 
L 388.141439 308.425071 
L 389.454766 318.04157 
L 390.768094 315.534705 
L 392.081421 306.123687 
L 393.394748 307.562052 
L 394.708076 297.986649 
L 396.021403 299.425014 
L 397.334731 305.383956 
L 398.648058 309.534667 
L 399.961386 301.890783 
L 401.274713 299.753784 
L 402.588041 300.53461 
L 403.901368 304.562033 
L 405.214695 308.137398 
L 406.528023 304.726418 
L 407.84135 312.247013 
L 409.154678 305.87711 
L 410.468005 300.904476 
L 411.781333 306.288071 
L 413.09466 301.06886 
L 414.407988 306.041495 
L 415.721315 313.56209 
L 417.034643 319.151166 
L 418.34797 313.192225 
L 419.661297 305.425052 
L 420.974625 309.657956 
L 422.287952 312.288109 
L 423.60128 310.726456 
L 424.914607 303.822302 
L 426.227935 320.795012 
L 427.541262 317.014167 
L 428.85459 310.849744 
L 430.167917 309.740148 
L 431.481244 314.671686 
L 432.794572 318.082666 
L 434.107899 319.726512 
L 435.421227 311.671667 
L 436.734554 311.671667 
L 438.047882 307.192187 
L 439.361209 315.452513 
L 440.674537 306.288071 
L 441.987864 308.877129 
L 443.301192 314.753878 
L 444.614519 312.452494 
L 445.927846 303.041476 
L 447.241174 300.288034 
L 448.554501 313.110032 
L 449.867829 304.315456 
L 451.181156 305.014091 
L 452.494484 304.603129 
L 453.807811 307.726437 
L 455.121139 306.781225 
L 456.434466 298.561995 
L 457.747793 301.562014 
L 459.061121 298.438707 
L 460.374448 301.60311 
L 461.687776 306.41136 
L 463.001103 305.87711 
L 464.314431 306.94561 
L 465.627758 303.123668 
L 466.941086 301.520918 
L 468.254413 303.74011 
L 470.881068 310.767552 
L 472.194395 309.986725 
L 473.507723 303.781206 
L 474.82105 302.630514 
L 476.134378 303.616822 
L 478.761033 301.06886 
L 480.07436 304.479841 
L 481.387688 312.863455 
L 482.701015 304.767514 
L 484.014342 297.863361 
L 485.32767 303.000379 
L 486.640997 303.20586 
L 487.954325 305.466148 
L 489.267652 306.575744 
L 490.58098 314.466205 
L 491.894307 314.877167 
L 493.207635 312.123725 
L 494.520962 316.397724 
L 495.834289 315.041551 
L 497.147617 315.000455 
L 498.460944 317.466224 
L 499.774272 321.740224 
L 501.087599 321.123782 
L 502.400927 318.452532 
L 503.714254 317.630609 
L 505.027582 321.411455 
L 506.340909 321.452551 
L 507.654237 321.863512 
L 508.967564 325.479973 
L 510.280891 326.384089 
L 511.594219 320.301859 
L 512.907546 323.959416 
L 514.220874 322.068993 
L 515.534201 320.877205 
L 516.847529 324.822435 
L 518.160856 326.548473 
L 519.474184 325.52107 
L 520.787511 322.603243 
L 522.100838 322.479954 
L 523.414166 323.014204 
L 524.727493 322.890916 
L 526.040821 324.493666 
L 527.354148 327.822454 
L 528.667476 325.479973 
L 529.980803 324.247089 
L 531.294131 324.247089 
L 532.607458 325.890935 
L 533.920786 321.041589 
L 535.234113 324.945723 
L 536.54744 326.589569 
L 537.860768 325.52107 
L 539.174095 322.726531 
L 540.487423 324.041608 
L 541.80075 324.945723 
L 543.114078 324.288185 
L 544.427405 327.904646 
L 545.740733 326.589569 
L 547.05406 326.589569 
L 548.367387 325.274493 
L 549.680715 326.548473 
L 550.994042 323.219685 
L 552.30737 323.260781 
L 553.620697 326.548473 
L 554.934025 323.91832 
L 556.247352 319.685416 
L 557.56068 322.151185 
L 558.874007 318.082666 
L 560.187335 312.781263 
L 561.500662 314.63059 
L 562.813989 317.425128 
L 564.127317 317.959378 
L 565.440644 313.315513 
L 566.753972 314.671686 
L 568.067299 312.822359 
L 569.380627 311.95934 
L 570.693954 313.192225 
L 572.007282 317.096359 
L 573.320609 319.438839 
L 574.633936 315.781282 
L 575.947264 311.219609 
L 577.260591 316.808686 
L 578.573919 311.548379 
L 579.887246 313.068936 
L 581.200574 313.02784 
L 582.513901 319.192262 
L 583.827229 314.753878 
L 585.140556 314.219628 
L 586.453883 311.137417 
L 587.767211 310.808648 
L 589.080538 307.931917 
L 590.393866 313.849763 
L 591.707193 308.877129 
L 593.020521 310.89084 
L 594.333848 301.644206 
L 595.647176 303.904495 
L 596.960503 300.452418 
L 598.273831 296.342803 
L 599.587158 300.205841 
L 600.900485 295.438688 
L 602.213813 294.041419 
L 603.52714 293.794842 
L 604.840468 294.411284 
L 606.153795 291.904419 
L 607.467123 293.014015 
L 608.78045 300.00036 
L 610.093778 302.178456 
L 611.407105 301.151053 
L 612.720432 295.356496 
L 614.03376 293.1784 
L 615.347087 294.740053 
L 616.660415 294.863342 
L 617.973742 299.548303 
L 619.28707 303.411341 
L 620.600397 298.027745 
L 621.913725 293.260592 
L 623.227052 293.835938 
L 624.54038 293.096207 
L 625.853707 292.972919 
L 627.167034 300.288034 
L 628.480362 295.438688 
L 629.793689 286.520823 
L 631.107017 279.863247 
L 632.420344 277.068709 
L 633.733672 264.452191 
L 635.046999 268.685094 
L 636.360327 280.808458 
L 637.673654 287.959189 
L 638.986981 280.479689 
L 640.300309 287.424939 
L 642.926964 273.123478 
L 646.866946 291.287977 
L 648.180274 280.233112 
L 649.493601 280.972843 
L 650.806929 273.164575 
L 652.120256 277.685151 
L 653.433583 272.548132 
L 654.746911 279.61667 
L 656.060238 285.986573 
L 657.373566 280.315305 
L 658.686893 282.041343 
L 660.000221 281.589285 
L 661.313548 277.849536 
L 662.626876 271.356344 
L 663.940203 285.739996 
L 665.25353 288.9044 
L 666.566858 283.561901 
L 667.880185 282.739978 
L 669.193513 282.28792 
L 670.50684 276.698844 
L 671.820168 284.301631 
L 673.133495 284.219439 
L 674.446823 285.534516 
L 675.76015 279.205709 
L 677.073477 277.315286 
L 678.386805 272.630325 
L 679.700132 278.301593 
L 681.01346 274.274171 
L 682.326787 278.301593 
L 683.640115 277.849536 
L 684.953442 267.780979 
L 686.26677 271.520729 
L 687.580097 277.356382 
L 688.893425 277.80844 
L 690.206752 277.191997 
L 691.520079 277.931728 
L 692.833407 288.657823 
L 694.146734 272.917998 
L 695.460062 278.630363 
L 696.773389 275.835824 
L 698.086717 275.013901 
L 699.400044 276.123497 
L 700.713372 285.411227 
L 702.026699 271.479632 
L 703.340026 282.123535 
L 704.653354 275.548151 
L 705.966681 274.808421 
L 707.280009 276.73994 
L 708.593336 276.246786 
L 709.906664 282.411208 
L 711.219991 280.890651 
L 712.533319 283.767381 
L 713.846646 283.479708 
L 715.159974 275.342671 
L 716.473301 284.178343 
L 717.786628 285.287939 
L 719.099956 289.9729 
L 720.413283 294.205803 
L 721.726611 294.781149 
L 723.039938 287.589323 
L 724.353266 294.493476 
L 725.666593 291.452361 
L 726.979921 303.616822 
L 730.919903 299.589399 
L 732.23323 290.424958 
L 733.546558 288.986592 
L 734.859885 286.972881 
L 736.173213 279.698862 
L 737.48654 293.1784 
L 738.799868 294.205803 
L 740.113195 284.013958 
L 741.426523 277.109805 
L 742.73985 286.644112 
L 744.053177 287.30165 
L 745.366505 278.096113 
L 746.679832 288.37015 
L 747.99316 289.9729 
L 749.306487 277.027613 
L 750.619815 282.411208 
L 751.933142 279.698862 
L 753.24647 275.67144 
L 754.559797 282.370112 
L 755.873124 280.274209 
L 757.186452 281.671478 
L 758.499779 274.191978 
L 759.813107 270.000171 
L 761.126434 277.80844 
L 762.439762 264.739864 
L 763.753089 266.876864 
L 765.066417 275.918017 
L 766.379744 272.835805 
L 767.693071 270.739902 
L 769.006399 273.863209 
L 770.319726 270.986479 
L 771.633054 267.328921 
L 772.946381 266.835768 
L 774.259709 273.452248 
L 775.573036 266.712479 
L 776.886364 255.452134 
L 778.199691 254.342538 
L 779.513019 258.123384 
L 780.826346 262.602864 
L 782.139673 265.027537 
L 783.453001 266.712479 
L 784.766328 270.945383 
L 786.079656 267.082344 
L 787.392983 264.369999 
L 788.706311 259.520653 
L 790.019638 260.013807 
L 791.332966 257.09598 
L 792.646293 268.72619 
L 793.95962 267.000152 
L 795.272948 253.726096 
L 796.586275 253.068557 
L 797.899603 269.835786 
L 799.21293 264.904248 
L 800.526258 268.52071 
L 803.152913 273.739921 
L 804.46624 262.232999 
L 805.779568 264.616575 
L 807.092895 268.274133 
L 808.406222 278.055016 
L 809.71955 283.068747 
L 812.346205 286.109862 
L 813.659532 289.479746 
L 814.97286 292.1099 
L 816.286187 295.151015 
L 817.599515 294.411284 
L 818.912842 296.918149 
L 820.226169 294.411284 
L 821.539497 300.616803 
L 822.852824 294.370188 
L 824.166152 296.630476 
L 825.479479 296.301707 
L 828.106134 303.493533 
L 829.419462 304.849706 
L 830.732789 305.918206 
L 832.046117 301.890783 
L 833.359444 302.712706 
L 834.672771 300.00036 
L 837.299426 310.479879 
L 838.612754 314.384013 
L 839.926081 312.164821 
L 841.239409 313.644282 
L 842.552736 310.520975 
L 843.866064 317.548416 
L 845.179391 312.164821 
L 846.492718 317.83609 
L 847.806046 319.562128 
L 849.119373 322.397762 
L 850.432701 320.877205 
L 851.746028 324.45257 
L 853.059356 325.233396 
L 854.372683 323.630647 
L 855.686011 325.685454 
L 856.999338 326.753954 
L 858.312665 328.110127 
L 859.625993 327.206012 
L 860.93932 328.151223 
L 862.252648 326.877242 
L 863.565975 326.2608 
L 864.879303 328.069031 
L 866.19263 327.3293 
L 867.505958 327.206012 
L 868.819285 327.411492 
L 870.132613 329.877261 
L 871.44594 330.822473 
L 872.759267 330.411511 
L 874.072595 331.06905 
L 875.385922 330.740281 
L 876.69925 332.014261 
L 878.012577 332.055357 
L 879.325905 331.562204 
L 880.639232 332.260838 
L 881.95256 332.13755 
L 883.265887 332.425223 
L 884.579214 333.288242 
L 887.205869 332.589607 
L 889.832524 332.548511 
L 891.145852 332.589607 
L 892.459179 332.384127 
L 893.772507 333.20605 
L 895.085834 332.6718 
L 896.399162 332.795088 
L 899.025816 333.41153 
L 901.652471 333.000569 
L 902.965799 333.288242 
L 904.279126 333.452626 
L 905.592454 332.959473 
L 906.905781 333.370434 
L 908.219109 333.617011 
L 909.532436 332.918377 
L 910.845763 333.534819 
L 912.159091 333.288242 
L 913.472418 332.014261 
L 914.785746 332.836184 
L 916.099073 332.959473 
L 917.412401 333.699203 
L 918.725728 333.082761 
L 920.039056 333.534819 
L 922.665711 333.699203 
L 923.979038 333.247146 
L 925.292365 333.452626 
L 926.605693 333.41153 
L 927.91902 333.658107 
L 929.232348 333.7403 
L 930.545675 333.370434 
L 931.859003 333.534819 
L 933.17233 333.370434 
L 934.485658 333.658107 
L 935.798985 334.110165 
L 937.112312 333.94578 
L 938.42564 333.658107 
L 939.738967 333.94578 
L 941.052295 334.110165 
L 942.365622 333.7403 
L 943.67895 334.110165 
L 944.992277 334.315646 
L 946.305605 333.94578 
L 947.618932 334.069069 
L 948.932259 334.48003 
L 950.245587 333.94578 
L 951.558914 333.7403 
L 952.872242 334.027973 
L 954.185569 334.110165 
L 955.498897 334.315646 
L 956.812224 333.94578 
L 958.125552 333.822492 
L 959.438879 334.027973 
L 960.752207 333.94578 
L 964.692189 334.151261 
L 966.005516 333.986876 
L 967.318844 334.069069 
L 968.632171 333.904684 
L 969.945499 333.904684 
L 971.258826 334.315646 
L 973.885481 334.069069 
L 975.198808 334.315646 
L 976.512136 334.397838 
L 977.825463 334.274549 
L 979.138791 333.822492 
L 980.452118 334.48003 
L 981.765446 334.110165 
L 983.078773 333.904684 
L 984.392101 334.110165 
L 985.705428 334.110165 
L 987.018756 334.973184 
L 988.332083 332.466319 
L 989.64541 333.534819 
L 990.958738 334.110165 
L 992.272065 333.493723 
L 993.585393 334.069069 
L 994.89872 334.027973 
L 997.525375 333.617011 
L 998.838703 333.699203 
L 1000.15203 333.617011 
L 1001.465357 334.151261 
L 1002.778685 333.781396 
L 1005.40534 333.370434 
L 1006.718667 334.973184 
L 1008.031995 331.726588 
L 1009.345322 332.630703 
L 1010.65865 333.164953 
L 1011.971977 331.644396 
L 1013.285305 332.87728 
L 1014.598632 331.890973 
L 1015.911959 331.685492 
L 1017.225287 331.192338 
L 1018.538614 329.096435 
L 1019.851942 327.658069 
L 1021.165269 327.986839 
L 1022.478597 328.808762 
L 1023.791924 325.110108 
L 1025.105252 326.836146 
L 1026.418579 321.452551 
L 1027.731906 318.57582 
L 1029.045234 312.205917 
L 1030.358561 314.260724 
L 1031.671889 310.808648 
L 1032.985216 309.945629 
L 1034.298544 294.616765 
L 1035.611871 274.06869 
L 1036.925199 242.671231 
L 1038.238526 235.808174 
L 1039.551853 226.273868 
L 1042.178508 211.725831 
L 1044.805163 154.273413 
L 1046.118491 148.067894 
L 1047.431818 134.300684 
L 1048.745146 134.382877 
L 1050.058473 149.341875 
L 1051.371801 149.917221 
L 1052.685128 123.451301 
L 1053.998455 136.684261 
L 1055.311783 156.739182 
L 1056.62511 149.629548 
L 1057.938438 137.341799 
L 1059.251765 164.506354 
L 1060.565093 156.328221 
L 1061.87842 122.259512 
L 1063.191748 98.999091 
L 1064.505075 69.738633 
L 1065.818402 67.231768 
L 1067.13173 50.8755 
L 1068.445057 96.286746 
L 1069.758385 105.163514 
L 1071.071712 85.807227 
L 1072.38504 70.478363 
L 1073.698367 64.067364 
L 1076.325022 112.766302 
L 1077.63835 152.300798 
L 1078.951677 161.054278 
L 1080.265004 158.506316 
L 1081.578332 171.040642 
L 1082.891659 192.657217 
L 1084.204987 198.369582 
L 1085.518314 215.958734 
L 1086.831642 242.342462 
L 1088.144969 241.767116 
L 1089.458297 229.684848 
L 1090.771624 245.958923 
L 1092.084951 256.191865 
L 1093.398279 273.287863 
L 1094.711606 279.575574 
L 1096.024934 293.096207 
L 1097.338261 285.863285 
L 1098.651589 280.356401 
L 1099.964916 291.698938 
L 1101.278244 293.38388 
L 1102.591571 299.383918 
L 1103.904898 300.205841 
L 1105.218226 311.055225 
L 1106.531553 310.027821 
L 1109.158208 312.041532 
L 1110.471536 313.274417 
L 1111.784863 315.000455 
L 1113.098191 314.466205 
L 1114.411518 313.438801 
L 1115.724846 307.438764 
L 1117.038173 309.904533 
L 1118.3515 317.055263 
L 1119.664828 319.849801 
L 1120.978155 320.630628 
L 1122.291483 323.466262 
L 1123.60481 324.329281 
L 1124.918138 334.973184 
L 1126.231465 308.137398 
L 1127.544793 323.877224 
L 1128.85812 325.72655 
L 1130.171447 334.973184 
L 1131.484775 319.192262 
L 1132.798102 328.808762 
L 1134.11143 326.79505 
L 1135.424757 325.027916 
L 1136.738085 328.027935 
L 1138.051412 334.973184 
L 1139.36474 319.479936 
L 1140.678067 334.973184 
L 1143.304722 334.973184 
L 1144.618049 321.411455 
L 1145.931377 313.685378 
L 1147.244704 334.973184 
L 1151.184687 334.973184 
L 1152.498014 312.49359 
L 1153.811342 334.973184 
L 1156.437996 334.973184 
L 1157.751324 319.068974 
L 1159.064651 321.000493 
L 1160.377979 334.973184 
L 1163.004634 334.973184 
L 1164.317961 318.986782 
L 1165.631289 334.973184 
L 1168.257944 334.973184 
L 1169.571271 324.822435 
L 1170.884598 334.973184 
L 1172.197926 334.973184 
L 1173.511253 327.986839 
L 1174.824581 334.233453 
L 1176.137908 334.973184 
L 1177.451236 334.973184 
L 1178.764563 326.014223 
L 1180.077891 334.973184 
L 1181.391218 334.973184 
L 1182.704545 330.247127 
L 1184.017873 334.973184 
L 1194.524492 334.973184 
L 1195.83782 322.973108 
L 1197.151147 334.973184 
L 1198.464475 326.877242 
L 1199.777802 334.973184 
L 1201.09113 334.973184 
L 1202.404457 327.740262 
L 1203.717785 334.973184 
L 1210.284422 334.973184 
L 1211.597749 318.534724 
L 1212.911077 334.973184 
L 1215.537732 334.973184 
L 1216.851059 322.356666 
L 1218.164387 334.973184 
L 1226.044351 334.973184 
L 1227.357679 316.726493 
L 1228.671006 334.973184 
L 1233.924316 334.973184 
L 1235.237643 300.370226 
L 1236.550971 334.973184 
L 1237.864298 315.657994 
L 1239.177626 334.973184 
L 1240.490953 314.09634 
L 1241.804281 334.973184 
L 1243.117608 301.151053 
L 1244.430936 319.685416 
L 1245.744263 334.973184 
L 1247.05759 301.233245 
L 1249.684245 334.973184 
L 1250.997573 299.753784 
L 1252.3109 319.315551 
L 1253.624228 334.973184 
L 1254.937555 311.055225 
L 1256.250883 334.973184 
L 1257.56421 270.575517 
L 1258.877538 334.973184 
L 1260.190865 301.233245 
L 1261.504192 322.356666 
L 1262.81752 334.973184 
L 1264.130847 293.096207 
L 1265.444175 334.973184 
L 1268.07083 334.973184 
L 1269.384157 275.507055 
L 1270.697485 334.973184 
L 1273.324139 334.973184 
L 1274.637467 267.287825 
L 1275.950794 334.973184 
L 1279.890777 334.973184 
L 1281.204104 247.931539 
L 1282.517432 334.973184 
L 1295.650706 334.973184 
L 1296.964034 157.232336 
L 1298.277361 315.288128 
L 1299.590688 334.973184 
L 1299.590688 334.973184 
" clip-path="url(#pb8ea2eda4d)" style="fill: none; stroke: #0000ff; stroke-width: 1.5; stroke-linecap: square"/>
   </g>
   <g id="line2d_21">
    <path d="M 1060.565093 158.219359 
L 1061.87842 153.645954 
L 1063.191748 143.405406 
L 1064.505075 121.109437 
L 1065.818402 94.331011 
L 1067.13173 75.423331 
L 1068.445057 65.340599 
L 1069.758385 78.465789 
L 1071.071712 87.348033 
L 1073.698367 65.010886 
L 1075.011695 63.505766 
L 1076.325022 76.6164 
L 1077.63835 104.310853 
L 1078.951677 134.547083 
L 1080.265004 148.20827 
L 1081.578332 158.4436 
L 1082.891659 169.941398 
L 1084.204987 188.704546 
L 1086.831642 211.102445 
L 1088.144969 226.034763 
L 1089.458297 234.118325 
L 1090.771624 230.9819 
L 1092.084951 240.291191 
L 1093.398279 244.802451 
L 1096.024934 274.266452 
L 1097.338261 285.449948 
L 1098.651589 283.005045 
L 1099.964916 286.097551 
L 1101.278244 290.443537 
L 1102.591571 299.198284 
L 1103.904898 301.219743 
L 1105.218226 300.623468 
L 1106.531553 303.506536 
L 1107.844881 307.766349 
L 1109.158208 308.61412 
L 1110.471536 309.752462 
L 1111.784863 307.362203 
L 1113.098191 310.094386 
L 1114.411518 315.050221 
L 1115.724846 316.053417 
L 1117.038173 311.0728 
L 1118.3515 311.384297 
L 1119.664828 315.231272 
L 1120.978155 321.469091 
L 1122.291483 321.945433 
L 1123.60481 320.42435 
L 1124.918138 319.59638 
L 1126.231465 328.673312 
L 1127.544793 318.731123 
L 1128.85812 321.471365 
L 1130.171447 320.923362 
L 1131.484775 328.334304 
L 1132.798102 325.526559 
L 1134.11143 332.106004 
L 1135.424757 322.165535 
L 1136.738085 326.674345 
L 1138.051412 327.829537 
L 1139.36474 336.052859 
L 1140.678067 323.526545 
L 1141.991395 330.279633 
L 1143.304722 328.465776 
L 1144.618049 337.135509 
L 1145.931377 327.132572 
L 1147.244704 321.299946 
L 1148.558032 321.36426 
L 1149.871359 335.234855 
L 1151.184687 334.564071 
L 1152.498014 338.190339 
L 1153.811342 317.178732 
L 1156.437996 334.851014 
L 1157.751324 340.613933 
L 1159.064651 323.912356 
L 1160.377979 322.786242 
L 1161.691306 321.201308 
L 1163.004634 339.70405 
L 1164.317961 337.616028 
L 1165.631289 324.52213 
L 1166.944616 321.771626 
L 1168.257944 333.405128 
L 1169.571271 337.237682 
L 1170.884598 337.020272 
L 1172.197926 327.079734 
L 1173.511253 327.123775 
L 1176.137908 340.659909 
L 1177.451236 333.982411 
L 1180.077891 325.121485 
L 1181.391218 337.361734 
L 1182.704545 337.710448 
L 1184.017873 330.215428 
L 1185.3312 327.71912 
L 1186.644528 334.466633 
L 1187.957855 336.393722 
L 1189.271183 339.854795 
L 1190.58451 331.716386 
L 1191.897838 331.039163 
L 1193.211165 337.050086 
L 1194.524492 339.922725 
L 1195.83782 335.003096 
L 1197.151147 327.299864 
L 1198.464475 328.039994 
L 1201.09113 335.396081 
L 1202.404457 332.068325 
L 1203.717785 326.622299 
L 1205.031112 330.009161 
L 1206.34444 336.546911 
L 1207.657767 336.420414 
L 1208.971094 334.109432 
L 1210.284422 333.060435 
L 1211.597749 334.807345 
L 1212.911077 330.377752 
L 1214.224404 333.649842 
L 1215.537732 331.265922 
L 1216.851059 332.673889 
L 1218.164387 328.413198 
L 1219.477714 333.091631 
L 1220.791041 329.592237 
L 1222.104369 333.035436 
L 1223.417696 333.407451 
L 1224.731024 336.68234 
L 1226.044351 333.209642 
L 1227.357679 336.189768 
L 1228.671006 324.905217 
L 1229.984334 333.814529 
L 1231.297661 333.967493 
L 1232.610989 335.022086 
L 1233.924316 333.062616 
L 1235.237643 336.107366 
L 1236.550971 311.152578 
L 1237.864298 328.906968 
L 1239.177626 319.050383 
L 1240.490953 327.875668 
L 1241.804281 320.143448 
L 1243.117608 329.552126 
L 1244.430936 304.604317 
L 1245.744263 325.593315 
L 1247.05759 321.933947 
L 1248.370918 317.773368 
L 1249.684245 312.712361 
L 1250.997573 329.843845 
L 1252.3109 304.580316 
L 1253.624228 324.632037 
L 1254.937555 323.501928 
L 1256.250883 315.682132 
L 1257.56421 324.558177 
L 1258.877538 304.058076 
L 1260.190865 307.883487 
L 1261.504192 316.35868 
L 1262.81752 313.605785 
L 1264.130847 324.495225 
L 1265.444175 314.474188 
L 1266.757502 311.091568 
L 1268.07083 332.665325 
L 1269.384157 335.814986 
L 1270.697485 299.310208 
L 1272.010812 325.966265 
L 1273.324139 321.129224 
L 1274.637467 333.201015 
L 1275.950794 309.479681 
L 1277.264122 315.990612 
L 1278.577449 310.369947 
L 1279.890777 341.157784 
L 1281.204104 331.770585 
L 1282.517432 294.845125 
L 1283.830759 296.287157 
L 1285.144086 324.043222 
L 1287.770741 347.61016 
L 1289.084069 326.875027 
L 1290.397396 315.24618 
L 1291.710724 340.459663 
L 1293.024051 353.2755 
L 1294.337379 337.85109 
L 1295.650706 331.917232 
L 1296.964034 323.703818 
L 1298.277361 246.360691 
L 1299.590688 295.587386 
L 1299.590688 295.587386 
" clip-path="url(#pb8ea2eda4d)" style="fill: none; stroke: #ffa500; stroke-width: 1.5; stroke-linecap: square"/>
   </g>
   <g id="line2d_22">
    <path d="M 1300.904016 304.851424 
L 1302.217343 292.401963 
L 1303.530671 296.913892 
L 1304.843998 300.400032 
L 1306.157326 265.79286 
L 1307.470653 294.707848 
L 1308.783981 289.424561 
L 1310.097308 291.468382 
L 1311.410635 298.351823 
L 1312.723963 295.857129 
L 1314.03729 293.929605 
L 1315.350618 313.064284 
L 1316.663945 297.076875 
L 1317.977273 299.998061 
" clip-path="url(#pb8ea2eda4d)" style="fill: none; stroke: #ff0000; stroke-width: 1.5; stroke-linecap: square"/>
   </g>
   <g id="patch_3">
    <path d="M 39.65 368.3955 
L 39.65 35.7555 
" style="fill: none; stroke: #000000; stroke-width: 0.8; stroke-linejoin: miter; stroke-linecap: square"/>
   </g>
   <g id="patch_4">
    <path d="M 1378.85 368.3955 
L 1378.85 35.7555 
" style="fill: none; stroke: #000000; stroke-width: 0.8; stroke-linejoin: miter; stroke-linecap: square"/>
   </g>
   <g id="patch_5">
    <path d="M 39.65 368.3955 
L 1378.85 368.3955 
" style="fill: none; stroke: #000000; stroke-width: 0.8; stroke-linejoin: miter; stroke-linecap: square"/>
   </g>
   <g id="patch_6">
    <path d="M 39.65 35.7555 
L 1378.85 35.7555 
" style="fill: none; stroke: #000000; stroke-width: 0.8; stroke-linejoin: miter; stroke-linecap: square"/>
   </g>
   <g id="text_20">
    <!-- Daily Confirmed Cases Forecasting - Kuwait -->
    <g transform="translate(578.709687 16.318125)scale(0.12 -0.12)">
     <defs>
      <path id="DejaVuSans-44" d="M 1259 4147 
L 1259 519 
L 2022 519 
Q 2988 519 3436 956 
Q 3884 1394 3884 2338 
Q 3884 3275 3436 3711 
Q 2988 4147 2022 4147 
L 1259 4147 
z
M 628 4666 
L 1925 4666 
Q 3281 4666 3915 4102 
Q 4550 3538 4550 2338 
Q 4550 1131 3912 565 
Q 3275 0 1925 0 
L 628 0 
L 628 4666 
z
" transform="scale(0.015625)"/>
      <path id="DejaVuSans-61" d="M 2194 1759 
Q 1497 1759 1228 1600 
Q 959 1441 959 1056 
Q 959 750 1161 570 
Q 1363 391 1709 391 
Q 2188 391 2477 730 
Q 2766 1069 2766 1631 
L 2766 1759 
L 2194 1759 
z
M 3341 1997 
L 3341 0 
L 2766 0 
L 2766 531 
Q 2569 213 2275 61 
Q 1981 -91 1556 -91 
Q 1019 -91 701 211 
Q 384 513 384 1019 
Q 384 1609 779 1909 
Q 1175 2209 1959 2209 
L 2766 2209 
L 2766 2266 
Q 2766 2663 2505 2880 
Q 2244 3097 1772 3097 
Q 1472 3097 1187 3025 
Q 903 2953 641 2809 
L 641 3341 
Q 956 3463 1253 3523 
Q 1550 3584 1831 3584 
Q 2591 3584 2966 3190 
Q 3341 2797 3341 1997 
z
" transform="scale(0.015625)"/>
      <path id="DejaVuSans-69" d="M 603 3500 
L 1178 3500 
L 1178 0 
L 603 0 
L 603 3500 
z
M 603 4863 
L 1178 4863 
L 1178 4134 
L 603 4134 
L 603 4863 
z
" transform="scale(0.015625)"/>
      <path id="DejaVuSans-6c" d="M 603 4863 
L 1178 4863 
L 1178 0 
L 603 0 
L 603 4863 
z
" transform="scale(0.015625)"/>
      <path id="DejaVuSans-79" d="M 2059 -325 
Q 1816 -950 1584 -1140 
Q 1353 -1331 966 -1331 
L 506 -1331 
L 506 -850 
L 844 -850 
Q 1081 -850 1212 -737 
Q 1344 -625 1503 -206 
L 1606 56 
L 191 3500 
L 800 3500 
L 1894 763 
L 2988 3500 
L 3597 3500 
L 2059 -325 
z
" transform="scale(0.015625)"/>
      <path id="DejaVuSans-20" transform="scale(0.015625)"/>
      <path id="DejaVuSans-43" d="M 4122 4306 
L 4122 3641 
Q 3803 3938 3442 4084 
Q 3081 4231 2675 4231 
Q 1875 4231 1450 3742 
Q 1025 3253 1025 2328 
Q 1025 1406 1450 917 
Q 1875 428 2675 428 
Q 3081 428 3442 575 
Q 3803 722 4122 1019 
L 4122 359 
Q 3791 134 3420 21 
Q 3050 -91 2638 -91 
Q 1578 -91 968 557 
Q 359 1206 359 2328 
Q 359 3453 968 4101 
Q 1578 4750 2638 4750 
Q 3056 4750 3426 4639 
Q 3797 4528 4122 4306 
z
" transform="scale(0.015625)"/>
      <path id="DejaVuSans-6f" d="M 1959 3097 
Q 1497 3097 1228 2736 
Q 959 2375 959 1747 
Q 959 1119 1226 758 
Q 1494 397 1959 397 
Q 2419 397 2687 759 
Q 2956 1122 2956 1747 
Q 2956 2369 2687 2733 
Q 2419 3097 1959 3097 
z
M 1959 3584 
Q 2709 3584 3137 3096 
Q 3566 2609 3566 1747 
Q 3566 888 3137 398 
Q 2709 -91 1959 -91 
Q 1206 -91 779 398 
Q 353 888 353 1747 
Q 353 2609 779 3096 
Q 1206 3584 1959 3584 
z
" transform="scale(0.015625)"/>
      <path id="DejaVuSans-6e" d="M 3513 2113 
L 3513 0 
L 2938 0 
L 2938 2094 
Q 2938 2591 2744 2837 
Q 2550 3084 2163 3084 
Q 1697 3084 1428 2787 
Q 1159 2491 1159 1978 
L 1159 0 
L 581 0 
L 581 3500 
L 1159 3500 
L 1159 2956 
Q 1366 3272 1645 3428 
Q 1925 3584 2291 3584 
Q 2894 3584 3203 3211 
Q 3513 2838 3513 2113 
z
" transform="scale(0.015625)"/>
      <path id="DejaVuSans-66" d="M 2375 4863 
L 2375 4384 
L 1825 4384 
Q 1516 4384 1395 4259 
Q 1275 4134 1275 3809 
L 1275 3500 
L 2222 3500 
L 2222 3053 
L 1275 3053 
L 1275 0 
L 697 0 
L 697 3053 
L 147 3053 
L 147 3500 
L 697 3500 
L 697 3744 
Q 697 4328 969 4595 
Q 1241 4863 1831 4863 
L 2375 4863 
z
" transform="scale(0.015625)"/>
      <path id="DejaVuSans-72" d="M 2631 2963 
Q 2534 3019 2420 3045 
Q 2306 3072 2169 3072 
Q 1681 3072 1420 2755 
Q 1159 2438 1159 1844 
L 1159 0 
L 581 0 
L 581 3500 
L 1159 3500 
L 1159 2956 
Q 1341 3275 1631 3429 
Q 1922 3584 2338 3584 
Q 2397 3584 2469 3576 
Q 2541 3569 2628 3553 
L 2631 2963 
z
" transform="scale(0.015625)"/>
      <path id="DejaVuSans-6d" d="M 3328 2828 
Q 3544 3216 3844 3400 
Q 4144 3584 4550 3584 
Q 5097 3584 5394 3201 
Q 5691 2819 5691 2113 
L 5691 0 
L 5113 0 
L 5113 2094 
Q 5113 2597 4934 2840 
Q 4756 3084 4391 3084 
Q 3944 3084 3684 2787 
Q 3425 2491 3425 1978 
L 3425 0 
L 2847 0 
L 2847 2094 
Q 2847 2600 2669 2842 
Q 2491 3084 2119 3084 
Q 1678 3084 1418 2786 
Q 1159 2488 1159 1978 
L 1159 0 
L 581 0 
L 581 3500 
L 1159 3500 
L 1159 2956 
Q 1356 3278 1631 3431 
Q 1906 3584 2284 3584 
Q 2666 3584 2933 3390 
Q 3200 3197 3328 2828 
z
" transform="scale(0.015625)"/>
      <path id="DejaVuSans-65" d="M 3597 1894 
L 3597 1613 
L 953 1613 
Q 991 1019 1311 708 
Q 1631 397 2203 397 
Q 2534 397 2845 478 
Q 3156 559 3463 722 
L 3463 178 
Q 3153 47 2828 -22 
Q 2503 -91 2169 -91 
Q 1331 -91 842 396 
Q 353 884 353 1716 
Q 353 2575 817 3079 
Q 1281 3584 2069 3584 
Q 2775 3584 3186 3129 
Q 3597 2675 3597 1894 
z
M 3022 2063 
Q 3016 2534 2758 2815 
Q 2500 3097 2075 3097 
Q 1594 3097 1305 2825 
Q 1016 2553 972 2059 
L 3022 2063 
z
" transform="scale(0.015625)"/>
      <path id="DejaVuSans-64" d="M 2906 2969 
L 2906 4863 
L 3481 4863 
L 3481 0 
L 2906 0 
L 2906 525 
Q 2725 213 2448 61 
Q 2172 -91 1784 -91 
Q 1150 -91 751 415 
Q 353 922 353 1747 
Q 353 2572 751 3078 
Q 1150 3584 1784 3584 
Q 2172 3584 2448 3432 
Q 2725 3281 2906 2969 
z
M 947 1747 
Q 947 1113 1208 752 
Q 1469 391 1925 391 
Q 2381 391 2643 752 
Q 2906 1113 2906 1747 
Q 2906 2381 2643 2742 
Q 2381 3103 1925 3103 
Q 1469 3103 1208 2742 
Q 947 2381 947 1747 
z
" transform="scale(0.015625)"/>
      <path id="DejaVuSans-73" d="M 2834 3397 
L 2834 2853 
Q 2591 2978 2328 3040 
Q 2066 3103 1784 3103 
Q 1356 3103 1142 2972 
Q 928 2841 928 2578 
Q 928 2378 1081 2264 
Q 1234 2150 1697 2047 
L 1894 2003 
Q 2506 1872 2764 1633 
Q 3022 1394 3022 966 
Q 3022 478 2636 193 
Q 2250 -91 1575 -91 
Q 1294 -91 989 -36 
Q 684 19 347 128 
L 347 722 
Q 666 556 975 473 
Q 1284 391 1588 391 
Q 1994 391 2212 530 
Q 2431 669 2431 922 
Q 2431 1156 2273 1281 
Q 2116 1406 1581 1522 
L 1381 1569 
Q 847 1681 609 1914 
Q 372 2147 372 2553 
Q 372 3047 722 3315 
Q 1072 3584 1716 3584 
Q 2034 3584 2315 3537 
Q 2597 3491 2834 3397 
z
" transform="scale(0.015625)"/>
      <path id="DejaVuSans-46" d="M 628 4666 
L 3309 4666 
L 3309 4134 
L 1259 4134 
L 1259 2759 
L 3109 2759 
L 3109 2228 
L 1259 2228 
L 1259 0 
L 628 0 
L 628 4666 
z
" transform="scale(0.015625)"/>
      <path id="DejaVuSans-63" d="M 3122 3366 
L 3122 2828 
Q 2878 2963 2633 3030 
Q 2388 3097 2138 3097 
Q 1578 3097 1268 2742 
Q 959 2388 959 1747 
Q 959 1106 1268 751 
Q 1578 397 2138 397 
Q 2388 397 2633 464 
Q 2878 531 3122 666 
L 3122 134 
Q 2881 22 2623 -34 
Q 2366 -91 2075 -91 
Q 1284 -91 818 406 
Q 353 903 353 1747 
Q 353 2603 823 3093 
Q 1294 3584 2113 3584 
Q 2378 3584 2631 3529 
Q 2884 3475 3122 3366 
z
" transform="scale(0.015625)"/>
      <path id="DejaVuSans-74" d="M 1172 4494 
L 1172 3500 
L 2356 3500 
L 2356 3053 
L 1172 3053 
L 1172 1153 
Q 1172 725 1289 603 
Q 1406 481 1766 481 
L 2356 481 
L 2356 0 
L 1766 0 
Q 1100 0 847 248 
Q 594 497 594 1153 
L 594 3053 
L 172 3053 
L 172 3500 
L 594 3500 
L 594 4494 
L 1172 4494 
z
" transform="scale(0.015625)"/>
      <path id="DejaVuSans-67" d="M 2906 1791 
Q 2906 2416 2648 2759 
Q 2391 3103 1925 3103 
Q 1463 3103 1205 2759 
Q 947 2416 947 1791 
Q 947 1169 1205 825 
Q 1463 481 1925 481 
Q 2391 481 2648 825 
Q 2906 1169 2906 1791 
z
M 3481 434 
Q 3481 -459 3084 -895 
Q 2688 -1331 1869 -1331 
Q 1566 -1331 1297 -1286 
Q 1028 -1241 775 -1147 
L 775 -588 
Q 1028 -725 1275 -790 
Q 1522 -856 1778 -856 
Q 2344 -856 2625 -561 
Q 2906 -266 2906 331 
L 2906 616 
Q 2728 306 2450 153 
Q 2172 0 1784 0 
Q 1141 0 747 490 
Q 353 981 353 1791 
Q 353 2603 747 3093 
Q 1141 3584 1784 3584 
Q 2172 3584 2450 3431 
Q 2728 3278 2906 2969 
L 2906 3500 
L 3481 3500 
L 3481 434 
z
" transform="scale(0.015625)"/>
      <path id="DejaVuSans-4b" d="M 628 4666 
L 1259 4666 
L 1259 2694 
L 3353 4666 
L 4166 4666 
L 1850 2491 
L 4331 0 
L 3500 0 
L 1259 2247 
L 1259 0 
L 628 0 
L 628 4666 
z
" transform="scale(0.015625)"/>
      <path id="DejaVuSans-75" d="M 544 1381 
L 544 3500 
L 1119 3500 
L 1119 1403 
Q 1119 906 1312 657 
Q 1506 409 1894 409 
Q 2359 409 2629 706 
Q 2900 1003 2900 1516 
L 2900 3500 
L 3475 3500 
L 3475 0 
L 2900 0 
L 2900 538 
Q 2691 219 2414 64 
Q 2138 -91 1772 -91 
Q 1169 -91 856 284 
Q 544 659 544 1381 
z
M 1991 3584 
L 1991 3584 
z
" transform="scale(0.015625)"/>
      <path id="DejaVuSans-77" d="M 269 3500 
L 844 3500 
L 1563 769 
L 2278 3500 
L 2956 3500 
L 3675 769 
L 4391 3500 
L 4966 3500 
L 4050 0 
L 3372 0 
L 2619 2869 
L 1863 0 
L 1184 0 
L 269 3500 
z
" transform="scale(0.015625)"/>
     </defs>
     <use xlink:href="#DejaVuSans-44"/>
     <use xlink:href="#DejaVuSans-61" x="77.001953"/>
     <use xlink:href="#DejaVuSans-69" x="138.28125"/>
     <use xlink:href="#DejaVuSans-6c" x="166.064453"/>
     <use xlink:href="#DejaVuSans-79" x="193.847656"/>
     <use xlink:href="#DejaVuSans-20" x="253.027344"/>
     <use xlink:href="#DejaVuSans-43" x="284.814453"/>
     <use xlink:href="#DejaVuSans-6f" x="354.638672"/>
     <use xlink:href="#DejaVuSans-6e" x="415.820312"/>
     <use xlink:href="#DejaVuSans-66" x="479.199219"/>
     <use xlink:href="#DejaVuSans-69" x="514.404297"/>
     <use xlink:href="#DejaVuSans-72" x="542.1875"/>
     <use xlink:href="#DejaVuSans-6d" x="581.550781"/>
     <use xlink:href="#DejaVuSans-65" x="678.962891"/>
     <use xlink:href="#DejaVuSans-64" x="740.486328"/>
     <use xlink:href="#DejaVuSans-20" x="803.962891"/>
     <use xlink:href="#DejaVuSans-43" x="835.75"/>
     <use xlink:href="#DejaVuSans-61" x="905.574219"/>
     <use xlink:href="#DejaVuSans-73" x="966.853516"/>
     <use xlink:href="#DejaVuSans-65" x="1018.953125"/>
     <use xlink:href="#DejaVuSans-73" x="1080.476562"/>
     <use xlink:href="#DejaVuSans-20" x="1132.576172"/>
     <use xlink:href="#DejaVuSans-46" x="1164.363281"/>
     <use xlink:href="#DejaVuSans-6f" x="1218.257812"/>
     <use xlink:href="#DejaVuSans-72" x="1279.439453"/>
     <use xlink:href="#DejaVuSans-65" x="1318.302734"/>
     <use xlink:href="#DejaVuSans-63" x="1379.826172"/>
     <use xlink:href="#DejaVuSans-61" x="1434.806641"/>
     <use xlink:href="#DejaVuSans-73" x="1496.085938"/>
     <use xlink:href="#DejaVuSans-74" x="1548.185547"/>
     <use xlink:href="#DejaVuSans-69" x="1587.394531"/>
     <use xlink:href="#DejaVuSans-6e" x="1615.177734"/>
     <use xlink:href="#DejaVuSans-67" x="1678.556641"/>
     <use xlink:href="#DejaVuSans-20" x="1742.033203"/>
     <use xlink:href="#DejaVuSans-2d" x="1773.820312"/>
     <use xlink:href="#DejaVuSans-20" x="1809.904297"/>
     <use xlink:href="#DejaVuSans-4b" x="1841.691406"/>
     <use xlink:href="#DejaVuSans-75" x="1902.267578"/>
     <use xlink:href="#DejaVuSans-77" x="1965.646484"/>
     <use xlink:href="#DejaVuSans-61" x="2047.433594"/>
     <use xlink:href="#DejaVuSans-69" x="2108.712891"/>
     <use xlink:href="#DejaVuSans-74" x="2136.496094"/>
    </g>
    <!-- ARIMA (0, 1, 1)x(1, 0, 1, 7) (R2 = 0.889382) -->
    <g transform="translate(577.265938 29.7555)scale(0.12 -0.12)">
     <defs>
      <path id="DejaVuSans-41" d="M 2188 4044 
L 1331 1722 
L 3047 1722 
L 2188 4044 
z
M 1831 4666 
L 2547 4666 
L 4325 0 
L 3669 0 
L 3244 1197 
L 1141 1197 
L 716 0 
L 50 0 
L 1831 4666 
z
" transform="scale(0.015625)"/>
      <path id="DejaVuSans-52" d="M 2841 2188 
Q 3044 2119 3236 1894 
Q 3428 1669 3622 1275 
L 4263 0 
L 3584 0 
L 2988 1197 
Q 2756 1666 2539 1819 
Q 2322 1972 1947 1972 
L 1259 1972 
L 1259 0 
L 628 0 
L 628 4666 
L 2053 4666 
Q 2853 4666 3247 4331 
Q 3641 3997 3641 3322 
Q 3641 2881 3436 2590 
Q 3231 2300 2841 2188 
z
M 1259 4147 
L 1259 2491 
L 2053 2491 
Q 2509 2491 2742 2702 
Q 2975 2913 2975 3322 
Q 2975 3731 2742 3939 
Q 2509 4147 2053 4147 
L 1259 4147 
z
" transform="scale(0.015625)"/>
      <path id="DejaVuSans-49" d="M 628 4666 
L 1259 4666 
L 1259 0 
L 628 0 
L 628 4666 
z
" transform="scale(0.015625)"/>
      <path id="DejaVuSans-4d" d="M 628 4666 
L 1569 4666 
L 2759 1491 
L 3956 4666 
L 4897 4666 
L 4897 0 
L 4281 0 
L 4281 4097 
L 3078 897 
L 2444 897 
L 1241 4097 
L 1241 0 
L 628 0 
L 628 4666 
z
" transform="scale(0.015625)"/>
      <path id="DejaVuSans-28" d="M 1984 4856 
Q 1566 4138 1362 3434 
Q 1159 2731 1159 2009 
Q 1159 1288 1364 580 
Q 1569 -128 1984 -844 
L 1484 -844 
Q 1016 -109 783 600 
Q 550 1309 550 2009 
Q 550 2706 781 3412 
Q 1013 4119 1484 4856 
L 1984 4856 
z
" transform="scale(0.015625)"/>
      <path id="DejaVuSans-2c" d="M 750 794 
L 1409 794 
L 1409 256 
L 897 -744 
L 494 -744 
L 750 256 
L 750 794 
z
" transform="scale(0.015625)"/>
      <path id="DejaVuSans-29" d="M 513 4856 
L 1013 4856 
Q 1481 4119 1714 3412 
Q 1947 2706 1947 2009 
Q 1947 1309 1714 600 
Q 1481 -109 1013 -844 
L 513 -844 
Q 928 -128 1133 580 
Q 1338 1288 1338 2009 
Q 1338 2731 1133 3434 
Q 928 4138 513 4856 
z
" transform="scale(0.015625)"/>
      <path id="DejaVuSans-78" d="M 3513 3500 
L 2247 1797 
L 3578 0 
L 2900 0 
L 1881 1375 
L 863 0 
L 184 0 
L 1544 1831 
L 300 3500 
L 978 3500 
L 1906 2253 
L 2834 3500 
L 3513 3500 
z
" transform="scale(0.015625)"/>
      <path id="DejaVuSans-3d" d="M 678 2906 
L 4684 2906 
L 4684 2381 
L 678 2381 
L 678 2906 
z
M 678 1631 
L 4684 1631 
L 4684 1100 
L 678 1100 
L 678 1631 
z
" transform="scale(0.015625)"/>
      <path id="DejaVuSans-2e" d="M 684 794 
L 1344 794 
L 1344 0 
L 684 0 
L 684 794 
z
" transform="scale(0.015625)"/>
      <path id="DejaVuSans-38" d="M 2034 2216 
Q 1584 2216 1326 1975 
Q 1069 1734 1069 1313 
Q 1069 891 1326 650 
Q 1584 409 2034 409 
Q 2484 409 2743 651 
Q 3003 894 3003 1313 
Q 3003 1734 2745 1975 
Q 2488 2216 2034 2216 
z
M 1403 2484 
Q 997 2584 770 2862 
Q 544 3141 544 3541 
Q 544 4100 942 4425 
Q 1341 4750 2034 4750 
Q 2731 4750 3128 4425 
Q 3525 4100 3525 3541 
Q 3525 3141 3298 2862 
Q 3072 2584 2669 2484 
Q 3125 2378 3379 2068 
Q 3634 1759 3634 1313 
Q 3634 634 3220 271 
Q 2806 -91 2034 -91 
Q 1263 -91 848 271 
Q 434 634 434 1313 
Q 434 1759 690 2068 
Q 947 2378 1403 2484 
z
M 1172 3481 
Q 1172 3119 1398 2916 
Q 1625 2713 2034 2713 
Q 2441 2713 2670 2916 
Q 2900 3119 2900 3481 
Q 2900 3844 2670 4047 
Q 2441 4250 2034 4250 
Q 1625 4250 1398 4047 
Q 1172 3844 1172 3481 
z
" transform="scale(0.015625)"/>
      <path id="DejaVuSans-39" d="M 703 97 
L 703 672 
Q 941 559 1184 500 
Q 1428 441 1663 441 
Q 2288 441 2617 861 
Q 2947 1281 2994 2138 
Q 2813 1869 2534 1725 
Q 2256 1581 1919 1581 
Q 1219 1581 811 2004 
Q 403 2428 403 3163 
Q 403 3881 828 4315 
Q 1253 4750 1959 4750 
Q 2769 4750 3195 4129 
Q 3622 3509 3622 2328 
Q 3622 1225 3098 567 
Q 2575 -91 1691 -91 
Q 1453 -91 1209 -44 
Q 966 3 703 97 
z
M 1959 2075 
Q 2384 2075 2632 2365 
Q 2881 2656 2881 3163 
Q 2881 3666 2632 3958 
Q 2384 4250 1959 4250 
Q 1534 4250 1286 3958 
Q 1038 3666 1038 3163 
Q 1038 2656 1286 2365 
Q 1534 2075 1959 2075 
z
" transform="scale(0.015625)"/>
     </defs>
     <use xlink:href="#DejaVuSans-41"/>
     <use xlink:href="#DejaVuSans-52" x="68.408203"/>
     <use xlink:href="#DejaVuSans-49" x="137.890625"/>
     <use xlink:href="#DejaVuSans-4d" x="167.382812"/>
     <use xlink:href="#DejaVuSans-41" x="253.662109"/>
     <use xlink:href="#DejaVuSans-20" x="322.070312"/>
     <use xlink:href="#DejaVuSans-28" x="353.857422"/>
     <use xlink:href="#DejaVuSans-30" x="392.871094"/>
     <use xlink:href="#DejaVuSans-2c" x="456.494141"/>
     <use xlink:href="#DejaVuSans-20" x="488.28125"/>
     <use xlink:href="#DejaVuSans-31" x="520.068359"/>
     <use xlink:href="#DejaVuSans-2c" x="583.691406"/>
     <use xlink:href="#DejaVuSans-20" x="615.478516"/>
     <use xlink:href="#DejaVuSans-31" x="647.265625"/>
     <use xlink:href="#DejaVuSans-29" x="710.888672"/>
     <use xlink:href="#DejaVuSans-78" x="749.902344"/>
     <use xlink:href="#DejaVuSans-28" x="809.082031"/>
     <use xlink:href="#DejaVuSans-31" x="848.095703"/>
     <use xlink:href="#DejaVuSans-2c" x="911.71875"/>
     <use xlink:href="#DejaVuSans-20" x="943.505859"/>
     <use xlink:href="#DejaVuSans-30" x="975.292969"/>
     <use xlink:href="#DejaVuSans-2c" x="1038.916016"/>
     <use xlink:href="#DejaVuSans-20" x="1070.703125"/>
     <use xlink:href="#DejaVuSans-31" x="1102.490234"/>
     <use xlink:href="#DejaVuSans-2c" x="1166.113281"/>
     <use xlink:href="#DejaVuSans-20" x="1197.900391"/>
     <use xlink:href="#DejaVuSans-37" x="1229.6875"/>
     <use xlink:href="#DejaVuSans-29" x="1293.310547"/>
     <use xlink:href="#DejaVuSans-20" x="1332.324219"/>
     <use xlink:href="#DejaVuSans-28" x="1364.111328"/>
     <use xlink:href="#DejaVuSans-52" x="1403.125"/>
     <use xlink:href="#DejaVuSans-32" x="1472.607422"/>
     <use xlink:href="#DejaVuSans-20" x="1536.230469"/>
     <use xlink:href="#DejaVuSans-3d" x="1568.017578"/>
     <use xlink:href="#DejaVuSans-20" x="1651.806641"/>
     <use xlink:href="#DejaVuSans-30" x="1683.59375"/>
     <use xlink:href="#DejaVuSans-2e" x="1747.216797"/>
     <use xlink:href="#DejaVuSans-38" x="1779.003906"/>
     <use xlink:href="#DejaVuSans-38" x="1842.626953"/>
     <use xlink:href="#DejaVuSans-39" x="1906.25"/>
     <use xlink:href="#DejaVuSans-33" x="1969.873047"/>
     <use xlink:href="#DejaVuSans-38" x="2033.496094"/>
     <use xlink:href="#DejaVuSans-32" x="2097.119141"/>
     <use xlink:href="#DejaVuSans-29" x="2160.742188"/>
    </g>
   </g>
   <g id="legend_1">
    <g id="patch_7">
     <path d="M 1274.770313 87.789875 
L 1371.85 87.789875 
Q 1373.85 87.789875 1373.85 85.789875 
L 1373.85 42.7555 
Q 1373.85 40.7555 1371.85 40.7555 
L 1274.770313 40.7555 
Q 1272.770313 40.7555 1272.770313 42.7555 
L 1272.770313 85.789875 
Q 1272.770313 87.789875 1274.770313 87.789875 
z
" style="fill: #ffffff; opacity: 0.8; stroke: #cccccc; stroke-linejoin: miter"/>
    </g>
    <g id="line2d_23">
     <path d="M 1276.770313 48.853937 
L 1286.770313 48.853937 
L 1296.770313 48.853937 
" style="fill: none; stroke: #0000ff; stroke-width: 1.5; stroke-linecap: square"/>
    </g>
    <g id="text_21">
     <!-- Actual Value -->
     <g transform="translate(1304.770313 52.353937)scale(0.1 -0.1)">
      <defs>
       <path id="DejaVuSans-56" d="M 1831 0 
L 50 4666 
L 709 4666 
L 2188 738 
L 3669 4666 
L 4325 4666 
L 2547 0 
L 1831 0 
z
" transform="scale(0.015625)"/>
      </defs>
      <use xlink:href="#DejaVuSans-41"/>
      <use xlink:href="#DejaVuSans-63" x="66.658203"/>
      <use xlink:href="#DejaVuSans-74" x="121.638672"/>
      <use xlink:href="#DejaVuSans-75" x="160.847656"/>
      <use xlink:href="#DejaVuSans-61" x="224.226562"/>
      <use xlink:href="#DejaVuSans-6c" x="285.505859"/>
      <use xlink:href="#DejaVuSans-20" x="313.289062"/>
      <use xlink:href="#DejaVuSans-56" x="345.076172"/>
      <use xlink:href="#DejaVuSans-61" x="405.734375"/>
      <use xlink:href="#DejaVuSans-6c" x="467.013672"/>
      <use xlink:href="#DejaVuSans-75" x="494.796875"/>
      <use xlink:href="#DejaVuSans-65" x="558.175781"/>
     </g>
    </g>
    <g id="line2d_24">
     <path d="M 1276.770313 63.532062 
L 1286.770313 63.532062 
L 1296.770313 63.532062 
" style="fill: none; stroke: #ffa500; stroke-width: 1.5; stroke-linecap: square"/>
    </g>
    <g id="text_22">
     <!-- Check Value -->
     <g transform="translate(1304.770313 67.032062)scale(0.1 -0.1)">
      <defs>
       <path id="DejaVuSans-68" d="M 3513 2113 
L 3513 0 
L 2938 0 
L 2938 2094 
Q 2938 2591 2744 2837 
Q 2550 3084 2163 3084 
Q 1697 3084 1428 2787 
Q 1159 2491 1159 1978 
L 1159 0 
L 581 0 
L 581 4863 
L 1159 4863 
L 1159 2956 
Q 1366 3272 1645 3428 
Q 1925 3584 2291 3584 
Q 2894 3584 3203 3211 
Q 3513 2838 3513 2113 
z
" transform="scale(0.015625)"/>
       <path id="DejaVuSans-6b" d="M 581 4863 
L 1159 4863 
L 1159 1991 
L 2875 3500 
L 3609 3500 
L 1753 1863 
L 3688 0 
L 2938 0 
L 1159 1709 
L 1159 0 
L 581 0 
L 581 4863 
z
" transform="scale(0.015625)"/>
      </defs>
      <use xlink:href="#DejaVuSans-43"/>
      <use xlink:href="#DejaVuSans-68" x="69.824219"/>
      <use xlink:href="#DejaVuSans-65" x="133.203125"/>
      <use xlink:href="#DejaVuSans-63" x="194.726562"/>
      <use xlink:href="#DejaVuSans-6b" x="249.707031"/>
      <use xlink:href="#DejaVuSans-20" x="307.617188"/>
      <use xlink:href="#DejaVuSans-56" x="339.404297"/>
      <use xlink:href="#DejaVuSans-61" x="400.0625"/>
      <use xlink:href="#DejaVuSans-6c" x="461.341797"/>
      <use xlink:href="#DejaVuSans-75" x="489.125"/>
      <use xlink:href="#DejaVuSans-65" x="552.503906"/>
     </g>
    </g>
    <g id="line2d_25">
     <path d="M 1276.770313 78.210187 
L 1286.770313 78.210187 
L 1296.770313 78.210187 
" style="fill: none; stroke: #ff0000; stroke-width: 1.5; stroke-linecap: square"/>
    </g>
    <g id="text_23">
     <!-- Predict Value -->
     <g transform="translate(1304.770313 81.710187)scale(0.1 -0.1)">
      <defs>
       <path id="DejaVuSans-50" d="M 1259 4147 
L 1259 2394 
L 2053 2394 
Q 2494 2394 2734 2622 
Q 2975 2850 2975 3272 
Q 2975 3691 2734 3919 
Q 2494 4147 2053 4147 
L 1259 4147 
z
M 628 4666 
L 2053 4666 
Q 2838 4666 3239 4311 
Q 3641 3956 3641 3272 
Q 3641 2581 3239 2228 
Q 2838 1875 2053 1875 
L 1259 1875 
L 1259 0 
L 628 0 
L 628 4666 
z
" transform="scale(0.015625)"/>
      </defs>
      <use xlink:href="#DejaVuSans-50"/>
      <use xlink:href="#DejaVuSans-72" x="58.552734"/>
      <use xlink:href="#DejaVuSans-65" x="97.416016"/>
      <use xlink:href="#DejaVuSans-64" x="158.939453"/>
      <use xlink:href="#DejaVuSans-69" x="222.416016"/>
      <use xlink:href="#DejaVuSans-63" x="250.199219"/>
      <use xlink:href="#DejaVuSans-74" x="305.179688"/>
      <use xlink:href="#DejaVuSans-20" x="344.388672"/>
      <use xlink:href="#DejaVuSans-56" x="376.175781"/>
      <use xlink:href="#DejaVuSans-61" x="436.833984"/>
      <use xlink:href="#DejaVuSans-6c" x="498.113281"/>
      <use xlink:href="#DejaVuSans-75" x="525.896484"/>
      <use xlink:href="#DejaVuSans-65" x="589.275391"/>
     </g>
    </g>
   </g>
  </g>
 </g>
 <defs>
  <clipPath id="pb8ea2eda4d">
   <rect x="39.65" y="35.7555" width="1339.2" height="332.64"/>
  </clipPath>
 </defs>
</svg>
