<?xml version="1.0" encoding="utf-8" standalone="no"?>
<!DOCTYPE svg PUBLIC "-//W3C//DTD SVG 1.1//EN"
  "http://www.w3.org/Graphics/SVG/1.1/DTD/svg11.dtd">
<svg xmlns:xlink="http://www.w3.org/1999/xlink" width="1397.389948pt" height="392.273625pt" viewBox="0 0 1397.389948 392.273625" xmlns="http://www.w3.org/2000/svg" version="1.1">
 <metadata>
  <rdf:RDF xmlns:dc="http://purl.org/dc/elements/1.1/" xmlns:cc="http://creativecommons.org/ns#" xmlns:rdf="http://www.w3.org/1999/02/22-rdf-syntax-ns#">
   <cc:Work>
    <dc:type rdf:resource="http://purl.org/dc/dcmitype/StillImage"/>
    <dc:date>2022-05-13T19:07:48.003633</dc:date>
    <dc:format>image/svg+xml</dc:format>
    <dc:creator>
     <cc:Agent>
      <dc:title>Matplotlib v3.5.1, https://matplotlib.org/</dc:title>
     </cc:Agent>
    </dc:creator>
   </cc:Work>
  </rdf:RDF>
 </metadata>
 <defs>
  <style type="text/css">*{stroke-linejoin: round; stroke-linecap: butt}</style>
 </defs>
 <g id="figure_1">
  <g id="patch_1">
   <path d="M 0 392.273625 
L 1397.389948 392.273625 
L 1397.389948 0 
L 0 0 
z
" style="fill: #ffffff"/>
  </g>
  <g id="axes_1">
   <g id="patch_2">
    <path d="M 39.65 368.3955 
L 1378.85 368.3955 
L 1378.85 35.7555 
L 39.65 35.7555 
z
" style="fill: #ffffff"/>
   </g>
   <g id="matplotlib.axis_1">
    <g id="xtick_1">
     <g id="line2d_1">
      <defs>
       <path id="m22ce150058" d="M 0 0 
L 0 3.5 
" style="stroke: #000000; stroke-width: 0.8"/>
      </defs>
      <g>
       <use xlink:href="#m22ce150058" x="69.15973" y="368.3955" style="stroke: #000000; stroke-width: 0.8"/>
      </g>
     </g>
     <g id="text_1">
      <!-- 2020-01 -->
      <g transform="translate(48.268323 382.993937)scale(0.1 -0.1)">
       <defs>
        <path id="DejaVuSans-32" d="M 1228 531 
L 3431 531 
L 3431 0 
L 469 0 
L 469 531 
Q 828 903 1448 1529 
Q 2069 2156 2228 2338 
Q 2531 2678 2651 2914 
Q 2772 3150 2772 3378 
Q 2772 3750 2511 3984 
Q 2250 4219 1831 4219 
Q 1534 4219 1204 4116 
Q 875 4013 500 3803 
L 500 4441 
Q 881 4594 1212 4672 
Q 1544 4750 1819 4750 
Q 2544 4750 2975 4387 
Q 3406 4025 3406 3419 
Q 3406 3131 3298 2873 
Q 3191 2616 2906 2266 
Q 2828 2175 2409 1742 
Q 1991 1309 1228 531 
z
" transform="scale(0.015625)"/>
        <path id="DejaVuSans-30" d="M 2034 4250 
Q 1547 4250 1301 3770 
Q 1056 3291 1056 2328 
Q 1056 1369 1301 889 
Q 1547 409 2034 409 
Q 2525 409 2770 889 
Q 3016 1369 3016 2328 
Q 3016 3291 2770 3770 
Q 2525 4250 2034 4250 
z
M 2034 4750 
Q 2819 4750 3233 4129 
Q 3647 3509 3647 2328 
Q 3647 1150 3233 529 
Q 2819 -91 2034 -91 
Q 1250 -91 836 529 
Q 422 1150 422 2328 
Q 422 3509 836 4129 
Q 1250 4750 2034 4750 
z
" transform="scale(0.015625)"/>
        <path id="DejaVuSans-2d" d="M 313 2009 
L 1997 2009 
L 1997 1497 
L 313 1497 
L 313 2009 
z
" transform="scale(0.015625)"/>
        <path id="DejaVuSans-31" d="M 794 531 
L 1825 531 
L 1825 4091 
L 703 3866 
L 703 4441 
L 1819 4666 
L 2450 4666 
L 2450 531 
L 3481 531 
L 3481 0 
L 794 0 
L 794 531 
z
" transform="scale(0.015625)"/>
       </defs>
       <use xlink:href="#DejaVuSans-32"/>
       <use xlink:href="#DejaVuSans-30" x="63.623047"/>
       <use xlink:href="#DejaVuSans-32" x="127.246094"/>
       <use xlink:href="#DejaVuSans-30" x="190.869141"/>
       <use xlink:href="#DejaVuSans-2d" x="254.492188"/>
       <use xlink:href="#DejaVuSans-30" x="290.576172"/>
       <use xlink:href="#DejaVuSans-31" x="354.199219"/>
      </g>
     </g>
    </g>
    <g id="xtick_2">
     <g id="line2d_2">
      <g>
       <use xlink:href="#m22ce150058" x="198.888493" y="368.3955" style="stroke: #000000; stroke-width: 0.8"/>
      </g>
     </g>
     <g id="text_2">
      <!-- 2020-04 -->
      <g transform="translate(177.997086 382.993937)scale(0.1 -0.1)">
       <defs>
        <path id="DejaVuSans-34" d="M 2419 4116 
L 825 1625 
L 2419 1625 
L 2419 4116 
z
M 2253 4666 
L 3047 4666 
L 3047 1625 
L 3713 1625 
L 3713 1100 
L 3047 1100 
L 3047 0 
L 2419 0 
L 2419 1100 
L 313 1100 
L 313 1709 
L 2253 4666 
z
" transform="scale(0.015625)"/>
       </defs>
       <use xlink:href="#DejaVuSans-32"/>
       <use xlink:href="#DejaVuSans-30" x="63.623047"/>
       <use xlink:href="#DejaVuSans-32" x="127.246094"/>
       <use xlink:href="#DejaVuSans-30" x="190.869141"/>
       <use xlink:href="#DejaVuSans-2d" x="254.492188"/>
       <use xlink:href="#DejaVuSans-30" x="290.576172"/>
       <use xlink:href="#DejaVuSans-34" x="354.199219"/>
      </g>
     </g>
    </g>
    <g id="xtick_3">
     <g id="line2d_3">
      <g>
       <use xlink:href="#m22ce150058" x="328.617256" y="368.3955" style="stroke: #000000; stroke-width: 0.8"/>
      </g>
     </g>
     <g id="text_3">
      <!-- 2020-07 -->
      <g transform="translate(307.725849 382.993937)scale(0.1 -0.1)">
       <defs>
        <path id="DejaVuSans-37" d="M 525 4666 
L 3525 4666 
L 3525 4397 
L 1831 0 
L 1172 0 
L 2766 4134 
L 525 4134 
L 525 4666 
z
" transform="scale(0.015625)"/>
       </defs>
       <use xlink:href="#DejaVuSans-32"/>
       <use xlink:href="#DejaVuSans-30" x="63.623047"/>
       <use xlink:href="#DejaVuSans-32" x="127.246094"/>
       <use xlink:href="#DejaVuSans-30" x="190.869141"/>
       <use xlink:href="#DejaVuSans-2d" x="254.492188"/>
       <use xlink:href="#DejaVuSans-30" x="290.576172"/>
       <use xlink:href="#DejaVuSans-37" x="354.199219"/>
      </g>
     </g>
    </g>
    <g id="xtick_4">
     <g id="line2d_4">
      <g>
       <use xlink:href="#m22ce150058" x="459.77161" y="368.3955" style="stroke: #000000; stroke-width: 0.8"/>
      </g>
     </g>
     <g id="text_4">
      <!-- 2020-10 -->
      <g transform="translate(438.880203 382.993937)scale(0.1 -0.1)">
       <use xlink:href="#DejaVuSans-32"/>
       <use xlink:href="#DejaVuSans-30" x="63.623047"/>
       <use xlink:href="#DejaVuSans-32" x="127.246094"/>
       <use xlink:href="#DejaVuSans-30" x="190.869141"/>
       <use xlink:href="#DejaVuSans-2d" x="254.492188"/>
       <use xlink:href="#DejaVuSans-31" x="290.576172"/>
       <use xlink:href="#DejaVuSans-30" x="354.199219"/>
      </g>
     </g>
    </g>
    <g id="xtick_5">
     <g id="line2d_5">
      <g>
       <use xlink:href="#m22ce150058" x="590.925963" y="368.3955" style="stroke: #000000; stroke-width: 0.8"/>
      </g>
     </g>
     <g id="text_5">
      <!-- 2021-01 -->
      <g transform="translate(570.034557 382.993937)scale(0.1 -0.1)">
       <use xlink:href="#DejaVuSans-32"/>
       <use xlink:href="#DejaVuSans-30" x="63.623047"/>
       <use xlink:href="#DejaVuSans-32" x="127.246094"/>
       <use xlink:href="#DejaVuSans-31" x="190.869141"/>
       <use xlink:href="#DejaVuSans-2d" x="254.492188"/>
       <use xlink:href="#DejaVuSans-30" x="290.576172"/>
       <use xlink:href="#DejaVuSans-31" x="354.199219"/>
      </g>
     </g>
    </g>
    <g id="xtick_6">
     <g id="line2d_6">
      <g>
       <use xlink:href="#m22ce150058" x="719.229136" y="368.3955" style="stroke: #000000; stroke-width: 0.8"/>
      </g>
     </g>
     <g id="text_6">
      <!-- 2021-04 -->
      <g transform="translate(698.337729 382.993937)scale(0.1 -0.1)">
       <use xlink:href="#DejaVuSans-32"/>
       <use xlink:href="#DejaVuSans-30" x="63.623047"/>
       <use xlink:href="#DejaVuSans-32" x="127.246094"/>
       <use xlink:href="#DejaVuSans-31" x="190.869141"/>
       <use xlink:href="#DejaVuSans-2d" x="254.492188"/>
       <use xlink:href="#DejaVuSans-30" x="290.576172"/>
       <use xlink:href="#DejaVuSans-34" x="354.199219"/>
      </g>
     </g>
    </g>
    <g id="xtick_7">
     <g id="line2d_7">
      <g>
       <use xlink:href="#m22ce150058" x="848.957899" y="368.3955" style="stroke: #000000; stroke-width: 0.8"/>
      </g>
     </g>
     <g id="text_7">
      <!-- 2021-07 -->
      <g transform="translate(828.066492 382.993937)scale(0.1 -0.1)">
       <use xlink:href="#DejaVuSans-32"/>
       <use xlink:href="#DejaVuSans-30" x="63.623047"/>
       <use xlink:href="#DejaVuSans-32" x="127.246094"/>
       <use xlink:href="#DejaVuSans-31" x="190.869141"/>
       <use xlink:href="#DejaVuSans-2d" x="254.492188"/>
       <use xlink:href="#DejaVuSans-30" x="290.576172"/>
       <use xlink:href="#DejaVuSans-37" x="354.199219"/>
      </g>
     </g>
    </g>
    <g id="xtick_8">
     <g id="line2d_8">
      <g>
       <use xlink:href="#m22ce150058" x="980.112253" y="368.3955" style="stroke: #000000; stroke-width: 0.8"/>
      </g>
     </g>
     <g id="text_8">
      <!-- 2021-10 -->
      <g transform="translate(959.220846 382.993937)scale(0.1 -0.1)">
       <use xlink:href="#DejaVuSans-32"/>
       <use xlink:href="#DejaVuSans-30" x="63.623047"/>
       <use xlink:href="#DejaVuSans-32" x="127.246094"/>
       <use xlink:href="#DejaVuSans-31" x="190.869141"/>
       <use xlink:href="#DejaVuSans-2d" x="254.492188"/>
       <use xlink:href="#DejaVuSans-31" x="290.576172"/>
       <use xlink:href="#DejaVuSans-30" x="354.199219"/>
      </g>
     </g>
    </g>
    <g id="xtick_9">
     <g id="line2d_9">
      <g>
       <use xlink:href="#m22ce150058" x="1111.266606" y="368.3955" style="stroke: #000000; stroke-width: 0.8"/>
      </g>
     </g>
     <g id="text_9">
      <!-- 2022-01 -->
      <g transform="translate(1090.3752 382.993937)scale(0.1 -0.1)">
       <use xlink:href="#DejaVuSans-32"/>
       <use xlink:href="#DejaVuSans-30" x="63.623047"/>
       <use xlink:href="#DejaVuSans-32" x="127.246094"/>
       <use xlink:href="#DejaVuSans-32" x="190.869141"/>
       <use xlink:href="#DejaVuSans-2d" x="254.492188"/>
       <use xlink:href="#DejaVuSans-30" x="290.576172"/>
       <use xlink:href="#DejaVuSans-31" x="354.199219"/>
      </g>
     </g>
    </g>
    <g id="xtick_10">
     <g id="line2d_10">
      <g>
       <use xlink:href="#m22ce150058" x="1239.569779" y="368.3955" style="stroke: #000000; stroke-width: 0.8"/>
      </g>
     </g>
     <g id="text_10">
      <!-- 2022-04 -->
      <g transform="translate(1218.678372 382.993937)scale(0.1 -0.1)">
       <use xlink:href="#DejaVuSans-32"/>
       <use xlink:href="#DejaVuSans-30" x="63.623047"/>
       <use xlink:href="#DejaVuSans-32" x="127.246094"/>
       <use xlink:href="#DejaVuSans-32" x="190.869141"/>
       <use xlink:href="#DejaVuSans-2d" x="254.492188"/>
       <use xlink:href="#DejaVuSans-30" x="290.576172"/>
       <use xlink:href="#DejaVuSans-34" x="354.199219"/>
      </g>
     </g>
    </g>
    <g id="xtick_11">
     <g id="line2d_11">
      <g>
       <use xlink:href="#m22ce150058" x="1369.298542" y="368.3955" style="stroke: #000000; stroke-width: 0.8"/>
      </g>
     </g>
     <g id="text_11">
      <!-- 2022-07 -->
      <g transform="translate(1348.407135 382.993937)scale(0.1 -0.1)">
       <use xlink:href="#DejaVuSans-32"/>
       <use xlink:href="#DejaVuSans-30" x="63.623047"/>
       <use xlink:href="#DejaVuSans-32" x="127.246094"/>
       <use xlink:href="#DejaVuSans-32" x="190.869141"/>
       <use xlink:href="#DejaVuSans-2d" x="254.492188"/>
       <use xlink:href="#DejaVuSans-30" x="290.576172"/>
       <use xlink:href="#DejaVuSans-37" x="354.199219"/>
      </g>
     </g>
    </g>
   </g>
   <g id="matplotlib.axis_2">
    <g id="ytick_1">
     <g id="line2d_12">
      <defs>
       <path id="mbc4b5c770b" d="M 0 0 
L -3.5 0 
" style="stroke: #000000; stroke-width: 0.8"/>
      </defs>
      <g>
       <use xlink:href="#mbc4b5c770b" x="39.65" y="353.209974" style="stroke: #000000; stroke-width: 0.8"/>
      </g>
     </g>
     <g id="text_12">
      <!-- 0 -->
      <g transform="translate(26.2875 357.009193)scale(0.1 -0.1)">
       <use xlink:href="#DejaVuSans-30"/>
      </g>
     </g>
    </g>
    <g id="ytick_2">
     <g id="line2d_13">
      <g>
       <use xlink:href="#mbc4b5c770b" x="39.65" y="304.001889" style="stroke: #000000; stroke-width: 0.8"/>
      </g>
     </g>
     <g id="text_13">
      <!-- 500 -->
      <g transform="translate(13.5625 307.801108)scale(0.1 -0.1)">
       <defs>
        <path id="DejaVuSans-35" d="M 691 4666 
L 3169 4666 
L 3169 4134 
L 1269 4134 
L 1269 2991 
Q 1406 3038 1543 3061 
Q 1681 3084 1819 3084 
Q 2600 3084 3056 2656 
Q 3513 2228 3513 1497 
Q 3513 744 3044 326 
Q 2575 -91 1722 -91 
Q 1428 -91 1123 -41 
Q 819 9 494 109 
L 494 744 
Q 775 591 1075 516 
Q 1375 441 1709 441 
Q 2250 441 2565 725 
Q 2881 1009 2881 1497 
Q 2881 1984 2565 2268 
Q 2250 2553 1709 2553 
Q 1456 2553 1204 2497 
Q 953 2441 691 2322 
L 691 4666 
z
" transform="scale(0.015625)"/>
       </defs>
       <use xlink:href="#DejaVuSans-35"/>
       <use xlink:href="#DejaVuSans-30" x="63.623047"/>
       <use xlink:href="#DejaVuSans-30" x="127.246094"/>
      </g>
     </g>
    </g>
    <g id="ytick_3">
     <g id="line2d_14">
      <g>
       <use xlink:href="#mbc4b5c770b" x="39.65" y="254.793804" style="stroke: #000000; stroke-width: 0.8"/>
      </g>
     </g>
     <g id="text_14">
      <!-- 1000 -->
      <g transform="translate(7.2 258.593023)scale(0.1 -0.1)">
       <use xlink:href="#DejaVuSans-31"/>
       <use xlink:href="#DejaVuSans-30" x="63.623047"/>
       <use xlink:href="#DejaVuSans-30" x="127.246094"/>
       <use xlink:href="#DejaVuSans-30" x="190.869141"/>
      </g>
     </g>
    </g>
    <g id="ytick_4">
     <g id="line2d_15">
      <g>
       <use xlink:href="#mbc4b5c770b" x="39.65" y="205.585719" style="stroke: #000000; stroke-width: 0.8"/>
      </g>
     </g>
     <g id="text_15">
      <!-- 1500 -->
      <g transform="translate(7.2 209.384938)scale(0.1 -0.1)">
       <use xlink:href="#DejaVuSans-31"/>
       <use xlink:href="#DejaVuSans-35" x="63.623047"/>
       <use xlink:href="#DejaVuSans-30" x="127.246094"/>
       <use xlink:href="#DejaVuSans-30" x="190.869141"/>
      </g>
     </g>
    </g>
    <g id="ytick_5">
     <g id="line2d_16">
      <g>
       <use xlink:href="#mbc4b5c770b" x="39.65" y="156.377634" style="stroke: #000000; stroke-width: 0.8"/>
      </g>
     </g>
     <g id="text_16">
      <!-- 2000 -->
      <g transform="translate(7.2 160.176853)scale(0.1 -0.1)">
       <use xlink:href="#DejaVuSans-32"/>
       <use xlink:href="#DejaVuSans-30" x="63.623047"/>
       <use xlink:href="#DejaVuSans-30" x="127.246094"/>
       <use xlink:href="#DejaVuSans-30" x="190.869141"/>
      </g>
     </g>
    </g>
    <g id="ytick_6">
     <g id="line2d_17">
      <g>
       <use xlink:href="#mbc4b5c770b" x="39.65" y="107.169549" style="stroke: #000000; stroke-width: 0.8"/>
      </g>
     </g>
     <g id="text_17">
      <!-- 2500 -->
      <g transform="translate(7.2 110.968768)scale(0.1 -0.1)">
       <use xlink:href="#DejaVuSans-32"/>
       <use xlink:href="#DejaVuSans-35" x="63.623047"/>
       <use xlink:href="#DejaVuSans-30" x="127.246094"/>
       <use xlink:href="#DejaVuSans-30" x="190.869141"/>
      </g>
     </g>
    </g>
    <g id="ytick_7">
     <g id="line2d_18">
      <g>
       <use xlink:href="#mbc4b5c770b" x="39.65" y="57.961464" style="stroke: #000000; stroke-width: 0.8"/>
      </g>
     </g>
     <g id="text_18">
      <!-- 3000 -->
      <g transform="translate(7.2 61.760683)scale(0.1 -0.1)">
       <defs>
        <path id="DejaVuSans-33" d="M 2597 2516 
Q 3050 2419 3304 2112 
Q 3559 1806 3559 1356 
Q 3559 666 3084 287 
Q 2609 -91 1734 -91 
Q 1441 -91 1130 -33 
Q 819 25 488 141 
L 488 750 
Q 750 597 1062 519 
Q 1375 441 1716 441 
Q 2309 441 2620 675 
Q 2931 909 2931 1356 
Q 2931 1769 2642 2001 
Q 2353 2234 1838 2234 
L 1294 2234 
L 1294 2753 
L 1863 2753 
Q 2328 2753 2575 2939 
Q 2822 3125 2822 3475 
Q 2822 3834 2567 4026 
Q 2313 4219 1838 4219 
Q 1578 4219 1281 4162 
Q 984 4106 628 3988 
L 628 4550 
Q 988 4650 1302 4700 
Q 1616 4750 1894 4750 
Q 2613 4750 3031 4423 
Q 3450 4097 3450 3541 
Q 3450 3153 3228 2886 
Q 3006 2619 2597 2516 
z
" transform="scale(0.015625)"/>
       </defs>
       <use xlink:href="#DejaVuSans-33"/>
       <use xlink:href="#DejaVuSans-30" x="63.623047"/>
       <use xlink:href="#DejaVuSans-30" x="127.246094"/>
       <use xlink:href="#DejaVuSans-30" x="190.869141"/>
      </g>
     </g>
    </g>
   </g>
   <g id="line2d_19">
    <path d="M 100.522727 353.209974 
L 174.653449 353.209974 
L 176.07904 352.81631 
L 178.930221 353.111558 
L 180.355812 353.209974 
L 181.781403 352.324229 
L 183.206994 353.209974 
L 184.632585 353.013142 
L 186.058175 351.536899 
L 187.483766 352.81631 
L 188.909357 353.111558 
L 190.334948 352.324229 
L 191.760539 352.81631 
L 193.186129 352.619477 
L 194.61172 352.225813 
L 196.037311 353.209974 
L 197.462902 352.717893 
L 198.888493 352.521061 
L 200.314083 353.013142 
L 201.739674 352.717893 
L 203.165265 351.930564 
L 204.590856 353.013142 
L 207.442037 353.209974 
L 208.867628 352.717893 
L 210.293219 353.209974 
L 211.71881 352.422645 
L 213.144401 353.013142 
L 214.569991 352.619477 
L 215.995582 353.111558 
L 217.421173 352.521061 
L 218.846764 353.013142 
L 220.272355 353.013142 
L 221.697945 352.717893 
L 223.123536 353.111558 
L 224.549127 352.914726 
L 225.974718 353.209974 
L 227.400309 352.914726 
L 228.8259 352.914726 
L 230.25149 353.111558 
L 231.677081 351.044819 
L 233.102672 352.521061 
L 234.528263 352.422645 
L 235.953854 351.635316 
L 237.379444 352.717893 
L 238.805035 351.930564 
L 240.230626 351.438483 
L 241.656217 352.619477 
L 243.081808 352.619477 
L 247.35858 353.209974 
L 248.784171 352.521061 
L 250.209762 352.914726 
L 251.635352 353.013142 
L 253.060943 352.521061 
L 255.912125 353.111558 
L 263.040079 353.013142 
L 265.89126 352.717893 
L 267.316851 352.127396 
L 268.742442 352.619477 
L 270.168033 352.619477 
L 271.593624 353.111558 
L 273.019214 352.81631 
L 274.444805 353.013142 
L 275.870396 352.324229 
L 277.295987 352.914726 
L 278.721578 352.521061 
L 280.147168 352.914726 
L 281.572759 352.619477 
L 282.99835 352.81631 
L 284.423941 352.127396 
L 285.849532 352.521061 
L 287.275122 352.521061 
L 288.700713 351.930564 
L 290.126304 351.930564 
L 291.551895 352.225813 
L 292.977486 352.127396 
L 294.403076 352.422645 
L 295.828667 352.02898 
L 298.679849 351.930564 
L 300.10544 351.438483 
L 301.53103 351.635316 
L 302.956621 350.159073 
L 304.382212 349.174911 
L 305.807803 350.257489 
L 307.233394 350.847986 
L 308.658984 352.914726 
L 310.084575 352.521061 
L 311.510166 351.733732 
L 312.935757 349.174911 
L 314.361348 350.651154 
L 315.786938 347.40342 
L 317.212529 352.127396 
L 318.63812 350.060657 
L 321.489302 352.422645 
L 322.914892 351.241651 
L 324.340483 351.044819 
L 325.766074 343.269941 
L 327.191665 350.847986 
L 328.617256 351.536899 
L 330.042846 351.143235 
L 331.468437 351.438483 
L 332.894028 352.127396 
L 334.319619 351.930564 
L 335.74521 352.422645 
L 337.170801 347.40342 
L 338.596391 351.044819 
L 340.021982 351.635316 
L 341.447573 349.076495 
L 342.873164 348.584414 
L 344.298755 349.47016 
L 345.724345 349.174911 
L 347.149936 349.47016 
L 348.575527 351.340067 
L 350.001118 349.47016 
L 351.426709 352.02898 
L 352.852299 347.895501 
L 354.27789 348.978079 
L 355.703481 348.584414 
L 357.129072 350.651154 
L 358.554663 349.863825 
L 359.980253 351.143235 
L 361.405844 351.340067 
L 362.831435 350.946402 
L 364.257026 346.419259 
L 368.533798 349.568576 
L 369.959389 350.159073 
L 371.38498 350.454322 
L 372.810571 351.241651 
L 374.236161 351.241651 
L 375.661752 350.257489 
L 377.087343 352.521061 
L 378.512934 352.717893 
L 379.938525 352.521061 
L 381.364115 351.536899 
L 382.789706 352.619477 
L 384.215297 352.619477 
L 387.066479 351.340067 
L 388.492069 351.438483 
L 389.91766 352.127396 
L 391.343251 344.05727 
L 392.768842 347.40342 
L 394.194433 343.269941 
L 395.620023 344.647768 
L 397.045614 349.568576 
L 398.471205 346.616091 
L 399.896796 346.025594 
L 401.322387 347.009756 
L 402.747977 342.482612 
L 404.173568 333.52674 
L 405.599159 331.853665 
L 407.02475 330.475839 
L 408.450341 344.549351 
L 409.875931 348.584414 
L 411.301522 346.320842 
L 412.727113 343.269941 
L 414.152704 335.790312 
L 415.578295 348.978079 
L 417.003885 345.435097 
L 418.429476 345.730345 
L 419.855067 349.568576 
L 421.280658 348.387582 
L 422.706249 348.781247 
L 424.131839 350.74957 
L 425.55743 349.765408 
L 426.983021 350.257489 
L 428.408612 351.143235 
L 429.834203 351.340067 
L 431.259793 347.797085 
L 432.685384 350.159073 
L 434.110975 350.651154 
L 435.536566 352.127396 
L 436.962157 351.044819 
L 438.387747 352.225813 
L 439.813338 351.340067 
L 442.66452 351.438483 
L 444.090111 351.044819 
L 445.515702 352.127396 
L 446.941292 351.635316 
L 448.366883 349.174911 
L 449.792474 352.225813 
L 451.218065 352.324229 
L 452.643656 351.930564 
L 454.069246 352.324229 
L 455.494837 352.02898 
L 456.920428 352.81631 
L 462.622791 352.717893 
L 464.048382 351.832148 
L 465.473973 353.111558 
L 468.325154 352.225813 
L 469.750745 353.013142 
L 471.176336 352.717893 
L 472.601927 353.013142 
L 474.027518 352.81631 
L 475.453108 352.324229 
L 476.878699 352.914726 
L 478.30429 350.060657 
L 479.729881 351.930564 
L 481.155472 352.02898 
L 482.581062 352.619477 
L 484.006653 352.914726 
L 485.432244 351.438483 
L 486.857835 352.81631 
L 488.283426 351.635316 
L 489.709016 352.717893 
L 491.134607 349.765408 
L 492.560198 352.422645 
L 493.985789 352.619477 
L 495.41138 352.521061 
L 496.83697 352.127396 
L 498.262561 348.781247 
L 499.688152 353.013142 
L 502.539334 352.914726 
L 503.964924 352.324229 
L 505.390515 352.324229 
L 506.816106 352.521061 
L 509.667288 351.438483 
L 511.092878 351.635316 
L 512.518469 352.717893 
L 513.94406 352.324229 
L 515.369651 351.241651 
L 516.795242 351.241651 
L 518.220832 348.289166 
L 519.646423 352.521061 
L 521.072014 348.978079 
L 522.497605 350.060657 
L 523.923196 347.206588 
L 525.348786 349.666992 
L 526.774377 351.635316 
L 528.199968 349.666992 
L 529.625559 350.355905 
L 531.05115 351.832148 
L 532.47674 349.863825 
L 533.902331 348.781247 
L 535.327922 347.206588 
L 536.753513 350.847986 
L 538.179104 350.355905 
L 539.604694 346.12401 
L 541.030285 351.143235 
L 542.455876 351.340067 
L 543.881467 350.454322 
L 545.307058 351.733732 
L 546.732648 351.832148 
L 548.158239 348.68283 
L 549.58383 351.536899 
L 551.009421 350.060657 
L 552.435012 349.174911 
L 553.860603 348.781247 
L 555.286193 347.108172 
L 556.711784 348.68283 
L 558.137375 349.174911 
L 559.562966 346.222426 
L 560.988557 345.435097 
L 562.414147 343.368357 
L 563.839738 340.317456 
L 565.265329 344.549351 
L 566.69092 344.8446 
L 568.116511 341.203202 
L 569.542101 345.533513 
L 570.967692 346.025594 
L 572.393283 340.711121 
L 573.818874 347.206588 
L 575.244465 342.482612 
L 576.670055 342.482612 
L 578.095646 344.647768 
L 579.521237 346.12401 
L 582.372419 345.927178 
L 583.798009 338.1523 
L 585.2236 348.19075 
L 586.649191 342.679444 
L 588.074782 341.203202 
L 589.500373 340.120624 
L 590.925963 345.631929 
L 592.351554 342.679444 
L 593.777145 342.482612 
L 595.202736 336.282393 
L 596.628327 342.679444 
L 598.053917 343.073109 
L 599.479508 336.774474 
L 600.905099 339.136462 
L 602.33069 344.05727 
L 603.756281 336.577642 
L 605.181871 338.053884 
L 606.607462 336.87289 
L 608.033053 336.282393 
L 609.458644 334.117237 
L 610.884235 327.917019 
L 612.309825 325.948695 
L 613.735416 335.298231 
L 615.161007 330.869504 
L 616.586598 324.767701 
L 618.012189 322.504129 
L 619.437779 322.700962 
L 620.86337 326.34236 
L 622.288961 333.133076 
L 623.714552 320.929471 
L 625.140143 320.142141 
L 626.565733 296.719093 
L 627.991324 325.555031 
L 629.416915 317.484905 
L 630.842506 328.113851 
L 632.268097 320.338974 
L 633.693687 334.904567 
L 635.119278 337.955468 
L 636.544869 330.672671 
L 637.97046 338.841213 
L 639.396051 338.053884 
L 640.821641 333.723573 
L 642.247232 338.349133 
L 643.672823 341.990531 
L 645.098414 336.479225 
L 646.524005 334.510902 
L 647.949595 340.415872 
L 649.375186 340.711121 
L 650.800777 340.21904 
L 652.226368 346.616091 
L 653.651959 345.730345 
L 655.077549 339.333294 
L 656.50314 342.384196 
L 657.928731 341.203202 
L 659.354322 341.49845 
L 660.779913 343.958854 
L 662.205504 347.40342 
L 663.631094 346.812923 
L 665.056685 338.841213 
L 666.482276 340.809537 
L 669.333458 342.384196 
L 670.759048 339.825375 
L 672.184639 343.269941 
L 673.61023 347.305004 
L 675.035821 339.825375 
L 676.461412 340.907953 
L 677.887002 344.647768 
L 679.312593 339.825375 
L 680.738184 344.155687 
L 682.163775 345.041432 
L 683.589366 349.076495 
L 685.014956 342.581028 
L 686.440547 341.400034 
L 687.866138 346.616091 
L 689.291729 343.466773 
L 690.71732 342.187363 
L 692.14291 344.746184 
L 693.568501 348.978079 
L 694.994092 341.793699 
L 696.419683 342.384196 
L 697.845274 346.517675 
L 699.270864 346.222426 
L 700.696455 340.415872 
L 702.122046 345.336681 
L 703.547637 346.616091 
L 704.973228 346.517675 
L 706.398818 345.435097 
L 707.824409 340.317456 
L 709.25 342.974693 
L 710.675591 343.466773 
L 712.101182 347.206588 
L 713.526772 348.387582 
L 714.952363 346.222426 
L 716.377954 337.955468 
L 717.803545 339.628543 
L 719.229136 339.923791 
L 720.654726 328.704348 
L 722.080317 345.730345 
L 723.505908 329.68851 
L 724.931499 333.329908 
L 726.35709 335.691896 
L 727.78268 335.59348 
L 729.208271 342.285779 
L 730.633862 342.581028 
L 732.059453 345.041432 
L 733.485044 345.041432 
L 734.910634 342.482612 
L 736.336225 346.517675 
L 737.761816 346.419259 
L 739.187407 346.12401 
L 740.612998 346.517675 
L 742.038588 347.895501 
L 743.464179 351.044819 
L 746.315361 346.222426 
L 747.740952 342.679444 
L 749.166542 338.447549 
L 750.592133 333.821989 
L 752.017724 345.730345 
L 753.443315 347.501836 
L 754.868906 344.943016 
L 756.294496 339.726959 
L 757.720087 345.927178 
L 759.145678 342.679444 
L 760.571269 341.301618 
L 761.99686 342.482612 
L 763.422451 350.454322 
L 764.848041 347.501836 
L 766.273632 349.273328 
L 767.699223 346.320842 
L 769.124814 346.812923 
L 770.550405 347.993917 
L 771.975995 348.584414 
L 773.401586 346.714507 
L 776.252768 347.40342 
L 779.103949 344.549351 
L 780.52954 343.466773 
L 781.955131 346.714507 
L 783.380722 349.076495 
L 784.806313 345.927178 
L 786.231903 340.514288 
L 787.657494 345.336681 
L 789.083085 342.876276 
L 790.508676 346.12401 
L 791.934267 347.600253 
L 793.359857 350.257489 
L 794.785448 349.076495 
L 796.211039 348.289166 
L 797.63663 349.568576 
L 799.062221 350.651154 
L 800.487811 349.765408 
L 801.913402 351.832148 
L 803.338993 350.651154 
L 804.764584 348.781247 
L 806.190175 347.305004 
L 807.615765 349.174911 
L 809.041356 347.797085 
L 810.466947 348.978079 
L 811.892538 348.387582 
L 813.318129 349.863825 
L 814.743719 347.108172 
L 816.16931 340.711121 
L 817.594901 341.990531 
L 819.020492 342.187363 
L 820.446083 333.329908 
L 821.871673 325.259782 
L 823.297264 330.869504 
L 824.722855 329.491677 
L 826.148446 323.881956 
L 827.574037 327.326522 
L 828.999627 311.678351 
L 830.425218 308.824282 
L 831.850809 307.052791 
L 833.2764 324.078788 
L 834.701991 291.995117 
L 836.127581 268.473652 
L 837.553172 258.336786 
L 838.978763 266.308496 
L 841.829945 267.784739 
L 843.255535 280.283592 
L 844.681126 278.708934 
L 846.106717 273.099212 
L 847.532308 269.654646 
L 850.383489 266.21008 
L 851.80908 264.832254 
L 853.234671 265.717999 
L 854.660262 273.39446 
L 856.085853 266.308496 
L 857.511443 278.413685 
L 858.937034 263.552843 
L 860.362625 265.914831 
L 861.788216 271.524553 
L 863.213807 296.423844 
L 864.639397 277.232691 
L 866.064988 275.264368 
L 867.490579 261.289272 
L 868.91617 266.308496 
L 870.341761 261.978185 
L 871.767352 156.672883 
L 873.192942 80.301935 
L 874.618533 263.356011 
L 876.044124 264.044924 
L 877.469715 262.175017 
L 878.895306 224.383208 
L 880.320896 259.419364 
L 881.746487 353.209974 
L 883.172078 292.388781 
L 884.597669 50.8755 
L 886.02326 257.844706 
L 887.44885 263.159179 
L 888.874441 258.23837 
L 890.300032 257.647873 
L 891.725623 268.572068 
L 893.151214 289.436296 
L 894.576804 282.350332 
L 896.002395 276.937443 
L 897.427986 277.52794 
L 898.853577 279.004182 
L 900.279168 291.306203 
L 901.704758 289.239464 
L 903.130349 309.11953 
L 904.55594 299.671578 
L 905.981531 294.160272 
L 907.407122 292.290365 
L 908.832712 309.021114 
L 910.258303 302.525647 
L 913.109485 312.072015 
L 914.535076 310.39894 
L 915.960666 298.392168 
L 917.386257 289.731545 
L 918.811848 304.395554 
L 920.237439 315.81183 
L 921.66303 312.367264 
L 923.08862 314.532419 
L 924.514211 304.395554 
L 925.939802 293.372943 
L 927.365393 303.608225 
L 928.790984 297.112757 
L 930.216574 301.836734 
L 931.642165 302.131982 
L 933.067756 316.697575 
L 934.493347 302.230398 
L 935.918938 304.395554 
L 937.344528 297.112757 
L 938.770119 305.478132 
L 940.19571 304.986051 
L 941.621301 318.567482 
L 943.046892 329.196429 
L 944.472482 316.107078 
L 945.898073 308.627449 
L 947.323664 305.674964 
L 948.749255 306.56071 
L 950.174846 306.954374 
L 951.600436 353.209974 
L 953.026027 294.652353 
L 954.451618 308.036952 
L 955.877209 305.182883 
L 957.3028 305.182883 
L 958.72839 311.579934 
L 960.153981 312.367264 
L 961.579572 331.164752 
L 963.005163 339.431711 
L 964.430754 328.999596 
L 965.856344 327.228105 
L 967.281935 328.015435 
L 968.707526 322.307297 
L 971.558708 337.758636 
L 972.984298 342.187363 
L 974.409889 339.136462 
L 975.83548 332.739411 
L 977.261071 336.676058 
L 978.686662 337.561803 
L 980.112253 335.691896 
L 981.537843 344.746184 
L 982.963434 344.450935 
L 984.389025 345.238265 
L 985.814616 340.809537 
L 987.240207 340.21904 
L 990.091388 339.431711 
L 991.516979 341.990531 
L 992.94257 343.56519 
L 994.368161 348.485998 
L 995.793751 343.860438 
L 997.219342 344.746184 
L 998.644933 347.206588 
L 1000.070524 345.336681 
L 1001.496115 347.206588 
L 1002.921705 351.536899 
L 1004.347296 349.666992 
L 1005.772887 350.060657 
L 1007.198478 349.371744 
L 1008.624069 349.666992 
L 1010.049659 349.568576 
L 1012.900841 351.241651 
L 1014.326432 347.600253 
L 1015.752023 348.978079 
L 1017.177613 349.273328 
L 1020.028795 347.009756 
L 1021.454386 347.993917 
L 1022.879977 351.536899 
L 1024.305567 350.355905 
L 1025.731158 349.47016 
L 1027.156749 347.797085 
L 1028.58234 349.863825 
L 1030.007931 348.879663 
L 1031.433521 349.962241 
L 1032.859112 351.635316 
L 1034.284703 350.159073 
L 1035.710294 351.044819 
L 1037.135885 351.340067 
L 1038.561475 350.454322 
L 1041.412657 348.978079 
L 1042.838248 352.127396 
L 1044.263839 352.02898 
L 1047.11502 351.340067 
L 1048.540611 352.521061 
L 1049.966202 352.619477 
L 1051.391793 352.127396 
L 1052.817383 352.225813 
L 1054.242974 351.733732 
L 1055.668565 350.946402 
L 1057.094156 351.044819 
L 1058.519747 350.651154 
L 1059.945337 352.422645 
L 1061.370928 351.832148 
L 1062.796519 352.717893 
L 1064.22211 351.832148 
L 1065.647701 352.717893 
L 1067.073291 351.930564 
L 1068.498882 351.340067 
L 1069.924473 352.225813 
L 1071.350064 351.930564 
L 1072.775655 352.225813 
L 1075.626836 351.241651 
L 1077.052427 351.733732 
L 1078.478018 347.993917 
L 1079.903609 349.371744 
L 1081.329199 350.454322 
L 1082.75479 348.289166 
L 1084.180381 353.209974 
L 1085.605972 340.514288 
L 1087.031563 340.907953 
L 1088.457154 339.234878 
L 1089.882744 338.1523 
L 1091.308335 330.574255 
L 1092.733926 336.577642 
L 1094.159517 322.99621 
L 1095.585108 319.453228 
L 1097.010698 307.446455 
L 1098.436289 306.659126 
L 1099.86188 291.306203 
L 1101.287471 283.039245 
L 1102.713062 302.525647 
L 1104.138652 258.533619 
L 1105.564243 254.990637 
L 1106.989834 148.209092 
L 1108.415425 206.766713 
L 1109.841016 232.354918 
L 1111.266606 267.784739 
L 1112.692197 261.879769 
L 1114.117788 254.990637 
L 1115.543379 207.849291 
L 1116.96897 248.298337 
L 1118.39456 233.240663 
L 1119.820151 247.018927 
L 1121.245742 259.419364 
L 1122.671333 293.176111 
L 1124.096924 278.610517 
L 1125.522514 288.156886 
L 1126.948105 278.118437 
L 1128.373696 282.350332 
L 1129.799287 300.754156 
L 1131.224878 315.516581 
L 1132.650468 317.386488 
L 1134.076059 313.646674 
L 1135.50165 297.604838 
L 1136.927241 298.884248 
L 1138.352832 299.86841 
L 1139.778422 311.087854 
L 1141.204013 328.90118 
L 1142.629604 342.679444 
L 1144.055195 333.920405 
L 1145.480786 336.183977 
L 1146.906376 340.317456 
L 1148.331967 341.400034 
L 1149.757558 345.435097 
L 1151.183149 343.958854 
L 1152.60874 349.371744 
L 1154.03433 348.289166 
L 1155.459921 349.076495 
L 1156.885512 349.47016 
L 1158.311103 346.517675 
L 1159.736694 348.781247 
L 1161.162284 349.174911 
L 1162.587875 351.635316 
L 1164.013466 351.635316 
L 1165.439057 351.241651 
L 1166.864648 349.962241 
L 1168.290238 350.847986 
L 1169.715829 348.879663 
L 1171.14142 351.536899 
L 1172.567011 352.914726 
L 1173.992602 351.930564 
L 1175.418192 351.733732 
L 1178.269374 352.422645 
L 1179.694965 351.832148 
L 1181.120556 352.225813 
L 1182.546146 352.914726 
L 1183.971737 352.619477 
L 1185.397328 349.174911 
L 1186.822919 351.536899 
L 1188.24851 350.060657 
L 1189.6741 351.733732 
L 1191.099691 353.013142 
L 1192.525282 352.81631 
L 1193.950873 351.930564 
L 1195.376464 351.832148 
L 1196.802055 351.536899 
L 1198.227645 352.225813 
L 1199.653236 352.717893 
L 1201.078827 352.914726 
L 1202.504418 352.717893 
L 1203.930009 352.81631 
L 1205.355599 352.521061 
L 1206.78119 353.013142 
L 1209.632372 351.930564 
L 1211.057963 352.521061 
L 1212.483553 352.717893 
L 1213.909144 353.111558 
L 1215.334735 352.422645 
L 1216.760326 352.717893 
L 1219.611507 352.02898 
L 1221.037098 353.013142 
L 1222.462689 352.225813 
L 1223.88828 352.127396 
L 1225.313871 351.635316 
L 1226.739461 351.340067 
L 1228.165052 352.02898 
L 1229.590643 353.111558 
L 1231.016234 353.013142 
L 1232.441825 353.111558 
L 1233.867415 352.914726 
L 1235.293006 353.013142 
L 1236.718597 352.81631 
L 1239.569779 352.81631 
L 1240.995369 353.209974 
L 1243.846551 352.717893 
L 1245.272142 352.914726 
L 1248.123323 352.914726 
L 1249.548914 353.111558 
L 1250.974505 352.717893 
L 1252.400096 353.013142 
L 1253.825687 352.521061 
L 1255.251277 353.209974 
L 1256.676868 353.013142 
L 1260.953641 353.209974 
L 1263.804822 353.209974 
L 1265.230413 352.324229 
L 1266.656004 353.209974 
L 1268.081595 353.209974 
L 1269.507185 352.914726 
L 1270.932776 353.209974 
L 1272.358367 353.209974 
L 1273.783958 351.930564 
L 1275.209549 352.914726 
L 1276.635139 352.914726 
L 1278.06073 352.619477 
L 1279.486321 353.013142 
L 1280.911912 352.521061 
L 1282.337503 352.81631 
L 1283.763093 350.847986 
L 1285.188684 353.209974 
L 1286.614275 352.717893 
L 1288.039866 352.81631 
L 1289.465457 352.619477 
L 1290.891047 353.209974 
L 1292.316638 353.209974 
L 1293.742229 350.946402 
L 1295.16782 352.914726 
L 1296.593411 353.209974 
L 1298.019001 350.946402 
L 1298.019001 350.946402 
" clip-path="url(#p4081187221)" style="fill: none; stroke: #0000ff; stroke-width: 1.5; stroke-linecap: square"/>
   </g>
   <g id="line2d_20">
    <path d="M 1058.519747 351.310577 
L 1059.945337 350.968581 
L 1061.370928 351.988348 
L 1062.796519 351.366437 
L 1064.22211 352.329307 
L 1065.647701 351.882461 
L 1067.073291 352.575123 
L 1069.924473 351.549832 
L 1071.350064 352.274245 
L 1072.775655 351.630188 
L 1074.201245 352.196593 
L 1075.626836 351.646608 
L 1077.052427 351.70994 
L 1078.478018 351.956136 
L 1079.903609 349.447577 
L 1081.329199 350.631128 
L 1082.75479 350.281618 
L 1084.180381 348.939736 
L 1085.605972 352.093653 
L 1087.031563 343.953039 
L 1088.457154 346.473625 
L 1089.882744 342.665761 
L 1091.308335 340.976638 
L 1092.733926 335.973914 
L 1094.159517 338.05904 
L 1095.585108 330.417489 
L 1097.010698 327.928468 
L 1098.436289 319.009194 
L 1099.86188 316.638229 
L 1101.287471 304.954256 
L 1102.713062 296.917722 
L 1104.138652 306.943649 
L 1105.564243 274.828327 
L 1106.989834 279.035516 
L 1108.415425 207.785531 
L 1109.841016 245.204485 
L 1111.266606 230.035792 
L 1112.692197 242.403804 
L 1114.117788 249.382537 
L 1115.543379 250.967013 
L 1116.96897 246.664896 
L 1118.39456 252.661193 
L 1119.820151 233.666387 
L 1121.245742 237.467845 
L 1122.671333 246.170383 
L 1124.096924 267.905662 
L 1125.522514 270.026886 
L 1126.948105 275.223337 
L 1128.373696 278.085737 
L 1129.799287 278.692759 
L 1131.224878 288.75553 
L 1132.650468 292.053958 
L 1134.076059 302.37697 
L 1135.50165 302.905334 
L 1136.927241 301.692833 
L 1138.352832 303.270913 
L 1139.778422 299.078279 
L 1141.204013 303.477272 
L 1144.055195 323.850634 
L 1145.480786 326.034464 
L 1146.906376 332.450415 
L 1148.331967 336.419726 
L 1149.757558 335.813205 
L 1151.183149 337.555446 
L 1152.60874 336.789598 
L 1154.03433 344.442562 
L 1155.459921 343.458063 
L 1156.885512 345.990418 
L 1158.311103 347.18429 
L 1159.736694 345.552093 
L 1161.162284 348.303574 
L 1162.587875 347.077033 
L 1164.013466 349.681133 
L 1165.439057 349.540244 
L 1166.864648 350.215171 
L 1168.290238 350.485072 
L 1169.715829 350.620526 
L 1171.14142 349.473749 
L 1172.567011 350.743988 
L 1173.992602 351.273151 
L 1175.418192 351.038926 
L 1176.843783 351.75579 
L 1178.269374 351.859519 
L 1179.694965 352.451168 
L 1181.120556 351.497679 
L 1183.971737 352.448225 
L 1185.397328 352.261879 
L 1186.822919 350.467707 
L 1188.24851 352.090419 
L 1189.6741 350.50675 
L 1191.099691 351.552172 
L 1192.525282 351.877637 
L 1193.950873 351.989346 
L 1195.376464 352.421514 
L 1196.802055 351.904874 
L 1198.227645 352.171884 
L 1199.653236 351.956859 
L 1201.078827 352.076053 
L 1203.930009 352.517115 
L 1205.355599 352.711965 
L 1206.78119 352.64527 
L 1208.206781 352.830694 
L 1209.632372 352.450889 
L 1211.057963 352.211818 
L 1212.483553 352.594373 
L 1213.909144 352.50201 
L 1215.334735 352.834046 
L 1216.760326 352.365572 
L 1218.185917 352.836422 
L 1221.037098 352.280504 
L 1222.462689 352.843401 
L 1223.88828 352.134529 
L 1225.313871 352.427036 
L 1226.739461 351.955279 
L 1228.165052 351.85214 
L 1231.016234 352.391538 
L 1236.718597 353.053906 
L 1238.144188 352.796465 
L 1239.569779 352.701889 
L 1240.995369 352.765854 
L 1242.42096 352.952009 
L 1245.272142 352.796825 
L 1246.697733 352.992409 
L 1249.548914 352.915353 
L 1250.974505 352.96324 
L 1252.400096 352.793726 
L 1253.825687 353.056738 
L 1255.251277 352.648926 
L 1256.676868 353.129855 
L 1258.102459 352.873183 
L 1260.953641 353.154731 
L 1262.379231 353.087496 
L 1263.804822 353.245736 
L 1265.230413 353.09136 
L 1266.656004 352.700356 
L 1268.081595 353.21834 
L 1269.507185 352.99097 
L 1270.932776 352.913223 
L 1272.358367 353.15311 
L 1273.783958 353.105053 
L 1275.209549 352.558446 
L 1276.635139 353.001638 
L 1278.06073 352.779998 
L 1279.486321 352.680406 
L 1280.911912 352.897847 
L 1282.337503 352.585676 
L 1283.763093 353.050616 
L 1285.188684 351.543835 
L 1286.614275 353.169226 
L 1288.039866 352.330389 
L 1289.465457 352.602771 
L 1290.891047 352.660711 
L 1293.742229 353.2755 
L 1295.16782 351.484961 
L 1296.593411 353.167178 
L 1298.019001 352.619573 
L 1298.019001 352.619573 
" clip-path="url(#p4081187221)" style="fill: none; stroke: #ffa500; stroke-width: 1.5; stroke-linecap: square"/>
   </g>
   <g id="line2d_21">
    <path d="M 1299.444592 351.548813 
L 1300.870183 352.086341 
L 1302.295774 352.039305 
L 1303.721365 352.253339 
L 1305.146956 351.912923 
L 1306.572546 351.902059 
L 1307.998137 352.288009 
L 1309.423728 352.179428 
L 1310.849319 352.086509 
L 1312.27491 352.095872 
L 1313.7005 352.061234 
L 1315.126091 352.117755 
L 1316.551682 352.119278 
L 1317.977273 352.054957 
" clip-path="url(#p4081187221)" style="fill: none; stroke: #ff0000; stroke-width: 1.5; stroke-linecap: square"/>
   </g>
   <g id="patch_3">
    <path d="M 39.65 368.3955 
L 39.65 35.7555 
" style="fill: none; stroke: #000000; stroke-width: 0.8; stroke-linejoin: miter; stroke-linecap: square"/>
   </g>
   <g id="patch_4">
    <path d="M 1378.85 368.3955 
L 1378.85 35.7555 
" style="fill: none; stroke: #000000; stroke-width: 0.8; stroke-linejoin: miter; stroke-linecap: square"/>
   </g>
   <g id="patch_5">
    <path d="M 39.65 368.3955 
L 1378.85 368.3955 
" style="fill: none; stroke: #000000; stroke-width: 0.8; stroke-linejoin: miter; stroke-linecap: square"/>
   </g>
   <g id="patch_6">
    <path d="M 39.65 35.7555 
L 1378.85 35.7555 
" style="fill: none; stroke: #000000; stroke-width: 0.8; stroke-linejoin: miter; stroke-linecap: square"/>
   </g>
   <g id="text_19">
    <!-- Daily Confirmed Cases Forecasting - Rwanda -->
    <g transform="translate(574.708437 16.318125)scale(0.12 -0.12)">
     <defs>
      <path id="DejaVuSans-44" d="M 1259 4147 
L 1259 519 
L 2022 519 
Q 2988 519 3436 956 
Q 3884 1394 3884 2338 
Q 3884 3275 3436 3711 
Q 2988 4147 2022 4147 
L 1259 4147 
z
M 628 4666 
L 1925 4666 
Q 3281 4666 3915 4102 
Q 4550 3538 4550 2338 
Q 4550 1131 3912 565 
Q 3275 0 1925 0 
L 628 0 
L 628 4666 
z
" transform="scale(0.015625)"/>
      <path id="DejaVuSans-61" d="M 2194 1759 
Q 1497 1759 1228 1600 
Q 959 1441 959 1056 
Q 959 750 1161 570 
Q 1363 391 1709 391 
Q 2188 391 2477 730 
Q 2766 1069 2766 1631 
L 2766 1759 
L 2194 1759 
z
M 3341 1997 
L 3341 0 
L 2766 0 
L 2766 531 
Q 2569 213 2275 61 
Q 1981 -91 1556 -91 
Q 1019 -91 701 211 
Q 384 513 384 1019 
Q 384 1609 779 1909 
Q 1175 2209 1959 2209 
L 2766 2209 
L 2766 2266 
Q 2766 2663 2505 2880 
Q 2244 3097 1772 3097 
Q 1472 3097 1187 3025 
Q 903 2953 641 2809 
L 641 3341 
Q 956 3463 1253 3523 
Q 1550 3584 1831 3584 
Q 2591 3584 2966 3190 
Q 3341 2797 3341 1997 
z
" transform="scale(0.015625)"/>
      <path id="DejaVuSans-69" d="M 603 3500 
L 1178 3500 
L 1178 0 
L 603 0 
L 603 3500 
z
M 603 4863 
L 1178 4863 
L 1178 4134 
L 603 4134 
L 603 4863 
z
" transform="scale(0.015625)"/>
      <path id="DejaVuSans-6c" d="M 603 4863 
L 1178 4863 
L 1178 0 
L 603 0 
L 603 4863 
z
" transform="scale(0.015625)"/>
      <path id="DejaVuSans-79" d="M 2059 -325 
Q 1816 -950 1584 -1140 
Q 1353 -1331 966 -1331 
L 506 -1331 
L 506 -850 
L 844 -850 
Q 1081 -850 1212 -737 
Q 1344 -625 1503 -206 
L 1606 56 
L 191 3500 
L 800 3500 
L 1894 763 
L 2988 3500 
L 3597 3500 
L 2059 -325 
z
" transform="scale(0.015625)"/>
      <path id="DejaVuSans-20" transform="scale(0.015625)"/>
      <path id="DejaVuSans-43" d="M 4122 4306 
L 4122 3641 
Q 3803 3938 3442 4084 
Q 3081 4231 2675 4231 
Q 1875 4231 1450 3742 
Q 1025 3253 1025 2328 
Q 1025 1406 1450 917 
Q 1875 428 2675 428 
Q 3081 428 3442 575 
Q 3803 722 4122 1019 
L 4122 359 
Q 3791 134 3420 21 
Q 3050 -91 2638 -91 
Q 1578 -91 968 557 
Q 359 1206 359 2328 
Q 359 3453 968 4101 
Q 1578 4750 2638 4750 
Q 3056 4750 3426 4639 
Q 3797 4528 4122 4306 
z
" transform="scale(0.015625)"/>
      <path id="DejaVuSans-6f" d="M 1959 3097 
Q 1497 3097 1228 2736 
Q 959 2375 959 1747 
Q 959 1119 1226 758 
Q 1494 397 1959 397 
Q 2419 397 2687 759 
Q 2956 1122 2956 1747 
Q 2956 2369 2687 2733 
Q 2419 3097 1959 3097 
z
M 1959 3584 
Q 2709 3584 3137 3096 
Q 3566 2609 3566 1747 
Q 3566 888 3137 398 
Q 2709 -91 1959 -91 
Q 1206 -91 779 398 
Q 353 888 353 1747 
Q 353 2609 779 3096 
Q 1206 3584 1959 3584 
z
" transform="scale(0.015625)"/>
      <path id="DejaVuSans-6e" d="M 3513 2113 
L 3513 0 
L 2938 0 
L 2938 2094 
Q 2938 2591 2744 2837 
Q 2550 3084 2163 3084 
Q 1697 3084 1428 2787 
Q 1159 2491 1159 1978 
L 1159 0 
L 581 0 
L 581 3500 
L 1159 3500 
L 1159 2956 
Q 1366 3272 1645 3428 
Q 1925 3584 2291 3584 
Q 2894 3584 3203 3211 
Q 3513 2838 3513 2113 
z
" transform="scale(0.015625)"/>
      <path id="DejaVuSans-66" d="M 2375 4863 
L 2375 4384 
L 1825 4384 
Q 1516 4384 1395 4259 
Q 1275 4134 1275 3809 
L 1275 3500 
L 2222 3500 
L 2222 3053 
L 1275 3053 
L 1275 0 
L 697 0 
L 697 3053 
L 147 3053 
L 147 3500 
L 697 3500 
L 697 3744 
Q 697 4328 969 4595 
Q 1241 4863 1831 4863 
L 2375 4863 
z
" transform="scale(0.015625)"/>
      <path id="DejaVuSans-72" d="M 2631 2963 
Q 2534 3019 2420 3045 
Q 2306 3072 2169 3072 
Q 1681 3072 1420 2755 
Q 1159 2438 1159 1844 
L 1159 0 
L 581 0 
L 581 3500 
L 1159 3500 
L 1159 2956 
Q 1341 3275 1631 3429 
Q 1922 3584 2338 3584 
Q 2397 3584 2469 3576 
Q 2541 3569 2628 3553 
L 2631 2963 
z
" transform="scale(0.015625)"/>
      <path id="DejaVuSans-6d" d="M 3328 2828 
Q 3544 3216 3844 3400 
Q 4144 3584 4550 3584 
Q 5097 3584 5394 3201 
Q 5691 2819 5691 2113 
L 5691 0 
L 5113 0 
L 5113 2094 
Q 5113 2597 4934 2840 
Q 4756 3084 4391 3084 
Q 3944 3084 3684 2787 
Q 3425 2491 3425 1978 
L 3425 0 
L 2847 0 
L 2847 2094 
Q 2847 2600 2669 2842 
Q 2491 3084 2119 3084 
Q 1678 3084 1418 2786 
Q 1159 2488 1159 1978 
L 1159 0 
L 581 0 
L 581 3500 
L 1159 3500 
L 1159 2956 
Q 1356 3278 1631 3431 
Q 1906 3584 2284 3584 
Q 2666 3584 2933 3390 
Q 3200 3197 3328 2828 
z
" transform="scale(0.015625)"/>
      <path id="DejaVuSans-65" d="M 3597 1894 
L 3597 1613 
L 953 1613 
Q 991 1019 1311 708 
Q 1631 397 2203 397 
Q 2534 397 2845 478 
Q 3156 559 3463 722 
L 3463 178 
Q 3153 47 2828 -22 
Q 2503 -91 2169 -91 
Q 1331 -91 842 396 
Q 353 884 353 1716 
Q 353 2575 817 3079 
Q 1281 3584 2069 3584 
Q 2775 3584 3186 3129 
Q 3597 2675 3597 1894 
z
M 3022 2063 
Q 3016 2534 2758 2815 
Q 2500 3097 2075 3097 
Q 1594 3097 1305 2825 
Q 1016 2553 972 2059 
L 3022 2063 
z
" transform="scale(0.015625)"/>
      <path id="DejaVuSans-64" d="M 2906 2969 
L 2906 4863 
L 3481 4863 
L 3481 0 
L 2906 0 
L 2906 525 
Q 2725 213 2448 61 
Q 2172 -91 1784 -91 
Q 1150 -91 751 415 
Q 353 922 353 1747 
Q 353 2572 751 3078 
Q 1150 3584 1784 3584 
Q 2172 3584 2448 3432 
Q 2725 3281 2906 2969 
z
M 947 1747 
Q 947 1113 1208 752 
Q 1469 391 1925 391 
Q 2381 391 2643 752 
Q 2906 1113 2906 1747 
Q 2906 2381 2643 2742 
Q 2381 3103 1925 3103 
Q 1469 3103 1208 2742 
Q 947 2381 947 1747 
z
" transform="scale(0.015625)"/>
      <path id="DejaVuSans-73" d="M 2834 3397 
L 2834 2853 
Q 2591 2978 2328 3040 
Q 2066 3103 1784 3103 
Q 1356 3103 1142 2972 
Q 928 2841 928 2578 
Q 928 2378 1081 2264 
Q 1234 2150 1697 2047 
L 1894 2003 
Q 2506 1872 2764 1633 
Q 3022 1394 3022 966 
Q 3022 478 2636 193 
Q 2250 -91 1575 -91 
Q 1294 -91 989 -36 
Q 684 19 347 128 
L 347 722 
Q 666 556 975 473 
Q 1284 391 1588 391 
Q 1994 391 2212 530 
Q 2431 669 2431 922 
Q 2431 1156 2273 1281 
Q 2116 1406 1581 1522 
L 1381 1569 
Q 847 1681 609 1914 
Q 372 2147 372 2553 
Q 372 3047 722 3315 
Q 1072 3584 1716 3584 
Q 2034 3584 2315 3537 
Q 2597 3491 2834 3397 
z
" transform="scale(0.015625)"/>
      <path id="DejaVuSans-46" d="M 628 4666 
L 3309 4666 
L 3309 4134 
L 1259 4134 
L 1259 2759 
L 3109 2759 
L 3109 2228 
L 1259 2228 
L 1259 0 
L 628 0 
L 628 4666 
z
" transform="scale(0.015625)"/>
      <path id="DejaVuSans-63" d="M 3122 3366 
L 3122 2828 
Q 2878 2963 2633 3030 
Q 2388 3097 2138 3097 
Q 1578 3097 1268 2742 
Q 959 2388 959 1747 
Q 959 1106 1268 751 
Q 1578 397 2138 397 
Q 2388 397 2633 464 
Q 2878 531 3122 666 
L 3122 134 
Q 2881 22 2623 -34 
Q 2366 -91 2075 -91 
Q 1284 -91 818 406 
Q 353 903 353 1747 
Q 353 2603 823 3093 
Q 1294 3584 2113 3584 
Q 2378 3584 2631 3529 
Q 2884 3475 3122 3366 
z
" transform="scale(0.015625)"/>
      <path id="DejaVuSans-74" d="M 1172 4494 
L 1172 3500 
L 2356 3500 
L 2356 3053 
L 1172 3053 
L 1172 1153 
Q 1172 725 1289 603 
Q 1406 481 1766 481 
L 2356 481 
L 2356 0 
L 1766 0 
Q 1100 0 847 248 
Q 594 497 594 1153 
L 594 3053 
L 172 3053 
L 172 3500 
L 594 3500 
L 594 4494 
L 1172 4494 
z
" transform="scale(0.015625)"/>
      <path id="DejaVuSans-67" d="M 2906 1791 
Q 2906 2416 2648 2759 
Q 2391 3103 1925 3103 
Q 1463 3103 1205 2759 
Q 947 2416 947 1791 
Q 947 1169 1205 825 
Q 1463 481 1925 481 
Q 2391 481 2648 825 
Q 2906 1169 2906 1791 
z
M 3481 434 
Q 3481 -459 3084 -895 
Q 2688 -1331 1869 -1331 
Q 1566 -1331 1297 -1286 
Q 1028 -1241 775 -1147 
L 775 -588 
Q 1028 -725 1275 -790 
Q 1522 -856 1778 -856 
Q 2344 -856 2625 -561 
Q 2906 -266 2906 331 
L 2906 616 
Q 2728 306 2450 153 
Q 2172 0 1784 0 
Q 1141 0 747 490 
Q 353 981 353 1791 
Q 353 2603 747 3093 
Q 1141 3584 1784 3584 
Q 2172 3584 2450 3431 
Q 2728 3278 2906 2969 
L 2906 3500 
L 3481 3500 
L 3481 434 
z
" transform="scale(0.015625)"/>
      <path id="DejaVuSans-52" d="M 2841 2188 
Q 3044 2119 3236 1894 
Q 3428 1669 3622 1275 
L 4263 0 
L 3584 0 
L 2988 1197 
Q 2756 1666 2539 1819 
Q 2322 1972 1947 1972 
L 1259 1972 
L 1259 0 
L 628 0 
L 628 4666 
L 2053 4666 
Q 2853 4666 3247 4331 
Q 3641 3997 3641 3322 
Q 3641 2881 3436 2590 
Q 3231 2300 2841 2188 
z
M 1259 4147 
L 1259 2491 
L 2053 2491 
Q 2509 2491 2742 2702 
Q 2975 2913 2975 3322 
Q 2975 3731 2742 3939 
Q 2509 4147 2053 4147 
L 1259 4147 
z
" transform="scale(0.015625)"/>
      <path id="DejaVuSans-77" d="M 269 3500 
L 844 3500 
L 1563 769 
L 2278 3500 
L 2956 3500 
L 3675 769 
L 4391 3500 
L 4966 3500 
L 4050 0 
L 3372 0 
L 2619 2869 
L 1863 0 
L 1184 0 
L 269 3500 
z
" transform="scale(0.015625)"/>
     </defs>
     <use xlink:href="#DejaVuSans-44"/>
     <use xlink:href="#DejaVuSans-61" x="77.001953"/>
     <use xlink:href="#DejaVuSans-69" x="138.28125"/>
     <use xlink:href="#DejaVuSans-6c" x="166.064453"/>
     <use xlink:href="#DejaVuSans-79" x="193.847656"/>
     <use xlink:href="#DejaVuSans-20" x="253.027344"/>
     <use xlink:href="#DejaVuSans-43" x="284.814453"/>
     <use xlink:href="#DejaVuSans-6f" x="354.638672"/>
     <use xlink:href="#DejaVuSans-6e" x="415.820312"/>
     <use xlink:href="#DejaVuSans-66" x="479.199219"/>
     <use xlink:href="#DejaVuSans-69" x="514.404297"/>
     <use xlink:href="#DejaVuSans-72" x="542.1875"/>
     <use xlink:href="#DejaVuSans-6d" x="581.550781"/>
     <use xlink:href="#DejaVuSans-65" x="678.962891"/>
     <use xlink:href="#DejaVuSans-64" x="740.486328"/>
     <use xlink:href="#DejaVuSans-20" x="803.962891"/>
     <use xlink:href="#DejaVuSans-43" x="835.75"/>
     <use xlink:href="#DejaVuSans-61" x="905.574219"/>
     <use xlink:href="#DejaVuSans-73" x="966.853516"/>
     <use xlink:href="#DejaVuSans-65" x="1018.953125"/>
     <use xlink:href="#DejaVuSans-73" x="1080.476562"/>
     <use xlink:href="#DejaVuSans-20" x="1132.576172"/>
     <use xlink:href="#DejaVuSans-46" x="1164.363281"/>
     <use xlink:href="#DejaVuSans-6f" x="1218.257812"/>
     <use xlink:href="#DejaVuSans-72" x="1279.439453"/>
     <use xlink:href="#DejaVuSans-65" x="1318.302734"/>
     <use xlink:href="#DejaVuSans-63" x="1379.826172"/>
     <use xlink:href="#DejaVuSans-61" x="1434.806641"/>
     <use xlink:href="#DejaVuSans-73" x="1496.085938"/>
     <use xlink:href="#DejaVuSans-74" x="1548.185547"/>
     <use xlink:href="#DejaVuSans-69" x="1587.394531"/>
     <use xlink:href="#DejaVuSans-6e" x="1615.177734"/>
     <use xlink:href="#DejaVuSans-67" x="1678.556641"/>
     <use xlink:href="#DejaVuSans-20" x="1742.033203"/>
     <use xlink:href="#DejaVuSans-2d" x="1773.820312"/>
     <use xlink:href="#DejaVuSans-20" x="1809.904297"/>
     <use xlink:href="#DejaVuSans-52" x="1841.691406"/>
     <use xlink:href="#DejaVuSans-77" x="1911.173828"/>
     <use xlink:href="#DejaVuSans-61" x="1992.960938"/>
     <use xlink:href="#DejaVuSans-6e" x="2054.240234"/>
     <use xlink:href="#DejaVuSans-64" x="2117.619141"/>
     <use xlink:href="#DejaVuSans-61" x="2181.095703"/>
    </g>
    <!-- ARIMA (2, 1, 1)x(1, 0, 0, 7) (R2 = 0.829804) -->
    <g transform="translate(577.265938 29.7555)scale(0.12 -0.12)">
     <defs>
      <path id="DejaVuSans-41" d="M 2188 4044 
L 1331 1722 
L 3047 1722 
L 2188 4044 
z
M 1831 4666 
L 2547 4666 
L 4325 0 
L 3669 0 
L 3244 1197 
L 1141 1197 
L 716 0 
L 50 0 
L 1831 4666 
z
" transform="scale(0.015625)"/>
      <path id="DejaVuSans-49" d="M 628 4666 
L 1259 4666 
L 1259 0 
L 628 0 
L 628 4666 
z
" transform="scale(0.015625)"/>
      <path id="DejaVuSans-4d" d="M 628 4666 
L 1569 4666 
L 2759 1491 
L 3956 4666 
L 4897 4666 
L 4897 0 
L 4281 0 
L 4281 4097 
L 3078 897 
L 2444 897 
L 1241 4097 
L 1241 0 
L 628 0 
L 628 4666 
z
" transform="scale(0.015625)"/>
      <path id="DejaVuSans-28" d="M 1984 4856 
Q 1566 4138 1362 3434 
Q 1159 2731 1159 2009 
Q 1159 1288 1364 580 
Q 1569 -128 1984 -844 
L 1484 -844 
Q 1016 -109 783 600 
Q 550 1309 550 2009 
Q 550 2706 781 3412 
Q 1013 4119 1484 4856 
L 1984 4856 
z
" transform="scale(0.015625)"/>
      <path id="DejaVuSans-2c" d="M 750 794 
L 1409 794 
L 1409 256 
L 897 -744 
L 494 -744 
L 750 256 
L 750 794 
z
" transform="scale(0.015625)"/>
      <path id="DejaVuSans-29" d="M 513 4856 
L 1013 4856 
Q 1481 4119 1714 3412 
Q 1947 2706 1947 2009 
Q 1947 1309 1714 600 
Q 1481 -109 1013 -844 
L 513 -844 
Q 928 -128 1133 580 
Q 1338 1288 1338 2009 
Q 1338 2731 1133 3434 
Q 928 4138 513 4856 
z
" transform="scale(0.015625)"/>
      <path id="DejaVuSans-78" d="M 3513 3500 
L 2247 1797 
L 3578 0 
L 2900 0 
L 1881 1375 
L 863 0 
L 184 0 
L 1544 1831 
L 300 3500 
L 978 3500 
L 1906 2253 
L 2834 3500 
L 3513 3500 
z
" transform="scale(0.015625)"/>
      <path id="DejaVuSans-3d" d="M 678 2906 
L 4684 2906 
L 4684 2381 
L 678 2381 
L 678 2906 
z
M 678 1631 
L 4684 1631 
L 4684 1100 
L 678 1100 
L 678 1631 
z
" transform="scale(0.015625)"/>
      <path id="DejaVuSans-2e" d="M 684 794 
L 1344 794 
L 1344 0 
L 684 0 
L 684 794 
z
" transform="scale(0.015625)"/>
      <path id="DejaVuSans-38" d="M 2034 2216 
Q 1584 2216 1326 1975 
Q 1069 1734 1069 1313 
Q 1069 891 1326 650 
Q 1584 409 2034 409 
Q 2484 409 2743 651 
Q 3003 894 3003 1313 
Q 3003 1734 2745 1975 
Q 2488 2216 2034 2216 
z
M 1403 2484 
Q 997 2584 770 2862 
Q 544 3141 544 3541 
Q 544 4100 942 4425 
Q 1341 4750 2034 4750 
Q 2731 4750 3128 4425 
Q 3525 4100 3525 3541 
Q 3525 3141 3298 2862 
Q 3072 2584 2669 2484 
Q 3125 2378 3379 2068 
Q 3634 1759 3634 1313 
Q 3634 634 3220 271 
Q 2806 -91 2034 -91 
Q 1263 -91 848 271 
Q 434 634 434 1313 
Q 434 1759 690 2068 
Q 947 2378 1403 2484 
z
M 1172 3481 
Q 1172 3119 1398 2916 
Q 1625 2713 2034 2713 
Q 2441 2713 2670 2916 
Q 2900 3119 2900 3481 
Q 2900 3844 2670 4047 
Q 2441 4250 2034 4250 
Q 1625 4250 1398 4047 
Q 1172 3844 1172 3481 
z
" transform="scale(0.015625)"/>
      <path id="DejaVuSans-39" d="M 703 97 
L 703 672 
Q 941 559 1184 500 
Q 1428 441 1663 441 
Q 2288 441 2617 861 
Q 2947 1281 2994 2138 
Q 2813 1869 2534 1725 
Q 2256 1581 1919 1581 
Q 1219 1581 811 2004 
Q 403 2428 403 3163 
Q 403 3881 828 4315 
Q 1253 4750 1959 4750 
Q 2769 4750 3195 4129 
Q 3622 3509 3622 2328 
Q 3622 1225 3098 567 
Q 2575 -91 1691 -91 
Q 1453 -91 1209 -44 
Q 966 3 703 97 
z
M 1959 2075 
Q 2384 2075 2632 2365 
Q 2881 2656 2881 3163 
Q 2881 3666 2632 3958 
Q 2384 4250 1959 4250 
Q 1534 4250 1286 3958 
Q 1038 3666 1038 3163 
Q 1038 2656 1286 2365 
Q 1534 2075 1959 2075 
z
" transform="scale(0.015625)"/>
     </defs>
     <use xlink:href="#DejaVuSans-41"/>
     <use xlink:href="#DejaVuSans-52" x="68.408203"/>
     <use xlink:href="#DejaVuSans-49" x="137.890625"/>
     <use xlink:href="#DejaVuSans-4d" x="167.382812"/>
     <use xlink:href="#DejaVuSans-41" x="253.662109"/>
     <use xlink:href="#DejaVuSans-20" x="322.070312"/>
     <use xlink:href="#DejaVuSans-28" x="353.857422"/>
     <use xlink:href="#DejaVuSans-32" x="392.871094"/>
     <use xlink:href="#DejaVuSans-2c" x="456.494141"/>
     <use xlink:href="#DejaVuSans-20" x="488.28125"/>
     <use xlink:href="#DejaVuSans-31" x="520.068359"/>
     <use xlink:href="#DejaVuSans-2c" x="583.691406"/>
     <use xlink:href="#DejaVuSans-20" x="615.478516"/>
     <use xlink:href="#DejaVuSans-31" x="647.265625"/>
     <use xlink:href="#DejaVuSans-29" x="710.888672"/>
     <use xlink:href="#DejaVuSans-78" x="749.902344"/>
     <use xlink:href="#DejaVuSans-28" x="809.082031"/>
     <use xlink:href="#DejaVuSans-31" x="848.095703"/>
     <use xlink:href="#DejaVuSans-2c" x="911.71875"/>
     <use xlink:href="#DejaVuSans-20" x="943.505859"/>
     <use xlink:href="#DejaVuSans-30" x="975.292969"/>
     <use xlink:href="#DejaVuSans-2c" x="1038.916016"/>
     <use xlink:href="#DejaVuSans-20" x="1070.703125"/>
     <use xlink:href="#DejaVuSans-30" x="1102.490234"/>
     <use xlink:href="#DejaVuSans-2c" x="1166.113281"/>
     <use xlink:href="#DejaVuSans-20" x="1197.900391"/>
     <use xlink:href="#DejaVuSans-37" x="1229.6875"/>
     <use xlink:href="#DejaVuSans-29" x="1293.310547"/>
     <use xlink:href="#DejaVuSans-20" x="1332.324219"/>
     <use xlink:href="#DejaVuSans-28" x="1364.111328"/>
     <use xlink:href="#DejaVuSans-52" x="1403.125"/>
     <use xlink:href="#DejaVuSans-32" x="1472.607422"/>
     <use xlink:href="#DejaVuSans-20" x="1536.230469"/>
     <use xlink:href="#DejaVuSans-3d" x="1568.017578"/>
     <use xlink:href="#DejaVuSans-20" x="1651.806641"/>
     <use xlink:href="#DejaVuSans-30" x="1683.59375"/>
     <use xlink:href="#DejaVuSans-2e" x="1747.216797"/>
     <use xlink:href="#DejaVuSans-38" x="1779.003906"/>
     <use xlink:href="#DejaVuSans-32" x="1842.626953"/>
     <use xlink:href="#DejaVuSans-39" x="1906.25"/>
     <use xlink:href="#DejaVuSans-38" x="1969.873047"/>
     <use xlink:href="#DejaVuSans-30" x="2033.496094"/>
     <use xlink:href="#DejaVuSans-34" x="2097.119141"/>
     <use xlink:href="#DejaVuSans-29" x="2160.742188"/>
    </g>
   </g>
   <g id="legend_1">
    <g id="patch_7">
     <path d="M 1274.770313 87.789875 
L 1371.85 87.789875 
Q 1373.85 87.789875 1373.85 85.789875 
L 1373.85 42.7555 
Q 1373.85 40.7555 1371.85 40.7555 
L 1274.770313 40.7555 
Q 1272.770313 40.7555 1272.770313 42.7555 
L 1272.770313 85.789875 
Q 1272.770313 87.789875 1274.770313 87.789875 
z
" style="fill: #ffffff; opacity: 0.8; stroke: #cccccc; stroke-linejoin: miter"/>
    </g>
    <g id="line2d_22">
     <path d="M 1276.770313 48.853937 
L 1286.770313 48.853937 
L 1296.770313 48.853937 
" style="fill: none; stroke: #0000ff; stroke-width: 1.5; stroke-linecap: square"/>
    </g>
    <g id="text_20">
     <!-- Actual Value -->
     <g transform="translate(1304.770313 52.353937)scale(0.1 -0.1)">
      <defs>
       <path id="DejaVuSans-75" d="M 544 1381 
L 544 3500 
L 1119 3500 
L 1119 1403 
Q 1119 906 1312 657 
Q 1506 409 1894 409 
Q 2359 409 2629 706 
Q 2900 1003 2900 1516 
L 2900 3500 
L 3475 3500 
L 3475 0 
L 2900 0 
L 2900 538 
Q 2691 219 2414 64 
Q 2138 -91 1772 -91 
Q 1169 -91 856 284 
Q 544 659 544 1381 
z
M 1991 3584 
L 1991 3584 
z
" transform="scale(0.015625)"/>
       <path id="DejaVuSans-56" d="M 1831 0 
L 50 4666 
L 709 4666 
L 2188 738 
L 3669 4666 
L 4325 4666 
L 2547 0 
L 1831 0 
z
" transform="scale(0.015625)"/>
      </defs>
      <use xlink:href="#DejaVuSans-41"/>
      <use xlink:href="#DejaVuSans-63" x="66.658203"/>
      <use xlink:href="#DejaVuSans-74" x="121.638672"/>
      <use xlink:href="#DejaVuSans-75" x="160.847656"/>
      <use xlink:href="#DejaVuSans-61" x="224.226562"/>
      <use xlink:href="#DejaVuSans-6c" x="285.505859"/>
      <use xlink:href="#DejaVuSans-20" x="313.289062"/>
      <use xlink:href="#DejaVuSans-56" x="345.076172"/>
      <use xlink:href="#DejaVuSans-61" x="405.734375"/>
      <use xlink:href="#DejaVuSans-6c" x="467.013672"/>
      <use xlink:href="#DejaVuSans-75" x="494.796875"/>
      <use xlink:href="#DejaVuSans-65" x="558.175781"/>
     </g>
    </g>
    <g id="line2d_23">
     <path d="M 1276.770313 63.532062 
L 1286.770313 63.532062 
L 1296.770313 63.532062 
" style="fill: none; stroke: #ffa500; stroke-width: 1.5; stroke-linecap: square"/>
    </g>
    <g id="text_21">
     <!-- Check Value -->
     <g transform="translate(1304.770313 67.032062)scale(0.1 -0.1)">
      <defs>
       <path id="DejaVuSans-68" d="M 3513 2113 
L 3513 0 
L 2938 0 
L 2938 2094 
Q 2938 2591 2744 2837 
Q 2550 3084 2163 3084 
Q 1697 3084 1428 2787 
Q 1159 2491 1159 1978 
L 1159 0 
L 581 0 
L 581 4863 
L 1159 4863 
L 1159 2956 
Q 1366 3272 1645 3428 
Q 1925 3584 2291 3584 
Q 2894 3584 3203 3211 
Q 3513 2838 3513 2113 
z
" transform="scale(0.015625)"/>
       <path id="DejaVuSans-6b" d="M 581 4863 
L 1159 4863 
L 1159 1991 
L 2875 3500 
L 3609 3500 
L 1753 1863 
L 3688 0 
L 2938 0 
L 1159 1709 
L 1159 0 
L 581 0 
L 581 4863 
z
" transform="scale(0.015625)"/>
      </defs>
      <use xlink:href="#DejaVuSans-43"/>
      <use xlink:href="#DejaVuSans-68" x="69.824219"/>
      <use xlink:href="#DejaVuSans-65" x="133.203125"/>
      <use xlink:href="#DejaVuSans-63" x="194.726562"/>
      <use xlink:href="#DejaVuSans-6b" x="249.707031"/>
      <use xlink:href="#DejaVuSans-20" x="307.617188"/>
      <use xlink:href="#DejaVuSans-56" x="339.404297"/>
      <use xlink:href="#DejaVuSans-61" x="400.0625"/>
      <use xlink:href="#DejaVuSans-6c" x="461.341797"/>
      <use xlink:href="#DejaVuSans-75" x="489.125"/>
      <use xlink:href="#DejaVuSans-65" x="552.503906"/>
     </g>
    </g>
    <g id="line2d_24">
     <path d="M 1276.770313 78.210187 
L 1286.770313 78.210187 
L 1296.770313 78.210187 
" style="fill: none; stroke: #ff0000; stroke-width: 1.5; stroke-linecap: square"/>
    </g>
    <g id="text_22">
     <!-- Predict Value -->
     <g transform="translate(1304.770313 81.710187)scale(0.1 -0.1)">
      <defs>
       <path id="DejaVuSans-50" d="M 1259 4147 
L 1259 2394 
L 2053 2394 
Q 2494 2394 2734 2622 
Q 2975 2850 2975 3272 
Q 2975 3691 2734 3919 
Q 2494 4147 2053 4147 
L 1259 4147 
z
M 628 4666 
L 2053 4666 
Q 2838 4666 3239 4311 
Q 3641 3956 3641 3272 
Q 3641 2581 3239 2228 
Q 2838 1875 2053 1875 
L 1259 1875 
L 1259 0 
L 628 0 
L 628 4666 
z
" transform="scale(0.015625)"/>
      </defs>
      <use xlink:href="#DejaVuSans-50"/>
      <use xlink:href="#DejaVuSans-72" x="58.552734"/>
      <use xlink:href="#DejaVuSans-65" x="97.416016"/>
      <use xlink:href="#DejaVuSans-64" x="158.939453"/>
      <use xlink:href="#DejaVuSans-69" x="222.416016"/>
      <use xlink:href="#DejaVuSans-63" x="250.199219"/>
      <use xlink:href="#DejaVuSans-74" x="305.179688"/>
      <use xlink:href="#DejaVuSans-20" x="344.388672"/>
      <use xlink:href="#DejaVuSans-56" x="376.175781"/>
      <use xlink:href="#DejaVuSans-61" x="436.833984"/>
      <use xlink:href="#DejaVuSans-6c" x="498.113281"/>
      <use xlink:href="#DejaVuSans-75" x="525.896484"/>
      <use xlink:href="#DejaVuSans-65" x="589.275391"/>
     </g>
    </g>
   </g>
  </g>
 </g>
 <defs>
  <clipPath id="p4081187221">
   <rect x="39.65" y="35.7555" width="1339.2" height="332.64"/>
  </clipPath>
 </defs>
</svg>
