<?xml version="1.0" encoding="utf-8" standalone="no"?>
<!DOCTYPE svg PUBLIC "-//W3C//DTD SVG 1.1//EN"
  "http://www.w3.org/Graphics/SVG/1.1/DTD/svg11.dtd">
<svg xmlns:xlink="http://www.w3.org/1999/xlink" width="1392.4125pt" height="392.273625pt" viewBox="0 0 1392.4125 392.273625" xmlns="http://www.w3.org/2000/svg" version="1.1">
 <metadata>
  <rdf:RDF xmlns:dc="http://purl.org/dc/elements/1.1/" xmlns:cc="http://creativecommons.org/ns#" xmlns:rdf="http://www.w3.org/1999/02/22-rdf-syntax-ns#">
   <cc:Work>
    <dc:type rdf:resource="http://purl.org/dc/dcmitype/StillImage"/>
    <dc:date>2022-12-25T18:30:43.847942</dc:date>
    <dc:format>image/svg+xml</dc:format>
    <dc:creator>
     <cc:Agent>
      <dc:title>Matplotlib v3.5.1, https://matplotlib.org/</dc:title>
     </cc:Agent>
    </dc:creator>
   </cc:Work>
  </rdf:RDF>
 </metadata>
 <defs>
  <style type="text/css">*{stroke-linejoin: round; stroke-linecap: butt}</style>
 </defs>
 <g id="figure_1">
  <g id="patch_1">
   <path d="M 0 392.273625 
L 1392.4125 392.273625 
L 1392.4125 0 
L 0 0 
z
" style="fill: #ffffff"/>
  </g>
  <g id="axes_1">
   <g id="patch_2">
    <path d="M 46.0125 368.3955 
L 1385.2125 368.3955 
L 1385.2125 35.7555 
L 46.0125 35.7555 
z
" style="fill: #ffffff"/>
   </g>
   <g id="matplotlib.axis_1">
    <g id="xtick_1">
     <g id="line2d_1">
      <defs>
       <path id="md9cb34eeaf" d="M 0 0 
L 0 3.5 
" style="stroke: #000000; stroke-width: 0.8"/>
      </defs>
      <g>
       <use xlink:href="#md9cb34eeaf" x="82.085227" y="368.3955" style="stroke: #000000; stroke-width: 0.8"/>
      </g>
     </g>
     <g id="text_1">
      <!-- 2020-01 -->
      <g transform="translate(61.193821 382.993937)scale(0.1 -0.1)">
       <defs>
        <path id="DejaVuSans-32" d="M 1228 531 
L 3431 531 
L 3431 0 
L 469 0 
L 469 531 
Q 828 903 1448 1529 
Q 2069 2156 2228 2338 
Q 2531 2678 2651 2914 
Q 2772 3150 2772 3378 
Q 2772 3750 2511 3984 
Q 2250 4219 1831 4219 
Q 1534 4219 1204 4116 
Q 875 4013 500 3803 
L 500 4441 
Q 881 4594 1212 4672 
Q 1544 4750 1819 4750 
Q 2544 4750 2975 4387 
Q 3406 4025 3406 3419 
Q 3406 3131 3298 2873 
Q 3191 2616 2906 2266 
Q 2828 2175 2409 1742 
Q 1991 1309 1228 531 
z
" transform="scale(0.015625)"/>
        <path id="DejaVuSans-30" d="M 2034 4250 
Q 1547 4250 1301 3770 
Q 1056 3291 1056 2328 
Q 1056 1369 1301 889 
Q 1547 409 2034 409 
Q 2525 409 2770 889 
Q 3016 1369 3016 2328 
Q 3016 3291 2770 3770 
Q 2525 4250 2034 4250 
z
M 2034 4750 
Q 2819 4750 3233 4129 
Q 3647 3509 3647 2328 
Q 3647 1150 3233 529 
Q 2819 -91 2034 -91 
Q 1250 -91 836 529 
Q 422 1150 422 2328 
Q 422 3509 836 4129 
Q 1250 4750 2034 4750 
z
" transform="scale(0.015625)"/>
        <path id="DejaVuSans-2d" d="M 313 2009 
L 1997 2009 
L 1997 1497 
L 313 1497 
L 313 2009 
z
" transform="scale(0.015625)"/>
        <path id="DejaVuSans-31" d="M 794 531 
L 1825 531 
L 1825 4091 
L 703 3866 
L 703 4441 
L 1819 4666 
L 2450 4666 
L 2450 531 
L 3481 531 
L 3481 0 
L 794 0 
L 794 531 
z
" transform="scale(0.015625)"/>
       </defs>
       <use xlink:href="#DejaVuSans-32"/>
       <use xlink:href="#DejaVuSans-30" x="63.623047"/>
       <use xlink:href="#DejaVuSans-32" x="127.246094"/>
       <use xlink:href="#DejaVuSans-30" x="190.869141"/>
       <use xlink:href="#DejaVuSans-2d" x="254.492188"/>
       <use xlink:href="#DejaVuSans-30" x="290.576172"/>
       <use xlink:href="#DejaVuSans-31" x="354.199219"/>
      </g>
     </g>
    </g>
    <g id="xtick_2">
     <g id="line2d_2">
      <g>
       <use xlink:href="#md9cb34eeaf" x="218.485227" y="368.3955" style="stroke: #000000; stroke-width: 0.8"/>
      </g>
     </g>
     <g id="text_2">
      <!-- 2020-05 -->
      <g transform="translate(197.593821 382.993937)scale(0.1 -0.1)">
       <defs>
        <path id="DejaVuSans-35" d="M 691 4666 
L 3169 4666 
L 3169 4134 
L 1269 4134 
L 1269 2991 
Q 1406 3038 1543 3061 
Q 1681 3084 1819 3084 
Q 2600 3084 3056 2656 
Q 3513 2228 3513 1497 
Q 3513 744 3044 326 
Q 2575 -91 1722 -91 
Q 1428 -91 1123 -41 
Q 819 9 494 109 
L 494 744 
Q 775 591 1075 516 
Q 1375 441 1709 441 
Q 2250 441 2565 725 
Q 2881 1009 2881 1497 
Q 2881 1984 2565 2268 
Q 2250 2553 1709 2553 
Q 1456 2553 1204 2497 
Q 953 2441 691 2322 
L 691 4666 
z
" transform="scale(0.015625)"/>
       </defs>
       <use xlink:href="#DejaVuSans-32"/>
       <use xlink:href="#DejaVuSans-30" x="63.623047"/>
       <use xlink:href="#DejaVuSans-32" x="127.246094"/>
       <use xlink:href="#DejaVuSans-30" x="190.869141"/>
       <use xlink:href="#DejaVuSans-2d" x="254.492188"/>
       <use xlink:href="#DejaVuSans-30" x="290.576172"/>
       <use xlink:href="#DejaVuSans-35" x="354.199219"/>
      </g>
     </g>
    </g>
    <g id="xtick_3">
     <g id="line2d_3">
      <g>
       <use xlink:href="#md9cb34eeaf" x="357.139773" y="368.3955" style="stroke: #000000; stroke-width: 0.8"/>
      </g>
     </g>
     <g id="text_3">
      <!-- 2020-09 -->
      <g transform="translate(336.248366 382.993937)scale(0.1 -0.1)">
       <defs>
        <path id="DejaVuSans-39" d="M 703 97 
L 703 672 
Q 941 559 1184 500 
Q 1428 441 1663 441 
Q 2288 441 2617 861 
Q 2947 1281 2994 2138 
Q 2813 1869 2534 1725 
Q 2256 1581 1919 1581 
Q 1219 1581 811 2004 
Q 403 2428 403 3163 
Q 403 3881 828 4315 
Q 1253 4750 1959 4750 
Q 2769 4750 3195 4129 
Q 3622 3509 3622 2328 
Q 3622 1225 3098 567 
Q 2575 -91 1691 -91 
Q 1453 -91 1209 -44 
Q 966 3 703 97 
z
M 1959 2075 
Q 2384 2075 2632 2365 
Q 2881 2656 2881 3163 
Q 2881 3666 2632 3958 
Q 2384 4250 1959 4250 
Q 1534 4250 1286 3958 
Q 1038 3666 1038 3163 
Q 1038 2656 1286 2365 
Q 1534 2075 1959 2075 
z
" transform="scale(0.015625)"/>
       </defs>
       <use xlink:href="#DejaVuSans-32"/>
       <use xlink:href="#DejaVuSans-30" x="63.623047"/>
       <use xlink:href="#DejaVuSans-32" x="127.246094"/>
       <use xlink:href="#DejaVuSans-30" x="190.869141"/>
       <use xlink:href="#DejaVuSans-2d" x="254.492188"/>
       <use xlink:href="#DejaVuSans-30" x="290.576172"/>
       <use xlink:href="#DejaVuSans-39" x="354.199219"/>
      </g>
     </g>
    </g>
    <g id="xtick_4">
     <g id="line2d_4">
      <g>
       <use xlink:href="#md9cb34eeaf" x="494.667045" y="368.3955" style="stroke: #000000; stroke-width: 0.8"/>
      </g>
     </g>
     <g id="text_4">
      <!-- 2021-01 -->
      <g transform="translate(473.775639 382.993937)scale(0.1 -0.1)">
       <use xlink:href="#DejaVuSans-32"/>
       <use xlink:href="#DejaVuSans-30" x="63.623047"/>
       <use xlink:href="#DejaVuSans-32" x="127.246094"/>
       <use xlink:href="#DejaVuSans-31" x="190.869141"/>
       <use xlink:href="#DejaVuSans-2d" x="254.492188"/>
       <use xlink:href="#DejaVuSans-30" x="290.576172"/>
       <use xlink:href="#DejaVuSans-31" x="354.199219"/>
      </g>
     </g>
    </g>
    <g id="xtick_5">
     <g id="line2d_5">
      <g>
       <use xlink:href="#md9cb34eeaf" x="629.939773" y="368.3955" style="stroke: #000000; stroke-width: 0.8"/>
      </g>
     </g>
     <g id="text_5">
      <!-- 2021-05 -->
      <g transform="translate(609.048366 382.993937)scale(0.1 -0.1)">
       <use xlink:href="#DejaVuSans-32"/>
       <use xlink:href="#DejaVuSans-30" x="63.623047"/>
       <use xlink:href="#DejaVuSans-32" x="127.246094"/>
       <use xlink:href="#DejaVuSans-31" x="190.869141"/>
       <use xlink:href="#DejaVuSans-2d" x="254.492188"/>
       <use xlink:href="#DejaVuSans-30" x="290.576172"/>
       <use xlink:href="#DejaVuSans-35" x="354.199219"/>
      </g>
     </g>
    </g>
    <g id="xtick_6">
     <g id="line2d_6">
      <g>
       <use xlink:href="#md9cb34eeaf" x="768.594318" y="368.3955" style="stroke: #000000; stroke-width: 0.8"/>
      </g>
     </g>
     <g id="text_6">
      <!-- 2021-09 -->
      <g transform="translate(747.702912 382.993937)scale(0.1 -0.1)">
       <use xlink:href="#DejaVuSans-32"/>
       <use xlink:href="#DejaVuSans-30" x="63.623047"/>
       <use xlink:href="#DejaVuSans-32" x="127.246094"/>
       <use xlink:href="#DejaVuSans-31" x="190.869141"/>
       <use xlink:href="#DejaVuSans-2d" x="254.492188"/>
       <use xlink:href="#DejaVuSans-30" x="290.576172"/>
       <use xlink:href="#DejaVuSans-39" x="354.199219"/>
      </g>
     </g>
    </g>
    <g id="xtick_7">
     <g id="line2d_7">
      <g>
       <use xlink:href="#md9cb34eeaf" x="906.121591" y="368.3955" style="stroke: #000000; stroke-width: 0.8"/>
      </g>
     </g>
     <g id="text_7">
      <!-- 2022-01 -->
      <g transform="translate(885.230185 382.993937)scale(0.1 -0.1)">
       <use xlink:href="#DejaVuSans-32"/>
       <use xlink:href="#DejaVuSans-30" x="63.623047"/>
       <use xlink:href="#DejaVuSans-32" x="127.246094"/>
       <use xlink:href="#DejaVuSans-32" x="190.869141"/>
       <use xlink:href="#DejaVuSans-2d" x="254.492188"/>
       <use xlink:href="#DejaVuSans-30" x="290.576172"/>
       <use xlink:href="#DejaVuSans-31" x="354.199219"/>
      </g>
     </g>
    </g>
    <g id="xtick_8">
     <g id="line2d_8">
      <g>
       <use xlink:href="#md9cb34eeaf" x="1041.394318" y="368.3955" style="stroke: #000000; stroke-width: 0.8"/>
      </g>
     </g>
     <g id="text_8">
      <!-- 2022-05 -->
      <g transform="translate(1020.502912 382.993937)scale(0.1 -0.1)">
       <use xlink:href="#DejaVuSans-32"/>
       <use xlink:href="#DejaVuSans-30" x="63.623047"/>
       <use xlink:href="#DejaVuSans-32" x="127.246094"/>
       <use xlink:href="#DejaVuSans-32" x="190.869141"/>
       <use xlink:href="#DejaVuSans-2d" x="254.492188"/>
       <use xlink:href="#DejaVuSans-30" x="290.576172"/>
       <use xlink:href="#DejaVuSans-35" x="354.199219"/>
      </g>
     </g>
    </g>
    <g id="xtick_9">
     <g id="line2d_9">
      <g>
       <use xlink:href="#md9cb34eeaf" x="1180.048864" y="368.3955" style="stroke: #000000; stroke-width: 0.8"/>
      </g>
     </g>
     <g id="text_9">
      <!-- 2022-09 -->
      <g transform="translate(1159.157457 382.993937)scale(0.1 -0.1)">
       <use xlink:href="#DejaVuSans-32"/>
       <use xlink:href="#DejaVuSans-30" x="63.623047"/>
       <use xlink:href="#DejaVuSans-32" x="127.246094"/>
       <use xlink:href="#DejaVuSans-32" x="190.869141"/>
       <use xlink:href="#DejaVuSans-2d" x="254.492188"/>
       <use xlink:href="#DejaVuSans-30" x="290.576172"/>
       <use xlink:href="#DejaVuSans-39" x="354.199219"/>
      </g>
     </g>
    </g>
    <g id="xtick_10">
     <g id="line2d_10">
      <g>
       <use xlink:href="#md9cb34eeaf" x="1317.576136" y="368.3955" style="stroke: #000000; stroke-width: 0.8"/>
      </g>
     </g>
     <g id="text_10">
      <!-- 2023-01 -->
      <g transform="translate(1296.68473 382.993937)scale(0.1 -0.1)">
       <defs>
        <path id="DejaVuSans-33" d="M 2597 2516 
Q 3050 2419 3304 2112 
Q 3559 1806 3559 1356 
Q 3559 666 3084 287 
Q 2609 -91 1734 -91 
Q 1441 -91 1130 -33 
Q 819 25 488 141 
L 488 750 
Q 750 597 1062 519 
Q 1375 441 1716 441 
Q 2309 441 2620 675 
Q 2931 909 2931 1356 
Q 2931 1769 2642 2001 
Q 2353 2234 1838 2234 
L 1294 2234 
L 1294 2753 
L 1863 2753 
Q 2328 2753 2575 2939 
Q 2822 3125 2822 3475 
Q 2822 3834 2567 4026 
Q 2313 4219 1838 4219 
Q 1578 4219 1281 4162 
Q 984 4106 628 3988 
L 628 4550 
Q 988 4650 1302 4700 
Q 1616 4750 1894 4750 
Q 2613 4750 3031 4423 
Q 3450 4097 3450 3541 
Q 3450 3153 3228 2886 
Q 3006 2619 2597 2516 
z
" transform="scale(0.015625)"/>
       </defs>
       <use xlink:href="#DejaVuSans-32"/>
       <use xlink:href="#DejaVuSans-30" x="63.623047"/>
       <use xlink:href="#DejaVuSans-32" x="127.246094"/>
       <use xlink:href="#DejaVuSans-33" x="190.869141"/>
       <use xlink:href="#DejaVuSans-2d" x="254.492188"/>
       <use xlink:href="#DejaVuSans-30" x="290.576172"/>
       <use xlink:href="#DejaVuSans-31" x="354.199219"/>
      </g>
     </g>
    </g>
   </g>
   <g id="matplotlib.axis_2">
    <g id="ytick_1">
     <g id="line2d_11">
      <defs>
       <path id="m025d4665e9" d="M 0 0 
L -3.5 0 
" style="stroke: #000000; stroke-width: 0.8"/>
      </defs>
      <g>
       <use xlink:href="#m025d4665e9" x="46.0125" y="351.90297" style="stroke: #000000; stroke-width: 0.8"/>
      </g>
     </g>
     <g id="text_11">
      <!-- 0 -->
      <g transform="translate(32.65 355.702189)scale(0.1 -0.1)">
       <use xlink:href="#DejaVuSans-30"/>
      </g>
     </g>
    </g>
    <g id="ytick_2">
     <g id="line2d_12">
      <g>
       <use xlink:href="#m025d4665e9" x="46.0125" y="303.346236" style="stroke: #000000; stroke-width: 0.8"/>
      </g>
     </g>
     <g id="text_12">
      <!-- 2000 -->
      <g transform="translate(13.5625 307.145455)scale(0.1 -0.1)">
       <use xlink:href="#DejaVuSans-32"/>
       <use xlink:href="#DejaVuSans-30" x="63.623047"/>
       <use xlink:href="#DejaVuSans-30" x="127.246094"/>
       <use xlink:href="#DejaVuSans-30" x="190.869141"/>
      </g>
     </g>
    </g>
    <g id="ytick_3">
     <g id="line2d_13">
      <g>
       <use xlink:href="#m025d4665e9" x="46.0125" y="254.789503" style="stroke: #000000; stroke-width: 0.8"/>
      </g>
     </g>
     <g id="text_13">
      <!-- 4000 -->
      <g transform="translate(13.5625 258.588721)scale(0.1 -0.1)">
       <defs>
        <path id="DejaVuSans-34" d="M 2419 4116 
L 825 1625 
L 2419 1625 
L 2419 4116 
z
M 2253 4666 
L 3047 4666 
L 3047 1625 
L 3713 1625 
L 3713 1100 
L 3047 1100 
L 3047 0 
L 2419 0 
L 2419 1100 
L 313 1100 
L 313 1709 
L 2253 4666 
z
" transform="scale(0.015625)"/>
       </defs>
       <use xlink:href="#DejaVuSans-34"/>
       <use xlink:href="#DejaVuSans-30" x="63.623047"/>
       <use xlink:href="#DejaVuSans-30" x="127.246094"/>
       <use xlink:href="#DejaVuSans-30" x="190.869141"/>
      </g>
     </g>
    </g>
    <g id="ytick_4">
     <g id="line2d_14">
      <g>
       <use xlink:href="#m025d4665e9" x="46.0125" y="206.232769" style="stroke: #000000; stroke-width: 0.8"/>
      </g>
     </g>
     <g id="text_14">
      <!-- 6000 -->
      <g transform="translate(13.5625 210.031988)scale(0.1 -0.1)">
       <defs>
        <path id="DejaVuSans-36" d="M 2113 2584 
Q 1688 2584 1439 2293 
Q 1191 2003 1191 1497 
Q 1191 994 1439 701 
Q 1688 409 2113 409 
Q 2538 409 2786 701 
Q 3034 994 3034 1497 
Q 3034 2003 2786 2293 
Q 2538 2584 2113 2584 
z
M 3366 4563 
L 3366 3988 
Q 3128 4100 2886 4159 
Q 2644 4219 2406 4219 
Q 1781 4219 1451 3797 
Q 1122 3375 1075 2522 
Q 1259 2794 1537 2939 
Q 1816 3084 2150 3084 
Q 2853 3084 3261 2657 
Q 3669 2231 3669 1497 
Q 3669 778 3244 343 
Q 2819 -91 2113 -91 
Q 1303 -91 875 529 
Q 447 1150 447 2328 
Q 447 3434 972 4092 
Q 1497 4750 2381 4750 
Q 2619 4750 2861 4703 
Q 3103 4656 3366 4563 
z
" transform="scale(0.015625)"/>
       </defs>
       <use xlink:href="#DejaVuSans-36"/>
       <use xlink:href="#DejaVuSans-30" x="63.623047"/>
       <use xlink:href="#DejaVuSans-30" x="127.246094"/>
       <use xlink:href="#DejaVuSans-30" x="190.869141"/>
      </g>
     </g>
    </g>
    <g id="ytick_5">
     <g id="line2d_15">
      <g>
       <use xlink:href="#m025d4665e9" x="46.0125" y="157.676036" style="stroke: #000000; stroke-width: 0.8"/>
      </g>
     </g>
     <g id="text_15">
      <!-- 8000 -->
      <g transform="translate(13.5625 161.475254)scale(0.1 -0.1)">
       <defs>
        <path id="DejaVuSans-38" d="M 2034 2216 
Q 1584 2216 1326 1975 
Q 1069 1734 1069 1313 
Q 1069 891 1326 650 
Q 1584 409 2034 409 
Q 2484 409 2743 651 
Q 3003 894 3003 1313 
Q 3003 1734 2745 1975 
Q 2488 2216 2034 2216 
z
M 1403 2484 
Q 997 2584 770 2862 
Q 544 3141 544 3541 
Q 544 4100 942 4425 
Q 1341 4750 2034 4750 
Q 2731 4750 3128 4425 
Q 3525 4100 3525 3541 
Q 3525 3141 3298 2862 
Q 3072 2584 2669 2484 
Q 3125 2378 3379 2068 
Q 3634 1759 3634 1313 
Q 3634 634 3220 271 
Q 2806 -91 2034 -91 
Q 1263 -91 848 271 
Q 434 634 434 1313 
Q 434 1759 690 2068 
Q 947 2378 1403 2484 
z
M 1172 3481 
Q 1172 3119 1398 2916 
Q 1625 2713 2034 2713 
Q 2441 2713 2670 2916 
Q 2900 3119 2900 3481 
Q 2900 3844 2670 4047 
Q 2441 4250 2034 4250 
Q 1625 4250 1398 4047 
Q 1172 3844 1172 3481 
z
" transform="scale(0.015625)"/>
       </defs>
       <use xlink:href="#DejaVuSans-38"/>
       <use xlink:href="#DejaVuSans-30" x="63.623047"/>
       <use xlink:href="#DejaVuSans-30" x="127.246094"/>
       <use xlink:href="#DejaVuSans-30" x="190.869141"/>
      </g>
     </g>
    </g>
    <g id="ytick_6">
     <g id="line2d_16">
      <g>
       <use xlink:href="#m025d4665e9" x="46.0125" y="109.119302" style="stroke: #000000; stroke-width: 0.8"/>
      </g>
     </g>
     <g id="text_16">
      <!-- 10000 -->
      <g transform="translate(7.2 112.918521)scale(0.1 -0.1)">
       <use xlink:href="#DejaVuSans-31"/>
       <use xlink:href="#DejaVuSans-30" x="63.623047"/>
       <use xlink:href="#DejaVuSans-30" x="127.246094"/>
       <use xlink:href="#DejaVuSans-30" x="190.869141"/>
       <use xlink:href="#DejaVuSans-30" x="254.492188"/>
      </g>
     </g>
    </g>
    <g id="ytick_7">
     <g id="line2d_17">
      <g>
       <use xlink:href="#m025d4665e9" x="46.0125" y="60.562568" style="stroke: #000000; stroke-width: 0.8"/>
      </g>
     </g>
     <g id="text_17">
      <!-- 12000 -->
      <g transform="translate(7.2 64.361787)scale(0.1 -0.1)">
       <use xlink:href="#DejaVuSans-31"/>
       <use xlink:href="#DejaVuSans-32" x="63.623047"/>
       <use xlink:href="#DejaVuSans-30" x="127.246094"/>
       <use xlink:href="#DejaVuSans-30" x="190.869141"/>
       <use xlink:href="#DejaVuSans-30" x="254.492188"/>
      </g>
     </g>
    </g>
   </g>
   <g id="line2d_18">
    <path d="M 106.885227 351.90297 
L 162.121591 351.90297 
L 163.248864 351.514516 
L 164.376136 351.465959 
L 166.630682 351.878692 
L 168.885227 351.296011 
L 170.0125 351.854413 
L 171.139773 351.101784 
L 172.267045 351.028949 
L 174.521591 351.563073 
L 179.030682 351.198897 
L 180.157955 350.980392 
L 181.285227 351.538794 
L 182.4125 351.587351 
L 183.539773 350.931835 
L 184.667045 351.344568 
L 185.794318 351.053227 
L 188.048864 351.465959 
L 189.176136 351.223176 
L 190.303409 351.465959 
L 191.430682 351.223176 
L 192.557955 351.514516 
L 193.685227 351.296011 
L 194.8125 351.490238 
L 195.939773 351.271732 
L 197.067045 351.563073 
L 198.194318 351.660186 
L 199.321591 351.223176 
L 200.448864 351.077505 
L 201.576136 350.616216 
L 202.703409 350.786165 
L 204.957955 351.514516 
L 206.085227 351.053227 
L 207.2125 350.786165 
L 208.339773 350.71333 
L 209.467045 350.130649 
L 210.594318 348.576834 
L 211.721591 351.587351 
L 212.848864 350.616216 
L 213.976136 350.373433 
L 215.103409 351.028949 
L 217.357955 350.470546 
L 219.6125 350.956114 
L 220.739773 351.320289 
L 221.867045 351.077505 
L 224.121591 350.106371 
L 225.248864 350.664773 
L 226.376136 350.859 
L 227.503409 350.71333 
L 228.630682 350.834722 
L 229.757955 351.296011 
L 230.885227 351.101784 
L 232.0125 350.786165 
L 233.139773 351.150341 
L 234.267045 350.980392 
L 236.521591 351.028949 
L 237.648864 351.320289 
L 238.776136 351.320289 
L 241.030682 350.956114 
L 242.157955 350.907557 
L 243.285227 351.028949 
L 245.539773 351.7573 
L 248.921591 351.490238 
L 250.048864 351.708743 
L 251.176136 351.563073 
L 252.303409 351.563073 
L 253.430682 351.7573 
L 254.557955 351.441681 
L 256.8125 351.296011 
L 257.939773 350.883279 
L 259.067045 349.863587 
L 260.194318 351.514516 
L 261.321591 349.887865 
L 262.448864 349.984979 
L 263.576136 349.37802 
L 264.703409 349.645082 
L 265.830682 349.353741 
L 266.957955 350.082092 
L 268.085227 351.320289 
L 269.2125 350.664773 
L 270.339773 349.183793 
L 271.467045 349.742195 
L 272.594318 348.698226 
L 273.721591 349.936422 
L 274.848864 349.062401 
L 275.976136 351.101784 
L 278.230682 348.746782 
L 279.357955 348.795339 
L 280.485227 347.872761 
L 281.6125 349.353741 
L 282.739773 349.183793 
L 283.867045 350.300598 
L 284.994318 348.503999 
L 286.121591 348.066988 
L 287.248864 347.897039 
L 288.376136 347.994153 
L 289.503409 347.484307 
L 290.630682 347.532864 
L 291.757955 350.373433 
L 292.885227 347.678534 
L 294.0125 347.338637 
L 295.139773 346.076162 
L 296.267045 343.891109 
L 297.394318 344.813687 
L 298.521591 346.780235 
L 299.648864 350.033536 
L 301.903409 346.221832 
L 303.030682 346.270389 
L 305.285227 344.668017 
L 307.539773 349.596525 
L 308.667045 347.14441 
L 309.794318 344.012501 
L 310.921591 343.891109 
L 312.048864 345.372089 
L 313.176136 345.347811 
L 315.430682 349.110958 
L 316.557955 347.192967 
L 317.685227 345.833378 
L 318.8125 345.007914 
L 319.939773 345.469203 
L 321.067045 345.347811 
L 322.194318 348.358328 
L 323.321591 349.013844 
L 324.448864 346.950183 
L 326.703409 344.546625 
L 327.830682 344.692295 
L 328.957955 347.168688 
L 330.085227 348.649669 
L 331.2125 350.616216 
L 332.339773 349.086679 
L 333.467045 346.804513 
L 334.594318 347.751369 
L 335.721591 351.90297 
L 336.848864 343.405542 
L 337.976136 349.717917 
L 339.103409 351.126062 
L 340.230682 348.62539 
L 341.357955 347.799926 
L 342.485227 348.236937 
L 343.6125 348.455442 
L 344.739773 347.799926 
L 345.867045 351.90297 
L 346.994318 348.115545 
L 348.121591 349.499412 
L 349.248864 346.974461 
L 350.376136 347.969875 
L 351.503409 348.091266 
L 352.630682 348.091266 
L 353.757955 349.499412 
L 354.885227 351.271732 
L 356.0125 350.057814 
L 357.139773 347.338637 
L 358.267045 347.945596 
L 359.394318 348.066988 
L 360.521591 347.557142 
L 361.648864 349.572247 
L 362.776136 350.956114 
L 363.903409 350.519103 
L 365.030682 347.848483 
L 366.157955 348.941009 
L 368.4125 347.023018 
L 369.539773 349.66936 
L 370.667045 351.247454 
L 371.794318 348.431163 
L 372.921591 348.139823 
L 374.048864 347.678534 
L 375.176136 348.164101 
L 376.303409 347.314359 
L 377.430682 349.81503 
L 378.557955 350.834722 
L 379.685227 348.236937 
L 380.8125 349.256628 
L 381.939773 348.018431 
L 383.067045 344.862244 
L 384.194318 345.711986 
L 385.321591 347.799926 
L 386.448864 350.494825 
L 387.576136 346.658843 
L 388.703409 345.202141 
L 389.830682 344.959357 
L 390.957955 351.90297 
L 392.085227 339.690951 
L 393.2125 347.484307 
L 394.339773 350.227763 
L 395.467045 345.032192 
L 396.594318 341.317602 
L 397.721591 341.293324 
L 398.848864 339.375333 
L 399.976136 337.044609 
L 401.103409 341.026262 
L 402.230682 349.887865 
L 403.357955 337.651569 
L 404.485227 332.844452 
L 405.6125 332.018988 
L 406.739773 329.712543 
L 407.867045 327.67316 
L 408.994318 337.263115 
L 410.121591 342.313015 
L 411.248864 327.041922 
L 412.376136 319.467072 
L 414.630682 313.178975 
L 415.757955 313.324645 
L 416.885227 326.580633 
L 418.0125 343.963944 
L 419.139773 297.446593 
L 420.267045 289.531846 
L 421.394318 284.894678 
L 422.521591 286.618442 
L 423.648864 281.714212 
L 424.776136 308.129075 
L 425.903409 322.161971 
L 427.030682 292.979374 
L 428.157955 253.79409 
L 429.285227 253.478471 
L 430.4125 260.761981 
L 431.539773 258.69832 
L 433.794318 335.515072 
L 434.921591 259.256722 
L 436.048864 245.32094 
L 437.176136 256.124813 
L 438.303409 269.016626 
L 439.430682 249.642489 
L 441.685227 332.091823 
L 442.8125 266.467397 
L 443.939773 234.687015 
L 445.067045 256.294761 
L 446.194318 257.241618 
L 447.321591 255.202235 
L 448.448864 296.572572 
L 449.576136 324.638364 
L 450.703409 275.523228 
L 451.830682 245.515167 
L 452.957955 261.781672 
L 454.085227 265.277757 
L 455.2125 271.128844 
L 456.339773 308.396137 
L 457.467045 333.961257 
L 458.594318 283.583646 
L 459.721591 267.535645 
L 460.848864 275.717455 
L 461.976136 272.269927 
L 463.103409 264.160952 
L 465.357955 337.894352 
L 466.485227 284.797564 
L 467.6125 255.27507 
L 468.739773 271.104565 
L 469.867045 277.246992 
L 470.994318 276.712868 
L 472.121591 320.656712 
L 473.248864 339.836622 
L 474.376136 301.039791 
L 475.503409 285.30741 
L 476.630682 304.341649 
L 477.757955 302.326545 
L 478.885227 309.68289 
L 480.0125 327.576046 
L 481.139773 347.872761 
L 482.267045 320.899496 
L 483.394318 308.226188 
L 484.521591 312.693408 
L 485.648864 333.160071 
L 486.776136 345.66343 
L 487.903409 340.516416 
L 489.030682 343.842552 
L 490.157955 343.72116 
L 491.285227 316.990678 
L 492.4125 309.925674 
L 493.539773 326.507798 
L 494.667045 345.250697 
L 495.794318 343.648325 
L 496.921591 347.751369 
L 498.048864 326.920531 
L 499.176136 320.098309 
L 500.303409 327.576046 
L 501.430682 330.853626 
L 502.557955 333.62136 
L 503.685227 342.337293 
L 504.8125 349.353741 
L 505.939773 336.850383 
L 507.067045 333.694195 
L 508.194318 338.914044 
L 509.321591 338.914044 
L 510.448864 338.501311 
L 511.576136 346.24611 
L 512.703409 350.033536 
L 513.830682 338.064301 
L 514.957955 338.695538 
L 516.085227 340.200797 
L 517.2125 340.856313 
L 518.339773 338.161414 
L 519.467045 345.444924 
L 520.594318 348.965288 
L 521.721591 333.160071 
L 522.848864 331.824761 
L 523.976136 337.384507 
L 525.103409 338.307085 
L 526.230682 335.029505 
L 527.357955 343.42982 
L 528.485227 348.746782 
L 529.6125 331.703369 
L 530.739773 328.425789 
L 531.867045 334.446824 
L 532.994318 330.465172 
L 534.121591 329.809656 
L 535.248864 339.933735 
L 536.376136 347.484307 
L 537.503409 324.832591 
L 538.630682 322.477589 
L 539.757955 329.736821 
L 540.885227 325.925117 
L 542.0125 328.450068 
L 543.139773 339.618116 
L 544.267045 347.945596 
L 545.394318 325.973674 
L 546.521591 319.151453 
L 547.648864 321.652125 
L 548.776136 325.536664 
L 549.903409 316.383719 
L 551.030682 338.598425 
L 552.157955 346.391781 
L 553.285227 305.167114 
L 554.4125 308.20191 
L 555.539773 309.82856 
L 556.667045 307.667786 
L 557.794318 311.091035 
L 558.921591 325.706612 
L 560.048864 343.842552 
L 561.176136 289.070557 
L 562.303409 293.562055 
L 563.430682 323.885735 
L 564.557955 298.53912 
L 565.685227 278.970756 
L 566.8125 317.282019 
L 567.939773 339.836622 
L 569.067045 279.189261 
L 570.194318 266.880129 
L 571.321591 284.55478 
L 572.448864 276.130187 
L 573.576136 275.207609 
L 574.703409 302.884947 
L 575.830682 335.417959 
L 576.957955 239.324183 
L 578.085227 245.709394 
L 579.2125 249.909551 
L 580.339773 254.595276 
L 581.467045 250.856407 
L 583.721591 329.00847 
L 584.848864 243.451505 
L 585.976136 234.128613 
L 587.103409 245.685115 
L 588.230682 255.080843 
L 589.357955 251.657593 
L 591.6125 328.037335 
L 592.739773 242.723154 
L 593.867045 226.238143 
L 594.994318 249.763881 
L 596.121591 262.218683 
L 597.248864 254.473884 
L 598.376136 305.312784 
L 599.503409 333.936979 
L 600.630682 258.188474 
L 601.757955 351.90297 
L 602.885227 168.358517 
L 604.0125 280.111839 
L 605.139773 283.850708 
L 606.267045 319.078618 
L 607.394318 340.686364 
L 608.521591 276.105909 
L 609.648864 280.427458 
L 610.776136 290.794321 
L 611.903409 298.854738 
L 613.030682 300.287162 
L 614.157955 325.779447 
L 615.285227 341.754613 
L 616.4125 292.809425 
L 617.539773 301.015513 
L 618.667045 303.29768 
L 619.794318 351.90297 
L 620.921591 269.623585 
L 622.048864 332.528833 
L 623.176136 342.191623 
L 624.303409 309.197323 
L 625.430682 306.987991 
L 626.557955 318.350267 
L 627.685227 321.87063 
L 628.8125 336.073475 
L 629.939773 340.589251 
L 631.067045 343.454098 
L 632.194318 336.58332 
L 633.321591 342.992809 
L 634.448864 312.20784 
L 635.576136 338.67126 
L 636.703409 324.638364 
L 637.830682 340.589251 
L 638.957955 346.051884 
L 640.085227 325.730891 
L 642.339773 335.952083 
L 643.467045 339.618116 
L 644.594318 339.326776 
L 645.721591 346.974461 
L 646.848864 348.236937 
L 647.976136 335.466516 
L 649.103409 340.807756 
L 650.230682 343.13848 
L 651.357955 342.968531 
L 652.485227 343.114201 
L 653.6125 348.309772 
L 654.739773 349.936422 
L 655.867045 349.936422 
L 656.994318 342.045953 
L 658.121591 342.361572 
L 659.248864 344.789408 
L 660.376136 344.935079 
L 661.503409 349.110958 
L 662.630682 350.616216 
L 663.757955 344.546625 
L 664.885227 346.173275 
L 666.0125 347.120132 
L 667.139773 347.775648 
L 668.267045 348.091266 
L 669.394318 349.742195 
L 670.521591 350.761887 
L 671.648864 346.85307 
L 672.776136 347.581421 
L 673.903409 348.722504 
L 675.030682 349.475133 
L 676.157955 348.916731 
L 678.4125 350.883279 
L 679.539773 348.091266 
L 680.667045 347.994153 
L 681.794318 349.596525 
L 682.921591 349.23235 
L 684.048864 349.353741 
L 685.176136 350.907557 
L 686.303409 351.247454 
L 687.430682 348.989566 
L 688.557955 349.620803 
L 689.685227 349.645082 
L 690.8125 350.397711 
L 691.939773 349.81503 
L 693.067045 351.223176 
L 694.194318 351.514516 
L 695.321591 349.110958 
L 696.448864 349.353741 
L 697.576136 350.009257 
L 698.703409 350.130649 
L 699.830682 349.936422 
L 700.957955 350.664773 
L 702.085227 351.90297 
L 703.2125 349.062401 
L 705.467045 350.446268 
L 706.594318 350.56766 
L 707.721591 350.42199 
L 708.848864 351.126062 
L 709.976136 351.514516 
L 711.103409 349.887865 
L 712.230682 350.106371 
L 714.485227 349.620803 
L 716.739773 350.519103 
L 717.867045 351.053227 
L 718.994318 349.159514 
L 720.121591 348.382607 
L 721.248864 349.572247 
L 722.376136 348.965288 
L 723.503409 348.62539 
L 724.630682 350.591938 
L 725.757955 350.519103 
L 726.885227 347.217245 
L 728.0125 347.047297 
L 730.267045 346.294667 
L 731.394318 343.502655 
L 732.521591 347.484307 
L 733.648864 349.620803 
L 734.776136 342.361572 
L 735.903409 340.686364 
L 737.030682 341.487551 
L 738.157955 339.763787 
L 739.285227 338.574147 
L 740.4125 342.38585 
L 741.539773 347.629977 
L 742.667045 333.111514 
L 743.794318 332.358885 
L 744.921591 332.917287 
L 746.048864 330.48945 
L 747.176136 326.48352 
L 748.303409 336.777547 
L 749.430682 345.299254 
L 750.557955 320.316815 
L 751.685227 317.791865 
L 753.939773 318.617329 
L 755.067045 318.690164 
L 756.194318 331.38775 
L 757.321591 342.580077 
L 758.448864 305.992578 
L 759.576136 305.507011 
L 760.703409 313.033305 
L 761.830682 309.82856 
L 762.957955 310.314128 
L 764.085227 327.52749 
L 765.2125 340.953427 
L 766.339773 301.161183 
L 767.467045 302.059483 
L 768.594318 309.53722 
L 769.721591 313.931604 
L 770.848864 312.086448 
L 771.976136 331.169245 
L 773.103409 340.055127 
L 774.230682 335.466516 
L 775.357955 303.224845 
L 776.485227 304.414484 
L 777.6125 312.35351 
L 778.739773 312.426346 
L 779.867045 329.833935 
L 780.994318 341.293324 
L 782.121591 303.394793 
L 783.248864 302.642164 
L 784.376136 306.696651 
L 785.503409 310.047066 
L 786.630682 305.9683 
L 787.757955 328.814243 
L 788.885227 340.783478 
L 790.0125 294.606024 
L 791.139773 298.68479 
L 792.267045 331.266358 
L 793.394318 307.352167 
L 794.521591 305.67696 
L 795.648864 326.702025 
L 796.776136 339.8609 
L 797.903409 290.333032 
L 799.030682 289.434732 
L 800.157955 299.898708 
L 801.285227 302.132318 
L 802.4125 301.136905 
L 803.539773 322.089136 
L 804.667045 339.448168 
L 805.794318 283.777873 
L 806.921591 282.321171 
L 808.048864 290.187362 
L 809.176136 296.01417 
L 810.303409 291.571228 
L 811.430682 321.652125 
L 812.557955 336.826104 
L 813.685227 267.632759 
L 814.8125 267.681316 
L 817.067045 274.624928 
L 818.194318 268.385388 
L 819.321591 306.575259 
L 820.448864 327.624603 
L 821.576136 231.020982 
L 822.703409 231.555106 
L 823.830682 242.116195 
L 824.957955 234.978355 
L 826.085227 234.735572 
L 827.2125 270.473328 
L 828.339773 318.641607 
L 829.467045 209.558905 
L 830.594318 186.421622 
L 831.721591 214.900146 
L 832.848864 226.189587 
L 833.976136 224.295874 
L 835.103409 283.049522 
L 836.230682 316.52939 
L 837.357955 206.062821 
L 838.485227 209.558905 
L 839.6125 232.404849 
L 840.739773 238.717224 
L 841.867045 236.969182 
L 842.994318 283.292305 
L 844.121591 321.409341 
L 845.248864 223.567523 
L 846.376136 231.603662 
L 847.503409 258.358423 
L 848.630682 274.042248 
L 849.757955 275.523228 
L 850.885227 312.814799 
L 852.0125 331.800482 
L 853.139773 273.653794 
L 854.267045 257.969969 
L 855.394318 282.976687 
L 857.648864 285.45308 
L 858.776136 316.577946 
L 859.903409 334.106927 
L 861.030682 267.851264 
L 862.157955 273.41101 
L 863.285227 289.531846 
L 864.4125 294.363241 
L 865.539773 291.498393 
L 866.667045 322.331919 
L 867.794318 334.228319 
L 868.921591 278.582302 
L 870.048864 286.812669 
L 871.176136 300.797008 
L 872.303409 302.909226 
L 873.430682 296.329788 
L 874.557955 327.988779 
L 875.685227 334.762443 
L 876.8125 293.003652 
L 877.939773 296.087005 
L 879.067045 311.795108 
L 880.194318 307.546394 
L 881.321591 310.168457 
L 882.448864 325.852282 
L 884.703409 351.90297 
L 885.830682 255.687802 
L 886.957955 310.022787 
L 888.085227 316.869287 
L 889.2125 312.717686 
L 890.339773 329.955326 
L 891.467045 340.832035 
L 892.594318 303.321958 
L 893.721591 306.186805 
L 894.848864 316.383719 
L 895.976136 304.171701 
L 897.103409 326.823417 
L 898.230682 333.864143 
L 899.357955 331.557699 
L 900.485227 320.875217 
L 901.6125 321.919187 
L 902.739773 268.166883 
L 903.867045 264.112396 
L 904.994318 283.680759 
L 906.121591 325.779447 
L 907.248864 318.981505 
L 908.376136 305.337062 
L 909.503409 200.114621 
L 910.630682 187.63554 
L 911.757955 217.764993 
L 912.885227 217.789272 
L 914.0125 274.794877 
L 915.139773 310.241293 
L 916.267045 187.756932 
L 917.394318 180.449144 
L 918.521591 213.443444 
L 919.648864 181.128938 
L 920.776136 185.280539 
L 921.903409 245.345218 
L 923.030682 294.144735 
L 924.157955 109.216415 
L 925.285227 80.446551 
L 926.4125 105.234763 
L 927.539773 135.048598 
L 928.667045 112.178376 
L 929.794318 190.937398 
L 930.921591 282.78246 
L 932.048864 83.651295 
L 933.176136 50.8755 
L 934.303409 111.158685 
L 935.430682 112.178376 
L 936.557955 112.251211 
L 937.685227 209.267565 
L 938.8125 288.73066 
L 939.939773 105.453269 
L 941.067045 81.369129 
L 942.194318 129.707357 
L 943.321591 154.228507 
L 944.448864 154.859745 
L 945.576136 236.896346 
L 946.703409 298.951852 
L 947.830682 157.384695 
L 948.957955 154.277064 
L 950.085227 175.569192 
L 951.2125 199.483383 
L 952.339773 193.340956 
L 953.467045 263.89389 
L 954.594318 314.538563 
L 955.721591 203.076581 
L 956.848864 191.932811 
L 957.976136 229.952734 
L 959.103409 239.591245 
L 960.230682 239.834029 
L 961.357955 288.657824 
L 962.485227 321.919187 
L 963.6125 234.274283 
L 964.739773 238.595832 
L 965.867045 269.089461 
L 966.994318 282.612511 
L 968.121591 281.422871 
L 969.248864 316.262327 
L 970.376136 334.325432 
L 971.503409 284.918956 
L 972.630682 287.783803 
L 973.757955 296.693964 
L 974.885227 325.099653 
L 976.0125 300.31144 
L 977.139773 318.204597 
L 978.267045 339.399611 
L 979.394318 292.129631 
L 981.648864 305.288506 
L 982.776136 310.799695 
L 983.903409 312.20784 
L 985.030682 328.595738 
L 986.157955 339.205384 
L 987.285227 292.833704 
L 988.4125 293.804838 
L 989.539773 304.584433 
L 990.667045 310.144179 
L 991.794318 313.033305 
L 992.921591 329.591151 
L 994.048864 340.443581 
L 995.176136 304.317371 
L 996.303409 304.730103 
L 997.430682 314.222945 
L 998.557955 317.330576 
L 999.685227 319.539907 
L 1000.8125 334.811 
L 1001.939773 343.114201 
L 1003.067045 316.893565 
L 1004.194318 310.678303 
L 1005.321591 323.351611 
L 1006.448864 324.152797 
L 1007.576136 326.823417 
L 1008.703409 339.836622 
L 1009.830682 346.416059 
L 1010.957955 323.254497 
L 1012.085227 331.53342 
L 1013.2125 334.276876 
L 1014.339773 335.320845 
L 1015.467045 334.543938 
L 1016.594318 344.109614 
L 1017.721591 345.469203 
L 1018.848864 330.756512 
L 1019.976136 330.392337 
L 1021.103409 336.194867 
L 1022.230682 338.549868 
L 1023.357955 337.117445 
L 1024.485227 345.736265 
L 1025.6125 346.513173 
L 1026.739773 330.173832 
L 1027.867045 335.660743 
L 1028.994318 337.117445 
L 1030.121591 336.58332 
L 1031.248864 344.935079 
L 1032.376136 343.308428 
L 1033.503409 346.148997 
L 1034.630682 342.750026 
L 1035.757955 324.225632 
L 1036.885227 333.9127 
L 1038.0125 337.62729 
L 1039.139773 339.982292 
L 1040.267045 345.517759 
L 1041.394318 346.027605 
L 1042.521591 346.367502 
L 1043.648864 334.422546 
L 1044.776136 341.34188 
L 1045.903409 341.244767 
L 1047.030682 348.115545 
L 1048.157955 347.023018 
L 1049.285227 348.236937 
L 1050.4125 336.753269 
L 1051.539773 341.657499 
L 1052.667045 343.187036 
L 1053.794318 343.842552 
L 1054.921591 344.303841 
L 1056.048864 348.18838 
L 1057.176136 348.843896 
L 1058.303409 343.114201 
L 1059.430682 340.807756 
L 1060.557955 345.226419 
L 1061.685227 345.542038 
L 1062.8125 346.10044 
L 1063.939773 349.66936 
L 1065.067045 349.572247 
L 1066.194318 344.789408 
L 1067.321591 349.475133 
L 1068.448864 344.231006 
L 1069.576136 346.173275 
L 1070.703409 347.824204 
L 1071.830682 348.673947 
L 1072.957955 350.130649 
L 1074.085227 345.760543 
L 1075.2125 347.484307 
L 1076.339773 347.314359 
L 1077.467045 347.484307 
L 1078.594318 347.314359 
L 1079.721591 349.960701 
L 1080.848864 350.71333 
L 1081.976136 344.813687 
L 1083.103409 347.824204 
L 1084.230682 348.018431 
L 1085.357955 349.159514 
L 1086.485227 347.338637 
L 1087.6125 349.912144 
L 1088.739773 350.883279 
L 1089.867045 345.930492 
L 1090.994318 347.848483 
L 1092.121591 348.212658 
L 1093.248864 346.076162 
L 1094.376136 346.85307 
L 1095.503409 348.965288 
L 1096.630682 349.66936 
L 1097.757955 342.652912 
L 1098.885227 344.376676 
L 1100.0125 343.745439 
L 1101.139773 344.133893 
L 1102.267045 345.736265 
L 1103.394318 346.076162 
L 1104.521591 348.916731 
L 1105.648864 337.457342 
L 1106.776136 338.574147 
L 1107.903409 338.986879 
L 1109.030682 340.443581 
L 1110.157955 338.841209 
L 1111.285227 344.279563 
L 1112.4125 347.460029 
L 1113.539773 329.032748 
L 1114.667045 330.877904 
L 1115.794318 336.29198 
L 1116.921591 331.460585 
L 1118.048864 327.503211 
L 1119.176136 343.13848 
L 1120.303409 345.687708 
L 1121.430682 320.146866 
L 1122.557955 324.24991 
L 1123.685227 327.114757 
L 1124.8125 325.026818 
L 1125.939773 324.881148 
L 1127.067045 338.501311 
L 1128.194318 341.778891 
L 1129.321591 296.256953 
L 1130.448864 306.696651 
L 1131.576136 311.989335 
L 1132.703409 312.086448 
L 1133.830682 308.760312 
L 1134.957955 331.946152 
L 1136.085227 340.030849 
L 1137.2125 279.383488 
L 1138.339773 298.709068 
L 1139.467045 304.705825 
L 1140.594318 308.930261 
L 1141.721591 310.58119 
L 1142.848864 334.373989 
L 1143.976136 351.90297 
L 1145.103409 276.907095 
L 1146.230682 304.535876 
L 1147.357955 310.605468 
L 1148.485227 315.582533 
L 1149.6125 313.883048 
L 1150.739773 335.806413 
L 1151.867045 341.924561 
L 1152.994318 295.625716 
L 1154.121591 312.183562 
L 1155.248864 317.209184 
L 1156.376136 320.972331 
L 1157.503409 327.041922 
L 1158.630682 332.043266 
L 1159.757955 343.28415 
L 1160.885227 306.648094 
L 1162.0125 319.127175 
L 1163.139773 323.035992 
L 1164.267045 325.512385 
L 1165.394318 324.201353 
L 1166.521591 341.706056 
L 1167.648864 344.862244 
L 1168.776136 309.415828 
L 1169.903409 323.982848 
L 1171.030682 328.401511 
L 1172.157955 329.979605 
L 1173.285227 331.24208 
L 1174.4125 344.643738 
L 1175.539773 347.314359 
L 1176.667045 317.840421 
L 1177.794318 331.023574 
L 1178.921591 333.038679 
L 1180.048864 333.76703 
L 1181.176136 335.587907 
L 1182.303409 346.416059 
L 1183.430682 347.581421 
L 1184.557955 334.325432 
L 1185.685227 340.710643 
L 1186.8125 333.76703 
L 1187.939773 338.549868 
L 1189.067045 338.234249 
L 1190.194318 345.66343 
L 1191.321591 347.897039 
L 1192.448864 351.90297 
L 1193.576136 315.33975 
L 1194.703409 338.695538 
L 1195.830682 342.750026 
L 1196.957955 334.811 
L 1198.085227 347.095853 
L 1199.2125 348.503999 
L 1200.339773 328.935635 
L 1201.467045 336.898939 
L 1202.594318 338.81693 
L 1203.721591 347.969875 
L 1204.848864 333.742752 
L 1205.976136 345.372089 
L 1207.103409 347.338637 
L 1208.230682 324.541251 
L 1209.357955 330.465172 
L 1210.485227 333.232906 
L 1211.6125 333.645638 
L 1212.739773 332.455998 
L 1213.867045 344.668017 
L 1214.994318 347.557142 
L 1216.121591 319.394237 
L 1217.248864 329.15414 
L 1218.376136 334.398267 
L 1219.503409 335.272289 
L 1220.630682 334.980948 
L 1221.757955 344.9108 
L 1222.885227 346.755956 
L 1224.0125 317.573359 
L 1225.139773 329.833935 
L 1226.267045 330.416615 
L 1227.394318 332.990122 
L 1228.521591 332.893009 
L 1229.648864 347.168688 
L 1230.776136 344.886522 
L 1231.903409 324.055683 
L 1233.030682 332.795895 
L 1234.157955 336.607599 
L 1235.285227 337.675847 
L 1236.4125 334.471103 
L 1237.539773 346.561729 
L 1238.667045 347.848483 
L 1239.794318 324.10424 
L 1240.921591 335.757856 
L 1243.176136 337.894352 
L 1244.303409 337.505898 
L 1245.430682 347.532864 
L 1246.557955 348.965288 
L 1247.685227 331.363472 
L 1248.8125 339.448168 
L 1249.939773 341.973118 
L 1251.067045 337.821517 
L 1252.194318 351.90297 
L 1253.321591 338.040022 
L 1254.448864 349.547968 
L 1255.576136 335.587907 
L 1256.703409 351.90297 
L 1257.830682 343.162758 
L 1258.957955 340.564973 
L 1260.085227 337.020331 
L 1261.2125 348.722504 
L 1262.339773 350.033536 
L 1263.467045 340.273632 
L 1264.594318 344.498068 
L 1266.848864 346.561729 
L 1267.976136 345.226419 
L 1269.103409 349.863587 
L 1270.230682 350.664773 
L 1271.357955 342.264458 
L 1272.485227 346.804513 
L 1273.6125 345.784822 
L 1274.739773 347.095853 
L 1275.867045 347.460029 
L 1276.994318 350.689052 
L 1278.121591 350.786165 
L 1279.248864 344.9108 
L 1280.376136 347.945596 
L 1281.503409 346.537451 
L 1282.630682 348.18838 
L 1283.757955 347.411472 
L 1284.885227 350.494825 
L 1286.0125 350.907557 
L 1287.139773 344.740852 
L 1288.267045 346.85307 
L 1289.394318 346.950183 
L 1290.521591 347.387194 
L 1291.648864 347.071575 
L 1292.776136 350.252041 
L 1293.903409 350.470546 
L 1295.030682 343.57549 
L 1296.157955 346.586008 
L 1297.285227 346.780235 
L 1298.4125 347.43575 
L 1299.539773 351.90297 
L 1300.667045 345.323533 
L 1301.794318 350.786165 
L 1302.921591 345.007914 
L 1304.048864 351.90297 
L 1305.176136 343.405542 
L 1306.303409 348.33405 
L 1307.430682 347.532864 
L 1308.557955 349.960701 
L 1308.557955 349.960701 
" clip-path="url(#p95b5f6d35c)" style="fill: none; stroke: #0000ff; stroke-width: 1.5; stroke-linecap: square"/>
   </g>
   <g id="line2d_19">
    <path d="M 1068.448864 348.254335 
L 1069.576136 347.48204 
L 1070.703409 348.86869 
L 1071.830682 350.950136 
L 1072.957955 350.216898 
L 1074.085227 345.426073 
L 1075.2125 348.239623 
L 1076.339773 345.350107 
L 1077.467045 347.288964 
L 1080.848864 350.7998 
L 1081.976136 346.66399 
L 1083.103409 347.939249 
L 1084.230682 347.212787 
L 1086.485227 348.179014 
L 1087.6125 350.101168 
L 1088.739773 351.087033 
L 1089.867045 346.01797 
L 1090.994318 348.355022 
L 1092.121591 348.128574 
L 1093.248864 349.06903 
L 1094.376136 346.990962 
L 1095.503409 349.207352 
L 1096.630682 349.506396 
L 1097.757955 345.149948 
L 1098.885227 346.268896 
L 1100.0125 346.149383 
L 1101.139773 343.874066 
L 1102.267045 343.954373 
L 1103.394318 346.016926 
L 1104.521591 346.802261 
L 1105.648864 341.975969 
L 1106.776136 342.285555 
L 1107.903409 341.257765 
L 1109.030682 339.923853 
L 1110.157955 340.740891 
L 1111.285227 340.522704 
L 1112.4125 343.910706 
L 1113.539773 335.60785 
L 1114.667045 335.397809 
L 1115.794318 334.946938 
L 1116.921591 335.401809 
L 1118.048864 332.70235 
L 1119.176136 335.341051 
L 1120.303409 339.8726 
L 1121.430682 326.203506 
L 1122.557955 326.983627 
L 1123.685227 331.009952 
L 1124.8125 326.126067 
L 1125.939773 322.321692 
L 1127.067045 333.743877 
L 1128.194318 337.52983 
L 1129.321591 318.632439 
L 1130.448864 316.199077 
L 1131.576136 317.368284 
L 1132.703409 310.430771 
L 1133.830682 308.856398 
L 1134.957955 319.817468 
L 1136.085227 326.957501 
L 1137.2125 295.120873 
L 1138.339773 299.918328 
L 1139.467045 305.89097 
L 1140.594318 302.695105 
L 1141.721591 301.586086 
L 1142.848864 321.77706 
L 1143.976136 332.808959 
L 1145.103409 290.334192 
L 1146.230682 302.627978 
L 1147.357955 311.021982 
L 1148.485227 311.210547 
L 1149.6125 313.097435 
L 1150.739773 332.918577 
L 1151.867045 348.201713 
L 1152.994318 285.005528 
L 1154.121591 310.149192 
L 1155.248864 314.651939 
L 1156.376136 320.99053 
L 1157.503409 320.150713 
L 1158.630682 341.83187 
L 1159.757955 345.672538 
L 1160.885227 301.289277 
L 1162.0125 317.407086 
L 1164.267045 326.343978 
L 1165.394318 330.542997 
L 1166.521591 336.671677 
L 1167.648864 346.868938 
L 1168.776136 310.522376 
L 1169.903409 323.159189 
L 1171.030682 326.774593 
L 1172.157955 329.628589 
L 1173.285227 329.574365 
L 1174.4125 343.851084 
L 1175.539773 348.353224 
L 1176.667045 316.557927 
L 1177.794318 329.484031 
L 1178.921591 333.526022 
L 1180.048864 335.144599 
L 1181.176136 335.841165 
L 1182.303409 347.809177 
L 1183.430682 349.905327 
L 1184.557955 322.27454 
L 1185.685227 337.149646 
L 1186.8125 339.803496 
L 1187.939773 340.771227 
L 1189.067045 342.182907 
L 1190.194318 350.199507 
L 1191.321591 349.722496 
L 1192.448864 333.789058 
L 1193.576136 345.416263 
L 1194.703409 332.383704 
L 1195.830682 340.903886 
L 1196.957955 336.769385 
L 1198.085227 344.554337 
L 1199.2125 346.881433 
L 1200.339773 347.387124 
L 1201.467045 319.295245 
L 1202.594318 339.120812 
L 1203.721591 339.616593 
L 1204.848864 339.358759 
L 1205.976136 347.396448 
L 1207.103409 350.091894 
L 1208.230682 334.395748 
L 1209.357955 331.659031 
L 1210.485227 335.763835 
L 1211.6125 340.762221 
L 1212.739773 328.040832 
L 1213.867045 339.053509 
L 1214.994318 341.352803 
L 1216.121591 325.276958 
L 1217.248864 328.402123 
L 1218.376136 332.732136 
L 1219.503409 333.819436 
L 1220.630682 330.920318 
L 1221.757955 342.709225 
L 1222.885227 346.042392 
L 1224.0125 323.658525 
L 1225.139773 329.599054 
L 1226.267045 334.048855 
L 1227.394318 333.033351 
L 1228.521591 332.236238 
L 1229.648864 340.947307 
L 1230.776136 344.611203 
L 1231.903409 319.777979 
L 1233.030682 331.867874 
L 1234.157955 333.358508 
L 1235.285227 336.766763 
L 1236.4125 336.622715 
L 1237.539773 348.192747 
L 1238.667045 346.688833 
L 1239.794318 327.083977 
L 1240.921591 334.062589 
L 1242.048864 337.649191 
L 1243.176136 338.207498 
L 1244.303409 336.21148 
L 1245.430682 347.120875 
L 1246.557955 347.869371 
L 1247.685227 327.924538 
L 1248.8125 338.575058 
L 1251.067045 342.168243 
L 1252.194318 340.289284 
L 1253.321591 352.937427 
L 1254.448864 348.953195 
L 1255.576136 334.802553 
L 1257.830682 345.745362 
L 1258.957955 342.013273 
L 1260.085227 353.2755 
L 1261.2125 341.040207 
L 1262.339773 350.984555 
L 1263.467045 334.748785 
L 1264.594318 350.517772 
L 1265.721591 343.326004 
L 1266.848864 342.914687 
L 1267.976136 342.173737 
L 1269.103409 349.523838 
L 1270.230682 352.798937 
L 1271.357955 343.345723 
L 1272.485227 348.692851 
L 1273.6125 347.154838 
L 1274.739773 346.833776 
L 1275.867045 345.76523 
L 1276.994318 350.629559 
L 1278.121591 351.794996 
L 1279.248864 344.009981 
L 1280.376136 348.635256 
L 1281.503409 347.432807 
L 1282.630682 348.210786 
L 1283.757955 348.170072 
L 1284.885227 351.064147 
L 1286.0125 351.202041 
L 1287.139773 345.333609 
L 1288.267045 348.146938 
L 1289.394318 346.620896 
L 1290.521591 347.98303 
L 1291.648864 347.117545 
L 1292.776136 349.96788 
L 1293.903409 350.321443 
L 1295.030682 344.953655 
L 1296.157955 346.689835 
L 1297.285227 346.53312 
L 1298.4125 346.985046 
L 1299.539773 346.754337 
L 1300.667045 350.969235 
L 1301.794318 349.660276 
L 1302.921591 344.988327 
L 1304.048864 346.542479 
L 1305.176136 348.287876 
L 1306.303409 347.292075 
L 1307.430682 351.652699 
L 1308.557955 345.858151 
L 1308.557955 345.858151 
" clip-path="url(#p95b5f6d35c)" style="fill: none; stroke: #ffa500; stroke-width: 1.5; stroke-linecap: square"/>
   </g>
   <g id="line2d_20">
    <path d="M 1309.685227 350.891028 
L 1310.8125 344.861488 
L 1311.939773 350.932359 
L 1313.067045 345.186273 
L 1314.194318 348.66797 
L 1315.321591 348.641898 
L 1316.448864 349.435902 
L 1317.576136 350.962919 
L 1318.703409 345.715547 
L 1319.830682 350.959 
L 1320.957955 345.813061 
L 1322.085227 348.934223 
L 1323.2125 348.944814 
L 1324.339773 349.651496 
" clip-path="url(#p95b5f6d35c)" style="fill: none; stroke: #ff0000; stroke-width: 1.5; stroke-linecap: square"/>
   </g>
   <g id="patch_3">
    <path d="M 46.0125 368.3955 
L 46.0125 35.7555 
" style="fill: none; stroke: #000000; stroke-width: 0.8; stroke-linejoin: miter; stroke-linecap: square"/>
   </g>
   <g id="patch_4">
    <path d="M 1385.2125 368.3955 
L 1385.2125 35.7555 
" style="fill: none; stroke: #000000; stroke-width: 0.8; stroke-linejoin: miter; stroke-linecap: square"/>
   </g>
   <g id="patch_5">
    <path d="M 46.0125 368.3955 
L 1385.2125 368.3955 
" style="fill: none; stroke: #000000; stroke-width: 0.8; stroke-linejoin: miter; stroke-linecap: square"/>
   </g>
   <g id="patch_6">
    <path d="M 46.0125 35.7555 
L 1385.2125 35.7555 
" style="fill: none; stroke: #000000; stroke-width: 0.8; stroke-linejoin: miter; stroke-linecap: square"/>
   </g>
   <g id="text_18">
    <!-- Daily Confirmed Cases Forecasting - Bulgaria -->
    <g transform="translate(580.23 16.318125)scale(0.12 -0.12)">
     <defs>
      <path id="DejaVuSans-44" d="M 1259 4147 
L 1259 519 
L 2022 519 
Q 2988 519 3436 956 
Q 3884 1394 3884 2338 
Q 3884 3275 3436 3711 
Q 2988 4147 2022 4147 
L 1259 4147 
z
M 628 4666 
L 1925 4666 
Q 3281 4666 3915 4102 
Q 4550 3538 4550 2338 
Q 4550 1131 3912 565 
Q 3275 0 1925 0 
L 628 0 
L 628 4666 
z
" transform="scale(0.015625)"/>
      <path id="DejaVuSans-61" d="M 2194 1759 
Q 1497 1759 1228 1600 
Q 959 1441 959 1056 
Q 959 750 1161 570 
Q 1363 391 1709 391 
Q 2188 391 2477 730 
Q 2766 1069 2766 1631 
L 2766 1759 
L 2194 1759 
z
M 3341 1997 
L 3341 0 
L 2766 0 
L 2766 531 
Q 2569 213 2275 61 
Q 1981 -91 1556 -91 
Q 1019 -91 701 211 
Q 384 513 384 1019 
Q 384 1609 779 1909 
Q 1175 2209 1959 2209 
L 2766 2209 
L 2766 2266 
Q 2766 2663 2505 2880 
Q 2244 3097 1772 3097 
Q 1472 3097 1187 3025 
Q 903 2953 641 2809 
L 641 3341 
Q 956 3463 1253 3523 
Q 1550 3584 1831 3584 
Q 2591 3584 2966 3190 
Q 3341 2797 3341 1997 
z
" transform="scale(0.015625)"/>
      <path id="DejaVuSans-69" d="M 603 3500 
L 1178 3500 
L 1178 0 
L 603 0 
L 603 3500 
z
M 603 4863 
L 1178 4863 
L 1178 4134 
L 603 4134 
L 603 4863 
z
" transform="scale(0.015625)"/>
      <path id="DejaVuSans-6c" d="M 603 4863 
L 1178 4863 
L 1178 0 
L 603 0 
L 603 4863 
z
" transform="scale(0.015625)"/>
      <path id="DejaVuSans-79" d="M 2059 -325 
Q 1816 -950 1584 -1140 
Q 1353 -1331 966 -1331 
L 506 -1331 
L 506 -850 
L 844 -850 
Q 1081 -850 1212 -737 
Q 1344 -625 1503 -206 
L 1606 56 
L 191 3500 
L 800 3500 
L 1894 763 
L 2988 3500 
L 3597 3500 
L 2059 -325 
z
" transform="scale(0.015625)"/>
      <path id="DejaVuSans-20" transform="scale(0.015625)"/>
      <path id="DejaVuSans-43" d="M 4122 4306 
L 4122 3641 
Q 3803 3938 3442 4084 
Q 3081 4231 2675 4231 
Q 1875 4231 1450 3742 
Q 1025 3253 1025 2328 
Q 1025 1406 1450 917 
Q 1875 428 2675 428 
Q 3081 428 3442 575 
Q 3803 722 4122 1019 
L 4122 359 
Q 3791 134 3420 21 
Q 3050 -91 2638 -91 
Q 1578 -91 968 557 
Q 359 1206 359 2328 
Q 359 3453 968 4101 
Q 1578 4750 2638 4750 
Q 3056 4750 3426 4639 
Q 3797 4528 4122 4306 
z
" transform="scale(0.015625)"/>
      <path id="DejaVuSans-6f" d="M 1959 3097 
Q 1497 3097 1228 2736 
Q 959 2375 959 1747 
Q 959 1119 1226 758 
Q 1494 397 1959 397 
Q 2419 397 2687 759 
Q 2956 1122 2956 1747 
Q 2956 2369 2687 2733 
Q 2419 3097 1959 3097 
z
M 1959 3584 
Q 2709 3584 3137 3096 
Q 3566 2609 3566 1747 
Q 3566 888 3137 398 
Q 2709 -91 1959 -91 
Q 1206 -91 779 398 
Q 353 888 353 1747 
Q 353 2609 779 3096 
Q 1206 3584 1959 3584 
z
" transform="scale(0.015625)"/>
      <path id="DejaVuSans-6e" d="M 3513 2113 
L 3513 0 
L 2938 0 
L 2938 2094 
Q 2938 2591 2744 2837 
Q 2550 3084 2163 3084 
Q 1697 3084 1428 2787 
Q 1159 2491 1159 1978 
L 1159 0 
L 581 0 
L 581 3500 
L 1159 3500 
L 1159 2956 
Q 1366 3272 1645 3428 
Q 1925 3584 2291 3584 
Q 2894 3584 3203 3211 
Q 3513 2838 3513 2113 
z
" transform="scale(0.015625)"/>
      <path id="DejaVuSans-66" d="M 2375 4863 
L 2375 4384 
L 1825 4384 
Q 1516 4384 1395 4259 
Q 1275 4134 1275 3809 
L 1275 3500 
L 2222 3500 
L 2222 3053 
L 1275 3053 
L 1275 0 
L 697 0 
L 697 3053 
L 147 3053 
L 147 3500 
L 697 3500 
L 697 3744 
Q 697 4328 969 4595 
Q 1241 4863 1831 4863 
L 2375 4863 
z
" transform="scale(0.015625)"/>
      <path id="DejaVuSans-72" d="M 2631 2963 
Q 2534 3019 2420 3045 
Q 2306 3072 2169 3072 
Q 1681 3072 1420 2755 
Q 1159 2438 1159 1844 
L 1159 0 
L 581 0 
L 581 3500 
L 1159 3500 
L 1159 2956 
Q 1341 3275 1631 3429 
Q 1922 3584 2338 3584 
Q 2397 3584 2469 3576 
Q 2541 3569 2628 3553 
L 2631 2963 
z
" transform="scale(0.015625)"/>
      <path id="DejaVuSans-6d" d="M 3328 2828 
Q 3544 3216 3844 3400 
Q 4144 3584 4550 3584 
Q 5097 3584 5394 3201 
Q 5691 2819 5691 2113 
L 5691 0 
L 5113 0 
L 5113 2094 
Q 5113 2597 4934 2840 
Q 4756 3084 4391 3084 
Q 3944 3084 3684 2787 
Q 3425 2491 3425 1978 
L 3425 0 
L 2847 0 
L 2847 2094 
Q 2847 2600 2669 2842 
Q 2491 3084 2119 3084 
Q 1678 3084 1418 2786 
Q 1159 2488 1159 1978 
L 1159 0 
L 581 0 
L 581 3500 
L 1159 3500 
L 1159 2956 
Q 1356 3278 1631 3431 
Q 1906 3584 2284 3584 
Q 2666 3584 2933 3390 
Q 3200 3197 3328 2828 
z
" transform="scale(0.015625)"/>
      <path id="DejaVuSans-65" d="M 3597 1894 
L 3597 1613 
L 953 1613 
Q 991 1019 1311 708 
Q 1631 397 2203 397 
Q 2534 397 2845 478 
Q 3156 559 3463 722 
L 3463 178 
Q 3153 47 2828 -22 
Q 2503 -91 2169 -91 
Q 1331 -91 842 396 
Q 353 884 353 1716 
Q 353 2575 817 3079 
Q 1281 3584 2069 3584 
Q 2775 3584 3186 3129 
Q 3597 2675 3597 1894 
z
M 3022 2063 
Q 3016 2534 2758 2815 
Q 2500 3097 2075 3097 
Q 1594 3097 1305 2825 
Q 1016 2553 972 2059 
L 3022 2063 
z
" transform="scale(0.015625)"/>
      <path id="DejaVuSans-64" d="M 2906 2969 
L 2906 4863 
L 3481 4863 
L 3481 0 
L 2906 0 
L 2906 525 
Q 2725 213 2448 61 
Q 2172 -91 1784 -91 
Q 1150 -91 751 415 
Q 353 922 353 1747 
Q 353 2572 751 3078 
Q 1150 3584 1784 3584 
Q 2172 3584 2448 3432 
Q 2725 3281 2906 2969 
z
M 947 1747 
Q 947 1113 1208 752 
Q 1469 391 1925 391 
Q 2381 391 2643 752 
Q 2906 1113 2906 1747 
Q 2906 2381 2643 2742 
Q 2381 3103 1925 3103 
Q 1469 3103 1208 2742 
Q 947 2381 947 1747 
z
" transform="scale(0.015625)"/>
      <path id="DejaVuSans-73" d="M 2834 3397 
L 2834 2853 
Q 2591 2978 2328 3040 
Q 2066 3103 1784 3103 
Q 1356 3103 1142 2972 
Q 928 2841 928 2578 
Q 928 2378 1081 2264 
Q 1234 2150 1697 2047 
L 1894 2003 
Q 2506 1872 2764 1633 
Q 3022 1394 3022 966 
Q 3022 478 2636 193 
Q 2250 -91 1575 -91 
Q 1294 -91 989 -36 
Q 684 19 347 128 
L 347 722 
Q 666 556 975 473 
Q 1284 391 1588 391 
Q 1994 391 2212 530 
Q 2431 669 2431 922 
Q 2431 1156 2273 1281 
Q 2116 1406 1581 1522 
L 1381 1569 
Q 847 1681 609 1914 
Q 372 2147 372 2553 
Q 372 3047 722 3315 
Q 1072 3584 1716 3584 
Q 2034 3584 2315 3537 
Q 2597 3491 2834 3397 
z
" transform="scale(0.015625)"/>
      <path id="DejaVuSans-46" d="M 628 4666 
L 3309 4666 
L 3309 4134 
L 1259 4134 
L 1259 2759 
L 3109 2759 
L 3109 2228 
L 1259 2228 
L 1259 0 
L 628 0 
L 628 4666 
z
" transform="scale(0.015625)"/>
      <path id="DejaVuSans-63" d="M 3122 3366 
L 3122 2828 
Q 2878 2963 2633 3030 
Q 2388 3097 2138 3097 
Q 1578 3097 1268 2742 
Q 959 2388 959 1747 
Q 959 1106 1268 751 
Q 1578 397 2138 397 
Q 2388 397 2633 464 
Q 2878 531 3122 666 
L 3122 134 
Q 2881 22 2623 -34 
Q 2366 -91 2075 -91 
Q 1284 -91 818 406 
Q 353 903 353 1747 
Q 353 2603 823 3093 
Q 1294 3584 2113 3584 
Q 2378 3584 2631 3529 
Q 2884 3475 3122 3366 
z
" transform="scale(0.015625)"/>
      <path id="DejaVuSans-74" d="M 1172 4494 
L 1172 3500 
L 2356 3500 
L 2356 3053 
L 1172 3053 
L 1172 1153 
Q 1172 725 1289 603 
Q 1406 481 1766 481 
L 2356 481 
L 2356 0 
L 1766 0 
Q 1100 0 847 248 
Q 594 497 594 1153 
L 594 3053 
L 172 3053 
L 172 3500 
L 594 3500 
L 594 4494 
L 1172 4494 
z
" transform="scale(0.015625)"/>
      <path id="DejaVuSans-67" d="M 2906 1791 
Q 2906 2416 2648 2759 
Q 2391 3103 1925 3103 
Q 1463 3103 1205 2759 
Q 947 2416 947 1791 
Q 947 1169 1205 825 
Q 1463 481 1925 481 
Q 2391 481 2648 825 
Q 2906 1169 2906 1791 
z
M 3481 434 
Q 3481 -459 3084 -895 
Q 2688 -1331 1869 -1331 
Q 1566 -1331 1297 -1286 
Q 1028 -1241 775 -1147 
L 775 -588 
Q 1028 -725 1275 -790 
Q 1522 -856 1778 -856 
Q 2344 -856 2625 -561 
Q 2906 -266 2906 331 
L 2906 616 
Q 2728 306 2450 153 
Q 2172 0 1784 0 
Q 1141 0 747 490 
Q 353 981 353 1791 
Q 353 2603 747 3093 
Q 1141 3584 1784 3584 
Q 2172 3584 2450 3431 
Q 2728 3278 2906 2969 
L 2906 3500 
L 3481 3500 
L 3481 434 
z
" transform="scale(0.015625)"/>
      <path id="DejaVuSans-42" d="M 1259 2228 
L 1259 519 
L 2272 519 
Q 2781 519 3026 730 
Q 3272 941 3272 1375 
Q 3272 1813 3026 2020 
Q 2781 2228 2272 2228 
L 1259 2228 
z
M 1259 4147 
L 1259 2741 
L 2194 2741 
Q 2656 2741 2882 2914 
Q 3109 3088 3109 3444 
Q 3109 3797 2882 3972 
Q 2656 4147 2194 4147 
L 1259 4147 
z
M 628 4666 
L 2241 4666 
Q 2963 4666 3353 4366 
Q 3744 4066 3744 3513 
Q 3744 3084 3544 2831 
Q 3344 2578 2956 2516 
Q 3422 2416 3680 2098 
Q 3938 1781 3938 1306 
Q 3938 681 3513 340 
Q 3088 0 2303 0 
L 628 0 
L 628 4666 
z
" transform="scale(0.015625)"/>
      <path id="DejaVuSans-75" d="M 544 1381 
L 544 3500 
L 1119 3500 
L 1119 1403 
Q 1119 906 1312 657 
Q 1506 409 1894 409 
Q 2359 409 2629 706 
Q 2900 1003 2900 1516 
L 2900 3500 
L 3475 3500 
L 3475 0 
L 2900 0 
L 2900 538 
Q 2691 219 2414 64 
Q 2138 -91 1772 -91 
Q 1169 -91 856 284 
Q 544 659 544 1381 
z
M 1991 3584 
L 1991 3584 
z
" transform="scale(0.015625)"/>
     </defs>
     <use xlink:href="#DejaVuSans-44"/>
     <use xlink:href="#DejaVuSans-61" x="77.001953"/>
     <use xlink:href="#DejaVuSans-69" x="138.28125"/>
     <use xlink:href="#DejaVuSans-6c" x="166.064453"/>
     <use xlink:href="#DejaVuSans-79" x="193.847656"/>
     <use xlink:href="#DejaVuSans-20" x="253.027344"/>
     <use xlink:href="#DejaVuSans-43" x="284.814453"/>
     <use xlink:href="#DejaVuSans-6f" x="354.638672"/>
     <use xlink:href="#DejaVuSans-6e" x="415.820312"/>
     <use xlink:href="#DejaVuSans-66" x="479.199219"/>
     <use xlink:href="#DejaVuSans-69" x="514.404297"/>
     <use xlink:href="#DejaVuSans-72" x="542.1875"/>
     <use xlink:href="#DejaVuSans-6d" x="581.550781"/>
     <use xlink:href="#DejaVuSans-65" x="678.962891"/>
     <use xlink:href="#DejaVuSans-64" x="740.486328"/>
     <use xlink:href="#DejaVuSans-20" x="803.962891"/>
     <use xlink:href="#DejaVuSans-43" x="835.75"/>
     <use xlink:href="#DejaVuSans-61" x="905.574219"/>
     <use xlink:href="#DejaVuSans-73" x="966.853516"/>
     <use xlink:href="#DejaVuSans-65" x="1018.953125"/>
     <use xlink:href="#DejaVuSans-73" x="1080.476562"/>
     <use xlink:href="#DejaVuSans-20" x="1132.576172"/>
     <use xlink:href="#DejaVuSans-46" x="1164.363281"/>
     <use xlink:href="#DejaVuSans-6f" x="1218.257812"/>
     <use xlink:href="#DejaVuSans-72" x="1279.439453"/>
     <use xlink:href="#DejaVuSans-65" x="1318.302734"/>
     <use xlink:href="#DejaVuSans-63" x="1379.826172"/>
     <use xlink:href="#DejaVuSans-61" x="1434.806641"/>
     <use xlink:href="#DejaVuSans-73" x="1496.085938"/>
     <use xlink:href="#DejaVuSans-74" x="1548.185547"/>
     <use xlink:href="#DejaVuSans-69" x="1587.394531"/>
     <use xlink:href="#DejaVuSans-6e" x="1615.177734"/>
     <use xlink:href="#DejaVuSans-67" x="1678.556641"/>
     <use xlink:href="#DejaVuSans-20" x="1742.033203"/>
     <use xlink:href="#DejaVuSans-2d" x="1773.820312"/>
     <use xlink:href="#DejaVuSans-20" x="1809.904297"/>
     <use xlink:href="#DejaVuSans-42" x="1841.691406"/>
     <use xlink:href="#DejaVuSans-75" x="1910.294922"/>
     <use xlink:href="#DejaVuSans-6c" x="1973.673828"/>
     <use xlink:href="#DejaVuSans-67" x="2001.457031"/>
     <use xlink:href="#DejaVuSans-61" x="2064.933594"/>
     <use xlink:href="#DejaVuSans-72" x="2126.212891"/>
     <use xlink:href="#DejaVuSans-69" x="2167.326172"/>
     <use xlink:href="#DejaVuSans-61" x="2195.109375"/>
    </g>
    <!-- ARIMA (4, 1, 0)x(1, 0, 1, 7) (R2 = 0.830545) -->
    <g transform="translate(583.628438 29.7555)scale(0.12 -0.12)">
     <defs>
      <path id="DejaVuSans-41" d="M 2188 4044 
L 1331 1722 
L 3047 1722 
L 2188 4044 
z
M 1831 4666 
L 2547 4666 
L 4325 0 
L 3669 0 
L 3244 1197 
L 1141 1197 
L 716 0 
L 50 0 
L 1831 4666 
z
" transform="scale(0.015625)"/>
      <path id="DejaVuSans-52" d="M 2841 2188 
Q 3044 2119 3236 1894 
Q 3428 1669 3622 1275 
L 4263 0 
L 3584 0 
L 2988 1197 
Q 2756 1666 2539 1819 
Q 2322 1972 1947 1972 
L 1259 1972 
L 1259 0 
L 628 0 
L 628 4666 
L 2053 4666 
Q 2853 4666 3247 4331 
Q 3641 3997 3641 3322 
Q 3641 2881 3436 2590 
Q 3231 2300 2841 2188 
z
M 1259 4147 
L 1259 2491 
L 2053 2491 
Q 2509 2491 2742 2702 
Q 2975 2913 2975 3322 
Q 2975 3731 2742 3939 
Q 2509 4147 2053 4147 
L 1259 4147 
z
" transform="scale(0.015625)"/>
      <path id="DejaVuSans-49" d="M 628 4666 
L 1259 4666 
L 1259 0 
L 628 0 
L 628 4666 
z
" transform="scale(0.015625)"/>
      <path id="DejaVuSans-4d" d="M 628 4666 
L 1569 4666 
L 2759 1491 
L 3956 4666 
L 4897 4666 
L 4897 0 
L 4281 0 
L 4281 4097 
L 3078 897 
L 2444 897 
L 1241 4097 
L 1241 0 
L 628 0 
L 628 4666 
z
" transform="scale(0.015625)"/>
      <path id="DejaVuSans-28" d="M 1984 4856 
Q 1566 4138 1362 3434 
Q 1159 2731 1159 2009 
Q 1159 1288 1364 580 
Q 1569 -128 1984 -844 
L 1484 -844 
Q 1016 -109 783 600 
Q 550 1309 550 2009 
Q 550 2706 781 3412 
Q 1013 4119 1484 4856 
L 1984 4856 
z
" transform="scale(0.015625)"/>
      <path id="DejaVuSans-2c" d="M 750 794 
L 1409 794 
L 1409 256 
L 897 -744 
L 494 -744 
L 750 256 
L 750 794 
z
" transform="scale(0.015625)"/>
      <path id="DejaVuSans-29" d="M 513 4856 
L 1013 4856 
Q 1481 4119 1714 3412 
Q 1947 2706 1947 2009 
Q 1947 1309 1714 600 
Q 1481 -109 1013 -844 
L 513 -844 
Q 928 -128 1133 580 
Q 1338 1288 1338 2009 
Q 1338 2731 1133 3434 
Q 928 4138 513 4856 
z
" transform="scale(0.015625)"/>
      <path id="DejaVuSans-78" d="M 3513 3500 
L 2247 1797 
L 3578 0 
L 2900 0 
L 1881 1375 
L 863 0 
L 184 0 
L 1544 1831 
L 300 3500 
L 978 3500 
L 1906 2253 
L 2834 3500 
L 3513 3500 
z
" transform="scale(0.015625)"/>
      <path id="DejaVuSans-37" d="M 525 4666 
L 3525 4666 
L 3525 4397 
L 1831 0 
L 1172 0 
L 2766 4134 
L 525 4134 
L 525 4666 
z
" transform="scale(0.015625)"/>
      <path id="DejaVuSans-3d" d="M 678 2906 
L 4684 2906 
L 4684 2381 
L 678 2381 
L 678 2906 
z
M 678 1631 
L 4684 1631 
L 4684 1100 
L 678 1100 
L 678 1631 
z
" transform="scale(0.015625)"/>
      <path id="DejaVuSans-2e" d="M 684 794 
L 1344 794 
L 1344 0 
L 684 0 
L 684 794 
z
" transform="scale(0.015625)"/>
     </defs>
     <use xlink:href="#DejaVuSans-41"/>
     <use xlink:href="#DejaVuSans-52" x="68.408203"/>
     <use xlink:href="#DejaVuSans-49" x="137.890625"/>
     <use xlink:href="#DejaVuSans-4d" x="167.382812"/>
     <use xlink:href="#DejaVuSans-41" x="253.662109"/>
     <use xlink:href="#DejaVuSans-20" x="322.070312"/>
     <use xlink:href="#DejaVuSans-28" x="353.857422"/>
     <use xlink:href="#DejaVuSans-34" x="392.871094"/>
     <use xlink:href="#DejaVuSans-2c" x="456.494141"/>
     <use xlink:href="#DejaVuSans-20" x="488.28125"/>
     <use xlink:href="#DejaVuSans-31" x="520.068359"/>
     <use xlink:href="#DejaVuSans-2c" x="583.691406"/>
     <use xlink:href="#DejaVuSans-20" x="615.478516"/>
     <use xlink:href="#DejaVuSans-30" x="647.265625"/>
     <use xlink:href="#DejaVuSans-29" x="710.888672"/>
     <use xlink:href="#DejaVuSans-78" x="749.902344"/>
     <use xlink:href="#DejaVuSans-28" x="809.082031"/>
     <use xlink:href="#DejaVuSans-31" x="848.095703"/>
     <use xlink:href="#DejaVuSans-2c" x="911.71875"/>
     <use xlink:href="#DejaVuSans-20" x="943.505859"/>
     <use xlink:href="#DejaVuSans-30" x="975.292969"/>
     <use xlink:href="#DejaVuSans-2c" x="1038.916016"/>
     <use xlink:href="#DejaVuSans-20" x="1070.703125"/>
     <use xlink:href="#DejaVuSans-31" x="1102.490234"/>
     <use xlink:href="#DejaVuSans-2c" x="1166.113281"/>
     <use xlink:href="#DejaVuSans-20" x="1197.900391"/>
     <use xlink:href="#DejaVuSans-37" x="1229.6875"/>
     <use xlink:href="#DejaVuSans-29" x="1293.310547"/>
     <use xlink:href="#DejaVuSans-20" x="1332.324219"/>
     <use xlink:href="#DejaVuSans-28" x="1364.111328"/>
     <use xlink:href="#DejaVuSans-52" x="1403.125"/>
     <use xlink:href="#DejaVuSans-32" x="1472.607422"/>
     <use xlink:href="#DejaVuSans-20" x="1536.230469"/>
     <use xlink:href="#DejaVuSans-3d" x="1568.017578"/>
     <use xlink:href="#DejaVuSans-20" x="1651.806641"/>
     <use xlink:href="#DejaVuSans-30" x="1683.59375"/>
     <use xlink:href="#DejaVuSans-2e" x="1747.216797"/>
     <use xlink:href="#DejaVuSans-38" x="1779.003906"/>
     <use xlink:href="#DejaVuSans-33" x="1842.626953"/>
     <use xlink:href="#DejaVuSans-30" x="1906.25"/>
     <use xlink:href="#DejaVuSans-35" x="1969.873047"/>
     <use xlink:href="#DejaVuSans-34" x="2033.496094"/>
     <use xlink:href="#DejaVuSans-35" x="2097.119141"/>
     <use xlink:href="#DejaVuSans-29" x="2160.742188"/>
    </g>
   </g>
   <g id="legend_1">
    <g id="patch_7">
     <path d="M 1281.132812 87.789875 
L 1378.2125 87.789875 
Q 1380.2125 87.789875 1380.2125 85.789875 
L 1380.2125 42.7555 
Q 1380.2125 40.7555 1378.2125 40.7555 
L 1281.132812 40.7555 
Q 1279.132812 40.7555 1279.132812 42.7555 
L 1279.132812 85.789875 
Q 1279.132812 87.789875 1281.132812 87.789875 
z
" style="fill: #ffffff; opacity: 0.8; stroke: #cccccc; stroke-linejoin: miter"/>
    </g>
    <g id="line2d_21">
     <path d="M 1283.132812 48.853937 
L 1293.132812 48.853937 
L 1303.132812 48.853937 
" style="fill: none; stroke: #0000ff; stroke-width: 1.5; stroke-linecap: square"/>
    </g>
    <g id="text_19">
     <!-- Actual Value -->
     <g transform="translate(1311.132812 52.353937)scale(0.1 -0.1)">
      <defs>
       <path id="DejaVuSans-56" d="M 1831 0 
L 50 4666 
L 709 4666 
L 2188 738 
L 3669 4666 
L 4325 4666 
L 2547 0 
L 1831 0 
z
" transform="scale(0.015625)"/>
      </defs>
      <use xlink:href="#DejaVuSans-41"/>
      <use xlink:href="#DejaVuSans-63" x="66.658203"/>
      <use xlink:href="#DejaVuSans-74" x="121.638672"/>
      <use xlink:href="#DejaVuSans-75" x="160.847656"/>
      <use xlink:href="#DejaVuSans-61" x="224.226562"/>
      <use xlink:href="#DejaVuSans-6c" x="285.505859"/>
      <use xlink:href="#DejaVuSans-20" x="313.289062"/>
      <use xlink:href="#DejaVuSans-56" x="345.076172"/>
      <use xlink:href="#DejaVuSans-61" x="405.734375"/>
      <use xlink:href="#DejaVuSans-6c" x="467.013672"/>
      <use xlink:href="#DejaVuSans-75" x="494.796875"/>
      <use xlink:href="#DejaVuSans-65" x="558.175781"/>
     </g>
    </g>
    <g id="line2d_22">
     <path d="M 1283.132812 63.532062 
L 1293.132812 63.532062 
L 1303.132812 63.532062 
" style="fill: none; stroke: #ffa500; stroke-width: 1.5; stroke-linecap: square"/>
    </g>
    <g id="text_20">
     <!-- Check Value -->
     <g transform="translate(1311.132812 67.032062)scale(0.1 -0.1)">
      <defs>
       <path id="DejaVuSans-68" d="M 3513 2113 
L 3513 0 
L 2938 0 
L 2938 2094 
Q 2938 2591 2744 2837 
Q 2550 3084 2163 3084 
Q 1697 3084 1428 2787 
Q 1159 2491 1159 1978 
L 1159 0 
L 581 0 
L 581 4863 
L 1159 4863 
L 1159 2956 
Q 1366 3272 1645 3428 
Q 1925 3584 2291 3584 
Q 2894 3584 3203 3211 
Q 3513 2838 3513 2113 
z
" transform="scale(0.015625)"/>
       <path id="DejaVuSans-6b" d="M 581 4863 
L 1159 4863 
L 1159 1991 
L 2875 3500 
L 3609 3500 
L 1753 1863 
L 3688 0 
L 2938 0 
L 1159 1709 
L 1159 0 
L 581 0 
L 581 4863 
z
" transform="scale(0.015625)"/>
      </defs>
      <use xlink:href="#DejaVuSans-43"/>
      <use xlink:href="#DejaVuSans-68" x="69.824219"/>
      <use xlink:href="#DejaVuSans-65" x="133.203125"/>
      <use xlink:href="#DejaVuSans-63" x="194.726562"/>
      <use xlink:href="#DejaVuSans-6b" x="249.707031"/>
      <use xlink:href="#DejaVuSans-20" x="307.617188"/>
      <use xlink:href="#DejaVuSans-56" x="339.404297"/>
      <use xlink:href="#DejaVuSans-61" x="400.0625"/>
      <use xlink:href="#DejaVuSans-6c" x="461.341797"/>
      <use xlink:href="#DejaVuSans-75" x="489.125"/>
      <use xlink:href="#DejaVuSans-65" x="552.503906"/>
     </g>
    </g>
    <g id="line2d_23">
     <path d="M 1283.132812 78.210187 
L 1293.132812 78.210187 
L 1303.132812 78.210187 
" style="fill: none; stroke: #ff0000; stroke-width: 1.5; stroke-linecap: square"/>
    </g>
    <g id="text_21">
     <!-- Predict Value -->
     <g transform="translate(1311.132812 81.710187)scale(0.1 -0.1)">
      <defs>
       <path id="DejaVuSans-50" d="M 1259 4147 
L 1259 2394 
L 2053 2394 
Q 2494 2394 2734 2622 
Q 2975 2850 2975 3272 
Q 2975 3691 2734 3919 
Q 2494 4147 2053 4147 
L 1259 4147 
z
M 628 4666 
L 2053 4666 
Q 2838 4666 3239 4311 
Q 3641 3956 3641 3272 
Q 3641 2581 3239 2228 
Q 2838 1875 2053 1875 
L 1259 1875 
L 1259 0 
L 628 0 
L 628 4666 
z
" transform="scale(0.015625)"/>
      </defs>
      <use xlink:href="#DejaVuSans-50"/>
      <use xlink:href="#DejaVuSans-72" x="58.552734"/>
      <use xlink:href="#DejaVuSans-65" x="97.416016"/>
      <use xlink:href="#DejaVuSans-64" x="158.939453"/>
      <use xlink:href="#DejaVuSans-69" x="222.416016"/>
      <use xlink:href="#DejaVuSans-63" x="250.199219"/>
      <use xlink:href="#DejaVuSans-74" x="305.179688"/>
      <use xlink:href="#DejaVuSans-20" x="344.388672"/>
      <use xlink:href="#DejaVuSans-56" x="376.175781"/>
      <use xlink:href="#DejaVuSans-61" x="436.833984"/>
      <use xlink:href="#DejaVuSans-6c" x="498.113281"/>
      <use xlink:href="#DejaVuSans-75" x="525.896484"/>
      <use xlink:href="#DejaVuSans-65" x="589.275391"/>
     </g>
    </g>
   </g>
  </g>
 </g>
 <defs>
  <clipPath id="p95b5f6d35c">
   <rect x="46.0125" y="35.7555" width="1339.2" height="332.64"/>
  </clipPath>
 </defs>
</svg>
