<?xml version="1.0" encoding="utf-8" standalone="no"?>
<!DOCTYPE svg PUBLIC "-//W3C//DTD SVG 1.1//EN"
  "http://www.w3.org/Graphics/SVG/1.1/DTD/svg11.dtd">
<svg xmlns:xlink="http://www.w3.org/1999/xlink" width="1408.225218pt" height="392.273625pt" viewBox="0 0 1408.225218 392.273625" xmlns="http://www.w3.org/2000/svg" version="1.1">
 <metadata>
  <rdf:RDF xmlns:dc="http://purl.org/dc/elements/1.1/" xmlns:cc="http://creativecommons.org/ns#" xmlns:rdf="http://www.w3.org/1999/02/22-rdf-syntax-ns#">
   <cc:Work>
    <dc:type rdf:resource="http://purl.org/dc/dcmitype/StillImage"/>
    <dc:date>2022-05-10T18:57:37.043863</dc:date>
    <dc:format>image/svg+xml</dc:format>
    <dc:creator>
     <cc:Agent>
      <dc:title>Matplotlib v3.5.1, https://matplotlib.org/</dc:title>
     </cc:Agent>
    </dc:creator>
   </cc:Work>
  </rdf:RDF>
 </metadata>
 <defs>
  <style type="text/css">*{stroke-linejoin: round; stroke-linecap: butt}</style>
 </defs>
 <g id="figure_1">
  <g id="patch_1">
   <path d="M 0 392.273625 
L 1408.225218 392.273625 
L 1408.225218 0 
L 0 0 
z
" style="fill: #ffffff"/>
  </g>
  <g id="axes_1">
   <g id="patch_2">
    <path d="M 46.0125 368.3955 
L 1385.2125 368.3955 
L 1385.2125 35.7555 
L 46.0125 35.7555 
z
" style="fill: #ffffff"/>
   </g>
   <g id="matplotlib.axis_1">
    <g id="xtick_1">
     <g id="line2d_1">
      <defs>
       <path id="mb19e9be416" d="M 0 0 
L 0 3.5 
" style="stroke: #000000; stroke-width: 0.8"/>
      </defs>
      <g>
       <use xlink:href="#mb19e9be416" x="75.411667" y="368.3955" style="stroke: #000000; stroke-width: 0.8"/>
      </g>
     </g>
     <g id="text_1">
      <!-- 2020-01 -->
      <g transform="translate(54.520261 382.993937)scale(0.1 -0.1)">
       <defs>
        <path id="DejaVuSans-32" d="M 1228 531 
L 3431 531 
L 3431 0 
L 469 0 
L 469 531 
Q 828 903 1448 1529 
Q 2069 2156 2228 2338 
Q 2531 2678 2651 2914 
Q 2772 3150 2772 3378 
Q 2772 3750 2511 3984 
Q 2250 4219 1831 4219 
Q 1534 4219 1204 4116 
Q 875 4013 500 3803 
L 500 4441 
Q 881 4594 1212 4672 
Q 1544 4750 1819 4750 
Q 2544 4750 2975 4387 
Q 3406 4025 3406 3419 
Q 3406 3131 3298 2873 
Q 3191 2616 2906 2266 
Q 2828 2175 2409 1742 
Q 1991 1309 1228 531 
z
" transform="scale(0.015625)"/>
        <path id="DejaVuSans-30" d="M 2034 4250 
Q 1547 4250 1301 3770 
Q 1056 3291 1056 2328 
Q 1056 1369 1301 889 
Q 1547 409 2034 409 
Q 2525 409 2770 889 
Q 3016 1369 3016 2328 
Q 3016 3291 2770 3770 
Q 2525 4250 2034 4250 
z
M 2034 4750 
Q 2819 4750 3233 4129 
Q 3647 3509 3647 2328 
Q 3647 1150 3233 529 
Q 2819 -91 2034 -91 
Q 1250 -91 836 529 
Q 422 1150 422 2328 
Q 422 3509 836 4129 
Q 1250 4750 2034 4750 
z
" transform="scale(0.015625)"/>
        <path id="DejaVuSans-2d" d="M 313 2009 
L 1997 2009 
L 1997 1497 
L 313 1497 
L 313 2009 
z
" transform="scale(0.015625)"/>
        <path id="DejaVuSans-31" d="M 794 531 
L 1825 531 
L 1825 4091 
L 703 3866 
L 703 4441 
L 1819 4666 
L 2450 4666 
L 2450 531 
L 3481 531 
L 3481 0 
L 794 0 
L 794 531 
z
" transform="scale(0.015625)"/>
       </defs>
       <use xlink:href="#DejaVuSans-32"/>
       <use xlink:href="#DejaVuSans-30" x="63.623047"/>
       <use xlink:href="#DejaVuSans-32" x="127.246094"/>
       <use xlink:href="#DejaVuSans-30" x="190.869141"/>
       <use xlink:href="#DejaVuSans-2d" x="254.492188"/>
       <use xlink:href="#DejaVuSans-30" x="290.576172"/>
       <use xlink:href="#DejaVuSans-31" x="354.199219"/>
      </g>
     </g>
    </g>
    <g id="xtick_2">
     <g id="line2d_2">
      <g>
       <use xlink:href="#mb19e9be416" x="205.597758" y="368.3955" style="stroke: #000000; stroke-width: 0.8"/>
      </g>
     </g>
     <g id="text_2">
      <!-- 2020-04 -->
      <g transform="translate(184.706352 382.993937)scale(0.1 -0.1)">
       <defs>
        <path id="DejaVuSans-34" d="M 2419 4116 
L 825 1625 
L 2419 1625 
L 2419 4116 
z
M 2253 4666 
L 3047 4666 
L 3047 1625 
L 3713 1625 
L 3713 1100 
L 3047 1100 
L 3047 0 
L 2419 0 
L 2419 1100 
L 313 1100 
L 313 1709 
L 2253 4666 
z
" transform="scale(0.015625)"/>
       </defs>
       <use xlink:href="#DejaVuSans-32"/>
       <use xlink:href="#DejaVuSans-30" x="63.623047"/>
       <use xlink:href="#DejaVuSans-32" x="127.246094"/>
       <use xlink:href="#DejaVuSans-30" x="190.869141"/>
       <use xlink:href="#DejaVuSans-2d" x="254.492188"/>
       <use xlink:href="#DejaVuSans-30" x="290.576172"/>
       <use xlink:href="#DejaVuSans-34" x="354.199219"/>
      </g>
     </g>
    </g>
    <g id="xtick_3">
     <g id="line2d_3">
      <g>
       <use xlink:href="#mb19e9be416" x="335.783849" y="368.3955" style="stroke: #000000; stroke-width: 0.8"/>
      </g>
     </g>
     <g id="text_3">
      <!-- 2020-07 -->
      <g transform="translate(314.892443 382.993937)scale(0.1 -0.1)">
       <defs>
        <path id="DejaVuSans-37" d="M 525 4666 
L 3525 4666 
L 3525 4397 
L 1831 0 
L 1172 0 
L 2766 4134 
L 525 4134 
L 525 4666 
z
" transform="scale(0.015625)"/>
       </defs>
       <use xlink:href="#DejaVuSans-32"/>
       <use xlink:href="#DejaVuSans-30" x="63.623047"/>
       <use xlink:href="#DejaVuSans-32" x="127.246094"/>
       <use xlink:href="#DejaVuSans-30" x="190.869141"/>
       <use xlink:href="#DejaVuSans-2d" x="254.492188"/>
       <use xlink:href="#DejaVuSans-30" x="290.576172"/>
       <use xlink:href="#DejaVuSans-37" x="354.199219"/>
      </g>
     </g>
    </g>
    <g id="xtick_4">
     <g id="line2d_4">
      <g>
       <use xlink:href="#mb19e9be416" x="467.400557" y="368.3955" style="stroke: #000000; stroke-width: 0.8"/>
      </g>
     </g>
     <g id="text_4">
      <!-- 2020-10 -->
      <g transform="translate(446.509151 382.993937)scale(0.1 -0.1)">
       <use xlink:href="#DejaVuSans-32"/>
       <use xlink:href="#DejaVuSans-30" x="63.623047"/>
       <use xlink:href="#DejaVuSans-32" x="127.246094"/>
       <use xlink:href="#DejaVuSans-30" x="190.869141"/>
       <use xlink:href="#DejaVuSans-2d" x="254.492188"/>
       <use xlink:href="#DejaVuSans-31" x="290.576172"/>
       <use xlink:href="#DejaVuSans-30" x="354.199219"/>
      </g>
     </g>
    </g>
    <g id="xtick_5">
     <g id="line2d_5">
      <g>
       <use xlink:href="#mb19e9be416" x="599.017264" y="368.3955" style="stroke: #000000; stroke-width: 0.8"/>
      </g>
     </g>
     <g id="text_5">
      <!-- 2021-01 -->
      <g transform="translate(578.125858 382.993937)scale(0.1 -0.1)">
       <use xlink:href="#DejaVuSans-32"/>
       <use xlink:href="#DejaVuSans-30" x="63.623047"/>
       <use xlink:href="#DejaVuSans-32" x="127.246094"/>
       <use xlink:href="#DejaVuSans-31" x="190.869141"/>
       <use xlink:href="#DejaVuSans-2d" x="254.492188"/>
       <use xlink:href="#DejaVuSans-30" x="290.576172"/>
       <use xlink:href="#DejaVuSans-31" x="354.199219"/>
      </g>
     </g>
    </g>
    <g id="xtick_6">
     <g id="line2d_6">
      <g>
       <use xlink:href="#mb19e9be416" x="727.772739" y="368.3955" style="stroke: #000000; stroke-width: 0.8"/>
      </g>
     </g>
     <g id="text_6">
      <!-- 2021-04 -->
      <g transform="translate(706.881333 382.993937)scale(0.1 -0.1)">
       <use xlink:href="#DejaVuSans-32"/>
       <use xlink:href="#DejaVuSans-30" x="63.623047"/>
       <use xlink:href="#DejaVuSans-32" x="127.246094"/>
       <use xlink:href="#DejaVuSans-31" x="190.869141"/>
       <use xlink:href="#DejaVuSans-2d" x="254.492188"/>
       <use xlink:href="#DejaVuSans-30" x="290.576172"/>
       <use xlink:href="#DejaVuSans-34" x="354.199219"/>
      </g>
     </g>
    </g>
    <g id="xtick_7">
     <g id="line2d_7">
      <g>
       <use xlink:href="#mb19e9be416" x="857.958831" y="368.3955" style="stroke: #000000; stroke-width: 0.8"/>
      </g>
     </g>
     <g id="text_7">
      <!-- 2021-07 -->
      <g transform="translate(837.067424 382.993937)scale(0.1 -0.1)">
       <use xlink:href="#DejaVuSans-32"/>
       <use xlink:href="#DejaVuSans-30" x="63.623047"/>
       <use xlink:href="#DejaVuSans-32" x="127.246094"/>
       <use xlink:href="#DejaVuSans-31" x="190.869141"/>
       <use xlink:href="#DejaVuSans-2d" x="254.492188"/>
       <use xlink:href="#DejaVuSans-30" x="290.576172"/>
       <use xlink:href="#DejaVuSans-37" x="354.199219"/>
      </g>
     </g>
    </g>
    <g id="xtick_8">
     <g id="line2d_8">
      <g>
       <use xlink:href="#mb19e9be416" x="989.575538" y="368.3955" style="stroke: #000000; stroke-width: 0.8"/>
      </g>
     </g>
     <g id="text_8">
      <!-- 2021-10 -->
      <g transform="translate(968.684132 382.993937)scale(0.1 -0.1)">
       <use xlink:href="#DejaVuSans-32"/>
       <use xlink:href="#DejaVuSans-30" x="63.623047"/>
       <use xlink:href="#DejaVuSans-32" x="127.246094"/>
       <use xlink:href="#DejaVuSans-31" x="190.869141"/>
       <use xlink:href="#DejaVuSans-2d" x="254.492188"/>
       <use xlink:href="#DejaVuSans-31" x="290.576172"/>
       <use xlink:href="#DejaVuSans-30" x="354.199219"/>
      </g>
     </g>
    </g>
    <g id="xtick_9">
     <g id="line2d_9">
      <g>
       <use xlink:href="#mb19e9be416" x="1121.192246" y="368.3955" style="stroke: #000000; stroke-width: 0.8"/>
      </g>
     </g>
     <g id="text_9">
      <!-- 2022-01 -->
      <g transform="translate(1100.30084 382.993937)scale(0.1 -0.1)">
       <use xlink:href="#DejaVuSans-32"/>
       <use xlink:href="#DejaVuSans-30" x="63.623047"/>
       <use xlink:href="#DejaVuSans-32" x="127.246094"/>
       <use xlink:href="#DejaVuSans-32" x="190.869141"/>
       <use xlink:href="#DejaVuSans-2d" x="254.492188"/>
       <use xlink:href="#DejaVuSans-30" x="290.576172"/>
       <use xlink:href="#DejaVuSans-31" x="354.199219"/>
      </g>
     </g>
    </g>
    <g id="xtick_10">
     <g id="line2d_10">
      <g>
       <use xlink:href="#mb19e9be416" x="1249.947721" y="368.3955" style="stroke: #000000; stroke-width: 0.8"/>
      </g>
     </g>
     <g id="text_10">
      <!-- 2022-04 -->
      <g transform="translate(1229.056314 382.993937)scale(0.1 -0.1)">
       <use xlink:href="#DejaVuSans-32"/>
       <use xlink:href="#DejaVuSans-30" x="63.623047"/>
       <use xlink:href="#DejaVuSans-32" x="127.246094"/>
       <use xlink:href="#DejaVuSans-32" x="190.869141"/>
       <use xlink:href="#DejaVuSans-2d" x="254.492188"/>
       <use xlink:href="#DejaVuSans-30" x="290.576172"/>
       <use xlink:href="#DejaVuSans-34" x="354.199219"/>
      </g>
     </g>
    </g>
    <g id="xtick_11">
     <g id="line2d_11">
      <g>
       <use xlink:href="#mb19e9be416" x="1380.133812" y="368.3955" style="stroke: #000000; stroke-width: 0.8"/>
      </g>
     </g>
     <g id="text_11">
      <!-- 2022-07 -->
      <g transform="translate(1359.242406 382.993937)scale(0.1 -0.1)">
       <use xlink:href="#DejaVuSans-32"/>
       <use xlink:href="#DejaVuSans-30" x="63.623047"/>
       <use xlink:href="#DejaVuSans-32" x="127.246094"/>
       <use xlink:href="#DejaVuSans-32" x="190.869141"/>
       <use xlink:href="#DejaVuSans-2d" x="254.492188"/>
       <use xlink:href="#DejaVuSans-30" x="290.576172"/>
       <use xlink:href="#DejaVuSans-37" x="354.199219"/>
      </g>
     </g>
    </g>
   </g>
   <g id="matplotlib.axis_2">
    <g id="ytick_1">
     <g id="line2d_12">
      <defs>
       <path id="m66907bbe97" d="M 0 0 
L -3.5 0 
" style="stroke: #000000; stroke-width: 0.8"/>
      </defs>
      <g>
       <use xlink:href="#m66907bbe97" x="46.0125" y="350.632702" style="stroke: #000000; stroke-width: 0.8"/>
      </g>
     </g>
     <g id="text_12">
      <!-- 0 -->
      <g transform="translate(32.65 354.431921)scale(0.1 -0.1)">
       <use xlink:href="#DejaVuSans-30"/>
      </g>
     </g>
    </g>
    <g id="ytick_2">
     <g id="line2d_13">
      <g>
       <use xlink:href="#m66907bbe97" x="46.0125" y="295.062845" style="stroke: #000000; stroke-width: 0.8"/>
      </g>
     </g>
     <g id="text_13">
      <!-- 5000 -->
      <g transform="translate(13.5625 298.862064)scale(0.1 -0.1)">
       <defs>
        <path id="DejaVuSans-35" d="M 691 4666 
L 3169 4666 
L 3169 4134 
L 1269 4134 
L 1269 2991 
Q 1406 3038 1543 3061 
Q 1681 3084 1819 3084 
Q 2600 3084 3056 2656 
Q 3513 2228 3513 1497 
Q 3513 744 3044 326 
Q 2575 -91 1722 -91 
Q 1428 -91 1123 -41 
Q 819 9 494 109 
L 494 744 
Q 775 591 1075 516 
Q 1375 441 1709 441 
Q 2250 441 2565 725 
Q 2881 1009 2881 1497 
Q 2881 1984 2565 2268 
Q 2250 2553 1709 2553 
Q 1456 2553 1204 2497 
Q 953 2441 691 2322 
L 691 4666 
z
" transform="scale(0.015625)"/>
       </defs>
       <use xlink:href="#DejaVuSans-35"/>
       <use xlink:href="#DejaVuSans-30" x="63.623047"/>
       <use xlink:href="#DejaVuSans-30" x="127.246094"/>
       <use xlink:href="#DejaVuSans-30" x="190.869141"/>
      </g>
     </g>
    </g>
    <g id="ytick_3">
     <g id="line2d_14">
      <g>
       <use xlink:href="#m66907bbe97" x="46.0125" y="239.492989" style="stroke: #000000; stroke-width: 0.8"/>
      </g>
     </g>
     <g id="text_14">
      <!-- 10000 -->
      <g transform="translate(7.2 243.292207)scale(0.1 -0.1)">
       <use xlink:href="#DejaVuSans-31"/>
       <use xlink:href="#DejaVuSans-30" x="63.623047"/>
       <use xlink:href="#DejaVuSans-30" x="127.246094"/>
       <use xlink:href="#DejaVuSans-30" x="190.869141"/>
       <use xlink:href="#DejaVuSans-30" x="254.492188"/>
      </g>
     </g>
    </g>
    <g id="ytick_4">
     <g id="line2d_15">
      <g>
       <use xlink:href="#m66907bbe97" x="46.0125" y="183.923132" style="stroke: #000000; stroke-width: 0.8"/>
      </g>
     </g>
     <g id="text_15">
      <!-- 15000 -->
      <g transform="translate(7.2 187.722351)scale(0.1 -0.1)">
       <use xlink:href="#DejaVuSans-31"/>
       <use xlink:href="#DejaVuSans-35" x="63.623047"/>
       <use xlink:href="#DejaVuSans-30" x="127.246094"/>
       <use xlink:href="#DejaVuSans-30" x="190.869141"/>
       <use xlink:href="#DejaVuSans-30" x="254.492188"/>
      </g>
     </g>
    </g>
    <g id="ytick_5">
     <g id="line2d_16">
      <g>
       <use xlink:href="#m66907bbe97" x="46.0125" y="128.353276" style="stroke: #000000; stroke-width: 0.8"/>
      </g>
     </g>
     <g id="text_16">
      <!-- 20000 -->
      <g transform="translate(7.2 132.152494)scale(0.1 -0.1)">
       <use xlink:href="#DejaVuSans-32"/>
       <use xlink:href="#DejaVuSans-30" x="63.623047"/>
       <use xlink:href="#DejaVuSans-30" x="127.246094"/>
       <use xlink:href="#DejaVuSans-30" x="190.869141"/>
       <use xlink:href="#DejaVuSans-30" x="254.492188"/>
      </g>
     </g>
    </g>
    <g id="ytick_6">
     <g id="line2d_17">
      <g>
       <use xlink:href="#m66907bbe97" x="46.0125" y="72.783419" style="stroke: #000000; stroke-width: 0.8"/>
      </g>
     </g>
     <g id="text_17">
      <!-- 25000 -->
      <g transform="translate(7.2 76.582638)scale(0.1 -0.1)">
       <use xlink:href="#DejaVuSans-32"/>
       <use xlink:href="#DejaVuSans-35" x="63.623047"/>
       <use xlink:href="#DejaVuSans-30" x="127.246094"/>
       <use xlink:href="#DejaVuSans-30" x="190.869141"/>
       <use xlink:href="#DejaVuSans-30" x="254.492188"/>
      </g>
     </g>
    </g>
   </g>
   <g id="line2d_18">
    <path d="M 106.885227 350.632702 
L 164.109883 350.554904 
L 166.971116 350.288169 
L 168.401732 350.399308 
L 169.832348 350.199257 
L 172.693581 350.310397 
L 174.124197 348.465477 
L 175.554814 348.432135 
L 176.98543 349.476849 
L 178.416047 347.365194 
L 179.846663 349.587988 
L 181.277279 349.176772 
L 182.707896 349.387937 
L 184.138512 349.187885 
L 185.569129 349.665786 
L 186.999745 348.454363 
L 188.430361 348.765555 
L 189.860978 348.365452 
L 191.291594 347.665271 
L 192.722211 348.009805 
L 194.152827 347.943121 
L 195.583443 348.176514 
L 197.01406 347.46522 
L 198.444676 346.342709 
L 199.875292 347.743069 
L 201.305909 347.643043 
L 202.736525 348.843352 
L 205.597758 348.1654 
L 207.028374 347.476334 
L 208.458991 348.154286 
L 211.320224 349.110088 
L 214.181456 348.176514 
L 215.612073 350.632702 
L 217.042689 349.243455 
L 218.473305 349.487963 
L 219.903922 349.576874 
L 221.334538 349.343481 
L 222.765155 349.765812 
L 224.195771 350.410422 
L 225.626387 349.332367 
L 227.057004 348.898922 
L 228.48762 350.177029 
L 229.918237 349.532419 
L 231.348853 350.165915 
L 232.779469 349.765812 
L 234.210086 350.243713 
L 235.640702 348.998948 
L 237.071319 349.932522 
L 238.501935 349.943636 
L 239.932551 350.232599 
L 241.363168 350.321511 
L 242.793784 349.832496 
L 245.655017 350.077003 
L 247.085633 350.321511 
L 248.51625 350.132573 
L 249.946866 350.343739 
L 252.808099 349.999205 
L 259.961181 350.310397 
L 261.391797 350.566018 
L 262.822413 350.332625 
L 275.697961 350.477106 
L 277.128577 350.321511 
L 282.851043 350.499334 
L 285.712276 350.43265 
L 288.573508 350.510448 
L 290.004125 350.465992 
L 291.434741 350.59936 
L 295.72659 350.388194 
L 297.157207 350.332625 
L 300.01844 350.532676 
L 302.879672 350.477106 
L 308.602138 350.499334 
L 311.463371 350.59936 
L 312.893987 350.454878 
L 314.324603 350.48822 
L 315.75522 350.277055 
L 317.185836 350.454878 
L 320.047069 350.454878 
L 321.477685 350.59936 
L 322.908302 350.566018 
L 324.338918 350.399308 
L 325.769535 350.454878 
L 327.200151 350.632702 
L 328.630767 350.143687 
L 330.061384 350.477106 
L 332.922616 350.554904 
L 335.783849 350.443764 
L 337.214466 350.566018 
L 338.645082 350.421536 
L 340.075698 350.577132 
L 345.798164 350.59936 
L 347.22878 350.465992 
L 351.520629 350.588246 
L 352.951246 350.59936 
L 354.381862 350.443764 
L 357.243095 350.588246 
L 358.673711 350.521562 
L 361.534944 350.632702 
L 364.396177 350.421536 
L 365.826793 350.566018 
L 367.25741 350.343739 
L 368.688026 350.554904 
L 370.118643 350.421536 
L 371.549259 350.566018 
L 374.410492 350.43265 
L 378.702341 350.277055 
L 380.132957 350.48822 
L 381.563574 350.465992 
L 382.99419 349.89918 
L 384.424806 350.321511 
L 388.716656 349.710242 
L 390.147272 350.099231 
L 391.577888 350.199257 
L 393.008505 350.121459 
L 394.439121 349.888066 
L 395.869737 350.277055 
L 397.300354 349.876952 
L 398.73097 349.999205 
L 400.161587 349.999205 
L 401.592203 350.188143 
L 403.022819 350.021433 
L 407.314669 350.243713 
L 408.745285 349.765812 
L 410.175901 350.365966 
L 411.606518 350.365966 
L 413.037134 349.832496 
L 417.328983 350.210371 
L 418.7596 350.188143 
L 420.190216 350.310397 
L 421.620832 350.277055 
L 423.051449 349.08786 
L 424.482065 349.643558 
L 425.912682 348.821124 
L 427.343298 349.6769 
L 428.773914 349.399051 
L 430.204531 349.910294 
L 431.635147 349.610216 
L 433.065764 349.154544 
L 434.49638 349.499077 
L 435.926996 349.265683 
L 437.357613 349.287911 
L 438.788229 349.121202 
L 440.218845 349.78804 
L 441.649462 349.799154 
L 443.080078 349.276797 
L 445.941311 349.465735 
L 447.371927 349.010062 
L 448.802544 349.243455 
L 450.23316 349.643558 
L 451.663777 350.199257 
L 453.094393 349.432393 
L 454.525009 348.987834 
L 455.955626 349.254569 
L 458.816859 349.08786 
L 460.247475 349.721356 
L 461.678091 349.84361 
L 463.108708 349.632444 
L 464.539324 349.221227 
L 465.96994 349.387937 
L 468.831173 349.132316 
L 470.26179 349.765812 
L 471.692406 349.576874 
L 473.123022 348.987834 
L 474.553639 348.643301 
L 475.984255 348.087602 
L 477.414872 348.320996 
L 478.845488 348.776669 
L 480.276104 349.765812 
L 481.706721 349.988091 
L 483.137337 349.354595 
L 484.567953 348.92115 
L 485.99857 348.854466 
L 487.429186 348.587731 
L 488.859803 349.132316 
L 490.290419 349.554647 
L 491.721035 349.654672 
L 493.151652 349.010062 
L 496.012885 348.498819 
L 497.443501 347.63193 
L 498.874117 347.320738 
L 500.304734 348.22097 
L 501.73535 348.854466 
L 503.165967 345.820352 
L 504.596583 347.031775 
L 506.027199 346.153771 
L 507.457816 345.131286 
L 508.888432 345.097944 
L 510.319048 347.643043 
L 511.749665 347.254054 
L 513.180281 342.808466 
L 514.610898 343.775381 
L 516.041514 343.719812 
L 517.47213 343.397506 
L 518.902747 343.897635 
L 520.333363 346.098201 
L 521.76398 345.19797 
L 523.194596 344.042117 
L 524.625212 344.38665 
L 526.055829 343.697584 
L 527.486445 342.663984 
L 528.917061 342.98629 
L 530.347678 344.875665 
L 531.778294 350.632702 
L 533.208911 350.632702 
L 534.639527 331.96123 
L 536.070143 343.341937 
L 537.50076 343.175227 
L 538.931376 344.264396 
L 540.361993 346.876179 
L 541.792609 346.042632 
L 543.223225 345.987062 
L 544.653842 344.697841 
L 546.084458 344.508904 
L 547.515075 345.297996 
L 548.945691 345.686985 
L 550.376307 346.70947 
L 551.806924 347.498562 
L 553.23754 347.054003 
L 554.668156 345.73144 
L 556.098773 346.431621 
L 558.960006 345.853694 
L 560.390622 347.609702 
L 561.821238 347.854209 
L 563.251855 346.409393 
L 564.682471 345.520275 
L 566.113088 346.609444 
L 567.543704 345.097944 
L 568.97432 346.00929 
L 570.404937 346.587216 
L 571.835553 348.409908 
L 573.266169 346.953977 
L 574.696786 344.875665 
L 576.127402 345.520275 
L 577.558019 345.475819 
L 578.988635 345.84258 
L 581.849868 347.042889 
L 583.280484 345.84258 
L 584.711101 344.008775 
L 586.141717 344.820095 
L 587.572333 345.342451 
L 589.00295 347.109573 
L 590.433566 345.853694 
L 591.864183 346.398279 
L 593.294799 344.786753 
L 594.725415 342.93072 
L 596.156032 342.497275 
L 597.586648 344.44222 
L 599.017264 348.009805 
L 600.447881 345.486933 
L 601.878497 345.631415 
L 603.309114 344.753411 
L 604.73973 340.241139 
L 606.170346 341.886006 
L 607.600963 341.463675 
L 609.031579 343.030745 
L 610.462196 345.709212 
L 611.892812 344.464448 
L 613.323428 345.864808 
L 614.754045 342.719554 
L 616.184661 343.219683 
L 617.615277 345.586959 
L 619.045894 345.453591 
L 620.47651 347.932007 
L 621.907127 348.343224 
L 623.337743 346.376051 
L 624.768359 345.942606 
L 626.198976 345.84258 
L 629.060209 347.231827 
L 630.490825 347.987577 
L 631.921441 347.531904 
L 633.352058 348.043146 
L 634.782674 347.531904 
L 636.213291 346.553874 
L 637.643907 347.131801 
L 639.074523 347.309624 
L 640.50514 348.209856 
L 641.935756 348.709985 
L 643.366372 347.342966 
L 646.227605 347.454106 
L 647.658222 346.48719 
L 650.519454 348.743327 
L 651.950071 349.310139 
L 653.380687 346.787268 
L 654.811304 348.187628 
L 656.24192 348.309882 
L 657.672536 347.698613 
L 659.103153 345.909264 
L 660.533769 348.898922 
L 661.964385 349.421279 
L 663.395002 346.70947 
L 664.825618 347.454106 
L 666.256235 346.6539 
L 667.686851 347.009547 
L 669.117467 347.487448 
L 670.548084 348.320996 
L 673.409317 348.120944 
L 674.839933 346.298253 
L 676.270549 346.842838 
L 677.701166 344.508904 
L 679.131782 344.808981 
L 680.562399 347.720841 
L 681.993015 348.632187 
L 683.423631 342.530617 
L 684.854248 345.08683 
L 686.284864 342.975176 
L 687.71548 344.297738 
L 689.146097 342.964062 
L 690.576713 346.59833 
L 692.00733 346.231569 
L 693.437946 341.430334 
L 694.868562 342.697326 
L 696.299179 343.019631 
L 697.729795 340.941319 
L 699.160412 340.574558 
L 700.591028 341.14137 
L 702.021644 343.51976 
L 703.452261 341.019117 
L 704.882877 337.851635 
L 706.313493 338.807436 
L 707.74411 339.140855 
L 709.174726 339.640984 
L 710.605343 341.519245 
L 712.035959 344.21994 
L 713.466575 338.451789 
L 714.897192 338.574043 
L 716.327808 339.696554 
L 717.758425 341.396992 
L 719.189041 338.718525 
L 720.619657 345.498047 
L 722.050274 343.064087 
L 723.48089 339.640984 
L 724.911507 338.751866 
L 727.772739 342.952948 
L 729.203356 343.51976 
L 730.633972 342.941834 
L 732.064588 344.253282 
L 733.495205 344.264396 
L 734.925821 340.630128 
L 736.356438 340.263367 
L 737.787054 340.874635 
L 739.21767 342.197198 
L 740.648287 347.798639 
L 742.078903 343.441962 
L 743.50952 343.430848 
L 744.940136 342.419477 
L 746.370752 343.975433 
L 747.801369 343.775381 
L 749.231985 345.042374 
L 750.662601 345.998176 
L 752.093218 346.564988 
L 753.523834 344.875665 
L 754.954451 347.142915 
L 756.385067 341.797095 
L 757.815683 345.698099 
L 759.2463 345.297996 
L 760.676916 346.976205 
L 762.107533 348.1654 
L 763.538149 344.520018 
L 764.968765 344.808981 
L 766.399382 345.409135 
L 767.829998 346.353823 
L 769.260615 345.864808 
L 770.691231 347.420764 
L 772.121847 348.298768 
L 773.552464 345.264654 
L 774.98308 345.25354 
L 776.413696 345.420249 
L 777.844313 345.009032 
L 780.705546 347.120687 
L 782.136162 348.065374 
L 783.566778 343.330823 
L 784.997395 345.375793 
L 786.428011 345.075716 
L 787.858628 347.076231 
L 789.289244 345.909264 
L 790.71986 347.165143 
L 792.150477 347.887551 
L 793.581093 348.398794 
L 795.011709 347.142915 
L 796.442326 345.320223 
L 797.872942 345.020146 
L 799.303559 342.697326 
L 800.734175 345.609187 
L 802.164791 345.620301 
L 803.595408 347.987577 
L 805.026024 344.953462 
L 806.456641 345.08683 
L 807.887257 346.087088 
L 809.317873 346.865065 
L 810.74849 347.909779 
L 812.179106 348.754441 
L 813.609723 347.387422 
L 815.040339 345.520275 
L 816.470955 346.70947 
L 817.901572 347.420764 
L 819.332188 347.265168 
L 820.762804 348.765555 
L 822.193421 349.210113 
L 823.624037 347.865323 
L 825.054654 348.543275 
L 826.48527 348.27654 
L 827.915886 348.298768 
L 829.346503 348.432135 
L 830.777119 349.387937 
L 832.207736 349.965863 
L 833.638352 348.065374 
L 835.068968 348.1654 
L 836.499585 348.632187 
L 837.930201 348.198742 
L 839.360817 348.443249 
L 840.791434 349.187885 
L 842.22205 349.432393 
L 843.652667 348.27654 
L 845.083283 348.176514 
L 846.513899 348.654415 
L 847.944516 347.009547 
L 849.375132 349.832496 
L 850.805749 348.97672 
L 852.236365 349.554647 
L 853.666981 348.898922 
L 855.097598 347.376308 
L 856.528214 347.531904 
L 857.958831 348.487705 
L 859.389447 347.965349 
L 860.820063 349.387937 
L 862.25068 349.654672 
L 863.681296 348.554389 
L 865.111912 348.10983 
L 866.542529 348.287654 
L 867.973145 349.532419 
L 869.403762 347.376308 
L 870.834378 349.14343 
L 872.264994 349.554647 
L 873.695611 348.743327 
L 875.126227 348.609959 
L 877.98746 348.898922 
L 879.418076 348.232084 
L 880.848693 349.098974 
L 882.279309 349.421279 
L 883.709925 348.465477 
L 885.140542 347.898665 
L 886.571158 348.532161 
L 888.001775 347.676385 
L 889.432391 348.098716 
L 890.863007 348.765555 
L 892.293624 349.121202 
L 893.72424 346.965091 
L 895.154857 347.598588 
L 896.585473 348.732213 
L 898.016089 344.119915 
L 899.446706 346.809496 
L 900.877322 348.898922 
L 902.307939 348.120944 
L 903.738555 346.053746 
L 905.169171 345.353565 
L 906.599788 345.320223 
L 908.030404 344.408878 
L 909.46102 345.89815 
L 910.891637 347.720841 
L 912.322253 346.520532 
L 913.75287 345.109058 
L 915.183486 343.230797 
L 916.614102 347.054003 
L 918.044719 344.253282 
L 919.475335 340.941319 
L 920.905952 347.654157 
L 922.336568 345.642529 
L 923.767184 344.742297 
L 925.197801 342.330565 
L 926.628417 343.830951 
L 928.059033 343.019631 
L 929.48965 342.630642 
L 930.920266 347.554132 
L 932.350883 344.486676 
L 933.781499 338.140598 
L 935.212115 338.485131 
L 936.642732 336.251223 
L 938.073348 334.906432 
L 939.503965 333.383818 
L 940.934581 338.996374 
L 942.365197 340.55233 
L 945.22643 330.794263 
L 946.657047 332.405789 
L 948.087663 333.406046 
L 949.518279 331.883432 
L 950.948896 337.862749 
L 952.379512 338.796322 
L 953.810128 337.25148 
L 955.240745 331.694495 
L 956.671361 333.450502 
L 958.101978 332.528043 
L 959.532594 336.173425 
L 960.96321 341.296966 
L 962.393827 343.375279 
L 963.824443 338.185054 
L 965.25506 337.084771 
L 966.685676 339.863264 
L 968.116292 339.718782 
L 969.546909 342.152742 
L 970.977525 344.297738 
L 972.408141 345.364679 
L 973.838758 343.086315 
L 975.269374 345.25354 
L 976.699991 337.218138 
L 978.130607 342.619528 
L 979.561223 342.797352 
L 980.99184 344.864551 
L 982.422456 346.398279 
L 983.853073 343.319709 
L 985.283689 342.830694 
L 986.714305 344.464448 
L 988.144922 344.175484 
L 989.575538 345.25354 
L 991.006155 347.198485 
L 992.436771 347.198485 
L 993.867387 345.25354 
L 995.298004 344.16437 
L 996.72862 345.297996 
L 998.159236 344.986804 
L 999.589853 345.442477 
L 1001.020469 348.176514 
L 1002.451086 347.442992 
L 1003.881702 348.721099 
L 1005.312318 340.674583 
L 1006.742935 346.198227 
L 1008.173551 346.676128 
L 1009.604168 345.931492 
L 1011.034784 346.920635 
L 1012.4654 348.309882 
L 1013.896017 344.575587 
L 1015.326633 343.875407 
L 1016.757249 343.330823 
L 1018.187866 342.319451 
L 1022.479715 345.920378 
L 1023.910331 340.707925 
L 1025.340948 337.918319 
L 1026.771564 337.518216 
L 1028.202181 339.563186 
L 1029.632797 338.129484 
L 1031.063413 341.763753 
L 1032.49403 343.664242 
L 1033.924646 335.79555 
L 1035.355263 332.561384 
L 1036.785879 333.806149 
L 1038.216495 333.58387 
L 1039.647112 333.895061 
L 1041.077728 338.829664 
L 1042.508344 339.540958 
L 1043.938961 333.606098 
L 1045.369577 327.004399 
L 1046.800194 330.816491 
L 1048.23081 328.338075 
L 1049.661426 331.049884 
L 1051.092043 336.117855 
L 1052.522659 337.784951 
L 1053.953276 341.930462 
L 1055.383892 311.400383 
L 1056.814508 323.125623 
L 1058.245125 323.681321 
L 1059.675741 324.359274 
L 1061.106357 335.762208 
L 1062.536974 334.295164 
L 1063.96759 324.059196 
L 1065.398207 333.739465 
L 1066.828823 299.786283 
L 1068.259439 317.624207 
L 1069.690056 317.935398 
L 1071.120672 329.616182 
L 1072.551289 331.505557 
L 1075.412521 305.676688 
L 1076.843138 308.62189 
L 1078.273754 304.620861 
L 1079.704371 304.054048 
L 1081.134987 317.690891 
L 1082.565603 333.628326 
L 1083.99622 320.902829 
L 1085.426836 265.821987 
L 1086.857452 292.184327 
L 1088.288069 291.117385 
L 1089.718685 290.472775 
L 1091.149302 311.989424 
L 1092.579918 310.377898 
L 1094.010534 350.632702 
L 1095.441151 229.857176 
L 1096.871767 286.827393 
L 1098.302384 300.397551 
L 1099.733 298.51929 
L 1101.163616 309.455438 
L 1102.594233 317.04628 
L 1104.024849 305.721144 
L 1105.455465 297.296753 
L 1106.886082 302.953765 
L 1108.316698 302.709257 
L 1109.747315 325.426215 
L 1111.177931 328.527013 
L 1112.608547 326.026369 
L 1114.039164 308.955309 
L 1115.46978 298.374809 
L 1116.900397 301.65343 
L 1118.331013 305.976765 
L 1119.761629 316.790659 
L 1121.192246 326.67098 
L 1122.622862 318.368843 
L 1124.053479 292.47329 
L 1125.484095 262.598935 
L 1126.914711 257.442052 
L 1128.345328 263.065722 
L 1129.775944 282.170639 
L 1131.20656 291.862022 
L 1132.637177 304.131846 
L 1134.067793 277.947329 
L 1135.49841 243.69407 
L 1136.929026 219.209991 
L 1138.359642 221.743977 
L 1139.790259 213.264016 
L 1141.220875 256.419567 
L 1142.651492 266.122064 
L 1144.082108 228.034484 
L 1145.512724 179.844305 
L 1146.943341 172.953642 
L 1148.373957 163.062208 
L 1149.804573 73.250206 
L 1151.23519 202.405666 
L 1152.665806 210.085421 
L 1155.527039 79.129497 
L 1156.957655 76.373232 
L 1158.388272 80.696567 
L 1159.818888 111.471153 
L 1161.249505 184.256551 
L 1162.680121 194.592545 
L 1164.110737 172.942529 
L 1165.541354 92.377351 
L 1166.97197 91.688284 
L 1168.402587 108.303671 
L 1169.833203 118.839716 
L 1171.263819 204.561777 
L 1172.694436 237.581386 
L 1174.125052 154.44888 
L 1175.555668 60.458025 
L 1176.986285 71.827618 
L 1178.416901 78.918331 
L 1179.847518 94.22227 
L 1181.278134 190.002474 
L 1182.70875 224.222392 
L 1184.139367 194.392493 
L 1185.569983 140.856493 
L 1187.0006 151.381424 
L 1188.431216 157.894211 
L 1189.861832 181.166867 
L 1191.292449 244.39425 
L 1192.723065 265.655277 
L 1194.153681 185.267923 
L 1195.584298 153.370825 
L 1197.014914 157.416311 
L 1198.445531 177.310319 
L 1199.876147 180.711194 
L 1201.306763 255.497107 
L 1202.73738 285.060271 
L 1205.598613 184.823364 
L 1207.029229 105.125076 
L 1208.459845 231.546499 
L 1209.890462 243.216169 
L 1211.321078 289.98376 
L 1212.751695 313.556493 
L 1214.182311 268.945013 
L 1215.612927 237.081257 
L 1217.043544 263.010152 
L 1218.47416 268.722733 
L 1219.904776 288.238867 
L 1221.335393 315.134677 
L 1222.766009 329.382789 
L 1224.196626 290.650599 
L 1225.627242 282.548514 
L 1227.057858 297.741312 
L 1228.488475 304.231872 
L 1229.919091 307.299328 
L 1231.349708 328.415873 
L 1232.780324 336.973631 
L 1234.21094 308.84417 
L 1235.641557 308.321813 
L 1237.072173 317.279674 
L 1238.502789 317.001825 
L 1239.933406 322.903343 
L 1241.364022 335.573271 
L 1242.794639 342.552845 
L 1244.225255 327.560097 
L 1245.655871 322.792204 
L 1247.086488 328.538127 
L 1248.517104 331.14991 
L 1249.947721 334.384076 
L 1251.378337 341.352536 
L 1252.808953 345.620301 
L 1254.23957 335.706638 
L 1255.670186 333.972859 
L 1257.100803 334.861976 
L 1258.531419 339.652098 
L 1259.962035 339.118627 
L 1261.392652 343.786495 
L 1262.823268 347.087345 
L 1264.253884 341.919348 
L 1265.684501 340.418962 
L 1267.115117 341.741525 
L 1268.545734 346.376051 
L 1269.97635 347.498562 
L 1271.406966 346.06486 
L 1272.837583 348.1654 
L 1274.268199 347.254054 
L 1275.698816 342.663984 
L 1277.129432 340.174455 
L 1278.560048 340.719039 
L 1279.990665 343.553102 
L 1281.421281 347.420764 
L 1282.851898 349.299025 
L 1284.282514 344.508904 
L 1285.71313 345.164628 
L 1287.143747 346.109315 
L 1288.574363 346.353823 
L 1290.004979 346.798382 
L 1291.435596 348.365452 
L 1292.866212 349.354595 
L 1294.296829 346.59833 
L 1295.727445 347.220713 
L 1297.158061 346.742812 
L 1298.588678 346.887293 
L 1300.019294 347.242941 
L 1301.449911 348.787783 
L 1302.880527 350.032547 
L 1304.311143 347.020661 
L 1304.311143 347.020661 
" clip-path="url(#pc512988dc4)" style="fill: none; stroke: #0000ff; stroke-width: 1.5; stroke-linecap: square"/>
   </g>
   <g id="line2d_19">
    <path d="M 1065.398207 312.041912 
L 1066.828823 330.767655 
L 1068.259439 311.687104 
L 1069.690056 319.060145 
L 1071.120672 323.962561 
L 1072.551289 330.260752 
L 1073.981905 323.457206 
L 1075.412521 317.951188 
L 1076.843138 298.463873 
L 1078.273754 313.935896 
L 1079.704371 309.585322 
L 1081.134987 315.56119 
L 1082.565603 316.877098 
L 1083.99622 319.63196 
L 1085.426836 311.463013 
L 1086.857452 279.99607 
L 1088.288069 292.492748 
L 1089.718685 293.948757 
L 1091.149302 304.738239 
L 1092.579918 312.660332 
L 1094.010534 301.491052 
L 1095.441151 301.586488 
L 1096.871767 265.096082 
L 1098.302384 284.140883 
L 1099.733 291.162793 
L 1101.163616 314.468178 
L 1102.594233 306.725542 
L 1104.024849 325.594502 
L 1105.455465 248.739905 
L 1106.886082 308.57287 
L 1108.316698 307.076903 
L 1109.747315 303.670969 
L 1111.177931 322.470934 
L 1112.608547 331.432699 
L 1114.039164 328.493721 
L 1115.46978 284.679894 
L 1116.900397 311.193905 
L 1118.331013 308.694394 
L 1119.761629 318.360839 
L 1121.192246 321.660118 
L 1122.622862 326.425884 
L 1124.053479 313.818257 
L 1125.484095 284.344642 
L 1126.914711 282.418771 
L 1128.345328 275.774596 
L 1129.775944 282.625775 
L 1131.20656 291.779684 
L 1132.637177 288.595422 
L 1134.067793 280.959834 
L 1135.49841 254.988608 
L 1136.929026 248.91617 
L 1138.359642 236.673587 
L 1139.790259 246.350508 
L 1141.220875 239.4152 
L 1142.651492 258.755732 
L 1144.082108 243.231367 
L 1145.512724 208.776767 
L 1146.943341 178.995551 
L 1148.373957 182.479986 
L 1149.804573 177.616161 
L 1151.23519 145.208671 
L 1152.665806 194.640766 
L 1154.096423 177.791783 
L 1155.527039 127.586479 
L 1156.957655 83.443693 
L 1158.388272 84.200795 
L 1159.818888 50.8755 
L 1161.249505 155.095963 
L 1162.680121 168.039691 
L 1164.110737 134.385596 
L 1165.541354 103.493502 
L 1166.97197 89.763783 
L 1168.402587 93.347122 
L 1169.833203 100.196214 
L 1171.263819 174.187994 
L 1172.694436 194.726584 
L 1174.125052 186.251317 
L 1175.555668 107.14722 
L 1176.986285 79.274171 
L 1178.416901 89.988211 
L 1179.847518 97.202623 
L 1181.278134 163.106203 
L 1182.70875 192.932674 
L 1184.139367 157.505823 
L 1185.569983 106.862155 
L 1187.0006 122.363434 
L 1188.431216 139.900634 
L 1189.861832 154.192327 
L 1191.292449 237.085008 
L 1192.723065 261.521869 
L 1194.153681 229.407131 
L 1195.584298 152.319598 
L 1197.014914 165.70333 
L 1198.445531 169.52718 
L 1199.876147 192.033743 
L 1201.306763 239.335538 
L 1202.73738 267.54262 
L 1204.167996 224.635129 
L 1205.598613 193.142867 
L 1207.029229 189.671867 
L 1208.459845 153.587654 
L 1209.890462 215.992784 
L 1211.321078 286.609087 
L 1212.751695 307.940083 
L 1214.182311 253.654868 
L 1215.612927 225.214126 
L 1217.043544 199.504084 
L 1218.47416 295.800122 
L 1219.904776 281.650808 
L 1221.335393 329.883867 
L 1222.766009 338.00271 
L 1225.627242 267.034322 
L 1227.057858 276.121393 
L 1228.488475 314.82807 
L 1229.919091 316.814973 
L 1231.349708 340.287418 
L 1232.780324 349.253741 
L 1234.21094 313.848742 
L 1235.641557 297.635841 
L 1237.072173 310.633756 
L 1238.502789 327.589554 
L 1239.933406 325.427144 
L 1241.364022 345.863087 
L 1242.794639 351.27587 
L 1244.225255 322.852532 
L 1245.655871 319.860338 
L 1247.086488 328.151425 
L 1248.517104 333.349504 
L 1249.947721 335.827133 
L 1251.378337 350.324451 
L 1252.808953 353.2755 
L 1254.23957 332.656829 
L 1255.670186 330.736798 
L 1257.100803 338.268266 
L 1258.531419 339.232427 
L 1259.962035 342.291229 
L 1261.392652 349.895394 
L 1262.823268 352.370202 
L 1264.253884 338.281817 
L 1265.684501 338.644337 
L 1267.115117 342.264114 
L 1268.545734 345.01218 
L 1269.97635 346.225826 
L 1271.406966 352.873557 
L 1272.837583 352.70237 
L 1274.268199 343.559808 
L 1275.698816 344.721255 
L 1277.129432 345.63033 
L 1278.560048 345.994791 
L 1279.990665 344.005548 
L 1281.421281 346.799318 
L 1282.851898 350.241767 
L 1285.71313 342.015157 
L 1287.143747 343.343195 
L 1288.574363 346.486744 
L 1290.004979 347.770248 
L 1292.866212 350.794449 
L 1294.296829 346.8126 
L 1295.727445 346.147288 
L 1297.158061 347.120176 
L 1298.588678 347.60726 
L 1300.019294 347.931501 
L 1301.449911 349.272319 
L 1302.880527 350.460438 
L 1304.311143 347.641906 
L 1304.311143 347.641906 
" clip-path="url(#pc512988dc4)" style="fill: none; stroke: #ffa500; stroke-width: 1.5; stroke-linecap: square"/>
   </g>
   <g id="line2d_20">
    <path d="M 1305.74176 347.280812 
L 1307.172376 347.227466 
L 1308.602992 347.633798 
L 1310.033609 348.167812 
L 1311.464225 349.550962 
L 1312.894842 350.620358 
L 1314.325458 348.12556 
L 1315.756074 348.206193 
L 1317.186691 348.142866 
L 1318.617307 348.501295 
L 1320.047924 348.966822 
L 1321.47854 350.186989 
L 1322.909156 351.116162 
L 1324.339773 348.947882 
" clip-path="url(#pc512988dc4)" style="fill: none; stroke: #ff0000; stroke-width: 1.5; stroke-linecap: square"/>
   </g>
   <g id="patch_3">
    <path d="M 46.0125 368.3955 
L 46.0125 35.7555 
" style="fill: none; stroke: #000000; stroke-width: 0.8; stroke-linejoin: miter; stroke-linecap: square"/>
   </g>
   <g id="patch_4">
    <path d="M 1385.2125 368.3955 
L 1385.2125 35.7555 
" style="fill: none; stroke: #000000; stroke-width: 0.8; stroke-linejoin: miter; stroke-linecap: square"/>
   </g>
   <g id="patch_5">
    <path d="M 46.0125 368.3955 
L 1385.2125 368.3955 
" style="fill: none; stroke: #000000; stroke-width: 0.8; stroke-linejoin: miter; stroke-linecap: square"/>
   </g>
   <g id="patch_6">
    <path d="M 46.0125 35.7555 
L 1385.2125 35.7555 
" style="fill: none; stroke: #000000; stroke-width: 0.8; stroke-linejoin: miter; stroke-linecap: square"/>
   </g>
   <g id="text_18">
    <!-- Daily Confirmed Cases Forecasting - Norway -->
    <g transform="translate(582.350625 16.318125)scale(0.12 -0.12)">
     <defs>
      <path id="DejaVuSans-44" d="M 1259 4147 
L 1259 519 
L 2022 519 
Q 2988 519 3436 956 
Q 3884 1394 3884 2338 
Q 3884 3275 3436 3711 
Q 2988 4147 2022 4147 
L 1259 4147 
z
M 628 4666 
L 1925 4666 
Q 3281 4666 3915 4102 
Q 4550 3538 4550 2338 
Q 4550 1131 3912 565 
Q 3275 0 1925 0 
L 628 0 
L 628 4666 
z
" transform="scale(0.015625)"/>
      <path id="DejaVuSans-61" d="M 2194 1759 
Q 1497 1759 1228 1600 
Q 959 1441 959 1056 
Q 959 750 1161 570 
Q 1363 391 1709 391 
Q 2188 391 2477 730 
Q 2766 1069 2766 1631 
L 2766 1759 
L 2194 1759 
z
M 3341 1997 
L 3341 0 
L 2766 0 
L 2766 531 
Q 2569 213 2275 61 
Q 1981 -91 1556 -91 
Q 1019 -91 701 211 
Q 384 513 384 1019 
Q 384 1609 779 1909 
Q 1175 2209 1959 2209 
L 2766 2209 
L 2766 2266 
Q 2766 2663 2505 2880 
Q 2244 3097 1772 3097 
Q 1472 3097 1187 3025 
Q 903 2953 641 2809 
L 641 3341 
Q 956 3463 1253 3523 
Q 1550 3584 1831 3584 
Q 2591 3584 2966 3190 
Q 3341 2797 3341 1997 
z
" transform="scale(0.015625)"/>
      <path id="DejaVuSans-69" d="M 603 3500 
L 1178 3500 
L 1178 0 
L 603 0 
L 603 3500 
z
M 603 4863 
L 1178 4863 
L 1178 4134 
L 603 4134 
L 603 4863 
z
" transform="scale(0.015625)"/>
      <path id="DejaVuSans-6c" d="M 603 4863 
L 1178 4863 
L 1178 0 
L 603 0 
L 603 4863 
z
" transform="scale(0.015625)"/>
      <path id="DejaVuSans-79" d="M 2059 -325 
Q 1816 -950 1584 -1140 
Q 1353 -1331 966 -1331 
L 506 -1331 
L 506 -850 
L 844 -850 
Q 1081 -850 1212 -737 
Q 1344 -625 1503 -206 
L 1606 56 
L 191 3500 
L 800 3500 
L 1894 763 
L 2988 3500 
L 3597 3500 
L 2059 -325 
z
" transform="scale(0.015625)"/>
      <path id="DejaVuSans-20" transform="scale(0.015625)"/>
      <path id="DejaVuSans-43" d="M 4122 4306 
L 4122 3641 
Q 3803 3938 3442 4084 
Q 3081 4231 2675 4231 
Q 1875 4231 1450 3742 
Q 1025 3253 1025 2328 
Q 1025 1406 1450 917 
Q 1875 428 2675 428 
Q 3081 428 3442 575 
Q 3803 722 4122 1019 
L 4122 359 
Q 3791 134 3420 21 
Q 3050 -91 2638 -91 
Q 1578 -91 968 557 
Q 359 1206 359 2328 
Q 359 3453 968 4101 
Q 1578 4750 2638 4750 
Q 3056 4750 3426 4639 
Q 3797 4528 4122 4306 
z
" transform="scale(0.015625)"/>
      <path id="DejaVuSans-6f" d="M 1959 3097 
Q 1497 3097 1228 2736 
Q 959 2375 959 1747 
Q 959 1119 1226 758 
Q 1494 397 1959 397 
Q 2419 397 2687 759 
Q 2956 1122 2956 1747 
Q 2956 2369 2687 2733 
Q 2419 3097 1959 3097 
z
M 1959 3584 
Q 2709 3584 3137 3096 
Q 3566 2609 3566 1747 
Q 3566 888 3137 398 
Q 2709 -91 1959 -91 
Q 1206 -91 779 398 
Q 353 888 353 1747 
Q 353 2609 779 3096 
Q 1206 3584 1959 3584 
z
" transform="scale(0.015625)"/>
      <path id="DejaVuSans-6e" d="M 3513 2113 
L 3513 0 
L 2938 0 
L 2938 2094 
Q 2938 2591 2744 2837 
Q 2550 3084 2163 3084 
Q 1697 3084 1428 2787 
Q 1159 2491 1159 1978 
L 1159 0 
L 581 0 
L 581 3500 
L 1159 3500 
L 1159 2956 
Q 1366 3272 1645 3428 
Q 1925 3584 2291 3584 
Q 2894 3584 3203 3211 
Q 3513 2838 3513 2113 
z
" transform="scale(0.015625)"/>
      <path id="DejaVuSans-66" d="M 2375 4863 
L 2375 4384 
L 1825 4384 
Q 1516 4384 1395 4259 
Q 1275 4134 1275 3809 
L 1275 3500 
L 2222 3500 
L 2222 3053 
L 1275 3053 
L 1275 0 
L 697 0 
L 697 3053 
L 147 3053 
L 147 3500 
L 697 3500 
L 697 3744 
Q 697 4328 969 4595 
Q 1241 4863 1831 4863 
L 2375 4863 
z
" transform="scale(0.015625)"/>
      <path id="DejaVuSans-72" d="M 2631 2963 
Q 2534 3019 2420 3045 
Q 2306 3072 2169 3072 
Q 1681 3072 1420 2755 
Q 1159 2438 1159 1844 
L 1159 0 
L 581 0 
L 581 3500 
L 1159 3500 
L 1159 2956 
Q 1341 3275 1631 3429 
Q 1922 3584 2338 3584 
Q 2397 3584 2469 3576 
Q 2541 3569 2628 3553 
L 2631 2963 
z
" transform="scale(0.015625)"/>
      <path id="DejaVuSans-6d" d="M 3328 2828 
Q 3544 3216 3844 3400 
Q 4144 3584 4550 3584 
Q 5097 3584 5394 3201 
Q 5691 2819 5691 2113 
L 5691 0 
L 5113 0 
L 5113 2094 
Q 5113 2597 4934 2840 
Q 4756 3084 4391 3084 
Q 3944 3084 3684 2787 
Q 3425 2491 3425 1978 
L 3425 0 
L 2847 0 
L 2847 2094 
Q 2847 2600 2669 2842 
Q 2491 3084 2119 3084 
Q 1678 3084 1418 2786 
Q 1159 2488 1159 1978 
L 1159 0 
L 581 0 
L 581 3500 
L 1159 3500 
L 1159 2956 
Q 1356 3278 1631 3431 
Q 1906 3584 2284 3584 
Q 2666 3584 2933 3390 
Q 3200 3197 3328 2828 
z
" transform="scale(0.015625)"/>
      <path id="DejaVuSans-65" d="M 3597 1894 
L 3597 1613 
L 953 1613 
Q 991 1019 1311 708 
Q 1631 397 2203 397 
Q 2534 397 2845 478 
Q 3156 559 3463 722 
L 3463 178 
Q 3153 47 2828 -22 
Q 2503 -91 2169 -91 
Q 1331 -91 842 396 
Q 353 884 353 1716 
Q 353 2575 817 3079 
Q 1281 3584 2069 3584 
Q 2775 3584 3186 3129 
Q 3597 2675 3597 1894 
z
M 3022 2063 
Q 3016 2534 2758 2815 
Q 2500 3097 2075 3097 
Q 1594 3097 1305 2825 
Q 1016 2553 972 2059 
L 3022 2063 
z
" transform="scale(0.015625)"/>
      <path id="DejaVuSans-64" d="M 2906 2969 
L 2906 4863 
L 3481 4863 
L 3481 0 
L 2906 0 
L 2906 525 
Q 2725 213 2448 61 
Q 2172 -91 1784 -91 
Q 1150 -91 751 415 
Q 353 922 353 1747 
Q 353 2572 751 3078 
Q 1150 3584 1784 3584 
Q 2172 3584 2448 3432 
Q 2725 3281 2906 2969 
z
M 947 1747 
Q 947 1113 1208 752 
Q 1469 391 1925 391 
Q 2381 391 2643 752 
Q 2906 1113 2906 1747 
Q 2906 2381 2643 2742 
Q 2381 3103 1925 3103 
Q 1469 3103 1208 2742 
Q 947 2381 947 1747 
z
" transform="scale(0.015625)"/>
      <path id="DejaVuSans-73" d="M 2834 3397 
L 2834 2853 
Q 2591 2978 2328 3040 
Q 2066 3103 1784 3103 
Q 1356 3103 1142 2972 
Q 928 2841 928 2578 
Q 928 2378 1081 2264 
Q 1234 2150 1697 2047 
L 1894 2003 
Q 2506 1872 2764 1633 
Q 3022 1394 3022 966 
Q 3022 478 2636 193 
Q 2250 -91 1575 -91 
Q 1294 -91 989 -36 
Q 684 19 347 128 
L 347 722 
Q 666 556 975 473 
Q 1284 391 1588 391 
Q 1994 391 2212 530 
Q 2431 669 2431 922 
Q 2431 1156 2273 1281 
Q 2116 1406 1581 1522 
L 1381 1569 
Q 847 1681 609 1914 
Q 372 2147 372 2553 
Q 372 3047 722 3315 
Q 1072 3584 1716 3584 
Q 2034 3584 2315 3537 
Q 2597 3491 2834 3397 
z
" transform="scale(0.015625)"/>
      <path id="DejaVuSans-46" d="M 628 4666 
L 3309 4666 
L 3309 4134 
L 1259 4134 
L 1259 2759 
L 3109 2759 
L 3109 2228 
L 1259 2228 
L 1259 0 
L 628 0 
L 628 4666 
z
" transform="scale(0.015625)"/>
      <path id="DejaVuSans-63" d="M 3122 3366 
L 3122 2828 
Q 2878 2963 2633 3030 
Q 2388 3097 2138 3097 
Q 1578 3097 1268 2742 
Q 959 2388 959 1747 
Q 959 1106 1268 751 
Q 1578 397 2138 397 
Q 2388 397 2633 464 
Q 2878 531 3122 666 
L 3122 134 
Q 2881 22 2623 -34 
Q 2366 -91 2075 -91 
Q 1284 -91 818 406 
Q 353 903 353 1747 
Q 353 2603 823 3093 
Q 1294 3584 2113 3584 
Q 2378 3584 2631 3529 
Q 2884 3475 3122 3366 
z
" transform="scale(0.015625)"/>
      <path id="DejaVuSans-74" d="M 1172 4494 
L 1172 3500 
L 2356 3500 
L 2356 3053 
L 1172 3053 
L 1172 1153 
Q 1172 725 1289 603 
Q 1406 481 1766 481 
L 2356 481 
L 2356 0 
L 1766 0 
Q 1100 0 847 248 
Q 594 497 594 1153 
L 594 3053 
L 172 3053 
L 172 3500 
L 594 3500 
L 594 4494 
L 1172 4494 
z
" transform="scale(0.015625)"/>
      <path id="DejaVuSans-67" d="M 2906 1791 
Q 2906 2416 2648 2759 
Q 2391 3103 1925 3103 
Q 1463 3103 1205 2759 
Q 947 2416 947 1791 
Q 947 1169 1205 825 
Q 1463 481 1925 481 
Q 2391 481 2648 825 
Q 2906 1169 2906 1791 
z
M 3481 434 
Q 3481 -459 3084 -895 
Q 2688 -1331 1869 -1331 
Q 1566 -1331 1297 -1286 
Q 1028 -1241 775 -1147 
L 775 -588 
Q 1028 -725 1275 -790 
Q 1522 -856 1778 -856 
Q 2344 -856 2625 -561 
Q 2906 -266 2906 331 
L 2906 616 
Q 2728 306 2450 153 
Q 2172 0 1784 0 
Q 1141 0 747 490 
Q 353 981 353 1791 
Q 353 2603 747 3093 
Q 1141 3584 1784 3584 
Q 2172 3584 2450 3431 
Q 2728 3278 2906 2969 
L 2906 3500 
L 3481 3500 
L 3481 434 
z
" transform="scale(0.015625)"/>
      <path id="DejaVuSans-4e" d="M 628 4666 
L 1478 4666 
L 3547 763 
L 3547 4666 
L 4159 4666 
L 4159 0 
L 3309 0 
L 1241 3903 
L 1241 0 
L 628 0 
L 628 4666 
z
" transform="scale(0.015625)"/>
      <path id="DejaVuSans-77" d="M 269 3500 
L 844 3500 
L 1563 769 
L 2278 3500 
L 2956 3500 
L 3675 769 
L 4391 3500 
L 4966 3500 
L 4050 0 
L 3372 0 
L 2619 2869 
L 1863 0 
L 1184 0 
L 269 3500 
z
" transform="scale(0.015625)"/>
     </defs>
     <use xlink:href="#DejaVuSans-44"/>
     <use xlink:href="#DejaVuSans-61" x="77.001953"/>
     <use xlink:href="#DejaVuSans-69" x="138.28125"/>
     <use xlink:href="#DejaVuSans-6c" x="166.064453"/>
     <use xlink:href="#DejaVuSans-79" x="193.847656"/>
     <use xlink:href="#DejaVuSans-20" x="253.027344"/>
     <use xlink:href="#DejaVuSans-43" x="284.814453"/>
     <use xlink:href="#DejaVuSans-6f" x="354.638672"/>
     <use xlink:href="#DejaVuSans-6e" x="415.820312"/>
     <use xlink:href="#DejaVuSans-66" x="479.199219"/>
     <use xlink:href="#DejaVuSans-69" x="514.404297"/>
     <use xlink:href="#DejaVuSans-72" x="542.1875"/>
     <use xlink:href="#DejaVuSans-6d" x="581.550781"/>
     <use xlink:href="#DejaVuSans-65" x="678.962891"/>
     <use xlink:href="#DejaVuSans-64" x="740.486328"/>
     <use xlink:href="#DejaVuSans-20" x="803.962891"/>
     <use xlink:href="#DejaVuSans-43" x="835.75"/>
     <use xlink:href="#DejaVuSans-61" x="905.574219"/>
     <use xlink:href="#DejaVuSans-73" x="966.853516"/>
     <use xlink:href="#DejaVuSans-65" x="1018.953125"/>
     <use xlink:href="#DejaVuSans-73" x="1080.476562"/>
     <use xlink:href="#DejaVuSans-20" x="1132.576172"/>
     <use xlink:href="#DejaVuSans-46" x="1164.363281"/>
     <use xlink:href="#DejaVuSans-6f" x="1218.257812"/>
     <use xlink:href="#DejaVuSans-72" x="1279.439453"/>
     <use xlink:href="#DejaVuSans-65" x="1318.302734"/>
     <use xlink:href="#DejaVuSans-63" x="1379.826172"/>
     <use xlink:href="#DejaVuSans-61" x="1434.806641"/>
     <use xlink:href="#DejaVuSans-73" x="1496.085938"/>
     <use xlink:href="#DejaVuSans-74" x="1548.185547"/>
     <use xlink:href="#DejaVuSans-69" x="1587.394531"/>
     <use xlink:href="#DejaVuSans-6e" x="1615.177734"/>
     <use xlink:href="#DejaVuSans-67" x="1678.556641"/>
     <use xlink:href="#DejaVuSans-20" x="1742.033203"/>
     <use xlink:href="#DejaVuSans-2d" x="1773.820312"/>
     <use xlink:href="#DejaVuSans-20" x="1809.904297"/>
     <use xlink:href="#DejaVuSans-4e" x="1841.691406"/>
     <use xlink:href="#DejaVuSans-6f" x="1916.496094"/>
     <use xlink:href="#DejaVuSans-72" x="1977.677734"/>
     <use xlink:href="#DejaVuSans-77" x="2018.791016"/>
     <use xlink:href="#DejaVuSans-61" x="2100.578125"/>
     <use xlink:href="#DejaVuSans-79" x="2161.857422"/>
    </g>
    <!-- ARIMA (4, 1, 1)x(1, 0, 1, 7) (R2 = 0.918131) -->
    <g transform="translate(583.628438 29.7555)scale(0.12 -0.12)">
     <defs>
      <path id="DejaVuSans-41" d="M 2188 4044 
L 1331 1722 
L 3047 1722 
L 2188 4044 
z
M 1831 4666 
L 2547 4666 
L 4325 0 
L 3669 0 
L 3244 1197 
L 1141 1197 
L 716 0 
L 50 0 
L 1831 4666 
z
" transform="scale(0.015625)"/>
      <path id="DejaVuSans-52" d="M 2841 2188 
Q 3044 2119 3236 1894 
Q 3428 1669 3622 1275 
L 4263 0 
L 3584 0 
L 2988 1197 
Q 2756 1666 2539 1819 
Q 2322 1972 1947 1972 
L 1259 1972 
L 1259 0 
L 628 0 
L 628 4666 
L 2053 4666 
Q 2853 4666 3247 4331 
Q 3641 3997 3641 3322 
Q 3641 2881 3436 2590 
Q 3231 2300 2841 2188 
z
M 1259 4147 
L 1259 2491 
L 2053 2491 
Q 2509 2491 2742 2702 
Q 2975 2913 2975 3322 
Q 2975 3731 2742 3939 
Q 2509 4147 2053 4147 
L 1259 4147 
z
" transform="scale(0.015625)"/>
      <path id="DejaVuSans-49" d="M 628 4666 
L 1259 4666 
L 1259 0 
L 628 0 
L 628 4666 
z
" transform="scale(0.015625)"/>
      <path id="DejaVuSans-4d" d="M 628 4666 
L 1569 4666 
L 2759 1491 
L 3956 4666 
L 4897 4666 
L 4897 0 
L 4281 0 
L 4281 4097 
L 3078 897 
L 2444 897 
L 1241 4097 
L 1241 0 
L 628 0 
L 628 4666 
z
" transform="scale(0.015625)"/>
      <path id="DejaVuSans-28" d="M 1984 4856 
Q 1566 4138 1362 3434 
Q 1159 2731 1159 2009 
Q 1159 1288 1364 580 
Q 1569 -128 1984 -844 
L 1484 -844 
Q 1016 -109 783 600 
Q 550 1309 550 2009 
Q 550 2706 781 3412 
Q 1013 4119 1484 4856 
L 1984 4856 
z
" transform="scale(0.015625)"/>
      <path id="DejaVuSans-2c" d="M 750 794 
L 1409 794 
L 1409 256 
L 897 -744 
L 494 -744 
L 750 256 
L 750 794 
z
" transform="scale(0.015625)"/>
      <path id="DejaVuSans-29" d="M 513 4856 
L 1013 4856 
Q 1481 4119 1714 3412 
Q 1947 2706 1947 2009 
Q 1947 1309 1714 600 
Q 1481 -109 1013 -844 
L 513 -844 
Q 928 -128 1133 580 
Q 1338 1288 1338 2009 
Q 1338 2731 1133 3434 
Q 928 4138 513 4856 
z
" transform="scale(0.015625)"/>
      <path id="DejaVuSans-78" d="M 3513 3500 
L 2247 1797 
L 3578 0 
L 2900 0 
L 1881 1375 
L 863 0 
L 184 0 
L 1544 1831 
L 300 3500 
L 978 3500 
L 1906 2253 
L 2834 3500 
L 3513 3500 
z
" transform="scale(0.015625)"/>
      <path id="DejaVuSans-3d" d="M 678 2906 
L 4684 2906 
L 4684 2381 
L 678 2381 
L 678 2906 
z
M 678 1631 
L 4684 1631 
L 4684 1100 
L 678 1100 
L 678 1631 
z
" transform="scale(0.015625)"/>
      <path id="DejaVuSans-2e" d="M 684 794 
L 1344 794 
L 1344 0 
L 684 0 
L 684 794 
z
" transform="scale(0.015625)"/>
      <path id="DejaVuSans-39" d="M 703 97 
L 703 672 
Q 941 559 1184 500 
Q 1428 441 1663 441 
Q 2288 441 2617 861 
Q 2947 1281 2994 2138 
Q 2813 1869 2534 1725 
Q 2256 1581 1919 1581 
Q 1219 1581 811 2004 
Q 403 2428 403 3163 
Q 403 3881 828 4315 
Q 1253 4750 1959 4750 
Q 2769 4750 3195 4129 
Q 3622 3509 3622 2328 
Q 3622 1225 3098 567 
Q 2575 -91 1691 -91 
Q 1453 -91 1209 -44 
Q 966 3 703 97 
z
M 1959 2075 
Q 2384 2075 2632 2365 
Q 2881 2656 2881 3163 
Q 2881 3666 2632 3958 
Q 2384 4250 1959 4250 
Q 1534 4250 1286 3958 
Q 1038 3666 1038 3163 
Q 1038 2656 1286 2365 
Q 1534 2075 1959 2075 
z
" transform="scale(0.015625)"/>
      <path id="DejaVuSans-38" d="M 2034 2216 
Q 1584 2216 1326 1975 
Q 1069 1734 1069 1313 
Q 1069 891 1326 650 
Q 1584 409 2034 409 
Q 2484 409 2743 651 
Q 3003 894 3003 1313 
Q 3003 1734 2745 1975 
Q 2488 2216 2034 2216 
z
M 1403 2484 
Q 997 2584 770 2862 
Q 544 3141 544 3541 
Q 544 4100 942 4425 
Q 1341 4750 2034 4750 
Q 2731 4750 3128 4425 
Q 3525 4100 3525 3541 
Q 3525 3141 3298 2862 
Q 3072 2584 2669 2484 
Q 3125 2378 3379 2068 
Q 3634 1759 3634 1313 
Q 3634 634 3220 271 
Q 2806 -91 2034 -91 
Q 1263 -91 848 271 
Q 434 634 434 1313 
Q 434 1759 690 2068 
Q 947 2378 1403 2484 
z
M 1172 3481 
Q 1172 3119 1398 2916 
Q 1625 2713 2034 2713 
Q 2441 2713 2670 2916 
Q 2900 3119 2900 3481 
Q 2900 3844 2670 4047 
Q 2441 4250 2034 4250 
Q 1625 4250 1398 4047 
Q 1172 3844 1172 3481 
z
" transform="scale(0.015625)"/>
      <path id="DejaVuSans-33" d="M 2597 2516 
Q 3050 2419 3304 2112 
Q 3559 1806 3559 1356 
Q 3559 666 3084 287 
Q 2609 -91 1734 -91 
Q 1441 -91 1130 -33 
Q 819 25 488 141 
L 488 750 
Q 750 597 1062 519 
Q 1375 441 1716 441 
Q 2309 441 2620 675 
Q 2931 909 2931 1356 
Q 2931 1769 2642 2001 
Q 2353 2234 1838 2234 
L 1294 2234 
L 1294 2753 
L 1863 2753 
Q 2328 2753 2575 2939 
Q 2822 3125 2822 3475 
Q 2822 3834 2567 4026 
Q 2313 4219 1838 4219 
Q 1578 4219 1281 4162 
Q 984 4106 628 3988 
L 628 4550 
Q 988 4650 1302 4700 
Q 1616 4750 1894 4750 
Q 2613 4750 3031 4423 
Q 3450 4097 3450 3541 
Q 3450 3153 3228 2886 
Q 3006 2619 2597 2516 
z
" transform="scale(0.015625)"/>
     </defs>
     <use xlink:href="#DejaVuSans-41"/>
     <use xlink:href="#DejaVuSans-52" x="68.408203"/>
     <use xlink:href="#DejaVuSans-49" x="137.890625"/>
     <use xlink:href="#DejaVuSans-4d" x="167.382812"/>
     <use xlink:href="#DejaVuSans-41" x="253.662109"/>
     <use xlink:href="#DejaVuSans-20" x="322.070312"/>
     <use xlink:href="#DejaVuSans-28" x="353.857422"/>
     <use xlink:href="#DejaVuSans-34" x="392.871094"/>
     <use xlink:href="#DejaVuSans-2c" x="456.494141"/>
     <use xlink:href="#DejaVuSans-20" x="488.28125"/>
     <use xlink:href="#DejaVuSans-31" x="520.068359"/>
     <use xlink:href="#DejaVuSans-2c" x="583.691406"/>
     <use xlink:href="#DejaVuSans-20" x="615.478516"/>
     <use xlink:href="#DejaVuSans-31" x="647.265625"/>
     <use xlink:href="#DejaVuSans-29" x="710.888672"/>
     <use xlink:href="#DejaVuSans-78" x="749.902344"/>
     <use xlink:href="#DejaVuSans-28" x="809.082031"/>
     <use xlink:href="#DejaVuSans-31" x="848.095703"/>
     <use xlink:href="#DejaVuSans-2c" x="911.71875"/>
     <use xlink:href="#DejaVuSans-20" x="943.505859"/>
     <use xlink:href="#DejaVuSans-30" x="975.292969"/>
     <use xlink:href="#DejaVuSans-2c" x="1038.916016"/>
     <use xlink:href="#DejaVuSans-20" x="1070.703125"/>
     <use xlink:href="#DejaVuSans-31" x="1102.490234"/>
     <use xlink:href="#DejaVuSans-2c" x="1166.113281"/>
     <use xlink:href="#DejaVuSans-20" x="1197.900391"/>
     <use xlink:href="#DejaVuSans-37" x="1229.6875"/>
     <use xlink:href="#DejaVuSans-29" x="1293.310547"/>
     <use xlink:href="#DejaVuSans-20" x="1332.324219"/>
     <use xlink:href="#DejaVuSans-28" x="1364.111328"/>
     <use xlink:href="#DejaVuSans-52" x="1403.125"/>
     <use xlink:href="#DejaVuSans-32" x="1472.607422"/>
     <use xlink:href="#DejaVuSans-20" x="1536.230469"/>
     <use xlink:href="#DejaVuSans-3d" x="1568.017578"/>
     <use xlink:href="#DejaVuSans-20" x="1651.806641"/>
     <use xlink:href="#DejaVuSans-30" x="1683.59375"/>
     <use xlink:href="#DejaVuSans-2e" x="1747.216797"/>
     <use xlink:href="#DejaVuSans-39" x="1779.003906"/>
     <use xlink:href="#DejaVuSans-31" x="1842.626953"/>
     <use xlink:href="#DejaVuSans-38" x="1906.25"/>
     <use xlink:href="#DejaVuSans-31" x="1969.873047"/>
     <use xlink:href="#DejaVuSans-33" x="2033.496094"/>
     <use xlink:href="#DejaVuSans-31" x="2097.119141"/>
     <use xlink:href="#DejaVuSans-29" x="2160.742188"/>
    </g>
   </g>
   <g id="legend_1">
    <g id="patch_7">
     <path d="M 1281.132812 87.789875 
L 1378.2125 87.789875 
Q 1380.2125 87.789875 1380.2125 85.789875 
L 1380.2125 42.7555 
Q 1380.2125 40.7555 1378.2125 40.7555 
L 1281.132812 40.7555 
Q 1279.132812 40.7555 1279.132812 42.7555 
L 1279.132812 85.789875 
Q 1279.132812 87.789875 1281.132812 87.789875 
z
" style="fill: #ffffff; opacity: 0.8; stroke: #cccccc; stroke-linejoin: miter"/>
    </g>
    <g id="line2d_21">
     <path d="M 1283.132812 48.853937 
L 1293.132812 48.853937 
L 1303.132812 48.853937 
" style="fill: none; stroke: #0000ff; stroke-width: 1.5; stroke-linecap: square"/>
    </g>
    <g id="text_19">
     <!-- Actual Value -->
     <g transform="translate(1311.132812 52.353937)scale(0.1 -0.1)">
      <defs>
       <path id="DejaVuSans-75" d="M 544 1381 
L 544 3500 
L 1119 3500 
L 1119 1403 
Q 1119 906 1312 657 
Q 1506 409 1894 409 
Q 2359 409 2629 706 
Q 2900 1003 2900 1516 
L 2900 3500 
L 3475 3500 
L 3475 0 
L 2900 0 
L 2900 538 
Q 2691 219 2414 64 
Q 2138 -91 1772 -91 
Q 1169 -91 856 284 
Q 544 659 544 1381 
z
M 1991 3584 
L 1991 3584 
z
" transform="scale(0.015625)"/>
       <path id="DejaVuSans-56" d="M 1831 0 
L 50 4666 
L 709 4666 
L 2188 738 
L 3669 4666 
L 4325 4666 
L 2547 0 
L 1831 0 
z
" transform="scale(0.015625)"/>
      </defs>
      <use xlink:href="#DejaVuSans-41"/>
      <use xlink:href="#DejaVuSans-63" x="66.658203"/>
      <use xlink:href="#DejaVuSans-74" x="121.638672"/>
      <use xlink:href="#DejaVuSans-75" x="160.847656"/>
      <use xlink:href="#DejaVuSans-61" x="224.226562"/>
      <use xlink:href="#DejaVuSans-6c" x="285.505859"/>
      <use xlink:href="#DejaVuSans-20" x="313.289062"/>
      <use xlink:href="#DejaVuSans-56" x="345.076172"/>
      <use xlink:href="#DejaVuSans-61" x="405.734375"/>
      <use xlink:href="#DejaVuSans-6c" x="467.013672"/>
      <use xlink:href="#DejaVuSans-75" x="494.796875"/>
      <use xlink:href="#DejaVuSans-65" x="558.175781"/>
     </g>
    </g>
    <g id="line2d_22">
     <path d="M 1283.132812 63.532062 
L 1293.132812 63.532062 
L 1303.132812 63.532062 
" style="fill: none; stroke: #ffa500; stroke-width: 1.5; stroke-linecap: square"/>
    </g>
    <g id="text_20">
     <!-- Check Value -->
     <g transform="translate(1311.132812 67.032062)scale(0.1 -0.1)">
      <defs>
       <path id="DejaVuSans-68" d="M 3513 2113 
L 3513 0 
L 2938 0 
L 2938 2094 
Q 2938 2591 2744 2837 
Q 2550 3084 2163 3084 
Q 1697 3084 1428 2787 
Q 1159 2491 1159 1978 
L 1159 0 
L 581 0 
L 581 4863 
L 1159 4863 
L 1159 2956 
Q 1366 3272 1645 3428 
Q 1925 3584 2291 3584 
Q 2894 3584 3203 3211 
Q 3513 2838 3513 2113 
z
" transform="scale(0.015625)"/>
       <path id="DejaVuSans-6b" d="M 581 4863 
L 1159 4863 
L 1159 1991 
L 2875 3500 
L 3609 3500 
L 1753 1863 
L 3688 0 
L 2938 0 
L 1159 1709 
L 1159 0 
L 581 0 
L 581 4863 
z
" transform="scale(0.015625)"/>
      </defs>
      <use xlink:href="#DejaVuSans-43"/>
      <use xlink:href="#DejaVuSans-68" x="69.824219"/>
      <use xlink:href="#DejaVuSans-65" x="133.203125"/>
      <use xlink:href="#DejaVuSans-63" x="194.726562"/>
      <use xlink:href="#DejaVuSans-6b" x="249.707031"/>
      <use xlink:href="#DejaVuSans-20" x="307.617188"/>
      <use xlink:href="#DejaVuSans-56" x="339.404297"/>
      <use xlink:href="#DejaVuSans-61" x="400.0625"/>
      <use xlink:href="#DejaVuSans-6c" x="461.341797"/>
      <use xlink:href="#DejaVuSans-75" x="489.125"/>
      <use xlink:href="#DejaVuSans-65" x="552.503906"/>
     </g>
    </g>
    <g id="line2d_23">
     <path d="M 1283.132812 78.210187 
L 1293.132812 78.210187 
L 1303.132812 78.210187 
" style="fill: none; stroke: #ff0000; stroke-width: 1.5; stroke-linecap: square"/>
    </g>
    <g id="text_21">
     <!-- Predict Value -->
     <g transform="translate(1311.132812 81.710187)scale(0.1 -0.1)">
      <defs>
       <path id="DejaVuSans-50" d="M 1259 4147 
L 1259 2394 
L 2053 2394 
Q 2494 2394 2734 2622 
Q 2975 2850 2975 3272 
Q 2975 3691 2734 3919 
Q 2494 4147 2053 4147 
L 1259 4147 
z
M 628 4666 
L 2053 4666 
Q 2838 4666 3239 4311 
Q 3641 3956 3641 3272 
Q 3641 2581 3239 2228 
Q 2838 1875 2053 1875 
L 1259 1875 
L 1259 0 
L 628 0 
L 628 4666 
z
" transform="scale(0.015625)"/>
      </defs>
      <use xlink:href="#DejaVuSans-50"/>
      <use xlink:href="#DejaVuSans-72" x="58.552734"/>
      <use xlink:href="#DejaVuSans-65" x="97.416016"/>
      <use xlink:href="#DejaVuSans-64" x="158.939453"/>
      <use xlink:href="#DejaVuSans-69" x="222.416016"/>
      <use xlink:href="#DejaVuSans-63" x="250.199219"/>
      <use xlink:href="#DejaVuSans-74" x="305.179688"/>
      <use xlink:href="#DejaVuSans-20" x="344.388672"/>
      <use xlink:href="#DejaVuSans-56" x="376.175781"/>
      <use xlink:href="#DejaVuSans-61" x="436.833984"/>
      <use xlink:href="#DejaVuSans-6c" x="498.113281"/>
      <use xlink:href="#DejaVuSans-75" x="525.896484"/>
      <use xlink:href="#DejaVuSans-65" x="589.275391"/>
     </g>
    </g>
   </g>
  </g>
 </g>
 <defs>
  <clipPath id="pc512988dc4">
   <rect x="46.0125" y="35.7555" width="1339.2" height="332.64"/>
  </clipPath>
 </defs>
</svg>
