<?xml version="1.0" encoding="utf-8" standalone="no"?>
<!DOCTYPE svg PUBLIC "-//W3C//DTD SVG 1.1//EN"
  "http://www.w3.org/Graphics/SVG/1.1/DTD/svg11.dtd">
<svg xmlns:xlink="http://www.w3.org/1999/xlink" width="1398.775pt" height="392.273625pt" viewBox="0 0 1398.775 392.273625" xmlns="http://www.w3.org/2000/svg" version="1.1">
 <metadata>
  <rdf:RDF xmlns:dc="http://purl.org/dc/elements/1.1/" xmlns:cc="http://creativecommons.org/ns#" xmlns:rdf="http://www.w3.org/1999/02/22-rdf-syntax-ns#">
   <cc:Work>
    <dc:type rdf:resource="http://purl.org/dc/dcmitype/StillImage"/>
    <dc:date>2022-10-17T19:35:33.494668</dc:date>
    <dc:format>image/svg+xml</dc:format>
    <dc:creator>
     <cc:Agent>
      <dc:title>Matplotlib v3.5.1, https://matplotlib.org/</dc:title>
     </cc:Agent>
    </dc:creator>
   </cc:Work>
  </rdf:RDF>
 </metadata>
 <defs>
  <style type="text/css">*{stroke-linejoin: round; stroke-linecap: butt}</style>
 </defs>
 <g id="figure_1">
  <g id="patch_1">
   <path d="M 0 392.273625 
L 1398.775 392.273625 
L 1398.775 0 
L 0 0 
z
" style="fill: #ffffff"/>
  </g>
  <g id="axes_1">
   <g id="patch_2">
    <path d="M 52.375 368.3955 
L 1391.575 368.3955 
L 1391.575 35.7555 
L 52.375 35.7555 
z
" style="fill: #ffffff"/>
   </g>
   <g id="matplotlib.axis_1">
    <g id="xtick_1">
     <g id="line2d_1">
      <defs>
       <path id="mc7ceb37065" d="M 0 0 
L 0 3.5 
" style="stroke: #000000; stroke-width: 0.8"/>
      </defs>
      <g>
       <use xlink:href="#mc7ceb37065" x="86.755146" y="368.3955" style="stroke: #000000; stroke-width: 0.8"/>
      </g>
     </g>
     <g id="text_1">
      <!-- 2020-01 -->
      <g transform="translate(65.863739 382.993937)scale(0.1 -0.1)">
       <defs>
        <path id="DejaVuSans-32" d="M 1228 531 
L 3431 531 
L 3431 0 
L 469 0 
L 469 531 
Q 828 903 1448 1529 
Q 2069 2156 2228 2338 
Q 2531 2678 2651 2914 
Q 2772 3150 2772 3378 
Q 2772 3750 2511 3984 
Q 2250 4219 1831 4219 
Q 1534 4219 1204 4116 
Q 875 4013 500 3803 
L 500 4441 
Q 881 4594 1212 4672 
Q 1544 4750 1819 4750 
Q 2544 4750 2975 4387 
Q 3406 4025 3406 3419 
Q 3406 3131 3298 2873 
Q 3191 2616 2906 2266 
Q 2828 2175 2409 1742 
Q 1991 1309 1228 531 
z
" transform="scale(0.015625)"/>
        <path id="DejaVuSans-30" d="M 2034 4250 
Q 1547 4250 1301 3770 
Q 1056 3291 1056 2328 
Q 1056 1369 1301 889 
Q 1547 409 2034 409 
Q 2525 409 2770 889 
Q 3016 1369 3016 2328 
Q 3016 3291 2770 3770 
Q 2525 4250 2034 4250 
z
M 2034 4750 
Q 2819 4750 3233 4129 
Q 3647 3509 3647 2328 
Q 3647 1150 3233 529 
Q 2819 -91 2034 -91 
Q 1250 -91 836 529 
Q 422 1150 422 2328 
Q 422 3509 836 4129 
Q 1250 4750 2034 4750 
z
" transform="scale(0.015625)"/>
        <path id="DejaVuSans-2d" d="M 313 2009 
L 1997 2009 
L 1997 1497 
L 313 1497 
L 313 2009 
z
" transform="scale(0.015625)"/>
        <path id="DejaVuSans-31" d="M 794 531 
L 1825 531 
L 1825 4091 
L 703 3866 
L 703 4441 
L 1819 4666 
L 2450 4666 
L 2450 531 
L 3481 531 
L 3481 0 
L 794 0 
L 794 531 
z
" transform="scale(0.015625)"/>
       </defs>
       <use xlink:href="#DejaVuSans-32"/>
       <use xlink:href="#DejaVuSans-30" x="63.623047"/>
       <use xlink:href="#DejaVuSans-32" x="127.246094"/>
       <use xlink:href="#DejaVuSans-30" x="190.869141"/>
       <use xlink:href="#DejaVuSans-2d" x="254.492188"/>
       <use xlink:href="#DejaVuSans-30" x="290.576172"/>
       <use xlink:href="#DejaVuSans-31" x="354.199219"/>
      </g>
     </g>
    </g>
    <g id="xtick_2">
     <g id="line2d_2">
      <g>
       <use xlink:href="#mc7ceb37065" x="232.464344" y="368.3955" style="stroke: #000000; stroke-width: 0.8"/>
      </g>
     </g>
     <g id="text_2">
      <!-- 2020-05 -->
      <g transform="translate(211.572938 382.993937)scale(0.1 -0.1)">
       <defs>
        <path id="DejaVuSans-35" d="M 691 4666 
L 3169 4666 
L 3169 4134 
L 1269 4134 
L 1269 2991 
Q 1406 3038 1543 3061 
Q 1681 3084 1819 3084 
Q 2600 3084 3056 2656 
Q 3513 2228 3513 1497 
Q 3513 744 3044 326 
Q 2575 -91 1722 -91 
Q 1428 -91 1123 -41 
Q 819 9 494 109 
L 494 744 
Q 775 591 1075 516 
Q 1375 441 1709 441 
Q 2250 441 2565 725 
Q 2881 1009 2881 1497 
Q 2881 1984 2565 2268 
Q 2250 2553 1709 2553 
Q 1456 2553 1204 2497 
Q 953 2441 691 2322 
L 691 4666 
z
" transform="scale(0.015625)"/>
       </defs>
       <use xlink:href="#DejaVuSans-32"/>
       <use xlink:href="#DejaVuSans-30" x="63.623047"/>
       <use xlink:href="#DejaVuSans-32" x="127.246094"/>
       <use xlink:href="#DejaVuSans-30" x="190.869141"/>
       <use xlink:href="#DejaVuSans-2d" x="254.492188"/>
       <use xlink:href="#DejaVuSans-30" x="290.576172"/>
       <use xlink:href="#DejaVuSans-35" x="354.199219"/>
      </g>
     </g>
    </g>
    <g id="xtick_3">
     <g id="line2d_3">
      <g>
       <use xlink:href="#mc7ceb37065" x="380.58196" y="368.3955" style="stroke: #000000; stroke-width: 0.8"/>
      </g>
     </g>
     <g id="text_3">
      <!-- 2020-09 -->
      <g transform="translate(359.690554 382.993937)scale(0.1 -0.1)">
       <defs>
        <path id="DejaVuSans-39" d="M 703 97 
L 703 672 
Q 941 559 1184 500 
Q 1428 441 1663 441 
Q 2288 441 2617 861 
Q 2947 1281 2994 2138 
Q 2813 1869 2534 1725 
Q 2256 1581 1919 1581 
Q 1219 1581 811 2004 
Q 403 2428 403 3163 
Q 403 3881 828 4315 
Q 1253 4750 1959 4750 
Q 2769 4750 3195 4129 
Q 3622 3509 3622 2328 
Q 3622 1225 3098 567 
Q 2575 -91 1691 -91 
Q 1453 -91 1209 -44 
Q 966 3 703 97 
z
M 1959 2075 
Q 2384 2075 2632 2365 
Q 2881 2656 2881 3163 
Q 2881 3666 2632 3958 
Q 2384 4250 1959 4250 
Q 1534 4250 1286 3958 
Q 1038 3666 1038 3163 
Q 1038 2656 1286 2365 
Q 1534 2075 1959 2075 
z
" transform="scale(0.015625)"/>
       </defs>
       <use xlink:href="#DejaVuSans-32"/>
       <use xlink:href="#DejaVuSans-30" x="63.623047"/>
       <use xlink:href="#DejaVuSans-32" x="127.246094"/>
       <use xlink:href="#DejaVuSans-30" x="190.869141"/>
       <use xlink:href="#DejaVuSans-2d" x="254.492188"/>
       <use xlink:href="#DejaVuSans-30" x="290.576172"/>
       <use xlink:href="#DejaVuSans-39" x="354.199219"/>
      </g>
     </g>
    </g>
    <g id="xtick_4">
     <g id="line2d_4">
      <g>
       <use xlink:href="#mc7ceb37065" x="527.495367" y="368.3955" style="stroke: #000000; stroke-width: 0.8"/>
      </g>
     </g>
     <g id="text_4">
      <!-- 2021-01 -->
      <g transform="translate(506.603961 382.993937)scale(0.1 -0.1)">
       <use xlink:href="#DejaVuSans-32"/>
       <use xlink:href="#DejaVuSans-30" x="63.623047"/>
       <use xlink:href="#DejaVuSans-32" x="127.246094"/>
       <use xlink:href="#DejaVuSans-31" x="190.869141"/>
       <use xlink:href="#DejaVuSans-2d" x="254.492188"/>
       <use xlink:href="#DejaVuSans-30" x="290.576172"/>
       <use xlink:href="#DejaVuSans-31" x="354.199219"/>
      </g>
     </g>
    </g>
    <g id="xtick_5">
     <g id="line2d_5">
      <g>
       <use xlink:href="#mc7ceb37065" x="672.000357" y="368.3955" style="stroke: #000000; stroke-width: 0.8"/>
      </g>
     </g>
     <g id="text_5">
      <!-- 2021-05 -->
      <g transform="translate(651.108951 382.993937)scale(0.1 -0.1)">
       <use xlink:href="#DejaVuSans-32"/>
       <use xlink:href="#DejaVuSans-30" x="63.623047"/>
       <use xlink:href="#DejaVuSans-32" x="127.246094"/>
       <use xlink:href="#DejaVuSans-31" x="190.869141"/>
       <use xlink:href="#DejaVuSans-2d" x="254.492188"/>
       <use xlink:href="#DejaVuSans-30" x="290.576172"/>
       <use xlink:href="#DejaVuSans-35" x="354.199219"/>
      </g>
     </g>
    </g>
    <g id="xtick_6">
     <g id="line2d_6">
      <g>
       <use xlink:href="#mc7ceb37065" x="820.117973" y="368.3955" style="stroke: #000000; stroke-width: 0.8"/>
      </g>
     </g>
     <g id="text_6">
      <!-- 2021-09 -->
      <g transform="translate(799.226567 382.993937)scale(0.1 -0.1)">
       <use xlink:href="#DejaVuSans-32"/>
       <use xlink:href="#DejaVuSans-30" x="63.623047"/>
       <use xlink:href="#DejaVuSans-32" x="127.246094"/>
       <use xlink:href="#DejaVuSans-31" x="190.869141"/>
       <use xlink:href="#DejaVuSans-2d" x="254.492188"/>
       <use xlink:href="#DejaVuSans-30" x="290.576172"/>
       <use xlink:href="#DejaVuSans-39" x="354.199219"/>
      </g>
     </g>
    </g>
    <g id="xtick_7">
     <g id="line2d_7">
      <g>
       <use xlink:href="#mc7ceb37065" x="967.03138" y="368.3955" style="stroke: #000000; stroke-width: 0.8"/>
      </g>
     </g>
     <g id="text_7">
      <!-- 2022-01 -->
      <g transform="translate(946.139974 382.993937)scale(0.1 -0.1)">
       <use xlink:href="#DejaVuSans-32"/>
       <use xlink:href="#DejaVuSans-30" x="63.623047"/>
       <use xlink:href="#DejaVuSans-32" x="127.246094"/>
       <use xlink:href="#DejaVuSans-32" x="190.869141"/>
       <use xlink:href="#DejaVuSans-2d" x="254.492188"/>
       <use xlink:href="#DejaVuSans-30" x="290.576172"/>
       <use xlink:href="#DejaVuSans-31" x="354.199219"/>
      </g>
     </g>
    </g>
    <g id="xtick_8">
     <g id="line2d_8">
      <g>
       <use xlink:href="#mc7ceb37065" x="1111.53637" y="368.3955" style="stroke: #000000; stroke-width: 0.8"/>
      </g>
     </g>
     <g id="text_8">
      <!-- 2022-05 -->
      <g transform="translate(1090.644964 382.993937)scale(0.1 -0.1)">
       <use xlink:href="#DejaVuSans-32"/>
       <use xlink:href="#DejaVuSans-30" x="63.623047"/>
       <use xlink:href="#DejaVuSans-32" x="127.246094"/>
       <use xlink:href="#DejaVuSans-32" x="190.869141"/>
       <use xlink:href="#DejaVuSans-2d" x="254.492188"/>
       <use xlink:href="#DejaVuSans-30" x="290.576172"/>
       <use xlink:href="#DejaVuSans-35" x="354.199219"/>
      </g>
     </g>
    </g>
    <g id="xtick_9">
     <g id="line2d_9">
      <g>
       <use xlink:href="#mc7ceb37065" x="1259.653986" y="368.3955" style="stroke: #000000; stroke-width: 0.8"/>
      </g>
     </g>
     <g id="text_9">
      <!-- 2022-09 -->
      <g transform="translate(1238.762579 382.993937)scale(0.1 -0.1)">
       <use xlink:href="#DejaVuSans-32"/>
       <use xlink:href="#DejaVuSans-30" x="63.623047"/>
       <use xlink:href="#DejaVuSans-32" x="127.246094"/>
       <use xlink:href="#DejaVuSans-32" x="190.869141"/>
       <use xlink:href="#DejaVuSans-2d" x="254.492188"/>
       <use xlink:href="#DejaVuSans-30" x="290.576172"/>
       <use xlink:href="#DejaVuSans-39" x="354.199219"/>
      </g>
     </g>
    </g>
   </g>
   <g id="matplotlib.axis_2">
    <g id="ytick_1">
     <g id="line2d_10">
      <defs>
       <path id="mb004f9cc61" d="M 0 0 
L -3.5 0 
" style="stroke: #000000; stroke-width: 0.8"/>
      </defs>
      <g>
       <use xlink:href="#mb004f9cc61" x="52.375" y="346.370166" style="stroke: #000000; stroke-width: 0.8"/>
      </g>
     </g>
     <g id="text_10">
      <!-- 0 -->
      <g transform="translate(39.0125 350.169385)scale(0.1 -0.1)">
       <use xlink:href="#DejaVuSans-30"/>
      </g>
     </g>
    </g>
    <g id="ytick_2">
     <g id="line2d_11">
      <g>
       <use xlink:href="#mb004f9cc61" x="52.375" y="303.848359" style="stroke: #000000; stroke-width: 0.8"/>
      </g>
     </g>
     <g id="text_11">
      <!-- 20000 -->
      <g transform="translate(13.5625 307.647578)scale(0.1 -0.1)">
       <use xlink:href="#DejaVuSans-32"/>
       <use xlink:href="#DejaVuSans-30" x="63.623047"/>
       <use xlink:href="#DejaVuSans-30" x="127.246094"/>
       <use xlink:href="#DejaVuSans-30" x="190.869141"/>
       <use xlink:href="#DejaVuSans-30" x="254.492188"/>
      </g>
     </g>
    </g>
    <g id="ytick_3">
     <g id="line2d_12">
      <g>
       <use xlink:href="#mb004f9cc61" x="52.375" y="261.326553" style="stroke: #000000; stroke-width: 0.8"/>
      </g>
     </g>
     <g id="text_12">
      <!-- 40000 -->
      <g transform="translate(13.5625 265.125771)scale(0.1 -0.1)">
       <defs>
        <path id="DejaVuSans-34" d="M 2419 4116 
L 825 1625 
L 2419 1625 
L 2419 4116 
z
M 2253 4666 
L 3047 4666 
L 3047 1625 
L 3713 1625 
L 3713 1100 
L 3047 1100 
L 3047 0 
L 2419 0 
L 2419 1100 
L 313 1100 
L 313 1709 
L 2253 4666 
z
" transform="scale(0.015625)"/>
       </defs>
       <use xlink:href="#DejaVuSans-34"/>
       <use xlink:href="#DejaVuSans-30" x="63.623047"/>
       <use xlink:href="#DejaVuSans-30" x="127.246094"/>
       <use xlink:href="#DejaVuSans-30" x="190.869141"/>
       <use xlink:href="#DejaVuSans-30" x="254.492188"/>
      </g>
     </g>
    </g>
    <g id="ytick_4">
     <g id="line2d_13">
      <g>
       <use xlink:href="#mb004f9cc61" x="52.375" y="218.804746" style="stroke: #000000; stroke-width: 0.8"/>
      </g>
     </g>
     <g id="text_13">
      <!-- 60000 -->
      <g transform="translate(13.5625 222.603964)scale(0.1 -0.1)">
       <defs>
        <path id="DejaVuSans-36" d="M 2113 2584 
Q 1688 2584 1439 2293 
Q 1191 2003 1191 1497 
Q 1191 994 1439 701 
Q 1688 409 2113 409 
Q 2538 409 2786 701 
Q 3034 994 3034 1497 
Q 3034 2003 2786 2293 
Q 2538 2584 2113 2584 
z
M 3366 4563 
L 3366 3988 
Q 3128 4100 2886 4159 
Q 2644 4219 2406 4219 
Q 1781 4219 1451 3797 
Q 1122 3375 1075 2522 
Q 1259 2794 1537 2939 
Q 1816 3084 2150 3084 
Q 2853 3084 3261 2657 
Q 3669 2231 3669 1497 
Q 3669 778 3244 343 
Q 2819 -91 2113 -91 
Q 1303 -91 875 529 
Q 447 1150 447 2328 
Q 447 3434 972 4092 
Q 1497 4750 2381 4750 
Q 2619 4750 2861 4703 
Q 3103 4656 3366 4563 
z
" transform="scale(0.015625)"/>
       </defs>
       <use xlink:href="#DejaVuSans-36"/>
       <use xlink:href="#DejaVuSans-30" x="63.623047"/>
       <use xlink:href="#DejaVuSans-30" x="127.246094"/>
       <use xlink:href="#DejaVuSans-30" x="190.869141"/>
       <use xlink:href="#DejaVuSans-30" x="254.492188"/>
      </g>
     </g>
    </g>
    <g id="ytick_5">
     <g id="line2d_14">
      <g>
       <use xlink:href="#mb004f9cc61" x="52.375" y="176.282939" style="stroke: #000000; stroke-width: 0.8"/>
      </g>
     </g>
     <g id="text_14">
      <!-- 80000 -->
      <g transform="translate(13.5625 180.082158)scale(0.1 -0.1)">
       <defs>
        <path id="DejaVuSans-38" d="M 2034 2216 
Q 1584 2216 1326 1975 
Q 1069 1734 1069 1313 
Q 1069 891 1326 650 
Q 1584 409 2034 409 
Q 2484 409 2743 651 
Q 3003 894 3003 1313 
Q 3003 1734 2745 1975 
Q 2488 2216 2034 2216 
z
M 1403 2484 
Q 997 2584 770 2862 
Q 544 3141 544 3541 
Q 544 4100 942 4425 
Q 1341 4750 2034 4750 
Q 2731 4750 3128 4425 
Q 3525 4100 3525 3541 
Q 3525 3141 3298 2862 
Q 3072 2584 2669 2484 
Q 3125 2378 3379 2068 
Q 3634 1759 3634 1313 
Q 3634 634 3220 271 
Q 2806 -91 2034 -91 
Q 1263 -91 848 271 
Q 434 634 434 1313 
Q 434 1759 690 2068 
Q 947 2378 1403 2484 
z
M 1172 3481 
Q 1172 3119 1398 2916 
Q 1625 2713 2034 2713 
Q 2441 2713 2670 2916 
Q 2900 3119 2900 3481 
Q 2900 3844 2670 4047 
Q 2441 4250 2034 4250 
Q 1625 4250 1398 4047 
Q 1172 3844 1172 3481 
z
" transform="scale(0.015625)"/>
       </defs>
       <use xlink:href="#DejaVuSans-38"/>
       <use xlink:href="#DejaVuSans-30" x="63.623047"/>
       <use xlink:href="#DejaVuSans-30" x="127.246094"/>
       <use xlink:href="#DejaVuSans-30" x="190.869141"/>
       <use xlink:href="#DejaVuSans-30" x="254.492188"/>
      </g>
     </g>
    </g>
    <g id="ytick_6">
     <g id="line2d_15">
      <g>
       <use xlink:href="#mb004f9cc61" x="52.375" y="133.761132" style="stroke: #000000; stroke-width: 0.8"/>
      </g>
     </g>
     <g id="text_15">
      <!-- 100000 -->
      <g transform="translate(7.2 137.560351)scale(0.1 -0.1)">
       <use xlink:href="#DejaVuSans-31"/>
       <use xlink:href="#DejaVuSans-30" x="63.623047"/>
       <use xlink:href="#DejaVuSans-30" x="127.246094"/>
       <use xlink:href="#DejaVuSans-30" x="190.869141"/>
       <use xlink:href="#DejaVuSans-30" x="254.492188"/>
       <use xlink:href="#DejaVuSans-30" x="318.115234"/>
      </g>
     </g>
    </g>
    <g id="ytick_7">
     <g id="line2d_16">
      <g>
       <use xlink:href="#mb004f9cc61" x="52.375" y="91.239325" style="stroke: #000000; stroke-width: 0.8"/>
      </g>
     </g>
     <g id="text_16">
      <!-- 120000 -->
      <g transform="translate(7.2 95.038544)scale(0.1 -0.1)">
       <use xlink:href="#DejaVuSans-31"/>
       <use xlink:href="#DejaVuSans-32" x="63.623047"/>
       <use xlink:href="#DejaVuSans-30" x="127.246094"/>
       <use xlink:href="#DejaVuSans-30" x="190.869141"/>
       <use xlink:href="#DejaVuSans-30" x="254.492188"/>
       <use xlink:href="#DejaVuSans-30" x="318.115234"/>
      </g>
     </g>
    </g>
    <g id="ytick_8">
     <g id="line2d_17">
      <g>
       <use xlink:href="#mb004f9cc61" x="52.375" y="48.717518" style="stroke: #000000; stroke-width: 0.8"/>
      </g>
     </g>
     <g id="text_17">
      <!-- 140000 -->
      <g transform="translate(7.2 52.516737)scale(0.1 -0.1)">
       <use xlink:href="#DejaVuSans-31"/>
       <use xlink:href="#DejaVuSans-34" x="63.623047"/>
       <use xlink:href="#DejaVuSans-30" x="127.246094"/>
       <use xlink:href="#DejaVuSans-30" x="190.869141"/>
       <use xlink:href="#DejaVuSans-30" x="254.492188"/>
       <use xlink:href="#DejaVuSans-30" x="318.115234"/>
      </g>
     </g>
    </g>
   </g>
   <g id="line2d_18">
    <path d="M 113.247727 346.370166 
L 163.824474 346.317014 
L 165.028682 346.244727 
L 167.437099 346.272366 
L 168.641307 346.155431 
L 169.845515 346.161809 
L 171.049723 345.953452 
L 174.662348 346.219214 
L 177.070765 346.193701 
L 181.887598 345.98747 
L 184.296014 346.119288 
L 187.908639 345.702574 
L 189.112847 345.762104 
L 190.317056 345.594143 
L 192.725472 345.774861 
L 193.92968 345.485713 
L 198.746513 345.092386 
L 199.950722 345.611152 
L 201.15493 345.647295 
L 202.359138 345.543117 
L 203.563346 344.801112 
L 204.767555 344.977577 
L 205.971763 344.998838 
L 207.175971 345.404921 
L 208.380179 345.530361 
L 209.584388 345.38366 
L 210.788596 345.441065 
L 211.992804 345.351769 
L 213.197012 345.086008 
L 215.605429 344.907416 
L 218.013845 345.545243 
L 219.218054 345.390039 
L 220.422262 344.86702 
L 224.034887 344.713942 
L 225.239095 345.364525 
L 226.443303 345.732339 
L 227.647511 345.173177 
L 228.85172 344.792607 
L 230.055928 344.673546 
L 231.260136 345.020099 
L 232.464344 345.239086 
L 233.668553 345.734465 
L 234.872761 345.815257 
L 237.281178 344.973325 
L 239.689594 344.696933 
L 240.893802 344.881903 
L 243.302219 345.779113 
L 244.506427 345.402795 
L 245.710635 344.767094 
L 248.119052 344.966947 
L 249.32326 344.907416 
L 250.527468 345.609026 
L 251.731677 345.819509 
L 252.935885 345.453821 
L 254.140093 344.952064 
L 255.344301 344.652285 
L 256.54851 345.073251 
L 258.956926 345.513352 
L 260.161134 345.923687 
L 262.569551 344.784103 
L 263.773759 344.669294 
L 266.182176 344.726698 
L 267.386384 345.451695 
L 268.590592 345.806752 
L 269.7948 344.99246 
L 270.999009 344.454559 
L 272.203217 344.146276 
L 273.407425 344.161158 
L 274.611633 343.933667 
L 277.02005 345.387912 
L 279.428466 344.380146 
L 280.632675 343.314974 
L 281.836883 343.619005 
L 283.041091 343.527583 
L 284.245299 344.15478 
L 285.449508 345.48146 
L 286.653716 344.91592 
L 287.857924 343.780588 
L 289.062132 343.272453 
L 290.266341 343.189535 
L 291.470549 343.791219 
L 292.674757 344.877651 
L 293.878965 345.687691 
L 297.49159 342.760065 
L 298.695798 343.646644 
L 299.900007 343.81248 
L 301.104215 344.754338 
L 302.308423 345.477208 
L 303.512632 344.824499 
L 304.71684 344.658663 
L 305.921048 344.91592 
L 308.329465 344.884029 
L 309.533673 345.583513 
L 311.942089 345.836518 
L 313.146298 345.779113 
L 314.350506 345.228456 
L 315.554714 345.657926 
L 316.758922 345.56863 
L 317.963131 345.702574 
L 319.167339 346.144801 
L 320.371547 346.008731 
L 321.575755 345.700448 
L 326.392588 345.944948 
L 327.596797 346.136296 
L 328.801005 346.091648 
L 331.209421 345.738717 
L 332.41363 345.902426 
L 333.617838 345.813131 
L 336.026254 346.28087 
L 337.230463 346.219214 
L 338.434671 345.768483 
L 340.843087 345.728087 
L 342.047296 345.821635 
L 343.251504 345.725961 
L 344.455712 346.289375 
L 348.068337 345.466578 
L 351.680962 345.817383 
L 352.88517 346.214962 
L 354.089378 345.953452 
L 355.293586 345.483587 
L 356.497795 345.426182 
L 357.702003 345.600521 
L 358.906211 345.638791 
L 361.314628 346.236223 
L 364.927252 345.623908 
L 367.335669 345.736591 
L 369.744086 346.248979 
L 370.948294 345.983218 
L 373.35671 345.847148 
L 375.765127 346.370166 
L 378.173543 346.370166 
L 379.377752 345.475082 
L 380.58196 346.068261 
L 381.786168 346.346779 
L 382.990376 345.951326 
L 384.194585 345.825887 
L 385.398793 346.370166 
L 386.603001 346.370166 
L 387.807209 345.151916 
L 389.011418 346.053379 
L 390.215626 346.002353 
L 391.419834 345.702574 
L 392.624042 345.708952 
L 393.828251 346.370166 
L 396.236667 346.370166 
L 397.440875 344.58425 
L 398.645084 345.881165 
L 401.0535 345.621782 
L 402.257708 346.370166 
L 404.666125 346.370166 
L 405.870333 343.820984 
L 407.074541 345.689817 
L 408.27875 345.23696 
L 409.482958 345.022225 
L 410.687166 346.370166 
L 413.095583 346.370166 
L 414.299791 343.089609 
L 415.503999 345.526108 
L 416.708207 344.771346 
L 417.912416 344.949938 
L 419.116624 346.370166 
L 421.52504 346.370166 
L 422.729249 342.411386 
L 423.933457 345.239086 
L 425.137665 344.552359 
L 426.341873 344.416289 
L 427.546082 346.370166 
L 429.954498 346.370166 
L 431.158707 341.686389 
L 432.362915 344.928677 
L 433.567123 344.084619 
L 434.771331 344.684177 
L 435.97554 346.370166 
L 438.383956 346.370166 
L 439.588164 339.609199 
L 440.792373 344.297228 
L 441.996581 342.938656 
L 443.200789 342.915269 
L 444.404997 346.370166 
L 446.813414 346.370166 
L 448.017622 335.333631 
L 449.22183 341.845846 
L 450.426039 339.451868 
L 451.630247 339.59219 
L 452.834455 346.370166 
L 455.242872 346.370166 
L 456.44708 324.732945 
L 457.651288 339.570929 
L 458.855496 337.793518 
L 460.059705 336.38392 
L 461.263913 346.370166 
L 463.672329 346.370166 
L 464.876538 312.822587 
L 466.080746 336.872921 
L 467.284954 336.466837 
L 468.489162 333.634885 
L 469.693371 346.370166 
L 472.101787 346.370166 
L 473.305995 314.300219 
L 474.510204 337.850922 
L 475.714412 336.571016 
L 476.91862 330.977272 
L 478.122828 346.370166 
L 480.531245 346.370166 
L 481.735453 309.663216 
L 482.939661 335.837515 
L 485.348078 331.96803 
L 486.552286 346.370166 
L 488.960703 346.370166 
L 490.164911 308.88932 
L 491.369119 334.889278 
L 492.573327 332.58247 
L 493.777536 333.041706 
L 494.981744 346.370166 
L 497.390161 346.370166 
L 498.594369 306.357146 
L 499.798577 331.357842 
L 501.002785 329.499639 
L 502.206994 330.70088 
L 503.411202 346.370166 
L 505.819618 346.370166 
L 507.023827 301.868969 
L 508.228035 330.305428 
L 509.432243 327.488358 
L 510.636451 325.84489 
L 511.84066 346.370166 
L 514.249076 346.370166 
L 515.453284 298.917956 
L 516.657493 332.318835 
L 517.861701 346.370166 
L 522.678534 346.370166 
L 523.882742 277.304121 
L 525.08695 327.562771 
L 526.291159 346.370166 
L 531.107992 346.370166 
L 532.3122 277.550748 
L 533.516408 346.370166 
L 534.720616 319.717498 
L 535.924825 331.089955 
L 537.129033 346.370166 
L 539.537449 346.370166 
L 540.741658 309.386825 
L 541.945866 335.023222 
L 543.150074 332.380492 
L 544.354282 336.371163 
L 545.558491 346.370166 
L 547.966907 346.370166 
L 549.171115 325.579129 
L 550.375324 336.373289 
L 551.579532 335.771606 
L 552.78374 337.410821 
L 553.987948 346.370166 
L 556.396365 346.370166 
L 557.600573 326.973844 
L 558.804781 337.47673 
L 560.00899 337.685087 
L 561.213198 341.267549 
L 562.417406 346.370166 
L 564.825823 346.370166 
L 566.030031 325.85552 
L 567.234239 337.206717 
L 568.438448 338.380319 
L 569.642656 339.166972 
L 570.846864 346.370166 
L 573.255281 346.370166 
L 574.459489 329.123321 
L 575.663697 337.716979 
L 576.867905 337.157817 
L 578.072114 338.218736 
L 579.276322 346.370166 
L 581.684738 346.370166 
L 582.888947 326.261604 
L 584.093155 337.370426 
L 585.297363 335.909802 
L 586.501571 337.559648 
L 587.70578 346.370166 
L 590.114196 346.370166 
L 591.318404 323.12562 
L 592.522613 334.950935 
L 593.726821 335.750345 
L 594.931029 336.071385 
L 596.135237 346.370166 
L 598.543654 346.370166 
L 599.747862 321.273796 
L 600.95207 333.233054 
L 602.156279 336.084141 
L 603.360487 336.099024 
L 604.564695 346.370166 
L 606.973112 346.370166 
L 608.17732 322.953407 
L 609.381528 333.79009 
L 610.585736 335.101887 
L 611.789945 335.027474 
L 612.994153 346.370166 
L 615.402569 346.370166 
L 616.606778 319.237001 
L 617.810986 331.953148 
L 619.015194 332.62074 
L 620.219402 334.177038 
L 621.423611 346.370166 
L 623.832027 346.370166 
L 625.036236 316.470958 
L 626.240444 330.107701 
L 627.444652 329.986514 
L 628.64886 332.916267 
L 629.853069 346.370166 
L 632.261485 346.370166 
L 633.465693 311.44488 
L 634.669902 328.423838 
L 635.87411 328.712986 
L 637.078318 346.370166 
L 640.690943 346.370166 
L 641.895151 300.017145 
L 643.099359 331.882987 
L 644.303568 329.739888 
L 645.507776 329.846192 
L 646.711984 346.370166 
L 649.120401 346.370166 
L 650.324609 305.75121 
L 651.528817 327.49261 
L 652.733025 331.285555 
L 653.937234 330.088566 
L 655.141442 346.370166 
L 657.549858 346.370166 
L 658.754067 310.881466 
L 659.958275 330.403228 
L 661.162483 329.922731 
L 662.366691 333.045958 
L 663.5709 346.370166 
L 665.979316 346.370166 
L 667.183524 314.668033 
L 668.387733 330.921994 
L 669.591941 331.151612 
L 670.796149 333.770955 
L 672.000357 346.370166 
L 674.408774 346.370166 
L 675.612982 314.585116 
L 676.81719 331.400364 
L 678.021399 332.495301 
L 679.225607 334.313108 
L 680.429815 346.370166 
L 682.838232 346.370166 
L 684.04244 317.004606 
L 685.246648 332.912014 
L 686.450856 346.370166 
L 687.655065 326.827144 
L 688.859273 346.370166 
L 691.26769 346.370166 
L 692.471898 325.073119 
L 693.676106 336.549755 
L 694.880314 339.118072 
L 696.084523 339.634712 
L 697.288731 346.370166 
L 699.697147 346.370166 
L 700.901356 333.541337 
L 702.105564 340.561687 
L 704.51398 346.370166 
L 710.535022 346.370166 
L 711.73923 328.255876 
L 712.943438 344.097376 
L 714.147646 346.370166 
L 716.556063 346.370166 
L 717.760271 340.691379 
L 718.964479 343.893271 
L 720.168688 344.603385 
L 721.372896 344.824499 
L 722.577104 346.370166 
L 724.985521 346.370166 
L 726.189729 343.86138 
L 727.393937 346.370166 
L 733.414978 346.370166 
L 734.619187 339.188233 
L 735.823395 345.298617 
L 737.027603 345.566504 
L 738.231811 346.370166 
L 741.844436 346.370166 
L 743.048644 344.569368 
L 744.252853 345.845022 
L 745.457061 345.173177 
L 746.661269 345.674935 
L 747.865477 346.370166 
L 750.273894 346.370166 
L 751.478102 344.562989 
L 752.68231 345.619656 
L 753.886519 345.891796 
L 755.090727 345.876913 
L 756.294935 346.370166 
L 758.703352 346.370166 
L 759.90756 344.947812 
L 761.111768 345.589891 
L 763.520185 345.596269 
L 764.724393 346.370166 
L 767.13281 346.370166 
L 768.337018 344.261085 
L 769.541226 345.351769 
L 770.745434 345.130656 
L 771.949643 345.396417 
L 773.153851 346.370166 
L 775.562267 346.370166 
L 776.766476 343.489314 
L 777.970684 345.007342 
L 780.3791 345.039234 
L 781.583309 346.370166 
L 783.991725 346.370166 
L 785.195933 342.415638 
L 786.400142 344.395028 
L 788.808558 344.57362 
L 790.012766 346.370166 
L 792.421183 346.370166 
L 793.625391 341.516302 
L 794.829599 343.742319 
L 796.033808 344.127141 
L 797.238016 344.169663 
L 798.442224 346.370166 
L 800.850641 346.370166 
L 802.054849 340.393726 
L 803.259057 343.563727 
L 804.463265 343.631762 
L 805.667474 344.205806 
L 806.871682 346.370166 
L 809.280098 346.370166 
L 810.484307 340.472392 
L 811.688515 343.670031 
L 812.892723 343.157644 
L 814.096931 343.661527 
L 815.30114 346.370166 
L 817.709556 346.370166 
L 818.913764 339.141459 
L 820.117973 344.022962 
L 821.322181 343.789093 
L 822.526389 343.406396 
L 823.730598 346.370166 
L 826.139014 346.370166 
L 827.343222 340.153478 
L 828.547431 342.732426 
L 829.751639 343.446792 
L 830.955847 343.2193 
L 832.160055 346.370166 
L 834.568472 346.370166 
L 835.77268 338.59718 
L 836.976888 344.037845 
L 838.181097 343.81248 
L 839.385305 344.224941 
L 840.589513 346.370166 
L 842.99793 346.370166 
L 844.202138 342.147751 
L 845.406346 344.433298 
L 846.610554 344.750085 
L 847.814763 344.741581 
L 849.018971 346.370166 
L 851.427387 346.370166 
L 852.631596 342.615491 
L 853.835804 344.554485 
L 855.040012 344.543855 
L 856.24422 344.735203 
L 857.448429 346.370166 
L 859.856845 346.370166 
L 861.061053 342.375242 
L 862.265262 344.852138 
L 863.46947 344.594881 
L 864.673678 344.798985 
L 865.877886 346.370166 
L 868.286303 346.370166 
L 869.490511 342.675021 
L 870.694719 344.446054 
L 873.103136 344.947812 
L 874.307344 346.370166 
L 876.715761 346.370166 
L 877.919969 342.836604 
L 879.124177 344.654411 
L 881.532594 344.665042 
L 882.736802 346.370166 
L 885.145219 346.370166 
L 886.349427 341.533311 
L 887.553635 343.693418 
L 888.757843 344.473694 
L 889.962052 344.052728 
L 891.16626 346.370166 
L 893.574676 346.370166 
L 894.778885 340.500031 
L 895.983093 343.92091 
L 897.187301 344.575746 
L 898.391509 344.616142 
L 899.595718 346.370166 
L 902.004134 346.370166 
L 903.208342 341.909629 
L 904.412551 343.55097 
L 905.616759 344.214311 
L 906.820967 344.373767 
L 908.025175 346.370166 
L 910.433592 346.370166 
L 911.6378 340.795557 
L 912.842008 343.619005 
L 915.250425 343.971936 
L 916.454633 346.370166 
L 918.86305 346.370166 
L 920.067258 338.237871 
L 921.271466 341.956403 
L 922.475674 342.007429 
L 923.679883 341.777811 
L 924.884091 346.370166 
L 927.292507 346.370166 
L 928.496716 333.590237 
L 929.700924 340.759414 
L 932.10934 341.671507 
L 933.313549 346.370166 
L 935.721965 346.370166 
L 936.926173 330.611585 
L 938.130382 339.279655 
L 939.33459 339.645342 
L 940.538798 339.647469 
L 941.743006 346.370166 
L 944.151423 346.370166 
L 945.355631 326.231838 
L 946.559839 337.772257 
L 947.764048 337.819031 
L 948.968256 337.589413 
L 950.172464 346.370166 
L 952.580881 346.370166 
L 953.785089 319.409215 
L 954.989297 336.403055 
L 956.193506 335.614275 
L 957.397714 346.370166 
L 961.010339 346.370166 
L 962.214547 301.197125 
L 963.418755 327.016366 
L 964.622963 322.725916 
L 965.827172 346.370166 
L 969.439796 346.370166 
L 970.644005 255.01419 
L 971.848213 309.13382 
L 973.052421 346.370166 
L 974.256629 258.38617 
L 975.460838 346.370166 
L 977.869254 346.370166 
L 979.073462 196.181018 
L 980.277671 299.72587 
L 981.481879 292.012414 
L 982.686087 292.014541 
L 983.890295 346.370166 
L 986.298712 346.370166 
L 987.50292 139.612133 
L 988.707128 255.532956 
L 989.911337 258.405304 
L 991.115545 256.447175 
L 992.319753 346.370166 
L 994.72817 346.370166 
L 995.932378 50.8755 
L 997.136586 239.013234 
L 998.340794 257.518725 
L 999.545003 229.052501 
L 1000.749211 346.370166 
L 1003.157627 346.370166 
L 1004.361836 105.156713 
L 1005.566044 263.016794 
L 1006.770252 268.680699 
L 1007.97446 286.565371 
L 1009.178669 346.370166 
L 1011.587085 346.370166 
L 1012.791293 204.623723 
L 1013.995502 307.713592 
L 1015.19971 310.294665 
L 1016.403918 329.946118 
L 1017.608127 346.370166 
L 1020.016543 346.370166 
L 1021.220751 321.386479 
L 1022.42496 334.927548 
L 1023.629168 337.659574 
L 1024.833376 337.236482 
L 1026.037584 346.370166 
L 1028.446001 346.370166 
L 1029.650209 328.279263 
L 1030.854417 339.103189 
L 1032.058626 339.849447 
L 1033.262834 339.371077 
L 1034.467042 346.370166 
L 1036.875459 346.370166 
L 1038.079667 331.40249 
L 1039.283875 339.392338 
L 1040.488083 341.114471 
L 1041.692292 342.054203 
L 1042.8965 346.370166 
L 1045.304916 346.370166 
L 1046.509125 336.128789 
L 1047.713333 341.758676 
L 1048.917541 341.80545 
L 1050.121749 343.227805 
L 1051.325958 346.370166 
L 1053.734374 346.370166 
L 1054.938582 338.552532 
L 1056.142791 342.513438 
L 1057.346999 342.885504 
L 1058.551207 342.160507 
L 1059.755415 346.370166 
L 1064.572248 346.370166 
L 1065.776457 333.509446 
L 1066.980665 346.370166 
L 1073.001706 346.370166 
L 1074.205914 333.366998 
L 1075.410123 346.370166 
L 1081.431164 346.370166 
L 1082.635372 337.593665 
L 1083.839581 346.370166 
L 1089.860622 346.370166 
L 1091.06483 337.831787 
L 1092.269038 346.370166 
L 1098.29008 346.370166 
L 1099.494288 341.284558 
L 1100.698496 346.370166 
L 1106.719537 346.370166 
L 1107.923746 340.993284 
L 1109.127954 346.370166 
L 1115.148995 346.370166 
L 1116.353203 341.750172 
L 1117.557412 346.370166 
L 1123.578453 346.370166 
L 1124.782661 342.534699 
L 1125.986869 346.370166 
L 1132.007911 346.370166 
L 1133.212119 342.728173 
L 1134.416327 346.370166 
L 1139.23316 346.370166 
L 1140.437368 343.519079 
L 1141.641577 346.370166 
L 1148.866826 346.370166 
L 1150.071035 343.35537 
L 1151.275243 346.370166 
L 1157.296284 346.370166 
L 1158.500492 343.044961 
L 1159.704701 346.370166 
L 1165.725742 346.370166 
L 1166.92995 342.281694 
L 1168.134158 346.370166 
L 1174.1552 346.370166 
L 1175.359408 340.170487 
L 1176.563616 346.370166 
L 1182.584657 346.370166 
L 1183.788866 339.077676 
L 1184.993074 346.370166 
L 1191.014115 346.370166 
L 1192.218323 337.429956 
L 1193.422532 346.370166 
L 1199.443573 346.370166 
L 1200.647781 336.245724 
L 1201.851989 346.370166 
L 1207.873031 346.370166 
L 1209.077239 334.013329 
L 1210.281447 346.370166 
L 1216.302489 346.370166 
L 1217.506697 334.172786 
L 1218.710905 346.370166 
L 1224.731946 346.370166 
L 1225.936155 333.707172 
L 1227.140363 346.370166 
L 1233.161404 346.370166 
L 1234.365612 332.922645 
L 1235.569821 346.370166 
L 1241.590862 346.370166 
L 1242.79507 331.600217 
L 1243.999278 346.370166 
L 1250.02032 346.370166 
L 1251.224528 334.719191 
L 1252.428736 346.370166 
L 1258.449777 346.370166 
L 1259.653986 336.315885 
L 1260.858194 346.370166 
L 1266.879235 346.370166 
L 1268.083443 337.023873 
L 1269.287652 346.370166 
L 1275.308693 346.370166 
L 1276.512901 335.797119 
L 1277.71711 346.370166 
L 1283.738151 346.370166 
L 1284.942359 336.060754 
L 1286.146567 346.370166 
L 1292.167609 346.370166 
L 1293.371817 335.588762 
L 1294.576025 346.370166 
L 1300.597066 346.370166 
L 1301.801275 319.343306 
L 1303.005483 346.370166 
L 1309.026524 346.370166 
L 1310.230732 338.475993 
L 1311.434941 346.370166 
L 1313.843357 346.370166 
L 1313.843357 346.370166 
" clip-path="url(#pb75e911435)" style="fill: none; stroke: #0000ff; stroke-width: 1.5; stroke-linecap: square"/>
   </g>
   <g id="line2d_19">
    <path d="M 1074.205914 331.992046 
L 1075.410123 347.07812 
L 1076.614331 345.71516 
L 1077.818539 345.686339 
L 1079.022748 346.095528 
L 1080.226956 345.628805 
L 1081.431164 345.960825 
L 1082.635372 336.125361 
L 1083.839581 346.493669 
L 1085.043789 347.045548 
L 1088.656414 346.905463 
L 1089.860622 346.49749 
L 1091.06483 339.623477 
L 1092.269038 346.089742 
L 1093.473247 345.828001 
L 1097.085871 345.989122 
L 1098.29008 346.330562 
L 1099.494288 338.804908 
L 1100.698496 346.805881 
L 1101.902704 347.01701 
L 1105.515329 346.797626 
L 1106.719537 346.382485 
L 1107.923746 342.96739 
L 1109.127954 346.016588 
L 1110.332162 345.869754 
L 1113.944787 346.043904 
L 1115.148995 346.366335 
L 1116.353203 341.342998 
L 1117.557412 346.442645 
L 1121.170036 346.454872 
L 1123.578453 346.371358 
L 1124.782661 342.70491 
L 1125.986869 346.339725 
L 1132.007911 346.369795 
L 1133.212119 343.169225 
L 1134.416327 346.290082 
L 1138.028952 346.28032 
L 1140.437368 346.370282 
L 1141.641577 342.726923 
L 1142.845785 346.227731 
L 1144.049993 346.562801 
L 1145.254202 346.429767 
L 1146.45841 346.549907 
L 1147.662618 346.872518 
L 1148.866826 343.143251 
L 1150.071035 347.927598 
L 1151.275243 346.450052 
L 1152.479451 346.04043 
L 1153.683659 346.210557 
L 1154.887868 346.075115 
L 1156.092076 345.72941 
L 1157.296284 347.373887 
L 1158.500492 342.473566 
L 1159.704701 346.191085 
L 1162.113117 346.245245 
L 1164.521534 346.432744 
L 1165.725742 346.057962 
L 1166.92995 343.818701 
L 1168.134158 346.179455 
L 1169.338367 346.06596 
L 1171.746783 346.118243 
L 1172.950991 346.132255 
L 1174.1552 346.467276 
L 1175.359408 342.536432 
L 1176.563616 345.913912 
L 1177.767824 345.757307 
L 1181.380449 345.98711 
L 1182.584657 346.33996 
L 1183.788866 340.545799 
L 1184.993074 346.112527 
L 1186.197282 346.012515 
L 1189.809907 346.135107 
L 1191.014115 346.379562 
L 1192.218323 339.928128 
L 1193.422532 345.914644 
L 1194.62674 345.746368 
L 1198.239365 345.968416 
L 1199.443573 346.367244 
L 1200.647781 338.255352 
L 1201.851989 346.006677 
L 1203.056198 345.870982 
L 1206.668822 346.047288 
L 1207.873031 346.371075 
L 1209.077239 337.435342 
L 1210.281447 345.749557 
L 1211.485656 345.518677 
L 1212.689864 345.667802 
L 1213.894072 345.671679 
L 1215.09828 345.820195 
L 1216.302489 346.369883 
L 1217.506697 335.163764 
L 1218.710905 346.190598 
L 1221.119322 346.166901 
L 1223.527738 346.210916 
L 1224.731946 346.370254 
L 1225.936155 336.050805 
L 1227.140363 345.94528 
L 1228.344571 345.787141 
L 1231.957196 345.993523 
L 1233.161404 346.370139 
L 1234.365612 335.247909 
L 1235.569821 345.948642 
L 1236.774029 345.791739 
L 1240.386654 345.996478 
L 1241.590862 346.370175 
L 1242.79507 334.609714 
L 1243.999278 345.824592 
L 1245.203487 345.62152 
L 1246.407695 345.752661 
L 1247.611903 345.756036 
L 1248.816111 345.886516 
L 1250.02032 346.370164 
L 1251.224528 333.31149 
L 1252.428736 346.62536 
L 1253.632944 346.720347 
L 1258.449777 346.370167 
L 1259.653986 337.245374 
L 1260.858194 346.201665 
L 1263.26661 346.179449 
L 1265.675027 346.22079 
L 1266.879235 346.370166 
L 1268.083443 337.828901 
L 1269.287652 346.224228 
L 1271.696068 346.204987 
L 1274.104485 346.240792 
L 1275.308693 346.370166 
L 1276.512901 338.448702 
L 1277.71711 345.889479 
L 1278.921318 345.710557 
L 1280.125526 345.826101 
L 1281.329734 345.829075 
L 1282.533943 345.944035 
L 1283.738151 346.370166 
L 1284.942359 336.867467 
L 1286.146567 346.223923 
L 1288.554984 346.204641 
L 1290.9634 346.240521 
L 1292.167609 346.370166 
L 1293.371817 337.657689 
L 1294.576025 345.995104 
L 1295.780233 345.855499 
L 1299.392858 346.037673 
L 1300.597066 346.370166 
L 1301.801275 336.877689 
L 1303.005483 343.191477 
L 1304.209691 342.008305 
L 1305.413899 342.772375 
L 1306.618108 342.792041 
L 1307.822316 343.55225 
L 1309.026524 346.370166 
L 1310.230732 318.733591 
L 1311.434941 349.949132 
L 1312.639149 351.281295 
L 1313.843357 350.421009 
L 1313.843357 350.421009 
" clip-path="url(#pb75e911435)" style="fill: none; stroke: #ffa500; stroke-width: 1.5; stroke-linecap: square"/>
   </g>
   <g id="line2d_20">
    <path d="M 1315.047565 350.398867 
L 1316.251774 350.273264 
L 1317.455982 348.079914 
L 1318.66019 348.139267 
L 1319.864398 348.800508 
L 1321.068607 349.129751 
L 1322.272815 348.883592 
L 1323.477023 353.2755 
L 1324.681231 353.239044 
L 1325.88544 350.802575 
L 1327.089648 350.977893 
L 1328.293856 351.580874 
L 1329.498064 351.950987 
L 1330.702273 351.688897 
" clip-path="url(#pb75e911435)" style="fill: none; stroke: #ff0000; stroke-width: 1.5; stroke-linecap: square"/>
   </g>
   <g id="patch_3">
    <path d="M 52.375 368.3955 
L 52.375 35.7555 
" style="fill: none; stroke: #000000; stroke-width: 0.8; stroke-linejoin: miter; stroke-linecap: square"/>
   </g>
   <g id="patch_4">
    <path d="M 1391.575 368.3955 
L 1391.575 35.7555 
" style="fill: none; stroke: #000000; stroke-width: 0.8; stroke-linejoin: miter; stroke-linecap: square"/>
   </g>
   <g id="patch_5">
    <path d="M 52.375 368.3955 
L 1391.575 368.3955 
" style="fill: none; stroke: #000000; stroke-width: 0.8; stroke-linejoin: miter; stroke-linecap: square"/>
   </g>
   <g id="patch_6">
    <path d="M 52.375 35.7555 
L 1391.575 35.7555 
" style="fill: none; stroke: #000000; stroke-width: 0.8; stroke-linejoin: miter; stroke-linecap: square"/>
   </g>
   <g id="text_18">
    <!-- Daily Confirmed Cases Forecasting - Sweden -->
    <g transform="translate(587.763438 16.318125)scale(0.12 -0.12)">
     <defs>
      <path id="DejaVuSans-44" d="M 1259 4147 
L 1259 519 
L 2022 519 
Q 2988 519 3436 956 
Q 3884 1394 3884 2338 
Q 3884 3275 3436 3711 
Q 2988 4147 2022 4147 
L 1259 4147 
z
M 628 4666 
L 1925 4666 
Q 3281 4666 3915 4102 
Q 4550 3538 4550 2338 
Q 4550 1131 3912 565 
Q 3275 0 1925 0 
L 628 0 
L 628 4666 
z
" transform="scale(0.015625)"/>
      <path id="DejaVuSans-61" d="M 2194 1759 
Q 1497 1759 1228 1600 
Q 959 1441 959 1056 
Q 959 750 1161 570 
Q 1363 391 1709 391 
Q 2188 391 2477 730 
Q 2766 1069 2766 1631 
L 2766 1759 
L 2194 1759 
z
M 3341 1997 
L 3341 0 
L 2766 0 
L 2766 531 
Q 2569 213 2275 61 
Q 1981 -91 1556 -91 
Q 1019 -91 701 211 
Q 384 513 384 1019 
Q 384 1609 779 1909 
Q 1175 2209 1959 2209 
L 2766 2209 
L 2766 2266 
Q 2766 2663 2505 2880 
Q 2244 3097 1772 3097 
Q 1472 3097 1187 3025 
Q 903 2953 641 2809 
L 641 3341 
Q 956 3463 1253 3523 
Q 1550 3584 1831 3584 
Q 2591 3584 2966 3190 
Q 3341 2797 3341 1997 
z
" transform="scale(0.015625)"/>
      <path id="DejaVuSans-69" d="M 603 3500 
L 1178 3500 
L 1178 0 
L 603 0 
L 603 3500 
z
M 603 4863 
L 1178 4863 
L 1178 4134 
L 603 4134 
L 603 4863 
z
" transform="scale(0.015625)"/>
      <path id="DejaVuSans-6c" d="M 603 4863 
L 1178 4863 
L 1178 0 
L 603 0 
L 603 4863 
z
" transform="scale(0.015625)"/>
      <path id="DejaVuSans-79" d="M 2059 -325 
Q 1816 -950 1584 -1140 
Q 1353 -1331 966 -1331 
L 506 -1331 
L 506 -850 
L 844 -850 
Q 1081 -850 1212 -737 
Q 1344 -625 1503 -206 
L 1606 56 
L 191 3500 
L 800 3500 
L 1894 763 
L 2988 3500 
L 3597 3500 
L 2059 -325 
z
" transform="scale(0.015625)"/>
      <path id="DejaVuSans-20" transform="scale(0.015625)"/>
      <path id="DejaVuSans-43" d="M 4122 4306 
L 4122 3641 
Q 3803 3938 3442 4084 
Q 3081 4231 2675 4231 
Q 1875 4231 1450 3742 
Q 1025 3253 1025 2328 
Q 1025 1406 1450 917 
Q 1875 428 2675 428 
Q 3081 428 3442 575 
Q 3803 722 4122 1019 
L 4122 359 
Q 3791 134 3420 21 
Q 3050 -91 2638 -91 
Q 1578 -91 968 557 
Q 359 1206 359 2328 
Q 359 3453 968 4101 
Q 1578 4750 2638 4750 
Q 3056 4750 3426 4639 
Q 3797 4528 4122 4306 
z
" transform="scale(0.015625)"/>
      <path id="DejaVuSans-6f" d="M 1959 3097 
Q 1497 3097 1228 2736 
Q 959 2375 959 1747 
Q 959 1119 1226 758 
Q 1494 397 1959 397 
Q 2419 397 2687 759 
Q 2956 1122 2956 1747 
Q 2956 2369 2687 2733 
Q 2419 3097 1959 3097 
z
M 1959 3584 
Q 2709 3584 3137 3096 
Q 3566 2609 3566 1747 
Q 3566 888 3137 398 
Q 2709 -91 1959 -91 
Q 1206 -91 779 398 
Q 353 888 353 1747 
Q 353 2609 779 3096 
Q 1206 3584 1959 3584 
z
" transform="scale(0.015625)"/>
      <path id="DejaVuSans-6e" d="M 3513 2113 
L 3513 0 
L 2938 0 
L 2938 2094 
Q 2938 2591 2744 2837 
Q 2550 3084 2163 3084 
Q 1697 3084 1428 2787 
Q 1159 2491 1159 1978 
L 1159 0 
L 581 0 
L 581 3500 
L 1159 3500 
L 1159 2956 
Q 1366 3272 1645 3428 
Q 1925 3584 2291 3584 
Q 2894 3584 3203 3211 
Q 3513 2838 3513 2113 
z
" transform="scale(0.015625)"/>
      <path id="DejaVuSans-66" d="M 2375 4863 
L 2375 4384 
L 1825 4384 
Q 1516 4384 1395 4259 
Q 1275 4134 1275 3809 
L 1275 3500 
L 2222 3500 
L 2222 3053 
L 1275 3053 
L 1275 0 
L 697 0 
L 697 3053 
L 147 3053 
L 147 3500 
L 697 3500 
L 697 3744 
Q 697 4328 969 4595 
Q 1241 4863 1831 4863 
L 2375 4863 
z
" transform="scale(0.015625)"/>
      <path id="DejaVuSans-72" d="M 2631 2963 
Q 2534 3019 2420 3045 
Q 2306 3072 2169 3072 
Q 1681 3072 1420 2755 
Q 1159 2438 1159 1844 
L 1159 0 
L 581 0 
L 581 3500 
L 1159 3500 
L 1159 2956 
Q 1341 3275 1631 3429 
Q 1922 3584 2338 3584 
Q 2397 3584 2469 3576 
Q 2541 3569 2628 3553 
L 2631 2963 
z
" transform="scale(0.015625)"/>
      <path id="DejaVuSans-6d" d="M 3328 2828 
Q 3544 3216 3844 3400 
Q 4144 3584 4550 3584 
Q 5097 3584 5394 3201 
Q 5691 2819 5691 2113 
L 5691 0 
L 5113 0 
L 5113 2094 
Q 5113 2597 4934 2840 
Q 4756 3084 4391 3084 
Q 3944 3084 3684 2787 
Q 3425 2491 3425 1978 
L 3425 0 
L 2847 0 
L 2847 2094 
Q 2847 2600 2669 2842 
Q 2491 3084 2119 3084 
Q 1678 3084 1418 2786 
Q 1159 2488 1159 1978 
L 1159 0 
L 581 0 
L 581 3500 
L 1159 3500 
L 1159 2956 
Q 1356 3278 1631 3431 
Q 1906 3584 2284 3584 
Q 2666 3584 2933 3390 
Q 3200 3197 3328 2828 
z
" transform="scale(0.015625)"/>
      <path id="DejaVuSans-65" d="M 3597 1894 
L 3597 1613 
L 953 1613 
Q 991 1019 1311 708 
Q 1631 397 2203 397 
Q 2534 397 2845 478 
Q 3156 559 3463 722 
L 3463 178 
Q 3153 47 2828 -22 
Q 2503 -91 2169 -91 
Q 1331 -91 842 396 
Q 353 884 353 1716 
Q 353 2575 817 3079 
Q 1281 3584 2069 3584 
Q 2775 3584 3186 3129 
Q 3597 2675 3597 1894 
z
M 3022 2063 
Q 3016 2534 2758 2815 
Q 2500 3097 2075 3097 
Q 1594 3097 1305 2825 
Q 1016 2553 972 2059 
L 3022 2063 
z
" transform="scale(0.015625)"/>
      <path id="DejaVuSans-64" d="M 2906 2969 
L 2906 4863 
L 3481 4863 
L 3481 0 
L 2906 0 
L 2906 525 
Q 2725 213 2448 61 
Q 2172 -91 1784 -91 
Q 1150 -91 751 415 
Q 353 922 353 1747 
Q 353 2572 751 3078 
Q 1150 3584 1784 3584 
Q 2172 3584 2448 3432 
Q 2725 3281 2906 2969 
z
M 947 1747 
Q 947 1113 1208 752 
Q 1469 391 1925 391 
Q 2381 391 2643 752 
Q 2906 1113 2906 1747 
Q 2906 2381 2643 2742 
Q 2381 3103 1925 3103 
Q 1469 3103 1208 2742 
Q 947 2381 947 1747 
z
" transform="scale(0.015625)"/>
      <path id="DejaVuSans-73" d="M 2834 3397 
L 2834 2853 
Q 2591 2978 2328 3040 
Q 2066 3103 1784 3103 
Q 1356 3103 1142 2972 
Q 928 2841 928 2578 
Q 928 2378 1081 2264 
Q 1234 2150 1697 2047 
L 1894 2003 
Q 2506 1872 2764 1633 
Q 3022 1394 3022 966 
Q 3022 478 2636 193 
Q 2250 -91 1575 -91 
Q 1294 -91 989 -36 
Q 684 19 347 128 
L 347 722 
Q 666 556 975 473 
Q 1284 391 1588 391 
Q 1994 391 2212 530 
Q 2431 669 2431 922 
Q 2431 1156 2273 1281 
Q 2116 1406 1581 1522 
L 1381 1569 
Q 847 1681 609 1914 
Q 372 2147 372 2553 
Q 372 3047 722 3315 
Q 1072 3584 1716 3584 
Q 2034 3584 2315 3537 
Q 2597 3491 2834 3397 
z
" transform="scale(0.015625)"/>
      <path id="DejaVuSans-46" d="M 628 4666 
L 3309 4666 
L 3309 4134 
L 1259 4134 
L 1259 2759 
L 3109 2759 
L 3109 2228 
L 1259 2228 
L 1259 0 
L 628 0 
L 628 4666 
z
" transform="scale(0.015625)"/>
      <path id="DejaVuSans-63" d="M 3122 3366 
L 3122 2828 
Q 2878 2963 2633 3030 
Q 2388 3097 2138 3097 
Q 1578 3097 1268 2742 
Q 959 2388 959 1747 
Q 959 1106 1268 751 
Q 1578 397 2138 397 
Q 2388 397 2633 464 
Q 2878 531 3122 666 
L 3122 134 
Q 2881 22 2623 -34 
Q 2366 -91 2075 -91 
Q 1284 -91 818 406 
Q 353 903 353 1747 
Q 353 2603 823 3093 
Q 1294 3584 2113 3584 
Q 2378 3584 2631 3529 
Q 2884 3475 3122 3366 
z
" transform="scale(0.015625)"/>
      <path id="DejaVuSans-74" d="M 1172 4494 
L 1172 3500 
L 2356 3500 
L 2356 3053 
L 1172 3053 
L 1172 1153 
Q 1172 725 1289 603 
Q 1406 481 1766 481 
L 2356 481 
L 2356 0 
L 1766 0 
Q 1100 0 847 248 
Q 594 497 594 1153 
L 594 3053 
L 172 3053 
L 172 3500 
L 594 3500 
L 594 4494 
L 1172 4494 
z
" transform="scale(0.015625)"/>
      <path id="DejaVuSans-67" d="M 2906 1791 
Q 2906 2416 2648 2759 
Q 2391 3103 1925 3103 
Q 1463 3103 1205 2759 
Q 947 2416 947 1791 
Q 947 1169 1205 825 
Q 1463 481 1925 481 
Q 2391 481 2648 825 
Q 2906 1169 2906 1791 
z
M 3481 434 
Q 3481 -459 3084 -895 
Q 2688 -1331 1869 -1331 
Q 1566 -1331 1297 -1286 
Q 1028 -1241 775 -1147 
L 775 -588 
Q 1028 -725 1275 -790 
Q 1522 -856 1778 -856 
Q 2344 -856 2625 -561 
Q 2906 -266 2906 331 
L 2906 616 
Q 2728 306 2450 153 
Q 2172 0 1784 0 
Q 1141 0 747 490 
Q 353 981 353 1791 
Q 353 2603 747 3093 
Q 1141 3584 1784 3584 
Q 2172 3584 2450 3431 
Q 2728 3278 2906 2969 
L 2906 3500 
L 3481 3500 
L 3481 434 
z
" transform="scale(0.015625)"/>
      <path id="DejaVuSans-53" d="M 3425 4513 
L 3425 3897 
Q 3066 4069 2747 4153 
Q 2428 4238 2131 4238 
Q 1616 4238 1336 4038 
Q 1056 3838 1056 3469 
Q 1056 3159 1242 3001 
Q 1428 2844 1947 2747 
L 2328 2669 
Q 3034 2534 3370 2195 
Q 3706 1856 3706 1288 
Q 3706 609 3251 259 
Q 2797 -91 1919 -91 
Q 1588 -91 1214 -16 
Q 841 59 441 206 
L 441 856 
Q 825 641 1194 531 
Q 1563 422 1919 422 
Q 2459 422 2753 634 
Q 3047 847 3047 1241 
Q 3047 1584 2836 1778 
Q 2625 1972 2144 2069 
L 1759 2144 
Q 1053 2284 737 2584 
Q 422 2884 422 3419 
Q 422 4038 858 4394 
Q 1294 4750 2059 4750 
Q 2388 4750 2728 4690 
Q 3069 4631 3425 4513 
z
" transform="scale(0.015625)"/>
      <path id="DejaVuSans-77" d="M 269 3500 
L 844 3500 
L 1563 769 
L 2278 3500 
L 2956 3500 
L 3675 769 
L 4391 3500 
L 4966 3500 
L 4050 0 
L 3372 0 
L 2619 2869 
L 1863 0 
L 1184 0 
L 269 3500 
z
" transform="scale(0.015625)"/>
     </defs>
     <use xlink:href="#DejaVuSans-44"/>
     <use xlink:href="#DejaVuSans-61" x="77.001953"/>
     <use xlink:href="#DejaVuSans-69" x="138.28125"/>
     <use xlink:href="#DejaVuSans-6c" x="166.064453"/>
     <use xlink:href="#DejaVuSans-79" x="193.847656"/>
     <use xlink:href="#DejaVuSans-20" x="253.027344"/>
     <use xlink:href="#DejaVuSans-43" x="284.814453"/>
     <use xlink:href="#DejaVuSans-6f" x="354.638672"/>
     <use xlink:href="#DejaVuSans-6e" x="415.820312"/>
     <use xlink:href="#DejaVuSans-66" x="479.199219"/>
     <use xlink:href="#DejaVuSans-69" x="514.404297"/>
     <use xlink:href="#DejaVuSans-72" x="542.1875"/>
     <use xlink:href="#DejaVuSans-6d" x="581.550781"/>
     <use xlink:href="#DejaVuSans-65" x="678.962891"/>
     <use xlink:href="#DejaVuSans-64" x="740.486328"/>
     <use xlink:href="#DejaVuSans-20" x="803.962891"/>
     <use xlink:href="#DejaVuSans-43" x="835.75"/>
     <use xlink:href="#DejaVuSans-61" x="905.574219"/>
     <use xlink:href="#DejaVuSans-73" x="966.853516"/>
     <use xlink:href="#DejaVuSans-65" x="1018.953125"/>
     <use xlink:href="#DejaVuSans-73" x="1080.476562"/>
     <use xlink:href="#DejaVuSans-20" x="1132.576172"/>
     <use xlink:href="#DejaVuSans-46" x="1164.363281"/>
     <use xlink:href="#DejaVuSans-6f" x="1218.257812"/>
     <use xlink:href="#DejaVuSans-72" x="1279.439453"/>
     <use xlink:href="#DejaVuSans-65" x="1318.302734"/>
     <use xlink:href="#DejaVuSans-63" x="1379.826172"/>
     <use xlink:href="#DejaVuSans-61" x="1434.806641"/>
     <use xlink:href="#DejaVuSans-73" x="1496.085938"/>
     <use xlink:href="#DejaVuSans-74" x="1548.185547"/>
     <use xlink:href="#DejaVuSans-69" x="1587.394531"/>
     <use xlink:href="#DejaVuSans-6e" x="1615.177734"/>
     <use xlink:href="#DejaVuSans-67" x="1678.556641"/>
     <use xlink:href="#DejaVuSans-20" x="1742.033203"/>
     <use xlink:href="#DejaVuSans-2d" x="1773.820312"/>
     <use xlink:href="#DejaVuSans-20" x="1809.904297"/>
     <use xlink:href="#DejaVuSans-53" x="1841.691406"/>
     <use xlink:href="#DejaVuSans-77" x="1905.167969"/>
     <use xlink:href="#DejaVuSans-65" x="1986.955078"/>
     <use xlink:href="#DejaVuSans-64" x="2048.478516"/>
     <use xlink:href="#DejaVuSans-65" x="2111.955078"/>
     <use xlink:href="#DejaVuSans-6e" x="2173.478516"/>
    </g>
    <!-- ARIMA (4, 1, 0)x(1, 0, 1, 7) (R2 = 0.640281) -->
    <g transform="translate(589.990937 29.7555)scale(0.12 -0.12)">
     <defs>
      <path id="DejaVuSans-41" d="M 2188 4044 
L 1331 1722 
L 3047 1722 
L 2188 4044 
z
M 1831 4666 
L 2547 4666 
L 4325 0 
L 3669 0 
L 3244 1197 
L 1141 1197 
L 716 0 
L 50 0 
L 1831 4666 
z
" transform="scale(0.015625)"/>
      <path id="DejaVuSans-52" d="M 2841 2188 
Q 3044 2119 3236 1894 
Q 3428 1669 3622 1275 
L 4263 0 
L 3584 0 
L 2988 1197 
Q 2756 1666 2539 1819 
Q 2322 1972 1947 1972 
L 1259 1972 
L 1259 0 
L 628 0 
L 628 4666 
L 2053 4666 
Q 2853 4666 3247 4331 
Q 3641 3997 3641 3322 
Q 3641 2881 3436 2590 
Q 3231 2300 2841 2188 
z
M 1259 4147 
L 1259 2491 
L 2053 2491 
Q 2509 2491 2742 2702 
Q 2975 2913 2975 3322 
Q 2975 3731 2742 3939 
Q 2509 4147 2053 4147 
L 1259 4147 
z
" transform="scale(0.015625)"/>
      <path id="DejaVuSans-49" d="M 628 4666 
L 1259 4666 
L 1259 0 
L 628 0 
L 628 4666 
z
" transform="scale(0.015625)"/>
      <path id="DejaVuSans-4d" d="M 628 4666 
L 1569 4666 
L 2759 1491 
L 3956 4666 
L 4897 4666 
L 4897 0 
L 4281 0 
L 4281 4097 
L 3078 897 
L 2444 897 
L 1241 4097 
L 1241 0 
L 628 0 
L 628 4666 
z
" transform="scale(0.015625)"/>
      <path id="DejaVuSans-28" d="M 1984 4856 
Q 1566 4138 1362 3434 
Q 1159 2731 1159 2009 
Q 1159 1288 1364 580 
Q 1569 -128 1984 -844 
L 1484 -844 
Q 1016 -109 783 600 
Q 550 1309 550 2009 
Q 550 2706 781 3412 
Q 1013 4119 1484 4856 
L 1984 4856 
z
" transform="scale(0.015625)"/>
      <path id="DejaVuSans-2c" d="M 750 794 
L 1409 794 
L 1409 256 
L 897 -744 
L 494 -744 
L 750 256 
L 750 794 
z
" transform="scale(0.015625)"/>
      <path id="DejaVuSans-29" d="M 513 4856 
L 1013 4856 
Q 1481 4119 1714 3412 
Q 1947 2706 1947 2009 
Q 1947 1309 1714 600 
Q 1481 -109 1013 -844 
L 513 -844 
Q 928 -128 1133 580 
Q 1338 1288 1338 2009 
Q 1338 2731 1133 3434 
Q 928 4138 513 4856 
z
" transform="scale(0.015625)"/>
      <path id="DejaVuSans-78" d="M 3513 3500 
L 2247 1797 
L 3578 0 
L 2900 0 
L 1881 1375 
L 863 0 
L 184 0 
L 1544 1831 
L 300 3500 
L 978 3500 
L 1906 2253 
L 2834 3500 
L 3513 3500 
z
" transform="scale(0.015625)"/>
      <path id="DejaVuSans-37" d="M 525 4666 
L 3525 4666 
L 3525 4397 
L 1831 0 
L 1172 0 
L 2766 4134 
L 525 4134 
L 525 4666 
z
" transform="scale(0.015625)"/>
      <path id="DejaVuSans-3d" d="M 678 2906 
L 4684 2906 
L 4684 2381 
L 678 2381 
L 678 2906 
z
M 678 1631 
L 4684 1631 
L 4684 1100 
L 678 1100 
L 678 1631 
z
" transform="scale(0.015625)"/>
      <path id="DejaVuSans-2e" d="M 684 794 
L 1344 794 
L 1344 0 
L 684 0 
L 684 794 
z
" transform="scale(0.015625)"/>
     </defs>
     <use xlink:href="#DejaVuSans-41"/>
     <use xlink:href="#DejaVuSans-52" x="68.408203"/>
     <use xlink:href="#DejaVuSans-49" x="137.890625"/>
     <use xlink:href="#DejaVuSans-4d" x="167.382812"/>
     <use xlink:href="#DejaVuSans-41" x="253.662109"/>
     <use xlink:href="#DejaVuSans-20" x="322.070312"/>
     <use xlink:href="#DejaVuSans-28" x="353.857422"/>
     <use xlink:href="#DejaVuSans-34" x="392.871094"/>
     <use xlink:href="#DejaVuSans-2c" x="456.494141"/>
     <use xlink:href="#DejaVuSans-20" x="488.28125"/>
     <use xlink:href="#DejaVuSans-31" x="520.068359"/>
     <use xlink:href="#DejaVuSans-2c" x="583.691406"/>
     <use xlink:href="#DejaVuSans-20" x="615.478516"/>
     <use xlink:href="#DejaVuSans-30" x="647.265625"/>
     <use xlink:href="#DejaVuSans-29" x="710.888672"/>
     <use xlink:href="#DejaVuSans-78" x="749.902344"/>
     <use xlink:href="#DejaVuSans-28" x="809.082031"/>
     <use xlink:href="#DejaVuSans-31" x="848.095703"/>
     <use xlink:href="#DejaVuSans-2c" x="911.71875"/>
     <use xlink:href="#DejaVuSans-20" x="943.505859"/>
     <use xlink:href="#DejaVuSans-30" x="975.292969"/>
     <use xlink:href="#DejaVuSans-2c" x="1038.916016"/>
     <use xlink:href="#DejaVuSans-20" x="1070.703125"/>
     <use xlink:href="#DejaVuSans-31" x="1102.490234"/>
     <use xlink:href="#DejaVuSans-2c" x="1166.113281"/>
     <use xlink:href="#DejaVuSans-20" x="1197.900391"/>
     <use xlink:href="#DejaVuSans-37" x="1229.6875"/>
     <use xlink:href="#DejaVuSans-29" x="1293.310547"/>
     <use xlink:href="#DejaVuSans-20" x="1332.324219"/>
     <use xlink:href="#DejaVuSans-28" x="1364.111328"/>
     <use xlink:href="#DejaVuSans-52" x="1403.125"/>
     <use xlink:href="#DejaVuSans-32" x="1472.607422"/>
     <use xlink:href="#DejaVuSans-20" x="1536.230469"/>
     <use xlink:href="#DejaVuSans-3d" x="1568.017578"/>
     <use xlink:href="#DejaVuSans-20" x="1651.806641"/>
     <use xlink:href="#DejaVuSans-30" x="1683.59375"/>
     <use xlink:href="#DejaVuSans-2e" x="1747.216797"/>
     <use xlink:href="#DejaVuSans-36" x="1779.003906"/>
     <use xlink:href="#DejaVuSans-34" x="1842.626953"/>
     <use xlink:href="#DejaVuSans-30" x="1906.25"/>
     <use xlink:href="#DejaVuSans-32" x="1969.873047"/>
     <use xlink:href="#DejaVuSans-38" x="2033.496094"/>
     <use xlink:href="#DejaVuSans-31" x="2097.119141"/>
     <use xlink:href="#DejaVuSans-29" x="2160.742188"/>
    </g>
   </g>
   <g id="legend_1">
    <g id="patch_7">
     <path d="M 1287.495312 87.789875 
L 1384.575 87.789875 
Q 1386.575 87.789875 1386.575 85.789875 
L 1386.575 42.7555 
Q 1386.575 40.7555 1384.575 40.7555 
L 1287.495312 40.7555 
Q 1285.495312 40.7555 1285.495312 42.7555 
L 1285.495312 85.789875 
Q 1285.495312 87.789875 1287.495312 87.789875 
z
" style="fill: #ffffff; opacity: 0.8; stroke: #cccccc; stroke-linejoin: miter"/>
    </g>
    <g id="line2d_21">
     <path d="M 1289.495312 48.853937 
L 1299.495312 48.853937 
L 1309.495312 48.853937 
" style="fill: none; stroke: #0000ff; stroke-width: 1.5; stroke-linecap: square"/>
    </g>
    <g id="text_19">
     <!-- Actual Value -->
     <g transform="translate(1317.495312 52.353937)scale(0.1 -0.1)">
      <defs>
       <path id="DejaVuSans-75" d="M 544 1381 
L 544 3500 
L 1119 3500 
L 1119 1403 
Q 1119 906 1312 657 
Q 1506 409 1894 409 
Q 2359 409 2629 706 
Q 2900 1003 2900 1516 
L 2900 3500 
L 3475 3500 
L 3475 0 
L 2900 0 
L 2900 538 
Q 2691 219 2414 64 
Q 2138 -91 1772 -91 
Q 1169 -91 856 284 
Q 544 659 544 1381 
z
M 1991 3584 
L 1991 3584 
z
" transform="scale(0.015625)"/>
       <path id="DejaVuSans-56" d="M 1831 0 
L 50 4666 
L 709 4666 
L 2188 738 
L 3669 4666 
L 4325 4666 
L 2547 0 
L 1831 0 
z
" transform="scale(0.015625)"/>
      </defs>
      <use xlink:href="#DejaVuSans-41"/>
      <use xlink:href="#DejaVuSans-63" x="66.658203"/>
      <use xlink:href="#DejaVuSans-74" x="121.638672"/>
      <use xlink:href="#DejaVuSans-75" x="160.847656"/>
      <use xlink:href="#DejaVuSans-61" x="224.226562"/>
      <use xlink:href="#DejaVuSans-6c" x="285.505859"/>
      <use xlink:href="#DejaVuSans-20" x="313.289062"/>
      <use xlink:href="#DejaVuSans-56" x="345.076172"/>
      <use xlink:href="#DejaVuSans-61" x="405.734375"/>
      <use xlink:href="#DejaVuSans-6c" x="467.013672"/>
      <use xlink:href="#DejaVuSans-75" x="494.796875"/>
      <use xlink:href="#DejaVuSans-65" x="558.175781"/>
     </g>
    </g>
    <g id="line2d_22">
     <path d="M 1289.495312 63.532062 
L 1299.495312 63.532062 
L 1309.495312 63.532062 
" style="fill: none; stroke: #ffa500; stroke-width: 1.5; stroke-linecap: square"/>
    </g>
    <g id="text_20">
     <!-- Check Value -->
     <g transform="translate(1317.495312 67.032062)scale(0.1 -0.1)">
      <defs>
       <path id="DejaVuSans-68" d="M 3513 2113 
L 3513 0 
L 2938 0 
L 2938 2094 
Q 2938 2591 2744 2837 
Q 2550 3084 2163 3084 
Q 1697 3084 1428 2787 
Q 1159 2491 1159 1978 
L 1159 0 
L 581 0 
L 581 4863 
L 1159 4863 
L 1159 2956 
Q 1366 3272 1645 3428 
Q 1925 3584 2291 3584 
Q 2894 3584 3203 3211 
Q 3513 2838 3513 2113 
z
" transform="scale(0.015625)"/>
       <path id="DejaVuSans-6b" d="M 581 4863 
L 1159 4863 
L 1159 1991 
L 2875 3500 
L 3609 3500 
L 1753 1863 
L 3688 0 
L 2938 0 
L 1159 1709 
L 1159 0 
L 581 0 
L 581 4863 
z
" transform="scale(0.015625)"/>
      </defs>
      <use xlink:href="#DejaVuSans-43"/>
      <use xlink:href="#DejaVuSans-68" x="69.824219"/>
      <use xlink:href="#DejaVuSans-65" x="133.203125"/>
      <use xlink:href="#DejaVuSans-63" x="194.726562"/>
      <use xlink:href="#DejaVuSans-6b" x="249.707031"/>
      <use xlink:href="#DejaVuSans-20" x="307.617188"/>
      <use xlink:href="#DejaVuSans-56" x="339.404297"/>
      <use xlink:href="#DejaVuSans-61" x="400.0625"/>
      <use xlink:href="#DejaVuSans-6c" x="461.341797"/>
      <use xlink:href="#DejaVuSans-75" x="489.125"/>
      <use xlink:href="#DejaVuSans-65" x="552.503906"/>
     </g>
    </g>
    <g id="line2d_23">
     <path d="M 1289.495312 78.210187 
L 1299.495312 78.210187 
L 1309.495312 78.210187 
" style="fill: none; stroke: #ff0000; stroke-width: 1.5; stroke-linecap: square"/>
    </g>
    <g id="text_21">
     <!-- Predict Value -->
     <g transform="translate(1317.495312 81.710187)scale(0.1 -0.1)">
      <defs>
       <path id="DejaVuSans-50" d="M 1259 4147 
L 1259 2394 
L 2053 2394 
Q 2494 2394 2734 2622 
Q 2975 2850 2975 3272 
Q 2975 3691 2734 3919 
Q 2494 4147 2053 4147 
L 1259 4147 
z
M 628 4666 
L 2053 4666 
Q 2838 4666 3239 4311 
Q 3641 3956 3641 3272 
Q 3641 2581 3239 2228 
Q 2838 1875 2053 1875 
L 1259 1875 
L 1259 0 
L 628 0 
L 628 4666 
z
" transform="scale(0.015625)"/>
      </defs>
      <use xlink:href="#DejaVuSans-50"/>
      <use xlink:href="#DejaVuSans-72" x="58.552734"/>
      <use xlink:href="#DejaVuSans-65" x="97.416016"/>
      <use xlink:href="#DejaVuSans-64" x="158.939453"/>
      <use xlink:href="#DejaVuSans-69" x="222.416016"/>
      <use xlink:href="#DejaVuSans-63" x="250.199219"/>
      <use xlink:href="#DejaVuSans-74" x="305.179688"/>
      <use xlink:href="#DejaVuSans-20" x="344.388672"/>
      <use xlink:href="#DejaVuSans-56" x="376.175781"/>
      <use xlink:href="#DejaVuSans-61" x="436.833984"/>
      <use xlink:href="#DejaVuSans-6c" x="498.113281"/>
      <use xlink:href="#DejaVuSans-75" x="525.896484"/>
      <use xlink:href="#DejaVuSans-65" x="589.275391"/>
     </g>
    </g>
   </g>
  </g>
 </g>
 <defs>
  <clipPath id="pb75e911435">
   <rect x="52.375" y="35.7555" width="1339.2" height="332.64"/>
  </clipPath>
 </defs>
</svg>
