<?xml version="1.0" encoding="utf-8" standalone="no"?>
<!DOCTYPE svg PUBLIC "-//W3C//DTD SVG 1.1//EN"
  "http://www.w3.org/Graphics/SVG/1.1/DTD/svg11.dtd">
<svg xmlns:xlink="http://www.w3.org/1999/xlink" width="1386.05pt" height="392.273625pt" viewBox="0 0 1386.05 392.273625" xmlns="http://www.w3.org/2000/svg" version="1.1">
 <metadata>
  <rdf:RDF xmlns:dc="http://purl.org/dc/elements/1.1/" xmlns:cc="http://creativecommons.org/ns#" xmlns:rdf="http://www.w3.org/1999/02/22-rdf-syntax-ns#">
   <cc:Work>
    <dc:type rdf:resource="http://purl.org/dc/dcmitype/StillImage"/>
    <dc:date>2023-02-04T18:57:58.647743</dc:date>
    <dc:format>image/svg+xml</dc:format>
    <dc:creator>
     <cc:Agent>
      <dc:title>Matplotlib v3.5.1, https://matplotlib.org/</dc:title>
     </cc:Agent>
    </dc:creator>
   </cc:Work>
  </rdf:RDF>
 </metadata>
 <defs>
  <style type="text/css">*{stroke-linejoin: round; stroke-linecap: butt}</style>
 </defs>
 <g id="figure_1">
  <g id="patch_1">
   <path d="M 0 392.273625 
L 1386.05 392.273625 
L 1386.05 0 
L 0 0 
z
" style="fill: #ffffff"/>
  </g>
  <g id="axes_1">
   <g id="patch_2">
    <path d="M 39.65 368.3955 
L 1378.85 368.3955 
L 1378.85 35.7555 
L 39.65 35.7555 
z
" style="fill: #ffffff"/>
   </g>
   <g id="matplotlib.axis_1">
    <g id="xtick_1">
     <g id="line2d_1">
      <defs>
       <path id="m16a5cfd6bd" d="M 0 0 
L 0 3.5 
" style="stroke: #000000; stroke-width: 0.8"/>
      </defs>
      <g>
       <use xlink:href="#m16a5cfd6bd" x="76.629775" y="368.3955" style="stroke: #000000; stroke-width: 0.8"/>
      </g>
     </g>
     <g id="text_1">
      <!-- 2020-01 -->
      <g transform="translate(55.738368 382.993937)scale(0.1 -0.1)">
       <defs>
        <path id="DejaVuSans-32" d="M 1228 531 
L 3431 531 
L 3431 0 
L 469 0 
L 469 531 
Q 828 903 1448 1529 
Q 2069 2156 2228 2338 
Q 2531 2678 2651 2914 
Q 2772 3150 2772 3378 
Q 2772 3750 2511 3984 
Q 2250 4219 1831 4219 
Q 1534 4219 1204 4116 
Q 875 4013 500 3803 
L 500 4441 
Q 881 4594 1212 4672 
Q 1544 4750 1819 4750 
Q 2544 4750 2975 4387 
Q 3406 4025 3406 3419 
Q 3406 3131 3298 2873 
Q 3191 2616 2906 2266 
Q 2828 2175 2409 1742 
Q 1991 1309 1228 531 
z
" transform="scale(0.015625)"/>
        <path id="DejaVuSans-30" d="M 2034 4250 
Q 1547 4250 1301 3770 
Q 1056 3291 1056 2328 
Q 1056 1369 1301 889 
Q 1547 409 2034 409 
Q 2525 409 2770 889 
Q 3016 1369 3016 2328 
Q 3016 3291 2770 3770 
Q 2525 4250 2034 4250 
z
M 2034 4750 
Q 2819 4750 3233 4129 
Q 3647 3509 3647 2328 
Q 3647 1150 3233 529 
Q 2819 -91 2034 -91 
Q 1250 -91 836 529 
Q 422 1150 422 2328 
Q 422 3509 836 4129 
Q 1250 4750 2034 4750 
z
" transform="scale(0.015625)"/>
        <path id="DejaVuSans-2d" d="M 313 2009 
L 1997 2009 
L 1997 1497 
L 313 1497 
L 313 2009 
z
" transform="scale(0.015625)"/>
        <path id="DejaVuSans-31" d="M 794 531 
L 1825 531 
L 1825 4091 
L 703 3866 
L 703 4441 
L 1819 4666 
L 2450 4666 
L 2450 531 
L 3481 531 
L 3481 0 
L 794 0 
L 794 531 
z
" transform="scale(0.015625)"/>
       </defs>
       <use xlink:href="#DejaVuSans-32"/>
       <use xlink:href="#DejaVuSans-30" x="63.623047"/>
       <use xlink:href="#DejaVuSans-32" x="127.246094"/>
       <use xlink:href="#DejaVuSans-30" x="190.869141"/>
       <use xlink:href="#DejaVuSans-2d" x="254.492188"/>
       <use xlink:href="#DejaVuSans-30" x="290.576172"/>
       <use xlink:href="#DejaVuSans-31" x="354.199219"/>
      </g>
     </g>
    </g>
    <g id="xtick_2">
     <g id="line2d_2">
      <g>
       <use xlink:href="#m16a5cfd6bd" x="208.041015" y="368.3955" style="stroke: #000000; stroke-width: 0.8"/>
      </g>
     </g>
     <g id="text_2">
      <!-- 2020-05 -->
      <g transform="translate(187.149608 382.993937)scale(0.1 -0.1)">
       <defs>
        <path id="DejaVuSans-35" d="M 691 4666 
L 3169 4666 
L 3169 4134 
L 1269 4134 
L 1269 2991 
Q 1406 3038 1543 3061 
Q 1681 3084 1819 3084 
Q 2600 3084 3056 2656 
Q 3513 2228 3513 1497 
Q 3513 744 3044 326 
Q 2575 -91 1722 -91 
Q 1428 -91 1123 -41 
Q 819 9 494 109 
L 494 744 
Q 775 591 1075 516 
Q 1375 441 1709 441 
Q 2250 441 2565 725 
Q 2881 1009 2881 1497 
Q 2881 1984 2565 2268 
Q 2250 2553 1709 2553 
Q 1456 2553 1204 2497 
Q 953 2441 691 2322 
L 691 4666 
z
" transform="scale(0.015625)"/>
       </defs>
       <use xlink:href="#DejaVuSans-32"/>
       <use xlink:href="#DejaVuSans-30" x="63.623047"/>
       <use xlink:href="#DejaVuSans-32" x="127.246094"/>
       <use xlink:href="#DejaVuSans-30" x="190.869141"/>
       <use xlink:href="#DejaVuSans-2d" x="254.492188"/>
       <use xlink:href="#DejaVuSans-30" x="290.576172"/>
       <use xlink:href="#DejaVuSans-35" x="354.199219"/>
      </g>
     </g>
    </g>
    <g id="xtick_3">
     <g id="line2d_3">
      <g>
       <use xlink:href="#m16a5cfd6bd" x="341.624341" y="368.3955" style="stroke: #000000; stroke-width: 0.8"/>
      </g>
     </g>
     <g id="text_3">
      <!-- 2020-09 -->
      <g transform="translate(320.732935 382.993937)scale(0.1 -0.1)">
       <defs>
        <path id="DejaVuSans-39" d="M 703 97 
L 703 672 
Q 941 559 1184 500 
Q 1428 441 1663 441 
Q 2288 441 2617 861 
Q 2947 1281 2994 2138 
Q 2813 1869 2534 1725 
Q 2256 1581 1919 1581 
Q 1219 1581 811 2004 
Q 403 2428 403 3163 
Q 403 3881 828 4315 
Q 1253 4750 1959 4750 
Q 2769 4750 3195 4129 
Q 3622 3509 3622 2328 
Q 3622 1225 3098 567 
Q 2575 -91 1691 -91 
Q 1453 -91 1209 -44 
Q 966 3 703 97 
z
M 1959 2075 
Q 2384 2075 2632 2365 
Q 2881 2656 2881 3163 
Q 2881 3666 2632 3958 
Q 2384 4250 1959 4250 
Q 1534 4250 1286 3958 
Q 1038 3666 1038 3163 
Q 1038 2656 1286 2365 
Q 1534 2075 1959 2075 
z
" transform="scale(0.015625)"/>
       </defs>
       <use xlink:href="#DejaVuSans-32"/>
       <use xlink:href="#DejaVuSans-30" x="63.623047"/>
       <use xlink:href="#DejaVuSans-32" x="127.246094"/>
       <use xlink:href="#DejaVuSans-30" x="190.869141"/>
       <use xlink:href="#DejaVuSans-2d" x="254.492188"/>
       <use xlink:href="#DejaVuSans-30" x="290.576172"/>
       <use xlink:href="#DejaVuSans-39" x="354.199219"/>
      </g>
     </g>
    </g>
    <g id="xtick_4">
     <g id="line2d_4">
      <g>
       <use xlink:href="#m16a5cfd6bd" x="474.121624" y="368.3955" style="stroke: #000000; stroke-width: 0.8"/>
      </g>
     </g>
     <g id="text_4">
      <!-- 2021-01 -->
      <g transform="translate(453.230218 382.993937)scale(0.1 -0.1)">
       <use xlink:href="#DejaVuSans-32"/>
       <use xlink:href="#DejaVuSans-30" x="63.623047"/>
       <use xlink:href="#DejaVuSans-32" x="127.246094"/>
       <use xlink:href="#DejaVuSans-31" x="190.869141"/>
       <use xlink:href="#DejaVuSans-2d" x="254.492188"/>
       <use xlink:href="#DejaVuSans-30" x="290.576172"/>
       <use xlink:href="#DejaVuSans-31" x="354.199219"/>
      </g>
     </g>
    </g>
    <g id="xtick_5">
     <g id="line2d_5">
      <g>
       <use xlink:href="#m16a5cfd6bd" x="604.446821" y="368.3955" style="stroke: #000000; stroke-width: 0.8"/>
      </g>
     </g>
     <g id="text_5">
      <!-- 2021-05 -->
      <g transform="translate(583.555415 382.993937)scale(0.1 -0.1)">
       <use xlink:href="#DejaVuSans-32"/>
       <use xlink:href="#DejaVuSans-30" x="63.623047"/>
       <use xlink:href="#DejaVuSans-32" x="127.246094"/>
       <use xlink:href="#DejaVuSans-31" x="190.869141"/>
       <use xlink:href="#DejaVuSans-2d" x="254.492188"/>
       <use xlink:href="#DejaVuSans-30" x="290.576172"/>
       <use xlink:href="#DejaVuSans-35" x="354.199219"/>
      </g>
     </g>
    </g>
    <g id="xtick_6">
     <g id="line2d_6">
      <g>
       <use xlink:href="#m16a5cfd6bd" x="738.030148" y="368.3955" style="stroke: #000000; stroke-width: 0.8"/>
      </g>
     </g>
     <g id="text_6">
      <!-- 2021-09 -->
      <g transform="translate(717.138741 382.993937)scale(0.1 -0.1)">
       <use xlink:href="#DejaVuSans-32"/>
       <use xlink:href="#DejaVuSans-30" x="63.623047"/>
       <use xlink:href="#DejaVuSans-32" x="127.246094"/>
       <use xlink:href="#DejaVuSans-31" x="190.869141"/>
       <use xlink:href="#DejaVuSans-2d" x="254.492188"/>
       <use xlink:href="#DejaVuSans-30" x="290.576172"/>
       <use xlink:href="#DejaVuSans-39" x="354.199219"/>
      </g>
     </g>
    </g>
    <g id="xtick_7">
     <g id="line2d_7">
      <g>
       <use xlink:href="#m16a5cfd6bd" x="870.527431" y="368.3955" style="stroke: #000000; stroke-width: 0.8"/>
      </g>
     </g>
     <g id="text_7">
      <!-- 2022-01 -->
      <g transform="translate(849.636025 382.993937)scale(0.1 -0.1)">
       <use xlink:href="#DejaVuSans-32"/>
       <use xlink:href="#DejaVuSans-30" x="63.623047"/>
       <use xlink:href="#DejaVuSans-32" x="127.246094"/>
       <use xlink:href="#DejaVuSans-32" x="190.869141"/>
       <use xlink:href="#DejaVuSans-2d" x="254.492188"/>
       <use xlink:href="#DejaVuSans-30" x="290.576172"/>
       <use xlink:href="#DejaVuSans-31" x="354.199219"/>
      </g>
     </g>
    </g>
    <g id="xtick_8">
     <g id="line2d_8">
      <g>
       <use xlink:href="#m16a5cfd6bd" x="1000.852628" y="368.3955" style="stroke: #000000; stroke-width: 0.8"/>
      </g>
     </g>
     <g id="text_8">
      <!-- 2022-05 -->
      <g transform="translate(979.961221 382.993937)scale(0.1 -0.1)">
       <use xlink:href="#DejaVuSans-32"/>
       <use xlink:href="#DejaVuSans-30" x="63.623047"/>
       <use xlink:href="#DejaVuSans-32" x="127.246094"/>
       <use xlink:href="#DejaVuSans-32" x="190.869141"/>
       <use xlink:href="#DejaVuSans-2d" x="254.492188"/>
       <use xlink:href="#DejaVuSans-30" x="290.576172"/>
       <use xlink:href="#DejaVuSans-35" x="354.199219"/>
      </g>
     </g>
    </g>
    <g id="xtick_9">
     <g id="line2d_9">
      <g>
       <use xlink:href="#m16a5cfd6bd" x="1134.435954" y="368.3955" style="stroke: #000000; stroke-width: 0.8"/>
      </g>
     </g>
     <g id="text_9">
      <!-- 2022-09 -->
      <g transform="translate(1113.544548 382.993937)scale(0.1 -0.1)">
       <use xlink:href="#DejaVuSans-32"/>
       <use xlink:href="#DejaVuSans-30" x="63.623047"/>
       <use xlink:href="#DejaVuSans-32" x="127.246094"/>
       <use xlink:href="#DejaVuSans-32" x="190.869141"/>
       <use xlink:href="#DejaVuSans-2d" x="254.492188"/>
       <use xlink:href="#DejaVuSans-30" x="290.576172"/>
       <use xlink:href="#DejaVuSans-39" x="354.199219"/>
      </g>
     </g>
    </g>
    <g id="xtick_10">
     <g id="line2d_10">
      <g>
       <use xlink:href="#m16a5cfd6bd" x="1266.933237" y="368.3955" style="stroke: #000000; stroke-width: 0.8"/>
      </g>
     </g>
     <g id="text_10">
      <!-- 2023-01 -->
      <g transform="translate(1246.041831 382.993937)scale(0.1 -0.1)">
       <defs>
        <path id="DejaVuSans-33" d="M 2597 2516 
Q 3050 2419 3304 2112 
Q 3559 1806 3559 1356 
Q 3559 666 3084 287 
Q 2609 -91 1734 -91 
Q 1441 -91 1130 -33 
Q 819 25 488 141 
L 488 750 
Q 750 597 1062 519 
Q 1375 441 1716 441 
Q 2309 441 2620 675 
Q 2931 909 2931 1356 
Q 2931 1769 2642 2001 
Q 2353 2234 1838 2234 
L 1294 2234 
L 1294 2753 
L 1863 2753 
Q 2328 2753 2575 2939 
Q 2822 3125 2822 3475 
Q 2822 3834 2567 4026 
Q 2313 4219 1838 4219 
Q 1578 4219 1281 4162 
Q 984 4106 628 3988 
L 628 4550 
Q 988 4650 1302 4700 
Q 1616 4750 1894 4750 
Q 2613 4750 3031 4423 
Q 3450 4097 3450 3541 
Q 3450 3153 3228 2886 
Q 3006 2619 2597 2516 
z
" transform="scale(0.015625)"/>
       </defs>
       <use xlink:href="#DejaVuSans-32"/>
       <use xlink:href="#DejaVuSans-30" x="63.623047"/>
       <use xlink:href="#DejaVuSans-32" x="127.246094"/>
       <use xlink:href="#DejaVuSans-33" x="190.869141"/>
       <use xlink:href="#DejaVuSans-2d" x="254.492188"/>
       <use xlink:href="#DejaVuSans-30" x="290.576172"/>
       <use xlink:href="#DejaVuSans-31" x="354.199219"/>
      </g>
     </g>
    </g>
   </g>
   <g id="matplotlib.axis_2">
    <g id="ytick_1">
     <g id="line2d_11">
      <defs>
       <path id="m3ef7043e26" d="M 0 0 
L -3.5 0 
" style="stroke: #000000; stroke-width: 0.8"/>
      </defs>
      <g>
       <use xlink:href="#m3ef7043e26" x="39.65" y="351.809437" style="stroke: #000000; stroke-width: 0.8"/>
      </g>
     </g>
     <g id="text_11">
      <!-- 0 -->
      <g transform="translate(26.2875 355.608655)scale(0.1 -0.1)">
       <use xlink:href="#DejaVuSans-30"/>
      </g>
     </g>
    </g>
    <g id="ytick_2">
     <g id="line2d_12">
      <g>
       <use xlink:href="#m3ef7043e26" x="39.65" y="302.940658" style="stroke: #000000; stroke-width: 0.8"/>
      </g>
     </g>
     <g id="text_12">
      <!-- 1000 -->
      <g transform="translate(7.2 306.739877)scale(0.1 -0.1)">
       <use xlink:href="#DejaVuSans-31"/>
       <use xlink:href="#DejaVuSans-30" x="63.623047"/>
       <use xlink:href="#DejaVuSans-30" x="127.246094"/>
       <use xlink:href="#DejaVuSans-30" x="190.869141"/>
      </g>
     </g>
    </g>
    <g id="ytick_3">
     <g id="line2d_13">
      <g>
       <use xlink:href="#m3ef7043e26" x="39.65" y="254.07188" style="stroke: #000000; stroke-width: 0.8"/>
      </g>
     </g>
     <g id="text_13">
      <!-- 2000 -->
      <g transform="translate(7.2 257.871099)scale(0.1 -0.1)">
       <use xlink:href="#DejaVuSans-32"/>
       <use xlink:href="#DejaVuSans-30" x="63.623047"/>
       <use xlink:href="#DejaVuSans-30" x="127.246094"/>
       <use xlink:href="#DejaVuSans-30" x="190.869141"/>
      </g>
     </g>
    </g>
    <g id="ytick_4">
     <g id="line2d_14">
      <g>
       <use xlink:href="#m3ef7043e26" x="39.65" y="205.203102" style="stroke: #000000; stroke-width: 0.8"/>
      </g>
     </g>
     <g id="text_14">
      <!-- 3000 -->
      <g transform="translate(7.2 209.002321)scale(0.1 -0.1)">
       <use xlink:href="#DejaVuSans-33"/>
       <use xlink:href="#DejaVuSans-30" x="63.623047"/>
       <use xlink:href="#DejaVuSans-30" x="127.246094"/>
       <use xlink:href="#DejaVuSans-30" x="190.869141"/>
      </g>
     </g>
    </g>
    <g id="ytick_5">
     <g id="line2d_15">
      <g>
       <use xlink:href="#m3ef7043e26" x="39.65" y="156.334324" style="stroke: #000000; stroke-width: 0.8"/>
      </g>
     </g>
     <g id="text_15">
      <!-- 4000 -->
      <g transform="translate(7.2 160.133542)scale(0.1 -0.1)">
       <defs>
        <path id="DejaVuSans-34" d="M 2419 4116 
L 825 1625 
L 2419 1625 
L 2419 4116 
z
M 2253 4666 
L 3047 4666 
L 3047 1625 
L 3713 1625 
L 3713 1100 
L 3047 1100 
L 3047 0 
L 2419 0 
L 2419 1100 
L 313 1100 
L 313 1709 
L 2253 4666 
z
" transform="scale(0.015625)"/>
       </defs>
       <use xlink:href="#DejaVuSans-34"/>
       <use xlink:href="#DejaVuSans-30" x="63.623047"/>
       <use xlink:href="#DejaVuSans-30" x="127.246094"/>
       <use xlink:href="#DejaVuSans-30" x="190.869141"/>
      </g>
     </g>
    </g>
    <g id="ytick_6">
     <g id="line2d_16">
      <g>
       <use xlink:href="#m3ef7043e26" x="39.65" y="107.465545" style="stroke: #000000; stroke-width: 0.8"/>
      </g>
     </g>
     <g id="text_16">
      <!-- 5000 -->
      <g transform="translate(7.2 111.264764)scale(0.1 -0.1)">
       <use xlink:href="#DejaVuSans-35"/>
       <use xlink:href="#DejaVuSans-30" x="63.623047"/>
       <use xlink:href="#DejaVuSans-30" x="127.246094"/>
       <use xlink:href="#DejaVuSans-30" x="190.869141"/>
      </g>
     </g>
    </g>
    <g id="ytick_7">
     <g id="line2d_17">
      <g>
       <use xlink:href="#m3ef7043e26" x="39.65" y="58.596767" style="stroke: #000000; stroke-width: 0.8"/>
      </g>
     </g>
     <g id="text_17">
      <!-- 6000 -->
      <g transform="translate(7.2 62.395986)scale(0.1 -0.1)">
       <defs>
        <path id="DejaVuSans-36" d="M 2113 2584 
Q 1688 2584 1439 2293 
Q 1191 2003 1191 1497 
Q 1191 994 1439 701 
Q 1688 409 2113 409 
Q 2538 409 2786 701 
Q 3034 994 3034 1497 
Q 3034 2003 2786 2293 
Q 2538 2584 2113 2584 
z
M 3366 4563 
L 3366 3988 
Q 3128 4100 2886 4159 
Q 2644 4219 2406 4219 
Q 1781 4219 1451 3797 
Q 1122 3375 1075 2522 
Q 1259 2794 1537 2939 
Q 1816 3084 2150 3084 
Q 2853 3084 3261 2657 
Q 3669 2231 3669 1497 
Q 3669 778 3244 343 
Q 2819 -91 2113 -91 
Q 1303 -91 875 529 
Q 447 1150 447 2328 
Q 447 3434 972 4092 
Q 1497 4750 2381 4750 
Q 2619 4750 2861 4703 
Q 3103 4656 3366 4563 
z
" transform="scale(0.015625)"/>
       </defs>
       <use xlink:href="#DejaVuSans-36"/>
       <use xlink:href="#DejaVuSans-30" x="63.623047"/>
       <use xlink:href="#DejaVuSans-30" x="127.246094"/>
       <use xlink:href="#DejaVuSans-30" x="190.869141"/>
      </g>
     </g>
    </g>
   </g>
   <g id="line2d_18">
    <path d="M 100.522727 351.809437 
L 159.169066 351.760568 
L 160.255109 351.565093 
L 161.341152 351.809437 
L 163.513239 351.320749 
L 164.599282 351.418486 
L 165.685326 351.320749 
L 166.771369 351.613962 
L 167.857412 351.467355 
L 168.943456 351.125274 
L 170.029499 351.565093 
L 171.115542 350.88093 
L 172.201585 350.734324 
L 173.287629 350.832061 
L 174.373672 351.613962 
L 175.459715 349.903554 
L 176.545759 351.320749 
L 177.631802 350.538848 
L 178.717845 351.613962 
L 179.803889 350.929799 
L 180.889932 351.516224 
L 181.975975 351.027536 
L 183.062018 350.734324 
L 184.148062 351.223011 
L 185.234105 350.978667 
L 186.320148 351.174143 
L 187.406192 351.565093 
L 188.492235 350.832061 
L 189.578278 350.343373 
L 190.664322 350.147898 
L 191.750365 350.099029 
L 192.836408 349.317129 
L 193.922452 349.414867 
L 195.008495 347.65559 
L 196.094538 349.952423 
L 197.180581 351.809437 
L 198.266625 341.644731 
L 199.352668 346.531609 
L 200.438711 346.238396 
L 201.524755 347.557853 
L 202.610798 347.362378 
L 203.696841 348.681835 
L 204.782885 342.280025 
L 205.868928 342.231156 
L 206.954971 341.840206 
L 208.041015 340.178667 
L 209.127058 341.156043 
L 210.213101 343.501744 
L 211.299144 339.885455 
L 212.385188 344.576857 
L 213.471231 342.280025 
L 214.557274 333.190432 
L 215.643318 332.946088 
L 216.729361 340.129799 
L 217.815404 339.68998 
L 218.901448 339.983192 
L 219.987491 344.674595 
L 221.073534 342.817581 
L 222.159577 342.4755 
L 223.245621 337.735229 
L 224.331664 343.452876 
L 225.417707 335.29179 
L 226.503751 341.253781 
L 227.589794 340.765093 
L 228.675837 338.321654 
L 229.761881 335.242921 
L 230.847924 339.836586 
L 231.933967 338.85921 
L 233.020011 336.513509 
L 234.106054 340.618486 
L 235.192097 338.321654 
L 236.27814 332.799482 
L 237.364184 342.915319 
L 238.450227 332.897219 
L 239.53627 324.785002 
L 240.622314 336.806722 
L 241.708357 331.480025 
L 242.7944 340.032061 
L 243.880444 334.851971 
L 244.966487 334.705364 
L 246.05253 335.780477 
L 247.138574 332.799482 
L 248.224617 339.445636 
L 249.31066 336.415771 
L 250.396703 319.409437 
L 251.482747 331.822106 
L 252.56879 318.529799 
L 253.654833 321.168713 
L 254.740877 327.326179 
L 255.82692 332.115319 
L 256.912963 323.807627 
L 257.999007 327.863735 
L 259.08505 323.123464 
L 260.171093 315.402197 
L 261.257136 319.213962 
L 262.34318 319.507174 
L 263.429223 330.502649 
L 264.515266 318.823011 
L 265.60131 329.720749 
L 266.687353 320.0936 
L 267.773396 322.781382 
L 269.945483 313.740658 
L 271.031526 327.863735 
L 272.11757 324.149708 
L 273.203613 324.394052 
L 274.289656 313.203102 
L 276.461743 329.623011 
L 277.547786 322.341563 
L 278.633829 325.224821 
L 279.719873 323.709889 
L 280.805916 327.228441 
L 281.891959 329.329799 
L 282.978003 327.423916 
L 284.064046 323.709889 
L 285.150089 319.360568 
L 286.236133 323.905364 
L 287.322176 322.732514 
L 288.408219 329.183192 
L 289.494262 320.386812 
L 290.580306 322.732514 
L 291.666349 322.48817 
L 292.752392 319.898124 
L 293.838436 324.638396 
L 294.924479 324.345183 
L 296.010522 323.66102 
L 297.096566 325.27369 
L 298.182609 322.292695 
L 299.268652 322.927989 
L 300.354695 330.404912 
L 301.440739 324.687265 
L 302.526782 320.142468 
L 303.612825 321.315319 
L 304.698869 332.06645 
L 305.784912 328.303554 
L 306.870955 329.232061 
L 309.043042 336.953328 
L 310.129085 337.735229 
L 311.215129 336.953328 
L 312.301172 329.476405 
L 313.387215 334.509889 
L 314.473258 330.160568 
L 315.559302 329.67188 
L 316.645345 330.453781 
L 317.731388 337.637491 
L 318.817432 331.137943 
L 319.903475 329.67188 
L 320.989518 333.581382 
L 322.075562 335.731609 
L 323.161605 335.927084 
L 324.247648 337.246541 
L 325.333692 331.431156 
L 326.419735 331.773238 
L 327.505778 322.830251 
L 328.591821 328.547898 
L 329.677865 335.194052 
L 330.763908 322.439301 
L 331.849951 336.07369 
L 332.935995 336.122559 
L 334.022038 339.494505 
L 335.108081 341.009437 
L 336.194125 337.344278 
L 337.280168 343.990432 
L 338.366211 339.592242 
L 339.452254 345.065545 
L 340.538298 344.821201 
L 341.624341 340.129799 
L 342.710384 341.253781 
L 343.796428 345.700839 
L 344.882471 344.234776 
L 345.968514 343.892695 
L 347.054558 346.922559 
L 348.140601 344.234776 
L 349.226644 337.344278 
L 350.312688 343.208532 
L 351.398731 342.182287 
L 352.484774 342.622106 
L 353.570817 343.990432 
L 354.656861 347.948803 
L 355.742904 345.358758 
L 356.828947 347.411247 
L 357.914991 345.651971 
L 359.001034 345.407627 
L 360.087077 341.009437 
L 361.173121 342.573238 
L 362.259164 347.069165 
L 363.345207 342.280025 
L 364.431251 343.208532 
L 365.517294 346.385002 
L 366.603337 345.700839 
L 367.68938 341.400387 
L 368.775424 345.163283 
L 369.861467 345.651971 
L 370.94751 345.163283 
L 372.033554 342.670975 
L 373.119597 341.986812 
L 374.20564 344.332514 
L 375.291684 345.651971 
L 376.377727 343.990432 
L 377.46377 348.975048 
L 378.549813 345.945183 
L 379.635857 346.042921 
L 380.7219 344.234776 
L 381.807943 346.775952 
L 382.893987 344.430251 
L 383.98003 346.385002 
L 385.066073 343.843826 
L 386.152117 343.794957 
L 387.23816 340.813962 
L 388.324203 343.061925 
L 389.410247 344.576857 
L 390.49629 341.449256 
L 391.582333 346.287265 
L 392.668376 345.309889 
L 393.75442 346.042921 
L 394.840463 348.290885 
L 395.926506 350.001292 
L 397.01255 345.065545 
L 398.098593 348.046541 
L 399.184636 349.463735 
L 400.27068 348.779572 
L 401.356723 345.994052 
L 402.442766 346.287265 
L 403.52881 344.625726 
L 404.614853 344.47912 
L 405.700896 343.501744 
L 406.786939 343.892695 
L 407.872983 346.385002 
L 408.959026 348.290885 
L 410.045069 345.114414 
L 411.131113 344.234776 
L 412.217156 343.013057 
L 413.303199 340.911699 
L 414.389243 348.926179 
L 415.475286 337.148803 
L 416.561329 347.215771 
L 417.647372 344.381382 
L 418.733416 343.013057 
L 419.819459 341.449256 
L 420.905502 344.185907 
L 421.991546 346.336133 
L 423.077589 344.381382 
L 424.163632 344.137038 
L 425.249676 344.381382 
L 426.335719 340.276405 
L 427.421762 344.674595 
L 428.507806 344.821201 
L 429.593849 339.787717 
L 431.765935 349.072785 
L 432.851979 343.599482 
L 433.938022 342.133419 
L 435.024065 343.550613 
L 436.110109 339.787717 
L 437.196152 346.433871 
L 438.282195 347.802197 
L 439.368239 344.723464 
L 440.454282 338.07731 
L 441.540325 345.847446 
L 442.626369 335.047446 
L 443.712412 335.975952 
L 444.798455 336.660115 
L 445.884498 336.269165 
L 446.970542 332.750613 
L 448.056585 324.931609 
L 449.142628 328.645636 
L 450.228672 318.823011 
L 451.314715 312.909889 
L 452.400758 321.6574 
L 454.572845 342.08455 
L 455.658888 314.766903 
L 456.744931 306.361473 
L 457.830975 295.854686 
L 458.917018 312.421201 
L 460.003061 306.850161 
L 461.089105 327.326179 
L 462.175148 334.412152 
L 463.261191 302.989527 
L 464.347235 296.441111 
L 465.433278 300.937038 
L 466.519321 313.496314 
L 467.605365 311.297219 
L 468.691408 310.8574 
L 469.777451 332.408532 
L 470.863494 315.206722 
L 471.949538 302.158758 
L 473.035581 301.425726 
L 474.121624 303.918034 
L 475.207668 323.66102 
L 477.379754 289.697219 
L 478.465798 285.641111 
L 479.551841 270.49179 
L 480.637884 275.329799 
L 481.723927 276.356043 
L 482.809971 274.352423 
L 483.896014 301.767808 
L 484.982057 291.016676 
L 486.068101 289.746088 
L 487.154144 283.490885 
L 488.240187 279.532514 
L 489.326231 260.571428 
L 490.412274 273.717129 
L 491.498317 281.242921 
L 492.584361 272.788622 
L 493.670404 288.231156 
L 494.756447 284.07731 
L 495.84249 255.831156 
L 496.928534 279.337038 
L 498.014577 231.396767 
L 499.10062 304.699934 
L 500.186664 281.927084 
L 501.272707 288.133419 
L 502.35875 260.86464 
L 503.444794 309.586812 
L 504.530837 271.175952 
L 505.61688 259.789527 
L 506.702924 318.334324 
L 507.788967 318.774143 
L 508.87501 271.957853 
L 509.961053 296.196767 
L 511.047097 286.325274 
L 512.13314 272.446541 
L 513.219183 274.205817 
L 514.305227 327.081835 
L 515.39127 320.386812 
L 516.477313 300.204007 
L 517.563357 296.538848 
L 518.6494 305.970523 
L 519.735443 302.696314 
L 520.821486 295.952423 
L 521.90753 326.397672 
L 522.993573 315.451066 
L 524.079616 284.956948 
L 525.16566 299.373238 
L 527.337746 319.458305 
L 528.42379 320.289075 
L 529.509833 326.348803 
L 530.595876 325.322559 
L 531.68192 323.905364 
L 532.767963 319.800387 
L 533.854006 320.826631 
L 534.940049 322.48817 
L 536.026093 335.145183 
L 537.112136 340.08093 
L 539.284223 328.401292 
L 540.370266 329.134324 
L 541.456309 317.063735 
L 542.542353 333.67912 
L 543.628396 342.280025 
L 544.714439 338.663735 
L 545.800483 332.261925 
L 546.886526 334.900839 
L 547.972569 332.555138 
L 549.058612 337.784097 
L 550.144656 332.310794 
L 551.230699 341.791337 
L 552.316742 345.945183 
L 553.402786 340.178667 
L 554.488829 343.061925 
L 555.574872 342.670975 
L 556.660916 344.576857 
L 558.833002 346.336133 
L 559.919045 347.606722 
L 561.005089 345.407627 
L 562.091132 341.644731 
L 563.177175 346.824821 
L 564.263219 347.069165 
L 565.349262 346.287265 
L 566.435305 346.87369 
L 567.521349 346.727084 
L 568.607392 349.463735 
L 569.693435 345.896314 
L 570.779479 345.505364 
L 571.865522 346.629346 
L 572.951565 348.584097 
L 574.037608 349.365998 
L 575.123652 347.802197 
L 576.209695 345.212152 
L 577.295738 348.975048 
L 578.381782 346.433871 
L 579.467825 347.753328 
L 580.553868 348.339753 
L 581.639912 347.704459 
L 582.725955 348.730704 
L 583.811998 349.952423 
L 584.898042 348.193147 
L 585.984085 347.460115 
L 587.070128 347.899934 
L 588.156171 348.535229 
L 589.242215 348.87731 
L 590.328258 350.538848 
L 591.414301 348.388622 
L 592.500345 345.945183 
L 593.586388 348.632966 
L 594.672431 346.922559 
L 595.758475 349.610342 
L 596.844518 349.317129 
L 597.930561 350.099029 
L 599.016604 350.001292 
L 600.102648 344.185907 
L 601.188691 347.851066 
L 602.274734 348.779572 
L 603.360778 349.121654 
L 604.446821 351.809437 
L 605.532864 349.708079 
L 606.618908 349.561473 
L 607.704951 351.027536 
L 608.790994 348.975048 
L 609.877038 350.441111 
L 610.963081 349.903554 
L 612.049124 350.343373 
L 613.135167 349.414867 
L 615.307254 349.512604 
L 616.393297 349.65921 
L 617.479341 349.219391 
L 618.565384 349.414867 
L 619.651427 349.805817 
L 620.737471 351.467355 
L 621.823514 348.437491 
L 622.909557 351.809437 
L 623.995601 348.193147 
L 625.081644 349.414867 
L 627.25373 350.099029 
L 628.339774 349.854686 
L 629.425817 349.756948 
L 630.51186 350.001292 
L 631.597904 349.463735 
L 632.683947 349.610342 
L 633.76999 348.730704 
L 634.856034 350.294505 
L 635.942077 350.343373 
L 637.02812 341.889075 
L 638.114163 351.027536 
L 639.200207 350.538848 
L 640.28625 345.847446 
L 641.372293 349.463735 
L 642.458337 350.538848 
L 643.54438 351.27188 
L 644.630423 349.414867 
L 645.716467 346.824821 
L 646.80251 348.681835 
L 647.888553 351.809437 
L 648.974597 348.437491 
L 650.06064 351.418486 
L 651.146683 351.467355 
L 653.31877 350.978667 
L 654.404813 351.418486 
L 655.490856 349.903554 
L 656.5769 351.174143 
L 657.662943 349.317129 
L 658.748986 351.809437 
L 659.83503 347.606722 
L 660.921073 349.903554 
L 662.007116 349.65921 
L 663.09316 350.538848 
L 664.179203 350.392242 
L 665.265246 350.099029 
L 666.351289 351.711699 
L 667.437333 348.632966 
L 668.523376 351.27188 
L 669.609419 348.144278 
L 670.695463 348.193147 
L 671.781506 349.854686 
L 672.867549 348.339753 
L 673.953593 349.072785 
L 675.039636 349.365998 
L 676.125679 347.362378 
L 677.211722 346.433871 
L 679.383809 342.719844 
L 681.555896 351.223011 
L 682.641939 343.941563 
L 683.727982 344.283645 
L 684.814026 349.463735 
L 685.900069 344.039301 
L 686.986112 345.358758 
L 688.072156 345.798577 
L 689.158199 341.889075 
L 690.244242 344.674595 
L 691.330285 341.742468 
L 692.416329 351.809437 
L 693.502372 331.186812 
L 694.588415 351.809437 
L 695.674459 323.025726 
L 696.760502 341.253781 
L 697.846545 341.400387 
L 698.932589 332.06645 
L 700.018632 325.66464 
L 701.104675 324.540658 
L 702.190719 322.976857 
L 704.362805 331.919844 
L 705.448848 330.111699 
L 706.534892 327.130704 
L 707.620935 315.304459 
L 708.706978 324.149708 
L 709.793022 324.198577 
L 710.879065 328.694505 
L 711.965108 328.792242 
L 713.051152 331.186812 
L 715.223238 313.203102 
L 716.309281 315.011247 
L 717.395325 320.728894 
L 718.481368 319.311699 
L 719.567411 325.371428 
L 720.653455 323.27007 
L 721.739498 334.363283 
L 722.825541 351.809437 
L 723.911585 262.721654 
L 724.997628 336.953328 
L 726.083671 351.809437 
L 727.169715 280.851971 
L 728.255758 324.198577 
L 729.341801 319.800387 
L 730.427844 320.680025 
L 731.513888 311.004007 
L 732.599931 321.608532 
L 733.685974 320.044731 
L 734.772018 334.118939 
L 735.858061 329.329799 
L 736.944104 321.217581 
L 738.030148 323.367808 
L 739.116191 320.973238 
L 740.202234 330.111699 
L 741.288278 304.699934 
L 742.374321 329.378667 
L 743.460364 333.28817 
L 744.546407 322.634776 
L 745.632451 324.49179 
L 746.718494 316.281835 
L 747.804537 329.036586 
L 748.890581 325.078215 
L 749.976624 333.972333 
L 751.062667 332.897219 
L 752.148711 326.446541 
L 753.234754 337.197672 
L 754.320797 351.809437 
L 755.40684 305.970523 
L 756.492884 335.389527 
L 757.578927 343.599482 
L 758.66497 332.604007 
L 759.751014 326.739753 
L 760.837057 333.385907 
L 761.9231 330.649256 
L 763.009144 328.499029 
L 764.095187 341.546993 
L 766.267274 337.344278 
L 767.353317 337.393147 
L 768.43936 330.453781 
L 770.611447 343.941563 
L 771.69749 345.749708 
L 772.783533 348.193147 
L 773.869577 344.918939 
L 774.95562 338.028441 
L 776.041663 351.809437 
L 777.127707 322.194957 
L 778.21375 336.562378 
L 779.299793 345.016676 
L 780.385837 348.09541 
L 781.47188 337.930704 
L 782.557923 351.760568 
L 783.643966 331.040206 
L 784.73001 351.809437 
L 785.816053 332.604007 
L 786.902096 333.434776 
L 787.98814 345.700839 
L 789.074183 347.460115 
L 790.160226 344.039301 
L 791.24627 343.648351 
L 792.332313 339.738848 
L 793.418356 343.208532 
L 794.504399 344.039301 
L 795.590443 343.746088 
L 796.676486 317.063735 
L 797.762529 344.039301 
L 798.848573 343.697219 
L 799.934616 342.915319 
L 801.020659 345.945183 
L 802.106703 347.460115 
L 803.192746 348.193147 
L 804.278789 347.411247 
L 805.364833 346.971428 
L 806.450876 341.595862 
L 807.536919 347.557853 
L 808.622962 348.632966 
L 809.709006 346.140658 
L 810.795049 347.606722 
L 811.881092 349.26826 
L 812.967136 348.681835 
L 814.053179 348.632966 
L 815.139222 349.219391 
L 816.225266 345.505364 
L 817.311309 349.317129 
L 818.397352 350.832061 
L 819.483396 350.343373 
L 820.569439 351.809437 
L 821.655482 340.765093 
L 822.741525 348.828441 
L 823.827569 350.685455 
L 824.913612 349.610342 
L 825.999655 349.023916 
L 827.085699 351.809437 
L 828.171742 347.508984 
L 829.257785 351.809437 
L 830.343829 341.742468 
L 831.429872 351.809437 
L 832.515915 349.805817 
L 833.601958 348.975048 
L 834.688002 345.407627 
L 835.774045 346.678215 
L 837.946132 351.809437 
L 839.032175 339.934324 
L 840.118218 349.170523 
L 841.204262 349.121654 
L 842.290305 343.648351 
L 843.376348 346.580477 
L 844.462392 338.712604 
L 845.548435 351.809437 
L 846.634478 288.915319 
L 847.720521 321.901744 
L 848.806565 331.382287 
L 849.892608 351.809437 
L 850.978651 297.320749 
L 852.064695 282.220296 
L 853.150738 300.448351 
L 854.236781 274.401292 
L 855.322825 351.809437 
L 856.408868 311.346088 
L 857.494911 265.213962 
L 858.580955 351.809437 
L 859.666998 50.8755 
L 860.753041 257.004007 
L 861.839084 285.543373 
L 862.925128 288.035681 
L 864.011171 276.209437 
L 865.097214 309.831156 
L 866.183258 322.537038 
L 867.269301 284.956948 
L 868.355344 296.783192 
L 869.441388 351.809437 
L 870.527431 285.152423 
L 871.613474 351.809437 
L 872.699517 291.065545 
L 873.785561 330.8936 
L 874.871604 309.977762 
L 875.957647 313.154233 
L 877.043691 312.030251 
L 878.129734 314.375952 
L 879.215777 325.566903 
L 880.301821 331.28455 
L 881.387864 331.186812 
L 882.473907 330.698124 
L 883.559951 331.137943 
L 884.645994 351.809437 
L 885.732037 321.559663 
L 886.81808 337.099934 
L 887.904124 339.641111 
L 888.990167 343.843826 
L 890.07621 340.569618 
L 891.162254 351.809437 
L 892.248297 334.265545 
L 893.33434 350.392242 
L 894.420384 340.667355 
L 895.506427 340.032061 
L 896.59247 339.592242 
L 897.678514 348.144278 
L 898.764557 351.809437 
L 899.8506 344.039301 
L 902.022687 350.734324 
L 903.10873 344.08817 
L 904.194773 344.039301 
L 905.280817 348.632966 
L 906.36686 351.809437 
L 907.452903 345.212152 
L 908.538947 344.723464 
L 909.62499 349.756948 
L 910.711033 349.219391 
L 911.797076 348.975048 
L 912.88312 350.001292 
L 913.969163 351.809437 
L 915.055206 349.463735 
L 916.14125 349.121654 
L 917.227293 349.952423 
L 918.313336 351.809437 
L 919.39938 346.531609 
L 920.485423 351.174143 
L 921.571466 351.809437 
L 922.65751 347.704459 
L 923.743553 350.734324 
L 924.829596 351.809437 
L 925.915639 349.365998 
L 927.001683 348.926179 
L 928.087726 351.809437 
L 929.173769 348.09541 
L 930.259813 351.809437 
L 931.345856 348.242016 
L 932.431899 350.636586 
L 933.517943 350.099029 
L 934.603986 351.320749 
L 935.690029 350.441111 
L 936.776073 351.418486 
L 937.862116 350.294505 
L 938.948159 351.809437 
L 940.034202 351.66283 
L 941.120246 350.88093 
L 942.206289 346.042921 
L 943.292332 351.809437 
L 944.378376 347.704459 
L 945.464419 350.196767 
L 946.550462 348.926179 
L 947.636506 351.809437 
L 948.722549 350.050161 
L 949.808592 351.223011 
L 950.894635 351.809437 
L 951.980679 347.362378 
L 953.066722 351.27188 
L 954.152765 351.809437 
L 956.324852 351.809437 
L 957.410895 347.557853 
L 958.496939 349.170523 
L 959.582982 351.809437 
L 960.669025 351.809437 
L 961.755069 349.26826 
L 962.841112 351.809437 
L 963.927155 349.610342 
L 965.013198 351.809437 
L 966.099242 348.193147 
L 967.185285 351.809437 
L 968.271328 349.219391 
L 969.357372 351.809437 
L 971.529458 351.809437 
L 972.615502 349.463735 
L 973.701545 351.809437 
L 974.787588 348.926179 
L 975.873631 351.809437 
L 976.959675 350.294505 
L 978.045718 351.809437 
L 979.131761 350.48998 
L 980.217805 350.343373 
L 981.303848 353.2755 
L 982.389891 351.174143 
L 983.475935 351.809437 
L 984.561978 351.711699 
L 986.734065 351.809437 
L 987.820108 350.734324 
L 988.906151 351.809437 
L 989.992194 351.369618 
L 991.078238 351.516224 
L 992.164281 351.809437 
L 996.508454 351.809437 
L 997.594498 350.294505 
L 998.680541 351.809437 
L 999.766584 351.809437 
L 1000.852628 350.001292 
L 1001.938671 351.809437 
L 1003.024714 351.174143 
L 1004.110757 351.809437 
L 1009.540974 351.809437 
L 1010.627017 350.050161 
L 1011.713061 351.809437 
L 1012.799104 350.147898 
L 1013.885147 351.809437 
L 1014.97119 350.685455 
L 1016.057234 351.809437 
L 1018.22932 351.809437 
L 1019.315364 350.343373 
L 1020.401407 350.099029 
L 1021.48745 351.809437 
L 1022.573494 351.174143 
L 1023.659537 351.809437 
L 1024.74558 351.809437 
L 1025.831624 350.099029 
L 1026.917667 351.809437 
L 1028.00371 350.245636 
L 1029.089753 350.636586 
L 1030.175797 351.809437 
L 1034.51997 351.809437 
L 1035.606013 347.65559 
L 1036.692057 351.809437 
L 1037.7781 350.099029 
L 1038.864143 351.809437 
L 1039.950187 351.809437 
L 1041.03623 347.948803 
L 1042.122273 351.809437 
L 1043.208316 350.001292 
L 1044.29436 351.809437 
L 1045.380403 347.508984 
L 1046.466446 351.809437 
L 1047.55249 351.809437 
L 1048.638533 349.26826 
L 1049.724576 351.809437 
L 1050.81062 348.730704 
L 1051.896663 351.809437 
L 1052.982706 346.629346 
L 1054.068749 351.809437 
L 1055.154793 351.809437 
L 1056.240836 345.065545 
L 1057.326879 351.809437 
L 1059.498966 351.809437 
L 1060.585009 339.738848 
L 1061.671053 351.809437 
L 1064.929183 351.809437 
L 1066.015226 335.585002 
L 1067.101269 351.809437 
L 1068.187312 334.851971 
L 1069.273356 351.809437 
L 1074.703572 351.809437 
L 1075.789616 308.804912 
L 1076.875659 351.809437 
L 1077.961702 351.809437 
L 1079.047746 334.363283 
L 1080.133789 351.809437 
L 1081.219832 348.87731 
L 1082.305875 351.809437 
L 1083.391919 348.242016 
L 1084.477962 351.809437 
L 1085.564005 351.809437 
L 1086.650049 328.450161 
L 1087.736092 351.809437 
L 1088.822135 340.325274 
L 1089.908179 351.809437 
L 1090.994222 321.559663 
L 1092.080265 351.809437 
L 1093.166308 351.809437 
L 1094.252352 331.040206 
L 1095.338395 351.809437 
L 1096.424438 341.400387 
L 1097.510482 351.809437 
L 1100.768612 351.809437 
L 1101.854655 327.570523 
L 1102.940698 351.809437 
L 1106.198828 351.809437 
L 1107.284871 331.6755 
L 1108.370915 351.809437 
L 1110.543001 351.809437 
L 1111.629045 326.544278 
L 1112.715088 351.809437 
L 1113.801131 346.042921 
L 1114.887175 351.809437 
L 1115.973218 351.809437 
L 1117.059261 344.772333 
L 1118.145305 351.809437 
L 1119.231348 347.704459 
L 1120.317391 351.809437 
L 1121.403434 343.794957 
L 1122.489478 351.809437 
L 1123.575521 351.809437 
L 1124.661564 343.110794 
L 1125.747608 351.809437 
L 1126.833651 340.47188 
L 1127.919694 351.809437 
L 1129.005738 347.65559 
L 1130.091781 351.809437 
L 1131.177824 351.809437 
L 1132.263867 345.994052 
L 1133.349911 351.809437 
L 1134.435954 343.599482 
L 1135.521997 351.809437 
L 1136.608041 343.355138 
L 1137.694084 351.809437 
L 1138.780127 351.809437 
L 1139.866171 344.625726 
L 1140.952214 351.809437 
L 1142.038257 337.881835 
L 1143.124301 351.809437 
L 1144.210344 351.809437 
L 1145.296387 344.430251 
L 1146.38243 351.809437 
L 1147.468474 343.648351 
L 1148.554517 351.809437 
L 1149.64056 345.603102 
L 1150.726604 351.809437 
L 1151.812647 342.573238 
L 1152.89869 351.809437 
L 1153.984734 351.809437 
L 1155.070777 348.144278 
L 1156.15682 351.809437 
L 1157.242864 347.802197 
L 1158.328907 351.809437 
L 1159.41495 347.118034 
L 1160.500993 351.809437 
L 1161.587037 351.809437 
L 1162.67308 345.456495 
L 1163.759123 351.809437 
L 1164.845167 348.584097 
L 1165.93121 351.809437 
L 1167.017253 349.414867 
L 1168.103297 351.809437 
L 1169.18934 351.809437 
L 1170.275383 348.193147 
L 1171.361426 351.809437 
L 1172.44747 340.276405 
L 1173.533513 351.809437 
L 1174.619556 348.144278 
L 1175.7056 351.809437 
L 1181.135816 351.809437 
L 1182.22186 345.896314 
L 1183.307903 351.809437 
L 1188.738119 351.809437 
L 1189.824163 346.629346 
L 1190.910206 351.809437 
L 1196.340423 351.809437 
L 1197.426466 347.166903 
L 1198.512509 351.809437 
L 1203.942726 351.809437 
L 1205.028769 349.170523 
L 1206.114812 351.809437 
L 1211.545029 351.809437 
L 1212.631072 349.365998 
L 1213.717115 351.809437 
L 1219.147332 351.809437 
L 1220.233375 349.805817 
L 1221.319419 351.809437 
L 1244.126328 351.809437 
L 1245.212371 347.020296 
L 1246.298415 351.809437 
L 1266.933237 351.809437 
L 1268.019281 348.437491 
L 1269.105324 351.809437 
L 1272.363454 351.809437 
L 1273.449497 351.174143 
L 1274.535541 351.809437 
L 1302.772666 351.809437 
L 1302.772666 351.809437 
" clip-path="url(#pe9a758bdfd)" style="fill: none; stroke: #0000ff; stroke-width: 1.5; stroke-linecap: square"/>
   </g>
   <g id="line2d_19">
    <path d="M 1062.757096 348.59308 
L 1063.843139 347.953781 
L 1064.929183 350.238662 
L 1066.015226 350.792867 
L 1067.101269 349.86716 
L 1068.187312 344.601741 
L 1069.273356 347.380479 
L 1070.359399 345.87014 
L 1071.445442 347.158775 
L 1072.531486 348.705411 
L 1073.617529 346.296268 
L 1074.703572 350.493692 
L 1075.789616 347.449267 
L 1076.875659 348.363061 
L 1077.961702 341.851541 
L 1079.047746 344.503338 
L 1080.133789 345.125415 
L 1081.219832 342.893419 
L 1082.305875 345.6903 
L 1083.391919 337.336592 
L 1084.477962 348.776477 
L 1085.564005 350.763134 
L 1086.650049 347.498767 
L 1087.736092 349.623526 
L 1088.822135 345.673897 
L 1089.908179 347.019648 
L 1090.994222 343.420931 
L 1092.080265 345.53362 
L 1093.166308 342.011078 
L 1094.252352 339.173129 
L 1095.338395 345.384693 
L 1096.424438 341.731582 
L 1097.510482 345.650067 
L 1098.596525 339.059434 
L 1099.682568 348.019866 
L 1100.768612 350.351623 
L 1101.854655 345.316597 
L 1102.940698 349.489339 
L 1104.026742 343.863573 
L 1105.112785 348.192946 
L 1106.198828 348.190016 
L 1107.284871 350.396412 
L 1108.370915 349.409857 
L 1109.456958 340.096745 
L 1110.543001 348.251361 
L 1111.629045 349.804522 
L 1112.715088 348.747706 
L 1113.801131 344.531209 
L 1114.887175 342.239881 
L 1115.973218 347.119209 
L 1117.059261 347.824552 
L 1118.145305 349.434529 
L 1119.231348 343.748853 
L 1120.317391 349.862685 
L 1121.403434 349.372429 
L 1123.575521 349.552794 
L 1124.661564 348.616523 
L 1125.747608 350.170308 
L 1126.833651 347.287241 
L 1127.919694 349.206034 
L 1129.005738 346.232322 
L 1130.091781 348.751618 
L 1131.177824 349.320504 
L 1132.263867 347.894552 
L 1133.349911 350.22226 
L 1134.435954 347.214068 
L 1135.521997 350.011465 
L 1136.608041 348.193753 
L 1137.694084 349.463457 
L 1139.866171 347.953179 
L 1140.952214 349.754804 
L 1142.038257 346.9874 
L 1143.124301 348.996256 
L 1144.210344 345.543041 
L 1145.296387 348.86109 
L 1146.38243 349.449144 
L 1147.468474 346.862457 
L 1148.554517 349.018037 
L 1149.64056 345.243385 
L 1150.726604 349.21927 
L 1151.812647 348.934539 
L 1152.89869 347.820948 
L 1153.984734 348.441284 
L 1155.070777 347.591716 
L 1156.15682 350.108819 
L 1157.242864 348.270661 
L 1158.328907 350.523535 
L 1159.41495 348.521433 
L 1160.500993 350.294756 
L 1161.587037 350.457735 
L 1162.67308 349.691671 
L 1163.759123 350.717765 
L 1164.845167 348.775324 
L 1165.93121 350.355284 
L 1167.017253 348.988549 
L 1168.103297 350.611975 
L 1169.18934 350.807069 
L 1170.275383 349.542113 
L 1171.361426 351.120976 
L 1172.44747 349.982484 
L 1173.533513 350.285255 
L 1174.619556 347.880796 
L 1175.7056 349.279494 
L 1176.791643 349.436115 
L 1177.877686 349.011363 
L 1178.96373 350.649159 
L 1180.049773 348.629599 
L 1181.135816 351.557201 
L 1182.22186 351.194139 
L 1183.307903 351.614155 
L 1184.393946 350.714976 
L 1185.479989 350.775882 
L 1186.566033 351.252581 
L 1187.652076 350.885703 
L 1188.738119 351.595705 
L 1189.824163 350.36034 
L 1190.910206 351.462764 
L 1191.996249 350.835464 
L 1194.168336 351.300354 
L 1195.254379 351.324352 
L 1196.340423 351.558747 
L 1197.426466 350.290508 
L 1198.512509 351.423783 
L 1199.598552 350.901635 
L 1201.770639 351.331744 
L 1203.942726 351.561489 
L 1205.028769 350.391843 
L 1206.114812 351.567357 
L 1207.200856 351.366565 
L 1210.458985 351.634318 
L 1211.545029 351.687287 
L 1212.631072 350.911157 
L 1213.717115 351.611184 
L 1214.803159 351.353087 
L 1218.061289 351.633464 
L 1219.147332 351.682766 
L 1220.233375 351.042571 
L 1221.319419 351.633233 
L 1222.405462 351.427298 
L 1225.663592 351.662837 
L 1226.749635 351.703229 
L 1227.835678 351.176459 
L 1228.921722 351.799337 
L 1230.007765 351.908471 
L 1236.524025 351.834163 
L 1241.954241 351.821004 
L 1245.212371 351.820764 
L 1246.298415 351.422559 
L 1247.384458 350.612154 
L 1249.556544 351.178097 
L 1251.728631 351.477028 
L 1252.814674 350.599047 
L 1253.900718 351.71504 
L 1254.986761 351.926522 
L 1259.330934 351.842105 
L 1260.416978 351.617837 
L 1261.503021 351.844637 
L 1264.761151 351.844666 
L 1268.019281 351.775098 
L 1269.105324 351.545056 
L 1270.191367 350.981435 
L 1272.363454 351.372823 
L 1274.535541 351.526799 
L 1275.621584 350.788926 
L 1276.707627 351.629371 
L 1277.79367 351.811416 
L 1279.965757 351.810481 
L 1281.0518 351.681483 
L 1282.137844 351.820606 
L 1283.223887 351.688022 
L 1284.30993 351.845927 
L 1287.56806 351.838963 
L 1290.82619 351.793674 
L 1295.170363 351.819117 
L 1302.772666 351.81192 
L 1302.772666 351.81192 
" clip-path="url(#pe9a758bdfd)" style="fill: none; stroke: #ffa500; stroke-width: 1.5; stroke-linecap: square"/>
   </g>
   <g id="line2d_20">
    <path d="M 1303.85871 351.809828 
L 1304.944753 351.810895 
L 1306.030796 351.809269 
L 1307.11684 351.810948 
L 1308.202883 351.810951 
L 1309.288926 351.81095 
L 1310.37497 351.81095 
L 1311.461013 351.810716 
L 1312.547056 351.811246 
L 1313.6331 351.81054 
L 1314.719143 351.811256 
L 1315.805186 351.811257 
L 1316.891229 351.811257 
L 1317.977273 351.811257 
" clip-path="url(#pe9a758bdfd)" style="fill: none; stroke: #ff0000; stroke-width: 1.5; stroke-linecap: square"/>
   </g>
   <g id="patch_3">
    <path d="M 39.65 368.3955 
L 39.65 35.7555 
" style="fill: none; stroke: #000000; stroke-width: 0.8; stroke-linejoin: miter; stroke-linecap: square"/>
   </g>
   <g id="patch_4">
    <path d="M 1378.85 368.3955 
L 1378.85 35.7555 
" style="fill: none; stroke: #000000; stroke-width: 0.8; stroke-linejoin: miter; stroke-linecap: square"/>
   </g>
   <g id="patch_5">
    <path d="M 39.65 368.3955 
L 1378.85 368.3955 
" style="fill: none; stroke: #000000; stroke-width: 0.8; stroke-linejoin: miter; stroke-linecap: square"/>
   </g>
   <g id="patch_6">
    <path d="M 39.65 35.7555 
L 1378.85 35.7555 
" style="fill: none; stroke: #000000; stroke-width: 0.8; stroke-linejoin: miter; stroke-linecap: square"/>
   </g>
   <g id="text_18">
    <!-- Daily Confirmed Cases Forecasting - Nigeria -->
    <g transform="translate(577.282812 16.318125)scale(0.12 -0.12)">
     <defs>
      <path id="DejaVuSans-44" d="M 1259 4147 
L 1259 519 
L 2022 519 
Q 2988 519 3436 956 
Q 3884 1394 3884 2338 
Q 3884 3275 3436 3711 
Q 2988 4147 2022 4147 
L 1259 4147 
z
M 628 4666 
L 1925 4666 
Q 3281 4666 3915 4102 
Q 4550 3538 4550 2338 
Q 4550 1131 3912 565 
Q 3275 0 1925 0 
L 628 0 
L 628 4666 
z
" transform="scale(0.015625)"/>
      <path id="DejaVuSans-61" d="M 2194 1759 
Q 1497 1759 1228 1600 
Q 959 1441 959 1056 
Q 959 750 1161 570 
Q 1363 391 1709 391 
Q 2188 391 2477 730 
Q 2766 1069 2766 1631 
L 2766 1759 
L 2194 1759 
z
M 3341 1997 
L 3341 0 
L 2766 0 
L 2766 531 
Q 2569 213 2275 61 
Q 1981 -91 1556 -91 
Q 1019 -91 701 211 
Q 384 513 384 1019 
Q 384 1609 779 1909 
Q 1175 2209 1959 2209 
L 2766 2209 
L 2766 2266 
Q 2766 2663 2505 2880 
Q 2244 3097 1772 3097 
Q 1472 3097 1187 3025 
Q 903 2953 641 2809 
L 641 3341 
Q 956 3463 1253 3523 
Q 1550 3584 1831 3584 
Q 2591 3584 2966 3190 
Q 3341 2797 3341 1997 
z
" transform="scale(0.015625)"/>
      <path id="DejaVuSans-69" d="M 603 3500 
L 1178 3500 
L 1178 0 
L 603 0 
L 603 3500 
z
M 603 4863 
L 1178 4863 
L 1178 4134 
L 603 4134 
L 603 4863 
z
" transform="scale(0.015625)"/>
      <path id="DejaVuSans-6c" d="M 603 4863 
L 1178 4863 
L 1178 0 
L 603 0 
L 603 4863 
z
" transform="scale(0.015625)"/>
      <path id="DejaVuSans-79" d="M 2059 -325 
Q 1816 -950 1584 -1140 
Q 1353 -1331 966 -1331 
L 506 -1331 
L 506 -850 
L 844 -850 
Q 1081 -850 1212 -737 
Q 1344 -625 1503 -206 
L 1606 56 
L 191 3500 
L 800 3500 
L 1894 763 
L 2988 3500 
L 3597 3500 
L 2059 -325 
z
" transform="scale(0.015625)"/>
      <path id="DejaVuSans-20" transform="scale(0.015625)"/>
      <path id="DejaVuSans-43" d="M 4122 4306 
L 4122 3641 
Q 3803 3938 3442 4084 
Q 3081 4231 2675 4231 
Q 1875 4231 1450 3742 
Q 1025 3253 1025 2328 
Q 1025 1406 1450 917 
Q 1875 428 2675 428 
Q 3081 428 3442 575 
Q 3803 722 4122 1019 
L 4122 359 
Q 3791 134 3420 21 
Q 3050 -91 2638 -91 
Q 1578 -91 968 557 
Q 359 1206 359 2328 
Q 359 3453 968 4101 
Q 1578 4750 2638 4750 
Q 3056 4750 3426 4639 
Q 3797 4528 4122 4306 
z
" transform="scale(0.015625)"/>
      <path id="DejaVuSans-6f" d="M 1959 3097 
Q 1497 3097 1228 2736 
Q 959 2375 959 1747 
Q 959 1119 1226 758 
Q 1494 397 1959 397 
Q 2419 397 2687 759 
Q 2956 1122 2956 1747 
Q 2956 2369 2687 2733 
Q 2419 3097 1959 3097 
z
M 1959 3584 
Q 2709 3584 3137 3096 
Q 3566 2609 3566 1747 
Q 3566 888 3137 398 
Q 2709 -91 1959 -91 
Q 1206 -91 779 398 
Q 353 888 353 1747 
Q 353 2609 779 3096 
Q 1206 3584 1959 3584 
z
" transform="scale(0.015625)"/>
      <path id="DejaVuSans-6e" d="M 3513 2113 
L 3513 0 
L 2938 0 
L 2938 2094 
Q 2938 2591 2744 2837 
Q 2550 3084 2163 3084 
Q 1697 3084 1428 2787 
Q 1159 2491 1159 1978 
L 1159 0 
L 581 0 
L 581 3500 
L 1159 3500 
L 1159 2956 
Q 1366 3272 1645 3428 
Q 1925 3584 2291 3584 
Q 2894 3584 3203 3211 
Q 3513 2838 3513 2113 
z
" transform="scale(0.015625)"/>
      <path id="DejaVuSans-66" d="M 2375 4863 
L 2375 4384 
L 1825 4384 
Q 1516 4384 1395 4259 
Q 1275 4134 1275 3809 
L 1275 3500 
L 2222 3500 
L 2222 3053 
L 1275 3053 
L 1275 0 
L 697 0 
L 697 3053 
L 147 3053 
L 147 3500 
L 697 3500 
L 697 3744 
Q 697 4328 969 4595 
Q 1241 4863 1831 4863 
L 2375 4863 
z
" transform="scale(0.015625)"/>
      <path id="DejaVuSans-72" d="M 2631 2963 
Q 2534 3019 2420 3045 
Q 2306 3072 2169 3072 
Q 1681 3072 1420 2755 
Q 1159 2438 1159 1844 
L 1159 0 
L 581 0 
L 581 3500 
L 1159 3500 
L 1159 2956 
Q 1341 3275 1631 3429 
Q 1922 3584 2338 3584 
Q 2397 3584 2469 3576 
Q 2541 3569 2628 3553 
L 2631 2963 
z
" transform="scale(0.015625)"/>
      <path id="DejaVuSans-6d" d="M 3328 2828 
Q 3544 3216 3844 3400 
Q 4144 3584 4550 3584 
Q 5097 3584 5394 3201 
Q 5691 2819 5691 2113 
L 5691 0 
L 5113 0 
L 5113 2094 
Q 5113 2597 4934 2840 
Q 4756 3084 4391 3084 
Q 3944 3084 3684 2787 
Q 3425 2491 3425 1978 
L 3425 0 
L 2847 0 
L 2847 2094 
Q 2847 2600 2669 2842 
Q 2491 3084 2119 3084 
Q 1678 3084 1418 2786 
Q 1159 2488 1159 1978 
L 1159 0 
L 581 0 
L 581 3500 
L 1159 3500 
L 1159 2956 
Q 1356 3278 1631 3431 
Q 1906 3584 2284 3584 
Q 2666 3584 2933 3390 
Q 3200 3197 3328 2828 
z
" transform="scale(0.015625)"/>
      <path id="DejaVuSans-65" d="M 3597 1894 
L 3597 1613 
L 953 1613 
Q 991 1019 1311 708 
Q 1631 397 2203 397 
Q 2534 397 2845 478 
Q 3156 559 3463 722 
L 3463 178 
Q 3153 47 2828 -22 
Q 2503 -91 2169 -91 
Q 1331 -91 842 396 
Q 353 884 353 1716 
Q 353 2575 817 3079 
Q 1281 3584 2069 3584 
Q 2775 3584 3186 3129 
Q 3597 2675 3597 1894 
z
M 3022 2063 
Q 3016 2534 2758 2815 
Q 2500 3097 2075 3097 
Q 1594 3097 1305 2825 
Q 1016 2553 972 2059 
L 3022 2063 
z
" transform="scale(0.015625)"/>
      <path id="DejaVuSans-64" d="M 2906 2969 
L 2906 4863 
L 3481 4863 
L 3481 0 
L 2906 0 
L 2906 525 
Q 2725 213 2448 61 
Q 2172 -91 1784 -91 
Q 1150 -91 751 415 
Q 353 922 353 1747 
Q 353 2572 751 3078 
Q 1150 3584 1784 3584 
Q 2172 3584 2448 3432 
Q 2725 3281 2906 2969 
z
M 947 1747 
Q 947 1113 1208 752 
Q 1469 391 1925 391 
Q 2381 391 2643 752 
Q 2906 1113 2906 1747 
Q 2906 2381 2643 2742 
Q 2381 3103 1925 3103 
Q 1469 3103 1208 2742 
Q 947 2381 947 1747 
z
" transform="scale(0.015625)"/>
      <path id="DejaVuSans-73" d="M 2834 3397 
L 2834 2853 
Q 2591 2978 2328 3040 
Q 2066 3103 1784 3103 
Q 1356 3103 1142 2972 
Q 928 2841 928 2578 
Q 928 2378 1081 2264 
Q 1234 2150 1697 2047 
L 1894 2003 
Q 2506 1872 2764 1633 
Q 3022 1394 3022 966 
Q 3022 478 2636 193 
Q 2250 -91 1575 -91 
Q 1294 -91 989 -36 
Q 684 19 347 128 
L 347 722 
Q 666 556 975 473 
Q 1284 391 1588 391 
Q 1994 391 2212 530 
Q 2431 669 2431 922 
Q 2431 1156 2273 1281 
Q 2116 1406 1581 1522 
L 1381 1569 
Q 847 1681 609 1914 
Q 372 2147 372 2553 
Q 372 3047 722 3315 
Q 1072 3584 1716 3584 
Q 2034 3584 2315 3537 
Q 2597 3491 2834 3397 
z
" transform="scale(0.015625)"/>
      <path id="DejaVuSans-46" d="M 628 4666 
L 3309 4666 
L 3309 4134 
L 1259 4134 
L 1259 2759 
L 3109 2759 
L 3109 2228 
L 1259 2228 
L 1259 0 
L 628 0 
L 628 4666 
z
" transform="scale(0.015625)"/>
      <path id="DejaVuSans-63" d="M 3122 3366 
L 3122 2828 
Q 2878 2963 2633 3030 
Q 2388 3097 2138 3097 
Q 1578 3097 1268 2742 
Q 959 2388 959 1747 
Q 959 1106 1268 751 
Q 1578 397 2138 397 
Q 2388 397 2633 464 
Q 2878 531 3122 666 
L 3122 134 
Q 2881 22 2623 -34 
Q 2366 -91 2075 -91 
Q 1284 -91 818 406 
Q 353 903 353 1747 
Q 353 2603 823 3093 
Q 1294 3584 2113 3584 
Q 2378 3584 2631 3529 
Q 2884 3475 3122 3366 
z
" transform="scale(0.015625)"/>
      <path id="DejaVuSans-74" d="M 1172 4494 
L 1172 3500 
L 2356 3500 
L 2356 3053 
L 1172 3053 
L 1172 1153 
Q 1172 725 1289 603 
Q 1406 481 1766 481 
L 2356 481 
L 2356 0 
L 1766 0 
Q 1100 0 847 248 
Q 594 497 594 1153 
L 594 3053 
L 172 3053 
L 172 3500 
L 594 3500 
L 594 4494 
L 1172 4494 
z
" transform="scale(0.015625)"/>
      <path id="DejaVuSans-67" d="M 2906 1791 
Q 2906 2416 2648 2759 
Q 2391 3103 1925 3103 
Q 1463 3103 1205 2759 
Q 947 2416 947 1791 
Q 947 1169 1205 825 
Q 1463 481 1925 481 
Q 2391 481 2648 825 
Q 2906 1169 2906 1791 
z
M 3481 434 
Q 3481 -459 3084 -895 
Q 2688 -1331 1869 -1331 
Q 1566 -1331 1297 -1286 
Q 1028 -1241 775 -1147 
L 775 -588 
Q 1028 -725 1275 -790 
Q 1522 -856 1778 -856 
Q 2344 -856 2625 -561 
Q 2906 -266 2906 331 
L 2906 616 
Q 2728 306 2450 153 
Q 2172 0 1784 0 
Q 1141 0 747 490 
Q 353 981 353 1791 
Q 353 2603 747 3093 
Q 1141 3584 1784 3584 
Q 2172 3584 2450 3431 
Q 2728 3278 2906 2969 
L 2906 3500 
L 3481 3500 
L 3481 434 
z
" transform="scale(0.015625)"/>
      <path id="DejaVuSans-4e" d="M 628 4666 
L 1478 4666 
L 3547 763 
L 3547 4666 
L 4159 4666 
L 4159 0 
L 3309 0 
L 1241 3903 
L 1241 0 
L 628 0 
L 628 4666 
z
" transform="scale(0.015625)"/>
     </defs>
     <use xlink:href="#DejaVuSans-44"/>
     <use xlink:href="#DejaVuSans-61" x="77.001953"/>
     <use xlink:href="#DejaVuSans-69" x="138.28125"/>
     <use xlink:href="#DejaVuSans-6c" x="166.064453"/>
     <use xlink:href="#DejaVuSans-79" x="193.847656"/>
     <use xlink:href="#DejaVuSans-20" x="253.027344"/>
     <use xlink:href="#DejaVuSans-43" x="284.814453"/>
     <use xlink:href="#DejaVuSans-6f" x="354.638672"/>
     <use xlink:href="#DejaVuSans-6e" x="415.820312"/>
     <use xlink:href="#DejaVuSans-66" x="479.199219"/>
     <use xlink:href="#DejaVuSans-69" x="514.404297"/>
     <use xlink:href="#DejaVuSans-72" x="542.1875"/>
     <use xlink:href="#DejaVuSans-6d" x="581.550781"/>
     <use xlink:href="#DejaVuSans-65" x="678.962891"/>
     <use xlink:href="#DejaVuSans-64" x="740.486328"/>
     <use xlink:href="#DejaVuSans-20" x="803.962891"/>
     <use xlink:href="#DejaVuSans-43" x="835.75"/>
     <use xlink:href="#DejaVuSans-61" x="905.574219"/>
     <use xlink:href="#DejaVuSans-73" x="966.853516"/>
     <use xlink:href="#DejaVuSans-65" x="1018.953125"/>
     <use xlink:href="#DejaVuSans-73" x="1080.476562"/>
     <use xlink:href="#DejaVuSans-20" x="1132.576172"/>
     <use xlink:href="#DejaVuSans-46" x="1164.363281"/>
     <use xlink:href="#DejaVuSans-6f" x="1218.257812"/>
     <use xlink:href="#DejaVuSans-72" x="1279.439453"/>
     <use xlink:href="#DejaVuSans-65" x="1318.302734"/>
     <use xlink:href="#DejaVuSans-63" x="1379.826172"/>
     <use xlink:href="#DejaVuSans-61" x="1434.806641"/>
     <use xlink:href="#DejaVuSans-73" x="1496.085938"/>
     <use xlink:href="#DejaVuSans-74" x="1548.185547"/>
     <use xlink:href="#DejaVuSans-69" x="1587.394531"/>
     <use xlink:href="#DejaVuSans-6e" x="1615.177734"/>
     <use xlink:href="#DejaVuSans-67" x="1678.556641"/>
     <use xlink:href="#DejaVuSans-20" x="1742.033203"/>
     <use xlink:href="#DejaVuSans-2d" x="1773.820312"/>
     <use xlink:href="#DejaVuSans-20" x="1809.904297"/>
     <use xlink:href="#DejaVuSans-4e" x="1841.691406"/>
     <use xlink:href="#DejaVuSans-69" x="1916.496094"/>
     <use xlink:href="#DejaVuSans-67" x="1944.279297"/>
     <use xlink:href="#DejaVuSans-65" x="2007.755859"/>
     <use xlink:href="#DejaVuSans-72" x="2069.279297"/>
     <use xlink:href="#DejaVuSans-69" x="2110.392578"/>
     <use xlink:href="#DejaVuSans-61" x="2138.175781"/>
    </g>
    <!-- ARIMA (1, 1, 1)x(1, 0, 1, 7) (R2 = 0.117992) -->
    <g transform="translate(577.265938 29.7555)scale(0.12 -0.12)">
     <defs>
      <path id="DejaVuSans-41" d="M 2188 4044 
L 1331 1722 
L 3047 1722 
L 2188 4044 
z
M 1831 4666 
L 2547 4666 
L 4325 0 
L 3669 0 
L 3244 1197 
L 1141 1197 
L 716 0 
L 50 0 
L 1831 4666 
z
" transform="scale(0.015625)"/>
      <path id="DejaVuSans-52" d="M 2841 2188 
Q 3044 2119 3236 1894 
Q 3428 1669 3622 1275 
L 4263 0 
L 3584 0 
L 2988 1197 
Q 2756 1666 2539 1819 
Q 2322 1972 1947 1972 
L 1259 1972 
L 1259 0 
L 628 0 
L 628 4666 
L 2053 4666 
Q 2853 4666 3247 4331 
Q 3641 3997 3641 3322 
Q 3641 2881 3436 2590 
Q 3231 2300 2841 2188 
z
M 1259 4147 
L 1259 2491 
L 2053 2491 
Q 2509 2491 2742 2702 
Q 2975 2913 2975 3322 
Q 2975 3731 2742 3939 
Q 2509 4147 2053 4147 
L 1259 4147 
z
" transform="scale(0.015625)"/>
      <path id="DejaVuSans-49" d="M 628 4666 
L 1259 4666 
L 1259 0 
L 628 0 
L 628 4666 
z
" transform="scale(0.015625)"/>
      <path id="DejaVuSans-4d" d="M 628 4666 
L 1569 4666 
L 2759 1491 
L 3956 4666 
L 4897 4666 
L 4897 0 
L 4281 0 
L 4281 4097 
L 3078 897 
L 2444 897 
L 1241 4097 
L 1241 0 
L 628 0 
L 628 4666 
z
" transform="scale(0.015625)"/>
      <path id="DejaVuSans-28" d="M 1984 4856 
Q 1566 4138 1362 3434 
Q 1159 2731 1159 2009 
Q 1159 1288 1364 580 
Q 1569 -128 1984 -844 
L 1484 -844 
Q 1016 -109 783 600 
Q 550 1309 550 2009 
Q 550 2706 781 3412 
Q 1013 4119 1484 4856 
L 1984 4856 
z
" transform="scale(0.015625)"/>
      <path id="DejaVuSans-2c" d="M 750 794 
L 1409 794 
L 1409 256 
L 897 -744 
L 494 -744 
L 750 256 
L 750 794 
z
" transform="scale(0.015625)"/>
      <path id="DejaVuSans-29" d="M 513 4856 
L 1013 4856 
Q 1481 4119 1714 3412 
Q 1947 2706 1947 2009 
Q 1947 1309 1714 600 
Q 1481 -109 1013 -844 
L 513 -844 
Q 928 -128 1133 580 
Q 1338 1288 1338 2009 
Q 1338 2731 1133 3434 
Q 928 4138 513 4856 
z
" transform="scale(0.015625)"/>
      <path id="DejaVuSans-78" d="M 3513 3500 
L 2247 1797 
L 3578 0 
L 2900 0 
L 1881 1375 
L 863 0 
L 184 0 
L 1544 1831 
L 300 3500 
L 978 3500 
L 1906 2253 
L 2834 3500 
L 3513 3500 
z
" transform="scale(0.015625)"/>
      <path id="DejaVuSans-37" d="M 525 4666 
L 3525 4666 
L 3525 4397 
L 1831 0 
L 1172 0 
L 2766 4134 
L 525 4134 
L 525 4666 
z
" transform="scale(0.015625)"/>
      <path id="DejaVuSans-3d" d="M 678 2906 
L 4684 2906 
L 4684 2381 
L 678 2381 
L 678 2906 
z
M 678 1631 
L 4684 1631 
L 4684 1100 
L 678 1100 
L 678 1631 
z
" transform="scale(0.015625)"/>
      <path id="DejaVuSans-2e" d="M 684 794 
L 1344 794 
L 1344 0 
L 684 0 
L 684 794 
z
" transform="scale(0.015625)"/>
     </defs>
     <use xlink:href="#DejaVuSans-41"/>
     <use xlink:href="#DejaVuSans-52" x="68.408203"/>
     <use xlink:href="#DejaVuSans-49" x="137.890625"/>
     <use xlink:href="#DejaVuSans-4d" x="167.382812"/>
     <use xlink:href="#DejaVuSans-41" x="253.662109"/>
     <use xlink:href="#DejaVuSans-20" x="322.070312"/>
     <use xlink:href="#DejaVuSans-28" x="353.857422"/>
     <use xlink:href="#DejaVuSans-31" x="392.871094"/>
     <use xlink:href="#DejaVuSans-2c" x="456.494141"/>
     <use xlink:href="#DejaVuSans-20" x="488.28125"/>
     <use xlink:href="#DejaVuSans-31" x="520.068359"/>
     <use xlink:href="#DejaVuSans-2c" x="583.691406"/>
     <use xlink:href="#DejaVuSans-20" x="615.478516"/>
     <use xlink:href="#DejaVuSans-31" x="647.265625"/>
     <use xlink:href="#DejaVuSans-29" x="710.888672"/>
     <use xlink:href="#DejaVuSans-78" x="749.902344"/>
     <use xlink:href="#DejaVuSans-28" x="809.082031"/>
     <use xlink:href="#DejaVuSans-31" x="848.095703"/>
     <use xlink:href="#DejaVuSans-2c" x="911.71875"/>
     <use xlink:href="#DejaVuSans-20" x="943.505859"/>
     <use xlink:href="#DejaVuSans-30" x="975.292969"/>
     <use xlink:href="#DejaVuSans-2c" x="1038.916016"/>
     <use xlink:href="#DejaVuSans-20" x="1070.703125"/>
     <use xlink:href="#DejaVuSans-31" x="1102.490234"/>
     <use xlink:href="#DejaVuSans-2c" x="1166.113281"/>
     <use xlink:href="#DejaVuSans-20" x="1197.900391"/>
     <use xlink:href="#DejaVuSans-37" x="1229.6875"/>
     <use xlink:href="#DejaVuSans-29" x="1293.310547"/>
     <use xlink:href="#DejaVuSans-20" x="1332.324219"/>
     <use xlink:href="#DejaVuSans-28" x="1364.111328"/>
     <use xlink:href="#DejaVuSans-52" x="1403.125"/>
     <use xlink:href="#DejaVuSans-32" x="1472.607422"/>
     <use xlink:href="#DejaVuSans-20" x="1536.230469"/>
     <use xlink:href="#DejaVuSans-3d" x="1568.017578"/>
     <use xlink:href="#DejaVuSans-20" x="1651.806641"/>
     <use xlink:href="#DejaVuSans-30" x="1683.59375"/>
     <use xlink:href="#DejaVuSans-2e" x="1747.216797"/>
     <use xlink:href="#DejaVuSans-31" x="1779.003906"/>
     <use xlink:href="#DejaVuSans-31" x="1842.626953"/>
     <use xlink:href="#DejaVuSans-37" x="1906.25"/>
     <use xlink:href="#DejaVuSans-39" x="1969.873047"/>
     <use xlink:href="#DejaVuSans-39" x="2033.496094"/>
     <use xlink:href="#DejaVuSans-32" x="2097.119141"/>
     <use xlink:href="#DejaVuSans-29" x="2160.742188"/>
    </g>
   </g>
   <g id="legend_1">
    <g id="patch_7">
     <path d="M 1274.770313 87.789875 
L 1371.85 87.789875 
Q 1373.85 87.789875 1373.85 85.789875 
L 1373.85 42.7555 
Q 1373.85 40.7555 1371.85 40.7555 
L 1274.770313 40.7555 
Q 1272.770313 40.7555 1272.770313 42.7555 
L 1272.770313 85.789875 
Q 1272.770313 87.789875 1274.770313 87.789875 
z
" style="fill: #ffffff; opacity: 0.8; stroke: #cccccc; stroke-linejoin: miter"/>
    </g>
    <g id="line2d_21">
     <path d="M 1276.770313 48.853937 
L 1286.770313 48.853937 
L 1296.770313 48.853937 
" style="fill: none; stroke: #0000ff; stroke-width: 1.5; stroke-linecap: square"/>
    </g>
    <g id="text_19">
     <!-- Actual Value -->
     <g transform="translate(1304.770313 52.353937)scale(0.1 -0.1)">
      <defs>
       <path id="DejaVuSans-75" d="M 544 1381 
L 544 3500 
L 1119 3500 
L 1119 1403 
Q 1119 906 1312 657 
Q 1506 409 1894 409 
Q 2359 409 2629 706 
Q 2900 1003 2900 1516 
L 2900 3500 
L 3475 3500 
L 3475 0 
L 2900 0 
L 2900 538 
Q 2691 219 2414 64 
Q 2138 -91 1772 -91 
Q 1169 -91 856 284 
Q 544 659 544 1381 
z
M 1991 3584 
L 1991 3584 
z
" transform="scale(0.015625)"/>
       <path id="DejaVuSans-56" d="M 1831 0 
L 50 4666 
L 709 4666 
L 2188 738 
L 3669 4666 
L 4325 4666 
L 2547 0 
L 1831 0 
z
" transform="scale(0.015625)"/>
      </defs>
      <use xlink:href="#DejaVuSans-41"/>
      <use xlink:href="#DejaVuSans-63" x="66.658203"/>
      <use xlink:href="#DejaVuSans-74" x="121.638672"/>
      <use xlink:href="#DejaVuSans-75" x="160.847656"/>
      <use xlink:href="#DejaVuSans-61" x="224.226562"/>
      <use xlink:href="#DejaVuSans-6c" x="285.505859"/>
      <use xlink:href="#DejaVuSans-20" x="313.289062"/>
      <use xlink:href="#DejaVuSans-56" x="345.076172"/>
      <use xlink:href="#DejaVuSans-61" x="405.734375"/>
      <use xlink:href="#DejaVuSans-6c" x="467.013672"/>
      <use xlink:href="#DejaVuSans-75" x="494.796875"/>
      <use xlink:href="#DejaVuSans-65" x="558.175781"/>
     </g>
    </g>
    <g id="line2d_22">
     <path d="M 1276.770313 63.532062 
L 1286.770313 63.532062 
L 1296.770313 63.532062 
" style="fill: none; stroke: #ffa500; stroke-width: 1.5; stroke-linecap: square"/>
    </g>
    <g id="text_20">
     <!-- Check Value -->
     <g transform="translate(1304.770313 67.032062)scale(0.1 -0.1)">
      <defs>
       <path id="DejaVuSans-68" d="M 3513 2113 
L 3513 0 
L 2938 0 
L 2938 2094 
Q 2938 2591 2744 2837 
Q 2550 3084 2163 3084 
Q 1697 3084 1428 2787 
Q 1159 2491 1159 1978 
L 1159 0 
L 581 0 
L 581 4863 
L 1159 4863 
L 1159 2956 
Q 1366 3272 1645 3428 
Q 1925 3584 2291 3584 
Q 2894 3584 3203 3211 
Q 3513 2838 3513 2113 
z
" transform="scale(0.015625)"/>
       <path id="DejaVuSans-6b" d="M 581 4863 
L 1159 4863 
L 1159 1991 
L 2875 3500 
L 3609 3500 
L 1753 1863 
L 3688 0 
L 2938 0 
L 1159 1709 
L 1159 0 
L 581 0 
L 581 4863 
z
" transform="scale(0.015625)"/>
      </defs>
      <use xlink:href="#DejaVuSans-43"/>
      <use xlink:href="#DejaVuSans-68" x="69.824219"/>
      <use xlink:href="#DejaVuSans-65" x="133.203125"/>
      <use xlink:href="#DejaVuSans-63" x="194.726562"/>
      <use xlink:href="#DejaVuSans-6b" x="249.707031"/>
      <use xlink:href="#DejaVuSans-20" x="307.617188"/>
      <use xlink:href="#DejaVuSans-56" x="339.404297"/>
      <use xlink:href="#DejaVuSans-61" x="400.0625"/>
      <use xlink:href="#DejaVuSans-6c" x="461.341797"/>
      <use xlink:href="#DejaVuSans-75" x="489.125"/>
      <use xlink:href="#DejaVuSans-65" x="552.503906"/>
     </g>
    </g>
    <g id="line2d_23">
     <path d="M 1276.770313 78.210187 
L 1286.770313 78.210187 
L 1296.770313 78.210187 
" style="fill: none; stroke: #ff0000; stroke-width: 1.5; stroke-linecap: square"/>
    </g>
    <g id="text_21">
     <!-- Predict Value -->
     <g transform="translate(1304.770313 81.710187)scale(0.1 -0.1)">
      <defs>
       <path id="DejaVuSans-50" d="M 1259 4147 
L 1259 2394 
L 2053 2394 
Q 2494 2394 2734 2622 
Q 2975 2850 2975 3272 
Q 2975 3691 2734 3919 
Q 2494 4147 2053 4147 
L 1259 4147 
z
M 628 4666 
L 2053 4666 
Q 2838 4666 3239 4311 
Q 3641 3956 3641 3272 
Q 3641 2581 3239 2228 
Q 2838 1875 2053 1875 
L 1259 1875 
L 1259 0 
L 628 0 
L 628 4666 
z
" transform="scale(0.015625)"/>
      </defs>
      <use xlink:href="#DejaVuSans-50"/>
      <use xlink:href="#DejaVuSans-72" x="58.552734"/>
      <use xlink:href="#DejaVuSans-65" x="97.416016"/>
      <use xlink:href="#DejaVuSans-64" x="158.939453"/>
      <use xlink:href="#DejaVuSans-69" x="222.416016"/>
      <use xlink:href="#DejaVuSans-63" x="250.199219"/>
      <use xlink:href="#DejaVuSans-74" x="305.179688"/>
      <use xlink:href="#DejaVuSans-20" x="344.388672"/>
      <use xlink:href="#DejaVuSans-56" x="376.175781"/>
      <use xlink:href="#DejaVuSans-61" x="436.833984"/>
      <use xlink:href="#DejaVuSans-6c" x="498.113281"/>
      <use xlink:href="#DejaVuSans-75" x="525.896484"/>
      <use xlink:href="#DejaVuSans-65" x="589.275391"/>
     </g>
    </g>
   </g>
  </g>
 </g>
 <defs>
  <clipPath id="pe9a758bdfd">
   <rect x="39.65" y="35.7555" width="1339.2" height="332.64"/>
  </clipPath>
 </defs>
</svg>
