<?xml version="1.0" encoding="utf-8" standalone="no"?>
<!DOCTYPE svg PUBLIC "-//W3C//DTD SVG 1.1//EN"
  "http://www.w3.org/Graphics/SVG/1.1/DTD/svg11.dtd">
<svg xmlns:xlink="http://www.w3.org/1999/xlink" width="1392.4125pt" height="392.273625pt" viewBox="0 0 1392.4125 392.273625" xmlns="http://www.w3.org/2000/svg" version="1.1">
 <metadata>
  <rdf:RDF xmlns:dc="http://purl.org/dc/elements/1.1/" xmlns:cc="http://creativecommons.org/ns#" xmlns:rdf="http://www.w3.org/1999/02/22-rdf-syntax-ns#">
   <cc:Work>
    <dc:type rdf:resource="http://purl.org/dc/dcmitype/StillImage"/>
    <dc:date>2022-06-07T18:35:55.068418</dc:date>
    <dc:format>image/svg+xml</dc:format>
    <dc:creator>
     <cc:Agent>
      <dc:title>Matplotlib v3.5.1, https://matplotlib.org/</dc:title>
     </cc:Agent>
    </dc:creator>
   </cc:Work>
  </rdf:RDF>
 </metadata>
 <defs>
  <style type="text/css">*{stroke-linejoin: round; stroke-linecap: butt}</style>
 </defs>
 <g id="figure_1">
  <g id="patch_1">
   <path d="M 0 392.273625 
L 1392.4125 392.273625 
L 1392.4125 0 
L 0 0 
z
" style="fill: #ffffff"/>
  </g>
  <g id="axes_1">
   <g id="patch_2">
    <path d="M 46.0125 368.3955 
L 1385.2125 368.3955 
L 1385.2125 35.7555 
L 46.0125 35.7555 
z
" style="fill: #ffffff"/>
   </g>
   <g id="matplotlib.axis_1">
    <g id="xtick_1">
     <g id="line2d_1">
      <defs>
       <path id="mb795324a74" d="M 0 0 
L 0 3.5 
" style="stroke: #000000; stroke-width: 0.8"/>
      </defs>
      <g>
       <use xlink:href="#mb795324a74" x="76.414238" y="368.3955" style="stroke: #000000; stroke-width: 0.8"/>
      </g>
     </g>
     <g id="text_1">
      <!-- 2020-01 -->
      <g transform="translate(55.522831 382.993937)scale(0.1 -0.1)">
       <defs>
        <path id="DejaVuSans-32" d="M 1228 531 
L 3431 531 
L 3431 0 
L 469 0 
L 469 531 
Q 828 903 1448 1529 
Q 2069 2156 2228 2338 
Q 2531 2678 2651 2914 
Q 2772 3150 2772 3378 
Q 2772 3750 2511 3984 
Q 2250 4219 1831 4219 
Q 1534 4219 1204 4116 
Q 875 4013 500 3803 
L 500 4441 
Q 881 4594 1212 4672 
Q 1544 4750 1819 4750 
Q 2544 4750 2975 4387 
Q 3406 4025 3406 3419 
Q 3406 3131 3298 2873 
Q 3191 2616 2906 2266 
Q 2828 2175 2409 1742 
Q 1991 1309 1228 531 
z
" transform="scale(0.015625)"/>
        <path id="DejaVuSans-30" d="M 2034 4250 
Q 1547 4250 1301 3770 
Q 1056 3291 1056 2328 
Q 1056 1369 1301 889 
Q 1547 409 2034 409 
Q 2525 409 2770 889 
Q 3016 1369 3016 2328 
Q 3016 3291 2770 3770 
Q 2525 4250 2034 4250 
z
M 2034 4750 
Q 2819 4750 3233 4129 
Q 3647 3509 3647 2328 
Q 3647 1150 3233 529 
Q 2819 -91 2034 -91 
Q 1250 -91 836 529 
Q 422 1150 422 2328 
Q 422 3509 836 4129 
Q 1250 4750 2034 4750 
z
" transform="scale(0.015625)"/>
        <path id="DejaVuSans-2d" d="M 313 2009 
L 1997 2009 
L 1997 1497 
L 313 1497 
L 313 2009 
z
" transform="scale(0.015625)"/>
        <path id="DejaVuSans-31" d="M 794 531 
L 1825 531 
L 1825 4091 
L 703 3866 
L 703 4441 
L 1819 4666 
L 2450 4666 
L 2450 531 
L 3481 531 
L 3481 0 
L 794 0 
L 794 531 
z
" transform="scale(0.015625)"/>
       </defs>
       <use xlink:href="#DejaVuSans-32"/>
       <use xlink:href="#DejaVuSans-30" x="63.623047"/>
       <use xlink:href="#DejaVuSans-32" x="127.246094"/>
       <use xlink:href="#DejaVuSans-30" x="190.869141"/>
       <use xlink:href="#DejaVuSans-2d" x="254.492188"/>
       <use xlink:href="#DejaVuSans-30" x="290.576172"/>
       <use xlink:href="#DejaVuSans-31" x="354.199219"/>
      </g>
     </g>
    </g>
    <g id="xtick_2">
     <g id="line2d_2">
      <g>
       <use xlink:href="#mb795324a74" x="202.453332" y="368.3955" style="stroke: #000000; stroke-width: 0.8"/>
      </g>
     </g>
     <g id="text_2">
      <!-- 2020-04 -->
      <g transform="translate(181.561925 382.993937)scale(0.1 -0.1)">
       <defs>
        <path id="DejaVuSans-34" d="M 2419 4116 
L 825 1625 
L 2419 1625 
L 2419 4116 
z
M 2253 4666 
L 3047 4666 
L 3047 1625 
L 3713 1625 
L 3713 1100 
L 3047 1100 
L 3047 0 
L 2419 0 
L 2419 1100 
L 313 1100 
L 313 1709 
L 2253 4666 
z
" transform="scale(0.015625)"/>
       </defs>
       <use xlink:href="#DejaVuSans-32"/>
       <use xlink:href="#DejaVuSans-30" x="63.623047"/>
       <use xlink:href="#DejaVuSans-32" x="127.246094"/>
       <use xlink:href="#DejaVuSans-30" x="190.869141"/>
       <use xlink:href="#DejaVuSans-2d" x="254.492188"/>
       <use xlink:href="#DejaVuSans-30" x="290.576172"/>
       <use xlink:href="#DejaVuSans-34" x="354.199219"/>
      </g>
     </g>
    </g>
    <g id="xtick_3">
     <g id="line2d_3">
      <g>
       <use xlink:href="#mb795324a74" x="328.492426" y="368.3955" style="stroke: #000000; stroke-width: 0.8"/>
      </g>
     </g>
     <g id="text_3">
      <!-- 2020-07 -->
      <g transform="translate(307.601019 382.993937)scale(0.1 -0.1)">
       <defs>
        <path id="DejaVuSans-37" d="M 525 4666 
L 3525 4666 
L 3525 4397 
L 1831 0 
L 1172 0 
L 2766 4134 
L 525 4134 
L 525 4666 
z
" transform="scale(0.015625)"/>
       </defs>
       <use xlink:href="#DejaVuSans-32"/>
       <use xlink:href="#DejaVuSans-30" x="63.623047"/>
       <use xlink:href="#DejaVuSans-32" x="127.246094"/>
       <use xlink:href="#DejaVuSans-30" x="190.869141"/>
       <use xlink:href="#DejaVuSans-2d" x="254.492188"/>
       <use xlink:href="#DejaVuSans-30" x="290.576172"/>
       <use xlink:href="#DejaVuSans-37" x="354.199219"/>
      </g>
     </g>
    </g>
    <g id="xtick_4">
     <g id="line2d_4">
      <g>
       <use xlink:href="#mb795324a74" x="455.916565" y="368.3955" style="stroke: #000000; stroke-width: 0.8"/>
      </g>
     </g>
     <g id="text_4">
      <!-- 2020-10 -->
      <g transform="translate(435.025158 382.993937)scale(0.1 -0.1)">
       <use xlink:href="#DejaVuSans-32"/>
       <use xlink:href="#DejaVuSans-30" x="63.623047"/>
       <use xlink:href="#DejaVuSans-32" x="127.246094"/>
       <use xlink:href="#DejaVuSans-30" x="190.869141"/>
       <use xlink:href="#DejaVuSans-2d" x="254.492188"/>
       <use xlink:href="#DejaVuSans-31" x="290.576172"/>
       <use xlink:href="#DejaVuSans-30" x="354.199219"/>
      </g>
     </g>
    </g>
    <g id="xtick_5">
     <g id="line2d_5">
      <g>
       <use xlink:href="#mb795324a74" x="583.340704" y="368.3955" style="stroke: #000000; stroke-width: 0.8"/>
      </g>
     </g>
     <g id="text_5">
      <!-- 2021-01 -->
      <g transform="translate(562.449297 382.993937)scale(0.1 -0.1)">
       <use xlink:href="#DejaVuSans-32"/>
       <use xlink:href="#DejaVuSans-30" x="63.623047"/>
       <use xlink:href="#DejaVuSans-32" x="127.246094"/>
       <use xlink:href="#DejaVuSans-31" x="190.869141"/>
       <use xlink:href="#DejaVuSans-2d" x="254.492188"/>
       <use xlink:href="#DejaVuSans-30" x="290.576172"/>
       <use xlink:href="#DejaVuSans-31" x="354.199219"/>
      </g>
     </g>
    </g>
    <g id="xtick_6">
     <g id="line2d_6">
      <g>
       <use xlink:href="#mb795324a74" x="707.994753" y="368.3955" style="stroke: #000000; stroke-width: 0.8"/>
      </g>
     </g>
     <g id="text_6">
      <!-- 2021-04 -->
      <g transform="translate(687.103346 382.993937)scale(0.1 -0.1)">
       <use xlink:href="#DejaVuSans-32"/>
       <use xlink:href="#DejaVuSans-30" x="63.623047"/>
       <use xlink:href="#DejaVuSans-32" x="127.246094"/>
       <use xlink:href="#DejaVuSans-31" x="190.869141"/>
       <use xlink:href="#DejaVuSans-2d" x="254.492188"/>
       <use xlink:href="#DejaVuSans-30" x="290.576172"/>
       <use xlink:href="#DejaVuSans-34" x="354.199219"/>
      </g>
     </g>
    </g>
    <g id="xtick_7">
     <g id="line2d_7">
      <g>
       <use xlink:href="#mb795324a74" x="834.033847" y="368.3955" style="stroke: #000000; stroke-width: 0.8"/>
      </g>
     </g>
     <g id="text_7">
      <!-- 2021-07 -->
      <g transform="translate(813.14244 382.993937)scale(0.1 -0.1)">
       <use xlink:href="#DejaVuSans-32"/>
       <use xlink:href="#DejaVuSans-30" x="63.623047"/>
       <use xlink:href="#DejaVuSans-32" x="127.246094"/>
       <use xlink:href="#DejaVuSans-31" x="190.869141"/>
       <use xlink:href="#DejaVuSans-2d" x="254.492188"/>
       <use xlink:href="#DejaVuSans-30" x="290.576172"/>
       <use xlink:href="#DejaVuSans-37" x="354.199219"/>
      </g>
     </g>
    </g>
    <g id="xtick_8">
     <g id="line2d_8">
      <g>
       <use xlink:href="#mb795324a74" x="961.457986" y="368.3955" style="stroke: #000000; stroke-width: 0.8"/>
      </g>
     </g>
     <g id="text_8">
      <!-- 2021-10 -->
      <g transform="translate(940.566579 382.993937)scale(0.1 -0.1)">
       <use xlink:href="#DejaVuSans-32"/>
       <use xlink:href="#DejaVuSans-30" x="63.623047"/>
       <use xlink:href="#DejaVuSans-32" x="127.246094"/>
       <use xlink:href="#DejaVuSans-31" x="190.869141"/>
       <use xlink:href="#DejaVuSans-2d" x="254.492188"/>
       <use xlink:href="#DejaVuSans-31" x="290.576172"/>
       <use xlink:href="#DejaVuSans-30" x="354.199219"/>
      </g>
     </g>
    </g>
    <g id="xtick_9">
     <g id="line2d_9">
      <g>
       <use xlink:href="#mb795324a74" x="1088.882125" y="368.3955" style="stroke: #000000; stroke-width: 0.8"/>
      </g>
     </g>
     <g id="text_9">
      <!-- 2022-01 -->
      <g transform="translate(1067.990718 382.993937)scale(0.1 -0.1)">
       <use xlink:href="#DejaVuSans-32"/>
       <use xlink:href="#DejaVuSans-30" x="63.623047"/>
       <use xlink:href="#DejaVuSans-32" x="127.246094"/>
       <use xlink:href="#DejaVuSans-32" x="190.869141"/>
       <use xlink:href="#DejaVuSans-2d" x="254.492188"/>
       <use xlink:href="#DejaVuSans-30" x="290.576172"/>
       <use xlink:href="#DejaVuSans-31" x="354.199219"/>
      </g>
     </g>
    </g>
    <g id="xtick_10">
     <g id="line2d_10">
      <g>
       <use xlink:href="#mb795324a74" x="1213.536174" y="368.3955" style="stroke: #000000; stroke-width: 0.8"/>
      </g>
     </g>
     <g id="text_10">
      <!-- 2022-04 -->
      <g transform="translate(1192.644767 382.993937)scale(0.1 -0.1)">
       <use xlink:href="#DejaVuSans-32"/>
       <use xlink:href="#DejaVuSans-30" x="63.623047"/>
       <use xlink:href="#DejaVuSans-32" x="127.246094"/>
       <use xlink:href="#DejaVuSans-32" x="190.869141"/>
       <use xlink:href="#DejaVuSans-2d" x="254.492188"/>
       <use xlink:href="#DejaVuSans-30" x="290.576172"/>
       <use xlink:href="#DejaVuSans-34" x="354.199219"/>
      </g>
     </g>
    </g>
    <g id="xtick_11">
     <g id="line2d_11">
      <g>
       <use xlink:href="#mb795324a74" x="1339.575268" y="368.3955" style="stroke: #000000; stroke-width: 0.8"/>
      </g>
     </g>
     <g id="text_11">
      <!-- 2022-07 -->
      <g transform="translate(1318.683861 382.993937)scale(0.1 -0.1)">
       <use xlink:href="#DejaVuSans-32"/>
       <use xlink:href="#DejaVuSans-30" x="63.623047"/>
       <use xlink:href="#DejaVuSans-32" x="127.246094"/>
       <use xlink:href="#DejaVuSans-32" x="190.869141"/>
       <use xlink:href="#DejaVuSans-2d" x="254.492188"/>
       <use xlink:href="#DejaVuSans-30" x="290.576172"/>
       <use xlink:href="#DejaVuSans-37" x="354.199219"/>
      </g>
     </g>
    </g>
   </g>
   <g id="matplotlib.axis_2">
    <g id="ytick_1">
     <g id="line2d_12">
      <defs>
       <path id="md278175067" d="M 0 0 
L -3.5 0 
" style="stroke: #000000; stroke-width: 0.8"/>
      </defs>
      <g>
       <use xlink:href="#md278175067" x="46.0125" y="352.911358" style="stroke: #000000; stroke-width: 0.8"/>
      </g>
     </g>
     <g id="text_12">
      <!-- 0 -->
      <g transform="translate(32.65 356.710576)scale(0.1 -0.1)">
       <use xlink:href="#DejaVuSans-30"/>
      </g>
     </g>
    </g>
    <g id="ytick_2">
     <g id="line2d_13">
      <g>
       <use xlink:href="#md278175067" x="46.0125" y="311.074603" style="stroke: #000000; stroke-width: 0.8"/>
      </g>
     </g>
     <g id="text_13">
      <!-- 5000 -->
      <g transform="translate(13.5625 314.873822)scale(0.1 -0.1)">
       <defs>
        <path id="DejaVuSans-35" d="M 691 4666 
L 3169 4666 
L 3169 4134 
L 1269 4134 
L 1269 2991 
Q 1406 3038 1543 3061 
Q 1681 3084 1819 3084 
Q 2600 3084 3056 2656 
Q 3513 2228 3513 1497 
Q 3513 744 3044 326 
Q 2575 -91 1722 -91 
Q 1428 -91 1123 -41 
Q 819 9 494 109 
L 494 744 
Q 775 591 1075 516 
Q 1375 441 1709 441 
Q 2250 441 2565 725 
Q 2881 1009 2881 1497 
Q 2881 1984 2565 2268 
Q 2250 2553 1709 2553 
Q 1456 2553 1204 2497 
Q 953 2441 691 2322 
L 691 4666 
z
" transform="scale(0.015625)"/>
       </defs>
       <use xlink:href="#DejaVuSans-35"/>
       <use xlink:href="#DejaVuSans-30" x="63.623047"/>
       <use xlink:href="#DejaVuSans-30" x="127.246094"/>
       <use xlink:href="#DejaVuSans-30" x="190.869141"/>
      </g>
     </g>
    </g>
    <g id="ytick_3">
     <g id="line2d_14">
      <g>
       <use xlink:href="#md278175067" x="46.0125" y="269.237849" style="stroke: #000000; stroke-width: 0.8"/>
      </g>
     </g>
     <g id="text_14">
      <!-- 10000 -->
      <g transform="translate(7.2 273.037067)scale(0.1 -0.1)">
       <use xlink:href="#DejaVuSans-31"/>
       <use xlink:href="#DejaVuSans-30" x="63.623047"/>
       <use xlink:href="#DejaVuSans-30" x="127.246094"/>
       <use xlink:href="#DejaVuSans-30" x="190.869141"/>
       <use xlink:href="#DejaVuSans-30" x="254.492188"/>
      </g>
     </g>
    </g>
    <g id="ytick_4">
     <g id="line2d_15">
      <g>
       <use xlink:href="#md278175067" x="46.0125" y="227.401094" style="stroke: #000000; stroke-width: 0.8"/>
      </g>
     </g>
     <g id="text_15">
      <!-- 15000 -->
      <g transform="translate(7.2 231.200313)scale(0.1 -0.1)">
       <use xlink:href="#DejaVuSans-31"/>
       <use xlink:href="#DejaVuSans-35" x="63.623047"/>
       <use xlink:href="#DejaVuSans-30" x="127.246094"/>
       <use xlink:href="#DejaVuSans-30" x="190.869141"/>
       <use xlink:href="#DejaVuSans-30" x="254.492188"/>
      </g>
     </g>
    </g>
    <g id="ytick_5">
     <g id="line2d_16">
      <g>
       <use xlink:href="#md278175067" x="46.0125" y="185.56434" style="stroke: #000000; stroke-width: 0.8"/>
      </g>
     </g>
     <g id="text_16">
      <!-- 20000 -->
      <g transform="translate(7.2 189.363558)scale(0.1 -0.1)">
       <use xlink:href="#DejaVuSans-32"/>
       <use xlink:href="#DejaVuSans-30" x="63.623047"/>
       <use xlink:href="#DejaVuSans-30" x="127.246094"/>
       <use xlink:href="#DejaVuSans-30" x="190.869141"/>
       <use xlink:href="#DejaVuSans-30" x="254.492188"/>
      </g>
     </g>
    </g>
    <g id="ytick_6">
     <g id="line2d_17">
      <g>
       <use xlink:href="#md278175067" x="46.0125" y="143.727585" style="stroke: #000000; stroke-width: 0.8"/>
      </g>
     </g>
     <g id="text_17">
      <!-- 25000 -->
      <g transform="translate(7.2 147.526804)scale(0.1 -0.1)">
       <use xlink:href="#DejaVuSans-32"/>
       <use xlink:href="#DejaVuSans-35" x="63.623047"/>
       <use xlink:href="#DejaVuSans-30" x="127.246094"/>
       <use xlink:href="#DejaVuSans-30" x="190.869141"/>
       <use xlink:href="#DejaVuSans-30" x="254.492188"/>
      </g>
     </g>
    </g>
    <g id="ytick_7">
     <g id="line2d_18">
      <g>
       <use xlink:href="#md278175067" x="46.0125" y="101.890831" style="stroke: #000000; stroke-width: 0.8"/>
      </g>
     </g>
     <g id="text_18">
      <!-- 30000 -->
      <g transform="translate(7.2 105.690049)scale(0.1 -0.1)">
       <defs>
        <path id="DejaVuSans-33" d="M 2597 2516 
Q 3050 2419 3304 2112 
Q 3559 1806 3559 1356 
Q 3559 666 3084 287 
Q 2609 -91 1734 -91 
Q 1441 -91 1130 -33 
Q 819 25 488 141 
L 488 750 
Q 750 597 1062 519 
Q 1375 441 1716 441 
Q 2309 441 2620 675 
Q 2931 909 2931 1356 
Q 2931 1769 2642 2001 
Q 2353 2234 1838 2234 
L 1294 2234 
L 1294 2753 
L 1863 2753 
Q 2328 2753 2575 2939 
Q 2822 3125 2822 3475 
Q 2822 3834 2567 4026 
Q 2313 4219 1838 4219 
Q 1578 4219 1281 4162 
Q 984 4106 628 3988 
L 628 4550 
Q 988 4650 1302 4700 
Q 1616 4750 1894 4750 
Q 2613 4750 3031 4423 
Q 3450 4097 3450 3541 
Q 3450 3153 3228 2886 
Q 3006 2619 2597 2516 
z
" transform="scale(0.015625)"/>
       </defs>
       <use xlink:href="#DejaVuSans-33"/>
       <use xlink:href="#DejaVuSans-30" x="63.623047"/>
       <use xlink:href="#DejaVuSans-30" x="127.246094"/>
       <use xlink:href="#DejaVuSans-30" x="190.869141"/>
       <use xlink:href="#DejaVuSans-30" x="254.492188"/>
      </g>
     </g>
    </g>
    <g id="ytick_8">
     <g id="line2d_19">
      <g>
       <use xlink:href="#md278175067" x="46.0125" y="60.054076" style="stroke: #000000; stroke-width: 0.8"/>
      </g>
     </g>
     <g id="text_19">
      <!-- 35000 -->
      <g transform="translate(7.2 63.853295)scale(0.1 -0.1)">
       <use xlink:href="#DejaVuSans-33"/>
       <use xlink:href="#DejaVuSans-35" x="63.623047"/>
       <use xlink:href="#DejaVuSans-30" x="127.246094"/>
       <use xlink:href="#DejaVuSans-30" x="190.869141"/>
       <use xlink:href="#DejaVuSans-30" x="254.492188"/>
      </g>
     </g>
    </g>
   </g>
   <g id="line2d_20">
    <path d="M 106.885227 352.911358 
L 178.907567 352.810949 
L 180.292612 352.718909 
L 181.677657 352.760745 
L 183.062702 352.685439 
L 184.447747 352.861154 
L 185.832792 352.49299 
L 188.602882 352.6185 
L 189.987927 352.526459 
L 191.372972 352.066255 
L 192.758017 352.141561 
L 194.143062 352.735643 
L 198.298197 352.124827 
L 201.068287 352.007684 
L 202.453332 351.580949 
L 203.838377 352.108092 
L 205.223422 352.024418 
L 206.608466 351.748296 
L 207.993511 352.250337 
L 209.378556 352.124827 
L 210.763601 351.22952 
L 212.148646 350.618703 
L 213.533691 351.497275 
L 214.918736 350.81952 
L 216.303781 350.936663 
L 217.688826 352.350745 
L 219.073871 352.275439 
L 220.458916 351.848704 
L 223.229006 351.840337 
L 224.614051 351.187683 
L 227.384141 351.480541 
L 228.769186 351.363398 
L 230.154231 351.472173 
L 231.539276 351.179316 
L 232.924321 351.196051 
L 234.309366 350.233805 
L 235.694411 350.727479 
L 238.464501 351.087275 
L 239.849546 349.96605 
L 241.234591 350.752581 
L 242.619636 350.401152 
L 244.004681 348.73605 
L 245.389726 350.576867 
L 246.774771 349.706662 
L 248.159816 350.359316 
L 249.544861 347.556253 
L 250.929906 350.016254 
L 252.314951 348.752784 
L 253.699996 347.932784 
L 255.085041 349.196254 
L 256.470086 348.158702 
L 257.855131 348.309315 
L 259.240176 347.397273 
L 260.625221 347.405641 
L 262.010266 347.221559 
L 263.395311 347.840743 
L 264.780356 346.861763 
L 266.165401 347.59809 
L 267.550446 346.878498 
L 268.935491 347.556253 
L 270.320536 346.61911 
L 271.705581 347.531151 
L 273.090626 346.20911 
L 274.475671 344.159109 
L 275.860716 344.560741 
L 277.245761 346.167273 
L 278.630806 344.359925 
L 280.015851 343.698904 
L 281.400896 342.351761 
L 282.785941 341.84972 
L 284.170986 339.958698 
L 285.556031 343.314006 
L 286.941076 343.623598 
L 288.326121 341.699107 
L 289.711166 340.184617 
L 291.096211 338.134616 
L 292.481256 340.234821 
L 293.866301 341.264005 
L 295.251346 342.79523 
L 296.636391 340.502576 
L 298.021436 341.540128 
L 299.406481 339.490127 
L 300.791526 340.109311 
L 302.176571 339.138698 
L 303.561616 337.113799 
L 304.946661 334.561757 
L 306.331706 335.139104 
L 307.716751 337.281146 
L 309.101796 335.21441 
L 310.486841 326.378488 
L 311.871886 327.315631 
L 313.256931 333.189512 
L 314.641976 327.650325 
L 316.027021 331.733592 
L 317.412066 332.921756 
L 318.797111 323.282568 
L 320.182156 323.742772 
L 321.567201 320.755628 
L 322.952246 318.195219 
L 324.337291 326.319916 
L 325.722336 325.516651 
L 327.107381 329.457673 
L 328.492426 318.078076 
L 329.877471 318.596852 
L 331.262516 324.504201 
L 332.647561 320.412567 
L 334.032605 321.776445 
L 335.41765 326.378488 
L 336.802695 317.659708 
L 338.18774 318.237055 
L 339.572785 308.271541 
L 340.95783 295.988269 
L 342.342875 312.279502 
L 343.72792 312.639298 
L 345.112965 320.847669 
L 346.49801 305.878478 
L 347.883055 308.807051 
L 349.2681 285.662958 
L 350.653145 278.157445 
L 352.03819 281.286834 
L 353.423235 297.870923 
L 354.80828 296.624188 
L 356.193325 294.063779 
L 357.57837 291.076634 
L 358.963415 286.432755 
L 360.34846 292.934186 
L 361.733505 292.214594 
L 363.11855 284.45806 
L 364.503595 284.926632 
L 365.88864 266.861521 
L 367.273685 280.366425 
L 368.65873 269.530706 
L 370.043775 273.521932 
L 371.42882 263.606621 
L 372.813865 256.937843 
L 374.19891 267.572746 
L 375.583955 293.260513 
L 376.969 263.087846 
L 378.354045 252.536616 
L 379.73909 273.471728 
L 381.124135 272.032544 
L 382.50918 264.125397 
L 383.894225 268.049685 
L 385.27927 245.558246 
L 388.04936 258.477435 
L 389.434405 258.310088 
L 390.81945 256.034169 
L 392.204495 255.490291 
L 393.58954 283.228059 
L 394.974585 248.637431 
L 396.35963 243.667224 
L 397.744675 256.343761 
L 399.12972 282.46663 
L 400.514765 261.163355 
L 401.89981 285.671326 
L 403.284855 264.644173 
L 404.6699 265.681724 
L 406.054945 268.150093 
L 407.43999 271.312952 
L 408.825035 281.813977 
L 410.21008 274.325198 
L 411.595125 285.805203 
L 412.98017 292.750105 
L 414.365215 278.174179 
L 415.75026 275.136831 
L 417.135305 283.855611 
L 418.52035 281.880916 
L 419.905395 282.684181 
L 421.29044 285.428673 
L 422.675485 308.338479 
L 424.06053 288.775613 
L 425.445575 291.511737 
L 426.83062 287.537245 
L 428.215665 290.792145 
L 429.60071 295.377453 
L 430.985755 291.369492 
L 432.3708 306.280111 
L 435.14089 287.754796 
L 436.525935 289.587246 
L 437.91098 298.306026 
L 439.296025 286.583367 
L 442.066115 308.070724 
L 443.45116 293.486432 
L 444.836205 296.590719 
L 446.22125 298.063372 
L 447.606295 290.20643 
L 448.99134 288.307041 
L 450.376385 294.189289 
L 451.76143 309.844603 
L 453.146475 304.054396 
L 454.53152 305.744601 
L 455.916565 305.552152 
L 457.30161 301.092353 
L 458.686655 297.561331 
L 460.0717 295.1348 
L 461.456744 293.452962 
L 462.841789 288.901123 
L 464.226834 287.010102 
L 465.611879 281.830712 
L 466.996924 284.960101 
L 468.381969 282.232345 
L 469.767014 281.211528 
L 471.152059 287.913776 
L 472.537104 310.95746 
L 473.922149 302.196844 
L 475.307194 295.820922 
L 476.692239 282.859896 
L 478.077284 294.197656 
L 479.462329 292.658064 
L 480.847374 300.105006 
L 482.232419 283.830509 
L 483.617464 289.645817 
L 485.002509 280.341323 
L 486.387554 281.211528 
L 487.772599 279.538058 
L 489.157644 284.516631 
L 490.542689 276.207852 
L 491.927734 284.58357 
L 493.312779 279.97316 
L 494.697824 259.305803 
L 496.082869 268.995195 
L 497.467914 260.594375 
L 498.852959 276.458872 
L 500.238004 269.781726 
L 501.623049 301.569292 
L 503.008094 280.165609 
L 504.393139 270.14989 
L 505.778184 271.279482 
L 507.163229 279.998262 
L 508.548274 290.658267 
L 509.933319 309.593582 
L 511.318364 300.263986 
L 512.703409 269.488869 
L 514.088454 280.232548 
L 515.473499 280.240915 
L 516.858544 278.132343 
L 518.243589 293.402758 
L 519.628634 298.76623 
L 521.013679 303.451946 
L 522.398724 295.38582 
L 523.783769 290.265001 
L 525.168814 286.357449 
L 526.553859 293.929901 
L 527.938904 286.608469 
L 529.323949 298.004801 
L 533.479084 273.454993 
L 534.864129 269.0454 
L 536.249174 276.743362 
L 539.019264 282.37459 
L 540.404309 286.089693 
L 541.789354 275.120096 
L 543.174399 275.655607 
L 544.559444 275.220504 
L 545.944489 272.23336 
L 547.329534 278.826833 
L 548.714579 302.732354 
L 550.099624 290.072552 
L 551.484669 289.963777 
L 552.869714 287.830102 
L 554.254759 277.621934 
L 555.639804 284.608672 
L 557.024849 280.09867 
L 558.409894 279.763976 
L 559.794939 268.150093 
L 561.179984 252.896412 
L 562.565029 250.863146 
L 563.950074 241.81804 
L 565.335119 235.852118 
L 566.720164 259.531722 
L 568.105209 262.167437 
L 570.875299 233.818852 
L 572.260344 227.903135 
L 573.645389 227.894768 
L 575.030434 267.597848 
L 576.415479 272.634993 
L 577.800524 275.011321 
L 579.185569 260.744987 
L 580.570614 255.52376 
L 581.955659 216.406395 
L 583.340704 251.624575 
L 584.725749 256.452536 
L 586.110794 274.157851 
L 587.495839 266.635602 
L 588.880883 212.047005 
L 590.265928 212.298026 
L 591.650973 205.846798 
L 593.036018 200.449857 
L 594.421063 220.74905 
L 595.806108 222.907827 
L 597.191153 227.375992 
L 598.576198 234.270689 
L 599.961243 219.887213 
L 601.346288 209.653943 
L 602.731333 176.544335 
L 604.116378 178.410255 
L 605.501423 207.495166 
L 606.886468 229.75232 
L 608.271513 219.544152 
L 609.656558 203.068838 
L 611.041603 224.338644 
L 612.426648 226.790277 
L 613.811693 222.790684 
L 615.196738 248.185594 
L 616.581783 250.319268 
L 617.966828 239.065181 
L 619.351873 236.16171 
L 620.736918 250.243962 
L 622.121963 268.752542 
L 623.507008 276.157648 
L 624.892053 285.319897 
L 626.277098 272.400707 
L 627.662143 268.47642 
L 629.047188 260.661314 
L 630.432233 270.994992 
L 631.817278 292.264798 
L 633.202323 281.395609 
L 634.587368 302.631946 
L 635.972413 317.383586 
L 637.357458 307.376234 
L 638.742503 299.000516 
L 640.127548 300.247251 
L 641.512593 306.656642 
L 642.897638 311.518073 
L 644.282683 311.718889 
L 645.667728 323.541956 
L 647.052773 319.031954 
L 648.437818 310.212766 
L 649.822863 312.547257 
L 651.207908 315.459095 
L 652.592953 310.932358 
L 653.977998 317.40032 
L 655.363043 324.453997 
L 656.748088 320.061138 
L 658.133133 319.835219 
L 659.518178 322.094404 
L 660.903223 323.065017 
L 662.288268 324.939304 
L 663.673313 323.165425 
L 665.058358 323.039915 
L 666.443403 316.605422 
L 667.828448 327.416039 
L 669.213493 323.081752 
L 670.598538 324.705018 
L 671.983583 322.261751 
L 673.368628 324.370324 
L 674.753673 334.461349 
L 676.138718 323.533589 
L 677.523763 322.889303 
L 678.908808 314.597258 
L 680.293853 318.789301 
L 681.678898 315.551136 
L 683.063943 318.923178 
L 684.448988 329.984816 
L 685.834033 321.818282 
L 687.219078 314.806442 
L 688.604123 309.911541 
L 689.989168 309.961745 
L 691.374213 296.339698 
L 692.759258 302.347456 
L 694.144303 310.67297 
L 695.529348 311.52644 
L 696.914393 302.824395 
L 698.299438 296.582351 
L 699.684483 291.034798 
L 701.069528 283.847243 
L 702.454573 293.17684 
L 703.839618 293.929901 
L 705.224663 286.374183 
L 706.609708 280.567242 
L 707.994753 257.113557 
L 709.379798 267.380297 
L 710.764843 276.358464 
L 712.149888 277.421118 
L 713.534933 267.648052 
L 714.919978 253.950698 
L 716.305022 257.682537 
L 717.690067 248.620696 
L 719.075112 251.457228 
L 720.460157 231.509463 
L 721.845202 206.624962 
L 723.230247 212.850271 
L 724.615292 215.879252 
L 726.000337 214.958843 
L 727.385382 211.352515 
L 728.770427 213.151495 
L 730.155472 213.561496 
L 731.540517 211.745781 
L 732.925562 234.187016 
L 734.310607 210.95925 
L 735.695652 208.892514 
L 737.080697 191.371281 
L 738.465742 186.191891 
L 739.850787 212.925577 
L 741.235832 209.076596 
L 742.620877 245.482939 
L 744.005922 205.830063 
L 745.390967 187.698014 
L 746.776012 208.089248 
L 748.161057 204.056185 
L 749.546102 202.11496 
L 750.931147 219.795172 
L 752.316192 255.858454 
L 753.701237 231.158035 
L 755.086282 229.02436 
L 756.471327 214.933741 
L 757.856372 206.273533 
L 759.241417 211.419454 
L 760.626462 208.80884 
L 762.011507 247.959675 
L 763.396552 215.477619 
L 764.781597 210.724964 
L 766.166642 192.592914 
L 767.551687 214.172312 
L 768.936732 194.994344 
L 770.321777 226.62293 
L 771.706822 244.269673 
L 773.091867 242.989469 
L 774.476912 214.189047 
L 775.861957 218.314151 
L 777.247002 228.756605 
L 778.632047 196.132304 
L 780.017092 171.599231 
L 781.402137 210.858841 
L 782.787182 175.682498 
L 784.172227 156.387387 
L 785.557272 142.957789 
L 786.942317 157.332898 
L 788.327362 181.430868 
L 789.712407 183.740257 
L 792.482497 135.644724 
L 793.867542 126.992883 
L 795.252587 113.404305 
L 796.637632 101.890831 
L 798.022677 110.500835 
L 799.407722 151.676568 
L 800.792767 169.256373 
L 802.177812 197.395774 
L 803.562857 169.842087 
L 804.947902 88.034497 
L 806.332947 105.488791 
L 807.717992 101.907565 
L 809.103037 114.282877 
L 810.488082 148.948812 
L 811.873127 148.312893 
L 813.258172 120.073084 
L 814.643217 102.351035 
L 816.028262 112.015325 
L 817.413307 112.483897 
L 818.798352 120.14839 
L 820.183397 158.46249 
L 821.568442 113.471244 
L 822.953487 101.932667 
L 824.338532 76.81388 
L 825.723577 79.02286 
L 827.108622 71.818571 
L 828.493667 82.010005 
L 829.878712 114.625939 
L 831.263757 136.364316 
L 832.648802 119.395329 
L 834.033847 115.989817 
L 835.418892 118.583696 
L 836.803937 127.595332 
L 838.188982 133.142886 
L 839.574027 140.665135 
L 840.959072 129.327374 
L 842.344117 150.178813 
L 843.729161 158.161265 
L 845.114206 172.712089 
L 846.499251 177.908213 
L 847.884296 190.392301 
L 849.269341 196.860263 
L 850.654386 206.214962 
L 852.039431 208.741902 
L 853.424476 201.713327 
L 854.809521 203.194348 
L 856.194566 186.191891 
L 858.964656 215.226598 
L 860.349701 245.566613 
L 861.734746 258.828864 
L 863.119791 247.683553 
L 864.504836 242.76355 
L 865.889881 260.334987 
L 867.274926 260.468865 
L 868.659971 281.763773 
L 870.045016 257.306006 
L 871.430061 274.559484 
L 872.815106 271.831727 
L 874.200151 273.739483 
L 875.585196 277.362546 
L 876.970241 276.818669 
L 878.355286 297.385617 
L 879.740331 294.933983 
L 881.125376 293.637044 
L 882.510421 298.188883 
L 883.895466 294.507248 
L 885.280511 302.280517 
L 886.665556 316.513381 
L 888.050601 319.249505 
L 889.435646 319.877056 
L 890.820691 307.995418 
L 892.205736 317.166035 
L 893.590781 319.216036 
L 894.975826 319.383383 
L 896.360871 326.704815 
L 897.745916 326.462161 
L 899.130961 325.742569 
L 900.516006 326.520733 
L 901.901051 326.194406 
L 903.286096 324.328487 
L 904.671141 328.102162 
L 906.056186 330.821551 
L 907.441231 330.336245 
L 908.826276 332.269103 
L 910.211321 332.428083 
L 911.596366 336.720534 
L 912.981411 335.524002 
L 914.366456 334.996859 
L 915.751501 336.561554 
L 917.136546 336.126452 
L 918.521591 337.666044 
L 919.906636 336.210125 
L 921.291681 336.603391 
L 922.676726 337.431758 
L 924.061771 335.348288 
L 925.446816 338.946249 
L 926.831861 343.506455 
L 928.216906 339.214004 
L 929.601951 337.958902 
L 930.986996 337.825024 
L 932.372041 338.084412 
L 933.757086 337.799922 
L 935.142131 338.929514 
L 936.527176 341.916659 
L 939.297266 339.774617 
L 940.682311 340.494209 
L 942.067356 339.992168 
L 943.452401 339.063392 
L 944.837446 337.74135 
L 946.222491 342.996047 
L 948.992581 339.682576 
L 950.377626 339.456657 
L 951.762671 338.670126 
L 953.147716 338.352167 
L 954.532761 341.012985 
L 955.917806 344.418496 
L 957.302851 338.804004 
L 958.687896 340.594617 
L 960.072941 340.954413 
L 961.457986 337.289513 
L 962.843031 340.385433 
L 964.228076 341.088291 
L 965.613121 342.962577 
L 966.998166 342.778496 
L 968.383211 341.255638 
L 969.768256 338.87931 
L 971.1533 339.465025 
L 972.538345 339.632372 
L 973.92339 340.209719 
L 975.308435 343.799312 
L 976.69348 343.916455 
L 978.078525 342.401965 
L 979.46357 341.305842 
L 980.848615 339.138698 
L 982.23366 339.992168 
L 985.00375 344.184211 
L 986.388795 344.94564 
L 990.54393 338.084412 
L 991.928975 339.021555 
L 993.31402 341.456454 
L 994.699065 340.059107 
L 996.08411 340.962781 
L 997.469155 338.854208 
L 998.8542 338.268494 
L 1000.239245 339.490127 
L 1001.62429 339.280943 
L 1003.009335 338.603188 
L 1004.39438 339.60727 
L 1005.779425 340.987883 
L 1007.16447 338.711963 
L 1008.549515 336.946452 
L 1009.93456 336.38584 
L 1011.319605 336.185023 
L 1012.70465 335.666247 
L 1014.089695 336.871146 
L 1016.859785 332.319307 
L 1018.24483 330.788082 
L 1019.629875 331.499307 
L 1021.01492 331.884205 
L 1022.399965 331.072572 
L 1025.170055 336.000941 
L 1026.5551 334.026247 
L 1027.940145 335.164206 
L 1029.32519 334.862982 
L 1030.710235 331.239919 
L 1032.09528 330.746245 
L 1033.480325 334.55339 
L 1034.86537 332.177062 
L 1036.250415 331.825633 
L 1037.63546 330.788082 
L 1039.020505 330.654204 
L 1040.40555 330.988898 
L 1041.790595 334.536655 
L 1043.17564 336.38584 
L 1044.560685 333.69992 
L 1045.94573 334.729104 
L 1047.330775 333.98441 
L 1048.71582 333.674818 
L 1050.100865 331.080939 
L 1051.48591 335.53237 
L 1052.870955 338.703596 
L 1054.256 338.653392 
L 1055.641045 336.887881 
L 1057.02609 339.297678 
L 1058.411135 338.795637 
L 1059.79618 337.74135 
L 1061.181225 335.959105 
L 1062.56627 333.775226 
L 1063.951315 337.356452 
L 1065.33636 335.624411 
L 1066.721405 338.519514 
L 1068.10645 337.825024 
L 1069.491495 336.042778 
L 1070.87654 335.858696 
L 1072.261585 338.695228 
L 1073.64663 338.134616 
L 1075.031675 336.754003 
L 1077.801765 327.307264 
L 1079.18681 324.345222 
L 1080.571855 327.625223 
L 1081.9569 325.458079 
L 1083.341945 316.881545 
L 1088.882125 249.030696 
L 1090.26717 258.20968 
L 1091.652215 270.509686 
L 1093.03726 249.549472 
L 1094.422305 216.866599 
L 1095.80735 160.13596 
L 1097.192395 133.770437 
L 1098.577439 92.10103 
L 1099.962484 96.619399 
L 1101.347529 126.114311 
L 1102.732574 159.843103 
L 1104.117619 103.087362 
L 1105.502664 99.52287 
L 1106.887709 60.698362 
L 1108.272754 55.242849 
L 1109.657799 82.503678 
L 1111.042844 149.819016 
L 1112.427889 111.521651 
L 1113.812934 121.947371 
L 1115.197979 97.656951 
L 1116.583024 93.197153 
L 1117.968069 118.399614 
L 1119.353114 134.632275 
L 1120.738159 175.364539 
L 1123.508249 203.227817 
L 1124.893294 205.118839 
L 1126.278339 177.648826 
L 1129.048429 218.038028 
L 1131.818519 231.969668 
L 1133.203564 226.480685 
L 1134.588609 239.383141 
L 1135.973654 240.872529 
L 1137.358699 247.758859 
L 1138.743744 266.259072 
L 1140.128789 276.935811 
L 1141.513834 271.497033 
L 1142.898879 279.40418 
L 1144.283924 283.721733 
L 1145.668969 307.551948 
L 1147.054014 297.921127 
L 1148.439059 306.623172 
L 1149.824104 326.453794 
L 1151.209149 321.692771 
L 1152.594194 318.25379 
L 1153.979239 319.333178 
L 1155.364284 319.274607 
L 1156.749329 315.275013 
L 1158.134374 324.621344 
L 1159.519419 328.562366 
L 1160.904464 334.720737 
L 1162.289509 334.662165 
L 1163.674554 334.093185 
L 1166.444644 335.524002 
L 1167.829689 336.946452 
L 1169.214734 337.164003 
L 1170.599779 342.719924 
L 1171.984824 342.686455 
L 1173.369869 344.117272 
L 1174.754914 341.607067 
L 1176.139959 342.945843 
L 1177.525004 343.80768 
L 1178.910049 344.94564 
L 1180.295094 346.552171 
L 1183.065184 346.895232 
L 1184.450229 346.368089 
L 1185.835274 347.246661 
L 1187.220319 348.844825 
L 1188.605364 348.98707 
L 1189.990409 348.116866 
L 1191.375454 347.673396 
L 1192.760499 346.686049 
L 1194.145544 347.347069 
L 1195.530589 347.112783 
L 1196.915634 348.376253 
L 1198.300679 348.660743 
L 1199.685724 350.451356 
L 1201.070769 350.459724 
L 1202.455814 349.974417 
L 1203.840859 349.848907 
L 1205.225904 349.99952 
L 1206.610949 349.96605 
L 1207.995994 350.434622 
L 1210.766084 350.309111 
L 1212.151129 349.857275 
L 1214.921219 349.99952 
L 1216.306264 350.334214 
L 1217.691309 350.342581 
L 1219.076354 350.811153 
L 1220.461399 350.175234 
L 1221.846444 350.300744 
L 1223.231489 350.233805 
L 1224.616534 350.451356 
L 1227.386623 350.392785 
L 1228.771668 350.53503 
L 1230.156713 350.459724 
L 1231.541758 350.702377 
L 1234.311848 351.580949 
L 1235.696893 351.890541 
L 1237.081938 351.831969 
L 1238.466983 351.179316 
L 1239.852028 350.836255 
L 1241.237073 350.618703 
L 1244.007163 350.476459 
L 1246.777253 351.170949 
L 1249.547343 351.187683 
L 1250.932388 351.170949 
L 1253.702478 350.702377 
L 1255.087523 352.911358 
L 1259.242658 352.911358 
L 1260.627703 344.728088 
L 1262.012748 352.911358 
L 1268.937973 352.911358 
L 1270.323018 338.929514 
L 1271.708063 352.911358 
L 1278.633288 352.911358 
L 1280.018333 321.157261 
L 1281.403378 352.911358 
L 1288.328603 352.911358 
L 1289.713648 316.563585 
L 1291.098693 352.911358 
L 1298.023918 352.911358 
L 1299.408963 305.635825 
L 1300.794008 352.911358 
L 1304.949143 352.911358 
L 1304.949143 352.911358 
" clip-path="url(#pe9f917fa6e)" style="fill: none; stroke: #0000ff; stroke-width: 1.5; stroke-linecap: square"/>
   </g>
   <g id="line2d_21">
    <path d="M 1065.33636 336.655177 
L 1066.721405 336.18063 
L 1068.10645 337.990463 
L 1069.491495 336.970553 
L 1070.87654 336.512829 
L 1072.261585 336.192595 
L 1073.64663 339.080631 
L 1075.031675 337.413361 
L 1076.41672 337.894699 
L 1079.18681 327.657849 
L 1080.571855 325.467494 
L 1081.9569 328.535093 
L 1083.341945 326.173654 
L 1084.72699 317.770782 
L 1086.112035 302.683809 
L 1087.49708 285.333146 
L 1088.882125 269.386907 
L 1090.26717 255.005176 
L 1091.652215 259.468227 
L 1093.03726 267.077402 
L 1094.422305 246.833395 
L 1095.80735 217.248902 
L 1097.192395 165.962588 
L 1098.577439 137.786676 
L 1099.962484 105.806085 
L 1101.347529 105.420742 
L 1102.732574 118.08475 
L 1104.117619 141.338583 
L 1105.502664 88.250399 
L 1106.887709 89.113096 
L 1108.272754 50.8755 
L 1109.657799 58.963008 
L 1111.042844 88.920725 
L 1112.427889 144.676021 
L 1113.812934 91.171265 
L 1115.197979 107.208962 
L 1116.583024 81.765135 
L 1117.968069 82.597357 
L 1119.353114 120.953456 
L 1120.738159 153.496254 
L 1122.123204 162.650853 
L 1123.508249 175.277188 
L 1124.893294 184.534539 
L 1126.278339 190.025945 
L 1127.663384 179.785873 
L 1129.048429 204.494917 
L 1130.433474 237.928957 
L 1131.818519 225.826447 
L 1133.203564 230.81545 
L 1134.588609 221.283185 
L 1135.973654 224.415689 
L 1137.358699 244.21382 
L 1138.743744 255.792835 
L 1140.128789 277.705473 
L 1141.513834 278.064493 
L 1142.898879 270.479824 
L 1144.283924 278.919253 
L 1145.668969 276.631777 
L 1147.054014 307.701207 
L 1148.439059 307.617249 
L 1149.824104 316.619925 
L 1151.209149 324.395409 
L 1152.594194 322.788043 
L 1153.979239 320.409958 
L 1155.364284 323.226773 
L 1156.749329 320.222422 
L 1158.134374 323.9589 
L 1159.519419 335.500021 
L 1160.904464 328.206153 
L 1162.289509 333.86503 
L 1163.674554 335.392594 
L 1165.059599 335.939613 
L 1166.444644 334.03979 
L 1167.829689 341.834784 
L 1169.214734 344.167158 
L 1170.599779 339.413931 
L 1171.984824 342.555803 
L 1173.369869 343.061146 
L 1174.754914 345.060535 
L 1176.139959 341.751162 
L 1177.525004 346.652885 
L 1178.910049 347.6592 
L 1180.295094 347.512691 
L 1181.680139 346.834904 
L 1183.065184 347.482165 
L 1184.450229 346.935978 
L 1185.835274 346.71083 
L 1187.220319 349.36304 
L 1188.605364 350.978074 
L 1189.990409 350.779441 
L 1191.375454 348.663474 
L 1192.760499 348.388031 
L 1194.145544 346.889639 
L 1195.530589 347.770148 
L 1196.915634 348.786571 
L 1198.300679 349.590949 
L 1199.685724 349.359663 
L 1201.070769 350.23078 
L 1202.455814 350.296606 
L 1203.840859 350.073938 
L 1205.225904 350.003847 
L 1206.610949 351.153546 
L 1207.995994 350.801809 
L 1209.381039 351.316862 
L 1210.766084 350.527542 
L 1213.536174 349.963673 
L 1214.921219 350.088305 
L 1216.306264 350.604063 
L 1217.691309 350.846266 
L 1220.461399 350.796053 
L 1221.846444 350.072024 
L 1223.231489 350.335377 
L 1224.616534 350.316556 
L 1226.001578 350.824369 
L 1227.386623 350.721342 
L 1228.771668 350.786797 
L 1230.156713 350.400917 
L 1231.541758 350.399741 
L 1232.926803 350.657135 
L 1235.696893 351.67328 
L 1237.081938 351.931638 
L 1238.466983 352.023937 
L 1239.852028 351.183243 
L 1242.622118 350.845495 
L 1245.392208 350.739027 
L 1248.162298 351.058689 
L 1249.547343 351.023361 
L 1252.317433 351.192088 
L 1255.087523 350.955075 
L 1256.472568 352.743458 
L 1260.627703 352.828421 
L 1262.012748 345.939199 
L 1263.397793 352.259613 
L 1264.782838 353.2755 
L 1266.167883 352.899409 
L 1268.937973 352.847471 
L 1270.323018 350.642875 
L 1271.708063 342.978916 
L 1273.093108 352.032314 
L 1274.478153 352.806165 
L 1275.863198 352.748092 
L 1278.633288 352.833139 
L 1280.018333 347.898137 
L 1281.403378 330.304709 
L 1282.788423 350.946148 
L 1284.173468 352.043986 
L 1285.558513 352.390358 
L 1288.328603 352.744918 
L 1289.713648 341.584708 
L 1291.098693 331.691648 
L 1292.483738 351.057908 
L 1293.868783 352.012316 
L 1295.253828 352.4 
L 1298.023918 352.755463 
L 1299.408963 337.113549 
L 1300.794008 326.257709 
L 1302.179053 350.593185 
L 1303.564098 351.715416 
L 1304.949143 352.254148 
L 1304.949143 352.254148 
" clip-path="url(#pe9f917fa6e)" style="fill: none; stroke: #ffa500; stroke-width: 1.5; stroke-linecap: square"/>
   </g>
   <g id="line2d_22">
    <path d="M 1306.334188 352.555721 
L 1307.719233 352.417517 
L 1309.104278 331.361959 
L 1310.489323 352.344213 
L 1311.874368 352.335593 
L 1313.259413 352.35795 
L 1314.644458 352.359004 
L 1316.029503 352.260914 
L 1317.414548 352.221309 
L 1318.799593 335.667823 
L 1320.184638 352.19994 
L 1321.569683 352.196964 
L 1322.954728 352.216018 
L 1324.339773 352.2174 
" clip-path="url(#pe9f917fa6e)" style="fill: none; stroke: #ff0000; stroke-width: 1.5; stroke-linecap: square"/>
   </g>
   <g id="patch_3">
    <path d="M 46.0125 368.3955 
L 46.0125 35.7555 
" style="fill: none; stroke: #000000; stroke-width: 0.8; stroke-linejoin: miter; stroke-linecap: square"/>
   </g>
   <g id="patch_4">
    <path d="M 1385.2125 368.3955 
L 1385.2125 35.7555 
" style="fill: none; stroke: #000000; stroke-width: 0.8; stroke-linejoin: miter; stroke-linecap: square"/>
   </g>
   <g id="patch_5">
    <path d="M 46.0125 368.3955 
L 1385.2125 368.3955 
" style="fill: none; stroke: #000000; stroke-width: 0.8; stroke-linejoin: miter; stroke-linecap: square"/>
   </g>
   <g id="patch_6">
    <path d="M 46.0125 35.7555 
L 1385.2125 35.7555 
" style="fill: none; stroke: #000000; stroke-width: 0.8; stroke-linejoin: miter; stroke-linecap: square"/>
   </g>
   <g id="text_20">
    <!-- Daily Confirmed Cases Forecasting - Colombia -->
    <g transform="translate(576.915938 16.318125)scale(0.12 -0.12)">
     <defs>
      <path id="DejaVuSans-44" d="M 1259 4147 
L 1259 519 
L 2022 519 
Q 2988 519 3436 956 
Q 3884 1394 3884 2338 
Q 3884 3275 3436 3711 
Q 2988 4147 2022 4147 
L 1259 4147 
z
M 628 4666 
L 1925 4666 
Q 3281 4666 3915 4102 
Q 4550 3538 4550 2338 
Q 4550 1131 3912 565 
Q 3275 0 1925 0 
L 628 0 
L 628 4666 
z
" transform="scale(0.015625)"/>
      <path id="DejaVuSans-61" d="M 2194 1759 
Q 1497 1759 1228 1600 
Q 959 1441 959 1056 
Q 959 750 1161 570 
Q 1363 391 1709 391 
Q 2188 391 2477 730 
Q 2766 1069 2766 1631 
L 2766 1759 
L 2194 1759 
z
M 3341 1997 
L 3341 0 
L 2766 0 
L 2766 531 
Q 2569 213 2275 61 
Q 1981 -91 1556 -91 
Q 1019 -91 701 211 
Q 384 513 384 1019 
Q 384 1609 779 1909 
Q 1175 2209 1959 2209 
L 2766 2209 
L 2766 2266 
Q 2766 2663 2505 2880 
Q 2244 3097 1772 3097 
Q 1472 3097 1187 3025 
Q 903 2953 641 2809 
L 641 3341 
Q 956 3463 1253 3523 
Q 1550 3584 1831 3584 
Q 2591 3584 2966 3190 
Q 3341 2797 3341 1997 
z
" transform="scale(0.015625)"/>
      <path id="DejaVuSans-69" d="M 603 3500 
L 1178 3500 
L 1178 0 
L 603 0 
L 603 3500 
z
M 603 4863 
L 1178 4863 
L 1178 4134 
L 603 4134 
L 603 4863 
z
" transform="scale(0.015625)"/>
      <path id="DejaVuSans-6c" d="M 603 4863 
L 1178 4863 
L 1178 0 
L 603 0 
L 603 4863 
z
" transform="scale(0.015625)"/>
      <path id="DejaVuSans-79" d="M 2059 -325 
Q 1816 -950 1584 -1140 
Q 1353 -1331 966 -1331 
L 506 -1331 
L 506 -850 
L 844 -850 
Q 1081 -850 1212 -737 
Q 1344 -625 1503 -206 
L 1606 56 
L 191 3500 
L 800 3500 
L 1894 763 
L 2988 3500 
L 3597 3500 
L 2059 -325 
z
" transform="scale(0.015625)"/>
      <path id="DejaVuSans-20" transform="scale(0.015625)"/>
      <path id="DejaVuSans-43" d="M 4122 4306 
L 4122 3641 
Q 3803 3938 3442 4084 
Q 3081 4231 2675 4231 
Q 1875 4231 1450 3742 
Q 1025 3253 1025 2328 
Q 1025 1406 1450 917 
Q 1875 428 2675 428 
Q 3081 428 3442 575 
Q 3803 722 4122 1019 
L 4122 359 
Q 3791 134 3420 21 
Q 3050 -91 2638 -91 
Q 1578 -91 968 557 
Q 359 1206 359 2328 
Q 359 3453 968 4101 
Q 1578 4750 2638 4750 
Q 3056 4750 3426 4639 
Q 3797 4528 4122 4306 
z
" transform="scale(0.015625)"/>
      <path id="DejaVuSans-6f" d="M 1959 3097 
Q 1497 3097 1228 2736 
Q 959 2375 959 1747 
Q 959 1119 1226 758 
Q 1494 397 1959 397 
Q 2419 397 2687 759 
Q 2956 1122 2956 1747 
Q 2956 2369 2687 2733 
Q 2419 3097 1959 3097 
z
M 1959 3584 
Q 2709 3584 3137 3096 
Q 3566 2609 3566 1747 
Q 3566 888 3137 398 
Q 2709 -91 1959 -91 
Q 1206 -91 779 398 
Q 353 888 353 1747 
Q 353 2609 779 3096 
Q 1206 3584 1959 3584 
z
" transform="scale(0.015625)"/>
      <path id="DejaVuSans-6e" d="M 3513 2113 
L 3513 0 
L 2938 0 
L 2938 2094 
Q 2938 2591 2744 2837 
Q 2550 3084 2163 3084 
Q 1697 3084 1428 2787 
Q 1159 2491 1159 1978 
L 1159 0 
L 581 0 
L 581 3500 
L 1159 3500 
L 1159 2956 
Q 1366 3272 1645 3428 
Q 1925 3584 2291 3584 
Q 2894 3584 3203 3211 
Q 3513 2838 3513 2113 
z
" transform="scale(0.015625)"/>
      <path id="DejaVuSans-66" d="M 2375 4863 
L 2375 4384 
L 1825 4384 
Q 1516 4384 1395 4259 
Q 1275 4134 1275 3809 
L 1275 3500 
L 2222 3500 
L 2222 3053 
L 1275 3053 
L 1275 0 
L 697 0 
L 697 3053 
L 147 3053 
L 147 3500 
L 697 3500 
L 697 3744 
Q 697 4328 969 4595 
Q 1241 4863 1831 4863 
L 2375 4863 
z
" transform="scale(0.015625)"/>
      <path id="DejaVuSans-72" d="M 2631 2963 
Q 2534 3019 2420 3045 
Q 2306 3072 2169 3072 
Q 1681 3072 1420 2755 
Q 1159 2438 1159 1844 
L 1159 0 
L 581 0 
L 581 3500 
L 1159 3500 
L 1159 2956 
Q 1341 3275 1631 3429 
Q 1922 3584 2338 3584 
Q 2397 3584 2469 3576 
Q 2541 3569 2628 3553 
L 2631 2963 
z
" transform="scale(0.015625)"/>
      <path id="DejaVuSans-6d" d="M 3328 2828 
Q 3544 3216 3844 3400 
Q 4144 3584 4550 3584 
Q 5097 3584 5394 3201 
Q 5691 2819 5691 2113 
L 5691 0 
L 5113 0 
L 5113 2094 
Q 5113 2597 4934 2840 
Q 4756 3084 4391 3084 
Q 3944 3084 3684 2787 
Q 3425 2491 3425 1978 
L 3425 0 
L 2847 0 
L 2847 2094 
Q 2847 2600 2669 2842 
Q 2491 3084 2119 3084 
Q 1678 3084 1418 2786 
Q 1159 2488 1159 1978 
L 1159 0 
L 581 0 
L 581 3500 
L 1159 3500 
L 1159 2956 
Q 1356 3278 1631 3431 
Q 1906 3584 2284 3584 
Q 2666 3584 2933 3390 
Q 3200 3197 3328 2828 
z
" transform="scale(0.015625)"/>
      <path id="DejaVuSans-65" d="M 3597 1894 
L 3597 1613 
L 953 1613 
Q 991 1019 1311 708 
Q 1631 397 2203 397 
Q 2534 397 2845 478 
Q 3156 559 3463 722 
L 3463 178 
Q 3153 47 2828 -22 
Q 2503 -91 2169 -91 
Q 1331 -91 842 396 
Q 353 884 353 1716 
Q 353 2575 817 3079 
Q 1281 3584 2069 3584 
Q 2775 3584 3186 3129 
Q 3597 2675 3597 1894 
z
M 3022 2063 
Q 3016 2534 2758 2815 
Q 2500 3097 2075 3097 
Q 1594 3097 1305 2825 
Q 1016 2553 972 2059 
L 3022 2063 
z
" transform="scale(0.015625)"/>
      <path id="DejaVuSans-64" d="M 2906 2969 
L 2906 4863 
L 3481 4863 
L 3481 0 
L 2906 0 
L 2906 525 
Q 2725 213 2448 61 
Q 2172 -91 1784 -91 
Q 1150 -91 751 415 
Q 353 922 353 1747 
Q 353 2572 751 3078 
Q 1150 3584 1784 3584 
Q 2172 3584 2448 3432 
Q 2725 3281 2906 2969 
z
M 947 1747 
Q 947 1113 1208 752 
Q 1469 391 1925 391 
Q 2381 391 2643 752 
Q 2906 1113 2906 1747 
Q 2906 2381 2643 2742 
Q 2381 3103 1925 3103 
Q 1469 3103 1208 2742 
Q 947 2381 947 1747 
z
" transform="scale(0.015625)"/>
      <path id="DejaVuSans-73" d="M 2834 3397 
L 2834 2853 
Q 2591 2978 2328 3040 
Q 2066 3103 1784 3103 
Q 1356 3103 1142 2972 
Q 928 2841 928 2578 
Q 928 2378 1081 2264 
Q 1234 2150 1697 2047 
L 1894 2003 
Q 2506 1872 2764 1633 
Q 3022 1394 3022 966 
Q 3022 478 2636 193 
Q 2250 -91 1575 -91 
Q 1294 -91 989 -36 
Q 684 19 347 128 
L 347 722 
Q 666 556 975 473 
Q 1284 391 1588 391 
Q 1994 391 2212 530 
Q 2431 669 2431 922 
Q 2431 1156 2273 1281 
Q 2116 1406 1581 1522 
L 1381 1569 
Q 847 1681 609 1914 
Q 372 2147 372 2553 
Q 372 3047 722 3315 
Q 1072 3584 1716 3584 
Q 2034 3584 2315 3537 
Q 2597 3491 2834 3397 
z
" transform="scale(0.015625)"/>
      <path id="DejaVuSans-46" d="M 628 4666 
L 3309 4666 
L 3309 4134 
L 1259 4134 
L 1259 2759 
L 3109 2759 
L 3109 2228 
L 1259 2228 
L 1259 0 
L 628 0 
L 628 4666 
z
" transform="scale(0.015625)"/>
      <path id="DejaVuSans-63" d="M 3122 3366 
L 3122 2828 
Q 2878 2963 2633 3030 
Q 2388 3097 2138 3097 
Q 1578 3097 1268 2742 
Q 959 2388 959 1747 
Q 959 1106 1268 751 
Q 1578 397 2138 397 
Q 2388 397 2633 464 
Q 2878 531 3122 666 
L 3122 134 
Q 2881 22 2623 -34 
Q 2366 -91 2075 -91 
Q 1284 -91 818 406 
Q 353 903 353 1747 
Q 353 2603 823 3093 
Q 1294 3584 2113 3584 
Q 2378 3584 2631 3529 
Q 2884 3475 3122 3366 
z
" transform="scale(0.015625)"/>
      <path id="DejaVuSans-74" d="M 1172 4494 
L 1172 3500 
L 2356 3500 
L 2356 3053 
L 1172 3053 
L 1172 1153 
Q 1172 725 1289 603 
Q 1406 481 1766 481 
L 2356 481 
L 2356 0 
L 1766 0 
Q 1100 0 847 248 
Q 594 497 594 1153 
L 594 3053 
L 172 3053 
L 172 3500 
L 594 3500 
L 594 4494 
L 1172 4494 
z
" transform="scale(0.015625)"/>
      <path id="DejaVuSans-67" d="M 2906 1791 
Q 2906 2416 2648 2759 
Q 2391 3103 1925 3103 
Q 1463 3103 1205 2759 
Q 947 2416 947 1791 
Q 947 1169 1205 825 
Q 1463 481 1925 481 
Q 2391 481 2648 825 
Q 2906 1169 2906 1791 
z
M 3481 434 
Q 3481 -459 3084 -895 
Q 2688 -1331 1869 -1331 
Q 1566 -1331 1297 -1286 
Q 1028 -1241 775 -1147 
L 775 -588 
Q 1028 -725 1275 -790 
Q 1522 -856 1778 -856 
Q 2344 -856 2625 -561 
Q 2906 -266 2906 331 
L 2906 616 
Q 2728 306 2450 153 
Q 2172 0 1784 0 
Q 1141 0 747 490 
Q 353 981 353 1791 
Q 353 2603 747 3093 
Q 1141 3584 1784 3584 
Q 2172 3584 2450 3431 
Q 2728 3278 2906 2969 
L 2906 3500 
L 3481 3500 
L 3481 434 
z
" transform="scale(0.015625)"/>
      <path id="DejaVuSans-62" d="M 3116 1747 
Q 3116 2381 2855 2742 
Q 2594 3103 2138 3103 
Q 1681 3103 1420 2742 
Q 1159 2381 1159 1747 
Q 1159 1113 1420 752 
Q 1681 391 2138 391 
Q 2594 391 2855 752 
Q 3116 1113 3116 1747 
z
M 1159 2969 
Q 1341 3281 1617 3432 
Q 1894 3584 2278 3584 
Q 2916 3584 3314 3078 
Q 3713 2572 3713 1747 
Q 3713 922 3314 415 
Q 2916 -91 2278 -91 
Q 1894 -91 1617 61 
Q 1341 213 1159 525 
L 1159 0 
L 581 0 
L 581 4863 
L 1159 4863 
L 1159 2969 
z
" transform="scale(0.015625)"/>
     </defs>
     <use xlink:href="#DejaVuSans-44"/>
     <use xlink:href="#DejaVuSans-61" x="77.001953"/>
     <use xlink:href="#DejaVuSans-69" x="138.28125"/>
     <use xlink:href="#DejaVuSans-6c" x="166.064453"/>
     <use xlink:href="#DejaVuSans-79" x="193.847656"/>
     <use xlink:href="#DejaVuSans-20" x="253.027344"/>
     <use xlink:href="#DejaVuSans-43" x="284.814453"/>
     <use xlink:href="#DejaVuSans-6f" x="354.638672"/>
     <use xlink:href="#DejaVuSans-6e" x="415.820312"/>
     <use xlink:href="#DejaVuSans-66" x="479.199219"/>
     <use xlink:href="#DejaVuSans-69" x="514.404297"/>
     <use xlink:href="#DejaVuSans-72" x="542.1875"/>
     <use xlink:href="#DejaVuSans-6d" x="581.550781"/>
     <use xlink:href="#DejaVuSans-65" x="678.962891"/>
     <use xlink:href="#DejaVuSans-64" x="740.486328"/>
     <use xlink:href="#DejaVuSans-20" x="803.962891"/>
     <use xlink:href="#DejaVuSans-43" x="835.75"/>
     <use xlink:href="#DejaVuSans-61" x="905.574219"/>
     <use xlink:href="#DejaVuSans-73" x="966.853516"/>
     <use xlink:href="#DejaVuSans-65" x="1018.953125"/>
     <use xlink:href="#DejaVuSans-73" x="1080.476562"/>
     <use xlink:href="#DejaVuSans-20" x="1132.576172"/>
     <use xlink:href="#DejaVuSans-46" x="1164.363281"/>
     <use xlink:href="#DejaVuSans-6f" x="1218.257812"/>
     <use xlink:href="#DejaVuSans-72" x="1279.439453"/>
     <use xlink:href="#DejaVuSans-65" x="1318.302734"/>
     <use xlink:href="#DejaVuSans-63" x="1379.826172"/>
     <use xlink:href="#DejaVuSans-61" x="1434.806641"/>
     <use xlink:href="#DejaVuSans-73" x="1496.085938"/>
     <use xlink:href="#DejaVuSans-74" x="1548.185547"/>
     <use xlink:href="#DejaVuSans-69" x="1587.394531"/>
     <use xlink:href="#DejaVuSans-6e" x="1615.177734"/>
     <use xlink:href="#DejaVuSans-67" x="1678.556641"/>
     <use xlink:href="#DejaVuSans-20" x="1742.033203"/>
     <use xlink:href="#DejaVuSans-2d" x="1773.820312"/>
     <use xlink:href="#DejaVuSans-20" x="1809.904297"/>
     <use xlink:href="#DejaVuSans-43" x="1841.691406"/>
     <use xlink:href="#DejaVuSans-6f" x="1911.515625"/>
     <use xlink:href="#DejaVuSans-6c" x="1972.697266"/>
     <use xlink:href="#DejaVuSans-6f" x="2000.480469"/>
     <use xlink:href="#DejaVuSans-6d" x="2061.662109"/>
     <use xlink:href="#DejaVuSans-62" x="2159.074219"/>
     <use xlink:href="#DejaVuSans-69" x="2222.550781"/>
     <use xlink:href="#DejaVuSans-61" x="2250.333984"/>
    </g>
    <!-- ARIMA (1, 1, 1)x(1, 0, 1, 7) (R2 = 0.969332) -->
    <g transform="translate(583.628438 29.7555)scale(0.12 -0.12)">
     <defs>
      <path id="DejaVuSans-41" d="M 2188 4044 
L 1331 1722 
L 3047 1722 
L 2188 4044 
z
M 1831 4666 
L 2547 4666 
L 4325 0 
L 3669 0 
L 3244 1197 
L 1141 1197 
L 716 0 
L 50 0 
L 1831 4666 
z
" transform="scale(0.015625)"/>
      <path id="DejaVuSans-52" d="M 2841 2188 
Q 3044 2119 3236 1894 
Q 3428 1669 3622 1275 
L 4263 0 
L 3584 0 
L 2988 1197 
Q 2756 1666 2539 1819 
Q 2322 1972 1947 1972 
L 1259 1972 
L 1259 0 
L 628 0 
L 628 4666 
L 2053 4666 
Q 2853 4666 3247 4331 
Q 3641 3997 3641 3322 
Q 3641 2881 3436 2590 
Q 3231 2300 2841 2188 
z
M 1259 4147 
L 1259 2491 
L 2053 2491 
Q 2509 2491 2742 2702 
Q 2975 2913 2975 3322 
Q 2975 3731 2742 3939 
Q 2509 4147 2053 4147 
L 1259 4147 
z
" transform="scale(0.015625)"/>
      <path id="DejaVuSans-49" d="M 628 4666 
L 1259 4666 
L 1259 0 
L 628 0 
L 628 4666 
z
" transform="scale(0.015625)"/>
      <path id="DejaVuSans-4d" d="M 628 4666 
L 1569 4666 
L 2759 1491 
L 3956 4666 
L 4897 4666 
L 4897 0 
L 4281 0 
L 4281 4097 
L 3078 897 
L 2444 897 
L 1241 4097 
L 1241 0 
L 628 0 
L 628 4666 
z
" transform="scale(0.015625)"/>
      <path id="DejaVuSans-28" d="M 1984 4856 
Q 1566 4138 1362 3434 
Q 1159 2731 1159 2009 
Q 1159 1288 1364 580 
Q 1569 -128 1984 -844 
L 1484 -844 
Q 1016 -109 783 600 
Q 550 1309 550 2009 
Q 550 2706 781 3412 
Q 1013 4119 1484 4856 
L 1984 4856 
z
" transform="scale(0.015625)"/>
      <path id="DejaVuSans-2c" d="M 750 794 
L 1409 794 
L 1409 256 
L 897 -744 
L 494 -744 
L 750 256 
L 750 794 
z
" transform="scale(0.015625)"/>
      <path id="DejaVuSans-29" d="M 513 4856 
L 1013 4856 
Q 1481 4119 1714 3412 
Q 1947 2706 1947 2009 
Q 1947 1309 1714 600 
Q 1481 -109 1013 -844 
L 513 -844 
Q 928 -128 1133 580 
Q 1338 1288 1338 2009 
Q 1338 2731 1133 3434 
Q 928 4138 513 4856 
z
" transform="scale(0.015625)"/>
      <path id="DejaVuSans-78" d="M 3513 3500 
L 2247 1797 
L 3578 0 
L 2900 0 
L 1881 1375 
L 863 0 
L 184 0 
L 1544 1831 
L 300 3500 
L 978 3500 
L 1906 2253 
L 2834 3500 
L 3513 3500 
z
" transform="scale(0.015625)"/>
      <path id="DejaVuSans-3d" d="M 678 2906 
L 4684 2906 
L 4684 2381 
L 678 2381 
L 678 2906 
z
M 678 1631 
L 4684 1631 
L 4684 1100 
L 678 1100 
L 678 1631 
z
" transform="scale(0.015625)"/>
      <path id="DejaVuSans-2e" d="M 684 794 
L 1344 794 
L 1344 0 
L 684 0 
L 684 794 
z
" transform="scale(0.015625)"/>
      <path id="DejaVuSans-39" d="M 703 97 
L 703 672 
Q 941 559 1184 500 
Q 1428 441 1663 441 
Q 2288 441 2617 861 
Q 2947 1281 2994 2138 
Q 2813 1869 2534 1725 
Q 2256 1581 1919 1581 
Q 1219 1581 811 2004 
Q 403 2428 403 3163 
Q 403 3881 828 4315 
Q 1253 4750 1959 4750 
Q 2769 4750 3195 4129 
Q 3622 3509 3622 2328 
Q 3622 1225 3098 567 
Q 2575 -91 1691 -91 
Q 1453 -91 1209 -44 
Q 966 3 703 97 
z
M 1959 2075 
Q 2384 2075 2632 2365 
Q 2881 2656 2881 3163 
Q 2881 3666 2632 3958 
Q 2384 4250 1959 4250 
Q 1534 4250 1286 3958 
Q 1038 3666 1038 3163 
Q 1038 2656 1286 2365 
Q 1534 2075 1959 2075 
z
" transform="scale(0.015625)"/>
      <path id="DejaVuSans-36" d="M 2113 2584 
Q 1688 2584 1439 2293 
Q 1191 2003 1191 1497 
Q 1191 994 1439 701 
Q 1688 409 2113 409 
Q 2538 409 2786 701 
Q 3034 994 3034 1497 
Q 3034 2003 2786 2293 
Q 2538 2584 2113 2584 
z
M 3366 4563 
L 3366 3988 
Q 3128 4100 2886 4159 
Q 2644 4219 2406 4219 
Q 1781 4219 1451 3797 
Q 1122 3375 1075 2522 
Q 1259 2794 1537 2939 
Q 1816 3084 2150 3084 
Q 2853 3084 3261 2657 
Q 3669 2231 3669 1497 
Q 3669 778 3244 343 
Q 2819 -91 2113 -91 
Q 1303 -91 875 529 
Q 447 1150 447 2328 
Q 447 3434 972 4092 
Q 1497 4750 2381 4750 
Q 2619 4750 2861 4703 
Q 3103 4656 3366 4563 
z
" transform="scale(0.015625)"/>
     </defs>
     <use xlink:href="#DejaVuSans-41"/>
     <use xlink:href="#DejaVuSans-52" x="68.408203"/>
     <use xlink:href="#DejaVuSans-49" x="137.890625"/>
     <use xlink:href="#DejaVuSans-4d" x="167.382812"/>
     <use xlink:href="#DejaVuSans-41" x="253.662109"/>
     <use xlink:href="#DejaVuSans-20" x="322.070312"/>
     <use xlink:href="#DejaVuSans-28" x="353.857422"/>
     <use xlink:href="#DejaVuSans-31" x="392.871094"/>
     <use xlink:href="#DejaVuSans-2c" x="456.494141"/>
     <use xlink:href="#DejaVuSans-20" x="488.28125"/>
     <use xlink:href="#DejaVuSans-31" x="520.068359"/>
     <use xlink:href="#DejaVuSans-2c" x="583.691406"/>
     <use xlink:href="#DejaVuSans-20" x="615.478516"/>
     <use xlink:href="#DejaVuSans-31" x="647.265625"/>
     <use xlink:href="#DejaVuSans-29" x="710.888672"/>
     <use xlink:href="#DejaVuSans-78" x="749.902344"/>
     <use xlink:href="#DejaVuSans-28" x="809.082031"/>
     <use xlink:href="#DejaVuSans-31" x="848.095703"/>
     <use xlink:href="#DejaVuSans-2c" x="911.71875"/>
     <use xlink:href="#DejaVuSans-20" x="943.505859"/>
     <use xlink:href="#DejaVuSans-30" x="975.292969"/>
     <use xlink:href="#DejaVuSans-2c" x="1038.916016"/>
     <use xlink:href="#DejaVuSans-20" x="1070.703125"/>
     <use xlink:href="#DejaVuSans-31" x="1102.490234"/>
     <use xlink:href="#DejaVuSans-2c" x="1166.113281"/>
     <use xlink:href="#DejaVuSans-20" x="1197.900391"/>
     <use xlink:href="#DejaVuSans-37" x="1229.6875"/>
     <use xlink:href="#DejaVuSans-29" x="1293.310547"/>
     <use xlink:href="#DejaVuSans-20" x="1332.324219"/>
     <use xlink:href="#DejaVuSans-28" x="1364.111328"/>
     <use xlink:href="#DejaVuSans-52" x="1403.125"/>
     <use xlink:href="#DejaVuSans-32" x="1472.607422"/>
     <use xlink:href="#DejaVuSans-20" x="1536.230469"/>
     <use xlink:href="#DejaVuSans-3d" x="1568.017578"/>
     <use xlink:href="#DejaVuSans-20" x="1651.806641"/>
     <use xlink:href="#DejaVuSans-30" x="1683.59375"/>
     <use xlink:href="#DejaVuSans-2e" x="1747.216797"/>
     <use xlink:href="#DejaVuSans-39" x="1779.003906"/>
     <use xlink:href="#DejaVuSans-36" x="1842.626953"/>
     <use xlink:href="#DejaVuSans-39" x="1906.25"/>
     <use xlink:href="#DejaVuSans-33" x="1969.873047"/>
     <use xlink:href="#DejaVuSans-33" x="2033.496094"/>
     <use xlink:href="#DejaVuSans-32" x="2097.119141"/>
     <use xlink:href="#DejaVuSans-29" x="2160.742188"/>
    </g>
   </g>
   <g id="legend_1">
    <g id="patch_7">
     <path d="M 1281.132812 87.789875 
L 1378.2125 87.789875 
Q 1380.2125 87.789875 1380.2125 85.789875 
L 1380.2125 42.7555 
Q 1380.2125 40.7555 1378.2125 40.7555 
L 1281.132812 40.7555 
Q 1279.132812 40.7555 1279.132812 42.7555 
L 1279.132812 85.789875 
Q 1279.132812 87.789875 1281.132812 87.789875 
z
" style="fill: #ffffff; opacity: 0.8; stroke: #cccccc; stroke-linejoin: miter"/>
    </g>
    <g id="line2d_23">
     <path d="M 1283.132812 48.853937 
L 1293.132812 48.853937 
L 1303.132812 48.853937 
" style="fill: none; stroke: #0000ff; stroke-width: 1.5; stroke-linecap: square"/>
    </g>
    <g id="text_21">
     <!-- Actual Value -->
     <g transform="translate(1311.132812 52.353937)scale(0.1 -0.1)">
      <defs>
       <path id="DejaVuSans-75" d="M 544 1381 
L 544 3500 
L 1119 3500 
L 1119 1403 
Q 1119 906 1312 657 
Q 1506 409 1894 409 
Q 2359 409 2629 706 
Q 2900 1003 2900 1516 
L 2900 3500 
L 3475 3500 
L 3475 0 
L 2900 0 
L 2900 538 
Q 2691 219 2414 64 
Q 2138 -91 1772 -91 
Q 1169 -91 856 284 
Q 544 659 544 1381 
z
M 1991 3584 
L 1991 3584 
z
" transform="scale(0.015625)"/>
       <path id="DejaVuSans-56" d="M 1831 0 
L 50 4666 
L 709 4666 
L 2188 738 
L 3669 4666 
L 4325 4666 
L 2547 0 
L 1831 0 
z
" transform="scale(0.015625)"/>
      </defs>
      <use xlink:href="#DejaVuSans-41"/>
      <use xlink:href="#DejaVuSans-63" x="66.658203"/>
      <use xlink:href="#DejaVuSans-74" x="121.638672"/>
      <use xlink:href="#DejaVuSans-75" x="160.847656"/>
      <use xlink:href="#DejaVuSans-61" x="224.226562"/>
      <use xlink:href="#DejaVuSans-6c" x="285.505859"/>
      <use xlink:href="#DejaVuSans-20" x="313.289062"/>
      <use xlink:href="#DejaVuSans-56" x="345.076172"/>
      <use xlink:href="#DejaVuSans-61" x="405.734375"/>
      <use xlink:href="#DejaVuSans-6c" x="467.013672"/>
      <use xlink:href="#DejaVuSans-75" x="494.796875"/>
      <use xlink:href="#DejaVuSans-65" x="558.175781"/>
     </g>
    </g>
    <g id="line2d_24">
     <path d="M 1283.132812 63.532062 
L 1293.132812 63.532062 
L 1303.132812 63.532062 
" style="fill: none; stroke: #ffa500; stroke-width: 1.5; stroke-linecap: square"/>
    </g>
    <g id="text_22">
     <!-- Check Value -->
     <g transform="translate(1311.132812 67.032062)scale(0.1 -0.1)">
      <defs>
       <path id="DejaVuSans-68" d="M 3513 2113 
L 3513 0 
L 2938 0 
L 2938 2094 
Q 2938 2591 2744 2837 
Q 2550 3084 2163 3084 
Q 1697 3084 1428 2787 
Q 1159 2491 1159 1978 
L 1159 0 
L 581 0 
L 581 4863 
L 1159 4863 
L 1159 2956 
Q 1366 3272 1645 3428 
Q 1925 3584 2291 3584 
Q 2894 3584 3203 3211 
Q 3513 2838 3513 2113 
z
" transform="scale(0.015625)"/>
       <path id="DejaVuSans-6b" d="M 581 4863 
L 1159 4863 
L 1159 1991 
L 2875 3500 
L 3609 3500 
L 1753 1863 
L 3688 0 
L 2938 0 
L 1159 1709 
L 1159 0 
L 581 0 
L 581 4863 
z
" transform="scale(0.015625)"/>
      </defs>
      <use xlink:href="#DejaVuSans-43"/>
      <use xlink:href="#DejaVuSans-68" x="69.824219"/>
      <use xlink:href="#DejaVuSans-65" x="133.203125"/>
      <use xlink:href="#DejaVuSans-63" x="194.726562"/>
      <use xlink:href="#DejaVuSans-6b" x="249.707031"/>
      <use xlink:href="#DejaVuSans-20" x="307.617188"/>
      <use xlink:href="#DejaVuSans-56" x="339.404297"/>
      <use xlink:href="#DejaVuSans-61" x="400.0625"/>
      <use xlink:href="#DejaVuSans-6c" x="461.341797"/>
      <use xlink:href="#DejaVuSans-75" x="489.125"/>
      <use xlink:href="#DejaVuSans-65" x="552.503906"/>
     </g>
    </g>
    <g id="line2d_25">
     <path d="M 1283.132812 78.210187 
L 1293.132812 78.210187 
L 1303.132812 78.210187 
" style="fill: none; stroke: #ff0000; stroke-width: 1.5; stroke-linecap: square"/>
    </g>
    <g id="text_23">
     <!-- Predict Value -->
     <g transform="translate(1311.132812 81.710187)scale(0.1 -0.1)">
      <defs>
       <path id="DejaVuSans-50" d="M 1259 4147 
L 1259 2394 
L 2053 2394 
Q 2494 2394 2734 2622 
Q 2975 2850 2975 3272 
Q 2975 3691 2734 3919 
Q 2494 4147 2053 4147 
L 1259 4147 
z
M 628 4666 
L 2053 4666 
Q 2838 4666 3239 4311 
Q 3641 3956 3641 3272 
Q 3641 2581 3239 2228 
Q 2838 1875 2053 1875 
L 1259 1875 
L 1259 0 
L 628 0 
L 628 4666 
z
" transform="scale(0.015625)"/>
      </defs>
      <use xlink:href="#DejaVuSans-50"/>
      <use xlink:href="#DejaVuSans-72" x="58.552734"/>
      <use xlink:href="#DejaVuSans-65" x="97.416016"/>
      <use xlink:href="#DejaVuSans-64" x="158.939453"/>
      <use xlink:href="#DejaVuSans-69" x="222.416016"/>
      <use xlink:href="#DejaVuSans-63" x="250.199219"/>
      <use xlink:href="#DejaVuSans-74" x="305.179688"/>
      <use xlink:href="#DejaVuSans-20" x="344.388672"/>
      <use xlink:href="#DejaVuSans-56" x="376.175781"/>
      <use xlink:href="#DejaVuSans-61" x="436.833984"/>
      <use xlink:href="#DejaVuSans-6c" x="498.113281"/>
      <use xlink:href="#DejaVuSans-75" x="525.896484"/>
      <use xlink:href="#DejaVuSans-65" x="589.275391"/>
     </g>
    </g>
   </g>
  </g>
 </g>
 <defs>
  <clipPath id="pe9f917fa6e">
   <rect x="46.0125" y="35.7555" width="1339.2" height="332.64"/>
  </clipPath>
 </defs>
</svg>
