<?xml version="1.0" encoding="utf-8" standalone="no"?>
<!DOCTYPE svg PUBLIC "-//W3C//DTD SVG 1.1//EN"
  "http://www.w3.org/Graphics/SVG/1.1/DTD/svg11.dtd">
<svg xmlns:xlink="http://www.w3.org/1999/xlink" width="1411.21959pt" height="392.273625pt" viewBox="0 0 1411.21959 392.273625" xmlns="http://www.w3.org/2000/svg" version="1.1">
 <metadata>
  <rdf:RDF xmlns:dc="http://purl.org/dc/elements/1.1/" xmlns:cc="http://creativecommons.org/ns#" xmlns:rdf="http://www.w3.org/1999/02/22-rdf-syntax-ns#">
   <cc:Work>
    <dc:type rdf:resource="http://purl.org/dc/dcmitype/StillImage"/>
    <dc:date>2023-02-22T19:10:48.058038</dc:date>
    <dc:format>image/svg+xml</dc:format>
    <dc:creator>
     <cc:Agent>
      <dc:title>Matplotlib v3.5.1, https://matplotlib.org/</dc:title>
     </cc:Agent>
    </dc:creator>
   </cc:Work>
  </rdf:RDF>
 </metadata>
 <defs>
  <style type="text/css">*{stroke-linejoin: round; stroke-linecap: butt}</style>
 </defs>
 <g id="figure_1">
  <g id="patch_1">
   <path d="M 0 392.273625 
L 1411.21959 392.273625 
L 1411.21959 0 
L 0 0 
z
" style="fill: #ffffff"/>
  </g>
  <g id="axes_1">
   <g id="patch_2">
    <path d="M 46.0125 368.3955 
L 1385.2125 368.3955 
L 1385.2125 35.7555 
L 46.0125 35.7555 
z
" style="fill: #ffffff"/>
   </g>
   <g id="matplotlib.axis_1">
    <g id="xtick_1">
     <g id="line2d_1">
      <defs>
       <path id="m7accdb39aa" d="M 0 0 
L 0 3.5 
" style="stroke: #000000; stroke-width: 0.8"/>
      </defs>
      <g>
       <use xlink:href="#m7accdb39aa" x="83.369863" y="368.3955" style="stroke: #000000; stroke-width: 0.8"/>
      </g>
     </g>
     <g id="text_1">
      <!-- 2020-01 -->
      <g transform="translate(62.478457 382.993937)scale(0.1 -0.1)">
       <defs>
        <path id="DejaVuSans-32" d="M 1228 531 
L 3431 531 
L 3431 0 
L 469 0 
L 469 531 
Q 828 903 1448 1529 
Q 2069 2156 2228 2338 
Q 2531 2678 2651 2914 
Q 2772 3150 2772 3378 
Q 2772 3750 2511 3984 
Q 2250 4219 1831 4219 
Q 1534 4219 1204 4116 
Q 875 4013 500 3803 
L 500 4441 
Q 881 4594 1212 4672 
Q 1544 4750 1819 4750 
Q 2544 4750 2975 4387 
Q 3406 4025 3406 3419 
Q 3406 3131 3298 2873 
Q 3191 2616 2906 2266 
Q 2828 2175 2409 1742 
Q 1991 1309 1228 531 
z
" transform="scale(0.015625)"/>
        <path id="DejaVuSans-30" d="M 2034 4250 
Q 1547 4250 1301 3770 
Q 1056 3291 1056 2328 
Q 1056 1369 1301 889 
Q 1547 409 2034 409 
Q 2525 409 2770 889 
Q 3016 1369 3016 2328 
Q 3016 3291 2770 3770 
Q 2525 4250 2034 4250 
z
M 2034 4750 
Q 2819 4750 3233 4129 
Q 3647 3509 3647 2328 
Q 3647 1150 3233 529 
Q 2819 -91 2034 -91 
Q 1250 -91 836 529 
Q 422 1150 422 2328 
Q 422 3509 836 4129 
Q 1250 4750 2034 4750 
z
" transform="scale(0.015625)"/>
        <path id="DejaVuSans-2d" d="M 313 2009 
L 1997 2009 
L 1997 1497 
L 313 1497 
L 313 2009 
z
" transform="scale(0.015625)"/>
        <path id="DejaVuSans-31" d="M 794 531 
L 1825 531 
L 1825 4091 
L 703 3866 
L 703 4441 
L 1819 4666 
L 2450 4666 
L 2450 531 
L 3481 531 
L 3481 0 
L 794 0 
L 794 531 
z
" transform="scale(0.015625)"/>
       </defs>
       <use xlink:href="#DejaVuSans-32"/>
       <use xlink:href="#DejaVuSans-30" x="63.623047"/>
       <use xlink:href="#DejaVuSans-32" x="127.246094"/>
       <use xlink:href="#DejaVuSans-30" x="190.869141"/>
       <use xlink:href="#DejaVuSans-2d" x="254.492188"/>
       <use xlink:href="#DejaVuSans-30" x="290.576172"/>
       <use xlink:href="#DejaVuSans-31" x="354.199219"/>
      </g>
     </g>
    </g>
    <g id="xtick_2">
     <g id="line2d_2">
      <g>
       <use xlink:href="#m7accdb39aa" x="212.704367" y="368.3955" style="stroke: #000000; stroke-width: 0.8"/>
      </g>
     </g>
     <g id="text_2">
      <!-- 2020-05 -->
      <g transform="translate(191.812961 382.993937)scale(0.1 -0.1)">
       <defs>
        <path id="DejaVuSans-35" d="M 691 4666 
L 3169 4666 
L 3169 4134 
L 1269 4134 
L 1269 2991 
Q 1406 3038 1543 3061 
Q 1681 3084 1819 3084 
Q 2600 3084 3056 2656 
Q 3513 2228 3513 1497 
Q 3513 744 3044 326 
Q 2575 -91 1722 -91 
Q 1428 -91 1123 -41 
Q 819 9 494 109 
L 494 744 
Q 775 591 1075 516 
Q 1375 441 1709 441 
Q 2250 441 2565 725 
Q 2881 1009 2881 1497 
Q 2881 1984 2565 2268 
Q 2250 2553 1709 2553 
Q 1456 2553 1204 2497 
Q 953 2441 691 2322 
L 691 4666 
z
" transform="scale(0.015625)"/>
       </defs>
       <use xlink:href="#DejaVuSans-32"/>
       <use xlink:href="#DejaVuSans-30" x="63.623047"/>
       <use xlink:href="#DejaVuSans-32" x="127.246094"/>
       <use xlink:href="#DejaVuSans-30" x="190.869141"/>
       <use xlink:href="#DejaVuSans-2d" x="254.492188"/>
       <use xlink:href="#DejaVuSans-30" x="290.576172"/>
       <use xlink:href="#DejaVuSans-35" x="354.199219"/>
      </g>
     </g>
    </g>
    <g id="xtick_3">
     <g id="line2d_3">
      <g>
       <use xlink:href="#m7accdb39aa" x="344.176631" y="368.3955" style="stroke: #000000; stroke-width: 0.8"/>
      </g>
     </g>
     <g id="text_3">
      <!-- 2020-09 -->
      <g transform="translate(323.285225 382.993937)scale(0.1 -0.1)">
       <defs>
        <path id="DejaVuSans-39" d="M 703 97 
L 703 672 
Q 941 559 1184 500 
Q 1428 441 1663 441 
Q 2288 441 2617 861 
Q 2947 1281 2994 2138 
Q 2813 1869 2534 1725 
Q 2256 1581 1919 1581 
Q 1219 1581 811 2004 
Q 403 2428 403 3163 
Q 403 3881 828 4315 
Q 1253 4750 1959 4750 
Q 2769 4750 3195 4129 
Q 3622 3509 3622 2328 
Q 3622 1225 3098 567 
Q 2575 -91 1691 -91 
Q 1453 -91 1209 -44 
Q 966 3 703 97 
z
M 1959 2075 
Q 2384 2075 2632 2365 
Q 2881 2656 2881 3163 
Q 2881 3666 2632 3958 
Q 2384 4250 1959 4250 
Q 1534 4250 1286 3958 
Q 1038 3666 1038 3163 
Q 1038 2656 1286 2365 
Q 1534 2075 1959 2075 
z
" transform="scale(0.015625)"/>
       </defs>
       <use xlink:href="#DejaVuSans-32"/>
       <use xlink:href="#DejaVuSans-30" x="63.623047"/>
       <use xlink:href="#DejaVuSans-32" x="127.246094"/>
       <use xlink:href="#DejaVuSans-30" x="190.869141"/>
       <use xlink:href="#DejaVuSans-2d" x="254.492188"/>
       <use xlink:href="#DejaVuSans-30" x="290.576172"/>
       <use xlink:href="#DejaVuSans-39" x="354.199219"/>
      </g>
     </g>
    </g>
    <g id="xtick_4">
     <g id="line2d_4">
      <g>
       <use xlink:href="#m7accdb39aa" x="474.580015" y="368.3955" style="stroke: #000000; stroke-width: 0.8"/>
      </g>
     </g>
     <g id="text_4">
      <!-- 2021-01 -->
      <g transform="translate(453.688609 382.993937)scale(0.1 -0.1)">
       <use xlink:href="#DejaVuSans-32"/>
       <use xlink:href="#DejaVuSans-30" x="63.623047"/>
       <use xlink:href="#DejaVuSans-32" x="127.246094"/>
       <use xlink:href="#DejaVuSans-31" x="190.869141"/>
       <use xlink:href="#DejaVuSans-2d" x="254.492188"/>
       <use xlink:href="#DejaVuSans-30" x="290.576172"/>
       <use xlink:href="#DejaVuSans-31" x="354.199219"/>
      </g>
     </g>
    </g>
    <g id="xtick_5">
     <g id="line2d_5">
      <g>
       <use xlink:href="#m7accdb39aa" x="602.845639" y="368.3955" style="stroke: #000000; stroke-width: 0.8"/>
      </g>
     </g>
     <g id="text_5">
      <!-- 2021-05 -->
      <g transform="translate(581.954233 382.993937)scale(0.1 -0.1)">
       <use xlink:href="#DejaVuSans-32"/>
       <use xlink:href="#DejaVuSans-30" x="63.623047"/>
       <use xlink:href="#DejaVuSans-32" x="127.246094"/>
       <use xlink:href="#DejaVuSans-31" x="190.869141"/>
       <use xlink:href="#DejaVuSans-2d" x="254.492188"/>
       <use xlink:href="#DejaVuSans-30" x="290.576172"/>
       <use xlink:href="#DejaVuSans-35" x="354.199219"/>
      </g>
     </g>
    </g>
    <g id="xtick_6">
     <g id="line2d_6">
      <g>
       <use xlink:href="#m7accdb39aa" x="734.317903" y="368.3955" style="stroke: #000000; stroke-width: 0.8"/>
      </g>
     </g>
     <g id="text_6">
      <!-- 2021-09 -->
      <g transform="translate(713.426497 382.993937)scale(0.1 -0.1)">
       <use xlink:href="#DejaVuSans-32"/>
       <use xlink:href="#DejaVuSans-30" x="63.623047"/>
       <use xlink:href="#DejaVuSans-32" x="127.246094"/>
       <use xlink:href="#DejaVuSans-31" x="190.869141"/>
       <use xlink:href="#DejaVuSans-2d" x="254.492188"/>
       <use xlink:href="#DejaVuSans-30" x="290.576172"/>
       <use xlink:href="#DejaVuSans-39" x="354.199219"/>
      </g>
     </g>
    </g>
    <g id="xtick_7">
     <g id="line2d_7">
      <g>
       <use xlink:href="#m7accdb39aa" x="864.721288" y="368.3955" style="stroke: #000000; stroke-width: 0.8"/>
      </g>
     </g>
     <g id="text_7">
      <!-- 2022-01 -->
      <g transform="translate(843.829881 382.993937)scale(0.1 -0.1)">
       <use xlink:href="#DejaVuSans-32"/>
       <use xlink:href="#DejaVuSans-30" x="63.623047"/>
       <use xlink:href="#DejaVuSans-32" x="127.246094"/>
       <use xlink:href="#DejaVuSans-32" x="190.869141"/>
       <use xlink:href="#DejaVuSans-2d" x="254.492188"/>
       <use xlink:href="#DejaVuSans-30" x="290.576172"/>
       <use xlink:href="#DejaVuSans-31" x="354.199219"/>
      </g>
     </g>
    </g>
    <g id="xtick_8">
     <g id="line2d_8">
      <g>
       <use xlink:href="#m7accdb39aa" x="992.986911" y="368.3955" style="stroke: #000000; stroke-width: 0.8"/>
      </g>
     </g>
     <g id="text_8">
      <!-- 2022-05 -->
      <g transform="translate(972.095505 382.993937)scale(0.1 -0.1)">
       <use xlink:href="#DejaVuSans-32"/>
       <use xlink:href="#DejaVuSans-30" x="63.623047"/>
       <use xlink:href="#DejaVuSans-32" x="127.246094"/>
       <use xlink:href="#DejaVuSans-32" x="190.869141"/>
       <use xlink:href="#DejaVuSans-2d" x="254.492188"/>
       <use xlink:href="#DejaVuSans-30" x="290.576172"/>
       <use xlink:href="#DejaVuSans-35" x="354.199219"/>
      </g>
     </g>
    </g>
    <g id="xtick_9">
     <g id="line2d_9">
      <g>
       <use xlink:href="#m7accdb39aa" x="1124.459176" y="368.3955" style="stroke: #000000; stroke-width: 0.8"/>
      </g>
     </g>
     <g id="text_9">
      <!-- 2022-09 -->
      <g transform="translate(1103.567769 382.993937)scale(0.1 -0.1)">
       <use xlink:href="#DejaVuSans-32"/>
       <use xlink:href="#DejaVuSans-30" x="63.623047"/>
       <use xlink:href="#DejaVuSans-32" x="127.246094"/>
       <use xlink:href="#DejaVuSans-32" x="190.869141"/>
       <use xlink:href="#DejaVuSans-2d" x="254.492188"/>
       <use xlink:href="#DejaVuSans-30" x="290.576172"/>
       <use xlink:href="#DejaVuSans-39" x="354.199219"/>
      </g>
     </g>
    </g>
    <g id="xtick_10">
     <g id="line2d_10">
      <g>
       <use xlink:href="#m7accdb39aa" x="1254.86256" y="368.3955" style="stroke: #000000; stroke-width: 0.8"/>
      </g>
     </g>
     <g id="text_10">
      <!-- 2023-01 -->
      <g transform="translate(1233.971154 382.993937)scale(0.1 -0.1)">
       <defs>
        <path id="DejaVuSans-33" d="M 2597 2516 
Q 3050 2419 3304 2112 
Q 3559 1806 3559 1356 
Q 3559 666 3084 287 
Q 2609 -91 1734 -91 
Q 1441 -91 1130 -33 
Q 819 25 488 141 
L 488 750 
Q 750 597 1062 519 
Q 1375 441 1716 441 
Q 2309 441 2620 675 
Q 2931 909 2931 1356 
Q 2931 1769 2642 2001 
Q 2353 2234 1838 2234 
L 1294 2234 
L 1294 2753 
L 1863 2753 
Q 2328 2753 2575 2939 
Q 2822 3125 2822 3475 
Q 2822 3834 2567 4026 
Q 2313 4219 1838 4219 
Q 1578 4219 1281 4162 
Q 984 4106 628 3988 
L 628 4550 
Q 988 4650 1302 4700 
Q 1616 4750 1894 4750 
Q 2613 4750 3031 4423 
Q 3450 4097 3450 3541 
Q 3450 3153 3228 2886 
Q 3006 2619 2597 2516 
z
" transform="scale(0.015625)"/>
       </defs>
       <use xlink:href="#DejaVuSans-32"/>
       <use xlink:href="#DejaVuSans-30" x="63.623047"/>
       <use xlink:href="#DejaVuSans-32" x="127.246094"/>
       <use xlink:href="#DejaVuSans-33" x="190.869141"/>
       <use xlink:href="#DejaVuSans-2d" x="254.492188"/>
       <use xlink:href="#DejaVuSans-30" x="290.576172"/>
       <use xlink:href="#DejaVuSans-31" x="354.199219"/>
      </g>
     </g>
    </g>
    <g id="xtick_11">
     <g id="line2d_11">
      <g>
       <use xlink:href="#m7accdb39aa" x="1383.128184" y="368.3955" style="stroke: #000000; stroke-width: 0.8"/>
      </g>
     </g>
     <g id="text_11">
      <!-- 2023-05 -->
      <g transform="translate(1362.236777 382.993937)scale(0.1 -0.1)">
       <use xlink:href="#DejaVuSans-32"/>
       <use xlink:href="#DejaVuSans-30" x="63.623047"/>
       <use xlink:href="#DejaVuSans-32" x="127.246094"/>
       <use xlink:href="#DejaVuSans-33" x="190.869141"/>
       <use xlink:href="#DejaVuSans-2d" x="254.492188"/>
       <use xlink:href="#DejaVuSans-30" x="290.576172"/>
       <use xlink:href="#DejaVuSans-35" x="354.199219"/>
      </g>
     </g>
    </g>
   </g>
   <g id="matplotlib.axis_2">
    <g id="ytick_1">
     <g id="line2d_12">
      <defs>
       <path id="m791dafd8bb" d="M 0 0 
L -3.5 0 
" style="stroke: #000000; stroke-width: 0.8"/>
      </defs>
      <g>
       <use xlink:href="#m791dafd8bb" x="46.0125" y="352.049506" style="stroke: #000000; stroke-width: 0.8"/>
      </g>
     </g>
     <g id="text_12">
      <!-- 0 -->
      <g transform="translate(32.65 355.848724)scale(0.1 -0.1)">
       <use xlink:href="#DejaVuSans-30"/>
      </g>
     </g>
    </g>
    <g id="ytick_2">
     <g id="line2d_13">
      <g>
       <use xlink:href="#m791dafd8bb" x="46.0125" y="313.685345" style="stroke: #000000; stroke-width: 0.8"/>
      </g>
     </g>
     <g id="text_13">
      <!-- 5000 -->
      <g transform="translate(13.5625 317.484564)scale(0.1 -0.1)">
       <use xlink:href="#DejaVuSans-35"/>
       <use xlink:href="#DejaVuSans-30" x="63.623047"/>
       <use xlink:href="#DejaVuSans-30" x="127.246094"/>
       <use xlink:href="#DejaVuSans-30" x="190.869141"/>
      </g>
     </g>
    </g>
    <g id="ytick_3">
     <g id="line2d_14">
      <g>
       <use xlink:href="#m791dafd8bb" x="46.0125" y="275.321185" style="stroke: #000000; stroke-width: 0.8"/>
      </g>
     </g>
     <g id="text_14">
      <!-- 10000 -->
      <g transform="translate(7.2 279.120403)scale(0.1 -0.1)">
       <use xlink:href="#DejaVuSans-31"/>
       <use xlink:href="#DejaVuSans-30" x="63.623047"/>
       <use xlink:href="#DejaVuSans-30" x="127.246094"/>
       <use xlink:href="#DejaVuSans-30" x="190.869141"/>
       <use xlink:href="#DejaVuSans-30" x="254.492188"/>
      </g>
     </g>
    </g>
    <g id="ytick_4">
     <g id="line2d_15">
      <g>
       <use xlink:href="#m791dafd8bb" x="46.0125" y="236.957024" style="stroke: #000000; stroke-width: 0.8"/>
      </g>
     </g>
     <g id="text_15">
      <!-- 15000 -->
      <g transform="translate(7.2 240.756243)scale(0.1 -0.1)">
       <use xlink:href="#DejaVuSans-31"/>
       <use xlink:href="#DejaVuSans-35" x="63.623047"/>
       <use xlink:href="#DejaVuSans-30" x="127.246094"/>
       <use xlink:href="#DejaVuSans-30" x="190.869141"/>
       <use xlink:href="#DejaVuSans-30" x="254.492188"/>
      </g>
     </g>
    </g>
    <g id="ytick_5">
     <g id="line2d_16">
      <g>
       <use xlink:href="#m791dafd8bb" x="46.0125" y="198.592864" style="stroke: #000000; stroke-width: 0.8"/>
      </g>
     </g>
     <g id="text_16">
      <!-- 20000 -->
      <g transform="translate(7.2 202.392082)scale(0.1 -0.1)">
       <use xlink:href="#DejaVuSans-32"/>
       <use xlink:href="#DejaVuSans-30" x="63.623047"/>
       <use xlink:href="#DejaVuSans-30" x="127.246094"/>
       <use xlink:href="#DejaVuSans-30" x="190.869141"/>
       <use xlink:href="#DejaVuSans-30" x="254.492188"/>
      </g>
     </g>
    </g>
    <g id="ytick_6">
     <g id="line2d_17">
      <g>
       <use xlink:href="#m791dafd8bb" x="46.0125" y="160.228703" style="stroke: #000000; stroke-width: 0.8"/>
      </g>
     </g>
     <g id="text_17">
      <!-- 25000 -->
      <g transform="translate(7.2 164.027922)scale(0.1 -0.1)">
       <use xlink:href="#DejaVuSans-32"/>
       <use xlink:href="#DejaVuSans-35" x="63.623047"/>
       <use xlink:href="#DejaVuSans-30" x="127.246094"/>
       <use xlink:href="#DejaVuSans-30" x="190.869141"/>
       <use xlink:href="#DejaVuSans-30" x="254.492188"/>
      </g>
     </g>
    </g>
    <g id="ytick_7">
     <g id="line2d_18">
      <g>
       <use xlink:href="#m791dafd8bb" x="46.0125" y="121.864543" style="stroke: #000000; stroke-width: 0.8"/>
      </g>
     </g>
     <g id="text_18">
      <!-- 30000 -->
      <g transform="translate(7.2 125.663761)scale(0.1 -0.1)">
       <use xlink:href="#DejaVuSans-33"/>
       <use xlink:href="#DejaVuSans-30" x="63.623047"/>
       <use xlink:href="#DejaVuSans-30" x="127.246094"/>
       <use xlink:href="#DejaVuSans-30" x="190.869141"/>
       <use xlink:href="#DejaVuSans-30" x="254.492188"/>
      </g>
     </g>
    </g>
    <g id="ytick_8">
     <g id="line2d_19">
      <g>
       <use xlink:href="#m791dafd8bb" x="46.0125" y="83.500382" style="stroke: #000000; stroke-width: 0.8"/>
      </g>
     </g>
     <g id="text_19">
      <!-- 35000 -->
      <g transform="translate(7.2 87.299601)scale(0.1 -0.1)">
       <use xlink:href="#DejaVuSans-33"/>
       <use xlink:href="#DejaVuSans-35" x="63.623047"/>
       <use xlink:href="#DejaVuSans-30" x="127.246094"/>
       <use xlink:href="#DejaVuSans-30" x="190.869141"/>
       <use xlink:href="#DejaVuSans-30" x="254.492188"/>
      </g>
     </g>
    </g>
    <g id="ytick_9">
     <g id="line2d_20">
      <g>
       <use xlink:href="#m791dafd8bb" x="46.0125" y="45.136222" style="stroke: #000000; stroke-width: 0.8"/>
      </g>
     </g>
     <g id="text_20">
      <!-- 40000 -->
      <g transform="translate(7.2 48.93544)scale(0.1 -0.1)">
       <defs>
        <path id="DejaVuSans-34" d="M 2419 4116 
L 825 1625 
L 2419 1625 
L 2419 4116 
z
M 2253 4666 
L 3047 4666 
L 3047 1625 
L 3713 1625 
L 3713 1100 
L 3047 1100 
L 3047 0 
L 2419 0 
L 2419 1100 
L 313 1100 
L 313 1709 
L 2253 4666 
z
" transform="scale(0.015625)"/>
       </defs>
       <use xlink:href="#DejaVuSans-34"/>
       <use xlink:href="#DejaVuSans-30" x="63.623047"/>
       <use xlink:href="#DejaVuSans-30" x="127.246094"/>
       <use xlink:href="#DejaVuSans-30" x="190.869141"/>
       <use xlink:href="#DejaVuSans-30" x="254.492188"/>
      </g>
     </g>
    </g>
   </g>
   <g id="line2d_21">
    <path d="M 106.885227 352.041833 
L 120.78067 352.018814 
L 123.98731 352.026487 
L 127.193951 352.03416 
L 140.020513 352.018814 
L 144.296034 352.049506 
L 157.122597 351.972777 
L 158.191477 351.911395 
L 159.260357 352.049506 
L 160.329237 351.880703 
L 162.466998 351.942086 
L 164.604758 351.87303 
L 165.673638 351.688882 
L 166.742518 351.803975 
L 168.880279 351.688882 
L 169.949159 351.87303 
L 171.018039 351.635173 
L 172.086919 351.673537 
L 173.1558 351.489389 
L 174.22468 351.650518 
L 175.29356 351.673537 
L 176.36244 351.512407 
L 177.43132 351.727247 
L 178.500201 351.780956 
L 179.569081 351.688882 
L 180.637961 351.481716 
L 181.706841 351.673537 
L 183.844602 351.474043 
L 184.913482 351.128766 
L 185.982362 351.543099 
L 188.120122 350.959963 
L 189.189003 349.847403 
L 190.257883 350.530285 
L 191.326763 350.583995 
L 192.395643 350.261736 
L 193.464523 349.087792 
L 194.533404 349.48678 
L 195.602284 348.61975 
L 196.671164 346.463684 
L 197.740044 347.269331 
L 198.808924 344.821698 
L 199.877804 347.476498 
L 200.946685 341.108047 
L 202.015565 343.524989 
L 203.084445 344.253908 
L 204.153325 344.092779 
L 205.222205 345.166975 
L 206.291086 347.307695 
L 207.359966 344.906099 
L 208.428846 345.918913 
L 209.497726 347.99825 
L 210.566606 346.755251 
L 211.635487 347.99825 
L 212.704367 344.898426 
L 213.773247 348.61975 
L 214.842127 347.008455 
L 215.911007 347.652973 
L 216.979888 347.200276 
L 218.048768 346.003314 
L 219.117648 346.363937 
L 220.186528 346.156771 
L 221.255408 346.271863 
L 222.324289 345.328105 
L 223.393169 348.320509 
L 224.462049 345.535271 
L 225.530929 346.870344 
L 226.599809 346.279536 
L 227.66869 345.96495 
L 228.73757 348.481639 
L 229.80645 346.816634 
L 230.87533 349.709292 
L 231.94421 348.589058 
L 233.013091 347.675991 
L 234.081971 348.612077 
L 235.150851 347.338387 
L 236.219731 347.123547 
L 237.288611 347.844794 
L 238.357492 349.410051 
L 239.426372 349.110811 
L 240.495252 347.959886 
L 241.564132 349.187539 
L 242.633012 347.361405 
L 243.701893 348.167053 
L 244.770773 348.074979 
L 245.839653 348.91899 
L 246.908533 347.875485 
L 247.977413 347.683664 
L 249.046294 348.082651 
L 250.115174 350.046896 
L 251.184054 349.410051 
L 252.252934 349.110811 
L 253.321814 349.087792 
L 254.390695 350.376828 
L 255.459575 348.589058 
L 256.528455 348.81157 
L 257.597335 348.496984 
L 258.666215 349.387033 
L 259.735096 348.926663 
L 260.803976 350.407519 
L 261.872856 350.890908 
L 262.941736 350.154316 
L 264.010616 350.077588 
L 265.079497 350.959963 
L 266.148377 350.376828 
L 267.217257 350.039224 
L 268.286137 350.376828 
L 269.355017 351.136439 
L 270.423898 350.583995 
L 271.492778 351.182476 
L 272.561658 350.369155 
L 273.630538 349.816711 
L 274.699418 350.415192 
L 275.768299 350.499593 
L 276.837179 350.161989 
L 278.974939 350.607013 
L 280.043819 350.752797 
L 281.1127 350.630032 
L 282.18158 351.006 
L 283.25046 350.645377 
L 284.31934 350.844871 
L 285.38822 350.837198 
L 286.457101 351.090402 
L 287.525981 350.583995 
L 288.594861 350.752797 
L 289.663741 350.683741 
L 290.732621 349.578854 
L 291.801502 349.387033 
L 292.870382 350.146643 
L 293.939262 350.146643 
L 295.008142 349.540489 
L 296.077022 350.499593 
L 297.145903 350.077588 
L 298.214783 351.105747 
L 299.283663 348.988046 
L 300.352543 349.670928 
L 301.421423 349.333323 
L 302.490303 349.924131 
L 303.559184 348.113343 
L 304.628064 348.358873 
L 305.696944 348.450947 
L 306.765824 349.294959 
L 307.834704 349.48678 
L 308.903585 349.916458 
L 309.972465 349.011064 
L 311.041345 349.693946 
L 312.110225 349.647909 
L 313.179105 350.315445 
L 314.247986 349.78602 
L 315.316866 345.082574 
L 316.385746 349.739983 
L 317.454626 350.19268 
L 318.523506 351.036692 
L 319.592387 350.70676 
L 320.661267 350.607013 
L 321.730147 351.581463 
L 322.799027 351.727247 
L 323.867907 351.266877 
L 324.936788 351.41266 
L 328.143428 351.351278 
L 329.212308 351.282222 
L 330.281189 351.335932 
L 331.350069 351.527753 
L 332.418949 351.151784 
L 333.487829 351.665864 
L 334.556709 351.381969 
L 335.62559 351.658191 
L 336.69447 351.811648 
L 338.83223 351.458697 
L 339.90111 351.328259 
L 340.969991 351.658191 
L 342.038871 351.635173 
L 345.245511 351.988123 
L 346.314392 351.68121 
L 348.452152 351.788629 
L 349.521032 351.742592 
L 350.589912 351.880703 
L 352.727673 351.474043 
L 353.796553 351.566117 
L 354.865433 351.389642 
L 355.934313 351.727247 
L 358.072074 351.68121 
L 361.278714 351.911395 
L 363.416475 351.934413 
L 366.623115 351.888376 
L 368.760876 351.934413 
L 371.967516 351.934413 
L 472.442255 351.842339 
L 476.717776 351.780956 
L 477.786656 351.865358 
L 480.993297 351.796302 
L 482.062177 351.87303 
L 484.199937 351.727247 
L 485.268817 351.880703 
L 486.337698 351.919067 
L 488.475458 351.704228 
L 490.613218 351.865358 
L 491.682099 351.819321 
L 492.750979 351.942086 
L 494.888739 351.742592 
L 495.957619 351.757938 
L 497.0265 351.934413 
L 498.09538 351.972777 
L 499.16426 351.68121 
L 500.23314 351.711901 
L 501.30202 351.942086 
L 503.439781 351.788629 
L 504.508661 351.865358 
L 505.577541 351.604481 
L 506.646421 351.826993 
L 515.197463 351.880703 
L 516.266343 351.965104 
L 519.472984 351.911395 
L 521.610744 351.942086 
L 524.817385 351.965104 
L 567.572593 351.888376 
L 571.848113 351.719574 
L 572.916994 351.911395 
L 573.985874 351.972777 
L 577.192514 351.780956 
L 578.261395 351.888376 
L 580.399155 351.803975 
L 581.468035 351.896049 
L 582.536915 351.857685 
L 583.605796 351.942086 
L 584.674676 351.842339 
L 585.743556 351.92674 
L 587.881316 351.750265 
L 590.019077 351.896049 
L 592.156837 351.934413 
L 594.294598 351.750265 
L 595.363478 351.87303 
L 597.501238 351.704228 
L 598.570118 351.957432 
L 600.707879 351.780956 
L 601.776759 351.865358 
L 603.914519 351.750265 
L 604.9834 351.919067 
L 614.603321 351.92674 
L 616.741082 351.650518 
L 617.809962 351.811648 
L 618.878842 351.673537 
L 619.947722 351.834666 
L 622.085483 351.757938 
L 624.223243 351.742592 
L 626.361003 351.857685 
L 627.429884 351.773284 
L 630.636524 351.865358 
L 632.774285 351.796302 
L 635.980925 351.911395 
L 638.118686 351.704228 
L 639.187566 351.949759 
L 642.394206 351.942086 
L 645.600847 351.949759 
L 648.807488 351.949759 
L 649.876368 351.857685 
L 650.945248 351.942086 
L 653.083008 351.842339 
L 654.151889 351.92674 
L 655.220769 351.888376 
L 656.289649 351.965104 
L 660.56517 351.87303 
L 670.185092 351.995796 
L 675.529493 351.92674 
L 678.736133 351.988123 
L 679.805013 351.850012 
L 680.873894 351.850012 
L 681.942774 351.589136 
L 683.011654 351.68121 
L 686.218295 351.343605 
L 687.287175 350.729778 
L 688.356055 350.553303 
L 690.493815 350.745124 
L 691.562696 351.029019 
L 694.769336 351.013673 
L 699.044857 350.982982 
L 700.113737 351.128766 
L 702.251498 351.197821 
L 705.458138 351.297568 
L 706.527018 351.305241 
L 708.664779 351.451025 
L 709.733659 351.497062 
L 710.802539 352.049506 
L 711.871419 351.151784 
L 712.9403 351.596808 
L 714.00918 351.673537 
L 716.14694 351.642845 
L 719.353581 351.642845 
L 720.422461 351.803975 
L 722.560221 351.765611 
L 723.629101 351.780956 
L 724.697982 351.297568 
L 726.835742 351.128766 
L 727.904622 351.159457 
L 728.973502 352.049506 
L 730.042383 350.185007 
L 731.111263 352.049506 
L 732.180143 349.83973 
L 733.249023 350.81418 
L 736.455664 350.369155 
L 737.524544 350.062242 
L 738.593424 350.583995 
L 739.662304 350.200353 
L 740.731185 349.502125 
L 741.800065 349.371687 
L 743.937825 347.652973 
L 745.006705 347.791084 
L 746.075586 348.059633 
L 747.144466 347.392096 
L 748.213346 345.627345 
L 749.282226 345.85753 
L 750.351106 345.067228 
L 751.419987 344.875408 
L 752.488867 344.307618 
L 753.557747 344.284599 
L 754.626627 345.013519 
L 756.764388 340.870189 
L 757.833268 340.509566 
L 758.902148 339.389333 
L 759.971028 340.977609 
L 761.039908 337.171884 
L 762.108789 339.412351 
L 763.177669 334.893053 
L 764.246549 334.647522 
L 765.315429 333.036228 
L 766.384309 329.729237 
L 767.45319 333.972313 
L 768.52207 336.26649 
L 769.59095 333.059246 
L 770.65983 325.302013 
L 771.72871 324.603785 
L 772.797591 325.325031 
L 774.935351 323.637008 
L 776.004231 330.49652 
L 777.073111 334.685887 
L 778.141992 329.215157 
L 779.210872 327.573171 
L 780.279752 329.552762 
L 781.348632 325.616599 
L 782.417512 326.360864 
L 783.486393 328.585985 
L 784.555273 332.460765 
L 785.624153 321.404214 
L 786.693033 322.417028 
L 787.761913 325.662636 
L 788.830794 324.143415 
L 789.899674 324.442656 
L 792.037434 327.695936 
L 793.106314 326.905635 
L 794.175195 311.199347 
L 795.244075 325.716346 
L 796.312955 319.455315 
L 797.381835 328.171652 
L 798.450715 327.780338 
L 799.519596 333.09761 
L 800.588476 325.225285 
L 801.657356 324.158761 
L 802.726236 329.007991 
L 803.795116 338.491611 
L 804.863997 328.76246 
L 805.932877 332.460765 
L 807.001757 333.09761 
L 808.070637 325.984895 
L 809.139517 325.340377 
L 810.208398 333.6654 
L 811.277278 328.271399 
L 812.346158 334.3713 
L 813.415038 338.829216 
L 814.483918 336.174416 
L 815.552799 336.174416 
L 816.621679 325.394087 
L 817.690559 352.049506 
L 818.759439 323.107583 
L 819.828319 337.233267 
L 820.897199 339.235876 
L 821.96608 340.839498 
L 824.10384 336.097688 
L 825.17272 342.266645 
L 826.2416 343.686119 
L 827.310481 338.537648 
L 828.379361 346.3179 
L 829.448241 343.586372 
L 830.517121 342.542867 
L 831.586001 341.890676 
L 832.654882 343.601717 
L 833.723762 346.172116 
L 834.792642 346.348591 
L 835.861522 347.814102 
L 836.930402 346.970091 
L 837.999283 346.563431 
L 839.068163 346.609468 
L 840.137043 346.816634 
L 841.205923 348.56604 
L 842.274803 347.760392 
L 843.343684 349.210558 
L 844.412564 349.448415 
L 845.481444 348.658114 
L 846.550324 348.412583 
L 847.619204 349.32565 
L 848.688085 348.888299 
L 849.756965 349.970168 
L 850.825845 350.092933 
L 851.894725 350.553303 
L 852.963605 349.901113 
L 854.032486 349.479107 
L 855.101366 349.578854 
L 856.170246 350.016205 
L 857.239126 350.146643 
L 858.308006 350.445884 
L 860.445767 349.248922 
L 862.583527 349.663255 
L 863.652407 349.410051 
L 864.721288 348.550694 
L 865.790168 348.757861 
L 866.859048 348.489311 
L 867.927928 345.588981 
L 868.996808 345.872876 
L 870.065689 345.811493 
L 871.134569 352.049506 
L 872.203449 339.865048 
L 873.272329 345.565962 
L 874.341209 346.294881 
L 875.41009 345.55829 
L 876.47897 345.282068 
L 877.54785 344.683587 
L 878.61673 344.798679 
L 879.68561 344.714278 
L 880.754491 345.427851 
L 882.892251 340.939245 
L 883.961131 339.657882 
L 885.030011 340.755097 
L 886.098892 273.295557 
L 887.167772 333.15132 
L 888.236652 325.225285 
L 889.305532 329.015664 
L 890.374412 306.043204 
L 891.443293 314.974381 
L 892.512173 310.086787 
L 893.581053 309.434596 
L 894.649933 312.097069 
L 895.718813 317.537107 
L 896.787694 317.667545 
L 897.856574 303.986885 
L 898.925454 328.256053 
L 899.994334 319.079346 
L 901.063214 250.706739 
L 902.132095 352.049506 
L 903.200975 272.32878 
L 904.269855 232.675584 
L 906.407615 272.911915 
L 907.476496 270.057622 
L 908.545376 275.858283 
L 909.614256 271.446404 
L 910.683136 279.771427 
L 911.752016 282.364844 
L 912.820897 203.043106 
L 913.889777 222.509081 
L 914.958657 209.756834 
L 916.027537 213.217282 
L 917.096417 161.487048 
L 918.165298 303.841101 
L 919.234178 247.522514 
L 920.303058 152.31034 
L 921.371938 196.19894 
L 922.440818 209.388538 
L 923.509698 209.357847 
L 924.578579 222.708575 
L 925.647459 242.88045 
L 926.716339 248.128668 
L 927.785219 167.287709 
L 928.854099 205.045715 
L 929.92298 212.695529 
L 930.99186 217.283883 
L 932.06074 227.181836 
L 933.12962 251.090381 
L 934.1985 248.312816 
L 935.267381 352.049506 
L 936.336261 50.8755 
L 937.405141 228.018175 
L 938.474021 234.309897 
L 940.611782 277.615361 
L 941.680662 282.671758 
L 942.749542 230.427444 
L 943.818422 265.515305 
L 944.887302 269.850455 
L 945.956183 270.763522 
L 947.025063 273.449014 
L 948.093943 291.748718 
L 949.162823 294.211697 
L 950.231703 251.028998 
L 951.300584 283.454387 
L 952.369464 286.999235 
L 953.438344 293.858747 
L 954.507224 302.682504 
L 955.576104 352.049506 
L 956.644985 314.851616 
L 957.713865 251.619806 
L 958.782745 308.09185 
L 959.851625 309.043282 
L 960.920505 313.608617 
L 961.989386 317.038373 
L 963.058266 323.330095 
L 964.127146 352.049506 
L 965.196026 277.814855 
L 966.264906 317.774965 
L 967.333787 319.294185 
L 968.402667 321.250758 
L 970.540427 332.307309 
L 971.609307 332.345673 
L 972.678188 317.122774 
L 973.747068 324.926044 
L 974.815948 325.033464 
L 975.884828 325.931185 
L 976.953708 339.235876 
L 978.022589 328.65504 
L 979.091469 333.020882 
L 980.160349 315.849084 
L 981.229229 325.409433 
L 982.298109 325.80842 
L 983.36699 328.839188 
L 984.43587 331.263803 
L 985.50475 336.366237 
L 986.57363 336.258817 
L 987.64251 323.752101 
L 988.711391 352.049506 
L 989.780271 352.049506 
L 990.849151 311.107273 
L 991.918031 352.049506 
L 992.986911 352.049506 
L 994.055792 292.769205 
L 995.124672 340.003159 
L 996.193552 352.049506 
L 997.262432 303.165892 
L 998.331312 325.80842 
L 999.400193 327.78801 
L 1000.469073 333.458233 
L 1001.537953 334.624504 
L 1002.606833 314.982054 
L 1003.675713 322.202189 
L 1004.744594 324.082033 
L 1005.813474 319.125383 
L 1006.882354 326.092315 
L 1007.951234 331.708828 
L 1009.020114 335.760083 
L 1010.088995 331.609081 
L 1011.157875 302.621121 
L 1012.226755 316.92328 
L 1013.295635 318.734069 
L 1014.364515 323.084564 
L 1015.433396 330.358409 
L 1016.502276 330.941544 
L 1017.571156 308.107196 
L 1018.640036 320.076814 
L 1019.708916 321.849238 
L 1020.777797 322.662559 
L 1021.846677 326.552684 
L 1022.915557 332.476111 
L 1023.984437 333.71911 
L 1025.053317 313.800438 
L 1026.122198 324.603785 
L 1027.191078 323.314749 
L 1028.259958 327.243239 
L 1029.328838 329.959422 
L 1030.397718 334.739596 
L 1031.466598 335.460843 
L 1032.535479 317.698236 
L 1033.604359 324.411964 
L 1034.673239 325.724019 
L 1035.742119 329.268867 
L 1036.810999 328.048887 
L 1037.87988 332.844407 
L 1038.94876 333.71911 
L 1040.01764 312.687877 
L 1041.08652 322.079423 
L 1042.1554 328.110269 
L 1043.224281 313.846475 
L 1044.293161 323.030855 
L 1045.362041 327.504116 
L 1046.430921 327.342986 
L 1047.499801 297.503342 
L 1048.568682 307.071364 
L 1049.637562 301.362777 
L 1050.706442 302.053332 
L 1051.775322 304.723477 
L 1052.844202 312.795297 
L 1053.913083 311.31444 
L 1054.981963 263.781245 
L 1056.050843 279.986266 
L 1057.119723 279.119236 
L 1058.188603 282.32648 
L 1059.257484 291.035145 
L 1060.326364 305.038063 
L 1061.395244 306.426846 
L 1062.464124 253.96002 
L 1063.533004 275.405586 
L 1064.601885 275.436277 
L 1065.670765 280.814932 
L 1066.739645 285.610452 
L 1067.808525 302.766905 
L 1068.877405 317.560125 
L 1069.946286 306.173642 
L 1071.015166 222.608828 
L 1072.084046 261.724926 
L 1074.221806 281.820073 
L 1075.290687 298.746341 
L 1076.359567 304.27078 
L 1077.428447 246.21046 
L 1078.497327 273.073045 
L 1079.566207 277.247065 
L 1080.635088 283.124455 
L 1081.703968 291.518533 
L 1082.772848 304.669767 
L 1083.841728 309.457615 
L 1084.910608 256.760604 
L 1085.979489 284.812478 
L 1087.048369 286.331699 
L 1088.117249 291.142564 
L 1090.255009 312.872025 
L 1091.32389 315.918139 
L 1092.39277 273.556433 
L 1093.46165 352.049506 
L 1094.53053 245.558269 
L 1095.59941 303.940848 
L 1096.668291 308.828442 
L 1097.737171 315.235257 
L 1098.806051 324.880007 
L 1099.874931 290.935398 
L 1100.943811 334.363628 
L 1102.012692 352.049506 
L 1103.081572 250.33077 
L 1104.150452 318.266026 
L 1105.219332 328.854534 
L 1106.288212 352.049506 
L 1107.357093 291.687335 
L 1108.425973 323.184311 
L 1109.494853 324.787933 
L 1110.563733 329.000318 
L 1111.632613 331.639772 
L 1112.701494 337.07981 
L 1113.770374 339.051728 
L 1114.839254 324.220144 
L 1115.908134 331.754865 
L 1118.045895 335.691028 
L 1119.114775 336.926353 
L 1120.183655 340.939245 
L 1121.252535 341.230812 
L 1122.321415 329.798292 
L 1123.390296 335.522225 
L 1125.528056 337.102829 
L 1126.596936 340.164289 
L 1127.665816 342.005768 
L 1128.734697 343.026255 
L 1129.803577 330.987581 
L 1130.872457 334.624504 
L 1131.941337 335.407133 
L 1133.010217 335.031164 
L 1135.147978 341.000627 
L 1136.216858 340.900881 
L 1137.285738 326.330172 
L 1138.354618 333.435215 
L 1139.423498 333.458233 
L 1140.492379 334.332936 
L 1141.561259 337.877785 
L 1142.630139 340.325418 
L 1143.699019 342.005768 
L 1144.767899 327.327641 
L 1145.83678 332.806043 
L 1146.90566 332.522148 
L 1147.97454 334.07206 
L 1149.04342 334.079733 
L 1150.1123 338.261426 
L 1151.181181 339.726937 
L 1152.250061 318.595958 
L 1153.318941 325.547543 
L 1154.387821 325.724019 
L 1155.456701 323.544934 
L 1156.525582 325.117865 
L 1157.594462 330.082187 
L 1158.663342 331.233112 
L 1159.732222 297.219447 
L 1160.801102 306.603321 
L 1161.869983 304.416564 
L 1162.938863 306.51892 
L 1164.007743 304.493292 
L 1165.076623 315.258276 
L 1166.145503 315.841411 
L 1167.214384 262.031839 
L 1168.283264 278.305916 
L 1169.352144 279.149928 
L 1170.421024 282.32648 
L 1171.489904 290.382954 
L 1172.558785 304.62373 
L 1173.627665 312.18147 
L 1174.696545 260.481927 
L 1175.765425 284.896879 
L 1176.834305 289.31643 
L 1178.972066 303.411423 
L 1180.040946 317.874711 
L 1181.109826 324.220144 
L 1182.178706 329.077046 
L 1183.247587 278.720249 
L 1184.316467 304.117323 
L 1185.385347 311.375823 
L 1186.454227 316.51662 
L 1187.523107 327.18953 
L 1188.591988 332.008068 
L 1189.660868 308.682659 
L 1190.729748 320.698314 
L 1191.798628 325.110192 
L 1192.867508 328.048887 
L 1193.936389 331.440279 
L 1195.005269 337.524834 
L 1196.074149 339.189839 
L 1197.143029 324.672841 
L 1198.211909 329.16912 
L 1199.28079 330.834125 
L 1202.48743 340.532585 
L 1203.55631 341.98275 
L 1204.625191 328.179325 
L 1205.694071 335.29204 
L 1206.762951 336.028632 
L 1207.831831 337.409742 
L 1208.900711 339.266567 
L 1209.969592 343.09531 
L 1211.038472 343.624736 
L 1212.107352 333.726783 
L 1213.176232 339.097765 
L 1214.245112 339.657882 
L 1215.313993 341.698855 
L 1216.382873 342.151552 
L 1217.451753 345.074901 
L 1218.520633 345.780802 
L 1219.589513 337.94684 
L 1220.658394 341.537726 
L 1221.727274 342.044132 
L 1222.796154 342.097842 
L 1223.865034 343.977686 
L 1224.933914 345.55829 
L 1226.002795 346.095388 
L 1227.071675 338.10797 
L 1228.140555 341.698855 
L 1229.209435 341.591435 
L 1230.278315 341.744892 
L 1231.347196 343.594045 
L 1232.416076 345.128611 
L 1233.484956 346.37161 
L 1234.553836 338.10797 
L 1235.622716 341.714201 
L 1236.691596 342.366391 
L 1237.760477 342.49683 
L 1239.898237 345.619672 
L 1240.967117 346.61714 
L 1242.035997 340.233344 
L 1243.104878 343.6631 
L 1244.173758 342.842107 
L 1245.242638 343.816557 
L 1246.311518 344.246235 
L 1248.449279 349.02641 
L 1249.518159 347.399769 
L 1250.587039 340.179634 
L 1251.655919 343.486625 
L 1252.724799 344.17718 
L 1253.79368 345.642691 
L 1254.86256 347.890831 
L 1255.93144 349.057101 
L 1257.00032 347.783411 
L 1258.0692 340.271708 
L 1259.138081 345.021191 
L 1260.206961 345.658036 
L 1263.413601 349.095465 
L 1264.482482 345.067228 
L 1265.551362 347.461152 
L 1266.620242 348.028942 
L 1267.689122 348.228435 
L 1268.758002 348.86528 
L 1269.826883 349.6786 
L 1270.895763 349.931804 
L 1271.964643 347.806429 
L 1273.033523 348.926663 
L 1274.102403 349.410051 
L 1275.171284 349.287286 
L 1278.377924 351.451025 
L 1280.515685 350.791161 
L 1281.584565 348.151707 
L 1282.653445 348.842262 
L 1284.791205 349.778347 
L 1285.860086 349.954822 
L 1286.928966 347.046819 
L 1287.997846 348.481639 
L 1289.066726 348.40491 
L 1290.135606 348.535348 
L 1292.273367 349.755329 
L 1293.342247 350.123625 
L 1294.411127 347.207948 
L 1295.480007 348.427929 
L 1296.548888 348.481639 
L 1297.617768 348.681132 
L 1298.686648 349.563508 
L 1299.755528 350.177335 
L 1300.824408 352.049506 
L 1309.37545 352.049506 
L 1309.37545 352.049506 
" clip-path="url(#p4670190a2d)" style="fill: none; stroke: #0000ff; stroke-width: 1.5; stroke-linecap: square"/>
   </g>
   <g id="line2d_22">
    <path d="M 1068.877405 287.380137 
L 1069.946286 266.703935 
L 1071.015166 282.193208 
L 1072.084046 292.460492 
L 1073.152926 284.968573 
L 1074.221806 274.503304 
L 1076.359567 286.067252 
L 1077.428447 275.580311 
L 1078.497327 262.154646 
L 1079.566207 267.518208 
L 1080.635088 269.180919 
L 1081.703968 278.213893 
L 1082.772848 288.945462 
L 1083.841728 295.251566 
L 1084.910608 275.778152 
L 1085.979489 278.101233 
L 1087.048369 281.014452 
L 1088.117249 282.979411 
L 1089.186129 290.224777 
L 1090.255009 299.132729 
L 1091.32389 304.409895 
L 1092.39277 282.131598 
L 1093.46165 292.132844 
L 1094.53053 293.140181 
L 1095.59941 307.117137 
L 1096.668291 309.198788 
L 1097.737171 307.07001 
L 1098.806051 312.127435 
L 1099.874931 289.956564 
L 1100.943811 317.544264 
L 1102.012692 290.589694 
L 1104.150452 327.919299 
L 1105.219332 326.288444 
L 1106.288212 318.844026 
L 1107.357093 301.365279 
L 1108.425973 332.69297 
L 1109.494853 324.797599 
L 1110.563733 300.517052 
L 1111.632613 320.528428 
L 1112.701494 331.860594 
L 1113.770374 344.492365 
L 1114.839254 318.283277 
L 1115.908134 337.262305 
L 1116.977014 334.384618 
L 1118.045895 325.990783 
L 1119.114775 335.293377 
L 1121.252535 347.201728 
L 1122.321415 329.898536 
L 1123.390296 340.368342 
L 1124.459176 338.815345 
L 1125.528056 334.865548 
L 1126.596936 339.238293 
L 1127.665816 342.726014 
L 1128.734697 345.478241 
L 1129.803577 334.092326 
L 1130.872457 340.732581 
L 1131.941337 339.752399 
L 1133.010217 337.08158 
L 1134.079097 339.293548 
L 1135.147978 340.818521 
L 1136.216858 341.939411 
L 1137.285738 333.27591 
L 1138.354618 337.700269 
L 1139.423498 336.36537 
L 1140.492379 334.222801 
L 1141.561259 336.160382 
L 1142.630139 337.838878 
L 1143.699019 338.856494 
L 1144.767899 331.252813 
L 1145.83678 336.127733 
L 1146.90566 335.614107 
L 1147.97454 334.357189 
L 1150.1123 337.284183 
L 1151.181181 337.776423 
L 1152.250061 329.807368 
L 1153.318941 334.034377 
L 1154.387821 332.060398 
L 1155.456701 329.717378 
L 1156.525582 329.570466 
L 1157.594462 330.199813 
L 1158.663342 329.775757 
L 1159.732222 320.017836 
L 1160.801102 324.47864 
L 1161.869983 320.471759 
L 1162.938863 314.636924 
L 1164.007743 312.381544 
L 1165.076623 312.683609 
L 1166.145503 311.740444 
L 1167.214384 297.819921 
L 1168.283264 304.155978 
L 1169.352144 297.226045 
L 1170.421024 289.304726 
L 1171.489904 285.714829 
L 1172.558785 288.029683 
L 1173.627665 289.148994 
L 1174.696545 271.159792 
L 1175.765425 283.506678 
L 1177.903186 281.424158 
L 1178.972066 285.705978 
L 1180.040946 294.745214 
L 1181.109826 300.905507 
L 1182.178706 281.283303 
L 1183.247587 296.009199 
L 1184.316467 307.694734 
L 1185.385347 310.09548 
L 1186.454227 308.010849 
L 1187.523107 316.06948 
L 1188.591988 320.876844 
L 1189.660868 312.834303 
L 1190.729748 306.483477 
L 1191.798628 313.426888 
L 1192.867508 318.190631 
L 1193.936389 324.822109 
L 1195.005269 333.014846 
L 1196.074149 337.128254 
L 1197.143029 326.777764 
L 1198.211909 326.256236 
L 1199.28079 330.61177 
L 1201.41855 335.977353 
L 1202.48743 340.5851 
L 1203.55631 342.629349 
L 1204.625191 333.269692 
L 1205.694071 333.876497 
L 1207.831831 337.447395 
L 1208.900711 339.910149 
L 1209.969592 342.971685 
L 1211.038472 344.023982 
L 1212.107352 335.708157 
L 1213.176232 338.018143 
L 1214.245112 339.090445 
L 1215.313993 340.473063 
L 1216.382873 342.2244 
L 1217.451753 344.990066 
L 1218.520633 345.78385 
L 1219.589513 339.029623 
L 1220.658394 341.64952 
L 1221.727274 342.327656 
L 1222.796154 343.412238 
L 1223.865034 344.251779 
L 1224.933914 346.004216 
L 1226.002795 346.392421 
L 1227.071675 341.003126 
L 1228.140555 343.184558 
L 1230.278315 343.282883 
L 1231.347196 343.942353 
L 1232.416076 344.978278 
L 1233.484956 345.244782 
L 1234.553836 340.539685 
L 1235.622716 342.871471 
L 1237.760477 342.561062 
L 1238.829357 343.485265 
L 1239.898237 344.586887 
L 1240.967117 345.189994 
L 1242.035997 340.857548 
L 1243.104878 343.186475 
L 1245.242638 343.5802 
L 1247.380398 345.365307 
L 1248.449279 345.893671 
L 1249.518159 342.112589 
L 1250.587039 344.638083 
L 1251.655919 345.872983 
L 1252.724799 345.712419 
L 1253.79368 345.092205 
L 1255.93144 347.011651 
L 1257.00032 345.086748 
L 1258.0692 344.48369 
L 1259.138081 346.025686 
L 1260.206961 345.730509 
L 1261.275841 345.659118 
L 1262.344721 346.974519 
L 1263.413601 347.982458 
L 1264.482482 346.731405 
L 1265.551362 344.410986 
L 1266.620242 345.817219 
L 1267.689122 346.506288 
L 1268.758002 347.93184 
L 1269.826883 349.101139 
L 1270.895763 350.003915 
L 1271.964643 348.330201 
L 1273.033523 347.759546 
L 1274.102403 348.585964 
L 1275.171284 348.982299 
L 1277.309044 350.435647 
L 1278.377924 350.86349 
L 1279.446804 349.480466 
L 1280.515685 349.615435 
L 1281.584565 350.545556 
L 1282.653445 351.004578 
L 1283.722325 351.012824 
L 1284.791205 350.851804 
L 1285.860086 350.888944 
L 1286.928966 349.862876 
L 1287.997846 349.636211 
L 1289.066726 348.63433 
L 1290.135606 348.423354 
L 1293.342247 349.487031 
L 1294.411127 348.440155 
L 1295.480007 348.97698 
L 1296.548888 348.543383 
L 1297.617768 348.433802 
L 1300.824408 349.538989 
L 1301.893289 348.378488 
L 1302.962169 349.357323 
L 1308.30657 353.021609 
L 1309.37545 352.313948 
L 1309.37545 352.313948 
" clip-path="url(#p4670190a2d)" style="fill: none; stroke: #ffa500; stroke-width: 1.5; stroke-linecap: square"/>
   </g>
   <g id="line2d_23">
    <path d="M 1310.44433 352.342344 
L 1311.51321 352.176817 
L 1312.582091 352.269558 
L 1313.650971 352.469146 
L 1314.719851 352.620055 
L 1315.788731 352.917163 
L 1316.857611 352.604547 
L 1317.926492 352.801325 
L 1318.995372 352.733923 
L 1320.064252 352.787807 
L 1321.133132 352.934781 
L 1322.202012 353.052262 
L 1323.270893 353.2755 
L 1324.339773 353.039506 
" clip-path="url(#p4670190a2d)" style="fill: none; stroke: #ff0000; stroke-width: 1.5; stroke-linecap: square"/>
   </g>
   <g id="patch_3">
    <path d="M 46.0125 368.3955 
L 46.0125 35.7555 
" style="fill: none; stroke: #000000; stroke-width: 0.8; stroke-linejoin: miter; stroke-linecap: square"/>
   </g>
   <g id="patch_4">
    <path d="M 1385.2125 368.3955 
L 1385.2125 35.7555 
" style="fill: none; stroke: #000000; stroke-width: 0.8; stroke-linejoin: miter; stroke-linecap: square"/>
   </g>
   <g id="patch_5">
    <path d="M 46.0125 368.3955 
L 1385.2125 368.3955 
" style="fill: none; stroke: #000000; stroke-width: 0.8; stroke-linejoin: miter; stroke-linecap: square"/>
   </g>
   <g id="patch_6">
    <path d="M 46.0125 35.7555 
L 1385.2125 35.7555 
" style="fill: none; stroke: #000000; stroke-width: 0.8; stroke-linejoin: miter; stroke-linecap: square"/>
   </g>
   <g id="text_21">
    <!-- Daily Confirmed Cases Forecasting - Singapore -->
    <g transform="translate(574.844063 16.318125)scale(0.12 -0.12)">
     <defs>
      <path id="DejaVuSans-44" d="M 1259 4147 
L 1259 519 
L 2022 519 
Q 2988 519 3436 956 
Q 3884 1394 3884 2338 
Q 3884 3275 3436 3711 
Q 2988 4147 2022 4147 
L 1259 4147 
z
M 628 4666 
L 1925 4666 
Q 3281 4666 3915 4102 
Q 4550 3538 4550 2338 
Q 4550 1131 3912 565 
Q 3275 0 1925 0 
L 628 0 
L 628 4666 
z
" transform="scale(0.015625)"/>
      <path id="DejaVuSans-61" d="M 2194 1759 
Q 1497 1759 1228 1600 
Q 959 1441 959 1056 
Q 959 750 1161 570 
Q 1363 391 1709 391 
Q 2188 391 2477 730 
Q 2766 1069 2766 1631 
L 2766 1759 
L 2194 1759 
z
M 3341 1997 
L 3341 0 
L 2766 0 
L 2766 531 
Q 2569 213 2275 61 
Q 1981 -91 1556 -91 
Q 1019 -91 701 211 
Q 384 513 384 1019 
Q 384 1609 779 1909 
Q 1175 2209 1959 2209 
L 2766 2209 
L 2766 2266 
Q 2766 2663 2505 2880 
Q 2244 3097 1772 3097 
Q 1472 3097 1187 3025 
Q 903 2953 641 2809 
L 641 3341 
Q 956 3463 1253 3523 
Q 1550 3584 1831 3584 
Q 2591 3584 2966 3190 
Q 3341 2797 3341 1997 
z
" transform="scale(0.015625)"/>
      <path id="DejaVuSans-69" d="M 603 3500 
L 1178 3500 
L 1178 0 
L 603 0 
L 603 3500 
z
M 603 4863 
L 1178 4863 
L 1178 4134 
L 603 4134 
L 603 4863 
z
" transform="scale(0.015625)"/>
      <path id="DejaVuSans-6c" d="M 603 4863 
L 1178 4863 
L 1178 0 
L 603 0 
L 603 4863 
z
" transform="scale(0.015625)"/>
      <path id="DejaVuSans-79" d="M 2059 -325 
Q 1816 -950 1584 -1140 
Q 1353 -1331 966 -1331 
L 506 -1331 
L 506 -850 
L 844 -850 
Q 1081 -850 1212 -737 
Q 1344 -625 1503 -206 
L 1606 56 
L 191 3500 
L 800 3500 
L 1894 763 
L 2988 3500 
L 3597 3500 
L 2059 -325 
z
" transform="scale(0.015625)"/>
      <path id="DejaVuSans-20" transform="scale(0.015625)"/>
      <path id="DejaVuSans-43" d="M 4122 4306 
L 4122 3641 
Q 3803 3938 3442 4084 
Q 3081 4231 2675 4231 
Q 1875 4231 1450 3742 
Q 1025 3253 1025 2328 
Q 1025 1406 1450 917 
Q 1875 428 2675 428 
Q 3081 428 3442 575 
Q 3803 722 4122 1019 
L 4122 359 
Q 3791 134 3420 21 
Q 3050 -91 2638 -91 
Q 1578 -91 968 557 
Q 359 1206 359 2328 
Q 359 3453 968 4101 
Q 1578 4750 2638 4750 
Q 3056 4750 3426 4639 
Q 3797 4528 4122 4306 
z
" transform="scale(0.015625)"/>
      <path id="DejaVuSans-6f" d="M 1959 3097 
Q 1497 3097 1228 2736 
Q 959 2375 959 1747 
Q 959 1119 1226 758 
Q 1494 397 1959 397 
Q 2419 397 2687 759 
Q 2956 1122 2956 1747 
Q 2956 2369 2687 2733 
Q 2419 3097 1959 3097 
z
M 1959 3584 
Q 2709 3584 3137 3096 
Q 3566 2609 3566 1747 
Q 3566 888 3137 398 
Q 2709 -91 1959 -91 
Q 1206 -91 779 398 
Q 353 888 353 1747 
Q 353 2609 779 3096 
Q 1206 3584 1959 3584 
z
" transform="scale(0.015625)"/>
      <path id="DejaVuSans-6e" d="M 3513 2113 
L 3513 0 
L 2938 0 
L 2938 2094 
Q 2938 2591 2744 2837 
Q 2550 3084 2163 3084 
Q 1697 3084 1428 2787 
Q 1159 2491 1159 1978 
L 1159 0 
L 581 0 
L 581 3500 
L 1159 3500 
L 1159 2956 
Q 1366 3272 1645 3428 
Q 1925 3584 2291 3584 
Q 2894 3584 3203 3211 
Q 3513 2838 3513 2113 
z
" transform="scale(0.015625)"/>
      <path id="DejaVuSans-66" d="M 2375 4863 
L 2375 4384 
L 1825 4384 
Q 1516 4384 1395 4259 
Q 1275 4134 1275 3809 
L 1275 3500 
L 2222 3500 
L 2222 3053 
L 1275 3053 
L 1275 0 
L 697 0 
L 697 3053 
L 147 3053 
L 147 3500 
L 697 3500 
L 697 3744 
Q 697 4328 969 4595 
Q 1241 4863 1831 4863 
L 2375 4863 
z
" transform="scale(0.015625)"/>
      <path id="DejaVuSans-72" d="M 2631 2963 
Q 2534 3019 2420 3045 
Q 2306 3072 2169 3072 
Q 1681 3072 1420 2755 
Q 1159 2438 1159 1844 
L 1159 0 
L 581 0 
L 581 3500 
L 1159 3500 
L 1159 2956 
Q 1341 3275 1631 3429 
Q 1922 3584 2338 3584 
Q 2397 3584 2469 3576 
Q 2541 3569 2628 3553 
L 2631 2963 
z
" transform="scale(0.015625)"/>
      <path id="DejaVuSans-6d" d="M 3328 2828 
Q 3544 3216 3844 3400 
Q 4144 3584 4550 3584 
Q 5097 3584 5394 3201 
Q 5691 2819 5691 2113 
L 5691 0 
L 5113 0 
L 5113 2094 
Q 5113 2597 4934 2840 
Q 4756 3084 4391 3084 
Q 3944 3084 3684 2787 
Q 3425 2491 3425 1978 
L 3425 0 
L 2847 0 
L 2847 2094 
Q 2847 2600 2669 2842 
Q 2491 3084 2119 3084 
Q 1678 3084 1418 2786 
Q 1159 2488 1159 1978 
L 1159 0 
L 581 0 
L 581 3500 
L 1159 3500 
L 1159 2956 
Q 1356 3278 1631 3431 
Q 1906 3584 2284 3584 
Q 2666 3584 2933 3390 
Q 3200 3197 3328 2828 
z
" transform="scale(0.015625)"/>
      <path id="DejaVuSans-65" d="M 3597 1894 
L 3597 1613 
L 953 1613 
Q 991 1019 1311 708 
Q 1631 397 2203 397 
Q 2534 397 2845 478 
Q 3156 559 3463 722 
L 3463 178 
Q 3153 47 2828 -22 
Q 2503 -91 2169 -91 
Q 1331 -91 842 396 
Q 353 884 353 1716 
Q 353 2575 817 3079 
Q 1281 3584 2069 3584 
Q 2775 3584 3186 3129 
Q 3597 2675 3597 1894 
z
M 3022 2063 
Q 3016 2534 2758 2815 
Q 2500 3097 2075 3097 
Q 1594 3097 1305 2825 
Q 1016 2553 972 2059 
L 3022 2063 
z
" transform="scale(0.015625)"/>
      <path id="DejaVuSans-64" d="M 2906 2969 
L 2906 4863 
L 3481 4863 
L 3481 0 
L 2906 0 
L 2906 525 
Q 2725 213 2448 61 
Q 2172 -91 1784 -91 
Q 1150 -91 751 415 
Q 353 922 353 1747 
Q 353 2572 751 3078 
Q 1150 3584 1784 3584 
Q 2172 3584 2448 3432 
Q 2725 3281 2906 2969 
z
M 947 1747 
Q 947 1113 1208 752 
Q 1469 391 1925 391 
Q 2381 391 2643 752 
Q 2906 1113 2906 1747 
Q 2906 2381 2643 2742 
Q 2381 3103 1925 3103 
Q 1469 3103 1208 2742 
Q 947 2381 947 1747 
z
" transform="scale(0.015625)"/>
      <path id="DejaVuSans-73" d="M 2834 3397 
L 2834 2853 
Q 2591 2978 2328 3040 
Q 2066 3103 1784 3103 
Q 1356 3103 1142 2972 
Q 928 2841 928 2578 
Q 928 2378 1081 2264 
Q 1234 2150 1697 2047 
L 1894 2003 
Q 2506 1872 2764 1633 
Q 3022 1394 3022 966 
Q 3022 478 2636 193 
Q 2250 -91 1575 -91 
Q 1294 -91 989 -36 
Q 684 19 347 128 
L 347 722 
Q 666 556 975 473 
Q 1284 391 1588 391 
Q 1994 391 2212 530 
Q 2431 669 2431 922 
Q 2431 1156 2273 1281 
Q 2116 1406 1581 1522 
L 1381 1569 
Q 847 1681 609 1914 
Q 372 2147 372 2553 
Q 372 3047 722 3315 
Q 1072 3584 1716 3584 
Q 2034 3584 2315 3537 
Q 2597 3491 2834 3397 
z
" transform="scale(0.015625)"/>
      <path id="DejaVuSans-46" d="M 628 4666 
L 3309 4666 
L 3309 4134 
L 1259 4134 
L 1259 2759 
L 3109 2759 
L 3109 2228 
L 1259 2228 
L 1259 0 
L 628 0 
L 628 4666 
z
" transform="scale(0.015625)"/>
      <path id="DejaVuSans-63" d="M 3122 3366 
L 3122 2828 
Q 2878 2963 2633 3030 
Q 2388 3097 2138 3097 
Q 1578 3097 1268 2742 
Q 959 2388 959 1747 
Q 959 1106 1268 751 
Q 1578 397 2138 397 
Q 2388 397 2633 464 
Q 2878 531 3122 666 
L 3122 134 
Q 2881 22 2623 -34 
Q 2366 -91 2075 -91 
Q 1284 -91 818 406 
Q 353 903 353 1747 
Q 353 2603 823 3093 
Q 1294 3584 2113 3584 
Q 2378 3584 2631 3529 
Q 2884 3475 3122 3366 
z
" transform="scale(0.015625)"/>
      <path id="DejaVuSans-74" d="M 1172 4494 
L 1172 3500 
L 2356 3500 
L 2356 3053 
L 1172 3053 
L 1172 1153 
Q 1172 725 1289 603 
Q 1406 481 1766 481 
L 2356 481 
L 2356 0 
L 1766 0 
Q 1100 0 847 248 
Q 594 497 594 1153 
L 594 3053 
L 172 3053 
L 172 3500 
L 594 3500 
L 594 4494 
L 1172 4494 
z
" transform="scale(0.015625)"/>
      <path id="DejaVuSans-67" d="M 2906 1791 
Q 2906 2416 2648 2759 
Q 2391 3103 1925 3103 
Q 1463 3103 1205 2759 
Q 947 2416 947 1791 
Q 947 1169 1205 825 
Q 1463 481 1925 481 
Q 2391 481 2648 825 
Q 2906 1169 2906 1791 
z
M 3481 434 
Q 3481 -459 3084 -895 
Q 2688 -1331 1869 -1331 
Q 1566 -1331 1297 -1286 
Q 1028 -1241 775 -1147 
L 775 -588 
Q 1028 -725 1275 -790 
Q 1522 -856 1778 -856 
Q 2344 -856 2625 -561 
Q 2906 -266 2906 331 
L 2906 616 
Q 2728 306 2450 153 
Q 2172 0 1784 0 
Q 1141 0 747 490 
Q 353 981 353 1791 
Q 353 2603 747 3093 
Q 1141 3584 1784 3584 
Q 2172 3584 2450 3431 
Q 2728 3278 2906 2969 
L 2906 3500 
L 3481 3500 
L 3481 434 
z
" transform="scale(0.015625)"/>
      <path id="DejaVuSans-53" d="M 3425 4513 
L 3425 3897 
Q 3066 4069 2747 4153 
Q 2428 4238 2131 4238 
Q 1616 4238 1336 4038 
Q 1056 3838 1056 3469 
Q 1056 3159 1242 3001 
Q 1428 2844 1947 2747 
L 2328 2669 
Q 3034 2534 3370 2195 
Q 3706 1856 3706 1288 
Q 3706 609 3251 259 
Q 2797 -91 1919 -91 
Q 1588 -91 1214 -16 
Q 841 59 441 206 
L 441 856 
Q 825 641 1194 531 
Q 1563 422 1919 422 
Q 2459 422 2753 634 
Q 3047 847 3047 1241 
Q 3047 1584 2836 1778 
Q 2625 1972 2144 2069 
L 1759 2144 
Q 1053 2284 737 2584 
Q 422 2884 422 3419 
Q 422 4038 858 4394 
Q 1294 4750 2059 4750 
Q 2388 4750 2728 4690 
Q 3069 4631 3425 4513 
z
" transform="scale(0.015625)"/>
      <path id="DejaVuSans-70" d="M 1159 525 
L 1159 -1331 
L 581 -1331 
L 581 3500 
L 1159 3500 
L 1159 2969 
Q 1341 3281 1617 3432 
Q 1894 3584 2278 3584 
Q 2916 3584 3314 3078 
Q 3713 2572 3713 1747 
Q 3713 922 3314 415 
Q 2916 -91 2278 -91 
Q 1894 -91 1617 61 
Q 1341 213 1159 525 
z
M 3116 1747 
Q 3116 2381 2855 2742 
Q 2594 3103 2138 3103 
Q 1681 3103 1420 2742 
Q 1159 2381 1159 1747 
Q 1159 1113 1420 752 
Q 1681 391 2138 391 
Q 2594 391 2855 752 
Q 3116 1113 3116 1747 
z
" transform="scale(0.015625)"/>
     </defs>
     <use xlink:href="#DejaVuSans-44"/>
     <use xlink:href="#DejaVuSans-61" x="77.001953"/>
     <use xlink:href="#DejaVuSans-69" x="138.28125"/>
     <use xlink:href="#DejaVuSans-6c" x="166.064453"/>
     <use xlink:href="#DejaVuSans-79" x="193.847656"/>
     <use xlink:href="#DejaVuSans-20" x="253.027344"/>
     <use xlink:href="#DejaVuSans-43" x="284.814453"/>
     <use xlink:href="#DejaVuSans-6f" x="354.638672"/>
     <use xlink:href="#DejaVuSans-6e" x="415.820312"/>
     <use xlink:href="#DejaVuSans-66" x="479.199219"/>
     <use xlink:href="#DejaVuSans-69" x="514.404297"/>
     <use xlink:href="#DejaVuSans-72" x="542.1875"/>
     <use xlink:href="#DejaVuSans-6d" x="581.550781"/>
     <use xlink:href="#DejaVuSans-65" x="678.962891"/>
     <use xlink:href="#DejaVuSans-64" x="740.486328"/>
     <use xlink:href="#DejaVuSans-20" x="803.962891"/>
     <use xlink:href="#DejaVuSans-43" x="835.75"/>
     <use xlink:href="#DejaVuSans-61" x="905.574219"/>
     <use xlink:href="#DejaVuSans-73" x="966.853516"/>
     <use xlink:href="#DejaVuSans-65" x="1018.953125"/>
     <use xlink:href="#DejaVuSans-73" x="1080.476562"/>
     <use xlink:href="#DejaVuSans-20" x="1132.576172"/>
     <use xlink:href="#DejaVuSans-46" x="1164.363281"/>
     <use xlink:href="#DejaVuSans-6f" x="1218.257812"/>
     <use xlink:href="#DejaVuSans-72" x="1279.439453"/>
     <use xlink:href="#DejaVuSans-65" x="1318.302734"/>
     <use xlink:href="#DejaVuSans-63" x="1379.826172"/>
     <use xlink:href="#DejaVuSans-61" x="1434.806641"/>
     <use xlink:href="#DejaVuSans-73" x="1496.085938"/>
     <use xlink:href="#DejaVuSans-74" x="1548.185547"/>
     <use xlink:href="#DejaVuSans-69" x="1587.394531"/>
     <use xlink:href="#DejaVuSans-6e" x="1615.177734"/>
     <use xlink:href="#DejaVuSans-67" x="1678.556641"/>
     <use xlink:href="#DejaVuSans-20" x="1742.033203"/>
     <use xlink:href="#DejaVuSans-2d" x="1773.820312"/>
     <use xlink:href="#DejaVuSans-20" x="1809.904297"/>
     <use xlink:href="#DejaVuSans-53" x="1841.691406"/>
     <use xlink:href="#DejaVuSans-69" x="1905.167969"/>
     <use xlink:href="#DejaVuSans-6e" x="1932.951172"/>
     <use xlink:href="#DejaVuSans-67" x="1996.330078"/>
     <use xlink:href="#DejaVuSans-61" x="2059.806641"/>
     <use xlink:href="#DejaVuSans-70" x="2121.085938"/>
     <use xlink:href="#DejaVuSans-6f" x="2184.5625"/>
     <use xlink:href="#DejaVuSans-72" x="2245.744141"/>
     <use xlink:href="#DejaVuSans-65" x="2284.607422"/>
    </g>
    <!-- ARIMA (2, 1, 1)x(1, 0, 1, 7) (R2 = 0.731497) -->
    <g transform="translate(583.628438 29.7555)scale(0.12 -0.12)">
     <defs>
      <path id="DejaVuSans-41" d="M 2188 4044 
L 1331 1722 
L 3047 1722 
L 2188 4044 
z
M 1831 4666 
L 2547 4666 
L 4325 0 
L 3669 0 
L 3244 1197 
L 1141 1197 
L 716 0 
L 50 0 
L 1831 4666 
z
" transform="scale(0.015625)"/>
      <path id="DejaVuSans-52" d="M 2841 2188 
Q 3044 2119 3236 1894 
Q 3428 1669 3622 1275 
L 4263 0 
L 3584 0 
L 2988 1197 
Q 2756 1666 2539 1819 
Q 2322 1972 1947 1972 
L 1259 1972 
L 1259 0 
L 628 0 
L 628 4666 
L 2053 4666 
Q 2853 4666 3247 4331 
Q 3641 3997 3641 3322 
Q 3641 2881 3436 2590 
Q 3231 2300 2841 2188 
z
M 1259 4147 
L 1259 2491 
L 2053 2491 
Q 2509 2491 2742 2702 
Q 2975 2913 2975 3322 
Q 2975 3731 2742 3939 
Q 2509 4147 2053 4147 
L 1259 4147 
z
" transform="scale(0.015625)"/>
      <path id="DejaVuSans-49" d="M 628 4666 
L 1259 4666 
L 1259 0 
L 628 0 
L 628 4666 
z
" transform="scale(0.015625)"/>
      <path id="DejaVuSans-4d" d="M 628 4666 
L 1569 4666 
L 2759 1491 
L 3956 4666 
L 4897 4666 
L 4897 0 
L 4281 0 
L 4281 4097 
L 3078 897 
L 2444 897 
L 1241 4097 
L 1241 0 
L 628 0 
L 628 4666 
z
" transform="scale(0.015625)"/>
      <path id="DejaVuSans-28" d="M 1984 4856 
Q 1566 4138 1362 3434 
Q 1159 2731 1159 2009 
Q 1159 1288 1364 580 
Q 1569 -128 1984 -844 
L 1484 -844 
Q 1016 -109 783 600 
Q 550 1309 550 2009 
Q 550 2706 781 3412 
Q 1013 4119 1484 4856 
L 1984 4856 
z
" transform="scale(0.015625)"/>
      <path id="DejaVuSans-2c" d="M 750 794 
L 1409 794 
L 1409 256 
L 897 -744 
L 494 -744 
L 750 256 
L 750 794 
z
" transform="scale(0.015625)"/>
      <path id="DejaVuSans-29" d="M 513 4856 
L 1013 4856 
Q 1481 4119 1714 3412 
Q 1947 2706 1947 2009 
Q 1947 1309 1714 600 
Q 1481 -109 1013 -844 
L 513 -844 
Q 928 -128 1133 580 
Q 1338 1288 1338 2009 
Q 1338 2731 1133 3434 
Q 928 4138 513 4856 
z
" transform="scale(0.015625)"/>
      <path id="DejaVuSans-78" d="M 3513 3500 
L 2247 1797 
L 3578 0 
L 2900 0 
L 1881 1375 
L 863 0 
L 184 0 
L 1544 1831 
L 300 3500 
L 978 3500 
L 1906 2253 
L 2834 3500 
L 3513 3500 
z
" transform="scale(0.015625)"/>
      <path id="DejaVuSans-37" d="M 525 4666 
L 3525 4666 
L 3525 4397 
L 1831 0 
L 1172 0 
L 2766 4134 
L 525 4134 
L 525 4666 
z
" transform="scale(0.015625)"/>
      <path id="DejaVuSans-3d" d="M 678 2906 
L 4684 2906 
L 4684 2381 
L 678 2381 
L 678 2906 
z
M 678 1631 
L 4684 1631 
L 4684 1100 
L 678 1100 
L 678 1631 
z
" transform="scale(0.015625)"/>
      <path id="DejaVuSans-2e" d="M 684 794 
L 1344 794 
L 1344 0 
L 684 0 
L 684 794 
z
" transform="scale(0.015625)"/>
     </defs>
     <use xlink:href="#DejaVuSans-41"/>
     <use xlink:href="#DejaVuSans-52" x="68.408203"/>
     <use xlink:href="#DejaVuSans-49" x="137.890625"/>
     <use xlink:href="#DejaVuSans-4d" x="167.382812"/>
     <use xlink:href="#DejaVuSans-41" x="253.662109"/>
     <use xlink:href="#DejaVuSans-20" x="322.070312"/>
     <use xlink:href="#DejaVuSans-28" x="353.857422"/>
     <use xlink:href="#DejaVuSans-32" x="392.871094"/>
     <use xlink:href="#DejaVuSans-2c" x="456.494141"/>
     <use xlink:href="#DejaVuSans-20" x="488.28125"/>
     <use xlink:href="#DejaVuSans-31" x="520.068359"/>
     <use xlink:href="#DejaVuSans-2c" x="583.691406"/>
     <use xlink:href="#DejaVuSans-20" x="615.478516"/>
     <use xlink:href="#DejaVuSans-31" x="647.265625"/>
     <use xlink:href="#DejaVuSans-29" x="710.888672"/>
     <use xlink:href="#DejaVuSans-78" x="749.902344"/>
     <use xlink:href="#DejaVuSans-28" x="809.082031"/>
     <use xlink:href="#DejaVuSans-31" x="848.095703"/>
     <use xlink:href="#DejaVuSans-2c" x="911.71875"/>
     <use xlink:href="#DejaVuSans-20" x="943.505859"/>
     <use xlink:href="#DejaVuSans-30" x="975.292969"/>
     <use xlink:href="#DejaVuSans-2c" x="1038.916016"/>
     <use xlink:href="#DejaVuSans-20" x="1070.703125"/>
     <use xlink:href="#DejaVuSans-31" x="1102.490234"/>
     <use xlink:href="#DejaVuSans-2c" x="1166.113281"/>
     <use xlink:href="#DejaVuSans-20" x="1197.900391"/>
     <use xlink:href="#DejaVuSans-37" x="1229.6875"/>
     <use xlink:href="#DejaVuSans-29" x="1293.310547"/>
     <use xlink:href="#DejaVuSans-20" x="1332.324219"/>
     <use xlink:href="#DejaVuSans-28" x="1364.111328"/>
     <use xlink:href="#DejaVuSans-52" x="1403.125"/>
     <use xlink:href="#DejaVuSans-32" x="1472.607422"/>
     <use xlink:href="#DejaVuSans-20" x="1536.230469"/>
     <use xlink:href="#DejaVuSans-3d" x="1568.017578"/>
     <use xlink:href="#DejaVuSans-20" x="1651.806641"/>
     <use xlink:href="#DejaVuSans-30" x="1683.59375"/>
     <use xlink:href="#DejaVuSans-2e" x="1747.216797"/>
     <use xlink:href="#DejaVuSans-37" x="1779.003906"/>
     <use xlink:href="#DejaVuSans-33" x="1842.626953"/>
     <use xlink:href="#DejaVuSans-31" x="1906.25"/>
     <use xlink:href="#DejaVuSans-34" x="1969.873047"/>
     <use xlink:href="#DejaVuSans-39" x="2033.496094"/>
     <use xlink:href="#DejaVuSans-37" x="2097.119141"/>
     <use xlink:href="#DejaVuSans-29" x="2160.742188"/>
    </g>
   </g>
   <g id="legend_1">
    <g id="patch_7">
     <path d="M 1281.132812 87.789875 
L 1378.2125 87.789875 
Q 1380.2125 87.789875 1380.2125 85.789875 
L 1380.2125 42.7555 
Q 1380.2125 40.7555 1378.2125 40.7555 
L 1281.132812 40.7555 
Q 1279.132812 40.7555 1279.132812 42.7555 
L 1279.132812 85.789875 
Q 1279.132812 87.789875 1281.132812 87.789875 
z
" style="fill: #ffffff; opacity: 0.8; stroke: #cccccc; stroke-linejoin: miter"/>
    </g>
    <g id="line2d_24">
     <path d="M 1283.132812 48.853937 
L 1293.132812 48.853937 
L 1303.132812 48.853937 
" style="fill: none; stroke: #0000ff; stroke-width: 1.5; stroke-linecap: square"/>
    </g>
    <g id="text_22">
     <!-- Actual Value -->
     <g transform="translate(1311.132812 52.353937)scale(0.1 -0.1)">
      <defs>
       <path id="DejaVuSans-75" d="M 544 1381 
L 544 3500 
L 1119 3500 
L 1119 1403 
Q 1119 906 1312 657 
Q 1506 409 1894 409 
Q 2359 409 2629 706 
Q 2900 1003 2900 1516 
L 2900 3500 
L 3475 3500 
L 3475 0 
L 2900 0 
L 2900 538 
Q 2691 219 2414 64 
Q 2138 -91 1772 -91 
Q 1169 -91 856 284 
Q 544 659 544 1381 
z
M 1991 3584 
L 1991 3584 
z
" transform="scale(0.015625)"/>
       <path id="DejaVuSans-56" d="M 1831 0 
L 50 4666 
L 709 4666 
L 2188 738 
L 3669 4666 
L 4325 4666 
L 2547 0 
L 1831 0 
z
" transform="scale(0.015625)"/>
      </defs>
      <use xlink:href="#DejaVuSans-41"/>
      <use xlink:href="#DejaVuSans-63" x="66.658203"/>
      <use xlink:href="#DejaVuSans-74" x="121.638672"/>
      <use xlink:href="#DejaVuSans-75" x="160.847656"/>
      <use xlink:href="#DejaVuSans-61" x="224.226562"/>
      <use xlink:href="#DejaVuSans-6c" x="285.505859"/>
      <use xlink:href="#DejaVuSans-20" x="313.289062"/>
      <use xlink:href="#DejaVuSans-56" x="345.076172"/>
      <use xlink:href="#DejaVuSans-61" x="405.734375"/>
      <use xlink:href="#DejaVuSans-6c" x="467.013672"/>
      <use xlink:href="#DejaVuSans-75" x="494.796875"/>
      <use xlink:href="#DejaVuSans-65" x="558.175781"/>
     </g>
    </g>
    <g id="line2d_25">
     <path d="M 1283.132812 63.532062 
L 1293.132812 63.532062 
L 1303.132812 63.532062 
" style="fill: none; stroke: #ffa500; stroke-width: 1.5; stroke-linecap: square"/>
    </g>
    <g id="text_23">
     <!-- Check Value -->
     <g transform="translate(1311.132812 67.032062)scale(0.1 -0.1)">
      <defs>
       <path id="DejaVuSans-68" d="M 3513 2113 
L 3513 0 
L 2938 0 
L 2938 2094 
Q 2938 2591 2744 2837 
Q 2550 3084 2163 3084 
Q 1697 3084 1428 2787 
Q 1159 2491 1159 1978 
L 1159 0 
L 581 0 
L 581 4863 
L 1159 4863 
L 1159 2956 
Q 1366 3272 1645 3428 
Q 1925 3584 2291 3584 
Q 2894 3584 3203 3211 
Q 3513 2838 3513 2113 
z
" transform="scale(0.015625)"/>
       <path id="DejaVuSans-6b" d="M 581 4863 
L 1159 4863 
L 1159 1991 
L 2875 3500 
L 3609 3500 
L 1753 1863 
L 3688 0 
L 2938 0 
L 1159 1709 
L 1159 0 
L 581 0 
L 581 4863 
z
" transform="scale(0.015625)"/>
      </defs>
      <use xlink:href="#DejaVuSans-43"/>
      <use xlink:href="#DejaVuSans-68" x="69.824219"/>
      <use xlink:href="#DejaVuSans-65" x="133.203125"/>
      <use xlink:href="#DejaVuSans-63" x="194.726562"/>
      <use xlink:href="#DejaVuSans-6b" x="249.707031"/>
      <use xlink:href="#DejaVuSans-20" x="307.617188"/>
      <use xlink:href="#DejaVuSans-56" x="339.404297"/>
      <use xlink:href="#DejaVuSans-61" x="400.0625"/>
      <use xlink:href="#DejaVuSans-6c" x="461.341797"/>
      <use xlink:href="#DejaVuSans-75" x="489.125"/>
      <use xlink:href="#DejaVuSans-65" x="552.503906"/>
     </g>
    </g>
    <g id="line2d_26">
     <path d="M 1283.132812 78.210187 
L 1293.132812 78.210187 
L 1303.132812 78.210187 
" style="fill: none; stroke: #ff0000; stroke-width: 1.5; stroke-linecap: square"/>
    </g>
    <g id="text_24">
     <!-- Predict Value -->
     <g transform="translate(1311.132812 81.710187)scale(0.1 -0.1)">
      <defs>
       <path id="DejaVuSans-50" d="M 1259 4147 
L 1259 2394 
L 2053 2394 
Q 2494 2394 2734 2622 
Q 2975 2850 2975 3272 
Q 2975 3691 2734 3919 
Q 2494 4147 2053 4147 
L 1259 4147 
z
M 628 4666 
L 2053 4666 
Q 2838 4666 3239 4311 
Q 3641 3956 3641 3272 
Q 3641 2581 3239 2228 
Q 2838 1875 2053 1875 
L 1259 1875 
L 1259 0 
L 628 0 
L 628 4666 
z
" transform="scale(0.015625)"/>
      </defs>
      <use xlink:href="#DejaVuSans-50"/>
      <use xlink:href="#DejaVuSans-72" x="58.552734"/>
      <use xlink:href="#DejaVuSans-65" x="97.416016"/>
      <use xlink:href="#DejaVuSans-64" x="158.939453"/>
      <use xlink:href="#DejaVuSans-69" x="222.416016"/>
      <use xlink:href="#DejaVuSans-63" x="250.199219"/>
      <use xlink:href="#DejaVuSans-74" x="305.179688"/>
      <use xlink:href="#DejaVuSans-20" x="344.388672"/>
      <use xlink:href="#DejaVuSans-56" x="376.175781"/>
      <use xlink:href="#DejaVuSans-61" x="436.833984"/>
      <use xlink:href="#DejaVuSans-6c" x="498.113281"/>
      <use xlink:href="#DejaVuSans-75" x="525.896484"/>
      <use xlink:href="#DejaVuSans-65" x="589.275391"/>
     </g>
    </g>
   </g>
  </g>
 </g>
 <defs>
  <clipPath id="p4670190a2d">
   <rect x="46.0125" y="35.7555" width="1339.2" height="332.64"/>
  </clipPath>
 </defs>
</svg>
