<?xml version="1.0" encoding="utf-8" standalone="no"?>
<!DOCTYPE svg PUBLIC "-//W3C//DTD SVG 1.1//EN"
  "http://www.w3.org/Graphics/SVG/1.1/DTD/svg11.dtd">
<svg xmlns:xlink="http://www.w3.org/1999/xlink" width="1384.5875pt" height="390.418188pt" viewBox="0 0 1384.5875 390.418188" xmlns="http://www.w3.org/2000/svg" version="1.1">
 <metadata>
  <rdf:RDF xmlns:dc="http://purl.org/dc/elements/1.1/" xmlns:cc="http://creativecommons.org/ns#" xmlns:rdf="http://www.w3.org/1999/02/22-rdf-syntax-ns#">
   <cc:Work>
    <dc:type rdf:resource="http://purl.org/dc/dcmitype/StillImage"/>
    <dc:date>2023-01-02T18:11:25.200827</dc:date>
    <dc:format>image/svg+xml</dc:format>
    <dc:creator>
     <cc:Agent>
      <dc:title>Matplotlib v3.5.1, https://matplotlib.org/</dc:title>
     </cc:Agent>
    </dc:creator>
   </cc:Work>
  </rdf:RDF>
 </metadata>
 <defs>
  <style type="text/css">*{stroke-linejoin: round; stroke-linecap: butt}</style>
 </defs>
 <g id="figure_1">
  <g id="patch_1">
   <path d="M 0 390.418188 
L 1384.5875 390.418188 
L 1384.5875 -0 
L 0 -0 
z
" style="fill: #ffffff"/>
  </g>
  <g id="axes_1">
   <g id="patch_2">
    <path d="M 38.1875 367.701 
L 1377.3875 367.701 
L 1377.3875 35.061 
L 38.1875 35.061 
z
" style="fill: #ffffff"/>
   </g>
   <g id="matplotlib.axis_1">
    <g id="xtick_1">
     <g id="line2d_1">
      <defs>
       <path id="mcb1026b1f7" d="M 0 0 
L 0 3.5 
" style="stroke: #000000; stroke-width: 0.8"/>
      </defs>
      <g>
       <use xlink:href="#mcb1026b1f7" x="74.44258" y="367.701" style="stroke: #000000; stroke-width: 0.8"/>
      </g>
     </g>
     <g id="text_1">
      <!-- 2020-01 -->
      <g transform="translate(54.952736 381.55725)scale(0.1 -0.1)">
       <defs>
        <path id="WenQuanYiZenHei-32" d="M 3488 0 
L 369 0 
L 369 456 
L 2150 1850 
Q 2931 2463 2931 3144 
Q 2931 3619 2488 3863 
Q 2231 4013 1931 4013 
Q 1425 4013 1113 3619 
Q 894 3356 881 3013 
L 369 3169 
Q 531 3981 1213 4300 
Q 1544 4456 1950 4456 
Q 2631 4456 3088 4044 
L 3225 3888 
L 3350 3706 
Q 3481 3444 3481 3144 
Q 3481 2313 2519 1569 
L 1069 456 
L 3488 456 
L 3488 0 
z
" transform="scale(0.015625)"/>
        <path id="WenQuanYiZenHei-30" d="M 3581 2175 
Q 3581 1288 3169 638 
Q 2713 -63 1938 -63 
Q 1025 -63 563 831 
Q 256 1425 256 2188 
Q 256 3188 700 3819 
Q 1138 4456 1888 4456 
Q 2863 4456 3306 3500 
Q 3581 2925 3581 2175 
z
M 3019 2100 
Q 3019 3356 2500 3806 
L 2350 3919 
Q 2144 4031 1888 4031 
Q 1100 4031 888 2956 
Q 819 2625 819 2225 
Q 819 1013 1338 569 
Q 1588 356 1938 356 
Q 2675 356 2925 1294 
Q 3019 1663 3019 2100 
z
" transform="scale(0.015625)"/>
        <path id="WenQuanYiZenHei-2d" d="M 1363 1444 
L 0 1444 
L 0 1844 
L 1363 1844 
L 1363 1444 
z
" transform="scale(0.015625)"/>
        <path id="WenQuanYiZenHei-31" d="M 3556 0 
L 488 0 
L 488 406 
L 1800 406 
L 1800 3725 
Q 1231 3125 588 2788 
L 588 3338 
Q 1456 3781 1931 4388 
L 2331 4388 
L 2331 406 
L 3556 406 
L 3556 0 
z
" transform="scale(0.015625)"/>
       </defs>
       <use xlink:href="#WenQuanYiZenHei-32"/>
       <use xlink:href="#WenQuanYiZenHei-30" x="59.960938"/>
       <use xlink:href="#WenQuanYiZenHei-32" x="119.921875"/>
       <use xlink:href="#WenQuanYiZenHei-30" x="179.882812"/>
       <use xlink:href="#WenQuanYiZenHei-2d" x="239.84375"/>
       <use xlink:href="#WenQuanYiZenHei-30" x="269.824219"/>
       <use xlink:href="#WenQuanYiZenHei-31" x="329.785156"/>
      </g>
     </g>
    </g>
    <g id="xtick_2">
     <g id="line2d_2">
      <g>
       <use xlink:href="#mcb1026b1f7" x="209.839639" y="367.701" style="stroke: #000000; stroke-width: 0.8"/>
      </g>
     </g>
     <g id="text_2">
      <!-- 2020-05 -->
      <g transform="translate(190.349795 381.55725)scale(0.1 -0.1)">
       <defs>
        <path id="WenQuanYiZenHei-35" d="M 3531 1488 
Q 3531 688 2913 250 
Q 2456 -63 1844 -63 
Q 1175 -63 706 350 
Q 413 613 306 975 
L 781 1131 
Q 1000 538 1569 406 
Q 1706 369 1856 369 
Q 2550 369 2850 869 
Q 3000 1131 3000 1494 
Q 3000 2056 2581 2356 
Q 2319 2538 1969 2538 
Q 1400 2538 1031 2075 
Q 981 2013 938 1938 
L 500 2031 
L 644 4388 
L 3244 4388 
L 3200 3919 
L 1044 3919 
L 950 2500 
Q 1431 2975 2006 2975 
Q 2713 2975 3163 2475 
Q 3531 2063 3531 1488 
z
" transform="scale(0.015625)"/>
       </defs>
       <use xlink:href="#WenQuanYiZenHei-32"/>
       <use xlink:href="#WenQuanYiZenHei-30" x="59.960938"/>
       <use xlink:href="#WenQuanYiZenHei-32" x="119.921875"/>
       <use xlink:href="#WenQuanYiZenHei-30" x="179.882812"/>
       <use xlink:href="#WenQuanYiZenHei-2d" x="239.84375"/>
       <use xlink:href="#WenQuanYiZenHei-30" x="269.824219"/>
       <use xlink:href="#WenQuanYiZenHei-35" x="329.785156"/>
      </g>
     </g>
    </g>
    <g id="xtick_3">
     <g id="line2d_3">
      <g>
       <use xlink:href="#mcb1026b1f7" x="347.474666" y="367.701" style="stroke: #000000; stroke-width: 0.8"/>
      </g>
     </g>
     <g id="text_3">
      <!-- 2020-09 -->
      <g transform="translate(327.984822 381.55725)scale(0.1 -0.1)">
       <defs>
        <path id="WenQuanYiZenHei-39" d="M 3544 2300 
Q 3544 1163 3019 513 
Q 2563 -63 1775 -63 
Q 956 -63 563 488 
Q 463 631 394 813 
L 838 975 
Q 1025 494 1550 388 
Q 1656 369 1775 369 
Q 2594 369 2900 1325 
Q 3044 1769 3038 2313 
L 3025 2313 
Q 2675 1638 1944 1544 
Q 1844 1531 1744 1531 
Q 1050 1531 625 2031 
Q 294 2419 294 2963 
Q 294 3656 813 4094 
Q 1238 4456 1819 4456 
Q 2988 4456 3381 3363 
Q 3544 2900 3544 2300 
z
M 2925 2994 
Q 2925 3563 2469 3844 
Q 2206 4006 1863 4006 
Q 1275 4006 988 3563 
Q 844 3344 825 3056 
Q 819 3006 819 2956 
Q 819 2413 1269 2131 
Q 1538 1963 1875 1963 
Q 2363 1963 2681 2350 
Q 2925 2638 2925 2994 
z
" transform="scale(0.015625)"/>
       </defs>
       <use xlink:href="#WenQuanYiZenHei-32"/>
       <use xlink:href="#WenQuanYiZenHei-30" x="59.960938"/>
       <use xlink:href="#WenQuanYiZenHei-32" x="119.921875"/>
       <use xlink:href="#WenQuanYiZenHei-30" x="179.882812"/>
       <use xlink:href="#WenQuanYiZenHei-2d" x="239.84375"/>
       <use xlink:href="#WenQuanYiZenHei-30" x="269.824219"/>
       <use xlink:href="#WenQuanYiZenHei-39" x="329.785156"/>
      </g>
     </g>
    </g>
    <g id="xtick_4">
     <g id="line2d_4">
      <g>
       <use xlink:href="#mcb1026b1f7" x="483.990709" y="367.701" style="stroke: #000000; stroke-width: 0.8"/>
      </g>
     </g>
     <g id="text_4">
      <!-- 2021-01 -->
      <g transform="translate(464.500865 381.55725)scale(0.1 -0.1)">
       <use xlink:href="#WenQuanYiZenHei-32"/>
       <use xlink:href="#WenQuanYiZenHei-30" x="59.960938"/>
       <use xlink:href="#WenQuanYiZenHei-32" x="119.921875"/>
       <use xlink:href="#WenQuanYiZenHei-31" x="179.882812"/>
       <use xlink:href="#WenQuanYiZenHei-2d" x="239.84375"/>
       <use xlink:href="#WenQuanYiZenHei-30" x="269.824219"/>
       <use xlink:href="#WenQuanYiZenHei-31" x="329.785156"/>
      </g>
     </g>
    </g>
    <g id="xtick_5">
     <g id="line2d_5">
      <g>
       <use xlink:href="#mcb1026b1f7" x="618.268783" y="367.701" style="stroke: #000000; stroke-width: 0.8"/>
      </g>
     </g>
     <g id="text_5">
      <!-- 2021-05 -->
      <g transform="translate(598.77894 381.55725)scale(0.1 -0.1)">
       <use xlink:href="#WenQuanYiZenHei-32"/>
       <use xlink:href="#WenQuanYiZenHei-30" x="59.960938"/>
       <use xlink:href="#WenQuanYiZenHei-32" x="119.921875"/>
       <use xlink:href="#WenQuanYiZenHei-31" x="179.882812"/>
       <use xlink:href="#WenQuanYiZenHei-2d" x="239.84375"/>
       <use xlink:href="#WenQuanYiZenHei-30" x="269.824219"/>
       <use xlink:href="#WenQuanYiZenHei-35" x="329.785156"/>
      </g>
     </g>
    </g>
    <g id="xtick_6">
     <g id="line2d_6">
      <g>
       <use xlink:href="#mcb1026b1f7" x="755.90381" y="367.701" style="stroke: #000000; stroke-width: 0.8"/>
      </g>
     </g>
     <g id="text_6">
      <!-- 2021-09 -->
      <g transform="translate(736.413966 381.55725)scale(0.1 -0.1)">
       <use xlink:href="#WenQuanYiZenHei-32"/>
       <use xlink:href="#WenQuanYiZenHei-30" x="59.960938"/>
       <use xlink:href="#WenQuanYiZenHei-32" x="119.921875"/>
       <use xlink:href="#WenQuanYiZenHei-31" x="179.882812"/>
       <use xlink:href="#WenQuanYiZenHei-2d" x="239.84375"/>
       <use xlink:href="#WenQuanYiZenHei-30" x="269.824219"/>
       <use xlink:href="#WenQuanYiZenHei-39" x="329.785156"/>
      </g>
     </g>
    </g>
    <g id="xtick_7">
     <g id="line2d_7">
      <g>
       <use xlink:href="#mcb1026b1f7" x="892.419853" y="367.701" style="stroke: #000000; stroke-width: 0.8"/>
      </g>
     </g>
     <g id="text_7">
      <!-- 2022-01 -->
      <g transform="translate(872.930009 381.55725)scale(0.1 -0.1)">
       <use xlink:href="#WenQuanYiZenHei-32"/>
       <use xlink:href="#WenQuanYiZenHei-30" x="59.960938"/>
       <use xlink:href="#WenQuanYiZenHei-32" x="119.921875"/>
       <use xlink:href="#WenQuanYiZenHei-32" x="179.882812"/>
       <use xlink:href="#WenQuanYiZenHei-2d" x="239.84375"/>
       <use xlink:href="#WenQuanYiZenHei-30" x="269.824219"/>
       <use xlink:href="#WenQuanYiZenHei-31" x="329.785156"/>
      </g>
     </g>
    </g>
    <g id="xtick_8">
     <g id="line2d_8">
      <g>
       <use xlink:href="#mcb1026b1f7" x="1026.697928" y="367.701" style="stroke: #000000; stroke-width: 0.8"/>
      </g>
     </g>
     <g id="text_8">
      <!-- 2022-05 -->
      <g transform="translate(1007.208084 381.55725)scale(0.1 -0.1)">
       <use xlink:href="#WenQuanYiZenHei-32"/>
       <use xlink:href="#WenQuanYiZenHei-30" x="59.960938"/>
       <use xlink:href="#WenQuanYiZenHei-32" x="119.921875"/>
       <use xlink:href="#WenQuanYiZenHei-32" x="179.882812"/>
       <use xlink:href="#WenQuanYiZenHei-2d" x="239.84375"/>
       <use xlink:href="#WenQuanYiZenHei-30" x="269.824219"/>
       <use xlink:href="#WenQuanYiZenHei-35" x="329.785156"/>
      </g>
     </g>
    </g>
    <g id="xtick_9">
     <g id="line2d_9">
      <g>
       <use xlink:href="#mcb1026b1f7" x="1164.332955" y="367.701" style="stroke: #000000; stroke-width: 0.8"/>
      </g>
     </g>
     <g id="text_9">
      <!-- 2022-09 -->
      <g transform="translate(1144.843111 381.55725)scale(0.1 -0.1)">
       <use xlink:href="#WenQuanYiZenHei-32"/>
       <use xlink:href="#WenQuanYiZenHei-30" x="59.960938"/>
       <use xlink:href="#WenQuanYiZenHei-32" x="119.921875"/>
       <use xlink:href="#WenQuanYiZenHei-32" x="179.882812"/>
       <use xlink:href="#WenQuanYiZenHei-2d" x="239.84375"/>
       <use xlink:href="#WenQuanYiZenHei-30" x="269.824219"/>
       <use xlink:href="#WenQuanYiZenHei-39" x="329.785156"/>
      </g>
     </g>
    </g>
    <g id="xtick_10">
     <g id="line2d_10">
      <g>
       <use xlink:href="#mcb1026b1f7" x="1300.848997" y="367.701" style="stroke: #000000; stroke-width: 0.8"/>
      </g>
     </g>
     <g id="text_10">
      <!-- 2023-01 -->
      <g transform="translate(1281.359154 381.55725)scale(0.1 -0.1)">
       <defs>
        <path id="WenQuanYiZenHei-33" d="M 3588 1231 
Q 3588 494 2875 144 
Q 2450 -63 1925 -63 
Q 1044 -63 556 488 
Q 356 706 256 1000 
L 769 1169 
Q 994 375 1913 375 
Q 2631 375 2900 788 
Q 3019 975 3019 1231 
Q 3019 1638 2638 1881 
Q 2325 2081 1613 2069 
L 1338 2069 
L 1338 2494 
Q 1969 2494 2094 2506 
Q 2325 2544 2463 2613 
Q 2763 2756 2844 3100 
Q 2863 3169 2863 3244 
Q 2863 3744 2381 3944 
L 2163 4006 
Q 2056 4025 1931 4025 
Q 1388 4025 1075 3631 
Q 969 3488 906 3313 
L 419 3456 
Q 675 4150 1400 4369 
Q 1669 4456 1975 4456 
Q 2694 4456 3106 4050 
Q 3419 3744 3419 3275 
Q 3419 2813 3025 2513 
Q 2825 2356 2575 2319 
L 2575 2306 
Q 3181 2213 3450 1769 
Q 3588 1525 3588 1231 
z
" transform="scale(0.015625)"/>
       </defs>
       <use xlink:href="#WenQuanYiZenHei-32"/>
       <use xlink:href="#WenQuanYiZenHei-30" x="59.960938"/>
       <use xlink:href="#WenQuanYiZenHei-32" x="119.921875"/>
       <use xlink:href="#WenQuanYiZenHei-33" x="179.882812"/>
       <use xlink:href="#WenQuanYiZenHei-2d" x="239.84375"/>
       <use xlink:href="#WenQuanYiZenHei-30" x="269.824219"/>
       <use xlink:href="#WenQuanYiZenHei-31" x="329.785156"/>
      </g>
     </g>
    </g>
   </g>
   <g id="matplotlib.axis_2">
    <g id="ytick_1">
     <g id="line2d_11">
      <defs>
       <path id="m76f62283b0" d="M 0 0 
L -3.5 0 
" style="stroke: #000000; stroke-width: 0.8"/>
      </defs>
      <g>
       <use xlink:href="#m76f62283b0" x="38.1875" y="324.065186" style="stroke: #000000; stroke-width: 0.8"/>
      </g>
     </g>
     <g id="text_11">
      <!-- 0 -->
      <g transform="translate(25.190625 327.493311)scale(0.1 -0.1)">
       <use xlink:href="#WenQuanYiZenHei-30"/>
      </g>
     </g>
    </g>
    <g id="ytick_2">
     <g id="line2d_12">
      <g>
       <use xlink:href="#m76f62283b0" x="38.1875" y="271.06902" style="stroke: #000000; stroke-width: 0.8"/>
      </g>
     </g>
     <g id="text_12">
      <!-- 500 -->
      <g transform="translate(13.196875 274.497145)scale(0.1 -0.1)">
       <use xlink:href="#WenQuanYiZenHei-35"/>
       <use xlink:href="#WenQuanYiZenHei-30" x="59.960938"/>
       <use xlink:href="#WenQuanYiZenHei-30" x="119.921875"/>
      </g>
     </g>
    </g>
    <g id="ytick_3">
     <g id="line2d_13">
      <g>
       <use xlink:href="#m76f62283b0" x="38.1875" y="218.072854" style="stroke: #000000; stroke-width: 0.8"/>
      </g>
     </g>
     <g id="text_13">
      <!-- 1000 -->
      <g transform="translate(7.2 221.500979)scale(0.1 -0.1)">
       <use xlink:href="#WenQuanYiZenHei-31"/>
       <use xlink:href="#WenQuanYiZenHei-30" x="59.960938"/>
       <use xlink:href="#WenQuanYiZenHei-30" x="119.921875"/>
       <use xlink:href="#WenQuanYiZenHei-30" x="179.882812"/>
      </g>
     </g>
    </g>
    <g id="ytick_4">
     <g id="line2d_14">
      <g>
       <use xlink:href="#m76f62283b0" x="38.1875" y="165.076688" style="stroke: #000000; stroke-width: 0.8"/>
      </g>
     </g>
     <g id="text_14">
      <!-- 1500 -->
      <g transform="translate(7.2 168.504813)scale(0.1 -0.1)">
       <use xlink:href="#WenQuanYiZenHei-31"/>
       <use xlink:href="#WenQuanYiZenHei-35" x="59.960938"/>
       <use xlink:href="#WenQuanYiZenHei-30" x="119.921875"/>
       <use xlink:href="#WenQuanYiZenHei-30" x="179.882812"/>
      </g>
     </g>
    </g>
    <g id="ytick_5">
     <g id="line2d_15">
      <g>
       <use xlink:href="#m76f62283b0" x="38.1875" y="112.080522" style="stroke: #000000; stroke-width: 0.8"/>
      </g>
     </g>
     <g id="text_15">
      <!-- 2000 -->
      <g transform="translate(7.2 115.508647)scale(0.1 -0.1)">
       <use xlink:href="#WenQuanYiZenHei-32"/>
       <use xlink:href="#WenQuanYiZenHei-30" x="59.960938"/>
       <use xlink:href="#WenQuanYiZenHei-30" x="119.921875"/>
       <use xlink:href="#WenQuanYiZenHei-30" x="179.882812"/>
      </g>
     </g>
    </g>
    <g id="ytick_6">
     <g id="line2d_16">
      <g>
       <use xlink:href="#m76f62283b0" x="38.1875" y="59.084356" style="stroke: #000000; stroke-width: 0.8"/>
      </g>
     </g>
     <g id="text_16">
      <!-- 2500 -->
      <g transform="translate(7.2 62.512481)scale(0.1 -0.1)">
       <use xlink:href="#WenQuanYiZenHei-32"/>
       <use xlink:href="#WenQuanYiZenHei-35" x="59.960938"/>
       <use xlink:href="#WenQuanYiZenHei-30" x="119.921875"/>
       <use xlink:href="#WenQuanYiZenHei-30" x="179.882812"/>
      </g>
     </g>
    </g>
   </g>
   <g id="line2d_17">
    <path d="M 99.060227 323.429232 
L 100.179211 321.839347 
L 101.298195 321.415378 
L 103.536163 319.825493 
L 104.655147 318.129615 
L 105.774131 316.645723 
L 106.893115 315.903777 
L 108.012099 315.373815 
L 109.131083 313.571945 
L 110.250067 313.78393 
L 112.488035 314.737861 
L 114.726003 316.115761 
L 115.844987 317.281677 
L 116.963971 317.599654 
L 118.082955 320.249462 
L 119.201939 321.097401 
L 120.320922 322.157324 
L 121.439906 319.613508 
L 122.55889 321.733355 
L 123.677874 321.945339 
L 124.796858 320.567439 
L 125.915842 321.733355 
L 127.034826 323.429232 
L 128.15381 323.429232 
L 130.391778 323.959194 
L 131.510762 323.959194 
L 132.629746 323.429232 
L 133.74873 323.747209 
L 135.986698 323.853201 
L 137.105682 324.065186 
L 151.652473 323.959194 
L 152.771457 323.747209 
L 153.890441 324.065186 
L 156.128409 324.065186 
L 157.247393 323.641217 
L 158.366377 323.959194 
L 161.723329 323.217247 
L 162.842313 322.263316 
L 163.961297 323.535224 
L 165.080281 322.687286 
L 166.199265 323.853201 
L 167.318249 322.687286 
L 168.437233 323.535224 
L 169.556217 322.475301 
L 170.675201 323.217247 
L 171.794184 322.89927 
L 172.913168 323.217247 
L 175.151136 323.005263 
L 176.27012 323.32324 
L 177.389104 323.429232 
L 178.508088 323.32324 
L 179.627072 323.853201 
L 180.746056 323.217247 
L 181.86504 323.217247 
L 182.984024 323.959194 
L 184.103008 323.747209 
L 185.221992 323.747209 
L 186.340976 323.535224 
L 189.697928 323.747209 
L 190.816912 323.111255 
L 191.935896 323.853201 
L 193.05488 323.535224 
L 194.173864 323.429232 
L 195.292848 323.853201 
L 197.530816 323.959194 
L 199.768783 324.065186 
L 200.887767 323.747209 
L 202.006751 324.065186 
L 204.244719 323.959194 
L 205.363703 324.065186 
L 206.482687 323.959194 
L 208.720655 324.065186 
L 242.290174 324.065186 
L 243.409158 323.853201 
L 245.647126 323.959194 
L 247.885094 324.065186 
L 249.004078 323.747209 
L 251.242045 324.065186 
L 252.361029 323.853201 
L 253.480013 324.065186 
L 254.598997 323.747209 
L 255.717981 324.065186 
L 256.836965 323.959194 
L 257.955949 322.263316 
L 259.074933 324.065186 
L 260.193917 323.747209 
L 261.312901 324.065186 
L 262.431885 324.065186 
L 263.550869 323.747209 
L 264.669853 324.065186 
L 265.788837 323.747209 
L 266.907821 324.065186 
L 271.383757 324.065186 
L 272.502741 323.853201 
L 273.621725 324.065186 
L 274.740709 324.065186 
L 275.859693 323.641217 
L 276.978676 324.065186 
L 278.09766 323.959194 
L 279.216644 324.065186 
L 280.335628 323.959194 
L 282.573596 324.065186 
L 283.69258 324.065186 
L 284.811564 323.853201 
L 285.930548 323.853201 
L 287.049532 324.065186 
L 289.2875 323.959194 
L 290.406484 323.853201 
L 291.525468 324.065186 
L 293.763436 324.065186 
L 294.88242 323.641217 
L 299.358356 324.065186 
L 300.47734 323.853201 
L 301.596324 323.959194 
L 302.715307 323.535224 
L 303.834291 323.853201 
L 304.953275 323.747209 
L 306.072259 324.065186 
L 307.191243 324.065186 
L 308.310227 323.853201 
L 309.429211 323.959194 
L 310.548195 323.747209 
L 313.905147 323.959194 
L 315.024131 323.641217 
L 316.143115 324.065186 
L 319.500067 323.959194 
L 320.619051 323.535224 
L 321.738035 323.747209 
L 322.857019 323.747209 
L 323.976003 324.065186 
L 325.094987 323.217247 
L 326.213971 324.065186 
L 328.451939 323.747209 
L 329.570922 323.217247 
L 330.689906 323.959194 
L 331.80889 323.641217 
L 332.927874 324.065186 
L 335.165842 324.065186 
L 336.284826 323.853201 
L 337.40381 324.065186 
L 338.522794 323.747209 
L 339.641778 323.641217 
L 340.760762 324.065186 
L 342.99873 323.853201 
L 345.236698 323.959194 
L 347.474666 323.853201 
L 348.59365 323.747209 
L 349.712634 322.687286 
L 350.831618 323.853201 
L 353.069586 323.641217 
L 355.307553 324.065186 
L 356.426537 323.959194 
L 357.545521 323.641217 
L 359.783489 323.959194 
L 360.902473 323.959194 
L 362.021457 323.641217 
L 363.140441 323.959194 
L 364.259425 323.959194 
L 366.497393 323.429232 
L 368.735361 323.747209 
L 370.973329 323.641217 
L 372.092313 324.065186 
L 374.330281 323.747209 
L 375.449265 323.853201 
L 376.568249 323.535224 
L 377.687233 324.065186 
L 378.806217 323.217247 
L 379.925201 324.065186 
L 381.044184 323.641217 
L 382.163168 323.747209 
L 383.282152 323.429232 
L 384.401136 323.959194 
L 385.52012 323.535224 
L 387.758088 324.065186 
L 388.877072 323.747209 
L 389.996056 323.959194 
L 391.11504 323.429232 
L 392.234024 323.747209 
L 393.353008 323.853201 
L 394.471992 323.429232 
L 396.70996 323.853201 
L 397.828944 323.853201 
L 398.947928 323.641217 
L 400.066912 323.747209 
L 401.185896 323.535224 
L 402.30488 323.747209 
L 403.423864 323.747209 
L 404.542848 324.065186 
L 405.661832 323.111255 
L 406.780816 323.747209 
L 407.899799 323.959194 
L 410.137767 323.853201 
L 411.256751 323.747209 
L 412.375735 323.853201 
L 415.732687 323.535224 
L 416.851671 323.217247 
L 417.970655 323.747209 
L 419.089639 324.065186 
L 420.208623 323.747209 
L 422.446591 323.853201 
L 424.684559 323.429232 
L 425.803543 324.065186 
L 426.922527 323.959194 
L 428.041511 324.065186 
L 429.160495 323.32324 
L 430.279479 323.747209 
L 431.398463 323.853201 
L 432.517447 323.747209 
L 433.63643 323.959194 
L 438.112366 324.065186 
L 439.23135 323.641217 
L 440.350334 323.641217 
L 441.469318 323.959194 
L 442.588302 323.641217 
L 443.707286 324.065186 
L 448.183222 324.065186 
L 449.302206 323.747209 
L 450.42119 323.641217 
L 451.540174 323.959194 
L 452.659158 323.747209 
L 454.897126 323.853201 
L 456.01611 323.747209 
L 458.254078 323.959194 
L 459.373061 323.747209 
L 462.730013 323.959194 
L 463.848997 323.959194 
L 464.967981 323.747209 
L 466.086965 323.959194 
L 467.205949 323.641217 
L 468.324933 323.959194 
L 469.443917 323.959194 
L 470.562901 323.747209 
L 471.681885 323.747209 
L 472.800869 323.959194 
L 480.633757 323.959194 
L 481.752741 323.747209 
L 483.990709 324.065186 
L 485.109693 323.535224 
L 486.228676 323.853201 
L 487.34766 323.641217 
L 489.585628 323.853201 
L 490.704612 323.747209 
L 492.94258 323.959194 
L 494.061564 323.32324 
L 495.180548 323.959194 
L 498.5375 323.747209 
L 499.656484 324.065186 
L 500.775468 323.853201 
L 501.894452 323.959194 
L 503.013436 323.747209 
L 504.13242 323.747209 
L 505.251404 323.959194 
L 506.370388 323.641217 
L 507.489372 323.959194 
L 508.608356 323.535224 
L 509.72734 323.853201 
L 510.846324 323.853201 
L 511.965307 323.32324 
L 513.084291 323.959194 
L 514.203275 323.535224 
L 515.322259 324.065186 
L 516.441243 323.747209 
L 517.560227 323.959194 
L 520.917179 323.747209 
L 523.155147 323.959194 
L 524.274131 323.853201 
L 525.393115 323.32324 
L 526.512099 323.32324 
L 527.631083 324.065186 
L 530.988035 323.747209 
L 532.107019 323.853201 
L 533.226003 323.641217 
L 534.344987 323.217247 
L 536.582955 323.747209 
L 537.701939 324.065186 
L 538.820922 323.747209 
L 539.939906 323.959194 
L 541.05889 323.747209 
L 542.177874 323.111255 
L 543.296858 324.065186 
L 544.415842 323.853201 
L 545.534826 323.853201 
L 546.65381 323.535224 
L 547.772794 323.959194 
L 548.891778 323.429232 
L 550.010762 323.747209 
L 552.24873 323.747209 
L 553.367714 323.959194 
L 555.605682 323.641217 
L 556.724666 323.641217 
L 558.962634 323.959194 
L 562.319586 323.747209 
L 563.43857 323.959194 
L 567.914505 323.959194 
L 569.033489 323.747209 
L 572.390441 323.959194 
L 573.509425 323.641217 
L 574.628409 323.853201 
L 575.747393 323.641217 
L 577.985361 323.959194 
L 579.104345 323.959194 
L 580.223329 323.217247 
L 581.342313 323.853201 
L 583.580281 323.747209 
L 584.699265 324.065186 
L 585.818249 323.747209 
L 588.056217 324.065186 
L 589.175201 323.853201 
L 591.413168 323.959194 
L 592.532152 323.641217 
L 593.651136 324.065186 
L 599.246056 323.641217 
L 600.36504 323.853201 
L 602.603008 323.641217 
L 604.840976 324.065186 
L 607.078944 323.853201 
L 608.197928 323.535224 
L 609.316912 323.959194 
L 610.435896 324.065186 
L 613.792848 323.747209 
L 614.911832 323.959194 
L 616.030816 323.853201 
L 617.149799 323.32324 
L 620.506751 323.641217 
L 621.625735 323.959194 
L 622.744719 323.959194 
L 623.863703 323.535224 
L 624.982687 324.065186 
L 626.101671 323.535224 
L 627.220655 323.853201 
L 628.339639 323.959194 
L 629.458623 323.217247 
L 630.577607 323.853201 
L 631.696591 323.747209 
L 632.815575 323.959194 
L 633.934559 323.535224 
L 635.053543 323.641217 
L 636.172527 323.959194 
L 639.529479 323.959194 
L 640.648463 323.429232 
L 641.767447 323.747209 
L 642.88643 323.747209 
L 644.005414 324.065186 
L 645.124398 323.959194 
L 646.243382 322.581293 
L 647.362366 323.959194 
L 648.48135 323.747209 
L 649.600334 323.959194 
L 650.719318 321.627362 
L 651.838302 322.687286 
L 652.957286 322.687286 
L 654.07627 322.263316 
L 655.195254 322.89927 
L 656.314238 322.369309 
L 657.433222 323.111255 
L 658.552206 323.217247 
L 659.67119 321.733355 
L 660.790174 323.111255 
L 661.909158 323.111255 
L 664.147126 322.793278 
L 665.26611 322.687286 
L 666.385094 323.32324 
L 667.504078 323.005263 
L 668.623061 322.475301 
L 669.742045 323.32324 
L 670.861029 323.111255 
L 671.980013 322.581293 
L 673.098997 322.793278 
L 674.217981 323.32324 
L 675.336965 323.32324 
L 676.455949 323.747209 
L 677.574933 323.217247 
L 680.931885 323.959194 
L 682.050869 323.535224 
L 685.407821 324.065186 
L 686.526805 323.217247 
L 687.645789 323.747209 
L 688.764773 323.747209 
L 689.883757 323.535224 
L 691.002741 323.747209 
L 692.121725 323.535224 
L 693.240709 323.853201 
L 694.359693 323.747209 
L 696.59766 324.065186 
L 697.716644 323.641217 
L 699.954612 323.853201 
L 701.073596 322.793278 
L 702.19258 323.641217 
L 703.311564 323.959194 
L 705.549532 323.217247 
L 707.7875 324.065186 
L 708.906484 323.217247 
L 710.025468 322.581293 
L 711.144452 323.535224 
L 713.38242 323.217247 
L 714.501404 322.687286 
L 715.620388 323.747209 
L 716.739372 323.747209 
L 717.858356 323.111255 
L 718.97734 323.959194 
L 721.215307 323.853201 
L 722.334291 323.429232 
L 723.453275 323.853201 
L 724.572259 323.853201 
L 725.691243 322.687286 
L 726.810227 323.747209 
L 727.929211 323.747209 
L 729.048195 323.217247 
L 730.167179 323.217247 
L 731.286163 323.853201 
L 733.524131 323.111255 
L 734.643115 323.747209 
L 735.762099 322.687286 
L 736.881083 323.535224 
L 738.000067 323.111255 
L 739.119051 323.959194 
L 740.238035 323.005263 
L 741.357019 323.111255 
L 742.476003 323.641217 
L 743.594987 323.429232 
L 744.713971 323.535224 
L 745.832955 323.217247 
L 746.951939 323.747209 
L 748.070922 323.111255 
L 749.189906 323.217247 
L 750.30889 323.747209 
L 751.427874 323.747209 
L 752.546858 323.111255 
L 753.665842 323.641217 
L 755.90381 323.111255 
L 757.022794 323.535224 
L 759.260762 323.641217 
L 760.379746 323.32324 
L 761.49873 323.853201 
L 762.617714 323.641217 
L 764.855682 323.535224 
L 765.974666 323.853201 
L 767.09365 323.429232 
L 768.212634 323.747209 
L 769.331618 323.217247 
L 770.450602 323.641217 
L 772.68857 323.853201 
L 773.807553 323.747209 
L 776.045521 324.065186 
L 777.164505 323.747209 
L 780.521457 323.959194 
L 781.640441 323.111255 
L 782.759425 323.641217 
L 783.878409 323.959194 
L 784.997393 323.747209 
L 786.116377 323.959194 
L 788.354345 323.429232 
L 789.473329 323.747209 
L 792.830281 323.641217 
L 793.949265 324.065186 
L 795.068249 324.065186 
L 796.187233 323.853201 
L 797.306217 324.065186 
L 798.425201 324.065186 
L 799.544184 323.853201 
L 800.663168 324.065186 
L 801.782152 323.853201 
L 802.901136 323.853201 
L 804.02012 324.065186 
L 806.258088 324.065186 
L 808.496056 323.747209 
L 809.61504 323.747209 
L 810.734024 323.959194 
L 815.20996 324.065186 
L 816.328944 323.641217 
L 818.566912 324.065186 
L 819.685896 323.641217 
L 821.923864 323.959194 
L 823.042848 324.065186 
L 825.280816 323.641217 
L 827.518783 323.959194 
L 828.637767 323.747209 
L 831.994719 323.641217 
L 833.113703 323.959194 
L 837.589639 323.959194 
L 838.708623 323.641217 
L 840.946591 323.959194 
L 842.065575 323.641217 
L 844.303543 323.853201 
L 845.422527 323.747209 
L 846.541511 323.853201 
L 847.660495 323.535224 
L 848.779479 323.853201 
L 851.017447 323.429232 
L 852.13643 323.747209 
L 854.374398 323.641217 
L 855.493382 323.111255 
L 856.612366 323.641217 
L 857.73135 323.959194 
L 859.969318 323.641217 
L 861.088302 323.959194 
L 862.207286 323.959194 
L 863.32627 323.747209 
L 865.564238 323.747209 
L 866.683222 324.065186 
L 868.92119 323.959194 
L 870.040174 323.535224 
L 872.278142 323.641217 
L 873.397126 323.429232 
L 875.635094 323.32324 
L 878.992045 323.005263 
L 880.111029 323.535224 
L 881.230013 323.111255 
L 882.348997 323.535224 
L 883.467981 323.429232 
L 884.586965 323.853201 
L 885.705949 323.429232 
L 886.824933 323.853201 
L 887.943917 323.641217 
L 889.062901 323.005263 
L 890.181885 323.747209 
L 891.300869 322.89927 
L 892.419853 323.005263 
L 893.538837 324.065186 
L 894.657821 322.051332 
L 895.776805 323.32324 
L 896.895789 323.005263 
L 899.133757 323.111255 
L 901.371725 323.111255 
L 903.609693 321.203393 
L 905.84766 323.005263 
L 908.085628 322.475301 
L 910.323596 322.157324 
L 911.44258 323.111255 
L 912.561564 323.535224 
L 913.680548 322.581293 
L 914.799532 323.32324 
L 915.918516 323.217247 
L 917.0375 323.429232 
L 918.156484 323.853201 
L 919.275468 323.959194 
L 920.394452 323.747209 
L 921.513436 323.32324 
L 922.63242 323.429232 
L 923.751404 323.853201 
L 924.870388 323.32324 
L 928.22734 322.687286 
L 929.346324 322.687286 
L 931.584291 323.217247 
L 932.703275 321.415378 
L 933.822259 322.157324 
L 934.941243 322.157324 
L 936.060227 323.111255 
L 937.179211 322.475301 
L 938.298195 321.52137 
L 939.417179 321.945339 
L 940.536163 321.097401 
L 941.655147 322.157324 
L 942.774131 321.203393 
L 943.893115 320.991408 
L 945.012099 321.415378 
L 946.131083 321.415378 
L 947.250067 319.825493 
L 948.369051 321.309385 
L 949.488035 321.415378 
L 950.607019 319.295531 
L 952.844987 317.705646 
L 953.963971 314.631869 
L 955.082955 315.267823 
L 956.201939 314.207899 
L 957.320922 316.115761 
L 958.439906 311.876068 
L 959.55889 314.101907 
L 960.677874 309.332252 
L 961.796858 310.816145 
L 962.915842 314.313892 
L 964.034826 311.346106 
L 965.15381 314.313892 
L 966.272794 319.189539 
L 967.391778 318.765569 
L 968.510762 317.493661 
L 969.629746 317.387669 
L 970.74873 313.889922 
L 971.867714 311.240114 
L 972.986698 316.857707 
L 974.105682 315.5858 
L 975.224666 313.041984 
L 976.34365 314.631869 
L 977.462634 317.175684 
L 978.581618 316.327746 
L 979.700602 319.295531 
L 980.819586 320.14347 
L 981.93857 321.627362 
L 983.057553 322.369309 
L 984.176537 322.475301 
L 985.295521 322.89927 
L 987.533489 323.005263 
L 988.652473 322.89927 
L 989.771457 322.475301 
L 990.890441 322.581293 
L 992.009425 323.429232 
L 993.128409 323.641217 
L 994.247393 322.793278 
L 995.366377 322.687286 
L 996.485361 323.111255 
L 997.604345 322.793278 
L 998.723329 323.959194 
L 999.842313 322.793278 
L 1000.961297 323.111255 
L 1002.080281 322.263316 
L 1003.199265 321.733355 
L 1004.318249 321.945339 
L 1005.437233 321.309385 
L 1006.556217 318.977554 
L 1007.675201 321.52137 
L 1008.794184 321.309385 
L 1009.913168 320.673431 
L 1012.151136 321.52137 
L 1013.27012 322.475301 
L 1014.389104 323.111255 
L 1015.508088 323.429232 
L 1016.627072 322.89927 
L 1017.746056 323.111255 
L 1018.86504 323.535224 
L 1019.984024 323.429232 
L 1021.103008 323.959194 
L 1022.221992 323.959194 
L 1023.340976 323.005263 
L 1024.45996 320.991408 
L 1025.578944 321.839347 
L 1026.697928 321.097401 
L 1027.816912 323.111255 
L 1030.05488 322.369309 
L 1031.173864 322.475301 
L 1032.292848 323.005263 
L 1034.530816 320.355454 
L 1035.649799 322.263316 
L 1036.768783 322.793278 
L 1037.887767 323.535224 
L 1039.006751 322.793278 
L 1040.125735 323.217247 
L 1041.244719 323.853201 
L 1042.363703 323.32324 
L 1043.482687 323.853201 
L 1046.839639 323.747209 
L 1047.958623 323.641217 
L 1049.077607 323.959194 
L 1052.434559 323.853201 
L 1053.553543 323.641217 
L 1054.672527 323.959194 
L 1055.791511 323.853201 
L 1056.910495 323.959194 
L 1058.029479 323.641217 
L 1059.148463 323.535224 
L 1061.38643 324.065186 
L 1062.505414 323.641217 
L 1063.624398 323.641217 
L 1064.743382 324.065186 
L 1065.862366 323.535224 
L 1068.100334 323.959194 
L 1069.219318 323.641217 
L 1071.457286 323.853201 
L 1073.695254 323.747209 
L 1074.814238 323.217247 
L 1075.933222 323.535224 
L 1078.17119 323.32324 
L 1079.290174 323.429232 
L 1080.409158 323.959194 
L 1083.76611 323.217247 
L 1084.885094 322.793278 
L 1086.004078 323.429232 
L 1087.123061 322.581293 
L 1088.242045 323.005263 
L 1089.361029 323.641217 
L 1091.598997 323.32324 
L 1092.717981 323.747209 
L 1093.836965 323.853201 
L 1094.955949 323.005263 
L 1096.074933 323.535224 
L 1097.193917 323.005263 
L 1098.312901 322.793278 
L 1100.550869 323.32324 
L 1101.669853 322.051332 
L 1102.788837 322.157324 
L 1103.907821 321.097401 
L 1105.026805 321.203393 
L 1106.145789 320.567439 
L 1107.264773 321.415378 
L 1108.383757 319.401523 
L 1109.502741 321.097401 
L 1110.621725 321.415378 
L 1111.740709 320.779424 
L 1112.859693 320.779424 
L 1113.978676 322.581293 
L 1115.09766 320.14347 
L 1116.216644 320.991408 
L 1117.335628 319.507516 
L 1118.454612 320.779424 
L 1119.573596 321.52137 
L 1120.69258 320.885416 
L 1124.049532 322.581293 
L 1125.168516 322.581293 
L 1126.2875 323.32324 
L 1127.406484 323.005263 
L 1129.644452 320.885416 
L 1130.763436 322.051332 
L 1131.88242 320.991408 
L 1133.001404 322.475301 
L 1134.120388 321.733355 
L 1135.239372 320.779424 
L 1136.358356 318.235608 
L 1137.47734 319.7195 
L 1138.596324 317.811638 
L 1139.715307 318.553585 
L 1140.834291 319.7195 
L 1141.953275 321.415378 
L 1143.072259 321.203393 
L 1144.191243 321.203393 
L 1145.310227 322.793278 
L 1146.429211 321.627362 
L 1147.548195 322.687286 
L 1150.905147 322.157324 
L 1152.024131 321.309385 
L 1153.143115 321.52137 
L 1154.262099 320.885416 
L 1155.381083 321.945339 
L 1156.500067 321.733355 
L 1157.619051 321.839347 
L 1158.738035 320.673431 
L 1159.857019 321.733355 
L 1160.976003 320.355454 
L 1162.094987 320.355454 
L 1164.332955 316.53973 
L 1165.451939 315.373815 
L 1166.570922 313.78393 
L 1167.689906 315.267823 
L 1168.80889 317.811638 
L 1169.927874 317.599654 
L 1171.046858 320.567439 
L 1172.165842 318.553585 
L 1173.284826 318.871562 
L 1174.40381 320.461447 
L 1175.522794 320.037477 
L 1176.641778 322.051332 
L 1177.760762 322.263316 
L 1178.879746 322.687286 
L 1181.117714 322.157324 
L 1182.236698 323.111255 
L 1184.474666 322.475301 
L 1187.831618 322.369309 
L 1188.950602 321.945339 
L 1190.069586 322.157324 
L 1191.18857 321.309385 
L 1192.307553 321.309385 
L 1193.426537 322.051332 
L 1194.545521 319.931485 
L 1195.664505 320.779424 
L 1196.783489 320.567439 
L 1197.902473 319.189539 
L 1199.021457 320.885416 
L 1200.140441 319.189539 
L 1201.259425 318.553585 
L 1202.378409 318.129615 
L 1203.497393 316.857707 
L 1204.616377 318.023623 
L 1205.735361 318.977554 
L 1206.854345 317.917631 
L 1207.973329 317.175684 
L 1209.092313 318.023623 
L 1210.211297 318.447592 
L 1212.449265 315.16183 
L 1213.568249 318.447592 
L 1214.687233 319.7195 
L 1215.806217 319.083546 
L 1216.925201 317.493661 
L 1218.044184 319.825493 
L 1219.163168 318.553585 
L 1220.282152 320.249462 
L 1221.401136 319.7195 
L 1222.52012 319.613508 
L 1223.639104 319.295531 
L 1224.758088 318.659577 
L 1225.877072 321.945339 
L 1226.996056 320.037477 
L 1228.11504 324.065186 
L 1229.234024 315.903777 
L 1230.353008 313.78393 
L 1231.471992 292.373479 
L 1232.590976 297.673095 
L 1233.70996 297.567103 
L 1234.828944 302.018781 
L 1235.947928 299.898934 
L 1237.066912 295.129279 
L 1238.185896 299.26298 
L 1239.30488 288.981724 
L 1240.423864 259.621848 
L 1241.542848 269.585127 
L 1242.661832 263.755549 
L 1243.780816 242.557083 
L 1244.899799 245.418876 
L 1246.018783 247.114753 
L 1247.137767 259.939825 
L 1248.256751 261.741695 
L 1249.375735 190.938817 
L 1250.494719 180.127599 
L 1251.613703 205.883736 
L 1252.732687 199.206219 
L 1253.851671 215.741023 
L 1254.970655 237.575443 
L 1256.089639 230.473957 
L 1257.208623 132.219065 
L 1258.327607 227.082202 
L 1259.446591 216.376977 
L 1260.565575 174.72199 
L 1261.684559 178.749699 
L 1262.803543 198.252288 
L 1263.922527 162.00291 
L 1265.041511 153.311539 
L 1266.160495 133.490973 
L 1267.279479 146.210053 
L 1268.398463 124.587617 
L 1269.517447 143.560245 
L 1270.63643 97.771557 
L 1271.755414 139.956505 
L 1272.874398 170.270312 
L 1273.993382 175.357944 
L 1275.112366 204.823812 
L 1276.23135 243.299029 
L 1277.350334 228.672087 
L 1278.469318 239.589297 
L 1279.588302 212.87923 
L 1280.707286 324.065186 
L 1282.945254 324.065186 
L 1284.064238 50.181 
L 1285.183222 225.280333 
L 1286.302206 113.35243 
L 1287.42119 324.065186 
L 1288.540174 52.618824 
L 1289.659158 324.065186 
L 1300.848997 324.065186 
L 1300.848997 324.065186 
" clip-path="url(#paf3ac44e7f)" style="fill: none; stroke: #0000ff; stroke-width: 1.5; stroke-linecap: square"/>
   </g>
   <g id="line2d_18">
    <path d="M 1061.38643 323.76253 
L 1062.505414 323.87407 
L 1064.743382 323.687445 
L 1065.862366 323.917916 
L 1068.100334 323.60344 
L 1069.219318 323.944847 
L 1070.338302 323.718133 
L 1071.457286 323.696941 
L 1072.57627 323.860766 
L 1077.052206 323.435249 
L 1078.17119 323.578351 
L 1079.290174 323.300041 
L 1082.647126 323.738387 
L 1083.76611 323.538534 
L 1084.885094 323.507214 
L 1086.004078 323.191653 
L 1088.242045 323.105648 
L 1089.361029 322.711058 
L 1090.480013 323.405351 
L 1091.598997 323.31021 
L 1092.717981 323.327414 
L 1094.955949 323.748496 
L 1096.074933 323.405743 
L 1097.193917 323.361191 
L 1098.312901 323.478844 
L 1099.431885 322.853939 
L 1100.550869 323.122767 
L 1101.669853 323.151177 
L 1103.907821 322.313746 
L 1105.026805 322.128139 
L 1106.145789 321.266348 
L 1107.264773 321.258417 
L 1108.383757 320.916915 
L 1109.502741 320.713581 
L 1110.621725 320.153285 
L 1111.740709 321.452228 
L 1112.859693 320.55503 
L 1113.978676 320.908697 
L 1115.09766 321.602498 
L 1116.216644 321.31631 
L 1117.335628 320.454017 
L 1118.454612 321.059549 
L 1119.573596 319.910379 
L 1120.69258 321.22479 
L 1121.811564 320.715436 
L 1122.930548 321.061406 
L 1124.049532 321.665152 
L 1125.168516 321.830806 
L 1126.2875 322.33274 
L 1128.525468 323.091733 
L 1130.763436 321.92318 
L 1133.001404 321.676793 
L 1134.120388 321.358231 
L 1135.239372 322.25432 
L 1136.358356 321.091446 
L 1138.596324 319.520995 
L 1139.715307 319.39893 
L 1140.834291 317.936515 
L 1141.953275 319.408429 
L 1143.072259 319.766605 
L 1144.191243 320.69525 
L 1145.310227 320.833876 
L 1146.429211 321.902124 
L 1147.548195 322.039031 
L 1148.667179 321.802409 
L 1149.786163 322.791638 
L 1150.905147 322.056711 
L 1152.024131 322.335549 
L 1154.262099 321.547031 
L 1155.381083 321.489845 
L 1156.500067 321.290025 
L 1157.619051 321.834565 
L 1158.738035 321.489194 
L 1159.857019 321.52 
L 1160.976003 321.250717 
L 1162.094987 321.356723 
L 1163.213971 320.294397 
L 1164.332955 320.123076 
L 1165.451939 318.115126 
L 1166.570922 317.06523 
L 1167.689906 315.500432 
L 1168.80889 314.869465 
L 1169.927874 316.229461 
L 1171.046858 316.709342 
L 1173.284826 319.419867 
L 1174.40381 318.254462 
L 1175.522794 320.066759 
L 1176.641778 319.789833 
L 1177.760762 320.40529 
L 1178.879746 321.896246 
L 1179.99873 321.786029 
L 1181.117714 322.563616 
L 1182.236698 322.301314 
L 1184.474666 322.876501 
L 1185.59365 322.468241 
L 1186.712634 322.67779 
L 1188.950602 322.469086 
L 1190.069586 322.236233 
L 1191.18857 322.173235 
L 1192.307553 321.923286 
L 1193.426537 321.408681 
L 1194.545521 321.815268 
L 1196.783489 320.469631 
L 1197.902473 321.152142 
L 1199.021457 319.789967 
L 1200.140441 320.174698 
L 1201.259425 320.306503 
L 1202.378409 318.785803 
L 1203.497393 319.094527 
L 1204.616377 317.867518 
L 1205.735361 317.621008 
L 1206.854345 318.444075 
L 1209.092313 317.673886 
L 1210.211297 317.970797 
L 1211.330281 318.147121 
L 1212.449265 317.529362 
L 1213.568249 316.523802 
L 1214.687233 317.132889 
L 1215.806217 318.592172 
L 1216.925201 318.231169 
L 1218.044184 318.469308 
L 1220.282152 319.29874 
L 1221.401136 318.689076 
L 1222.52012 320.17417 
L 1223.639104 319.26019 
L 1224.758088 319.755376 
L 1225.877072 319.143551 
L 1226.996056 320.027003 
L 1228.11504 320.744899 
L 1230.353008 321.050435 
L 1231.471992 315.671792 
L 1232.590976 309.206506 
L 1233.70996 298.938476 
L 1234.828944 302.366577 
L 1235.947928 296.620925 
L 1237.066912 300.626722 
L 1238.185896 297.434273 
L 1239.30488 298.391704 
L 1240.423864 296.014051 
L 1241.542848 279.494334 
L 1242.661832 272.372096 
L 1243.780816 273.099987 
L 1244.899799 253.353901 
L 1246.018783 250.146953 
L 1247.137767 251.016486 
L 1248.256751 249.406735 
L 1249.375735 257.530724 
L 1250.494719 233.099655 
L 1251.613703 202.239025 
L 1252.732687 211.20317 
L 1253.851671 197.632308 
L 1254.970655 198.708919 
L 1256.089639 223.013248 
L 1257.208623 225.55201 
L 1258.327607 192.329381 
L 1259.446591 189.218268 
L 1260.565575 230.274791 
L 1261.684559 172.848578 
L 1262.803543 192.570649 
L 1263.922527 195.781843 
L 1266.160495 161.391944 
L 1267.279479 159.250445 
L 1268.398463 142.763204 
L 1269.517447 141.041312 
L 1270.63643 131.282542 
L 1271.755414 130.167218 
L 1272.874398 115.866367 
L 1273.993382 155.321715 
L 1275.112366 151.665531 
L 1276.23135 178.239298 
L 1277.350334 212.140771 
L 1278.469318 222.109681 
L 1279.588302 226.331032 
L 1280.707286 233.89537 
L 1281.82627 253.67625 
L 1282.945254 308.546351 
L 1284.064238 291.831723 
L 1285.183222 233.682992 
L 1286.302206 169.305916 
L 1287.42119 225.292973 
L 1288.540174 148.57376 
L 1289.659158 224.300574 
L 1290.778142 140.845357 
L 1291.897126 352.581 
L 1293.01611 235.231252 
L 1294.135094 337.411358 
L 1295.254078 324.065186 
L 1300.848997 324.065186 
L 1300.848997 324.065186 
" clip-path="url(#paf3ac44e7f)" style="fill: none; stroke: #ffa500; stroke-width: 1.5; stroke-linecap: square"/>
   </g>
   <g id="line2d_19">
    <path d="M 1301.967981 324.065186 
L 1303.086965 324.065186 
L 1304.205949 324.065186 
L 1305.324933 324.065186 
L 1306.443917 324.065186 
L 1307.562901 324.065186 
L 1308.681885 324.065186 
L 1309.800869 324.065186 
L 1310.919853 324.065186 
L 1312.038837 324.065186 
L 1313.157821 324.065186 
L 1314.276805 324.065186 
L 1315.395789 324.065186 
L 1316.514773 324.065186 
" clip-path="url(#paf3ac44e7f)" style="fill: none; stroke: #ff0000; stroke-width: 1.5; stroke-linecap: square"/>
   </g>
   <g id="patch_3">
    <path d="M 38.1875 367.701 
L 38.1875 35.061 
" style="fill: none; stroke: #000000; stroke-width: 0.8; stroke-linejoin: miter; stroke-linecap: square"/>
   </g>
   <g id="patch_4">
    <path d="M 1377.3875 367.701 
L 1377.3875 35.061 
" style="fill: none; stroke: #000000; stroke-width: 0.8; stroke-linejoin: miter; stroke-linecap: square"/>
   </g>
   <g id="patch_5">
    <path d="M 38.1875 367.701 
L 1377.3875 367.701 
" style="fill: none; stroke: #000000; stroke-width: 0.8; stroke-linejoin: miter; stroke-linecap: square"/>
   </g>
   <g id="patch_6">
    <path d="M 38.1875 35.061 
L 1377.3875 35.061 
" style="fill: none; stroke: #000000; stroke-width: 0.8; stroke-linejoin: miter; stroke-linecap: square"/>
   </g>
   <g id="text_17">
    <!-- 每日新增预测 - 广东 -->
    <g transform="translate(654.390313 17.041875)scale(0.12 -0.12)">
     <defs>
      <path id="WenQuanYiZenHei-6bcf" d="M 6138 2181 
Q 6113 1988 6138 1800 
Q 5788 1819 5438 1819 
L 4975 1819 
L 4863 738 
L 5806 738 
L 5806 394 
L 4831 394 
L 4775 -144 
Q 4719 -563 4350 -725 
Q 4013 -856 3550 -825 
L 3288 -819 
Q 3331 -663 3275 -519 
Q 3219 -375 3113 -288 
Q 3381 -313 3759 -303 
Q 4138 -294 4231 -238 
Q 4338 -163 4350 88 
L 4381 394 
L 1025 394 
L 1244 1819 
L 813 1819 
Q 463 1819 113 1800 
Q 138 1988 113 2181 
Q 463 2163 813 2163 
L 1294 2163 
L 1488 3431 
L 1488 3581 
L 1506 3581 
L 1513 3613 
L 1713 3581 
L 5156 3581 
L 5013 2163 
L 5438 2163 
Q 5788 2163 6138 2181 
z
M 5588 4463 
Q 5569 4269 5588 4081 
Q 5244 4100 4894 4100 
L 1813 4100 
Q 1344 3463 606 2788 
Q 481 2988 256 3069 
Q 744 3494 1116 3972 
Q 1488 4450 1919 5181 
Q 2119 5044 2344 4950 
Q 2213 4688 2050 4444 
L 4894 4444 
Q 5238 4444 5588 4463 
z
M 2844 3238 
L 1906 3238 
L 1744 2163 
L 3244 2163 
L 2581 3038 
L 2844 3238 
z
M 3250 2163 
L 4563 2163 
L 4669 3238 
L 3044 3238 
L 3638 2456 
L 3250 2163 
z
M 2944 1819 
Q 3275 1394 3550 938 
L 3213 738 
L 4419 738 
L 4525 1819 
L 2944 1819 
z
M 2656 1819 
L 1694 1819 
L 1525 738 
L 3094 738 
Q 2806 1219 2450 1650 
L 2656 1819 
z
" transform="scale(0.015625)"/>
      <path id="WenQuanYiZenHei-65e5" d="M 1494 -775 
Q 1244 -750 988 -775 
Q 1013 -313 1013 156 
L 1013 4875 
L 5269 4875 
L 5269 -763 
L 4813 -763 
L 4813 156 
L 1469 156 
Q 1469 -313 1494 -775 
z
M 4813 2700 
L 4813 4500 
L 1469 4500 
L 1469 2700 
L 4813 2700 
z
M 4813 531 
L 4813 2325 
L 1469 2325 
L 1469 531 
L 4813 531 
z
" transform="scale(0.015625)"/>
      <path id="WenQuanYiZenHei-65b0" d="M 5419 -763 
Q 5188 -738 4963 -763 
Q 4981 -344 4981 75 
L 4981 2819 
L 4188 2819 
L 4188 1706 
Q 4188 63 3163 -738 
Q 3019 -519 2769 -469 
Q 3769 131 3769 1706 
L 3769 4769 
L 3875 4769 
L 3844 4831 
L 4294 4781 
Q 4438 4769 4894 4816 
Q 5350 4863 5512 4931 
Q 5675 5000 5763 5094 
Q 5850 4881 5981 4694 
Q 5713 4544 5263 4519 
L 4188 4438 
L 4188 3100 
L 5563 3100 
Q 5850 3100 6131 3113 
Q 6119 2956 6131 2806 
L 5394 2819 
L 5394 75 
Q 5394 -344 5419 -763 
z
M 2981 213 
Q 2656 744 2256 1225 
L 2606 1513 
Q 3025 1006 3369 450 
L 2981 213 
z
M 1169 1525 
Q 1375 1419 1594 1363 
Q 1281 488 469 -469 
Q 331 -300 119 -244 
Q 575 263 888 900 
Q 1038 1206 1169 1525 
z
M 1825 6 
L 1825 1769 
L 1081 1769 
Q 794 1769 513 1756 
Q 525 1913 513 2063 
Q 794 2050 1081 2050 
L 1825 2050 
L 1825 2775 
L 994 2775 
Q 706 2775 425 2763 
Q 438 2919 425 3075 
Q 706 3056 994 3056 
L 1825 3056 
L 1825 3088 
L 1906 3088 
Q 2288 3656 2588 4381 
Q 2794 4269 3013 4206 
Q 2800 3675 2381 3056 
L 3013 3056 
Q 3294 3056 3581 3075 
Q 3563 2919 3581 2763 
Q 3294 2775 3013 2775 
L 2238 2775 
L 2238 2050 
L 2925 2050 
Q 3206 2050 3494 2063 
Q 3475 1913 3494 1756 
Q 3206 1769 2925 1769 
L 2238 1769 
L 2238 -156 
Q 2238 -413 2075 -581 
Q 1844 -794 1306 -794 
Q 1363 -519 1188 -288 
Q 1338 -313 1534 -316 
Q 1731 -319 1778 -278 
Q 1825 -238 1825 6 
z
M 1875 3388 
L 1500 3131 
L 825 4088 
L 1200 4350 
L 1875 3388 
z
M 3419 4713 
Q 3400 4563 3419 4406 
Q 3131 4419 2850 4419 
L 1125 4419 
Q 838 4419 556 4406 
Q 569 4563 556 4713 
Q 838 4700 1125 4700 
L 1763 4700 
L 1388 5088 
L 1719 5406 
L 2288 4813 
L 2175 4700 
L 2850 4700 
Q 3131 4700 3419 4713 
z
" transform="scale(0.015625)"/>
      <path id="WenQuanYiZenHei-589e" d="M 3138 -769 
Q 2913 -744 2688 -769 
Q 2706 -356 2706 56 
L 2706 1719 
L 5706 1719 
L 5706 -756 
L 5300 -756 
L 5300 -338 
L 3119 -338 
Q 3125 -550 3138 -769 
z
M 5113 3569 
Q 5344 3606 5563 3688 
Q 5669 3175 5256 2694 
Q 5113 2519 4975 2506 
Q 4831 2725 4588 2813 
Q 4806 2831 4997 3068 
Q 5188 3306 5113 3569 
z
M 3850 2763 
L 3469 2538 
L 2925 3456 
L 3313 3681 
L 3850 2763 
z
M 2400 2100 
Q 2469 3138 2400 4175 
L 3413 4175 
Q 3138 4550 2825 4888 
L 3156 5194 
Q 3581 4725 3938 4206 
L 3900 4175 
L 4456 4175 
Q 4863 4575 5131 5163 
Q 5325 5044 5538 4975 
Q 5369 4575 5013 4175 
L 6056 4175 
Q 5981 3138 6056 2100 
L 2400 2100 
z
M 5300 806 
L 5300 1450 
L 3113 1450 
Q 3113 1125 3113 806 
L 5300 806 
z
M 5300 563 
L 3113 563 
L 3113 -94 
L 5300 -94 
L 5300 563 
z
M 4431 3913 
L 4431 2363 
L 5650 2363 
L 5650 3913 
L 4756 3913 
L 4700 3856 
Q 4681 3888 4656 3913 
L 4431 3913 
z
M 4025 3913 
L 2806 3913 
L 2806 2363 
L 4025 2363 
L 4025 3913 
z
M -31 625 
Q 506 763 1006 975 
L 1006 3206 
L 669 3206 
Q 369 3206 75 3188 
Q 94 3356 75 3531 
Q 369 3513 669 3513 
L 1006 3513 
L 1006 4263 
Q 1006 4700 981 5131 
Q 1206 5106 1431 5131 
Q 1413 4700 1413 4263 
L 1413 3513 
L 2238 3531 
Q 2219 3356 2238 3188 
L 1413 3206 
L 1413 1163 
L 2150 1531 
L 2194 1256 
Q 1269 775 813 519 
L 194 144 
Q 138 438 -31 625 
z
" transform="scale(0.015625)"/>
      <path id="WenQuanYiZenHei-9884" d="M 1206 19 
L 1206 2888 
L 669 2888 
Q 356 2888 50 2869 
Q 63 3044 50 3213 
Q 363 3194 669 3194 
L 1250 3194 
Q 950 3631 606 4031 
L 963 4338 
L 1263 3975 
L 1913 4719 
L 731 4719 
Q 419 4719 106 4706 
Q 125 4875 106 5044 
Q 419 5031 731 5031 
L 2481 5031 
L 2544 4663 
Q 2394 4613 2256 4466 
Q 2119 4319 1525 3631 
Q 1656 3444 1788 3250 
L 1700 3194 
L 2700 3194 
L 2763 2825 
Q 2656 2819 2613 2763 
L 2100 2038 
L 1750 2288 
L 2175 2888 
L 1638 2888 
L 1638 -150 
Q 1638 -525 1363 -669 
Q 1075 -819 525 -813 
Q 594 -513 388 -294 
Q 575 -313 837 -316 
Q 1100 -319 1153 -272 
Q 1206 -225 1206 19 
z
M 5813 -888 
Q 5100 -225 4306 375 
L 4669 719 
Q 5481 106 6219 -575 
L 5813 -888 
z
M 2375 -906 
Q 2294 -631 2025 -506 
Q 2769 -431 3353 19 
Q 3938 469 3938 1069 
L 3938 2200 
Q 3938 2625 3913 3050 
Q 4188 3025 4456 3050 
Q 4431 2625 4431 2200 
L 4431 1069 
Q 4431 681 4225 319 
Q 3644 -606 2375 -906 
z
M 3444 488 
Q 3169 513 2894 488 
Q 2919 913 2919 1338 
L 2919 3675 
Q 3219 3675 3525 3675 
Q 3750 4013 3931 4525 
L 3238 4525 
Q 2888 4525 2538 4513 
Q 2556 4669 2538 4831 
Q 2888 4813 3238 4813 
L 5313 4813 
Q 5663 4813 6006 4831 
Q 5988 4669 6006 4513 
Q 5663 4525 5313 4525 
L 4481 4525 
Q 4388 4088 4088 3675 
L 5644 3675 
L 5644 513 
L 5144 513 
L 5144 3388 
L 3894 3388 
L 3875 3363 
Q 3863 3375 3844 3388 
Q 3631 3388 3413 3388 
L 3419 1338 
Q 3419 913 3444 488 
z
" transform="scale(0.015625)"/>
      <path id="WenQuanYiZenHei-6d4b" d="M 5450 138 
L 5450 4306 
Q 5450 4750 5425 5188 
Q 5663 5163 5906 5188 
Q 5881 4750 5881 4306 
L 5881 -38 
Q 5888 -569 5519 -719 
Q 5194 -831 4825 -813 
Q 4894 -519 4694 -281 
Q 4869 -306 5094 -309 
Q 5319 -313 5384 -256 
Q 5450 -200 5450 138 
z
M 4900 938 
Q 4663 963 4419 938 
Q 4444 1375 4444 1819 
L 4444 3381 
Q 4444 3819 4419 4263 
Q 4663 4238 4900 4263 
Q 4875 3819 4875 3381 
L 4875 1819 
Q 4875 1375 4900 938 
z
M 2750 2025 
L 2750 3038 
Q 2750 3481 2725 3919 
Q 2963 3894 3206 3919 
Q 3181 3481 3181 3038 
L 3181 2025 
Q 3181 1263 2919 625 
L 3231 956 
Q 3781 431 4256 -150 
L 3888 -456 
Q 3431 106 2906 600 
Q 2531 -288 1738 -769 
Q 1606 -519 1338 -450 
Q 1988 -156 2369 478 
Q 2750 1113 2750 2025 
z
M 2363 969 
Q 2119 994 1881 969 
Q 1906 1406 1906 1850 
L 1906 5038 
L 3956 5031 
L 3956 1200 
L 3525 1200 
L 3525 4713 
L 2338 4713 
L 2338 1850 
Q 2338 1406 2363 969 
z
M 663 -738 
Q 481 -588 206 -575 
Q 400 -69 606 581 
Q 813 1231 1200 2838 
L 1381 2706 
L 875 338 
L 663 -738 
z
M 1006 2856 
L 731 2550 
L 75 3400 
L 350 3713 
L 1006 2856 
z
M 1088 3913 
Q 781 4388 425 4800 
L 694 5125 
Q 1069 4688 1388 4188 
L 1088 3913 
z
" transform="scale(0.015625)"/>
      <path id="WenQuanYiZenHei-20" transform="scale(0.015625)"/>
      <path id="WenQuanYiZenHei-5e7f" d="M 944 4338 
L 3169 4344 
Q 2950 4731 2681 5094 
L 3100 5400 
Q 3475 4894 3763 4344 
L 5294 4344 
Q 5719 4344 6138 4363 
Q 6113 4131 6138 3906 
Q 5719 3925 5294 3925 
L 1419 3925 
L 1425 1419 
Q 1431 0 619 -756 
Q 450 -525 169 -469 
Q 975 75 950 1419 
L 944 4338 
z
" transform="scale(0.015625)"/>
      <path id="WenQuanYiZenHei-4e1c" d="M 6131 -19 
L 5750 -350 
L 4888 625 
L 3988 1563 
L 4344 1919 
L 5256 969 
L 6131 -19 
z
M 2144 1825 
Q 2344 1669 2569 1556 
Q 1850 350 438 -563 
Q 338 -338 131 -219 
Q 738 156 1194 622 
Q 1650 1088 2144 1825 
z
M 3244 2050 
L 1150 2050 
L 2163 3881 
L 1219 3881 
Q 838 3881 456 3863 
Q 481 4069 456 4275 
Q 838 4256 1219 4256 
L 2369 4256 
L 2538 4556 
Q 2763 4963 2969 5381 
Q 3175 5238 3406 5138 
Q 3163 4744 2938 4331 
L 2894 4256 
L 5375 4256 
Q 5756 4256 6138 4275 
Q 6113 4069 6138 3863 
Q 5756 3881 5375 3881 
L 2688 3881 
L 1881 2425 
L 3244 2425 
Q 3244 2881 3225 3338 
Q 3475 3313 3725 3338 
Q 3706 2881 3706 2425 
L 5650 2425 
L 5650 2050 
L 3706 2050 
L 3706 -119 
Q 3706 -506 3419 -663 
Q 3113 -831 2575 -825 
Q 2644 -513 2431 -269 
Q 2619 -294 2875 -297 
Q 3131 -300 3188 -250 
Q 3244 -194 3244 63 
L 3244 2050 
z
" transform="scale(0.015625)"/>
     </defs>
     <use xlink:href="#WenQuanYiZenHei-6bcf"/>
     <use xlink:href="#WenQuanYiZenHei-65e5" x="100"/>
     <use xlink:href="#WenQuanYiZenHei-65b0" x="200"/>
     <use xlink:href="#WenQuanYiZenHei-589e" x="300"/>
     <use xlink:href="#WenQuanYiZenHei-9884" x="400"/>
     <use xlink:href="#WenQuanYiZenHei-6d4b" x="500"/>
     <use xlink:href="#WenQuanYiZenHei-20" x="600"/>
     <use xlink:href="#WenQuanYiZenHei-2d" x="629.980469"/>
     <use xlink:href="#WenQuanYiZenHei-20" x="659.960938"/>
     <use xlink:href="#WenQuanYiZenHei-5e7f" x="689.941406"/>
     <use xlink:href="#WenQuanYiZenHei-4e1c" x="789.941406"/>
    </g>
    <!-- ARIMA (4, 1, 0)x(0, 0, 0, 7) (R2 = 0.718910) -->
    <g transform="translate(589.179688 29.061)scale(0.12 -0.12)">
     <defs>
      <path id="WenQuanYiZenHei-41" d="M 3550 0 
L 2988 0 
L 2550 1281 
L 919 1281 
L 531 0 
L 69 0 
L 1494 4388 
L 2125 4388 
L 3550 0 
z
M 2425 1694 
L 1756 3800 
L 1075 1694 
L 2425 1694 
z
" transform="scale(0.015625)"/>
      <path id="WenQuanYiZenHei-52" d="M 3675 0 
L 3100 0 
L 2288 1900 
L 1069 1900 
L 1069 0 
L 519 0 
L 519 4388 
L 2163 4388 
Q 3006 4388 3400 3900 
Q 3581 3663 3625 3325 
Q 3631 3250 3631 3163 
Q 3631 2594 3219 2244 
Q 3038 2100 2813 2038 
L 3675 0 
z
M 3081 3169 
Q 3081 3825 2356 3906 
Q 2263 3919 2163 3919 
L 1069 3919 
L 1069 2350 
L 2100 2350 
Q 2906 2350 3044 2919 
Q 3081 3031 3081 3169 
z
" transform="scale(0.015625)"/>
      <path id="WenQuanYiZenHei-49" d="M 1100 0 
L 550 0 
L 550 4388 
L 1100 4388 
L 1100 0 
z
" transform="scale(0.015625)"/>
      <path id="WenQuanYiZenHei-4d" d="M 4756 0 
L 4206 0 
L 4206 3831 
L 4181 3831 
L 2788 0 
L 2419 0 
L 1000 3831 
L 975 3831 
L 975 0 
L 513 0 
L 513 4388 
L 1331 4388 
L 2656 875 
L 3950 4388 
L 4756 4388 
L 4756 0 
z
" transform="scale(0.015625)"/>
      <path id="WenQuanYiZenHei-28" d="M 1606 -1094 
L 1275 -1094 
Q 475 -100 338 1231 
Q 319 1438 319 1656 
Q 319 3031 1156 4244 
Q 1213 4313 1269 4388 
L 1600 4388 
Q 806 3169 794 1681 
Q 794 188 1606 -1094 
z
" transform="scale(0.015625)"/>
      <path id="WenQuanYiZenHei-34" d="M 3631 1025 
L 2913 1025 
L 2913 0 
L 2381 0 
L 2381 1025 
L 219 1025 
L 219 1388 
L 2225 4388 
L 2913 4388 
L 2913 1444 
L 3631 1444 
L 3631 1025 
z
M 2381 1444 
L 2381 3963 
L 788 1444 
L 2381 1444 
z
" transform="scale(0.015625)"/>
      <path id="WenQuanYiZenHei-2c" d="M 1363 75 
L 881 -825 
L 606 -825 
L 994 0 
L 656 0 
L 656 738 
L 1363 738 
L 1363 75 
z
" transform="scale(0.015625)"/>
      <path id="WenQuanYiZenHei-29" d="M 1600 1656 
Q 1600 306 869 -788 
Q 769 -950 644 -1094 
L 313 -1094 
Q 1125 188 1125 1681 
Q 1125 3169 338 4363 
Q 325 4375 319 4388 
L 650 4388 
Q 1525 3231 1594 1863 
Q 1600 1763 1600 1656 
z
" transform="scale(0.015625)"/>
      <path id="WenQuanYiZenHei-78" d="M 2806 0 
L 2213 0 
L 1394 1319 
L 544 0 
L 50 0 
L 1144 1681 
L 163 3250 
L 744 3250 
L 1431 2138 
L 2144 3250 
L 2631 3250 
L 1681 1794 
L 2806 0 
z
" transform="scale(0.015625)"/>
      <path id="WenQuanYiZenHei-37" d="M 3400 4056 
Q 1838 2175 1838 0 
L 1275 0 
Q 1269 1438 2056 2825 
Q 2381 3400 2825 3913 
L 444 3913 
L 500 4388 
L 3400 4388 
L 3400 4056 
z
" transform="scale(0.015625)"/>
      <path id="WenQuanYiZenHei-3d" d="M 3569 2256 
L 263 2256 
L 263 2675 
L 3569 2675 
L 3569 2256 
z
M 3569 1019 
L 263 1019 
L 263 1431 
L 3569 1431 
L 3569 1019 
z
" transform="scale(0.015625)"/>
      <path id="WenQuanYiZenHei-2e" d="M 1344 0 
L 631 0 
L 631 725 
L 1344 725 
L 1344 0 
z
" transform="scale(0.015625)"/>
      <path id="WenQuanYiZenHei-38" d="M 3619 1175 
Q 3619 431 2850 100 
Q 2444 -63 1944 -63 
Q 1231 -63 725 269 
Q 225 594 225 1125 
Q 225 1881 1269 2281 
Q 719 2481 519 2938 
Q 444 3119 444 3319 
Q 444 4000 1144 4294 
Q 1519 4456 1963 4456 
Q 2669 4456 3094 4094 
Q 3425 3813 3425 3369 
Q 3425 2638 2575 2356 
Q 3231 2056 3450 1725 
Q 3619 1488 3619 1175 
z
M 2944 3344 
Q 2944 3906 2288 4019 
Q 2138 4044 1969 4044 
Q 1438 4044 1163 3775 
Q 1000 3613 1000 3375 
Q 1000 2925 1594 2663 
Q 1756 2588 1931 2550 
Q 2581 2725 2788 2956 
Q 2944 3125 2944 3344 
z
M 3075 1094 
Q 3075 1738 1875 2050 
Q 1094 1881 850 1463 
Q 763 1313 763 1131 
Q 763 569 1456 406 
Q 1681 344 1944 344 
Q 2519 344 2850 619 
Q 3075 813 3075 1094 
z
" transform="scale(0.015625)"/>
     </defs>
     <use xlink:href="#WenQuanYiZenHei-41"/>
     <use xlink:href="#WenQuanYiZenHei-52" x="55.957031"/>
     <use xlink:href="#WenQuanYiZenHei-49" x="117.871094"/>
     <use xlink:href="#WenQuanYiZenHei-4d" x="143.847656"/>
     <use xlink:href="#WenQuanYiZenHei-41" x="225.78125"/>
     <use xlink:href="#WenQuanYiZenHei-20" x="281.738281"/>
     <use xlink:href="#WenQuanYiZenHei-28" x="311.71875"/>
     <use xlink:href="#WenQuanYiZenHei-34" x="341.699219"/>
     <use xlink:href="#WenQuanYiZenHei-2c" x="401.660156"/>
     <use xlink:href="#WenQuanYiZenHei-20" x="431.640625"/>
     <use xlink:href="#WenQuanYiZenHei-31" x="461.621094"/>
     <use xlink:href="#WenQuanYiZenHei-2c" x="521.582031"/>
     <use xlink:href="#WenQuanYiZenHei-20" x="551.5625"/>
     <use xlink:href="#WenQuanYiZenHei-30" x="581.542969"/>
     <use xlink:href="#WenQuanYiZenHei-29" x="641.503906"/>
     <use xlink:href="#WenQuanYiZenHei-78" x="671.484375"/>
     <use xlink:href="#WenQuanYiZenHei-28" x="715.429688"/>
     <use xlink:href="#WenQuanYiZenHei-30" x="745.410156"/>
     <use xlink:href="#WenQuanYiZenHei-2c" x="805.371094"/>
     <use xlink:href="#WenQuanYiZenHei-20" x="835.351562"/>
     <use xlink:href="#WenQuanYiZenHei-30" x="865.332031"/>
     <use xlink:href="#WenQuanYiZenHei-2c" x="925.292969"/>
     <use xlink:href="#WenQuanYiZenHei-20" x="955.273438"/>
     <use xlink:href="#WenQuanYiZenHei-30" x="985.253906"/>
     <use xlink:href="#WenQuanYiZenHei-2c" x="1045.214844"/>
     <use xlink:href="#WenQuanYiZenHei-20" x="1075.195312"/>
     <use xlink:href="#WenQuanYiZenHei-37" x="1105.175781"/>
     <use xlink:href="#WenQuanYiZenHei-29" x="1165.136719"/>
     <use xlink:href="#WenQuanYiZenHei-20" x="1195.117188"/>
     <use xlink:href="#WenQuanYiZenHei-28" x="1225.097656"/>
     <use xlink:href="#WenQuanYiZenHei-52" x="1255.078125"/>
     <use xlink:href="#WenQuanYiZenHei-32" x="1316.992188"/>
     <use xlink:href="#WenQuanYiZenHei-20" x="1376.953125"/>
     <use xlink:href="#WenQuanYiZenHei-3d" x="1406.933594"/>
     <use xlink:href="#WenQuanYiZenHei-20" x="1466.894531"/>
     <use xlink:href="#WenQuanYiZenHei-30" x="1496.875"/>
     <use xlink:href="#WenQuanYiZenHei-2e" x="1556.835938"/>
     <use xlink:href="#WenQuanYiZenHei-37" x="1586.816406"/>
     <use xlink:href="#WenQuanYiZenHei-31" x="1646.777344"/>
     <use xlink:href="#WenQuanYiZenHei-38" x="1706.738281"/>
     <use xlink:href="#WenQuanYiZenHei-39" x="1766.699219"/>
     <use xlink:href="#WenQuanYiZenHei-31" x="1826.660156"/>
     <use xlink:href="#WenQuanYiZenHei-30" x="1886.621094"/>
     <use xlink:href="#WenQuanYiZenHei-29" x="1946.582031"/>
    </g>
   </g>
   <g id="legend_1">
    <g id="patch_7">
     <path d="M 1308.3875 87.056312 
L 1370.3875 87.056312 
Q 1372.3875 87.056312 1372.3875 85.056312 
L 1372.3875 42.061 
Q 1372.3875 40.061 1370.3875 40.061 
L 1308.3875 40.061 
Q 1306.3875 40.061 1306.3875 42.061 
L 1306.3875 85.056312 
Q 1306.3875 87.056312 1308.3875 87.056312 
z
" style="fill: #ffffff; opacity: 0.8; stroke: #cccccc; stroke-linejoin: miter"/>
    </g>
    <g id="line2d_20">
     <path d="M 1310.3875 48.695375 
L 1320.3875 48.695375 
L 1330.3875 48.695375 
" style="fill: none; stroke: #0000ff; stroke-width: 1.5; stroke-linecap: square"/>
    </g>
    <g id="text_18">
     <!-- 实际值 -->
     <g transform="translate(1338.3875 52.195375)scale(0.1 -0.1)">
      <defs>
       <path id="WenQuanYiZenHei-5b9e" d="M 1025 1175 
Q 694 1175 356 1163 
Q 375 1344 356 1525 
Q 694 1506 1025 1506 
L 3363 1506 
L 3363 2625 
Q 3363 3075 3338 3519 
Q 3581 3494 3825 3519 
Q 3800 3075 3800 2625 
L 3800 1506 
L 5406 1506 
Q 5744 1506 6075 1525 
Q 6056 1344 6075 1163 
Q 5744 1175 5406 1175 
L 4038 1175 
L 4981 456 
L 6131 -488 
L 5819 -856 
L 4681 75 
L 3638 875 
Q 3313 231 2475 -231 
Q 1638 -694 700 -825 
Q 638 -519 344 -400 
Q 1450 -319 2406 244 
Q 3113 656 3300 1175 
L 1025 1175 
z
M 2263 1581 
Q 1763 2081 1200 2513 
L 1494 2894 
Q 2081 2444 2600 1919 
L 2263 1581 
z
M 2638 2500 
Q 2219 2963 1731 3363 
L 2044 3738 
Q 2556 3313 3000 2819 
L 2638 2500 
z
M 919 3156 
L 481 3156 
L 481 4344 
L 3069 4344 
Q 2794 4731 2469 5081 
L 2825 5413 
Q 3256 4944 3613 4413 
L 3513 4344 
L 5869 4344 
L 5869 3156 
L 5425 3156 
L 5425 4013 
L 919 4013 
L 919 3156 
z
" transform="scale(0.015625)"/>
       <path id="WenQuanYiZenHei-9645" d="M 6000 431 
L 5569 194 
L 4963 1219 
L 4313 2219 
L 4719 2494 
L 5375 1481 
L 6000 431 
z
M 2956 2450 
Q 3181 2344 3419 2294 
Q 3006 1038 1944 -188 
Q 1794 -6 1569 56 
Q 2069 600 2372 1156 
Q 2675 1713 2956 2450 
z
M 3750 25 
L 3750 2913 
L 2819 2913 
Q 2475 2913 2125 2894 
Q 2144 3081 2125 3269 
Q 2475 3256 2819 3256 
L 5469 3256 
Q 5819 3256 6163 3269 
Q 6144 3081 6163 2894 
Q 5813 2913 5469 2913 
L 4194 2913 
L 4194 -144 
Q 4194 -725 3456 -813 
L 3263 -825 
Q 3325 -506 3125 -250 
Q 3250 -281 3394 -306 
Q 3663 -313 3706 -272 
Q 3750 -231 3750 25 
z
M 5544 4950 
Q 5525 4756 5544 4569 
Q 5194 4588 4844 4588 
L 3325 4588 
Q 2975 4588 2625 4569 
Q 2644 4756 2625 4950 
Q 2975 4931 3325 4931 
L 4844 4931 
Q 5194 4931 5544 4950 
z
M 819 -850 
Q 581 -825 344 -850 
Q 369 -419 369 19 
L 363 4938 
L 2256 4938 
L 2256 4625 
Q 2150 4513 2075 4375 
L 1481 3238 
Q 2181 2319 2181 1156 
Q 2144 400 1569 163 
L 1406 88 
Q 1288 300 1138 481 
Q 1294 538 1450 606 
Q 1763 744 1794 1156 
Q 1794 1744 1600 2300 
Q 1406 2856 1038 3313 
L 1725 4625 
L 788 4625 
L 794 19 
Q 794 -419 819 -850 
z
" transform="scale(0.015625)"/>
       <path id="WenQuanYiZenHei-503c" d="M 6175 -219 
Q 6156 -388 6175 -556 
Q 5863 -544 5550 -544 
L 2313 -544 
Q 2000 -544 1688 -556 
Q 1706 -388 1688 -219 
L 2506 -231 
L 2506 3469 
L 3644 3469 
L 3644 4119 
L 2638 4119 
Q 2325 4119 2013 4100 
Q 2031 4269 2013 4438 
Q 2325 4425 2638 4425 
L 3638 4425 
Q 3638 4719 3619 5013 
Q 3856 4988 4094 5013 
Q 4075 4719 4075 4425 
L 5344 4425 
Q 5650 4425 5963 4438 
Q 5950 4269 5963 4100 
Q 5656 4119 5344 4119 
L 4069 4119 
L 4069 3469 
L 5300 3469 
L 5300 -231 
L 5550 -231 
Q 5863 -231 6175 -219 
z
M 4869 2556 
L 4869 3156 
L 2931 3156 
Q 2931 2850 2931 2556 
L 4869 2556 
z
M 4869 1669 
L 4869 2250 
L 2931 2250 
L 2931 1669 
L 4869 1669 
z
M 4869 731 
L 4869 1363 
L 2931 1363 
L 2931 731 
L 4869 731 
z
M 4869 -231 
L 4869 425 
L 2931 425 
L 2931 -231 
L 4869 -231 
z
M 2106 4925 
Q 1856 4075 1463 3338 
L 1463 31 
Q 1463 -413 1481 -850 
Q 1256 -825 1031 -850 
Q 1050 -413 1050 31 
L 1050 2681 
Q 750 2269 375 1931 
Q 238 2156 0 2256 
Q 331 2544 619 2875 
Q 1094 3425 1300 3950 
Q 1494 4469 1625 5050 
Q 1850 4963 2106 4925 
z
" transform="scale(0.015625)"/>
      </defs>
      <use xlink:href="#WenQuanYiZenHei-5b9e"/>
      <use xlink:href="#WenQuanYiZenHei-9645" x="100"/>
      <use xlink:href="#WenQuanYiZenHei-503c" x="200"/>
     </g>
    </g>
    <g id="line2d_21">
     <path d="M 1310.3875 63.3735 
L 1320.3875 63.3735 
L 1330.3875 63.3735 
" style="fill: none; stroke: #ffa500; stroke-width: 1.5; stroke-linecap: square"/>
    </g>
    <g id="text_19">
     <!-- 校验值 -->
     <g transform="translate(1338.3875 66.8735)scale(0.1 -0.1)">
      <defs>
       <path id="WenQuanYiZenHei-6821" d="M 5256 2463 
Q 5025 1475 4494 706 
Q 5125 -94 6175 -544 
Q 5950 -663 5850 -900 
Q 4906 -494 4250 381 
Q 3931 0 3475 -350 
Q 3019 -700 2388 -919 
Q 2338 -656 2138 -475 
Q 3306 -69 4006 738 
Q 3563 1444 3300 2331 
Q 3050 2050 2706 1800 
Q 2606 2000 2406 2106 
Q 2900 2444 3181 2938 
Q 3350 3225 3488 3538 
Q 3700 3431 3925 3369 
Q 3763 2894 3425 2475 
L 3650 2531 
Q 3888 1675 4244 1075 
Q 4469 1444 4603 1937 
Q 4738 2431 4775 2688 
Q 4963 2644 5150 2625 
Q 4919 2969 4663 3294 
L 5038 3588 
Q 5544 2925 5975 2213 
L 5569 1969 
L 5256 2463 
z
M 6006 4050 
Q 5988 3881 6006 3713 
Q 5694 3725 5381 3725 
L 3413 3725 
Q 3100 3725 2788 3713 
Q 2806 3881 2788 4050 
Q 3100 4031 3413 4031 
L 4325 4031 
Q 4019 4525 3644 4969 
L 4000 5275 
Q 4413 4788 4750 4244 
L 4406 4031 
L 5381 4031 
Q 5694 4031 6006 4050 
z
M 406 263 
Q 238 431 -25 469 
Q 194 825 466 1337 
Q 738 1850 925 2406 
Q 1113 2963 1256 3519 
L 825 3519 
Q 506 3519 188 3500 
Q 206 3700 188 3900 
Q 506 3881 825 3881 
L 1363 3881 
L 1363 4263 
Q 1363 4719 1338 5175 
Q 1556 5150 1775 5175 
Q 1756 4719 1756 4263 
L 1756 3881 
L 2525 3900 
Q 2506 3700 2525 3500 
L 1756 3519 
L 1756 2738 
L 1931 2881 
Q 2306 2300 2613 1650 
L 2231 1413 
Q 2081 1725 1919 2019 
L 1756 2300 
L 1756 69 
Q 1756 -388 1775 -850 
Q 1556 -825 1338 -850 
Q 1363 -388 1363 69 
L 1363 2438 
Q 925 1144 406 263 
z
" transform="scale(0.015625)"/>
       <path id="WenQuanYiZenHei-9a8c" d="M 5981 -106 
Q 5963 -275 5981 -444 
Q 5669 -431 5356 -431 
L 2969 -431 
Q 2656 -431 2350 -444 
Q 2363 -275 2350 -106 
Q 2656 -125 2969 -125 
L 4369 -125 
Q 4600 431 4881 1288 
L 5206 2300 
Q 5425 2206 5663 2163 
Q 5375 1188 4831 -125 
L 5356 -125 
Q 5669 -125 5981 -106 
z
M 4063 594 
Q 3788 1425 3425 2219 
L 3856 2419 
Q 4225 1600 4513 744 
L 4063 594 
z
M 3163 363 
Q 2931 1200 2613 2006 
L 3056 2175 
Q 3381 1350 3619 488 
L 3163 363 
z
M 4581 2550 
L 3513 2550 
Q 3200 2550 2888 2538 
Q 2900 2663 2894 2769 
Q 2569 2488 2206 2300 
Q 2113 2550 1894 2700 
Q 2488 2975 2975 3463 
Q 3269 3756 3394 4006 
Q 3644 4513 3794 5063 
Q 4038 4975 4294 4931 
Q 4250 4806 4206 4681 
Q 4475 3888 5025 3388 
Q 5519 2938 6169 2650 
Q 5938 2538 5838 2300 
Q 5513 2456 5200 2700 
Q 5200 2619 5206 2538 
Q 4894 2550 4581 2550 
z
M 3513 2863 
L 4994 2869 
Q 4344 3438 3988 4194 
Q 3594 3406 3013 2869 
Q 3263 2863 3513 2863 
z
M 206 444 
Q 188 756 44 963 
Q 319 956 650 1003 
Q 981 1050 1731 1281 
L 1738 1006 
Q 800 719 206 444 
z
M 525 4000 
Q 744 3950 994 3944 
Q 925 3519 875 3081 
L 763 2144 
L 1475 2144 
L 1831 4444 
L 663 4444 
Q 350 4444 38 4431 
Q 56 4600 38 4769 
Q 350 4756 663 4756 
L 2313 4756 
L 1913 2144 
L 2375 2144 
L 2200 -200 
Q 2188 -425 1988 -588 
Q 1694 -800 1181 -788 
L 944 -788 
Q 1000 -450 788 -269 
Q 1013 -294 1334 -287 
Q 1656 -281 1715 -243 
Q 1775 -206 1781 -50 
L 1925 1831 
L 294 1831 
L 444 3131 
Q 500 3569 525 4000 
z
" transform="scale(0.015625)"/>
      </defs>
      <use xlink:href="#WenQuanYiZenHei-6821"/>
      <use xlink:href="#WenQuanYiZenHei-9a8c" x="100"/>
      <use xlink:href="#WenQuanYiZenHei-503c" x="200"/>
     </g>
    </g>
    <g id="line2d_22">
     <path d="M 1310.3875 77.895375 
L 1320.3875 77.895375 
L 1330.3875 77.895375 
" style="fill: none; stroke: #ff0000; stroke-width: 1.5; stroke-linecap: square"/>
    </g>
    <g id="text_20">
     <!-- 预测值 -->
     <g transform="translate(1338.3875 81.395375)scale(0.1 -0.1)">
      <use xlink:href="#WenQuanYiZenHei-9884"/>
      <use xlink:href="#WenQuanYiZenHei-6d4b" x="100"/>
      <use xlink:href="#WenQuanYiZenHei-503c" x="200"/>
     </g>
    </g>
   </g>
  </g>
 </g>
 <defs>
  <clipPath id="paf3ac44e7f">
   <rect x="38.1875" y="35.061" width="1339.2" height="332.64"/>
  </clipPath>
 </defs>
</svg>
