<?xml version="1.0" encoding="utf-8" standalone="no"?>
<!DOCTYPE svg PUBLIC "-//W3C//DTD SVG 1.1//EN"
  "http://www.w3.org/Graphics/SVG/1.1/DTD/svg11.dtd">
<svg xmlns:xlink="http://www.w3.org/1999/xlink" width="1378.590625pt" height="390.418188pt" viewBox="0 0 1378.590625 390.418188" xmlns="http://www.w3.org/2000/svg" version="1.1">
 <metadata>
  <rdf:RDF xmlns:dc="http://purl.org/dc/elements/1.1/" xmlns:cc="http://creativecommons.org/ns#" xmlns:rdf="http://www.w3.org/1999/02/22-rdf-syntax-ns#">
   <cc:Work>
    <dc:type rdf:resource="http://purl.org/dc/dcmitype/StillImage"/>
    <dc:date>2023-01-05T18:17:23.916187</dc:date>
    <dc:format>image/svg+xml</dc:format>
    <dc:creator>
     <cc:Agent>
      <dc:title>Matplotlib v3.5.1, https://matplotlib.org/</dc:title>
     </cc:Agent>
    </dc:creator>
   </cc:Work>
  </rdf:RDF>
 </metadata>
 <defs>
  <style type="text/css">*{stroke-linejoin: round; stroke-linecap: butt}</style>
 </defs>
 <g id="figure_1">
  <g id="patch_1">
   <path d="M 0 390.418188 
L 1378.590625 390.418188 
L 1378.590625 -0 
L 0 -0 
z
" style="fill: #ffffff"/>
  </g>
  <g id="axes_1">
   <g id="patch_2">
    <path d="M 32.190625 367.701 
L 1371.390625 367.701 
L 1371.390625 35.061 
L 32.190625 35.061 
z
" style="fill: #ffffff"/>
   </g>
   <g id="matplotlib.axis_1">
    <g id="xtick_1">
     <g id="line2d_1">
      <defs>
       <path id="m1386d0c4e8" d="M 0 0 
L 0 3.5 
" style="stroke: #000000; stroke-width: 0.8"/>
      </defs>
      <g>
       <use xlink:href="#m1386d0c4e8" x="68.513398" y="367.701" style="stroke: #000000; stroke-width: 0.8"/>
      </g>
     </g>
     <g id="text_1">
      <!-- 2020-01 -->
      <g transform="translate(49.023554 381.55725)scale(0.1 -0.1)">
       <defs>
        <path id="WenQuanYiZenHei-32" d="M 3488 0 
L 369 0 
L 369 456 
L 2150 1850 
Q 2931 2463 2931 3144 
Q 2931 3619 2488 3863 
Q 2231 4013 1931 4013 
Q 1425 4013 1113 3619 
Q 894 3356 881 3013 
L 369 3169 
Q 531 3981 1213 4300 
Q 1544 4456 1950 4456 
Q 2631 4456 3088 4044 
L 3225 3888 
L 3350 3706 
Q 3481 3444 3481 3144 
Q 3481 2313 2519 1569 
L 1069 456 
L 3488 456 
L 3488 0 
z
" transform="scale(0.015625)"/>
        <path id="WenQuanYiZenHei-30" d="M 3581 2175 
Q 3581 1288 3169 638 
Q 2713 -63 1938 -63 
Q 1025 -63 563 831 
Q 256 1425 256 2188 
Q 256 3188 700 3819 
Q 1138 4456 1888 4456 
Q 2863 4456 3306 3500 
Q 3581 2925 3581 2175 
z
M 3019 2100 
Q 3019 3356 2500 3806 
L 2350 3919 
Q 2144 4031 1888 4031 
Q 1100 4031 888 2956 
Q 819 2625 819 2225 
Q 819 1013 1338 569 
Q 1588 356 1938 356 
Q 2675 356 2925 1294 
Q 3019 1663 3019 2100 
z
" transform="scale(0.015625)"/>
        <path id="WenQuanYiZenHei-2d" d="M 1363 1444 
L 0 1444 
L 0 1844 
L 1363 1844 
L 1363 1444 
z
" transform="scale(0.015625)"/>
        <path id="WenQuanYiZenHei-31" d="M 3556 0 
L 488 0 
L 488 406 
L 1800 406 
L 1800 3725 
Q 1231 3125 588 2788 
L 588 3338 
Q 1456 3781 1931 4388 
L 2331 4388 
L 2331 406 
L 3556 406 
L 3556 0 
z
" transform="scale(0.015625)"/>
       </defs>
       <use xlink:href="#WenQuanYiZenHei-32"/>
       <use xlink:href="#WenQuanYiZenHei-30" x="59.960938"/>
       <use xlink:href="#WenQuanYiZenHei-32" x="119.921875"/>
       <use xlink:href="#WenQuanYiZenHei-30" x="179.882812"/>
       <use xlink:href="#WenQuanYiZenHei-2d" x="239.84375"/>
       <use xlink:href="#WenQuanYiZenHei-30" x="269.824219"/>
       <use xlink:href="#WenQuanYiZenHei-31" x="329.785156"/>
      </g>
     </g>
    </g>
    <g id="xtick_2">
     <g id="line2d_2">
      <g>
       <use xlink:href="#m1386d0c4e8" x="203.538146" y="367.701" style="stroke: #000000; stroke-width: 0.8"/>
      </g>
     </g>
     <g id="text_2">
      <!-- 2020-05 -->
      <g transform="translate(184.048302 381.55725)scale(0.1 -0.1)">
       <defs>
        <path id="WenQuanYiZenHei-35" d="M 3531 1488 
Q 3531 688 2913 250 
Q 2456 -63 1844 -63 
Q 1175 -63 706 350 
Q 413 613 306 975 
L 781 1131 
Q 1000 538 1569 406 
Q 1706 369 1856 369 
Q 2550 369 2850 869 
Q 3000 1131 3000 1494 
Q 3000 2056 2581 2356 
Q 2319 2538 1969 2538 
Q 1400 2538 1031 2075 
Q 981 2013 938 1938 
L 500 2031 
L 644 4388 
L 3244 4388 
L 3200 3919 
L 1044 3919 
L 950 2500 
Q 1431 2975 2006 2975 
Q 2713 2975 3163 2475 
Q 3531 2063 3531 1488 
z
" transform="scale(0.015625)"/>
       </defs>
       <use xlink:href="#WenQuanYiZenHei-32"/>
       <use xlink:href="#WenQuanYiZenHei-30" x="59.960938"/>
       <use xlink:href="#WenQuanYiZenHei-32" x="119.921875"/>
       <use xlink:href="#WenQuanYiZenHei-30" x="179.882812"/>
       <use xlink:href="#WenQuanYiZenHei-2d" x="239.84375"/>
       <use xlink:href="#WenQuanYiZenHei-30" x="269.824219"/>
       <use xlink:href="#WenQuanYiZenHei-35" x="329.785156"/>
      </g>
     </g>
    </g>
    <g id="xtick_3">
     <g id="line2d_3">
      <g>
       <use xlink:href="#m1386d0c4e8" x="340.794708" y="367.701" style="stroke: #000000; stroke-width: 0.8"/>
      </g>
     </g>
     <g id="text_3">
      <!-- 2020-09 -->
      <g transform="translate(321.304864 381.55725)scale(0.1 -0.1)">
       <defs>
        <path id="WenQuanYiZenHei-39" d="M 3544 2300 
Q 3544 1163 3019 513 
Q 2563 -63 1775 -63 
Q 956 -63 563 488 
Q 463 631 394 813 
L 838 975 
Q 1025 494 1550 388 
Q 1656 369 1775 369 
Q 2594 369 2900 1325 
Q 3044 1769 3038 2313 
L 3025 2313 
Q 2675 1638 1944 1544 
Q 1844 1531 1744 1531 
Q 1050 1531 625 2031 
Q 294 2419 294 2963 
Q 294 3656 813 4094 
Q 1238 4456 1819 4456 
Q 2988 4456 3381 3363 
Q 3544 2900 3544 2300 
z
M 2925 2994 
Q 2925 3563 2469 3844 
Q 2206 4006 1863 4006 
Q 1275 4006 988 3563 
Q 844 3344 825 3056 
Q 819 3006 819 2956 
Q 819 2413 1269 2131 
Q 1538 1963 1875 1963 
Q 2363 1963 2681 2350 
Q 2925 2638 2925 2994 
z
" transform="scale(0.015625)"/>
       </defs>
       <use xlink:href="#WenQuanYiZenHei-32"/>
       <use xlink:href="#WenQuanYiZenHei-30" x="59.960938"/>
       <use xlink:href="#WenQuanYiZenHei-32" x="119.921875"/>
       <use xlink:href="#WenQuanYiZenHei-30" x="179.882812"/>
       <use xlink:href="#WenQuanYiZenHei-2d" x="239.84375"/>
       <use xlink:href="#WenQuanYiZenHei-30" x="269.824219"/>
       <use xlink:href="#WenQuanYiZenHei-39" x="329.785156"/>
      </g>
     </g>
    </g>
    <g id="xtick_4">
     <g id="line2d_4">
      <g>
       <use xlink:href="#m1386d0c4e8" x="476.935363" y="367.701" style="stroke: #000000; stroke-width: 0.8"/>
      </g>
     </g>
     <g id="text_4">
      <!-- 2021-01 -->
      <g transform="translate(457.445519 381.55725)scale(0.1 -0.1)">
       <use xlink:href="#WenQuanYiZenHei-32"/>
       <use xlink:href="#WenQuanYiZenHei-30" x="59.960938"/>
       <use xlink:href="#WenQuanYiZenHei-32" x="119.921875"/>
       <use xlink:href="#WenQuanYiZenHei-31" x="179.882812"/>
       <use xlink:href="#WenQuanYiZenHei-2d" x="239.84375"/>
       <use xlink:href="#WenQuanYiZenHei-30" x="269.824219"/>
       <use xlink:href="#WenQuanYiZenHei-31" x="329.785156"/>
      </g>
     </g>
    </g>
    <g id="xtick_5">
     <g id="line2d_5">
      <g>
       <use xlink:href="#m1386d0c4e8" x="610.844204" y="367.701" style="stroke: #000000; stroke-width: 0.8"/>
      </g>
     </g>
     <g id="text_5">
      <!-- 2021-05 -->
      <g transform="translate(591.35436 381.55725)scale(0.1 -0.1)">
       <use xlink:href="#WenQuanYiZenHei-32"/>
       <use xlink:href="#WenQuanYiZenHei-30" x="59.960938"/>
       <use xlink:href="#WenQuanYiZenHei-32" x="119.921875"/>
       <use xlink:href="#WenQuanYiZenHei-31" x="179.882812"/>
       <use xlink:href="#WenQuanYiZenHei-2d" x="239.84375"/>
       <use xlink:href="#WenQuanYiZenHei-30" x="269.824219"/>
       <use xlink:href="#WenQuanYiZenHei-35" x="329.785156"/>
      </g>
     </g>
    </g>
    <g id="xtick_6">
     <g id="line2d_6">
      <g>
       <use xlink:href="#m1386d0c4e8" x="748.100766" y="367.701" style="stroke: #000000; stroke-width: 0.8"/>
      </g>
     </g>
     <g id="text_6">
      <!-- 2021-09 -->
      <g transform="translate(728.610922 381.55725)scale(0.1 -0.1)">
       <use xlink:href="#WenQuanYiZenHei-32"/>
       <use xlink:href="#WenQuanYiZenHei-30" x="59.960938"/>
       <use xlink:href="#WenQuanYiZenHei-32" x="119.921875"/>
       <use xlink:href="#WenQuanYiZenHei-31" x="179.882812"/>
       <use xlink:href="#WenQuanYiZenHei-2d" x="239.84375"/>
       <use xlink:href="#WenQuanYiZenHei-30" x="269.824219"/>
       <use xlink:href="#WenQuanYiZenHei-39" x="329.785156"/>
      </g>
     </g>
    </g>
    <g id="xtick_7">
     <g id="line2d_7">
      <g>
       <use xlink:href="#m1386d0c4e8" x="884.241421" y="367.701" style="stroke: #000000; stroke-width: 0.8"/>
      </g>
     </g>
     <g id="text_7">
      <!-- 2022-01 -->
      <g transform="translate(864.751577 381.55725)scale(0.1 -0.1)">
       <use xlink:href="#WenQuanYiZenHei-32"/>
       <use xlink:href="#WenQuanYiZenHei-30" x="59.960938"/>
       <use xlink:href="#WenQuanYiZenHei-32" x="119.921875"/>
       <use xlink:href="#WenQuanYiZenHei-32" x="179.882812"/>
       <use xlink:href="#WenQuanYiZenHei-2d" x="239.84375"/>
       <use xlink:href="#WenQuanYiZenHei-30" x="269.824219"/>
       <use xlink:href="#WenQuanYiZenHei-31" x="329.785156"/>
      </g>
     </g>
    </g>
    <g id="xtick_8">
     <g id="line2d_8">
      <g>
       <use xlink:href="#m1386d0c4e8" x="1018.150262" y="367.701" style="stroke: #000000; stroke-width: 0.8"/>
      </g>
     </g>
     <g id="text_8">
      <!-- 2022-05 -->
      <g transform="translate(998.660418 381.55725)scale(0.1 -0.1)">
       <use xlink:href="#WenQuanYiZenHei-32"/>
       <use xlink:href="#WenQuanYiZenHei-30" x="59.960938"/>
       <use xlink:href="#WenQuanYiZenHei-32" x="119.921875"/>
       <use xlink:href="#WenQuanYiZenHei-32" x="179.882812"/>
       <use xlink:href="#WenQuanYiZenHei-2d" x="239.84375"/>
       <use xlink:href="#WenQuanYiZenHei-30" x="269.824219"/>
       <use xlink:href="#WenQuanYiZenHei-35" x="329.785156"/>
      </g>
     </g>
    </g>
    <g id="xtick_9">
     <g id="line2d_9">
      <g>
       <use xlink:href="#m1386d0c4e8" x="1155.406824" y="367.701" style="stroke: #000000; stroke-width: 0.8"/>
      </g>
     </g>
     <g id="text_9">
      <!-- 2022-09 -->
      <g transform="translate(1135.91698 381.55725)scale(0.1 -0.1)">
       <use xlink:href="#WenQuanYiZenHei-32"/>
       <use xlink:href="#WenQuanYiZenHei-30" x="59.960938"/>
       <use xlink:href="#WenQuanYiZenHei-32" x="119.921875"/>
       <use xlink:href="#WenQuanYiZenHei-32" x="179.882812"/>
       <use xlink:href="#WenQuanYiZenHei-2d" x="239.84375"/>
       <use xlink:href="#WenQuanYiZenHei-30" x="269.824219"/>
       <use xlink:href="#WenQuanYiZenHei-39" x="329.785156"/>
      </g>
     </g>
    </g>
    <g id="xtick_10">
     <g id="line2d_10">
      <g>
       <use xlink:href="#m1386d0c4e8" x="1291.547479" y="367.701" style="stroke: #000000; stroke-width: 0.8"/>
      </g>
     </g>
     <g id="text_10">
      <!-- 2023-01 -->
      <g transform="translate(1272.057635 381.55725)scale(0.1 -0.1)">
       <defs>
        <path id="WenQuanYiZenHei-33" d="M 3588 1231 
Q 3588 494 2875 144 
Q 2450 -63 1925 -63 
Q 1044 -63 556 488 
Q 356 706 256 1000 
L 769 1169 
Q 994 375 1913 375 
Q 2631 375 2900 788 
Q 3019 975 3019 1231 
Q 3019 1638 2638 1881 
Q 2325 2081 1613 2069 
L 1338 2069 
L 1338 2494 
Q 1969 2494 2094 2506 
Q 2325 2544 2463 2613 
Q 2763 2756 2844 3100 
Q 2863 3169 2863 3244 
Q 2863 3744 2381 3944 
L 2163 4006 
Q 2056 4025 1931 4025 
Q 1388 4025 1075 3631 
Q 969 3488 906 3313 
L 419 3456 
Q 675 4150 1400 4369 
Q 1669 4456 1975 4456 
Q 2694 4456 3106 4050 
Q 3419 3744 3419 3275 
Q 3419 2813 3025 2513 
Q 2825 2356 2575 2319 
L 2575 2306 
Q 3181 2213 3450 1769 
Q 3588 1525 3588 1231 
z
" transform="scale(0.015625)"/>
       </defs>
       <use xlink:href="#WenQuanYiZenHei-32"/>
       <use xlink:href="#WenQuanYiZenHei-30" x="59.960938"/>
       <use xlink:href="#WenQuanYiZenHei-32" x="119.921875"/>
       <use xlink:href="#WenQuanYiZenHei-33" x="179.882812"/>
       <use xlink:href="#WenQuanYiZenHei-2d" x="239.84375"/>
       <use xlink:href="#WenQuanYiZenHei-30" x="269.824219"/>
       <use xlink:href="#WenQuanYiZenHei-31" x="329.785156"/>
      </g>
     </g>
    </g>
   </g>
   <g id="matplotlib.axis_2">
    <g id="ytick_1">
     <g id="line2d_11">
      <defs>
       <path id="m505d57636d" d="M 0 0 
L -3.5 0 
" style="stroke: #000000; stroke-width: 0.8"/>
      </defs>
      <g>
       <use xlink:href="#m505d57636d" x="32.190625" y="345.285489" style="stroke: #000000; stroke-width: 0.8"/>
      </g>
     </g>
     <g id="text_11">
      <!-- 0 -->
      <g transform="translate(19.19375 348.713614)scale(0.1 -0.1)">
       <use xlink:href="#WenQuanYiZenHei-30"/>
      </g>
     </g>
    </g>
    <g id="ytick_2">
     <g id="line2d_12">
      <g>
       <use xlink:href="#m505d57636d" x="32.190625" y="287.647894" style="stroke: #000000; stroke-width: 0.8"/>
      </g>
     </g>
     <g id="text_12">
      <!-- 50 -->
      <g transform="translate(13.196875 291.076019)scale(0.1 -0.1)">
       <use xlink:href="#WenQuanYiZenHei-35"/>
       <use xlink:href="#WenQuanYiZenHei-30" x="59.960938"/>
      </g>
     </g>
    </g>
    <g id="ytick_3">
     <g id="line2d_13">
      <g>
       <use xlink:href="#m505d57636d" x="32.190625" y="230.010298" style="stroke: #000000; stroke-width: 0.8"/>
      </g>
     </g>
     <g id="text_13">
      <!-- 100 -->
      <g transform="translate(7.2 233.438423)scale(0.1 -0.1)">
       <use xlink:href="#WenQuanYiZenHei-31"/>
       <use xlink:href="#WenQuanYiZenHei-30" x="59.960938"/>
       <use xlink:href="#WenQuanYiZenHei-30" x="119.921875"/>
      </g>
     </g>
    </g>
    <g id="ytick_4">
     <g id="line2d_14">
      <g>
       <use xlink:href="#m505d57636d" x="32.190625" y="172.372703" style="stroke: #000000; stroke-width: 0.8"/>
      </g>
     </g>
     <g id="text_14">
      <!-- 150 -->
      <g transform="translate(7.2 175.800828)scale(0.1 -0.1)">
       <use xlink:href="#WenQuanYiZenHei-31"/>
       <use xlink:href="#WenQuanYiZenHei-35" x="59.960938"/>
       <use xlink:href="#WenQuanYiZenHei-30" x="119.921875"/>
      </g>
     </g>
    </g>
    <g id="ytick_5">
     <g id="line2d_15">
      <g>
       <use xlink:href="#m505d57636d" x="32.190625" y="114.735107" style="stroke: #000000; stroke-width: 0.8"/>
      </g>
     </g>
     <g id="text_15">
      <!-- 200 -->
      <g transform="translate(7.2 118.163232)scale(0.1 -0.1)">
       <use xlink:href="#WenQuanYiZenHei-32"/>
       <use xlink:href="#WenQuanYiZenHei-30" x="59.960938"/>
       <use xlink:href="#WenQuanYiZenHei-30" x="119.921875"/>
      </g>
     </g>
    </g>
    <g id="ytick_6">
     <g id="line2d_16">
      <g>
       <use xlink:href="#m505d57636d" x="32.190625" y="57.097511" style="stroke: #000000; stroke-width: 0.8"/>
      </g>
     </g>
     <g id="text_16">
      <!-- 250 -->
      <g transform="translate(7.2 60.525636)scale(0.1 -0.1)">
       <use xlink:href="#WenQuanYiZenHei-32"/>
       <use xlink:href="#WenQuanYiZenHei-35" x="59.960938"/>
       <use xlink:href="#WenQuanYiZenHei-30" x="119.921875"/>
      </g>
     </g>
    </g>
   </g>
   <g id="line2d_17">
    <path d="M 93.063352 345.285489 
L 94.179259 344.132737 
L 95.295166 338.368978 
L 96.411073 345.285489 
L 97.52698 340.674482 
L 98.642887 340.674482 
L 99.758794 344.132737 
L 100.874701 341.827233 
L 101.990608 344.132737 
L 103.106515 341.827233 
L 104.222422 340.674482 
L 105.338329 337.216226 
L 106.454236 344.132737 
L 107.570143 337.216226 
L 108.68605 340.674482 
L 109.801957 340.674482 
L 110.917864 342.979985 
L 112.033771 342.979985 
L 113.149678 340.674482 
L 114.265585 345.285489 
L 115.381492 342.979985 
L 116.497399 344.132737 
L 117.613306 340.674482 
L 119.84512 342.979985 
L 120.961027 342.979985 
L 122.076934 344.132737 
L 123.192841 342.979985 
L 124.308748 345.285489 
L 161.13368 345.285489 
L 162.249587 342.979985 
L 163.365494 331.452466 
L 164.481401 341.827233 
L 166.713215 344.132737 
L 167.829122 342.979985 
L 168.945029 333.75797 
L 170.060936 340.674482 
L 171.176843 338.368978 
L 172.29275 345.285489 
L 174.524564 345.285489 
L 175.640471 344.132737 
L 176.756378 341.827233 
L 177.872285 341.827233 
L 178.988192 342.979985 
L 180.104099 342.979985 
L 181.220006 314.161188 
L 182.335913 306.091924 
L 183.45182 344.132737 
L 184.567727 345.285489 
L 185.683634 345.285489 
L 186.799541 341.827233 
L 187.915448 345.285489 
L 190.147262 345.285489 
L 191.263169 344.132737 
L 192.379076 345.285489 
L 194.61089 345.285489 
L 195.726797 341.827233 
L 196.842704 344.132737 
L 197.958611 345.285489 
L 199.074518 344.132737 
L 200.190425 345.285489 
L 201.306332 344.132737 
L 202.422239 344.132737 
L 203.538146 345.285489 
L 212.465402 345.285489 
L 213.581309 337.216226 
L 214.697216 344.132737 
L 215.813123 345.285489 
L 220.276751 345.285489 
L 221.392658 340.674482 
L 222.508565 341.827233 
L 223.624472 345.285489 
L 225.856286 345.285489 
L 226.972193 344.132737 
L 228.0881 345.285489 
L 229.204007 333.75797 
L 231.435821 345.285489 
L 235.899449 345.285489 
L 237.015356 341.827233 
L 238.131263 345.285489 
L 245.942612 345.285489 
L 247.058519 342.979985 
L 248.174426 345.285489 
L 252.638054 345.285489 
L 253.753961 344.132737 
L 254.869868 345.285489 
L 274.956195 345.285489 
L 276.072102 344.132737 
L 277.188009 344.132737 
L 278.303916 340.674482 
L 279.419823 345.285489 
L 281.651637 345.285489 
L 282.767544 344.132737 
L 283.883451 340.674482 
L 284.999358 345.285489 
L 293.926614 345.285489 
L 295.042521 344.132737 
L 296.158428 345.285489 
L 297.274335 344.132737 
L 298.390242 339.52173 
L 299.506149 342.979985 
L 300.622056 345.285489 
L 316.244754 345.285489 
L 317.360661 344.132737 
L 318.476568 345.285489 
L 319.592475 345.285489 
L 320.708382 344.132737 
L 321.824289 345.285489 
L 338.562894 345.285489 
L 339.678801 344.132737 
L 340.794708 345.285489 
L 360.881034 345.285489 
L 361.996941 342.979985 
L 363.112848 345.285489 
L 368.692383 345.285489 
L 369.80829 341.827233 
L 370.924197 345.285489 
L 376.503732 345.285489 
L 377.619639 342.979985 
L 378.735546 345.285489 
L 384.315081 345.285489 
L 385.430988 344.132737 
L 386.546895 344.132737 
L 387.662802 345.285489 
L 388.778709 345.285489 
L 389.894616 339.52173 
L 391.010523 345.285489 
L 399.937779 345.285489 
L 401.053686 342.979985 
L 402.169593 344.132737 
L 403.2855 344.132737 
L 404.401407 336.063474 
L 405.517314 345.285489 
L 406.633221 344.132737 
L 407.749128 341.827233 
L 408.865035 345.285489 
L 409.980942 340.674482 
L 411.096849 342.979985 
L 412.212756 344.132737 
L 414.444571 341.827233 
L 415.560478 345.285489 
L 416.676385 342.979985 
L 417.792292 345.285489 
L 418.908199 345.285489 
L 420.024106 344.132737 
L 421.140013 344.132737 
L 422.25592 345.285489 
L 426.719548 345.285489 
L 427.835455 344.132737 
L 428.951362 345.285489 
L 430.067269 345.285489 
L 431.183176 342.979985 
L 432.299083 345.285489 
L 433.41499 344.132737 
L 434.530897 345.285489 
L 435.646804 334.910722 
L 436.762711 345.285489 
L 438.994525 345.285489 
L 440.110432 341.827233 
L 441.226339 340.674482 
L 442.342246 342.979985 
L 443.458153 344.132737 
L 444.57406 341.827233 
L 445.689967 345.285489 
L 446.805874 345.285489 
L 447.921781 341.827233 
L 449.037688 345.285489 
L 450.153595 345.285489 
L 451.269502 344.132737 
L 452.385409 345.285489 
L 454.617223 345.285489 
L 455.73313 344.132737 
L 456.849037 340.674482 
L 457.964944 345.285489 
L 461.312665 345.285489 
L 462.428572 342.979985 
L 463.544479 338.368978 
L 464.660386 342.979985 
L 465.776293 345.285489 
L 470.239921 345.285489 
L 471.355828 338.368978 
L 472.471735 344.132737 
L 474.703549 341.827233 
L 475.819456 345.285489 
L 476.935363 345.285489 
L 478.05127 344.132737 
L 479.167177 344.132737 
L 480.283084 345.285489 
L 523.803457 345.285489 
L 524.919364 344.132737 
L 526.035271 345.285489 
L 548.353411 345.285489 
L 549.469318 344.132737 
L 550.585225 345.285489 
L 555.048853 345.285489 
L 556.16476 344.132737 
L 557.280667 345.285489 
L 562.860203 345.285489 
L 563.97611 344.132737 
L 565.092017 345.285489 
L 566.207924 345.285489 
L 567.323831 344.132737 
L 568.439738 345.285489 
L 570.671552 345.285489 
L 571.787459 341.827233 
L 572.903366 345.285489 
L 575.13518 345.285489 
L 576.251087 344.132737 
L 577.366994 345.285489 
L 579.598808 345.285489 
L 580.714715 344.132737 
L 581.830622 345.285489 
L 582.946529 345.285489 
L 584.062436 344.132737 
L 585.178343 345.285489 
L 592.989692 345.285489 
L 594.105599 344.132737 
L 595.221506 344.132737 
L 596.337413 345.285489 
L 604.148762 345.285489 
L 605.264669 344.132737 
L 606.380576 345.285489 
L 610.844204 345.285489 
L 611.960111 344.132737 
L 613.076018 345.285489 
L 614.191925 344.132737 
L 615.307832 345.285489 
L 622.003274 345.285489 
L 623.119181 344.132737 
L 624.235088 345.285489 
L 625.350995 345.285489 
L 626.466902 344.132737 
L 627.582809 345.285489 
L 634.278251 345.285489 
L 635.394158 344.132737 
L 636.510065 345.285489 
L 637.625972 345.285489 
L 638.741879 344.132737 
L 639.857786 345.285489 
L 640.973693 345.285489 
L 642.0896 344.132737 
L 643.205507 345.285489 
L 646.553228 345.285489 
L 647.669135 344.132737 
L 648.785042 345.285489 
L 651.016856 345.285489 
L 652.132763 342.979985 
L 653.24867 345.285489 
L 657.712298 345.285489 
L 658.828205 341.827233 
L 659.944112 345.285489 
L 666.639554 345.285489 
L 667.755461 344.132737 
L 668.871368 345.285489 
L 688.957694 345.285489 
L 690.073601 341.827233 
L 691.189508 345.285489 
L 695.653136 345.285489 
L 696.769043 344.132737 
L 697.88495 344.132737 
L 699.000857 345.285489 
L 703.464486 345.285489 
L 704.580393 342.979985 
L 705.6963 342.979985 
L 706.812207 345.285489 
L 711.275835 345.285489 
L 712.391742 342.979985 
L 713.507649 341.827233 
L 714.623556 345.285489 
L 716.85537 345.285489 
L 717.971277 344.132737 
L 719.087184 345.285489 
L 720.203091 345.285489 
L 721.318998 344.132737 
L 722.434905 345.285489 
L 731.362161 345.285489 
L 732.478068 344.132737 
L 733.593975 345.285489 
L 734.709882 344.132737 
L 735.825789 345.285489 
L 750.33258 345.285489 
L 751.448487 342.979985 
L 752.564394 345.285489 
L 758.143929 345.285489 
L 759.259836 342.979985 
L 760.375743 345.285489 
L 773.766627 345.285489 
L 774.882534 342.979985 
L 775.998441 345.285489 
L 779.346162 345.285489 
L 780.462069 344.132737 
L 781.577976 345.285489 
L 782.693883 345.285489 
L 783.80979 344.132737 
L 784.925697 345.285489 
L 790.505232 345.285489 
L 791.621139 344.132737 
L 792.737046 345.285489 
L 793.852953 345.285489 
L 794.96886 344.132737 
L 796.084767 345.285489 
L 797.200674 345.285489 
L 798.316581 344.132737 
L 799.432488 345.285489 
L 800.548395 342.979985 
L 801.664302 336.063474 
L 802.780209 342.979985 
L 803.896116 326.841459 
L 805.012023 338.368978 
L 806.12793 337.216226 
L 807.243837 323.383203 
L 808.359744 326.841459 
L 809.475651 308.397428 
L 810.591558 337.216226 
L 811.707465 322.230451 
L 812.823372 321.077699 
L 813.939279 331.452466 
L 816.171093 342.979985 
L 817.287 338.368978 
L 818.402907 342.979985 
L 819.518814 342.979985 
L 821.750628 345.285489 
L 822.866535 342.979985 
L 823.982442 345.285489 
L 826.214256 345.285489 
L 827.330163 344.132737 
L 828.44607 340.674482 
L 829.561977 345.285489 
L 845.184675 345.285489 
L 846.300583 322.230451 
L 847.41649 321.077699 
L 848.532397 240.385065 
L 849.648304 284.189638 
L 850.764211 280.731382 
L 851.880118 274.967623 
L 852.996025 310.702932 
L 854.111932 313.008436 
L 855.227839 281.884134 
L 856.343746 306.091924 
L 857.459653 296.869909 
L 858.57556 317.619443 
L 859.691467 327.994211 
L 861.923281 339.52173 
L 863.039188 339.52173 
L 864.155095 341.827233 
L 865.271002 342.979985 
L 866.386909 340.674482 
L 867.502816 344.132737 
L 868.618723 345.285489 
L 869.73463 337.216226 
L 870.850537 345.285489 
L 873.082351 345.285489 
L 874.198258 344.132737 
L 875.314165 345.285489 
L 885.357328 345.285489 
L 886.473235 339.52173 
L 887.589142 345.285489 
L 933.341329 345.285489 
L 934.457236 337.216226 
L 935.573143 341.827233 
L 936.68905 319.924947 
L 937.804957 292.258901 
L 938.920864 270.356615 
L 940.036771 308.397428 
L 941.152678 322.230451 
L 942.268585 291.106149 
L 943.384492 299.175413 
L 944.500399 310.702932 
L 945.616306 308.397428 
L 946.732213 301.480917 
L 947.84812 332.605218 
L 948.964027 329.146962 
L 950.079934 326.841459 
L 951.195841 337.216226 
L 952.311748 334.910722 
L 953.427655 336.063474 
L 954.543562 334.910722 
L 955.659469 337.216226 
L 956.775376 342.979985 
L 957.891283 341.827233 
L 959.00719 341.827233 
L 961.239004 344.132737 
L 962.354911 344.132737 
L 963.470818 345.285489 
L 966.818539 345.285489 
L 967.934446 337.216226 
L 969.050353 345.285489 
L 970.16626 345.285489 
L 971.282167 342.979985 
L 972.398074 342.979985 
L 973.513981 345.285489 
L 975.745795 345.285489 
L 976.861702 340.674482 
L 977.977609 345.285489 
L 980.209423 345.285489 
L 981.32533 344.132737 
L 982.441237 344.132737 
L 983.557144 345.285489 
L 986.904865 345.285489 
L 988.020772 344.132737 
L 989.136679 345.285489 
L 991.368494 342.979985 
L 992.484401 345.285489 
L 994.716215 345.285489 
L 995.832122 344.132737 
L 996.948029 345.285489 
L 998.063936 345.285489 
L 999.179843 342.979985 
L 1001.411657 345.285489 
L 1002.527564 344.132737 
L 1003.643471 344.132737 
L 1004.759378 345.285489 
L 1005.875285 344.132737 
L 1006.991192 345.285489 
L 1008.107099 338.368978 
L 1009.223006 338.368978 
L 1010.338913 333.75797 
L 1011.45482 337.216226 
L 1012.570727 337.216226 
L 1013.686634 334.910722 
L 1014.802541 341.827233 
L 1015.918448 338.368978 
L 1017.034355 342.979985 
L 1018.150262 344.132737 
L 1019.266169 344.132737 
L 1020.382076 345.285489 
L 1023.729797 345.285489 
L 1024.845704 344.132737 
L 1025.961611 345.285489 
L 1052.743379 345.285489 
L 1053.859286 341.827233 
L 1054.975193 332.605218 
L 1056.0911 345.285489 
L 1057.207007 314.161188 
L 1058.322914 322.230451 
L 1059.438821 304.939172 
L 1060.554728 302.633668 
L 1061.670635 327.994211 
L 1062.786542 323.383203 
L 1063.902449 255.37084 
L 1065.018356 314.161188 
L 1066.134263 327.994211 
L 1068.366077 330.299714 
L 1069.481984 338.368978 
L 1070.597891 339.52173 
L 1071.713798 344.132737 
L 1072.829705 345.285489 
L 1073.945612 345.285489 
L 1075.061519 342.979985 
L 1076.177426 344.132737 
L 1077.293333 327.994211 
L 1078.40924 345.285489 
L 1085.104682 345.285489 
L 1087.336496 342.979985 
L 1089.56831 342.979985 
L 1090.684217 345.285489 
L 1091.800124 340.674482 
L 1092.916031 340.674482 
L 1094.031938 331.452466 
L 1095.147845 334.910722 
L 1096.263752 341.827233 
L 1097.379659 342.979985 
L 1098.495566 338.368978 
L 1099.611473 344.132737 
L 1100.72738 340.674482 
L 1101.843287 341.827233 
L 1102.959194 345.285489 
L 1104.075101 341.827233 
L 1105.191008 342.979985 
L 1106.306915 345.285489 
L 1107.422822 338.368978 
L 1108.538729 342.979985 
L 1110.770543 345.285489 
L 1118.581892 345.285489 
L 1119.697799 344.132737 
L 1120.813706 337.216226 
L 1121.929613 336.063474 
L 1123.04552 331.452466 
L 1124.161427 336.063474 
L 1125.277334 319.924947 
L 1126.393241 331.452466 
L 1127.509148 331.452466 
L 1128.625055 326.841459 
L 1129.740962 314.161188 
L 1130.856869 337.216226 
L 1131.972776 334.910722 
L 1133.088683 339.52173 
L 1134.204591 336.063474 
L 1135.320498 340.674482 
L 1137.552312 345.285489 
L 1138.668219 339.52173 
L 1139.784126 340.674482 
L 1140.900033 344.132737 
L 1142.01594 340.674482 
L 1145.363661 344.132737 
L 1146.479568 341.827233 
L 1147.595475 340.674482 
L 1148.711382 336.063474 
L 1149.827289 338.368978 
L 1150.943196 345.285489 
L 1152.059103 336.063474 
L 1153.17501 337.216226 
L 1154.290917 329.146962 
L 1155.406824 342.979985 
L 1156.522731 340.674482 
L 1157.638638 329.146962 
L 1158.754545 329.146962 
L 1159.870452 300.328165 
L 1160.986359 278.425878 
L 1162.102266 266.898359 
L 1163.218173 296.869909 
L 1166.565894 327.994211 
L 1167.681801 336.063474 
L 1168.797708 337.216226 
L 1169.913615 337.216226 
L 1171.029522 340.674482 
L 1173.261336 338.368978 
L 1174.377243 342.979985 
L 1175.49315 342.979985 
L 1176.609057 345.285489 
L 1177.724964 339.52173 
L 1178.840871 345.285489 
L 1179.956778 340.674482 
L 1181.072685 338.368978 
L 1182.188592 344.132737 
L 1183.304499 342.979985 
L 1184.420406 345.285489 
L 1185.536313 342.979985 
L 1186.65222 344.132737 
L 1187.768127 323.383203 
L 1188.884034 314.161188 
L 1189.999941 244.996073 
L 1191.115848 168.914447 
L 1192.231755 270.356615 
L 1193.347662 315.31394 
L 1194.463569 327.994211 
L 1195.579476 50.181 
L 1196.695383 103.207588 
L 1197.81129 203.497004 
L 1198.927197 175.830958 
L 1200.043104 289.953397 
L 1201.159011 281.884134 
L 1202.274918 280.731382 
L 1203.390825 288.800646 
L 1204.506732 330.299714 
L 1206.738546 323.383203 
L 1207.854453 315.31394 
L 1208.97036 310.702932 
L 1210.086267 314.161188 
L 1211.202174 306.091924 
L 1212.318081 309.55018 
L 1213.433988 308.397428 
L 1214.549895 319.924947 
L 1215.665802 304.939172 
L 1216.781709 309.55018 
L 1217.897616 301.480917 
L 1219.013523 345.285489 
L 1220.12943 318.772195 
L 1221.245337 321.077699 
L 1222.361244 317.619443 
L 1223.477151 327.994211 
L 1224.593058 92.832821 
L 1225.708965 69.777782 
L 1226.824872 255.37084 
L 1227.940779 294.564405 
L 1229.056686 277.273126 
L 1230.172593 161.997935 
L 1232.404407 219.635531 
L 1233.520314 230.010298 
L 1234.636221 241.537817 
L 1235.752128 213.871771 
L 1236.868035 251.912584 
L 1237.983942 248.454329 
L 1239.099849 249.607081 
L 1240.215756 220.788283 
L 1241.331663 216.177275 
L 1242.44757 210.413516 
L 1243.563477 231.16305 
L 1244.679384 239.232313 
L 1245.795291 255.37084 
L 1246.911198 202.344252 
L 1248.027105 243.843321 
L 1249.143012 239.232313 
L 1250.258919 215.024523 
L 1251.374826 223.093787 
L 1252.490733 204.649756 
L 1253.60664 240.385065 
L 1254.722547 221.941035 
L 1255.838454 256.523592 
L 1256.954361 345.285489 
L 1258.070268 180.441966 
L 1259.186175 281.884134 
L 1260.302082 269.203863 
L 1261.417989 293.411653 
L 1262.533896 345.285489 
L 1263.649803 256.523592 
L 1264.76571 285.34239 
L 1265.881617 265.745607 
L 1266.997524 318.772195 
L 1268.113431 321.077699 
L 1269.229338 337.216226 
L 1270.345245 327.994211 
L 1271.461152 345.285489 
L 1273.692966 345.285489 
L 1274.808873 251.912584 
L 1275.92478 325.688707 
L 1277.040687 286.495142 
L 1278.156595 345.285489 
L 1279.272502 336.063474 
L 1280.388409 345.285489 
L 1294.8952 345.285489 
L 1294.8952 345.285489 
" clip-path="url(#p2d09b771ce)" style="fill: none; stroke: #0000ff; stroke-width: 1.5; stroke-linecap: square"/>
   </g>
   <g id="line2d_18">
    <path d="M 1054.975193 343.09503 
L 1056.0911 337.259329 
L 1057.207007 345.076029 
L 1058.322914 324.264059 
L 1059.438821 328.169365 
L 1060.554728 314.968223 
L 1061.670635 313.935616 
L 1062.786542 320.265542 
L 1063.902449 321.495075 
L 1065.018356 272.291527 
L 1066.134263 315.791635 
L 1067.25017 324.140574 
L 1068.366077 316.14006 
L 1069.481984 310.496421 
L 1070.597891 339.456102 
L 1071.713798 333.262878 
L 1072.829705 340.604521 
L 1073.945612 340.974236 
L 1075.061519 344.165943 
L 1076.177426 342.369858 
L 1077.293333 344.900484 
L 1078.40924 334.017137 
L 1079.525147 345.006028 
L 1080.641054 343.37171 
L 1081.756961 342.968964 
L 1082.872868 340.992548 
L 1083.988775 347.356773 
L 1085.104682 344.286123 
L 1086.220589 345.767669 
L 1087.336496 344.322691 
L 1088.452403 343.939272 
L 1090.684217 343.546851 
L 1091.800124 344.527496 
L 1092.916031 341.473921 
L 1094.031938 341.696806 
L 1095.147845 335.8292 
L 1097.379659 340.336967 
L 1098.495566 340.734097 
L 1099.611473 336.11659 
L 1100.72738 342.902935 
L 1101.843287 341.243859 
L 1102.959194 341.694494 
L 1104.075101 343.30782 
L 1106.306915 342.005678 
L 1107.422822 344.857881 
L 1108.538729 340.38368 
L 1109.654636 342.621535 
L 1110.770543 343.964244 
L 1111.88645 344.269482 
L 1113.002357 343.15187 
L 1114.118264 345.401567 
L 1115.234171 344.868774 
L 1116.350078 345.486548 
L 1117.465985 345.188481 
L 1118.581892 345.332294 
L 1119.697799 345.262906 
L 1120.813706 344.566232 
L 1121.929613 340.171001 
L 1123.04552 339.383118 
L 1124.161427 335.846154 
L 1125.277334 337.483446 
L 1126.393241 325.214187 
L 1127.509148 332.703445 
L 1128.625055 330.859835 
L 1129.740962 328.341166 
L 1130.856869 316.99245 
L 1131.972776 336.520545 
L 1133.088683 331.046849 
L 1134.204591 333.866979 
L 1135.320498 331.437389 
L 1136.436405 341.611921 
L 1137.552312 339.384262 
L 1138.668219 343.790009 
L 1139.784126 338.55145 
L 1140.900033 342.034993 
L 1142.01594 343.622031 
L 1143.131847 341.554561 
L 1144.247754 340.84635 
L 1145.363661 342.978149 
L 1146.479568 343.612158 
L 1147.595475 341.381901 
L 1148.711382 341.65526 
L 1149.827289 338.653596 
L 1150.943196 340.061508 
L 1152.059103 343.247926 
L 1153.17501 336.994856 
L 1154.290917 337.333608 
L 1155.406824 333.677165 
L 1156.522731 342.454424 
L 1157.638638 337.741071 
L 1158.754545 331.938061 
L 1159.870452 330.860482 
L 1160.986359 316.314348 
L 1162.102266 298.057686 
L 1163.218173 287.407066 
L 1164.33408 301.788718 
L 1165.449987 297.111252 
L 1166.565894 302.288312 
L 1167.681801 311.580514 
L 1168.797708 327.149348 
L 1169.913615 328.47593 
L 1171.029522 333.689997 
L 1172.145429 338.030426 
L 1173.261336 338.974325 
L 1174.377243 338.026065 
L 1175.49315 341.553907 
L 1176.609057 342.068059 
L 1177.724964 343.030373 
L 1178.840871 340.023274 
L 1179.956778 344.966889 
L 1181.072685 341.418762 
L 1182.188592 340.408694 
L 1183.304499 342.69936 
L 1184.420406 343.500622 
L 1185.536313 342.775574 
L 1186.65222 342.528616 
L 1187.768127 344.439994 
L 1188.884034 330.597287 
L 1189.999941 325.540133 
L 1191.115848 279.475596 
L 1192.231755 228.784361 
L 1193.347662 281.796801 
L 1194.463569 296.136838 
L 1195.579476 283.266285 
L 1196.695383 113.400265 
L 1197.81129 184.548289 
L 1198.927197 227.803593 
L 1200.043104 181.08902 
L 1201.159011 195.985732 
L 1202.274918 249.856983 
L 1203.390825 254.949197 
L 1204.506732 267.068749 
L 1205.622639 324.250747 
L 1206.738546 304.899748 
L 1207.854453 314.702052 
L 1208.97036 313.018127 
L 1210.086267 320.639483 
L 1211.202174 315.563206 
L 1212.318081 311.224227 
L 1213.433988 309.989358 
L 1214.549895 309.509572 
L 1215.665802 316.657702 
L 1216.781709 305.196503 
L 1217.897616 310.738185 
L 1219.013523 304.929982 
L 1220.12943 334.439574 
L 1221.245337 312.273866 
L 1222.361244 319.343716 
L 1223.477151 317.47131 
L 1224.593058 333.338302 
L 1225.708965 171.746014 
L 1226.824872 164.444464 
L 1227.940779 263.719036 
L 1229.056686 259.643403 
L 1230.172593 197.334272 
L 1231.2885 175.387888 
L 1232.404407 231.920687 
L 1233.520314 233.855679 
L 1234.636221 225.81626 
L 1235.752128 210.654317 
L 1236.868035 218.279297 
L 1237.983942 242.147447 
L 1239.099849 243.355133 
L 1240.215756 243.949193 
L 1241.331663 223.209338 
L 1242.44757 232.937471 
L 1243.563477 220.40896 
L 1244.679384 233.10364 
L 1245.795291 228.233836 
L 1246.911198 242.218462 
L 1248.027105 208.971557 
L 1249.143012 244.073614 
L 1250.258919 238.563614 
L 1251.374826 223.432122 
L 1252.490733 218.49925 
L 1253.60664 222.278353 
L 1254.722547 232.538665 
L 1255.838454 219.327423 
L 1256.954361 243.799117 
L 1258.070268 297.695126 
L 1259.186175 204.644931 
L 1260.302082 269.494536 
L 1261.417989 275.791544 
L 1262.533896 291.21808 
L 1263.649803 288.46864 
L 1264.76571 280.563863 
L 1265.881617 279.116018 
L 1266.997524 286.547986 
L 1268.113431 313.935755 
L 1269.229338 294.03987 
L 1270.345245 323.798476 
L 1271.461152 311.354228 
L 1272.577059 343.54319 
L 1273.692966 336.072366 
L 1274.808873 344.326543 
L 1275.92478 281.195127 
L 1277.040687 335.409362 
L 1278.156595 300.724806 
L 1279.272502 332.078349 
L 1280.388409 309.476174 
L 1281.504316 343.838116 
L 1282.620223 326.982209 
L 1283.73613 352.581 
L 1284.852037 338.879836 
L 1285.967944 348.376128 
L 1287.083851 343.794299 
L 1288.199758 346.004968 
L 1289.315665 344.938351 
L 1290.431572 345.452979 
L 1291.547479 345.204678 
L 1292.663386 345.32448 
L 1294.8952 345.294566 
L 1294.8952 345.294566 
" clip-path="url(#p2d09b771ce)" style="fill: none; stroke: #ffa500; stroke-width: 1.5; stroke-linecap: square"/>
   </g>
   <g id="line2d_19">
    <path d="M 1296.011107 345.28111 
L 1297.127014 345.284828 
L 1298.242921 345.284058 
L 1299.358828 345.284785 
L 1300.474735 345.284175 
L 1301.590642 345.283502 
L 1302.706549 345.284299 
L 1303.822456 345.284054 
L 1304.938363 345.284341 
L 1306.05427 345.284059 
L 1307.170177 345.28401 
L 1308.286084 345.284144 
L 1309.401991 345.284103 
L 1310.517898 345.284177 
" clip-path="url(#p2d09b771ce)" style="fill: none; stroke: #ff0000; stroke-width: 1.5; stroke-linecap: square"/>
   </g>
   <g id="patch_3">
    <path d="M 32.190625 367.701 
L 32.190625 35.061 
" style="fill: none; stroke: #000000; stroke-width: 0.8; stroke-linejoin: miter; stroke-linecap: square"/>
   </g>
   <g id="patch_4">
    <path d="M 1371.390625 367.701 
L 1371.390625 35.061 
" style="fill: none; stroke: #000000; stroke-width: 0.8; stroke-linejoin: miter; stroke-linecap: square"/>
   </g>
   <g id="patch_5">
    <path d="M 32.190625 367.701 
L 1371.390625 367.701 
" style="fill: none; stroke: #000000; stroke-width: 0.8; stroke-linejoin: miter; stroke-linecap: square"/>
   </g>
   <g id="patch_6">
    <path d="M 32.190625 35.061 
L 1371.390625 35.061 
" style="fill: none; stroke: #000000; stroke-width: 0.8; stroke-linejoin: miter; stroke-linecap: square"/>
   </g>
   <g id="text_17">
    <!-- 每日新增预测 - 内蒙古 -->
    <g transform="translate(642.393438 17.041875)scale(0.12 -0.12)">
     <defs>
      <path id="WenQuanYiZenHei-6bcf" d="M 6138 2181 
Q 6113 1988 6138 1800 
Q 5788 1819 5438 1819 
L 4975 1819 
L 4863 738 
L 5806 738 
L 5806 394 
L 4831 394 
L 4775 -144 
Q 4719 -563 4350 -725 
Q 4013 -856 3550 -825 
L 3288 -819 
Q 3331 -663 3275 -519 
Q 3219 -375 3113 -288 
Q 3381 -313 3759 -303 
Q 4138 -294 4231 -238 
Q 4338 -163 4350 88 
L 4381 394 
L 1025 394 
L 1244 1819 
L 813 1819 
Q 463 1819 113 1800 
Q 138 1988 113 2181 
Q 463 2163 813 2163 
L 1294 2163 
L 1488 3431 
L 1488 3581 
L 1506 3581 
L 1513 3613 
L 1713 3581 
L 5156 3581 
L 5013 2163 
L 5438 2163 
Q 5788 2163 6138 2181 
z
M 5588 4463 
Q 5569 4269 5588 4081 
Q 5244 4100 4894 4100 
L 1813 4100 
Q 1344 3463 606 2788 
Q 481 2988 256 3069 
Q 744 3494 1116 3972 
Q 1488 4450 1919 5181 
Q 2119 5044 2344 4950 
Q 2213 4688 2050 4444 
L 4894 4444 
Q 5238 4444 5588 4463 
z
M 2844 3238 
L 1906 3238 
L 1744 2163 
L 3244 2163 
L 2581 3038 
L 2844 3238 
z
M 3250 2163 
L 4563 2163 
L 4669 3238 
L 3044 3238 
L 3638 2456 
L 3250 2163 
z
M 2944 1819 
Q 3275 1394 3550 938 
L 3213 738 
L 4419 738 
L 4525 1819 
L 2944 1819 
z
M 2656 1819 
L 1694 1819 
L 1525 738 
L 3094 738 
Q 2806 1219 2450 1650 
L 2656 1819 
z
" transform="scale(0.015625)"/>
      <path id="WenQuanYiZenHei-65e5" d="M 1494 -775 
Q 1244 -750 988 -775 
Q 1013 -313 1013 156 
L 1013 4875 
L 5269 4875 
L 5269 -763 
L 4813 -763 
L 4813 156 
L 1469 156 
Q 1469 -313 1494 -775 
z
M 4813 2700 
L 4813 4500 
L 1469 4500 
L 1469 2700 
L 4813 2700 
z
M 4813 531 
L 4813 2325 
L 1469 2325 
L 1469 531 
L 4813 531 
z
" transform="scale(0.015625)"/>
      <path id="WenQuanYiZenHei-65b0" d="M 5419 -763 
Q 5188 -738 4963 -763 
Q 4981 -344 4981 75 
L 4981 2819 
L 4188 2819 
L 4188 1706 
Q 4188 63 3163 -738 
Q 3019 -519 2769 -469 
Q 3769 131 3769 1706 
L 3769 4769 
L 3875 4769 
L 3844 4831 
L 4294 4781 
Q 4438 4769 4894 4816 
Q 5350 4863 5512 4931 
Q 5675 5000 5763 5094 
Q 5850 4881 5981 4694 
Q 5713 4544 5263 4519 
L 4188 4438 
L 4188 3100 
L 5563 3100 
Q 5850 3100 6131 3113 
Q 6119 2956 6131 2806 
L 5394 2819 
L 5394 75 
Q 5394 -344 5419 -763 
z
M 2981 213 
Q 2656 744 2256 1225 
L 2606 1513 
Q 3025 1006 3369 450 
L 2981 213 
z
M 1169 1525 
Q 1375 1419 1594 1363 
Q 1281 488 469 -469 
Q 331 -300 119 -244 
Q 575 263 888 900 
Q 1038 1206 1169 1525 
z
M 1825 6 
L 1825 1769 
L 1081 1769 
Q 794 1769 513 1756 
Q 525 1913 513 2063 
Q 794 2050 1081 2050 
L 1825 2050 
L 1825 2775 
L 994 2775 
Q 706 2775 425 2763 
Q 438 2919 425 3075 
Q 706 3056 994 3056 
L 1825 3056 
L 1825 3088 
L 1906 3088 
Q 2288 3656 2588 4381 
Q 2794 4269 3013 4206 
Q 2800 3675 2381 3056 
L 3013 3056 
Q 3294 3056 3581 3075 
Q 3563 2919 3581 2763 
Q 3294 2775 3013 2775 
L 2238 2775 
L 2238 2050 
L 2925 2050 
Q 3206 2050 3494 2063 
Q 3475 1913 3494 1756 
Q 3206 1769 2925 1769 
L 2238 1769 
L 2238 -156 
Q 2238 -413 2075 -581 
Q 1844 -794 1306 -794 
Q 1363 -519 1188 -288 
Q 1338 -313 1534 -316 
Q 1731 -319 1778 -278 
Q 1825 -238 1825 6 
z
M 1875 3388 
L 1500 3131 
L 825 4088 
L 1200 4350 
L 1875 3388 
z
M 3419 4713 
Q 3400 4563 3419 4406 
Q 3131 4419 2850 4419 
L 1125 4419 
Q 838 4419 556 4406 
Q 569 4563 556 4713 
Q 838 4700 1125 4700 
L 1763 4700 
L 1388 5088 
L 1719 5406 
L 2288 4813 
L 2175 4700 
L 2850 4700 
Q 3131 4700 3419 4713 
z
" transform="scale(0.015625)"/>
      <path id="WenQuanYiZenHei-589e" d="M 3138 -769 
Q 2913 -744 2688 -769 
Q 2706 -356 2706 56 
L 2706 1719 
L 5706 1719 
L 5706 -756 
L 5300 -756 
L 5300 -338 
L 3119 -338 
Q 3125 -550 3138 -769 
z
M 5113 3569 
Q 5344 3606 5563 3688 
Q 5669 3175 5256 2694 
Q 5113 2519 4975 2506 
Q 4831 2725 4588 2813 
Q 4806 2831 4997 3068 
Q 5188 3306 5113 3569 
z
M 3850 2763 
L 3469 2538 
L 2925 3456 
L 3313 3681 
L 3850 2763 
z
M 2400 2100 
Q 2469 3138 2400 4175 
L 3413 4175 
Q 3138 4550 2825 4888 
L 3156 5194 
Q 3581 4725 3938 4206 
L 3900 4175 
L 4456 4175 
Q 4863 4575 5131 5163 
Q 5325 5044 5538 4975 
Q 5369 4575 5013 4175 
L 6056 4175 
Q 5981 3138 6056 2100 
L 2400 2100 
z
M 5300 806 
L 5300 1450 
L 3113 1450 
Q 3113 1125 3113 806 
L 5300 806 
z
M 5300 563 
L 3113 563 
L 3113 -94 
L 5300 -94 
L 5300 563 
z
M 4431 3913 
L 4431 2363 
L 5650 2363 
L 5650 3913 
L 4756 3913 
L 4700 3856 
Q 4681 3888 4656 3913 
L 4431 3913 
z
M 4025 3913 
L 2806 3913 
L 2806 2363 
L 4025 2363 
L 4025 3913 
z
M -31 625 
Q 506 763 1006 975 
L 1006 3206 
L 669 3206 
Q 369 3206 75 3188 
Q 94 3356 75 3531 
Q 369 3513 669 3513 
L 1006 3513 
L 1006 4263 
Q 1006 4700 981 5131 
Q 1206 5106 1431 5131 
Q 1413 4700 1413 4263 
L 1413 3513 
L 2238 3531 
Q 2219 3356 2238 3188 
L 1413 3206 
L 1413 1163 
L 2150 1531 
L 2194 1256 
Q 1269 775 813 519 
L 194 144 
Q 138 438 -31 625 
z
" transform="scale(0.015625)"/>
      <path id="WenQuanYiZenHei-9884" d="M 1206 19 
L 1206 2888 
L 669 2888 
Q 356 2888 50 2869 
Q 63 3044 50 3213 
Q 363 3194 669 3194 
L 1250 3194 
Q 950 3631 606 4031 
L 963 4338 
L 1263 3975 
L 1913 4719 
L 731 4719 
Q 419 4719 106 4706 
Q 125 4875 106 5044 
Q 419 5031 731 5031 
L 2481 5031 
L 2544 4663 
Q 2394 4613 2256 4466 
Q 2119 4319 1525 3631 
Q 1656 3444 1788 3250 
L 1700 3194 
L 2700 3194 
L 2763 2825 
Q 2656 2819 2613 2763 
L 2100 2038 
L 1750 2288 
L 2175 2888 
L 1638 2888 
L 1638 -150 
Q 1638 -525 1363 -669 
Q 1075 -819 525 -813 
Q 594 -513 388 -294 
Q 575 -313 837 -316 
Q 1100 -319 1153 -272 
Q 1206 -225 1206 19 
z
M 5813 -888 
Q 5100 -225 4306 375 
L 4669 719 
Q 5481 106 6219 -575 
L 5813 -888 
z
M 2375 -906 
Q 2294 -631 2025 -506 
Q 2769 -431 3353 19 
Q 3938 469 3938 1069 
L 3938 2200 
Q 3938 2625 3913 3050 
Q 4188 3025 4456 3050 
Q 4431 2625 4431 2200 
L 4431 1069 
Q 4431 681 4225 319 
Q 3644 -606 2375 -906 
z
M 3444 488 
Q 3169 513 2894 488 
Q 2919 913 2919 1338 
L 2919 3675 
Q 3219 3675 3525 3675 
Q 3750 4013 3931 4525 
L 3238 4525 
Q 2888 4525 2538 4513 
Q 2556 4669 2538 4831 
Q 2888 4813 3238 4813 
L 5313 4813 
Q 5663 4813 6006 4831 
Q 5988 4669 6006 4513 
Q 5663 4525 5313 4525 
L 4481 4525 
Q 4388 4088 4088 3675 
L 5644 3675 
L 5644 513 
L 5144 513 
L 5144 3388 
L 3894 3388 
L 3875 3363 
Q 3863 3375 3844 3388 
Q 3631 3388 3413 3388 
L 3419 1338 
Q 3419 913 3444 488 
z
" transform="scale(0.015625)"/>
      <path id="WenQuanYiZenHei-6d4b" d="M 5450 138 
L 5450 4306 
Q 5450 4750 5425 5188 
Q 5663 5163 5906 5188 
Q 5881 4750 5881 4306 
L 5881 -38 
Q 5888 -569 5519 -719 
Q 5194 -831 4825 -813 
Q 4894 -519 4694 -281 
Q 4869 -306 5094 -309 
Q 5319 -313 5384 -256 
Q 5450 -200 5450 138 
z
M 4900 938 
Q 4663 963 4419 938 
Q 4444 1375 4444 1819 
L 4444 3381 
Q 4444 3819 4419 4263 
Q 4663 4238 4900 4263 
Q 4875 3819 4875 3381 
L 4875 1819 
Q 4875 1375 4900 938 
z
M 2750 2025 
L 2750 3038 
Q 2750 3481 2725 3919 
Q 2963 3894 3206 3919 
Q 3181 3481 3181 3038 
L 3181 2025 
Q 3181 1263 2919 625 
L 3231 956 
Q 3781 431 4256 -150 
L 3888 -456 
Q 3431 106 2906 600 
Q 2531 -288 1738 -769 
Q 1606 -519 1338 -450 
Q 1988 -156 2369 478 
Q 2750 1113 2750 2025 
z
M 2363 969 
Q 2119 994 1881 969 
Q 1906 1406 1906 1850 
L 1906 5038 
L 3956 5031 
L 3956 1200 
L 3525 1200 
L 3525 4713 
L 2338 4713 
L 2338 1850 
Q 2338 1406 2363 969 
z
M 663 -738 
Q 481 -588 206 -575 
Q 400 -69 606 581 
Q 813 1231 1200 2838 
L 1381 2706 
L 875 338 
L 663 -738 
z
M 1006 2856 
L 731 2550 
L 75 3400 
L 350 3713 
L 1006 2856 
z
M 1088 3913 
Q 781 4388 425 4800 
L 694 5125 
Q 1069 4688 1388 4188 
L 1088 3913 
z
" transform="scale(0.015625)"/>
      <path id="WenQuanYiZenHei-20" transform="scale(0.015625)"/>
      <path id="WenQuanYiZenHei-5185" d="M 1025 194 
Q 1025 -275 1044 -750 
Q 788 -725 531 -750 
Q 556 -275 556 194 
L 556 3950 
L 2788 3950 
L 2788 4313 
Q 2788 4788 2763 5256 
Q 3019 5231 3275 5256 
Q 3250 4788 3250 4313 
L 3250 3950 
L 5750 3950 
L 5750 -81 
Q 5750 -500 5463 -663 
Q 5156 -825 4550 -819 
Q 4625 -494 4400 -256 
Q 4606 -275 4881 -278 
Q 5156 -281 5225 -231 
Q 5288 -150 5288 119 
L 5288 3556 
L 3250 3556 
L 3250 3188 
L 4219 2194 
L 5169 1144 
L 4781 806 
L 3844 1844 
L 3156 2550 
Q 2963 1800 2400 1219 
Q 1838 638 1100 388 
Q 1075 475 1025 550 
L 1025 194 
z
M 2788 3556 
L 1025 3556 
L 1025 881 
Q 1788 1144 2288 1797 
Q 2788 2450 2788 3269 
L 2788 3556 
z
" transform="scale(0.015625)"/>
      <path id="WenQuanYiZenHei-8499" d="M 1044 2156 
Q 781 2156 525 2144 
Q 538 2288 525 2425 
Q 781 2413 1044 2413 
L 2681 2413 
Q 2713 2450 2731 2413 
L 5256 2413 
Q 5513 2413 5775 2425 
Q 5756 2288 5775 2144 
Q 5513 2156 5256 2156 
L 2988 2156 
Q 3413 1950 3663 1281 
Q 4169 1500 4644 1850 
L 5031 2144 
Q 5156 1956 5319 1794 
Q 4906 1438 4313 1138 
Q 4881 63 6056 -81 
Q 5875 -250 5844 -494 
Q 5256 -406 4775 -18 
Q 4294 369 3975 975 
L 3781 888 
Q 4056 -369 2863 -813 
L 2625 -900 
Q 2538 -656 2300 -550 
Q 2606 -500 2881 -362 
Q 3156 -225 3269 -94 
Q 3531 231 3400 794 
Q 2800 206 2031 -212 
Q 1263 -631 369 -744 
Q 369 -481 219 -275 
Q 1594 -125 2475 556 
Q 2856 863 3244 1281 
Q 3206 1363 3175 1431 
Q 2150 425 444 131 
Q 444 350 313 525 
Q 1063 631 1650 931 
Q 2238 1231 2906 1744 
L 3163 1456 
Q 3000 1763 2763 1806 
Q 2694 1819 2619 1806 
Q 1744 1138 444 994 
Q 456 1213 338 1394 
Q 913 1444 1384 1634 
Q 1856 1825 2338 2156 
L 1044 2156 
z
M 4994 3063 
L 4994 2806 
L 1894 2806 
Q 1638 2806 1375 2794 
Q 1388 2931 1375 3075 
Q 1638 3063 1894 3063 
L 4994 3063 
z
M 800 2825 
L 381 2825 
L 381 3756 
L 5850 3756 
L 5850 2825 
L 5438 2825 
L 5438 3475 
L 800 3475 
L 800 2825 
z
M 4175 3913 
Q 3938 3931 3706 3913 
Q 3725 4175 3725 4431 
L 2381 4431 
Q 2388 4169 2400 3913 
Q 2169 3931 1938 3913 
Q 1950 4175 1956 4431 
L 719 4431 
Q 419 4431 119 4419 
Q 131 4556 119 4694 
Q 419 4681 719 4681 
L 1956 4681 
Q 1950 4981 1938 5281 
Q 2169 5263 2400 5281 
Q 2381 4975 2381 4681 
L 3725 4681 
Q 3725 4988 3706 5294 
Q 3938 5275 4175 5294 
Q 4156 4981 4150 4681 
L 5531 4681 
Q 5831 4681 6131 4694 
Q 6119 4556 6131 4419 
Q 5831 4431 5531 4431 
L 4156 4431 
Q 4156 4169 4175 3913 
z
" transform="scale(0.015625)"/>
      <path id="WenQuanYiZenHei-53e4" d="M 1238 2169 
L 2894 2169 
L 2894 3519 
L 875 3519 
Q 494 3519 113 3500 
Q 138 3706 113 3913 
Q 494 3894 875 3894 
L 2894 3894 
L 2894 4331 
Q 2894 4794 2875 5263 
Q 3125 5231 3375 5263 
Q 3356 4794 3356 4331 
L 3356 3894 
L 5375 3894 
Q 5756 3894 6138 3913 
Q 6113 3706 6138 3500 
Q 5756 3519 5375 3519 
L 3356 3519 
L 3356 2169 
L 4988 2169 
L 4988 -756 
L 4531 -756 
L 4531 -231 
L 1713 -231 
Q 1719 -500 1731 -769 
Q 1481 -738 1231 -769 
Q 1250 -300 1250 163 
L 1238 2169 
z
M 4531 144 
L 4531 1794 
L 1700 1794 
L 1706 144 
L 4531 144 
z
" transform="scale(0.015625)"/>
     </defs>
     <use xlink:href="#WenQuanYiZenHei-6bcf"/>
     <use xlink:href="#WenQuanYiZenHei-65e5" x="100"/>
     <use xlink:href="#WenQuanYiZenHei-65b0" x="200"/>
     <use xlink:href="#WenQuanYiZenHei-589e" x="300"/>
     <use xlink:href="#WenQuanYiZenHei-9884" x="400"/>
     <use xlink:href="#WenQuanYiZenHei-6d4b" x="500"/>
     <use xlink:href="#WenQuanYiZenHei-20" x="600"/>
     <use xlink:href="#WenQuanYiZenHei-2d" x="629.980469"/>
     <use xlink:href="#WenQuanYiZenHei-20" x="659.960938"/>
     <use xlink:href="#WenQuanYiZenHei-5185" x="689.941406"/>
     <use xlink:href="#WenQuanYiZenHei-8499" x="789.941406"/>
     <use xlink:href="#WenQuanYiZenHei-53e4" x="889.941406"/>
    </g>
    <!-- ARIMA (4, 1, 1)x(0, 0, 0, 7) (R2 = 0.565623) -->
    <g transform="translate(583.182813 29.061)scale(0.12 -0.12)">
     <defs>
      <path id="WenQuanYiZenHei-41" d="M 3550 0 
L 2988 0 
L 2550 1281 
L 919 1281 
L 531 0 
L 69 0 
L 1494 4388 
L 2125 4388 
L 3550 0 
z
M 2425 1694 
L 1756 3800 
L 1075 1694 
L 2425 1694 
z
" transform="scale(0.015625)"/>
      <path id="WenQuanYiZenHei-52" d="M 3675 0 
L 3100 0 
L 2288 1900 
L 1069 1900 
L 1069 0 
L 519 0 
L 519 4388 
L 2163 4388 
Q 3006 4388 3400 3900 
Q 3581 3663 3625 3325 
Q 3631 3250 3631 3163 
Q 3631 2594 3219 2244 
Q 3038 2100 2813 2038 
L 3675 0 
z
M 3081 3169 
Q 3081 3825 2356 3906 
Q 2263 3919 2163 3919 
L 1069 3919 
L 1069 2350 
L 2100 2350 
Q 2906 2350 3044 2919 
Q 3081 3031 3081 3169 
z
" transform="scale(0.015625)"/>
      <path id="WenQuanYiZenHei-49" d="M 1100 0 
L 550 0 
L 550 4388 
L 1100 4388 
L 1100 0 
z
" transform="scale(0.015625)"/>
      <path id="WenQuanYiZenHei-4d" d="M 4756 0 
L 4206 0 
L 4206 3831 
L 4181 3831 
L 2788 0 
L 2419 0 
L 1000 3831 
L 975 3831 
L 975 0 
L 513 0 
L 513 4388 
L 1331 4388 
L 2656 875 
L 3950 4388 
L 4756 4388 
L 4756 0 
z
" transform="scale(0.015625)"/>
      <path id="WenQuanYiZenHei-28" d="M 1606 -1094 
L 1275 -1094 
Q 475 -100 338 1231 
Q 319 1438 319 1656 
Q 319 3031 1156 4244 
Q 1213 4313 1269 4388 
L 1600 4388 
Q 806 3169 794 1681 
Q 794 188 1606 -1094 
z
" transform="scale(0.015625)"/>
      <path id="WenQuanYiZenHei-34" d="M 3631 1025 
L 2913 1025 
L 2913 0 
L 2381 0 
L 2381 1025 
L 219 1025 
L 219 1388 
L 2225 4388 
L 2913 4388 
L 2913 1444 
L 3631 1444 
L 3631 1025 
z
M 2381 1444 
L 2381 3963 
L 788 1444 
L 2381 1444 
z
" transform="scale(0.015625)"/>
      <path id="WenQuanYiZenHei-2c" d="M 1363 75 
L 881 -825 
L 606 -825 
L 994 0 
L 656 0 
L 656 738 
L 1363 738 
L 1363 75 
z
" transform="scale(0.015625)"/>
      <path id="WenQuanYiZenHei-29" d="M 1600 1656 
Q 1600 306 869 -788 
Q 769 -950 644 -1094 
L 313 -1094 
Q 1125 188 1125 1681 
Q 1125 3169 338 4363 
Q 325 4375 319 4388 
L 650 4388 
Q 1525 3231 1594 1863 
Q 1600 1763 1600 1656 
z
" transform="scale(0.015625)"/>
      <path id="WenQuanYiZenHei-78" d="M 2806 0 
L 2213 0 
L 1394 1319 
L 544 0 
L 50 0 
L 1144 1681 
L 163 3250 
L 744 3250 
L 1431 2138 
L 2144 3250 
L 2631 3250 
L 1681 1794 
L 2806 0 
z
" transform="scale(0.015625)"/>
      <path id="WenQuanYiZenHei-37" d="M 3400 4056 
Q 1838 2175 1838 0 
L 1275 0 
Q 1269 1438 2056 2825 
Q 2381 3400 2825 3913 
L 444 3913 
L 500 4388 
L 3400 4388 
L 3400 4056 
z
" transform="scale(0.015625)"/>
      <path id="WenQuanYiZenHei-3d" d="M 3569 2256 
L 263 2256 
L 263 2675 
L 3569 2675 
L 3569 2256 
z
M 3569 1019 
L 263 1019 
L 263 1431 
L 3569 1431 
L 3569 1019 
z
" transform="scale(0.015625)"/>
      <path id="WenQuanYiZenHei-2e" d="M 1344 0 
L 631 0 
L 631 725 
L 1344 725 
L 1344 0 
z
" transform="scale(0.015625)"/>
      <path id="WenQuanYiZenHei-36" d="M 3550 1431 
Q 3550 725 3006 288 
Q 2581 -63 1994 -63 
Q 1013 -63 563 825 
Q 288 1363 288 2081 
Q 288 3294 856 3938 
Q 1319 4456 2075 4456 
Q 2969 4456 3363 3756 
Q 3431 3631 3481 3481 
L 2988 3350 
Q 2750 3994 2075 4006 
Q 1056 4006 844 2669 
Q 794 2356 794 1981 
L 806 1981 
Q 1006 2506 1544 2744 
Q 1819 2869 2119 2869 
Q 2788 2869 3213 2375 
Q 3550 1975 3550 1431 
z
M 3038 1406 
Q 3038 1906 2656 2213 
Q 2381 2431 2038 2431 
Q 1525 2431 1181 2044 
Q 919 1744 919 1356 
Q 919 881 1344 581 
Q 1631 375 1981 375 
Q 2519 375 2838 781 
Q 3038 1050 3038 1406 
z
" transform="scale(0.015625)"/>
     </defs>
     <use xlink:href="#WenQuanYiZenHei-41"/>
     <use xlink:href="#WenQuanYiZenHei-52" x="55.957031"/>
     <use xlink:href="#WenQuanYiZenHei-49" x="117.871094"/>
     <use xlink:href="#WenQuanYiZenHei-4d" x="143.847656"/>
     <use xlink:href="#WenQuanYiZenHei-41" x="225.78125"/>
     <use xlink:href="#WenQuanYiZenHei-20" x="281.738281"/>
     <use xlink:href="#WenQuanYiZenHei-28" x="311.71875"/>
     <use xlink:href="#WenQuanYiZenHei-34" x="341.699219"/>
     <use xlink:href="#WenQuanYiZenHei-2c" x="401.660156"/>
     <use xlink:href="#WenQuanYiZenHei-20" x="431.640625"/>
     <use xlink:href="#WenQuanYiZenHei-31" x="461.621094"/>
     <use xlink:href="#WenQuanYiZenHei-2c" x="521.582031"/>
     <use xlink:href="#WenQuanYiZenHei-20" x="551.5625"/>
     <use xlink:href="#WenQuanYiZenHei-31" x="581.542969"/>
     <use xlink:href="#WenQuanYiZenHei-29" x="641.503906"/>
     <use xlink:href="#WenQuanYiZenHei-78" x="671.484375"/>
     <use xlink:href="#WenQuanYiZenHei-28" x="715.429688"/>
     <use xlink:href="#WenQuanYiZenHei-30" x="745.410156"/>
     <use xlink:href="#WenQuanYiZenHei-2c" x="805.371094"/>
     <use xlink:href="#WenQuanYiZenHei-20" x="835.351562"/>
     <use xlink:href="#WenQuanYiZenHei-30" x="865.332031"/>
     <use xlink:href="#WenQuanYiZenHei-2c" x="925.292969"/>
     <use xlink:href="#WenQuanYiZenHei-20" x="955.273438"/>
     <use xlink:href="#WenQuanYiZenHei-30" x="985.253906"/>
     <use xlink:href="#WenQuanYiZenHei-2c" x="1045.214844"/>
     <use xlink:href="#WenQuanYiZenHei-20" x="1075.195312"/>
     <use xlink:href="#WenQuanYiZenHei-37" x="1105.175781"/>
     <use xlink:href="#WenQuanYiZenHei-29" x="1165.136719"/>
     <use xlink:href="#WenQuanYiZenHei-20" x="1195.117188"/>
     <use xlink:href="#WenQuanYiZenHei-28" x="1225.097656"/>
     <use xlink:href="#WenQuanYiZenHei-52" x="1255.078125"/>
     <use xlink:href="#WenQuanYiZenHei-32" x="1316.992188"/>
     <use xlink:href="#WenQuanYiZenHei-20" x="1376.953125"/>
     <use xlink:href="#WenQuanYiZenHei-3d" x="1406.933594"/>
     <use xlink:href="#WenQuanYiZenHei-20" x="1466.894531"/>
     <use xlink:href="#WenQuanYiZenHei-30" x="1496.875"/>
     <use xlink:href="#WenQuanYiZenHei-2e" x="1556.835938"/>
     <use xlink:href="#WenQuanYiZenHei-35" x="1586.816406"/>
     <use xlink:href="#WenQuanYiZenHei-36" x="1646.777344"/>
     <use xlink:href="#WenQuanYiZenHei-35" x="1706.738281"/>
     <use xlink:href="#WenQuanYiZenHei-36" x="1766.699219"/>
     <use xlink:href="#WenQuanYiZenHei-32" x="1826.660156"/>
     <use xlink:href="#WenQuanYiZenHei-33" x="1886.621094"/>
     <use xlink:href="#WenQuanYiZenHei-29" x="1946.582031"/>
    </g>
   </g>
   <g id="legend_1">
    <g id="patch_7">
     <path d="M 1302.390625 87.056312 
L 1364.390625 87.056312 
Q 1366.390625 87.056312 1366.390625 85.056312 
L 1366.390625 42.061 
Q 1366.390625 40.061 1364.390625 40.061 
L 1302.390625 40.061 
Q 1300.390625 40.061 1300.390625 42.061 
L 1300.390625 85.056312 
Q 1300.390625 87.056312 1302.390625 87.056312 
z
" style="fill: #ffffff; opacity: 0.8; stroke: #cccccc; stroke-linejoin: miter"/>
    </g>
    <g id="line2d_20">
     <path d="M 1304.390625 48.695375 
L 1314.390625 48.695375 
L 1324.390625 48.695375 
" style="fill: none; stroke: #0000ff; stroke-width: 1.5; stroke-linecap: square"/>
    </g>
    <g id="text_18">
     <!-- 实际值 -->
     <g transform="translate(1332.390625 52.195375)scale(0.1 -0.1)">
      <defs>
       <path id="WenQuanYiZenHei-5b9e" d="M 1025 1175 
Q 694 1175 356 1163 
Q 375 1344 356 1525 
Q 694 1506 1025 1506 
L 3363 1506 
L 3363 2625 
Q 3363 3075 3338 3519 
Q 3581 3494 3825 3519 
Q 3800 3075 3800 2625 
L 3800 1506 
L 5406 1506 
Q 5744 1506 6075 1525 
Q 6056 1344 6075 1163 
Q 5744 1175 5406 1175 
L 4038 1175 
L 4981 456 
L 6131 -488 
L 5819 -856 
L 4681 75 
L 3638 875 
Q 3313 231 2475 -231 
Q 1638 -694 700 -825 
Q 638 -519 344 -400 
Q 1450 -319 2406 244 
Q 3113 656 3300 1175 
L 1025 1175 
z
M 2263 1581 
Q 1763 2081 1200 2513 
L 1494 2894 
Q 2081 2444 2600 1919 
L 2263 1581 
z
M 2638 2500 
Q 2219 2963 1731 3363 
L 2044 3738 
Q 2556 3313 3000 2819 
L 2638 2500 
z
M 919 3156 
L 481 3156 
L 481 4344 
L 3069 4344 
Q 2794 4731 2469 5081 
L 2825 5413 
Q 3256 4944 3613 4413 
L 3513 4344 
L 5869 4344 
L 5869 3156 
L 5425 3156 
L 5425 4013 
L 919 4013 
L 919 3156 
z
" transform="scale(0.015625)"/>
       <path id="WenQuanYiZenHei-9645" d="M 6000 431 
L 5569 194 
L 4963 1219 
L 4313 2219 
L 4719 2494 
L 5375 1481 
L 6000 431 
z
M 2956 2450 
Q 3181 2344 3419 2294 
Q 3006 1038 1944 -188 
Q 1794 -6 1569 56 
Q 2069 600 2372 1156 
Q 2675 1713 2956 2450 
z
M 3750 25 
L 3750 2913 
L 2819 2913 
Q 2475 2913 2125 2894 
Q 2144 3081 2125 3269 
Q 2475 3256 2819 3256 
L 5469 3256 
Q 5819 3256 6163 3269 
Q 6144 3081 6163 2894 
Q 5813 2913 5469 2913 
L 4194 2913 
L 4194 -144 
Q 4194 -725 3456 -813 
L 3263 -825 
Q 3325 -506 3125 -250 
Q 3250 -281 3394 -306 
Q 3663 -313 3706 -272 
Q 3750 -231 3750 25 
z
M 5544 4950 
Q 5525 4756 5544 4569 
Q 5194 4588 4844 4588 
L 3325 4588 
Q 2975 4588 2625 4569 
Q 2644 4756 2625 4950 
Q 2975 4931 3325 4931 
L 4844 4931 
Q 5194 4931 5544 4950 
z
M 819 -850 
Q 581 -825 344 -850 
Q 369 -419 369 19 
L 363 4938 
L 2256 4938 
L 2256 4625 
Q 2150 4513 2075 4375 
L 1481 3238 
Q 2181 2319 2181 1156 
Q 2144 400 1569 163 
L 1406 88 
Q 1288 300 1138 481 
Q 1294 538 1450 606 
Q 1763 744 1794 1156 
Q 1794 1744 1600 2300 
Q 1406 2856 1038 3313 
L 1725 4625 
L 788 4625 
L 794 19 
Q 794 -419 819 -850 
z
" transform="scale(0.015625)"/>
       <path id="WenQuanYiZenHei-503c" d="M 6175 -219 
Q 6156 -388 6175 -556 
Q 5863 -544 5550 -544 
L 2313 -544 
Q 2000 -544 1688 -556 
Q 1706 -388 1688 -219 
L 2506 -231 
L 2506 3469 
L 3644 3469 
L 3644 4119 
L 2638 4119 
Q 2325 4119 2013 4100 
Q 2031 4269 2013 4438 
Q 2325 4425 2638 4425 
L 3638 4425 
Q 3638 4719 3619 5013 
Q 3856 4988 4094 5013 
Q 4075 4719 4075 4425 
L 5344 4425 
Q 5650 4425 5963 4438 
Q 5950 4269 5963 4100 
Q 5656 4119 5344 4119 
L 4069 4119 
L 4069 3469 
L 5300 3469 
L 5300 -231 
L 5550 -231 
Q 5863 -231 6175 -219 
z
M 4869 2556 
L 4869 3156 
L 2931 3156 
Q 2931 2850 2931 2556 
L 4869 2556 
z
M 4869 1669 
L 4869 2250 
L 2931 2250 
L 2931 1669 
L 4869 1669 
z
M 4869 731 
L 4869 1363 
L 2931 1363 
L 2931 731 
L 4869 731 
z
M 4869 -231 
L 4869 425 
L 2931 425 
L 2931 -231 
L 4869 -231 
z
M 2106 4925 
Q 1856 4075 1463 3338 
L 1463 31 
Q 1463 -413 1481 -850 
Q 1256 -825 1031 -850 
Q 1050 -413 1050 31 
L 1050 2681 
Q 750 2269 375 1931 
Q 238 2156 0 2256 
Q 331 2544 619 2875 
Q 1094 3425 1300 3950 
Q 1494 4469 1625 5050 
Q 1850 4963 2106 4925 
z
" transform="scale(0.015625)"/>
      </defs>
      <use xlink:href="#WenQuanYiZenHei-5b9e"/>
      <use xlink:href="#WenQuanYiZenHei-9645" x="100"/>
      <use xlink:href="#WenQuanYiZenHei-503c" x="200"/>
     </g>
    </g>
    <g id="line2d_21">
     <path d="M 1304.390625 63.3735 
L 1314.390625 63.3735 
L 1324.390625 63.3735 
" style="fill: none; stroke: #ffa500; stroke-width: 1.5; stroke-linecap: square"/>
    </g>
    <g id="text_19">
     <!-- 校验值 -->
     <g transform="translate(1332.390625 66.8735)scale(0.1 -0.1)">
      <defs>
       <path id="WenQuanYiZenHei-6821" d="M 5256 2463 
Q 5025 1475 4494 706 
Q 5125 -94 6175 -544 
Q 5950 -663 5850 -900 
Q 4906 -494 4250 381 
Q 3931 0 3475 -350 
Q 3019 -700 2388 -919 
Q 2338 -656 2138 -475 
Q 3306 -69 4006 738 
Q 3563 1444 3300 2331 
Q 3050 2050 2706 1800 
Q 2606 2000 2406 2106 
Q 2900 2444 3181 2938 
Q 3350 3225 3488 3538 
Q 3700 3431 3925 3369 
Q 3763 2894 3425 2475 
L 3650 2531 
Q 3888 1675 4244 1075 
Q 4469 1444 4603 1937 
Q 4738 2431 4775 2688 
Q 4963 2644 5150 2625 
Q 4919 2969 4663 3294 
L 5038 3588 
Q 5544 2925 5975 2213 
L 5569 1969 
L 5256 2463 
z
M 6006 4050 
Q 5988 3881 6006 3713 
Q 5694 3725 5381 3725 
L 3413 3725 
Q 3100 3725 2788 3713 
Q 2806 3881 2788 4050 
Q 3100 4031 3413 4031 
L 4325 4031 
Q 4019 4525 3644 4969 
L 4000 5275 
Q 4413 4788 4750 4244 
L 4406 4031 
L 5381 4031 
Q 5694 4031 6006 4050 
z
M 406 263 
Q 238 431 -25 469 
Q 194 825 466 1337 
Q 738 1850 925 2406 
Q 1113 2963 1256 3519 
L 825 3519 
Q 506 3519 188 3500 
Q 206 3700 188 3900 
Q 506 3881 825 3881 
L 1363 3881 
L 1363 4263 
Q 1363 4719 1338 5175 
Q 1556 5150 1775 5175 
Q 1756 4719 1756 4263 
L 1756 3881 
L 2525 3900 
Q 2506 3700 2525 3500 
L 1756 3519 
L 1756 2738 
L 1931 2881 
Q 2306 2300 2613 1650 
L 2231 1413 
Q 2081 1725 1919 2019 
L 1756 2300 
L 1756 69 
Q 1756 -388 1775 -850 
Q 1556 -825 1338 -850 
Q 1363 -388 1363 69 
L 1363 2438 
Q 925 1144 406 263 
z
" transform="scale(0.015625)"/>
       <path id="WenQuanYiZenHei-9a8c" d="M 5981 -106 
Q 5963 -275 5981 -444 
Q 5669 -431 5356 -431 
L 2969 -431 
Q 2656 -431 2350 -444 
Q 2363 -275 2350 -106 
Q 2656 -125 2969 -125 
L 4369 -125 
Q 4600 431 4881 1288 
L 5206 2300 
Q 5425 2206 5663 2163 
Q 5375 1188 4831 -125 
L 5356 -125 
Q 5669 -125 5981 -106 
z
M 4063 594 
Q 3788 1425 3425 2219 
L 3856 2419 
Q 4225 1600 4513 744 
L 4063 594 
z
M 3163 363 
Q 2931 1200 2613 2006 
L 3056 2175 
Q 3381 1350 3619 488 
L 3163 363 
z
M 4581 2550 
L 3513 2550 
Q 3200 2550 2888 2538 
Q 2900 2663 2894 2769 
Q 2569 2488 2206 2300 
Q 2113 2550 1894 2700 
Q 2488 2975 2975 3463 
Q 3269 3756 3394 4006 
Q 3644 4513 3794 5063 
Q 4038 4975 4294 4931 
Q 4250 4806 4206 4681 
Q 4475 3888 5025 3388 
Q 5519 2938 6169 2650 
Q 5938 2538 5838 2300 
Q 5513 2456 5200 2700 
Q 5200 2619 5206 2538 
Q 4894 2550 4581 2550 
z
M 3513 2863 
L 4994 2869 
Q 4344 3438 3988 4194 
Q 3594 3406 3013 2869 
Q 3263 2863 3513 2863 
z
M 206 444 
Q 188 756 44 963 
Q 319 956 650 1003 
Q 981 1050 1731 1281 
L 1738 1006 
Q 800 719 206 444 
z
M 525 4000 
Q 744 3950 994 3944 
Q 925 3519 875 3081 
L 763 2144 
L 1475 2144 
L 1831 4444 
L 663 4444 
Q 350 4444 38 4431 
Q 56 4600 38 4769 
Q 350 4756 663 4756 
L 2313 4756 
L 1913 2144 
L 2375 2144 
L 2200 -200 
Q 2188 -425 1988 -588 
Q 1694 -800 1181 -788 
L 944 -788 
Q 1000 -450 788 -269 
Q 1013 -294 1334 -287 
Q 1656 -281 1715 -243 
Q 1775 -206 1781 -50 
L 1925 1831 
L 294 1831 
L 444 3131 
Q 500 3569 525 4000 
z
" transform="scale(0.015625)"/>
      </defs>
      <use xlink:href="#WenQuanYiZenHei-6821"/>
      <use xlink:href="#WenQuanYiZenHei-9a8c" x="100"/>
      <use xlink:href="#WenQuanYiZenHei-503c" x="200"/>
     </g>
    </g>
    <g id="line2d_22">
     <path d="M 1304.390625 77.895375 
L 1314.390625 77.895375 
L 1324.390625 77.895375 
" style="fill: none; stroke: #ff0000; stroke-width: 1.5; stroke-linecap: square"/>
    </g>
    <g id="text_20">
     <!-- 预测值 -->
     <g transform="translate(1332.390625 81.395375)scale(0.1 -0.1)">
      <use xlink:href="#WenQuanYiZenHei-9884"/>
      <use xlink:href="#WenQuanYiZenHei-6d4b" x="100"/>
      <use xlink:href="#WenQuanYiZenHei-503c" x="200"/>
     </g>
    </g>
   </g>
  </g>
 </g>
 <defs>
  <clipPath id="p2d09b771ce">
   <rect x="32.190625" y="35.061" width="1339.2" height="332.64"/>
  </clipPath>
 </defs>
</svg>
