<?xml version="1.0" encoding="utf-8" standalone="no"?>
<!DOCTYPE svg PUBLIC "-//W3C//DTD SVG 1.1//EN"
  "http://www.w3.org/Graphics/SVG/1.1/DTD/svg11.dtd">
<svg xmlns:xlink="http://www.w3.org/1999/xlink" width="1378.590625pt" height="390.418188pt" viewBox="0 0 1378.590625 390.418188" xmlns="http://www.w3.org/2000/svg" version="1.1">
 <metadata>
  <rdf:RDF xmlns:dc="http://purl.org/dc/elements/1.1/" xmlns:cc="http://creativecommons.org/ns#" xmlns:rdf="http://www.w3.org/1999/02/22-rdf-syntax-ns#">
   <cc:Work>
    <dc:type rdf:resource="http://purl.org/dc/dcmitype/StillImage"/>
    <dc:date>2022-11-20T18:16:32.038548</dc:date>
    <dc:format>image/svg+xml</dc:format>
    <dc:creator>
     <cc:Agent>
      <dc:title>Matplotlib v3.5.1, https://matplotlib.org/</dc:title>
     </cc:Agent>
    </dc:creator>
   </cc:Work>
  </rdf:RDF>
 </metadata>
 <defs>
  <style type="text/css">*{stroke-linejoin: round; stroke-linecap: butt}</style>
 </defs>
 <g id="figure_1">
  <g id="patch_1">
   <path d="M 0 390.418188 
L 1378.590625 390.418188 
L 1378.590625 -0 
L 0 -0 
z
" style="fill: #ffffff"/>
  </g>
  <g id="axes_1">
   <g id="patch_2">
    <path d="M 32.190625 367.701 
L 1371.390625 367.701 
L 1371.390625 35.061 
L 32.190625 35.061 
z
" style="fill: #ffffff"/>
   </g>
   <g id="matplotlib.axis_1">
    <g id="xtick_1">
     <g id="line2d_1">
      <defs>
       <path id="m46d9ede3fc" d="M 0 0 
L 0 3.5 
" style="stroke: #000000; stroke-width: 0.8"/>
      </defs>
      <g>
       <use xlink:href="#m46d9ede3fc" x="67.43273" y="367.701" style="stroke: #000000; stroke-width: 0.8"/>
      </g>
     </g>
     <g id="text_1">
      <!-- 2020-01 -->
      <g transform="translate(47.942887 381.55725)scale(0.1 -0.1)">
       <defs>
        <path id="WenQuanYiZenHei-32" d="M 3488 0 
L 369 0 
L 369 456 
L 2150 1850 
Q 2931 2463 2931 3144 
Q 2931 3619 2488 3863 
Q 2231 4013 1931 4013 
Q 1425 4013 1113 3619 
Q 894 3356 881 3013 
L 369 3169 
Q 531 3981 1213 4300 
Q 1544 4456 1950 4456 
Q 2631 4456 3088 4044 
L 3225 3888 
L 3350 3706 
Q 3481 3444 3481 3144 
Q 3481 2313 2519 1569 
L 1069 456 
L 3488 456 
L 3488 0 
z
" transform="scale(0.015625)"/>
        <path id="WenQuanYiZenHei-30" d="M 3581 2175 
Q 3581 1288 3169 638 
Q 2713 -63 1938 -63 
Q 1025 -63 563 831 
Q 256 1425 256 2188 
Q 256 3188 700 3819 
Q 1138 4456 1888 4456 
Q 2863 4456 3306 3500 
Q 3581 2925 3581 2175 
z
M 3019 2100 
Q 3019 3356 2500 3806 
L 2350 3919 
Q 2144 4031 1888 4031 
Q 1100 4031 888 2956 
Q 819 2625 819 2225 
Q 819 1013 1338 569 
Q 1588 356 1938 356 
Q 2675 356 2925 1294 
Q 3019 1663 3019 2100 
z
" transform="scale(0.015625)"/>
        <path id="WenQuanYiZenHei-2d" d="M 1363 1444 
L 0 1444 
L 0 1844 
L 1363 1844 
L 1363 1444 
z
" transform="scale(0.015625)"/>
        <path id="WenQuanYiZenHei-31" d="M 3556 0 
L 488 0 
L 488 406 
L 1800 406 
L 1800 3725 
Q 1231 3125 588 2788 
L 588 3338 
Q 1456 3781 1931 4388 
L 2331 4388 
L 2331 406 
L 3556 406 
L 3556 0 
z
" transform="scale(0.015625)"/>
       </defs>
       <use xlink:href="#WenQuanYiZenHei-32"/>
       <use xlink:href="#WenQuanYiZenHei-30" x="59.960938"/>
       <use xlink:href="#WenQuanYiZenHei-32" x="119.921875"/>
       <use xlink:href="#WenQuanYiZenHei-30" x="179.882812"/>
       <use xlink:href="#WenQuanYiZenHei-2d" x="239.84375"/>
       <use xlink:href="#WenQuanYiZenHei-30" x="269.824219"/>
       <use xlink:href="#WenQuanYiZenHei-31" x="329.785156"/>
      </g>
     </g>
    </g>
    <g id="xtick_2">
     <g id="line2d_2">
      <g>
       <use xlink:href="#m46d9ede3fc" x="208.401151" y="367.701" style="stroke: #000000; stroke-width: 0.8"/>
      </g>
     </g>
     <g id="text_2">
      <!-- 2020-05 -->
      <g transform="translate(188.911308 381.55725)scale(0.1 -0.1)">
       <defs>
        <path id="WenQuanYiZenHei-35" d="M 3531 1488 
Q 3531 688 2913 250 
Q 2456 -63 1844 -63 
Q 1175 -63 706 350 
Q 413 613 306 975 
L 781 1131 
Q 1000 538 1569 406 
Q 1706 369 1856 369 
Q 2550 369 2850 869 
Q 3000 1131 3000 1494 
Q 3000 2056 2581 2356 
Q 2319 2538 1969 2538 
Q 1400 2538 1031 2075 
Q 981 2013 938 1938 
L 500 2031 
L 644 4388 
L 3244 4388 
L 3200 3919 
L 1044 3919 
L 950 2500 
Q 1431 2975 2006 2975 
Q 2713 2975 3163 2475 
Q 3531 2063 3531 1488 
z
" transform="scale(0.015625)"/>
       </defs>
       <use xlink:href="#WenQuanYiZenHei-32"/>
       <use xlink:href="#WenQuanYiZenHei-30" x="59.960938"/>
       <use xlink:href="#WenQuanYiZenHei-32" x="119.921875"/>
       <use xlink:href="#WenQuanYiZenHei-30" x="179.882812"/>
       <use xlink:href="#WenQuanYiZenHei-2d" x="239.84375"/>
       <use xlink:href="#WenQuanYiZenHei-30" x="269.824219"/>
       <use xlink:href="#WenQuanYiZenHei-35" x="329.785156"/>
      </g>
     </g>
    </g>
    <g id="xtick_3">
     <g id="line2d_3">
      <g>
       <use xlink:href="#m46d9ede3fc" x="351.699629" y="367.701" style="stroke: #000000; stroke-width: 0.8"/>
      </g>
     </g>
     <g id="text_3">
      <!-- 2020-09 -->
      <g transform="translate(332.209785 381.55725)scale(0.1 -0.1)">
       <defs>
        <path id="WenQuanYiZenHei-39" d="M 3544 2300 
Q 3544 1163 3019 513 
Q 2563 -63 1775 -63 
Q 956 -63 563 488 
Q 463 631 394 813 
L 838 975 
Q 1025 494 1550 388 
Q 1656 369 1775 369 
Q 2594 369 2900 1325 
Q 3044 1769 3038 2313 
L 3025 2313 
Q 2675 1638 1944 1544 
Q 1844 1531 1744 1531 
Q 1050 1531 625 2031 
Q 294 2419 294 2963 
Q 294 3656 813 4094 
Q 1238 4456 1819 4456 
Q 2988 4456 3381 3363 
Q 3544 2900 3544 2300 
z
M 2925 2994 
Q 2925 3563 2469 3844 
Q 2206 4006 1863 4006 
Q 1275 4006 988 3563 
Q 844 3344 825 3056 
Q 819 3006 819 2956 
Q 819 2413 1269 2131 
Q 1538 1963 1875 1963 
Q 2363 1963 2681 2350 
Q 2925 2638 2925 2994 
z
" transform="scale(0.015625)"/>
       </defs>
       <use xlink:href="#WenQuanYiZenHei-32"/>
       <use xlink:href="#WenQuanYiZenHei-30" x="59.960938"/>
       <use xlink:href="#WenQuanYiZenHei-32" x="119.921875"/>
       <use xlink:href="#WenQuanYiZenHei-30" x="179.882812"/>
       <use xlink:href="#WenQuanYiZenHei-2d" x="239.84375"/>
       <use xlink:href="#WenQuanYiZenHei-30" x="269.824219"/>
       <use xlink:href="#WenQuanYiZenHei-39" x="329.785156"/>
      </g>
     </g>
    </g>
    <g id="xtick_4">
     <g id="line2d_4">
      <g>
       <use xlink:href="#m46d9ede3fc" x="493.833078" y="367.701" style="stroke: #000000; stroke-width: 0.8"/>
      </g>
     </g>
     <g id="text_4">
      <!-- 2021-01 -->
      <g transform="translate(474.343234 381.55725)scale(0.1 -0.1)">
       <use xlink:href="#WenQuanYiZenHei-32"/>
       <use xlink:href="#WenQuanYiZenHei-30" x="59.960938"/>
       <use xlink:href="#WenQuanYiZenHei-32" x="119.921875"/>
       <use xlink:href="#WenQuanYiZenHei-31" x="179.882812"/>
       <use xlink:href="#WenQuanYiZenHei-2d" x="239.84375"/>
       <use xlink:href="#WenQuanYiZenHei-30" x="269.824219"/>
       <use xlink:href="#WenQuanYiZenHei-31" x="329.785156"/>
      </g>
     </g>
    </g>
    <g id="xtick_5">
     <g id="line2d_5">
      <g>
       <use xlink:href="#m46d9ede3fc" x="633.636471" y="367.701" style="stroke: #000000; stroke-width: 0.8"/>
      </g>
     </g>
     <g id="text_5">
      <!-- 2021-05 -->
      <g transform="translate(614.146627 381.55725)scale(0.1 -0.1)">
       <use xlink:href="#WenQuanYiZenHei-32"/>
       <use xlink:href="#WenQuanYiZenHei-30" x="59.960938"/>
       <use xlink:href="#WenQuanYiZenHei-32" x="119.921875"/>
       <use xlink:href="#WenQuanYiZenHei-31" x="179.882812"/>
       <use xlink:href="#WenQuanYiZenHei-2d" x="239.84375"/>
       <use xlink:href="#WenQuanYiZenHei-30" x="269.824219"/>
       <use xlink:href="#WenQuanYiZenHei-35" x="329.785156"/>
      </g>
     </g>
    </g>
    <g id="xtick_6">
     <g id="line2d_6">
      <g>
       <use xlink:href="#m46d9ede3fc" x="776.934949" y="367.701" style="stroke: #000000; stroke-width: 0.8"/>
      </g>
     </g>
     <g id="text_6">
      <!-- 2021-09 -->
      <g transform="translate(757.445105 381.55725)scale(0.1 -0.1)">
       <use xlink:href="#WenQuanYiZenHei-32"/>
       <use xlink:href="#WenQuanYiZenHei-30" x="59.960938"/>
       <use xlink:href="#WenQuanYiZenHei-32" x="119.921875"/>
       <use xlink:href="#WenQuanYiZenHei-31" x="179.882812"/>
       <use xlink:href="#WenQuanYiZenHei-2d" x="239.84375"/>
       <use xlink:href="#WenQuanYiZenHei-30" x="269.824219"/>
       <use xlink:href="#WenQuanYiZenHei-39" x="329.785156"/>
      </g>
     </g>
    </g>
    <g id="xtick_7">
     <g id="line2d_7">
      <g>
       <use xlink:href="#m46d9ede3fc" x="919.068398" y="367.701" style="stroke: #000000; stroke-width: 0.8"/>
      </g>
     </g>
     <g id="text_7">
      <!-- 2022-01 -->
      <g transform="translate(899.578554 381.55725)scale(0.1 -0.1)">
       <use xlink:href="#WenQuanYiZenHei-32"/>
       <use xlink:href="#WenQuanYiZenHei-30" x="59.960938"/>
       <use xlink:href="#WenQuanYiZenHei-32" x="119.921875"/>
       <use xlink:href="#WenQuanYiZenHei-32" x="179.882812"/>
       <use xlink:href="#WenQuanYiZenHei-2d" x="239.84375"/>
       <use xlink:href="#WenQuanYiZenHei-30" x="269.824219"/>
       <use xlink:href="#WenQuanYiZenHei-31" x="329.785156"/>
      </g>
     </g>
    </g>
    <g id="xtick_8">
     <g id="line2d_8">
      <g>
       <use xlink:href="#m46d9ede3fc" x="1058.871791" y="367.701" style="stroke: #000000; stroke-width: 0.8"/>
      </g>
     </g>
     <g id="text_8">
      <!-- 2022-05 -->
      <g transform="translate(1039.381947 381.55725)scale(0.1 -0.1)">
       <use xlink:href="#WenQuanYiZenHei-32"/>
       <use xlink:href="#WenQuanYiZenHei-30" x="59.960938"/>
       <use xlink:href="#WenQuanYiZenHei-32" x="119.921875"/>
       <use xlink:href="#WenQuanYiZenHei-32" x="179.882812"/>
       <use xlink:href="#WenQuanYiZenHei-2d" x="239.84375"/>
       <use xlink:href="#WenQuanYiZenHei-30" x="269.824219"/>
       <use xlink:href="#WenQuanYiZenHei-35" x="329.785156"/>
      </g>
     </g>
    </g>
    <g id="xtick_9">
     <g id="line2d_9">
      <g>
       <use xlink:href="#m46d9ede3fc" x="1202.170268" y="367.701" style="stroke: #000000; stroke-width: 0.8"/>
      </g>
     </g>
     <g id="text_9">
      <!-- 2022-09 -->
      <g transform="translate(1182.680425 381.55725)scale(0.1 -0.1)">
       <use xlink:href="#WenQuanYiZenHei-32"/>
       <use xlink:href="#WenQuanYiZenHei-30" x="59.960938"/>
       <use xlink:href="#WenQuanYiZenHei-32" x="119.921875"/>
       <use xlink:href="#WenQuanYiZenHei-32" x="179.882812"/>
       <use xlink:href="#WenQuanYiZenHei-2d" x="239.84375"/>
       <use xlink:href="#WenQuanYiZenHei-30" x="269.824219"/>
       <use xlink:href="#WenQuanYiZenHei-39" x="329.785156"/>
      </g>
     </g>
    </g>
    <g id="xtick_10">
     <g id="line2d_10">
      <g>
       <use xlink:href="#m46d9ede3fc" x="1344.303718" y="367.701" style="stroke: #000000; stroke-width: 0.8"/>
      </g>
     </g>
     <g id="text_10">
      <!-- 2023-01 -->
      <g transform="translate(1324.813874 381.55725)scale(0.1 -0.1)">
       <defs>
        <path id="WenQuanYiZenHei-33" d="M 3588 1231 
Q 3588 494 2875 144 
Q 2450 -63 1925 -63 
Q 1044 -63 556 488 
Q 356 706 256 1000 
L 769 1169 
Q 994 375 1913 375 
Q 2631 375 2900 788 
Q 3019 975 3019 1231 
Q 3019 1638 2638 1881 
Q 2325 2081 1613 2069 
L 1338 2069 
L 1338 2494 
Q 1969 2494 2094 2506 
Q 2325 2544 2463 2613 
Q 2763 2756 2844 3100 
Q 2863 3169 2863 3244 
Q 2863 3744 2381 3944 
L 2163 4006 
Q 2056 4025 1931 4025 
Q 1388 4025 1075 3631 
Q 969 3488 906 3313 
L 419 3456 
Q 675 4150 1400 4369 
Q 1669 4456 1975 4456 
Q 2694 4456 3106 4050 
Q 3419 3744 3419 3275 
Q 3419 2813 3025 2513 
Q 2825 2356 2575 2319 
L 2575 2306 
Q 3181 2213 3450 1769 
Q 3588 1525 3588 1231 
z
" transform="scale(0.015625)"/>
       </defs>
       <use xlink:href="#WenQuanYiZenHei-32"/>
       <use xlink:href="#WenQuanYiZenHei-30" x="59.960938"/>
       <use xlink:href="#WenQuanYiZenHei-32" x="119.921875"/>
       <use xlink:href="#WenQuanYiZenHei-33" x="179.882812"/>
       <use xlink:href="#WenQuanYiZenHei-2d" x="239.84375"/>
       <use xlink:href="#WenQuanYiZenHei-30" x="269.824219"/>
       <use xlink:href="#WenQuanYiZenHei-31" x="329.785156"/>
      </g>
     </g>
    </g>
   </g>
   <g id="matplotlib.axis_2">
    <g id="ytick_1">
     <g id="line2d_11">
      <defs>
       <path id="md660931383" d="M 0 0 
L -3.5 0 
" style="stroke: #000000; stroke-width: 0.8"/>
      </defs>
      <g>
       <use xlink:href="#md660931383" x="32.190625" y="348.267478" style="stroke: #000000; stroke-width: 0.8"/>
      </g>
     </g>
     <g id="text_11">
      <!-- 0 -->
      <g transform="translate(19.19375 351.695603)scale(0.1 -0.1)">
       <use xlink:href="#WenQuanYiZenHei-30"/>
      </g>
     </g>
    </g>
    <g id="ytick_2">
     <g id="line2d_12">
      <g>
       <use xlink:href="#md660931383" x="32.190625" y="290.047463" style="stroke: #000000; stroke-width: 0.8"/>
      </g>
     </g>
     <g id="text_12">
      <!-- 50 -->
      <g transform="translate(13.196875 293.475588)scale(0.1 -0.1)">
       <use xlink:href="#WenQuanYiZenHei-35"/>
       <use xlink:href="#WenQuanYiZenHei-30" x="59.960938"/>
      </g>
     </g>
    </g>
    <g id="ytick_3">
     <g id="line2d_13">
      <g>
       <use xlink:href="#md660931383" x="32.190625" y="231.827448" style="stroke: #000000; stroke-width: 0.8"/>
      </g>
     </g>
     <g id="text_13">
      <!-- 100 -->
      <g transform="translate(7.2 235.255573)scale(0.1 -0.1)">
       <use xlink:href="#WenQuanYiZenHei-31"/>
       <use xlink:href="#WenQuanYiZenHei-30" x="59.960938"/>
       <use xlink:href="#WenQuanYiZenHei-30" x="119.921875"/>
      </g>
     </g>
    </g>
    <g id="ytick_4">
     <g id="line2d_14">
      <g>
       <use xlink:href="#md660931383" x="32.190625" y="173.607432" style="stroke: #000000; stroke-width: 0.8"/>
      </g>
     </g>
     <g id="text_14">
      <!-- 150 -->
      <g transform="translate(7.2 177.035557)scale(0.1 -0.1)">
       <use xlink:href="#WenQuanYiZenHei-31"/>
       <use xlink:href="#WenQuanYiZenHei-35" x="59.960938"/>
       <use xlink:href="#WenQuanYiZenHei-30" x="119.921875"/>
      </g>
     </g>
    </g>
    <g id="ytick_5">
     <g id="line2d_15">
      <g>
       <use xlink:href="#md660931383" x="32.190625" y="115.387417" style="stroke: #000000; stroke-width: 0.8"/>
      </g>
     </g>
     <g id="text_15">
      <!-- 200 -->
      <g transform="translate(7.2 118.815542)scale(0.1 -0.1)">
       <use xlink:href="#WenQuanYiZenHei-32"/>
       <use xlink:href="#WenQuanYiZenHei-30" x="59.960938"/>
       <use xlink:href="#WenQuanYiZenHei-30" x="119.921875"/>
      </g>
     </g>
    </g>
    <g id="ytick_6">
     <g id="line2d_16">
      <g>
       <use xlink:href="#md660931383" x="32.190625" y="57.167402" style="stroke: #000000; stroke-width: 0.8"/>
      </g>
     </g>
     <g id="text_16">
      <!-- 250 -->
      <g transform="translate(7.2 60.595527)scale(0.1 -0.1)">
       <use xlink:href="#WenQuanYiZenHei-32"/>
       <use xlink:href="#WenQuanYiZenHei-35" x="59.960938"/>
       <use xlink:href="#WenQuanYiZenHei-30" x="119.921875"/>
      </g>
     </g>
    </g>
   </g>
   <g id="line2d_17">
    <path d="M 93.063352 348.267478 
L 94.228381 347.103078 
L 95.393409 341.281076 
L 96.558437 348.267478 
L 97.723465 343.609877 
L 98.888494 343.609877 
L 100.053522 347.103078 
L 101.21855 344.774277 
L 102.383578 347.103078 
L 103.548607 344.774277 
L 104.713635 343.609877 
L 105.878663 340.116676 
L 107.043692 347.103078 
L 108.20872 340.116676 
L 109.373748 343.609877 
L 110.538776 343.609877 
L 111.703805 345.938678 
L 112.868833 345.938678 
L 114.033861 343.609877 
L 115.198889 348.267478 
L 116.363918 345.938678 
L 117.528946 347.103078 
L 118.693974 343.609877 
L 121.024031 345.938678 
L 122.189059 345.938678 
L 123.354087 347.103078 
L 124.519116 345.938678 
L 125.684144 348.267478 
L 164.130077 348.267478 
L 165.295105 345.938678 
L 166.460133 334.294675 
L 167.625162 344.774277 
L 169.955218 347.103078 
L 171.120247 345.938678 
L 172.285275 336.623475 
L 173.450303 343.609877 
L 174.615331 341.281076 
L 175.78036 348.267478 
L 178.110416 348.267478 
L 179.275444 347.103078 
L 180.440473 344.774277 
L 181.605501 344.774277 
L 182.770529 345.938678 
L 183.935558 345.938678 
L 185.100586 316.82867 
L 186.265614 308.677868 
L 187.430642 347.103078 
L 188.595671 348.267478 
L 189.760699 348.267478 
L 190.925727 344.774277 
L 192.090755 348.267478 
L 194.420812 348.267478 
L 195.58584 347.103078 
L 196.750869 348.267478 
L 199.080925 348.267478 
L 200.245953 344.774277 
L 201.410982 347.103078 
L 202.57601 348.267478 
L 203.741038 347.103078 
L 204.906066 348.267478 
L 206.071095 347.103078 
L 207.236123 347.103078 
L 208.401151 348.267478 
L 217.721378 348.267478 
L 218.886406 340.116676 
L 220.051434 347.103078 
L 221.216462 348.267478 
L 225.876575 348.267478 
L 227.041604 343.609877 
L 228.206632 344.774277 
L 229.37166 348.267478 
L 231.701717 348.267478 
L 232.866745 347.103078 
L 234.031773 348.267478 
L 235.196802 336.623475 
L 237.526858 348.267478 
L 242.186971 348.267478 
L 243.352 344.774277 
L 244.517028 348.267478 
L 252.672226 348.267478 
L 253.837254 345.938678 
L 255.002282 348.267478 
L 259.662395 348.267478 
L 260.827424 347.103078 
L 261.992452 348.267478 
L 282.962961 348.267478 
L 284.127989 347.103078 
L 285.293017 347.103078 
L 286.458046 343.609877 
L 287.623074 348.267478 
L 289.95313 348.267478 
L 291.118159 347.103078 
L 292.283187 343.609877 
L 293.448215 348.267478 
L 302.768441 348.267478 
L 303.93347 347.103078 
L 305.098498 348.267478 
L 306.263526 347.103078 
L 307.428555 342.445477 
L 308.593583 345.938678 
L 309.758611 348.267478 
L 326.069007 348.267478 
L 327.234035 347.103078 
L 328.399063 348.267478 
L 329.564092 348.267478 
L 330.72912 347.103078 
L 331.894148 348.267478 
L 349.369572 348.267478 
L 350.534601 347.103078 
L 351.699629 348.267478 
L 372.670138 348.267478 
L 373.835166 345.938678 
L 375.000194 348.267478 
L 380.825336 348.267478 
L 381.990364 344.774277 
L 383.155392 348.267478 
L 388.980534 348.267478 
L 390.145562 345.938678 
L 391.31059 348.267478 
L 397.135732 348.267478 
L 398.30076 347.103078 
L 399.465788 347.103078 
L 400.630816 348.267478 
L 401.795845 348.267478 
L 402.960873 342.445477 
L 404.125901 348.267478 
L 413.446127 348.267478 
L 414.611156 345.938678 
L 415.776184 347.103078 
L 416.941212 347.103078 
L 418.10624 338.952276 
L 419.271269 348.267478 
L 420.436297 347.103078 
L 421.601325 344.774277 
L 422.766354 348.267478 
L 423.931382 343.609877 
L 425.09641 345.938678 
L 426.261438 347.103078 
L 428.591495 344.774277 
L 429.756523 348.267478 
L 430.921551 345.938678 
L 432.08658 348.267478 
L 433.251608 348.267478 
L 434.416636 347.103078 
L 435.581665 347.103078 
L 436.746693 348.267478 
L 441.406806 348.267478 
L 442.571834 347.103078 
L 443.736862 348.267478 
L 444.901891 348.267478 
L 446.066919 345.938678 
L 447.231947 348.267478 
L 448.396976 347.103078 
L 449.562004 348.267478 
L 450.727032 337.787875 
L 451.89206 348.267478 
L 454.222117 348.267478 
L 455.387145 344.774277 
L 456.552173 343.609877 
L 457.717202 345.938678 
L 458.88223 347.103078 
L 460.047258 344.774277 
L 461.212287 348.267478 
L 462.377315 348.267478 
L 463.542343 344.774277 
L 464.707371 348.267478 
L 465.8724 348.267478 
L 467.037428 347.103078 
L 468.202456 348.267478 
L 470.532513 348.267478 
L 471.697541 347.103078 
L 472.862569 343.609877 
L 474.027598 348.267478 
L 477.522682 348.267478 
L 478.687711 345.938678 
L 479.852739 341.281076 
L 481.017767 345.938678 
L 482.182796 348.267478 
L 486.842909 348.267478 
L 488.007937 341.281076 
L 489.172965 347.103078 
L 491.503022 344.774277 
L 492.66805 348.267478 
L 493.833078 348.267478 
L 494.998107 347.103078 
L 496.163135 347.103078 
L 497.328163 348.267478 
L 542.764266 348.267478 
L 543.929294 347.103078 
L 545.094322 348.267478 
L 568.394888 348.267478 
L 569.559916 347.103078 
L 570.724944 348.267478 
L 575.385057 348.267478 
L 576.550086 347.103078 
L 577.715114 348.267478 
L 583.540255 348.267478 
L 584.705284 347.103078 
L 585.870312 348.267478 
L 587.03534 348.267478 
L 588.200368 347.103078 
L 589.365397 348.267478 
L 591.695453 348.267478 
L 592.860481 344.774277 
L 594.02551 348.267478 
L 596.355566 348.267478 
L 597.520595 347.103078 
L 598.685623 348.267478 
L 601.015679 348.267478 
L 602.180708 347.103078 
L 603.345736 348.267478 
L 604.510764 348.267478 
L 605.675792 347.103078 
L 606.840821 348.267478 
L 614.996019 348.267478 
L 616.161047 347.103078 
L 617.326075 347.103078 
L 618.491103 348.267478 
L 626.646301 348.267478 
L 627.81133 347.103078 
L 628.976358 348.267478 
L 633.636471 348.267478 
L 634.801499 347.103078 
L 635.966528 348.267478 
L 637.131556 347.103078 
L 638.296584 348.267478 
L 645.286754 348.267478 
L 646.451782 347.103078 
L 647.61681 348.267478 
L 648.781839 348.267478 
L 649.946867 347.103078 
L 651.111895 348.267478 
L 658.102065 348.267478 
L 659.267093 347.103078 
L 660.432121 348.267478 
L 661.59715 348.267478 
L 662.762178 347.103078 
L 663.927206 348.267478 
L 665.092234 348.267478 
L 666.257263 347.103078 
L 667.422291 348.267478 
L 670.917376 348.267478 
L 672.082404 347.103078 
L 673.247432 348.267478 
L 675.577489 348.267478 
L 676.742517 345.938678 
L 677.907545 348.267478 
L 682.567658 348.267478 
L 683.732687 344.774277 
L 684.897715 348.267478 
L 691.887885 348.267478 
L 693.052913 347.103078 
L 694.217941 348.267478 
L 715.18845 348.267478 
L 716.353478 344.774277 
L 717.518507 348.267478 
L 722.17862 348.267478 
L 723.343648 347.103078 
L 724.508676 347.103078 
L 725.673705 348.267478 
L 730.333818 348.267478 
L 731.498846 345.938678 
L 732.663874 345.938678 
L 733.828903 348.267478 
L 738.489016 348.267478 
L 739.654044 345.938678 
L 740.819072 344.774277 
L 741.9841 348.267478 
L 744.314157 348.267478 
L 745.479185 347.103078 
L 746.644214 348.267478 
L 747.809242 348.267478 
L 748.97427 347.103078 
L 750.139298 348.267478 
L 759.459525 348.267478 
L 760.624553 347.103078 
L 761.789581 348.267478 
L 762.954609 347.103078 
L 764.119638 348.267478 
L 779.265005 348.267478 
L 780.430033 345.938678 
L 781.595062 348.267478 
L 787.420203 348.267478 
L 788.585231 345.938678 
L 789.75026 348.267478 
L 803.730599 348.267478 
L 804.895627 345.938678 
L 806.060655 348.267478 
L 809.55574 348.267478 
L 810.720769 347.103078 
L 811.885797 348.267478 
L 813.050825 348.267478 
L 814.215853 347.103078 
L 815.380882 348.267478 
L 821.206023 348.267478 
L 822.371051 347.103078 
L 823.53608 348.267478 
L 824.701108 348.267478 
L 825.866136 347.103078 
L 827.031164 348.267478 
L 828.196193 348.267478 
L 829.361221 347.103078 
L 830.526249 348.267478 
L 831.691277 345.938678 
L 832.856306 338.952276 
L 834.021334 345.938678 
L 835.186362 329.637073 
L 836.351391 341.281076 
L 837.516419 340.116676 
L 838.681447 326.143872 
L 839.846475 329.637073 
L 841.011504 311.006668 
L 842.176532 340.116676 
L 843.34156 324.979472 
L 844.506588 323.815072 
L 845.671617 334.294675 
L 848.001673 345.938678 
L 849.166702 341.281076 
L 850.33173 345.938678 
L 851.496758 345.938678 
L 853.826815 348.267478 
L 854.991843 345.938678 
L 856.156871 348.267478 
L 858.486928 348.267478 
L 859.651956 347.103078 
L 860.816984 343.609877 
L 861.982013 348.267478 
L 878.292408 348.267478 
L 879.457437 324.979472 
L 880.622465 323.815072 
L 881.787493 242.30705 
L 882.952521 286.554262 
L 884.11755 283.061061 
L 885.282578 277.23906 
L 886.447606 313.335469 
L 887.612635 315.66427 
L 888.777663 284.225461 
L 889.942691 308.677868 
L 891.107719 299.362665 
L 892.272748 320.321871 
L 893.437776 330.801474 
L 895.767832 342.445477 
L 896.932861 342.445477 
L 898.097889 344.774277 
L 899.262917 345.938678 
L 900.427946 343.609877 
L 901.592974 347.103078 
L 902.758002 348.267478 
L 903.92303 340.116676 
L 905.088059 348.267478 
L 907.418115 348.267478 
L 908.583143 347.103078 
L 909.748172 348.267478 
L 920.233426 348.267478 
L 921.398454 342.445477 
L 922.563483 348.267478 
L 970.329642 348.267478 
L 971.49467 340.116676 
L 972.659699 344.774277 
L 973.824727 322.650671 
L 974.989755 294.705064 
L 976.154783 272.581458 
L 977.319812 311.006668 
L 978.48484 324.979472 
L 979.649868 293.540664 
L 980.814896 301.691466 
L 981.979925 313.335469 
L 983.144953 311.006668 
L 984.309981 304.020267 
L 985.47501 335.459075 
L 986.640038 331.965874 
L 987.805066 329.637073 
L 988.970094 340.116676 
L 990.135123 337.787875 
L 991.300151 338.952276 
L 992.465179 337.787875 
L 993.630207 340.116676 
L 994.795236 345.938678 
L 995.960264 344.774277 
L 997.125292 344.774277 
L 999.455349 347.103078 
L 1000.620377 347.103078 
L 1001.785405 348.267478 
L 1005.28049 348.267478 
L 1006.445518 340.116676 
L 1007.610547 348.267478 
L 1008.775575 348.267478 
L 1009.940603 345.938678 
L 1011.105632 345.938678 
L 1012.27066 348.267478 
L 1014.600716 348.267478 
L 1015.765745 343.609877 
L 1016.930773 348.267478 
L 1019.260829 348.267478 
L 1020.425858 347.103078 
L 1021.590886 347.103078 
L 1022.755914 348.267478 
L 1026.250999 348.267478 
L 1027.416027 347.103078 
L 1028.581056 348.267478 
L 1030.911112 345.938678 
L 1032.07614 348.267478 
L 1034.406197 348.267478 
L 1035.571225 347.103078 
L 1036.736254 348.267478 
L 1037.901282 348.267478 
L 1039.06631 345.938678 
L 1041.396367 348.267478 
L 1042.561395 347.103078 
L 1043.726423 347.103078 
L 1044.891451 348.267478 
L 1046.05648 347.103078 
L 1047.221508 348.267478 
L 1048.386536 341.281076 
L 1049.551565 341.281076 
L 1050.716593 336.623475 
L 1051.881621 340.116676 
L 1053.046649 340.116676 
L 1054.211678 337.787875 
L 1055.376706 344.774277 
L 1056.541734 341.281076 
L 1057.706762 345.938678 
L 1058.871791 347.103078 
L 1060.036819 347.103078 
L 1061.201847 348.267478 
L 1064.696932 348.267478 
L 1065.86196 347.103078 
L 1067.026989 348.267478 
L 1094.987667 348.267478 
L 1096.152695 344.774277 
L 1097.317724 335.459075 
L 1098.482752 348.267478 
L 1099.64778 316.82867 
L 1100.812809 324.979472 
L 1101.977837 307.513468 
L 1103.142865 305.184667 
L 1104.307893 330.801474 
L 1105.472922 326.143872 
L 1106.63795 257.444254 
L 1107.802978 316.82867 
L 1108.968006 330.801474 
L 1111.298063 333.130274 
L 1112.463091 341.281076 
L 1113.62812 342.445477 
L 1114.793148 347.103078 
L 1115.958176 348.267478 
L 1117.123204 348.267478 
L 1118.288233 345.938678 
L 1119.453261 347.103078 
L 1120.618289 330.801474 
L 1121.783317 348.267478 
L 1128.773487 348.267478 
L 1131.103544 345.938678 
L 1133.4336 345.938678 
L 1134.598628 348.267478 
L 1135.763657 343.609877 
L 1136.928685 343.609877 
L 1138.093713 334.294675 
L 1139.258742 337.787875 
L 1140.42377 344.774277 
L 1141.588798 345.938678 
L 1142.753826 341.281076 
L 1143.918855 347.103078 
L 1145.083883 343.609877 
L 1146.248911 344.774277 
L 1147.413939 348.267478 
L 1148.578968 344.774277 
L 1149.743996 345.938678 
L 1150.909024 348.267478 
L 1152.074053 341.281076 
L 1153.239081 345.938678 
L 1155.569137 348.267478 
L 1163.724335 348.267478 
L 1164.889364 347.103078 
L 1166.054392 340.116676 
L 1167.21942 338.952276 
L 1168.384448 334.294675 
L 1169.549477 338.952276 
L 1170.714505 322.650671 
L 1171.879533 334.294675 
L 1173.044561 334.294675 
L 1174.20959 329.637073 
L 1175.374618 316.82867 
L 1176.539646 340.116676 
L 1177.704675 337.787875 
L 1178.869703 342.445477 
L 1180.034731 338.952276 
L 1181.199759 343.609877 
L 1183.529816 348.267478 
L 1184.694844 342.445477 
L 1185.859872 343.609877 
L 1187.024901 347.103078 
L 1188.189929 343.609877 
L 1191.685014 347.103078 
L 1192.850042 344.774277 
L 1194.01507 343.609877 
L 1195.180099 338.952276 
L 1196.345127 341.281076 
L 1197.510155 348.267478 
L 1198.675184 338.952276 
L 1199.840212 340.116676 
L 1201.00524 331.965874 
L 1202.170268 345.938678 
L 1203.335297 343.609877 
L 1204.500325 331.965874 
L 1205.665353 331.965874 
L 1206.830381 302.855866 
L 1207.99541 280.73226 
L 1209.160438 269.088257 
L 1210.325466 299.362665 
L 1213.820551 330.801474 
L 1214.985579 338.952276 
L 1216.150608 340.116676 
L 1217.315636 340.116676 
L 1218.480664 343.609877 
L 1220.810721 341.281076 
L 1221.975749 345.938678 
L 1223.140777 345.938678 
L 1224.305806 348.267478 
L 1225.470834 342.445477 
L 1226.635862 348.267478 
L 1227.80089 343.609877 
L 1228.965919 341.281076 
L 1230.130947 347.103078 
L 1231.295975 345.938678 
L 1232.461003 348.267478 
L 1233.626032 345.938678 
L 1234.79106 347.103078 
L 1235.956088 326.143872 
L 1237.121117 316.82867 
L 1238.286145 246.964652 
L 1239.451173 170.114231 
L 1240.616201 272.581458 
L 1241.78123 317.99307 
L 1242.946258 330.801474 
L 1244.111286 50.181 
L 1245.276314 103.743414 
L 1246.441343 205.046241 
L 1247.606371 177.100633 
L 1248.771399 292.376264 
L 1249.936428 284.225461 
L 1251.101456 283.061061 
L 1252.266484 291.211863 
L 1253.431512 333.130274 
L 1255.761569 326.143872 
L 1256.926597 317.99307 
L 1258.091625 313.335469 
L 1259.256654 316.82867 
L 1260.421682 308.677868 
L 1261.58671 312.171069 
L 1262.751739 311.006668 
L 1263.916767 322.650671 
L 1265.081795 307.513468 
L 1266.246823 312.171069 
L 1267.411852 304.020267 
L 1268.57688 348.267478 
L 1269.741908 321.486271 
L 1270.906936 323.815072 
L 1272.071965 320.321871 
L 1273.236993 330.801474 
L 1274.402021 93.263811 
L 1275.56705 69.975805 
L 1276.732078 257.444254 
L 1277.897106 297.033865 
L 1279.062134 279.56786 
L 1280.227163 163.12783 
L 1282.557219 221.347845 
L 1283.722247 231.827448 
L 1284.887276 243.471451 
L 1286.052304 215.525843 
L 1287.217332 253.951053 
L 1288.382361 250.457853 
L 1289.547389 251.622253 
L 1290.712417 222.512245 
L 1291.877445 217.854644 
L 1293.042474 212.032642 
L 1294.207502 232.991848 
L 1294.207502 232.991848 
" clip-path="url(#p80541f34f8)" style="fill: none; stroke: #0000ff; stroke-width: 1.5; stroke-linecap: square"/>
   </g>
   <g id="line2d_18">
    <path d="M 1054.211678 339.05409 
L 1055.376706 338.578737 
L 1056.541734 342.937378 
L 1057.706762 340.775109 
L 1058.871791 344.144778 
L 1060.036819 345.418427 
L 1061.201847 346.217427 
L 1062.366876 346.639658 
L 1063.531904 348.512908 
L 1064.696932 347.428897 
L 1065.86196 348.562612 
L 1067.026989 347.12151 
L 1068.192017 348.667322 
L 1069.357045 347.944835 
L 1070.522073 348.223697 
L 1071.687102 347.946768 
L 1072.85213 348.515977 
L 1074.017158 348.074931 
L 1075.182187 348.416672 
L 1076.347215 348.151877 
L 1077.512243 348.357051 
L 1078.677271 348.198073 
L 1079.8423 348.321256 
L 1081.007328 348.225809 
L 1082.172356 348.299765 
L 1084.502413 348.286863 
L 1087.997498 348.258461 
L 1096.152695 348.26899 
L 1097.317724 345.514449 
L 1098.482752 338.846196 
L 1099.64778 350.159894 
L 1100.812809 321.011996 
L 1101.977837 333.566275 
L 1103.142865 313.544255 
L 1104.307893 315.96081 
L 1105.472922 325.58138 
L 1106.63795 323.246115 
L 1107.802978 263.358477 
L 1108.968006 333.448132 
L 1110.133035 320.910248 
L 1111.298063 319.302354 
L 1112.463091 316.166895 
L 1113.62812 347.129953 
L 1114.793148 332.034682 
L 1115.958176 348.626577 
L 1117.123204 341.064087 
L 1118.288233 350.239443 
L 1119.453261 342.838001 
L 1120.618289 350.226343 
L 1121.783317 332.476626 
L 1122.948346 352.581 
L 1124.113374 343.729716 
L 1125.278402 347.022209 
L 1126.443431 343.912865 
L 1127.608459 351.641614 
L 1128.773487 345.653058 
L 1129.938515 350.29324 
L 1131.103544 345.780548 
L 1132.268572 347.871783 
L 1133.4336 345.750479 
L 1134.598628 347.087547 
L 1135.763657 347.237691 
L 1136.928685 344.073777 
L 1138.093713 344.598565 
L 1139.258742 337.389897 
L 1140.42377 341.35668 
L 1141.588798 343.729908 
L 1142.753826 343.425172 
L 1143.918855 338.60149 
L 1145.083883 347.812509 
L 1146.248911 342.734338 
L 1147.413939 345.36576 
L 1148.578968 346.578659 
L 1149.743996 345.255955 
L 1150.909024 345.00219 
L 1152.074053 348.718975 
L 1153.239081 341.506933 
L 1154.404109 347.0912 
L 1155.569137 346.499186 
L 1156.734166 347.361195 
L 1157.899194 346.241518 
L 1159.064222 348.834231 
L 1160.22925 347.473702 
L 1161.394279 348.882529 
L 1162.559307 347.790911 
L 1163.724335 348.636742 
L 1164.889364 347.981357 
L 1166.054392 347.571891 
L 1167.21942 341.897348 
L 1168.384448 342.435505 
L 1169.549477 337.490528 
L 1170.714505 340.90871 
L 1171.879533 324.89767 
L 1173.044561 338.164709 
L 1174.20959 332.342845 
L 1175.374618 330.618635 
L 1176.539646 317.885004 
L 1177.704675 344.223185 
L 1178.869703 330.426473 
L 1180.034731 339.416142 
L 1181.199759 333.600071 
L 1182.364788 346.867868 
L 1183.529816 340.801764 
L 1184.694844 348.901314 
L 1185.859872 339.152089 
L 1187.024901 347.214726 
L 1188.189929 345.440101 
L 1189.354957 344.780798 
L 1190.519986 343.303735 
L 1191.685014 347.051096 
L 1192.850042 345.748263 
L 1194.01507 344.653988 
L 1195.180099 344.269632 
L 1196.345127 341.03296 
L 1197.510155 343.177287 
L 1198.675184 346.94133 
L 1199.840212 338.111015 
L 1201.00524 341.211588 
L 1202.170268 335.24555 
L 1203.335297 347.24941 
L 1204.500325 339.337865 
L 1205.665353 333.771119 
L 1206.830381 334.220722 
L 1209.160438 296.497939 
L 1210.325466 288.11737 
L 1211.490495 305.991206 
L 1212.655523 298.512076 
L 1214.985579 317.417157 
L 1216.150608 332.614626 
L 1217.315636 331.124144 
L 1218.480664 338.692638 
L 1219.645692 340.841092 
L 1220.810721 342.499607 
L 1221.975749 340.202252 
L 1223.140777 346.03189 
L 1224.305806 344.224538 
L 1225.470834 346.862421 
L 1226.635862 342.028733 
L 1227.80089 349.364193 
L 1228.965919 342.975148 
L 1230.130947 343.443186 
L 1231.295975 346.335175 
L 1232.461003 346.189952 
L 1233.626032 345.706997 
L 1234.79106 345.969639 
L 1235.956088 347.212263 
L 1237.121117 330.433651 
L 1238.286145 327.444867 
L 1239.451173 270.172364 
L 1240.616201 219.686606 
L 1241.78123 297.808293 
L 1242.946258 294.692862 
L 1244.111286 286.694341 
L 1245.276314 80.142203 
L 1246.441343 207.556626 
L 1247.606371 225.057797 
L 1248.771399 165.637365 
L 1249.936428 219.938911 
L 1251.101456 261.328742 
L 1252.266484 249.996581 
L 1253.431512 285.193221 
L 1254.596541 327.399807 
L 1255.761569 306.82972 
L 1256.926597 320.71575 
L 1258.091625 315.090965 
L 1259.256654 324.210418 
L 1260.421682 315.90871 
L 1261.58671 314.212854 
L 1262.751739 311.242966 
L 1263.916767 313.46418 
L 1265.081795 319.473781 
L 1266.246823 306.159654 
L 1267.411852 314.698237 
L 1268.57688 306.029978 
L 1269.741908 343.965183 
L 1270.906936 308.496726 
L 1272.071965 326.436978 
L 1273.236993 319.146586 
L 1274.402021 338.331565 
L 1275.56705 133.125365 
L 1276.732078 174.15291 
L 1277.897106 279.247246 
L 1279.062134 250.591865 
L 1280.227163 199.475908 
L 1281.392191 180.674486 
L 1282.557219 235.339484 
L 1283.722247 234.914644 
L 1284.887276 221.80049 
L 1286.052304 217.44853 
L 1287.217332 219.951655 
L 1288.382361 248.560914 
L 1289.547389 245.570331 
L 1290.712417 244.259512 
L 1291.877445 223.976164 
L 1293.042474 234.655291 
L 1294.207502 218.751008 
L 1294.207502 218.751008 
" clip-path="url(#p80541f34f8)" style="fill: none; stroke: #ffa500; stroke-width: 1.5; stroke-linecap: square"/>
   </g>
   <g id="line2d_19">
    <path d="M 1295.37253 238.1038 
L 1296.537558 225.816234 
L 1297.702587 225.143646 
L 1298.867615 223.555344 
L 1300.032643 230.79064 
L 1301.197672 228.667767 
L 1302.3627 227.743713 
L 1303.527728 226.316019 
L 1304.692756 227.228547 
L 1305.857785 228.299702 
L 1307.022813 227.800658 
L 1308.187841 227.611628 
L 1309.352869 227.207201 
L 1310.517898 227.665409 
" clip-path="url(#p80541f34f8)" style="fill: none; stroke: #ff0000; stroke-width: 1.5; stroke-linecap: square"/>
   </g>
   <g id="patch_3">
    <path d="M 32.190625 367.701 
L 32.190625 35.061 
" style="fill: none; stroke: #000000; stroke-width: 0.8; stroke-linejoin: miter; stroke-linecap: square"/>
   </g>
   <g id="patch_4">
    <path d="M 1371.390625 367.701 
L 1371.390625 35.061 
" style="fill: none; stroke: #000000; stroke-width: 0.8; stroke-linejoin: miter; stroke-linecap: square"/>
   </g>
   <g id="patch_5">
    <path d="M 32.190625 367.701 
L 1371.390625 367.701 
" style="fill: none; stroke: #000000; stroke-width: 0.8; stroke-linejoin: miter; stroke-linecap: square"/>
   </g>
   <g id="patch_6">
    <path d="M 32.190625 35.061 
L 1371.390625 35.061 
" style="fill: none; stroke: #000000; stroke-width: 0.8; stroke-linejoin: miter; stroke-linecap: square"/>
   </g>
   <g id="text_17">
    <!-- 每日新增预测 - 内蒙古 -->
    <g transform="translate(642.393438 17.041875)scale(0.12 -0.12)">
     <defs>
      <path id="WenQuanYiZenHei-6bcf" d="M 6138 2181 
Q 6113 1988 6138 1800 
Q 5788 1819 5438 1819 
L 4975 1819 
L 4863 738 
L 5806 738 
L 5806 394 
L 4831 394 
L 4775 -144 
Q 4719 -563 4350 -725 
Q 4013 -856 3550 -825 
L 3288 -819 
Q 3331 -663 3275 -519 
Q 3219 -375 3113 -288 
Q 3381 -313 3759 -303 
Q 4138 -294 4231 -238 
Q 4338 -163 4350 88 
L 4381 394 
L 1025 394 
L 1244 1819 
L 813 1819 
Q 463 1819 113 1800 
Q 138 1988 113 2181 
Q 463 2163 813 2163 
L 1294 2163 
L 1488 3431 
L 1488 3581 
L 1506 3581 
L 1513 3613 
L 1713 3581 
L 5156 3581 
L 5013 2163 
L 5438 2163 
Q 5788 2163 6138 2181 
z
M 5588 4463 
Q 5569 4269 5588 4081 
Q 5244 4100 4894 4100 
L 1813 4100 
Q 1344 3463 606 2788 
Q 481 2988 256 3069 
Q 744 3494 1116 3972 
Q 1488 4450 1919 5181 
Q 2119 5044 2344 4950 
Q 2213 4688 2050 4444 
L 4894 4444 
Q 5238 4444 5588 4463 
z
M 2844 3238 
L 1906 3238 
L 1744 2163 
L 3244 2163 
L 2581 3038 
L 2844 3238 
z
M 3250 2163 
L 4563 2163 
L 4669 3238 
L 3044 3238 
L 3638 2456 
L 3250 2163 
z
M 2944 1819 
Q 3275 1394 3550 938 
L 3213 738 
L 4419 738 
L 4525 1819 
L 2944 1819 
z
M 2656 1819 
L 1694 1819 
L 1525 738 
L 3094 738 
Q 2806 1219 2450 1650 
L 2656 1819 
z
" transform="scale(0.015625)"/>
      <path id="WenQuanYiZenHei-65e5" d="M 1494 -775 
Q 1244 -750 988 -775 
Q 1013 -313 1013 156 
L 1013 4875 
L 5269 4875 
L 5269 -763 
L 4813 -763 
L 4813 156 
L 1469 156 
Q 1469 -313 1494 -775 
z
M 4813 2700 
L 4813 4500 
L 1469 4500 
L 1469 2700 
L 4813 2700 
z
M 4813 531 
L 4813 2325 
L 1469 2325 
L 1469 531 
L 4813 531 
z
" transform="scale(0.015625)"/>
      <path id="WenQuanYiZenHei-65b0" d="M 5419 -763 
Q 5188 -738 4963 -763 
Q 4981 -344 4981 75 
L 4981 2819 
L 4188 2819 
L 4188 1706 
Q 4188 63 3163 -738 
Q 3019 -519 2769 -469 
Q 3769 131 3769 1706 
L 3769 4769 
L 3875 4769 
L 3844 4831 
L 4294 4781 
Q 4438 4769 4894 4816 
Q 5350 4863 5512 4931 
Q 5675 5000 5763 5094 
Q 5850 4881 5981 4694 
Q 5713 4544 5263 4519 
L 4188 4438 
L 4188 3100 
L 5563 3100 
Q 5850 3100 6131 3113 
Q 6119 2956 6131 2806 
L 5394 2819 
L 5394 75 
Q 5394 -344 5419 -763 
z
M 2981 213 
Q 2656 744 2256 1225 
L 2606 1513 
Q 3025 1006 3369 450 
L 2981 213 
z
M 1169 1525 
Q 1375 1419 1594 1363 
Q 1281 488 469 -469 
Q 331 -300 119 -244 
Q 575 263 888 900 
Q 1038 1206 1169 1525 
z
M 1825 6 
L 1825 1769 
L 1081 1769 
Q 794 1769 513 1756 
Q 525 1913 513 2063 
Q 794 2050 1081 2050 
L 1825 2050 
L 1825 2775 
L 994 2775 
Q 706 2775 425 2763 
Q 438 2919 425 3075 
Q 706 3056 994 3056 
L 1825 3056 
L 1825 3088 
L 1906 3088 
Q 2288 3656 2588 4381 
Q 2794 4269 3013 4206 
Q 2800 3675 2381 3056 
L 3013 3056 
Q 3294 3056 3581 3075 
Q 3563 2919 3581 2763 
Q 3294 2775 3013 2775 
L 2238 2775 
L 2238 2050 
L 2925 2050 
Q 3206 2050 3494 2063 
Q 3475 1913 3494 1756 
Q 3206 1769 2925 1769 
L 2238 1769 
L 2238 -156 
Q 2238 -413 2075 -581 
Q 1844 -794 1306 -794 
Q 1363 -519 1188 -288 
Q 1338 -313 1534 -316 
Q 1731 -319 1778 -278 
Q 1825 -238 1825 6 
z
M 1875 3388 
L 1500 3131 
L 825 4088 
L 1200 4350 
L 1875 3388 
z
M 3419 4713 
Q 3400 4563 3419 4406 
Q 3131 4419 2850 4419 
L 1125 4419 
Q 838 4419 556 4406 
Q 569 4563 556 4713 
Q 838 4700 1125 4700 
L 1763 4700 
L 1388 5088 
L 1719 5406 
L 2288 4813 
L 2175 4700 
L 2850 4700 
Q 3131 4700 3419 4713 
z
" transform="scale(0.015625)"/>
      <path id="WenQuanYiZenHei-589e" d="M 3138 -769 
Q 2913 -744 2688 -769 
Q 2706 -356 2706 56 
L 2706 1719 
L 5706 1719 
L 5706 -756 
L 5300 -756 
L 5300 -338 
L 3119 -338 
Q 3125 -550 3138 -769 
z
M 5113 3569 
Q 5344 3606 5563 3688 
Q 5669 3175 5256 2694 
Q 5113 2519 4975 2506 
Q 4831 2725 4588 2813 
Q 4806 2831 4997 3068 
Q 5188 3306 5113 3569 
z
M 3850 2763 
L 3469 2538 
L 2925 3456 
L 3313 3681 
L 3850 2763 
z
M 2400 2100 
Q 2469 3138 2400 4175 
L 3413 4175 
Q 3138 4550 2825 4888 
L 3156 5194 
Q 3581 4725 3938 4206 
L 3900 4175 
L 4456 4175 
Q 4863 4575 5131 5163 
Q 5325 5044 5538 4975 
Q 5369 4575 5013 4175 
L 6056 4175 
Q 5981 3138 6056 2100 
L 2400 2100 
z
M 5300 806 
L 5300 1450 
L 3113 1450 
Q 3113 1125 3113 806 
L 5300 806 
z
M 5300 563 
L 3113 563 
L 3113 -94 
L 5300 -94 
L 5300 563 
z
M 4431 3913 
L 4431 2363 
L 5650 2363 
L 5650 3913 
L 4756 3913 
L 4700 3856 
Q 4681 3888 4656 3913 
L 4431 3913 
z
M 4025 3913 
L 2806 3913 
L 2806 2363 
L 4025 2363 
L 4025 3913 
z
M -31 625 
Q 506 763 1006 975 
L 1006 3206 
L 669 3206 
Q 369 3206 75 3188 
Q 94 3356 75 3531 
Q 369 3513 669 3513 
L 1006 3513 
L 1006 4263 
Q 1006 4700 981 5131 
Q 1206 5106 1431 5131 
Q 1413 4700 1413 4263 
L 1413 3513 
L 2238 3531 
Q 2219 3356 2238 3188 
L 1413 3206 
L 1413 1163 
L 2150 1531 
L 2194 1256 
Q 1269 775 813 519 
L 194 144 
Q 138 438 -31 625 
z
" transform="scale(0.015625)"/>
      <path id="WenQuanYiZenHei-9884" d="M 1206 19 
L 1206 2888 
L 669 2888 
Q 356 2888 50 2869 
Q 63 3044 50 3213 
Q 363 3194 669 3194 
L 1250 3194 
Q 950 3631 606 4031 
L 963 4338 
L 1263 3975 
L 1913 4719 
L 731 4719 
Q 419 4719 106 4706 
Q 125 4875 106 5044 
Q 419 5031 731 5031 
L 2481 5031 
L 2544 4663 
Q 2394 4613 2256 4466 
Q 2119 4319 1525 3631 
Q 1656 3444 1788 3250 
L 1700 3194 
L 2700 3194 
L 2763 2825 
Q 2656 2819 2613 2763 
L 2100 2038 
L 1750 2288 
L 2175 2888 
L 1638 2888 
L 1638 -150 
Q 1638 -525 1363 -669 
Q 1075 -819 525 -813 
Q 594 -513 388 -294 
Q 575 -313 837 -316 
Q 1100 -319 1153 -272 
Q 1206 -225 1206 19 
z
M 5813 -888 
Q 5100 -225 4306 375 
L 4669 719 
Q 5481 106 6219 -575 
L 5813 -888 
z
M 2375 -906 
Q 2294 -631 2025 -506 
Q 2769 -431 3353 19 
Q 3938 469 3938 1069 
L 3938 2200 
Q 3938 2625 3913 3050 
Q 4188 3025 4456 3050 
Q 4431 2625 4431 2200 
L 4431 1069 
Q 4431 681 4225 319 
Q 3644 -606 2375 -906 
z
M 3444 488 
Q 3169 513 2894 488 
Q 2919 913 2919 1338 
L 2919 3675 
Q 3219 3675 3525 3675 
Q 3750 4013 3931 4525 
L 3238 4525 
Q 2888 4525 2538 4513 
Q 2556 4669 2538 4831 
Q 2888 4813 3238 4813 
L 5313 4813 
Q 5663 4813 6006 4831 
Q 5988 4669 6006 4513 
Q 5663 4525 5313 4525 
L 4481 4525 
Q 4388 4088 4088 3675 
L 5644 3675 
L 5644 513 
L 5144 513 
L 5144 3388 
L 3894 3388 
L 3875 3363 
Q 3863 3375 3844 3388 
Q 3631 3388 3413 3388 
L 3419 1338 
Q 3419 913 3444 488 
z
" transform="scale(0.015625)"/>
      <path id="WenQuanYiZenHei-6d4b" d="M 5450 138 
L 5450 4306 
Q 5450 4750 5425 5188 
Q 5663 5163 5906 5188 
Q 5881 4750 5881 4306 
L 5881 -38 
Q 5888 -569 5519 -719 
Q 5194 -831 4825 -813 
Q 4894 -519 4694 -281 
Q 4869 -306 5094 -309 
Q 5319 -313 5384 -256 
Q 5450 -200 5450 138 
z
M 4900 938 
Q 4663 963 4419 938 
Q 4444 1375 4444 1819 
L 4444 3381 
Q 4444 3819 4419 4263 
Q 4663 4238 4900 4263 
Q 4875 3819 4875 3381 
L 4875 1819 
Q 4875 1375 4900 938 
z
M 2750 2025 
L 2750 3038 
Q 2750 3481 2725 3919 
Q 2963 3894 3206 3919 
Q 3181 3481 3181 3038 
L 3181 2025 
Q 3181 1263 2919 625 
L 3231 956 
Q 3781 431 4256 -150 
L 3888 -456 
Q 3431 106 2906 600 
Q 2531 -288 1738 -769 
Q 1606 -519 1338 -450 
Q 1988 -156 2369 478 
Q 2750 1113 2750 2025 
z
M 2363 969 
Q 2119 994 1881 969 
Q 1906 1406 1906 1850 
L 1906 5038 
L 3956 5031 
L 3956 1200 
L 3525 1200 
L 3525 4713 
L 2338 4713 
L 2338 1850 
Q 2338 1406 2363 969 
z
M 663 -738 
Q 481 -588 206 -575 
Q 400 -69 606 581 
Q 813 1231 1200 2838 
L 1381 2706 
L 875 338 
L 663 -738 
z
M 1006 2856 
L 731 2550 
L 75 3400 
L 350 3713 
L 1006 2856 
z
M 1088 3913 
Q 781 4388 425 4800 
L 694 5125 
Q 1069 4688 1388 4188 
L 1088 3913 
z
" transform="scale(0.015625)"/>
      <path id="WenQuanYiZenHei-20" transform="scale(0.015625)"/>
      <path id="WenQuanYiZenHei-5185" d="M 1025 194 
Q 1025 -275 1044 -750 
Q 788 -725 531 -750 
Q 556 -275 556 194 
L 556 3950 
L 2788 3950 
L 2788 4313 
Q 2788 4788 2763 5256 
Q 3019 5231 3275 5256 
Q 3250 4788 3250 4313 
L 3250 3950 
L 5750 3950 
L 5750 -81 
Q 5750 -500 5463 -663 
Q 5156 -825 4550 -819 
Q 4625 -494 4400 -256 
Q 4606 -275 4881 -278 
Q 5156 -281 5225 -231 
Q 5288 -150 5288 119 
L 5288 3556 
L 3250 3556 
L 3250 3188 
L 4219 2194 
L 5169 1144 
L 4781 806 
L 3844 1844 
L 3156 2550 
Q 2963 1800 2400 1219 
Q 1838 638 1100 388 
Q 1075 475 1025 550 
L 1025 194 
z
M 2788 3556 
L 1025 3556 
L 1025 881 
Q 1788 1144 2288 1797 
Q 2788 2450 2788 3269 
L 2788 3556 
z
" transform="scale(0.015625)"/>
      <path id="WenQuanYiZenHei-8499" d="M 1044 2156 
Q 781 2156 525 2144 
Q 538 2288 525 2425 
Q 781 2413 1044 2413 
L 2681 2413 
Q 2713 2450 2731 2413 
L 5256 2413 
Q 5513 2413 5775 2425 
Q 5756 2288 5775 2144 
Q 5513 2156 5256 2156 
L 2988 2156 
Q 3413 1950 3663 1281 
Q 4169 1500 4644 1850 
L 5031 2144 
Q 5156 1956 5319 1794 
Q 4906 1438 4313 1138 
Q 4881 63 6056 -81 
Q 5875 -250 5844 -494 
Q 5256 -406 4775 -18 
Q 4294 369 3975 975 
L 3781 888 
Q 4056 -369 2863 -813 
L 2625 -900 
Q 2538 -656 2300 -550 
Q 2606 -500 2881 -362 
Q 3156 -225 3269 -94 
Q 3531 231 3400 794 
Q 2800 206 2031 -212 
Q 1263 -631 369 -744 
Q 369 -481 219 -275 
Q 1594 -125 2475 556 
Q 2856 863 3244 1281 
Q 3206 1363 3175 1431 
Q 2150 425 444 131 
Q 444 350 313 525 
Q 1063 631 1650 931 
Q 2238 1231 2906 1744 
L 3163 1456 
Q 3000 1763 2763 1806 
Q 2694 1819 2619 1806 
Q 1744 1138 444 994 
Q 456 1213 338 1394 
Q 913 1444 1384 1634 
Q 1856 1825 2338 2156 
L 1044 2156 
z
M 4994 3063 
L 4994 2806 
L 1894 2806 
Q 1638 2806 1375 2794 
Q 1388 2931 1375 3075 
Q 1638 3063 1894 3063 
L 4994 3063 
z
M 800 2825 
L 381 2825 
L 381 3756 
L 5850 3756 
L 5850 2825 
L 5438 2825 
L 5438 3475 
L 800 3475 
L 800 2825 
z
M 4175 3913 
Q 3938 3931 3706 3913 
Q 3725 4175 3725 4431 
L 2381 4431 
Q 2388 4169 2400 3913 
Q 2169 3931 1938 3913 
Q 1950 4175 1956 4431 
L 719 4431 
Q 419 4431 119 4419 
Q 131 4556 119 4694 
Q 419 4681 719 4681 
L 1956 4681 
Q 1950 4981 1938 5281 
Q 2169 5263 2400 5281 
Q 2381 4975 2381 4681 
L 3725 4681 
Q 3725 4988 3706 5294 
Q 3938 5275 4175 5294 
Q 4156 4981 4150 4681 
L 5531 4681 
Q 5831 4681 6131 4694 
Q 6119 4556 6131 4419 
Q 5831 4431 5531 4431 
L 4156 4431 
Q 4156 4169 4175 3913 
z
" transform="scale(0.015625)"/>
      <path id="WenQuanYiZenHei-53e4" d="M 1238 2169 
L 2894 2169 
L 2894 3519 
L 875 3519 
Q 494 3519 113 3500 
Q 138 3706 113 3913 
Q 494 3894 875 3894 
L 2894 3894 
L 2894 4331 
Q 2894 4794 2875 5263 
Q 3125 5231 3375 5263 
Q 3356 4794 3356 4331 
L 3356 3894 
L 5375 3894 
Q 5756 3894 6138 3913 
Q 6113 3706 6138 3500 
Q 5756 3519 5375 3519 
L 3356 3519 
L 3356 2169 
L 4988 2169 
L 4988 -756 
L 4531 -756 
L 4531 -231 
L 1713 -231 
Q 1719 -500 1731 -769 
Q 1481 -738 1231 -769 
Q 1250 -300 1250 163 
L 1238 2169 
z
M 4531 144 
L 4531 1794 
L 1700 1794 
L 1706 144 
L 4531 144 
z
" transform="scale(0.015625)"/>
     </defs>
     <use xlink:href="#WenQuanYiZenHei-6bcf"/>
     <use xlink:href="#WenQuanYiZenHei-65e5" x="100"/>
     <use xlink:href="#WenQuanYiZenHei-65b0" x="200"/>
     <use xlink:href="#WenQuanYiZenHei-589e" x="300"/>
     <use xlink:href="#WenQuanYiZenHei-9884" x="400"/>
     <use xlink:href="#WenQuanYiZenHei-6d4b" x="500"/>
     <use xlink:href="#WenQuanYiZenHei-20" x="600"/>
     <use xlink:href="#WenQuanYiZenHei-2d" x="629.980469"/>
     <use xlink:href="#WenQuanYiZenHei-20" x="659.960938"/>
     <use xlink:href="#WenQuanYiZenHei-5185" x="689.941406"/>
     <use xlink:href="#WenQuanYiZenHei-8499" x="789.941406"/>
     <use xlink:href="#WenQuanYiZenHei-53e4" x="889.941406"/>
    </g>
    <!-- ARIMA (4, 1, 1)x(0, 0, 0, 7) (R2 = 0.617690) -->
    <g transform="translate(583.182813 29.061)scale(0.12 -0.12)">
     <defs>
      <path id="WenQuanYiZenHei-41" d="M 3550 0 
L 2988 0 
L 2550 1281 
L 919 1281 
L 531 0 
L 69 0 
L 1494 4388 
L 2125 4388 
L 3550 0 
z
M 2425 1694 
L 1756 3800 
L 1075 1694 
L 2425 1694 
z
" transform="scale(0.015625)"/>
      <path id="WenQuanYiZenHei-52" d="M 3675 0 
L 3100 0 
L 2288 1900 
L 1069 1900 
L 1069 0 
L 519 0 
L 519 4388 
L 2163 4388 
Q 3006 4388 3400 3900 
Q 3581 3663 3625 3325 
Q 3631 3250 3631 3163 
Q 3631 2594 3219 2244 
Q 3038 2100 2813 2038 
L 3675 0 
z
M 3081 3169 
Q 3081 3825 2356 3906 
Q 2263 3919 2163 3919 
L 1069 3919 
L 1069 2350 
L 2100 2350 
Q 2906 2350 3044 2919 
Q 3081 3031 3081 3169 
z
" transform="scale(0.015625)"/>
      <path id="WenQuanYiZenHei-49" d="M 1100 0 
L 550 0 
L 550 4388 
L 1100 4388 
L 1100 0 
z
" transform="scale(0.015625)"/>
      <path id="WenQuanYiZenHei-4d" d="M 4756 0 
L 4206 0 
L 4206 3831 
L 4181 3831 
L 2788 0 
L 2419 0 
L 1000 3831 
L 975 3831 
L 975 0 
L 513 0 
L 513 4388 
L 1331 4388 
L 2656 875 
L 3950 4388 
L 4756 4388 
L 4756 0 
z
" transform="scale(0.015625)"/>
      <path id="WenQuanYiZenHei-28" d="M 1606 -1094 
L 1275 -1094 
Q 475 -100 338 1231 
Q 319 1438 319 1656 
Q 319 3031 1156 4244 
Q 1213 4313 1269 4388 
L 1600 4388 
Q 806 3169 794 1681 
Q 794 188 1606 -1094 
z
" transform="scale(0.015625)"/>
      <path id="WenQuanYiZenHei-34" d="M 3631 1025 
L 2913 1025 
L 2913 0 
L 2381 0 
L 2381 1025 
L 219 1025 
L 219 1388 
L 2225 4388 
L 2913 4388 
L 2913 1444 
L 3631 1444 
L 3631 1025 
z
M 2381 1444 
L 2381 3963 
L 788 1444 
L 2381 1444 
z
" transform="scale(0.015625)"/>
      <path id="WenQuanYiZenHei-2c" d="M 1363 75 
L 881 -825 
L 606 -825 
L 994 0 
L 656 0 
L 656 738 
L 1363 738 
L 1363 75 
z
" transform="scale(0.015625)"/>
      <path id="WenQuanYiZenHei-29" d="M 1600 1656 
Q 1600 306 869 -788 
Q 769 -950 644 -1094 
L 313 -1094 
Q 1125 188 1125 1681 
Q 1125 3169 338 4363 
Q 325 4375 319 4388 
L 650 4388 
Q 1525 3231 1594 1863 
Q 1600 1763 1600 1656 
z
" transform="scale(0.015625)"/>
      <path id="WenQuanYiZenHei-78" d="M 2806 0 
L 2213 0 
L 1394 1319 
L 544 0 
L 50 0 
L 1144 1681 
L 163 3250 
L 744 3250 
L 1431 2138 
L 2144 3250 
L 2631 3250 
L 1681 1794 
L 2806 0 
z
" transform="scale(0.015625)"/>
      <path id="WenQuanYiZenHei-37" d="M 3400 4056 
Q 1838 2175 1838 0 
L 1275 0 
Q 1269 1438 2056 2825 
Q 2381 3400 2825 3913 
L 444 3913 
L 500 4388 
L 3400 4388 
L 3400 4056 
z
" transform="scale(0.015625)"/>
      <path id="WenQuanYiZenHei-3d" d="M 3569 2256 
L 263 2256 
L 263 2675 
L 3569 2675 
L 3569 2256 
z
M 3569 1019 
L 263 1019 
L 263 1431 
L 3569 1431 
L 3569 1019 
z
" transform="scale(0.015625)"/>
      <path id="WenQuanYiZenHei-2e" d="M 1344 0 
L 631 0 
L 631 725 
L 1344 725 
L 1344 0 
z
" transform="scale(0.015625)"/>
      <path id="WenQuanYiZenHei-36" d="M 3550 1431 
Q 3550 725 3006 288 
Q 2581 -63 1994 -63 
Q 1013 -63 563 825 
Q 288 1363 288 2081 
Q 288 3294 856 3938 
Q 1319 4456 2075 4456 
Q 2969 4456 3363 3756 
Q 3431 3631 3481 3481 
L 2988 3350 
Q 2750 3994 2075 4006 
Q 1056 4006 844 2669 
Q 794 2356 794 1981 
L 806 1981 
Q 1006 2506 1544 2744 
Q 1819 2869 2119 2869 
Q 2788 2869 3213 2375 
Q 3550 1975 3550 1431 
z
M 3038 1406 
Q 3038 1906 2656 2213 
Q 2381 2431 2038 2431 
Q 1525 2431 1181 2044 
Q 919 1744 919 1356 
Q 919 881 1344 581 
Q 1631 375 1981 375 
Q 2519 375 2838 781 
Q 3038 1050 3038 1406 
z
" transform="scale(0.015625)"/>
     </defs>
     <use xlink:href="#WenQuanYiZenHei-41"/>
     <use xlink:href="#WenQuanYiZenHei-52" x="55.957031"/>
     <use xlink:href="#WenQuanYiZenHei-49" x="117.871094"/>
     <use xlink:href="#WenQuanYiZenHei-4d" x="143.847656"/>
     <use xlink:href="#WenQuanYiZenHei-41" x="225.78125"/>
     <use xlink:href="#WenQuanYiZenHei-20" x="281.738281"/>
     <use xlink:href="#WenQuanYiZenHei-28" x="311.71875"/>
     <use xlink:href="#WenQuanYiZenHei-34" x="341.699219"/>
     <use xlink:href="#WenQuanYiZenHei-2c" x="401.660156"/>
     <use xlink:href="#WenQuanYiZenHei-20" x="431.640625"/>
     <use xlink:href="#WenQuanYiZenHei-31" x="461.621094"/>
     <use xlink:href="#WenQuanYiZenHei-2c" x="521.582031"/>
     <use xlink:href="#WenQuanYiZenHei-20" x="551.5625"/>
     <use xlink:href="#WenQuanYiZenHei-31" x="581.542969"/>
     <use xlink:href="#WenQuanYiZenHei-29" x="641.503906"/>
     <use xlink:href="#WenQuanYiZenHei-78" x="671.484375"/>
     <use xlink:href="#WenQuanYiZenHei-28" x="715.429688"/>
     <use xlink:href="#WenQuanYiZenHei-30" x="745.410156"/>
     <use xlink:href="#WenQuanYiZenHei-2c" x="805.371094"/>
     <use xlink:href="#WenQuanYiZenHei-20" x="835.351562"/>
     <use xlink:href="#WenQuanYiZenHei-30" x="865.332031"/>
     <use xlink:href="#WenQuanYiZenHei-2c" x="925.292969"/>
     <use xlink:href="#WenQuanYiZenHei-20" x="955.273438"/>
     <use xlink:href="#WenQuanYiZenHei-30" x="985.253906"/>
     <use xlink:href="#WenQuanYiZenHei-2c" x="1045.214844"/>
     <use xlink:href="#WenQuanYiZenHei-20" x="1075.195312"/>
     <use xlink:href="#WenQuanYiZenHei-37" x="1105.175781"/>
     <use xlink:href="#WenQuanYiZenHei-29" x="1165.136719"/>
     <use xlink:href="#WenQuanYiZenHei-20" x="1195.117188"/>
     <use xlink:href="#WenQuanYiZenHei-28" x="1225.097656"/>
     <use xlink:href="#WenQuanYiZenHei-52" x="1255.078125"/>
     <use xlink:href="#WenQuanYiZenHei-32" x="1316.992188"/>
     <use xlink:href="#WenQuanYiZenHei-20" x="1376.953125"/>
     <use xlink:href="#WenQuanYiZenHei-3d" x="1406.933594"/>
     <use xlink:href="#WenQuanYiZenHei-20" x="1466.894531"/>
     <use xlink:href="#WenQuanYiZenHei-30" x="1496.875"/>
     <use xlink:href="#WenQuanYiZenHei-2e" x="1556.835938"/>
     <use xlink:href="#WenQuanYiZenHei-36" x="1586.816406"/>
     <use xlink:href="#WenQuanYiZenHei-31" x="1646.777344"/>
     <use xlink:href="#WenQuanYiZenHei-37" x="1706.738281"/>
     <use xlink:href="#WenQuanYiZenHei-36" x="1766.699219"/>
     <use xlink:href="#WenQuanYiZenHei-39" x="1826.660156"/>
     <use xlink:href="#WenQuanYiZenHei-30" x="1886.621094"/>
     <use xlink:href="#WenQuanYiZenHei-29" x="1946.582031"/>
    </g>
   </g>
   <g id="legend_1">
    <g id="patch_7">
     <path d="M 1302.390625 87.056312 
L 1364.390625 87.056312 
Q 1366.390625 87.056312 1366.390625 85.056312 
L 1366.390625 42.061 
Q 1366.390625 40.061 1364.390625 40.061 
L 1302.390625 40.061 
Q 1300.390625 40.061 1300.390625 42.061 
L 1300.390625 85.056312 
Q 1300.390625 87.056312 1302.390625 87.056312 
z
" style="fill: #ffffff; opacity: 0.8; stroke: #cccccc; stroke-linejoin: miter"/>
    </g>
    <g id="line2d_20">
     <path d="M 1304.390625 48.695375 
L 1314.390625 48.695375 
L 1324.390625 48.695375 
" style="fill: none; stroke: #0000ff; stroke-width: 1.5; stroke-linecap: square"/>
    </g>
    <g id="text_18">
     <!-- 实际值 -->
     <g transform="translate(1332.390625 52.195375)scale(0.1 -0.1)">
      <defs>
       <path id="WenQuanYiZenHei-5b9e" d="M 1025 1175 
Q 694 1175 356 1163 
Q 375 1344 356 1525 
Q 694 1506 1025 1506 
L 3363 1506 
L 3363 2625 
Q 3363 3075 3338 3519 
Q 3581 3494 3825 3519 
Q 3800 3075 3800 2625 
L 3800 1506 
L 5406 1506 
Q 5744 1506 6075 1525 
Q 6056 1344 6075 1163 
Q 5744 1175 5406 1175 
L 4038 1175 
L 4981 456 
L 6131 -488 
L 5819 -856 
L 4681 75 
L 3638 875 
Q 3313 231 2475 -231 
Q 1638 -694 700 -825 
Q 638 -519 344 -400 
Q 1450 -319 2406 244 
Q 3113 656 3300 1175 
L 1025 1175 
z
M 2263 1581 
Q 1763 2081 1200 2513 
L 1494 2894 
Q 2081 2444 2600 1919 
L 2263 1581 
z
M 2638 2500 
Q 2219 2963 1731 3363 
L 2044 3738 
Q 2556 3313 3000 2819 
L 2638 2500 
z
M 919 3156 
L 481 3156 
L 481 4344 
L 3069 4344 
Q 2794 4731 2469 5081 
L 2825 5413 
Q 3256 4944 3613 4413 
L 3513 4344 
L 5869 4344 
L 5869 3156 
L 5425 3156 
L 5425 4013 
L 919 4013 
L 919 3156 
z
" transform="scale(0.015625)"/>
       <path id="WenQuanYiZenHei-9645" d="M 6000 431 
L 5569 194 
L 4963 1219 
L 4313 2219 
L 4719 2494 
L 5375 1481 
L 6000 431 
z
M 2956 2450 
Q 3181 2344 3419 2294 
Q 3006 1038 1944 -188 
Q 1794 -6 1569 56 
Q 2069 600 2372 1156 
Q 2675 1713 2956 2450 
z
M 3750 25 
L 3750 2913 
L 2819 2913 
Q 2475 2913 2125 2894 
Q 2144 3081 2125 3269 
Q 2475 3256 2819 3256 
L 5469 3256 
Q 5819 3256 6163 3269 
Q 6144 3081 6163 2894 
Q 5813 2913 5469 2913 
L 4194 2913 
L 4194 -144 
Q 4194 -725 3456 -813 
L 3263 -825 
Q 3325 -506 3125 -250 
Q 3250 -281 3394 -306 
Q 3663 -313 3706 -272 
Q 3750 -231 3750 25 
z
M 5544 4950 
Q 5525 4756 5544 4569 
Q 5194 4588 4844 4588 
L 3325 4588 
Q 2975 4588 2625 4569 
Q 2644 4756 2625 4950 
Q 2975 4931 3325 4931 
L 4844 4931 
Q 5194 4931 5544 4950 
z
M 819 -850 
Q 581 -825 344 -850 
Q 369 -419 369 19 
L 363 4938 
L 2256 4938 
L 2256 4625 
Q 2150 4513 2075 4375 
L 1481 3238 
Q 2181 2319 2181 1156 
Q 2144 400 1569 163 
L 1406 88 
Q 1288 300 1138 481 
Q 1294 538 1450 606 
Q 1763 744 1794 1156 
Q 1794 1744 1600 2300 
Q 1406 2856 1038 3313 
L 1725 4625 
L 788 4625 
L 794 19 
Q 794 -419 819 -850 
z
" transform="scale(0.015625)"/>
       <path id="WenQuanYiZenHei-503c" d="M 6175 -219 
Q 6156 -388 6175 -556 
Q 5863 -544 5550 -544 
L 2313 -544 
Q 2000 -544 1688 -556 
Q 1706 -388 1688 -219 
L 2506 -231 
L 2506 3469 
L 3644 3469 
L 3644 4119 
L 2638 4119 
Q 2325 4119 2013 4100 
Q 2031 4269 2013 4438 
Q 2325 4425 2638 4425 
L 3638 4425 
Q 3638 4719 3619 5013 
Q 3856 4988 4094 5013 
Q 4075 4719 4075 4425 
L 5344 4425 
Q 5650 4425 5963 4438 
Q 5950 4269 5963 4100 
Q 5656 4119 5344 4119 
L 4069 4119 
L 4069 3469 
L 5300 3469 
L 5300 -231 
L 5550 -231 
Q 5863 -231 6175 -219 
z
M 4869 2556 
L 4869 3156 
L 2931 3156 
Q 2931 2850 2931 2556 
L 4869 2556 
z
M 4869 1669 
L 4869 2250 
L 2931 2250 
L 2931 1669 
L 4869 1669 
z
M 4869 731 
L 4869 1363 
L 2931 1363 
L 2931 731 
L 4869 731 
z
M 4869 -231 
L 4869 425 
L 2931 425 
L 2931 -231 
L 4869 -231 
z
M 2106 4925 
Q 1856 4075 1463 3338 
L 1463 31 
Q 1463 -413 1481 -850 
Q 1256 -825 1031 -850 
Q 1050 -413 1050 31 
L 1050 2681 
Q 750 2269 375 1931 
Q 238 2156 0 2256 
Q 331 2544 619 2875 
Q 1094 3425 1300 3950 
Q 1494 4469 1625 5050 
Q 1850 4963 2106 4925 
z
" transform="scale(0.015625)"/>
      </defs>
      <use xlink:href="#WenQuanYiZenHei-5b9e"/>
      <use xlink:href="#WenQuanYiZenHei-9645" x="100"/>
      <use xlink:href="#WenQuanYiZenHei-503c" x="200"/>
     </g>
    </g>
    <g id="line2d_21">
     <path d="M 1304.390625 63.3735 
L 1314.390625 63.3735 
L 1324.390625 63.3735 
" style="fill: none; stroke: #ffa500; stroke-width: 1.5; stroke-linecap: square"/>
    </g>
    <g id="text_19">
     <!-- 校验值 -->
     <g transform="translate(1332.390625 66.8735)scale(0.1 -0.1)">
      <defs>
       <path id="WenQuanYiZenHei-6821" d="M 5256 2463 
Q 5025 1475 4494 706 
Q 5125 -94 6175 -544 
Q 5950 -663 5850 -900 
Q 4906 -494 4250 381 
Q 3931 0 3475 -350 
Q 3019 -700 2388 -919 
Q 2338 -656 2138 -475 
Q 3306 -69 4006 738 
Q 3563 1444 3300 2331 
Q 3050 2050 2706 1800 
Q 2606 2000 2406 2106 
Q 2900 2444 3181 2938 
Q 3350 3225 3488 3538 
Q 3700 3431 3925 3369 
Q 3763 2894 3425 2475 
L 3650 2531 
Q 3888 1675 4244 1075 
Q 4469 1444 4603 1937 
Q 4738 2431 4775 2688 
Q 4963 2644 5150 2625 
Q 4919 2969 4663 3294 
L 5038 3588 
Q 5544 2925 5975 2213 
L 5569 1969 
L 5256 2463 
z
M 6006 4050 
Q 5988 3881 6006 3713 
Q 5694 3725 5381 3725 
L 3413 3725 
Q 3100 3725 2788 3713 
Q 2806 3881 2788 4050 
Q 3100 4031 3413 4031 
L 4325 4031 
Q 4019 4525 3644 4969 
L 4000 5275 
Q 4413 4788 4750 4244 
L 4406 4031 
L 5381 4031 
Q 5694 4031 6006 4050 
z
M 406 263 
Q 238 431 -25 469 
Q 194 825 466 1337 
Q 738 1850 925 2406 
Q 1113 2963 1256 3519 
L 825 3519 
Q 506 3519 188 3500 
Q 206 3700 188 3900 
Q 506 3881 825 3881 
L 1363 3881 
L 1363 4263 
Q 1363 4719 1338 5175 
Q 1556 5150 1775 5175 
Q 1756 4719 1756 4263 
L 1756 3881 
L 2525 3900 
Q 2506 3700 2525 3500 
L 1756 3519 
L 1756 2738 
L 1931 2881 
Q 2306 2300 2613 1650 
L 2231 1413 
Q 2081 1725 1919 2019 
L 1756 2300 
L 1756 69 
Q 1756 -388 1775 -850 
Q 1556 -825 1338 -850 
Q 1363 -388 1363 69 
L 1363 2438 
Q 925 1144 406 263 
z
" transform="scale(0.015625)"/>
       <path id="WenQuanYiZenHei-9a8c" d="M 5981 -106 
Q 5963 -275 5981 -444 
Q 5669 -431 5356 -431 
L 2969 -431 
Q 2656 -431 2350 -444 
Q 2363 -275 2350 -106 
Q 2656 -125 2969 -125 
L 4369 -125 
Q 4600 431 4881 1288 
L 5206 2300 
Q 5425 2206 5663 2163 
Q 5375 1188 4831 -125 
L 5356 -125 
Q 5669 -125 5981 -106 
z
M 4063 594 
Q 3788 1425 3425 2219 
L 3856 2419 
Q 4225 1600 4513 744 
L 4063 594 
z
M 3163 363 
Q 2931 1200 2613 2006 
L 3056 2175 
Q 3381 1350 3619 488 
L 3163 363 
z
M 4581 2550 
L 3513 2550 
Q 3200 2550 2888 2538 
Q 2900 2663 2894 2769 
Q 2569 2488 2206 2300 
Q 2113 2550 1894 2700 
Q 2488 2975 2975 3463 
Q 3269 3756 3394 4006 
Q 3644 4513 3794 5063 
Q 4038 4975 4294 4931 
Q 4250 4806 4206 4681 
Q 4475 3888 5025 3388 
Q 5519 2938 6169 2650 
Q 5938 2538 5838 2300 
Q 5513 2456 5200 2700 
Q 5200 2619 5206 2538 
Q 4894 2550 4581 2550 
z
M 3513 2863 
L 4994 2869 
Q 4344 3438 3988 4194 
Q 3594 3406 3013 2869 
Q 3263 2863 3513 2863 
z
M 206 444 
Q 188 756 44 963 
Q 319 956 650 1003 
Q 981 1050 1731 1281 
L 1738 1006 
Q 800 719 206 444 
z
M 525 4000 
Q 744 3950 994 3944 
Q 925 3519 875 3081 
L 763 2144 
L 1475 2144 
L 1831 4444 
L 663 4444 
Q 350 4444 38 4431 
Q 56 4600 38 4769 
Q 350 4756 663 4756 
L 2313 4756 
L 1913 2144 
L 2375 2144 
L 2200 -200 
Q 2188 -425 1988 -588 
Q 1694 -800 1181 -788 
L 944 -788 
Q 1000 -450 788 -269 
Q 1013 -294 1334 -287 
Q 1656 -281 1715 -243 
Q 1775 -206 1781 -50 
L 1925 1831 
L 294 1831 
L 444 3131 
Q 500 3569 525 4000 
z
" transform="scale(0.015625)"/>
      </defs>
      <use xlink:href="#WenQuanYiZenHei-6821"/>
      <use xlink:href="#WenQuanYiZenHei-9a8c" x="100"/>
      <use xlink:href="#WenQuanYiZenHei-503c" x="200"/>
     </g>
    </g>
    <g id="line2d_22">
     <path d="M 1304.390625 77.895375 
L 1314.390625 77.895375 
L 1324.390625 77.895375 
" style="fill: none; stroke: #ff0000; stroke-width: 1.5; stroke-linecap: square"/>
    </g>
    <g id="text_20">
     <!-- 预测值 -->
     <g transform="translate(1332.390625 81.395375)scale(0.1 -0.1)">
      <use xlink:href="#WenQuanYiZenHei-9884"/>
      <use xlink:href="#WenQuanYiZenHei-6d4b" x="100"/>
      <use xlink:href="#WenQuanYiZenHei-503c" x="200"/>
     </g>
    </g>
   </g>
  </g>
 </g>
 <defs>
  <clipPath id="p80541f34f8">
   <rect x="32.190625" y="35.061" width="1339.2" height="332.64"/>
  </clipPath>
 </defs>
</svg>
