<?xml version="1.0" encoding="utf-8" standalone="no"?>
<!DOCTYPE svg PUBLIC "-//W3C//DTD SVG 1.1//EN"
  "http://www.w3.org/Graphics/SVG/1.1/DTD/svg11.dtd">
<svg xmlns:xlink="http://www.w3.org/1999/xlink" width="1384.5875pt" height="390.337563pt" viewBox="0 0 1384.5875 390.337563" xmlns="http://www.w3.org/2000/svg" version="1.1">
 <metadata>
  <rdf:RDF xmlns:dc="http://purl.org/dc/elements/1.1/" xmlns:cc="http://creativecommons.org/ns#" xmlns:rdf="http://www.w3.org/1999/02/22-rdf-syntax-ns#">
   <cc:Work>
    <dc:type rdf:resource="http://purl.org/dc/dcmitype/StillImage"/>
    <dc:date>2023-01-13T18:18:38.265745</dc:date>
    <dc:format>image/svg+xml</dc:format>
    <dc:creator>
     <cc:Agent>
      <dc:title>Matplotlib v3.5.1, https://matplotlib.org/</dc:title>
     </cc:Agent>
    </dc:creator>
   </cc:Work>
  </rdf:RDF>
 </metadata>
 <defs>
  <style type="text/css">*{stroke-linejoin: round; stroke-linecap: butt}</style>
 </defs>
 <g id="figure_1">
  <g id="patch_1">
   <path d="M 0 390.337563 
L 1384.5875 390.337563 
L 1384.5875 0 
L 0 0 
z
" style="fill: #ffffff"/>
  </g>
  <g id="axes_1">
   <g id="patch_2">
    <path d="M 38.1875 367.620375 
L 1377.3875 367.620375 
L 1377.3875 34.980375 
L 38.1875 34.980375 
z
" style="fill: #ffffff"/>
   </g>
   <g id="matplotlib.axis_1">
    <g id="xtick_1">
     <g id="line2d_1">
      <defs>
       <path id="me425d53347" d="M 0 0 
L 0 3.5 
" style="stroke: #000000; stroke-width: 0.8"/>
      </defs>
      <g>
       <use xlink:href="#me425d53347" x="75.817913" y="367.620375" style="stroke: #000000; stroke-width: 0.8"/>
      </g>
     </g>
     <g id="text_1">
      <!-- 2020-01 -->
      <g transform="translate(56.328069 381.476625)scale(0.1 -0.1)">
       <defs>
        <path id="WenQuanYiZenHei-32" d="M 3488 0 
L 369 0 
L 369 456 
L 2150 1850 
Q 2931 2463 2931 3144 
Q 2931 3619 2488 3863 
Q 2231 4013 1931 4013 
Q 1425 4013 1113 3619 
Q 894 3356 881 3013 
L 369 3169 
Q 531 3981 1213 4300 
Q 1544 4456 1950 4456 
Q 2631 4456 3088 4044 
L 3225 3888 
L 3350 3706 
Q 3481 3444 3481 3144 
Q 3481 2313 2519 1569 
L 1069 456 
L 3488 456 
L 3488 0 
z
" transform="scale(0.015625)"/>
        <path id="WenQuanYiZenHei-30" d="M 3581 2175 
Q 3581 1288 3169 638 
Q 2713 -63 1938 -63 
Q 1025 -63 563 831 
Q 256 1425 256 2188 
Q 256 3188 700 3819 
Q 1138 4456 1888 4456 
Q 2863 4456 3306 3500 
Q 3581 2925 3581 2175 
z
M 3019 2100 
Q 3019 3356 2500 3806 
L 2350 3919 
Q 2144 4031 1888 4031 
Q 1100 4031 888 2956 
Q 819 2625 819 2225 
Q 819 1013 1338 569 
Q 1588 356 1938 356 
Q 2675 356 2925 1294 
Q 3019 1663 3019 2100 
z
" transform="scale(0.015625)"/>
        <path id="WenQuanYiZenHei-2d" d="M 1363 1444 
L 0 1444 
L 0 1844 
L 1363 1844 
L 1363 1444 
z
" transform="scale(0.015625)"/>
        <path id="WenQuanYiZenHei-31" d="M 3556 0 
L 488 0 
L 488 406 
L 1800 406 
L 1800 3725 
Q 1231 3125 588 2788 
L 588 3338 
Q 1456 3781 1931 4388 
L 2331 4388 
L 2331 406 
L 3556 406 
L 3556 0 
z
" transform="scale(0.015625)"/>
       </defs>
       <use xlink:href="#WenQuanYiZenHei-32"/>
       <use xlink:href="#WenQuanYiZenHei-30" x="59.960938"/>
       <use xlink:href="#WenQuanYiZenHei-32" x="119.921875"/>
       <use xlink:href="#WenQuanYiZenHei-30" x="179.882812"/>
       <use xlink:href="#WenQuanYiZenHei-2d" x="239.84375"/>
       <use xlink:href="#WenQuanYiZenHei-30" x="269.824219"/>
       <use xlink:href="#WenQuanYiZenHei-31" x="329.785156"/>
      </g>
     </g>
    </g>
    <g id="xtick_2">
     <g id="line2d_2">
      <g>
       <use xlink:href="#me425d53347" x="209.737913" y="367.620375" style="stroke: #000000; stroke-width: 0.8"/>
      </g>
     </g>
     <g id="text_2">
      <!-- 2020-05 -->
      <g transform="translate(190.248069 381.476625)scale(0.1 -0.1)">
       <defs>
        <path id="WenQuanYiZenHei-35" d="M 3531 1488 
Q 3531 688 2913 250 
Q 2456 -63 1844 -63 
Q 1175 -63 706 350 
Q 413 613 306 975 
L 781 1131 
Q 1000 538 1569 406 
Q 1706 369 1856 369 
Q 2550 369 2850 869 
Q 3000 1131 3000 1494 
Q 3000 2056 2581 2356 
Q 2319 2538 1969 2538 
Q 1400 2538 1031 2075 
Q 981 2013 938 1938 
L 500 2031 
L 644 4388 
L 3244 4388 
L 3200 3919 
L 1044 3919 
L 950 2500 
Q 1431 2975 2006 2975 
Q 2713 2975 3163 2475 
Q 3531 2063 3531 1488 
z
" transform="scale(0.015625)"/>
       </defs>
       <use xlink:href="#WenQuanYiZenHei-32"/>
       <use xlink:href="#WenQuanYiZenHei-30" x="59.960938"/>
       <use xlink:href="#WenQuanYiZenHei-32" x="119.921875"/>
       <use xlink:href="#WenQuanYiZenHei-30" x="179.882812"/>
       <use xlink:href="#WenQuanYiZenHei-2d" x="239.84375"/>
       <use xlink:href="#WenQuanYiZenHei-30" x="269.824219"/>
       <use xlink:href="#WenQuanYiZenHei-35" x="329.785156"/>
      </g>
     </g>
    </g>
    <g id="xtick_3">
     <g id="line2d_3">
      <g>
       <use xlink:href="#me425d53347" x="345.871467" y="367.620375" style="stroke: #000000; stroke-width: 0.8"/>
      </g>
     </g>
     <g id="text_3">
      <!-- 2020-09 -->
      <g transform="translate(326.381623 381.476625)scale(0.1 -0.1)">
       <defs>
        <path id="WenQuanYiZenHei-39" d="M 3544 2300 
Q 3544 1163 3019 513 
Q 2563 -63 1775 -63 
Q 956 -63 563 488 
Q 463 631 394 813 
L 838 975 
Q 1025 494 1550 388 
Q 1656 369 1775 369 
Q 2594 369 2900 1325 
Q 3044 1769 3038 2313 
L 3025 2313 
Q 2675 1638 1944 1544 
Q 1844 1531 1744 1531 
Q 1050 1531 625 2031 
Q 294 2419 294 2963 
Q 294 3656 813 4094 
Q 1238 4456 1819 4456 
Q 2988 4456 3381 3363 
Q 3544 2900 3544 2300 
z
M 2925 2994 
Q 2925 3563 2469 3844 
Q 2206 4006 1863 4006 
Q 1275 4006 988 3563 
Q 844 3344 825 3056 
Q 819 3006 819 2956 
Q 819 2413 1269 2131 
Q 1538 1963 1875 1963 
Q 2363 1963 2681 2350 
Q 2925 2638 2925 2994 
z
" transform="scale(0.015625)"/>
       </defs>
       <use xlink:href="#WenQuanYiZenHei-32"/>
       <use xlink:href="#WenQuanYiZenHei-30" x="59.960938"/>
       <use xlink:href="#WenQuanYiZenHei-32" x="119.921875"/>
       <use xlink:href="#WenQuanYiZenHei-30" x="179.882812"/>
       <use xlink:href="#WenQuanYiZenHei-2d" x="239.84375"/>
       <use xlink:href="#WenQuanYiZenHei-30" x="269.824219"/>
       <use xlink:href="#WenQuanYiZenHei-39" x="329.785156"/>
      </g>
     </g>
    </g>
    <g id="xtick_4">
     <g id="line2d_4">
      <g>
       <use xlink:href="#me425d53347" x="480.898244" y="367.620375" style="stroke: #000000; stroke-width: 0.8"/>
      </g>
     </g>
     <g id="text_4">
      <!-- 2021-01 -->
      <g transform="translate(461.4084 381.476625)scale(0.1 -0.1)">
       <use xlink:href="#WenQuanYiZenHei-32"/>
       <use xlink:href="#WenQuanYiZenHei-30" x="59.960938"/>
       <use xlink:href="#WenQuanYiZenHei-32" x="119.921875"/>
       <use xlink:href="#WenQuanYiZenHei-31" x="179.882812"/>
       <use xlink:href="#WenQuanYiZenHei-2d" x="239.84375"/>
       <use xlink:href="#WenQuanYiZenHei-30" x="269.824219"/>
       <use xlink:href="#WenQuanYiZenHei-31" x="329.785156"/>
      </g>
     </g>
    </g>
    <g id="xtick_5">
     <g id="line2d_5">
      <g>
       <use xlink:href="#me425d53347" x="613.711467" y="367.620375" style="stroke: #000000; stroke-width: 0.8"/>
      </g>
     </g>
     <g id="text_5">
      <!-- 2021-05 -->
      <g transform="translate(594.221623 381.476625)scale(0.1 -0.1)">
       <use xlink:href="#WenQuanYiZenHei-32"/>
       <use xlink:href="#WenQuanYiZenHei-30" x="59.960938"/>
       <use xlink:href="#WenQuanYiZenHei-32" x="119.921875"/>
       <use xlink:href="#WenQuanYiZenHei-31" x="179.882812"/>
       <use xlink:href="#WenQuanYiZenHei-2d" x="239.84375"/>
       <use xlink:href="#WenQuanYiZenHei-30" x="269.824219"/>
       <use xlink:href="#WenQuanYiZenHei-35" x="329.785156"/>
      </g>
     </g>
    </g>
    <g id="xtick_6">
     <g id="line2d_6">
      <g>
       <use xlink:href="#me425d53347" x="749.845021" y="367.620375" style="stroke: #000000; stroke-width: 0.8"/>
      </g>
     </g>
     <g id="text_6">
      <!-- 2021-09 -->
      <g transform="translate(730.355177 381.476625)scale(0.1 -0.1)">
       <use xlink:href="#WenQuanYiZenHei-32"/>
       <use xlink:href="#WenQuanYiZenHei-30" x="59.960938"/>
       <use xlink:href="#WenQuanYiZenHei-32" x="119.921875"/>
       <use xlink:href="#WenQuanYiZenHei-31" x="179.882812"/>
       <use xlink:href="#WenQuanYiZenHei-2d" x="239.84375"/>
       <use xlink:href="#WenQuanYiZenHei-30" x="269.824219"/>
       <use xlink:href="#WenQuanYiZenHei-39" x="329.785156"/>
      </g>
     </g>
    </g>
    <g id="xtick_7">
     <g id="line2d_7">
      <g>
       <use xlink:href="#me425d53347" x="884.871798" y="367.620375" style="stroke: #000000; stroke-width: 0.8"/>
      </g>
     </g>
     <g id="text_7">
      <!-- 2022-01 -->
      <g transform="translate(865.381954 381.476625)scale(0.1 -0.1)">
       <use xlink:href="#WenQuanYiZenHei-32"/>
       <use xlink:href="#WenQuanYiZenHei-30" x="59.960938"/>
       <use xlink:href="#WenQuanYiZenHei-32" x="119.921875"/>
       <use xlink:href="#WenQuanYiZenHei-32" x="179.882812"/>
       <use xlink:href="#WenQuanYiZenHei-2d" x="239.84375"/>
       <use xlink:href="#WenQuanYiZenHei-30" x="269.824219"/>
       <use xlink:href="#WenQuanYiZenHei-31" x="329.785156"/>
      </g>
     </g>
    </g>
    <g id="xtick_8">
     <g id="line2d_8">
      <g>
       <use xlink:href="#me425d53347" x="1017.685021" y="367.620375" style="stroke: #000000; stroke-width: 0.8"/>
      </g>
     </g>
     <g id="text_8">
      <!-- 2022-05 -->
      <g transform="translate(998.195177 381.476625)scale(0.1 -0.1)">
       <use xlink:href="#WenQuanYiZenHei-32"/>
       <use xlink:href="#WenQuanYiZenHei-30" x="59.960938"/>
       <use xlink:href="#WenQuanYiZenHei-32" x="119.921875"/>
       <use xlink:href="#WenQuanYiZenHei-32" x="179.882812"/>
       <use xlink:href="#WenQuanYiZenHei-2d" x="239.84375"/>
       <use xlink:href="#WenQuanYiZenHei-30" x="269.824219"/>
       <use xlink:href="#WenQuanYiZenHei-35" x="329.785156"/>
      </g>
     </g>
    </g>
    <g id="xtick_9">
     <g id="line2d_9">
      <g>
       <use xlink:href="#me425d53347" x="1153.818574" y="367.620375" style="stroke: #000000; stroke-width: 0.8"/>
      </g>
     </g>
     <g id="text_9">
      <!-- 2022-09 -->
      <g transform="translate(1134.328731 381.476625)scale(0.1 -0.1)">
       <use xlink:href="#WenQuanYiZenHei-32"/>
       <use xlink:href="#WenQuanYiZenHei-30" x="59.960938"/>
       <use xlink:href="#WenQuanYiZenHei-32" x="119.921875"/>
       <use xlink:href="#WenQuanYiZenHei-32" x="179.882812"/>
       <use xlink:href="#WenQuanYiZenHei-2d" x="239.84375"/>
       <use xlink:href="#WenQuanYiZenHei-30" x="269.824219"/>
       <use xlink:href="#WenQuanYiZenHei-39" x="329.785156"/>
      </g>
     </g>
    </g>
    <g id="xtick_10">
     <g id="line2d_10">
      <g>
       <use xlink:href="#me425d53347" x="1288.845351" y="367.620375" style="stroke: #000000; stroke-width: 0.8"/>
      </g>
     </g>
     <g id="text_10">
      <!-- 2023-01 -->
      <g transform="translate(1269.355507 381.476625)scale(0.1 -0.1)">
       <defs>
        <path id="WenQuanYiZenHei-33" d="M 3588 1231 
Q 3588 494 2875 144 
Q 2450 -63 1925 -63 
Q 1044 -63 556 488 
Q 356 706 256 1000 
L 769 1169 
Q 994 375 1913 375 
Q 2631 375 2900 788 
Q 3019 975 3019 1231 
Q 3019 1638 2638 1881 
Q 2325 2081 1613 2069 
L 1338 2069 
L 1338 2494 
Q 1969 2494 2094 2506 
Q 2325 2544 2463 2613 
Q 2763 2756 2844 3100 
Q 2863 3169 2863 3244 
Q 2863 3744 2381 3944 
L 2163 4006 
Q 2056 4025 1931 4025 
Q 1388 4025 1075 3631 
Q 969 3488 906 3313 
L 419 3456 
Q 675 4150 1400 4369 
Q 1669 4456 1975 4456 
Q 2694 4456 3106 4050 
Q 3419 3744 3419 3275 
Q 3419 2813 3025 2513 
Q 2825 2356 2575 2319 
L 2575 2306 
Q 3181 2213 3450 1769 
Q 3588 1525 3588 1231 
z
" transform="scale(0.015625)"/>
       </defs>
       <use xlink:href="#WenQuanYiZenHei-32"/>
       <use xlink:href="#WenQuanYiZenHei-30" x="59.960938"/>
       <use xlink:href="#WenQuanYiZenHei-32" x="119.921875"/>
       <use xlink:href="#WenQuanYiZenHei-33" x="179.882812"/>
       <use xlink:href="#WenQuanYiZenHei-2d" x="239.84375"/>
       <use xlink:href="#WenQuanYiZenHei-30" x="269.824219"/>
       <use xlink:href="#WenQuanYiZenHei-31" x="329.785156"/>
      </g>
     </g>
    </g>
   </g>
   <g id="matplotlib.axis_2">
    <g id="ytick_1">
     <g id="line2d_11">
      <defs>
       <path id="mef4454beb3" d="M 0 0 
L -3.5 0 
" style="stroke: #000000; stroke-width: 0.8"/>
      </defs>
      <g>
       <use xlink:href="#mef4454beb3" x="38.1875" y="352.771483" style="stroke: #000000; stroke-width: 0.8"/>
      </g>
     </g>
     <g id="text_11">
      <!-- 0 -->
      <g transform="translate(25.190625 356.199608)scale(0.1 -0.1)">
       <use xlink:href="#WenQuanYiZenHei-30"/>
      </g>
     </g>
    </g>
    <g id="ytick_2">
     <g id="line2d_12">
      <g>
       <use xlink:href="#mef4454beb3" x="38.1875" y="284.994365" style="stroke: #000000; stroke-width: 0.8"/>
      </g>
     </g>
     <g id="text_12">
      <!-- 1000 -->
      <g transform="translate(7.2 288.42249)scale(0.1 -0.1)">
       <use xlink:href="#WenQuanYiZenHei-31"/>
       <use xlink:href="#WenQuanYiZenHei-30" x="59.960938"/>
       <use xlink:href="#WenQuanYiZenHei-30" x="119.921875"/>
       <use xlink:href="#WenQuanYiZenHei-30" x="179.882812"/>
      </g>
     </g>
    </g>
    <g id="ytick_3">
     <g id="line2d_13">
      <g>
       <use xlink:href="#mef4454beb3" x="38.1875" y="217.217247" style="stroke: #000000; stroke-width: 0.8"/>
      </g>
     </g>
     <g id="text_13">
      <!-- 2000 -->
      <g transform="translate(7.2 220.645372)scale(0.1 -0.1)">
       <use xlink:href="#WenQuanYiZenHei-32"/>
       <use xlink:href="#WenQuanYiZenHei-30" x="59.960938"/>
       <use xlink:href="#WenQuanYiZenHei-30" x="119.921875"/>
       <use xlink:href="#WenQuanYiZenHei-30" x="179.882812"/>
      </g>
     </g>
    </g>
    <g id="ytick_4">
     <g id="line2d_14">
      <g>
       <use xlink:href="#mef4454beb3" x="38.1875" y="149.440128" style="stroke: #000000; stroke-width: 0.8"/>
      </g>
     </g>
     <g id="text_14">
      <!-- 3000 -->
      <g transform="translate(7.2 152.868253)scale(0.1 -0.1)">
       <use xlink:href="#WenQuanYiZenHei-33"/>
       <use xlink:href="#WenQuanYiZenHei-30" x="59.960938"/>
       <use xlink:href="#WenQuanYiZenHei-30" x="119.921875"/>
       <use xlink:href="#WenQuanYiZenHei-30" x="179.882812"/>
      </g>
     </g>
    </g>
    <g id="ytick_5">
     <g id="line2d_15">
      <g>
       <use xlink:href="#mef4454beb3" x="38.1875" y="81.66301" style="stroke: #000000; stroke-width: 0.8"/>
      </g>
     </g>
     <g id="text_15">
      <!-- 4000 -->
      <g transform="translate(7.2 85.091135)scale(0.1 -0.1)">
       <defs>
        <path id="WenQuanYiZenHei-34" d="M 3631 1025 
L 2913 1025 
L 2913 0 
L 2381 0 
L 2381 1025 
L 219 1025 
L 219 1388 
L 2225 4388 
L 2913 4388 
L 2913 1444 
L 3631 1444 
L 3631 1025 
z
M 2381 1444 
L 2381 3963 
L 788 1444 
L 2381 1444 
z
" transform="scale(0.015625)"/>
       </defs>
       <use xlink:href="#WenQuanYiZenHei-34"/>
       <use xlink:href="#WenQuanYiZenHei-30" x="59.960938"/>
       <use xlink:href="#WenQuanYiZenHei-30" x="119.921875"/>
       <use xlink:href="#WenQuanYiZenHei-30" x="179.882812"/>
      </g>
     </g>
    </g>
   </g>
   <g id="line2d_16">
    <path d="M 99.060227 352.500375 
L 100.167004 352.500375 
L 101.273781 352.229267 
L 102.380558 352.093712 
L 103.487335 351.822604 
L 104.594112 351.21261 
L 105.700888 351.144833 
L 109.021219 350.602616 
L 110.127996 349.992622 
L 111.234773 349.518182 
L 112.34155 348.704856 
L 113.448326 348.230417 
L 114.555103 348.094862 
L 115.66188 347.417091 
L 116.768657 347.281537 
L 117.875434 346.807097 
L 120.088988 346.332657 
L 121.195764 345.587109 
L 123.409318 344.706006 
L 125.622872 344.502675 
L 131.156756 343.892681 
L 132.263533 343.824904 
L 133.37031 343.621572 
L 161.039731 343.553795 
L 163.253285 343.486018 
L 165.466839 343.486018 
L 167.680393 342.943801 
L 168.787169 342.943801 
L 169.893946 342.537139 
L 171.000723 342.26603 
L 174.321054 340.978265 
L 175.427831 340.978265 
L 176.534607 340.842711 
L 177.641384 340.842711 
L 178.748161 340.571602 
L 184.282045 340.571602 
L 186.495599 340.368271 
L 189.81593 340.300494 
L 196.456591 339.961608 
L 216.378574 339.893831 
L 218.592128 339.826054 
L 248.475103 339.758277 
L 250.688657 339.6905 
L 252.902211 339.622722 
L 256.222541 339.487168 
L 266.183533 339.419391 
L 268.397087 339.351614 
L 287.212293 339.283837 
L 288.31907 339.012728 
L 308.241054 338.944951 
L 310.454607 338.877174 
L 325.949483 338.877174 
L 327.05626 338.74162 
L 328.163037 338.74162 
L 329.269814 338.606066 
L 331.483368 338.538289 
L 332.590145 338.131626 
L 333.696921 338.131626 
L 334.803698 337.996072 
L 337.017252 337.928295 
L 339.230806 337.860517 
L 342.551136 337.79274 
L 343.657913 337.453855 
L 344.76469 337.250523 
L 348.085021 337.182746 
L 352.512128 336.979415 
L 362.47312 336.911638 
L 363.579897 336.708306 
L 368.007004 336.640529 
L 370.220558 336.572752 
L 380.18155 336.504975 
L 383.50188 336.369421 
L 386.822211 336.369421 
L 387.928988 336.233867 
L 393.462872 336.166089 
L 394.569649 336.030535 
L 395.676426 335.759427 
L 397.889979 335.556095 
L 398.996756 335.420541 
L 402.317087 335.420541 
L 403.423864 335.21721 
L 405.637417 335.149433 
L 407.850971 335.081656 
L 410.064525 334.810547 
L 411.171302 334.471661 
L 413.384855 334.403884 
L 414.491632 334.26833 
L 416.705186 334.26833 
L 417.811963 334.132776 
L 421.132293 334.064999 
L 422.23907 333.997222 
L 423.345847 333.590559 
L 424.452624 333.455005 
L 425.559401 333.455005 
L 427.772955 333.183896 
L 429.986508 333.116119 
L 432.200062 333.048342 
L 433.306839 333.048342 
L 434.413616 332.709456 
L 438.840723 332.506125 
L 449.908492 332.438348 
L 452.122045 332.370571 
L 460.97626 332.302794 
L 463.189814 332.235017 
L 474.257583 332.167239 
L 476.471136 332.031685 
L 477.577913 331.828354 
L 479.791467 331.828354 
L 480.898244 331.625023 
L 486.432128 331.353914 
L 488.645682 331.353914 
L 489.752459 331.082806 
L 491.966012 330.811697 
L 495.286343 330.811697 
L 496.39312 330.608366 
L 500.820227 330.405034 
L 501.927004 330.066149 
L 505.247335 329.998372 
L 506.354112 329.862817 
L 507.460888 329.862817 
L 510.781219 329.523932 
L 517.42188 329.456155 
L 520.742211 329.3206 
L 526.276095 329.252823 
L 529.596426 329.117269 
L 532.916756 329.117269 
L 534.023533 328.981715 
L 538.45064 328.913938 
L 543.984525 328.642829 
L 548.411632 328.575052 
L 549.518409 328.507275 
L 550.625186 328.303944 
L 559.479401 328.236167 
L 571.653946 327.558395 
L 581.614938 327.490618 
L 584.935269 327.355064 
L 592.682707 327.287287 
L 594.89626 327.21951 
L 596.003037 327.21951 
L 597.109814 327.083956 
L 600.430145 327.016178 
L 602.643698 326.812847 
L 608.177583 326.74507 
L 610.391136 326.677293 
L 619.245351 326.609516 
L 621.458905 326.541739 
L 632.526674 326.473962 
L 634.740227 326.406184 
L 636.953781 326.338407 
L 641.380888 326.135076 
L 653.555434 326.067299 
L 655.768988 325.999522 
L 659.089318 325.931745 
L 660.196095 325.79619 
L 672.37064 325.728413 
L 675.690971 325.592859 
L 685.651963 325.525082 
L 686.75874 325.389528 
L 688.972293 325.389528 
L 690.07907 325.253973 
L 693.399401 325.186196 
L 695.612955 325.118419 
L 696.719731 324.847311 
L 700.040062 324.847311 
L 701.146839 324.643979 
L 704.467169 324.576202 
L 707.7875 324.440648 
L 712.214607 324.372871 
L 714.428161 323.966208 
L 715.534938 323.966208 
L 716.641715 323.762877 
L 719.962045 323.627323 
L 721.068822 323.288437 
L 727.709483 323.22066 
L 731.029814 322.813997 
L 732.136591 322.813997 
L 733.243368 322.610666 
L 734.350145 321.865117 
L 737.670475 321.661786 
L 738.777252 321.458455 
L 744.311136 321.187346 
L 745.417913 320.916238 
L 748.738244 320.577352 
L 752.058574 320.509575 
L 753.165351 320.374021 
L 763.126343 320.306244 
L 765.339897 320.238467 
L 771.980558 320.170689 
L 773.087335 319.967358 
L 776.407665 319.899581 
L 779.727996 319.764027 
L 781.94155 319.764027 
L 783.048326 319.560695 
L 788.582211 319.560695 
L 790.795764 319.289587 
L 795.222872 319.22181 
L 797.436426 318.882924 
L 807.397417 318.815147 
L 810.717748 318.679593 
L 816.251632 318.611816 
L 818.465186 318.544039 
L 820.67874 318.476262 
L 822.892293 318.408484 
L 823.99907 318.408484 
L 825.105847 318.27293 
L 828.426178 318.205153 
L 829.532955 318.001822 
L 830.639731 317.662936 
L 833.960062 317.595159 
L 835.066839 317.052942 
L 842.814277 316.985165 
L 846.134607 316.849611 
L 849.454938 316.781834 
L 854.988822 316.510725 
L 857.202376 316.442948 
L 859.41593 316.375171 
L 867.163368 316.375171 
L 869.376921 316.171839 
L 871.590475 316.036285 
L 872.697252 315.832954 
L 874.910806 315.832954 
L 877.12436 314.680743 
L 879.337913 314.477412 
L 880.44469 314.002972 
L 882.658244 313.460755 
L 883.765021 312.850761 
L 884.871798 312.511875 
L 887.085351 312.308544 
L 889.298905 311.69855 
L 890.405682 311.088556 
L 891.512459 310.681893 
L 892.619236 310.410784 
L 893.726012 308.716356 
L 894.832789 307.496368 
L 895.939566 304.988615 
L 897.046343 301.80309 
L 900.366674 294.212053 
L 901.47345 288.789884 
L 902.580227 287.569895 
L 904.793781 285.672136 
L 905.900558 285.129919 
L 908.114112 284.384371 
L 909.220888 284.18104 
L 912.541219 283.909931 
L 913.647996 283.638823 
L 914.754773 283.23216 
L 915.86155 282.961051 
L 916.968326 282.215503 
L 918.075103 281.605509 
L 920.288657 280.114412 
L 922.502211 279.639973 
L 925.822541 279.301087 
L 931.356426 279.029979 
L 936.89031 278.962201 
L 937.997087 278.75887 
L 944.637748 278.28443 
L 946.851302 277.538882 
L 947.958079 276.928888 
L 949.064855 276.454448 
L 950.171632 276.18334 
L 951.278409 276.047785 
L 952.385186 275.776677 
L 953.491963 274.827797 
L 955.705517 274.692243 
L 956.812293 274.28558 
L 957.91907 273.472255 
L 959.025847 272.18449 
L 960.132624 270.557839 
L 961.239401 268.050085 
L 962.346178 266.491212 
L 963.452955 263.441241 
L 966.773285 252.258017 
L 967.880062 247.988058 
L 968.986839 246.022522 
L 970.093616 244.328094 
L 971.200393 242.836997 
L 972.307169 242.227003 
L 975.6275 236.66928 
L 976.734277 234.29708 
L 977.841054 233.144869 
L 980.054607 232.128213 
L 981.161384 231.992658 
L 982.268161 231.72155 
L 987.802045 231.314887 
L 988.908822 231.043779 
L 992.229153 230.976002 
L 994.442707 230.908224 
L 997.763037 230.840447 
L 999.976591 230.77267 
L 1008.830806 230.77267 
L 1009.937583 230.637116 
L 1016.578244 230.569339 
L 1018.791798 230.501562 
L 1033.179897 230.501562 
L 1034.286674 230.027122 
L 1035.39345 228.942688 
L 1037.607004 227.858254 
L 1038.713781 227.451591 
L 1039.820558 225.011615 
L 1040.927335 222.842747 
L 1042.034112 221.758313 
L 1043.140888 221.283874 
L 1044.247665 220.538325 
L 1045.354442 220.063885 
L 1046.461219 219.792777 
L 1048.674773 218.911674 
L 1055.315434 218.911674 
L 1057.528988 218.708343 
L 1063.062872 218.640566 
L 1066.383202 218.233903 
L 1070.81031 218.233903 
L 1071.917087 218.030572 
L 1073.023864 217.962795 
L 1074.13064 217.691686 
L 1076.344194 217.623909 
L 1077.450971 217.556132 
L 1078.557748 217.013915 
L 1079.664525 216.67503 
L 1082.984855 216.67503 
L 1085.198409 216.471698 
L 1087.411963 216.403921 
L 1088.51874 216.132813 
L 1090.732293 215.997258 
L 1091.83907 215.658373 
L 1092.945847 215.455041 
L 1095.159401 215.25171 
L 1096.266178 214.980602 
L 1099.586508 214.641716 
L 1100.693285 214.099499 
L 1101.800062 213.828391 
L 1102.906839 213.692836 
L 1104.013616 213.150619 
L 1105.120393 212.811734 
L 1107.333946 212.608402 
L 1108.440723 212.269517 
L 1111.761054 211.930631 
L 1115.081384 211.795077 
L 1117.294938 211.7273 
L 1118.401715 211.591746 
L 1119.508492 211.591746 
L 1120.615269 211.456191 
L 1125.042376 211.388414 
L 1129.469483 211.049529 
L 1131.683037 210.77842 
L 1136.110145 210.710643 
L 1137.216921 209.965095 
L 1138.323698 209.897318 
L 1140.537252 209.422878 
L 1141.644029 208.541775 
L 1142.750806 207.118456 
L 1143.857583 207.118456 
L 1144.96436 206.711793 
L 1146.071136 206.711793 
L 1148.28469 206.237353 
L 1150.498244 205.017365 
L 1151.605021 203.594046 
L 1152.711798 202.78072 
L 1153.818574 202.712943 
L 1157.138905 201.764063 
L 1158.245682 201.696286 
L 1159.352459 201.425178 
L 1161.566012 201.154069 
L 1162.672789 200.815184 
L 1163.779566 200.67963 
L 1164.886343 199.662973 
L 1165.99312 199.120756 
L 1168.206674 198.985202 
L 1169.31345 198.239653 
L 1170.420227 197.765213 
L 1171.527004 197.561882 
L 1172.633781 197.019665 
L 1174.847335 196.545225 
L 1177.060888 196.341894 
L 1181.487996 194.715243 
L 1183.70155 192.953038 
L 1184.808326 192.071936 
L 1187.02188 191.597496 
L 1188.128657 191.529719 
L 1189.235434 191.190833 
L 1190.342211 191.190833 
L 1191.448988 190.648616 
L 1192.555764 190.241953 
L 1193.662541 190.241953 
L 1194.769318 189.903068 
L 1196.982872 189.699736 
L 1200.303202 189.225297 
L 1201.409979 188.818634 
L 1202.516756 188.547525 
L 1203.623533 188.547525 
L 1204.73031 188.344194 
L 1205.837087 188.344194 
L 1210.264194 186.78532 
L 1211.370971 186.446435 
L 1213.584525 185.497555 
L 1215.798079 185.226447 
L 1216.904855 185.226447 
L 1218.011632 184.752007 
L 1219.118409 184.68423 
L 1222.43874 184.142013 
L 1223.545517 184.142013 
L 1224.652293 183.870904 
L 1226.865847 183.870904 
L 1227.972624 183.73535 
L 1229.079401 183.057579 
L 1230.186178 183.057579 
L 1231.292955 182.922025 
L 1232.399731 182.040922 
L 1233.506508 182.040922 
L 1235.720062 181.295374 
L 1236.826839 180.68538 
L 1237.933616 180.414271 
L 1239.040393 180.414271 
L 1240.147169 180.143163 
L 1241.253946 179.600946 
L 1242.360723 179.26206 
L 1243.4675 178.78762 
L 1244.574277 178.584289 
L 1245.681054 178.109849 
L 1246.787831 178.042072 
L 1247.894607 177.364301 
L 1250.108161 177.296524 
L 1252.321715 176.415421 
L 1254.535269 176.347644 
L 1255.642045 176.144313 
L 1256.748822 176.144313 
L 1260.069153 175.805427 
L 1262.282707 175.73765 
L 1263.389483 175.398764 
L 1264.49626 175.26321 
L 1266.709814 174.720993 
L 1271.136921 174.720993 
L 1272.243698 170.112149 
L 1273.350475 167.26551 
L 1274.457252 167.26551 
L 1275.564029 164.554425 
L 1276.670806 164.554425 
L 1277.777583 155.336737 
L 1278.88436 151.405664 
L 1281.097913 144.424621 
L 1282.20469 140.493548 
L 1283.311467 137.036915 
L 1284.418244 133.038065 
L 1285.525021 126.463685 
L 1286.631798 122.193726 
L 1287.738574 119.008202 
L 1289.952128 110.400508 
L 1291.058905 105.723887 
L 1292.165682 93.795114 
L 1293.272459 85.255197 
L 1295.486012 64.989838 
L 1297.699566 55.094379 
L 1301.019897 55.094379 
L 1301.019897 55.094379 
" clip-path="url(#pfa7187b58f)" style="fill: none; stroke: #0000ff; stroke-width: 1.5; stroke-linecap: square"/>
   </g>
   <g id="line2d_17">
    <path d="M 1060.849318 218.678201 
L 1064.169649 218.682429 
L 1065.276426 218.263753 
L 1066.383202 218.130167 
L 1070.81031 218.251052 
L 1071.917087 218.318056 
L 1073.023864 217.790251 
L 1074.13064 217.839582 
L 1075.237417 217.51892 
L 1077.450971 217.571562 
L 1078.557748 217.504299 
L 1079.664525 216.748961 
L 1080.771302 216.145129 
L 1081.878079 216.551467 
L 1082.984855 216.679233 
L 1084.091632 216.646366 
L 1085.198409 216.448358 
L 1086.305186 216.426264 
L 1087.411963 216.530239 
L 1089.625517 215.939014 
L 1091.83907 215.91251 
L 1092.945847 215.416145 
L 1094.052624 215.237552 
L 1095.159401 215.348664 
L 1097.372955 214.751697 
L 1098.479731 214.654766 
L 1099.586508 214.686715 
L 1100.693285 214.522212 
L 1101.800062 213.737833 
L 1104.013616 213.415612 
L 1105.120393 212.75086 
L 1106.227169 212.383301 
L 1107.333946 212.577035 
L 1108.440723 212.520542 
L 1109.5475 212.022469 
L 1110.654277 211.973917 
L 1111.761054 211.805422 
L 1117.294938 211.771715 
L 1118.401715 211.730981 
L 1119.508492 211.424312 
L 1120.615269 211.520588 
L 1121.722045 211.33621 
L 1123.935599 211.486926 
L 1125.042376 211.352738 
L 1126.149153 211.410711 
L 1127.25593 211.217275 
L 1129.469483 211.186055 
L 1130.57626 210.926983 
L 1132.789814 210.645248 
L 1133.896591 210.773899 
L 1137.216921 210.659316 
L 1138.323698 209.511879 
L 1139.430475 209.595151 
L 1141.644029 209.234233 
L 1142.750806 207.877293 
L 1143.857583 205.88883 
L 1144.96436 206.593085 
L 1146.071136 206.437814 
L 1147.177913 206.576481 
L 1149.391467 206.077276 
L 1151.605021 204.304836 
L 1152.711798 202.502693 
L 1153.818574 201.688758 
L 1154.925351 202.379689 
L 1156.032128 202.145385 
L 1157.138905 201.691895 
L 1158.245682 201.503975 
L 1159.352459 201.538538 
L 1161.566012 200.992672 
L 1162.672789 201.039909 
L 1163.779566 200.572186 
L 1164.886343 200.549808 
L 1165.99312 198.994387 
L 1167.099897 198.370151 
L 1168.206674 198.790718 
L 1169.31345 198.812614 
L 1170.420227 197.79209 
L 1171.527004 197.192104 
L 1172.633781 197.389236 
L 1173.740558 196.604867 
L 1174.847335 196.30276 
L 1178.167665 196.279213 
L 1179.274442 195.639756 
L 1181.487996 194.81043 
L 1182.594773 194.216759 
L 1183.70155 193.192782 
L 1184.808326 192.004546 
L 1185.915103 191.216035 
L 1187.02188 191.282757 
L 1188.128657 191.496128 
L 1189.235434 191.403997 
L 1190.342211 190.913973 
L 1191.448988 191.052476 
L 1192.555764 190.267533 
L 1193.662541 189.785075 
L 1194.769318 190.052971 
L 1195.876095 189.803714 
L 1199.196426 189.451826 
L 1200.303202 189.143021 
L 1201.409979 189.032907 
L 1202.516756 188.501637 
L 1203.623533 188.313929 
L 1204.73031 188.449385 
L 1205.837087 188.168798 
L 1206.943864 188.291529 
L 1209.157417 187.113346 
L 1212.477748 186.09496 
L 1213.584525 185.493853 
L 1214.691302 185.071059 
L 1218.011632 185.161062 
L 1219.118409 184.515609 
L 1220.225186 184.478905 
L 1221.331963 184.281593 
L 1222.43874 184.20381 
L 1223.545517 183.930735 
L 1224.652293 184.039373 
L 1225.75907 183.723559 
L 1227.972624 183.888442 
L 1229.079401 183.606167 
L 1230.186178 182.612572 
L 1232.399731 182.830987 
L 1233.506508 181.454968 
L 1234.613285 181.722277 
L 1235.720062 181.520924 
L 1236.826839 180.914461 
L 1237.933616 180.141484 
L 1239.040393 179.960832 
L 1240.147169 180.358217 
L 1241.253946 179.940121 
L 1242.360723 179.186208 
L 1243.4675 178.882511 
L 1244.574277 178.381731 
L 1245.681054 178.244913 
L 1246.787831 177.665079 
L 1247.894607 177.873887 
L 1249.001384 176.915896 
L 1251.214938 177.294848 
L 1253.428492 175.950705 
L 1255.642045 176.39217 
L 1256.748822 175.954939 
L 1257.855599 176.063819 
L 1258.962376 175.988951 
L 1260.069153 175.641893 
L 1261.17593 175.678894 
L 1262.282707 175.602408 
L 1263.389483 175.802761 
L 1264.49626 175.144878 
L 1265.603037 175.051295 
L 1266.709814 174.840915 
L 1267.816591 174.449744 
L 1271.136921 174.828351 
L 1272.243698 174.672383 
L 1273.350475 167.302174 
L 1274.457252 163.799824 
L 1275.564029 166.139003 
L 1276.670806 162.84834 
L 1277.777583 163.416271 
L 1278.88436 149.803494 
L 1279.991136 145.702596 
L 1281.097913 144.316139 
L 1285.525021 129.755014 
L 1286.631798 120.862166 
L 1287.738574 117.110885 
L 1288.845351 115.400286 
L 1291.058905 106.141126 
L 1292.165682 101.025629 
L 1293.272459 85.355024 
L 1296.592789 54.966796 
L 1297.699566 52.775781 
L 1298.806343 50.279187 
L 1299.91312 53.656571 
L 1301.019897 55.675243 
L 1301.019897 55.675243 
" clip-path="url(#pfa7187b58f)" style="fill: none; stroke: #ffa500; stroke-width: 1.5; stroke-linecap: square"/>
   </g>
   <g id="line2d_18">
    <path d="M 1302.126674 55.024462 
L 1303.23345 54.931373 
L 1304.340227 54.535344 
L 1305.447004 54.011515 
L 1306.553781 53.268538 
L 1307.660558 52.857655 
L 1308.767335 52.857681 
L 1309.874112 52.637897 
L 1310.980888 52.460366 
L 1312.087665 51.998643 
L 1313.194442 51.436623 
L 1314.301219 50.682844 
L 1315.407996 50.215536 
L 1316.514773 50.100375 
" clip-path="url(#pfa7187b58f)" style="fill: none; stroke: #ff0000; stroke-width: 1.5; stroke-linecap: square"/>
   </g>
   <g id="patch_3">
    <path d="M 38.1875 367.620375 
L 38.1875 34.980375 
" style="fill: none; stroke: #000000; stroke-width: 0.8; stroke-linejoin: miter; stroke-linecap: square"/>
   </g>
   <g id="patch_4">
    <path d="M 1377.3875 367.620375 
L 1377.3875 34.980375 
" style="fill: none; stroke: #000000; stroke-width: 0.8; stroke-linejoin: miter; stroke-linecap: square"/>
   </g>
   <g id="patch_5">
    <path d="M 38.1875 367.620375 
L 1377.3875 367.620375 
" style="fill: none; stroke: #000000; stroke-width: 0.8; stroke-linejoin: miter; stroke-linecap: square"/>
   </g>
   <g id="patch_6">
    <path d="M 38.1875 34.980375 
L 1377.3875 34.980375 
" style="fill: none; stroke: #000000; stroke-width: 0.8; stroke-linejoin: miter; stroke-linecap: square"/>
   </g>
   <g id="text_16">
    <!-- 累计确诊预测 - 天津 -->
    <g transform="translate(654.390313 16.96125)scale(0.12 -0.12)">
     <defs>
      <path id="WenQuanYiZenHei-7d2f" d="M 5963 -681 
Q 5363 -81 4706 456 
L 5000 819 
Q 5675 269 6294 -350 
L 5963 -681 
z
M 1944 738 
Q 2094 556 2281 413 
Q 1575 -356 375 -706 
Q 350 -481 200 -319 
Q 725 -181 1122 69 
Q 1519 319 1944 738 
z
M 3244 -169 
L 3244 1063 
L 869 881 
L 850 1181 
Q 1431 1325 2969 1988 
L 1119 1931 
L 1113 2231 
Q 1350 2263 1862 2497 
Q 2375 2731 2800 2988 
L 1094 2988 
Q 1169 4006 1094 5019 
L 5506 5019 
Q 5425 4006 5500 2988 
L 3431 2988 
Q 3475 2931 3525 2875 
Q 2856 2494 2281 2256 
L 3388 2269 
L 3650 2288 
Q 4338 2606 4650 2800 
Q 4744 2563 4881 2344 
Q 4644 2225 3975 1956 
L 2269 1281 
L 4444 1425 
L 4813 1469 
L 4681 1588 
L 4988 1938 
Q 5481 1500 5863 963 
L 5481 694 
Q 5300 950 5081 1188 
L 4463 1163 
L 3669 1100 
L 3669 -250 
Q 3669 -444 3488 -594 
Q 3225 -819 2569 -813 
Q 2638 -513 2431 -294 
Q 2619 -319 2900 -322 
Q 3181 -325 3212 -294 
Q 3244 -263 3244 -169 
z
M 3513 4131 
L 5081 4131 
L 5081 4725 
L 3513 4725 
L 3513 4131 
z
M 3088 4131 
L 3088 4725 
L 1519 4725 
L 1519 4131 
L 3088 4131 
z
M 3513 3856 
L 3513 3288 
L 5081 3288 
L 5081 3856 
L 3513 3856 
z
M 3088 3856 
L 1519 3856 
L 1519 3288 
L 3088 3288 
L 3088 3856 
z
" transform="scale(0.015625)"/>
      <path id="WenQuanYiZenHei-8ba1" d="M 4569 -769 
Q 4313 -738 4056 -769 
Q 4081 -294 4081 175 
L 4081 2806 
L 3213 2806 
Q 2813 2806 2413 2788 
Q 2438 3000 2413 3219 
Q 2813 3200 3213 3200 
L 4081 3200 
L 4081 4313 
Q 4081 4788 4056 5263 
Q 4313 5231 4569 5263 
Q 4550 4788 4550 4313 
L 4550 3200 
L 5381 3200 
Q 5781 3200 6181 3219 
Q 6163 3000 6181 2788 
Q 5781 2806 5381 2806 
L 4550 2806 
L 4550 175 
Q 4550 -294 4569 -769 
z
M 38 2725 
Q 63 2931 38 3138 
Q 419 3119 800 3119 
L 1481 3119 
L 1481 425 
L 2044 1150 
L 2250 1488 
L 2525 1188 
L 2313 950 
L 1294 -488 
L 963 -231 
Q 1025 -94 1025 63 
L 1025 2744 
L 800 2744 
Q 419 2744 38 2725 
z
M 1450 3913 
Q 1094 4438 600 4831 
L 913 5225 
Q 1488 4769 1869 4194 
L 1450 3913 
z
" transform="scale(0.015625)"/>
      <path id="WenQuanYiZenHei-786e" d="M 4794 -769 
Q 4563 -744 4331 -769 
Q 4350 -344 4350 81 
L 4350 1081 
L 3419 1081 
L 3419 788 
Q 3419 225 3150 -194 
Q 2881 -613 2456 -806 
Q 2375 -569 2150 -444 
Q 2531 -344 2765 -15 
Q 3000 313 3000 788 
L 2994 2919 
L 2888 2813 
Q 2769 3000 2563 3081 
Q 3044 3494 3309 3969 
Q 3575 4444 3763 5119 
Q 3981 5044 4213 5013 
Q 4144 4700 4025 4400 
L 5238 4400 
L 5306 4050 
Q 5213 4031 5163 3947 
Q 5113 3863 4813 3325 
L 5994 3325 
L 5994 -150 
Q 5981 -519 5738 -656 
Q 5469 -806 5069 -806 
Q 5125 -525 4956 -294 
Q 5100 -313 5290 -316 
Q 5481 -319 5525 -278 
Q 5569 -238 5569 25 
L 5569 1081 
L 4769 1081 
L 4769 81 
Q 4769 -344 4794 -769 
z
M 4769 1344 
L 5569 1344 
L 5569 2100 
L 4769 2100 
L 4769 1344 
z
M 4350 1344 
L 4350 2100 
L 3413 2100 
L 3419 1344 
L 4350 1344 
z
M 4769 2363 
L 5569 2363 
L 5569 3038 
L 4769 3038 
L 4769 2363 
z
M 4350 2363 
L 4350 3038 
L 3413 3038 
L 3413 2363 
L 4350 2363 
z
M 3375 3325 
L 4350 3325 
L 4344 3331 
L 4775 4113 
L 3894 4113 
Q 3688 3700 3375 3325 
z
M 481 1069 
Q 281 1194 -25 1188 
Q 775 2750 1244 4294 
L 869 4294 
Q 563 4294 250 4275 
Q 269 4438 250 4594 
Q 563 4581 869 4581 
L 2156 4581 
Q 2463 4581 2775 4594 
Q 2756 4438 2775 4275 
Q 2463 4294 2156 4294 
L 1744 4294 
L 1181 2763 
L 2494 2763 
L 2494 -338 
L 2050 -338 
L 2050 156 
L 1406 156 
Q 1406 -94 1419 -350 
Q 1181 -325 938 -350 
Q 956 75 956 500 
L 956 2181 
L 769 1713 
Q 631 1388 481 1069 
z
M 2050 2475 
L 1400 2475 
L 1400 425 
L 2050 425 
L 2050 2475 
z
" transform="scale(0.015625)"/>
      <path id="WenQuanYiZenHei-8bca" d="M 5369 1456 
Q 5556 1256 5775 1100 
Q 5038 344 4081 -225 
Q 3106 -819 1788 -1006 
Q 1788 -725 1631 -500 
Q 3363 -306 4406 519 
Q 4919 956 5369 1456 
z
M 4594 2219 
Q 4781 2031 5013 1881 
Q 3625 394 2150 -25 
Q 2113 250 1913 444 
Q 2475 594 3015 850 
Q 3556 1106 3919 1463 
Q 4275 1819 4594 2219 
z
M 3969 3188 
Q 4150 3013 4356 2881 
Q 3625 1913 2306 1275 
Q 2244 1500 2056 1644 
Q 2619 1900 3053 2256 
Q 3488 2613 3969 3188 
z
M 5813 2194 
Q 4525 2913 3731 4188 
Q 2919 2844 1813 2163 
Q 1700 2413 1456 2550 
Q 1950 2844 2400 3231 
Q 2850 3619 3113 4063 
Q 3413 4581 3644 5163 
Q 3881 5038 4144 4963 
Q 4056 4775 3963 4594 
Q 4325 3919 4844 3441 
Q 5363 2963 6175 2538 
Q 5931 2431 5813 2194 
z
M 31 2613 
Q 50 2775 31 2938 
Q 325 2925 619 2925 
L 1275 2925 
L 1275 506 
L 1675 1006 
L 1831 1250 
L 2038 1013 
L 1881 838 
L 1100 -256 
L 825 -25 
Q 869 81 869 200 
L 869 2625 
L 31 2613 
z
M 950 3713 
Q 606 4325 200 4881 
L 556 5163 
Q 981 4588 1338 3944 
L 950 3713 
z
" transform="scale(0.015625)"/>
      <path id="WenQuanYiZenHei-9884" d="M 1206 19 
L 1206 2888 
L 669 2888 
Q 356 2888 50 2869 
Q 63 3044 50 3213 
Q 363 3194 669 3194 
L 1250 3194 
Q 950 3631 606 4031 
L 963 4338 
L 1263 3975 
L 1913 4719 
L 731 4719 
Q 419 4719 106 4706 
Q 125 4875 106 5044 
Q 419 5031 731 5031 
L 2481 5031 
L 2544 4663 
Q 2394 4613 2256 4466 
Q 2119 4319 1525 3631 
Q 1656 3444 1788 3250 
L 1700 3194 
L 2700 3194 
L 2763 2825 
Q 2656 2819 2613 2763 
L 2100 2038 
L 1750 2288 
L 2175 2888 
L 1638 2888 
L 1638 -150 
Q 1638 -525 1363 -669 
Q 1075 -819 525 -813 
Q 594 -513 388 -294 
Q 575 -313 837 -316 
Q 1100 -319 1153 -272 
Q 1206 -225 1206 19 
z
M 5813 -888 
Q 5100 -225 4306 375 
L 4669 719 
Q 5481 106 6219 -575 
L 5813 -888 
z
M 2375 -906 
Q 2294 -631 2025 -506 
Q 2769 -431 3353 19 
Q 3938 469 3938 1069 
L 3938 2200 
Q 3938 2625 3913 3050 
Q 4188 3025 4456 3050 
Q 4431 2625 4431 2200 
L 4431 1069 
Q 4431 681 4225 319 
Q 3644 -606 2375 -906 
z
M 3444 488 
Q 3169 513 2894 488 
Q 2919 913 2919 1338 
L 2919 3675 
Q 3219 3675 3525 3675 
Q 3750 4013 3931 4525 
L 3238 4525 
Q 2888 4525 2538 4513 
Q 2556 4669 2538 4831 
Q 2888 4813 3238 4813 
L 5313 4813 
Q 5663 4813 6006 4831 
Q 5988 4669 6006 4513 
Q 5663 4525 5313 4525 
L 4481 4525 
Q 4388 4088 4088 3675 
L 5644 3675 
L 5644 513 
L 5144 513 
L 5144 3388 
L 3894 3388 
L 3875 3363 
Q 3863 3375 3844 3388 
Q 3631 3388 3413 3388 
L 3419 1338 
Q 3419 913 3444 488 
z
" transform="scale(0.015625)"/>
      <path id="WenQuanYiZenHei-6d4b" d="M 5450 138 
L 5450 4306 
Q 5450 4750 5425 5188 
Q 5663 5163 5906 5188 
Q 5881 4750 5881 4306 
L 5881 -38 
Q 5888 -569 5519 -719 
Q 5194 -831 4825 -813 
Q 4894 -519 4694 -281 
Q 4869 -306 5094 -309 
Q 5319 -313 5384 -256 
Q 5450 -200 5450 138 
z
M 4900 938 
Q 4663 963 4419 938 
Q 4444 1375 4444 1819 
L 4444 3381 
Q 4444 3819 4419 4263 
Q 4663 4238 4900 4263 
Q 4875 3819 4875 3381 
L 4875 1819 
Q 4875 1375 4900 938 
z
M 2750 2025 
L 2750 3038 
Q 2750 3481 2725 3919 
Q 2963 3894 3206 3919 
Q 3181 3481 3181 3038 
L 3181 2025 
Q 3181 1263 2919 625 
L 3231 956 
Q 3781 431 4256 -150 
L 3888 -456 
Q 3431 106 2906 600 
Q 2531 -288 1738 -769 
Q 1606 -519 1338 -450 
Q 1988 -156 2369 478 
Q 2750 1113 2750 2025 
z
M 2363 969 
Q 2119 994 1881 969 
Q 1906 1406 1906 1850 
L 1906 5038 
L 3956 5031 
L 3956 1200 
L 3525 1200 
L 3525 4713 
L 2338 4713 
L 2338 1850 
Q 2338 1406 2363 969 
z
M 663 -738 
Q 481 -588 206 -575 
Q 400 -69 606 581 
Q 813 1231 1200 2838 
L 1381 2706 
L 875 338 
L 663 -738 
z
M 1006 2856 
L 731 2550 
L 75 3400 
L 350 3713 
L 1006 2856 
z
M 1088 3913 
Q 781 4388 425 4800 
L 694 5125 
Q 1069 4688 1388 4188 
L 1088 3913 
z
" transform="scale(0.015625)"/>
      <path id="WenQuanYiZenHei-20" transform="scale(0.015625)"/>
      <path id="WenQuanYiZenHei-5929" d="M 1306 2594 
Q 906 2594 506 2575 
Q 531 2788 506 3006 
Q 906 2988 1306 2988 
L 2888 2988 
L 2888 4575 
L 1838 4575 
Q 1438 4575 1038 4556 
Q 1063 4775 1038 4988 
Q 1438 4969 1838 4969 
L 4519 4969 
Q 4919 4969 5319 4988 
Q 5294 4775 5319 4556 
Q 4919 4575 4519 4575 
L 3350 4575 
L 3350 2988 
L 5081 2988 
Q 5475 2988 5875 3006 
Q 5856 2788 5875 2575 
Q 5475 2594 5081 2594 
L 3413 2594 
Q 3719 1519 4250 888 
Q 4956 63 6119 -219 
Q 5900 -388 5831 -656 
Q 4931 -425 4256 250 
Q 3581 925 3200 1881 
Q 2938 1019 2275 328 
Q 1613 -363 669 -681 
Q 550 -388 244 -288 
Q 1331 -38 2053 771 
Q 2775 1581 2875 2594 
L 1306 2594 
z
" transform="scale(0.015625)"/>
      <path id="WenQuanYiZenHei-6d25" d="M 4000 -769 
Q 3763 -744 3525 -769 
Q 3544 -325 3544 113 
L 3544 556 
L 2419 556 
Q 2094 556 1769 538 
Q 1788 713 1769 888 
Q 2094 875 2419 875 
L 3544 875 
L 3544 1450 
L 2806 1450 
Q 2481 1450 2156 1438 
Q 2175 1613 2156 1788 
Q 2481 1769 2806 1769 
L 3544 1769 
L 3544 2475 
L 2863 2475 
Q 2538 2475 2219 2456 
Q 2238 2631 2219 2806 
Q 2538 2794 2863 2794 
L 3544 2794 
L 3544 3388 
L 2581 3388 
Q 2256 3388 1931 3369 
Q 1950 3544 1931 3719 
Q 2256 3706 2581 3706 
L 3544 3706 
L 3544 4300 
L 2850 4300 
Q 2525 4300 2200 4281 
Q 2219 4456 2200 4631 
Q 2525 4619 2850 4619 
L 3544 4619 
Q 3538 4938 3525 5256 
Q 3763 5231 4000 5256 
Q 3981 4938 3981 4619 
L 5394 4619 
L 5394 3706 
L 6169 3719 
Q 6150 3544 6169 3369 
L 5394 3388 
L 5394 2200 
L 4956 2200 
L 4956 2475 
L 3975 2475 
L 3975 1769 
L 5075 1769 
Q 5400 1769 5719 1788 
Q 5700 1613 5719 1438 
Q 5400 1450 5075 1450 
L 3975 1450 
L 3975 875 
L 5431 875 
Q 5756 875 6081 888 
Q 6063 713 6081 538 
Q 5756 556 5431 556 
L 3975 556 
L 3975 113 
Q 3975 -325 4000 -769 
z
M 3975 2794 
L 4956 2794 
L 4956 3388 
L 3975 3388 
L 3975 2794 
z
M 3975 3706 
L 4956 3706 
L 4956 4300 
L 3975 4300 
L 3975 3706 
z
M 788 -738 
Q 575 -588 250 -575 
Q 481 -69 725 581 
Q 969 1231 1438 2838 
L 1650 2706 
L 1044 338 
L 788 -738 
z
M 1206 2856 
L 869 2550 
L 88 3400 
L 425 3713 
L 1206 2856 
z
M 1300 3913 
Q 938 4388 513 4800 
L 825 5125 
Q 1275 4688 1663 4188 
L 1300 3913 
z
" transform="scale(0.015625)"/>
     </defs>
     <use xlink:href="#WenQuanYiZenHei-7d2f"/>
     <use xlink:href="#WenQuanYiZenHei-8ba1" x="100"/>
     <use xlink:href="#WenQuanYiZenHei-786e" x="200"/>
     <use xlink:href="#WenQuanYiZenHei-8bca" x="300"/>
     <use xlink:href="#WenQuanYiZenHei-9884" x="400"/>
     <use xlink:href="#WenQuanYiZenHei-6d4b" x="500"/>
     <use xlink:href="#WenQuanYiZenHei-20" x="600"/>
     <use xlink:href="#WenQuanYiZenHei-2d" x="629.980469"/>
     <use xlink:href="#WenQuanYiZenHei-20" x="659.960938"/>
     <use xlink:href="#WenQuanYiZenHei-5929" x="689.941406"/>
     <use xlink:href="#WenQuanYiZenHei-6d25" x="789.941406"/>
    </g>
    <!-- ARIMA (1, 2, 0)x(1, 0, 1, 7) (R2 = 0.998974) -->
    <g transform="translate(589.179688 28.980375)scale(0.12 -0.12)">
     <defs>
      <path id="WenQuanYiZenHei-41" d="M 3550 0 
L 2988 0 
L 2550 1281 
L 919 1281 
L 531 0 
L 69 0 
L 1494 4388 
L 2125 4388 
L 3550 0 
z
M 2425 1694 
L 1756 3800 
L 1075 1694 
L 2425 1694 
z
" transform="scale(0.015625)"/>
      <path id="WenQuanYiZenHei-52" d="M 3675 0 
L 3100 0 
L 2288 1900 
L 1069 1900 
L 1069 0 
L 519 0 
L 519 4388 
L 2163 4388 
Q 3006 4388 3400 3900 
Q 3581 3663 3625 3325 
Q 3631 3250 3631 3163 
Q 3631 2594 3219 2244 
Q 3038 2100 2813 2038 
L 3675 0 
z
M 3081 3169 
Q 3081 3825 2356 3906 
Q 2263 3919 2163 3919 
L 1069 3919 
L 1069 2350 
L 2100 2350 
Q 2906 2350 3044 2919 
Q 3081 3031 3081 3169 
z
" transform="scale(0.015625)"/>
      <path id="WenQuanYiZenHei-49" d="M 1100 0 
L 550 0 
L 550 4388 
L 1100 4388 
L 1100 0 
z
" transform="scale(0.015625)"/>
      <path id="WenQuanYiZenHei-4d" d="M 4756 0 
L 4206 0 
L 4206 3831 
L 4181 3831 
L 2788 0 
L 2419 0 
L 1000 3831 
L 975 3831 
L 975 0 
L 513 0 
L 513 4388 
L 1331 4388 
L 2656 875 
L 3950 4388 
L 4756 4388 
L 4756 0 
z
" transform="scale(0.015625)"/>
      <path id="WenQuanYiZenHei-28" d="M 1606 -1094 
L 1275 -1094 
Q 475 -100 338 1231 
Q 319 1438 319 1656 
Q 319 3031 1156 4244 
Q 1213 4313 1269 4388 
L 1600 4388 
Q 806 3169 794 1681 
Q 794 188 1606 -1094 
z
" transform="scale(0.015625)"/>
      <path id="WenQuanYiZenHei-2c" d="M 1363 75 
L 881 -825 
L 606 -825 
L 994 0 
L 656 0 
L 656 738 
L 1363 738 
L 1363 75 
z
" transform="scale(0.015625)"/>
      <path id="WenQuanYiZenHei-29" d="M 1600 1656 
Q 1600 306 869 -788 
Q 769 -950 644 -1094 
L 313 -1094 
Q 1125 188 1125 1681 
Q 1125 3169 338 4363 
Q 325 4375 319 4388 
L 650 4388 
Q 1525 3231 1594 1863 
Q 1600 1763 1600 1656 
z
" transform="scale(0.015625)"/>
      <path id="WenQuanYiZenHei-78" d="M 2806 0 
L 2213 0 
L 1394 1319 
L 544 0 
L 50 0 
L 1144 1681 
L 163 3250 
L 744 3250 
L 1431 2138 
L 2144 3250 
L 2631 3250 
L 1681 1794 
L 2806 0 
z
" transform="scale(0.015625)"/>
      <path id="WenQuanYiZenHei-37" d="M 3400 4056 
Q 1838 2175 1838 0 
L 1275 0 
Q 1269 1438 2056 2825 
Q 2381 3400 2825 3913 
L 444 3913 
L 500 4388 
L 3400 4388 
L 3400 4056 
z
" transform="scale(0.015625)"/>
      <path id="WenQuanYiZenHei-3d" d="M 3569 2256 
L 263 2256 
L 263 2675 
L 3569 2675 
L 3569 2256 
z
M 3569 1019 
L 263 1019 
L 263 1431 
L 3569 1431 
L 3569 1019 
z
" transform="scale(0.015625)"/>
      <path id="WenQuanYiZenHei-2e" d="M 1344 0 
L 631 0 
L 631 725 
L 1344 725 
L 1344 0 
z
" transform="scale(0.015625)"/>
      <path id="WenQuanYiZenHei-38" d="M 3619 1175 
Q 3619 431 2850 100 
Q 2444 -63 1944 -63 
Q 1231 -63 725 269 
Q 225 594 225 1125 
Q 225 1881 1269 2281 
Q 719 2481 519 2938 
Q 444 3119 444 3319 
Q 444 4000 1144 4294 
Q 1519 4456 1963 4456 
Q 2669 4456 3094 4094 
Q 3425 3813 3425 3369 
Q 3425 2638 2575 2356 
Q 3231 2056 3450 1725 
Q 3619 1488 3619 1175 
z
M 2944 3344 
Q 2944 3906 2288 4019 
Q 2138 4044 1969 4044 
Q 1438 4044 1163 3775 
Q 1000 3613 1000 3375 
Q 1000 2925 1594 2663 
Q 1756 2588 1931 2550 
Q 2581 2725 2788 2956 
Q 2944 3125 2944 3344 
z
M 3075 1094 
Q 3075 1738 1875 2050 
Q 1094 1881 850 1463 
Q 763 1313 763 1131 
Q 763 569 1456 406 
Q 1681 344 1944 344 
Q 2519 344 2850 619 
Q 3075 813 3075 1094 
z
" transform="scale(0.015625)"/>
     </defs>
     <use xlink:href="#WenQuanYiZenHei-41"/>
     <use xlink:href="#WenQuanYiZenHei-52" x="55.957031"/>
     <use xlink:href="#WenQuanYiZenHei-49" x="117.871094"/>
     <use xlink:href="#WenQuanYiZenHei-4d" x="143.847656"/>
     <use xlink:href="#WenQuanYiZenHei-41" x="225.78125"/>
     <use xlink:href="#WenQuanYiZenHei-20" x="281.738281"/>
     <use xlink:href="#WenQuanYiZenHei-28" x="311.71875"/>
     <use xlink:href="#WenQuanYiZenHei-31" x="341.699219"/>
     <use xlink:href="#WenQuanYiZenHei-2c" x="401.660156"/>
     <use xlink:href="#WenQuanYiZenHei-20" x="431.640625"/>
     <use xlink:href="#WenQuanYiZenHei-32" x="461.621094"/>
     <use xlink:href="#WenQuanYiZenHei-2c" x="521.582031"/>
     <use xlink:href="#WenQuanYiZenHei-20" x="551.5625"/>
     <use xlink:href="#WenQuanYiZenHei-30" x="581.542969"/>
     <use xlink:href="#WenQuanYiZenHei-29" x="641.503906"/>
     <use xlink:href="#WenQuanYiZenHei-78" x="671.484375"/>
     <use xlink:href="#WenQuanYiZenHei-28" x="715.429688"/>
     <use xlink:href="#WenQuanYiZenHei-31" x="745.410156"/>
     <use xlink:href="#WenQuanYiZenHei-2c" x="805.371094"/>
     <use xlink:href="#WenQuanYiZenHei-20" x="835.351562"/>
     <use xlink:href="#WenQuanYiZenHei-30" x="865.332031"/>
     <use xlink:href="#WenQuanYiZenHei-2c" x="925.292969"/>
     <use xlink:href="#WenQuanYiZenHei-20" x="955.273438"/>
     <use xlink:href="#WenQuanYiZenHei-31" x="985.253906"/>
     <use xlink:href="#WenQuanYiZenHei-2c" x="1045.214844"/>
     <use xlink:href="#WenQuanYiZenHei-20" x="1075.195312"/>
     <use xlink:href="#WenQuanYiZenHei-37" x="1105.175781"/>
     <use xlink:href="#WenQuanYiZenHei-29" x="1165.136719"/>
     <use xlink:href="#WenQuanYiZenHei-20" x="1195.117188"/>
     <use xlink:href="#WenQuanYiZenHei-28" x="1225.097656"/>
     <use xlink:href="#WenQuanYiZenHei-52" x="1255.078125"/>
     <use xlink:href="#WenQuanYiZenHei-32" x="1316.992188"/>
     <use xlink:href="#WenQuanYiZenHei-20" x="1376.953125"/>
     <use xlink:href="#WenQuanYiZenHei-3d" x="1406.933594"/>
     <use xlink:href="#WenQuanYiZenHei-20" x="1466.894531"/>
     <use xlink:href="#WenQuanYiZenHei-30" x="1496.875"/>
     <use xlink:href="#WenQuanYiZenHei-2e" x="1556.835938"/>
     <use xlink:href="#WenQuanYiZenHei-39" x="1586.816406"/>
     <use xlink:href="#WenQuanYiZenHei-39" x="1646.777344"/>
     <use xlink:href="#WenQuanYiZenHei-38" x="1706.738281"/>
     <use xlink:href="#WenQuanYiZenHei-39" x="1766.699219"/>
     <use xlink:href="#WenQuanYiZenHei-37" x="1826.660156"/>
     <use xlink:href="#WenQuanYiZenHei-34" x="1886.621094"/>
     <use xlink:href="#WenQuanYiZenHei-29" x="1946.582031"/>
    </g>
   </g>
   <g id="legend_1">
    <g id="patch_7">
     <path d="M 45.1875 86.975687 
L 107.1875 86.975687 
Q 109.1875 86.975687 109.1875 84.975687 
L 109.1875 41.980375 
Q 109.1875 39.980375 107.1875 39.980375 
L 45.1875 39.980375 
Q 43.1875 39.980375 43.1875 41.980375 
L 43.1875 84.975687 
Q 43.1875 86.975687 45.1875 86.975687 
z
" style="fill: #ffffff; opacity: 0.8; stroke: #cccccc; stroke-linejoin: miter"/>
    </g>
    <g id="line2d_19">
     <path d="M 47.1875 48.61475 
L 57.1875 48.61475 
L 67.1875 48.61475 
" style="fill: none; stroke: #0000ff; stroke-width: 1.5; stroke-linecap: square"/>
    </g>
    <g id="text_17">
     <!-- 实际值 -->
     <g transform="translate(75.1875 52.11475)scale(0.1 -0.1)">
      <defs>
       <path id="WenQuanYiZenHei-5b9e" d="M 1025 1175 
Q 694 1175 356 1163 
Q 375 1344 356 1525 
Q 694 1506 1025 1506 
L 3363 1506 
L 3363 2625 
Q 3363 3075 3338 3519 
Q 3581 3494 3825 3519 
Q 3800 3075 3800 2625 
L 3800 1506 
L 5406 1506 
Q 5744 1506 6075 1525 
Q 6056 1344 6075 1163 
Q 5744 1175 5406 1175 
L 4038 1175 
L 4981 456 
L 6131 -488 
L 5819 -856 
L 4681 75 
L 3638 875 
Q 3313 231 2475 -231 
Q 1638 -694 700 -825 
Q 638 -519 344 -400 
Q 1450 -319 2406 244 
Q 3113 656 3300 1175 
L 1025 1175 
z
M 2263 1581 
Q 1763 2081 1200 2513 
L 1494 2894 
Q 2081 2444 2600 1919 
L 2263 1581 
z
M 2638 2500 
Q 2219 2963 1731 3363 
L 2044 3738 
Q 2556 3313 3000 2819 
L 2638 2500 
z
M 919 3156 
L 481 3156 
L 481 4344 
L 3069 4344 
Q 2794 4731 2469 5081 
L 2825 5413 
Q 3256 4944 3613 4413 
L 3513 4344 
L 5869 4344 
L 5869 3156 
L 5425 3156 
L 5425 4013 
L 919 4013 
L 919 3156 
z
" transform="scale(0.015625)"/>
       <path id="WenQuanYiZenHei-9645" d="M 6000 431 
L 5569 194 
L 4963 1219 
L 4313 2219 
L 4719 2494 
L 5375 1481 
L 6000 431 
z
M 2956 2450 
Q 3181 2344 3419 2294 
Q 3006 1038 1944 -188 
Q 1794 -6 1569 56 
Q 2069 600 2372 1156 
Q 2675 1713 2956 2450 
z
M 3750 25 
L 3750 2913 
L 2819 2913 
Q 2475 2913 2125 2894 
Q 2144 3081 2125 3269 
Q 2475 3256 2819 3256 
L 5469 3256 
Q 5819 3256 6163 3269 
Q 6144 3081 6163 2894 
Q 5813 2913 5469 2913 
L 4194 2913 
L 4194 -144 
Q 4194 -725 3456 -813 
L 3263 -825 
Q 3325 -506 3125 -250 
Q 3250 -281 3394 -306 
Q 3663 -313 3706 -272 
Q 3750 -231 3750 25 
z
M 5544 4950 
Q 5525 4756 5544 4569 
Q 5194 4588 4844 4588 
L 3325 4588 
Q 2975 4588 2625 4569 
Q 2644 4756 2625 4950 
Q 2975 4931 3325 4931 
L 4844 4931 
Q 5194 4931 5544 4950 
z
M 819 -850 
Q 581 -825 344 -850 
Q 369 -419 369 19 
L 363 4938 
L 2256 4938 
L 2256 4625 
Q 2150 4513 2075 4375 
L 1481 3238 
Q 2181 2319 2181 1156 
Q 2144 400 1569 163 
L 1406 88 
Q 1288 300 1138 481 
Q 1294 538 1450 606 
Q 1763 744 1794 1156 
Q 1794 1744 1600 2300 
Q 1406 2856 1038 3313 
L 1725 4625 
L 788 4625 
L 794 19 
Q 794 -419 819 -850 
z
" transform="scale(0.015625)"/>
       <path id="WenQuanYiZenHei-503c" d="M 6175 -219 
Q 6156 -388 6175 -556 
Q 5863 -544 5550 -544 
L 2313 -544 
Q 2000 -544 1688 -556 
Q 1706 -388 1688 -219 
L 2506 -231 
L 2506 3469 
L 3644 3469 
L 3644 4119 
L 2638 4119 
Q 2325 4119 2013 4100 
Q 2031 4269 2013 4438 
Q 2325 4425 2638 4425 
L 3638 4425 
Q 3638 4719 3619 5013 
Q 3856 4988 4094 5013 
Q 4075 4719 4075 4425 
L 5344 4425 
Q 5650 4425 5963 4438 
Q 5950 4269 5963 4100 
Q 5656 4119 5344 4119 
L 4069 4119 
L 4069 3469 
L 5300 3469 
L 5300 -231 
L 5550 -231 
Q 5863 -231 6175 -219 
z
M 4869 2556 
L 4869 3156 
L 2931 3156 
Q 2931 2850 2931 2556 
L 4869 2556 
z
M 4869 1669 
L 4869 2250 
L 2931 2250 
L 2931 1669 
L 4869 1669 
z
M 4869 731 
L 4869 1363 
L 2931 1363 
L 2931 731 
L 4869 731 
z
M 4869 -231 
L 4869 425 
L 2931 425 
L 2931 -231 
L 4869 -231 
z
M 2106 4925 
Q 1856 4075 1463 3338 
L 1463 31 
Q 1463 -413 1481 -850 
Q 1256 -825 1031 -850 
Q 1050 -413 1050 31 
L 1050 2681 
Q 750 2269 375 1931 
Q 238 2156 0 2256 
Q 331 2544 619 2875 
Q 1094 3425 1300 3950 
Q 1494 4469 1625 5050 
Q 1850 4963 2106 4925 
z
" transform="scale(0.015625)"/>
      </defs>
      <use xlink:href="#WenQuanYiZenHei-5b9e"/>
      <use xlink:href="#WenQuanYiZenHei-9645" x="100"/>
      <use xlink:href="#WenQuanYiZenHei-503c" x="200"/>
     </g>
    </g>
    <g id="line2d_20">
     <path d="M 47.1875 63.292875 
L 57.1875 63.292875 
L 67.1875 63.292875 
" style="fill: none; stroke: #ffa500; stroke-width: 1.5; stroke-linecap: square"/>
    </g>
    <g id="text_18">
     <!-- 校验值 -->
     <g transform="translate(75.1875 66.792875)scale(0.1 -0.1)">
      <defs>
       <path id="WenQuanYiZenHei-6821" d="M 5256 2463 
Q 5025 1475 4494 706 
Q 5125 -94 6175 -544 
Q 5950 -663 5850 -900 
Q 4906 -494 4250 381 
Q 3931 0 3475 -350 
Q 3019 -700 2388 -919 
Q 2338 -656 2138 -475 
Q 3306 -69 4006 738 
Q 3563 1444 3300 2331 
Q 3050 2050 2706 1800 
Q 2606 2000 2406 2106 
Q 2900 2444 3181 2938 
Q 3350 3225 3488 3538 
Q 3700 3431 3925 3369 
Q 3763 2894 3425 2475 
L 3650 2531 
Q 3888 1675 4244 1075 
Q 4469 1444 4603 1937 
Q 4738 2431 4775 2688 
Q 4963 2644 5150 2625 
Q 4919 2969 4663 3294 
L 5038 3588 
Q 5544 2925 5975 2213 
L 5569 1969 
L 5256 2463 
z
M 6006 4050 
Q 5988 3881 6006 3713 
Q 5694 3725 5381 3725 
L 3413 3725 
Q 3100 3725 2788 3713 
Q 2806 3881 2788 4050 
Q 3100 4031 3413 4031 
L 4325 4031 
Q 4019 4525 3644 4969 
L 4000 5275 
Q 4413 4788 4750 4244 
L 4406 4031 
L 5381 4031 
Q 5694 4031 6006 4050 
z
M 406 263 
Q 238 431 -25 469 
Q 194 825 466 1337 
Q 738 1850 925 2406 
Q 1113 2963 1256 3519 
L 825 3519 
Q 506 3519 188 3500 
Q 206 3700 188 3900 
Q 506 3881 825 3881 
L 1363 3881 
L 1363 4263 
Q 1363 4719 1338 5175 
Q 1556 5150 1775 5175 
Q 1756 4719 1756 4263 
L 1756 3881 
L 2525 3900 
Q 2506 3700 2525 3500 
L 1756 3519 
L 1756 2738 
L 1931 2881 
Q 2306 2300 2613 1650 
L 2231 1413 
Q 2081 1725 1919 2019 
L 1756 2300 
L 1756 69 
Q 1756 -388 1775 -850 
Q 1556 -825 1338 -850 
Q 1363 -388 1363 69 
L 1363 2438 
Q 925 1144 406 263 
z
" transform="scale(0.015625)"/>
       <path id="WenQuanYiZenHei-9a8c" d="M 5981 -106 
Q 5963 -275 5981 -444 
Q 5669 -431 5356 -431 
L 2969 -431 
Q 2656 -431 2350 -444 
Q 2363 -275 2350 -106 
Q 2656 -125 2969 -125 
L 4369 -125 
Q 4600 431 4881 1288 
L 5206 2300 
Q 5425 2206 5663 2163 
Q 5375 1188 4831 -125 
L 5356 -125 
Q 5669 -125 5981 -106 
z
M 4063 594 
Q 3788 1425 3425 2219 
L 3856 2419 
Q 4225 1600 4513 744 
L 4063 594 
z
M 3163 363 
Q 2931 1200 2613 2006 
L 3056 2175 
Q 3381 1350 3619 488 
L 3163 363 
z
M 4581 2550 
L 3513 2550 
Q 3200 2550 2888 2538 
Q 2900 2663 2894 2769 
Q 2569 2488 2206 2300 
Q 2113 2550 1894 2700 
Q 2488 2975 2975 3463 
Q 3269 3756 3394 4006 
Q 3644 4513 3794 5063 
Q 4038 4975 4294 4931 
Q 4250 4806 4206 4681 
Q 4475 3888 5025 3388 
Q 5519 2938 6169 2650 
Q 5938 2538 5838 2300 
Q 5513 2456 5200 2700 
Q 5200 2619 5206 2538 
Q 4894 2550 4581 2550 
z
M 3513 2863 
L 4994 2869 
Q 4344 3438 3988 4194 
Q 3594 3406 3013 2869 
Q 3263 2863 3513 2863 
z
M 206 444 
Q 188 756 44 963 
Q 319 956 650 1003 
Q 981 1050 1731 1281 
L 1738 1006 
Q 800 719 206 444 
z
M 525 4000 
Q 744 3950 994 3944 
Q 925 3519 875 3081 
L 763 2144 
L 1475 2144 
L 1831 4444 
L 663 4444 
Q 350 4444 38 4431 
Q 56 4600 38 4769 
Q 350 4756 663 4756 
L 2313 4756 
L 1913 2144 
L 2375 2144 
L 2200 -200 
Q 2188 -425 1988 -588 
Q 1694 -800 1181 -788 
L 944 -788 
Q 1000 -450 788 -269 
Q 1013 -294 1334 -287 
Q 1656 -281 1715 -243 
Q 1775 -206 1781 -50 
L 1925 1831 
L 294 1831 
L 444 3131 
Q 500 3569 525 4000 
z
" transform="scale(0.015625)"/>
      </defs>
      <use xlink:href="#WenQuanYiZenHei-6821"/>
      <use xlink:href="#WenQuanYiZenHei-9a8c" x="100"/>
      <use xlink:href="#WenQuanYiZenHei-503c" x="200"/>
     </g>
    </g>
    <g id="line2d_21">
     <path d="M 47.1875 77.81475 
L 57.1875 77.81475 
L 67.1875 77.81475 
" style="fill: none; stroke: #ff0000; stroke-width: 1.5; stroke-linecap: square"/>
    </g>
    <g id="text_19">
     <!-- 预测值 -->
     <g transform="translate(75.1875 81.31475)scale(0.1 -0.1)">
      <use xlink:href="#WenQuanYiZenHei-9884"/>
      <use xlink:href="#WenQuanYiZenHei-6d4b" x="100"/>
      <use xlink:href="#WenQuanYiZenHei-503c" x="200"/>
     </g>
    </g>
   </g>
  </g>
 </g>
 <defs>
  <clipPath id="pfa7187b58f">
   <rect x="38.1875" y="34.980375" width="1339.2" height="332.64"/>
  </clipPath>
 </defs>
</svg>
