<?xml version="1.0" encoding="utf-8" standalone="no"?>
<!DOCTYPE svg PUBLIC "-//W3C//DTD SVG 1.1//EN"
  "http://www.w3.org/Graphics/SVG/1.1/DTD/svg11.dtd">
<svg xmlns:xlink="http://www.w3.org/1999/xlink" width="1378.590625pt" height="390.418188pt" viewBox="0 0 1378.590625 390.418188" xmlns="http://www.w3.org/2000/svg" version="1.1">
 <metadata>
  <rdf:RDF xmlns:dc="http://purl.org/dc/elements/1.1/" xmlns:cc="http://creativecommons.org/ns#" xmlns:rdf="http://www.w3.org/1999/02/22-rdf-syntax-ns#">
   <cc:Work>
    <dc:type rdf:resource="http://purl.org/dc/dcmitype/StillImage"/>
    <dc:date>2022-12-10T18:18:52.126977</dc:date>
    <dc:format>image/svg+xml</dc:format>
    <dc:creator>
     <cc:Agent>
      <dc:title>Matplotlib v3.5.1, https://matplotlib.org/</dc:title>
     </cc:Agent>
    </dc:creator>
   </cc:Work>
  </rdf:RDF>
 </metadata>
 <defs>
  <style type="text/css">*{stroke-linejoin: round; stroke-linecap: butt}</style>
 </defs>
 <g id="figure_1">
  <g id="patch_1">
   <path d="M 0 390.418188 
L 1378.590625 390.418188 
L 1378.590625 -0 
L 0 -0 
z
" style="fill: #ffffff"/>
  </g>
  <g id="axes_1">
   <g id="patch_2">
    <path d="M 32.190625 367.701 
L 1371.390625 367.701 
L 1371.390625 35.061 
L 32.190625 35.061 
z
" style="fill: #ffffff"/>
   </g>
   <g id="matplotlib.axis_1">
    <g id="xtick_1">
     <g id="line2d_1">
      <defs>
       <path id="mb34772ea8b" d="M 0 0 
L 0 3.5 
" style="stroke: #000000; stroke-width: 0.8"/>
      </defs>
      <g>
       <use xlink:href="#mb34772ea8b" x="67.914056" y="367.701" style="stroke: #000000; stroke-width: 0.8"/>
      </g>
     </g>
     <g id="text_1">
      <!-- 2020-01 -->
      <g transform="translate(48.424213 381.55725)scale(0.1 -0.1)">
       <defs>
        <path id="WenQuanYiZenHei-32" d="M 3488 0 
L 369 0 
L 369 456 
L 2150 1850 
Q 2931 2463 2931 3144 
Q 2931 3619 2488 3863 
Q 2231 4013 1931 4013 
Q 1425 4013 1113 3619 
Q 894 3356 881 3013 
L 369 3169 
Q 531 3981 1213 4300 
Q 1544 4456 1950 4456 
Q 2631 4456 3088 4044 
L 3225 3888 
L 3350 3706 
Q 3481 3444 3481 3144 
Q 3481 2313 2519 1569 
L 1069 456 
L 3488 456 
L 3488 0 
z
" transform="scale(0.015625)"/>
        <path id="WenQuanYiZenHei-30" d="M 3581 2175 
Q 3581 1288 3169 638 
Q 2713 -63 1938 -63 
Q 1025 -63 563 831 
Q 256 1425 256 2188 
Q 256 3188 700 3819 
Q 1138 4456 1888 4456 
Q 2863 4456 3306 3500 
Q 3581 2925 3581 2175 
z
M 3019 2100 
Q 3019 3356 2500 3806 
L 2350 3919 
Q 2144 4031 1888 4031 
Q 1100 4031 888 2956 
Q 819 2625 819 2225 
Q 819 1013 1338 569 
Q 1588 356 1938 356 
Q 2675 356 2925 1294 
Q 3019 1663 3019 2100 
z
" transform="scale(0.015625)"/>
        <path id="WenQuanYiZenHei-2d" d="M 1363 1444 
L 0 1444 
L 0 1844 
L 1363 1844 
L 1363 1444 
z
" transform="scale(0.015625)"/>
        <path id="WenQuanYiZenHei-31" d="M 3556 0 
L 488 0 
L 488 406 
L 1800 406 
L 1800 3725 
Q 1231 3125 588 2788 
L 588 3338 
Q 1456 3781 1931 4388 
L 2331 4388 
L 2331 406 
L 3556 406 
L 3556 0 
z
" transform="scale(0.015625)"/>
       </defs>
       <use xlink:href="#WenQuanYiZenHei-32"/>
       <use xlink:href="#WenQuanYiZenHei-30" x="59.960938"/>
       <use xlink:href="#WenQuanYiZenHei-32" x="119.921875"/>
       <use xlink:href="#WenQuanYiZenHei-30" x="179.882812"/>
       <use xlink:href="#WenQuanYiZenHei-2d" x="239.84375"/>
       <use xlink:href="#WenQuanYiZenHei-30" x="269.824219"/>
       <use xlink:href="#WenQuanYiZenHei-31" x="329.785156"/>
      </g>
     </g>
    </g>
    <g id="xtick_2">
     <g id="line2d_2">
      <g>
       <use xlink:href="#mb34772ea8b" x="206.235183" y="367.701" style="stroke: #000000; stroke-width: 0.8"/>
      </g>
     </g>
     <g id="text_2">
      <!-- 2020-05 -->
      <g transform="translate(186.74534 381.55725)scale(0.1 -0.1)">
       <defs>
        <path id="WenQuanYiZenHei-35" d="M 3531 1488 
Q 3531 688 2913 250 
Q 2456 -63 1844 -63 
Q 1175 -63 706 350 
Q 413 613 306 975 
L 781 1131 
Q 1000 538 1569 406 
Q 1706 369 1856 369 
Q 2550 369 2850 869 
Q 3000 1131 3000 1494 
Q 3000 2056 2581 2356 
Q 2319 2538 1969 2538 
Q 1400 2538 1031 2075 
Q 981 2013 938 1938 
L 500 2031 
L 644 4388 
L 3244 4388 
L 3200 3919 
L 1044 3919 
L 950 2500 
Q 1431 2975 2006 2975 
Q 2713 2975 3163 2475 
Q 3531 2063 3531 1488 
z
" transform="scale(0.015625)"/>
       </defs>
       <use xlink:href="#WenQuanYiZenHei-32"/>
       <use xlink:href="#WenQuanYiZenHei-30" x="59.960938"/>
       <use xlink:href="#WenQuanYiZenHei-32" x="119.921875"/>
       <use xlink:href="#WenQuanYiZenHei-30" x="179.882812"/>
       <use xlink:href="#WenQuanYiZenHei-2d" x="239.84375"/>
       <use xlink:href="#WenQuanYiZenHei-30" x="269.824219"/>
       <use xlink:href="#WenQuanYiZenHei-35" x="329.785156"/>
      </g>
     </g>
    </g>
    <g id="xtick_3">
     <g id="line2d_3">
      <g>
       <use xlink:href="#mb34772ea8b" x="346.84261" y="367.701" style="stroke: #000000; stroke-width: 0.8"/>
      </g>
     </g>
     <g id="text_3">
      <!-- 2020-09 -->
      <g transform="translate(327.352766 381.55725)scale(0.1 -0.1)">
       <defs>
        <path id="WenQuanYiZenHei-39" d="M 3544 2300 
Q 3544 1163 3019 513 
Q 2563 -63 1775 -63 
Q 956 -63 563 488 
Q 463 631 394 813 
L 838 975 
Q 1025 494 1550 388 
Q 1656 369 1775 369 
Q 2594 369 2900 1325 
Q 3044 1769 3038 2313 
L 3025 2313 
Q 2675 1638 1944 1544 
Q 1844 1531 1744 1531 
Q 1050 1531 625 2031 
Q 294 2419 294 2963 
Q 294 3656 813 4094 
Q 1238 4456 1819 4456 
Q 2988 4456 3381 3363 
Q 3544 2900 3544 2300 
z
M 2925 2994 
Q 2925 3563 2469 3844 
Q 2206 4006 1863 4006 
Q 1275 4006 988 3563 
Q 844 3344 825 3056 
Q 819 3006 819 2956 
Q 819 2413 1269 2131 
Q 1538 1963 1875 1963 
Q 2363 1963 2681 2350 
Q 2925 2638 2925 2994 
z
" transform="scale(0.015625)"/>
       </defs>
       <use xlink:href="#WenQuanYiZenHei-32"/>
       <use xlink:href="#WenQuanYiZenHei-30" x="59.960938"/>
       <use xlink:href="#WenQuanYiZenHei-32" x="119.921875"/>
       <use xlink:href="#WenQuanYiZenHei-30" x="179.882812"/>
       <use xlink:href="#WenQuanYiZenHei-2d" x="239.84375"/>
       <use xlink:href="#WenQuanYiZenHei-30" x="269.824219"/>
       <use xlink:href="#WenQuanYiZenHei-39" x="329.785156"/>
      </g>
     </g>
    </g>
    <g id="xtick_4">
     <g id="line2d_4">
      <g>
       <use xlink:href="#mb34772ea8b" x="486.306886" y="367.701" style="stroke: #000000; stroke-width: 0.8"/>
      </g>
     </g>
     <g id="text_4">
      <!-- 2021-01 -->
      <g transform="translate(466.817042 381.55725)scale(0.1 -0.1)">
       <use xlink:href="#WenQuanYiZenHei-32"/>
       <use xlink:href="#WenQuanYiZenHei-30" x="59.960938"/>
       <use xlink:href="#WenQuanYiZenHei-32" x="119.921875"/>
       <use xlink:href="#WenQuanYiZenHei-31" x="179.882812"/>
       <use xlink:href="#WenQuanYiZenHei-2d" x="239.84375"/>
       <use xlink:href="#WenQuanYiZenHei-30" x="269.824219"/>
       <use xlink:href="#WenQuanYiZenHei-31" x="329.785156"/>
      </g>
     </g>
    </g>
    <g id="xtick_5">
     <g id="line2d_5">
      <g>
       <use xlink:href="#mb34772ea8b" x="623.484863" y="367.701" style="stroke: #000000; stroke-width: 0.8"/>
      </g>
     </g>
     <g id="text_5">
      <!-- 2021-05 -->
      <g transform="translate(603.995019 381.55725)scale(0.1 -0.1)">
       <use xlink:href="#WenQuanYiZenHei-32"/>
       <use xlink:href="#WenQuanYiZenHei-30" x="59.960938"/>
       <use xlink:href="#WenQuanYiZenHei-32" x="119.921875"/>
       <use xlink:href="#WenQuanYiZenHei-31" x="179.882812"/>
       <use xlink:href="#WenQuanYiZenHei-2d" x="239.84375"/>
       <use xlink:href="#WenQuanYiZenHei-30" x="269.824219"/>
       <use xlink:href="#WenQuanYiZenHei-35" x="329.785156"/>
      </g>
     </g>
    </g>
    <g id="xtick_6">
     <g id="line2d_6">
      <g>
       <use xlink:href="#mb34772ea8b" x="764.09229" y="367.701" style="stroke: #000000; stroke-width: 0.8"/>
      </g>
     </g>
     <g id="text_6">
      <!-- 2021-09 -->
      <g transform="translate(744.602446 381.55725)scale(0.1 -0.1)">
       <use xlink:href="#WenQuanYiZenHei-32"/>
       <use xlink:href="#WenQuanYiZenHei-30" x="59.960938"/>
       <use xlink:href="#WenQuanYiZenHei-32" x="119.921875"/>
       <use xlink:href="#WenQuanYiZenHei-31" x="179.882812"/>
       <use xlink:href="#WenQuanYiZenHei-2d" x="239.84375"/>
       <use xlink:href="#WenQuanYiZenHei-30" x="269.824219"/>
       <use xlink:href="#WenQuanYiZenHei-39" x="329.785156"/>
      </g>
     </g>
    </g>
    <g id="xtick_7">
     <g id="line2d_7">
      <g>
       <use xlink:href="#mb34772ea8b" x="903.556566" y="367.701" style="stroke: #000000; stroke-width: 0.8"/>
      </g>
     </g>
     <g id="text_7">
      <!-- 2022-01 -->
      <g transform="translate(884.066722 381.55725)scale(0.1 -0.1)">
       <use xlink:href="#WenQuanYiZenHei-32"/>
       <use xlink:href="#WenQuanYiZenHei-30" x="59.960938"/>
       <use xlink:href="#WenQuanYiZenHei-32" x="119.921875"/>
       <use xlink:href="#WenQuanYiZenHei-32" x="179.882812"/>
       <use xlink:href="#WenQuanYiZenHei-2d" x="239.84375"/>
       <use xlink:href="#WenQuanYiZenHei-30" x="269.824219"/>
       <use xlink:href="#WenQuanYiZenHei-31" x="329.785156"/>
      </g>
     </g>
    </g>
    <g id="xtick_8">
     <g id="line2d_8">
      <g>
       <use xlink:href="#mb34772ea8b" x="1040.734543" y="367.701" style="stroke: #000000; stroke-width: 0.8"/>
      </g>
     </g>
     <g id="text_8">
      <!-- 2022-05 -->
      <g transform="translate(1021.244699 381.55725)scale(0.1 -0.1)">
       <use xlink:href="#WenQuanYiZenHei-32"/>
       <use xlink:href="#WenQuanYiZenHei-30" x="59.960938"/>
       <use xlink:href="#WenQuanYiZenHei-32" x="119.921875"/>
       <use xlink:href="#WenQuanYiZenHei-32" x="179.882812"/>
       <use xlink:href="#WenQuanYiZenHei-2d" x="239.84375"/>
       <use xlink:href="#WenQuanYiZenHei-30" x="269.824219"/>
       <use xlink:href="#WenQuanYiZenHei-35" x="329.785156"/>
      </g>
     </g>
    </g>
    <g id="xtick_9">
     <g id="line2d_9">
      <g>
       <use xlink:href="#mb34772ea8b" x="1181.341969" y="367.701" style="stroke: #000000; stroke-width: 0.8"/>
      </g>
     </g>
     <g id="text_9">
      <!-- 2022-09 -->
      <g transform="translate(1161.852126 381.55725)scale(0.1 -0.1)">
       <use xlink:href="#WenQuanYiZenHei-32"/>
       <use xlink:href="#WenQuanYiZenHei-30" x="59.960938"/>
       <use xlink:href="#WenQuanYiZenHei-32" x="119.921875"/>
       <use xlink:href="#WenQuanYiZenHei-32" x="179.882812"/>
       <use xlink:href="#WenQuanYiZenHei-2d" x="239.84375"/>
       <use xlink:href="#WenQuanYiZenHei-30" x="269.824219"/>
       <use xlink:href="#WenQuanYiZenHei-39" x="329.785156"/>
      </g>
     </g>
    </g>
    <g id="xtick_10">
     <g id="line2d_10">
      <g>
       <use xlink:href="#mb34772ea8b" x="1320.806246" y="367.701" style="stroke: #000000; stroke-width: 0.8"/>
      </g>
     </g>
     <g id="text_10">
      <!-- 2023-01 -->
      <g transform="translate(1301.316402 381.55725)scale(0.1 -0.1)">
       <defs>
        <path id="WenQuanYiZenHei-33" d="M 3588 1231 
Q 3588 494 2875 144 
Q 2450 -63 1925 -63 
Q 1044 -63 556 488 
Q 356 706 256 1000 
L 769 1169 
Q 994 375 1913 375 
Q 2631 375 2900 788 
Q 3019 975 3019 1231 
Q 3019 1638 2638 1881 
Q 2325 2081 1613 2069 
L 1338 2069 
L 1338 2494 
Q 1969 2494 2094 2506 
Q 2325 2544 2463 2613 
Q 2763 2756 2844 3100 
Q 2863 3169 2863 3244 
Q 2863 3744 2381 3944 
L 2163 4006 
Q 2056 4025 1931 4025 
Q 1388 4025 1075 3631 
Q 969 3488 906 3313 
L 419 3456 
Q 675 4150 1400 4369 
Q 1669 4456 1975 4456 
Q 2694 4456 3106 4050 
Q 3419 3744 3419 3275 
Q 3419 2813 3025 2513 
Q 2825 2356 2575 2319 
L 2575 2306 
Q 3181 2213 3450 1769 
Q 3588 1525 3588 1231 
z
" transform="scale(0.015625)"/>
       </defs>
       <use xlink:href="#WenQuanYiZenHei-32"/>
       <use xlink:href="#WenQuanYiZenHei-30" x="59.960938"/>
       <use xlink:href="#WenQuanYiZenHei-32" x="119.921875"/>
       <use xlink:href="#WenQuanYiZenHei-33" x="179.882812"/>
       <use xlink:href="#WenQuanYiZenHei-2d" x="239.84375"/>
       <use xlink:href="#WenQuanYiZenHei-30" x="269.824219"/>
       <use xlink:href="#WenQuanYiZenHei-31" x="329.785156"/>
      </g>
     </g>
    </g>
   </g>
   <g id="matplotlib.axis_2">
    <g id="ytick_1">
     <g id="line2d_11">
      <defs>
       <path id="m8d137d1f10" d="M 0 0 
L -3.5 0 
" style="stroke: #000000; stroke-width: 0.8"/>
      </defs>
      <g>
       <use xlink:href="#m8d137d1f10" x="32.190625" y="339.981" style="stroke: #000000; stroke-width: 0.8"/>
      </g>
     </g>
     <g id="text_11">
      <!-- 0 -->
      <g transform="translate(19.19375 343.409125)scale(0.1 -0.1)">
       <use xlink:href="#WenQuanYiZenHei-30"/>
      </g>
     </g>
    </g>
    <g id="ytick_2">
     <g id="line2d_12">
      <g>
       <use xlink:href="#m8d137d1f10" x="32.190625" y="287.481" style="stroke: #000000; stroke-width: 0.8"/>
      </g>
     </g>
     <g id="text_12">
      <!-- 50 -->
      <g transform="translate(13.196875 290.909125)scale(0.1 -0.1)">
       <use xlink:href="#WenQuanYiZenHei-35"/>
       <use xlink:href="#WenQuanYiZenHei-30" x="59.960938"/>
      </g>
     </g>
    </g>
    <g id="ytick_3">
     <g id="line2d_13">
      <g>
       <use xlink:href="#m8d137d1f10" x="32.190625" y="234.981" style="stroke: #000000; stroke-width: 0.8"/>
      </g>
     </g>
     <g id="text_13">
      <!-- 100 -->
      <g transform="translate(7.2 238.409125)scale(0.1 -0.1)">
       <use xlink:href="#WenQuanYiZenHei-31"/>
       <use xlink:href="#WenQuanYiZenHei-30" x="59.960938"/>
       <use xlink:href="#WenQuanYiZenHei-30" x="119.921875"/>
      </g>
     </g>
    </g>
    <g id="ytick_4">
     <g id="line2d_14">
      <g>
       <use xlink:href="#m8d137d1f10" x="32.190625" y="182.481" style="stroke: #000000; stroke-width: 0.8"/>
      </g>
     </g>
     <g id="text_14">
      <!-- 150 -->
      <g transform="translate(7.2 185.909125)scale(0.1 -0.1)">
       <use xlink:href="#WenQuanYiZenHei-31"/>
       <use xlink:href="#WenQuanYiZenHei-35" x="59.960938"/>
       <use xlink:href="#WenQuanYiZenHei-30" x="119.921875"/>
      </g>
     </g>
    </g>
    <g id="ytick_5">
     <g id="line2d_15">
      <g>
       <use xlink:href="#m8d137d1f10" x="32.190625" y="129.981" style="stroke: #000000; stroke-width: 0.8"/>
      </g>
     </g>
     <g id="text_15">
      <!-- 200 -->
      <g transform="translate(7.2 133.409125)scale(0.1 -0.1)">
       <use xlink:href="#WenQuanYiZenHei-32"/>
       <use xlink:href="#WenQuanYiZenHei-30" x="59.960938"/>
       <use xlink:href="#WenQuanYiZenHei-30" x="119.921875"/>
      </g>
     </g>
    </g>
    <g id="ytick_6">
     <g id="line2d_16">
      <g>
       <use xlink:href="#m8d137d1f10" x="32.190625" y="77.481" style="stroke: #000000; stroke-width: 0.8"/>
      </g>
     </g>
     <g id="text_16">
      <!-- 250 -->
      <g transform="translate(7.2 80.909125)scale(0.1 -0.1)">
       <use xlink:href="#WenQuanYiZenHei-32"/>
       <use xlink:href="#WenQuanYiZenHei-35" x="59.960938"/>
       <use xlink:href="#WenQuanYiZenHei-30" x="119.921875"/>
      </g>
     </g>
    </g>
   </g>
   <g id="line2d_17">
    <path d="M 93.063352 338.931 
L 94.206502 336.831 
L 95.349652 333.681 
L 96.492802 334.731 
L 97.635952 329.481 
L 98.779101 321.081 
L 99.922251 328.431 
L 101.065401 324.231 
L 102.208551 326.331 
L 103.351701 329.481 
L 104.49485 327.381 
L 105.638 327.381 
L 106.78115 334.731 
L 107.9243 333.681 
L 109.06745 334.731 
L 110.210599 334.731 
L 111.353749 339.981 
L 112.496899 336.831 
L 113.640049 331.581 
L 114.783199 335.781 
L 115.926348 338.931 
L 117.069498 337.881 
L 118.212648 333.681 
L 119.355798 333.681 
L 121.642097 339.981 
L 122.785247 338.931 
L 123.928397 339.981 
L 125.071547 337.881 
L 126.214697 339.981 
L 152.507142 339.981 
L 153.650292 337.881 
L 154.793442 339.981 
L 163.93864 339.981 
L 165.08179 337.881 
L 166.22494 337.881 
L 167.36809 339.981 
L 169.654389 339.981 
L 170.797539 337.881 
L 171.940689 339.981 
L 173.083839 338.931 
L 174.226989 338.931 
L 175.370138 339.981 
L 197.089985 339.981 
L 198.233135 338.931 
L 199.376284 339.981 
L 275.967322 339.981 
L 277.110471 338.931 
L 278.253621 339.981 
L 281.683071 339.981 
L 282.82622 338.931 
L 283.96937 339.981 
L 289.685119 339.981 
L 290.828269 338.931 
L 291.971419 339.981 
L 298.830318 339.981 
L 299.973468 338.931 
L 301.116617 339.981 
L 304.546067 339.981 
L 305.689217 338.931 
L 306.832366 339.981 
L 307.975516 338.931 
L 309.118666 339.981 
L 327.409063 339.981 
L 328.552213 335.781 
L 329.695363 339.981 
L 335.411112 339.981 
L 336.554261 336.831 
L 337.697411 339.981 
L 338.840561 338.931 
L 339.983711 339.981 
L 349.128909 339.981 
L 350.272059 337.881 
L 351.415209 339.981 
L 359.417258 339.981 
L 360.560407 337.881 
L 361.703557 338.931 
L 363.989857 338.931 
L 365.133007 339.981 
L 367.419306 339.981 
L 368.562456 337.881 
L 370.848756 339.981 
L 382.280254 339.981 
L 383.423403 337.881 
L 384.566553 339.981 
L 412.002149 339.981 
L 413.145298 338.931 
L 414.288448 338.931 
L 415.431598 339.981 
L 420.004197 339.981 
L 421.147347 338.931 
L 422.290497 339.981 
L 430.292546 339.981 
L 431.435695 336.831 
L 432.578845 339.981 
L 445.153493 339.981 
L 446.296643 338.931 
L 447.439793 338.931 
L 448.582943 339.981 
L 454.298692 339.981 
L 455.441841 338.931 
L 456.584991 338.931 
L 457.728141 339.981 
L 460.014441 339.981 
L 461.15759 338.931 
L 463.44389 338.931 
L 464.58704 339.981 
L 465.73019 339.981 
L 466.873339 337.881 
L 468.016489 339.981 
L 469.159639 338.931 
L 470.302789 339.981 
L 477.161688 339.981 
L 478.304838 337.881 
L 479.447987 339.981 
L 484.020587 339.981 
L 485.163736 338.931 
L 486.306886 339.981 
L 495.452085 339.981 
L 496.595234 338.931 
L 497.738384 339.981 
L 550.323275 339.981 
L 551.466425 337.881 
L 552.609575 339.981 
L 553.752725 339.981 
L 554.895875 338.931 
L 556.039024 339.981 
L 576.615721 339.981 
L 577.758871 338.931 
L 578.902021 339.981 
L 585.760919 339.981 
L 586.904069 333.681 
L 588.047219 333.681 
L 589.190369 335.781 
L 590.333519 331.581 
L 591.476669 329.481 
L 592.619818 324.231 
L 593.762968 324.231 
L 594.906118 337.881 
L 596.049268 328.431 
L 597.192418 331.581 
L 598.335567 338.931 
L 599.478717 339.981 
L 600.621867 337.881 
L 601.765017 338.931 
L 602.908167 338.931 
L 604.051316 339.981 
L 605.194466 338.931 
L 607.480766 338.931 
L 608.623916 337.881 
L 609.767065 338.931 
L 610.910215 337.881 
L 612.053365 338.931 
L 613.196515 336.831 
L 614.339665 338.931 
L 615.482815 339.981 
L 616.625964 336.831 
L 617.769114 339.981 
L 618.912264 338.931 
L 620.055414 339.981 
L 621.198564 339.981 
L 622.341713 338.931 
L 623.484863 338.931 
L 624.628013 339.981 
L 625.771163 338.931 
L 626.914313 339.981 
L 628.057462 337.881 
L 629.200612 339.981 
L 631.486912 339.981 
L 632.630062 338.931 
L 633.773211 339.981 
L 638.345811 339.981 
L 639.48896 336.831 
L 640.63211 339.981 
L 646.347859 339.981 
L 647.491009 338.931 
L 648.634159 339.981 
L 657.779357 339.981 
L 658.922507 338.931 
L 660.065657 339.981 
L 661.208807 337.881 
L 662.351957 338.931 
L 663.495106 337.881 
L 664.638256 337.881 
L 666.924556 339.981 
L 668.067706 338.931 
L 669.210855 338.931 
L 670.354005 333.681 
L 671.497155 334.731 
L 672.640305 337.881 
L 674.926605 339.981 
L 676.069754 336.831 
L 677.212904 337.881 
L 678.356054 337.881 
L 679.499204 335.781 
L 680.642354 336.831 
L 681.785503 339.981 
L 682.928653 339.981 
L 684.071803 336.831 
L 685.214953 337.881 
L 686.358103 334.731 
L 688.644402 334.731 
L 689.787552 335.781 
L 690.930702 337.881 
L 692.073852 337.881 
L 693.217001 339.981 
L 694.360151 335.781 
L 695.503301 335.781 
L 696.646451 331.581 
L 697.789601 328.431 
L 698.93275 324.231 
L 700.0759 337.881 
L 701.21905 322.131 
L 702.3622 328.431 
L 703.50535 339.981 
L 704.6485 310.581 
L 705.791649 332.631 
L 706.934799 328.431 
L 708.077949 327.381 
L 709.221099 324.231 
L 710.364249 326.331 
L 711.507398 327.381 
L 712.650548 329.481 
L 713.793698 288.531 
L 714.936848 339.981 
L 716.079998 308.481 
L 717.223147 326.331 
L 718.366297 334.731 
L 719.509447 332.631 
L 720.652597 321.081 
L 721.795747 320.031 
L 722.938896 321.081 
L 724.082046 323.181 
L 725.225196 317.931 
L 726.368346 330.531 
L 727.511496 329.481 
L 728.654645 322.131 
L 729.797795 329.481 
L 730.940945 329.481 
L 732.084095 328.431 
L 735.513544 328.431 
L 736.656694 331.581 
L 737.799844 328.431 
L 738.942994 332.631 
L 740.086144 331.581 
L 741.229293 329.481 
L 742.372443 333.681 
L 743.515593 336.831 
L 744.658743 328.431 
L 745.801893 324.231 
L 746.945042 331.581 
L 748.088192 332.631 
L 749.231342 331.581 
L 750.374492 336.831 
L 751.517642 332.631 
L 752.660791 336.831 
L 753.803941 335.781 
L 756.090241 329.481 
L 757.233391 331.581 
L 758.37654 331.581 
L 759.51969 322.131 
L 760.66284 336.831 
L 761.80599 316.881 
L 762.94914 335.781 
L 764.09229 330.531 
L 765.235439 330.531 
L 766.378589 332.631 
L 767.521739 330.531 
L 768.664889 335.781 
L 769.808039 316.881 
L 770.951188 330.531 
L 772.094338 322.131 
L 773.237488 335.781 
L 774.380638 326.331 
L 775.523788 328.431 
L 776.666937 322.131 
L 777.810087 325.281 
L 778.953237 326.331 
L 780.096387 315.831 
L 781.239537 322.131 
L 782.382686 330.531 
L 784.668986 330.531 
L 785.812136 327.381 
L 786.955286 325.281 
L 788.098435 334.731 
L 789.241585 326.331 
L 790.384735 332.631 
L 791.527885 329.481 
L 792.671035 327.381 
L 793.814185 328.431 
L 796.100484 334.731 
L 797.243634 330.531 
L 798.386784 325.281 
L 799.529934 330.531 
L 801.816233 334.731 
L 802.959383 326.331 
L 804.102533 326.331 
L 805.245683 333.681 
L 806.388832 336.831 
L 807.531982 329.481 
L 808.675132 325.281 
L 809.818282 334.731 
L 810.961432 334.731 
L 812.104581 333.681 
L 813.247731 336.831 
L 814.390881 338.931 
L 815.534031 337.881 
L 816.677181 333.681 
L 817.820331 335.781 
L 818.96348 338.931 
L 820.10663 339.981 
L 821.24978 335.781 
L 822.39293 337.881 
L 824.679229 339.981 
L 828.108679 339.981 
L 829.251829 336.831 
L 830.394978 339.981 
L 832.681278 335.781 
L 833.824428 337.881 
L 834.967578 335.781 
L 837.253877 337.881 
L 838.397027 335.781 
L 839.540177 327.381 
L 840.683327 330.531 
L 841.826476 335.781 
L 842.969626 336.831 
L 844.112776 331.581 
L 845.255926 333.681 
L 846.399076 332.631 
L 847.542226 335.781 
L 849.828525 333.681 
L 852.114825 337.881 
L 853.257975 338.931 
L 855.544274 336.831 
L 856.687424 333.681 
L 857.830574 335.781 
L 858.973724 334.731 
L 860.116873 334.731 
L 861.260023 339.981 
L 862.403173 334.731 
L 863.546323 331.581 
L 864.689473 333.681 
L 865.832622 337.881 
L 866.975772 331.581 
L 868.118922 336.831 
L 869.262072 329.481 
L 870.405222 332.631 
L 871.548371 330.531 
L 872.691521 333.681 
L 873.834671 332.631 
L 874.977821 336.831 
L 876.120971 336.831 
L 877.264121 333.681 
L 878.40727 337.881 
L 880.69357 337.881 
L 881.83672 336.831 
L 882.97987 336.831 
L 884.123019 338.931 
L 885.266169 334.731 
L 886.409319 338.931 
L 887.552469 336.831 
L 888.695619 337.881 
L 889.838768 339.981 
L 890.981918 335.781 
L 892.125068 338.931 
L 893.268218 336.831 
L 894.411368 333.681 
L 895.554517 335.781 
L 896.697667 339.981 
L 897.840817 336.831 
L 898.983967 336.831 
L 900.127117 335.781 
L 901.270266 337.881 
L 902.413416 337.881 
L 903.556566 338.931 
L 905.842866 336.831 
L 906.986016 339.981 
L 908.129165 337.881 
L 909.272315 338.931 
L 910.415465 336.831 
L 911.558615 338.931 
L 912.701765 333.681 
L 913.844914 337.881 
L 914.988064 339.981 
L 917.274364 339.981 
L 918.417514 337.881 
L 919.560663 336.831 
L 920.703813 337.881 
L 921.846963 335.781 
L 922.990113 338.931 
L 924.133263 337.881 
L 925.276412 339.981 
L 926.419562 338.931 
L 927.562712 334.731 
L 928.705862 334.731 
L 929.849012 335.781 
L 930.992161 339.981 
L 932.135311 334.731 
L 933.278461 334.731 
L 934.421611 339.981 
L 935.564761 335.781 
L 936.707911 339.981 
L 938.99421 339.981 
L 940.13736 338.931 
L 941.28051 339.981 
L 942.42366 337.881 
L 943.566809 339.981 
L 948.139409 339.981 
L 949.282558 338.931 
L 950.425708 339.981 
L 951.568858 337.881 
L 953.855158 339.981 
L 954.998307 336.831 
L 956.141457 337.881 
L 958.427757 335.781 
L 959.570907 336.831 
L 960.714056 335.781 
L 961.857206 333.681 
L 963.000356 334.731 
L 965.286656 334.731 
L 966.429806 330.531 
L 968.716105 336.831 
L 969.859255 329.481 
L 971.002405 336.831 
L 972.145555 338.931 
L 973.288704 333.681 
L 974.431854 337.881 
L 975.575004 335.781 
L 976.718154 335.781 
L 977.861304 333.681 
L 979.004453 334.731 
L 980.147603 334.731 
L 981.290753 333.681 
L 983.577053 337.881 
L 984.720202 334.731 
L 985.863352 335.781 
L 987.006502 332.631 
L 988.149652 333.681 
L 990.435952 333.681 
L 991.579101 335.781 
L 992.722251 335.781 
L 996.151701 338.931 
L 997.29485 336.831 
L 998.438 338.931 
L 1000.7243 338.931 
L 1001.86745 337.881 
L 1003.010599 335.781 
L 1005.296899 339.981 
L 1006.440049 336.831 
L 1007.583199 339.981 
L 1009.869498 337.881 
L 1011.012648 337.881 
L 1012.155798 338.931 
L 1013.298948 336.831 
L 1014.442097 339.981 
L 1016.728397 337.881 
L 1017.871547 338.931 
L 1019.014697 338.931 
L 1020.157847 333.681 
L 1021.300996 320.031 
L 1022.444146 352.581 
L 1023.587296 339.981 
L 1024.730446 337.881 
L 1025.873596 336.831 
L 1027.016745 337.881 
L 1028.159895 337.881 
L 1029.303045 332.631 
L 1030.446195 339.981 
L 1031.589345 337.881 
L 1032.732494 337.881 
L 1033.875644 339.981 
L 1036.161944 339.981 
L 1038.448243 337.881 
L 1039.591393 339.981 
L 1043.020843 339.981 
L 1044.163992 338.931 
L 1045.307142 339.981 
L 1049.879742 339.981 
L 1051.022891 338.931 
L 1052.166041 335.781 
L 1053.309191 339.981 
L 1054.452341 339.981 
L 1055.595491 337.881 
L 1056.73864 338.931 
L 1057.88179 337.881 
L 1059.02494 339.981 
L 1060.16809 337.881 
L 1062.454389 339.981 
L 1063.597539 337.881 
L 1064.740689 339.981 
L 1065.883839 338.931 
L 1067.026989 339.981 
L 1068.170138 335.781 
L 1069.313288 336.831 
L 1070.456438 339.981 
L 1071.599588 339.981 
L 1072.742738 337.881 
L 1073.885887 336.831 
L 1075.029037 338.931 
L 1076.172187 339.981 
L 1078.458487 337.881 
L 1079.601637 339.981 
L 1080.744786 338.931 
L 1081.887936 338.931 
L 1083.031086 339.981 
L 1084.174236 336.831 
L 1085.317386 339.981 
L 1093.319434 339.981 
L 1094.462584 335.781 
L 1095.605734 338.931 
L 1096.748884 337.881 
L 1097.892033 339.981 
L 1101.321483 339.981 
L 1102.464633 334.731 
L 1103.607782 335.781 
L 1104.750932 338.931 
L 1105.894082 339.981 
L 1112.752981 339.981 
L 1113.896131 336.831 
L 1115.039281 338.931 
L 1116.18243 339.981 
L 1117.32558 338.931 
L 1118.46873 339.981 
L 1119.61188 338.931 
L 1120.75503 339.981 
L 1121.898179 337.881 
L 1124.184479 337.881 
L 1125.327629 336.831 
L 1126.470779 338.931 
L 1127.613928 337.881 
L 1128.757078 339.981 
L 1129.900228 335.781 
L 1131.043378 339.981 
L 1132.186528 333.681 
L 1133.329677 339.981 
L 1135.615977 337.881 
L 1136.759127 339.981 
L 1139.045427 339.981 
L 1140.188576 338.931 
L 1141.331726 339.981 
L 1142.474876 338.931 
L 1143.618026 339.981 
L 1144.761176 339.981 
L 1145.904325 336.831 
L 1147.047475 335.781 
L 1148.190625 338.931 
L 1149.333775 338.931 
L 1150.476925 333.681 
L 1151.620074 339.981 
L 1152.763224 338.931 
L 1155.049524 338.931 
L 1156.192674 335.781 
L 1157.335823 338.931 
L 1158.478973 339.981 
L 1159.622123 339.981 
L 1160.765273 336.831 
L 1161.908423 336.831 
L 1163.051573 334.731 
L 1164.194722 331.581 
L 1165.337872 337.881 
L 1166.481022 339.981 
L 1167.624172 332.631 
L 1168.767322 338.931 
L 1169.910471 334.731 
L 1171.053621 337.881 
L 1172.196771 338.931 
L 1173.339921 337.881 
L 1174.483071 337.881 
L 1175.62622 339.981 
L 1176.76937 338.931 
L 1177.91252 339.981 
L 1179.05567 334.731 
L 1180.19882 335.781 
L 1181.341969 338.931 
L 1182.485119 333.681 
L 1183.628269 337.881 
L 1184.771419 339.981 
L 1185.914569 337.881 
L 1187.057718 339.981 
L 1188.200868 332.631 
L 1189.344018 334.731 
L 1190.487168 333.681 
L 1191.630318 337.881 
L 1192.773468 338.931 
L 1193.916617 335.781 
L 1195.059767 334.731 
L 1196.202917 331.581 
L 1197.346067 337.881 
L 1198.489217 333.681 
L 1199.632366 336.831 
L 1200.775516 338.931 
L 1201.918666 335.781 
L 1203.061816 333.681 
L 1204.204966 333.681 
L 1205.348115 330.531 
L 1206.491265 332.631 
L 1207.634415 338.931 
L 1209.920715 330.531 
L 1211.063864 334.731 
L 1212.207014 333.681 
L 1213.350164 333.681 
L 1214.493314 334.731 
L 1215.636464 333.681 
L 1216.779613 333.681 
L 1217.922763 325.281 
L 1219.065913 315.831 
L 1220.209063 328.431 
L 1221.352213 308.481 
L 1222.495363 326.331 
L 1223.638512 323.181 
L 1224.781662 310.581 
L 1225.924812 325.281 
L 1227.067962 335.781 
L 1228.211112 330.531 
L 1229.354261 331.581 
L 1230.497411 336.831 
L 1232.783711 330.531 
L 1233.926861 330.531 
L 1235.07001 336.831 
L 1236.21316 336.831 
L 1237.35631 334.731 
L 1238.49946 337.881 
L 1239.64261 336.831 
L 1241.928909 336.831 
L 1243.072059 332.631 
L 1244.215209 339.981 
L 1245.358359 333.681 
L 1246.501508 339.981 
L 1247.644658 335.781 
L 1248.787808 333.681 
L 1249.930958 335.781 
L 1251.074108 335.781 
L 1253.360407 333.681 
L 1254.503557 320.031 
L 1255.646707 328.431 
L 1256.789857 328.431 
L 1257.933007 332.631 
L 1259.076156 323.181 
L 1260.219306 323.181 
L 1261.362456 339.981 
L 1262.505606 312.681 
L 1263.648756 296.931 
L 1264.791905 303.231 
L 1265.935055 299.031 
L 1267.078205 316.881 
L 1268.221355 287.481 
L 1269.364505 305.331 
L 1270.507654 284.331 
L 1271.650804 286.431 
L 1272.793954 300.081 
L 1273.937104 179.331 
L 1275.080254 339.981 
L 1276.223403 237.081 
L 1277.366553 261.231 
L 1278.509703 199.281 
L 1279.652853 339.981 
L 1280.796003 113.181 
L 1281.939153 339.981 
L 1283.082302 62.781 
L 1284.225452 339.981 
L 1285.368602 50.181 
L 1286.511752 339.981 
L 1287.654902 86.931 
L 1288.798051 246.531 
L 1289.941201 284.331 
L 1291.084351 294.831 
L 1292.227501 281.181 
L 1293.370651 292.731 
L 1294.5138 297.981 
L 1294.5138 297.981 
" clip-path="url(#paadc29970f)" style="fill: none; stroke: #0000ff; stroke-width: 1.5; stroke-linecap: square"/>
   </g>
   <g id="line2d_18">
    <path d="M 1054.452341 335.642041 
L 1055.595491 336.639591 
L 1056.73864 339.785473 
L 1057.88179 338.988008 
L 1059.02494 339.152038 
L 1060.16809 338.429517 
L 1061.31124 340.440245 
L 1062.454389 337.51574 
L 1063.597539 337.560788 
L 1064.740689 339.876818 
L 1065.883839 338.585107 
L 1067.026989 339.516996 
L 1068.170138 339.429186 
L 1069.313288 341.331522 
L 1070.456438 336.470905 
L 1071.599588 335.262949 
L 1072.742738 338.114956 
L 1073.885887 340.400127 
L 1075.029037 339.335126 
L 1076.172187 337.773447 
L 1077.315337 338.588037 
L 1078.458487 338.594325 
L 1079.601637 338.83809 
L 1080.744786 338.121111 
L 1081.887936 339.844761 
L 1083.031086 339.251362 
L 1084.174236 338.989946 
L 1085.317386 340.679528 
L 1086.460535 337.059009 
L 1087.603685 338.111095 
L 1088.746835 339.517963 
L 1089.889985 340.642383 
L 1091.033135 340.022761 
L 1092.176284 340.406041 
L 1093.319434 340.360934 
L 1094.462584 339.383138 
L 1095.605734 340.339195 
L 1096.748884 336.748889 
L 1097.892033 338.133161 
L 1099.035183 337.225319 
L 1100.178333 339.456199 
L 1101.321483 340.137211 
L 1102.464633 340.426202 
L 1103.607782 341.195673 
L 1104.750932 336.587229 
L 1105.894082 334.545637 
L 1107.037232 336.212723 
L 1108.180382 339.353104 
L 1109.323532 340.443194 
L 1110.466681 341.211857 
L 1111.609831 340.862535 
L 1112.752981 339.620086 
L 1113.896131 339.199572 
L 1115.039281 339.969768 
L 1116.18243 337.651896 
L 1117.32558 337.938639 
L 1118.46873 339.987381 
L 1119.61188 339.70075 
L 1120.75503 339.66318 
L 1121.898179 338.995852 
L 1123.041329 339.883902 
L 1124.184479 338.33198 
L 1125.327629 337.913914 
L 1126.470779 338.221989 
L 1127.613928 337.043241 
L 1128.757078 338.007275 
L 1129.900228 337.779426 
L 1131.043378 340.393822 
L 1132.186528 336.453932 
L 1133.329677 340.007814 
L 1134.472827 334.576542 
L 1135.615977 337.945057 
L 1136.759127 338.544714 
L 1137.902277 338.706803 
L 1139.045427 339.349303 
L 1140.188576 340.233269 
L 1141.331726 340.53876 
L 1142.474876 338.693584 
L 1143.618026 339.889398 
L 1144.761176 338.627056 
L 1147.047475 340.583757 
L 1148.190625 338.870857 
L 1149.333775 335.673572 
L 1150.476925 336.828765 
L 1151.620074 339.77312 
L 1152.763224 334.331389 
L 1153.906374 338.047336 
L 1155.049524 339.396094 
L 1156.192674 339.637492 
L 1157.335823 339.37795 
L 1158.478973 336.755993 
L 1159.622123 337.355612 
L 1160.765273 338.243901 
L 1161.908423 340.998173 
L 1163.051573 338.862436 
L 1164.194722 338.091543 
L 1165.337872 335.831999 
L 1166.481022 330.976336 
L 1167.624172 333.916581 
L 1168.767322 339.856628 
L 1169.910471 335.514357 
L 1171.053621 338.576287 
L 1172.196771 336.359431 
L 1173.339921 336.419396 
L 1174.483071 336.947874 
L 1175.62622 338.582652 
L 1176.76937 337.693792 
L 1177.91252 339.774606 
L 1179.05567 339.669121 
L 1180.19882 341.318616 
L 1181.341969 336.348021 
L 1182.485119 333.870554 
L 1183.628269 337.915781 
L 1184.771419 334.594111 
L 1185.914569 336.137541 
L 1187.057718 339.9841 
L 1188.200868 339.539105 
L 1189.344018 340.627998 
L 1190.487168 334.806151 
L 1191.630318 334.22644 
L 1192.773468 331.422174 
L 1195.059767 339.471091 
L 1196.202917 339.309301 
L 1197.346067 336.828805 
L 1198.489217 331.190598 
L 1199.632366 335.291504 
L 1200.775516 332.655582 
L 1201.918666 335.460122 
L 1203.061816 339.412458 
L 1204.204966 339.776762 
L 1205.348115 335.15831 
L 1206.491265 333.803268 
L 1207.634415 330.475903 
L 1208.777565 328.38676 
L 1209.920715 336.533236 
L 1211.063864 338.800817 
L 1212.207014 334.101135 
L 1214.493314 333.444086 
L 1215.636464 332.202174 
L 1216.779613 332.713102 
L 1219.065913 337.003312 
L 1220.209063 331.983602 
L 1221.352213 317.350771 
L 1222.495363 326.175124 
L 1223.638512 310.00705 
L 1224.781662 319.040708 
L 1225.924812 326.796194 
L 1227.067962 317.521358 
L 1228.211112 317.835956 
L 1229.354261 332.312991 
L 1230.497411 333.599545 
L 1231.640561 329.639065 
L 1232.783711 336.338332 
L 1233.926861 337.259588 
L 1235.07001 332.11695 
L 1236.21316 327.87392 
L 1237.35631 334.594174 
L 1238.49946 336.565601 
L 1239.64261 333.850403 
L 1240.785759 338.34845 
L 1241.928909 338.770576 
L 1243.072059 336.200627 
L 1244.215209 335.912868 
L 1245.358359 333.224593 
L 1246.501508 337.823578 
L 1247.644658 332.987183 
L 1248.787808 339.787064 
L 1249.930958 338.656925 
L 1251.074108 334.687426 
L 1252.217258 333.025366 
L 1253.360407 335.751216 
L 1254.503557 334.932841 
L 1255.646707 336.155407 
L 1256.789857 325.129799 
L 1257.933007 325.589043 
L 1259.076156 325.276936 
L 1260.219306 332.007279 
L 1261.362456 327.659766 
L 1262.505606 321.801286 
L 1263.648756 338.537369 
L 1264.791905 327.644163 
L 1265.935055 303.790043 
L 1268.221355 293.795137 
L 1269.364505 313.308004 
L 1270.507654 297.109938 
L 1271.650804 310.556964 
L 1272.793954 293.327642 
L 1273.937104 283.664377 
L 1275.080254 316.817229 
L 1276.223403 194.611425 
L 1277.366553 296.276584 
L 1278.509703 262.522898 
L 1279.652853 285.523485 
L 1280.796003 187.609026 
L 1281.939153 346.192116 
L 1283.082302 145.16225 
L 1284.225452 315.536495 
L 1285.368602 99.728678 
L 1286.511752 316.928612 
L 1287.654902 75.346079 
L 1288.798051 308.128489 
L 1289.941201 139.755631 
L 1291.084351 204.480173 
L 1292.227501 237.76626 
L 1293.370651 314.04433 
L 1294.5138 297.702069 
L 1294.5138 297.702069 
" clip-path="url(#paadc29970f)" style="fill: none; stroke: #ffa500; stroke-width: 1.5; stroke-linecap: square"/>
   </g>
   <g id="line2d_19">
    <path d="M 1295.65695 290.063303 
L 1296.8001 314.169754 
L 1297.94325 274.588023 
L 1299.0864 307.034116 
L 1300.229549 274.699892 
L 1301.372699 312.050206 
L 1302.515849 277.440647 
L 1303.658999 304.459927 
L 1304.802149 290.570039 
L 1305.945298 291.197662 
L 1307.088448 289.244584 
L 1308.231598 288.616316 
L 1309.374748 293.707954 
L 1310.517898 287.989638 
" clip-path="url(#paadc29970f)" style="fill: none; stroke: #ff0000; stroke-width: 1.5; stroke-linecap: square"/>
   </g>
   <g id="patch_3">
    <path d="M 32.190625 367.701 
L 32.190625 35.061 
" style="fill: none; stroke: #000000; stroke-width: 0.8; stroke-linejoin: miter; stroke-linecap: square"/>
   </g>
   <g id="patch_4">
    <path d="M 1371.390625 367.701 
L 1371.390625 35.061 
" style="fill: none; stroke: #000000; stroke-width: 0.8; stroke-linejoin: miter; stroke-linecap: square"/>
   </g>
   <g id="patch_5">
    <path d="M 32.190625 367.701 
L 1371.390625 367.701 
" style="fill: none; stroke: #000000; stroke-width: 0.8; stroke-linejoin: miter; stroke-linecap: square"/>
   </g>
   <g id="patch_6">
    <path d="M 32.190625 35.061 
L 1371.390625 35.061 
" style="fill: none; stroke: #000000; stroke-width: 0.8; stroke-linejoin: miter; stroke-linecap: square"/>
   </g>
   <g id="text_17">
    <!-- 每日新增预测 - 云南 -->
    <g transform="translate(648.393438 17.041875)scale(0.12 -0.12)">
     <defs>
      <path id="WenQuanYiZenHei-6bcf" d="M 6138 2181 
Q 6113 1988 6138 1800 
Q 5788 1819 5438 1819 
L 4975 1819 
L 4863 738 
L 5806 738 
L 5806 394 
L 4831 394 
L 4775 -144 
Q 4719 -563 4350 -725 
Q 4013 -856 3550 -825 
L 3288 -819 
Q 3331 -663 3275 -519 
Q 3219 -375 3113 -288 
Q 3381 -313 3759 -303 
Q 4138 -294 4231 -238 
Q 4338 -163 4350 88 
L 4381 394 
L 1025 394 
L 1244 1819 
L 813 1819 
Q 463 1819 113 1800 
Q 138 1988 113 2181 
Q 463 2163 813 2163 
L 1294 2163 
L 1488 3431 
L 1488 3581 
L 1506 3581 
L 1513 3613 
L 1713 3581 
L 5156 3581 
L 5013 2163 
L 5438 2163 
Q 5788 2163 6138 2181 
z
M 5588 4463 
Q 5569 4269 5588 4081 
Q 5244 4100 4894 4100 
L 1813 4100 
Q 1344 3463 606 2788 
Q 481 2988 256 3069 
Q 744 3494 1116 3972 
Q 1488 4450 1919 5181 
Q 2119 5044 2344 4950 
Q 2213 4688 2050 4444 
L 4894 4444 
Q 5238 4444 5588 4463 
z
M 2844 3238 
L 1906 3238 
L 1744 2163 
L 3244 2163 
L 2581 3038 
L 2844 3238 
z
M 3250 2163 
L 4563 2163 
L 4669 3238 
L 3044 3238 
L 3638 2456 
L 3250 2163 
z
M 2944 1819 
Q 3275 1394 3550 938 
L 3213 738 
L 4419 738 
L 4525 1819 
L 2944 1819 
z
M 2656 1819 
L 1694 1819 
L 1525 738 
L 3094 738 
Q 2806 1219 2450 1650 
L 2656 1819 
z
" transform="scale(0.015625)"/>
      <path id="WenQuanYiZenHei-65e5" d="M 1494 -775 
Q 1244 -750 988 -775 
Q 1013 -313 1013 156 
L 1013 4875 
L 5269 4875 
L 5269 -763 
L 4813 -763 
L 4813 156 
L 1469 156 
Q 1469 -313 1494 -775 
z
M 4813 2700 
L 4813 4500 
L 1469 4500 
L 1469 2700 
L 4813 2700 
z
M 4813 531 
L 4813 2325 
L 1469 2325 
L 1469 531 
L 4813 531 
z
" transform="scale(0.015625)"/>
      <path id="WenQuanYiZenHei-65b0" d="M 5419 -763 
Q 5188 -738 4963 -763 
Q 4981 -344 4981 75 
L 4981 2819 
L 4188 2819 
L 4188 1706 
Q 4188 63 3163 -738 
Q 3019 -519 2769 -469 
Q 3769 131 3769 1706 
L 3769 4769 
L 3875 4769 
L 3844 4831 
L 4294 4781 
Q 4438 4769 4894 4816 
Q 5350 4863 5512 4931 
Q 5675 5000 5763 5094 
Q 5850 4881 5981 4694 
Q 5713 4544 5263 4519 
L 4188 4438 
L 4188 3100 
L 5563 3100 
Q 5850 3100 6131 3113 
Q 6119 2956 6131 2806 
L 5394 2819 
L 5394 75 
Q 5394 -344 5419 -763 
z
M 2981 213 
Q 2656 744 2256 1225 
L 2606 1513 
Q 3025 1006 3369 450 
L 2981 213 
z
M 1169 1525 
Q 1375 1419 1594 1363 
Q 1281 488 469 -469 
Q 331 -300 119 -244 
Q 575 263 888 900 
Q 1038 1206 1169 1525 
z
M 1825 6 
L 1825 1769 
L 1081 1769 
Q 794 1769 513 1756 
Q 525 1913 513 2063 
Q 794 2050 1081 2050 
L 1825 2050 
L 1825 2775 
L 994 2775 
Q 706 2775 425 2763 
Q 438 2919 425 3075 
Q 706 3056 994 3056 
L 1825 3056 
L 1825 3088 
L 1906 3088 
Q 2288 3656 2588 4381 
Q 2794 4269 3013 4206 
Q 2800 3675 2381 3056 
L 3013 3056 
Q 3294 3056 3581 3075 
Q 3563 2919 3581 2763 
Q 3294 2775 3013 2775 
L 2238 2775 
L 2238 2050 
L 2925 2050 
Q 3206 2050 3494 2063 
Q 3475 1913 3494 1756 
Q 3206 1769 2925 1769 
L 2238 1769 
L 2238 -156 
Q 2238 -413 2075 -581 
Q 1844 -794 1306 -794 
Q 1363 -519 1188 -288 
Q 1338 -313 1534 -316 
Q 1731 -319 1778 -278 
Q 1825 -238 1825 6 
z
M 1875 3388 
L 1500 3131 
L 825 4088 
L 1200 4350 
L 1875 3388 
z
M 3419 4713 
Q 3400 4563 3419 4406 
Q 3131 4419 2850 4419 
L 1125 4419 
Q 838 4419 556 4406 
Q 569 4563 556 4713 
Q 838 4700 1125 4700 
L 1763 4700 
L 1388 5088 
L 1719 5406 
L 2288 4813 
L 2175 4700 
L 2850 4700 
Q 3131 4700 3419 4713 
z
" transform="scale(0.015625)"/>
      <path id="WenQuanYiZenHei-589e" d="M 3138 -769 
Q 2913 -744 2688 -769 
Q 2706 -356 2706 56 
L 2706 1719 
L 5706 1719 
L 5706 -756 
L 5300 -756 
L 5300 -338 
L 3119 -338 
Q 3125 -550 3138 -769 
z
M 5113 3569 
Q 5344 3606 5563 3688 
Q 5669 3175 5256 2694 
Q 5113 2519 4975 2506 
Q 4831 2725 4588 2813 
Q 4806 2831 4997 3068 
Q 5188 3306 5113 3569 
z
M 3850 2763 
L 3469 2538 
L 2925 3456 
L 3313 3681 
L 3850 2763 
z
M 2400 2100 
Q 2469 3138 2400 4175 
L 3413 4175 
Q 3138 4550 2825 4888 
L 3156 5194 
Q 3581 4725 3938 4206 
L 3900 4175 
L 4456 4175 
Q 4863 4575 5131 5163 
Q 5325 5044 5538 4975 
Q 5369 4575 5013 4175 
L 6056 4175 
Q 5981 3138 6056 2100 
L 2400 2100 
z
M 5300 806 
L 5300 1450 
L 3113 1450 
Q 3113 1125 3113 806 
L 5300 806 
z
M 5300 563 
L 3113 563 
L 3113 -94 
L 5300 -94 
L 5300 563 
z
M 4431 3913 
L 4431 2363 
L 5650 2363 
L 5650 3913 
L 4756 3913 
L 4700 3856 
Q 4681 3888 4656 3913 
L 4431 3913 
z
M 4025 3913 
L 2806 3913 
L 2806 2363 
L 4025 2363 
L 4025 3913 
z
M -31 625 
Q 506 763 1006 975 
L 1006 3206 
L 669 3206 
Q 369 3206 75 3188 
Q 94 3356 75 3531 
Q 369 3513 669 3513 
L 1006 3513 
L 1006 4263 
Q 1006 4700 981 5131 
Q 1206 5106 1431 5131 
Q 1413 4700 1413 4263 
L 1413 3513 
L 2238 3531 
Q 2219 3356 2238 3188 
L 1413 3206 
L 1413 1163 
L 2150 1531 
L 2194 1256 
Q 1269 775 813 519 
L 194 144 
Q 138 438 -31 625 
z
" transform="scale(0.015625)"/>
      <path id="WenQuanYiZenHei-9884" d="M 1206 19 
L 1206 2888 
L 669 2888 
Q 356 2888 50 2869 
Q 63 3044 50 3213 
Q 363 3194 669 3194 
L 1250 3194 
Q 950 3631 606 4031 
L 963 4338 
L 1263 3975 
L 1913 4719 
L 731 4719 
Q 419 4719 106 4706 
Q 125 4875 106 5044 
Q 419 5031 731 5031 
L 2481 5031 
L 2544 4663 
Q 2394 4613 2256 4466 
Q 2119 4319 1525 3631 
Q 1656 3444 1788 3250 
L 1700 3194 
L 2700 3194 
L 2763 2825 
Q 2656 2819 2613 2763 
L 2100 2038 
L 1750 2288 
L 2175 2888 
L 1638 2888 
L 1638 -150 
Q 1638 -525 1363 -669 
Q 1075 -819 525 -813 
Q 594 -513 388 -294 
Q 575 -313 837 -316 
Q 1100 -319 1153 -272 
Q 1206 -225 1206 19 
z
M 5813 -888 
Q 5100 -225 4306 375 
L 4669 719 
Q 5481 106 6219 -575 
L 5813 -888 
z
M 2375 -906 
Q 2294 -631 2025 -506 
Q 2769 -431 3353 19 
Q 3938 469 3938 1069 
L 3938 2200 
Q 3938 2625 3913 3050 
Q 4188 3025 4456 3050 
Q 4431 2625 4431 2200 
L 4431 1069 
Q 4431 681 4225 319 
Q 3644 -606 2375 -906 
z
M 3444 488 
Q 3169 513 2894 488 
Q 2919 913 2919 1338 
L 2919 3675 
Q 3219 3675 3525 3675 
Q 3750 4013 3931 4525 
L 3238 4525 
Q 2888 4525 2538 4513 
Q 2556 4669 2538 4831 
Q 2888 4813 3238 4813 
L 5313 4813 
Q 5663 4813 6006 4831 
Q 5988 4669 6006 4513 
Q 5663 4525 5313 4525 
L 4481 4525 
Q 4388 4088 4088 3675 
L 5644 3675 
L 5644 513 
L 5144 513 
L 5144 3388 
L 3894 3388 
L 3875 3363 
Q 3863 3375 3844 3388 
Q 3631 3388 3413 3388 
L 3419 1338 
Q 3419 913 3444 488 
z
" transform="scale(0.015625)"/>
      <path id="WenQuanYiZenHei-6d4b" d="M 5450 138 
L 5450 4306 
Q 5450 4750 5425 5188 
Q 5663 5163 5906 5188 
Q 5881 4750 5881 4306 
L 5881 -38 
Q 5888 -569 5519 -719 
Q 5194 -831 4825 -813 
Q 4894 -519 4694 -281 
Q 4869 -306 5094 -309 
Q 5319 -313 5384 -256 
Q 5450 -200 5450 138 
z
M 4900 938 
Q 4663 963 4419 938 
Q 4444 1375 4444 1819 
L 4444 3381 
Q 4444 3819 4419 4263 
Q 4663 4238 4900 4263 
Q 4875 3819 4875 3381 
L 4875 1819 
Q 4875 1375 4900 938 
z
M 2750 2025 
L 2750 3038 
Q 2750 3481 2725 3919 
Q 2963 3894 3206 3919 
Q 3181 3481 3181 3038 
L 3181 2025 
Q 3181 1263 2919 625 
L 3231 956 
Q 3781 431 4256 -150 
L 3888 -456 
Q 3431 106 2906 600 
Q 2531 -288 1738 -769 
Q 1606 -519 1338 -450 
Q 1988 -156 2369 478 
Q 2750 1113 2750 2025 
z
M 2363 969 
Q 2119 994 1881 969 
Q 1906 1406 1906 1850 
L 1906 5038 
L 3956 5031 
L 3956 1200 
L 3525 1200 
L 3525 4713 
L 2338 4713 
L 2338 1850 
Q 2338 1406 2363 969 
z
M 663 -738 
Q 481 -588 206 -575 
Q 400 -69 606 581 
Q 813 1231 1200 2838 
L 1381 2706 
L 875 338 
L 663 -738 
z
M 1006 2856 
L 731 2550 
L 75 3400 
L 350 3713 
L 1006 2856 
z
M 1088 3913 
Q 781 4388 425 4800 
L 694 5125 
Q 1069 4688 1388 4188 
L 1088 3913 
z
" transform="scale(0.015625)"/>
      <path id="WenQuanYiZenHei-20" transform="scale(0.015625)"/>
      <path id="WenQuanYiZenHei-4e91" d="M 1094 2394 
Q 713 2394 331 2375 
Q 350 2581 331 2788 
Q 713 2769 1094 2769 
L 5206 2769 
Q 5588 2769 5969 2788 
Q 5944 2581 5969 2375 
Q 5588 2394 5206 2394 
L 3031 2394 
Q 2888 2156 2463 1519 
L 1388 -63 
L 4150 163 
L 4538 213 
L 3713 1500 
L 4131 1781 
L 4894 613 
L 5613 -594 
L 5175 -844 
L 4756 -144 
L 4181 -175 
L 750 -500 
L 719 -125 
Q 863 -100 956 19 
Q 1169 313 1659 1088 
Q 2150 1863 2419 2394 
L 1094 2394 
z
M 5250 4656 
Q 5225 4450 5250 4244 
Q 4869 4263 4488 4263 
L 1706 4263 
Q 1325 4263 944 4244 
Q 963 4450 944 4656 
Q 1325 4638 1706 4638 
L 4488 4638 
Q 4869 4638 5250 4656 
z
" transform="scale(0.015625)"/>
      <path id="WenQuanYiZenHei-5357" d="M 3363 -769 
Q 3125 -744 2888 -769 
Q 2906 -325 2906 113 
L 2906 700 
L 1906 700 
Q 1581 700 1263 681 
Q 1281 856 1263 1031 
Q 1581 1019 1906 1019 
L 2906 1019 
L 2906 1619 
L 2050 1619 
Q 1731 1619 1406 1606 
Q 1425 1781 1406 1956 
L 2281 1938 
Q 2013 2375 1694 2781 
L 2000 3025 
L 1013 3025 
L 1019 131 
Q 1019 -306 1044 -750 
Q 800 -725 563 -750 
Q 588 -306 581 131 
L 581 3344 
L 2906 3344 
L 2906 4075 
L 763 4075 
Q 438 4075 119 4056 
Q 131 4231 119 4406 
Q 438 4394 763 4394 
L 2906 4394 
Q 2906 4825 2888 5256 
Q 3125 5231 3363 5256 
Q 3344 4825 3344 4394 
L 5488 4394 
Q 5813 4394 6131 4406 
Q 6119 4231 6131 4056 
Q 5813 4075 5488 4075 
L 3344 4075 
L 3344 3344 
L 5663 3344 
L 5663 -125 
Q 5663 -506 5388 -650 
Q 5100 -806 4544 -800 
Q 4613 -494 4400 -269 
Q 4594 -294 4856 -297 
Q 5119 -300 5175 -253 
Q 5231 -206 5231 50 
L 5231 3025 
L 4063 3025 
Q 4238 2894 4431 2800 
Q 4269 2525 3831 1938 
L 4200 1938 
Q 4519 1938 4844 1956 
Q 4825 1781 4844 1606 
Q 4519 1619 4200 1619 
L 3600 1619 
Q 3588 1588 3569 1619 
L 3344 1619 
L 3344 1019 
L 4344 1019 
Q 4669 1019 4988 1031 
Q 4969 856 4988 681 
Q 4669 700 4344 700 
L 3344 700 
L 3344 113 
Q 3344 -325 3363 -769 
z
M 3300 1938 
Q 3394 2063 3475 2181 
L 4006 3025 
L 2113 3025 
Q 2500 2525 2819 1975 
L 2750 1938 
L 3300 1938 
z
" transform="scale(0.015625)"/>
     </defs>
     <use xlink:href="#WenQuanYiZenHei-6bcf"/>
     <use xlink:href="#WenQuanYiZenHei-65e5" x="100"/>
     <use xlink:href="#WenQuanYiZenHei-65b0" x="200"/>
     <use xlink:href="#WenQuanYiZenHei-589e" x="300"/>
     <use xlink:href="#WenQuanYiZenHei-9884" x="400"/>
     <use xlink:href="#WenQuanYiZenHei-6d4b" x="500"/>
     <use xlink:href="#WenQuanYiZenHei-20" x="600"/>
     <use xlink:href="#WenQuanYiZenHei-2d" x="629.980469"/>
     <use xlink:href="#WenQuanYiZenHei-20" x="659.960938"/>
     <use xlink:href="#WenQuanYiZenHei-4e91" x="689.941406"/>
     <use xlink:href="#WenQuanYiZenHei-5357" x="789.941406"/>
    </g>
    <!-- ARIMA (4, 1, 1)x(1, 0, 1, 7) (R2 = 0.767382) -->
    <g transform="translate(583.182813 29.061)scale(0.12 -0.12)">
     <defs>
      <path id="WenQuanYiZenHei-41" d="M 3550 0 
L 2988 0 
L 2550 1281 
L 919 1281 
L 531 0 
L 69 0 
L 1494 4388 
L 2125 4388 
L 3550 0 
z
M 2425 1694 
L 1756 3800 
L 1075 1694 
L 2425 1694 
z
" transform="scale(0.015625)"/>
      <path id="WenQuanYiZenHei-52" d="M 3675 0 
L 3100 0 
L 2288 1900 
L 1069 1900 
L 1069 0 
L 519 0 
L 519 4388 
L 2163 4388 
Q 3006 4388 3400 3900 
Q 3581 3663 3625 3325 
Q 3631 3250 3631 3163 
Q 3631 2594 3219 2244 
Q 3038 2100 2813 2038 
L 3675 0 
z
M 3081 3169 
Q 3081 3825 2356 3906 
Q 2263 3919 2163 3919 
L 1069 3919 
L 1069 2350 
L 2100 2350 
Q 2906 2350 3044 2919 
Q 3081 3031 3081 3169 
z
" transform="scale(0.015625)"/>
      <path id="WenQuanYiZenHei-49" d="M 1100 0 
L 550 0 
L 550 4388 
L 1100 4388 
L 1100 0 
z
" transform="scale(0.015625)"/>
      <path id="WenQuanYiZenHei-4d" d="M 4756 0 
L 4206 0 
L 4206 3831 
L 4181 3831 
L 2788 0 
L 2419 0 
L 1000 3831 
L 975 3831 
L 975 0 
L 513 0 
L 513 4388 
L 1331 4388 
L 2656 875 
L 3950 4388 
L 4756 4388 
L 4756 0 
z
" transform="scale(0.015625)"/>
      <path id="WenQuanYiZenHei-28" d="M 1606 -1094 
L 1275 -1094 
Q 475 -100 338 1231 
Q 319 1438 319 1656 
Q 319 3031 1156 4244 
Q 1213 4313 1269 4388 
L 1600 4388 
Q 806 3169 794 1681 
Q 794 188 1606 -1094 
z
" transform="scale(0.015625)"/>
      <path id="WenQuanYiZenHei-34" d="M 3631 1025 
L 2913 1025 
L 2913 0 
L 2381 0 
L 2381 1025 
L 219 1025 
L 219 1388 
L 2225 4388 
L 2913 4388 
L 2913 1444 
L 3631 1444 
L 3631 1025 
z
M 2381 1444 
L 2381 3963 
L 788 1444 
L 2381 1444 
z
" transform="scale(0.015625)"/>
      <path id="WenQuanYiZenHei-2c" d="M 1363 75 
L 881 -825 
L 606 -825 
L 994 0 
L 656 0 
L 656 738 
L 1363 738 
L 1363 75 
z
" transform="scale(0.015625)"/>
      <path id="WenQuanYiZenHei-29" d="M 1600 1656 
Q 1600 306 869 -788 
Q 769 -950 644 -1094 
L 313 -1094 
Q 1125 188 1125 1681 
Q 1125 3169 338 4363 
Q 325 4375 319 4388 
L 650 4388 
Q 1525 3231 1594 1863 
Q 1600 1763 1600 1656 
z
" transform="scale(0.015625)"/>
      <path id="WenQuanYiZenHei-78" d="M 2806 0 
L 2213 0 
L 1394 1319 
L 544 0 
L 50 0 
L 1144 1681 
L 163 3250 
L 744 3250 
L 1431 2138 
L 2144 3250 
L 2631 3250 
L 1681 1794 
L 2806 0 
z
" transform="scale(0.015625)"/>
      <path id="WenQuanYiZenHei-37" d="M 3400 4056 
Q 1838 2175 1838 0 
L 1275 0 
Q 1269 1438 2056 2825 
Q 2381 3400 2825 3913 
L 444 3913 
L 500 4388 
L 3400 4388 
L 3400 4056 
z
" transform="scale(0.015625)"/>
      <path id="WenQuanYiZenHei-3d" d="M 3569 2256 
L 263 2256 
L 263 2675 
L 3569 2675 
L 3569 2256 
z
M 3569 1019 
L 263 1019 
L 263 1431 
L 3569 1431 
L 3569 1019 
z
" transform="scale(0.015625)"/>
      <path id="WenQuanYiZenHei-2e" d="M 1344 0 
L 631 0 
L 631 725 
L 1344 725 
L 1344 0 
z
" transform="scale(0.015625)"/>
      <path id="WenQuanYiZenHei-36" d="M 3550 1431 
Q 3550 725 3006 288 
Q 2581 -63 1994 -63 
Q 1013 -63 563 825 
Q 288 1363 288 2081 
Q 288 3294 856 3938 
Q 1319 4456 2075 4456 
Q 2969 4456 3363 3756 
Q 3431 3631 3481 3481 
L 2988 3350 
Q 2750 3994 2075 4006 
Q 1056 4006 844 2669 
Q 794 2356 794 1981 
L 806 1981 
Q 1006 2506 1544 2744 
Q 1819 2869 2119 2869 
Q 2788 2869 3213 2375 
Q 3550 1975 3550 1431 
z
M 3038 1406 
Q 3038 1906 2656 2213 
Q 2381 2431 2038 2431 
Q 1525 2431 1181 2044 
Q 919 1744 919 1356 
Q 919 881 1344 581 
Q 1631 375 1981 375 
Q 2519 375 2838 781 
Q 3038 1050 3038 1406 
z
" transform="scale(0.015625)"/>
      <path id="WenQuanYiZenHei-38" d="M 3619 1175 
Q 3619 431 2850 100 
Q 2444 -63 1944 -63 
Q 1231 -63 725 269 
Q 225 594 225 1125 
Q 225 1881 1269 2281 
Q 719 2481 519 2938 
Q 444 3119 444 3319 
Q 444 4000 1144 4294 
Q 1519 4456 1963 4456 
Q 2669 4456 3094 4094 
Q 3425 3813 3425 3369 
Q 3425 2638 2575 2356 
Q 3231 2056 3450 1725 
Q 3619 1488 3619 1175 
z
M 2944 3344 
Q 2944 3906 2288 4019 
Q 2138 4044 1969 4044 
Q 1438 4044 1163 3775 
Q 1000 3613 1000 3375 
Q 1000 2925 1594 2663 
Q 1756 2588 1931 2550 
Q 2581 2725 2788 2956 
Q 2944 3125 2944 3344 
z
M 3075 1094 
Q 3075 1738 1875 2050 
Q 1094 1881 850 1463 
Q 763 1313 763 1131 
Q 763 569 1456 406 
Q 1681 344 1944 344 
Q 2519 344 2850 619 
Q 3075 813 3075 1094 
z
" transform="scale(0.015625)"/>
     </defs>
     <use xlink:href="#WenQuanYiZenHei-41"/>
     <use xlink:href="#WenQuanYiZenHei-52" x="55.957031"/>
     <use xlink:href="#WenQuanYiZenHei-49" x="117.871094"/>
     <use xlink:href="#WenQuanYiZenHei-4d" x="143.847656"/>
     <use xlink:href="#WenQuanYiZenHei-41" x="225.78125"/>
     <use xlink:href="#WenQuanYiZenHei-20" x="281.738281"/>
     <use xlink:href="#WenQuanYiZenHei-28" x="311.71875"/>
     <use xlink:href="#WenQuanYiZenHei-34" x="341.699219"/>
     <use xlink:href="#WenQuanYiZenHei-2c" x="401.660156"/>
     <use xlink:href="#WenQuanYiZenHei-20" x="431.640625"/>
     <use xlink:href="#WenQuanYiZenHei-31" x="461.621094"/>
     <use xlink:href="#WenQuanYiZenHei-2c" x="521.582031"/>
     <use xlink:href="#WenQuanYiZenHei-20" x="551.5625"/>
     <use xlink:href="#WenQuanYiZenHei-31" x="581.542969"/>
     <use xlink:href="#WenQuanYiZenHei-29" x="641.503906"/>
     <use xlink:href="#WenQuanYiZenHei-78" x="671.484375"/>
     <use xlink:href="#WenQuanYiZenHei-28" x="715.429688"/>
     <use xlink:href="#WenQuanYiZenHei-31" x="745.410156"/>
     <use xlink:href="#WenQuanYiZenHei-2c" x="805.371094"/>
     <use xlink:href="#WenQuanYiZenHei-20" x="835.351562"/>
     <use xlink:href="#WenQuanYiZenHei-30" x="865.332031"/>
     <use xlink:href="#WenQuanYiZenHei-2c" x="925.292969"/>
     <use xlink:href="#WenQuanYiZenHei-20" x="955.273438"/>
     <use xlink:href="#WenQuanYiZenHei-31" x="985.253906"/>
     <use xlink:href="#WenQuanYiZenHei-2c" x="1045.214844"/>
     <use xlink:href="#WenQuanYiZenHei-20" x="1075.195312"/>
     <use xlink:href="#WenQuanYiZenHei-37" x="1105.175781"/>
     <use xlink:href="#WenQuanYiZenHei-29" x="1165.136719"/>
     <use xlink:href="#WenQuanYiZenHei-20" x="1195.117188"/>
     <use xlink:href="#WenQuanYiZenHei-28" x="1225.097656"/>
     <use xlink:href="#WenQuanYiZenHei-52" x="1255.078125"/>
     <use xlink:href="#WenQuanYiZenHei-32" x="1316.992188"/>
     <use xlink:href="#WenQuanYiZenHei-20" x="1376.953125"/>
     <use xlink:href="#WenQuanYiZenHei-3d" x="1406.933594"/>
     <use xlink:href="#WenQuanYiZenHei-20" x="1466.894531"/>
     <use xlink:href="#WenQuanYiZenHei-30" x="1496.875"/>
     <use xlink:href="#WenQuanYiZenHei-2e" x="1556.835938"/>
     <use xlink:href="#WenQuanYiZenHei-37" x="1586.816406"/>
     <use xlink:href="#WenQuanYiZenHei-36" x="1646.777344"/>
     <use xlink:href="#WenQuanYiZenHei-37" x="1706.738281"/>
     <use xlink:href="#WenQuanYiZenHei-33" x="1766.699219"/>
     <use xlink:href="#WenQuanYiZenHei-38" x="1826.660156"/>
     <use xlink:href="#WenQuanYiZenHei-32" x="1886.621094"/>
     <use xlink:href="#WenQuanYiZenHei-29" x="1946.582031"/>
    </g>
   </g>
   <g id="legend_1">
    <g id="patch_7">
     <path d="M 1302.390625 87.056312 
L 1364.390625 87.056312 
Q 1366.390625 87.056312 1366.390625 85.056312 
L 1366.390625 42.061 
Q 1366.390625 40.061 1364.390625 40.061 
L 1302.390625 40.061 
Q 1300.390625 40.061 1300.390625 42.061 
L 1300.390625 85.056312 
Q 1300.390625 87.056312 1302.390625 87.056312 
z
" style="fill: #ffffff; opacity: 0.8; stroke: #cccccc; stroke-linejoin: miter"/>
    </g>
    <g id="line2d_20">
     <path d="M 1304.390625 48.695375 
L 1314.390625 48.695375 
L 1324.390625 48.695375 
" style="fill: none; stroke: #0000ff; stroke-width: 1.5; stroke-linecap: square"/>
    </g>
    <g id="text_18">
     <!-- 实际值 -->
     <g transform="translate(1332.390625 52.195375)scale(0.1 -0.1)">
      <defs>
       <path id="WenQuanYiZenHei-5b9e" d="M 1025 1175 
Q 694 1175 356 1163 
Q 375 1344 356 1525 
Q 694 1506 1025 1506 
L 3363 1506 
L 3363 2625 
Q 3363 3075 3338 3519 
Q 3581 3494 3825 3519 
Q 3800 3075 3800 2625 
L 3800 1506 
L 5406 1506 
Q 5744 1506 6075 1525 
Q 6056 1344 6075 1163 
Q 5744 1175 5406 1175 
L 4038 1175 
L 4981 456 
L 6131 -488 
L 5819 -856 
L 4681 75 
L 3638 875 
Q 3313 231 2475 -231 
Q 1638 -694 700 -825 
Q 638 -519 344 -400 
Q 1450 -319 2406 244 
Q 3113 656 3300 1175 
L 1025 1175 
z
M 2263 1581 
Q 1763 2081 1200 2513 
L 1494 2894 
Q 2081 2444 2600 1919 
L 2263 1581 
z
M 2638 2500 
Q 2219 2963 1731 3363 
L 2044 3738 
Q 2556 3313 3000 2819 
L 2638 2500 
z
M 919 3156 
L 481 3156 
L 481 4344 
L 3069 4344 
Q 2794 4731 2469 5081 
L 2825 5413 
Q 3256 4944 3613 4413 
L 3513 4344 
L 5869 4344 
L 5869 3156 
L 5425 3156 
L 5425 4013 
L 919 4013 
L 919 3156 
z
" transform="scale(0.015625)"/>
       <path id="WenQuanYiZenHei-9645" d="M 6000 431 
L 5569 194 
L 4963 1219 
L 4313 2219 
L 4719 2494 
L 5375 1481 
L 6000 431 
z
M 2956 2450 
Q 3181 2344 3419 2294 
Q 3006 1038 1944 -188 
Q 1794 -6 1569 56 
Q 2069 600 2372 1156 
Q 2675 1713 2956 2450 
z
M 3750 25 
L 3750 2913 
L 2819 2913 
Q 2475 2913 2125 2894 
Q 2144 3081 2125 3269 
Q 2475 3256 2819 3256 
L 5469 3256 
Q 5819 3256 6163 3269 
Q 6144 3081 6163 2894 
Q 5813 2913 5469 2913 
L 4194 2913 
L 4194 -144 
Q 4194 -725 3456 -813 
L 3263 -825 
Q 3325 -506 3125 -250 
Q 3250 -281 3394 -306 
Q 3663 -313 3706 -272 
Q 3750 -231 3750 25 
z
M 5544 4950 
Q 5525 4756 5544 4569 
Q 5194 4588 4844 4588 
L 3325 4588 
Q 2975 4588 2625 4569 
Q 2644 4756 2625 4950 
Q 2975 4931 3325 4931 
L 4844 4931 
Q 5194 4931 5544 4950 
z
M 819 -850 
Q 581 -825 344 -850 
Q 369 -419 369 19 
L 363 4938 
L 2256 4938 
L 2256 4625 
Q 2150 4513 2075 4375 
L 1481 3238 
Q 2181 2319 2181 1156 
Q 2144 400 1569 163 
L 1406 88 
Q 1288 300 1138 481 
Q 1294 538 1450 606 
Q 1763 744 1794 1156 
Q 1794 1744 1600 2300 
Q 1406 2856 1038 3313 
L 1725 4625 
L 788 4625 
L 794 19 
Q 794 -419 819 -850 
z
" transform="scale(0.015625)"/>
       <path id="WenQuanYiZenHei-503c" d="M 6175 -219 
Q 6156 -388 6175 -556 
Q 5863 -544 5550 -544 
L 2313 -544 
Q 2000 -544 1688 -556 
Q 1706 -388 1688 -219 
L 2506 -231 
L 2506 3469 
L 3644 3469 
L 3644 4119 
L 2638 4119 
Q 2325 4119 2013 4100 
Q 2031 4269 2013 4438 
Q 2325 4425 2638 4425 
L 3638 4425 
Q 3638 4719 3619 5013 
Q 3856 4988 4094 5013 
Q 4075 4719 4075 4425 
L 5344 4425 
Q 5650 4425 5963 4438 
Q 5950 4269 5963 4100 
Q 5656 4119 5344 4119 
L 4069 4119 
L 4069 3469 
L 5300 3469 
L 5300 -231 
L 5550 -231 
Q 5863 -231 6175 -219 
z
M 4869 2556 
L 4869 3156 
L 2931 3156 
Q 2931 2850 2931 2556 
L 4869 2556 
z
M 4869 1669 
L 4869 2250 
L 2931 2250 
L 2931 1669 
L 4869 1669 
z
M 4869 731 
L 4869 1363 
L 2931 1363 
L 2931 731 
L 4869 731 
z
M 4869 -231 
L 4869 425 
L 2931 425 
L 2931 -231 
L 4869 -231 
z
M 2106 4925 
Q 1856 4075 1463 3338 
L 1463 31 
Q 1463 -413 1481 -850 
Q 1256 -825 1031 -850 
Q 1050 -413 1050 31 
L 1050 2681 
Q 750 2269 375 1931 
Q 238 2156 0 2256 
Q 331 2544 619 2875 
Q 1094 3425 1300 3950 
Q 1494 4469 1625 5050 
Q 1850 4963 2106 4925 
z
" transform="scale(0.015625)"/>
      </defs>
      <use xlink:href="#WenQuanYiZenHei-5b9e"/>
      <use xlink:href="#WenQuanYiZenHei-9645" x="100"/>
      <use xlink:href="#WenQuanYiZenHei-503c" x="200"/>
     </g>
    </g>
    <g id="line2d_21">
     <path d="M 1304.390625 63.3735 
L 1314.390625 63.3735 
L 1324.390625 63.3735 
" style="fill: none; stroke: #ffa500; stroke-width: 1.5; stroke-linecap: square"/>
    </g>
    <g id="text_19">
     <!-- 校验值 -->
     <g transform="translate(1332.390625 66.8735)scale(0.1 -0.1)">
      <defs>
       <path id="WenQuanYiZenHei-6821" d="M 5256 2463 
Q 5025 1475 4494 706 
Q 5125 -94 6175 -544 
Q 5950 -663 5850 -900 
Q 4906 -494 4250 381 
Q 3931 0 3475 -350 
Q 3019 -700 2388 -919 
Q 2338 -656 2138 -475 
Q 3306 -69 4006 738 
Q 3563 1444 3300 2331 
Q 3050 2050 2706 1800 
Q 2606 2000 2406 2106 
Q 2900 2444 3181 2938 
Q 3350 3225 3488 3538 
Q 3700 3431 3925 3369 
Q 3763 2894 3425 2475 
L 3650 2531 
Q 3888 1675 4244 1075 
Q 4469 1444 4603 1937 
Q 4738 2431 4775 2688 
Q 4963 2644 5150 2625 
Q 4919 2969 4663 3294 
L 5038 3588 
Q 5544 2925 5975 2213 
L 5569 1969 
L 5256 2463 
z
M 6006 4050 
Q 5988 3881 6006 3713 
Q 5694 3725 5381 3725 
L 3413 3725 
Q 3100 3725 2788 3713 
Q 2806 3881 2788 4050 
Q 3100 4031 3413 4031 
L 4325 4031 
Q 4019 4525 3644 4969 
L 4000 5275 
Q 4413 4788 4750 4244 
L 4406 4031 
L 5381 4031 
Q 5694 4031 6006 4050 
z
M 406 263 
Q 238 431 -25 469 
Q 194 825 466 1337 
Q 738 1850 925 2406 
Q 1113 2963 1256 3519 
L 825 3519 
Q 506 3519 188 3500 
Q 206 3700 188 3900 
Q 506 3881 825 3881 
L 1363 3881 
L 1363 4263 
Q 1363 4719 1338 5175 
Q 1556 5150 1775 5175 
Q 1756 4719 1756 4263 
L 1756 3881 
L 2525 3900 
Q 2506 3700 2525 3500 
L 1756 3519 
L 1756 2738 
L 1931 2881 
Q 2306 2300 2613 1650 
L 2231 1413 
Q 2081 1725 1919 2019 
L 1756 2300 
L 1756 69 
Q 1756 -388 1775 -850 
Q 1556 -825 1338 -850 
Q 1363 -388 1363 69 
L 1363 2438 
Q 925 1144 406 263 
z
" transform="scale(0.015625)"/>
       <path id="WenQuanYiZenHei-9a8c" d="M 5981 -106 
Q 5963 -275 5981 -444 
Q 5669 -431 5356 -431 
L 2969 -431 
Q 2656 -431 2350 -444 
Q 2363 -275 2350 -106 
Q 2656 -125 2969 -125 
L 4369 -125 
Q 4600 431 4881 1288 
L 5206 2300 
Q 5425 2206 5663 2163 
Q 5375 1188 4831 -125 
L 5356 -125 
Q 5669 -125 5981 -106 
z
M 4063 594 
Q 3788 1425 3425 2219 
L 3856 2419 
Q 4225 1600 4513 744 
L 4063 594 
z
M 3163 363 
Q 2931 1200 2613 2006 
L 3056 2175 
Q 3381 1350 3619 488 
L 3163 363 
z
M 4581 2550 
L 3513 2550 
Q 3200 2550 2888 2538 
Q 2900 2663 2894 2769 
Q 2569 2488 2206 2300 
Q 2113 2550 1894 2700 
Q 2488 2975 2975 3463 
Q 3269 3756 3394 4006 
Q 3644 4513 3794 5063 
Q 4038 4975 4294 4931 
Q 4250 4806 4206 4681 
Q 4475 3888 5025 3388 
Q 5519 2938 6169 2650 
Q 5938 2538 5838 2300 
Q 5513 2456 5200 2700 
Q 5200 2619 5206 2538 
Q 4894 2550 4581 2550 
z
M 3513 2863 
L 4994 2869 
Q 4344 3438 3988 4194 
Q 3594 3406 3013 2869 
Q 3263 2863 3513 2863 
z
M 206 444 
Q 188 756 44 963 
Q 319 956 650 1003 
Q 981 1050 1731 1281 
L 1738 1006 
Q 800 719 206 444 
z
M 525 4000 
Q 744 3950 994 3944 
Q 925 3519 875 3081 
L 763 2144 
L 1475 2144 
L 1831 4444 
L 663 4444 
Q 350 4444 38 4431 
Q 56 4600 38 4769 
Q 350 4756 663 4756 
L 2313 4756 
L 1913 2144 
L 2375 2144 
L 2200 -200 
Q 2188 -425 1988 -588 
Q 1694 -800 1181 -788 
L 944 -788 
Q 1000 -450 788 -269 
Q 1013 -294 1334 -287 
Q 1656 -281 1715 -243 
Q 1775 -206 1781 -50 
L 1925 1831 
L 294 1831 
L 444 3131 
Q 500 3569 525 4000 
z
" transform="scale(0.015625)"/>
      </defs>
      <use xlink:href="#WenQuanYiZenHei-6821"/>
      <use xlink:href="#WenQuanYiZenHei-9a8c" x="100"/>
      <use xlink:href="#WenQuanYiZenHei-503c" x="200"/>
     </g>
    </g>
    <g id="line2d_22">
     <path d="M 1304.390625 77.895375 
L 1314.390625 77.895375 
L 1324.390625 77.895375 
" style="fill: none; stroke: #ff0000; stroke-width: 1.5; stroke-linecap: square"/>
    </g>
    <g id="text_20">
     <!-- 预测值 -->
     <g transform="translate(1332.390625 81.395375)scale(0.1 -0.1)">
      <use xlink:href="#WenQuanYiZenHei-9884"/>
      <use xlink:href="#WenQuanYiZenHei-6d4b" x="100"/>
      <use xlink:href="#WenQuanYiZenHei-503c" x="200"/>
     </g>
    </g>
   </g>
  </g>
 </g>
 <defs>
  <clipPath id="paadc29970f">
   <rect x="32.190625" y="35.061" width="1339.2" height="332.64"/>
  </clipPath>
 </defs>
</svg>
